%TF.GenerationSoftware,KiCad,Pcbnew,(6.0.2)*%
%TF.CreationDate,2022-10-25T13:29:22-07:00*%
%TF.ProjectId,cwaz_lpf,6377617a-5f6c-4706-962e-6b696361645f,rev?*%
%TF.SameCoordinates,Original*%
%TF.FileFunction,Legend,Top*%
%TF.FilePolarity,Positive*%
%FSLAX46Y46*%
G04 Gerber Fmt 4.6, Leading zero omitted, Abs format (unit mm)*
G04 Created by KiCad (PCBNEW (6.0.2)) date 2022-10-25 13:29:22*
%MOMM*%
%LPD*%
G01*
G04 APERTURE LIST*
%ADD10C,0.150000*%
%ADD11C,0.300000*%
%ADD12C,0.120000*%
G04 APERTURE END LIST*
D10*
X90848000Y-41533714D02*
X91228952Y-41533714D01*
X90990857Y-41200380D02*
X90990857Y-42057523D01*
X91038476Y-42152761D01*
X91133714Y-42200380D01*
X91228952Y-42200380D01*
X91705142Y-42200380D02*
X91609904Y-42152761D01*
X91562285Y-42105142D01*
X91514666Y-42009904D01*
X91514666Y-41724190D01*
X91562285Y-41628952D01*
X91609904Y-41581333D01*
X91705142Y-41533714D01*
X91848000Y-41533714D01*
X91943238Y-41581333D01*
X91990857Y-41628952D01*
X92038476Y-41724190D01*
X92038476Y-42009904D01*
X91990857Y-42105142D01*
X91943238Y-42152761D01*
X91848000Y-42200380D01*
X91705142Y-42200380D01*
X93657523Y-42200380D02*
X93657523Y-41676571D01*
X93609904Y-41581333D01*
X93514666Y-41533714D01*
X93324190Y-41533714D01*
X93228952Y-41581333D01*
X93657523Y-42152761D02*
X93562285Y-42200380D01*
X93324190Y-42200380D01*
X93228952Y-42152761D01*
X93181333Y-42057523D01*
X93181333Y-41962285D01*
X93228952Y-41867047D01*
X93324190Y-41819428D01*
X93562285Y-41819428D01*
X93657523Y-41771809D01*
X94133714Y-41533714D02*
X94133714Y-42200380D01*
X94133714Y-41628952D02*
X94181333Y-41581333D01*
X94276571Y-41533714D01*
X94419428Y-41533714D01*
X94514666Y-41581333D01*
X94562285Y-41676571D01*
X94562285Y-42200380D01*
X94895619Y-41533714D02*
X95276571Y-41533714D01*
X95038476Y-41200380D02*
X95038476Y-42057523D01*
X95086095Y-42152761D01*
X95181333Y-42200380D01*
X95276571Y-42200380D01*
X95990857Y-42152761D02*
X95895619Y-42200380D01*
X95705142Y-42200380D01*
X95609904Y-42152761D01*
X95562285Y-42057523D01*
X95562285Y-41676571D01*
X95609904Y-41581333D01*
X95705142Y-41533714D01*
X95895619Y-41533714D01*
X95990857Y-41581333D01*
X96038476Y-41676571D01*
X96038476Y-41771809D01*
X95562285Y-41867047D01*
X96467047Y-41533714D02*
X96467047Y-42200380D01*
X96467047Y-41628952D02*
X96514666Y-41581333D01*
X96609904Y-41533714D01*
X96752761Y-41533714D01*
X96848000Y-41581333D01*
X96895619Y-41676571D01*
X96895619Y-42200380D01*
X97371809Y-41533714D02*
X97371809Y-42200380D01*
X97371809Y-41628952D02*
X97419428Y-41581333D01*
X97514666Y-41533714D01*
X97657523Y-41533714D01*
X97752761Y-41581333D01*
X97800380Y-41676571D01*
X97800380Y-42200380D01*
X98705142Y-42200380D02*
X98705142Y-41676571D01*
X98657523Y-41581333D01*
X98562285Y-41533714D01*
X98371809Y-41533714D01*
X98276571Y-41581333D01*
X98705142Y-42152761D02*
X98609904Y-42200380D01*
X98371809Y-42200380D01*
X98276571Y-42152761D01*
X98228952Y-42057523D01*
X98228952Y-41962285D01*
X98276571Y-41867047D01*
X98371809Y-41819428D01*
X98609904Y-41819428D01*
X98705142Y-41771809D01*
D11*
X83700000Y-95821428D02*
X83771428Y-95750000D01*
X83914285Y-95678571D01*
X84271428Y-95678571D01*
X84414285Y-95750000D01*
X84485714Y-95821428D01*
X84557142Y-95964285D01*
X84557142Y-96107142D01*
X84485714Y-96321428D01*
X83628571Y-97178571D01*
X84557142Y-97178571D01*
X85485714Y-95678571D02*
X85628571Y-95678571D01*
X85771428Y-95750000D01*
X85842857Y-95821428D01*
X85914285Y-95964285D01*
X85985714Y-96250000D01*
X85985714Y-96607142D01*
X85914285Y-96892857D01*
X85842857Y-97035714D01*
X85771428Y-97107142D01*
X85628571Y-97178571D01*
X85485714Y-97178571D01*
X85342857Y-97107142D01*
X85271428Y-97035714D01*
X85200000Y-96892857D01*
X85128571Y-96607142D01*
X85128571Y-96250000D01*
X85200000Y-95964285D01*
X85271428Y-95821428D01*
X85342857Y-95750000D01*
X85485714Y-95678571D01*
X86628571Y-97178571D02*
X86628571Y-95678571D01*
X87128571Y-96750000D01*
X87628571Y-95678571D01*
X87628571Y-97178571D01*
X84557142Y-99778571D02*
X83700000Y-99778571D01*
X84128571Y-99778571D02*
X84128571Y-98278571D01*
X83985714Y-98492857D01*
X83842857Y-98635714D01*
X83700000Y-98707142D01*
X85057142Y-98278571D02*
X86057142Y-98278571D01*
X85414285Y-99778571D01*
X86628571Y-99778571D02*
X86628571Y-98278571D01*
X87128571Y-99350000D01*
X87628571Y-98278571D01*
X87628571Y-99778571D01*
X84457142Y-103650000D02*
X84314285Y-103578571D01*
X84100000Y-103578571D01*
X83885714Y-103650000D01*
X83742857Y-103792857D01*
X83671428Y-103935714D01*
X83600000Y-104221428D01*
X83600000Y-104435714D01*
X83671428Y-104721428D01*
X83742857Y-104864285D01*
X83885714Y-105007142D01*
X84100000Y-105078571D01*
X84242857Y-105078571D01*
X84457142Y-105007142D01*
X84528571Y-104935714D01*
X84528571Y-104435714D01*
X84242857Y-104435714D01*
X85171428Y-105078571D02*
X85171428Y-103578571D01*
X86028571Y-105078571D01*
X86028571Y-103578571D01*
X86742857Y-105078571D02*
X86742857Y-103578571D01*
X87100000Y-103578571D01*
X87314285Y-103650000D01*
X87457142Y-103792857D01*
X87528571Y-103935714D01*
X87600000Y-104221428D01*
X87600000Y-104435714D01*
X87528571Y-104721428D01*
X87457142Y-104864285D01*
X87314285Y-105007142D01*
X87100000Y-105078571D01*
X86742857Y-105078571D01*
D10*
X108859095Y-42581380D02*
X108859095Y-41581380D01*
X109430523Y-42581380D01*
X109430523Y-41581380D01*
X109811476Y-41581380D02*
X110478142Y-41581380D01*
X110049571Y-42581380D01*
X110763857Y-41581380D02*
X111001952Y-42581380D01*
X111192428Y-41867095D01*
X111382904Y-42581380D01*
X111621000Y-41581380D01*
X112001952Y-42581380D02*
X112001952Y-41581380D01*
X112335285Y-42295666D01*
X112668619Y-41581380D01*
X112668619Y-42581380D01*
X114478142Y-42486142D02*
X114430523Y-42533761D01*
X114287666Y-42581380D01*
X114192428Y-42581380D01*
X114049571Y-42533761D01*
X113954333Y-42438523D01*
X113906714Y-42343285D01*
X113859095Y-42152809D01*
X113859095Y-42009952D01*
X113906714Y-41819476D01*
X113954333Y-41724238D01*
X114049571Y-41629000D01*
X114192428Y-41581380D01*
X114287666Y-41581380D01*
X114430523Y-41629000D01*
X114478142Y-41676619D01*
X114811476Y-41581380D02*
X115049571Y-42581380D01*
X115240047Y-41867095D01*
X115430523Y-42581380D01*
X115668619Y-41581380D01*
X116001952Y-42295666D02*
X116478142Y-42295666D01*
X115906714Y-42581380D02*
X116240047Y-41581380D01*
X116573380Y-42581380D01*
X116811476Y-41581380D02*
X117478142Y-41581380D01*
X116811476Y-42581380D01*
X117478142Y-42581380D01*
X119097190Y-42581380D02*
X118621000Y-42581380D01*
X118621000Y-41581380D01*
X119430523Y-42581380D02*
X119430523Y-41581380D01*
X119811476Y-41581380D01*
X119906714Y-41629000D01*
X119954333Y-41676619D01*
X120001952Y-41771857D01*
X120001952Y-41914714D01*
X119954333Y-42009952D01*
X119906714Y-42057571D01*
X119811476Y-42105190D01*
X119430523Y-42105190D01*
X120763857Y-42057571D02*
X120430523Y-42057571D01*
X120430523Y-42581380D02*
X120430523Y-41581380D01*
X120906714Y-41581380D01*
X122382904Y-42057571D02*
X122525761Y-42105190D01*
X122573380Y-42152809D01*
X122621000Y-42248047D01*
X122621000Y-42390904D01*
X122573380Y-42486142D01*
X122525761Y-42533761D01*
X122430523Y-42581380D01*
X122049571Y-42581380D01*
X122049571Y-41581380D01*
X122382904Y-41581380D01*
X122478142Y-41629000D01*
X122525761Y-41676619D01*
X122573380Y-41771857D01*
X122573380Y-41867095D01*
X122525761Y-41962333D01*
X122478142Y-42009952D01*
X122382904Y-42057571D01*
X122049571Y-42057571D01*
X123192428Y-42581380D02*
X123097190Y-42533761D01*
X123049571Y-42486142D01*
X123001952Y-42390904D01*
X123001952Y-42105190D01*
X123049571Y-42009952D01*
X123097190Y-41962333D01*
X123192428Y-41914714D01*
X123335285Y-41914714D01*
X123430523Y-41962333D01*
X123478142Y-42009952D01*
X123525761Y-42105190D01*
X123525761Y-42390904D01*
X123478142Y-42486142D01*
X123430523Y-42533761D01*
X123335285Y-42581380D01*
X123192428Y-42581380D01*
X124382904Y-42581380D02*
X124382904Y-42057571D01*
X124335285Y-41962333D01*
X124240047Y-41914714D01*
X124049571Y-41914714D01*
X123954333Y-41962333D01*
X124382904Y-42533761D02*
X124287666Y-42581380D01*
X124049571Y-42581380D01*
X123954333Y-42533761D01*
X123906714Y-42438523D01*
X123906714Y-42343285D01*
X123954333Y-42248047D01*
X124049571Y-42200428D01*
X124287666Y-42200428D01*
X124382904Y-42152809D01*
X124859095Y-42581380D02*
X124859095Y-41914714D01*
X124859095Y-42105190D02*
X124906714Y-42009952D01*
X124954333Y-41962333D01*
X125049571Y-41914714D01*
X125144809Y-41914714D01*
X125906714Y-42581380D02*
X125906714Y-41581380D01*
X125906714Y-42533761D02*
X125811476Y-42581380D01*
X125621000Y-42581380D01*
X125525761Y-42533761D01*
X125478142Y-42486142D01*
X125430523Y-42390904D01*
X125430523Y-42105190D01*
X125478142Y-42009952D01*
X125525761Y-41962333D01*
X125621000Y-41914714D01*
X125811476Y-41914714D01*
X125906714Y-41962333D01*
X127716238Y-42581380D02*
X127382904Y-42105190D01*
X127144809Y-42581380D02*
X127144809Y-41581380D01*
X127525761Y-41581380D01*
X127621000Y-41629000D01*
X127668619Y-41676619D01*
X127716238Y-41771857D01*
X127716238Y-41914714D01*
X127668619Y-42009952D01*
X127621000Y-42057571D01*
X127525761Y-42105190D01*
X127144809Y-42105190D01*
X128525761Y-42533761D02*
X128430523Y-42581380D01*
X128240047Y-42581380D01*
X128144809Y-42533761D01*
X128097190Y-42438523D01*
X128097190Y-42057571D01*
X128144809Y-41962333D01*
X128240047Y-41914714D01*
X128430523Y-41914714D01*
X128525761Y-41962333D01*
X128573380Y-42057571D01*
X128573380Y-42152809D01*
X128097190Y-42248047D01*
X128906714Y-41914714D02*
X129144809Y-42581380D01*
X129382904Y-41914714D01*
X129763857Y-42486142D02*
X129811476Y-42533761D01*
X129763857Y-42581380D01*
X129716238Y-42533761D01*
X129763857Y-42486142D01*
X129763857Y-42581380D01*
X130954333Y-42295666D02*
X131430523Y-42295666D01*
X130859095Y-42581380D02*
X131192428Y-41581380D01*
X131525761Y-42581380D01*
X84357142Y-149280714D02*
X84738095Y-149280714D01*
X84500000Y-148947380D02*
X84500000Y-149804523D01*
X84547619Y-149899761D01*
X84642857Y-149947380D01*
X84738095Y-149947380D01*
X85214285Y-149947380D02*
X85119047Y-149899761D01*
X85071428Y-149852142D01*
X85023809Y-149756904D01*
X85023809Y-149471190D01*
X85071428Y-149375952D01*
X85119047Y-149328333D01*
X85214285Y-149280714D01*
X85357142Y-149280714D01*
X85452380Y-149328333D01*
X85500000Y-149375952D01*
X85547619Y-149471190D01*
X85547619Y-149756904D01*
X85500000Y-149852142D01*
X85452380Y-149899761D01*
X85357142Y-149947380D01*
X85214285Y-149947380D01*
X80976190Y-150890714D02*
X81357142Y-150890714D01*
X81119047Y-150557380D02*
X81119047Y-151414523D01*
X81166666Y-151509761D01*
X81261904Y-151557380D01*
X81357142Y-151557380D01*
X81690476Y-151557380D02*
X81690476Y-150890714D01*
X81690476Y-151081190D02*
X81738095Y-150985952D01*
X81785714Y-150938333D01*
X81880952Y-150890714D01*
X81976190Y-150890714D01*
X82738095Y-151557380D02*
X82738095Y-151033571D01*
X82690476Y-150938333D01*
X82595238Y-150890714D01*
X82404761Y-150890714D01*
X82309523Y-150938333D01*
X82738095Y-151509761D02*
X82642857Y-151557380D01*
X82404761Y-151557380D01*
X82309523Y-151509761D01*
X82261904Y-151414523D01*
X82261904Y-151319285D01*
X82309523Y-151224047D01*
X82404761Y-151176428D01*
X82642857Y-151176428D01*
X82738095Y-151128809D01*
X83214285Y-150890714D02*
X83214285Y-151557380D01*
X83214285Y-150985952D02*
X83261904Y-150938333D01*
X83357142Y-150890714D01*
X83500000Y-150890714D01*
X83595238Y-150938333D01*
X83642857Y-151033571D01*
X83642857Y-151557380D01*
X84071428Y-151509761D02*
X84166666Y-151557380D01*
X84357142Y-151557380D01*
X84452380Y-151509761D01*
X84500000Y-151414523D01*
X84500000Y-151366904D01*
X84452380Y-151271666D01*
X84357142Y-151224047D01*
X84214285Y-151224047D01*
X84119047Y-151176428D01*
X84071428Y-151081190D01*
X84071428Y-151033571D01*
X84119047Y-150938333D01*
X84214285Y-150890714D01*
X84357142Y-150890714D01*
X84452380Y-150938333D01*
X84928571Y-151557380D02*
X84928571Y-150890714D01*
X84928571Y-150985952D02*
X84976190Y-150938333D01*
X85071428Y-150890714D01*
X85214285Y-150890714D01*
X85309523Y-150938333D01*
X85357142Y-151033571D01*
X85357142Y-151557380D01*
X85357142Y-151033571D02*
X85404761Y-150938333D01*
X85500000Y-150890714D01*
X85642857Y-150890714D01*
X85738095Y-150938333D01*
X85785714Y-151033571D01*
X85785714Y-151557380D01*
X86261904Y-151557380D02*
X86261904Y-150890714D01*
X86261904Y-150557380D02*
X86214285Y-150605000D01*
X86261904Y-150652619D01*
X86309523Y-150605000D01*
X86261904Y-150557380D01*
X86261904Y-150652619D01*
X86595238Y-150890714D02*
X86976190Y-150890714D01*
X86738095Y-150557380D02*
X86738095Y-151414523D01*
X86785714Y-151509761D01*
X86880952Y-151557380D01*
X86976190Y-151557380D01*
X87166666Y-150890714D02*
X87547619Y-150890714D01*
X87309523Y-150557380D02*
X87309523Y-151414523D01*
X87357142Y-151509761D01*
X87452380Y-151557380D01*
X87547619Y-151557380D01*
X88261904Y-151509761D02*
X88166666Y-151557380D01*
X87976190Y-151557380D01*
X87880952Y-151509761D01*
X87833333Y-151414523D01*
X87833333Y-151033571D01*
X87880952Y-150938333D01*
X87976190Y-150890714D01*
X88166666Y-150890714D01*
X88261904Y-150938333D01*
X88309523Y-151033571D01*
X88309523Y-151128809D01*
X87833333Y-151224047D01*
X88738095Y-151557380D02*
X88738095Y-150890714D01*
X88738095Y-151081190D02*
X88785714Y-150985952D01*
X88833333Y-150938333D01*
X88928571Y-150890714D01*
X89023809Y-150890714D01*
D11*
X84314285Y-90978571D02*
X84314285Y-91978571D01*
X83957142Y-90407142D02*
X83600000Y-91478571D01*
X84528571Y-91478571D01*
X85385714Y-90478571D02*
X85528571Y-90478571D01*
X85671428Y-90550000D01*
X85742857Y-90621428D01*
X85814285Y-90764285D01*
X85885714Y-91050000D01*
X85885714Y-91407142D01*
X85814285Y-91692857D01*
X85742857Y-91835714D01*
X85671428Y-91907142D01*
X85528571Y-91978571D01*
X85385714Y-91978571D01*
X85242857Y-91907142D01*
X85171428Y-91835714D01*
X85100000Y-91692857D01*
X85028571Y-91407142D01*
X85028571Y-91050000D01*
X85100000Y-90764285D01*
X85171428Y-90621428D01*
X85242857Y-90550000D01*
X85385714Y-90478571D01*
X86528571Y-91978571D02*
X86528571Y-90478571D01*
X87028571Y-91550000D01*
X87528571Y-90478571D01*
X87528571Y-91978571D01*
X83569142Y-140407142D02*
X84712000Y-140407142D01*
X84140571Y-140978571D02*
X84140571Y-139835714D01*
X86212000Y-140978571D02*
X85354857Y-140978571D01*
X85783428Y-140978571D02*
X85783428Y-139478571D01*
X85640571Y-139692857D01*
X85497714Y-139835714D01*
X85354857Y-139907142D01*
X86783428Y-139621428D02*
X86854857Y-139550000D01*
X86997714Y-139478571D01*
X87354857Y-139478571D01*
X87497714Y-139550000D01*
X87569142Y-139621428D01*
X87640571Y-139764285D01*
X87640571Y-139907142D01*
X87569142Y-140121428D01*
X86712000Y-140978571D01*
X87640571Y-140978571D01*
X88069142Y-139478571D02*
X88569142Y-140978571D01*
X89069142Y-139478571D01*
X84557142Y-102278571D02*
X83700000Y-102278571D01*
X84128571Y-102278571D02*
X84128571Y-100778571D01*
X83985714Y-100992857D01*
X83842857Y-101135714D01*
X83700000Y-101207142D01*
X85914285Y-100778571D02*
X85200000Y-100778571D01*
X85128571Y-101492857D01*
X85200000Y-101421428D01*
X85342857Y-101350000D01*
X85700000Y-101350000D01*
X85842857Y-101421428D01*
X85914285Y-101492857D01*
X85985714Y-101635714D01*
X85985714Y-101992857D01*
X85914285Y-102135714D01*
X85842857Y-102207142D01*
X85700000Y-102278571D01*
X85342857Y-102278571D01*
X85200000Y-102207142D01*
X85128571Y-102135714D01*
X86628571Y-102278571D02*
X86628571Y-100778571D01*
X87128571Y-101850000D01*
X87628571Y-100778571D01*
X87628571Y-102278571D01*
D10*
X114422142Y-149880714D02*
X114803095Y-149880714D01*
X114565000Y-149547380D02*
X114565000Y-150404523D01*
X114612619Y-150499761D01*
X114707857Y-150547380D01*
X114803095Y-150547380D01*
X115279285Y-150547380D02*
X115184047Y-150499761D01*
X115136428Y-150452142D01*
X115088809Y-150356904D01*
X115088809Y-150071190D01*
X115136428Y-149975952D01*
X115184047Y-149928333D01*
X115279285Y-149880714D01*
X115422142Y-149880714D01*
X115517380Y-149928333D01*
X115565000Y-149975952D01*
X115612619Y-150071190D01*
X115612619Y-150356904D01*
X115565000Y-150452142D01*
X115517380Y-150499761D01*
X115422142Y-150547380D01*
X115279285Y-150547380D01*
X116660238Y-149880714D02*
X117041190Y-149880714D01*
X116803095Y-149547380D02*
X116803095Y-150404523D01*
X116850714Y-150499761D01*
X116945952Y-150547380D01*
X117041190Y-150547380D01*
X118088809Y-149499761D02*
X117231666Y-150785476D01*
X118422142Y-150547380D02*
X118422142Y-149880714D01*
X118422142Y-150071190D02*
X118469761Y-149975952D01*
X118517380Y-149928333D01*
X118612619Y-149880714D01*
X118707857Y-149880714D01*
X114422142Y-152109761D02*
X114517380Y-152157380D01*
X114707857Y-152157380D01*
X114803095Y-152109761D01*
X114850714Y-152014523D01*
X114850714Y-151966904D01*
X114803095Y-151871666D01*
X114707857Y-151824047D01*
X114565000Y-151824047D01*
X114469761Y-151776428D01*
X114422142Y-151681190D01*
X114422142Y-151633571D01*
X114469761Y-151538333D01*
X114565000Y-151490714D01*
X114707857Y-151490714D01*
X114803095Y-151538333D01*
X115184047Y-151490714D02*
X115374523Y-152157380D01*
X115565000Y-151681190D01*
X115755476Y-152157380D01*
X115945952Y-151490714D01*
X116326904Y-152157380D02*
X116326904Y-151490714D01*
X116326904Y-151157380D02*
X116279285Y-151205000D01*
X116326904Y-151252619D01*
X116374523Y-151205000D01*
X116326904Y-151157380D01*
X116326904Y-151252619D01*
X116660238Y-151490714D02*
X117041190Y-151490714D01*
X116803095Y-151157380D02*
X116803095Y-152014523D01*
X116850714Y-152109761D01*
X116945952Y-152157380D01*
X117041190Y-152157380D01*
X117803095Y-152109761D02*
X117707857Y-152157380D01*
X117517380Y-152157380D01*
X117422142Y-152109761D01*
X117374523Y-152062142D01*
X117326904Y-151966904D01*
X117326904Y-151681190D01*
X117374523Y-151585952D01*
X117422142Y-151538333D01*
X117517380Y-151490714D01*
X117707857Y-151490714D01*
X117803095Y-151538333D01*
X118231666Y-152157380D02*
X118231666Y-151157380D01*
X118660238Y-152157380D02*
X118660238Y-151633571D01*
X118612619Y-151538333D01*
X118517380Y-151490714D01*
X118374523Y-151490714D01*
X118279285Y-151538333D01*
X118231666Y-151585952D01*
D11*
X83628571Y-93178571D02*
X84557142Y-93178571D01*
X84057142Y-93750000D01*
X84271428Y-93750000D01*
X84414285Y-93821428D01*
X84485714Y-93892857D01*
X84557142Y-94035714D01*
X84557142Y-94392857D01*
X84485714Y-94535714D01*
X84414285Y-94607142D01*
X84271428Y-94678571D01*
X83842857Y-94678571D01*
X83700000Y-94607142D01*
X83628571Y-94535714D01*
X85485714Y-93178571D02*
X85628571Y-93178571D01*
X85771428Y-93250000D01*
X85842857Y-93321428D01*
X85914285Y-93464285D01*
X85985714Y-93750000D01*
X85985714Y-94107142D01*
X85914285Y-94392857D01*
X85842857Y-94535714D01*
X85771428Y-94607142D01*
X85628571Y-94678571D01*
X85485714Y-94678571D01*
X85342857Y-94607142D01*
X85271428Y-94535714D01*
X85200000Y-94392857D01*
X85128571Y-94107142D01*
X85128571Y-93750000D01*
X85200000Y-93464285D01*
X85271428Y-93321428D01*
X85342857Y-93250000D01*
X85485714Y-93178571D01*
X86628571Y-94678571D02*
X86628571Y-93178571D01*
X87128571Y-94250000D01*
X87628571Y-93178571D01*
X87628571Y-94678571D01*
D10*
%TO.C,D5*%
X87299404Y-136552380D02*
X87299404Y-135552380D01*
X87537500Y-135552380D01*
X87680357Y-135600000D01*
X87775595Y-135695238D01*
X87823214Y-135790476D01*
X87870833Y-135980952D01*
X87870833Y-136123809D01*
X87823214Y-136314285D01*
X87775595Y-136409523D01*
X87680357Y-136504761D01*
X87537500Y-136552380D01*
X87299404Y-136552380D01*
X88775595Y-135552380D02*
X88299404Y-135552380D01*
X88251785Y-136028571D01*
X88299404Y-135980952D01*
X88394642Y-135933333D01*
X88632738Y-135933333D01*
X88727976Y-135980952D01*
X88775595Y-136028571D01*
X88823214Y-136123809D01*
X88823214Y-136361904D01*
X88775595Y-136457142D01*
X88727976Y-136504761D01*
X88632738Y-136552380D01*
X88394642Y-136552380D01*
X88299404Y-136504761D01*
X88251785Y-136457142D01*
X88675595Y-143862380D02*
X88675595Y-142862380D01*
X89247023Y-143862380D02*
X88818452Y-143290952D01*
X89247023Y-142862380D02*
X88675595Y-143433809D01*
%TO.C,C5*%
X109533333Y-85057142D02*
X109485714Y-85104761D01*
X109342857Y-85152380D01*
X109247619Y-85152380D01*
X109104761Y-85104761D01*
X109009523Y-85009523D01*
X108961904Y-84914285D01*
X108914285Y-84723809D01*
X108914285Y-84580952D01*
X108961904Y-84390476D01*
X109009523Y-84295238D01*
X109104761Y-84200000D01*
X109247619Y-84152380D01*
X109342857Y-84152380D01*
X109485714Y-84200000D01*
X109533333Y-84247619D01*
X110438095Y-84152380D02*
X109961904Y-84152380D01*
X109914285Y-84628571D01*
X109961904Y-84580952D01*
X110057142Y-84533333D01*
X110295238Y-84533333D01*
X110390476Y-84580952D01*
X110438095Y-84628571D01*
X110485714Y-84723809D01*
X110485714Y-84961904D01*
X110438095Y-85057142D01*
X110390476Y-85104761D01*
X110295238Y-85152380D01*
X110057142Y-85152380D01*
X109961904Y-85104761D01*
X109914285Y-85057142D01*
%TO.C,Q1*%
X95367261Y-44447619D02*
X95272023Y-44400000D01*
X95176785Y-44304761D01*
X95033928Y-44161904D01*
X94938690Y-44114285D01*
X94843452Y-44114285D01*
X94891071Y-44352380D02*
X94795833Y-44304761D01*
X94700595Y-44209523D01*
X94652976Y-44019047D01*
X94652976Y-43685714D01*
X94700595Y-43495238D01*
X94795833Y-43400000D01*
X94891071Y-43352380D01*
X95081547Y-43352380D01*
X95176785Y-43400000D01*
X95272023Y-43495238D01*
X95319642Y-43685714D01*
X95319642Y-44019047D01*
X95272023Y-44209523D01*
X95176785Y-44304761D01*
X95081547Y-44352380D01*
X94891071Y-44352380D01*
X96272023Y-44352380D02*
X95700595Y-44352380D01*
X95986309Y-44352380D02*
X95986309Y-43352380D01*
X95891071Y-43495238D01*
X95795833Y-43590476D01*
X95700595Y-43638095D01*
%TO.C,R2*%
X87133333Y-68452380D02*
X86800000Y-67976190D01*
X86561904Y-68452380D02*
X86561904Y-67452380D01*
X86942857Y-67452380D01*
X87038095Y-67500000D01*
X87085714Y-67547619D01*
X87133333Y-67642857D01*
X87133333Y-67785714D01*
X87085714Y-67880952D01*
X87038095Y-67928571D01*
X86942857Y-67976190D01*
X86561904Y-67976190D01*
X87514285Y-67547619D02*
X87561904Y-67500000D01*
X87657142Y-67452380D01*
X87895238Y-67452380D01*
X87990476Y-67500000D01*
X88038095Y-67547619D01*
X88085714Y-67642857D01*
X88085714Y-67738095D01*
X88038095Y-67880952D01*
X87466666Y-68452380D01*
X88085714Y-68452380D01*
%TO.C,R1*%
X87533333Y-45352380D02*
X87200000Y-44876190D01*
X86961904Y-45352380D02*
X86961904Y-44352380D01*
X87342857Y-44352380D01*
X87438095Y-44400000D01*
X87485714Y-44447619D01*
X87533333Y-44542857D01*
X87533333Y-44685714D01*
X87485714Y-44780952D01*
X87438095Y-44828571D01*
X87342857Y-44876190D01*
X86961904Y-44876190D01*
X88485714Y-45352380D02*
X87914285Y-45352380D01*
X88200000Y-45352380D02*
X88200000Y-44352380D01*
X88104761Y-44495238D01*
X88009523Y-44590476D01*
X87914285Y-44638095D01*
%TO.C,Q3*%
X96167261Y-87347619D02*
X96072023Y-87300000D01*
X95976785Y-87204761D01*
X95833928Y-87061904D01*
X95738690Y-87014285D01*
X95643452Y-87014285D01*
X95691071Y-87252380D02*
X95595833Y-87204761D01*
X95500595Y-87109523D01*
X95452976Y-86919047D01*
X95452976Y-86585714D01*
X95500595Y-86395238D01*
X95595833Y-86300000D01*
X95691071Y-86252380D01*
X95881547Y-86252380D01*
X95976785Y-86300000D01*
X96072023Y-86395238D01*
X96119642Y-86585714D01*
X96119642Y-86919047D01*
X96072023Y-87109523D01*
X95976785Y-87204761D01*
X95881547Y-87252380D01*
X95691071Y-87252380D01*
X96452976Y-86252380D02*
X97072023Y-86252380D01*
X96738690Y-86633333D01*
X96881547Y-86633333D01*
X96976785Y-86680952D01*
X97024404Y-86728571D01*
X97072023Y-86823809D01*
X97072023Y-87061904D01*
X97024404Y-87157142D01*
X96976785Y-87204761D01*
X96881547Y-87252380D01*
X96595833Y-87252380D01*
X96500595Y-87204761D01*
X96452976Y-87157142D01*
%TO.C,C8*%
X133033333Y-85257142D02*
X132985714Y-85304761D01*
X132842857Y-85352380D01*
X132747619Y-85352380D01*
X132604761Y-85304761D01*
X132509523Y-85209523D01*
X132461904Y-85114285D01*
X132414285Y-84923809D01*
X132414285Y-84780952D01*
X132461904Y-84590476D01*
X132509523Y-84495238D01*
X132604761Y-84400000D01*
X132747619Y-84352380D01*
X132842857Y-84352380D01*
X132985714Y-84400000D01*
X133033333Y-84447619D01*
X133604761Y-84780952D02*
X133509523Y-84733333D01*
X133461904Y-84685714D01*
X133414285Y-84590476D01*
X133414285Y-84542857D01*
X133461904Y-84447619D01*
X133509523Y-84400000D01*
X133604761Y-84352380D01*
X133795238Y-84352380D01*
X133890476Y-84400000D01*
X133938095Y-84447619D01*
X133985714Y-84542857D01*
X133985714Y-84590476D01*
X133938095Y-84685714D01*
X133890476Y-84733333D01*
X133795238Y-84780952D01*
X133604761Y-84780952D01*
X133509523Y-84828571D01*
X133461904Y-84876190D01*
X133414285Y-84971428D01*
X133414285Y-85161904D01*
X133461904Y-85257142D01*
X133509523Y-85304761D01*
X133604761Y-85352380D01*
X133795238Y-85352380D01*
X133890476Y-85304761D01*
X133938095Y-85257142D01*
X133985714Y-85161904D01*
X133985714Y-84971428D01*
X133938095Y-84876190D01*
X133890476Y-84828571D01*
X133795238Y-84780952D01*
%TO.C,R5*%
X87233333Y-70752380D02*
X86900000Y-70276190D01*
X86661904Y-70752380D02*
X86661904Y-69752380D01*
X87042857Y-69752380D01*
X87138095Y-69800000D01*
X87185714Y-69847619D01*
X87233333Y-69942857D01*
X87233333Y-70085714D01*
X87185714Y-70180952D01*
X87138095Y-70228571D01*
X87042857Y-70276190D01*
X86661904Y-70276190D01*
X88138095Y-69752380D02*
X87661904Y-69752380D01*
X87614285Y-70228571D01*
X87661904Y-70180952D01*
X87757142Y-70133333D01*
X87995238Y-70133333D01*
X88090476Y-70180952D01*
X88138095Y-70228571D01*
X88185714Y-70323809D01*
X88185714Y-70561904D01*
X88138095Y-70657142D01*
X88090476Y-70704761D01*
X87995238Y-70752380D01*
X87757142Y-70752380D01*
X87661904Y-70704761D01*
X87614285Y-70657142D01*
%TO.C,J8*%
X82366666Y-49152380D02*
X82366666Y-49866666D01*
X82319047Y-50009523D01*
X82223809Y-50104761D01*
X82080952Y-50152380D01*
X81985714Y-50152380D01*
X82985714Y-49580952D02*
X82890476Y-49533333D01*
X82842857Y-49485714D01*
X82795238Y-49390476D01*
X82795238Y-49342857D01*
X82842857Y-49247619D01*
X82890476Y-49200000D01*
X82985714Y-49152380D01*
X83176190Y-49152380D01*
X83271428Y-49200000D01*
X83319047Y-49247619D01*
X83366666Y-49342857D01*
X83366666Y-49390476D01*
X83319047Y-49485714D01*
X83271428Y-49533333D01*
X83176190Y-49580952D01*
X82985714Y-49580952D01*
X82890476Y-49628571D01*
X82842857Y-49676190D01*
X82795238Y-49771428D01*
X82795238Y-49961904D01*
X82842857Y-50057142D01*
X82890476Y-50104761D01*
X82985714Y-50152380D01*
X83176190Y-50152380D01*
X83271428Y-50104761D01*
X83319047Y-50057142D01*
X83366666Y-49961904D01*
X83366666Y-49771428D01*
X83319047Y-49676190D01*
X83271428Y-49628571D01*
X83176190Y-49580952D01*
%TO.C,K2*%
X106261904Y-71352380D02*
X106261904Y-70352380D01*
X106833333Y-71352380D02*
X106404761Y-70780952D01*
X106833333Y-70352380D02*
X106261904Y-70923809D01*
X107214285Y-70447619D02*
X107261904Y-70400000D01*
X107357142Y-70352380D01*
X107595238Y-70352380D01*
X107690476Y-70400000D01*
X107738095Y-70447619D01*
X107785714Y-70542857D01*
X107785714Y-70638095D01*
X107738095Y-70780952D01*
X107166666Y-71352380D01*
X107785714Y-71352380D01*
%TO.C,L3*%
X131695833Y-99952380D02*
X131219642Y-99952380D01*
X131219642Y-98952380D01*
X131933928Y-98952380D02*
X132552976Y-98952380D01*
X132219642Y-99333333D01*
X132362500Y-99333333D01*
X132457738Y-99380952D01*
X132505357Y-99428571D01*
X132552976Y-99523809D01*
X132552976Y-99761904D01*
X132505357Y-99857142D01*
X132457738Y-99904761D01*
X132362500Y-99952380D01*
X132076785Y-99952380D01*
X131981547Y-99904761D01*
X131933928Y-99857142D01*
%TO.C,D1*%
X86561904Y-51052380D02*
X86561904Y-50052380D01*
X86800000Y-50052380D01*
X86942857Y-50100000D01*
X87038095Y-50195238D01*
X87085714Y-50290476D01*
X87133333Y-50480952D01*
X87133333Y-50623809D01*
X87085714Y-50814285D01*
X87038095Y-50909523D01*
X86942857Y-51004761D01*
X86800000Y-51052380D01*
X86561904Y-51052380D01*
X88085714Y-51052380D02*
X87514285Y-51052380D01*
X87800000Y-51052380D02*
X87800000Y-50052380D01*
X87704761Y-50195238D01*
X87609523Y-50290476D01*
X87514285Y-50338095D01*
X87338095Y-58852380D02*
X87338095Y-57852380D01*
X87909523Y-58852380D02*
X87480952Y-58280952D01*
X87909523Y-57852380D02*
X87338095Y-58423809D01*
%TO.C,J2*%
X81766666Y-132522380D02*
X81766666Y-133236666D01*
X81719047Y-133379523D01*
X81623809Y-133474761D01*
X81480952Y-133522380D01*
X81385714Y-133522380D01*
X82195238Y-132617619D02*
X82242857Y-132570000D01*
X82338095Y-132522380D01*
X82576190Y-132522380D01*
X82671428Y-132570000D01*
X82719047Y-132617619D01*
X82766666Y-132712857D01*
X82766666Y-132808095D01*
X82719047Y-132950952D01*
X82147619Y-133522380D01*
X82766666Y-133522380D01*
%TO.C,C19*%
X81557142Y-143687142D02*
X81509523Y-143734761D01*
X81366666Y-143782380D01*
X81271428Y-143782380D01*
X81128571Y-143734761D01*
X81033333Y-143639523D01*
X80985714Y-143544285D01*
X80938095Y-143353809D01*
X80938095Y-143210952D01*
X80985714Y-143020476D01*
X81033333Y-142925238D01*
X81128571Y-142830000D01*
X81271428Y-142782380D01*
X81366666Y-142782380D01*
X81509523Y-142830000D01*
X81557142Y-142877619D01*
X82509523Y-143782380D02*
X81938095Y-143782380D01*
X82223809Y-143782380D02*
X82223809Y-142782380D01*
X82128571Y-142925238D01*
X82033333Y-143020476D01*
X81938095Y-143068095D01*
X82985714Y-143782380D02*
X83176190Y-143782380D01*
X83271428Y-143734761D01*
X83319047Y-143687142D01*
X83414285Y-143544285D01*
X83461904Y-143353809D01*
X83461904Y-142972857D01*
X83414285Y-142877619D01*
X83366666Y-142830000D01*
X83271428Y-142782380D01*
X83080952Y-142782380D01*
X82985714Y-142830000D01*
X82938095Y-142877619D01*
X82890476Y-142972857D01*
X82890476Y-143210952D01*
X82938095Y-143306190D01*
X82985714Y-143353809D01*
X83080952Y-143401428D01*
X83271428Y-143401428D01*
X83366666Y-143353809D01*
X83414285Y-143306190D01*
X83461904Y-143210952D01*
%TO.C,K4*%
X105361904Y-112252380D02*
X105361904Y-111252380D01*
X105933333Y-112252380D02*
X105504761Y-111680952D01*
X105933333Y-111252380D02*
X105361904Y-111823809D01*
X106790476Y-111585714D02*
X106790476Y-112252380D01*
X106552380Y-111204761D02*
X106314285Y-111919047D01*
X106933333Y-111919047D01*
%TO.C,L13*%
X143857142Y-134752380D02*
X143380952Y-134752380D01*
X143380952Y-133752380D01*
X144714285Y-134752380D02*
X144142857Y-134752380D01*
X144428571Y-134752380D02*
X144428571Y-133752380D01*
X144333333Y-133895238D01*
X144238095Y-133990476D01*
X144142857Y-134038095D01*
X145047619Y-133752380D02*
X145666666Y-133752380D01*
X145333333Y-134133333D01*
X145476190Y-134133333D01*
X145571428Y-134180952D01*
X145619047Y-134228571D01*
X145666666Y-134323809D01*
X145666666Y-134561904D01*
X145619047Y-134657142D01*
X145571428Y-134704761D01*
X145476190Y-134752380D01*
X145190476Y-134752380D01*
X145095238Y-134704761D01*
X145047619Y-134657142D01*
%TO.C,Q4*%
X96167261Y-108247619D02*
X96072023Y-108200000D01*
X95976785Y-108104761D01*
X95833928Y-107961904D01*
X95738690Y-107914285D01*
X95643452Y-107914285D01*
X95691071Y-108152380D02*
X95595833Y-108104761D01*
X95500595Y-108009523D01*
X95452976Y-107819047D01*
X95452976Y-107485714D01*
X95500595Y-107295238D01*
X95595833Y-107200000D01*
X95691071Y-107152380D01*
X95881547Y-107152380D01*
X95976785Y-107200000D01*
X96072023Y-107295238D01*
X96119642Y-107485714D01*
X96119642Y-107819047D01*
X96072023Y-108009523D01*
X95976785Y-108104761D01*
X95881547Y-108152380D01*
X95691071Y-108152380D01*
X96976785Y-107485714D02*
X96976785Y-108152380D01*
X96738690Y-107104761D02*
X96500595Y-107819047D01*
X97119642Y-107819047D01*
%TO.C,C17*%
X108957142Y-69357142D02*
X108909523Y-69404761D01*
X108766666Y-69452380D01*
X108671428Y-69452380D01*
X108528571Y-69404761D01*
X108433333Y-69309523D01*
X108385714Y-69214285D01*
X108338095Y-69023809D01*
X108338095Y-68880952D01*
X108385714Y-68690476D01*
X108433333Y-68595238D01*
X108528571Y-68500000D01*
X108671428Y-68452380D01*
X108766666Y-68452380D01*
X108909523Y-68500000D01*
X108957142Y-68547619D01*
X109909523Y-69452380D02*
X109338095Y-69452380D01*
X109623809Y-69452380D02*
X109623809Y-68452380D01*
X109528571Y-68595238D01*
X109433333Y-68690476D01*
X109338095Y-68738095D01*
X110242857Y-68452380D02*
X110909523Y-68452380D01*
X110480952Y-69452380D01*
%TO.C,R3*%
X92633333Y-87252380D02*
X92300000Y-86776190D01*
X92061904Y-87252380D02*
X92061904Y-86252380D01*
X92442857Y-86252380D01*
X92538095Y-86300000D01*
X92585714Y-86347619D01*
X92633333Y-86442857D01*
X92633333Y-86585714D01*
X92585714Y-86680952D01*
X92538095Y-86728571D01*
X92442857Y-86776190D01*
X92061904Y-86776190D01*
X92966666Y-86252380D02*
X93585714Y-86252380D01*
X93252380Y-86633333D01*
X93395238Y-86633333D01*
X93490476Y-86680952D01*
X93538095Y-86728571D01*
X93585714Y-86823809D01*
X93585714Y-87061904D01*
X93538095Y-87157142D01*
X93490476Y-87204761D01*
X93395238Y-87252380D01*
X93109523Y-87252380D01*
X93014285Y-87204761D01*
X92966666Y-87157142D01*
%TO.C,K3*%
X105124404Y-91352380D02*
X105124404Y-90352380D01*
X105695833Y-91352380D02*
X105267261Y-90780952D01*
X105695833Y-90352380D02*
X105124404Y-90923809D01*
X106029166Y-90352380D02*
X106648214Y-90352380D01*
X106314880Y-90733333D01*
X106457738Y-90733333D01*
X106552976Y-90780952D01*
X106600595Y-90828571D01*
X106648214Y-90923809D01*
X106648214Y-91161904D01*
X106600595Y-91257142D01*
X106552976Y-91304761D01*
X106457738Y-91352380D01*
X106172023Y-91352380D01*
X106076785Y-91304761D01*
X106029166Y-91257142D01*
%TO.C,C21*%
X94157142Y-146157142D02*
X94109523Y-146204761D01*
X93966666Y-146252380D01*
X93871428Y-146252380D01*
X93728571Y-146204761D01*
X93633333Y-146109523D01*
X93585714Y-146014285D01*
X93538095Y-145823809D01*
X93538095Y-145680952D01*
X93585714Y-145490476D01*
X93633333Y-145395238D01*
X93728571Y-145300000D01*
X93871428Y-145252380D01*
X93966666Y-145252380D01*
X94109523Y-145300000D01*
X94157142Y-145347619D01*
X94538095Y-145347619D02*
X94585714Y-145300000D01*
X94680952Y-145252380D01*
X94919047Y-145252380D01*
X95014285Y-145300000D01*
X95061904Y-145347619D01*
X95109523Y-145442857D01*
X95109523Y-145538095D01*
X95061904Y-145680952D01*
X94490476Y-146252380D01*
X95109523Y-146252380D01*
X96061904Y-146252380D02*
X95490476Y-146252380D01*
X95776190Y-146252380D02*
X95776190Y-145252380D01*
X95680952Y-145395238D01*
X95585714Y-145490476D01*
X95490476Y-145538095D01*
%TO.C,K1*%
X105761904Y-48852380D02*
X105761904Y-47852380D01*
X106333333Y-48852380D02*
X105904761Y-48280952D01*
X106333333Y-47852380D02*
X105761904Y-48423809D01*
X107285714Y-48852380D02*
X106714285Y-48852380D01*
X107000000Y-48852380D02*
X107000000Y-47852380D01*
X106904761Y-47995238D01*
X106809523Y-48090476D01*
X106714285Y-48138095D01*
%TO.C,J9*%
X98066666Y-147252380D02*
X98066666Y-147966666D01*
X98019047Y-148109523D01*
X97923809Y-148204761D01*
X97780952Y-148252380D01*
X97685714Y-148252380D01*
X98590476Y-148252380D02*
X98780952Y-148252380D01*
X98876190Y-148204761D01*
X98923809Y-148157142D01*
X99019047Y-148014285D01*
X99066666Y-147823809D01*
X99066666Y-147442857D01*
X99019047Y-147347619D01*
X98971428Y-147300000D01*
X98876190Y-147252380D01*
X98685714Y-147252380D01*
X98590476Y-147300000D01*
X98542857Y-147347619D01*
X98495238Y-147442857D01*
X98495238Y-147680952D01*
X98542857Y-147776190D01*
X98590476Y-147823809D01*
X98685714Y-147871428D01*
X98876190Y-147871428D01*
X98971428Y-147823809D01*
X99019047Y-147776190D01*
X99066666Y-147680952D01*
%TO.C,Q5*%
X95442261Y-129147619D02*
X95347023Y-129100000D01*
X95251785Y-129004761D01*
X95108928Y-128861904D01*
X95013690Y-128814285D01*
X94918452Y-128814285D01*
X94966071Y-129052380D02*
X94870833Y-129004761D01*
X94775595Y-128909523D01*
X94727976Y-128719047D01*
X94727976Y-128385714D01*
X94775595Y-128195238D01*
X94870833Y-128100000D01*
X94966071Y-128052380D01*
X95156547Y-128052380D01*
X95251785Y-128100000D01*
X95347023Y-128195238D01*
X95394642Y-128385714D01*
X95394642Y-128719047D01*
X95347023Y-128909523D01*
X95251785Y-129004761D01*
X95156547Y-129052380D01*
X94966071Y-129052380D01*
X96299404Y-128052380D02*
X95823214Y-128052380D01*
X95775595Y-128528571D01*
X95823214Y-128480952D01*
X95918452Y-128433333D01*
X96156547Y-128433333D01*
X96251785Y-128480952D01*
X96299404Y-128528571D01*
X96347023Y-128623809D01*
X96347023Y-128861904D01*
X96299404Y-128957142D01*
X96251785Y-129004761D01*
X96156547Y-129052380D01*
X95918452Y-129052380D01*
X95823214Y-129004761D01*
X95775595Y-128957142D01*
%TO.C,R6*%
X92933333Y-91552380D02*
X92600000Y-91076190D01*
X92361904Y-91552380D02*
X92361904Y-90552380D01*
X92742857Y-90552380D01*
X92838095Y-90600000D01*
X92885714Y-90647619D01*
X92933333Y-90742857D01*
X92933333Y-90885714D01*
X92885714Y-90980952D01*
X92838095Y-91028571D01*
X92742857Y-91076190D01*
X92361904Y-91076190D01*
X93790476Y-90552380D02*
X93600000Y-90552380D01*
X93504761Y-90600000D01*
X93457142Y-90647619D01*
X93361904Y-90790476D01*
X93314285Y-90980952D01*
X93314285Y-91361904D01*
X93361904Y-91457142D01*
X93409523Y-91504761D01*
X93504761Y-91552380D01*
X93695238Y-91552380D01*
X93790476Y-91504761D01*
X93838095Y-91457142D01*
X93885714Y-91361904D01*
X93885714Y-91123809D01*
X93838095Y-91028571D01*
X93790476Y-90980952D01*
X93695238Y-90933333D01*
X93504761Y-90933333D01*
X93409523Y-90980952D01*
X93361904Y-91028571D01*
X93314285Y-91123809D01*
%TO.C,C29*%
X141594642Y-131557142D02*
X141547023Y-131604761D01*
X141404166Y-131652380D01*
X141308928Y-131652380D01*
X141166071Y-131604761D01*
X141070833Y-131509523D01*
X141023214Y-131414285D01*
X140975595Y-131223809D01*
X140975595Y-131080952D01*
X141023214Y-130890476D01*
X141070833Y-130795238D01*
X141166071Y-130700000D01*
X141308928Y-130652380D01*
X141404166Y-130652380D01*
X141547023Y-130700000D01*
X141594642Y-130747619D01*
X141975595Y-130747619D02*
X142023214Y-130700000D01*
X142118452Y-130652380D01*
X142356547Y-130652380D01*
X142451785Y-130700000D01*
X142499404Y-130747619D01*
X142547023Y-130842857D01*
X142547023Y-130938095D01*
X142499404Y-131080952D01*
X141927976Y-131652380D01*
X142547023Y-131652380D01*
X143023214Y-131652380D02*
X143213690Y-131652380D01*
X143308928Y-131604761D01*
X143356547Y-131557142D01*
X143451785Y-131414285D01*
X143499404Y-131223809D01*
X143499404Y-130842857D01*
X143451785Y-130747619D01*
X143404166Y-130700000D01*
X143308928Y-130652380D01*
X143118452Y-130652380D01*
X143023214Y-130700000D01*
X142975595Y-130747619D01*
X142927976Y-130842857D01*
X142927976Y-131080952D01*
X142975595Y-131176190D01*
X143023214Y-131223809D01*
X143118452Y-131271428D01*
X143308928Y-131271428D01*
X143404166Y-131223809D01*
X143451785Y-131176190D01*
X143499404Y-131080952D01*
%TO.C,K5*%
X104699404Y-133252380D02*
X104699404Y-132252380D01*
X105270833Y-133252380D02*
X104842261Y-132680952D01*
X105270833Y-132252380D02*
X104699404Y-132823809D01*
X106175595Y-132252380D02*
X105699404Y-132252380D01*
X105651785Y-132728571D01*
X105699404Y-132680952D01*
X105794642Y-132633333D01*
X106032738Y-132633333D01*
X106127976Y-132680952D01*
X106175595Y-132728571D01*
X106223214Y-132823809D01*
X106223214Y-133061904D01*
X106175595Y-133157142D01*
X106127976Y-133204761D01*
X106032738Y-133252380D01*
X105794642Y-133252380D01*
X105699404Y-133204761D01*
X105651785Y-133157142D01*
%TO.C,L4*%
X143533333Y-48952380D02*
X143057142Y-48952380D01*
X143057142Y-47952380D01*
X144295238Y-48285714D02*
X144295238Y-48952380D01*
X144057142Y-47904761D02*
X143819047Y-48619047D01*
X144438095Y-48619047D01*
%TO.C,C22*%
X108157142Y-126357142D02*
X108109523Y-126404761D01*
X107966666Y-126452380D01*
X107871428Y-126452380D01*
X107728571Y-126404761D01*
X107633333Y-126309523D01*
X107585714Y-126214285D01*
X107538095Y-126023809D01*
X107538095Y-125880952D01*
X107585714Y-125690476D01*
X107633333Y-125595238D01*
X107728571Y-125500000D01*
X107871428Y-125452380D01*
X107966666Y-125452380D01*
X108109523Y-125500000D01*
X108157142Y-125547619D01*
X108538095Y-125547619D02*
X108585714Y-125500000D01*
X108680952Y-125452380D01*
X108919047Y-125452380D01*
X109014285Y-125500000D01*
X109061904Y-125547619D01*
X109109523Y-125642857D01*
X109109523Y-125738095D01*
X109061904Y-125880952D01*
X108490476Y-126452380D01*
X109109523Y-126452380D01*
X109490476Y-125547619D02*
X109538095Y-125500000D01*
X109633333Y-125452380D01*
X109871428Y-125452380D01*
X109966666Y-125500000D01*
X110014285Y-125547619D01*
X110061904Y-125642857D01*
X110061904Y-125738095D01*
X110014285Y-125880952D01*
X109442857Y-126452380D01*
X110061904Y-126452380D01*
%TO.C,C13*%
X136094642Y-44277142D02*
X136047023Y-44324761D01*
X135904166Y-44372380D01*
X135808928Y-44372380D01*
X135666071Y-44324761D01*
X135570833Y-44229523D01*
X135523214Y-44134285D01*
X135475595Y-43943809D01*
X135475595Y-43800952D01*
X135523214Y-43610476D01*
X135570833Y-43515238D01*
X135666071Y-43420000D01*
X135808928Y-43372380D01*
X135904166Y-43372380D01*
X136047023Y-43420000D01*
X136094642Y-43467619D01*
X137047023Y-44372380D02*
X136475595Y-44372380D01*
X136761309Y-44372380D02*
X136761309Y-43372380D01*
X136666071Y-43515238D01*
X136570833Y-43610476D01*
X136475595Y-43658095D01*
X137380357Y-43372380D02*
X137999404Y-43372380D01*
X137666071Y-43753333D01*
X137808928Y-43753333D01*
X137904166Y-43800952D01*
X137951785Y-43848571D01*
X137999404Y-43943809D01*
X137999404Y-44181904D01*
X137951785Y-44277142D01*
X137904166Y-44324761D01*
X137808928Y-44372380D01*
X137523214Y-44372380D01*
X137427976Y-44324761D01*
X137380357Y-44277142D01*
%TO.C,J3*%
X108103666Y-146852380D02*
X108103666Y-147566666D01*
X108056047Y-147709523D01*
X107960809Y-147804761D01*
X107817952Y-147852380D01*
X107722714Y-147852380D01*
X108484619Y-146852380D02*
X109103666Y-146852380D01*
X108770333Y-147233333D01*
X108913190Y-147233333D01*
X109008428Y-147280952D01*
X109056047Y-147328571D01*
X109103666Y-147423809D01*
X109103666Y-147661904D01*
X109056047Y-147757142D01*
X109008428Y-147804761D01*
X108913190Y-147852380D01*
X108627476Y-147852380D01*
X108532238Y-147804761D01*
X108484619Y-147757142D01*
%TO.C,C1*%
X87333333Y-61757142D02*
X87285714Y-61804761D01*
X87142857Y-61852380D01*
X87047619Y-61852380D01*
X86904761Y-61804761D01*
X86809523Y-61709523D01*
X86761904Y-61614285D01*
X86714285Y-61423809D01*
X86714285Y-61280952D01*
X86761904Y-61090476D01*
X86809523Y-60995238D01*
X86904761Y-60900000D01*
X87047619Y-60852380D01*
X87142857Y-60852380D01*
X87285714Y-60900000D01*
X87333333Y-60947619D01*
X88285714Y-61852380D02*
X87714285Y-61852380D01*
X88000000Y-61852380D02*
X88000000Y-60852380D01*
X87904761Y-60995238D01*
X87809523Y-61090476D01*
X87714285Y-61138095D01*
%TO.C,L11*%
X131994642Y-141852380D02*
X131518452Y-141852380D01*
X131518452Y-140852380D01*
X132851785Y-141852380D02*
X132280357Y-141852380D01*
X132566071Y-141852380D02*
X132566071Y-140852380D01*
X132470833Y-140995238D01*
X132375595Y-141090476D01*
X132280357Y-141138095D01*
X133804166Y-141852380D02*
X133232738Y-141852380D01*
X133518452Y-141852380D02*
X133518452Y-140852380D01*
X133423214Y-140995238D01*
X133327976Y-141090476D01*
X133232738Y-141138095D01*
%TO.C,C11*%
X131797142Y-72204142D02*
X131749523Y-72251761D01*
X131606666Y-72299380D01*
X131511428Y-72299380D01*
X131368571Y-72251761D01*
X131273333Y-72156523D01*
X131225714Y-72061285D01*
X131178095Y-71870809D01*
X131178095Y-71727952D01*
X131225714Y-71537476D01*
X131273333Y-71442238D01*
X131368571Y-71347000D01*
X131511428Y-71299380D01*
X131606666Y-71299380D01*
X131749523Y-71347000D01*
X131797142Y-71394619D01*
X132749523Y-72299380D02*
X132178095Y-72299380D01*
X132463809Y-72299380D02*
X132463809Y-71299380D01*
X132368571Y-71442238D01*
X132273333Y-71537476D01*
X132178095Y-71585095D01*
X133701904Y-72299380D02*
X133130476Y-72299380D01*
X133416190Y-72299380D02*
X133416190Y-71299380D01*
X133320952Y-71442238D01*
X133225714Y-71537476D01*
X133130476Y-71585095D01*
%TO.C,R9*%
X87533333Y-111952380D02*
X87200000Y-111476190D01*
X86961904Y-111952380D02*
X86961904Y-110952380D01*
X87342857Y-110952380D01*
X87438095Y-111000000D01*
X87485714Y-111047619D01*
X87533333Y-111142857D01*
X87533333Y-111285714D01*
X87485714Y-111380952D01*
X87438095Y-111428571D01*
X87342857Y-111476190D01*
X86961904Y-111476190D01*
X88009523Y-111952380D02*
X88200000Y-111952380D01*
X88295238Y-111904761D01*
X88342857Y-111857142D01*
X88438095Y-111714285D01*
X88485714Y-111523809D01*
X88485714Y-111142857D01*
X88438095Y-111047619D01*
X88390476Y-111000000D01*
X88295238Y-110952380D01*
X88104761Y-110952380D01*
X88009523Y-111000000D01*
X87961904Y-111047619D01*
X87914285Y-111142857D01*
X87914285Y-111380952D01*
X87961904Y-111476190D01*
X88009523Y-111523809D01*
X88104761Y-111571428D01*
X88295238Y-111571428D01*
X88390476Y-111523809D01*
X88438095Y-111476190D01*
X88485714Y-111380952D01*
%TO.C,D4*%
X87261904Y-115052380D02*
X87261904Y-114052380D01*
X87500000Y-114052380D01*
X87642857Y-114100000D01*
X87738095Y-114195238D01*
X87785714Y-114290476D01*
X87833333Y-114480952D01*
X87833333Y-114623809D01*
X87785714Y-114814285D01*
X87738095Y-114909523D01*
X87642857Y-115004761D01*
X87500000Y-115052380D01*
X87261904Y-115052380D01*
X88690476Y-114385714D02*
X88690476Y-115052380D01*
X88452380Y-114004761D02*
X88214285Y-114719047D01*
X88833333Y-114719047D01*
X88538095Y-122562380D02*
X88538095Y-121562380D01*
X89109523Y-122562380D02*
X88680952Y-121990952D01*
X89109523Y-121562380D02*
X88538095Y-122133809D01*
%TO.C,L2*%
X132033333Y-78852380D02*
X131557142Y-78852380D01*
X131557142Y-77852380D01*
X132319047Y-77947619D02*
X132366666Y-77900000D01*
X132461904Y-77852380D01*
X132700000Y-77852380D01*
X132795238Y-77900000D01*
X132842857Y-77947619D01*
X132890476Y-78042857D01*
X132890476Y-78138095D01*
X132842857Y-78280952D01*
X132271428Y-78852380D01*
X132890476Y-78852380D01*
%TO.C,C6*%
X109795833Y-105957142D02*
X109748214Y-106004761D01*
X109605357Y-106052380D01*
X109510119Y-106052380D01*
X109367261Y-106004761D01*
X109272023Y-105909523D01*
X109224404Y-105814285D01*
X109176785Y-105623809D01*
X109176785Y-105480952D01*
X109224404Y-105290476D01*
X109272023Y-105195238D01*
X109367261Y-105100000D01*
X109510119Y-105052380D01*
X109605357Y-105052380D01*
X109748214Y-105100000D01*
X109795833Y-105147619D01*
X110652976Y-105052380D02*
X110462500Y-105052380D01*
X110367261Y-105100000D01*
X110319642Y-105147619D01*
X110224404Y-105290476D01*
X110176785Y-105480952D01*
X110176785Y-105861904D01*
X110224404Y-105957142D01*
X110272023Y-106004761D01*
X110367261Y-106052380D01*
X110557738Y-106052380D01*
X110652976Y-106004761D01*
X110700595Y-105957142D01*
X110748214Y-105861904D01*
X110748214Y-105623809D01*
X110700595Y-105528571D01*
X110652976Y-105480952D01*
X110557738Y-105433333D01*
X110367261Y-105433333D01*
X110272023Y-105480952D01*
X110224404Y-105528571D01*
X110176785Y-105623809D01*
%TO.C,C4*%
X110133333Y-63057142D02*
X110085714Y-63104761D01*
X109942857Y-63152380D01*
X109847619Y-63152380D01*
X109704761Y-63104761D01*
X109609523Y-63009523D01*
X109561904Y-62914285D01*
X109514285Y-62723809D01*
X109514285Y-62580952D01*
X109561904Y-62390476D01*
X109609523Y-62295238D01*
X109704761Y-62200000D01*
X109847619Y-62152380D01*
X109942857Y-62152380D01*
X110085714Y-62200000D01*
X110133333Y-62247619D01*
X110990476Y-62485714D02*
X110990476Y-63152380D01*
X110752380Y-62104761D02*
X110514285Y-62819047D01*
X111133333Y-62819047D01*
%TO.C,L9*%
X131892333Y-88936380D02*
X131416142Y-88936380D01*
X131416142Y-87936380D01*
X132273285Y-88936380D02*
X132463761Y-88936380D01*
X132559000Y-88888761D01*
X132606619Y-88841142D01*
X132701857Y-88698285D01*
X132749476Y-88507809D01*
X132749476Y-88126857D01*
X132701857Y-88031619D01*
X132654238Y-87984000D01*
X132559000Y-87936380D01*
X132368523Y-87936380D01*
X132273285Y-87984000D01*
X132225666Y-88031619D01*
X132178047Y-88126857D01*
X132178047Y-88364952D01*
X132225666Y-88460190D01*
X132273285Y-88507809D01*
X132368523Y-88555428D01*
X132559000Y-88555428D01*
X132654238Y-88507809D01*
X132701857Y-88460190D01*
X132749476Y-88364952D01*
%TO.C,J5*%
X144552666Y-146864380D02*
X144552666Y-147578666D01*
X144505047Y-147721523D01*
X144409809Y-147816761D01*
X144266952Y-147864380D01*
X144171714Y-147864380D01*
X145505047Y-146864380D02*
X145028857Y-146864380D01*
X144981238Y-147340571D01*
X145028857Y-147292952D01*
X145124095Y-147245333D01*
X145362190Y-147245333D01*
X145457428Y-147292952D01*
X145505047Y-147340571D01*
X145552666Y-147435809D01*
X145552666Y-147673904D01*
X145505047Y-147769142D01*
X145457428Y-147816761D01*
X145362190Y-147864380D01*
X145124095Y-147864380D01*
X145028857Y-147816761D01*
X144981238Y-147769142D01*
%TO.C,R4*%
X87533333Y-47952380D02*
X87200000Y-47476190D01*
X86961904Y-47952380D02*
X86961904Y-46952380D01*
X87342857Y-46952380D01*
X87438095Y-47000000D01*
X87485714Y-47047619D01*
X87533333Y-47142857D01*
X87533333Y-47285714D01*
X87485714Y-47380952D01*
X87438095Y-47428571D01*
X87342857Y-47476190D01*
X86961904Y-47476190D01*
X88390476Y-47285714D02*
X88390476Y-47952380D01*
X88152380Y-46904761D02*
X87914285Y-47619047D01*
X88533333Y-47619047D01*
%TO.C,L1*%
X126177333Y-54646380D02*
X125701142Y-54646380D01*
X125701142Y-53646380D01*
X127034476Y-54646380D02*
X126463047Y-54646380D01*
X126748761Y-54646380D02*
X126748761Y-53646380D01*
X126653523Y-53789238D01*
X126558285Y-53884476D01*
X126463047Y-53932095D01*
%TO.C,L7*%
X131384333Y-47661380D02*
X130908142Y-47661380D01*
X130908142Y-46661380D01*
X131622428Y-46661380D02*
X132289095Y-46661380D01*
X131860523Y-47661380D01*
%TO.C,L6*%
X144195833Y-92052380D02*
X143719642Y-92052380D01*
X143719642Y-91052380D01*
X144957738Y-91052380D02*
X144767261Y-91052380D01*
X144672023Y-91100000D01*
X144624404Y-91147619D01*
X144529166Y-91290476D01*
X144481547Y-91480952D01*
X144481547Y-91861904D01*
X144529166Y-91957142D01*
X144576785Y-92004761D01*
X144672023Y-92052380D01*
X144862500Y-92052380D01*
X144957738Y-92004761D01*
X145005357Y-91957142D01*
X145052976Y-91861904D01*
X145052976Y-91623809D01*
X145005357Y-91528571D01*
X144957738Y-91480952D01*
X144862500Y-91433333D01*
X144672023Y-91433333D01*
X144576785Y-91480952D01*
X144529166Y-91528571D01*
X144481547Y-91623809D01*
%TO.C,R8*%
X87470833Y-130552380D02*
X87137500Y-130076190D01*
X86899404Y-130552380D02*
X86899404Y-129552380D01*
X87280357Y-129552380D01*
X87375595Y-129600000D01*
X87423214Y-129647619D01*
X87470833Y-129742857D01*
X87470833Y-129885714D01*
X87423214Y-129980952D01*
X87375595Y-130028571D01*
X87280357Y-130076190D01*
X86899404Y-130076190D01*
X88042261Y-129980952D02*
X87947023Y-129933333D01*
X87899404Y-129885714D01*
X87851785Y-129790476D01*
X87851785Y-129742857D01*
X87899404Y-129647619D01*
X87947023Y-129600000D01*
X88042261Y-129552380D01*
X88232738Y-129552380D01*
X88327976Y-129600000D01*
X88375595Y-129647619D01*
X88423214Y-129742857D01*
X88423214Y-129790476D01*
X88375595Y-129885714D01*
X88327976Y-129933333D01*
X88232738Y-129980952D01*
X88042261Y-129980952D01*
X87947023Y-130028571D01*
X87899404Y-130076190D01*
X87851785Y-130171428D01*
X87851785Y-130361904D01*
X87899404Y-130457142D01*
X87947023Y-130504761D01*
X88042261Y-130552380D01*
X88232738Y-130552380D01*
X88327976Y-130504761D01*
X88375595Y-130457142D01*
X88423214Y-130361904D01*
X88423214Y-130171428D01*
X88375595Y-130076190D01*
X88327976Y-130028571D01*
X88232738Y-129980952D01*
%TO.C,C16*%
X109357142Y-46457142D02*
X109309523Y-46504761D01*
X109166666Y-46552380D01*
X109071428Y-46552380D01*
X108928571Y-46504761D01*
X108833333Y-46409523D01*
X108785714Y-46314285D01*
X108738095Y-46123809D01*
X108738095Y-45980952D01*
X108785714Y-45790476D01*
X108833333Y-45695238D01*
X108928571Y-45600000D01*
X109071428Y-45552380D01*
X109166666Y-45552380D01*
X109309523Y-45600000D01*
X109357142Y-45647619D01*
X110309523Y-46552380D02*
X109738095Y-46552380D01*
X110023809Y-46552380D02*
X110023809Y-45552380D01*
X109928571Y-45695238D01*
X109833333Y-45790476D01*
X109738095Y-45838095D01*
X111166666Y-45552380D02*
X110976190Y-45552380D01*
X110880952Y-45600000D01*
X110833333Y-45647619D01*
X110738095Y-45790476D01*
X110690476Y-45980952D01*
X110690476Y-46361904D01*
X110738095Y-46457142D01*
X110785714Y-46504761D01*
X110880952Y-46552380D01*
X111071428Y-46552380D01*
X111166666Y-46504761D01*
X111214285Y-46457142D01*
X111261904Y-46361904D01*
X111261904Y-46123809D01*
X111214285Y-46028571D01*
X111166666Y-45980952D01*
X111071428Y-45933333D01*
X110880952Y-45933333D01*
X110785714Y-45980952D01*
X110738095Y-46028571D01*
X110690476Y-46123809D01*
%TO.C,L8*%
X131833333Y-67252380D02*
X131357142Y-67252380D01*
X131357142Y-66252380D01*
X132309523Y-66680952D02*
X132214285Y-66633333D01*
X132166666Y-66585714D01*
X132119047Y-66490476D01*
X132119047Y-66442857D01*
X132166666Y-66347619D01*
X132214285Y-66300000D01*
X132309523Y-66252380D01*
X132500000Y-66252380D01*
X132595238Y-66300000D01*
X132642857Y-66347619D01*
X132690476Y-66442857D01*
X132690476Y-66490476D01*
X132642857Y-66585714D01*
X132595238Y-66633333D01*
X132500000Y-66680952D01*
X132309523Y-66680952D01*
X132214285Y-66728571D01*
X132166666Y-66776190D01*
X132119047Y-66871428D01*
X132119047Y-67061904D01*
X132166666Y-67157142D01*
X132214285Y-67204761D01*
X132309523Y-67252380D01*
X132500000Y-67252380D01*
X132595238Y-67204761D01*
X132642857Y-67157142D01*
X132690476Y-67061904D01*
X132690476Y-66871428D01*
X132642857Y-66776190D01*
X132595238Y-66728571D01*
X132500000Y-66680952D01*
%TO.C,R7*%
X87733333Y-109452380D02*
X87400000Y-108976190D01*
X87161904Y-109452380D02*
X87161904Y-108452380D01*
X87542857Y-108452380D01*
X87638095Y-108500000D01*
X87685714Y-108547619D01*
X87733333Y-108642857D01*
X87733333Y-108785714D01*
X87685714Y-108880952D01*
X87638095Y-108928571D01*
X87542857Y-108976190D01*
X87161904Y-108976190D01*
X88066666Y-108452380D02*
X88733333Y-108452380D01*
X88304761Y-109452380D01*
%TO.C,C3*%
X93233333Y-104357142D02*
X93185714Y-104404761D01*
X93042857Y-104452380D01*
X92947619Y-104452380D01*
X92804761Y-104404761D01*
X92709523Y-104309523D01*
X92661904Y-104214285D01*
X92614285Y-104023809D01*
X92614285Y-103880952D01*
X92661904Y-103690476D01*
X92709523Y-103595238D01*
X92804761Y-103500000D01*
X92947619Y-103452380D01*
X93042857Y-103452380D01*
X93185714Y-103500000D01*
X93233333Y-103547619D01*
X93566666Y-103452380D02*
X94185714Y-103452380D01*
X93852380Y-103833333D01*
X93995238Y-103833333D01*
X94090476Y-103880952D01*
X94138095Y-103928571D01*
X94185714Y-104023809D01*
X94185714Y-104261904D01*
X94138095Y-104357142D01*
X94090476Y-104404761D01*
X93995238Y-104452380D01*
X93709523Y-104452380D01*
X93614285Y-104404761D01*
X93566666Y-104357142D01*
%TO.C,L5*%
X143733333Y-70852380D02*
X143257142Y-70852380D01*
X143257142Y-69852380D01*
X144542857Y-69852380D02*
X144066666Y-69852380D01*
X144019047Y-70328571D01*
X144066666Y-70280952D01*
X144161904Y-70233333D01*
X144400000Y-70233333D01*
X144495238Y-70280952D01*
X144542857Y-70328571D01*
X144590476Y-70423809D01*
X144590476Y-70661904D01*
X144542857Y-70757142D01*
X144495238Y-70804761D01*
X144400000Y-70852380D01*
X144161904Y-70852380D01*
X144066666Y-70804761D01*
X144019047Y-70757142D01*
%TO.C,C12*%
X131978142Y-93540142D02*
X131930523Y-93587761D01*
X131787666Y-93635380D01*
X131692428Y-93635380D01*
X131549571Y-93587761D01*
X131454333Y-93492523D01*
X131406714Y-93397285D01*
X131359095Y-93206809D01*
X131359095Y-93063952D01*
X131406714Y-92873476D01*
X131454333Y-92778238D01*
X131549571Y-92683000D01*
X131692428Y-92635380D01*
X131787666Y-92635380D01*
X131930523Y-92683000D01*
X131978142Y-92730619D01*
X132930523Y-93635380D02*
X132359095Y-93635380D01*
X132644809Y-93635380D02*
X132644809Y-92635380D01*
X132549571Y-92778238D01*
X132454333Y-92873476D01*
X132359095Y-92921095D01*
X133311476Y-92730619D02*
X133359095Y-92683000D01*
X133454333Y-92635380D01*
X133692428Y-92635380D01*
X133787666Y-92683000D01*
X133835285Y-92730619D01*
X133882904Y-92825857D01*
X133882904Y-92921095D01*
X133835285Y-93063952D01*
X133263857Y-93635380D01*
X133882904Y-93635380D01*
%TO.C,J4*%
X103266666Y-45052380D02*
X103266666Y-45766666D01*
X103219047Y-45909523D01*
X103123809Y-46004761D01*
X102980952Y-46052380D01*
X102885714Y-46052380D01*
X104171428Y-45385714D02*
X104171428Y-46052380D01*
X103933333Y-45004761D02*
X103695238Y-45719047D01*
X104314285Y-45719047D01*
%TO.C,L12*%
X143857142Y-113052380D02*
X143380952Y-113052380D01*
X143380952Y-112052380D01*
X144714285Y-113052380D02*
X144142857Y-113052380D01*
X144428571Y-113052380D02*
X144428571Y-112052380D01*
X144333333Y-112195238D01*
X144238095Y-112290476D01*
X144142857Y-112338095D01*
X145095238Y-112147619D02*
X145142857Y-112100000D01*
X145238095Y-112052380D01*
X145476190Y-112052380D01*
X145571428Y-112100000D01*
X145619047Y-112147619D01*
X145666666Y-112242857D01*
X145666666Y-112338095D01*
X145619047Y-112480952D01*
X145047619Y-113052380D01*
X145666666Y-113052380D01*
%TO.C,C23*%
X109557142Y-147157142D02*
X109509523Y-147204761D01*
X109366666Y-147252380D01*
X109271428Y-147252380D01*
X109128571Y-147204761D01*
X109033333Y-147109523D01*
X108985714Y-147014285D01*
X108938095Y-146823809D01*
X108938095Y-146680952D01*
X108985714Y-146490476D01*
X109033333Y-146395238D01*
X109128571Y-146300000D01*
X109271428Y-146252380D01*
X109366666Y-146252380D01*
X109509523Y-146300000D01*
X109557142Y-146347619D01*
X109938095Y-146347619D02*
X109985714Y-146300000D01*
X110080952Y-146252380D01*
X110319047Y-146252380D01*
X110414285Y-146300000D01*
X110461904Y-146347619D01*
X110509523Y-146442857D01*
X110509523Y-146538095D01*
X110461904Y-146680952D01*
X109890476Y-147252380D01*
X110509523Y-147252380D01*
X110842857Y-146252380D02*
X111461904Y-146252380D01*
X111128571Y-146633333D01*
X111271428Y-146633333D01*
X111366666Y-146680952D01*
X111414285Y-146728571D01*
X111461904Y-146823809D01*
X111461904Y-147061904D01*
X111414285Y-147157142D01*
X111366666Y-147204761D01*
X111271428Y-147252380D01*
X110985714Y-147252380D01*
X110890476Y-147204761D01*
X110842857Y-147157142D01*
%TO.C,C18*%
X109157142Y-90257142D02*
X109109523Y-90304761D01*
X108966666Y-90352380D01*
X108871428Y-90352380D01*
X108728571Y-90304761D01*
X108633333Y-90209523D01*
X108585714Y-90114285D01*
X108538095Y-89923809D01*
X108538095Y-89780952D01*
X108585714Y-89590476D01*
X108633333Y-89495238D01*
X108728571Y-89400000D01*
X108871428Y-89352380D01*
X108966666Y-89352380D01*
X109109523Y-89400000D01*
X109157142Y-89447619D01*
X110109523Y-90352380D02*
X109538095Y-90352380D01*
X109823809Y-90352380D02*
X109823809Y-89352380D01*
X109728571Y-89495238D01*
X109633333Y-89590476D01*
X109538095Y-89638095D01*
X110680952Y-89780952D02*
X110585714Y-89733333D01*
X110538095Y-89685714D01*
X110490476Y-89590476D01*
X110490476Y-89542857D01*
X110538095Y-89447619D01*
X110585714Y-89400000D01*
X110680952Y-89352380D01*
X110871428Y-89352380D01*
X110966666Y-89400000D01*
X111014285Y-89447619D01*
X111061904Y-89542857D01*
X111061904Y-89590476D01*
X111014285Y-89685714D01*
X110966666Y-89733333D01*
X110871428Y-89780952D01*
X110680952Y-89780952D01*
X110585714Y-89828571D01*
X110538095Y-89876190D01*
X110490476Y-89971428D01*
X110490476Y-90161904D01*
X110538095Y-90257142D01*
X110585714Y-90304761D01*
X110680952Y-90352380D01*
X110871428Y-90352380D01*
X110966666Y-90304761D01*
X111014285Y-90257142D01*
X111061904Y-90161904D01*
X111061904Y-89971428D01*
X111014285Y-89876190D01*
X110966666Y-89828571D01*
X110871428Y-89780952D01*
%TO.C,C26*%
X132078142Y-114324142D02*
X132030523Y-114371761D01*
X131887666Y-114419380D01*
X131792428Y-114419380D01*
X131649571Y-114371761D01*
X131554333Y-114276523D01*
X131506714Y-114181285D01*
X131459095Y-113990809D01*
X131459095Y-113847952D01*
X131506714Y-113657476D01*
X131554333Y-113562238D01*
X131649571Y-113467000D01*
X131792428Y-113419380D01*
X131887666Y-113419380D01*
X132030523Y-113467000D01*
X132078142Y-113514619D01*
X132459095Y-113514619D02*
X132506714Y-113467000D01*
X132601952Y-113419380D01*
X132840047Y-113419380D01*
X132935285Y-113467000D01*
X132982904Y-113514619D01*
X133030523Y-113609857D01*
X133030523Y-113705095D01*
X132982904Y-113847952D01*
X132411476Y-114419380D01*
X133030523Y-114419380D01*
X133887666Y-113419380D02*
X133697190Y-113419380D01*
X133601952Y-113467000D01*
X133554333Y-113514619D01*
X133459095Y-113657476D01*
X133411476Y-113847952D01*
X133411476Y-114228904D01*
X133459095Y-114324142D01*
X133506714Y-114371761D01*
X133601952Y-114419380D01*
X133792428Y-114419380D01*
X133887666Y-114371761D01*
X133935285Y-114324142D01*
X133982904Y-114228904D01*
X133982904Y-113990809D01*
X133935285Y-113895571D01*
X133887666Y-113847952D01*
X133792428Y-113800333D01*
X133601952Y-113800333D01*
X133506714Y-113847952D01*
X133459095Y-113895571D01*
X133411476Y-113990809D01*
%TO.C,C7*%
X132833333Y-63457142D02*
X132785714Y-63504761D01*
X132642857Y-63552380D01*
X132547619Y-63552380D01*
X132404761Y-63504761D01*
X132309523Y-63409523D01*
X132261904Y-63314285D01*
X132214285Y-63123809D01*
X132214285Y-62980952D01*
X132261904Y-62790476D01*
X132309523Y-62695238D01*
X132404761Y-62600000D01*
X132547619Y-62552380D01*
X132642857Y-62552380D01*
X132785714Y-62600000D01*
X132833333Y-62647619D01*
X133166666Y-62552380D02*
X133833333Y-62552380D01*
X133404761Y-63552380D01*
%TO.C,D3*%
X92161904Y-93652380D02*
X92161904Y-92652380D01*
X92400000Y-92652380D01*
X92542857Y-92700000D01*
X92638095Y-92795238D01*
X92685714Y-92890476D01*
X92733333Y-93080952D01*
X92733333Y-93223809D01*
X92685714Y-93414285D01*
X92638095Y-93509523D01*
X92542857Y-93604761D01*
X92400000Y-93652380D01*
X92161904Y-93652380D01*
X93066666Y-92652380D02*
X93685714Y-92652380D01*
X93352380Y-93033333D01*
X93495238Y-93033333D01*
X93590476Y-93080952D01*
X93638095Y-93128571D01*
X93685714Y-93223809D01*
X93685714Y-93461904D01*
X93638095Y-93557142D01*
X93590476Y-93604761D01*
X93495238Y-93652380D01*
X93209523Y-93652380D01*
X93114285Y-93604761D01*
X93066666Y-93557142D01*
X92538095Y-101352380D02*
X92538095Y-100352380D01*
X93109523Y-101352380D02*
X92680952Y-100780952D01*
X93109523Y-100352380D02*
X92538095Y-100923809D01*
%TO.C,C20*%
X86857142Y-125457142D02*
X86809523Y-125504761D01*
X86666666Y-125552380D01*
X86571428Y-125552380D01*
X86428571Y-125504761D01*
X86333333Y-125409523D01*
X86285714Y-125314285D01*
X86238095Y-125123809D01*
X86238095Y-124980952D01*
X86285714Y-124790476D01*
X86333333Y-124695238D01*
X86428571Y-124600000D01*
X86571428Y-124552380D01*
X86666666Y-124552380D01*
X86809523Y-124600000D01*
X86857142Y-124647619D01*
X87238095Y-124647619D02*
X87285714Y-124600000D01*
X87380952Y-124552380D01*
X87619047Y-124552380D01*
X87714285Y-124600000D01*
X87761904Y-124647619D01*
X87809523Y-124742857D01*
X87809523Y-124838095D01*
X87761904Y-124980952D01*
X87190476Y-125552380D01*
X87809523Y-125552380D01*
X88428571Y-124552380D02*
X88523809Y-124552380D01*
X88619047Y-124600000D01*
X88666666Y-124647619D01*
X88714285Y-124742857D01*
X88761904Y-124933333D01*
X88761904Y-125171428D01*
X88714285Y-125361904D01*
X88666666Y-125457142D01*
X88619047Y-125504761D01*
X88523809Y-125552380D01*
X88428571Y-125552380D01*
X88333333Y-125504761D01*
X88285714Y-125457142D01*
X88238095Y-125361904D01*
X88190476Y-125171428D01*
X88190476Y-124933333D01*
X88238095Y-124742857D01*
X88285714Y-124647619D01*
X88333333Y-124600000D01*
X88428571Y-124552380D01*
%TO.C,J1*%
X81066666Y-88302380D02*
X81066666Y-89016666D01*
X81019047Y-89159523D01*
X80923809Y-89254761D01*
X80780952Y-89302380D01*
X80685714Y-89302380D01*
X82066666Y-89302380D02*
X81495238Y-89302380D01*
X81780952Y-89302380D02*
X81780952Y-88302380D01*
X81685714Y-88445238D01*
X81590476Y-88540476D01*
X81495238Y-88588095D01*
%TO.C,C31*%
X109094642Y-131757142D02*
X109047023Y-131804761D01*
X108904166Y-131852380D01*
X108808928Y-131852380D01*
X108666071Y-131804761D01*
X108570833Y-131709523D01*
X108523214Y-131614285D01*
X108475595Y-131423809D01*
X108475595Y-131280952D01*
X108523214Y-131090476D01*
X108570833Y-130995238D01*
X108666071Y-130900000D01*
X108808928Y-130852380D01*
X108904166Y-130852380D01*
X109047023Y-130900000D01*
X109094642Y-130947619D01*
X109427976Y-130852380D02*
X110047023Y-130852380D01*
X109713690Y-131233333D01*
X109856547Y-131233333D01*
X109951785Y-131280952D01*
X109999404Y-131328571D01*
X110047023Y-131423809D01*
X110047023Y-131661904D01*
X109999404Y-131757142D01*
X109951785Y-131804761D01*
X109856547Y-131852380D01*
X109570833Y-131852380D01*
X109475595Y-131804761D01*
X109427976Y-131757142D01*
X110999404Y-131852380D02*
X110427976Y-131852380D01*
X110713690Y-131852380D02*
X110713690Y-130852380D01*
X110618452Y-130995238D01*
X110523214Y-131090476D01*
X110427976Y-131138095D01*
%TO.C,C9*%
X133095833Y-106257142D02*
X133048214Y-106304761D01*
X132905357Y-106352380D01*
X132810119Y-106352380D01*
X132667261Y-106304761D01*
X132572023Y-106209523D01*
X132524404Y-106114285D01*
X132476785Y-105923809D01*
X132476785Y-105780952D01*
X132524404Y-105590476D01*
X132572023Y-105495238D01*
X132667261Y-105400000D01*
X132810119Y-105352380D01*
X132905357Y-105352380D01*
X133048214Y-105400000D01*
X133095833Y-105447619D01*
X133572023Y-106352380D02*
X133762500Y-106352380D01*
X133857738Y-106304761D01*
X133905357Y-106257142D01*
X134000595Y-106114285D01*
X134048214Y-105923809D01*
X134048214Y-105542857D01*
X134000595Y-105447619D01*
X133952976Y-105400000D01*
X133857738Y-105352380D01*
X133667261Y-105352380D01*
X133572023Y-105400000D01*
X133524404Y-105447619D01*
X133476785Y-105542857D01*
X133476785Y-105780952D01*
X133524404Y-105876190D01*
X133572023Y-105923809D01*
X133667261Y-105971428D01*
X133857738Y-105971428D01*
X133952976Y-105923809D01*
X134000595Y-105876190D01*
X134048214Y-105780952D01*
%TO.C,C27*%
X131797142Y-135196142D02*
X131749523Y-135243761D01*
X131606666Y-135291380D01*
X131511428Y-135291380D01*
X131368571Y-135243761D01*
X131273333Y-135148523D01*
X131225714Y-135053285D01*
X131178095Y-134862809D01*
X131178095Y-134719952D01*
X131225714Y-134529476D01*
X131273333Y-134434238D01*
X131368571Y-134339000D01*
X131511428Y-134291380D01*
X131606666Y-134291380D01*
X131749523Y-134339000D01*
X131797142Y-134386619D01*
X132178095Y-134386619D02*
X132225714Y-134339000D01*
X132320952Y-134291380D01*
X132559047Y-134291380D01*
X132654285Y-134339000D01*
X132701904Y-134386619D01*
X132749523Y-134481857D01*
X132749523Y-134577095D01*
X132701904Y-134719952D01*
X132130476Y-135291380D01*
X132749523Y-135291380D01*
X133082857Y-134291380D02*
X133749523Y-134291380D01*
X133320952Y-135291380D01*
%TO.C,J7*%
X137866666Y-41652380D02*
X137866666Y-42366666D01*
X137819047Y-42509523D01*
X137723809Y-42604761D01*
X137580952Y-42652380D01*
X137485714Y-42652380D01*
X138247619Y-41652380D02*
X138914285Y-41652380D01*
X138485714Y-42652380D01*
%TO.C,C14*%
X141157142Y-68157142D02*
X141109523Y-68204761D01*
X140966666Y-68252380D01*
X140871428Y-68252380D01*
X140728571Y-68204761D01*
X140633333Y-68109523D01*
X140585714Y-68014285D01*
X140538095Y-67823809D01*
X140538095Y-67680952D01*
X140585714Y-67490476D01*
X140633333Y-67395238D01*
X140728571Y-67300000D01*
X140871428Y-67252380D01*
X140966666Y-67252380D01*
X141109523Y-67300000D01*
X141157142Y-67347619D01*
X142109523Y-68252380D02*
X141538095Y-68252380D01*
X141823809Y-68252380D02*
X141823809Y-67252380D01*
X141728571Y-67395238D01*
X141633333Y-67490476D01*
X141538095Y-67538095D01*
X142966666Y-67585714D02*
X142966666Y-68252380D01*
X142728571Y-67204761D02*
X142490476Y-67919047D01*
X143109523Y-67919047D01*
%TO.C,C25*%
X132257142Y-149257142D02*
X132209523Y-149304761D01*
X132066666Y-149352380D01*
X131971428Y-149352380D01*
X131828571Y-149304761D01*
X131733333Y-149209523D01*
X131685714Y-149114285D01*
X131638095Y-148923809D01*
X131638095Y-148780952D01*
X131685714Y-148590476D01*
X131733333Y-148495238D01*
X131828571Y-148400000D01*
X131971428Y-148352380D01*
X132066666Y-148352380D01*
X132209523Y-148400000D01*
X132257142Y-148447619D01*
X132638095Y-148447619D02*
X132685714Y-148400000D01*
X132780952Y-148352380D01*
X133019047Y-148352380D01*
X133114285Y-148400000D01*
X133161904Y-148447619D01*
X133209523Y-148542857D01*
X133209523Y-148638095D01*
X133161904Y-148780952D01*
X132590476Y-149352380D01*
X133209523Y-149352380D01*
X134114285Y-148352380D02*
X133638095Y-148352380D01*
X133590476Y-148828571D01*
X133638095Y-148780952D01*
X133733333Y-148733333D01*
X133971428Y-148733333D01*
X134066666Y-148780952D01*
X134114285Y-148828571D01*
X134161904Y-148923809D01*
X134161904Y-149161904D01*
X134114285Y-149257142D01*
X134066666Y-149304761D01*
X133971428Y-149352380D01*
X133733333Y-149352380D01*
X133638095Y-149304761D01*
X133590476Y-149257142D01*
%TO.C,L15*%
X132051142Y-130719380D02*
X131574952Y-130719380D01*
X131574952Y-129719380D01*
X132908285Y-130719380D02*
X132336857Y-130719380D01*
X132622571Y-130719380D02*
X132622571Y-129719380D01*
X132527333Y-129862238D01*
X132432095Y-129957476D01*
X132336857Y-130005095D01*
X133813047Y-129719380D02*
X133336857Y-129719380D01*
X133289238Y-130195571D01*
X133336857Y-130147952D01*
X133432095Y-130100333D01*
X133670190Y-130100333D01*
X133765428Y-130147952D01*
X133813047Y-130195571D01*
X133860666Y-130290809D01*
X133860666Y-130528904D01*
X133813047Y-130624142D01*
X133765428Y-130671761D01*
X133670190Y-130719380D01*
X133432095Y-130719380D01*
X133336857Y-130671761D01*
X133289238Y-130624142D01*
%TO.C,Q2*%
X95904761Y-66947619D02*
X95809523Y-66900000D01*
X95714285Y-66804761D01*
X95571428Y-66661904D01*
X95476190Y-66614285D01*
X95380952Y-66614285D01*
X95428571Y-66852380D02*
X95333333Y-66804761D01*
X95238095Y-66709523D01*
X95190476Y-66519047D01*
X95190476Y-66185714D01*
X95238095Y-65995238D01*
X95333333Y-65900000D01*
X95428571Y-65852380D01*
X95619047Y-65852380D01*
X95714285Y-65900000D01*
X95809523Y-65995238D01*
X95857142Y-66185714D01*
X95857142Y-66519047D01*
X95809523Y-66709523D01*
X95714285Y-66804761D01*
X95619047Y-66852380D01*
X95428571Y-66852380D01*
X96238095Y-65947619D02*
X96285714Y-65900000D01*
X96380952Y-65852380D01*
X96619047Y-65852380D01*
X96714285Y-65900000D01*
X96761904Y-65947619D01*
X96809523Y-66042857D01*
X96809523Y-66138095D01*
X96761904Y-66280952D01*
X96190476Y-66852380D01*
X96809523Y-66852380D01*
%TO.C,C10*%
X131543142Y-50360142D02*
X131495523Y-50407761D01*
X131352666Y-50455380D01*
X131257428Y-50455380D01*
X131114571Y-50407761D01*
X131019333Y-50312523D01*
X130971714Y-50217285D01*
X130924095Y-50026809D01*
X130924095Y-49883952D01*
X130971714Y-49693476D01*
X131019333Y-49598238D01*
X131114571Y-49503000D01*
X131257428Y-49455380D01*
X131352666Y-49455380D01*
X131495523Y-49503000D01*
X131543142Y-49550619D01*
X132495523Y-50455380D02*
X131924095Y-50455380D01*
X132209809Y-50455380D02*
X132209809Y-49455380D01*
X132114571Y-49598238D01*
X132019333Y-49693476D01*
X131924095Y-49741095D01*
X133114571Y-49455380D02*
X133209809Y-49455380D01*
X133305047Y-49503000D01*
X133352666Y-49550619D01*
X133400285Y-49645857D01*
X133447904Y-49836333D01*
X133447904Y-50074428D01*
X133400285Y-50264904D01*
X133352666Y-50360142D01*
X133305047Y-50407761D01*
X133209809Y-50455380D01*
X133114571Y-50455380D01*
X133019333Y-50407761D01*
X132971714Y-50360142D01*
X132924095Y-50264904D01*
X132876476Y-50074428D01*
X132876476Y-49836333D01*
X132924095Y-49645857D01*
X132971714Y-49550619D01*
X133019333Y-49503000D01*
X133114571Y-49455380D01*
%TO.C,J6*%
X85366666Y-143452380D02*
X85366666Y-144166666D01*
X85319047Y-144309523D01*
X85223809Y-144404761D01*
X85080952Y-144452380D01*
X84985714Y-144452380D01*
X86271428Y-143452380D02*
X86080952Y-143452380D01*
X85985714Y-143500000D01*
X85938095Y-143547619D01*
X85842857Y-143690476D01*
X85795238Y-143880952D01*
X85795238Y-144261904D01*
X85842857Y-144357142D01*
X85890476Y-144404761D01*
X85985714Y-144452380D01*
X86176190Y-144452380D01*
X86271428Y-144404761D01*
X86319047Y-144357142D01*
X86366666Y-144261904D01*
X86366666Y-144023809D01*
X86319047Y-143928571D01*
X86271428Y-143880952D01*
X86176190Y-143833333D01*
X85985714Y-143833333D01*
X85890476Y-143880952D01*
X85842857Y-143928571D01*
X85795238Y-144023809D01*
%TO.C,C28*%
X142057142Y-110657142D02*
X142009523Y-110704761D01*
X141866666Y-110752380D01*
X141771428Y-110752380D01*
X141628571Y-110704761D01*
X141533333Y-110609523D01*
X141485714Y-110514285D01*
X141438095Y-110323809D01*
X141438095Y-110180952D01*
X141485714Y-109990476D01*
X141533333Y-109895238D01*
X141628571Y-109800000D01*
X141771428Y-109752380D01*
X141866666Y-109752380D01*
X142009523Y-109800000D01*
X142057142Y-109847619D01*
X142438095Y-109847619D02*
X142485714Y-109800000D01*
X142580952Y-109752380D01*
X142819047Y-109752380D01*
X142914285Y-109800000D01*
X142961904Y-109847619D01*
X143009523Y-109942857D01*
X143009523Y-110038095D01*
X142961904Y-110180952D01*
X142390476Y-110752380D01*
X143009523Y-110752380D01*
X143580952Y-110180952D02*
X143485714Y-110133333D01*
X143438095Y-110085714D01*
X143390476Y-109990476D01*
X143390476Y-109942857D01*
X143438095Y-109847619D01*
X143485714Y-109800000D01*
X143580952Y-109752380D01*
X143771428Y-109752380D01*
X143866666Y-109800000D01*
X143914285Y-109847619D01*
X143961904Y-109942857D01*
X143961904Y-109990476D01*
X143914285Y-110085714D01*
X143866666Y-110133333D01*
X143771428Y-110180952D01*
X143580952Y-110180952D01*
X143485714Y-110228571D01*
X143438095Y-110276190D01*
X143390476Y-110371428D01*
X143390476Y-110561904D01*
X143438095Y-110657142D01*
X143485714Y-110704761D01*
X143580952Y-110752380D01*
X143771428Y-110752380D01*
X143866666Y-110704761D01*
X143914285Y-110657142D01*
X143961904Y-110561904D01*
X143961904Y-110371428D01*
X143914285Y-110276190D01*
X143866666Y-110228571D01*
X143771428Y-110180952D01*
%TO.C,R10*%
X86594642Y-132952380D02*
X86261309Y-132476190D01*
X86023214Y-132952380D02*
X86023214Y-131952380D01*
X86404166Y-131952380D01*
X86499404Y-132000000D01*
X86547023Y-132047619D01*
X86594642Y-132142857D01*
X86594642Y-132285714D01*
X86547023Y-132380952D01*
X86499404Y-132428571D01*
X86404166Y-132476190D01*
X86023214Y-132476190D01*
X87547023Y-132952380D02*
X86975595Y-132952380D01*
X87261309Y-132952380D02*
X87261309Y-131952380D01*
X87166071Y-132095238D01*
X87070833Y-132190476D01*
X86975595Y-132238095D01*
X88166071Y-131952380D02*
X88261309Y-131952380D01*
X88356547Y-132000000D01*
X88404166Y-132047619D01*
X88451785Y-132142857D01*
X88499404Y-132333333D01*
X88499404Y-132571428D01*
X88451785Y-132761904D01*
X88404166Y-132857142D01*
X88356547Y-132904761D01*
X88261309Y-132952380D01*
X88166071Y-132952380D01*
X88070833Y-132904761D01*
X88023214Y-132857142D01*
X87975595Y-132761904D01*
X87927976Y-132571428D01*
X87927976Y-132333333D01*
X87975595Y-132142857D01*
X88023214Y-132047619D01*
X88070833Y-132000000D01*
X88166071Y-131952380D01*
%TO.C,L14*%
X131797142Y-110399380D02*
X131320952Y-110399380D01*
X131320952Y-109399380D01*
X132654285Y-110399380D02*
X132082857Y-110399380D01*
X132368571Y-110399380D02*
X132368571Y-109399380D01*
X132273333Y-109542238D01*
X132178095Y-109637476D01*
X132082857Y-109685095D01*
X133511428Y-109732714D02*
X133511428Y-110399380D01*
X133273333Y-109351761D02*
X133035238Y-110066047D01*
X133654285Y-110066047D01*
%TO.C,C15*%
X142157142Y-89657142D02*
X142109523Y-89704761D01*
X141966666Y-89752380D01*
X141871428Y-89752380D01*
X141728571Y-89704761D01*
X141633333Y-89609523D01*
X141585714Y-89514285D01*
X141538095Y-89323809D01*
X141538095Y-89180952D01*
X141585714Y-88990476D01*
X141633333Y-88895238D01*
X141728571Y-88800000D01*
X141871428Y-88752380D01*
X141966666Y-88752380D01*
X142109523Y-88800000D01*
X142157142Y-88847619D01*
X143109523Y-89752380D02*
X142538095Y-89752380D01*
X142823809Y-89752380D02*
X142823809Y-88752380D01*
X142728571Y-88895238D01*
X142633333Y-88990476D01*
X142538095Y-89038095D01*
X144014285Y-88752380D02*
X143538095Y-88752380D01*
X143490476Y-89228571D01*
X143538095Y-89180952D01*
X143633333Y-89133333D01*
X143871428Y-89133333D01*
X143966666Y-89180952D01*
X144014285Y-89228571D01*
X144061904Y-89323809D01*
X144061904Y-89561904D01*
X144014285Y-89657142D01*
X143966666Y-89704761D01*
X143871428Y-89752380D01*
X143633333Y-89752380D01*
X143538095Y-89704761D01*
X143490476Y-89657142D01*
%TO.C,L10*%
X131657142Y-121552380D02*
X131180952Y-121552380D01*
X131180952Y-120552380D01*
X132514285Y-121552380D02*
X131942857Y-121552380D01*
X132228571Y-121552380D02*
X132228571Y-120552380D01*
X132133333Y-120695238D01*
X132038095Y-120790476D01*
X131942857Y-120838095D01*
X133133333Y-120552380D02*
X133228571Y-120552380D01*
X133323809Y-120600000D01*
X133371428Y-120647619D01*
X133419047Y-120742857D01*
X133466666Y-120933333D01*
X133466666Y-121171428D01*
X133419047Y-121361904D01*
X133371428Y-121457142D01*
X133323809Y-121504761D01*
X133228571Y-121552380D01*
X133133333Y-121552380D01*
X133038095Y-121504761D01*
X132990476Y-121457142D01*
X132942857Y-121361904D01*
X132895238Y-121171428D01*
X132895238Y-120933333D01*
X132942857Y-120742857D01*
X132990476Y-120647619D01*
X133038095Y-120600000D01*
X133133333Y-120552380D01*
%TO.C,C2*%
X87133333Y-84357142D02*
X87085714Y-84404761D01*
X86942857Y-84452380D01*
X86847619Y-84452380D01*
X86704761Y-84404761D01*
X86609523Y-84309523D01*
X86561904Y-84214285D01*
X86514285Y-84023809D01*
X86514285Y-83880952D01*
X86561904Y-83690476D01*
X86609523Y-83595238D01*
X86704761Y-83500000D01*
X86847619Y-83452380D01*
X86942857Y-83452380D01*
X87085714Y-83500000D01*
X87133333Y-83547619D01*
X87514285Y-83547619D02*
X87561904Y-83500000D01*
X87657142Y-83452380D01*
X87895238Y-83452380D01*
X87990476Y-83500000D01*
X88038095Y-83547619D01*
X88085714Y-83642857D01*
X88085714Y-83738095D01*
X88038095Y-83880952D01*
X87466666Y-84452380D01*
X88085714Y-84452380D01*
%TO.C,D2*%
X86261904Y-73552380D02*
X86261904Y-72552380D01*
X86500000Y-72552380D01*
X86642857Y-72600000D01*
X86738095Y-72695238D01*
X86785714Y-72790476D01*
X86833333Y-72980952D01*
X86833333Y-73123809D01*
X86785714Y-73314285D01*
X86738095Y-73409523D01*
X86642857Y-73504761D01*
X86500000Y-73552380D01*
X86261904Y-73552380D01*
X87214285Y-72647619D02*
X87261904Y-72600000D01*
X87357142Y-72552380D01*
X87595238Y-72552380D01*
X87690476Y-72600000D01*
X87738095Y-72647619D01*
X87785714Y-72742857D01*
X87785714Y-72838095D01*
X87738095Y-72980952D01*
X87166666Y-73552380D01*
X87785714Y-73552380D01*
X87938095Y-81262380D02*
X87938095Y-80262380D01*
X88509523Y-81262380D02*
X88080952Y-80690952D01*
X88509523Y-80262380D02*
X87938095Y-80833809D01*
%TO.C,C24*%
X132657142Y-127657142D02*
X132609523Y-127704761D01*
X132466666Y-127752380D01*
X132371428Y-127752380D01*
X132228571Y-127704761D01*
X132133333Y-127609523D01*
X132085714Y-127514285D01*
X132038095Y-127323809D01*
X132038095Y-127180952D01*
X132085714Y-126990476D01*
X132133333Y-126895238D01*
X132228571Y-126800000D01*
X132371428Y-126752380D01*
X132466666Y-126752380D01*
X132609523Y-126800000D01*
X132657142Y-126847619D01*
X133038095Y-126847619D02*
X133085714Y-126800000D01*
X133180952Y-126752380D01*
X133419047Y-126752380D01*
X133514285Y-126800000D01*
X133561904Y-126847619D01*
X133609523Y-126942857D01*
X133609523Y-127038095D01*
X133561904Y-127180952D01*
X132990476Y-127752380D01*
X133609523Y-127752380D01*
X134466666Y-127085714D02*
X134466666Y-127752380D01*
X134228571Y-126704761D02*
X133990476Y-127419047D01*
X134609523Y-127419047D01*
%TO.C,C30*%
X109157142Y-110757142D02*
X109109523Y-110804761D01*
X108966666Y-110852380D01*
X108871428Y-110852380D01*
X108728571Y-110804761D01*
X108633333Y-110709523D01*
X108585714Y-110614285D01*
X108538095Y-110423809D01*
X108538095Y-110280952D01*
X108585714Y-110090476D01*
X108633333Y-109995238D01*
X108728571Y-109900000D01*
X108871428Y-109852380D01*
X108966666Y-109852380D01*
X109109523Y-109900000D01*
X109157142Y-109947619D01*
X109490476Y-109852380D02*
X110109523Y-109852380D01*
X109776190Y-110233333D01*
X109919047Y-110233333D01*
X110014285Y-110280952D01*
X110061904Y-110328571D01*
X110109523Y-110423809D01*
X110109523Y-110661904D01*
X110061904Y-110757142D01*
X110014285Y-110804761D01*
X109919047Y-110852380D01*
X109633333Y-110852380D01*
X109538095Y-110804761D01*
X109490476Y-110757142D01*
X110728571Y-109852380D02*
X110823809Y-109852380D01*
X110919047Y-109900000D01*
X110966666Y-109947619D01*
X111014285Y-110042857D01*
X111061904Y-110233333D01*
X111061904Y-110471428D01*
X111014285Y-110661904D01*
X110966666Y-110757142D01*
X110919047Y-110804761D01*
X110823809Y-110852380D01*
X110728571Y-110852380D01*
X110633333Y-110804761D01*
X110585714Y-110757142D01*
X110538095Y-110661904D01*
X110490476Y-110471428D01*
X110490476Y-110233333D01*
X110538095Y-110042857D01*
X110585714Y-109947619D01*
X110633333Y-109900000D01*
X110728571Y-109852380D01*
D12*
%TO.C,D5*%
X89567500Y-136880000D02*
X89697500Y-136880000D01*
X92507500Y-136880000D02*
X92377500Y-136880000D01*
X92377500Y-142320000D02*
X92507500Y-142320000D01*
X89697500Y-142320000D02*
X89567500Y-142320000D01*
X92507500Y-142320000D02*
X92507500Y-136880000D01*
X89567500Y-142320000D02*
X89567500Y-136880000D01*
X89567500Y-141540000D02*
X92507500Y-141540000D01*
X89567500Y-141420000D02*
X92507500Y-141420000D01*
X89567500Y-141300000D02*
X92507500Y-141300000D01*
%TO.C,C5*%
X113561252Y-85235000D02*
X113038748Y-85235000D01*
X113561252Y-83765000D02*
X113038748Y-83765000D01*
%TO.C,Q1*%
X95462500Y-47860000D02*
X94812500Y-47860000D01*
X95462500Y-44740000D02*
X96112500Y-44740000D01*
X95462500Y-47860000D02*
X96112500Y-47860000D01*
X95462500Y-44740000D02*
X93787500Y-44740000D01*
%TO.C,R2*%
X90667224Y-68522500D02*
X90157776Y-68522500D01*
X90667224Y-67477500D02*
X90157776Y-67477500D01*
%TO.C,R1*%
X90954724Y-44377500D02*
X90445276Y-44377500D01*
X90954724Y-45422500D02*
X90445276Y-45422500D01*
%TO.C,Q3*%
X96262500Y-90760000D02*
X95612500Y-90760000D01*
X96262500Y-87640000D02*
X96912500Y-87640000D01*
X96262500Y-87640000D02*
X94587500Y-87640000D01*
X96262500Y-90760000D02*
X96912500Y-90760000D01*
%TO.C,C8*%
X133935000Y-81638748D02*
X133935000Y-82161252D01*
X132465000Y-81638748D02*
X132465000Y-82161252D01*
%TO.C,R5*%
X90654724Y-70822500D02*
X90145276Y-70822500D01*
X90654724Y-69777500D02*
X90145276Y-69777500D01*
%TO.C,J8*%
X81370000Y-42695000D02*
X82700000Y-42695000D01*
X81370000Y-47895000D02*
X84030000Y-47895000D01*
X84030000Y-45295000D02*
X84030000Y-47895000D01*
X81370000Y-45295000D02*
X84030000Y-45295000D01*
X81370000Y-45295000D02*
X81370000Y-47895000D01*
X81370000Y-44025000D02*
X81370000Y-42695000D01*
%TO.C,K2*%
X94542500Y-82142500D02*
X115132500Y-82142500D01*
X95692500Y-82302500D02*
X94392500Y-82302500D01*
X115132500Y-71762500D02*
X94542500Y-71762500D01*
X95602500Y-78462500D02*
X95602500Y-75462500D01*
X94392500Y-82302500D02*
X94392500Y-81092500D01*
X95752500Y-77292500D02*
X96952500Y-77292500D01*
X96382500Y-77292500D02*
X96382500Y-78392500D01*
X96952500Y-76592500D02*
X95752500Y-76592500D01*
X115132500Y-82142500D02*
X115132500Y-71762500D01*
X96382500Y-76592500D02*
X96382500Y-75492500D01*
X94542500Y-78462500D02*
X95582500Y-78462500D01*
X96552500Y-77292500D02*
X96152500Y-76592500D01*
X95752500Y-76592500D02*
X95752500Y-77292500D01*
X96952500Y-77292500D02*
X96952500Y-76592500D01*
X95602500Y-75462500D02*
X94542500Y-75462500D01*
X94542500Y-71762500D02*
X94542500Y-82142500D01*
%TO.C,L3*%
X125540500Y-99030000D02*
X130682500Y-99030000D01*
X117442500Y-99030000D02*
X117442500Y-105770000D01*
X130682500Y-99030000D02*
X130682500Y-105770000D01*
X117442500Y-99030000D02*
X122584500Y-99030000D01*
X117442500Y-105770000D02*
X122584500Y-105770000D01*
X125540500Y-105770000D02*
X130682500Y-105770000D01*
%TO.C,D1*%
X89060000Y-57320000D02*
X88930000Y-57320000D01*
X91740000Y-57320000D02*
X91870000Y-57320000D01*
X91870000Y-57320000D02*
X91870000Y-51880000D01*
X91870000Y-51880000D02*
X91740000Y-51880000D01*
X88930000Y-57320000D02*
X88930000Y-51880000D01*
X88930000Y-56420000D02*
X91870000Y-56420000D01*
X88930000Y-51880000D02*
X89060000Y-51880000D01*
X88930000Y-56540000D02*
X91870000Y-56540000D01*
X88930000Y-56300000D02*
X91870000Y-56300000D01*
%TO.C,J2*%
X80770000Y-135400000D02*
X80770000Y-134070000D01*
X80770000Y-136670000D02*
X80770000Y-139270000D01*
X80770000Y-136670000D02*
X83430000Y-136670000D01*
X80770000Y-134070000D02*
X82100000Y-134070000D01*
X80770000Y-139270000D02*
X83430000Y-139270000D01*
X83430000Y-136670000D02*
X83430000Y-139270000D01*
%TO.C,C19*%
X82346267Y-142410000D02*
X82053733Y-142410000D01*
X82346267Y-141390000D02*
X82053733Y-141390000D01*
%TO.C,K4*%
X97152500Y-117792500D02*
X95952500Y-117792500D01*
X95952500Y-117792500D02*
X95952500Y-118492500D01*
X94742500Y-119662500D02*
X95782500Y-119662500D01*
X95892500Y-123502500D02*
X94592500Y-123502500D01*
X94592500Y-123502500D02*
X94592500Y-122292500D01*
X95802500Y-119662500D02*
X95802500Y-116662500D01*
X96582500Y-117792500D02*
X96582500Y-116692500D01*
X97152500Y-118492500D02*
X97152500Y-117792500D01*
X95802500Y-116662500D02*
X94742500Y-116662500D01*
X95952500Y-118492500D02*
X97152500Y-118492500D01*
X94742500Y-123342500D02*
X115332500Y-123342500D01*
X96752500Y-118492500D02*
X96352500Y-117792500D01*
X115332500Y-112962500D02*
X94742500Y-112962500D01*
X115332500Y-123342500D02*
X115332500Y-112962500D01*
X96582500Y-118492500D02*
X96582500Y-119592500D01*
X94742500Y-112962500D02*
X94742500Y-123342500D01*
%TO.C,L13*%
X141770000Y-146220000D02*
X141770000Y-141078000D01*
X135030000Y-138122000D02*
X135030000Y-132980000D01*
X141770000Y-138122000D02*
X141770000Y-132980000D01*
X135030000Y-132980000D02*
X141770000Y-132980000D01*
X135030000Y-146220000D02*
X135030000Y-141078000D01*
X135030000Y-146220000D02*
X141770000Y-146220000D01*
%TO.C,Q4*%
X96262500Y-108540000D02*
X94587500Y-108540000D01*
X96262500Y-111660000D02*
X96912500Y-111660000D01*
X96262500Y-111660000D02*
X95612500Y-111660000D01*
X96262500Y-108540000D02*
X96912500Y-108540000D01*
%TO.C,C17*%
X113623752Y-69735000D02*
X113101248Y-69735000D01*
X113623752Y-68265000D02*
X113101248Y-68265000D01*
%TO.C,R3*%
X90517224Y-88822500D02*
X90007776Y-88822500D01*
X90517224Y-87777500D02*
X90007776Y-87777500D01*
%TO.C,K3*%
X95722500Y-98720000D02*
X95722500Y-95720000D01*
X95872500Y-96850000D02*
X95872500Y-97550000D01*
X95872500Y-97550000D02*
X97072500Y-97550000D01*
X95722500Y-95720000D02*
X94662500Y-95720000D01*
X96502500Y-97550000D02*
X96502500Y-98650000D01*
X95812500Y-102560000D02*
X94512500Y-102560000D01*
X94662500Y-102400000D02*
X115252500Y-102400000D01*
X94662500Y-92020000D02*
X94662500Y-102400000D01*
X115252500Y-102400000D02*
X115252500Y-92020000D01*
X97072500Y-97550000D02*
X97072500Y-96850000D01*
X94662500Y-98720000D02*
X95702500Y-98720000D01*
X97072500Y-96850000D02*
X95872500Y-96850000D01*
X96672500Y-97550000D02*
X96272500Y-96850000D01*
X115252500Y-92020000D02*
X94662500Y-92020000D01*
X94512500Y-102560000D02*
X94512500Y-101350000D01*
X96502500Y-96850000D02*
X96502500Y-95750000D01*
%TO.C,C21*%
X91221267Y-146810000D02*
X90928733Y-146810000D01*
X91221267Y-145790000D02*
X90928733Y-145790000D01*
%TO.C,K1*%
X94742500Y-59642500D02*
X115332500Y-59642500D01*
X95802500Y-52962500D02*
X94742500Y-52962500D01*
X94742500Y-55962500D02*
X95782500Y-55962500D01*
X96582500Y-54092500D02*
X96582500Y-52992500D01*
X94592500Y-59802500D02*
X94592500Y-58592500D01*
X94742500Y-49262500D02*
X94742500Y-59642500D01*
X95952500Y-54792500D02*
X97152500Y-54792500D01*
X97152500Y-54092500D02*
X95952500Y-54092500D01*
X115332500Y-49262500D02*
X94742500Y-49262500D01*
X96752500Y-54792500D02*
X96352500Y-54092500D01*
X96582500Y-54792500D02*
X96582500Y-55892500D01*
X95892500Y-59802500D02*
X94592500Y-59802500D01*
X95802500Y-55962500D02*
X95802500Y-52962500D01*
X115332500Y-59642500D02*
X115332500Y-49262500D01*
X97152500Y-54792500D02*
X97152500Y-54092500D01*
X95952500Y-54092500D02*
X95952500Y-54792500D01*
%TO.C,J9*%
X91650000Y-152900000D02*
X92760000Y-152900000D01*
X93850000Y-148140000D02*
X93350000Y-148140000D01*
X91650000Y-149190000D02*
X92760000Y-149190000D01*
X93600000Y-148640000D02*
X93850000Y-148140000D01*
X94440000Y-149190000D02*
X95550000Y-149190000D01*
X94440000Y-152900000D02*
X95550000Y-152900000D01*
X93350000Y-148140000D02*
X93600000Y-148640000D01*
%TO.C,Q5*%
X95537500Y-129440000D02*
X93862500Y-129440000D01*
X95537500Y-132560000D02*
X96187500Y-132560000D01*
X95537500Y-132560000D02*
X94887500Y-132560000D01*
X95537500Y-129440000D02*
X96187500Y-129440000D01*
%TO.C,R6*%
X90517224Y-89977500D02*
X90007776Y-89977500D01*
X90517224Y-91022500D02*
X90007776Y-91022500D01*
%TO.C,C29*%
X138376248Y-131835000D02*
X138898752Y-131835000D01*
X138376248Y-130365000D02*
X138898752Y-130365000D01*
%TO.C,K5*%
X96520000Y-139492500D02*
X96520000Y-140592500D01*
X95890000Y-139492500D02*
X97090000Y-139492500D01*
X95740000Y-137662500D02*
X94680000Y-137662500D01*
X96690000Y-139492500D02*
X96290000Y-138792500D01*
X95740000Y-140662500D02*
X95740000Y-137662500D01*
X97090000Y-139492500D02*
X97090000Y-138792500D01*
X95890000Y-138792500D02*
X95890000Y-139492500D01*
X115270000Y-144342500D02*
X115270000Y-133962500D01*
X94680000Y-133962500D02*
X94680000Y-144342500D01*
X94680000Y-140662500D02*
X95720000Y-140662500D01*
X94680000Y-144342500D02*
X115270000Y-144342500D01*
X115270000Y-133962500D02*
X94680000Y-133962500D01*
X94530000Y-144502500D02*
X94530000Y-143292500D01*
X95830000Y-144502500D02*
X94530000Y-144502500D01*
X97090000Y-138792500D02*
X95890000Y-138792500D01*
X96520000Y-138792500D02*
X96520000Y-137692500D01*
%TO.C,L4*%
X141670000Y-60620000D02*
X141670000Y-55478000D01*
X141670000Y-52522000D02*
X141670000Y-47380000D01*
X134930000Y-47380000D02*
X141670000Y-47380000D01*
X134930000Y-60620000D02*
X141670000Y-60620000D01*
X134930000Y-52522000D02*
X134930000Y-47380000D01*
X134930000Y-60620000D02*
X134930000Y-55478000D01*
%TO.C,C22*%
X112961252Y-126635000D02*
X112438748Y-126635000D01*
X112961252Y-125165000D02*
X112438748Y-125165000D01*
%TO.C,C13*%
X136476248Y-46335000D02*
X136998752Y-46335000D01*
X136476248Y-44865000D02*
X136998752Y-44865000D01*
%TO.C,J3*%
X108687000Y-148140000D02*
X108187000Y-148140000D01*
X108187000Y-148140000D02*
X108437000Y-148640000D01*
X106487000Y-149190000D02*
X107597000Y-149190000D01*
X108437000Y-148640000D02*
X108687000Y-148140000D01*
X106487000Y-152900000D02*
X107597000Y-152900000D01*
X109277000Y-152900000D02*
X110387000Y-152900000D01*
X109277000Y-149190000D02*
X110387000Y-149190000D01*
%TO.C,C1*%
X90546267Y-61910000D02*
X90253733Y-61910000D01*
X90546267Y-60890000D02*
X90253733Y-60890000D01*
%TO.C,L11*%
X130557500Y-141230000D02*
X130557500Y-147970000D01*
X117317500Y-141230000D02*
X122459500Y-141230000D01*
X117317500Y-147970000D02*
X122459500Y-147970000D01*
X117317500Y-141230000D02*
X117317500Y-147970000D01*
X125415500Y-141230000D02*
X130557500Y-141230000D01*
X125415500Y-147970000D02*
X130557500Y-147970000D01*
%TO.C,C11*%
X133302000Y-75283252D02*
X133302000Y-74760748D01*
X131832000Y-75283252D02*
X131832000Y-74760748D01*
%TO.C,R9*%
X91154724Y-111822500D02*
X90645276Y-111822500D01*
X91154724Y-110777500D02*
X90645276Y-110777500D01*
%TO.C,D4*%
X89430000Y-120120000D02*
X92370000Y-120120000D01*
X89430000Y-120240000D02*
X92370000Y-120240000D01*
X89430000Y-115580000D02*
X89560000Y-115580000D01*
X89430000Y-121020000D02*
X89430000Y-115580000D01*
X92240000Y-121020000D02*
X92370000Y-121020000D01*
X89430000Y-120000000D02*
X92370000Y-120000000D01*
X89560000Y-121020000D02*
X89430000Y-121020000D01*
X92370000Y-115580000D02*
X92240000Y-115580000D01*
X92370000Y-121020000D02*
X92370000Y-115580000D01*
%TO.C,L2*%
X117380000Y-84770000D02*
X122522000Y-84770000D01*
X125478000Y-78030000D02*
X130620000Y-78030000D01*
X117380000Y-78030000D02*
X117380000Y-84770000D01*
X117380000Y-78030000D02*
X122522000Y-78030000D01*
X130620000Y-78030000D02*
X130620000Y-84770000D01*
X125478000Y-84770000D02*
X130620000Y-84770000D01*
%TO.C,C6*%
X113623752Y-104665000D02*
X113101248Y-104665000D01*
X113623752Y-106135000D02*
X113101248Y-106135000D01*
%TO.C,C4*%
X113761252Y-63435000D02*
X113238748Y-63435000D01*
X113761252Y-61965000D02*
X113238748Y-61965000D01*
%TO.C,L9*%
X122580000Y-95912000D02*
X117438000Y-95912000D01*
X130678000Y-95912000D02*
X130678000Y-89172000D01*
X117438000Y-95912000D02*
X117438000Y-89172000D01*
X130678000Y-95912000D02*
X125536000Y-95912000D01*
X122580000Y-89172000D02*
X117438000Y-89172000D01*
X130678000Y-89172000D02*
X125536000Y-89172000D01*
%TO.C,J5*%
X140822000Y-151155000D02*
X143422000Y-151155000D01*
X140822000Y-148495000D02*
X143422000Y-148495000D01*
X143422000Y-151155000D02*
X143422000Y-148495000D01*
X138222000Y-151155000D02*
X138222000Y-149825000D01*
X139552000Y-151155000D02*
X138222000Y-151155000D01*
X140822000Y-151155000D02*
X140822000Y-148495000D01*
%TO.C,R4*%
X90854724Y-48022500D02*
X90345276Y-48022500D01*
X90854724Y-46977500D02*
X90345276Y-46977500D01*
%TO.C,L1*%
X125278000Y-62870000D02*
X130420000Y-62870000D01*
X117180000Y-56130000D02*
X117180000Y-62870000D01*
X117180000Y-56130000D02*
X122322000Y-56130000D01*
X125278000Y-56130000D02*
X130420000Y-56130000D01*
X117180000Y-62870000D02*
X122322000Y-62870000D01*
X130420000Y-56130000D02*
X130420000Y-62870000D01*
%TO.C,L7*%
X122222000Y-51770000D02*
X117080000Y-51770000D01*
X130320000Y-51770000D02*
X130320000Y-45030000D01*
X122222000Y-45030000D02*
X117080000Y-45030000D01*
X130320000Y-51770000D02*
X125178000Y-51770000D01*
X117080000Y-51770000D02*
X117080000Y-45030000D01*
X130320000Y-45030000D02*
X125178000Y-45030000D01*
%TO.C,L6*%
X135392500Y-91080000D02*
X142132500Y-91080000D01*
X135392500Y-104320000D02*
X142132500Y-104320000D01*
X142132500Y-96222000D02*
X142132500Y-91080000D01*
X135392500Y-96222000D02*
X135392500Y-91080000D01*
X142132500Y-104320000D02*
X142132500Y-99178000D01*
X135392500Y-104320000D02*
X135392500Y-99178000D01*
%TO.C,R8*%
X90792224Y-130622500D02*
X90282776Y-130622500D01*
X90792224Y-129577500D02*
X90282776Y-129577500D01*
%TO.C,C16*%
X113961252Y-45165000D02*
X113438748Y-45165000D01*
X113961252Y-46635000D02*
X113438748Y-46635000D01*
%TO.C,L8*%
X130520000Y-73970000D02*
X130520000Y-67230000D01*
X122422000Y-73970000D02*
X117280000Y-73970000D01*
X117280000Y-73970000D02*
X117280000Y-67230000D01*
X122422000Y-67230000D02*
X117280000Y-67230000D01*
X130520000Y-73970000D02*
X125378000Y-73970000D01*
X130520000Y-67230000D02*
X125378000Y-67230000D01*
%TO.C,R7*%
X91154724Y-109422500D02*
X90645276Y-109422500D01*
X91154724Y-108377500D02*
X90645276Y-108377500D01*
%TO.C,C3*%
X90508767Y-104410000D02*
X90216233Y-104410000D01*
X90508767Y-103390000D02*
X90216233Y-103390000D01*
%TO.C,L5*%
X141870000Y-74822000D02*
X141870000Y-69680000D01*
X141870000Y-82920000D02*
X141870000Y-77778000D01*
X135130000Y-74822000D02*
X135130000Y-69680000D01*
X135130000Y-82920000D02*
X135130000Y-77778000D01*
X135130000Y-69680000D02*
X141870000Y-69680000D01*
X135130000Y-82920000D02*
X141870000Y-82920000D01*
%TO.C,C12*%
X133556000Y-96513752D02*
X133556000Y-95991248D01*
X132086000Y-96513752D02*
X132086000Y-95991248D01*
%TO.C,J4*%
X103350000Y-44860000D02*
X103850000Y-44860000D01*
X105550000Y-40100000D02*
X104440000Y-40100000D01*
X102760000Y-43810000D02*
X101650000Y-43810000D01*
X103600000Y-44360000D02*
X103350000Y-44860000D01*
X105550000Y-43810000D02*
X104440000Y-43810000D01*
X102760000Y-40100000D02*
X101650000Y-40100000D01*
X103850000Y-44860000D02*
X103600000Y-44360000D01*
%TO.C,L12*%
X135430000Y-117222000D02*
X135430000Y-112080000D01*
X135430000Y-125320000D02*
X142170000Y-125320000D01*
X142170000Y-125320000D02*
X142170000Y-120178000D01*
X135430000Y-125320000D02*
X135430000Y-120178000D01*
X135430000Y-112080000D02*
X142170000Y-112080000D01*
X142170000Y-117222000D02*
X142170000Y-112080000D01*
%TO.C,C23*%
X114161252Y-147535000D02*
X113638748Y-147535000D01*
X114161252Y-146065000D02*
X113638748Y-146065000D01*
%TO.C,C18*%
X113661252Y-89065000D02*
X113138748Y-89065000D01*
X113661252Y-90535000D02*
X113138748Y-90535000D01*
%TO.C,C26*%
X132086000Y-117828252D02*
X132086000Y-117305748D01*
X133556000Y-117828252D02*
X133556000Y-117305748D01*
%TO.C,C7*%
X132165000Y-59501248D02*
X132165000Y-60023752D01*
X133635000Y-59501248D02*
X133635000Y-60023752D01*
%TO.C,D3*%
X88892500Y-99020000D02*
X91832500Y-99020000D01*
X91702500Y-99920000D02*
X91832500Y-99920000D01*
X88892500Y-98900000D02*
X91832500Y-98900000D01*
X88892500Y-99140000D02*
X91832500Y-99140000D01*
X89022500Y-99920000D02*
X88892500Y-99920000D01*
X91832500Y-99920000D02*
X91832500Y-94480000D01*
X88892500Y-94480000D02*
X89022500Y-94480000D01*
X91832500Y-94480000D02*
X91702500Y-94480000D01*
X88892500Y-99920000D02*
X88892500Y-94480000D01*
%TO.C,C20*%
X90946267Y-124590000D02*
X90653733Y-124590000D01*
X90946267Y-125610000D02*
X90653733Y-125610000D01*
%TO.C,J1*%
X80070000Y-89850000D02*
X81400000Y-89850000D01*
X80070000Y-92450000D02*
X80070000Y-105210000D01*
X80070000Y-91180000D02*
X80070000Y-89850000D01*
X82730000Y-92450000D02*
X82730000Y-105210000D01*
X80070000Y-92450000D02*
X82730000Y-92450000D01*
X80070000Y-105210000D02*
X82730000Y-105210000D01*
%TO.C,C31*%
X113498752Y-132135000D02*
X112976248Y-132135000D01*
X113498752Y-130665000D02*
X112976248Y-130665000D01*
%TO.C,C9*%
X132527500Y-102538748D02*
X132527500Y-103061252D01*
X133997500Y-102538748D02*
X133997500Y-103061252D01*
%TO.C,C27*%
X131705000Y-138021252D02*
X131705000Y-137498748D01*
X133175000Y-138021252D02*
X133175000Y-137498748D01*
%TO.C,J7*%
X141800000Y-44530000D02*
X140470000Y-44530000D01*
X145670000Y-44530000D02*
X145670000Y-41870000D01*
X143070000Y-41870000D02*
X145670000Y-41870000D01*
X143070000Y-44530000D02*
X143070000Y-41870000D01*
X140470000Y-44530000D02*
X140470000Y-43200000D01*
X143070000Y-44530000D02*
X145670000Y-44530000D01*
%TO.C,C14*%
X137538748Y-68635000D02*
X138061252Y-68635000D01*
X137538748Y-67165000D02*
X138061252Y-67165000D01*
%TO.C,C25*%
X131965000Y-145538748D02*
X131965000Y-146061252D01*
X133435000Y-145538748D02*
X133435000Y-146061252D01*
%TO.C,L15*%
X122580000Y-137822000D02*
X117438000Y-137822000D01*
X130678000Y-137822000D02*
X125536000Y-137822000D01*
X117438000Y-137822000D02*
X117438000Y-131082000D01*
X130678000Y-131082000D02*
X125536000Y-131082000D01*
X130678000Y-137822000D02*
X130678000Y-131082000D01*
X122580000Y-131082000D02*
X117438000Y-131082000D01*
%TO.C,Q2*%
X96000000Y-67240000D02*
X94325000Y-67240000D01*
X96000000Y-70360000D02*
X96650000Y-70360000D01*
X96000000Y-67240000D02*
X96650000Y-67240000D01*
X96000000Y-70360000D02*
X95350000Y-70360000D01*
%TO.C,C10*%
X131578000Y-53312252D02*
X131578000Y-52789748D01*
X133048000Y-53312252D02*
X133048000Y-52789748D01*
%TO.C,J6*%
X85395000Y-147930000D02*
X85395000Y-145270000D01*
X81525000Y-147930000D02*
X80195000Y-147930000D01*
X82795000Y-145270000D02*
X85395000Y-145270000D01*
X80195000Y-147930000D02*
X80195000Y-146600000D01*
X82795000Y-147930000D02*
X85395000Y-147930000D01*
X82795000Y-147930000D02*
X82795000Y-145270000D01*
%TO.C,C28*%
X138738748Y-109565000D02*
X139261252Y-109565000D01*
X138738748Y-111035000D02*
X139261252Y-111035000D01*
%TO.C,R10*%
X90804724Y-131977500D02*
X90295276Y-131977500D01*
X90804724Y-133022500D02*
X90295276Y-133022500D01*
%TO.C,L14*%
X130678000Y-116740000D02*
X130678000Y-110000000D01*
X122580000Y-110000000D02*
X117438000Y-110000000D01*
X130678000Y-116740000D02*
X125536000Y-116740000D01*
X122580000Y-116740000D02*
X117438000Y-116740000D01*
X117438000Y-116740000D02*
X117438000Y-110000000D01*
X130678000Y-110000000D02*
X125536000Y-110000000D01*
%TO.C,C15*%
X138601248Y-90035000D02*
X139123752Y-90035000D01*
X138601248Y-88565000D02*
X139123752Y-88565000D01*
%TO.C,L10*%
X117480000Y-120230000D02*
X122622000Y-120230000D01*
X125578000Y-120230000D02*
X130720000Y-120230000D01*
X125578000Y-126970000D02*
X130720000Y-126970000D01*
X130720000Y-120230000D02*
X130720000Y-126970000D01*
X117480000Y-126970000D02*
X122622000Y-126970000D01*
X117480000Y-120230000D02*
X117480000Y-126970000D01*
%TO.C,C2*%
X90408767Y-84410000D02*
X90116233Y-84410000D01*
X90408767Y-83390000D02*
X90116233Y-83390000D01*
%TO.C,D2*%
X91640000Y-79720000D02*
X91770000Y-79720000D01*
X88830000Y-74280000D02*
X88960000Y-74280000D01*
X88830000Y-78940000D02*
X91770000Y-78940000D01*
X91770000Y-79720000D02*
X91770000Y-74280000D01*
X88830000Y-78820000D02*
X91770000Y-78820000D01*
X88830000Y-79720000D02*
X88830000Y-74280000D01*
X91770000Y-74280000D02*
X91640000Y-74280000D01*
X88960000Y-79720000D02*
X88830000Y-79720000D01*
X88830000Y-78700000D02*
X91770000Y-78700000D01*
%TO.C,C24*%
X132565000Y-124276248D02*
X132565000Y-124798752D01*
X134035000Y-124276248D02*
X134035000Y-124798752D01*
%TO.C,C30*%
X113661252Y-109765000D02*
X113138748Y-109765000D01*
X113661252Y-111235000D02*
X113138748Y-111235000D01*
%TD*%
M02*
