M48
; DRILL file {KiCad (6.0.2)} date Tue Oct 25 13:29:30 2022
; FORMAT={-:-/ absolute / inch / decimal}
; #@! TF.CreationDate,2022-10-25T13:29:30-07:00
; #@! TF.GenerationSoftware,Kicad,Pcbnew,(6.0.2)
; #@! TF.FileFunction,Plated,1,2,PTH
FMAT,2
INCH
; #@! TA.AperFunction,Plated,PTH,ViaDrill
T1C0.0157
; #@! TA.AperFunction,Plated,PTH,ComponentDrill
T2C0.0276
; #@! TA.AperFunction,Plated,PTH,ComponentDrill
T3C0.0394
; #@! TA.AperFunction,Plated,PTH,ComponentDrill
T4C0.0433
; #@! TA.AperFunction,Plated,PTH,ComponentDrill
T5C0.0512
%
G90
G05
T1
X3.2492Y-3.3836
X3.2592Y-5.1036
X3.2642Y-4.2636
X3.3392Y-2.1636
X3.3592Y-3.0936
X3.4742Y-2.8236
X3.4792Y-1.9236
X3.4792Y-3.6136
X3.4892Y-4.4336
X3.4942Y-5.2786
X3.4942Y-5.8636
X3.5192Y-3.3636
X3.5242Y-2.4786
X3.5242Y-4.1586
X3.5392Y-4.9886
X3.6792Y-5.2586
X3.6842Y-1.9236
X3.6942Y-2.8036
X3.6942Y-4.4286
X3.7242Y-3.5986
X3.8692Y-5.8936
X3.9542Y-1.7936
X4.0492Y-4.2186
X4.0642Y-2.5686
X4.0642Y-5.0486
X4.0742Y-3.4286
X4.0992Y-5.8036
X4.1942Y-1.7936
X4.3242Y-5.8186
X4.3792Y-5.7136
X4.3992Y-4.8836
X4.4142Y-4.0786
X4.4142Y-5.0936
X4.4242Y-2.5436
X4.4242Y-2.6386
X4.4242Y-3.3936
X4.4242Y-3.4536
X4.4292Y-4.2686
X4.4392Y-1.7186
X4.8742Y-5.9436
X5.3092Y-2.4336
X5.3242Y-3.3036
X5.3292Y-4.1486
X5.3492Y-4.9886
X5.3592Y-5.8586
X5.4692Y-2.5886
X5.4942Y-1.8086
X5.5042Y-5.0786
X5.5092Y-3.4336
X5.5092Y-4.2536
X5.6242Y-2.4986
X5.6392Y-3.3686
X5.6742Y-5.0336
X5.6792Y-4.2286
T2
X3.7773Y-2.8796
X3.7773Y-3.1796
X3.782Y-3.6772
X3.782Y-3.9772
X3.7827Y-5.3284
X3.7827Y-5.6284
X3.7851Y-1.9938
X3.7851Y-2.2938
X3.7851Y-4.5017
X3.7851Y-4.8017
X4.0773Y-2.8796
X4.0773Y-3.1796
X4.082Y-3.6772
X4.082Y-3.9772
X4.0827Y-5.3284
X4.0827Y-5.6284
X4.0851Y-1.9938
X4.0851Y-2.2938
X4.0851Y-4.5017
X4.0851Y-4.8017
X4.2773Y-2.8796
X4.2773Y-3.1796
X4.282Y-3.6772
X4.282Y-3.9772
X4.2827Y-5.3284
X4.2827Y-5.6284
X4.2851Y-1.9938
X4.2851Y-2.2938
X4.2851Y-4.5017
X4.2851Y-4.8017
X4.4773Y-2.8796
X4.4773Y-3.1796
X4.482Y-3.6772
X4.482Y-3.9772
X4.4827Y-5.3284
X4.4827Y-5.6284
X4.4851Y-1.9938
X4.4851Y-2.2938
X4.4851Y-4.5017
X4.4851Y-4.8017
T3
X3.2047Y-3.5898
X3.2047Y-3.6898
X3.2047Y-3.7898
X3.2047Y-3.8898
X3.2047Y-3.9898
X3.2047Y-4.0898
X3.2096Y-5.7717
X3.2323Y-5.3307
X3.2323Y-5.4307
X3.2559Y-1.7333
X3.2559Y-1.8333
X3.3096Y-5.7717
X5.4942Y-5.8986
X5.5827Y-1.7008
X5.5942Y-5.8986
X5.6827Y-1.7008
T4
X3.5551Y-2.8815
X3.5551Y-3.1815
X3.5576Y-3.6768
X3.5576Y-3.9768
X3.5591Y-1.9996
X3.5591Y-2.2996
X3.5787Y-4.5075
X3.5787Y-4.8075
X3.5842Y-5.3461
X3.5842Y-5.6461
T5
X4.8701Y-1.7953
X4.8701Y-2.0157
X4.874Y-2.2323
X4.874Y-2.4528
X4.878Y-2.6693
X4.878Y-2.8898
X4.8794Y-5.5827
X4.8794Y-5.8031
X4.8819Y-3.0945
X4.8819Y-3.315
X4.8842Y-3.5331
X4.8842Y-3.7536
X4.8842Y-4.3531
X4.8842Y-4.5736
X4.8842Y-5.1831
X4.8842Y-5.4036
X4.8844Y-3.9213
X4.8844Y-4.1417
X4.8858Y-4.7559
X4.8858Y-4.9764
X5.3346Y-2.126
X5.3386Y-5.4961
X5.3425Y-3.0039
X5.3529Y-3.8465
X5.3543Y-4.6732
X5.5551Y-2.126
X5.5591Y-5.4961
X5.563Y-3.0039
X5.5733Y-3.8465
X5.5748Y-4.6732
T0
M30
