%FSLAX45Y45*%
G04 Gerber Fmt 4.5, Leading zero omitted, Abs format (unit mm)*
G04 Created by KiCad (PCBNEW (6.0.2)) date 2022-11-12 12:22:01*
%MOMM*%
%LPD*%
G01*
G04 APERTURE LIST*
%TA.AperFunction,Profile*%
%ADD10C,0.100000*%
%TD*%
%ADD11C,0.200000*%
%ADD12C,0.040000*%
%ADD13C,0.070000*%
%ADD14C,0.100000*%
%ADD15C,0.110000*%
%ADD16C,0.130000*%
G04 APERTURE END LIST*
D10*
X7910000Y-4000000D02*
X14730000Y-4000000D01*
X14730000Y-4000000D02*
X14730000Y-15300000D01*
X14730000Y-15300000D02*
X7910000Y-15300000D01*
X7910000Y-15300000D02*
X7910000Y-4000000D01*
D11*
D12*
X8232900Y-8574400D02*
X8272900Y-8614400D01*
X8272900Y-8574400D02*
X8232900Y-8614400D01*
X8258300Y-12943200D02*
X8298300Y-12983200D01*
X8298300Y-12943200D02*
X8258300Y-12983200D01*
X8271000Y-10809600D02*
X8311000Y-10849600D01*
X8311000Y-10809600D02*
X8271000Y-10849600D01*
X8461500Y-5475600D02*
X8501500Y-5515600D01*
X8501500Y-5475600D02*
X8461500Y-5515600D01*
X8512300Y-7837800D02*
X8552300Y-7877800D01*
X8552300Y-7837800D02*
X8512300Y-7877800D01*
X8804400Y-7152000D02*
X8844400Y-7192000D01*
X8844400Y-7152000D02*
X8804400Y-7192000D01*
X8817100Y-4866000D02*
X8857100Y-4906000D01*
X8857100Y-4866000D02*
X8817100Y-4906000D01*
X8817100Y-9158600D02*
X8857100Y-9198600D01*
X8857100Y-9158600D02*
X8817100Y-9198600D01*
X8842500Y-11241400D02*
X8882500Y-11281400D01*
X8882500Y-11241400D02*
X8842500Y-11281400D01*
X8855200Y-13387700D02*
X8895200Y-13427700D01*
X8895200Y-13387700D02*
X8855200Y-13427700D01*
X8855200Y-14873600D02*
X8895200Y-14913600D01*
X8895200Y-14873600D02*
X8855200Y-14913600D01*
X8918700Y-8523600D02*
X8958700Y-8563600D01*
X8958700Y-8523600D02*
X8918700Y-8563600D01*
X8931400Y-6275700D02*
X8971400Y-6315700D01*
X8971400Y-6275700D02*
X8931400Y-6315700D01*
X8931400Y-10542900D02*
X8971400Y-10582900D01*
X8971400Y-10542900D02*
X8931400Y-10582900D01*
X8969500Y-12651100D02*
X9009500Y-12691100D01*
X9009500Y-12651100D02*
X8969500Y-12691100D01*
X9325100Y-13336900D02*
X9365100Y-13376900D01*
X9365100Y-13336900D02*
X9325100Y-13376900D01*
X9337800Y-4866000D02*
X9377800Y-4906000D01*
X9377800Y-4866000D02*
X9337800Y-4906000D01*
X9363200Y-7101200D02*
X9403200Y-7141200D01*
X9403200Y-7101200D02*
X9363200Y-7141200D01*
X9363200Y-11228700D02*
X9403200Y-11268700D01*
X9403200Y-11228700D02*
X9363200Y-11268700D01*
X9439400Y-9120500D02*
X9479400Y-9160500D01*
X9479400Y-9120500D02*
X9439400Y-9160500D01*
X9807700Y-14949800D02*
X9847700Y-14989800D01*
X9847700Y-14949800D02*
X9807700Y-14989800D01*
X9820000Y-6580000D02*
X9860000Y-6620000D01*
X9860000Y-6580000D02*
X9820000Y-6620000D01*
X9820000Y-10460000D02*
X9860000Y-10500000D01*
X9860000Y-10460000D02*
X9820000Y-10500000D01*
X9820000Y-10700000D02*
X9860000Y-10740000D01*
X9860000Y-10700000D02*
X9820000Y-10740000D01*
X9830000Y-6310000D02*
X9870000Y-6350000D01*
X9870000Y-6310000D02*
X9830000Y-6350000D01*
X9830000Y-12550000D02*
X9870000Y-12590000D01*
X9870000Y-12550000D02*
X9830000Y-12590000D01*
X9830000Y-12810000D02*
X9870000Y-12850000D01*
X9870000Y-12810000D02*
X9830000Y-12850000D01*
X9840000Y-8420000D02*
X9880000Y-8460000D01*
X9880000Y-8420000D02*
X9840000Y-8460000D01*
X9860000Y-8700000D02*
X9900000Y-8740000D01*
X9900000Y-8700000D02*
X9860000Y-8740000D01*
X10023600Y-4535800D02*
X10063600Y-4575800D01*
X10063600Y-4535800D02*
X10023600Y-4575800D01*
X10300000Y-6720000D02*
X10340000Y-6760000D01*
X10340000Y-6720000D02*
X10300000Y-6760000D01*
X10300000Y-12530000D02*
X10340000Y-12570000D01*
X10340000Y-12530000D02*
X10300000Y-12570000D01*
X10303000Y-6504300D02*
X10343000Y-6544300D01*
X10343000Y-6504300D02*
X10303000Y-6544300D01*
X10303000Y-12803500D02*
X10343000Y-12843500D01*
X10343000Y-12803500D02*
X10303000Y-12843500D01*
X10320000Y-8460000D02*
X10360000Y-8500000D01*
X10360000Y-8460000D02*
X10320000Y-8500000D01*
X10320000Y-10450000D02*
X10360000Y-10490000D01*
X10360000Y-10450000D02*
X10320000Y-10490000D01*
X10320000Y-10740000D02*
X10360000Y-10780000D01*
X10360000Y-10740000D02*
X10320000Y-10780000D01*
X10328400Y-8688700D02*
X10368400Y-8728700D01*
X10368400Y-8688700D02*
X10328400Y-8728700D01*
X10391900Y-14721200D02*
X10431900Y-14761200D01*
X10431900Y-14721200D02*
X10391900Y-14761200D01*
X10633200Y-4535800D02*
X10673200Y-4575800D01*
X10673200Y-4535800D02*
X10633200Y-4575800D01*
X10963400Y-14759300D02*
X11003400Y-14799300D01*
X11003400Y-14759300D02*
X10963400Y-14799300D01*
X11192000Y-12917800D02*
X11232000Y-12957800D01*
X11232000Y-12917800D02*
X11192000Y-12957800D01*
X11217400Y-6440800D02*
X11257400Y-6480800D01*
X11257400Y-6440800D02*
X11217400Y-6480800D01*
X11217400Y-6682100D02*
X11257400Y-6722100D01*
X11257400Y-6682100D02*
X11217400Y-6722100D01*
X11217400Y-8599800D02*
X11257400Y-8639800D01*
X11257400Y-8599800D02*
X11217400Y-8639800D01*
X11217400Y-8752200D02*
X11257400Y-8792200D01*
X11257400Y-8752200D02*
X11217400Y-8792200D01*
X11230100Y-10822300D02*
X11270100Y-10862300D01*
X11270100Y-10822300D02*
X11230100Y-10862300D01*
X11255500Y-4345300D02*
X11295500Y-4385300D01*
X11295500Y-4345300D02*
X11255500Y-4385300D01*
X11350000Y-14870000D02*
X11390000Y-14910000D01*
X11390000Y-14870000D02*
X11350000Y-14910000D01*
X11410000Y-10720000D02*
X11450000Y-10760000D01*
X11450000Y-10720000D02*
X11410000Y-10760000D01*
X11450000Y-12790000D02*
X11490000Y-12830000D01*
X11490000Y-12790000D02*
X11450000Y-12830000D01*
X12360400Y-15076800D02*
X12400400Y-15116800D01*
X12400400Y-15076800D02*
X12360400Y-15116800D01*
X13465300Y-6161400D02*
X13505300Y-6201400D01*
X13505300Y-6161400D02*
X13465300Y-6201400D01*
X13503400Y-8371200D02*
X13543400Y-8411200D01*
X13543400Y-8371200D02*
X13503400Y-8411200D01*
X13516100Y-10517500D02*
X13556100Y-10557500D01*
X13556100Y-10517500D02*
X13516100Y-10557500D01*
X13566900Y-12651100D02*
X13606900Y-12691100D01*
X13606900Y-12651100D02*
X13566900Y-12691100D01*
X13592300Y-14860900D02*
X13632300Y-14900900D01*
X13632300Y-14860900D02*
X13592300Y-14900900D01*
X13871700Y-6555100D02*
X13911700Y-6595100D01*
X13911700Y-6555100D02*
X13871700Y-6595100D01*
X13935200Y-4573900D02*
X13975200Y-4613900D01*
X13975200Y-4573900D02*
X13935200Y-4613900D01*
X13960600Y-12879700D02*
X14000600Y-12919700D01*
X14000600Y-12879700D02*
X13960600Y-12919700D01*
X13973300Y-8701400D02*
X14013300Y-8741400D01*
X14013300Y-8701400D02*
X13973300Y-8741400D01*
X13973300Y-10784200D02*
X14013300Y-10824200D01*
X14013300Y-10784200D02*
X13973300Y-10824200D01*
X14265400Y-6326500D02*
X14305400Y-6366500D01*
X14305400Y-6326500D02*
X14265400Y-6366500D01*
X14303500Y-8536300D02*
X14343500Y-8576300D01*
X14343500Y-8536300D02*
X14303500Y-8576300D01*
X14392400Y-12765400D02*
X14432400Y-12805400D01*
X14432400Y-12765400D02*
X14392400Y-12805400D01*
X14405100Y-10720700D02*
X14445100Y-10760700D01*
X14445100Y-10720700D02*
X14405100Y-10760700D01*
D13*
X9629250Y-7314250D02*
G75*
G03*
X9629250Y-7314250I-35000J0D01*
G01*
X9629250Y-8076250D02*
G75*
G03*
X9629250Y-8076250I-35000J0D01*
G01*
X9641250Y-9340000D02*
G75*
G03*
X9641250Y-9340000I-35000J0D01*
G01*
X9641250Y-10102000D02*
G75*
G03*
X9641250Y-10102000I-35000J0D01*
G01*
X9643000Y-13534250D02*
G75*
G03*
X9643000Y-13534250I-35000J0D01*
G01*
X9643000Y-14296250D02*
G75*
G03*
X9643000Y-14296250I-35000J0D01*
G01*
X9649250Y-5064250D02*
G75*
G03*
X9649250Y-5064250I-35000J0D01*
G01*
X9649250Y-5826250D02*
G75*
G03*
X9649250Y-5826250I-35000J0D01*
G01*
X9649250Y-11434250D02*
G75*
G03*
X9649250Y-11434250I-35000J0D01*
G01*
X9649250Y-12196250D02*
G75*
G03*
X9649250Y-12196250I-35000J0D01*
G01*
X10391250Y-7314250D02*
G75*
G03*
X10391250Y-7314250I-35000J0D01*
G01*
X10391250Y-8076250D02*
G75*
G03*
X10391250Y-8076250I-35000J0D01*
G01*
X10403250Y-9340000D02*
G75*
G03*
X10403250Y-9340000I-35000J0D01*
G01*
X10403250Y-10102000D02*
G75*
G03*
X10403250Y-10102000I-35000J0D01*
G01*
X10405000Y-13534250D02*
G75*
G03*
X10405000Y-13534250I-35000J0D01*
G01*
X10405000Y-14296250D02*
G75*
G03*
X10405000Y-14296250I-35000J0D01*
G01*
X10411250Y-5064250D02*
G75*
G03*
X10411250Y-5064250I-35000J0D01*
G01*
X10411250Y-5826250D02*
G75*
G03*
X10411250Y-5826250I-35000J0D01*
G01*
X10411250Y-11434250D02*
G75*
G03*
X10411250Y-11434250I-35000J0D01*
G01*
X10411250Y-12196250D02*
G75*
G03*
X10411250Y-12196250I-35000J0D01*
G01*
X10899250Y-7314250D02*
G75*
G03*
X10899250Y-7314250I-35000J0D01*
G01*
X10899250Y-8076250D02*
G75*
G03*
X10899250Y-8076250I-35000J0D01*
G01*
X10911250Y-9340000D02*
G75*
G03*
X10911250Y-9340000I-35000J0D01*
G01*
X10911250Y-10102000D02*
G75*
G03*
X10911250Y-10102000I-35000J0D01*
G01*
X10913000Y-13534250D02*
G75*
G03*
X10913000Y-13534250I-35000J0D01*
G01*
X10913000Y-14296250D02*
G75*
G03*
X10913000Y-14296250I-35000J0D01*
G01*
X10919250Y-5064250D02*
G75*
G03*
X10919250Y-5064250I-35000J0D01*
G01*
X10919250Y-5826250D02*
G75*
G03*
X10919250Y-5826250I-35000J0D01*
G01*
X10919250Y-11434250D02*
G75*
G03*
X10919250Y-11434250I-35000J0D01*
G01*
X10919250Y-12196250D02*
G75*
G03*
X10919250Y-12196250I-35000J0D01*
G01*
X11407250Y-7314250D02*
G75*
G03*
X11407250Y-7314250I-35000J0D01*
G01*
X11407250Y-8076250D02*
G75*
G03*
X11407250Y-8076250I-35000J0D01*
G01*
X11419250Y-9340000D02*
G75*
G03*
X11419250Y-9340000I-35000J0D01*
G01*
X11419250Y-10102000D02*
G75*
G03*
X11419250Y-10102000I-35000J0D01*
G01*
X11421000Y-13534250D02*
G75*
G03*
X11421000Y-13534250I-35000J0D01*
G01*
X11421000Y-14296250D02*
G75*
G03*
X11421000Y-14296250I-35000J0D01*
G01*
X11427250Y-5064250D02*
G75*
G03*
X11427250Y-5064250I-35000J0D01*
G01*
X11427250Y-5826250D02*
G75*
G03*
X11427250Y-5826250I-35000J0D01*
G01*
X11427250Y-11434250D02*
G75*
G03*
X11427250Y-11434250I-35000J0D01*
G01*
X11427250Y-12196250D02*
G75*
G03*
X11427250Y-12196250I-35000J0D01*
G01*
D14*
X8140000Y-9068000D02*
X8140000Y-9168000D01*
X8090000Y-9118000D02*
X8190000Y-9118000D01*
X8140000Y-9322000D02*
X8140000Y-9422000D01*
X8090000Y-9372000D02*
X8190000Y-9372000D01*
X8140000Y-9576000D02*
X8140000Y-9676000D01*
X8090000Y-9626000D02*
X8190000Y-9626000D01*
X8140000Y-9830000D02*
X8140000Y-9930000D01*
X8090000Y-9880000D02*
X8190000Y-9880000D01*
X8140000Y-10084000D02*
X8140000Y-10184000D01*
X8090000Y-10134000D02*
X8190000Y-10134000D01*
X8140000Y-10338000D02*
X8140000Y-10438000D01*
X8090000Y-10388000D02*
X8190000Y-10388000D01*
X8152500Y-14610000D02*
X8152500Y-14710000D01*
X8102500Y-14660000D02*
X8202500Y-14660000D01*
X8210000Y-13490000D02*
X8210000Y-13590000D01*
X8160000Y-13540000D02*
X8260000Y-13540000D01*
X8210000Y-13744000D02*
X8210000Y-13844000D01*
X8160000Y-13794000D02*
X8260000Y-13794000D01*
X8270000Y-4352500D02*
X8270000Y-4452500D01*
X8220000Y-4402500D02*
X8320000Y-4402500D01*
X8270000Y-4606500D02*
X8270000Y-4706500D01*
X8220000Y-4656500D02*
X8320000Y-4656500D01*
X8406500Y-14610000D02*
X8406500Y-14710000D01*
X8356500Y-14660000D02*
X8456500Y-14660000D01*
X13955200Y-14932500D02*
X13955200Y-15032500D01*
X13905200Y-14982500D02*
X14005200Y-14982500D01*
X14180000Y-4270000D02*
X14180000Y-4370000D01*
X14130000Y-4320000D02*
X14230000Y-4320000D01*
X14209200Y-14932500D02*
X14209200Y-15032500D01*
X14159200Y-14982500D02*
X14259200Y-14982500D01*
X14434000Y-4270000D02*
X14434000Y-4370000D01*
X14384000Y-4320000D02*
X14484000Y-4320000D01*
D15*
X9068891Y-7357891D02*
X9068891Y-7280109D01*
X8991109Y-7280109D01*
X8991109Y-7357891D01*
X9068891Y-7357891D01*
X9068891Y-8119891D02*
X9068891Y-8042109D01*
X8991109Y-8042109D01*
X8991109Y-8119891D01*
X9068891Y-8119891D01*
X9075141Y-9377891D02*
X9075141Y-9300109D01*
X8997359Y-9300109D01*
X8997359Y-9377891D01*
X9075141Y-9377891D01*
X9075141Y-10139891D02*
X9075141Y-10062109D01*
X8997359Y-10062109D01*
X8997359Y-10139891D01*
X9075141Y-10139891D01*
X9078891Y-5117891D02*
X9078891Y-5040109D01*
X9001109Y-5040109D01*
X9001109Y-5117891D01*
X9078891Y-5117891D01*
X9078891Y-5879891D02*
X9078891Y-5802109D01*
X9001109Y-5802109D01*
X9001109Y-5879891D01*
X9078891Y-5879891D01*
X9128891Y-11487891D02*
X9128891Y-11410109D01*
X9051109Y-11410109D01*
X9051109Y-11487891D01*
X9128891Y-11487891D01*
X9128891Y-12249891D02*
X9128891Y-12172109D01*
X9051109Y-12172109D01*
X9051109Y-12249891D01*
X9128891Y-12249891D01*
X9142641Y-13617891D02*
X9142641Y-13540109D01*
X9064859Y-13540109D01*
X9064859Y-13617891D01*
X9142641Y-13617891D01*
X9142641Y-14379891D02*
X9142641Y-14302109D01*
X9064859Y-14302109D01*
X9064859Y-14379891D01*
X9142641Y-14379891D01*
D16*
X12370000Y-4625000D02*
X12435000Y-4560000D01*
X12370000Y-4495000D01*
X12305000Y-4560000D01*
X12370000Y-4625000D01*
X12370000Y-5185000D02*
X12435000Y-5120000D01*
X12370000Y-5055000D01*
X12305000Y-5120000D01*
X12370000Y-5185000D01*
X12380000Y-5735000D02*
X12445000Y-5670000D01*
X12380000Y-5605000D01*
X12315000Y-5670000D01*
X12380000Y-5735000D01*
X12380000Y-6295000D02*
X12445000Y-6230000D01*
X12380000Y-6165000D01*
X12315000Y-6230000D01*
X12380000Y-6295000D01*
X12390000Y-6845000D02*
X12455000Y-6780000D01*
X12390000Y-6715000D01*
X12325000Y-6780000D01*
X12390000Y-6845000D01*
X12390000Y-7405000D02*
X12455000Y-7340000D01*
X12390000Y-7275000D01*
X12325000Y-7340000D01*
X12390000Y-7405000D01*
X12393750Y-14245000D02*
X12458750Y-14180000D01*
X12393750Y-14115000D01*
X12328750Y-14180000D01*
X12393750Y-14245000D01*
X12393750Y-14805000D02*
X12458750Y-14740000D01*
X12393750Y-14675000D01*
X12328750Y-14740000D01*
X12393750Y-14805000D01*
X12400000Y-7925000D02*
X12465000Y-7860000D01*
X12400000Y-7795000D01*
X12335000Y-7860000D01*
X12400000Y-7925000D01*
X12400000Y-8485000D02*
X12465000Y-8420000D01*
X12400000Y-8355000D01*
X12335000Y-8420000D01*
X12400000Y-8485000D01*
X12405800Y-9039200D02*
X12470800Y-8974200D01*
X12405800Y-8909200D01*
X12340800Y-8974200D01*
X12405800Y-9039200D01*
X12405800Y-9599200D02*
X12470800Y-9534200D01*
X12405800Y-9469200D01*
X12340800Y-9534200D01*
X12405800Y-9599200D01*
X12405800Y-11122000D02*
X12470800Y-11057000D01*
X12405800Y-10992000D01*
X12340800Y-11057000D01*
X12405800Y-11122000D01*
X12405800Y-11682000D02*
X12470800Y-11617000D01*
X12405800Y-11552000D01*
X12340800Y-11617000D01*
X12405800Y-11682000D01*
X12405800Y-13230200D02*
X12470800Y-13165200D01*
X12405800Y-13100200D01*
X12340800Y-13165200D01*
X12405800Y-13230200D01*
X12405800Y-13790200D02*
X12470800Y-13725200D01*
X12405800Y-13660200D01*
X12340800Y-13725200D01*
X12405800Y-13790200D01*
X12406250Y-10025000D02*
X12471250Y-9960000D01*
X12406250Y-9895000D01*
X12341250Y-9960000D01*
X12406250Y-10025000D01*
X12406250Y-10585000D02*
X12471250Y-10520000D01*
X12406250Y-10455000D01*
X12341250Y-10520000D01*
X12406250Y-10585000D01*
X12410000Y-12145000D02*
X12475000Y-12080000D01*
X12410000Y-12015000D01*
X12345000Y-12080000D01*
X12410000Y-12145000D01*
X12410000Y-12705000D02*
X12475000Y-12640000D01*
X12410000Y-12575000D01*
X12345000Y-12640000D01*
X12410000Y-12705000D01*
X13550000Y-5465000D02*
X13615000Y-5400000D01*
X13550000Y-5335000D01*
X13485000Y-5400000D01*
X13550000Y-5465000D01*
X13560000Y-14025000D02*
X13625000Y-13960000D01*
X13560000Y-13895000D01*
X13495000Y-13960000D01*
X13560000Y-14025000D01*
X13570000Y-7695000D02*
X13635000Y-7630000D01*
X13570000Y-7565000D01*
X13505000Y-7630000D01*
X13570000Y-7695000D01*
X13596250Y-9835000D02*
X13661250Y-9770000D01*
X13596250Y-9705000D01*
X13531250Y-9770000D01*
X13596250Y-9835000D01*
X13600000Y-11935000D02*
X13665000Y-11870000D01*
X13600000Y-11805000D01*
X13535000Y-11870000D01*
X13600000Y-11935000D01*
X14110000Y-5465000D02*
X14175000Y-5400000D01*
X14110000Y-5335000D01*
X14045000Y-5400000D01*
X14110000Y-5465000D01*
X14120000Y-14025000D02*
X14185000Y-13960000D01*
X14120000Y-13895000D01*
X14055000Y-13960000D01*
X14120000Y-14025000D01*
X14130000Y-7695000D02*
X14195000Y-7630000D01*
X14130000Y-7565000D01*
X14065000Y-7630000D01*
X14130000Y-7695000D01*
X14156250Y-9835000D02*
X14221250Y-9770000D01*
X14156250Y-9705000D01*
X14091250Y-9770000D01*
X14156250Y-9835000D01*
X14160000Y-11935000D02*
X14225000Y-11870000D01*
X14160000Y-11805000D01*
X14095000Y-11870000D01*
X14160000Y-11935000D01*
D11*
X8162619Y-15615476D02*
X8162619Y-15415476D01*
X8210238Y-15415476D01*
X8238809Y-15425000D01*
X8257857Y-15444048D01*
X8267381Y-15463095D01*
X8276905Y-15501190D01*
X8276905Y-15529762D01*
X8267381Y-15567857D01*
X8257857Y-15586905D01*
X8238809Y-15605952D01*
X8210238Y-15615476D01*
X8162619Y-15615476D01*
X8362619Y-15615476D02*
X8362619Y-15482143D01*
X8362619Y-15520238D02*
X8372143Y-15501190D01*
X8381667Y-15491667D01*
X8400714Y-15482143D01*
X8419762Y-15482143D01*
X8486429Y-15615476D02*
X8486429Y-15482143D01*
X8486429Y-15415476D02*
X8476905Y-15425000D01*
X8486429Y-15434524D01*
X8495952Y-15425000D01*
X8486429Y-15415476D01*
X8486429Y-15434524D01*
X8610238Y-15615476D02*
X8591190Y-15605952D01*
X8581667Y-15586905D01*
X8581667Y-15415476D01*
X8715000Y-15615476D02*
X8695952Y-15605952D01*
X8686429Y-15586905D01*
X8686429Y-15415476D01*
X8943571Y-15615476D02*
X8943571Y-15415476D01*
X9010238Y-15558333D01*
X9076905Y-15415476D01*
X9076905Y-15615476D01*
X9257857Y-15615476D02*
X9257857Y-15510714D01*
X9248333Y-15491667D01*
X9229286Y-15482143D01*
X9191190Y-15482143D01*
X9172143Y-15491667D01*
X9257857Y-15605952D02*
X9238810Y-15615476D01*
X9191190Y-15615476D01*
X9172143Y-15605952D01*
X9162619Y-15586905D01*
X9162619Y-15567857D01*
X9172143Y-15548809D01*
X9191190Y-15539286D01*
X9238810Y-15539286D01*
X9257857Y-15529762D01*
X9353095Y-15482143D02*
X9353095Y-15682143D01*
X9353095Y-15491667D02*
X9372143Y-15482143D01*
X9410238Y-15482143D01*
X9429286Y-15491667D01*
X9438810Y-15501190D01*
X9448333Y-15520238D01*
X9448333Y-15577381D01*
X9438810Y-15596428D01*
X9429286Y-15605952D01*
X9410238Y-15615476D01*
X9372143Y-15615476D01*
X9353095Y-15605952D01*
X9534048Y-15596428D02*
X9543571Y-15605952D01*
X9534048Y-15615476D01*
X9524524Y-15605952D01*
X9534048Y-15596428D01*
X9534048Y-15615476D01*
X9534048Y-15491667D02*
X9543571Y-15501190D01*
X9534048Y-15510714D01*
X9524524Y-15501190D01*
X9534048Y-15491667D01*
X9534048Y-15510714D01*
D12*
X7865000Y-15925000D02*
X7905000Y-15965000D01*
X7905000Y-15925000D02*
X7865000Y-15965000D01*
D11*
X8200714Y-15835476D02*
X8219762Y-15835476D01*
X8238809Y-15845000D01*
X8248333Y-15854524D01*
X8257857Y-15873571D01*
X8267381Y-15911667D01*
X8267381Y-15959286D01*
X8257857Y-15997381D01*
X8248333Y-16016428D01*
X8238809Y-16025952D01*
X8219762Y-16035476D01*
X8200714Y-16035476D01*
X8181667Y-16025952D01*
X8172143Y-16016428D01*
X8162619Y-15997381D01*
X8153095Y-15959286D01*
X8153095Y-15911667D01*
X8162619Y-15873571D01*
X8172143Y-15854524D01*
X8181667Y-15845000D01*
X8200714Y-15835476D01*
X8353095Y-16016428D02*
X8362619Y-16025952D01*
X8353095Y-16035476D01*
X8343571Y-16025952D01*
X8353095Y-16016428D01*
X8353095Y-16035476D01*
X8534048Y-15902143D02*
X8534048Y-16035476D01*
X8486429Y-15825952D02*
X8438810Y-15968809D01*
X8562619Y-15968809D01*
X8676905Y-15835476D02*
X8695952Y-15835476D01*
X8715000Y-15845000D01*
X8724524Y-15854524D01*
X8734048Y-15873571D01*
X8743571Y-15911667D01*
X8743571Y-15959286D01*
X8734048Y-15997381D01*
X8724524Y-16016428D01*
X8715000Y-16025952D01*
X8695952Y-16035476D01*
X8676905Y-16035476D01*
X8657857Y-16025952D01*
X8648333Y-16016428D01*
X8638810Y-15997381D01*
X8629286Y-15959286D01*
X8629286Y-15911667D01*
X8638810Y-15873571D01*
X8648333Y-15854524D01*
X8657857Y-15845000D01*
X8676905Y-15835476D01*
X8867381Y-15835476D02*
X8886429Y-15835476D01*
X8905476Y-15845000D01*
X8915000Y-15854524D01*
X8924524Y-15873571D01*
X8934048Y-15911667D01*
X8934048Y-15959286D01*
X8924524Y-15997381D01*
X8915000Y-16016428D01*
X8905476Y-16025952D01*
X8886429Y-16035476D01*
X8867381Y-16035476D01*
X8848333Y-16025952D01*
X8838810Y-16016428D01*
X8829286Y-15997381D01*
X8819762Y-15959286D01*
X8819762Y-15911667D01*
X8829286Y-15873571D01*
X8838810Y-15854524D01*
X8848333Y-15845000D01*
X8867381Y-15835476D01*
X9019762Y-16035476D02*
X9019762Y-15902143D01*
X9019762Y-15921190D02*
X9029286Y-15911667D01*
X9048333Y-15902143D01*
X9076905Y-15902143D01*
X9095952Y-15911667D01*
X9105476Y-15930714D01*
X9105476Y-16035476D01*
X9105476Y-15930714D02*
X9115000Y-15911667D01*
X9134048Y-15902143D01*
X9162619Y-15902143D01*
X9181667Y-15911667D01*
X9191190Y-15930714D01*
X9191190Y-16035476D01*
X9286429Y-16035476D02*
X9286429Y-15902143D01*
X9286429Y-15921190D02*
X9295952Y-15911667D01*
X9315000Y-15902143D01*
X9343571Y-15902143D01*
X9362619Y-15911667D01*
X9372143Y-15930714D01*
X9372143Y-16035476D01*
X9372143Y-15930714D02*
X9381667Y-15911667D01*
X9400714Y-15902143D01*
X9429286Y-15902143D01*
X9448333Y-15911667D01*
X9457857Y-15930714D01*
X9457857Y-16035476D01*
X9848333Y-15825952D02*
X9676905Y-16083095D01*
X10105476Y-15835476D02*
X10124524Y-15835476D01*
X10143571Y-15845000D01*
X10153095Y-15854524D01*
X10162619Y-15873571D01*
X10172143Y-15911667D01*
X10172143Y-15959286D01*
X10162619Y-15997381D01*
X10153095Y-16016428D01*
X10143571Y-16025952D01*
X10124524Y-16035476D01*
X10105476Y-16035476D01*
X10086429Y-16025952D01*
X10076905Y-16016428D01*
X10067381Y-15997381D01*
X10057857Y-15959286D01*
X10057857Y-15911667D01*
X10067381Y-15873571D01*
X10076905Y-15854524D01*
X10086429Y-15845000D01*
X10105476Y-15835476D01*
X10257857Y-16016428D02*
X10267381Y-16025952D01*
X10257857Y-16035476D01*
X10248333Y-16025952D01*
X10257857Y-16016428D01*
X10257857Y-16035476D01*
X10391190Y-15835476D02*
X10410238Y-15835476D01*
X10429286Y-15845000D01*
X10438810Y-15854524D01*
X10448333Y-15873571D01*
X10457857Y-15911667D01*
X10457857Y-15959286D01*
X10448333Y-15997381D01*
X10438810Y-16016428D01*
X10429286Y-16025952D01*
X10410238Y-16035476D01*
X10391190Y-16035476D01*
X10372143Y-16025952D01*
X10362619Y-16016428D01*
X10353095Y-15997381D01*
X10343571Y-15959286D01*
X10343571Y-15911667D01*
X10353095Y-15873571D01*
X10362619Y-15854524D01*
X10372143Y-15845000D01*
X10391190Y-15835476D01*
X10648333Y-16035476D02*
X10534048Y-16035476D01*
X10591190Y-16035476D02*
X10591190Y-15835476D01*
X10572143Y-15864048D01*
X10553095Y-15883095D01*
X10534048Y-15892619D01*
X10829286Y-15835476D02*
X10734048Y-15835476D01*
X10724524Y-15930714D01*
X10734048Y-15921190D01*
X10753095Y-15911667D01*
X10800714Y-15911667D01*
X10819762Y-15921190D01*
X10829286Y-15930714D01*
X10838810Y-15949762D01*
X10838810Y-15997381D01*
X10829286Y-16016428D01*
X10819762Y-16025952D01*
X10800714Y-16035476D01*
X10753095Y-16035476D01*
X10734048Y-16025952D01*
X10724524Y-16016428D01*
X10905476Y-15835476D02*
X11038810Y-15835476D01*
X10953095Y-16035476D01*
X11105476Y-15835476D02*
X11105476Y-15873571D01*
X11181667Y-15835476D02*
X11181667Y-15873571D01*
X11476905Y-16111667D02*
X11467381Y-16102143D01*
X11448333Y-16073571D01*
X11438809Y-16054524D01*
X11429286Y-16025952D01*
X11419762Y-15978333D01*
X11419762Y-15940238D01*
X11429286Y-15892619D01*
X11438809Y-15864048D01*
X11448333Y-15845000D01*
X11467381Y-15816428D01*
X11476905Y-15806905D01*
X11638809Y-15835476D02*
X11600714Y-15835476D01*
X11581667Y-15845000D01*
X11572143Y-15854524D01*
X11553095Y-15883095D01*
X11543571Y-15921190D01*
X11543571Y-15997381D01*
X11553095Y-16016428D01*
X11562619Y-16025952D01*
X11581667Y-16035476D01*
X11619762Y-16035476D01*
X11638809Y-16025952D01*
X11648333Y-16016428D01*
X11657857Y-15997381D01*
X11657857Y-15949762D01*
X11648333Y-15930714D01*
X11638809Y-15921190D01*
X11619762Y-15911667D01*
X11581667Y-15911667D01*
X11562619Y-15921190D01*
X11553095Y-15930714D01*
X11543571Y-15949762D01*
X11829286Y-15835476D02*
X11791190Y-15835476D01*
X11772143Y-15845000D01*
X11762619Y-15854524D01*
X11743571Y-15883095D01*
X11734048Y-15921190D01*
X11734048Y-15997381D01*
X11743571Y-16016428D01*
X11753095Y-16025952D01*
X11772143Y-16035476D01*
X11810238Y-16035476D01*
X11829286Y-16025952D01*
X11838809Y-16016428D01*
X11848333Y-15997381D01*
X11848333Y-15949762D01*
X11838809Y-15930714D01*
X11829286Y-15921190D01*
X11810238Y-15911667D01*
X11772143Y-15911667D01*
X11753095Y-15921190D01*
X11743571Y-15930714D01*
X11734048Y-15949762D01*
X12086428Y-16035476D02*
X12086428Y-15835476D01*
X12172143Y-16035476D02*
X12172143Y-15930714D01*
X12162619Y-15911667D01*
X12143571Y-15902143D01*
X12115000Y-15902143D01*
X12095952Y-15911667D01*
X12086428Y-15921190D01*
X12295952Y-16035476D02*
X12276905Y-16025952D01*
X12267381Y-16016428D01*
X12257857Y-15997381D01*
X12257857Y-15940238D01*
X12267381Y-15921190D01*
X12276905Y-15911667D01*
X12295952Y-15902143D01*
X12324524Y-15902143D01*
X12343571Y-15911667D01*
X12353095Y-15921190D01*
X12362619Y-15940238D01*
X12362619Y-15997381D01*
X12353095Y-16016428D01*
X12343571Y-16025952D01*
X12324524Y-16035476D01*
X12295952Y-16035476D01*
X12476905Y-16035476D02*
X12457857Y-16025952D01*
X12448333Y-16006905D01*
X12448333Y-15835476D01*
X12629286Y-16025952D02*
X12610238Y-16035476D01*
X12572143Y-16035476D01*
X12553095Y-16025952D01*
X12543571Y-16006905D01*
X12543571Y-15930714D01*
X12553095Y-15911667D01*
X12572143Y-15902143D01*
X12610238Y-15902143D01*
X12629286Y-15911667D01*
X12638809Y-15930714D01*
X12638809Y-15949762D01*
X12543571Y-15968809D01*
X12715000Y-16025952D02*
X12734048Y-16035476D01*
X12772143Y-16035476D01*
X12791190Y-16025952D01*
X12800714Y-16006905D01*
X12800714Y-15997381D01*
X12791190Y-15978333D01*
X12772143Y-15968809D01*
X12743571Y-15968809D01*
X12724524Y-15959286D01*
X12715000Y-15940238D01*
X12715000Y-15930714D01*
X12724524Y-15911667D01*
X12743571Y-15902143D01*
X12772143Y-15902143D01*
X12791190Y-15911667D01*
X12867381Y-16111667D02*
X12876905Y-16102143D01*
X12895952Y-16073571D01*
X12905476Y-16054524D01*
X12915000Y-16025952D01*
X12924524Y-15978333D01*
X12924524Y-15940238D01*
X12915000Y-15892619D01*
X12905476Y-15864048D01*
X12895952Y-15845000D01*
X12876905Y-15816428D01*
X12867381Y-15806905D01*
D13*
X7905000Y-16209000D02*
G75*
G03*
X7905000Y-16209000I-35000J0D01*
G01*
D11*
X8200714Y-16099476D02*
X8219762Y-16099476D01*
X8238809Y-16109000D01*
X8248333Y-16118524D01*
X8257857Y-16137571D01*
X8267381Y-16175667D01*
X8267381Y-16223286D01*
X8257857Y-16261381D01*
X8248333Y-16280428D01*
X8238809Y-16289952D01*
X8219762Y-16299476D01*
X8200714Y-16299476D01*
X8181667Y-16289952D01*
X8172143Y-16280428D01*
X8162619Y-16261381D01*
X8153095Y-16223286D01*
X8153095Y-16175667D01*
X8162619Y-16137571D01*
X8172143Y-16118524D01*
X8181667Y-16109000D01*
X8200714Y-16099476D01*
X8353095Y-16280428D02*
X8362619Y-16289952D01*
X8353095Y-16299476D01*
X8343571Y-16289952D01*
X8353095Y-16280428D01*
X8353095Y-16299476D01*
X8429286Y-16099476D02*
X8562619Y-16099476D01*
X8476905Y-16299476D01*
X8676905Y-16099476D02*
X8695952Y-16099476D01*
X8715000Y-16109000D01*
X8724524Y-16118524D01*
X8734048Y-16137571D01*
X8743571Y-16175667D01*
X8743571Y-16223286D01*
X8734048Y-16261381D01*
X8724524Y-16280428D01*
X8715000Y-16289952D01*
X8695952Y-16299476D01*
X8676905Y-16299476D01*
X8657857Y-16289952D01*
X8648333Y-16280428D01*
X8638810Y-16261381D01*
X8629286Y-16223286D01*
X8629286Y-16175667D01*
X8638810Y-16137571D01*
X8648333Y-16118524D01*
X8657857Y-16109000D01*
X8676905Y-16099476D01*
X8867381Y-16099476D02*
X8886429Y-16099476D01*
X8905476Y-16109000D01*
X8915000Y-16118524D01*
X8924524Y-16137571D01*
X8934048Y-16175667D01*
X8934048Y-16223286D01*
X8924524Y-16261381D01*
X8915000Y-16280428D01*
X8905476Y-16289952D01*
X8886429Y-16299476D01*
X8867381Y-16299476D01*
X8848333Y-16289952D01*
X8838810Y-16280428D01*
X8829286Y-16261381D01*
X8819762Y-16223286D01*
X8819762Y-16175667D01*
X8829286Y-16137571D01*
X8838810Y-16118524D01*
X8848333Y-16109000D01*
X8867381Y-16099476D01*
X9019762Y-16299476D02*
X9019762Y-16166143D01*
X9019762Y-16185190D02*
X9029286Y-16175667D01*
X9048333Y-16166143D01*
X9076905Y-16166143D01*
X9095952Y-16175667D01*
X9105476Y-16194714D01*
X9105476Y-16299476D01*
X9105476Y-16194714D02*
X9115000Y-16175667D01*
X9134048Y-16166143D01*
X9162619Y-16166143D01*
X9181667Y-16175667D01*
X9191190Y-16194714D01*
X9191190Y-16299476D01*
X9286429Y-16299476D02*
X9286429Y-16166143D01*
X9286429Y-16185190D02*
X9295952Y-16175667D01*
X9315000Y-16166143D01*
X9343571Y-16166143D01*
X9362619Y-16175667D01*
X9372143Y-16194714D01*
X9372143Y-16299476D01*
X9372143Y-16194714D02*
X9381667Y-16175667D01*
X9400714Y-16166143D01*
X9429286Y-16166143D01*
X9448333Y-16175667D01*
X9457857Y-16194714D01*
X9457857Y-16299476D01*
X9848333Y-16089952D02*
X9676905Y-16347095D01*
X10105476Y-16099476D02*
X10124524Y-16099476D01*
X10143571Y-16109000D01*
X10153095Y-16118524D01*
X10162619Y-16137571D01*
X10172143Y-16175667D01*
X10172143Y-16223286D01*
X10162619Y-16261381D01*
X10153095Y-16280428D01*
X10143571Y-16289952D01*
X10124524Y-16299476D01*
X10105476Y-16299476D01*
X10086429Y-16289952D01*
X10076905Y-16280428D01*
X10067381Y-16261381D01*
X10057857Y-16223286D01*
X10057857Y-16175667D01*
X10067381Y-16137571D01*
X10076905Y-16118524D01*
X10086429Y-16109000D01*
X10105476Y-16099476D01*
X10257857Y-16280428D02*
X10267381Y-16289952D01*
X10257857Y-16299476D01*
X10248333Y-16289952D01*
X10257857Y-16280428D01*
X10257857Y-16299476D01*
X10391190Y-16099476D02*
X10410238Y-16099476D01*
X10429286Y-16109000D01*
X10438810Y-16118524D01*
X10448333Y-16137571D01*
X10457857Y-16175667D01*
X10457857Y-16223286D01*
X10448333Y-16261381D01*
X10438810Y-16280428D01*
X10429286Y-16289952D01*
X10410238Y-16299476D01*
X10391190Y-16299476D01*
X10372143Y-16289952D01*
X10362619Y-16280428D01*
X10353095Y-16261381D01*
X10343571Y-16223286D01*
X10343571Y-16175667D01*
X10353095Y-16137571D01*
X10362619Y-16118524D01*
X10372143Y-16109000D01*
X10391190Y-16099476D01*
X10534048Y-16118524D02*
X10543571Y-16109000D01*
X10562619Y-16099476D01*
X10610238Y-16099476D01*
X10629286Y-16109000D01*
X10638810Y-16118524D01*
X10648333Y-16137571D01*
X10648333Y-16156619D01*
X10638810Y-16185190D01*
X10524524Y-16299476D01*
X10648333Y-16299476D01*
X10715000Y-16099476D02*
X10848333Y-16099476D01*
X10762619Y-16299476D01*
X11010238Y-16099476D02*
X10972143Y-16099476D01*
X10953095Y-16109000D01*
X10943571Y-16118524D01*
X10924524Y-16147095D01*
X10915000Y-16185190D01*
X10915000Y-16261381D01*
X10924524Y-16280428D01*
X10934048Y-16289952D01*
X10953095Y-16299476D01*
X10991190Y-16299476D01*
X11010238Y-16289952D01*
X11019762Y-16280428D01*
X11029286Y-16261381D01*
X11029286Y-16213762D01*
X11019762Y-16194714D01*
X11010238Y-16185190D01*
X10991190Y-16175667D01*
X10953095Y-16175667D01*
X10934048Y-16185190D01*
X10924524Y-16194714D01*
X10915000Y-16213762D01*
X11105476Y-16099476D02*
X11105476Y-16137571D01*
X11181667Y-16099476D02*
X11181667Y-16137571D01*
X11476905Y-16375667D02*
X11467381Y-16366143D01*
X11448333Y-16337571D01*
X11438809Y-16318524D01*
X11429286Y-16289952D01*
X11419762Y-16242333D01*
X11419762Y-16204238D01*
X11429286Y-16156619D01*
X11438809Y-16128048D01*
X11448333Y-16109000D01*
X11467381Y-16080428D01*
X11476905Y-16070905D01*
X11638809Y-16166143D02*
X11638809Y-16299476D01*
X11591190Y-16089952D02*
X11543571Y-16232809D01*
X11667381Y-16232809D01*
X11781667Y-16099476D02*
X11800714Y-16099476D01*
X11819762Y-16109000D01*
X11829286Y-16118524D01*
X11838809Y-16137571D01*
X11848333Y-16175667D01*
X11848333Y-16223286D01*
X11838809Y-16261381D01*
X11829286Y-16280428D01*
X11819762Y-16289952D01*
X11800714Y-16299476D01*
X11781667Y-16299476D01*
X11762619Y-16289952D01*
X11753095Y-16280428D01*
X11743571Y-16261381D01*
X11734048Y-16223286D01*
X11734048Y-16175667D01*
X11743571Y-16137571D01*
X11753095Y-16118524D01*
X11762619Y-16109000D01*
X11781667Y-16099476D01*
X12086428Y-16299476D02*
X12086428Y-16099476D01*
X12172143Y-16299476D02*
X12172143Y-16194714D01*
X12162619Y-16175667D01*
X12143571Y-16166143D01*
X12115000Y-16166143D01*
X12095952Y-16175667D01*
X12086428Y-16185190D01*
X12295952Y-16299476D02*
X12276905Y-16289952D01*
X12267381Y-16280428D01*
X12257857Y-16261381D01*
X12257857Y-16204238D01*
X12267381Y-16185190D01*
X12276905Y-16175667D01*
X12295952Y-16166143D01*
X12324524Y-16166143D01*
X12343571Y-16175667D01*
X12353095Y-16185190D01*
X12362619Y-16204238D01*
X12362619Y-16261381D01*
X12353095Y-16280428D01*
X12343571Y-16289952D01*
X12324524Y-16299476D01*
X12295952Y-16299476D01*
X12476905Y-16299476D02*
X12457857Y-16289952D01*
X12448333Y-16270905D01*
X12448333Y-16099476D01*
X12629286Y-16289952D02*
X12610238Y-16299476D01*
X12572143Y-16299476D01*
X12553095Y-16289952D01*
X12543571Y-16270905D01*
X12543571Y-16194714D01*
X12553095Y-16175667D01*
X12572143Y-16166143D01*
X12610238Y-16166143D01*
X12629286Y-16175667D01*
X12638809Y-16194714D01*
X12638809Y-16213762D01*
X12543571Y-16232809D01*
X12715000Y-16289952D02*
X12734048Y-16299476D01*
X12772143Y-16299476D01*
X12791190Y-16289952D01*
X12800714Y-16270905D01*
X12800714Y-16261381D01*
X12791190Y-16242333D01*
X12772143Y-16232809D01*
X12743571Y-16232809D01*
X12724524Y-16223286D01*
X12715000Y-16204238D01*
X12715000Y-16194714D01*
X12724524Y-16175667D01*
X12743571Y-16166143D01*
X12772143Y-16166143D01*
X12791190Y-16175667D01*
X12867381Y-16375667D02*
X12876905Y-16366143D01*
X12895952Y-16337571D01*
X12905476Y-16318524D01*
X12915000Y-16289952D01*
X12924524Y-16242333D01*
X12924524Y-16204238D01*
X12915000Y-16156619D01*
X12905476Y-16128048D01*
X12895952Y-16109000D01*
X12876905Y-16080428D01*
X12867381Y-16070905D01*
D14*
X7855000Y-16423000D02*
X7855000Y-16523000D01*
X7805000Y-16473000D02*
X7905000Y-16473000D01*
D11*
X8267381Y-16563476D02*
X8153095Y-16563476D01*
X8210238Y-16563476D02*
X8210238Y-16363476D01*
X8191190Y-16392048D01*
X8172143Y-16411095D01*
X8153095Y-16420619D01*
X8353095Y-16544428D02*
X8362619Y-16553952D01*
X8353095Y-16563476D01*
X8343571Y-16553952D01*
X8353095Y-16544428D01*
X8353095Y-16563476D01*
X8486429Y-16363476D02*
X8505476Y-16363476D01*
X8524524Y-16373000D01*
X8534048Y-16382524D01*
X8543571Y-16401571D01*
X8553095Y-16439667D01*
X8553095Y-16487286D01*
X8543571Y-16525381D01*
X8534048Y-16544428D01*
X8524524Y-16553952D01*
X8505476Y-16563476D01*
X8486429Y-16563476D01*
X8467381Y-16553952D01*
X8457857Y-16544428D01*
X8448333Y-16525381D01*
X8438810Y-16487286D01*
X8438810Y-16439667D01*
X8448333Y-16401571D01*
X8457857Y-16382524D01*
X8467381Y-16373000D01*
X8486429Y-16363476D01*
X8676905Y-16363476D02*
X8695952Y-16363476D01*
X8715000Y-16373000D01*
X8724524Y-16382524D01*
X8734048Y-16401571D01*
X8743571Y-16439667D01*
X8743571Y-16487286D01*
X8734048Y-16525381D01*
X8724524Y-16544428D01*
X8715000Y-16553952D01*
X8695952Y-16563476D01*
X8676905Y-16563476D01*
X8657857Y-16553952D01*
X8648333Y-16544428D01*
X8638810Y-16525381D01*
X8629286Y-16487286D01*
X8629286Y-16439667D01*
X8638810Y-16401571D01*
X8648333Y-16382524D01*
X8657857Y-16373000D01*
X8676905Y-16363476D01*
X8867381Y-16363476D02*
X8886429Y-16363476D01*
X8905476Y-16373000D01*
X8915000Y-16382524D01*
X8924524Y-16401571D01*
X8934048Y-16439667D01*
X8934048Y-16487286D01*
X8924524Y-16525381D01*
X8915000Y-16544428D01*
X8905476Y-16553952D01*
X8886429Y-16563476D01*
X8867381Y-16563476D01*
X8848333Y-16553952D01*
X8838810Y-16544428D01*
X8829286Y-16525381D01*
X8819762Y-16487286D01*
X8819762Y-16439667D01*
X8829286Y-16401571D01*
X8838810Y-16382524D01*
X8848333Y-16373000D01*
X8867381Y-16363476D01*
X9019762Y-16563476D02*
X9019762Y-16430143D01*
X9019762Y-16449190D02*
X9029286Y-16439667D01*
X9048333Y-16430143D01*
X9076905Y-16430143D01*
X9095952Y-16439667D01*
X9105476Y-16458714D01*
X9105476Y-16563476D01*
X9105476Y-16458714D02*
X9115000Y-16439667D01*
X9134048Y-16430143D01*
X9162619Y-16430143D01*
X9181667Y-16439667D01*
X9191190Y-16458714D01*
X9191190Y-16563476D01*
X9286429Y-16563476D02*
X9286429Y-16430143D01*
X9286429Y-16449190D02*
X9295952Y-16439667D01*
X9315000Y-16430143D01*
X9343571Y-16430143D01*
X9362619Y-16439667D01*
X9372143Y-16458714D01*
X9372143Y-16563476D01*
X9372143Y-16458714D02*
X9381667Y-16439667D01*
X9400714Y-16430143D01*
X9429286Y-16430143D01*
X9448333Y-16439667D01*
X9457857Y-16458714D01*
X9457857Y-16563476D01*
X9848333Y-16353952D02*
X9676905Y-16611095D01*
X10105476Y-16363476D02*
X10124524Y-16363476D01*
X10143571Y-16373000D01*
X10153095Y-16382524D01*
X10162619Y-16401571D01*
X10172143Y-16439667D01*
X10172143Y-16487286D01*
X10162619Y-16525381D01*
X10153095Y-16544428D01*
X10143571Y-16553952D01*
X10124524Y-16563476D01*
X10105476Y-16563476D01*
X10086429Y-16553952D01*
X10076905Y-16544428D01*
X10067381Y-16525381D01*
X10057857Y-16487286D01*
X10057857Y-16439667D01*
X10067381Y-16401571D01*
X10076905Y-16382524D01*
X10086429Y-16373000D01*
X10105476Y-16363476D01*
X10257857Y-16544428D02*
X10267381Y-16553952D01*
X10257857Y-16563476D01*
X10248333Y-16553952D01*
X10257857Y-16544428D01*
X10257857Y-16563476D01*
X10391190Y-16363476D02*
X10410238Y-16363476D01*
X10429286Y-16373000D01*
X10438810Y-16382524D01*
X10448333Y-16401571D01*
X10457857Y-16439667D01*
X10457857Y-16487286D01*
X10448333Y-16525381D01*
X10438810Y-16544428D01*
X10429286Y-16553952D01*
X10410238Y-16563476D01*
X10391190Y-16563476D01*
X10372143Y-16553952D01*
X10362619Y-16544428D01*
X10353095Y-16525381D01*
X10343571Y-16487286D01*
X10343571Y-16439667D01*
X10353095Y-16401571D01*
X10362619Y-16382524D01*
X10372143Y-16373000D01*
X10391190Y-16363476D01*
X10524524Y-16363476D02*
X10648333Y-16363476D01*
X10581667Y-16439667D01*
X10610238Y-16439667D01*
X10629286Y-16449190D01*
X10638810Y-16458714D01*
X10648333Y-16477762D01*
X10648333Y-16525381D01*
X10638810Y-16544428D01*
X10629286Y-16553952D01*
X10610238Y-16563476D01*
X10553095Y-16563476D01*
X10534048Y-16553952D01*
X10524524Y-16544428D01*
X10743571Y-16563476D02*
X10781667Y-16563476D01*
X10800714Y-16553952D01*
X10810238Y-16544428D01*
X10829286Y-16515857D01*
X10838810Y-16477762D01*
X10838810Y-16401571D01*
X10829286Y-16382524D01*
X10819762Y-16373000D01*
X10800714Y-16363476D01*
X10762619Y-16363476D01*
X10743571Y-16373000D01*
X10734048Y-16382524D01*
X10724524Y-16401571D01*
X10724524Y-16449190D01*
X10734048Y-16468238D01*
X10743571Y-16477762D01*
X10762619Y-16487286D01*
X10800714Y-16487286D01*
X10819762Y-16477762D01*
X10829286Y-16468238D01*
X10838810Y-16449190D01*
X11010238Y-16430143D02*
X11010238Y-16563476D01*
X10962619Y-16353952D02*
X10915000Y-16496809D01*
X11038810Y-16496809D01*
X11105476Y-16363476D02*
X11105476Y-16401571D01*
X11181667Y-16363476D02*
X11181667Y-16401571D01*
X11476905Y-16639667D02*
X11467381Y-16630143D01*
X11448333Y-16601571D01*
X11438809Y-16582524D01*
X11429286Y-16553952D01*
X11419762Y-16506333D01*
X11419762Y-16468238D01*
X11429286Y-16420619D01*
X11438809Y-16392048D01*
X11448333Y-16373000D01*
X11467381Y-16344428D01*
X11476905Y-16334905D01*
X11657857Y-16563476D02*
X11543571Y-16563476D01*
X11600714Y-16563476D02*
X11600714Y-16363476D01*
X11581667Y-16392048D01*
X11562619Y-16411095D01*
X11543571Y-16420619D01*
X11829286Y-16363476D02*
X11791190Y-16363476D01*
X11772143Y-16373000D01*
X11762619Y-16382524D01*
X11743571Y-16411095D01*
X11734048Y-16449190D01*
X11734048Y-16525381D01*
X11743571Y-16544428D01*
X11753095Y-16553952D01*
X11772143Y-16563476D01*
X11810238Y-16563476D01*
X11829286Y-16553952D01*
X11838809Y-16544428D01*
X11848333Y-16525381D01*
X11848333Y-16477762D01*
X11838809Y-16458714D01*
X11829286Y-16449190D01*
X11810238Y-16439667D01*
X11772143Y-16439667D01*
X11753095Y-16449190D01*
X11743571Y-16458714D01*
X11734048Y-16477762D01*
X12086428Y-16563476D02*
X12086428Y-16363476D01*
X12172143Y-16563476D02*
X12172143Y-16458714D01*
X12162619Y-16439667D01*
X12143571Y-16430143D01*
X12115000Y-16430143D01*
X12095952Y-16439667D01*
X12086428Y-16449190D01*
X12295952Y-16563476D02*
X12276905Y-16553952D01*
X12267381Y-16544428D01*
X12257857Y-16525381D01*
X12257857Y-16468238D01*
X12267381Y-16449190D01*
X12276905Y-16439667D01*
X12295952Y-16430143D01*
X12324524Y-16430143D01*
X12343571Y-16439667D01*
X12353095Y-16449190D01*
X12362619Y-16468238D01*
X12362619Y-16525381D01*
X12353095Y-16544428D01*
X12343571Y-16553952D01*
X12324524Y-16563476D01*
X12295952Y-16563476D01*
X12476905Y-16563476D02*
X12457857Y-16553952D01*
X12448333Y-16534905D01*
X12448333Y-16363476D01*
X12629286Y-16553952D02*
X12610238Y-16563476D01*
X12572143Y-16563476D01*
X12553095Y-16553952D01*
X12543571Y-16534905D01*
X12543571Y-16458714D01*
X12553095Y-16439667D01*
X12572143Y-16430143D01*
X12610238Y-16430143D01*
X12629286Y-16439667D01*
X12638809Y-16458714D01*
X12638809Y-16477762D01*
X12543571Y-16496809D01*
X12715000Y-16553952D02*
X12734048Y-16563476D01*
X12772143Y-16563476D01*
X12791190Y-16553952D01*
X12800714Y-16534905D01*
X12800714Y-16525381D01*
X12791190Y-16506333D01*
X12772143Y-16496809D01*
X12743571Y-16496809D01*
X12724524Y-16487286D01*
X12715000Y-16468238D01*
X12715000Y-16458714D01*
X12724524Y-16439667D01*
X12743571Y-16430143D01*
X12772143Y-16430143D01*
X12791190Y-16439667D01*
X12867381Y-16639667D02*
X12876905Y-16630143D01*
X12895952Y-16601571D01*
X12905476Y-16582524D01*
X12915000Y-16553952D01*
X12924524Y-16506333D01*
X12924524Y-16468238D01*
X12915000Y-16420619D01*
X12905476Y-16392048D01*
X12895952Y-16373000D01*
X12876905Y-16344428D01*
X12867381Y-16334905D01*
D15*
X7888891Y-16775891D02*
X7888891Y-16698109D01*
X7811109Y-16698109D01*
X7811109Y-16775891D01*
X7888891Y-16775891D01*
D11*
X8267381Y-16827476D02*
X8153095Y-16827476D01*
X8210238Y-16827476D02*
X8210238Y-16627476D01*
X8191190Y-16656048D01*
X8172143Y-16675095D01*
X8153095Y-16684619D01*
X8353095Y-16808429D02*
X8362619Y-16817952D01*
X8353095Y-16827476D01*
X8343571Y-16817952D01*
X8353095Y-16808429D01*
X8353095Y-16827476D01*
X8553095Y-16827476D02*
X8438810Y-16827476D01*
X8495952Y-16827476D02*
X8495952Y-16627476D01*
X8476905Y-16656048D01*
X8457857Y-16675095D01*
X8438810Y-16684619D01*
X8676905Y-16627476D02*
X8695952Y-16627476D01*
X8715000Y-16637000D01*
X8724524Y-16646524D01*
X8734048Y-16665571D01*
X8743571Y-16703667D01*
X8743571Y-16751286D01*
X8734048Y-16789381D01*
X8724524Y-16808429D01*
X8715000Y-16817952D01*
X8695952Y-16827476D01*
X8676905Y-16827476D01*
X8657857Y-16817952D01*
X8648333Y-16808429D01*
X8638810Y-16789381D01*
X8629286Y-16751286D01*
X8629286Y-16703667D01*
X8638810Y-16665571D01*
X8648333Y-16646524D01*
X8657857Y-16637000D01*
X8676905Y-16627476D01*
X8867381Y-16627476D02*
X8886429Y-16627476D01*
X8905476Y-16637000D01*
X8915000Y-16646524D01*
X8924524Y-16665571D01*
X8934048Y-16703667D01*
X8934048Y-16751286D01*
X8924524Y-16789381D01*
X8915000Y-16808429D01*
X8905476Y-16817952D01*
X8886429Y-16827476D01*
X8867381Y-16827476D01*
X8848333Y-16817952D01*
X8838810Y-16808429D01*
X8829286Y-16789381D01*
X8819762Y-16751286D01*
X8819762Y-16703667D01*
X8829286Y-16665571D01*
X8838810Y-16646524D01*
X8848333Y-16637000D01*
X8867381Y-16627476D01*
X9019762Y-16827476D02*
X9019762Y-16694143D01*
X9019762Y-16713190D02*
X9029286Y-16703667D01*
X9048333Y-16694143D01*
X9076905Y-16694143D01*
X9095952Y-16703667D01*
X9105476Y-16722714D01*
X9105476Y-16827476D01*
X9105476Y-16722714D02*
X9115000Y-16703667D01*
X9134048Y-16694143D01*
X9162619Y-16694143D01*
X9181667Y-16703667D01*
X9191190Y-16722714D01*
X9191190Y-16827476D01*
X9286429Y-16827476D02*
X9286429Y-16694143D01*
X9286429Y-16713190D02*
X9295952Y-16703667D01*
X9315000Y-16694143D01*
X9343571Y-16694143D01*
X9362619Y-16703667D01*
X9372143Y-16722714D01*
X9372143Y-16827476D01*
X9372143Y-16722714D02*
X9381667Y-16703667D01*
X9400714Y-16694143D01*
X9429286Y-16694143D01*
X9448333Y-16703667D01*
X9457857Y-16722714D01*
X9457857Y-16827476D01*
X9848333Y-16617952D02*
X9676905Y-16875095D01*
X10105476Y-16627476D02*
X10124524Y-16627476D01*
X10143571Y-16637000D01*
X10153095Y-16646524D01*
X10162619Y-16665571D01*
X10172143Y-16703667D01*
X10172143Y-16751286D01*
X10162619Y-16789381D01*
X10153095Y-16808429D01*
X10143571Y-16817952D01*
X10124524Y-16827476D01*
X10105476Y-16827476D01*
X10086429Y-16817952D01*
X10076905Y-16808429D01*
X10067381Y-16789381D01*
X10057857Y-16751286D01*
X10057857Y-16703667D01*
X10067381Y-16665571D01*
X10076905Y-16646524D01*
X10086429Y-16637000D01*
X10105476Y-16627476D01*
X10257857Y-16808429D02*
X10267381Y-16817952D01*
X10257857Y-16827476D01*
X10248333Y-16817952D01*
X10257857Y-16808429D01*
X10257857Y-16827476D01*
X10391190Y-16627476D02*
X10410238Y-16627476D01*
X10429286Y-16637000D01*
X10438810Y-16646524D01*
X10448333Y-16665571D01*
X10457857Y-16703667D01*
X10457857Y-16751286D01*
X10448333Y-16789381D01*
X10438810Y-16808429D01*
X10429286Y-16817952D01*
X10410238Y-16827476D01*
X10391190Y-16827476D01*
X10372143Y-16817952D01*
X10362619Y-16808429D01*
X10353095Y-16789381D01*
X10343571Y-16751286D01*
X10343571Y-16703667D01*
X10353095Y-16665571D01*
X10362619Y-16646524D01*
X10372143Y-16637000D01*
X10391190Y-16627476D01*
X10629286Y-16694143D02*
X10629286Y-16827476D01*
X10581667Y-16617952D02*
X10534048Y-16760809D01*
X10657857Y-16760809D01*
X10715000Y-16627476D02*
X10838810Y-16627476D01*
X10772143Y-16703667D01*
X10800714Y-16703667D01*
X10819762Y-16713190D01*
X10829286Y-16722714D01*
X10838810Y-16741762D01*
X10838810Y-16789381D01*
X10829286Y-16808429D01*
X10819762Y-16817952D01*
X10800714Y-16827476D01*
X10743571Y-16827476D01*
X10724524Y-16817952D01*
X10715000Y-16808429D01*
X10905476Y-16627476D02*
X11029286Y-16627476D01*
X10962619Y-16703667D01*
X10991190Y-16703667D01*
X11010238Y-16713190D01*
X11019762Y-16722714D01*
X11029286Y-16741762D01*
X11029286Y-16789381D01*
X11019762Y-16808429D01*
X11010238Y-16817952D01*
X10991190Y-16827476D01*
X10934048Y-16827476D01*
X10915000Y-16817952D01*
X10905476Y-16808429D01*
X11105476Y-16627476D02*
X11105476Y-16665571D01*
X11181667Y-16627476D02*
X11181667Y-16665571D01*
X11476905Y-16903667D02*
X11467381Y-16894143D01*
X11448333Y-16865571D01*
X11438809Y-16846524D01*
X11429286Y-16817952D01*
X11419762Y-16770333D01*
X11419762Y-16732238D01*
X11429286Y-16684619D01*
X11438809Y-16656048D01*
X11448333Y-16637000D01*
X11467381Y-16608428D01*
X11476905Y-16598905D01*
X11657857Y-16827476D02*
X11543571Y-16827476D01*
X11600714Y-16827476D02*
X11600714Y-16627476D01*
X11581667Y-16656048D01*
X11562619Y-16675095D01*
X11543571Y-16684619D01*
X11781667Y-16627476D02*
X11800714Y-16627476D01*
X11819762Y-16637000D01*
X11829286Y-16646524D01*
X11838809Y-16665571D01*
X11848333Y-16703667D01*
X11848333Y-16751286D01*
X11838809Y-16789381D01*
X11829286Y-16808429D01*
X11819762Y-16817952D01*
X11800714Y-16827476D01*
X11781667Y-16827476D01*
X11762619Y-16817952D01*
X11753095Y-16808429D01*
X11743571Y-16789381D01*
X11734048Y-16751286D01*
X11734048Y-16703667D01*
X11743571Y-16665571D01*
X11753095Y-16646524D01*
X11762619Y-16637000D01*
X11781667Y-16627476D01*
X12086428Y-16827476D02*
X12086428Y-16627476D01*
X12172143Y-16827476D02*
X12172143Y-16722714D01*
X12162619Y-16703667D01*
X12143571Y-16694143D01*
X12115000Y-16694143D01*
X12095952Y-16703667D01*
X12086428Y-16713190D01*
X12295952Y-16827476D02*
X12276905Y-16817952D01*
X12267381Y-16808429D01*
X12257857Y-16789381D01*
X12257857Y-16732238D01*
X12267381Y-16713190D01*
X12276905Y-16703667D01*
X12295952Y-16694143D01*
X12324524Y-16694143D01*
X12343571Y-16703667D01*
X12353095Y-16713190D01*
X12362619Y-16732238D01*
X12362619Y-16789381D01*
X12353095Y-16808429D01*
X12343571Y-16817952D01*
X12324524Y-16827476D01*
X12295952Y-16827476D01*
X12476905Y-16827476D02*
X12457857Y-16817952D01*
X12448333Y-16798905D01*
X12448333Y-16627476D01*
X12629286Y-16817952D02*
X12610238Y-16827476D01*
X12572143Y-16827476D01*
X12553095Y-16817952D01*
X12543571Y-16798905D01*
X12543571Y-16722714D01*
X12553095Y-16703667D01*
X12572143Y-16694143D01*
X12610238Y-16694143D01*
X12629286Y-16703667D01*
X12638809Y-16722714D01*
X12638809Y-16741762D01*
X12543571Y-16760809D01*
X12715000Y-16817952D02*
X12734048Y-16827476D01*
X12772143Y-16827476D01*
X12791190Y-16817952D01*
X12800714Y-16798905D01*
X12800714Y-16789381D01*
X12791190Y-16770333D01*
X12772143Y-16760809D01*
X12743571Y-16760809D01*
X12724524Y-16751286D01*
X12715000Y-16732238D01*
X12715000Y-16722714D01*
X12724524Y-16703667D01*
X12743571Y-16694143D01*
X12772143Y-16694143D01*
X12791190Y-16703667D01*
X12867381Y-16903667D02*
X12876905Y-16894143D01*
X12895952Y-16865571D01*
X12905476Y-16846524D01*
X12915000Y-16817952D01*
X12924524Y-16770333D01*
X12924524Y-16732238D01*
X12915000Y-16684619D01*
X12905476Y-16656048D01*
X12895952Y-16637000D01*
X12876905Y-16608428D01*
X12867381Y-16598905D01*
D16*
X7840000Y-17066000D02*
X7905000Y-17001000D01*
X7840000Y-16936000D01*
X7775000Y-17001000D01*
X7840000Y-17066000D01*
D11*
X8267381Y-17091476D02*
X8153095Y-17091476D01*
X8210238Y-17091476D02*
X8210238Y-16891476D01*
X8191190Y-16920048D01*
X8172143Y-16939095D01*
X8153095Y-16948619D01*
X8353095Y-17072429D02*
X8362619Y-17081952D01*
X8353095Y-17091476D01*
X8343571Y-17081952D01*
X8353095Y-17072429D01*
X8353095Y-17091476D01*
X8429286Y-16891476D02*
X8553095Y-16891476D01*
X8486429Y-16967667D01*
X8515000Y-16967667D01*
X8534048Y-16977190D01*
X8543571Y-16986714D01*
X8553095Y-17005762D01*
X8553095Y-17053381D01*
X8543571Y-17072429D01*
X8534048Y-17081952D01*
X8515000Y-17091476D01*
X8457857Y-17091476D01*
X8438810Y-17081952D01*
X8429286Y-17072429D01*
X8676905Y-16891476D02*
X8695952Y-16891476D01*
X8715000Y-16901000D01*
X8724524Y-16910524D01*
X8734048Y-16929571D01*
X8743571Y-16967667D01*
X8743571Y-17015286D01*
X8734048Y-17053381D01*
X8724524Y-17072429D01*
X8715000Y-17081952D01*
X8695952Y-17091476D01*
X8676905Y-17091476D01*
X8657857Y-17081952D01*
X8648333Y-17072429D01*
X8638810Y-17053381D01*
X8629286Y-17015286D01*
X8629286Y-16967667D01*
X8638810Y-16929571D01*
X8648333Y-16910524D01*
X8657857Y-16901000D01*
X8676905Y-16891476D01*
X8867381Y-16891476D02*
X8886429Y-16891476D01*
X8905476Y-16901000D01*
X8915000Y-16910524D01*
X8924524Y-16929571D01*
X8934048Y-16967667D01*
X8934048Y-17015286D01*
X8924524Y-17053381D01*
X8915000Y-17072429D01*
X8905476Y-17081952D01*
X8886429Y-17091476D01*
X8867381Y-17091476D01*
X8848333Y-17081952D01*
X8838810Y-17072429D01*
X8829286Y-17053381D01*
X8819762Y-17015286D01*
X8819762Y-16967667D01*
X8829286Y-16929571D01*
X8838810Y-16910524D01*
X8848333Y-16901000D01*
X8867381Y-16891476D01*
X9019762Y-17091476D02*
X9019762Y-16958143D01*
X9019762Y-16977190D02*
X9029286Y-16967667D01*
X9048333Y-16958143D01*
X9076905Y-16958143D01*
X9095952Y-16967667D01*
X9105476Y-16986714D01*
X9105476Y-17091476D01*
X9105476Y-16986714D02*
X9115000Y-16967667D01*
X9134048Y-16958143D01*
X9162619Y-16958143D01*
X9181667Y-16967667D01*
X9191190Y-16986714D01*
X9191190Y-17091476D01*
X9286429Y-17091476D02*
X9286429Y-16958143D01*
X9286429Y-16977190D02*
X9295952Y-16967667D01*
X9315000Y-16958143D01*
X9343571Y-16958143D01*
X9362619Y-16967667D01*
X9372143Y-16986714D01*
X9372143Y-17091476D01*
X9372143Y-16986714D02*
X9381667Y-16967667D01*
X9400714Y-16958143D01*
X9429286Y-16958143D01*
X9448333Y-16967667D01*
X9457857Y-16986714D01*
X9457857Y-17091476D01*
X9848333Y-16881952D02*
X9676905Y-17139095D01*
X10105476Y-16891476D02*
X10124524Y-16891476D01*
X10143571Y-16901000D01*
X10153095Y-16910524D01*
X10162619Y-16929571D01*
X10172143Y-16967667D01*
X10172143Y-17015286D01*
X10162619Y-17053381D01*
X10153095Y-17072429D01*
X10143571Y-17081952D01*
X10124524Y-17091476D01*
X10105476Y-17091476D01*
X10086429Y-17081952D01*
X10076905Y-17072429D01*
X10067381Y-17053381D01*
X10057857Y-17015286D01*
X10057857Y-16967667D01*
X10067381Y-16929571D01*
X10076905Y-16910524D01*
X10086429Y-16901000D01*
X10105476Y-16891476D01*
X10257857Y-17072429D02*
X10267381Y-17081952D01*
X10257857Y-17091476D01*
X10248333Y-17081952D01*
X10257857Y-17072429D01*
X10257857Y-17091476D01*
X10391190Y-16891476D02*
X10410238Y-16891476D01*
X10429286Y-16901000D01*
X10438810Y-16910524D01*
X10448333Y-16929571D01*
X10457857Y-16967667D01*
X10457857Y-17015286D01*
X10448333Y-17053381D01*
X10438810Y-17072429D01*
X10429286Y-17081952D01*
X10410238Y-17091476D01*
X10391190Y-17091476D01*
X10372143Y-17081952D01*
X10362619Y-17072429D01*
X10353095Y-17053381D01*
X10343571Y-17015286D01*
X10343571Y-16967667D01*
X10353095Y-16929571D01*
X10362619Y-16910524D01*
X10372143Y-16901000D01*
X10391190Y-16891476D01*
X10638810Y-16891476D02*
X10543571Y-16891476D01*
X10534048Y-16986714D01*
X10543571Y-16977190D01*
X10562619Y-16967667D01*
X10610238Y-16967667D01*
X10629286Y-16977190D01*
X10638810Y-16986714D01*
X10648333Y-17005762D01*
X10648333Y-17053381D01*
X10638810Y-17072429D01*
X10629286Y-17081952D01*
X10610238Y-17091476D01*
X10562619Y-17091476D01*
X10543571Y-17081952D01*
X10534048Y-17072429D01*
X10838810Y-17091476D02*
X10724524Y-17091476D01*
X10781667Y-17091476D02*
X10781667Y-16891476D01*
X10762619Y-16920048D01*
X10743571Y-16939095D01*
X10724524Y-16948619D01*
X10915000Y-16910524D02*
X10924524Y-16901000D01*
X10943571Y-16891476D01*
X10991190Y-16891476D01*
X11010238Y-16901000D01*
X11019762Y-16910524D01*
X11029286Y-16929571D01*
X11029286Y-16948619D01*
X11019762Y-16977190D01*
X10905476Y-17091476D01*
X11029286Y-17091476D01*
X11105476Y-16891476D02*
X11105476Y-16929571D01*
X11181667Y-16891476D02*
X11181667Y-16929571D01*
X11476905Y-17167667D02*
X11467381Y-17158143D01*
X11448333Y-17129571D01*
X11438809Y-17110524D01*
X11429286Y-17081952D01*
X11419762Y-17034333D01*
X11419762Y-16996238D01*
X11429286Y-16948619D01*
X11438809Y-16920048D01*
X11448333Y-16901000D01*
X11467381Y-16872429D01*
X11476905Y-16862905D01*
X11534048Y-16891476D02*
X11657857Y-16891476D01*
X11591190Y-16967667D01*
X11619762Y-16967667D01*
X11638809Y-16977190D01*
X11648333Y-16986714D01*
X11657857Y-17005762D01*
X11657857Y-17053381D01*
X11648333Y-17072429D01*
X11638809Y-17081952D01*
X11619762Y-17091476D01*
X11562619Y-17091476D01*
X11543571Y-17081952D01*
X11534048Y-17072429D01*
X11781667Y-16891476D02*
X11800714Y-16891476D01*
X11819762Y-16901000D01*
X11829286Y-16910524D01*
X11838809Y-16929571D01*
X11848333Y-16967667D01*
X11848333Y-17015286D01*
X11838809Y-17053381D01*
X11829286Y-17072429D01*
X11819762Y-17081952D01*
X11800714Y-17091476D01*
X11781667Y-17091476D01*
X11762619Y-17081952D01*
X11753095Y-17072429D01*
X11743571Y-17053381D01*
X11734048Y-17015286D01*
X11734048Y-16967667D01*
X11743571Y-16929571D01*
X11753095Y-16910524D01*
X11762619Y-16901000D01*
X11781667Y-16891476D01*
X12086428Y-17091476D02*
X12086428Y-16891476D01*
X12172143Y-17091476D02*
X12172143Y-16986714D01*
X12162619Y-16967667D01*
X12143571Y-16958143D01*
X12115000Y-16958143D01*
X12095952Y-16967667D01*
X12086428Y-16977190D01*
X12295952Y-17091476D02*
X12276905Y-17081952D01*
X12267381Y-17072429D01*
X12257857Y-17053381D01*
X12257857Y-16996238D01*
X12267381Y-16977190D01*
X12276905Y-16967667D01*
X12295952Y-16958143D01*
X12324524Y-16958143D01*
X12343571Y-16967667D01*
X12353095Y-16977190D01*
X12362619Y-16996238D01*
X12362619Y-17053381D01*
X12353095Y-17072429D01*
X12343571Y-17081952D01*
X12324524Y-17091476D01*
X12295952Y-17091476D01*
X12476905Y-17091476D02*
X12457857Y-17081952D01*
X12448333Y-17062905D01*
X12448333Y-16891476D01*
X12629286Y-17081952D02*
X12610238Y-17091476D01*
X12572143Y-17091476D01*
X12553095Y-17081952D01*
X12543571Y-17062905D01*
X12543571Y-16986714D01*
X12553095Y-16967667D01*
X12572143Y-16958143D01*
X12610238Y-16958143D01*
X12629286Y-16967667D01*
X12638809Y-16986714D01*
X12638809Y-17005762D01*
X12543571Y-17024810D01*
X12715000Y-17081952D02*
X12734048Y-17091476D01*
X12772143Y-17091476D01*
X12791190Y-17081952D01*
X12800714Y-17062905D01*
X12800714Y-17053381D01*
X12791190Y-17034333D01*
X12772143Y-17024810D01*
X12743571Y-17024810D01*
X12724524Y-17015286D01*
X12715000Y-16996238D01*
X12715000Y-16986714D01*
X12724524Y-16967667D01*
X12743571Y-16958143D01*
X12772143Y-16958143D01*
X12791190Y-16967667D01*
X12867381Y-17167667D02*
X12876905Y-17158143D01*
X12895952Y-17129571D01*
X12905476Y-17110524D01*
X12915000Y-17081952D01*
X12924524Y-17034333D01*
X12924524Y-16996238D01*
X12915000Y-16948619D01*
X12905476Y-16920048D01*
X12895952Y-16901000D01*
X12876905Y-16872429D01*
X12867381Y-16862905D01*
M02*
