%TF.GenerationSoftware,KiCad,Pcbnew,(6.0.2)*%
%TF.CreationDate,2022-04-20T12:38:45-07:00*%
%TF.ProjectId,audioModule2,61756469-6f4d-46f6-9475-6c65322e6b69,rev?*%
%TF.SameCoordinates,PX48ab840PY7b89fa0*%
%TF.FileFunction,Soldermask,Top*%
%TF.FilePolarity,Negative*%
%FSLAX46Y46*%
G04 Gerber Fmt 4.6, Leading zero omitted, Abs format (unit mm)*
G04 Created by KiCad (PCBNEW (6.0.2)) date 2022-04-20 12:38:45*
%MOMM*%
%LPD*%
G01*
G04 APERTURE LIST*
G04 Aperture macros list*
%AMRoundRect*
0 Rectangle with rounded corners*
0 $1 Rounding radius*
0 $2 $3 $4 $5 $6 $7 $8 $9 X,Y pos of 4 corners*
0 Add a 4 corners polygon primitive as box body*
4,1,4,$2,$3,$4,$5,$6,$7,$8,$9,$2,$3,0*
0 Add four circle primitives for the rounded corners*
1,1,$1+$1,$2,$3*
1,1,$1+$1,$4,$5*
1,1,$1+$1,$6,$7*
1,1,$1+$1,$8,$9*
0 Add four rect primitives between the rounded corners*
20,1,$1+$1,$2,$3,$4,$5,0*
20,1,$1+$1,$4,$5,$6,$7,0*
20,1,$1+$1,$6,$7,$8,$9,0*
20,1,$1+$1,$8,$9,$2,$3,0*%
G04 Aperture macros list end*
%ADD10RoundRect,0.050800X-0.800000X-0.800000X0.800000X-0.800000X0.800000X0.800000X-0.800000X0.800000X0*%
%ADD11C,1.701600*%
%ADD12RoundRect,0.050800X0.800000X0.800000X-0.800000X0.800000X-0.800000X-0.800000X0.800000X-0.800000X0*%
%ADD13RoundRect,0.288300X0.237500X-0.300000X0.237500X0.300000X-0.237500X0.300000X-0.237500X-0.300000X0*%
%ADD14RoundRect,0.200800X-0.150000X0.825000X-0.150000X-0.825000X0.150000X-0.825000X0.150000X0.825000X0*%
%ADD15O,1.801600X1.801600*%
%ADD16RoundRect,0.050800X-0.850000X-0.850000X0.850000X-0.850000X0.850000X0.850000X-0.850000X0.850000X0*%
%ADD17RoundRect,0.063500X-0.125000X-0.500000X0.125000X-0.500000X0.125000X0.500000X-0.125000X0.500000X0*%
%ADD18RoundRect,0.063500X0.125000X0.500000X-0.125000X0.500000X-0.125000X-0.500000X0.125000X-0.500000X0*%
%ADD19C,1.541600*%
%ADD20RoundRect,0.288300X-0.250000X-0.237500X0.250000X-0.237500X0.250000X0.237500X-0.250000X0.237500X0*%
%ADD21RoundRect,0.300800X-0.450000X0.350000X-0.450000X-0.350000X0.450000X-0.350000X0.450000X0.350000X0*%
%ADD22RoundRect,0.288300X0.250000X0.237500X-0.250000X0.237500X-0.250000X-0.237500X0.250000X-0.237500X0*%
%ADD23RoundRect,0.288300X-0.237500X0.250000X-0.237500X-0.250000X0.237500X-0.250000X0.237500X0.250000X0*%
%ADD24RoundRect,0.288300X0.237500X-0.250000X0.237500X0.250000X-0.237500X0.250000X-0.237500X-0.250000X0*%
%ADD25RoundRect,0.050800X1.000000X1.900000X-1.000000X1.900000X-1.000000X-1.900000X1.000000X-1.900000X0*%
%ADD26RoundRect,0.050800X1.000000X0.750000X-1.000000X0.750000X-1.000000X-0.750000X1.000000X-0.750000X0*%
%ADD27RoundRect,0.200800X0.150000X-0.587500X0.150000X0.587500X-0.150000X0.587500X-0.150000X-0.587500X0*%
%ADD28RoundRect,0.200800X-0.150000X0.587500X-0.150000X-0.587500X0.150000X-0.587500X0.150000X0.587500X0*%
%ADD29RoundRect,0.050800X0.850000X0.850000X-0.850000X0.850000X-0.850000X-0.850000X0.850000X-0.850000X0*%
%ADD30RoundRect,0.050800X-0.850000X0.850000X-0.850000X-0.850000X0.850000X-0.850000X0.850000X0.850000X0*%
%ADD31RoundRect,0.050800X0.850000X-0.850000X0.850000X0.850000X-0.850000X0.850000X-0.850000X-0.850000X0*%
%ADD32O,1.701600X1.701600*%
%ADD33RoundRect,0.288300X-0.237500X0.300000X-0.237500X-0.300000X0.237500X-0.300000X0.237500X0.300000X0*%
%ADD34RoundRect,0.288300X-0.300000X-0.237500X0.300000X-0.237500X0.300000X0.237500X-0.300000X0.237500X0*%
G04 APERTURE END LIST*
D10*
%TO.C,C16*%
X73660000Y13975000D03*
D11*
X76160000Y13975000D03*
%TD*%
D12*
%TO.C,C9*%
X21590000Y22230000D03*
D11*
X19090000Y22230000D03*
%TD*%
D12*
%TO.C,C3*%
X12065000Y8895000D03*
D11*
X9565000Y8895000D03*
%TD*%
D10*
%TO.C,C1*%
X26670000Y8260000D03*
D11*
X29170000Y8260000D03*
%TD*%
D13*
%TO.C,C14*%
X40005000Y2545000D03*
X40005000Y4270000D03*
%TD*%
D14*
%TO.C,U$2*%
X40640000Y9595000D03*
X39370000Y9595000D03*
X38100000Y9595000D03*
X36830000Y9595000D03*
X36830000Y14545000D03*
X38100000Y14545000D03*
X39370000Y14545000D03*
X40640000Y14545000D03*
%TD*%
D15*
%TO.C,JP6*%
X2540000Y13340000D03*
X2540000Y15880000D03*
X2540000Y18420000D03*
D16*
X2540000Y20960000D03*
%TD*%
D17*
%TO.C,U$1*%
X13605000Y13131900D03*
X14105000Y13131900D03*
X14605000Y13131900D03*
X15105000Y13131900D03*
X15605000Y13131900D03*
D18*
X15605000Y17358100D03*
X15105000Y17358100D03*
X14605000Y17358100D03*
X14105000Y17358100D03*
X13605000Y17358100D03*
%TD*%
D19*
%TO.C,RV2*%
X56505000Y5085000D03*
X53965000Y5085000D03*
X51425000Y5085000D03*
%TD*%
%TO.C,RV1*%
X36840000Y21595000D03*
X39380000Y21595000D03*
X41920000Y21595000D03*
%TD*%
D20*
%TO.C,R20*%
X72667500Y22865000D03*
X70842500Y22865000D03*
%TD*%
D21*
%TO.C,R19*%
X71755000Y7895000D03*
X71755000Y9895000D03*
%TD*%
%TO.C,R18*%
X71755000Y18055000D03*
X71755000Y20055000D03*
%TD*%
D22*
%TO.C,R17*%
X56872500Y21595000D03*
X58697500Y21595000D03*
%TD*%
D23*
%TO.C,R16*%
X59055000Y15602500D03*
X59055000Y17427500D03*
%TD*%
D24*
%TO.C,R15*%
X43180000Y9807500D03*
X43180000Y7982500D03*
%TD*%
D22*
%TO.C,R14*%
X35282500Y25405000D03*
X37107500Y25405000D03*
%TD*%
D23*
%TO.C,R13*%
X37465000Y3537500D03*
X37465000Y5362500D03*
%TD*%
%TO.C,R12*%
X34925000Y3537500D03*
X34925000Y5362500D03*
%TD*%
D20*
%TO.C,R10*%
X32940000Y13975000D03*
X31115000Y13975000D03*
%TD*%
D22*
%TO.C,R8*%
X21670000Y26675000D03*
X23495000Y26675000D03*
%TD*%
%TO.C,R4*%
X19407500Y6355000D03*
X21232500Y6355000D03*
%TD*%
D20*
%TO.C,R1*%
X17422500Y6355000D03*
X15597500Y6355000D03*
%TD*%
D25*
%TO.C,Q4*%
X62255000Y6921600D03*
D26*
X68555000Y9221600D03*
X68555000Y6921600D03*
X68555000Y4621600D03*
%TD*%
D25*
%TO.C,Q3*%
X62255000Y17785000D03*
D26*
X68555000Y20085000D03*
X68555000Y17785000D03*
X68555000Y15485000D03*
%TD*%
D27*
%TO.C,Q2*%
X57785000Y11737500D03*
X58735000Y9862500D03*
X56835000Y9862500D03*
%TD*%
D28*
%TO.C,Q1*%
X53975000Y15577500D03*
X53025000Y17452500D03*
X54925000Y17452500D03*
%TD*%
D15*
%TO.C,JP13*%
X76835000Y5085000D03*
D16*
X76835000Y7625000D03*
%TD*%
D15*
%TO.C,JP12*%
X76835000Y22865000D03*
D29*
X76835000Y20325000D03*
%TD*%
D15*
%TO.C,JP11*%
X46355000Y11435000D03*
X48895000Y11435000D03*
D30*
X51435000Y11435000D03*
%TD*%
D31*
%TO.C,JP10*%
X9901000Y29845000D03*
D15*
X12441000Y29845000D03*
%TD*%
D31*
%TO.C,JP9*%
X43815000Y2545000D03*
D15*
X46355000Y2545000D03*
%TD*%
D31*
%TO.C,JP8*%
X74295000Y29845000D03*
D15*
X76835000Y29845000D03*
%TD*%
D31*
%TO.C,JP7*%
X56510000Y29845000D03*
D15*
X59050000Y29845000D03*
%TD*%
%TO.C,JP5*%
X15870000Y2545000D03*
D31*
X13330000Y2545000D03*
%TD*%
D15*
%TO.C,JP4*%
X2540000Y5085000D03*
D16*
X2540000Y7625000D03*
%TD*%
D15*
%TO.C,JP3*%
X25395000Y2545000D03*
D31*
X22855000Y2545000D03*
%TD*%
D15*
%TO.C,JP2*%
X2540000Y25405000D03*
D16*
X2540000Y27945000D03*
%TD*%
D30*
%TO.C,JP1*%
X19690000Y29845000D03*
D15*
X17150000Y29845000D03*
%TD*%
D32*
%TO.C,D2*%
X46355000Y20325000D03*
D12*
X53975000Y20325000D03*
%TD*%
D32*
%TO.C,D1*%
X53975000Y24135000D03*
D10*
X46355000Y24135000D03*
%TD*%
D33*
%TO.C,C15*%
X31750000Y22002500D03*
X31750000Y23727500D03*
%TD*%
D34*
%TO.C,C12*%
X33247500Y17785000D03*
X31522500Y17785000D03*
%TD*%
%TO.C,C11*%
X14197500Y20960000D03*
X12472500Y20960000D03*
%TD*%
D13*
%TO.C,C8*%
X26035000Y23727500D03*
X26035000Y22002500D03*
%TD*%
D34*
%TO.C,C5*%
X21182500Y9530000D03*
X19457500Y9530000D03*
%TD*%
%TO.C,C4*%
X15875000Y24770000D03*
X14150000Y24770000D03*
%TD*%
%TO.C,C2*%
X17372500Y9530000D03*
X15647500Y9530000D03*
%TD*%
M02*
