M48
; DRILL file {KiCad (6.0.2)} date Wed Apr 20 12:39:06 2022
; FORMAT={-:-/ absolute / inch / decimal}
; #@! TF.CreationDate,2022-04-20T12:39:06-07:00
; #@! TF.GenerationSoftware,Kicad,Pcbnew,(6.0.2)
; #@! TF.FileFunction,Plated,1,2,PTH
FMAT,2
INCH
; #@! TA.AperFunction,Plated,PTH,ViaDrill
T1C0.0100
; #@! TA.AperFunction,Plated,PTH,ViaDrill
T2C0.0200
; #@! TA.AperFunction,Plated,PTH,ComponentDrill
T3C0.0315
; #@! TA.AperFunction,Plated,PTH,ComponentDrill
T4C0.0394
%
G90
G05
T1
X0.7Y0.6752
X0.7Y0.4752
X0.9Y0.6752
X0.9Y0.4752
X1.4Y0.2752
X1.5Y0.6752
X1.575Y0.4752
X1.6Y0.3002
T2
X0.2Y0.08
X0.38Y0.66
X0.4Y0.8252
X0.55Y0.4502
X0.56Y1.06
X0.575Y0.5752
X0.725Y0.32
X1.0Y0.8002
X1.0871Y1.177
X1.12Y1.0
X1.125Y0.8002
X1.22Y0.06
X1.3Y0.8252
X1.32Y0.36
X1.42Y0.64
X1.58Y1.0
X1.76Y0.68
X1.86Y1.16
X1.92Y0.36
X2.02Y0.64
X2.25Y0.6002
X2.375Y0.2752
X2.4Y1.02
X2.4Y0.04
X2.56Y0.52
X2.575Y0.2725
X2.6Y1.16
X2.7Y0.9002
X2.825Y0.1752
T3
X0.3766Y0.3502
X0.475Y0.3502
X0.7516Y0.8752
X0.85Y0.8752
X1.05Y0.3252
X1.1484Y0.3252
X1.4504Y0.8502
X1.5504Y0.8502
X1.6504Y0.8502
X1.825Y0.9502
X1.825Y0.8002
X2.0246Y0.2002
X2.1246Y0.2002
X2.125Y0.9502
X2.125Y0.8002
X2.2246Y0.2002
X2.9Y0.5502
X2.9984Y0.5502
T4
X0.1Y1.1002
X0.1Y1.0002
X0.1Y0.8252
X0.1Y0.7252
X0.1Y0.6252
X0.1Y0.5252
X0.1Y0.3002
X0.1Y0.2002
X0.3898Y1.175
X0.4898Y1.175
X0.5248Y0.1002
X0.6248Y0.1002
X0.6752Y1.175
X0.7752Y1.175
X0.8998Y0.1002
X0.9998Y0.1002
X1.725Y0.1002
X1.825Y0.4502
X1.825Y0.1002
X1.925Y0.4502
X2.025Y0.4502
X2.2248Y1.175
X2.3248Y1.175
X2.925Y1.175
X3.025Y1.175
X3.025Y0.9002
X3.025Y0.8002
X3.025Y0.3002
X3.025Y0.2002
T0
M30
