%TF.GenerationSoftware,KiCad,Pcbnew,(6.0.2)*%
%TF.CreationDate,2022-04-20T12:38:45-07:00*%
%TF.ProjectId,audioModule2,61756469-6f4d-46f6-9475-6c65322e6b69,rev?*%
%TF.SameCoordinates,PX48ab840PY7b89fa0*%
%TF.FileFunction,Copper,L2,Bot*%
%TF.FilePolarity,Positive*%
%FSLAX46Y46*%
G04 Gerber Fmt 4.6, Leading zero omitted, Abs format (unit mm)*
G04 Created by KiCad (PCBNEW (6.0.2)) date 2022-04-20 12:38:45*
%MOMM*%
%LPD*%
G01*
G04 APERTURE LIST*
G04 Aperture macros list*
%AMRoundRect*
0 Rectangle with rounded corners*
0 $1 Rounding radius*
0 $2 $3 $4 $5 $6 $7 $8 $9 X,Y pos of 4 corners*
0 Add a 4 corners polygon primitive as box body*
4,1,4,$2,$3,$4,$5,$6,$7,$8,$9,$2,$3,0*
0 Add four circle primitives for the rounded corners*
1,1,$1+$1,$2,$3*
1,1,$1+$1,$4,$5*
1,1,$1+$1,$6,$7*
1,1,$1+$1,$8,$9*
0 Add four rect primitives between the rounded corners*
20,1,$1+$1,$2,$3,$4,$5,0*
20,1,$1+$1,$4,$5,$6,$7,0*
20,1,$1+$1,$6,$7,$8,$9,0*
20,1,$1+$1,$8,$9,$2,$3,0*%
G04 Aperture macros list end*
%TA.AperFunction,ComponentPad*%
%ADD10R,1.600000X1.600000*%
%TD*%
%TA.AperFunction,ComponentPad*%
%ADD11C,1.600000*%
%TD*%
%TA.AperFunction,ComponentPad*%
%ADD12O,1.700000X1.700000*%
%TD*%
%TA.AperFunction,ComponentPad*%
%ADD13R,1.700000X1.700000*%
%TD*%
%TA.AperFunction,ComponentPad*%
%ADD14C,1.440000*%
%TD*%
%TA.AperFunction,SMDPad,CuDef*%
%ADD15RoundRect,0.237500X0.237500X-0.250000X0.237500X0.250000X-0.237500X0.250000X-0.237500X-0.250000X0*%
%TD*%
%TA.AperFunction,SMDPad,CuDef*%
%ADD16RoundRect,0.237500X-0.237500X0.250000X-0.237500X-0.250000X0.237500X-0.250000X0.237500X0.250000X0*%
%TD*%
%TA.AperFunction,ComponentPad*%
%ADD17O,1.600000X1.600000*%
%TD*%
%TA.AperFunction,SMDPad,CuDef*%
%ADD18RoundRect,0.237500X-0.237500X0.300000X-0.237500X-0.300000X0.237500X-0.300000X0.237500X0.300000X0*%
%TD*%
%TA.AperFunction,ViaPad*%
%ADD19C,0.762000*%
%TD*%
%TA.AperFunction,ViaPad*%
%ADD20C,0.508000*%
%TD*%
%TA.AperFunction,Conductor*%
%ADD21C,0.304800*%
%TD*%
%TA.AperFunction,Conductor*%
%ADD22C,0.254000*%
%TD*%
%TA.AperFunction,Conductor*%
%ADD23C,0.406400*%
%TD*%
%TA.AperFunction,Conductor*%
%ADD24C,0.609600*%
%TD*%
G04 APERTURE END LIST*
D10*
%TO.P,C16,1,+*%
%TO.N,Net-(C16-Pad1)*%
X73660000Y13975000D03*
D11*
%TO.P,C16,2,-*%
%TO.N,Net-(C16-Pad2)*%
X76160000Y13975000D03*
%TD*%
D10*
%TO.P,C9,1,+*%
%TO.N,Net-(C8-Pad2)*%
X21590000Y22230000D03*
D11*
%TO.P,C9,2,-*%
%TO.N,GND*%
X19090000Y22230000D03*
%TD*%
D10*
%TO.P,C3,1,+*%
%TO.N,Net-(C2-Pad1)*%
X12065000Y8895000D03*
D11*
%TO.P,C3,2,-*%
%TO.N,GND*%
X9565000Y8895000D03*
%TD*%
D10*
%TO.P,C1,1,+*%
%TO.N,/VCC5*%
X26670000Y8260000D03*
D11*
%TO.P,C1,2,-*%
%TO.N,GND*%
X29170000Y8260000D03*
%TD*%
D12*
%TO.P,JP6,4,4*%
%TO.N,/SSB*%
X2540000Y13340000D03*
%TO.P,JP6,3,3*%
%TO.N,GND*%
X2540000Y15880000D03*
%TO.P,JP6,2,2*%
%TO.N,/CW*%
X2540000Y18420000D03*
D13*
%TO.P,JP6,1,1*%
%TO.N,GND*%
X2540000Y20960000D03*
%TD*%
D14*
%TO.P,RV2,3,3*%
%TO.N,Net-(Q2-Pad2)*%
X56505000Y5085000D03*
%TO.P,RV2,2,2*%
%TO.N,Net-(Q2-Pad1)*%
X53965000Y5085000D03*
%TO.P,RV2,1,1*%
%TO.N,Net-(Q1-Pad3)*%
X51425000Y5085000D03*
%TD*%
%TO.P,RV1,3,3*%
%TO.N,Net-(R14-Pad1)*%
X36840000Y21595000D03*
%TO.P,RV1,2,2*%
%TO.N,Net-(RV1-Pad1)*%
X39380000Y21595000D03*
%TO.P,RV1,1,1*%
X41920000Y21595000D03*
%TD*%
D15*
%TO.P,R11,2,2*%
%TO.N,Net-(C13-Pad2)*%
X33020000Y15245000D03*
%TO.P,R11,1,1*%
%TO.N,Net-(C10-Pad2)*%
X33020000Y13420000D03*
%TD*%
%TO.P,R9,2,2*%
%TO.N,Net-(C10-Pad2)*%
X29845000Y15245000D03*
%TO.P,R9,1,1*%
%TO.N,Net-(C7-Pad2)*%
X29845000Y13420000D03*
%TD*%
%TO.P,R7,2,2*%
%TO.N,Net-(C7-Pad2)*%
X26670000Y15245000D03*
%TO.P,R7,1,1*%
%TO.N,Net-(C6-Pad1)*%
X26670000Y13420000D03*
%TD*%
D16*
%TO.P,R6,2,2*%
%TO.N,Net-(C6-Pad1)*%
X24130000Y17230000D03*
%TO.P,R6,1,1*%
%TO.N,GND*%
X24130000Y19055000D03*
%TD*%
%TO.P,R5,2,2*%
%TO.N,Net-(C4-Pad2)*%
X24130000Y13420000D03*
%TO.P,R5,1,1*%
%TO.N,Net-(C6-Pad1)*%
X24130000Y15245000D03*
%TD*%
%TO.P,R3,2,2*%
%TO.N,GND*%
X9525000Y1632500D03*
%TO.P,R3,1,1*%
%TO.N,/MUTE*%
X9525000Y3457500D03*
%TD*%
%TO.P,R2,2,2*%
%TO.N,GND*%
X6985000Y3260000D03*
%TO.P,R2,1,1*%
%TO.N,/FILTER_SEL*%
X6985000Y5085000D03*
%TD*%
D12*
%TO.P,JP13,2,2*%
%TO.N,GND*%
X76835000Y5085000D03*
D13*
%TO.P,JP13,1,1*%
%TO.N,Net-(C16-Pad2)*%
X76835000Y7625000D03*
%TD*%
D12*
%TO.P,JP12,2,2*%
%TO.N,GND*%
X76835000Y22865000D03*
D13*
%TO.P,JP12,1,1*%
%TO.N,Net-(C16-Pad2)*%
X76835000Y20325000D03*
%TD*%
D12*
%TO.P,JP11,3,3*%
%TO.N,Net-(JP11-Pad2)*%
X46355000Y11435000D03*
%TO.P,JP11,2,2*%
X48895000Y11435000D03*
D13*
%TO.P,JP11,1,1*%
%TO.N,Net-(C16-Pad1)*%
X51435000Y11435000D03*
%TD*%
%TO.P,JP10,1,1*%
%TO.N,GND*%
X9901000Y29845000D03*
D12*
%TO.P,JP10,2,2*%
X12441000Y29845000D03*
%TD*%
D13*
%TO.P,JP9,1,1*%
%TO.N,GND*%
X43815000Y2545000D03*
D12*
%TO.P,JP9,2,2*%
X46355000Y2545000D03*
%TD*%
D13*
%TO.P,JP8,1,1*%
%TO.N,GND*%
X74295000Y29845000D03*
D12*
%TO.P,JP8,2,2*%
X76835000Y29845000D03*
%TD*%
D13*
%TO.P,JP7,1,1*%
%TO.N,GND*%
X56510000Y29845000D03*
D12*
%TO.P,JP7,2,2*%
X59050000Y29845000D03*
%TD*%
%TO.P,JP5,2,2*%
%TO.N,GND*%
X15870000Y2545000D03*
D13*
%TO.P,JP5,1,1*%
%TO.N,/MUTE*%
X13330000Y2545000D03*
%TD*%
D12*
%TO.P,JP4,2,2*%
%TO.N,GND*%
X2540000Y5085000D03*
D13*
%TO.P,JP4,1,1*%
%TO.N,/FILTER_SEL*%
X2540000Y7625000D03*
%TD*%
D12*
%TO.P,JP3,2,2*%
%TO.N,GND*%
X25395000Y2545000D03*
D13*
%TO.P,JP3,1,1*%
%TO.N,/VCC5*%
X22855000Y2545000D03*
%TD*%
D12*
%TO.P,JP2,2,2*%
%TO.N,GND*%
X2540000Y25405000D03*
D13*
%TO.P,JP2,1,1*%
%TO.N,Net-(C6-Pad2)*%
X2540000Y27945000D03*
%TD*%
%TO.P,JP1,1,1*%
%TO.N,Net-(C4-Pad2)*%
X19690000Y29845000D03*
D12*
%TO.P,JP1,2,2*%
%TO.N,GND*%
X17150000Y29845000D03*
%TD*%
D17*
%TO.P,D2,2,A*%
%TO.N,Net-(D1-Pad1)*%
X46355000Y20325000D03*
D10*
%TO.P,D2,1,K*%
%TO.N,Net-(D2-Pad1)*%
X53975000Y20325000D03*
%TD*%
D17*
%TO.P,D1,2,A*%
%TO.N,Net-(C8-Pad2)*%
X53975000Y24135000D03*
D10*
%TO.P,D1,1,K*%
%TO.N,Net-(D1-Pad1)*%
X46355000Y24135000D03*
%TD*%
D18*
%TO.P,C13,2,2*%
%TO.N,Net-(C13-Pad2)*%
X33020000Y17507500D03*
%TO.P,C13,1,1*%
%TO.N,GND*%
X33020000Y19232500D03*
%TD*%
%TO.P,C10,2,2*%
%TO.N,Net-(C10-Pad2)*%
X29845000Y17507500D03*
%TO.P,C10,1,1*%
%TO.N,GND*%
X29845000Y19232500D03*
%TD*%
%TO.P,C7,2,2*%
%TO.N,Net-(C7-Pad2)*%
X26670000Y17507500D03*
%TO.P,C7,1,1*%
%TO.N,GND*%
X26670000Y19232500D03*
%TD*%
%TO.P,C6,2,2*%
%TO.N,Net-(C6-Pad2)*%
X20955000Y13470000D03*
%TO.P,C6,1,1*%
%TO.N,Net-(C6-Pad1)*%
X20955000Y15195000D03*
%TD*%
D19*
%TO.N,GND*%
X5080000Y2032000D03*
X48768000Y9144000D03*
X51308000Y16256000D03*
X60960000Y1016000D03*
X65024000Y13208000D03*
X40132000Y25400000D03*
X44704000Y17272000D03*
X33528000Y9144000D03*
X30988000Y1524000D03*
X9652000Y16764000D03*
X14224000Y26924000D03*
X28448000Y25400000D03*
X27611310Y29895219D03*
X47244000Y29464000D03*
X66040000Y29464000D03*
X60960000Y25908000D03*
X10160000Y20960000D03*
X13970000Y11435000D03*
X14605000Y14610000D03*
X36068000Y16256000D03*
X68580000Y22865000D03*
X71755000Y4450000D03*
X60325000Y6990000D03*
X65405000Y6921600D03*
X57150000Y15245000D03*
X33020000Y20960000D03*
X28575000Y20325000D03*
X25400000Y20325000D03*
X18415000Y8128000D03*
D20*
%TO.N,Net-(C4-Pad2)*%
X22860000Y12070000D03*
%TO.N,Net-(R10-Pad1)*%
X22860000Y17150000D03*
X17780000Y17150000D03*
%TO.N,/MUTE*%
X17780000Y12070000D03*
%TO.N,Net-(C8-Pad2)*%
X35560000Y6990000D03*
X40640000Y7625000D03*
%TO.N,Net-(Q2-Pad2)*%
X40005000Y12070000D03*
%TO.N,Net-(C13-Pad2)*%
X38100000Y17150000D03*
%TD*%
D21*
%TO.N,Net-(C4-Pad2)*%
X24130000Y13340000D02*
X22860000Y12070000D01*
X24130000Y13420000D02*
X24130000Y13340000D01*
%TO.N,Net-(R10-Pad1)*%
X17780000Y17150000D02*
X22860000Y17150000D01*
%TO.N,Net-(C6-Pad2)*%
X6985000Y26040000D02*
X6985000Y15245000D01*
X5080000Y27945000D02*
X6985000Y26040000D01*
X6985000Y15245000D02*
X8760000Y13470000D01*
X8760000Y13470000D02*
X20955000Y13470000D01*
X2540000Y27945000D02*
X5080000Y27945000D01*
%TO.N,/MUTE*%
X17780000Y9530000D02*
X17780000Y12070000D01*
X17145000Y8895000D02*
X17780000Y9530000D01*
X13330000Y2545000D02*
X13330000Y5080000D01*
X13330000Y5080000D02*
X17145000Y8895000D01*
D22*
X9882500Y3815000D02*
X9525000Y3457500D01*
X10795000Y3815000D02*
X9882500Y3815000D01*
X12065000Y2545000D02*
X10795000Y3815000D01*
X13330000Y2545000D02*
X12065000Y2545000D01*
D21*
%TO.N,/FILTER_SEL*%
X4445000Y7625000D02*
X2540000Y7625000D01*
X6985000Y5085000D02*
X4445000Y7625000D01*
%TO.N,Net-(C6-Pad1)*%
X21005000Y15245000D02*
X20955000Y15195000D01*
X24130000Y15245000D02*
X21005000Y15245000D01*
X24130000Y15245000D02*
X24130000Y17230000D01*
X24765000Y15245000D02*
X24130000Y15245000D01*
X26590000Y13420000D02*
X24765000Y15245000D01*
X26670000Y13420000D02*
X26590000Y13420000D01*
%TO.N,Net-(C7-Pad2)*%
X26670000Y15245000D02*
X26670000Y17507500D01*
X29765000Y13420000D02*
X27940000Y15245000D01*
X27940000Y15245000D02*
X26670000Y15245000D01*
X29845000Y13420000D02*
X29765000Y13420000D01*
%TO.N,Net-(C10-Pad2)*%
X29845000Y15245000D02*
X29845000Y17507500D01*
X31195000Y15245000D02*
X29845000Y15245000D01*
X33020000Y13420000D02*
X31195000Y15245000D01*
D23*
%TO.N,Net-(C8-Pad2)*%
X40005000Y6990000D02*
X40640000Y7625000D01*
X35560000Y6990000D02*
X40005000Y6990000D01*
%TO.N,Net-(Q2-Pad2)*%
X41275000Y12070000D02*
X40005000Y12070000D01*
X45720000Y7625000D02*
X41275000Y12070000D01*
X56505000Y6365000D02*
X55245000Y7625000D01*
X56505000Y5085000D02*
X56505000Y6365000D01*
X55245000Y7625000D02*
X45720000Y7625000D01*
%TO.N,Net-(C13-Pad2)*%
X33020000Y17507500D02*
X33020000Y15245000D01*
X38100000Y17150000D02*
X33377500Y17150000D01*
X33377500Y17150000D02*
X33020000Y17507500D01*
D24*
%TO.N,Net-(C16-Pad1)*%
X71120000Y11435000D02*
X73660000Y13975000D01*
X51435000Y11435000D02*
X71120000Y11435000D01*
%TD*%
%TA.AperFunction,Conductor*%
%TO.N,GND*%
G36*
X79063121Y32110998D02*
G01*
X79109614Y32057342D01*
X79121000Y32005000D01*
X79121000Y380000D01*
X79100998Y311879D01*
X79047342Y265386D01*
X78995000Y254000D01*
X380000Y254000D01*
X311879Y274002D01*
X265386Y327658D01*
X254000Y380000D01*
X254000Y1336234D01*
X8542000Y1336234D01*
X8542337Y1329718D01*
X8552075Y1235868D01*
X8554968Y1222472D01*
X8605488Y1071047D01*
X8611653Y1057885D01*
X8695426Y922508D01*
X8704460Y911110D01*
X8817129Y798637D01*
X8828540Y789625D01*
X8964063Y706088D01*
X8977241Y699944D01*
X9128766Y649685D01*
X9142132Y646819D01*
X9234770Y637328D01*
X9241185Y637000D01*
X9252885Y637000D01*
X9268124Y641475D01*
X9269329Y642865D01*
X9271000Y650548D01*
X9271000Y655115D01*
X9779000Y655115D01*
X9783475Y639876D01*
X9784865Y638671D01*
X9792548Y637000D01*
X9808766Y637000D01*
X9815282Y637337D01*
X9909132Y647075D01*
X9922528Y649968D01*
X10073953Y700488D01*
X10087115Y706653D01*
X10222492Y790426D01*
X10233890Y799460D01*
X10346363Y912129D01*
X10355375Y923540D01*
X10438912Y1059063D01*
X10445056Y1072241D01*
X10495315Y1223766D01*
X10498181Y1237132D01*
X10507672Y1329770D01*
X10508000Y1336185D01*
X10508000Y1360385D01*
X10503525Y1375624D01*
X10502135Y1376829D01*
X10494452Y1378500D01*
X9797115Y1378500D01*
X9781876Y1374025D01*
X9780671Y1372635D01*
X9779000Y1364952D01*
X9779000Y655115D01*
X9271000Y655115D01*
X9271000Y1360385D01*
X9266525Y1375624D01*
X9265135Y1376829D01*
X9257452Y1378500D01*
X8560115Y1378500D01*
X8544876Y1374025D01*
X8543671Y1372635D01*
X8542000Y1364952D01*
X8542000Y1336234D01*
X254000Y1336234D01*
X254000Y1904615D01*
X8542000Y1904615D01*
X8546475Y1889376D01*
X8547865Y1888171D01*
X8555548Y1886500D01*
X10489885Y1886500D01*
X10505124Y1890975D01*
X10506329Y1892365D01*
X10508000Y1900048D01*
X10508000Y1928766D01*
X10507663Y1935282D01*
X10497925Y2029132D01*
X10495032Y2042528D01*
X10444512Y2193953D01*
X10438347Y2207115D01*
X10354574Y2342492D01*
X10345540Y2353890D01*
X10232871Y2466363D01*
X10221460Y2475375D01*
X10085937Y2558912D01*
X10072764Y2565054D01*
X10060956Y2568971D01*
X10002597Y2609403D01*
X9975361Y2674967D01*
X9987895Y2744849D01*
X10025060Y2789389D01*
X10113974Y2856026D01*
X10198493Y2968801D01*
X10202364Y2979125D01*
X10245190Y3093365D01*
X10247964Y3100764D01*
X10254500Y3160930D01*
X10254500Y3307500D01*
X10274502Y3375621D01*
X10328158Y3422114D01*
X10380500Y3433500D01*
X10584788Y3433500D01*
X10652909Y3413498D01*
X10673883Y3396595D01*
X11756958Y2313520D01*
X11772311Y2294511D01*
X11773278Y2293448D01*
X11778929Y2284696D01*
X11797108Y2270365D01*
X11805472Y2263771D01*
X11809950Y2259792D01*
X11810010Y2259863D01*
X11813967Y2256510D01*
X11817648Y2252829D01*
X11821880Y2249805D01*
X11821882Y2249803D01*
X11833457Y2241531D01*
X11838202Y2237968D01*
X11878670Y2206066D01*
X11887355Y2203016D01*
X11894842Y2197666D01*
X11944247Y2182891D01*
X11949842Y2181073D01*
X11998502Y2163984D01*
X12004091Y2163500D01*
X12006804Y2163500D01*
X12009469Y2163385D01*
X12009532Y2163366D01*
X12009525Y2163192D01*
X12010271Y2163145D01*
X12016524Y2161275D01*
X12066383Y2163234D01*
X12070678Y2163403D01*
X12075625Y2163500D01*
X12099501Y2163500D01*
X12167622Y2143498D01*
X12214115Y2089842D01*
X12225501Y2037500D01*
X12225501Y1669934D01*
X12240266Y1595699D01*
X12247161Y1585380D01*
X12247162Y1585378D01*
X12287516Y1524985D01*
X12296516Y1511516D01*
X12380699Y1455266D01*
X12454933Y1440500D01*
X13329858Y1440500D01*
X14205066Y1440501D01*
X14240818Y1447612D01*
X14267126Y1452844D01*
X14267128Y1452845D01*
X14279301Y1455266D01*
X14289621Y1462161D01*
X14289622Y1462162D01*
X14353168Y1504623D01*
X14363484Y1511516D01*
X14419734Y1595699D01*
X14434500Y1669933D01*
X14434500Y1841572D01*
X14454502Y1909693D01*
X14508158Y1956186D01*
X14578432Y1966290D01*
X14643012Y1936796D01*
X14667933Y1907407D01*
X14767694Y1744612D01*
X14773777Y1736301D01*
X14913213Y1575333D01*
X14920580Y1568117D01*
X15084434Y1432084D01*
X15092881Y1426169D01*
X15276756Y1318721D01*
X15286042Y1314271D01*
X15485001Y1238297D01*
X15494899Y1235421D01*
X15598250Y1214394D01*
X15612299Y1215590D01*
X15616000Y1225935D01*
X15616000Y1226483D01*
X16124000Y1226483D01*
X16128064Y1212641D01*
X16141478Y1210607D01*
X16148184Y1211466D01*
X16158262Y1213608D01*
X16362255Y1274809D01*
X16371842Y1278567D01*
X16563095Y1372261D01*
X16571945Y1377536D01*
X16745328Y1501208D01*
X16753200Y1507861D01*
X16904052Y1658188D01*
X16910730Y1666035D01*
X17035003Y1838980D01*
X17040313Y1847817D01*
X17134670Y2038733D01*
X17138469Y2048328D01*
X17200377Y2252090D01*
X17202555Y2262163D01*
X17203986Y2273038D01*
X17201775Y2287222D01*
X17188617Y2291000D01*
X16142115Y2291000D01*
X16126876Y2286525D01*
X16125671Y2285135D01*
X16124000Y2277452D01*
X16124000Y1226483D01*
X15616000Y1226483D01*
X15616000Y2817115D01*
X16124000Y2817115D01*
X16128475Y2801876D01*
X16129865Y2800671D01*
X16137548Y2799000D01*
X17188344Y2799000D01*
X17201875Y2802973D01*
X17203180Y2812053D01*
X17161214Y2979125D01*
X17157894Y2988876D01*
X17072972Y3184186D01*
X17068105Y3193261D01*
X16952426Y3372074D01*
X16946136Y3380243D01*
X16909899Y3420067D01*
X21750500Y3420067D01*
X21750501Y1669934D01*
X21765266Y1595699D01*
X21772161Y1585380D01*
X21772162Y1585378D01*
X21812516Y1524985D01*
X21821516Y1511516D01*
X21905699Y1455266D01*
X21979933Y1440500D01*
X22854858Y1440500D01*
X23730066Y1440501D01*
X23765818Y1447612D01*
X23792126Y1452844D01*
X23792128Y1452845D01*
X23804301Y1455266D01*
X23814621Y1462161D01*
X23814622Y1462162D01*
X23878168Y1504623D01*
X23888484Y1511516D01*
X23944734Y1595699D01*
X23959500Y1669933D01*
X23959500Y1841572D01*
X23979502Y1909693D01*
X24033158Y1956186D01*
X24103432Y1966290D01*
X24168012Y1936796D01*
X24192933Y1907407D01*
X24292694Y1744612D01*
X24298777Y1736301D01*
X24438213Y1575333D01*
X24445580Y1568117D01*
X24609434Y1432084D01*
X24617881Y1426169D01*
X24801756Y1318721D01*
X24811042Y1314271D01*
X25010001Y1238297D01*
X25019899Y1235421D01*
X25123250Y1214394D01*
X25137299Y1215590D01*
X25141000Y1225935D01*
X25141000Y1226483D01*
X25649000Y1226483D01*
X25653064Y1212641D01*
X25666478Y1210607D01*
X25673184Y1211466D01*
X25683262Y1213608D01*
X25887255Y1274809D01*
X25896842Y1278567D01*
X26088095Y1372261D01*
X26096945Y1377536D01*
X26270328Y1501208D01*
X26278200Y1507861D01*
X26421168Y1650331D01*
X42457001Y1650331D01*
X42457371Y1643510D01*
X42462895Y1592648D01*
X42466521Y1577396D01*
X42511676Y1456946D01*
X42520214Y1441351D01*
X42596715Y1339276D01*
X42609276Y1326715D01*
X42711351Y1250214D01*
X42726946Y1241676D01*
X42847394Y1196522D01*
X42862649Y1192895D01*
X42913514Y1187369D01*
X42920328Y1187000D01*
X43542885Y1187000D01*
X43558124Y1191475D01*
X43559329Y1192865D01*
X43561000Y1200548D01*
X43561000Y1205116D01*
X44069000Y1205116D01*
X44073475Y1189877D01*
X44074865Y1188672D01*
X44082548Y1187001D01*
X44709669Y1187001D01*
X44716490Y1187371D01*
X44767352Y1192895D01*
X44782604Y1196521D01*
X44903054Y1241676D01*
X44918649Y1250214D01*
X45020724Y1326715D01*
X45033285Y1339276D01*
X45109786Y1441351D01*
X45118325Y1456948D01*
X45159425Y1566582D01*
X45202066Y1623347D01*
X45268628Y1648047D01*
X45337977Y1632840D01*
X45372645Y1604850D01*
X45398219Y1575326D01*
X45405580Y1568117D01*
X45569434Y1432084D01*
X45577881Y1426169D01*
X45761756Y1318721D01*
X45771042Y1314271D01*
X45970001Y1238297D01*
X45979899Y1235421D01*
X46083250Y1214394D01*
X46097299Y1215590D01*
X46101000Y1225935D01*
X46101000Y1226483D01*
X46609000Y1226483D01*
X46613064Y1212641D01*
X46626478Y1210607D01*
X46633184Y1211466D01*
X46643262Y1213608D01*
X46847255Y1274809D01*
X46856842Y1278567D01*
X47048095Y1372261D01*
X47056945Y1377536D01*
X47230328Y1501208D01*
X47238200Y1507861D01*
X47389052Y1658188D01*
X47395730Y1666035D01*
X47520003Y1838980D01*
X47525313Y1847817D01*
X47619670Y2038733D01*
X47623469Y2048328D01*
X47685377Y2252090D01*
X47687555Y2262163D01*
X47688986Y2273038D01*
X47686775Y2287222D01*
X47673617Y2291000D01*
X46627115Y2291000D01*
X46611876Y2286525D01*
X46610671Y2285135D01*
X46609000Y2277452D01*
X46609000Y1226483D01*
X46101000Y1226483D01*
X46101000Y2272885D01*
X46096525Y2288124D01*
X46095135Y2289329D01*
X46087452Y2291000D01*
X44087115Y2291000D01*
X44071876Y2286525D01*
X44070671Y2285135D01*
X44069000Y2277452D01*
X44069000Y1205116D01*
X43561000Y1205116D01*
X43561000Y2272885D01*
X43556525Y2288124D01*
X43555135Y2289329D01*
X43547452Y2291000D01*
X42475116Y2291000D01*
X42459877Y2286525D01*
X42458672Y2285135D01*
X42457001Y2277452D01*
X42457001Y1650331D01*
X26421168Y1650331D01*
X26429052Y1658188D01*
X26435730Y1666035D01*
X26560003Y1838980D01*
X26565313Y1847817D01*
X26659670Y2038733D01*
X26663469Y2048328D01*
X26725377Y2252090D01*
X26727555Y2262163D01*
X26728986Y2273038D01*
X26726775Y2287222D01*
X26713617Y2291000D01*
X25667115Y2291000D01*
X25651876Y2286525D01*
X25650671Y2285135D01*
X25649000Y2277452D01*
X25649000Y1226483D01*
X25141000Y1226483D01*
X25141000Y2817115D01*
X25649000Y2817115D01*
X25653475Y2801876D01*
X25654865Y2800671D01*
X25662548Y2799000D01*
X26713344Y2799000D01*
X26726875Y2802973D01*
X26728180Y2812053D01*
X26726909Y2817115D01*
X42457000Y2817115D01*
X42461475Y2801876D01*
X42462865Y2800671D01*
X42470548Y2799000D01*
X43542885Y2799000D01*
X43558124Y2803475D01*
X43559329Y2804865D01*
X43561000Y2812548D01*
X43561000Y2817115D01*
X44069000Y2817115D01*
X44073475Y2801876D01*
X44074865Y2800671D01*
X44082548Y2799000D01*
X46082885Y2799000D01*
X46098124Y2803475D01*
X46099329Y2804865D01*
X46101000Y2812548D01*
X46101000Y2817115D01*
X46609000Y2817115D01*
X46613475Y2801876D01*
X46614865Y2800671D01*
X46622548Y2799000D01*
X47673344Y2799000D01*
X47686875Y2802973D01*
X47688180Y2812053D01*
X47646214Y2979125D01*
X47642894Y2988876D01*
X47557972Y3184186D01*
X47553105Y3193261D01*
X47437426Y3372074D01*
X47431136Y3380243D01*
X47287806Y3537760D01*
X47280273Y3544785D01*
X47113139Y3676778D01*
X47104552Y3682483D01*
X46918117Y3785401D01*
X46908705Y3789631D01*
X46707959Y3860720D01*
X46697988Y3863354D01*
X46626837Y3876028D01*
X46613540Y3874568D01*
X46609000Y3860011D01*
X46609000Y2817115D01*
X46101000Y2817115D01*
X46101000Y3861898D01*
X46097082Y3875242D01*
X46082806Y3877229D01*
X46044324Y3871340D01*
X46034288Y3868949D01*
X45831868Y3802788D01*
X45822359Y3798791D01*
X45633463Y3700458D01*
X45624738Y3694964D01*
X45454433Y3567095D01*
X45446726Y3560252D01*
X45369094Y3479015D01*
X45307570Y3443585D01*
X45236657Y3447042D01*
X45178871Y3488288D01*
X45160018Y3521836D01*
X45118324Y3633054D01*
X45109786Y3648649D01*
X45033285Y3750724D01*
X45020724Y3763285D01*
X44918649Y3839786D01*
X44903054Y3848324D01*
X44782606Y3893478D01*
X44767351Y3897105D01*
X44716486Y3902631D01*
X44709672Y3903000D01*
X44087115Y3903000D01*
X44071876Y3898525D01*
X44070671Y3897135D01*
X44069000Y3889452D01*
X44069000Y2817115D01*
X43561000Y2817115D01*
X43561000Y3884884D01*
X43556525Y3900123D01*
X43555135Y3901328D01*
X43547452Y3902999D01*
X42920331Y3902999D01*
X42913510Y3902629D01*
X42862648Y3897105D01*
X42847396Y3893479D01*
X42726946Y3848324D01*
X42711351Y3839786D01*
X42609276Y3763285D01*
X42596715Y3750724D01*
X42520214Y3648649D01*
X42511676Y3633054D01*
X42466522Y3512606D01*
X42462895Y3497351D01*
X42457369Y3446486D01*
X42457000Y3439672D01*
X42457000Y2817115D01*
X26726909Y2817115D01*
X26686214Y2979125D01*
X26682894Y2988876D01*
X26597972Y3184186D01*
X26593105Y3193261D01*
X26477426Y3372074D01*
X26471136Y3380243D01*
X26327806Y3537760D01*
X26320273Y3544785D01*
X26153139Y3676778D01*
X26144552Y3682483D01*
X25958117Y3785401D01*
X25948705Y3789631D01*
X25747959Y3860720D01*
X25737988Y3863354D01*
X25666837Y3876028D01*
X25653540Y3874568D01*
X25649000Y3860011D01*
X25649000Y2817115D01*
X25141000Y2817115D01*
X25141000Y3861898D01*
X25137082Y3875242D01*
X25122806Y3877229D01*
X25084324Y3871340D01*
X25074288Y3868949D01*
X24871868Y3802788D01*
X24862359Y3798791D01*
X24673463Y3700458D01*
X24664738Y3694964D01*
X24494433Y3567095D01*
X24486726Y3560252D01*
X24339590Y3406283D01*
X24333104Y3398273D01*
X24213098Y3222351D01*
X24208000Y3213377D01*
X24199787Y3195684D01*
X24152963Y3142317D01*
X24084720Y3122736D01*
X24016724Y3143159D01*
X23970564Y3197101D01*
X23959499Y3248734D01*
X23959499Y3420066D01*
X23952388Y3455818D01*
X23947156Y3482126D01*
X23947155Y3482128D01*
X23944734Y3494301D01*
X23931572Y3514000D01*
X23895377Y3568168D01*
X23888484Y3578484D01*
X23804301Y3634734D01*
X23730067Y3649500D01*
X22855142Y3649500D01*
X21979934Y3649499D01*
X21944182Y3642388D01*
X21917874Y3637156D01*
X21917872Y3637155D01*
X21905699Y3634734D01*
X21895379Y3627839D01*
X21895378Y3627838D01*
X21834985Y3587484D01*
X21821516Y3578484D01*
X21765266Y3494301D01*
X21750500Y3420067D01*
X16909899Y3420067D01*
X16802806Y3537760D01*
X16795273Y3544785D01*
X16628139Y3676778D01*
X16619552Y3682483D01*
X16433117Y3785401D01*
X16423705Y3789631D01*
X16222959Y3860720D01*
X16212988Y3863354D01*
X16141837Y3876028D01*
X16128540Y3874568D01*
X16124000Y3860011D01*
X16124000Y2817115D01*
X15616000Y2817115D01*
X15616000Y3861898D01*
X15612082Y3875242D01*
X15597806Y3877229D01*
X15559324Y3871340D01*
X15549288Y3868949D01*
X15346868Y3802788D01*
X15337359Y3798791D01*
X15148463Y3700458D01*
X15139738Y3694964D01*
X14969433Y3567095D01*
X14961726Y3560252D01*
X14814590Y3406283D01*
X14808104Y3398273D01*
X14688098Y3222351D01*
X14683000Y3213377D01*
X14674787Y3195684D01*
X14627963Y3142317D01*
X14559720Y3122736D01*
X14491724Y3143159D01*
X14445564Y3197101D01*
X14434499Y3248734D01*
X14434499Y3420066D01*
X14427388Y3455818D01*
X14422156Y3482126D01*
X14422155Y3482128D01*
X14419734Y3494301D01*
X14406572Y3514000D01*
X14370377Y3568168D01*
X14363484Y3578484D01*
X14279301Y3634734D01*
X14205067Y3649500D01*
X13862900Y3649500D01*
X13794779Y3669502D01*
X13748286Y3723158D01*
X13736900Y3775500D01*
X13736900Y4859267D01*
X13756902Y4927388D01*
X13773805Y4948362D01*
X13924115Y5098672D01*
X50445880Y5098672D01*
X50461872Y4908233D01*
X50514549Y4724527D01*
X50517367Y4719045D01*
X50517368Y4719041D01*
X50599085Y4560037D01*
X50599088Y4560033D01*
X50601905Y4554551D01*
X50720612Y4404780D01*
X50725306Y4400785D01*
X50773292Y4359946D01*
X50866149Y4280918D01*
X50871527Y4277912D01*
X50871529Y4277911D01*
X50911733Y4255442D01*
X51032972Y4187684D01*
X51214728Y4128628D01*
X51404493Y4106000D01*
X51410628Y4106472D01*
X51410630Y4106472D01*
X51474393Y4111378D01*
X51595039Y4120661D01*
X51779108Y4172055D01*
X51789092Y4177098D01*
X51944189Y4255442D01*
X51944191Y4255443D01*
X51949690Y4258221D01*
X52100286Y4375880D01*
X52104312Y4380544D01*
X52104315Y4380547D01*
X52221134Y4515884D01*
X52225161Y4520549D01*
X52272968Y4604705D01*
X52316514Y4681360D01*
X52316515Y4681361D01*
X52319557Y4686717D01*
X52379881Y4868056D01*
X52403833Y5057659D01*
X52404215Y5085000D01*
X52402874Y5098672D01*
X52985880Y5098672D01*
X53001872Y4908233D01*
X53054549Y4724527D01*
X53057367Y4719045D01*
X53057368Y4719041D01*
X53139085Y4560037D01*
X53139088Y4560033D01*
X53141905Y4554551D01*
X53260612Y4404780D01*
X53265306Y4400785D01*
X53313292Y4359946D01*
X53406149Y4280918D01*
X53411527Y4277912D01*
X53411529Y4277911D01*
X53451733Y4255442D01*
X53572972Y4187684D01*
X53754728Y4128628D01*
X53944493Y4106000D01*
X53950628Y4106472D01*
X53950630Y4106472D01*
X54014393Y4111378D01*
X54135039Y4120661D01*
X54319108Y4172055D01*
X54329092Y4177098D01*
X54484189Y4255442D01*
X54484191Y4255443D01*
X54489690Y4258221D01*
X54640286Y4375880D01*
X54644312Y4380544D01*
X54644315Y4380547D01*
X54761134Y4515884D01*
X54765161Y4520549D01*
X54812968Y4604705D01*
X54856514Y4681360D01*
X54856515Y4681361D01*
X54859557Y4686717D01*
X54919881Y4868056D01*
X54943833Y5057659D01*
X54944215Y5085000D01*
X54925566Y5275197D01*
X54870329Y5458150D01*
X54780609Y5626889D01*
X54776719Y5631659D01*
X54776716Y5631663D01*
X54663717Y5770213D01*
X54663714Y5770216D01*
X54659822Y5774988D01*
X54512570Y5896806D01*
X54344461Y5987702D01*
X54161899Y6044215D01*
X54155781Y6044858D01*
X54155776Y6044859D01*
X53977965Y6063547D01*
X53977963Y6063547D01*
X53971836Y6064191D01*
X53892644Y6056984D01*
X53787652Y6047429D01*
X53787649Y6047428D01*
X53781513Y6046870D01*
X53775607Y6045132D01*
X53775603Y6045131D01*
X53691946Y6020509D01*
X53598180Y5992912D01*
X53428818Y5904372D01*
X53279879Y5784622D01*
X53157036Y5638224D01*
X53154068Y5632826D01*
X53154065Y5632821D01*
X53121563Y5573699D01*
X53064969Y5470754D01*
X53063108Y5464887D01*
X53063107Y5464885D01*
X53024434Y5342973D01*
X53007183Y5288590D01*
X52985880Y5098672D01*
X52402874Y5098672D01*
X52385566Y5275197D01*
X52330329Y5458150D01*
X52240609Y5626889D01*
X52236719Y5631659D01*
X52236716Y5631663D01*
X52123717Y5770213D01*
X52123714Y5770216D01*
X52119822Y5774988D01*
X51972570Y5896806D01*
X51804461Y5987702D01*
X51621899Y6044215D01*
X51615781Y6044858D01*
X51615776Y6044859D01*
X51437965Y6063547D01*
X51437963Y6063547D01*
X51431836Y6064191D01*
X51352644Y6056984D01*
X51247652Y6047429D01*
X51247649Y6047428D01*
X51241513Y6046870D01*
X51235607Y6045132D01*
X51235603Y6045131D01*
X51151946Y6020509D01*
X51058180Y5992912D01*
X50888818Y5904372D01*
X50739879Y5784622D01*
X50617036Y5638224D01*
X50614068Y5632826D01*
X50614065Y5632821D01*
X50581563Y5573699D01*
X50524969Y5470754D01*
X50523108Y5464887D01*
X50523107Y5464885D01*
X50484434Y5342973D01*
X50467183Y5288590D01*
X50445880Y5098672D01*
X13924115Y5098672D01*
X15999381Y7173938D01*
X28448493Y7173938D01*
X28457789Y7161923D01*
X28508994Y7126069D01*
X28518489Y7120586D01*
X28715947Y7028510D01*
X28726239Y7024764D01*
X28936688Y6968375D01*
X28947481Y6966472D01*
X29164525Y6947483D01*
X29175475Y6947483D01*
X29392519Y6966472D01*
X29403312Y6968375D01*
X29507441Y6996276D01*
X35046309Y6996276D01*
X35065195Y6851848D01*
X35068809Y6843635D01*
X35068810Y6843631D01*
X35107316Y6756123D01*
X35123859Y6718526D01*
X35129634Y6711656D01*
X35129635Y6711654D01*
X35211803Y6613903D01*
X35217583Y6607027D01*
X35225060Y6602050D01*
X35331361Y6531290D01*
X35331363Y6531289D01*
X35338834Y6526316D01*
X35347401Y6523639D01*
X35347402Y6523639D01*
X35353586Y6521707D01*
X35477864Y6482879D01*
X35623498Y6480210D01*
X35764026Y6518523D01*
X35770034Y6522212D01*
X35818752Y6532300D01*
X39970352Y6532300D01*
X39985162Y6531427D01*
X40010187Y6528465D01*
X40019540Y6527358D01*
X40028804Y6529050D01*
X40028807Y6529050D01*
X40078224Y6538075D01*
X40082126Y6538725D01*
X40093748Y6540473D01*
X40141102Y6547592D01*
X40147714Y6550767D01*
X40154931Y6552085D01*
X40185321Y6567871D01*
X40207871Y6579585D01*
X40211412Y6581354D01*
X40256678Y6603090D01*
X40256679Y6603091D01*
X40265172Y6607169D01*
X40270479Y6612075D01*
X40270689Y6612217D01*
X40277068Y6615530D01*
X40282194Y6619909D01*
X40320056Y6657771D01*
X40323622Y6661200D01*
X40359323Y6694201D01*
X40359326Y6694204D01*
X40366238Y6700594D01*
X40369977Y6707030D01*
X40375649Y6713364D01*
X40781568Y7119282D01*
X40827776Y7146094D01*
X40827126Y7147596D01*
X40835365Y7151162D01*
X40844026Y7153523D01*
X40968154Y7229737D01*
X40987734Y7251368D01*
X41059873Y7331066D01*
X41059874Y7331067D01*
X41065901Y7337726D01*
X41077032Y7360699D01*
X41125495Y7460728D01*
X41125495Y7460729D01*
X41129410Y7468809D01*
X41148535Y7582483D01*
X41152770Y7607656D01*
X41152770Y7607659D01*
X41153576Y7612448D01*
X41153729Y7625000D01*
X41143483Y7696544D01*
X41134354Y7760294D01*
X41134353Y7760297D01*
X41133080Y7769187D01*
X41129362Y7777365D01*
X41076508Y7893610D01*
X41076507Y7893612D01*
X41072792Y7901782D01*
X40977713Y8012127D01*
X40855485Y8091352D01*
X40715934Y8133086D01*
X40706958Y8133141D01*
X40706957Y8133141D01*
X40645644Y8133515D01*
X40570279Y8133976D01*
X40430229Y8093949D01*
X40422642Y8089162D01*
X40422640Y8089161D01*
X40382545Y8063863D01*
X40307042Y8016224D01*
X40210622Y7907049D01*
X40206807Y7898924D01*
X40206806Y7898922D01*
X40163226Y7806099D01*
X40138266Y7770551D01*
X39852318Y7484604D01*
X39790006Y7450579D01*
X39763223Y7447700D01*
X35818878Y7447700D01*
X35775735Y7457186D01*
X35775485Y7456352D01*
X35635934Y7498086D01*
X35626958Y7498141D01*
X35626957Y7498141D01*
X35565644Y7498515D01*
X35490279Y7498976D01*
X35350229Y7458949D01*
X35342642Y7454162D01*
X35342640Y7454161D01*
X35302545Y7428863D01*
X35227042Y7381224D01*
X35130622Y7272049D01*
X35126808Y7263926D01*
X35126807Y7263924D01*
X35081442Y7167300D01*
X35068719Y7140200D01*
X35067339Y7131335D01*
X35067338Y7131333D01*
X35050745Y7024764D01*
X35046309Y6996276D01*
X29507441Y6996276D01*
X29613761Y7024764D01*
X29624053Y7028510D01*
X29821511Y7120586D01*
X29831006Y7126069D01*
X29883048Y7162509D01*
X29891424Y7172988D01*
X29884356Y7186434D01*
X29182812Y7887978D01*
X29168868Y7895592D01*
X29167035Y7895461D01*
X29160420Y7891210D01*
X28454923Y7185713D01*
X28448493Y7173938D01*
X15999381Y7173938D01*
X17910510Y9085067D01*
X25615500Y9085067D01*
X25615501Y7434934D01*
X25622612Y7399182D01*
X25627522Y7374496D01*
X25630266Y7360699D01*
X25637161Y7350380D01*
X25637162Y7350378D01*
X25645616Y7337726D01*
X25686516Y7276516D01*
X25770699Y7220266D01*
X25844933Y7205500D01*
X26669866Y7205500D01*
X27495066Y7205501D01*
X27531985Y7212844D01*
X27557126Y7217844D01*
X27557128Y7217845D01*
X27569301Y7220266D01*
X27579621Y7227161D01*
X27579622Y7227162D01*
X27643168Y7269623D01*
X27653484Y7276516D01*
X27709734Y7360699D01*
X27724500Y7434933D01*
X27724500Y7696544D01*
X27744502Y7764665D01*
X27798158Y7811158D01*
X27868432Y7821262D01*
X27933012Y7791768D01*
X27964695Y7749794D01*
X28030586Y7608489D01*
X28036069Y7598994D01*
X28072509Y7546952D01*
X28082988Y7538576D01*
X28096434Y7545644D01*
X28797978Y8247188D01*
X28804356Y8258868D01*
X29534408Y8258868D01*
X29534539Y8257035D01*
X29538790Y8250420D01*
X30244287Y7544923D01*
X30256062Y7538493D01*
X30268077Y7547789D01*
X30303931Y7598994D01*
X30309414Y7608489D01*
X30401490Y7805947D01*
X30405236Y7816239D01*
X30461625Y8026688D01*
X30463528Y8037481D01*
X30482517Y8254525D01*
X30482517Y8265475D01*
X30463528Y8482519D01*
X30461625Y8493312D01*
X30405236Y8703761D01*
X30401490Y8714053D01*
X30309414Y8911511D01*
X30303931Y8921006D01*
X30267491Y8973048D01*
X30257012Y8981424D01*
X30243566Y8974356D01*
X29542022Y8272812D01*
X29534408Y8258868D01*
X28804356Y8258868D01*
X28805592Y8261132D01*
X28805461Y8262965D01*
X28801210Y8269580D01*
X28095713Y8975077D01*
X28083938Y8981507D01*
X28071923Y8972211D01*
X28036069Y8921006D01*
X28030586Y8911511D01*
X27964694Y8770205D01*
X27917776Y8716920D01*
X27849499Y8697459D01*
X27781539Y8718001D01*
X27735474Y8772024D01*
X27724499Y8823455D01*
X27724499Y9085066D01*
X27709734Y9159301D01*
X27653484Y9243484D01*
X27569301Y9299734D01*
X27495067Y9314500D01*
X26670134Y9314500D01*
X25844934Y9314499D01*
X25811756Y9307900D01*
X25782874Y9302156D01*
X25782872Y9302155D01*
X25770699Y9299734D01*
X25760379Y9292839D01*
X25760378Y9292838D01*
X25716906Y9263790D01*
X25686516Y9243484D01*
X25630266Y9159301D01*
X25615500Y9085067D01*
X17910510Y9085067D01*
X18113292Y9287849D01*
X18123510Y9307904D01*
X18133840Y9324759D01*
X18140364Y9333738D01*
X18147070Y9342968D01*
X18148384Y9347012D01*
X28448576Y9347012D01*
X28455644Y9333566D01*
X29157188Y8632022D01*
X29171132Y8624408D01*
X29172965Y8624539D01*
X29179580Y8628790D01*
X29885077Y9334287D01*
X29891507Y9346062D01*
X29882211Y9358077D01*
X29831006Y9393931D01*
X29821511Y9399414D01*
X29624053Y9491490D01*
X29613761Y9495236D01*
X29403312Y9551625D01*
X29392519Y9553528D01*
X29175475Y9572517D01*
X29164525Y9572517D01*
X28947481Y9553528D01*
X28936688Y9551625D01*
X28726239Y9495236D01*
X28715947Y9491490D01*
X28518489Y9399414D01*
X28508994Y9393931D01*
X28456952Y9357491D01*
X28448576Y9347012D01*
X18148384Y9347012D01*
X18151789Y9357491D01*
X18154028Y9364380D01*
X18161592Y9382642D01*
X18167308Y9393860D01*
X18167308Y9393861D01*
X18171809Y9402694D01*
X18175330Y9424926D01*
X18179946Y9444152D01*
X18183835Y9456121D01*
X18186900Y9465554D01*
X18186900Y11718310D01*
X18206504Y11782434D01*
X18205901Y11782726D01*
X18207779Y11786601D01*
X18207780Y11786604D01*
X18243091Y11859485D01*
X18265495Y11905728D01*
X18265495Y11905729D01*
X18269410Y11913809D01*
X18286317Y12014302D01*
X18292770Y12052656D01*
X18292770Y12052659D01*
X18293576Y12057448D01*
X18293729Y12070000D01*
X18292830Y12076276D01*
X22346309Y12076276D01*
X22347473Y12067374D01*
X22347473Y12067371D01*
X22359096Y11978486D01*
X22365195Y11931848D01*
X22368809Y11923635D01*
X22368810Y11923631D01*
X22369237Y11922661D01*
X22423859Y11798526D01*
X22429634Y11791656D01*
X22429635Y11791654D01*
X22491287Y11718310D01*
X22517583Y11687027D01*
X22525060Y11682050D01*
X22631361Y11611290D01*
X22631363Y11611289D01*
X22638834Y11606316D01*
X22777864Y11562879D01*
X22923498Y11560210D01*
X22993762Y11579367D01*
X23055363Y11596161D01*
X23055364Y11596161D01*
X23064026Y11598523D01*
X23072359Y11603639D01*
X23163965Y11659885D01*
X23188154Y11674737D01*
X23194774Y11682050D01*
X23279873Y11776066D01*
X23279874Y11776067D01*
X23285901Y11782726D01*
X23307330Y11826954D01*
X23345495Y11905728D01*
X23345495Y11905729D01*
X23349410Y11913809D01*
X23356920Y11958446D01*
X23392079Y12026636D01*
X23441719Y12076276D01*
X39491309Y12076276D01*
X39492473Y12067374D01*
X39492473Y12067371D01*
X39504096Y11978486D01*
X39510195Y11931848D01*
X39513809Y11923635D01*
X39513810Y11923631D01*
X39514237Y11922661D01*
X39568859Y11798526D01*
X39574634Y11791656D01*
X39574635Y11791654D01*
X39636287Y11718310D01*
X39662583Y11687027D01*
X39670060Y11682050D01*
X39776361Y11611290D01*
X39776363Y11611289D01*
X39783834Y11606316D01*
X39922864Y11562879D01*
X40068498Y11560210D01*
X40209026Y11598523D01*
X40215034Y11602212D01*
X40263752Y11612300D01*
X41033225Y11612300D01*
X41101346Y11592298D01*
X41122320Y11575395D01*
X43253562Y9444152D01*
X45371859Y7325855D01*
X45381714Y7314766D01*
X45403144Y7287582D01*
X45410892Y7282227D01*
X45410893Y7282226D01*
X45452210Y7253670D01*
X45455431Y7251368D01*
X45495826Y7221532D01*
X45495830Y7221530D01*
X45503409Y7215932D01*
X45510329Y7213502D01*
X45516365Y7209330D01*
X45525345Y7206490D01*
X45525347Y7206489D01*
X45573236Y7191344D01*
X45576991Y7190091D01*
X45624379Y7173449D01*
X45624381Y7173449D01*
X45633267Y7170328D01*
X45640489Y7170044D01*
X45640742Y7169995D01*
X45647591Y7167829D01*
X45654312Y7167300D01*
X45707864Y7167300D01*
X45712810Y7167203D01*
X45770793Y7164925D01*
X45777988Y7166833D01*
X45786478Y7167300D01*
X55003225Y7167300D01*
X55071346Y7147298D01*
X55092316Y7130399D01*
X56010397Y6212317D01*
X56044421Y6150007D01*
X56047300Y6123224D01*
X56047300Y6021710D01*
X56027298Y5953589D01*
X55979676Y5910049D01*
X55974282Y5907229D01*
X55974278Y5907226D01*
X55968818Y5904372D01*
X55819879Y5784622D01*
X55697036Y5638224D01*
X55694068Y5632826D01*
X55694065Y5632821D01*
X55661563Y5573699D01*
X55604969Y5470754D01*
X55603108Y5464887D01*
X55603107Y5464885D01*
X55564434Y5342973D01*
X55547183Y5288590D01*
X55525880Y5098672D01*
X55541872Y4908233D01*
X55594549Y4724527D01*
X55597367Y4719045D01*
X55597368Y4719041D01*
X55679085Y4560037D01*
X55679088Y4560033D01*
X55681905Y4554551D01*
X55800612Y4404780D01*
X55805306Y4400785D01*
X55853292Y4359946D01*
X55946149Y4280918D01*
X55951527Y4277912D01*
X55951529Y4277911D01*
X55991733Y4255442D01*
X56112972Y4187684D01*
X56294728Y4128628D01*
X56484493Y4106000D01*
X56490628Y4106472D01*
X56490630Y4106472D01*
X56554393Y4111378D01*
X56675039Y4120661D01*
X56859108Y4172055D01*
X56869092Y4177098D01*
X57024189Y4255442D01*
X57024191Y4255443D01*
X57029690Y4258221D01*
X57180286Y4375880D01*
X57184312Y4380544D01*
X57184315Y4380547D01*
X57301134Y4515884D01*
X57305161Y4520549D01*
X57352968Y4604705D01*
X57396514Y4681360D01*
X57396515Y4681361D01*
X57399557Y4686717D01*
X57442908Y4817034D01*
X75503257Y4817034D01*
X75533565Y4682554D01*
X75536645Y4672725D01*
X75616770Y4475397D01*
X75621413Y4466206D01*
X75732694Y4284612D01*
X75738777Y4276301D01*
X75878213Y4115333D01*
X75885580Y4108117D01*
X76049434Y3972084D01*
X76057881Y3966169D01*
X76241756Y3858721D01*
X76251042Y3854271D01*
X76450001Y3778297D01*
X76459899Y3775421D01*
X76563250Y3754394D01*
X76577299Y3755590D01*
X76581000Y3765935D01*
X76581000Y3766483D01*
X77089000Y3766483D01*
X77093064Y3752641D01*
X77106478Y3750607D01*
X77113184Y3751466D01*
X77123262Y3753608D01*
X77327255Y3814809D01*
X77336842Y3818567D01*
X77528095Y3912261D01*
X77536945Y3917536D01*
X77710328Y4041208D01*
X77718200Y4047861D01*
X77869052Y4198188D01*
X77875730Y4206035D01*
X78000003Y4378980D01*
X78005313Y4387817D01*
X78099670Y4578733D01*
X78103469Y4588328D01*
X78165377Y4792090D01*
X78167555Y4802163D01*
X78168986Y4813038D01*
X78166775Y4827222D01*
X78153617Y4831000D01*
X77107115Y4831000D01*
X77091876Y4826525D01*
X77090671Y4825135D01*
X77089000Y4817452D01*
X77089000Y3766483D01*
X76581000Y3766483D01*
X76581000Y4812885D01*
X76576525Y4828124D01*
X76575135Y4829329D01*
X76567452Y4831000D01*
X75518225Y4831000D01*
X75504694Y4827027D01*
X75503257Y4817034D01*
X57442908Y4817034D01*
X57459881Y4868056D01*
X57483833Y5057659D01*
X57484215Y5085000D01*
X57465566Y5275197D01*
X57442735Y5350817D01*
X75499389Y5350817D01*
X75500912Y5342393D01*
X75513292Y5339000D01*
X78153344Y5339000D01*
X78166875Y5342973D01*
X78168180Y5352053D01*
X78126214Y5519125D01*
X78122894Y5528876D01*
X78037972Y5724186D01*
X78033105Y5733261D01*
X77917426Y5912074D01*
X77911136Y5920243D01*
X77767806Y6077760D01*
X77760273Y6084785D01*
X77593139Y6216778D01*
X77584552Y6222483D01*
X77472765Y6284193D01*
X77422795Y6334625D01*
X77408023Y6404068D01*
X77433139Y6470473D01*
X77490170Y6512758D01*
X77533658Y6520501D01*
X77710066Y6520501D01*
X77745818Y6527612D01*
X77772126Y6532844D01*
X77772128Y6532845D01*
X77784301Y6535266D01*
X77794621Y6542161D01*
X77794622Y6542162D01*
X77858168Y6584623D01*
X77868484Y6591516D01*
X77924734Y6675699D01*
X77939500Y6749933D01*
X77939499Y8500066D01*
X77924734Y8574301D01*
X77868484Y8658484D01*
X77784301Y8714734D01*
X77710067Y8729500D01*
X76835142Y8729500D01*
X75959934Y8729499D01*
X75924182Y8722388D01*
X75897874Y8717156D01*
X75897872Y8717155D01*
X75885699Y8714734D01*
X75875379Y8707839D01*
X75875378Y8707838D01*
X75859845Y8697459D01*
X75801516Y8658484D01*
X75745266Y8574301D01*
X75730500Y8500067D01*
X75730501Y6749934D01*
X75734288Y6730893D01*
X75738721Y6708608D01*
X75745266Y6675699D01*
X75752161Y6665380D01*
X75752162Y6665378D01*
X75771079Y6637068D01*
X75801516Y6591516D01*
X75885699Y6535266D01*
X75959933Y6520500D01*
X76136500Y6520500D01*
X76204621Y6500498D01*
X76251114Y6446842D01*
X76261218Y6376568D01*
X76231724Y6311988D01*
X76194681Y6282737D01*
X76113458Y6240455D01*
X76104738Y6234964D01*
X75934433Y6107095D01*
X75926726Y6100252D01*
X75779590Y5946283D01*
X75773104Y5938273D01*
X75653098Y5762351D01*
X75648000Y5753377D01*
X75558338Y5560217D01*
X75554775Y5550530D01*
X75499389Y5350817D01*
X57442735Y5350817D01*
X57410329Y5458150D01*
X57320609Y5626889D01*
X57316719Y5631659D01*
X57316716Y5631663D01*
X57203717Y5770213D01*
X57203714Y5770216D01*
X57199822Y5774988D01*
X57148205Y5817690D01*
X57057318Y5892878D01*
X57057319Y5892878D01*
X57052570Y5896806D01*
X57028771Y5909674D01*
X56978364Y5959666D01*
X56962700Y6020509D01*
X56962700Y6330352D01*
X56963573Y6345162D01*
X56966535Y6370187D01*
X56967642Y6379540D01*
X56965950Y6388807D01*
X56956925Y6438224D01*
X56956275Y6442126D01*
X56950524Y6480375D01*
X56947408Y6501102D01*
X56944233Y6507714D01*
X56942915Y6514931D01*
X56933610Y6532845D01*
X56915415Y6567871D01*
X56913646Y6571412D01*
X56891910Y6616678D01*
X56891909Y6616679D01*
X56887831Y6625172D01*
X56882925Y6630479D01*
X56882783Y6630689D01*
X56879470Y6637068D01*
X56875091Y6642194D01*
X56837229Y6680056D01*
X56833800Y6683622D01*
X56800799Y6719323D01*
X56800796Y6719326D01*
X56794406Y6726238D01*
X56787969Y6729977D01*
X56781632Y6735653D01*
X55593141Y7924145D01*
X55583286Y7935234D01*
X55567686Y7955023D01*
X55567685Y7955024D01*
X55561856Y7962418D01*
X55554108Y7967773D01*
X55554107Y7967774D01*
X55512790Y7996330D01*
X55509569Y7998632D01*
X55469174Y8028468D01*
X55469170Y8028470D01*
X55461591Y8034068D01*
X55454671Y8036498D01*
X55448635Y8040670D01*
X55439655Y8043510D01*
X55439653Y8043511D01*
X55391764Y8058656D01*
X55388009Y8059909D01*
X55340621Y8076551D01*
X55340619Y8076551D01*
X55331733Y8079672D01*
X55324511Y8079956D01*
X55324258Y8080005D01*
X55317409Y8082171D01*
X55310688Y8082700D01*
X55257136Y8082700D01*
X55252190Y8082797D01*
X55194207Y8085075D01*
X55187012Y8083167D01*
X55178522Y8082700D01*
X45961776Y8082700D01*
X45893655Y8102702D01*
X45872681Y8119605D01*
X42528250Y11464036D01*
X45246148Y11464036D01*
X45259424Y11261478D01*
X45260845Y11255882D01*
X45260846Y11255877D01*
X45281119Y11176055D01*
X45309392Y11064731D01*
X45311809Y11059488D01*
X45347641Y10981763D01*
X45394377Y10880384D01*
X45511533Y10714611D01*
X45656938Y10572965D01*
X45825720Y10460188D01*
X45831023Y10457910D01*
X45831026Y10457908D01*
X45962283Y10401516D01*
X46012228Y10380058D01*
X46085244Y10363536D01*
X46204579Y10336533D01*
X46204584Y10336532D01*
X46210216Y10335258D01*
X46215987Y10335031D01*
X46215989Y10335031D01*
X46275756Y10332683D01*
X46413053Y10327288D01*
X46520348Y10342845D01*
X46608231Y10355587D01*
X46608236Y10355588D01*
X46613945Y10356416D01*
X46619409Y10358271D01*
X46619414Y10358272D01*
X46800693Y10419808D01*
X46800698Y10419810D01*
X46806165Y10421666D01*
X46983276Y10520853D01*
X47022969Y10553865D01*
X47134913Y10646969D01*
X47139345Y10650655D01*
X47196463Y10719331D01*
X47265453Y10802282D01*
X47265455Y10802285D01*
X47269147Y10806724D01*
X47350560Y10952097D01*
X47365510Y10978792D01*
X47365511Y10978794D01*
X47368334Y10983835D01*
X47370190Y10989302D01*
X47370192Y10989307D01*
X47431728Y11170586D01*
X47431729Y11170591D01*
X47433584Y11176055D01*
X47434412Y11181764D01*
X47434413Y11181769D01*
X47462179Y11373273D01*
X47462712Y11376947D01*
X47464232Y11435000D01*
X47461564Y11464036D01*
X47786148Y11464036D01*
X47799424Y11261478D01*
X47800845Y11255882D01*
X47800846Y11255877D01*
X47821119Y11176055D01*
X47849392Y11064731D01*
X47851809Y11059488D01*
X47887641Y10981763D01*
X47934377Y10880384D01*
X48051533Y10714611D01*
X48196938Y10572965D01*
X48365720Y10460188D01*
X48371023Y10457910D01*
X48371026Y10457908D01*
X48502283Y10401516D01*
X48552228Y10380058D01*
X48625244Y10363536D01*
X48744579Y10336533D01*
X48744584Y10336532D01*
X48750216Y10335258D01*
X48755987Y10335031D01*
X48755989Y10335031D01*
X48815756Y10332683D01*
X48953053Y10327288D01*
X49060348Y10342845D01*
X49148231Y10355587D01*
X49148236Y10355588D01*
X49153945Y10356416D01*
X49159409Y10358271D01*
X49159414Y10358272D01*
X49340693Y10419808D01*
X49340698Y10419810D01*
X49346165Y10421666D01*
X49523276Y10520853D01*
X49562969Y10553865D01*
X49674913Y10646969D01*
X49679345Y10650655D01*
X49736463Y10719331D01*
X49805453Y10802282D01*
X49805455Y10802285D01*
X49809147Y10806724D01*
X49890560Y10952097D01*
X49905510Y10978792D01*
X49905511Y10978794D01*
X49908334Y10983835D01*
X49910190Y10989302D01*
X49910192Y10989307D01*
X49971728Y11170586D01*
X49971729Y11170591D01*
X49973584Y11176055D01*
X49974412Y11181764D01*
X49974413Y11181769D01*
X50002179Y11373273D01*
X50002712Y11376947D01*
X50004232Y11435000D01*
X49991332Y11575395D01*
X49986187Y11631387D01*
X49986186Y11631390D01*
X49985658Y11637141D01*
X49984090Y11642701D01*
X49932125Y11826954D01*
X49932124Y11826956D01*
X49930557Y11832513D01*
X49919978Y11853967D01*
X49843331Y12009391D01*
X49840776Y12014572D01*
X49719320Y12177221D01*
X49644789Y12246117D01*
X49575609Y12310067D01*
X50330500Y12310067D01*
X50330501Y10559934D01*
X50345266Y10485699D01*
X50352161Y10475380D01*
X50352162Y10475378D01*
X50392516Y10414985D01*
X50401516Y10401516D01*
X50485699Y10345266D01*
X50559933Y10330500D01*
X51434858Y10330500D01*
X52310066Y10330501D01*
X52345818Y10337612D01*
X52372126Y10342844D01*
X52372128Y10342845D01*
X52384301Y10345266D01*
X52394621Y10352161D01*
X52394622Y10352162D01*
X52458168Y10394623D01*
X52468484Y10401516D01*
X52524734Y10485699D01*
X52539500Y10559933D01*
X52539500Y10749700D01*
X52559502Y10817821D01*
X52613158Y10864314D01*
X52665500Y10875700D01*
X71104841Y10875700D01*
X71110118Y10875589D01*
X71173129Y10872948D01*
X71216265Y10883065D01*
X71227931Y10885227D01*
X71230866Y10885629D01*
X71271821Y10891239D01*
X71280706Y10895084D01*
X71286009Y10897378D01*
X71307274Y10904411D01*
X71322320Y10907940D01*
X71329842Y10912075D01*
X71329849Y10912078D01*
X71361146Y10929284D01*
X71371802Y10934505D01*
X71412456Y10952097D01*
X71424470Y10961826D01*
X71443061Y10974318D01*
X71450812Y10978579D01*
X71456604Y10981763D01*
X71464852Y10988883D01*
X71489849Y11013880D01*
X71499650Y11022705D01*
X71524868Y11043126D01*
X71531545Y11048533D01*
X71536520Y11055534D01*
X71536524Y11055538D01*
X71542719Y11064255D01*
X71556330Y11080361D01*
X73359565Y12883595D01*
X73421877Y12917621D01*
X73448660Y12920500D01*
X74369659Y12920501D01*
X74485066Y12920501D01*
X74520818Y12927612D01*
X74547126Y12932844D01*
X74547128Y12932845D01*
X74559301Y12935266D01*
X74569621Y12942161D01*
X74569622Y12942162D01*
X74633168Y12984623D01*
X74643484Y12991516D01*
X74699734Y13075699D01*
X74714500Y13149933D01*
X74714499Y13989794D01*
X75100501Y13989794D01*
X75101743Y13975000D01*
X75115335Y13813153D01*
X75117806Y13783722D01*
X75174807Y13584934D01*
X75177625Y13579452D01*
X75177626Y13579448D01*
X75266514Y13406491D01*
X75266517Y13406487D01*
X75269334Y13401005D01*
X75397786Y13238939D01*
X75402479Y13234945D01*
X75402480Y13234944D01*
X75482928Y13166478D01*
X75555271Y13104909D01*
X75735789Y13004020D01*
X75932466Y12940116D01*
X76137809Y12915630D01*
X76143944Y12916102D01*
X76143946Y12916102D01*
X76337856Y12931023D01*
X76337860Y12931024D01*
X76343998Y12931496D01*
X76543178Y12987108D01*
X76548682Y12989888D01*
X76548684Y12989889D01*
X76722262Y13077569D01*
X76722264Y13077570D01*
X76727763Y13080348D01*
X76890722Y13207666D01*
X76894748Y13212330D01*
X76894751Y13212333D01*
X77021819Y13359543D01*
X77021820Y13359545D01*
X77025848Y13364211D01*
X77085178Y13468650D01*
X77124950Y13538660D01*
X77124952Y13538664D01*
X77127995Y13544021D01*
X77178398Y13695539D01*
X77191325Y13734399D01*
X77191326Y13734402D01*
X77193270Y13740247D01*
X77219189Y13945414D01*
X77219602Y13975000D01*
X77199422Y14180811D01*
X77139651Y14378783D01*
X77073604Y14503000D01*
X77045459Y14555933D01*
X77045457Y14555936D01*
X77042565Y14561375D01*
X77038674Y14566145D01*
X77038672Y14566149D01*
X76915758Y14716857D01*
X76915755Y14716860D01*
X76911863Y14721632D01*
X76904966Y14727338D01*
X76757271Y14849522D01*
X76757266Y14849525D01*
X76752522Y14853450D01*
X76747103Y14856380D01*
X76747100Y14856382D01*
X76576032Y14948878D01*
X76576027Y14948880D01*
X76570612Y14951808D01*
X76373063Y15012960D01*
X76366938Y15013604D01*
X76366937Y15013604D01*
X76173526Y15033932D01*
X76173524Y15033932D01*
X76167397Y15034576D01*
X76041229Y15023094D01*
X75967591Y15016393D01*
X75967590Y15016393D01*
X75961450Y15015834D01*
X75763066Y14957446D01*
X75757601Y14954589D01*
X75585261Y14864492D01*
X75585257Y14864489D01*
X75579801Y14861637D01*
X75575001Y14857777D01*
X75575000Y14857777D01*
X75546073Y14834519D01*
X75418635Y14732057D01*
X75285708Y14573640D01*
X75186082Y14392422D01*
X75123553Y14195304D01*
X75122867Y14189187D01*
X75122866Y14189183D01*
X75103427Y14015881D01*
X75100501Y13989794D01*
X74714499Y13989794D01*
X74714499Y14800066D01*
X74704880Y14848430D01*
X74702156Y14862126D01*
X74702155Y14862128D01*
X74699734Y14874301D01*
X74643484Y14958484D01*
X74559301Y15014734D01*
X74485067Y15029500D01*
X73660134Y15029500D01*
X72834934Y15029499D01*
X72801756Y15022900D01*
X72772874Y15017156D01*
X72772872Y15017155D01*
X72760699Y15014734D01*
X72750379Y15007839D01*
X72750378Y15007838D01*
X72689985Y14967484D01*
X72676516Y14958484D01*
X72620266Y14874301D01*
X72605500Y14800067D01*
X72605501Y14257160D01*
X72605501Y13763660D01*
X72585499Y13695539D01*
X72568596Y13674565D01*
X70925236Y12031205D01*
X70862924Y11997179D01*
X70836141Y11994300D01*
X52665499Y11994300D01*
X52597378Y12014302D01*
X52550885Y12067958D01*
X52539499Y12120300D01*
X52539499Y12310066D01*
X52528989Y12362908D01*
X52527156Y12372126D01*
X52527155Y12372128D01*
X52524734Y12384301D01*
X52498654Y12423333D01*
X52475377Y12458168D01*
X52468484Y12468484D01*
X52384301Y12524734D01*
X52310067Y12539500D01*
X51435142Y12539500D01*
X50559934Y12539499D01*
X50524182Y12532388D01*
X50497874Y12527156D01*
X50497872Y12527155D01*
X50485699Y12524734D01*
X50475379Y12517839D01*
X50475378Y12517838D01*
X50431488Y12488511D01*
X50401516Y12468484D01*
X50345266Y12384301D01*
X50330500Y12310067D01*
X49575609Y12310067D01*
X49574503Y12311089D01*
X49570258Y12315013D01*
X49565375Y12318094D01*
X49565371Y12318097D01*
X49403464Y12420252D01*
X49398581Y12423333D01*
X49210039Y12498554D01*
X49204379Y12499680D01*
X49204375Y12499681D01*
X49016613Y12537029D01*
X49016610Y12537029D01*
X49010946Y12538156D01*
X49005171Y12538232D01*
X49005167Y12538232D01*
X48903793Y12539559D01*
X48807971Y12540813D01*
X48802274Y12539834D01*
X48802273Y12539834D01*
X48674271Y12517839D01*
X48607910Y12506436D01*
X48417463Y12436176D01*
X48243010Y12332388D01*
X48238670Y12328582D01*
X48238666Y12328579D01*
X48129127Y12232515D01*
X48090392Y12198545D01*
X47964720Y12039131D01*
X47962031Y12034020D01*
X47962029Y12034017D01*
X47949073Y12009391D01*
X47870203Y11859485D01*
X47810007Y11665622D01*
X47786148Y11464036D01*
X47461564Y11464036D01*
X47451332Y11575395D01*
X47446187Y11631387D01*
X47446186Y11631390D01*
X47445658Y11637141D01*
X47444090Y11642701D01*
X47392125Y11826954D01*
X47392124Y11826956D01*
X47390557Y11832513D01*
X47379978Y11853967D01*
X47303331Y12009391D01*
X47300776Y12014572D01*
X47179320Y12177221D01*
X47104789Y12246117D01*
X47034503Y12311089D01*
X47030258Y12315013D01*
X47025375Y12318094D01*
X47025371Y12318097D01*
X46863464Y12420252D01*
X46858581Y12423333D01*
X46670039Y12498554D01*
X46664379Y12499680D01*
X46664375Y12499681D01*
X46476613Y12537029D01*
X46476610Y12537029D01*
X46470946Y12538156D01*
X46465171Y12538232D01*
X46465167Y12538232D01*
X46363793Y12539559D01*
X46267971Y12540813D01*
X46262274Y12539834D01*
X46262273Y12539834D01*
X46134271Y12517839D01*
X46067910Y12506436D01*
X45877463Y12436176D01*
X45703010Y12332388D01*
X45698670Y12328582D01*
X45698666Y12328579D01*
X45589127Y12232515D01*
X45550392Y12198545D01*
X45424720Y12039131D01*
X45422031Y12034020D01*
X45422029Y12034017D01*
X45409073Y12009391D01*
X45330203Y11859485D01*
X45270007Y11665622D01*
X45246148Y11464036D01*
X42528250Y11464036D01*
X41623141Y12369145D01*
X41613286Y12380234D01*
X41597686Y12400023D01*
X41597685Y12400024D01*
X41591856Y12407418D01*
X41584108Y12412773D01*
X41584107Y12412774D01*
X41542790Y12441330D01*
X41539569Y12443632D01*
X41499174Y12473468D01*
X41499170Y12473470D01*
X41491591Y12479068D01*
X41484671Y12481498D01*
X41478635Y12485670D01*
X41469655Y12488510D01*
X41469653Y12488511D01*
X41421764Y12503656D01*
X41418009Y12504909D01*
X41370621Y12521551D01*
X41370619Y12521551D01*
X41361733Y12524672D01*
X41354511Y12524956D01*
X41354258Y12525005D01*
X41347409Y12527171D01*
X41340688Y12527700D01*
X41287136Y12527700D01*
X41282190Y12527797D01*
X41224207Y12530075D01*
X41217012Y12528167D01*
X41208522Y12527700D01*
X40263878Y12527700D01*
X40220735Y12537186D01*
X40220485Y12536352D01*
X40080934Y12578086D01*
X40071958Y12578141D01*
X40071957Y12578141D01*
X40010644Y12578515D01*
X39935279Y12578976D01*
X39795229Y12538949D01*
X39787642Y12534162D01*
X39787640Y12534161D01*
X39743699Y12506436D01*
X39672042Y12461224D01*
X39575622Y12352049D01*
X39571808Y12343926D01*
X39571807Y12343924D01*
X39519501Y12232515D01*
X39513719Y12220200D01*
X39512339Y12211335D01*
X39512338Y12211333D01*
X39498164Y12120300D01*
X39491309Y12076276D01*
X23441719Y12076276D01*
X24006540Y12641096D01*
X24068852Y12675121D01*
X24095635Y12678000D01*
X24414070Y12678000D01*
X24474236Y12684536D01*
X24534911Y12707282D01*
X24597795Y12730856D01*
X24597798Y12730857D01*
X24606199Y12734007D01*
X24718974Y12818526D01*
X24803493Y12931301D01*
X24806645Y12939707D01*
X24850190Y13055865D01*
X24852964Y13063264D01*
X24859500Y13123430D01*
X24859500Y13716570D01*
X24852964Y13776736D01*
X24818421Y13868880D01*
X24806644Y13900295D01*
X24806643Y13900298D01*
X24803493Y13908699D01*
X24718974Y14021474D01*
X24606199Y14105993D01*
X24597798Y14109143D01*
X24597795Y14109144D01*
X24519387Y14138537D01*
X24474236Y14155464D01*
X24414070Y14162000D01*
X23845930Y14162000D01*
X23785764Y14155464D01*
X23740613Y14138537D01*
X23662205Y14109144D01*
X23662202Y14109143D01*
X23653801Y14105993D01*
X23541026Y14021474D01*
X23456507Y13908699D01*
X23453357Y13900298D01*
X23453356Y13900295D01*
X23441579Y13868880D01*
X23407036Y13776736D01*
X23400500Y13716570D01*
X23400500Y13238135D01*
X23380498Y13170014D01*
X23363596Y13149040D01*
X22817918Y12603361D01*
X22763448Y12571308D01*
X22650229Y12538949D01*
X22642642Y12534162D01*
X22642640Y12534161D01*
X22598699Y12506436D01*
X22527042Y12461224D01*
X22430622Y12352049D01*
X22426808Y12343926D01*
X22426807Y12343924D01*
X22374501Y12232515D01*
X22368719Y12220200D01*
X22367339Y12211335D01*
X22367338Y12211333D01*
X22353164Y12120300D01*
X22346309Y12076276D01*
X18292830Y12076276D01*
X18273080Y12214187D01*
X18269362Y12222365D01*
X18216508Y12338610D01*
X18216507Y12338612D01*
X18212792Y12346782D01*
X18117713Y12457127D01*
X17995485Y12536352D01*
X17855934Y12578086D01*
X17846958Y12578141D01*
X17846957Y12578141D01*
X17785644Y12578515D01*
X17710279Y12578976D01*
X17570229Y12538949D01*
X17562642Y12534162D01*
X17562640Y12534161D01*
X17518699Y12506436D01*
X17447042Y12461224D01*
X17350622Y12352049D01*
X17346808Y12343926D01*
X17346807Y12343924D01*
X17294501Y12232515D01*
X17288719Y12220200D01*
X17287339Y12211335D01*
X17287338Y12211333D01*
X17273164Y12120300D01*
X17266309Y12076276D01*
X17267473Y12067374D01*
X17267473Y12067371D01*
X17279096Y11978486D01*
X17285195Y11931848D01*
X17288809Y11923635D01*
X17288810Y11923631D01*
X17317036Y11859485D01*
X17343859Y11798526D01*
X17349631Y11791659D01*
X17354071Y11784526D01*
X17373100Y11717944D01*
X17373100Y9750733D01*
X17353098Y9682612D01*
X17336195Y9661638D01*
X12996708Y5322151D01*
X12992205Y5313313D01*
X12986492Y5302100D01*
X12976160Y5285241D01*
X12962930Y5267032D01*
X12959865Y5257599D01*
X12959864Y5257597D01*
X12955972Y5245620D01*
X12948408Y5227359D01*
X12938191Y5207306D01*
X12936640Y5197513D01*
X12934670Y5185074D01*
X12930054Y5165848D01*
X12923100Y5144446D01*
X12923100Y3775499D01*
X12903098Y3707378D01*
X12849442Y3660885D01*
X12797100Y3649499D01*
X12454934Y3649499D01*
X12419182Y3642388D01*
X12392874Y3637156D01*
X12392872Y3637155D01*
X12380699Y3634734D01*
X12370379Y3627839D01*
X12370378Y3627838D01*
X12309985Y3587484D01*
X12296516Y3578484D01*
X12240266Y3494301D01*
X12225500Y3420067D01*
X12225500Y3228212D01*
X12205498Y3160091D01*
X12151842Y3113598D01*
X12081568Y3103494D01*
X12016988Y3132988D01*
X12010405Y3139117D01*
X11103042Y4046480D01*
X11087689Y4065489D01*
X11086722Y4066552D01*
X11081071Y4075304D01*
X11054528Y4096229D01*
X11050053Y4100206D01*
X11049992Y4100135D01*
X11046035Y4103488D01*
X11042352Y4107171D01*
X11026561Y4118455D01*
X11021815Y4122018D01*
X11021435Y4122318D01*
X11001403Y4138110D01*
X10989507Y4147488D01*
X10989506Y4147489D01*
X10981330Y4153934D01*
X10972643Y4156985D01*
X10965157Y4162334D01*
X10955181Y4165317D01*
X10955180Y4165318D01*
X10915789Y4177098D01*
X10910157Y4178928D01*
X10861498Y4196016D01*
X10855909Y4196500D01*
X10853198Y4196500D01*
X10850531Y4196615D01*
X10850468Y4196634D01*
X10850475Y4196808D01*
X10849729Y4196855D01*
X10843476Y4198725D01*
X10796881Y4196894D01*
X10789322Y4196597D01*
X10784375Y4196500D01*
X9936636Y4196500D01*
X9912347Y4199085D01*
X9910900Y4199153D01*
X9900720Y4201345D01*
X9868182Y4197494D01*
X9867160Y4197373D01*
X9861191Y4197021D01*
X9861199Y4196929D01*
X9857054Y4196586D01*
X9854390Y4196620D01*
X9852351Y4196500D01*
X9850808Y4196500D01*
X9850808Y4196666D01*
X9833062Y4196894D01*
X9809070Y4199500D01*
X9240930Y4199500D01*
X9180764Y4192964D01*
X9166680Y4187684D01*
X9057205Y4146644D01*
X9057202Y4146643D01*
X9048801Y4143493D01*
X8936026Y4058974D01*
X8851507Y3946199D01*
X8848357Y3937798D01*
X8848356Y3937795D01*
X8823443Y3871340D01*
X8802036Y3814236D01*
X8795500Y3754070D01*
X8795500Y3160930D01*
X8802036Y3100764D01*
X8804810Y3093365D01*
X8847637Y2979125D01*
X8851507Y2968801D01*
X8936026Y2856026D01*
X8943206Y2850645D01*
X8943207Y2850644D01*
X9025052Y2789305D01*
X9067567Y2732446D01*
X9072593Y2661628D01*
X9038533Y2599334D01*
X8989364Y2568956D01*
X8976052Y2564515D01*
X8962885Y2558347D01*
X8827508Y2474574D01*
X8816110Y2465540D01*
X8703637Y2352871D01*
X8694625Y2341460D01*
X8611088Y2205937D01*
X8604944Y2192759D01*
X8554685Y2041234D01*
X8551819Y2027868D01*
X8542328Y1935230D01*
X8542000Y1928815D01*
X8542000Y1904615D01*
X254000Y1904615D01*
X254000Y2963734D01*
X6002000Y2963734D01*
X6002337Y2957218D01*
X6012075Y2863368D01*
X6014968Y2849972D01*
X6065488Y2698547D01*
X6071653Y2685385D01*
X6155426Y2550008D01*
X6164460Y2538610D01*
X6277129Y2426137D01*
X6288540Y2417125D01*
X6424063Y2333588D01*
X6437241Y2327444D01*
X6588766Y2277185D01*
X6602132Y2274319D01*
X6694770Y2264828D01*
X6701185Y2264500D01*
X6712885Y2264500D01*
X6728124Y2268975D01*
X6729329Y2270365D01*
X6731000Y2278048D01*
X6731000Y2282615D01*
X7239000Y2282615D01*
X7243475Y2267376D01*
X7244865Y2266171D01*
X7252548Y2264500D01*
X7268766Y2264500D01*
X7275282Y2264837D01*
X7369132Y2274575D01*
X7382528Y2277468D01*
X7533953Y2327988D01*
X7547115Y2334153D01*
X7682492Y2417926D01*
X7693890Y2426960D01*
X7806363Y2539629D01*
X7815375Y2551040D01*
X7898912Y2686563D01*
X7905056Y2699741D01*
X7955315Y2851266D01*
X7958181Y2864632D01*
X7967672Y2957270D01*
X7968000Y2963685D01*
X7968000Y2987885D01*
X7963525Y3003124D01*
X7962135Y3004329D01*
X7954452Y3006000D01*
X7257115Y3006000D01*
X7241876Y3001525D01*
X7240671Y3000135D01*
X7239000Y2992452D01*
X7239000Y2282615D01*
X6731000Y2282615D01*
X6731000Y2987885D01*
X6726525Y3003124D01*
X6725135Y3004329D01*
X6717452Y3006000D01*
X6020115Y3006000D01*
X6004876Y3001525D01*
X6003671Y3000135D01*
X6002000Y2992452D01*
X6002000Y2963734D01*
X254000Y2963734D01*
X254000Y4817034D01*
X1208257Y4817034D01*
X1238565Y4682554D01*
X1241645Y4672725D01*
X1321770Y4475397D01*
X1326413Y4466206D01*
X1437694Y4284612D01*
X1443777Y4276301D01*
X1583213Y4115333D01*
X1590580Y4108117D01*
X1754434Y3972084D01*
X1762881Y3966169D01*
X1946756Y3858721D01*
X1956042Y3854271D01*
X2155001Y3778297D01*
X2164899Y3775421D01*
X2268250Y3754394D01*
X2282299Y3755590D01*
X2286000Y3765935D01*
X2286000Y3766483D01*
X2794000Y3766483D01*
X2798064Y3752641D01*
X2811478Y3750607D01*
X2818184Y3751466D01*
X2828262Y3753608D01*
X3032255Y3814809D01*
X3041842Y3818567D01*
X3233095Y3912261D01*
X3241945Y3917536D01*
X3415328Y4041208D01*
X3423200Y4047861D01*
X3574052Y4198188D01*
X3580730Y4206035D01*
X3705003Y4378980D01*
X3710313Y4387817D01*
X3804670Y4578733D01*
X3808469Y4588328D01*
X3870377Y4792090D01*
X3872555Y4802163D01*
X3873986Y4813038D01*
X3871775Y4827222D01*
X3858617Y4831000D01*
X2812115Y4831000D01*
X2796876Y4826525D01*
X2795671Y4825135D01*
X2794000Y4817452D01*
X2794000Y3766483D01*
X2286000Y3766483D01*
X2286000Y4812885D01*
X2281525Y4828124D01*
X2280135Y4829329D01*
X2272452Y4831000D01*
X1223225Y4831000D01*
X1209694Y4827027D01*
X1208257Y4817034D01*
X254000Y4817034D01*
X254000Y5350817D01*
X1204389Y5350817D01*
X1205912Y5342393D01*
X1218292Y5339000D01*
X3858344Y5339000D01*
X3871875Y5342973D01*
X3873180Y5352053D01*
X3831214Y5519125D01*
X3827894Y5528876D01*
X3742972Y5724186D01*
X3738105Y5733261D01*
X3622426Y5912074D01*
X3616136Y5920243D01*
X3472806Y6077760D01*
X3465273Y6084785D01*
X3298139Y6216778D01*
X3289552Y6222483D01*
X3177765Y6284193D01*
X3127795Y6334625D01*
X3113023Y6404068D01*
X3138139Y6470473D01*
X3195170Y6512758D01*
X3238658Y6520501D01*
X3415066Y6520501D01*
X3450818Y6527612D01*
X3477126Y6532844D01*
X3477128Y6532845D01*
X3489301Y6535266D01*
X3499621Y6542161D01*
X3499622Y6542162D01*
X3563168Y6584623D01*
X3573484Y6591516D01*
X3629734Y6675699D01*
X3644500Y6749933D01*
X3644500Y7092100D01*
X3664502Y7160221D01*
X3718158Y7206714D01*
X3770500Y7218100D01*
X4224267Y7218100D01*
X4292388Y7198098D01*
X4313362Y7181195D01*
X6218595Y5275961D01*
X6252621Y5213649D01*
X6255500Y5186866D01*
X6255500Y4788430D01*
X6262036Y4728264D01*
X6311507Y4596301D01*
X6396026Y4483526D01*
X6403206Y4478145D01*
X6403207Y4478144D01*
X6485052Y4416805D01*
X6527567Y4359946D01*
X6532593Y4289128D01*
X6498533Y4226834D01*
X6449364Y4196456D01*
X6436052Y4192015D01*
X6422885Y4185847D01*
X6287508Y4102074D01*
X6276110Y4093040D01*
X6163637Y3980371D01*
X6154625Y3968960D01*
X6071088Y3833437D01*
X6064944Y3820259D01*
X6014685Y3668734D01*
X6011819Y3655368D01*
X6002328Y3562730D01*
X6002000Y3556315D01*
X6002000Y3532115D01*
X6006475Y3516876D01*
X6007865Y3515671D01*
X6015548Y3514000D01*
X7949885Y3514000D01*
X7965124Y3518475D01*
X7966329Y3519865D01*
X7968000Y3527548D01*
X7968000Y3556266D01*
X7967663Y3562782D01*
X7957925Y3656632D01*
X7955032Y3670028D01*
X7904512Y3821453D01*
X7898347Y3834615D01*
X7814574Y3969992D01*
X7805540Y3981390D01*
X7692871Y4093863D01*
X7681460Y4102875D01*
X7545937Y4186412D01*
X7532764Y4192554D01*
X7520956Y4196471D01*
X7462597Y4236903D01*
X7435361Y4302467D01*
X7447895Y4372349D01*
X7485060Y4416889D01*
X7573974Y4483526D01*
X7658493Y4596301D01*
X7707964Y4728264D01*
X7714500Y4788430D01*
X7714500Y5381570D01*
X7707964Y5441736D01*
X7678952Y5519125D01*
X7661644Y5565295D01*
X7661643Y5565298D01*
X7658493Y5573699D01*
X7573974Y5686474D01*
X7461199Y5770993D01*
X7452798Y5774143D01*
X7452795Y5774144D01*
X7374387Y5803537D01*
X7329236Y5820464D01*
X7269070Y5827000D01*
X6870634Y5827000D01*
X6802513Y5847002D01*
X6781539Y5863905D01*
X4836505Y7808938D01*
X8843493Y7808938D01*
X8852789Y7796923D01*
X8903994Y7761069D01*
X8913489Y7755586D01*
X9110947Y7663510D01*
X9121239Y7659764D01*
X9331688Y7603375D01*
X9342481Y7601472D01*
X9559525Y7582483D01*
X9570475Y7582483D01*
X9787519Y7601472D01*
X9798312Y7603375D01*
X10008761Y7659764D01*
X10019053Y7663510D01*
X10216511Y7755586D01*
X10226006Y7761069D01*
X10278048Y7797509D01*
X10286424Y7807988D01*
X10279356Y7821434D01*
X9577812Y8522978D01*
X9563868Y8530592D01*
X9562035Y8530461D01*
X9555420Y8526210D01*
X8849923Y7820713D01*
X8843493Y7808938D01*
X4836505Y7808938D01*
X4710077Y7935366D01*
X4687151Y7958292D01*
X4667096Y7968510D01*
X4650241Y7978840D01*
X4641242Y7985378D01*
X4632032Y7992070D01*
X4622599Y7995135D01*
X4622597Y7995136D01*
X4610620Y7999028D01*
X4592358Y8006592D01*
X4581140Y8012308D01*
X4581139Y8012308D01*
X4572306Y8016809D01*
X4550074Y8020330D01*
X4530848Y8024946D01*
X4524864Y8026890D01*
X4509446Y8031900D01*
X3770499Y8031900D01*
X3702378Y8051902D01*
X3655885Y8105558D01*
X3644499Y8157900D01*
X3644499Y8500066D01*
X3629734Y8574301D01*
X3573484Y8658484D01*
X3489301Y8714734D01*
X3415067Y8729500D01*
X2540142Y8729500D01*
X1664934Y8729499D01*
X1629182Y8722388D01*
X1602874Y8717156D01*
X1602872Y8717155D01*
X1590699Y8714734D01*
X1580379Y8707839D01*
X1580378Y8707838D01*
X1564845Y8697459D01*
X1506516Y8658484D01*
X1450266Y8574301D01*
X1435500Y8500067D01*
X1435501Y6749934D01*
X1439288Y6730893D01*
X1443721Y6708608D01*
X1450266Y6675699D01*
X1457161Y6665380D01*
X1457162Y6665378D01*
X1476079Y6637068D01*
X1506516Y6591516D01*
X1590699Y6535266D01*
X1664933Y6520500D01*
X1841500Y6520500D01*
X1909621Y6500498D01*
X1956114Y6446842D01*
X1966218Y6376568D01*
X1936724Y6311988D01*
X1899681Y6282737D01*
X1818458Y6240455D01*
X1809738Y6234964D01*
X1639433Y6107095D01*
X1631726Y6100252D01*
X1484590Y5946283D01*
X1478104Y5938273D01*
X1358098Y5762351D01*
X1353000Y5753377D01*
X1263338Y5560217D01*
X1259775Y5550530D01*
X1204389Y5350817D01*
X254000Y5350817D01*
X254000Y8889525D01*
X8252483Y8889525D01*
X8271472Y8672481D01*
X8273375Y8661688D01*
X8329764Y8451239D01*
X8333510Y8440947D01*
X8425586Y8243489D01*
X8431069Y8233994D01*
X8467509Y8181952D01*
X8477988Y8173576D01*
X8491434Y8180644D01*
X9192978Y8882188D01*
X9199356Y8893868D01*
X9929408Y8893868D01*
X9929539Y8892035D01*
X9933790Y8885420D01*
X10639287Y8179923D01*
X10651062Y8173493D01*
X10663077Y8182789D01*
X10698931Y8233994D01*
X10704414Y8243489D01*
X10770306Y8384795D01*
X10817224Y8438080D01*
X10885501Y8457541D01*
X10953461Y8436999D01*
X10999526Y8382976D01*
X11010501Y8331546D01*
X11010501Y8069934D01*
X11016327Y8040641D01*
X11022522Y8009496D01*
X11025266Y7995699D01*
X11032161Y7985380D01*
X11032162Y7985378D01*
X11065580Y7935366D01*
X11081516Y7911516D01*
X11165699Y7855266D01*
X11239933Y7840500D01*
X12064866Y7840500D01*
X12890066Y7840501D01*
X12925818Y7847612D01*
X12952126Y7852844D01*
X12952128Y7852845D01*
X12964301Y7855266D01*
X12974621Y7862161D01*
X12974622Y7862162D01*
X13038168Y7904623D01*
X13048484Y7911516D01*
X13104734Y7995699D01*
X13119500Y8069933D01*
X13119499Y9720066D01*
X13104734Y9794301D01*
X13048484Y9878484D01*
X12964301Y9934734D01*
X12890067Y9949500D01*
X12065134Y9949500D01*
X11239934Y9949499D01*
X11204182Y9942388D01*
X11177874Y9937156D01*
X11177872Y9937155D01*
X11165699Y9934734D01*
X11155379Y9927839D01*
X11155378Y9927838D01*
X11094985Y9887484D01*
X11081516Y9878484D01*
X11025266Y9794301D01*
X11010500Y9720067D01*
X11010500Y9458456D01*
X10990498Y9390335D01*
X10936842Y9343842D01*
X10866568Y9333738D01*
X10801988Y9363232D01*
X10770305Y9405206D01*
X10704414Y9546511D01*
X10698931Y9556006D01*
X10662491Y9608048D01*
X10652012Y9616424D01*
X10638566Y9609356D01*
X9937022Y8907812D01*
X9929408Y8893868D01*
X9199356Y8893868D01*
X9200592Y8896132D01*
X9200461Y8897965D01*
X9196210Y8904580D01*
X8490713Y9610077D01*
X8478938Y9616507D01*
X8466923Y9607211D01*
X8431069Y9556006D01*
X8425586Y9546511D01*
X8333510Y9349053D01*
X8329764Y9338761D01*
X8273375Y9128312D01*
X8271472Y9117519D01*
X8252483Y8900475D01*
X8252483Y8889525D01*
X254000Y8889525D01*
X254000Y9982012D01*
X8843576Y9982012D01*
X8850644Y9968566D01*
X9552188Y9267022D01*
X9566132Y9259408D01*
X9567965Y9259539D01*
X9574580Y9263790D01*
X10280077Y9969287D01*
X10286507Y9981062D01*
X10277211Y9993077D01*
X10226006Y10028931D01*
X10216511Y10034414D01*
X10019053Y10126490D01*
X10008761Y10130236D01*
X9798312Y10186625D01*
X9787519Y10188528D01*
X9570475Y10207517D01*
X9559525Y10207517D01*
X9342481Y10188528D01*
X9331688Y10186625D01*
X9121239Y10130236D01*
X9110947Y10126490D01*
X8913489Y10034414D01*
X8903994Y10028931D01*
X8851952Y9992491D01*
X8843576Y9982012D01*
X254000Y9982012D01*
X254000Y15612034D01*
X1208257Y15612034D01*
X1238565Y15477554D01*
X1241645Y15467725D01*
X1321770Y15270397D01*
X1326413Y15261206D01*
X1437694Y15079612D01*
X1443777Y15071301D01*
X1583213Y14910333D01*
X1590580Y14903117D01*
X1754434Y14767084D01*
X1762881Y14761169D01*
X1946756Y14653721D01*
X1956042Y14649271D01*
X2105124Y14592343D01*
X2161627Y14549356D01*
X2185920Y14482645D01*
X2170290Y14413390D01*
X2119699Y14363579D01*
X2103785Y14356421D01*
X2062463Y14341176D01*
X1888010Y14237388D01*
X1883670Y14233582D01*
X1883666Y14233579D01*
X1794594Y14155464D01*
X1735392Y14103545D01*
X1609720Y13944131D01*
X1607031Y13939020D01*
X1607029Y13939017D01*
X1570128Y13868880D01*
X1515203Y13764485D01*
X1493795Y13695539D01*
X1457748Y13579448D01*
X1455007Y13570622D01*
X1431148Y13369036D01*
X1444424Y13166478D01*
X1445845Y13160882D01*
X1445846Y13160877D01*
X1486167Y13002116D01*
X1494392Y12969731D01*
X1496809Y12964488D01*
X1534010Y12883792D01*
X1579377Y12785384D01*
X1696533Y12619611D01*
X1700675Y12615576D01*
X1739160Y12578086D01*
X1841938Y12477965D01*
X1846742Y12474755D01*
X1923700Y12423333D01*
X2010720Y12365188D01*
X2016023Y12362910D01*
X2016026Y12362908D01*
X2153423Y12303878D01*
X2197228Y12285058D01*
X2270244Y12268536D01*
X2389579Y12241533D01*
X2389584Y12241532D01*
X2395216Y12240258D01*
X2400987Y12240031D01*
X2400989Y12240031D01*
X2460756Y12237683D01*
X2598053Y12232288D01*
X2698499Y12246852D01*
X2793231Y12260587D01*
X2793236Y12260588D01*
X2798945Y12261416D01*
X2804409Y12263271D01*
X2804414Y12263272D01*
X2985693Y12324808D01*
X2985698Y12324810D01*
X2991165Y12326666D01*
X3001383Y12332388D01*
X3086817Y12380234D01*
X3168276Y12425853D01*
X3183091Y12438174D01*
X3319913Y12551969D01*
X3324345Y12555655D01*
X3395406Y12641096D01*
X3450453Y12707282D01*
X3450455Y12707285D01*
X3454147Y12711724D01*
X3517980Y12825706D01*
X3550510Y12883792D01*
X3550511Y12883794D01*
X3553334Y12888835D01*
X3555190Y12894302D01*
X3555192Y12894307D01*
X3616728Y13075586D01*
X3616729Y13075591D01*
X3618584Y13081055D01*
X3619412Y13086764D01*
X3619413Y13086769D01*
X3640897Y13234944D01*
X3647712Y13281947D01*
X3649232Y13340000D01*
X3630658Y13542141D01*
X3628822Y13548650D01*
X3577125Y13731954D01*
X3577124Y13731956D01*
X3575557Y13737513D01*
X3571192Y13746366D01*
X3488331Y13914391D01*
X3485776Y13919572D01*
X3364320Y14082221D01*
X3215258Y14220013D01*
X3210375Y14223094D01*
X3210371Y14223097D01*
X3048464Y14325252D01*
X3043581Y14328333D01*
X2971614Y14357045D01*
X2915755Y14400866D01*
X2892455Y14467931D01*
X2909111Y14536946D01*
X2960436Y14586000D01*
X2982098Y14594761D01*
X3032252Y14609808D01*
X3041842Y14613567D01*
X3233095Y14707261D01*
X3241945Y14712536D01*
X3415328Y14836208D01*
X3423200Y14842861D01*
X3574052Y14993188D01*
X3580730Y15001035D01*
X3705003Y15173980D01*
X3710313Y15182817D01*
X3804670Y15373733D01*
X3808469Y15383328D01*
X3870377Y15587090D01*
X3872555Y15597163D01*
X3873986Y15608038D01*
X3871775Y15622222D01*
X3858617Y15626000D01*
X1223225Y15626000D01*
X1209694Y15622027D01*
X1208257Y15612034D01*
X254000Y15612034D01*
X254000Y20065331D01*
X1182001Y20065331D01*
X1182371Y20058510D01*
X1187895Y20007648D01*
X1191521Y19992396D01*
X1236676Y19871946D01*
X1245214Y19856351D01*
X1321715Y19754276D01*
X1334276Y19741715D01*
X1436351Y19665214D01*
X1451946Y19656676D01*
X1572394Y19611522D01*
X1587649Y19607895D01*
X1638514Y19602369D01*
X1645328Y19602000D01*
X1908180Y19602000D01*
X1976301Y19581998D01*
X2022794Y19528342D01*
X2032898Y19458068D01*
X2003404Y19393488D01*
X1972605Y19367716D01*
X1888010Y19317388D01*
X1883670Y19313582D01*
X1883666Y19313579D01*
X1778907Y19221707D01*
X1735392Y19183545D01*
X1609720Y19024131D01*
X1607031Y19019020D01*
X1607029Y19019017D01*
X1594073Y18994391D01*
X1515203Y18844485D01*
X1455007Y18650622D01*
X1431148Y18449036D01*
X1444424Y18246478D01*
X1445845Y18240882D01*
X1445846Y18240877D01*
X1476919Y18118529D01*
X1494392Y18049731D01*
X1496809Y18044488D01*
X1533240Y17965464D01*
X1579377Y17865384D01*
X1696533Y17699611D01*
X1700675Y17695576D01*
X1739160Y17658086D01*
X1841938Y17557965D01*
X2010720Y17445188D01*
X2016023Y17442910D01*
X2016026Y17442908D01*
X2112954Y17401265D01*
X2167647Y17355997D01*
X2189184Y17288346D01*
X2170727Y17219790D01*
X2118136Y17172096D01*
X2102361Y17165732D01*
X2016868Y17137788D01*
X2007359Y17133791D01*
X1818463Y17035458D01*
X1809738Y17029964D01*
X1639433Y16902095D01*
X1631726Y16895252D01*
X1484590Y16741283D01*
X1478104Y16733273D01*
X1358098Y16557351D01*
X1353000Y16548377D01*
X1263338Y16355217D01*
X1259775Y16345530D01*
X1204389Y16145817D01*
X1205912Y16137393D01*
X1218292Y16134000D01*
X3858344Y16134000D01*
X3871875Y16137973D01*
X3873180Y16147053D01*
X3831214Y16314125D01*
X3827894Y16323876D01*
X3742972Y16519186D01*
X3738105Y16528261D01*
X3622426Y16707074D01*
X3616136Y16715243D01*
X3472806Y16872760D01*
X3465273Y16879785D01*
X3298139Y17011778D01*
X3289552Y17017483D01*
X3103117Y17120401D01*
X3093705Y17124631D01*
X2979391Y17165112D01*
X2921855Y17206706D01*
X2895939Y17272804D01*
X2909873Y17342420D01*
X2959232Y17393451D01*
X2980943Y17403196D01*
X2991165Y17406666D01*
X3021982Y17423924D01*
X3159119Y17500725D01*
X3168276Y17505853D01*
X3193186Y17526570D01*
X3301136Y17616352D01*
X3324345Y17635655D01*
X3386423Y17710295D01*
X3450453Y17787282D01*
X3450455Y17787285D01*
X3454147Y17791724D01*
X3513845Y17898323D01*
X3550510Y17963792D01*
X3550511Y17963794D01*
X3553334Y17968835D01*
X3555190Y17974302D01*
X3555192Y17974307D01*
X3616728Y18155586D01*
X3616729Y18155591D01*
X3618584Y18161055D01*
X3619412Y18166764D01*
X3619413Y18166769D01*
X3645256Y18345008D01*
X3647712Y18361947D01*
X3649232Y18420000D01*
X3630658Y18622141D01*
X3629090Y18627701D01*
X3577125Y18811954D01*
X3577124Y18811956D01*
X3575557Y18817513D01*
X3564978Y18838967D01*
X3488331Y18994391D01*
X3485776Y18999572D01*
X3364320Y19162221D01*
X3226753Y19289387D01*
X3219503Y19296089D01*
X3215258Y19300013D01*
X3105224Y19369439D01*
X3058286Y19422706D01*
X3047597Y19492893D01*
X3076552Y19557718D01*
X3135956Y19596597D01*
X3172460Y19602001D01*
X3434669Y19602001D01*
X3441490Y19602371D01*
X3492352Y19607895D01*
X3507604Y19611521D01*
X3628054Y19656676D01*
X3643649Y19665214D01*
X3745724Y19741715D01*
X3758285Y19754276D01*
X3834786Y19856351D01*
X3843324Y19871946D01*
X3888478Y19992394D01*
X3892105Y20007649D01*
X3897631Y20058514D01*
X3898000Y20065328D01*
X3898000Y20687885D01*
X3893525Y20703124D01*
X3892135Y20704329D01*
X3884452Y20706000D01*
X1200116Y20706000D01*
X1184877Y20701525D01*
X1183672Y20700135D01*
X1182001Y20692452D01*
X1182001Y20065331D01*
X254000Y20065331D01*
X254000Y21232115D01*
X1182000Y21232115D01*
X1186475Y21216876D01*
X1187865Y21215671D01*
X1195548Y21214000D01*
X2267885Y21214000D01*
X2283124Y21218475D01*
X2284329Y21219865D01*
X2286000Y21227548D01*
X2286000Y21232115D01*
X2794000Y21232115D01*
X2798475Y21216876D01*
X2799865Y21215671D01*
X2807548Y21214000D01*
X3879884Y21214000D01*
X3895123Y21218475D01*
X3896328Y21219865D01*
X3897999Y21227548D01*
X3897999Y21854669D01*
X3897629Y21861490D01*
X3892105Y21912352D01*
X3888479Y21927604D01*
X3843324Y22048054D01*
X3834786Y22063649D01*
X3758285Y22165724D01*
X3745724Y22178285D01*
X3643649Y22254786D01*
X3628054Y22263324D01*
X3507606Y22308478D01*
X3492351Y22312105D01*
X3441486Y22317631D01*
X3434672Y22318000D01*
X2812115Y22318000D01*
X2796876Y22313525D01*
X2795671Y22312135D01*
X2794000Y22304452D01*
X2794000Y21232115D01*
X2286000Y21232115D01*
X2286000Y22299884D01*
X2281525Y22315123D01*
X2280135Y22316328D01*
X2272452Y22317999D01*
X1645331Y22317999D01*
X1638510Y22317629D01*
X1587648Y22312105D01*
X1572396Y22308479D01*
X1451946Y22263324D01*
X1436351Y22254786D01*
X1334276Y22178285D01*
X1321715Y22165724D01*
X1245214Y22063649D01*
X1236676Y22048054D01*
X1191522Y21927606D01*
X1187895Y21912351D01*
X1182369Y21861486D01*
X1182000Y21854672D01*
X1182000Y21232115D01*
X254000Y21232115D01*
X254000Y25137034D01*
X1208257Y25137034D01*
X1238565Y25002554D01*
X1241645Y24992725D01*
X1321770Y24795397D01*
X1326413Y24786206D01*
X1437694Y24604612D01*
X1443777Y24596301D01*
X1583213Y24435333D01*
X1590580Y24428117D01*
X1754434Y24292084D01*
X1762881Y24286169D01*
X1946756Y24178721D01*
X1956042Y24174271D01*
X2155001Y24098297D01*
X2164899Y24095421D01*
X2268250Y24074394D01*
X2282299Y24075590D01*
X2286000Y24085935D01*
X2286000Y24086483D01*
X2794000Y24086483D01*
X2798064Y24072641D01*
X2811478Y24070607D01*
X2818184Y24071466D01*
X2828262Y24073608D01*
X3032255Y24134809D01*
X3041842Y24138567D01*
X3233095Y24232261D01*
X3241945Y24237536D01*
X3415328Y24361208D01*
X3423200Y24367861D01*
X3574052Y24518188D01*
X3580730Y24526035D01*
X3705003Y24698980D01*
X3710313Y24707817D01*
X3804670Y24898733D01*
X3808469Y24908328D01*
X3870377Y25112090D01*
X3872555Y25122163D01*
X3873986Y25133038D01*
X3871775Y25147222D01*
X3858617Y25151000D01*
X2812115Y25151000D01*
X2796876Y25146525D01*
X2795671Y25145135D01*
X2794000Y25137452D01*
X2794000Y24086483D01*
X2286000Y24086483D01*
X2286000Y25132885D01*
X2281525Y25148124D01*
X2280135Y25149329D01*
X2272452Y25151000D01*
X1223225Y25151000D01*
X1209694Y25147027D01*
X1208257Y25137034D01*
X254000Y25137034D01*
X254000Y25670817D01*
X1204389Y25670817D01*
X1205912Y25662393D01*
X1218292Y25659000D01*
X3858344Y25659000D01*
X3871875Y25662973D01*
X3873180Y25672053D01*
X3831214Y25839125D01*
X3827894Y25848876D01*
X3742972Y26044186D01*
X3738105Y26053261D01*
X3622426Y26232074D01*
X3616136Y26240243D01*
X3472806Y26397760D01*
X3465273Y26404785D01*
X3298139Y26536778D01*
X3289552Y26542483D01*
X3177765Y26604193D01*
X3127795Y26654625D01*
X3113023Y26724068D01*
X3138139Y26790473D01*
X3195170Y26832758D01*
X3238658Y26840501D01*
X3415066Y26840501D01*
X3450818Y26847612D01*
X3477126Y26852844D01*
X3477128Y26852845D01*
X3489301Y26855266D01*
X3499621Y26862161D01*
X3499622Y26862162D01*
X3563168Y26904623D01*
X3573484Y26911516D01*
X3629734Y26995699D01*
X3644500Y27069933D01*
X3644500Y27412100D01*
X3664502Y27480221D01*
X3718158Y27526714D01*
X3770500Y27538100D01*
X4859267Y27538100D01*
X4927388Y27518098D01*
X4948362Y27501195D01*
X6541195Y25908362D01*
X6575221Y25846050D01*
X6578100Y25819267D01*
X6578100Y15180554D01*
X6581165Y15171121D01*
X6585054Y15159152D01*
X6589670Y15139926D01*
X6593191Y15117694D01*
X6597692Y15108861D01*
X6597692Y15108860D01*
X6603408Y15097642D01*
X6610972Y15079380D01*
X6614864Y15067403D01*
X6617930Y15057968D01*
X6623761Y15049943D01*
X6631160Y15039759D01*
X6641490Y15022904D01*
X6651708Y15002849D01*
X8517849Y13136708D01*
X8537904Y13126490D01*
X8554759Y13116160D01*
X8572968Y13102930D01*
X8582401Y13099865D01*
X8582403Y13099864D01*
X8594380Y13095972D01*
X8612641Y13088408D01*
X8632694Y13078191D01*
X8642487Y13076640D01*
X8654926Y13074670D01*
X8674152Y13070054D01*
X8695554Y13063100D01*
X20144770Y13063100D01*
X20212891Y13043098D01*
X20259384Y12989442D01*
X20262752Y12981329D01*
X20278355Y12939707D01*
X20278356Y12939705D01*
X20281507Y12931301D01*
X20366026Y12818526D01*
X20478801Y12734007D01*
X20487202Y12730857D01*
X20487205Y12730856D01*
X20550089Y12707282D01*
X20610764Y12684536D01*
X20670930Y12678000D01*
X21239070Y12678000D01*
X21299236Y12684536D01*
X21359911Y12707282D01*
X21422795Y12730856D01*
X21422798Y12730857D01*
X21431199Y12734007D01*
X21543974Y12818526D01*
X21628493Y12931301D01*
X21631645Y12939707D01*
X21675190Y13055865D01*
X21677964Y13063264D01*
X21684500Y13123430D01*
X21684500Y13816570D01*
X21677964Y13876736D01*
X21647248Y13958671D01*
X21631644Y14000295D01*
X21631643Y14000298D01*
X21628493Y14008699D01*
X21543974Y14121474D01*
X21431199Y14205993D01*
X21422798Y14209143D01*
X21422795Y14209144D01*
X21408459Y14214518D01*
X21351694Y14257160D01*
X21326995Y14323722D01*
X21342203Y14393071D01*
X21392489Y14443189D01*
X21408459Y14450482D01*
X21422795Y14455856D01*
X21422798Y14455857D01*
X21431199Y14459007D01*
X21543974Y14543526D01*
X21628493Y14656301D01*
X21631644Y14664705D01*
X21631645Y14664707D01*
X21665992Y14756329D01*
X21708633Y14813094D01*
X21775195Y14837794D01*
X21783974Y14838100D01*
X23338515Y14838100D01*
X23406636Y14818098D01*
X23447033Y14771477D01*
X23449046Y14772579D01*
X23453356Y14764706D01*
X23456507Y14756301D01*
X23461889Y14749119D01*
X23461890Y14749118D01*
X23493260Y14707261D01*
X23541026Y14643526D01*
X23653801Y14559007D01*
X23662202Y14555857D01*
X23662205Y14555856D01*
X23695096Y14543526D01*
X23785764Y14509536D01*
X23845930Y14503000D01*
X24414070Y14503000D01*
X24474236Y14509536D01*
X24564904Y14543526D01*
X24597795Y14555856D01*
X24597798Y14555857D01*
X24606199Y14559007D01*
X24672748Y14608882D01*
X24739254Y14633729D01*
X24808637Y14618676D01*
X24837407Y14597150D01*
X25903595Y13530962D01*
X25937621Y13468650D01*
X25940500Y13441867D01*
X25940500Y13123430D01*
X25947036Y13063264D01*
X25949810Y13055865D01*
X25993356Y12939707D01*
X25996507Y12931301D01*
X26081026Y12818526D01*
X26193801Y12734007D01*
X26202202Y12730857D01*
X26202205Y12730856D01*
X26265089Y12707282D01*
X26325764Y12684536D01*
X26385930Y12678000D01*
X26954070Y12678000D01*
X27014236Y12684536D01*
X27074911Y12707282D01*
X27137795Y12730856D01*
X27137798Y12730857D01*
X27146199Y12734007D01*
X27258974Y12818526D01*
X27343493Y12931301D01*
X27346645Y12939707D01*
X27390190Y13055865D01*
X27392964Y13063264D01*
X27399500Y13123430D01*
X27399500Y13716570D01*
X27392964Y13776736D01*
X27358421Y13868880D01*
X27346644Y13900295D01*
X27346643Y13900298D01*
X27343493Y13908699D01*
X27258974Y14021474D01*
X27146199Y14105993D01*
X27137798Y14109143D01*
X27137795Y14109144D01*
X27059387Y14138537D01*
X27014236Y14155464D01*
X26954070Y14162000D01*
X26475633Y14162000D01*
X26407512Y14182002D01*
X26386538Y14198905D01*
X26297538Y14287905D01*
X26263512Y14350217D01*
X26268577Y14421032D01*
X26311124Y14477868D01*
X26377644Y14502679D01*
X26386633Y14503000D01*
X26954070Y14503000D01*
X27014236Y14509536D01*
X27104904Y14543526D01*
X27137795Y14555856D01*
X27137798Y14555857D01*
X27146199Y14559007D01*
X27258974Y14643526D01*
X27306740Y14707261D01*
X27338110Y14749118D01*
X27338111Y14749119D01*
X27343493Y14756301D01*
X27346644Y14764706D01*
X27350954Y14772579D01*
X27354553Y14770609D01*
X27384574Y14811903D01*
X27450741Y14837641D01*
X27461485Y14838100D01*
X27719267Y14838100D01*
X27787388Y14818098D01*
X27808362Y14801195D01*
X29078595Y13530962D01*
X29112621Y13468650D01*
X29115500Y13441867D01*
X29115500Y13123430D01*
X29122036Y13063264D01*
X29124810Y13055865D01*
X29168356Y12939707D01*
X29171507Y12931301D01*
X29256026Y12818526D01*
X29368801Y12734007D01*
X29377202Y12730857D01*
X29377205Y12730856D01*
X29440089Y12707282D01*
X29500764Y12684536D01*
X29560930Y12678000D01*
X30129070Y12678000D01*
X30189236Y12684536D01*
X30249911Y12707282D01*
X30312795Y12730856D01*
X30312798Y12730857D01*
X30321199Y12734007D01*
X30433974Y12818526D01*
X30518493Y12931301D01*
X30521645Y12939707D01*
X30565190Y13055865D01*
X30567964Y13063264D01*
X30574500Y13123430D01*
X30574500Y13716570D01*
X30567964Y13776736D01*
X30533421Y13868880D01*
X30521644Y13900295D01*
X30521643Y13900298D01*
X30518493Y13908699D01*
X30433974Y14021474D01*
X30321199Y14105993D01*
X30312798Y14109143D01*
X30312795Y14109144D01*
X30234387Y14138537D01*
X30189236Y14155464D01*
X30129070Y14162000D01*
X29650633Y14162000D01*
X29582512Y14182002D01*
X29561538Y14198905D01*
X29472538Y14287905D01*
X29438512Y14350217D01*
X29443577Y14421032D01*
X29486124Y14477868D01*
X29552644Y14502679D01*
X29561633Y14503000D01*
X30129070Y14503000D01*
X30189236Y14509536D01*
X30279904Y14543526D01*
X30312795Y14555856D01*
X30312798Y14555857D01*
X30321199Y14559007D01*
X30433974Y14643526D01*
X30481740Y14707261D01*
X30513110Y14749118D01*
X30513111Y14749119D01*
X30518493Y14756301D01*
X30521644Y14764706D01*
X30525954Y14772579D01*
X30529553Y14770609D01*
X30559574Y14811903D01*
X30625741Y14837641D01*
X30636485Y14838100D01*
X30974267Y14838100D01*
X31042388Y14818098D01*
X31063362Y14801195D01*
X32253595Y13610962D01*
X32287621Y13548650D01*
X32290500Y13521867D01*
X32290500Y13123430D01*
X32297036Y13063264D01*
X32299810Y13055865D01*
X32343356Y12939707D01*
X32346507Y12931301D01*
X32431026Y12818526D01*
X32543801Y12734007D01*
X32552202Y12730857D01*
X32552205Y12730856D01*
X32615089Y12707282D01*
X32675764Y12684536D01*
X32735930Y12678000D01*
X33304070Y12678000D01*
X33364236Y12684536D01*
X33424911Y12707282D01*
X33487795Y12730856D01*
X33487798Y12730857D01*
X33496199Y12734007D01*
X33608974Y12818526D01*
X33693493Y12931301D01*
X33696645Y12939707D01*
X33740190Y13055865D01*
X33742964Y13063264D01*
X33749500Y13123430D01*
X33749500Y13716570D01*
X33742964Y13776736D01*
X33708421Y13868880D01*
X33696644Y13900295D01*
X33696643Y13900298D01*
X33693493Y13908699D01*
X33608974Y14021474D01*
X33496199Y14105993D01*
X33487798Y14109143D01*
X33487795Y14109144D01*
X33409387Y14138537D01*
X33364236Y14155464D01*
X33304070Y14162000D01*
X32905633Y14162000D01*
X32837512Y14182002D01*
X32816538Y14198905D01*
X32727538Y14287905D01*
X32693512Y14350217D01*
X32698577Y14421032D01*
X32741124Y14477868D01*
X32807644Y14502679D01*
X32816633Y14503000D01*
X33304070Y14503000D01*
X33364236Y14509536D01*
X33454904Y14543526D01*
X33487795Y14555856D01*
X33487798Y14555857D01*
X33496199Y14559007D01*
X33608974Y14643526D01*
X33693493Y14756301D01*
X33697536Y14767084D01*
X33740190Y14880865D01*
X33742964Y14888264D01*
X33749500Y14948430D01*
X33749500Y15541570D01*
X33742964Y15601736D01*
X33716660Y15671902D01*
X33696644Y15725295D01*
X33696643Y15725298D01*
X33693493Y15733699D01*
X33608974Y15846474D01*
X33528136Y15907058D01*
X33485620Y15963917D01*
X33477700Y16007885D01*
X33477700Y16566300D01*
X33497702Y16634421D01*
X33551358Y16680914D01*
X33603700Y16692300D01*
X37840733Y16692300D01*
X37878063Y16683849D01*
X37878834Y16686316D01*
X38017864Y16642879D01*
X38163498Y16640210D01*
X38237380Y16660353D01*
X38295363Y16676161D01*
X38295364Y16676161D01*
X38304026Y16678523D01*
X38312359Y16683639D01*
X38401844Y16738583D01*
X38428154Y16754737D01*
X38434774Y16762050D01*
X38519873Y16856066D01*
X38519874Y16856067D01*
X38525901Y16862726D01*
X38530763Y16872760D01*
X38585495Y16985728D01*
X38585495Y16985729D01*
X38589410Y16993809D01*
X38613576Y17137448D01*
X38613729Y17150000D01*
X38605608Y17206706D01*
X38594354Y17285294D01*
X38594353Y17285297D01*
X38593080Y17294187D01*
X38589362Y17302365D01*
X38536508Y17418610D01*
X38536507Y17418612D01*
X38532792Y17426782D01*
X38437713Y17537127D01*
X38315485Y17616352D01*
X38175934Y17658086D01*
X38166958Y17658141D01*
X38166957Y17658141D01*
X38105644Y17658515D01*
X38030279Y17658976D01*
X37890229Y17618949D01*
X37888303Y17617734D01*
X37841301Y17607700D01*
X33875500Y17607700D01*
X33807379Y17627702D01*
X33760886Y17681358D01*
X33749500Y17733700D01*
X33749500Y17854070D01*
X33742964Y17914236D01*
X33706114Y18012533D01*
X33696644Y18037795D01*
X33696643Y18037798D01*
X33693493Y18046199D01*
X33662041Y18088166D01*
X33633061Y18126835D01*
X33608214Y18193342D01*
X33623268Y18262724D01*
X33667586Y18309544D01*
X33717492Y18340427D01*
X33728890Y18349460D01*
X33841363Y18462129D01*
X33850375Y18473540D01*
X33933912Y18609063D01*
X33940056Y18622241D01*
X33990315Y18773766D01*
X33993181Y18787132D01*
X34002672Y18879770D01*
X34003000Y18886185D01*
X34003000Y18960385D01*
X33998525Y18975624D01*
X33997135Y18976829D01*
X33989452Y18978500D01*
X32055115Y18978500D01*
X32039876Y18974025D01*
X32038671Y18972635D01*
X32037000Y18964952D01*
X32037000Y18886234D01*
X32037337Y18879718D01*
X32047075Y18785868D01*
X32049968Y18772472D01*
X32100488Y18621047D01*
X32106653Y18607885D01*
X32190426Y18472508D01*
X32199460Y18461110D01*
X32312129Y18348637D01*
X32323543Y18339623D01*
X32372204Y18309628D01*
X32419698Y18256856D01*
X32431122Y18186785D01*
X32406916Y18126804D01*
X32400715Y18118529D01*
X32346507Y18046199D01*
X32343357Y18037798D01*
X32343356Y18037795D01*
X32333886Y18012533D01*
X32297036Y17914236D01*
X32290500Y17854070D01*
X32290500Y17160930D01*
X32297036Y17100764D01*
X32299810Y17093365D01*
X32333450Y17003631D01*
X32346507Y16968801D01*
X32431026Y16856026D01*
X32438206Y16850645D01*
X32511864Y16795442D01*
X32554380Y16738583D01*
X32562300Y16694615D01*
X32562300Y16007885D01*
X32542298Y15939764D01*
X32511864Y15907058D01*
X32431026Y15846474D01*
X32346507Y15733699D01*
X32343357Y15725298D01*
X32343356Y15725295D01*
X32323340Y15671902D01*
X32297036Y15601736D01*
X32290500Y15541570D01*
X32290500Y15029133D01*
X32270498Y14961012D01*
X32216842Y14914519D01*
X32146568Y14904415D01*
X32081988Y14933909D01*
X32075405Y14940038D01*
X31437151Y15578292D01*
X31417096Y15588510D01*
X31400241Y15598840D01*
X31390057Y15606239D01*
X31382032Y15612070D01*
X31372599Y15615135D01*
X31372597Y15615136D01*
X31360620Y15619028D01*
X31342358Y15626592D01*
X31331140Y15632308D01*
X31331139Y15632308D01*
X31322306Y15636809D01*
X31300074Y15640330D01*
X31280848Y15644946D01*
X31268879Y15648835D01*
X31259446Y15651900D01*
X30636485Y15651900D01*
X30568364Y15671902D01*
X30527967Y15718523D01*
X30525954Y15717421D01*
X30521644Y15725294D01*
X30518493Y15733699D01*
X30513111Y15740881D01*
X30513110Y15740882D01*
X30439355Y15839294D01*
X30433974Y15846474D01*
X30321199Y15930993D01*
X30316128Y15932894D01*
X30267246Y15981884D01*
X30251900Y16042147D01*
X30251900Y16660353D01*
X30271902Y16728474D01*
X30315968Y16769546D01*
X30321199Y16771507D01*
X30433974Y16856026D01*
X30518493Y16968801D01*
X30531551Y17003631D01*
X30565190Y17093365D01*
X30567964Y17100764D01*
X30574500Y17160930D01*
X30574500Y17854070D01*
X30567964Y17914236D01*
X30531114Y18012533D01*
X30521644Y18037795D01*
X30521643Y18037798D01*
X30518493Y18046199D01*
X30487041Y18088166D01*
X30458061Y18126835D01*
X30433214Y18193342D01*
X30448268Y18262724D01*
X30492586Y18309544D01*
X30542492Y18340427D01*
X30553890Y18349460D01*
X30666363Y18462129D01*
X30675375Y18473540D01*
X30758912Y18609063D01*
X30765056Y18622241D01*
X30815315Y18773766D01*
X30818181Y18787132D01*
X30827672Y18879770D01*
X30828000Y18886185D01*
X30828000Y18960385D01*
X30823525Y18975624D01*
X30822135Y18976829D01*
X30814452Y18978500D01*
X28880115Y18978500D01*
X28864876Y18974025D01*
X28863671Y18972635D01*
X28862000Y18964952D01*
X28862000Y18886234D01*
X28862337Y18879718D01*
X28872075Y18785868D01*
X28874968Y18772472D01*
X28925488Y18621047D01*
X28931653Y18607885D01*
X29015426Y18472508D01*
X29024460Y18461110D01*
X29137129Y18348637D01*
X29148543Y18339623D01*
X29197204Y18309628D01*
X29244698Y18256856D01*
X29256122Y18186785D01*
X29231916Y18126804D01*
X29225715Y18118529D01*
X29171507Y18046199D01*
X29168357Y18037798D01*
X29168356Y18037795D01*
X29158886Y18012533D01*
X29122036Y17914236D01*
X29115500Y17854070D01*
X29115500Y17160930D01*
X29122036Y17100764D01*
X29124810Y17093365D01*
X29158450Y17003631D01*
X29171507Y16968801D01*
X29256026Y16856026D01*
X29368801Y16771507D01*
X29373872Y16769606D01*
X29422754Y16720616D01*
X29438100Y16660353D01*
X29438100Y16042147D01*
X29418098Y15974026D01*
X29374032Y15932954D01*
X29368801Y15930993D01*
X29256026Y15846474D01*
X29171507Y15733699D01*
X29168357Y15725298D01*
X29168356Y15725295D01*
X29148340Y15671902D01*
X29122036Y15601736D01*
X29115500Y15541570D01*
X29115500Y14949133D01*
X29095498Y14881012D01*
X29041842Y14834519D01*
X28971568Y14824415D01*
X28906988Y14853909D01*
X28900405Y14860038D01*
X28182151Y15578292D01*
X28162096Y15588510D01*
X28145241Y15598840D01*
X28135057Y15606239D01*
X28127032Y15612070D01*
X28117599Y15615135D01*
X28117597Y15615136D01*
X28105620Y15619028D01*
X28087358Y15626592D01*
X28076140Y15632308D01*
X28076139Y15632308D01*
X28067306Y15636809D01*
X28045074Y15640330D01*
X28025848Y15644946D01*
X28013879Y15648835D01*
X28004446Y15651900D01*
X27461485Y15651900D01*
X27393364Y15671902D01*
X27352967Y15718523D01*
X27350954Y15717421D01*
X27346644Y15725294D01*
X27343493Y15733699D01*
X27338111Y15740881D01*
X27338110Y15740882D01*
X27264355Y15839294D01*
X27258974Y15846474D01*
X27146199Y15930993D01*
X27141128Y15932894D01*
X27092246Y15981884D01*
X27076900Y16042147D01*
X27076900Y16660353D01*
X27096902Y16728474D01*
X27140968Y16769546D01*
X27146199Y16771507D01*
X27258974Y16856026D01*
X27343493Y16968801D01*
X27356551Y17003631D01*
X27390190Y17093365D01*
X27392964Y17100764D01*
X27399500Y17160930D01*
X27399500Y17854070D01*
X27392964Y17914236D01*
X27356114Y18012533D01*
X27346644Y18037795D01*
X27346643Y18037798D01*
X27343493Y18046199D01*
X27312041Y18088166D01*
X27283061Y18126835D01*
X27258214Y18193342D01*
X27273268Y18262724D01*
X27317586Y18309544D01*
X27367492Y18340427D01*
X27378890Y18349460D01*
X27491363Y18462129D01*
X27500375Y18473540D01*
X27583912Y18609063D01*
X27590056Y18622241D01*
X27640315Y18773766D01*
X27643181Y18787132D01*
X27652672Y18879770D01*
X27653000Y18886185D01*
X27653000Y18960385D01*
X27648525Y18975624D01*
X27647135Y18976829D01*
X27639452Y18978500D01*
X25705115Y18978500D01*
X25689876Y18974025D01*
X25688671Y18972635D01*
X25687000Y18964952D01*
X25687000Y18886234D01*
X25687337Y18879718D01*
X25697075Y18785868D01*
X25699968Y18772472D01*
X25750488Y18621047D01*
X25756653Y18607885D01*
X25840426Y18472508D01*
X25849460Y18461110D01*
X25962129Y18348637D01*
X25973543Y18339623D01*
X26022204Y18309628D01*
X26069698Y18256856D01*
X26081122Y18186785D01*
X26056916Y18126804D01*
X26050715Y18118529D01*
X25996507Y18046199D01*
X25993357Y18037798D01*
X25993356Y18037795D01*
X25983886Y18012533D01*
X25947036Y17914236D01*
X25940500Y17854070D01*
X25940500Y17160930D01*
X25947036Y17100764D01*
X25949810Y17093365D01*
X25983450Y17003631D01*
X25996507Y16968801D01*
X26081026Y16856026D01*
X26193801Y16771507D01*
X26198872Y16769606D01*
X26247754Y16720616D01*
X26263100Y16660353D01*
X26263100Y16042147D01*
X26243098Y15974026D01*
X26199032Y15932954D01*
X26193801Y15930993D01*
X26081026Y15846474D01*
X25996507Y15733699D01*
X25993357Y15725298D01*
X25993356Y15725295D01*
X25973340Y15671902D01*
X25947036Y15601736D01*
X25940500Y15541570D01*
X25940500Y14949133D01*
X25920498Y14881012D01*
X25866842Y14834519D01*
X25796568Y14824415D01*
X25731988Y14853909D01*
X25725405Y14860038D01*
X25007151Y15578292D01*
X24987096Y15588510D01*
X24970241Y15598840D01*
X24960057Y15606239D01*
X24952032Y15612070D01*
X24942599Y15615135D01*
X24942597Y15615136D01*
X24930620Y15619028D01*
X24912358Y15626592D01*
X24892306Y15636809D01*
X24888286Y15637446D01*
X24832361Y15675688D01*
X24811923Y15711214D01*
X24806645Y15725293D01*
X24806643Y15725297D01*
X24803493Y15733699D01*
X24718974Y15846474D01*
X24606199Y15930993D01*
X24601128Y15932894D01*
X24552246Y15981884D01*
X24536900Y16042147D01*
X24536900Y16432853D01*
X24556902Y16500974D01*
X24600968Y16542046D01*
X24606199Y16544007D01*
X24718974Y16628526D01*
X24803493Y16741301D01*
X24811272Y16762050D01*
X24850190Y16865865D01*
X24852964Y16873264D01*
X24859500Y16933430D01*
X24859500Y17526570D01*
X24852964Y17586736D01*
X24834625Y17635655D01*
X24806644Y17710295D01*
X24806643Y17710298D01*
X24803493Y17718699D01*
X24718974Y17831474D01*
X24711793Y17836856D01*
X24629948Y17898195D01*
X24587433Y17955054D01*
X24582407Y18025872D01*
X24616467Y18088166D01*
X24665636Y18118544D01*
X24678948Y18122985D01*
X24692115Y18129153D01*
X24827492Y18212926D01*
X24838890Y18221960D01*
X24951363Y18334629D01*
X24960375Y18346040D01*
X25043912Y18481563D01*
X25050056Y18494741D01*
X25100315Y18646266D01*
X25103181Y18659632D01*
X25112672Y18752270D01*
X25113000Y18758685D01*
X25113000Y18782885D01*
X25108525Y18798124D01*
X25107135Y18799329D01*
X25099452Y18801000D01*
X23165115Y18801000D01*
X23149876Y18796525D01*
X23148671Y18795135D01*
X23147000Y18787452D01*
X23147000Y18758734D01*
X23147337Y18752218D01*
X23157075Y18658368D01*
X23159968Y18644972D01*
X23210488Y18493547D01*
X23216653Y18480385D01*
X23300426Y18345008D01*
X23309460Y18333610D01*
X23422129Y18221137D01*
X23433540Y18212125D01*
X23569063Y18128588D01*
X23582236Y18122446D01*
X23594044Y18118529D01*
X23652403Y18078097D01*
X23679639Y18012533D01*
X23667105Y17942651D01*
X23629940Y17898111D01*
X23541026Y17831474D01*
X23456507Y17718699D01*
X23453357Y17710298D01*
X23453356Y17710295D01*
X23417317Y17614161D01*
X23407036Y17586736D01*
X23405548Y17587294D01*
X23374846Y17533547D01*
X23311891Y17500725D01*
X23241186Y17507149D01*
X23204648Y17529388D01*
X23203574Y17530325D01*
X23197713Y17537127D01*
X23075485Y17616352D01*
X22935934Y17658086D01*
X22926958Y17658141D01*
X22926957Y17658141D01*
X22865644Y17658515D01*
X22790279Y17658976D01*
X22650229Y17618949D01*
X22610901Y17594135D01*
X22582694Y17576338D01*
X22515459Y17556900D01*
X18124471Y17556900D01*
X18055938Y17577168D01*
X18003016Y17611471D01*
X18003014Y17611472D01*
X17995485Y17616352D01*
X17855934Y17658086D01*
X17846958Y17658141D01*
X17846957Y17658141D01*
X17785644Y17658515D01*
X17710279Y17658976D01*
X17570229Y17618949D01*
X17562642Y17614162D01*
X17562640Y17614161D01*
X17558377Y17611471D01*
X17447042Y17541224D01*
X17350622Y17432049D01*
X17346808Y17423926D01*
X17346807Y17423924D01*
X17308541Y17342420D01*
X17288719Y17300200D01*
X17287339Y17291335D01*
X17287338Y17291333D01*
X17276199Y17219790D01*
X17266309Y17156276D01*
X17267473Y17147374D01*
X17267473Y17147371D01*
X17279096Y17058486D01*
X17285195Y17011848D01*
X17288809Y17003635D01*
X17288810Y17003631D01*
X17318197Y16936847D01*
X17343859Y16878526D01*
X17349634Y16871656D01*
X17349635Y16871654D01*
X17403892Y16807107D01*
X17437583Y16767027D01*
X17445060Y16762050D01*
X17551361Y16691290D01*
X17551363Y16691289D01*
X17558834Y16686316D01*
X17567401Y16683639D01*
X17567402Y16683639D01*
X17568740Y16683221D01*
X17697864Y16642879D01*
X17843498Y16640210D01*
X17917380Y16660353D01*
X17975363Y16676161D01*
X17975364Y16676161D01*
X17984026Y16678523D01*
X17992359Y16683639D01*
X18058867Y16724475D01*
X18124795Y16743100D01*
X22515428Y16743100D01*
X22585245Y16721988D01*
X22638834Y16686316D01*
X22647404Y16683638D01*
X22647405Y16683638D01*
X22648740Y16683221D01*
X22777864Y16642879D01*
X22923498Y16640210D01*
X22997380Y16660353D01*
X23055363Y16676161D01*
X23055364Y16676161D01*
X23064026Y16678523D01*
X23072359Y16683639D01*
X23161844Y16738583D01*
X23188154Y16754737D01*
X23194774Y16762050D01*
X23235557Y16807107D01*
X23296100Y16844189D01*
X23367080Y16842651D01*
X23425961Y16802983D01*
X23446953Y16766784D01*
X23448974Y16761394D01*
X23456507Y16741301D01*
X23541026Y16628526D01*
X23653801Y16544007D01*
X23658872Y16542106D01*
X23707754Y16493116D01*
X23723100Y16432853D01*
X23723100Y16042147D01*
X23703098Y15974026D01*
X23659032Y15932954D01*
X23653801Y15930993D01*
X23541026Y15846474D01*
X23535645Y15839294D01*
X23461890Y15740882D01*
X23461889Y15740881D01*
X23456507Y15733699D01*
X23453356Y15725294D01*
X23449046Y15717421D01*
X23445447Y15719391D01*
X23415426Y15678097D01*
X23349259Y15652359D01*
X23338515Y15651900D01*
X21746485Y15651900D01*
X21678364Y15671902D01*
X21637967Y15718523D01*
X21635954Y15717421D01*
X21631644Y15725294D01*
X21628493Y15733699D01*
X21623111Y15740881D01*
X21623110Y15740882D01*
X21549355Y15839294D01*
X21543974Y15846474D01*
X21431199Y15930993D01*
X21422798Y15934143D01*
X21422795Y15934144D01*
X21316409Y15974026D01*
X21299236Y15980464D01*
X21239070Y15987000D01*
X20670930Y15987000D01*
X20610764Y15980464D01*
X20593591Y15974026D01*
X20487205Y15934144D01*
X20487202Y15934143D01*
X20478801Y15930993D01*
X20366026Y15846474D01*
X20281507Y15733699D01*
X20278357Y15725298D01*
X20278356Y15725295D01*
X20258340Y15671902D01*
X20232036Y15601736D01*
X20225500Y15541570D01*
X20225500Y14848430D01*
X20232036Y14788264D01*
X20246711Y14749119D01*
X20278356Y14664707D01*
X20281507Y14656301D01*
X20366026Y14543526D01*
X20478801Y14459007D01*
X20487202Y14455857D01*
X20487205Y14455856D01*
X20501541Y14450482D01*
X20558306Y14407840D01*
X20583005Y14341278D01*
X20567797Y14271929D01*
X20517511Y14221811D01*
X20501541Y14214518D01*
X20487205Y14209144D01*
X20487202Y14209143D01*
X20478801Y14205993D01*
X20366026Y14121474D01*
X20281507Y14008699D01*
X20278357Y14000297D01*
X20278355Y14000293D01*
X20262752Y13958671D01*
X20220111Y13901906D01*
X20153549Y13877206D01*
X20144770Y13876900D01*
X8980733Y13876900D01*
X8912612Y13896902D01*
X8891638Y13913805D01*
X7428805Y15376638D01*
X7394779Y15438950D01*
X7391900Y15465733D01*
X7391900Y19327115D01*
X23147000Y19327115D01*
X23151475Y19311876D01*
X23152865Y19310671D01*
X23160548Y19309000D01*
X23857885Y19309000D01*
X23873124Y19313475D01*
X23874329Y19314865D01*
X23876000Y19322548D01*
X23876000Y19327115D01*
X24384000Y19327115D01*
X24388475Y19311876D01*
X24389865Y19310671D01*
X24397548Y19309000D01*
X25094885Y19309000D01*
X25110124Y19313475D01*
X25111329Y19314865D01*
X25113000Y19322548D01*
X25113000Y19351266D01*
X25112663Y19357782D01*
X25102925Y19451632D01*
X25100032Y19465028D01*
X25086825Y19504615D01*
X25687000Y19504615D01*
X25691475Y19489376D01*
X25692865Y19488171D01*
X25700548Y19486500D01*
X26397885Y19486500D01*
X26413124Y19490975D01*
X26414329Y19492365D01*
X26416000Y19500048D01*
X26416000Y19504615D01*
X26924000Y19504615D01*
X26928475Y19489376D01*
X26929865Y19488171D01*
X26937548Y19486500D01*
X27634885Y19486500D01*
X27650124Y19490975D01*
X27651329Y19492365D01*
X27653000Y19500048D01*
X27653000Y19504615D01*
X28862000Y19504615D01*
X28866475Y19489376D01*
X28867865Y19488171D01*
X28875548Y19486500D01*
X29572885Y19486500D01*
X29588124Y19490975D01*
X29589329Y19492365D01*
X29591000Y19500048D01*
X29591000Y19504615D01*
X30099000Y19504615D01*
X30103475Y19489376D01*
X30104865Y19488171D01*
X30112548Y19486500D01*
X30809885Y19486500D01*
X30825124Y19490975D01*
X30826329Y19492365D01*
X30828000Y19500048D01*
X30828000Y19504615D01*
X32037000Y19504615D01*
X32041475Y19489376D01*
X32042865Y19488171D01*
X32050548Y19486500D01*
X32747885Y19486500D01*
X32763124Y19490975D01*
X32764329Y19492365D01*
X32766000Y19500048D01*
X32766000Y19504615D01*
X33274000Y19504615D01*
X33278475Y19489376D01*
X33279865Y19488171D01*
X33287548Y19486500D01*
X33984885Y19486500D01*
X34000124Y19490975D01*
X34001329Y19492365D01*
X34003000Y19500048D01*
X34003000Y19578766D01*
X34002663Y19585282D01*
X33992925Y19679132D01*
X33990032Y19692528D01*
X33939512Y19843953D01*
X33933347Y19857115D01*
X33849574Y19992492D01*
X33840540Y20003890D01*
X33727871Y20116363D01*
X33716460Y20125375D01*
X33580937Y20208912D01*
X33567759Y20215056D01*
X33416234Y20265315D01*
X33402868Y20268181D01*
X33310230Y20277672D01*
X33303815Y20278000D01*
X33292115Y20278000D01*
X33276876Y20273525D01*
X33275671Y20272135D01*
X33274000Y20264452D01*
X33274000Y19504615D01*
X32766000Y19504615D01*
X32766000Y20259885D01*
X32761525Y20275124D01*
X32760135Y20276329D01*
X32752452Y20278000D01*
X32736234Y20278000D01*
X32729718Y20277663D01*
X32635868Y20267925D01*
X32622472Y20265032D01*
X32471047Y20214512D01*
X32457885Y20208347D01*
X32322508Y20124574D01*
X32311110Y20115540D01*
X32198637Y20002871D01*
X32189625Y19991460D01*
X32106088Y19855937D01*
X32099944Y19842759D01*
X32049685Y19691234D01*
X32046819Y19677868D01*
X32037328Y19585230D01*
X32037000Y19578815D01*
X32037000Y19504615D01*
X30828000Y19504615D01*
X30828000Y19578766D01*
X30827663Y19585282D01*
X30817925Y19679132D01*
X30815032Y19692528D01*
X30764512Y19843953D01*
X30758347Y19857115D01*
X30674574Y19992492D01*
X30665540Y20003890D01*
X30552871Y20116363D01*
X30541460Y20125375D01*
X30405937Y20208912D01*
X30392759Y20215056D01*
X30241234Y20265315D01*
X30227868Y20268181D01*
X30135230Y20277672D01*
X30128815Y20278000D01*
X30117115Y20278000D01*
X30101876Y20273525D01*
X30100671Y20272135D01*
X30099000Y20264452D01*
X30099000Y19504615D01*
X29591000Y19504615D01*
X29591000Y20259885D01*
X29586525Y20275124D01*
X29585135Y20276329D01*
X29577452Y20278000D01*
X29561234Y20278000D01*
X29554718Y20277663D01*
X29460868Y20267925D01*
X29447472Y20265032D01*
X29296047Y20214512D01*
X29282885Y20208347D01*
X29147508Y20124574D01*
X29136110Y20115540D01*
X29023637Y20002871D01*
X29014625Y19991460D01*
X28931088Y19855937D01*
X28924944Y19842759D01*
X28874685Y19691234D01*
X28871819Y19677868D01*
X28862328Y19585230D01*
X28862000Y19578815D01*
X28862000Y19504615D01*
X27653000Y19504615D01*
X27653000Y19578766D01*
X27652663Y19585282D01*
X27642925Y19679132D01*
X27640032Y19692528D01*
X27589512Y19843953D01*
X27583347Y19857115D01*
X27499574Y19992492D01*
X27490540Y20003890D01*
X27377871Y20116363D01*
X27366460Y20125375D01*
X27230937Y20208912D01*
X27217759Y20215056D01*
X27066234Y20265315D01*
X27052868Y20268181D01*
X26960230Y20277672D01*
X26953815Y20278000D01*
X26942115Y20278000D01*
X26926876Y20273525D01*
X26925671Y20272135D01*
X26924000Y20264452D01*
X26924000Y19504615D01*
X26416000Y19504615D01*
X26416000Y20259885D01*
X26411525Y20275124D01*
X26410135Y20276329D01*
X26402452Y20278000D01*
X26386234Y20278000D01*
X26379718Y20277663D01*
X26285868Y20267925D01*
X26272472Y20265032D01*
X26121047Y20214512D01*
X26107885Y20208347D01*
X25972508Y20124574D01*
X25961110Y20115540D01*
X25848637Y20002871D01*
X25839625Y19991460D01*
X25756088Y19855937D01*
X25749944Y19842759D01*
X25699685Y19691234D01*
X25696819Y19677868D01*
X25687328Y19585230D01*
X25687000Y19578815D01*
X25687000Y19504615D01*
X25086825Y19504615D01*
X25049512Y19616453D01*
X25043347Y19629615D01*
X24959574Y19764992D01*
X24950540Y19776390D01*
X24837871Y19888863D01*
X24826460Y19897875D01*
X24690937Y19981412D01*
X24677759Y19987556D01*
X24526234Y20037815D01*
X24512868Y20040681D01*
X24420230Y20050172D01*
X24413815Y20050500D01*
X24402115Y20050500D01*
X24386876Y20046025D01*
X24385671Y20044635D01*
X24384000Y20036952D01*
X24384000Y19327115D01*
X23876000Y19327115D01*
X23876000Y20032385D01*
X23871525Y20047624D01*
X23870135Y20048829D01*
X23862452Y20050500D01*
X23846234Y20050500D01*
X23839718Y20050163D01*
X23745868Y20040425D01*
X23732472Y20037532D01*
X23581047Y19987012D01*
X23567885Y19980847D01*
X23432508Y19897074D01*
X23421110Y19888040D01*
X23308637Y19775371D01*
X23299625Y19763960D01*
X23216088Y19628437D01*
X23209944Y19615259D01*
X23159685Y19463734D01*
X23156819Y19450368D01*
X23147328Y19357730D01*
X23147000Y19351315D01*
X23147000Y19327115D01*
X7391900Y19327115D01*
X7391900Y20339794D01*
X45295501Y20339794D01*
X45312806Y20133722D01*
X45369807Y19934934D01*
X45372625Y19929452D01*
X45372626Y19929448D01*
X45461514Y19756491D01*
X45461517Y19756487D01*
X45464334Y19751005D01*
X45592786Y19588939D01*
X45597479Y19584945D01*
X45597480Y19584944D01*
X45739902Y19463734D01*
X45750271Y19454909D01*
X45930789Y19354020D01*
X46127466Y19290116D01*
X46332809Y19265630D01*
X46338944Y19266102D01*
X46338946Y19266102D01*
X46532856Y19281023D01*
X46532860Y19281024D01*
X46538998Y19281496D01*
X46738178Y19337108D01*
X46743682Y19339888D01*
X46743684Y19339889D01*
X46917262Y19427569D01*
X46917264Y19427570D01*
X46922763Y19430348D01*
X47085722Y19557666D01*
X47089748Y19562330D01*
X47089751Y19562333D01*
X47216819Y19709543D01*
X47216820Y19709545D01*
X47220848Y19714211D01*
X47301360Y19855937D01*
X47319950Y19888660D01*
X47319952Y19888664D01*
X47322995Y19894021D01*
X47370734Y20037532D01*
X47386325Y20084399D01*
X47386326Y20084402D01*
X47388270Y20090247D01*
X47414189Y20295414D01*
X47414602Y20325000D01*
X47394422Y20530811D01*
X47334651Y20728783D01*
X47286108Y20820079D01*
X47240459Y20905933D01*
X47240457Y20905936D01*
X47237565Y20911375D01*
X47233674Y20916145D01*
X47233672Y20916149D01*
X47110758Y21066857D01*
X47110755Y21066860D01*
X47106863Y21071632D01*
X47099966Y21077338D01*
X47012052Y21150067D01*
X52920500Y21150067D01*
X52920501Y19499934D01*
X52935266Y19425699D01*
X52942161Y19415380D01*
X52942162Y19415378D01*
X52968675Y19375699D01*
X52991516Y19341516D01*
X53075699Y19285266D01*
X53149933Y19270500D01*
X53974866Y19270500D01*
X54800066Y19270501D01*
X54835818Y19277612D01*
X54862126Y19282844D01*
X54862128Y19282845D01*
X54874301Y19285266D01*
X54884621Y19292161D01*
X54884622Y19292162D01*
X54948168Y19334623D01*
X54958484Y19341516D01*
X55014734Y19425699D01*
X55029500Y19499933D01*
X55029499Y21150066D01*
X55020785Y21193880D01*
X55017156Y21212126D01*
X55017155Y21212128D01*
X55014734Y21224301D01*
X55003942Y21240453D01*
X54965377Y21298168D01*
X54958484Y21308484D01*
X54874301Y21364734D01*
X54800067Y21379500D01*
X53975134Y21379500D01*
X53149934Y21379499D01*
X53114182Y21372388D01*
X53087874Y21367156D01*
X53087872Y21367155D01*
X53075699Y21364734D01*
X53065379Y21357839D01*
X53065378Y21357838D01*
X53009319Y21320380D01*
X52991516Y21308484D01*
X52935266Y21224301D01*
X52920500Y21150067D01*
X47012052Y21150067D01*
X46952271Y21199522D01*
X46952266Y21199525D01*
X46947522Y21203450D01*
X46942103Y21206380D01*
X46942100Y21206382D01*
X46771032Y21298878D01*
X46771027Y21298880D01*
X46765612Y21301808D01*
X46568063Y21362960D01*
X46561938Y21363604D01*
X46561937Y21363604D01*
X46368526Y21383932D01*
X46368524Y21383932D01*
X46362397Y21384576D01*
X46236229Y21373094D01*
X46162591Y21366393D01*
X46162590Y21366393D01*
X46156450Y21365834D01*
X45958066Y21307446D01*
X45952601Y21304589D01*
X45780261Y21214492D01*
X45780257Y21214489D01*
X45774801Y21211637D01*
X45613635Y21082057D01*
X45480708Y20923640D01*
X45381082Y20742422D01*
X45318553Y20545304D01*
X45295501Y20339794D01*
X7391900Y20339794D01*
X7391900Y21143938D01*
X18368493Y21143938D01*
X18377789Y21131923D01*
X18428994Y21096069D01*
X18438489Y21090586D01*
X18635947Y20998510D01*
X18646239Y20994764D01*
X18856688Y20938375D01*
X18867481Y20936472D01*
X19084525Y20917483D01*
X19095475Y20917483D01*
X19312519Y20936472D01*
X19323312Y20938375D01*
X19533761Y20994764D01*
X19544053Y20998510D01*
X19741511Y21090586D01*
X19751006Y21096069D01*
X19803048Y21132509D01*
X19811424Y21142988D01*
X19804356Y21156434D01*
X19102812Y21857978D01*
X19088868Y21865592D01*
X19087035Y21865461D01*
X19080420Y21861210D01*
X18374923Y21155713D01*
X18368493Y21143938D01*
X7391900Y21143938D01*
X7391900Y22224525D01*
X17777483Y22224525D01*
X17796472Y22007481D01*
X17798375Y21996688D01*
X17854764Y21786239D01*
X17858510Y21775947D01*
X17950586Y21578489D01*
X17956069Y21568994D01*
X17992509Y21516952D01*
X18002988Y21508576D01*
X18016434Y21515644D01*
X18717978Y22217188D01*
X18724356Y22228868D01*
X19454408Y22228868D01*
X19454539Y22227035D01*
X19458790Y22220420D01*
X20164287Y21514923D01*
X20176062Y21508493D01*
X20188077Y21517789D01*
X20223931Y21568994D01*
X20229414Y21578489D01*
X20295306Y21719795D01*
X20342224Y21773080D01*
X20410501Y21792541D01*
X20478461Y21771999D01*
X20524526Y21717976D01*
X20535501Y21666546D01*
X20535501Y21404934D01*
X20550266Y21330699D01*
X20557161Y21320380D01*
X20557162Y21320378D01*
X20571528Y21298878D01*
X20606516Y21246516D01*
X20690699Y21190266D01*
X20764933Y21175500D01*
X21589866Y21175500D01*
X22415066Y21175501D01*
X22450818Y21182612D01*
X22477126Y21187844D01*
X22477128Y21187845D01*
X22489301Y21190266D01*
X22499621Y21197161D01*
X22499622Y21197162D01*
X22563168Y21239623D01*
X22573484Y21246516D01*
X22629734Y21330699D01*
X22644500Y21404933D01*
X22644500Y21608672D01*
X35860880Y21608672D01*
X35861396Y21602529D01*
X35869286Y21508576D01*
X35876872Y21418233D01*
X35929549Y21234527D01*
X35932367Y21229045D01*
X35932368Y21229041D01*
X36014085Y21070037D01*
X36014088Y21070033D01*
X36016905Y21064551D01*
X36135612Y20914780D01*
X36140306Y20910785D01*
X36164086Y20890547D01*
X36281149Y20790918D01*
X36286527Y20787912D01*
X36286529Y20787911D01*
X36326733Y20765442D01*
X36447972Y20697684D01*
X36629728Y20638628D01*
X36819493Y20616000D01*
X36825628Y20616472D01*
X36825630Y20616472D01*
X36889393Y20621378D01*
X37010039Y20630661D01*
X37194108Y20682055D01*
X37214691Y20692452D01*
X37359189Y20765442D01*
X37359191Y20765443D01*
X37364690Y20768221D01*
X37515286Y20885880D01*
X37519312Y20890544D01*
X37519315Y20890547D01*
X37636134Y21025884D01*
X37640161Y21030549D01*
X37711503Y21156135D01*
X37731514Y21191360D01*
X37731515Y21191361D01*
X37734557Y21196717D01*
X37739521Y21211637D01*
X37769516Y21301808D01*
X37794881Y21378056D01*
X37818833Y21567659D01*
X37819215Y21595000D01*
X37817874Y21608672D01*
X38400880Y21608672D01*
X38401396Y21602529D01*
X38409286Y21508576D01*
X38416872Y21418233D01*
X38469549Y21234527D01*
X38472367Y21229045D01*
X38472368Y21229041D01*
X38554085Y21070037D01*
X38554088Y21070033D01*
X38556905Y21064551D01*
X38675612Y20914780D01*
X38680306Y20910785D01*
X38704086Y20890547D01*
X38821149Y20790918D01*
X38826527Y20787912D01*
X38826529Y20787911D01*
X38866733Y20765442D01*
X38987972Y20697684D01*
X39169728Y20638628D01*
X39359493Y20616000D01*
X39365628Y20616472D01*
X39365630Y20616472D01*
X39429393Y20621378D01*
X39550039Y20630661D01*
X39734108Y20682055D01*
X39754691Y20692452D01*
X39899189Y20765442D01*
X39899191Y20765443D01*
X39904690Y20768221D01*
X40055286Y20885880D01*
X40059312Y20890544D01*
X40059315Y20890547D01*
X40176134Y21025884D01*
X40180161Y21030549D01*
X40251503Y21156135D01*
X40271514Y21191360D01*
X40271515Y21191361D01*
X40274557Y21196717D01*
X40279521Y21211637D01*
X40309516Y21301808D01*
X40334881Y21378056D01*
X40358833Y21567659D01*
X40359215Y21595000D01*
X40357874Y21608672D01*
X40940880Y21608672D01*
X40941396Y21602529D01*
X40949286Y21508576D01*
X40956872Y21418233D01*
X41009549Y21234527D01*
X41012367Y21229045D01*
X41012368Y21229041D01*
X41094085Y21070037D01*
X41094088Y21070033D01*
X41096905Y21064551D01*
X41215612Y20914780D01*
X41220306Y20910785D01*
X41244086Y20890547D01*
X41361149Y20790918D01*
X41366527Y20787912D01*
X41366529Y20787911D01*
X41406733Y20765442D01*
X41527972Y20697684D01*
X41709728Y20638628D01*
X41899493Y20616000D01*
X41905628Y20616472D01*
X41905630Y20616472D01*
X41969393Y20621378D01*
X42090039Y20630661D01*
X42274108Y20682055D01*
X42294691Y20692452D01*
X42439189Y20765442D01*
X42439191Y20765443D01*
X42444690Y20768221D01*
X42595286Y20885880D01*
X42599312Y20890544D01*
X42599315Y20890547D01*
X42716134Y21025884D01*
X42720161Y21030549D01*
X42791503Y21156135D01*
X42811514Y21191360D01*
X42811515Y21191361D01*
X42814557Y21196717D01*
X42819521Y21211637D01*
X42849516Y21301808D01*
X42874881Y21378056D01*
X42898833Y21567659D01*
X42899215Y21595000D01*
X42880566Y21785197D01*
X42825329Y21968150D01*
X42735609Y22136889D01*
X42731719Y22141659D01*
X42731716Y22141663D01*
X42618717Y22280213D01*
X42618714Y22280216D01*
X42614822Y22284988D01*
X42586427Y22308479D01*
X42472319Y22402877D01*
X42467570Y22406806D01*
X42299461Y22497702D01*
X42116899Y22554215D01*
X42110781Y22554858D01*
X42110776Y22554859D01*
X41932965Y22573547D01*
X41932963Y22573547D01*
X41926836Y22574191D01*
X41847644Y22566984D01*
X41742652Y22557429D01*
X41742649Y22557428D01*
X41736513Y22556870D01*
X41730607Y22555132D01*
X41730603Y22555131D01*
X41597352Y22515912D01*
X41553180Y22502912D01*
X41383818Y22414372D01*
X41379018Y22410512D01*
X41379017Y22410512D01*
X41256661Y22312135D01*
X41234879Y22294622D01*
X41112036Y22148224D01*
X41109068Y22142826D01*
X41109065Y22142821D01*
X41061501Y22056301D01*
X41019969Y21980754D01*
X41018108Y21974887D01*
X41018107Y21974885D01*
X40998270Y21912351D01*
X40962183Y21798590D01*
X40940880Y21608672D01*
X40357874Y21608672D01*
X40340566Y21785197D01*
X40285329Y21968150D01*
X40195609Y22136889D01*
X40191719Y22141659D01*
X40191716Y22141663D01*
X40078717Y22280213D01*
X40078714Y22280216D01*
X40074822Y22284988D01*
X40046427Y22308479D01*
X39932319Y22402877D01*
X39927570Y22406806D01*
X39759461Y22497702D01*
X39576899Y22554215D01*
X39570781Y22554858D01*
X39570776Y22554859D01*
X39392965Y22573547D01*
X39392963Y22573547D01*
X39386836Y22574191D01*
X39307644Y22566984D01*
X39202652Y22557429D01*
X39202649Y22557428D01*
X39196513Y22556870D01*
X39190607Y22555132D01*
X39190603Y22555131D01*
X39057352Y22515912D01*
X39013180Y22502912D01*
X38843818Y22414372D01*
X38839018Y22410512D01*
X38839017Y22410512D01*
X38716661Y22312135D01*
X38694879Y22294622D01*
X38572036Y22148224D01*
X38569068Y22142826D01*
X38569065Y22142821D01*
X38521501Y22056301D01*
X38479969Y21980754D01*
X38478108Y21974887D01*
X38478107Y21974885D01*
X38458270Y21912351D01*
X38422183Y21798590D01*
X38400880Y21608672D01*
X37817874Y21608672D01*
X37800566Y21785197D01*
X37745329Y21968150D01*
X37655609Y22136889D01*
X37651719Y22141659D01*
X37651716Y22141663D01*
X37538717Y22280213D01*
X37538714Y22280216D01*
X37534822Y22284988D01*
X37506427Y22308479D01*
X37392319Y22402877D01*
X37387570Y22406806D01*
X37219461Y22497702D01*
X37036899Y22554215D01*
X37030781Y22554858D01*
X37030776Y22554859D01*
X36852965Y22573547D01*
X36852963Y22573547D01*
X36846836Y22574191D01*
X36767644Y22566984D01*
X36662652Y22557429D01*
X36662649Y22557428D01*
X36656513Y22556870D01*
X36650607Y22555132D01*
X36650603Y22555131D01*
X36517352Y22515912D01*
X36473180Y22502912D01*
X36303818Y22414372D01*
X36299018Y22410512D01*
X36299017Y22410512D01*
X36176661Y22312135D01*
X36154879Y22294622D01*
X36032036Y22148224D01*
X36029068Y22142826D01*
X36029065Y22142821D01*
X35981501Y22056301D01*
X35939969Y21980754D01*
X35938108Y21974887D01*
X35938107Y21974885D01*
X35918270Y21912351D01*
X35882183Y21798590D01*
X35860880Y21608672D01*
X22644500Y21608672D01*
X22644499Y22597034D01*
X75503257Y22597034D01*
X75533565Y22462554D01*
X75536645Y22452725D01*
X75616770Y22255397D01*
X75621413Y22246206D01*
X75732694Y22064612D01*
X75738777Y22056301D01*
X75878213Y21895333D01*
X75885580Y21888117D01*
X76049434Y21752084D01*
X76057881Y21746169D01*
X76198005Y21664287D01*
X76246729Y21612648D01*
X76259800Y21542865D01*
X76233069Y21477094D01*
X76175022Y21436215D01*
X76134436Y21429499D01*
X75959934Y21429499D01*
X75924182Y21422388D01*
X75897874Y21417156D01*
X75897872Y21417155D01*
X75885699Y21414734D01*
X75875379Y21407839D01*
X75875378Y21407838D01*
X75840565Y21384576D01*
X75801516Y21358484D01*
X75745266Y21274301D01*
X75730500Y21200067D01*
X75730501Y19449934D01*
X75735321Y19425699D01*
X75741728Y19393488D01*
X75745266Y19375699D01*
X75752161Y19365380D01*
X75752162Y19365378D01*
X75784229Y19317388D01*
X75801516Y19291516D01*
X75885699Y19235266D01*
X75959933Y19220500D01*
X76834858Y19220500D01*
X77710066Y19220501D01*
X77745818Y19227612D01*
X77772126Y19232844D01*
X77772128Y19232845D01*
X77784301Y19235266D01*
X77794621Y19242161D01*
X77794622Y19242162D01*
X77858168Y19284623D01*
X77868484Y19291516D01*
X77924734Y19375699D01*
X77939500Y19449933D01*
X77939499Y21200066D01*
X77924734Y21274301D01*
X77908787Y21298168D01*
X77875377Y21348168D01*
X77868484Y21358484D01*
X77784301Y21414734D01*
X77710067Y21429500D01*
X77535334Y21429500D01*
X77467213Y21449502D01*
X77420720Y21503158D01*
X77410616Y21573432D01*
X77440110Y21638012D01*
X77479902Y21668652D01*
X77528100Y21692264D01*
X77536945Y21697536D01*
X77710328Y21821208D01*
X77718200Y21827861D01*
X77869052Y21978188D01*
X77875730Y21986035D01*
X78000003Y22158980D01*
X78005313Y22167817D01*
X78099670Y22358733D01*
X78103469Y22368328D01*
X78165377Y22572090D01*
X78167555Y22582163D01*
X78168986Y22593038D01*
X78166775Y22607222D01*
X78153617Y22611000D01*
X75518225Y22611000D01*
X75504694Y22607027D01*
X75503257Y22597034D01*
X22644499Y22597034D01*
X22644499Y23055066D01*
X22636985Y23092845D01*
X22632156Y23117126D01*
X22632155Y23117128D01*
X22629734Y23129301D01*
X22615978Y23149889D01*
X22580377Y23203168D01*
X22573484Y23213484D01*
X22489301Y23269734D01*
X22415067Y23284500D01*
X21590134Y23284500D01*
X20764934Y23284499D01*
X20729182Y23277388D01*
X20702874Y23272156D01*
X20702872Y23272155D01*
X20690699Y23269734D01*
X20680379Y23262839D01*
X20680378Y23262838D01*
X20624319Y23225380D01*
X20606516Y23213484D01*
X20550266Y23129301D01*
X20535500Y23055067D01*
X20535500Y22793456D01*
X20515498Y22725335D01*
X20461842Y22678842D01*
X20391568Y22668738D01*
X20326988Y22698232D01*
X20295305Y22740206D01*
X20229414Y22881511D01*
X20223931Y22891006D01*
X20187491Y22943048D01*
X20177012Y22951424D01*
X20163566Y22944356D01*
X19462022Y22242812D01*
X19454408Y22228868D01*
X18724356Y22228868D01*
X18725592Y22231132D01*
X18725461Y22232965D01*
X18721210Y22239580D01*
X18015713Y22945077D01*
X18003938Y22951507D01*
X17991923Y22942211D01*
X17956069Y22891006D01*
X17950586Y22881511D01*
X17858510Y22684053D01*
X17854764Y22673761D01*
X17798375Y22463312D01*
X17796472Y22452519D01*
X17777483Y22235475D01*
X17777483Y22224525D01*
X7391900Y22224525D01*
X7391900Y23317012D01*
X18368576Y23317012D01*
X18375644Y23303566D01*
X19077188Y22602022D01*
X19091132Y22594408D01*
X19092965Y22594539D01*
X19099580Y22598790D01*
X19805077Y23304287D01*
X19811507Y23316062D01*
X19802211Y23328077D01*
X19751006Y23363931D01*
X19741511Y23369414D01*
X19544053Y23461490D01*
X19533761Y23465236D01*
X19323312Y23521625D01*
X19312519Y23523528D01*
X19095475Y23542517D01*
X19084525Y23542517D01*
X18867481Y23523528D01*
X18856688Y23521625D01*
X18646239Y23465236D01*
X18635947Y23461490D01*
X18438489Y23369414D01*
X18428994Y23363931D01*
X18376952Y23327491D01*
X18368576Y23317012D01*
X7391900Y23317012D01*
X7391900Y24960067D01*
X45300500Y24960067D01*
X45300501Y23309934D01*
X45315266Y23235699D01*
X45322161Y23225380D01*
X45322162Y23225378D01*
X45337003Y23203168D01*
X45371516Y23151516D01*
X45455699Y23095266D01*
X45529933Y23080500D01*
X46354866Y23080500D01*
X47180066Y23080501D01*
X47215818Y23087612D01*
X47242126Y23092844D01*
X47242128Y23092845D01*
X47254301Y23095266D01*
X47264621Y23102161D01*
X47264622Y23102162D01*
X47328168Y23144623D01*
X47338484Y23151516D01*
X47394734Y23235699D01*
X47409500Y23309933D01*
X47409499Y24149794D01*
X52915501Y24149794D01*
X52920067Y24095421D01*
X52928351Y23996778D01*
X52932806Y23943722D01*
X52989807Y23744934D01*
X52992625Y23739452D01*
X52992626Y23739448D01*
X53081514Y23566491D01*
X53081517Y23566487D01*
X53084334Y23561005D01*
X53212786Y23398939D01*
X53217479Y23394945D01*
X53217480Y23394944D01*
X53364602Y23269734D01*
X53370271Y23264909D01*
X53550789Y23164020D01*
X53747466Y23100116D01*
X53952809Y23075630D01*
X53958944Y23076102D01*
X53958946Y23076102D01*
X54152856Y23091023D01*
X54152860Y23091024D01*
X54158998Y23091496D01*
X54299830Y23130817D01*
X75499389Y23130817D01*
X75500912Y23122393D01*
X75513292Y23119000D01*
X76562885Y23119000D01*
X76578124Y23123475D01*
X76579329Y23124865D01*
X76581000Y23132548D01*
X76581000Y23137115D01*
X77089000Y23137115D01*
X77093475Y23121876D01*
X77094865Y23120671D01*
X77102548Y23119000D01*
X78153344Y23119000D01*
X78166875Y23122973D01*
X78168180Y23132053D01*
X78126214Y23299125D01*
X78122894Y23308876D01*
X78037972Y23504186D01*
X78033105Y23513261D01*
X77917426Y23692074D01*
X77911136Y23700243D01*
X77767806Y23857760D01*
X77760273Y23864785D01*
X77593139Y23996778D01*
X77584552Y24002483D01*
X77398117Y24105401D01*
X77388705Y24109631D01*
X77187959Y24180720D01*
X77177988Y24183354D01*
X77106837Y24196028D01*
X77093540Y24194568D01*
X77089000Y24180011D01*
X77089000Y23137115D01*
X76581000Y23137115D01*
X76581000Y24181898D01*
X76577082Y24195242D01*
X76562806Y24197229D01*
X76524324Y24191340D01*
X76514288Y24188949D01*
X76311868Y24122788D01*
X76302359Y24118791D01*
X76113463Y24020458D01*
X76104738Y24014964D01*
X75934433Y23887095D01*
X75926726Y23880252D01*
X75779590Y23726283D01*
X75773104Y23718273D01*
X75653098Y23542351D01*
X75648000Y23533377D01*
X75558338Y23340217D01*
X75554775Y23330530D01*
X75499389Y23130817D01*
X54299830Y23130817D01*
X54358178Y23147108D01*
X54363682Y23149888D01*
X54363684Y23149889D01*
X54537262Y23237569D01*
X54537264Y23237570D01*
X54542763Y23240348D01*
X54705722Y23367666D01*
X54709748Y23372330D01*
X54709751Y23372333D01*
X54836819Y23519543D01*
X54836820Y23519545D01*
X54840848Y23524211D01*
X54891921Y23614116D01*
X54939950Y23698660D01*
X54939952Y23698664D01*
X54942995Y23704021D01*
X54994137Y23857760D01*
X55006325Y23894399D01*
X55006326Y23894402D01*
X55008270Y23900247D01*
X55034189Y24105414D01*
X55034602Y24135000D01*
X55014422Y24340811D01*
X54954651Y24538783D01*
X54857565Y24721375D01*
X54853674Y24726145D01*
X54853672Y24726149D01*
X54730758Y24876857D01*
X54730755Y24876860D01*
X54726863Y24881632D01*
X54719966Y24887338D01*
X54572271Y25009522D01*
X54572266Y25009525D01*
X54567522Y25013450D01*
X54562103Y25016380D01*
X54562100Y25016382D01*
X54391032Y25108878D01*
X54391027Y25108880D01*
X54385612Y25111808D01*
X54188063Y25172960D01*
X54181938Y25173604D01*
X54181937Y25173604D01*
X53988526Y25193932D01*
X53988524Y25193932D01*
X53982397Y25194576D01*
X53856229Y25183094D01*
X53782591Y25176393D01*
X53782590Y25176393D01*
X53776450Y25175834D01*
X53578066Y25117446D01*
X53572601Y25114589D01*
X53400261Y25024492D01*
X53400257Y25024489D01*
X53394801Y25021637D01*
X53390001Y25017777D01*
X53390000Y25017777D01*
X53356046Y24990477D01*
X53233635Y24892057D01*
X53100708Y24733640D01*
X53001082Y24552422D01*
X52938553Y24355304D01*
X52937867Y24349187D01*
X52937866Y24349183D01*
X52930798Y24286169D01*
X52915501Y24149794D01*
X47409499Y24149794D01*
X47409499Y24960066D01*
X47401048Y25002554D01*
X47397156Y25022126D01*
X47397155Y25022128D01*
X47394734Y25034301D01*
X47338484Y25118484D01*
X47254301Y25174734D01*
X47180067Y25189500D01*
X46355134Y25189500D01*
X45529934Y25189499D01*
X45494182Y25182388D01*
X45467874Y25177156D01*
X45467872Y25177155D01*
X45455699Y25174734D01*
X45445379Y25167839D01*
X45445378Y25167838D01*
X45399903Y25137452D01*
X45371516Y25118484D01*
X45315266Y25034301D01*
X45300500Y24960067D01*
X7391900Y24960067D01*
X7391900Y26104446D01*
X7384946Y26125848D01*
X7380330Y26145074D01*
X7378360Y26157513D01*
X7376809Y26167306D01*
X7366592Y26187359D01*
X7359028Y26205620D01*
X7355136Y26217597D01*
X7355135Y26217599D01*
X7352070Y26227032D01*
X7338840Y26245241D01*
X7328508Y26262100D01*
X7322795Y26273313D01*
X7318292Y26282151D01*
X5322151Y28278292D01*
X5302096Y28288510D01*
X5285241Y28298840D01*
X5275057Y28306239D01*
X5267032Y28312070D01*
X5257599Y28315135D01*
X5257597Y28315136D01*
X5245620Y28319028D01*
X5227358Y28326592D01*
X5216140Y28332308D01*
X5216139Y28332308D01*
X5207306Y28336809D01*
X5185074Y28340330D01*
X5165848Y28344946D01*
X5153879Y28348835D01*
X5144446Y28351900D01*
X3770499Y28351900D01*
X3702378Y28371902D01*
X3655885Y28425558D01*
X3644499Y28477900D01*
X3644499Y28820066D01*
X3633507Y28875333D01*
X3632156Y28882126D01*
X3632155Y28882128D01*
X3629734Y28894301D01*
X3622686Y28904850D01*
X3592296Y28950331D01*
X8543001Y28950331D01*
X8543371Y28943510D01*
X8548895Y28892648D01*
X8552521Y28877396D01*
X8597676Y28756946D01*
X8606214Y28741351D01*
X8682715Y28639276D01*
X8695276Y28626715D01*
X8797351Y28550214D01*
X8812946Y28541676D01*
X8933394Y28496522D01*
X8948649Y28492895D01*
X8999514Y28487369D01*
X9006328Y28487000D01*
X9628885Y28487000D01*
X9644124Y28491475D01*
X9645329Y28492865D01*
X9647000Y28500548D01*
X9647000Y28505116D01*
X10155000Y28505116D01*
X10159475Y28489877D01*
X10160865Y28488672D01*
X10168548Y28487001D01*
X10795669Y28487001D01*
X10802490Y28487371D01*
X10853352Y28492895D01*
X10868604Y28496521D01*
X10989054Y28541676D01*
X11004649Y28550214D01*
X11106724Y28626715D01*
X11119285Y28639276D01*
X11195786Y28741351D01*
X11204325Y28756948D01*
X11245425Y28866582D01*
X11288066Y28923347D01*
X11354628Y28948047D01*
X11423977Y28932840D01*
X11458645Y28904850D01*
X11484219Y28875326D01*
X11491580Y28868117D01*
X11655434Y28732084D01*
X11663881Y28726169D01*
X11847756Y28618721D01*
X11857042Y28614271D01*
X12056001Y28538297D01*
X12065899Y28535421D01*
X12169250Y28514394D01*
X12183299Y28515590D01*
X12187000Y28525935D01*
X12187000Y28526483D01*
X12695000Y28526483D01*
X12699064Y28512641D01*
X12712478Y28510607D01*
X12719184Y28511466D01*
X12729262Y28513608D01*
X12933255Y28574809D01*
X12942842Y28578567D01*
X13134095Y28672261D01*
X13142945Y28677536D01*
X13316328Y28801208D01*
X13324200Y28807861D01*
X13475052Y28958188D01*
X13481730Y28966035D01*
X13606003Y29138980D01*
X13611313Y29147817D01*
X13705670Y29338733D01*
X13709469Y29348328D01*
X13771377Y29552090D01*
X13773555Y29562163D01*
X13774986Y29573038D01*
X13774363Y29577034D01*
X15818257Y29577034D01*
X15848565Y29442554D01*
X15851645Y29432725D01*
X15931770Y29235397D01*
X15936413Y29226206D01*
X16047694Y29044612D01*
X16053777Y29036301D01*
X16193213Y28875333D01*
X16200580Y28868117D01*
X16364434Y28732084D01*
X16372881Y28726169D01*
X16556756Y28618721D01*
X16566042Y28614271D01*
X16765001Y28538297D01*
X16774899Y28535421D01*
X16878250Y28514394D01*
X16892299Y28515590D01*
X16896000Y28525935D01*
X16896000Y28526483D01*
X17404000Y28526483D01*
X17408064Y28512641D01*
X17421478Y28510607D01*
X17428184Y28511466D01*
X17438262Y28513608D01*
X17642255Y28574809D01*
X17651842Y28578567D01*
X17843095Y28672261D01*
X17851945Y28677536D01*
X18025328Y28801208D01*
X18033200Y28807861D01*
X18184052Y28958188D01*
X18190730Y28966035D01*
X18315003Y29138980D01*
X18320310Y29147812D01*
X18346544Y29200891D01*
X18394658Y29253097D01*
X18463360Y29271004D01*
X18530836Y29248925D01*
X18575664Y29193871D01*
X18585501Y29145063D01*
X18585501Y28969934D01*
X18600266Y28895699D01*
X18607161Y28885380D01*
X18607162Y28885378D01*
X18646746Y28826137D01*
X18656516Y28811516D01*
X18740699Y28755266D01*
X18814933Y28740500D01*
X19689858Y28740500D01*
X20565066Y28740501D01*
X20600818Y28747612D01*
X20627126Y28752844D01*
X20627128Y28752845D01*
X20639301Y28755266D01*
X20649621Y28762161D01*
X20649622Y28762162D01*
X20713168Y28804623D01*
X20723484Y28811516D01*
X20779734Y28895699D01*
X20790601Y28950331D01*
X55152001Y28950331D01*
X55152371Y28943510D01*
X55157895Y28892648D01*
X55161521Y28877396D01*
X55206676Y28756946D01*
X55215214Y28741351D01*
X55291715Y28639276D01*
X55304276Y28626715D01*
X55406351Y28550214D01*
X55421946Y28541676D01*
X55542394Y28496522D01*
X55557649Y28492895D01*
X55608514Y28487369D01*
X55615328Y28487000D01*
X56237885Y28487000D01*
X56253124Y28491475D01*
X56254329Y28492865D01*
X56256000Y28500548D01*
X56256000Y28505116D01*
X56764000Y28505116D01*
X56768475Y28489877D01*
X56769865Y28488672D01*
X56777548Y28487001D01*
X57404669Y28487001D01*
X57411490Y28487371D01*
X57462352Y28492895D01*
X57477604Y28496521D01*
X57598054Y28541676D01*
X57613649Y28550214D01*
X57715724Y28626715D01*
X57728285Y28639276D01*
X57804786Y28741351D01*
X57813325Y28756948D01*
X57854425Y28866582D01*
X57897066Y28923347D01*
X57963628Y28948047D01*
X58032977Y28932840D01*
X58067645Y28904850D01*
X58093219Y28875326D01*
X58100580Y28868117D01*
X58264434Y28732084D01*
X58272881Y28726169D01*
X58456756Y28618721D01*
X58466042Y28614271D01*
X58665001Y28538297D01*
X58674899Y28535421D01*
X58778250Y28514394D01*
X58792299Y28515590D01*
X58796000Y28525935D01*
X58796000Y28526483D01*
X59304000Y28526483D01*
X59308064Y28512641D01*
X59321478Y28510607D01*
X59328184Y28511466D01*
X59338262Y28513608D01*
X59542255Y28574809D01*
X59551842Y28578567D01*
X59743095Y28672261D01*
X59751945Y28677536D01*
X59925328Y28801208D01*
X59933200Y28807861D01*
X60076168Y28950331D01*
X72937001Y28950331D01*
X72937371Y28943510D01*
X72942895Y28892648D01*
X72946521Y28877396D01*
X72991676Y28756946D01*
X73000214Y28741351D01*
X73076715Y28639276D01*
X73089276Y28626715D01*
X73191351Y28550214D01*
X73206946Y28541676D01*
X73327394Y28496522D01*
X73342649Y28492895D01*
X73393514Y28487369D01*
X73400328Y28487000D01*
X74022885Y28487000D01*
X74038124Y28491475D01*
X74039329Y28492865D01*
X74041000Y28500548D01*
X74041000Y28505116D01*
X74549000Y28505116D01*
X74553475Y28489877D01*
X74554865Y28488672D01*
X74562548Y28487001D01*
X75189669Y28487001D01*
X75196490Y28487371D01*
X75247352Y28492895D01*
X75262604Y28496521D01*
X75383054Y28541676D01*
X75398649Y28550214D01*
X75500724Y28626715D01*
X75513285Y28639276D01*
X75589786Y28741351D01*
X75598325Y28756948D01*
X75639425Y28866582D01*
X75682066Y28923347D01*
X75748628Y28948047D01*
X75817977Y28932840D01*
X75852645Y28904850D01*
X75878219Y28875326D01*
X75885580Y28868117D01*
X76049434Y28732084D01*
X76057881Y28726169D01*
X76241756Y28618721D01*
X76251042Y28614271D01*
X76450001Y28538297D01*
X76459899Y28535421D01*
X76563250Y28514394D01*
X76577299Y28515590D01*
X76581000Y28525935D01*
X76581000Y28526483D01*
X77089000Y28526483D01*
X77093064Y28512641D01*
X77106478Y28510607D01*
X77113184Y28511466D01*
X77123262Y28513608D01*
X77327255Y28574809D01*
X77336842Y28578567D01*
X77528095Y28672261D01*
X77536945Y28677536D01*
X77710328Y28801208D01*
X77718200Y28807861D01*
X77869052Y28958188D01*
X77875730Y28966035D01*
X78000003Y29138980D01*
X78005313Y29147817D01*
X78099670Y29338733D01*
X78103469Y29348328D01*
X78165377Y29552090D01*
X78167555Y29562163D01*
X78168986Y29573038D01*
X78166775Y29587222D01*
X78153617Y29591000D01*
X77107115Y29591000D01*
X77091876Y29586525D01*
X77090671Y29585135D01*
X77089000Y29577452D01*
X77089000Y28526483D01*
X76581000Y28526483D01*
X76581000Y29572885D01*
X76576525Y29588124D01*
X76575135Y29589329D01*
X76567452Y29591000D01*
X74567115Y29591000D01*
X74551876Y29586525D01*
X74550671Y29585135D01*
X74549000Y29577452D01*
X74549000Y28505116D01*
X74041000Y28505116D01*
X74041000Y29572885D01*
X74036525Y29588124D01*
X74035135Y29589329D01*
X74027452Y29591000D01*
X72955116Y29591000D01*
X72939877Y29586525D01*
X72938672Y29585135D01*
X72937001Y29577452D01*
X72937001Y28950331D01*
X60076168Y28950331D01*
X60084052Y28958188D01*
X60090730Y28966035D01*
X60215003Y29138980D01*
X60220313Y29147817D01*
X60314670Y29338733D01*
X60318469Y29348328D01*
X60380377Y29552090D01*
X60382555Y29562163D01*
X60383986Y29573038D01*
X60381775Y29587222D01*
X60368617Y29591000D01*
X59322115Y29591000D01*
X59306876Y29586525D01*
X59305671Y29585135D01*
X59304000Y29577452D01*
X59304000Y28526483D01*
X58796000Y28526483D01*
X58796000Y29572885D01*
X58791525Y29588124D01*
X58790135Y29589329D01*
X58782452Y29591000D01*
X56782115Y29591000D01*
X56766876Y29586525D01*
X56765671Y29585135D01*
X56764000Y29577452D01*
X56764000Y28505116D01*
X56256000Y28505116D01*
X56256000Y29572885D01*
X56251525Y29588124D01*
X56250135Y29589329D01*
X56242452Y29591000D01*
X55170116Y29591000D01*
X55154877Y29586525D01*
X55153672Y29585135D01*
X55152001Y29577452D01*
X55152001Y28950331D01*
X20790601Y28950331D01*
X20794500Y28969933D01*
X20794499Y30117115D01*
X55152000Y30117115D01*
X55156475Y30101876D01*
X55157865Y30100671D01*
X55165548Y30099000D01*
X56237885Y30099000D01*
X56253124Y30103475D01*
X56254329Y30104865D01*
X56256000Y30112548D01*
X56256000Y30117115D01*
X56764000Y30117115D01*
X56768475Y30101876D01*
X56769865Y30100671D01*
X56777548Y30099000D01*
X58777885Y30099000D01*
X58793124Y30103475D01*
X58794329Y30104865D01*
X58796000Y30112548D01*
X58796000Y30117115D01*
X59304000Y30117115D01*
X59308475Y30101876D01*
X59309865Y30100671D01*
X59317548Y30099000D01*
X60368344Y30099000D01*
X60381875Y30102973D01*
X60383180Y30112053D01*
X60381909Y30117115D01*
X72937000Y30117115D01*
X72941475Y30101876D01*
X72942865Y30100671D01*
X72950548Y30099000D01*
X74022885Y30099000D01*
X74038124Y30103475D01*
X74039329Y30104865D01*
X74041000Y30112548D01*
X74041000Y30117115D01*
X74549000Y30117115D01*
X74553475Y30101876D01*
X74554865Y30100671D01*
X74562548Y30099000D01*
X76562885Y30099000D01*
X76578124Y30103475D01*
X76579329Y30104865D01*
X76581000Y30112548D01*
X76581000Y30117115D01*
X77089000Y30117115D01*
X77093475Y30101876D01*
X77094865Y30100671D01*
X77102548Y30099000D01*
X78153344Y30099000D01*
X78166875Y30102973D01*
X78168180Y30112053D01*
X78126214Y30279125D01*
X78122894Y30288876D01*
X78037972Y30484186D01*
X78033105Y30493261D01*
X77917426Y30672074D01*
X77911136Y30680243D01*
X77767806Y30837760D01*
X77760273Y30844785D01*
X77593139Y30976778D01*
X77584552Y30982483D01*
X77398117Y31085401D01*
X77388705Y31089631D01*
X77187959Y31160720D01*
X77177988Y31163354D01*
X77106837Y31176028D01*
X77093540Y31174568D01*
X77089000Y31160011D01*
X77089000Y30117115D01*
X76581000Y30117115D01*
X76581000Y31161898D01*
X76577082Y31175242D01*
X76562806Y31177229D01*
X76524324Y31171340D01*
X76514288Y31168949D01*
X76311868Y31102788D01*
X76302359Y31098791D01*
X76113463Y31000458D01*
X76104738Y30994964D01*
X75934433Y30867095D01*
X75926726Y30860252D01*
X75849094Y30779015D01*
X75787570Y30743585D01*
X75716657Y30747042D01*
X75658871Y30788288D01*
X75640018Y30821836D01*
X75598324Y30933054D01*
X75589786Y30948649D01*
X75513285Y31050724D01*
X75500724Y31063285D01*
X75398649Y31139786D01*
X75383054Y31148324D01*
X75262606Y31193478D01*
X75247351Y31197105D01*
X75196486Y31202631D01*
X75189672Y31203000D01*
X74567115Y31203000D01*
X74551876Y31198525D01*
X74550671Y31197135D01*
X74549000Y31189452D01*
X74549000Y30117115D01*
X74041000Y30117115D01*
X74041000Y31184884D01*
X74036525Y31200123D01*
X74035135Y31201328D01*
X74027452Y31202999D01*
X73400331Y31202999D01*
X73393510Y31202629D01*
X73342648Y31197105D01*
X73327396Y31193479D01*
X73206946Y31148324D01*
X73191351Y31139786D01*
X73089276Y31063285D01*
X73076715Y31050724D01*
X73000214Y30948649D01*
X72991676Y30933054D01*
X72946522Y30812606D01*
X72942895Y30797351D01*
X72937369Y30746486D01*
X72937000Y30739672D01*
X72937000Y30117115D01*
X60381909Y30117115D01*
X60341214Y30279125D01*
X60337894Y30288876D01*
X60252972Y30484186D01*
X60248105Y30493261D01*
X60132426Y30672074D01*
X60126136Y30680243D01*
X59982806Y30837760D01*
X59975273Y30844785D01*
X59808139Y30976778D01*
X59799552Y30982483D01*
X59613117Y31085401D01*
X59603705Y31089631D01*
X59402959Y31160720D01*
X59392988Y31163354D01*
X59321837Y31176028D01*
X59308540Y31174568D01*
X59304000Y31160011D01*
X59304000Y30117115D01*
X58796000Y30117115D01*
X58796000Y31161898D01*
X58792082Y31175242D01*
X58777806Y31177229D01*
X58739324Y31171340D01*
X58729288Y31168949D01*
X58526868Y31102788D01*
X58517359Y31098791D01*
X58328463Y31000458D01*
X58319738Y30994964D01*
X58149433Y30867095D01*
X58141726Y30860252D01*
X58064094Y30779015D01*
X58002570Y30743585D01*
X57931657Y30747042D01*
X57873871Y30788288D01*
X57855018Y30821836D01*
X57813324Y30933054D01*
X57804786Y30948649D01*
X57728285Y31050724D01*
X57715724Y31063285D01*
X57613649Y31139786D01*
X57598054Y31148324D01*
X57477606Y31193478D01*
X57462351Y31197105D01*
X57411486Y31202631D01*
X57404672Y31203000D01*
X56782115Y31203000D01*
X56766876Y31198525D01*
X56765671Y31197135D01*
X56764000Y31189452D01*
X56764000Y30117115D01*
X56256000Y30117115D01*
X56256000Y31184884D01*
X56251525Y31200123D01*
X56250135Y31201328D01*
X56242452Y31202999D01*
X55615331Y31202999D01*
X55608510Y31202629D01*
X55557648Y31197105D01*
X55542396Y31193479D01*
X55421946Y31148324D01*
X55406351Y31139786D01*
X55304276Y31063285D01*
X55291715Y31050724D01*
X55215214Y30948649D01*
X55206676Y30933054D01*
X55161522Y30812606D01*
X55157895Y30797351D01*
X55152369Y30746486D01*
X55152000Y30739672D01*
X55152000Y30117115D01*
X20794499Y30117115D01*
X20794499Y30720066D01*
X20787388Y30755818D01*
X20782156Y30782126D01*
X20782155Y30782128D01*
X20779734Y30794301D01*
X20761336Y30821836D01*
X20730377Y30868168D01*
X20723484Y30878484D01*
X20639301Y30934734D01*
X20565067Y30949500D01*
X19690142Y30949500D01*
X18814934Y30949499D01*
X18779182Y30942388D01*
X18752874Y30937156D01*
X18752872Y30937155D01*
X18740699Y30934734D01*
X18730379Y30927839D01*
X18730378Y30927838D01*
X18669985Y30887484D01*
X18656516Y30878484D01*
X18600266Y30794301D01*
X18585500Y30720067D01*
X18585500Y30552148D01*
X18565498Y30484027D01*
X18511842Y30437534D01*
X18441568Y30427430D01*
X18376988Y30456924D01*
X18351235Y30489132D01*
X18350912Y30488923D01*
X18348836Y30492132D01*
X18348453Y30492611D01*
X18348099Y30493271D01*
X18232426Y30672074D01*
X18226136Y30680243D01*
X18082806Y30837760D01*
X18075273Y30844785D01*
X17908139Y30976778D01*
X17899552Y30982483D01*
X17713117Y31085401D01*
X17703705Y31089631D01*
X17502959Y31160720D01*
X17492988Y31163354D01*
X17421837Y31176028D01*
X17408540Y31174568D01*
X17404000Y31160011D01*
X17404000Y28526483D01*
X16896000Y28526483D01*
X16896000Y29572885D01*
X16891525Y29588124D01*
X16890135Y29589329D01*
X16882452Y29591000D01*
X15833225Y29591000D01*
X15819694Y29587027D01*
X15818257Y29577034D01*
X13774363Y29577034D01*
X13772775Y29587222D01*
X13759617Y29591000D01*
X12713115Y29591000D01*
X12697876Y29586525D01*
X12696671Y29585135D01*
X12695000Y29577452D01*
X12695000Y28526483D01*
X12187000Y28526483D01*
X12187000Y29572885D01*
X12182525Y29588124D01*
X12181135Y29589329D01*
X12173452Y29591000D01*
X10173115Y29591000D01*
X10157876Y29586525D01*
X10156671Y29585135D01*
X10155000Y29577452D01*
X10155000Y28505116D01*
X9647000Y28505116D01*
X9647000Y29572885D01*
X9642525Y29588124D01*
X9641135Y29589329D01*
X9633452Y29591000D01*
X8561116Y29591000D01*
X8545877Y29586525D01*
X8544672Y29585135D01*
X8543001Y29577452D01*
X8543001Y28950331D01*
X3592296Y28950331D01*
X3580377Y28968168D01*
X3573484Y28978484D01*
X3489301Y29034734D01*
X3415067Y29049500D01*
X2540142Y29049500D01*
X1664934Y29049499D01*
X1629182Y29042388D01*
X1602874Y29037156D01*
X1602872Y29037155D01*
X1590699Y29034734D01*
X1580379Y29027839D01*
X1580378Y29027838D01*
X1519985Y28987484D01*
X1506516Y28978484D01*
X1450266Y28894301D01*
X1435500Y28820067D01*
X1435501Y27069934D01*
X1450266Y26995699D01*
X1506516Y26911516D01*
X1590699Y26855266D01*
X1664933Y26840500D01*
X1841500Y26840500D01*
X1909621Y26820498D01*
X1956114Y26766842D01*
X1966218Y26696568D01*
X1936724Y26631988D01*
X1899681Y26602737D01*
X1818458Y26560455D01*
X1809738Y26554964D01*
X1639433Y26427095D01*
X1631726Y26420252D01*
X1484590Y26266283D01*
X1478104Y26258273D01*
X1358098Y26082351D01*
X1353000Y26073377D01*
X1263338Y25880217D01*
X1259775Y25870530D01*
X1204389Y25670817D01*
X254000Y25670817D01*
X254000Y30117115D01*
X8543000Y30117115D01*
X8547475Y30101876D01*
X8548865Y30100671D01*
X8556548Y30099000D01*
X9628885Y30099000D01*
X9644124Y30103475D01*
X9645329Y30104865D01*
X9647000Y30112548D01*
X9647000Y30117115D01*
X10155000Y30117115D01*
X10159475Y30101876D01*
X10160865Y30100671D01*
X10168548Y30099000D01*
X12168885Y30099000D01*
X12184124Y30103475D01*
X12185329Y30104865D01*
X12187000Y30112548D01*
X12187000Y30117115D01*
X12695000Y30117115D01*
X12699475Y30101876D01*
X12700865Y30100671D01*
X12708548Y30099000D01*
X13759344Y30099000D01*
X13772875Y30102973D01*
X13774002Y30110817D01*
X15814389Y30110817D01*
X15815912Y30102393D01*
X15828292Y30099000D01*
X16877885Y30099000D01*
X16893124Y30103475D01*
X16894329Y30104865D01*
X16896000Y30112548D01*
X16896000Y31161898D01*
X16892082Y31175242D01*
X16877806Y31177229D01*
X16839324Y31171340D01*
X16829288Y31168949D01*
X16626868Y31102788D01*
X16617359Y31098791D01*
X16428463Y31000458D01*
X16419738Y30994964D01*
X16249433Y30867095D01*
X16241726Y30860252D01*
X16094590Y30706283D01*
X16088104Y30698273D01*
X15968098Y30522351D01*
X15963000Y30513377D01*
X15873338Y30320217D01*
X15869775Y30310530D01*
X15814389Y30110817D01*
X13774002Y30110817D01*
X13774180Y30112053D01*
X13732214Y30279125D01*
X13728894Y30288876D01*
X13643972Y30484186D01*
X13639105Y30493261D01*
X13523426Y30672074D01*
X13517136Y30680243D01*
X13373806Y30837760D01*
X13366273Y30844785D01*
X13199139Y30976778D01*
X13190552Y30982483D01*
X13004117Y31085401D01*
X12994705Y31089631D01*
X12793959Y31160720D01*
X12783988Y31163354D01*
X12712837Y31176028D01*
X12699540Y31174568D01*
X12695000Y31160011D01*
X12695000Y30117115D01*
X12187000Y30117115D01*
X12187000Y31161898D01*
X12183082Y31175242D01*
X12168806Y31177229D01*
X12130324Y31171340D01*
X12120288Y31168949D01*
X11917868Y31102788D01*
X11908359Y31098791D01*
X11719463Y31000458D01*
X11710738Y30994964D01*
X11540433Y30867095D01*
X11532726Y30860252D01*
X11455094Y30779015D01*
X11393570Y30743585D01*
X11322657Y30747042D01*
X11264871Y30788288D01*
X11246018Y30821836D01*
X11204324Y30933054D01*
X11195786Y30948649D01*
X11119285Y31050724D01*
X11106724Y31063285D01*
X11004649Y31139786D01*
X10989054Y31148324D01*
X10868606Y31193478D01*
X10853351Y31197105D01*
X10802486Y31202631D01*
X10795672Y31203000D01*
X10173115Y31203000D01*
X10157876Y31198525D01*
X10156671Y31197135D01*
X10155000Y31189452D01*
X10155000Y30117115D01*
X9647000Y30117115D01*
X9647000Y31184884D01*
X9642525Y31200123D01*
X9641135Y31201328D01*
X9633452Y31202999D01*
X9006331Y31202999D01*
X8999510Y31202629D01*
X8948648Y31197105D01*
X8933396Y31193479D01*
X8812946Y31148324D01*
X8797351Y31139786D01*
X8695276Y31063285D01*
X8682715Y31050724D01*
X8606214Y30948649D01*
X8597676Y30933054D01*
X8552522Y30812606D01*
X8548895Y30797351D01*
X8543369Y30746486D01*
X8543000Y30739672D01*
X8543000Y30117115D01*
X254000Y30117115D01*
X254000Y32005000D01*
X274002Y32073121D01*
X327658Y32119614D01*
X380000Y32131000D01*
X78995000Y32131000D01*
X79063121Y32110998D01*
G37*
%TD.AperFunction*%
%TD*%
M02*
