M48
; DRILL file {KiCad (6.0.10)} date Sat Jan 14 14:32:51 2023
; FORMAT={-:-/ absolute / inch / decimal}
; #@! TF.CreationDate,2023-01-14T14:32:51-08:00
; #@! TF.GenerationSoftware,Kicad,Pcbnew,(6.0.10)
; #@! TF.FileFunction,Plated,1,2,PTH
FMAT,2
INCH
; #@! TA.AperFunction,Plated,PTH,ViaDrill
T1C0.0100
; #@! TA.AperFunction,Plated,PTH,ViaDrill
T2C0.0200
; #@! TA.AperFunction,Plated,PTH,ComponentDrill
T3C0.0315
; #@! TA.AperFunction,Plated,PTH,ComponentDrill
T4C0.0394
%
G90
G05
T1
X0.6157Y0.4488
X0.7Y0.6752
X0.8327Y0.6752
X0.9Y0.5299
X1.4Y0.2752
X1.5Y0.6752
X1.575Y0.4752
X1.6Y0.3002
X2.4173Y0.3937
T2
X0.2Y0.08
X0.38Y0.66
X0.4Y0.8252
X0.55Y0.4502
X0.56Y1.06
X0.725Y0.32
X0.8898Y1.1811
X1.0Y0.8002
X1.125Y0.8002
X1.3Y0.8252
X1.32Y0.36
X1.3543Y1.1024
X1.42Y0.64
X1.4961Y0.0394
X1.58Y1.0
X1.6457Y1.1732
X1.9134Y0.685
X1.92Y0.36
X1.9528Y0.874
X2.1024Y0.5906
X2.315Y0.063
X2.3622Y0.9528
X2.375Y0.2752
X2.575Y0.2725
X2.6772Y1.1102
X2.7Y0.9002
X2.7795Y0.5488
X2.825Y0.1752
T3
X0.3766Y0.3502
X0.475Y0.3502
X0.7251Y0.9134
X0.8235Y0.9134
X0.9961Y1.0315
X1.0669Y0.3858
X1.0945Y1.0315
X1.1654Y0.3858
X1.825Y0.9502
X1.825Y0.8002
X2.0246Y0.2002
X2.1246Y0.2002
X2.125Y0.9502
X2.125Y0.8002
X2.1922Y1.1181
X2.2246Y0.2002
X2.2835Y0.708
X2.2835Y0.6095
X2.2906Y1.1181
X2.9Y0.5502
X2.9984Y0.5502
T4
X0.1Y1.1002
X0.1Y1.0002
X0.1Y0.8252
X0.1Y0.7252
X0.1Y0.6252
X0.1Y0.5252
X0.1Y0.3002
X0.1Y0.2002
X0.4931Y1.1654
X0.5248Y0.1002
X0.5931Y1.1654
X0.6248Y0.1002
X0.7976Y0.0945
X0.8976Y0.0945
X1.0575Y0.0945
X1.1575Y0.0945
X1.725Y0.1002
X1.825Y0.4502
X1.825Y0.1002
X1.8764Y1.1575
X1.925Y0.4502
X1.9764Y1.1575
X2.025Y0.4502
X2.4695Y1.1496
X2.5695Y1.1496
X2.925Y1.175
X3.025Y1.175
X3.025Y0.9002
X3.025Y0.8002
X3.025Y0.3002
X3.025Y0.2002
T0
M30
