%TF.GenerationSoftware,KiCad,Pcbnew,(6.0.10)*%
%TF.CreationDate,2023-01-14T14:32:42-08:00*%
%TF.ProjectId,audioModule2,61756469-6f4d-46f6-9475-6c65322e6b69,rev?*%
%TF.SameCoordinates,PX48ab840PY7b89fa0*%
%TF.FileFunction,Soldermask,Top*%
%TF.FilePolarity,Negative*%
%FSLAX46Y46*%
G04 Gerber Fmt 4.6, Leading zero omitted, Abs format (unit mm)*
G04 Created by KiCad (PCBNEW (6.0.10)) date 2023-01-14 14:32:42*
%MOMM*%
%LPD*%
G01*
G04 APERTURE LIST*
G04 Aperture macros list*
%AMRoundRect*
0 Rectangle with rounded corners*
0 $1 Rounding radius*
0 $2 $3 $4 $5 $6 $7 $8 $9 X,Y pos of 4 corners*
0 Add a 4 corners polygon primitive as box body*
4,1,4,$2,$3,$4,$5,$6,$7,$8,$9,$2,$3,0*
0 Add four circle primitives for the rounded corners*
1,1,$1+$1,$2,$3*
1,1,$1+$1,$4,$5*
1,1,$1+$1,$6,$7*
1,1,$1+$1,$8,$9*
0 Add four rect primitives between the rounded corners*
20,1,$1+$1,$2,$3,$4,$5,0*
20,1,$1+$1,$4,$5,$6,$7,0*
20,1,$1+$1,$6,$7,$8,$9,0*
20,1,$1+$1,$8,$9,$2,$3,0*%
G04 Aperture macros list end*
%ADD10C,1.701600*%
%ADD11RoundRect,0.050800X-0.800000X0.800000X-0.800000X-0.800000X0.800000X-0.800000X0.800000X0.800000X0*%
%ADD12RoundRect,0.050800X0.800000X0.800000X-0.800000X0.800000X-0.800000X-0.800000X0.800000X-0.800000X0*%
%ADD13RoundRect,0.288300X-0.250000X-0.237500X0.250000X-0.237500X0.250000X0.237500X-0.250000X0.237500X0*%
%ADD14RoundRect,0.063500X-0.125000X-0.500000X0.125000X-0.500000X0.125000X0.500000X-0.125000X0.500000X0*%
%ADD15RoundRect,0.063500X0.125000X0.500000X-0.125000X0.500000X-0.125000X-0.500000X0.125000X-0.500000X0*%
%ADD16RoundRect,0.300800X-0.350000X-0.450000X0.350000X-0.450000X0.350000X0.450000X-0.350000X0.450000X0*%
%ADD17RoundRect,0.050800X-0.850000X-0.850000X0.850000X-0.850000X0.850000X0.850000X-0.850000X0.850000X0*%
%ADD18O,1.801600X1.801600*%
%ADD19RoundRect,0.288300X-0.300000X-0.237500X0.300000X-0.237500X0.300000X0.237500X-0.300000X0.237500X0*%
%ADD20RoundRect,0.200800X-0.150000X0.587500X-0.150000X-0.587500X0.150000X-0.587500X0.150000X0.587500X0*%
%ADD21RoundRect,0.050800X0.850000X-0.850000X0.850000X0.850000X-0.850000X0.850000X-0.850000X-0.850000X0*%
%ADD22RoundRect,0.050800X-0.800000X-0.800000X0.800000X-0.800000X0.800000X0.800000X-0.800000X0.800000X0*%
%ADD23O,1.701600X1.701600*%
%ADD24RoundRect,0.288300X-0.237500X0.250000X-0.237500X-0.250000X0.237500X-0.250000X0.237500X0.250000X0*%
%ADD25C,1.541600*%
%ADD26RoundRect,0.288300X0.237500X-0.300000X0.237500X0.300000X-0.237500X0.300000X-0.237500X-0.300000X0*%
%ADD27RoundRect,0.050800X1.000000X0.750000X-1.000000X0.750000X-1.000000X-0.750000X1.000000X-0.750000X0*%
%ADD28RoundRect,0.050800X1.000000X1.900000X-1.000000X1.900000X-1.000000X-1.900000X1.000000X-1.900000X0*%
%ADD29RoundRect,0.288300X-0.237500X0.300000X-0.237500X-0.300000X0.237500X-0.300000X0.237500X0.300000X0*%
%ADD30RoundRect,0.288300X0.250000X0.237500X-0.250000X0.237500X-0.250000X-0.237500X0.250000X-0.237500X0*%
%ADD31RoundRect,0.288300X0.300000X0.237500X-0.300000X0.237500X-0.300000X-0.237500X0.300000X-0.237500X0*%
%ADD32RoundRect,0.050800X-0.850000X0.850000X-0.850000X-0.850000X0.850000X-0.850000X0.850000X0.850000X0*%
%ADD33RoundRect,0.200800X0.150000X-0.587500X0.150000X0.587500X-0.150000X0.587500X-0.150000X-0.587500X0*%
%ADD34RoundRect,0.200800X-0.150000X0.825000X-0.150000X-0.825000X0.150000X-0.825000X0.150000X0.825000X0*%
%ADD35RoundRect,0.300800X-0.450000X0.350000X-0.450000X-0.350000X0.450000X-0.350000X0.450000X0.350000X0*%
%ADD36RoundRect,0.050800X0.850000X0.850000X-0.850000X0.850000X-0.850000X-0.850000X0.850000X-0.850000X0*%
G04 APERTURE END LIST*
D10*
%TO.C,C12*%
X58000000Y15482379D03*
D11*
X58000000Y17982379D03*
%TD*%
D10*
%TO.C,C8*%
X25300000Y26200000D03*
D12*
X27800000Y26200000D03*
%TD*%
%TO.C,C3*%
X12065000Y8895000D03*
D10*
X9565000Y8895000D03*
%TD*%
D13*
%TO.C,R15*%
X45287500Y6600000D03*
X47112500Y6600000D03*
%TD*%
D14*
%TO.C,U$1*%
X13605000Y13131900D03*
X14105000Y13131900D03*
X14605000Y13131900D03*
X15105000Y13131900D03*
X15605000Y13131900D03*
D15*
X15605000Y17358100D03*
X15105000Y17358100D03*
X14605000Y17358100D03*
X14105000Y17358100D03*
X13605000Y17358100D03*
%TD*%
D16*
%TO.C,R8*%
X62400000Y2000000D03*
X64400000Y2000000D03*
%TD*%
D13*
%TO.C,R20*%
X70842500Y22865000D03*
X72667500Y22865000D03*
%TD*%
D17*
%TO.C,JP13*%
X76835000Y7625000D03*
D18*
X76835000Y5085000D03*
%TD*%
D17*
%TO.C,JP2*%
X2540000Y27945000D03*
D18*
X2540000Y25405000D03*
%TD*%
D19*
%TO.C,C19*%
X45600000Y16000000D03*
X47325000Y16000000D03*
%TD*%
D20*
%TO.C,Q1*%
X51950000Y17137500D03*
X50050000Y17137500D03*
X51000000Y15262500D03*
%TD*%
D21*
%TO.C,JP9*%
X43815000Y2545000D03*
D18*
X46355000Y2545000D03*
%TD*%
D19*
%TO.C,C5*%
X19457500Y9530000D03*
X21182500Y9530000D03*
%TD*%
D13*
%TO.C,R1*%
X15597500Y6355000D03*
X17422500Y6355000D03*
%TD*%
D22*
%TO.C,C16*%
X73660000Y13975000D03*
D10*
X76160000Y13975000D03*
%TD*%
D22*
%TO.C,D1*%
X46355000Y24135000D03*
D23*
X53975000Y24135000D03*
%TD*%
D24*
%TO.C,R2*%
X7200000Y5912500D03*
X7200000Y4087500D03*
%TD*%
D21*
%TO.C,JP14*%
X20260000Y2400000D03*
D18*
X22800000Y2400000D03*
%TD*%
D19*
%TO.C,C2*%
X15647500Y9530000D03*
X17372500Y9530000D03*
%TD*%
D25*
%TO.C,RV2*%
X51425000Y5085000D03*
X53965000Y5085000D03*
X56505000Y5085000D03*
%TD*%
D17*
%TO.C,JP4*%
X2540000Y7625000D03*
D18*
X2540000Y5085000D03*
%TD*%
D26*
%TO.C,C18*%
X43000000Y9337500D03*
X43000000Y11062500D03*
%TD*%
D27*
%TO.C,Q4*%
X68555000Y4621600D03*
X68555000Y6921600D03*
X68555000Y9221600D03*
D28*
X62255000Y6921600D03*
%TD*%
D12*
%TO.C,C17*%
X29600000Y9800000D03*
D10*
X27100000Y9800000D03*
%TD*%
D29*
%TO.C,C15*%
X31750000Y23727500D03*
X31750000Y22002500D03*
%TD*%
D30*
%TO.C,R14*%
X37912500Y22600000D03*
X36087500Y22600000D03*
%TD*%
D16*
%TO.C,R4*%
X65000000Y12340000D03*
X67000000Y12340000D03*
%TD*%
D29*
%TO.C,C14*%
X33000000Y5262500D03*
X33000000Y3537500D03*
%TD*%
D21*
%TO.C,JP5*%
X13330000Y2545000D03*
D18*
X15870000Y2545000D03*
%TD*%
D21*
%TO.C,JP10*%
X12525000Y29600000D03*
D18*
X15065000Y29600000D03*
%TD*%
D24*
%TO.C,R13*%
X37465000Y5362500D03*
X37465000Y3537500D03*
%TD*%
D21*
%TO.C,JP3*%
X26860000Y2400000D03*
D18*
X29400000Y2400000D03*
%TD*%
D31*
%TO.C,C4*%
X64862500Y25000000D03*
X63137500Y25000000D03*
%TD*%
D21*
%TO.C,JP1*%
X62725000Y29200000D03*
D18*
X65265000Y29200000D03*
%TD*%
D32*
%TO.C,JP11*%
X51435000Y11435000D03*
D18*
X48895000Y11435000D03*
X46355000Y11435000D03*
%TD*%
D33*
%TO.C,Q2*%
X56835000Y9862500D03*
X58735000Y9862500D03*
X57785000Y11737500D03*
%TD*%
D13*
%TO.C,R10*%
X22287500Y18800000D03*
X24112500Y18800000D03*
%TD*%
D24*
%TO.C,R16*%
X54800000Y17112500D03*
X54800000Y15287500D03*
%TD*%
D27*
%TO.C,Q3*%
X68555000Y15485000D03*
X68555000Y17785000D03*
X68555000Y20085000D03*
D28*
X62255000Y17785000D03*
%TD*%
D17*
%TO.C,JP6*%
X2540000Y20960000D03*
D18*
X2540000Y18420000D03*
X2540000Y15880000D03*
X2540000Y13340000D03*
%TD*%
D24*
%TO.C,R3*%
X9525000Y3457500D03*
X9525000Y1632500D03*
%TD*%
D23*
%TO.C,D2*%
X46355000Y20325000D03*
D12*
X53975000Y20325000D03*
%TD*%
D34*
%TO.C,U$2*%
X40640000Y14545000D03*
X39370000Y14545000D03*
X38100000Y14545000D03*
X36830000Y14545000D03*
X36830000Y9595000D03*
X38100000Y9595000D03*
X39370000Y9595000D03*
X40640000Y9595000D03*
%TD*%
D24*
%TO.C,R12*%
X34925000Y5362500D03*
X34925000Y3537500D03*
%TD*%
D35*
%TO.C,R19*%
X71755000Y9895000D03*
X71755000Y7895000D03*
%TD*%
D21*
%TO.C,JP8*%
X74295000Y29845000D03*
D18*
X76835000Y29845000D03*
%TD*%
D35*
%TO.C,R18*%
X71755000Y20055000D03*
X71755000Y18055000D03*
%TD*%
D30*
%TO.C,R17*%
X58512500Y22600000D03*
X56687500Y22600000D03*
%TD*%
D22*
%TO.C,C1*%
X18417621Y23200000D03*
D10*
X20917621Y23200000D03*
%TD*%
D36*
%TO.C,JP12*%
X76835000Y20325000D03*
D18*
X76835000Y22865000D03*
%TD*%
D19*
%TO.C,C11*%
X12472500Y20960000D03*
X14197500Y20960000D03*
%TD*%
D18*
%TO.C,JP7*%
X50200000Y29400000D03*
D21*
X47660000Y29400000D03*
%TD*%
D12*
%TO.C,C9*%
X58182380Y28400000D03*
D10*
X55682380Y28400000D03*
%TD*%
M02*
