%TF.GenerationSoftware,KiCad,Pcbnew,(6.0.2)*%
%TF.CreationDate,2022-03-25T16:36:57-07:00*%
%TF.ProjectId,buttons,62757474-6f6e-4732-9e6b-696361645f70,rev?*%
%TF.SameCoordinates,Original*%
%TF.FileFunction,Copper,L2,Bot*%
%TF.FilePolarity,Positive*%
%FSLAX46Y46*%
G04 Gerber Fmt 4.6, Leading zero omitted, Abs format (unit mm)*
G04 Created by KiCad (PCBNEW (6.0.2)) date 2022-03-25 16:36:57*
%MOMM*%
%LPD*%
G01*
G04 APERTURE LIST*
%TA.AperFunction,ComponentPad*%
%ADD10O,1.850000X3.048000*%
%TD*%
%TA.AperFunction,ComponentPad*%
%ADD11R,1.700000X1.700000*%
%TD*%
%TA.AperFunction,ComponentPad*%
%ADD12O,1.700000X1.700000*%
%TD*%
%TA.AperFunction,Conductor*%
%ADD13C,0.406400*%
%TD*%
G04 APERTURE END LIST*
D10*
%TO.P,SW1,1,1*%
%TO.N,GND*%
X177840000Y-86250000D03*
X177840000Y-73750000D03*
%TO.P,SW1,2,2*%
%TO.N,/B1*%
X182840000Y-73750000D03*
X182840000Y-86250000D03*
%TD*%
%TO.P,SW3,1,1*%
%TO.N,GND*%
X127040000Y-86250000D03*
X127040000Y-73750000D03*
%TO.P,SW3,2,2*%
%TO.N,/B3*%
X132040000Y-86250000D03*
X132040000Y-73750000D03*
%TD*%
%TO.P,SW2,1,1*%
%TO.N,GND*%
X152400000Y-86250000D03*
X152400000Y-73750000D03*
%TO.P,SW2,2,2*%
%TO.N,/B2*%
X157400000Y-73750000D03*
X157400000Y-86250000D03*
%TD*%
D11*
%TO.P,J1,1,Pin_1*%
%TO.N,GND*%
X167640000Y-82550000D03*
D12*
%TO.P,J1,2,Pin_2*%
%TO.N,/B1*%
X167640000Y-80010000D03*
%TO.P,J1,3,Pin_3*%
%TO.N,/B2*%
X167640000Y-77470000D03*
%TO.P,J1,4,Pin_4*%
%TO.N,/B3*%
X167640000Y-74930000D03*
%TD*%
D13*
%TO.N,/B3*%
X132040000Y-86250000D02*
X132040000Y-83860000D01*
X132040000Y-83860000D02*
X137160000Y-78740000D01*
X137160000Y-78740000D02*
X137030000Y-78740000D01*
X160020000Y-78740000D02*
X137160000Y-78740000D01*
X137030000Y-78740000D02*
X132040000Y-73750000D01*
X163830000Y-74930000D02*
X160020000Y-78740000D01*
X167640000Y-74930000D02*
X163830000Y-74930000D01*
%TD*%
%TA.AperFunction,Conductor*%
%TO.N,GND*%
G36*
X197554121Y-66568002D02*
G01*
X197600614Y-66621658D01*
X197612000Y-66674000D01*
X197612000Y-93346000D01*
X197591998Y-93414121D01*
X197538342Y-93460614D01*
X197486000Y-93472000D01*
X120014000Y-93472000D01*
X119945879Y-93451998D01*
X119899386Y-93398342D01*
X119888000Y-93346000D01*
X119888000Y-89032703D01*
X140130743Y-89032703D01*
X140168268Y-89317734D01*
X140244129Y-89595036D01*
X140356923Y-89859476D01*
X140504561Y-90106161D01*
X140684313Y-90330528D01*
X140892851Y-90528423D01*
X141126317Y-90696186D01*
X141130112Y-90698195D01*
X141130113Y-90698196D01*
X141151869Y-90709715D01*
X141380392Y-90830712D01*
X141650373Y-90929511D01*
X141931264Y-90990755D01*
X141959841Y-90993004D01*
X142154282Y-91008307D01*
X142154291Y-91008307D01*
X142156739Y-91008500D01*
X142312271Y-91008500D01*
X142314407Y-91008354D01*
X142314418Y-91008354D01*
X142522548Y-90994165D01*
X142522554Y-90994164D01*
X142526825Y-90993873D01*
X142531020Y-90993004D01*
X142531022Y-90993004D01*
X142667584Y-90964723D01*
X142808342Y-90935574D01*
X143079343Y-90839607D01*
X143334812Y-90707750D01*
X143338313Y-90705289D01*
X143338317Y-90705287D01*
X143452418Y-90625095D01*
X143570023Y-90542441D01*
X143780622Y-90346740D01*
X143962713Y-90124268D01*
X144112927Y-89879142D01*
X144228483Y-89615898D01*
X144307244Y-89339406D01*
X144347751Y-89054784D01*
X144347845Y-89036951D01*
X144347867Y-89032703D01*
X189660743Y-89032703D01*
X189698268Y-89317734D01*
X189774129Y-89595036D01*
X189886923Y-89859476D01*
X190034561Y-90106161D01*
X190214313Y-90330528D01*
X190422851Y-90528423D01*
X190656317Y-90696186D01*
X190660112Y-90698195D01*
X190660113Y-90698196D01*
X190681869Y-90709715D01*
X190910392Y-90830712D01*
X191180373Y-90929511D01*
X191461264Y-90990755D01*
X191489841Y-90993004D01*
X191684282Y-91008307D01*
X191684291Y-91008307D01*
X191686739Y-91008500D01*
X191842271Y-91008500D01*
X191844407Y-91008354D01*
X191844418Y-91008354D01*
X192052548Y-90994165D01*
X192052554Y-90994164D01*
X192056825Y-90993873D01*
X192061020Y-90993004D01*
X192061022Y-90993004D01*
X192197584Y-90964723D01*
X192338342Y-90935574D01*
X192609343Y-90839607D01*
X192864812Y-90707750D01*
X192868313Y-90705289D01*
X192868317Y-90705287D01*
X192982418Y-90625095D01*
X193100023Y-90542441D01*
X193310622Y-90346740D01*
X193492713Y-90124268D01*
X193642927Y-89879142D01*
X193758483Y-89615898D01*
X193837244Y-89339406D01*
X193877751Y-89054784D01*
X193877845Y-89036951D01*
X193879235Y-88771583D01*
X193879235Y-88771576D01*
X193879257Y-88767297D01*
X193841732Y-88482266D01*
X193765871Y-88204964D01*
X193705348Y-88063070D01*
X193654763Y-87944476D01*
X193654761Y-87944472D01*
X193653077Y-87940524D01*
X193538834Y-87749638D01*
X193507643Y-87697521D01*
X193507640Y-87697517D01*
X193505439Y-87693839D01*
X193325687Y-87469472D01*
X193155044Y-87307538D01*
X193120258Y-87274527D01*
X193120255Y-87274525D01*
X193117149Y-87271577D01*
X192883683Y-87103814D01*
X192861843Y-87092250D01*
X192836226Y-87078687D01*
X192629608Y-86969288D01*
X192464199Y-86908757D01*
X192363658Y-86871964D01*
X192363656Y-86871963D01*
X192359627Y-86870489D01*
X192078736Y-86809245D01*
X192047685Y-86806801D01*
X191855718Y-86791693D01*
X191855709Y-86791693D01*
X191853261Y-86791500D01*
X191697729Y-86791500D01*
X191695593Y-86791646D01*
X191695582Y-86791646D01*
X191487452Y-86805835D01*
X191487446Y-86805836D01*
X191483175Y-86806127D01*
X191478980Y-86806996D01*
X191478978Y-86806996D01*
X191342416Y-86835277D01*
X191201658Y-86864426D01*
X190930657Y-86960393D01*
X190675188Y-87092250D01*
X190671687Y-87094711D01*
X190671683Y-87094713D01*
X190630702Y-87123515D01*
X190439977Y-87257559D01*
X190229378Y-87453260D01*
X190047287Y-87675732D01*
X189897073Y-87920858D01*
X189895347Y-87924791D01*
X189895346Y-87924792D01*
X189894049Y-87927747D01*
X189781517Y-88184102D01*
X189780342Y-88188229D01*
X189780341Y-88188230D01*
X189754165Y-88280123D01*
X189702756Y-88460594D01*
X189662249Y-88745216D01*
X189662227Y-88749505D01*
X189662226Y-88749512D01*
X189660765Y-89028417D01*
X189660743Y-89032703D01*
X144347867Y-89032703D01*
X144349235Y-88771583D01*
X144349235Y-88771576D01*
X144349257Y-88767297D01*
X144311732Y-88482266D01*
X144235871Y-88204964D01*
X144175348Y-88063070D01*
X144124763Y-87944476D01*
X144124761Y-87944472D01*
X144123077Y-87940524D01*
X144008834Y-87749638D01*
X143977643Y-87697521D01*
X143977640Y-87697517D01*
X143975439Y-87693839D01*
X143795687Y-87469472D01*
X143625044Y-87307538D01*
X143590258Y-87274527D01*
X143590255Y-87274525D01*
X143587149Y-87271577D01*
X143353683Y-87103814D01*
X143331843Y-87092250D01*
X143306226Y-87078687D01*
X143099608Y-86969288D01*
X142934199Y-86908757D01*
X142927061Y-86906145D01*
X150967000Y-86906145D01*
X150967212Y-86911318D01*
X150980973Y-87078687D01*
X150982658Y-87088867D01*
X151037544Y-87307377D01*
X151040864Y-87317128D01*
X151130704Y-87523749D01*
X151135570Y-87532824D01*
X151257948Y-87721990D01*
X151264240Y-87730161D01*
X151415869Y-87896800D01*
X151423402Y-87903825D01*
X151600218Y-88043466D01*
X151608791Y-88049162D01*
X151806045Y-88158052D01*
X151815440Y-88162273D01*
X152027820Y-88237481D01*
X152037783Y-88240113D01*
X152128163Y-88256212D01*
X152141460Y-88254752D01*
X152145508Y-88241774D01*
X152654000Y-88241774D01*
X152657918Y-88255118D01*
X152672194Y-88257105D01*
X152728121Y-88248547D01*
X152738146Y-88246159D01*
X152952295Y-88176164D01*
X152961804Y-88172167D01*
X153161640Y-88068139D01*
X153170365Y-88062645D01*
X153350532Y-87927372D01*
X153358239Y-87920529D01*
X153513896Y-87757644D01*
X153520379Y-87749638D01*
X153647343Y-87563515D01*
X153652432Y-87554556D01*
X153747294Y-87350193D01*
X153750851Y-87340525D01*
X153811060Y-87123420D01*
X153812991Y-87113301D01*
X153832644Y-86929405D01*
X153833000Y-86922713D01*
X153833000Y-86908757D01*
X155966500Y-86908757D01*
X155966711Y-86911318D01*
X155966712Y-86911341D01*
X155980478Y-87078779D01*
X155980479Y-87078785D01*
X155980902Y-87083930D01*
X156038327Y-87312551D01*
X156132322Y-87528723D01*
X156260360Y-87726641D01*
X156263839Y-87730464D01*
X156263841Y-87730467D01*
X156288858Y-87757960D01*
X156419005Y-87900989D01*
X156423056Y-87904188D01*
X156423060Y-87904192D01*
X156599939Y-88043883D01*
X156599943Y-88043885D01*
X156603994Y-88047085D01*
X156810361Y-88161005D01*
X156815230Y-88162729D01*
X156815234Y-88162731D01*
X157027689Y-88237965D01*
X157027693Y-88237966D01*
X157032564Y-88239691D01*
X157037657Y-88240598D01*
X157037660Y-88240599D01*
X157259544Y-88280123D01*
X157259550Y-88280124D01*
X157264633Y-88281029D01*
X157355477Y-88282139D01*
X157495170Y-88283846D01*
X157495172Y-88283846D01*
X157500339Y-88283909D01*
X157733349Y-88248253D01*
X157957407Y-88175020D01*
X158166496Y-88066175D01*
X158170629Y-88063072D01*
X158170632Y-88063070D01*
X158350865Y-87927747D01*
X158350868Y-87927745D01*
X158355000Y-87924642D01*
X158517857Y-87754223D01*
X158650693Y-87559492D01*
X158652869Y-87554805D01*
X158747764Y-87350372D01*
X158747766Y-87350367D01*
X158749941Y-87345681D01*
X158812935Y-87118532D01*
X158828885Y-86969288D01*
X158833144Y-86929437D01*
X158833144Y-86929429D01*
X158833500Y-86926102D01*
X158833500Y-86906145D01*
X176407000Y-86906145D01*
X176407212Y-86911318D01*
X176420973Y-87078687D01*
X176422658Y-87088867D01*
X176477544Y-87307377D01*
X176480864Y-87317128D01*
X176570704Y-87523749D01*
X176575570Y-87532824D01*
X176697948Y-87721990D01*
X176704240Y-87730161D01*
X176855869Y-87896800D01*
X176863402Y-87903825D01*
X177040218Y-88043466D01*
X177048791Y-88049162D01*
X177246045Y-88158052D01*
X177255440Y-88162273D01*
X177467820Y-88237481D01*
X177477783Y-88240113D01*
X177568163Y-88256212D01*
X177581460Y-88254752D01*
X177585508Y-88241774D01*
X178094000Y-88241774D01*
X178097918Y-88255118D01*
X178112194Y-88257105D01*
X178168121Y-88248547D01*
X178178146Y-88246159D01*
X178392295Y-88176164D01*
X178401804Y-88172167D01*
X178601640Y-88068139D01*
X178610365Y-88062645D01*
X178790532Y-87927372D01*
X178798239Y-87920529D01*
X178953896Y-87757644D01*
X178960379Y-87749638D01*
X179087343Y-87563515D01*
X179092432Y-87554556D01*
X179187294Y-87350193D01*
X179190851Y-87340525D01*
X179251060Y-87123420D01*
X179252991Y-87113301D01*
X179272644Y-86929405D01*
X179273000Y-86922713D01*
X179273000Y-86908757D01*
X181406500Y-86908757D01*
X181406711Y-86911318D01*
X181406712Y-86911341D01*
X181420478Y-87078779D01*
X181420479Y-87078785D01*
X181420902Y-87083930D01*
X181478327Y-87312551D01*
X181572322Y-87528723D01*
X181700360Y-87726641D01*
X181703839Y-87730464D01*
X181703841Y-87730467D01*
X181728858Y-87757960D01*
X181859005Y-87900989D01*
X181863056Y-87904188D01*
X181863060Y-87904192D01*
X182039939Y-88043883D01*
X182039943Y-88043885D01*
X182043994Y-88047085D01*
X182250361Y-88161005D01*
X182255230Y-88162729D01*
X182255234Y-88162731D01*
X182467689Y-88237965D01*
X182467693Y-88237966D01*
X182472564Y-88239691D01*
X182477657Y-88240598D01*
X182477660Y-88240599D01*
X182699544Y-88280123D01*
X182699550Y-88280124D01*
X182704633Y-88281029D01*
X182795477Y-88282139D01*
X182935170Y-88283846D01*
X182935172Y-88283846D01*
X182940339Y-88283909D01*
X183173349Y-88248253D01*
X183397407Y-88175020D01*
X183606496Y-88066175D01*
X183610629Y-88063072D01*
X183610632Y-88063070D01*
X183790865Y-87927747D01*
X183790868Y-87927745D01*
X183795000Y-87924642D01*
X183957857Y-87754223D01*
X184090693Y-87559492D01*
X184092869Y-87554805D01*
X184187764Y-87350372D01*
X184187766Y-87350367D01*
X184189941Y-87345681D01*
X184252935Y-87118532D01*
X184268885Y-86969288D01*
X184273144Y-86929437D01*
X184273144Y-86929429D01*
X184273500Y-86926102D01*
X184273500Y-85591243D01*
X184272074Y-85573898D01*
X184259522Y-85421221D01*
X184259521Y-85421215D01*
X184259098Y-85416070D01*
X184201673Y-85187449D01*
X184107678Y-84971277D01*
X183979640Y-84773359D01*
X183958715Y-84750362D01*
X183824473Y-84602833D01*
X183824471Y-84602832D01*
X183820995Y-84599011D01*
X183816944Y-84595812D01*
X183816940Y-84595808D01*
X183640061Y-84456117D01*
X183640057Y-84456115D01*
X183636006Y-84452915D01*
X183616810Y-84442318D01*
X183549751Y-84405300D01*
X183429639Y-84338995D01*
X183424770Y-84337271D01*
X183424766Y-84337269D01*
X183212311Y-84262035D01*
X183212307Y-84262034D01*
X183207436Y-84260309D01*
X183202343Y-84259402D01*
X183202340Y-84259401D01*
X182980456Y-84219877D01*
X182980450Y-84219876D01*
X182975367Y-84218971D01*
X182884523Y-84217861D01*
X182744830Y-84216154D01*
X182744828Y-84216154D01*
X182739661Y-84216091D01*
X182506651Y-84251747D01*
X182282593Y-84324980D01*
X182073504Y-84433825D01*
X182069371Y-84436928D01*
X182069368Y-84436930D01*
X182043258Y-84456534D01*
X181885000Y-84575358D01*
X181722143Y-84745777D01*
X181589307Y-84940508D01*
X181587133Y-84945192D01*
X181587131Y-84945195D01*
X181572716Y-84976251D01*
X181490059Y-85154319D01*
X181427065Y-85381468D01*
X181406500Y-85573898D01*
X181406500Y-86908757D01*
X179273000Y-86908757D01*
X179273000Y-86522115D01*
X179268525Y-86506876D01*
X179267135Y-86505671D01*
X179259452Y-86504000D01*
X178112115Y-86504000D01*
X178096876Y-86508475D01*
X178095671Y-86509865D01*
X178094000Y-86517548D01*
X178094000Y-88241774D01*
X177585508Y-88241774D01*
X177586000Y-88240197D01*
X177586000Y-86522115D01*
X177581525Y-86506876D01*
X177580135Y-86505671D01*
X177572452Y-86504000D01*
X176425115Y-86504000D01*
X176409876Y-86508475D01*
X176408671Y-86509865D01*
X176407000Y-86517548D01*
X176407000Y-86906145D01*
X158833500Y-86906145D01*
X158833500Y-85977885D01*
X176407000Y-85977885D01*
X176411475Y-85993124D01*
X176412865Y-85994329D01*
X176420548Y-85996000D01*
X177567885Y-85996000D01*
X177583124Y-85991525D01*
X177584329Y-85990135D01*
X177586000Y-85982452D01*
X177586000Y-85977885D01*
X178094000Y-85977885D01*
X178098475Y-85993124D01*
X178099865Y-85994329D01*
X178107548Y-85996000D01*
X179254885Y-85996000D01*
X179270124Y-85991525D01*
X179271329Y-85990135D01*
X179273000Y-85982452D01*
X179273000Y-85593855D01*
X179272788Y-85588682D01*
X179259027Y-85421313D01*
X179257342Y-85411133D01*
X179202456Y-85192623D01*
X179199136Y-85182872D01*
X179109296Y-84976251D01*
X179104430Y-84967176D01*
X178982052Y-84778010D01*
X178975760Y-84769839D01*
X178824131Y-84603200D01*
X178816598Y-84596175D01*
X178639782Y-84456534D01*
X178631209Y-84450838D01*
X178433955Y-84341948D01*
X178424560Y-84337727D01*
X178212180Y-84262519D01*
X178202217Y-84259887D01*
X178111837Y-84243788D01*
X178098540Y-84245248D01*
X178094000Y-84259803D01*
X178094000Y-85977885D01*
X177586000Y-85977885D01*
X177586000Y-84258226D01*
X177582082Y-84244882D01*
X177567806Y-84242895D01*
X177511879Y-84251453D01*
X177501854Y-84253841D01*
X177287705Y-84323836D01*
X177278196Y-84327833D01*
X177078360Y-84431861D01*
X177069635Y-84437355D01*
X176889468Y-84572628D01*
X176881761Y-84579471D01*
X176726104Y-84742356D01*
X176719621Y-84750362D01*
X176592657Y-84936485D01*
X176587568Y-84945444D01*
X176492706Y-85149807D01*
X176489149Y-85159475D01*
X176428940Y-85376580D01*
X176427009Y-85386699D01*
X176407356Y-85570595D01*
X176407000Y-85577287D01*
X176407000Y-85977885D01*
X158833500Y-85977885D01*
X158833500Y-85591243D01*
X158832074Y-85573898D01*
X158819522Y-85421221D01*
X158819521Y-85421215D01*
X158819098Y-85416070D01*
X158761673Y-85187449D01*
X158667678Y-84971277D01*
X158539640Y-84773359D01*
X158518715Y-84750362D01*
X158384473Y-84602833D01*
X158384471Y-84602832D01*
X158380995Y-84599011D01*
X158376944Y-84595812D01*
X158376940Y-84595808D01*
X158200061Y-84456117D01*
X158200057Y-84456115D01*
X158196006Y-84452915D01*
X158176810Y-84442318D01*
X158109751Y-84405300D01*
X157989639Y-84338995D01*
X157984770Y-84337271D01*
X157984766Y-84337269D01*
X157772311Y-84262035D01*
X157772307Y-84262034D01*
X157767436Y-84260309D01*
X157762343Y-84259402D01*
X157762340Y-84259401D01*
X157540456Y-84219877D01*
X157540450Y-84219876D01*
X157535367Y-84218971D01*
X157444523Y-84217861D01*
X157304830Y-84216154D01*
X157304828Y-84216154D01*
X157299661Y-84216091D01*
X157066651Y-84251747D01*
X156842593Y-84324980D01*
X156633504Y-84433825D01*
X156629371Y-84436928D01*
X156629368Y-84436930D01*
X156603258Y-84456534D01*
X156445000Y-84575358D01*
X156282143Y-84745777D01*
X156149307Y-84940508D01*
X156147133Y-84945192D01*
X156147131Y-84945195D01*
X156132716Y-84976251D01*
X156050059Y-85154319D01*
X155987065Y-85381468D01*
X155966500Y-85573898D01*
X155966500Y-86908757D01*
X153833000Y-86908757D01*
X153833000Y-86522115D01*
X153828525Y-86506876D01*
X153827135Y-86505671D01*
X153819452Y-86504000D01*
X152672115Y-86504000D01*
X152656876Y-86508475D01*
X152655671Y-86509865D01*
X152654000Y-86517548D01*
X152654000Y-88241774D01*
X152145508Y-88241774D01*
X152146000Y-88240197D01*
X152146000Y-86522115D01*
X152141525Y-86506876D01*
X152140135Y-86505671D01*
X152132452Y-86504000D01*
X150985115Y-86504000D01*
X150969876Y-86508475D01*
X150968671Y-86509865D01*
X150967000Y-86517548D01*
X150967000Y-86906145D01*
X142927061Y-86906145D01*
X142833658Y-86871964D01*
X142833656Y-86871963D01*
X142829627Y-86870489D01*
X142548736Y-86809245D01*
X142517685Y-86806801D01*
X142325718Y-86791693D01*
X142325709Y-86791693D01*
X142323261Y-86791500D01*
X142167729Y-86791500D01*
X142165593Y-86791646D01*
X142165582Y-86791646D01*
X141957452Y-86805835D01*
X141957446Y-86805836D01*
X141953175Y-86806127D01*
X141948980Y-86806996D01*
X141948978Y-86806996D01*
X141812416Y-86835277D01*
X141671658Y-86864426D01*
X141400657Y-86960393D01*
X141145188Y-87092250D01*
X141141687Y-87094711D01*
X141141683Y-87094713D01*
X141100702Y-87123515D01*
X140909977Y-87257559D01*
X140699378Y-87453260D01*
X140517287Y-87675732D01*
X140367073Y-87920858D01*
X140365347Y-87924791D01*
X140365346Y-87924792D01*
X140364049Y-87927747D01*
X140251517Y-88184102D01*
X140250342Y-88188229D01*
X140250341Y-88188230D01*
X140224165Y-88280123D01*
X140172756Y-88460594D01*
X140132249Y-88745216D01*
X140132227Y-88749505D01*
X140132226Y-88749512D01*
X140130765Y-89028417D01*
X140130743Y-89032703D01*
X119888000Y-89032703D01*
X119888000Y-86906145D01*
X125607000Y-86906145D01*
X125607212Y-86911318D01*
X125620973Y-87078687D01*
X125622658Y-87088867D01*
X125677544Y-87307377D01*
X125680864Y-87317128D01*
X125770704Y-87523749D01*
X125775570Y-87532824D01*
X125897948Y-87721990D01*
X125904240Y-87730161D01*
X126055869Y-87896800D01*
X126063402Y-87903825D01*
X126240218Y-88043466D01*
X126248791Y-88049162D01*
X126446045Y-88158052D01*
X126455440Y-88162273D01*
X126667820Y-88237481D01*
X126677783Y-88240113D01*
X126768163Y-88256212D01*
X126781460Y-88254752D01*
X126785508Y-88241774D01*
X127294000Y-88241774D01*
X127297918Y-88255118D01*
X127312194Y-88257105D01*
X127368121Y-88248547D01*
X127378146Y-88246159D01*
X127592295Y-88176164D01*
X127601804Y-88172167D01*
X127801640Y-88068139D01*
X127810365Y-88062645D01*
X127990532Y-87927372D01*
X127998239Y-87920529D01*
X128153896Y-87757644D01*
X128160379Y-87749638D01*
X128287343Y-87563515D01*
X128292432Y-87554556D01*
X128387294Y-87350193D01*
X128390851Y-87340525D01*
X128451060Y-87123420D01*
X128452991Y-87113301D01*
X128472644Y-86929405D01*
X128473000Y-86922713D01*
X128473000Y-86908757D01*
X130606500Y-86908757D01*
X130606711Y-86911318D01*
X130606712Y-86911341D01*
X130620478Y-87078779D01*
X130620479Y-87078785D01*
X130620902Y-87083930D01*
X130678327Y-87312551D01*
X130772322Y-87528723D01*
X130900360Y-87726641D01*
X130903839Y-87730464D01*
X130903841Y-87730467D01*
X130928858Y-87757960D01*
X131059005Y-87900989D01*
X131063056Y-87904188D01*
X131063060Y-87904192D01*
X131239939Y-88043883D01*
X131239943Y-88043885D01*
X131243994Y-88047085D01*
X131450361Y-88161005D01*
X131455230Y-88162729D01*
X131455234Y-88162731D01*
X131667689Y-88237965D01*
X131667693Y-88237966D01*
X131672564Y-88239691D01*
X131677657Y-88240598D01*
X131677660Y-88240599D01*
X131899544Y-88280123D01*
X131899550Y-88280124D01*
X131904633Y-88281029D01*
X131995477Y-88282139D01*
X132135170Y-88283846D01*
X132135172Y-88283846D01*
X132140339Y-88283909D01*
X132373349Y-88248253D01*
X132597407Y-88175020D01*
X132806496Y-88066175D01*
X132810629Y-88063072D01*
X132810632Y-88063070D01*
X132990865Y-87927747D01*
X132990868Y-87927745D01*
X132995000Y-87924642D01*
X133157857Y-87754223D01*
X133290693Y-87559492D01*
X133292869Y-87554805D01*
X133387764Y-87350372D01*
X133387766Y-87350367D01*
X133389941Y-87345681D01*
X133452935Y-87118532D01*
X133468885Y-86969288D01*
X133473144Y-86929437D01*
X133473144Y-86929429D01*
X133473500Y-86926102D01*
X133473500Y-85977885D01*
X150967000Y-85977885D01*
X150971475Y-85993124D01*
X150972865Y-85994329D01*
X150980548Y-85996000D01*
X152127885Y-85996000D01*
X152143124Y-85991525D01*
X152144329Y-85990135D01*
X152146000Y-85982452D01*
X152146000Y-85977885D01*
X152654000Y-85977885D01*
X152658475Y-85993124D01*
X152659865Y-85994329D01*
X152667548Y-85996000D01*
X153814885Y-85996000D01*
X153830124Y-85991525D01*
X153831329Y-85990135D01*
X153833000Y-85982452D01*
X153833000Y-85593855D01*
X153832788Y-85588682D01*
X153819027Y-85421313D01*
X153817342Y-85411133D01*
X153762456Y-85192623D01*
X153759136Y-85182872D01*
X153669296Y-84976251D01*
X153664430Y-84967176D01*
X153542052Y-84778010D01*
X153535760Y-84769839D01*
X153384131Y-84603200D01*
X153376598Y-84596175D01*
X153199782Y-84456534D01*
X153191209Y-84450838D01*
X152993955Y-84341948D01*
X152984560Y-84337727D01*
X152772180Y-84262519D01*
X152762217Y-84259887D01*
X152671837Y-84243788D01*
X152658540Y-84245248D01*
X152654000Y-84259803D01*
X152654000Y-85977885D01*
X152146000Y-85977885D01*
X152146000Y-84258226D01*
X152142082Y-84244882D01*
X152127806Y-84242895D01*
X152071879Y-84251453D01*
X152061854Y-84253841D01*
X151847705Y-84323836D01*
X151838196Y-84327833D01*
X151638360Y-84431861D01*
X151629635Y-84437355D01*
X151449468Y-84572628D01*
X151441761Y-84579471D01*
X151286104Y-84742356D01*
X151279621Y-84750362D01*
X151152657Y-84936485D01*
X151147568Y-84945444D01*
X151052706Y-85149807D01*
X151049149Y-85159475D01*
X150988940Y-85376580D01*
X150987009Y-85386699D01*
X150967356Y-85570595D01*
X150967000Y-85577287D01*
X150967000Y-85977885D01*
X133473500Y-85977885D01*
X133473500Y-85591243D01*
X133472074Y-85573898D01*
X133459522Y-85421221D01*
X133459521Y-85421215D01*
X133459098Y-85416070D01*
X133401673Y-85187449D01*
X133307678Y-84971277D01*
X133179640Y-84773359D01*
X133158715Y-84750362D01*
X133024473Y-84602833D01*
X133024471Y-84602832D01*
X133020995Y-84599011D01*
X133016944Y-84595812D01*
X133016940Y-84595808D01*
X132840061Y-84456117D01*
X132840057Y-84456115D01*
X132836006Y-84452915D01*
X132816806Y-84442316D01*
X132766837Y-84391886D01*
X132751700Y-84332008D01*
X132751700Y-84206985D01*
X132771702Y-84138864D01*
X132788605Y-84117890D01*
X133461826Y-83444669D01*
X166282001Y-83444669D01*
X166282371Y-83451490D01*
X166287895Y-83502352D01*
X166291521Y-83517604D01*
X166336676Y-83638054D01*
X166345214Y-83653649D01*
X166421715Y-83755724D01*
X166434276Y-83768285D01*
X166536351Y-83844786D01*
X166551946Y-83853324D01*
X166672394Y-83898478D01*
X166687649Y-83902105D01*
X166738514Y-83907631D01*
X166745328Y-83908000D01*
X167367885Y-83908000D01*
X167383124Y-83903525D01*
X167384329Y-83902135D01*
X167386000Y-83894452D01*
X167386000Y-83889884D01*
X167894000Y-83889884D01*
X167898475Y-83905123D01*
X167899865Y-83906328D01*
X167907548Y-83907999D01*
X168534669Y-83907999D01*
X168541490Y-83907629D01*
X168592352Y-83902105D01*
X168607604Y-83898479D01*
X168728054Y-83853324D01*
X168743649Y-83844786D01*
X168845724Y-83768285D01*
X168858285Y-83755724D01*
X168934786Y-83653649D01*
X168943324Y-83638054D01*
X168988478Y-83517606D01*
X168992105Y-83502351D01*
X168997631Y-83451486D01*
X168998000Y-83444672D01*
X168998000Y-82822115D01*
X168993525Y-82806876D01*
X168992135Y-82805671D01*
X168984452Y-82804000D01*
X167912115Y-82804000D01*
X167896876Y-82808475D01*
X167895671Y-82809865D01*
X167894000Y-82817548D01*
X167894000Y-83889884D01*
X167386000Y-83889884D01*
X167386000Y-82822115D01*
X167381525Y-82806876D01*
X167380135Y-82805671D01*
X167372452Y-82804000D01*
X166300116Y-82804000D01*
X166284877Y-82808475D01*
X166283672Y-82809865D01*
X166282001Y-82817548D01*
X166282001Y-83444669D01*
X133461826Y-83444669D01*
X137417891Y-79488605D01*
X137480203Y-79454579D01*
X137506986Y-79451700D01*
X159990970Y-79451700D01*
X159999540Y-79451992D01*
X160049946Y-79455429D01*
X160049950Y-79455429D01*
X160057521Y-79455945D01*
X160064997Y-79454640D01*
X160065000Y-79454640D01*
X160120783Y-79444904D01*
X160127308Y-79443941D01*
X160183467Y-79437145D01*
X160183468Y-79437145D01*
X160191011Y-79436232D01*
X160198119Y-79433546D01*
X160200419Y-79432981D01*
X160217480Y-79428314D01*
X160219734Y-79427634D01*
X160227215Y-79426328D01*
X160286005Y-79400521D01*
X160292102Y-79398033D01*
X160345047Y-79378027D01*
X160345050Y-79378026D01*
X160352149Y-79375343D01*
X160358404Y-79371044D01*
X160360495Y-79369951D01*
X160375957Y-79361345D01*
X160377991Y-79360142D01*
X160384946Y-79357089D01*
X160390971Y-79352466D01*
X160390976Y-79352463D01*
X160435874Y-79318012D01*
X160441209Y-79314136D01*
X160487847Y-79282082D01*
X160487853Y-79282077D01*
X160494112Y-79277775D01*
X160535764Y-79231026D01*
X160540744Y-79225751D01*
X164087891Y-75678605D01*
X164150203Y-75644579D01*
X164176986Y-75641700D01*
X166412195Y-75641700D01*
X166480316Y-75661702D01*
X166519628Y-75701865D01*
X166539987Y-75735088D01*
X166686250Y-75903938D01*
X166858126Y-76046632D01*
X166928595Y-76087811D01*
X166931445Y-76089476D01*
X166980169Y-76141114D01*
X166993240Y-76210897D01*
X166966509Y-76276669D01*
X166926055Y-76310027D01*
X166913607Y-76316507D01*
X166909474Y-76319610D01*
X166909471Y-76319612D01*
X166885247Y-76337800D01*
X166734965Y-76450635D01*
X166580629Y-76612138D01*
X166454743Y-76796680D01*
X166360688Y-76999305D01*
X166300989Y-77214570D01*
X166277251Y-77436695D01*
X166277548Y-77441848D01*
X166277548Y-77441851D01*
X166283011Y-77536590D01*
X166290110Y-77659715D01*
X166291247Y-77664761D01*
X166291248Y-77664767D01*
X166311119Y-77752939D01*
X166339222Y-77877639D01*
X166423266Y-78084616D01*
X166539987Y-78275088D01*
X166686250Y-78443938D01*
X166858126Y-78586632D01*
X166928595Y-78627811D01*
X166931445Y-78629476D01*
X166980169Y-78681114D01*
X166993240Y-78750897D01*
X166966509Y-78816669D01*
X166926055Y-78850027D01*
X166913607Y-78856507D01*
X166909474Y-78859610D01*
X166909471Y-78859612D01*
X166885247Y-78877800D01*
X166734965Y-78990635D01*
X166580629Y-79152138D01*
X166454743Y-79336680D01*
X166360688Y-79539305D01*
X166300989Y-79754570D01*
X166277251Y-79976695D01*
X166277548Y-79981848D01*
X166277548Y-79981851D01*
X166283011Y-80076590D01*
X166290110Y-80199715D01*
X166291247Y-80204761D01*
X166291248Y-80204767D01*
X166311119Y-80292939D01*
X166339222Y-80417639D01*
X166423266Y-80624616D01*
X166539987Y-80815088D01*
X166686250Y-80983938D01*
X166690225Y-80987238D01*
X166690231Y-80987244D01*
X166695425Y-80991556D01*
X166735059Y-81050460D01*
X166736555Y-81121441D01*
X166699439Y-81181962D01*
X166659168Y-81206480D01*
X166551946Y-81246676D01*
X166536351Y-81255214D01*
X166434276Y-81331715D01*
X166421715Y-81344276D01*
X166345214Y-81446351D01*
X166336676Y-81461946D01*
X166291522Y-81582394D01*
X166287895Y-81597649D01*
X166282369Y-81648514D01*
X166282000Y-81655328D01*
X166282000Y-82277885D01*
X166286475Y-82293124D01*
X166287865Y-82294329D01*
X166295548Y-82296000D01*
X168979884Y-82296000D01*
X168995123Y-82291525D01*
X168996328Y-82290135D01*
X168997999Y-82282452D01*
X168997999Y-81655331D01*
X168997629Y-81648510D01*
X168992105Y-81597648D01*
X168988479Y-81582396D01*
X168943324Y-81461946D01*
X168934786Y-81446351D01*
X168858285Y-81344276D01*
X168845724Y-81331715D01*
X168743649Y-81255214D01*
X168728054Y-81246676D01*
X168617813Y-81205348D01*
X168561049Y-81162706D01*
X168536349Y-81096145D01*
X168551557Y-81026796D01*
X168573104Y-80998115D01*
X168674430Y-80897144D01*
X168674440Y-80897132D01*
X168678096Y-80893489D01*
X168737594Y-80810689D01*
X168805435Y-80716277D01*
X168808453Y-80712077D01*
X168907430Y-80511811D01*
X168972370Y-80298069D01*
X169001529Y-80076590D01*
X169003156Y-80010000D01*
X168984852Y-79787361D01*
X168930431Y-79570702D01*
X168841354Y-79365840D01*
X168801906Y-79304862D01*
X168722822Y-79182617D01*
X168722820Y-79182614D01*
X168720014Y-79178277D01*
X168569670Y-79013051D01*
X168565619Y-79009852D01*
X168565615Y-79009848D01*
X168398414Y-78877800D01*
X168398410Y-78877798D01*
X168394359Y-78874598D01*
X168353053Y-78851796D01*
X168303084Y-78801364D01*
X168288312Y-78731921D01*
X168313428Y-78665516D01*
X168340780Y-78638909D01*
X168384603Y-78607650D01*
X168519860Y-78511173D01*
X168678096Y-78353489D01*
X168737594Y-78270689D01*
X168805435Y-78176277D01*
X168808453Y-78172077D01*
X168880935Y-78025421D01*
X168905136Y-77976453D01*
X168905137Y-77976451D01*
X168907430Y-77971811D01*
X168972370Y-77758069D01*
X169001529Y-77536590D01*
X169003156Y-77470000D01*
X168984852Y-77247361D01*
X168930431Y-77030702D01*
X168841354Y-76825840D01*
X168720014Y-76638277D01*
X168569670Y-76473051D01*
X168565619Y-76469852D01*
X168565615Y-76469848D01*
X168398414Y-76337800D01*
X168398410Y-76337798D01*
X168394359Y-76334598D01*
X168353053Y-76311796D01*
X168303084Y-76261364D01*
X168288312Y-76191921D01*
X168313428Y-76125516D01*
X168340780Y-76098909D01*
X168384603Y-76067650D01*
X168519860Y-75971173D01*
X168678096Y-75813489D01*
X168701376Y-75781092D01*
X168805435Y-75636277D01*
X168808453Y-75632077D01*
X168834025Y-75580337D01*
X168905136Y-75436453D01*
X168905137Y-75436451D01*
X168907430Y-75431811D01*
X168972370Y-75218069D01*
X169001529Y-74996590D01*
X169003156Y-74930000D01*
X168984852Y-74707361D01*
X168930431Y-74490702D01*
X168893664Y-74406145D01*
X176407000Y-74406145D01*
X176407212Y-74411318D01*
X176420973Y-74578687D01*
X176422658Y-74588867D01*
X176477544Y-74807377D01*
X176480864Y-74817128D01*
X176570704Y-75023749D01*
X176575570Y-75032824D01*
X176697948Y-75221990D01*
X176704240Y-75230161D01*
X176855869Y-75396800D01*
X176863402Y-75403825D01*
X177040218Y-75543466D01*
X177048791Y-75549162D01*
X177246045Y-75658052D01*
X177255440Y-75662273D01*
X177467820Y-75737481D01*
X177477783Y-75740113D01*
X177568163Y-75756212D01*
X177581460Y-75754752D01*
X177585508Y-75741774D01*
X178094000Y-75741774D01*
X178097918Y-75755118D01*
X178112194Y-75757105D01*
X178168121Y-75748547D01*
X178178146Y-75746159D01*
X178392295Y-75676164D01*
X178401804Y-75672167D01*
X178601640Y-75568139D01*
X178610365Y-75562645D01*
X178790532Y-75427372D01*
X178798239Y-75420529D01*
X178953896Y-75257644D01*
X178960379Y-75249638D01*
X179087343Y-75063515D01*
X179092432Y-75054556D01*
X179187294Y-74850193D01*
X179190851Y-74840525D01*
X179251060Y-74623420D01*
X179252991Y-74613301D01*
X179272644Y-74429405D01*
X179273000Y-74422713D01*
X179273000Y-74408757D01*
X181406500Y-74408757D01*
X181406711Y-74411318D01*
X181406712Y-74411341D01*
X181420478Y-74578779D01*
X181420479Y-74578785D01*
X181420902Y-74583930D01*
X181478327Y-74812551D01*
X181572322Y-75028723D01*
X181700360Y-75226641D01*
X181703839Y-75230464D01*
X181703841Y-75230467D01*
X181728858Y-75257960D01*
X181859005Y-75400989D01*
X181863056Y-75404188D01*
X181863060Y-75404192D01*
X182039939Y-75543883D01*
X182039943Y-75543885D01*
X182043994Y-75547085D01*
X182250361Y-75661005D01*
X182255230Y-75662729D01*
X182255234Y-75662731D01*
X182467689Y-75737965D01*
X182467693Y-75737966D01*
X182472564Y-75739691D01*
X182477657Y-75740598D01*
X182477660Y-75740599D01*
X182699544Y-75780123D01*
X182699550Y-75780124D01*
X182704633Y-75781029D01*
X182795477Y-75782139D01*
X182935170Y-75783846D01*
X182935172Y-75783846D01*
X182940339Y-75783909D01*
X183173349Y-75748253D01*
X183397407Y-75675020D01*
X183606496Y-75566175D01*
X183610629Y-75563072D01*
X183610632Y-75563070D01*
X183790865Y-75427747D01*
X183790868Y-75427745D01*
X183795000Y-75424642D01*
X183957857Y-75254223D01*
X184090693Y-75059492D01*
X184092869Y-75054805D01*
X184187764Y-74850372D01*
X184187766Y-74850367D01*
X184189941Y-74845681D01*
X184252935Y-74618532D01*
X184271562Y-74444240D01*
X184273144Y-74429437D01*
X184273144Y-74429429D01*
X184273500Y-74426102D01*
X184273500Y-73091243D01*
X184272074Y-73073898D01*
X184259522Y-72921221D01*
X184259521Y-72921215D01*
X184259098Y-72916070D01*
X184201673Y-72687449D01*
X184107678Y-72471277D01*
X183979640Y-72273359D01*
X183958715Y-72250362D01*
X183824473Y-72102833D01*
X183824471Y-72102832D01*
X183820995Y-72099011D01*
X183816944Y-72095812D01*
X183816940Y-72095808D01*
X183640061Y-71956117D01*
X183640057Y-71956115D01*
X183636006Y-71952915D01*
X183429639Y-71838995D01*
X183424770Y-71837271D01*
X183424766Y-71837269D01*
X183212311Y-71762035D01*
X183212307Y-71762034D01*
X183207436Y-71760309D01*
X183202343Y-71759402D01*
X183202340Y-71759401D01*
X182980456Y-71719877D01*
X182980450Y-71719876D01*
X182975367Y-71718971D01*
X182884523Y-71717861D01*
X182744830Y-71716154D01*
X182744828Y-71716154D01*
X182739661Y-71716091D01*
X182506651Y-71751747D01*
X182282593Y-71824980D01*
X182073504Y-71933825D01*
X182069371Y-71936928D01*
X182069368Y-71936930D01*
X182043258Y-71956534D01*
X181885000Y-72075358D01*
X181722143Y-72245777D01*
X181589307Y-72440508D01*
X181587133Y-72445192D01*
X181587131Y-72445195D01*
X181530712Y-72566740D01*
X181490059Y-72654319D01*
X181427065Y-72881468D01*
X181426516Y-72886605D01*
X181409193Y-73048701D01*
X181406500Y-73073898D01*
X181406500Y-74408757D01*
X179273000Y-74408757D01*
X179273000Y-74022115D01*
X179268525Y-74006876D01*
X179267135Y-74005671D01*
X179259452Y-74004000D01*
X178112115Y-74004000D01*
X178096876Y-74008475D01*
X178095671Y-74009865D01*
X178094000Y-74017548D01*
X178094000Y-75741774D01*
X177585508Y-75741774D01*
X177586000Y-75740197D01*
X177586000Y-74022115D01*
X177581525Y-74006876D01*
X177580135Y-74005671D01*
X177572452Y-74004000D01*
X176425115Y-74004000D01*
X176409876Y-74008475D01*
X176408671Y-74009865D01*
X176407000Y-74017548D01*
X176407000Y-74406145D01*
X168893664Y-74406145D01*
X168841354Y-74285840D01*
X168797660Y-74218300D01*
X168722822Y-74102617D01*
X168722820Y-74102614D01*
X168720014Y-74098277D01*
X168569670Y-73933051D01*
X168565619Y-73929852D01*
X168565615Y-73929848D01*
X168398414Y-73797800D01*
X168398410Y-73797798D01*
X168394359Y-73794598D01*
X168198789Y-73686638D01*
X168193920Y-73684914D01*
X168193916Y-73684912D01*
X167993087Y-73613795D01*
X167993083Y-73613794D01*
X167988212Y-73612069D01*
X167983119Y-73611162D01*
X167983116Y-73611161D01*
X167773373Y-73573800D01*
X167773367Y-73573799D01*
X167768284Y-73572894D01*
X167694452Y-73571992D01*
X167550081Y-73570228D01*
X167550079Y-73570228D01*
X167544911Y-73570165D01*
X167324091Y-73603955D01*
X167111756Y-73673357D01*
X166913607Y-73776507D01*
X166909474Y-73779610D01*
X166909471Y-73779612D01*
X166885247Y-73797800D01*
X166734965Y-73910635D01*
X166731393Y-73914373D01*
X166640139Y-74009865D01*
X166580629Y-74072138D01*
X166518438Y-74163306D01*
X166463529Y-74208307D01*
X166414352Y-74218300D01*
X163859030Y-74218300D01*
X163850460Y-74218008D01*
X163800054Y-74214571D01*
X163800050Y-74214571D01*
X163792479Y-74214055D01*
X163785003Y-74215360D01*
X163785000Y-74215360D01*
X163729217Y-74225096D01*
X163722692Y-74226059D01*
X163666533Y-74232855D01*
X163666532Y-74232855D01*
X163658989Y-74233768D01*
X163651881Y-74236454D01*
X163649581Y-74237019D01*
X163632520Y-74241686D01*
X163630266Y-74242367D01*
X163622785Y-74243672D01*
X163615833Y-74246724D01*
X163615829Y-74246725D01*
X163564003Y-74269476D01*
X163557899Y-74271967D01*
X163497851Y-74294657D01*
X163491595Y-74298957D01*
X163489511Y-74300046D01*
X163474048Y-74308653D01*
X163472012Y-74309857D01*
X163465055Y-74312911D01*
X163414104Y-74352007D01*
X163408796Y-74355863D01*
X163362149Y-74387921D01*
X163362144Y-74387926D01*
X163355888Y-74392225D01*
X163350836Y-74397895D01*
X163350835Y-74397896D01*
X163314245Y-74438964D01*
X163309264Y-74444240D01*
X159762109Y-77991395D01*
X159699797Y-78025421D01*
X159673014Y-78028300D01*
X137376986Y-78028300D01*
X137308865Y-78008298D01*
X137287891Y-77991395D01*
X133702641Y-74406145D01*
X150967000Y-74406145D01*
X150967212Y-74411318D01*
X150980973Y-74578687D01*
X150982658Y-74588867D01*
X151037544Y-74807377D01*
X151040864Y-74817128D01*
X151130704Y-75023749D01*
X151135570Y-75032824D01*
X151257948Y-75221990D01*
X151264240Y-75230161D01*
X151415869Y-75396800D01*
X151423402Y-75403825D01*
X151600218Y-75543466D01*
X151608791Y-75549162D01*
X151806045Y-75658052D01*
X151815440Y-75662273D01*
X152027820Y-75737481D01*
X152037783Y-75740113D01*
X152128163Y-75756212D01*
X152141460Y-75754752D01*
X152145508Y-75741774D01*
X152654000Y-75741774D01*
X152657918Y-75755118D01*
X152672194Y-75757105D01*
X152728121Y-75748547D01*
X152738146Y-75746159D01*
X152952295Y-75676164D01*
X152961804Y-75672167D01*
X153161640Y-75568139D01*
X153170365Y-75562645D01*
X153350532Y-75427372D01*
X153358239Y-75420529D01*
X153513896Y-75257644D01*
X153520379Y-75249638D01*
X153647343Y-75063515D01*
X153652432Y-75054556D01*
X153747294Y-74850193D01*
X153750851Y-74840525D01*
X153811060Y-74623420D01*
X153812991Y-74613301D01*
X153832644Y-74429405D01*
X153833000Y-74422713D01*
X153833000Y-74408757D01*
X155966500Y-74408757D01*
X155966711Y-74411318D01*
X155966712Y-74411341D01*
X155980478Y-74578779D01*
X155980479Y-74578785D01*
X155980902Y-74583930D01*
X156038327Y-74812551D01*
X156132322Y-75028723D01*
X156260360Y-75226641D01*
X156263839Y-75230464D01*
X156263841Y-75230467D01*
X156288858Y-75257960D01*
X156419005Y-75400989D01*
X156423056Y-75404188D01*
X156423060Y-75404192D01*
X156599939Y-75543883D01*
X156599943Y-75543885D01*
X156603994Y-75547085D01*
X156810361Y-75661005D01*
X156815230Y-75662729D01*
X156815234Y-75662731D01*
X157027689Y-75737965D01*
X157027693Y-75737966D01*
X157032564Y-75739691D01*
X157037657Y-75740598D01*
X157037660Y-75740599D01*
X157259544Y-75780123D01*
X157259550Y-75780124D01*
X157264633Y-75781029D01*
X157355477Y-75782139D01*
X157495170Y-75783846D01*
X157495172Y-75783846D01*
X157500339Y-75783909D01*
X157733349Y-75748253D01*
X157957407Y-75675020D01*
X158166496Y-75566175D01*
X158170629Y-75563072D01*
X158170632Y-75563070D01*
X158350865Y-75427747D01*
X158350868Y-75427745D01*
X158355000Y-75424642D01*
X158517857Y-75254223D01*
X158650693Y-75059492D01*
X158652869Y-75054805D01*
X158747764Y-74850372D01*
X158747766Y-74850367D01*
X158749941Y-74845681D01*
X158812935Y-74618532D01*
X158831562Y-74444240D01*
X158833144Y-74429437D01*
X158833144Y-74429429D01*
X158833500Y-74426102D01*
X158833500Y-73477885D01*
X176407000Y-73477885D01*
X176411475Y-73493124D01*
X176412865Y-73494329D01*
X176420548Y-73496000D01*
X177567885Y-73496000D01*
X177583124Y-73491525D01*
X177584329Y-73490135D01*
X177586000Y-73482452D01*
X177586000Y-73477885D01*
X178094000Y-73477885D01*
X178098475Y-73493124D01*
X178099865Y-73494329D01*
X178107548Y-73496000D01*
X179254885Y-73496000D01*
X179270124Y-73491525D01*
X179271329Y-73490135D01*
X179273000Y-73482452D01*
X179273000Y-73093855D01*
X179272788Y-73088682D01*
X179259027Y-72921313D01*
X179257342Y-72911133D01*
X179202456Y-72692623D01*
X179199136Y-72682872D01*
X179109296Y-72476251D01*
X179104430Y-72467176D01*
X178982052Y-72278010D01*
X178975760Y-72269839D01*
X178824131Y-72103200D01*
X178816598Y-72096175D01*
X178639782Y-71956534D01*
X178631209Y-71950838D01*
X178433955Y-71841948D01*
X178424560Y-71837727D01*
X178212180Y-71762519D01*
X178202217Y-71759887D01*
X178111837Y-71743788D01*
X178098540Y-71745248D01*
X178094000Y-71759803D01*
X178094000Y-73477885D01*
X177586000Y-73477885D01*
X177586000Y-71758226D01*
X177582082Y-71744882D01*
X177567806Y-71742895D01*
X177511879Y-71751453D01*
X177501854Y-71753841D01*
X177287705Y-71823836D01*
X177278196Y-71827833D01*
X177078360Y-71931861D01*
X177069635Y-71937355D01*
X176889468Y-72072628D01*
X176881761Y-72079471D01*
X176726104Y-72242356D01*
X176719621Y-72250362D01*
X176592657Y-72436485D01*
X176587568Y-72445444D01*
X176492706Y-72649807D01*
X176489149Y-72659475D01*
X176428940Y-72876580D01*
X176427009Y-72886699D01*
X176407356Y-73070595D01*
X176407000Y-73077287D01*
X176407000Y-73477885D01*
X158833500Y-73477885D01*
X158833500Y-73091243D01*
X158832074Y-73073898D01*
X158819522Y-72921221D01*
X158819521Y-72921215D01*
X158819098Y-72916070D01*
X158761673Y-72687449D01*
X158667678Y-72471277D01*
X158539640Y-72273359D01*
X158518715Y-72250362D01*
X158384473Y-72102833D01*
X158384471Y-72102832D01*
X158380995Y-72099011D01*
X158376944Y-72095812D01*
X158376940Y-72095808D01*
X158200061Y-71956117D01*
X158200057Y-71956115D01*
X158196006Y-71952915D01*
X157989639Y-71838995D01*
X157984770Y-71837271D01*
X157984766Y-71837269D01*
X157772311Y-71762035D01*
X157772307Y-71762034D01*
X157767436Y-71760309D01*
X157762343Y-71759402D01*
X157762340Y-71759401D01*
X157540456Y-71719877D01*
X157540450Y-71719876D01*
X157535367Y-71718971D01*
X157444523Y-71717861D01*
X157304830Y-71716154D01*
X157304828Y-71716154D01*
X157299661Y-71716091D01*
X157066651Y-71751747D01*
X156842593Y-71824980D01*
X156633504Y-71933825D01*
X156629371Y-71936928D01*
X156629368Y-71936930D01*
X156603258Y-71956534D01*
X156445000Y-72075358D01*
X156282143Y-72245777D01*
X156149307Y-72440508D01*
X156147133Y-72445192D01*
X156147131Y-72445195D01*
X156090712Y-72566740D01*
X156050059Y-72654319D01*
X155987065Y-72881468D01*
X155986516Y-72886605D01*
X155969193Y-73048701D01*
X155966500Y-73073898D01*
X155966500Y-74408757D01*
X153833000Y-74408757D01*
X153833000Y-74022115D01*
X153828525Y-74006876D01*
X153827135Y-74005671D01*
X153819452Y-74004000D01*
X152672115Y-74004000D01*
X152656876Y-74008475D01*
X152655671Y-74009865D01*
X152654000Y-74017548D01*
X152654000Y-75741774D01*
X152145508Y-75741774D01*
X152146000Y-75740197D01*
X152146000Y-74022115D01*
X152141525Y-74006876D01*
X152140135Y-74005671D01*
X152132452Y-74004000D01*
X150985115Y-74004000D01*
X150969876Y-74008475D01*
X150968671Y-74009865D01*
X150967000Y-74017548D01*
X150967000Y-74406145D01*
X133702641Y-74406145D01*
X133510405Y-74213909D01*
X133476379Y-74151597D01*
X133473500Y-74124814D01*
X133473500Y-73477885D01*
X150967000Y-73477885D01*
X150971475Y-73493124D01*
X150972865Y-73494329D01*
X150980548Y-73496000D01*
X152127885Y-73496000D01*
X152143124Y-73491525D01*
X152144329Y-73490135D01*
X152146000Y-73482452D01*
X152146000Y-73477885D01*
X152654000Y-73477885D01*
X152658475Y-73493124D01*
X152659865Y-73494329D01*
X152667548Y-73496000D01*
X153814885Y-73496000D01*
X153830124Y-73491525D01*
X153831329Y-73490135D01*
X153833000Y-73482452D01*
X153833000Y-73093855D01*
X153832788Y-73088682D01*
X153819027Y-72921313D01*
X153817342Y-72911133D01*
X153762456Y-72692623D01*
X153759136Y-72682872D01*
X153669296Y-72476251D01*
X153664430Y-72467176D01*
X153542052Y-72278010D01*
X153535760Y-72269839D01*
X153384131Y-72103200D01*
X153376598Y-72096175D01*
X153199782Y-71956534D01*
X153191209Y-71950838D01*
X152993955Y-71841948D01*
X152984560Y-71837727D01*
X152772180Y-71762519D01*
X152762217Y-71759887D01*
X152671837Y-71743788D01*
X152658540Y-71745248D01*
X152654000Y-71759803D01*
X152654000Y-73477885D01*
X152146000Y-73477885D01*
X152146000Y-71758226D01*
X152142082Y-71744882D01*
X152127806Y-71742895D01*
X152071879Y-71751453D01*
X152061854Y-71753841D01*
X151847705Y-71823836D01*
X151838196Y-71827833D01*
X151638360Y-71931861D01*
X151629635Y-71937355D01*
X151449468Y-72072628D01*
X151441761Y-72079471D01*
X151286104Y-72242356D01*
X151279621Y-72250362D01*
X151152657Y-72436485D01*
X151147568Y-72445444D01*
X151052706Y-72649807D01*
X151049149Y-72659475D01*
X150988940Y-72876580D01*
X150987009Y-72886699D01*
X150967356Y-73070595D01*
X150967000Y-73077287D01*
X150967000Y-73477885D01*
X133473500Y-73477885D01*
X133473500Y-73091243D01*
X133472074Y-73073898D01*
X133459522Y-72921221D01*
X133459521Y-72921215D01*
X133459098Y-72916070D01*
X133401673Y-72687449D01*
X133307678Y-72471277D01*
X133179640Y-72273359D01*
X133158715Y-72250362D01*
X133024473Y-72102833D01*
X133024471Y-72102832D01*
X133020995Y-72099011D01*
X133016944Y-72095812D01*
X133016940Y-72095808D01*
X132840061Y-71956117D01*
X132840057Y-71956115D01*
X132836006Y-71952915D01*
X132629639Y-71838995D01*
X132624770Y-71837271D01*
X132624766Y-71837269D01*
X132412311Y-71762035D01*
X132412307Y-71762034D01*
X132407436Y-71760309D01*
X132402343Y-71759402D01*
X132402340Y-71759401D01*
X132180456Y-71719877D01*
X132180450Y-71719876D01*
X132175367Y-71718971D01*
X132084523Y-71717861D01*
X131944830Y-71716154D01*
X131944828Y-71716154D01*
X131939661Y-71716091D01*
X131706651Y-71751747D01*
X131482593Y-71824980D01*
X131273504Y-71933825D01*
X131269371Y-71936928D01*
X131269368Y-71936930D01*
X131243258Y-71956534D01*
X131085000Y-72075358D01*
X130922143Y-72245777D01*
X130789307Y-72440508D01*
X130787133Y-72445192D01*
X130787131Y-72445195D01*
X130730712Y-72566740D01*
X130690059Y-72654319D01*
X130627065Y-72881468D01*
X130626516Y-72886605D01*
X130609193Y-73048701D01*
X130606500Y-73073898D01*
X130606500Y-74408757D01*
X130606711Y-74411318D01*
X130606712Y-74411341D01*
X130620478Y-74578779D01*
X130620479Y-74578785D01*
X130620902Y-74583930D01*
X130678327Y-74812551D01*
X130772322Y-75028723D01*
X130900360Y-75226641D01*
X130903839Y-75230464D01*
X130903841Y-75230467D01*
X130928858Y-75257960D01*
X131059005Y-75400989D01*
X131063056Y-75404188D01*
X131063060Y-75404192D01*
X131239939Y-75543883D01*
X131239943Y-75543885D01*
X131243994Y-75547085D01*
X131450361Y-75661005D01*
X131455230Y-75662729D01*
X131455234Y-75662731D01*
X131667689Y-75737965D01*
X131667693Y-75737966D01*
X131672564Y-75739691D01*
X131677657Y-75740598D01*
X131677660Y-75740599D01*
X131899544Y-75780123D01*
X131899550Y-75780124D01*
X131904633Y-75781029D01*
X131995477Y-75782139D01*
X132135170Y-75783846D01*
X132135172Y-75783846D01*
X132140339Y-75783909D01*
X132373349Y-75748253D01*
X132597407Y-75675020D01*
X132752950Y-75594049D01*
X132822607Y-75580337D01*
X132888622Y-75606462D01*
X132900223Y-75616718D01*
X135999409Y-78715905D01*
X136033435Y-78778217D01*
X136028370Y-78849033D01*
X135999409Y-78894095D01*
X131557284Y-83336220D01*
X131551019Y-83342073D01*
X131507219Y-83380282D01*
X131502853Y-83386495D01*
X131470309Y-83432801D01*
X131466375Y-83438098D01*
X131431454Y-83482634D01*
X131431450Y-83482640D01*
X131426767Y-83488613D01*
X131423642Y-83495534D01*
X131422428Y-83497539D01*
X131413659Y-83512912D01*
X131412541Y-83514996D01*
X131408170Y-83521216D01*
X131405410Y-83528295D01*
X131405409Y-83528297D01*
X131384852Y-83581024D01*
X131382300Y-83587097D01*
X131355880Y-83645609D01*
X131354496Y-83653077D01*
X131353788Y-83655336D01*
X131348951Y-83672318D01*
X131348358Y-83674627D01*
X131345597Y-83681708D01*
X131344606Y-83689237D01*
X131344605Y-83689240D01*
X131337217Y-83745356D01*
X131336185Y-83751870D01*
X131335471Y-83755724D01*
X131324488Y-83814983D01*
X131324925Y-83822563D01*
X131324925Y-83822564D01*
X131328091Y-83877470D01*
X131328300Y-83884723D01*
X131328300Y-84330263D01*
X131308298Y-84398384D01*
X131273089Y-84433272D01*
X131273504Y-84433825D01*
X131269371Y-84436928D01*
X131269368Y-84436930D01*
X131243258Y-84456534D01*
X131085000Y-84575358D01*
X130922143Y-84745777D01*
X130789307Y-84940508D01*
X130787133Y-84945192D01*
X130787131Y-84945195D01*
X130772716Y-84976251D01*
X130690059Y-85154319D01*
X130627065Y-85381468D01*
X130606500Y-85573898D01*
X130606500Y-86908757D01*
X128473000Y-86908757D01*
X128473000Y-86522115D01*
X128468525Y-86506876D01*
X128467135Y-86505671D01*
X128459452Y-86504000D01*
X127312115Y-86504000D01*
X127296876Y-86508475D01*
X127295671Y-86509865D01*
X127294000Y-86517548D01*
X127294000Y-88241774D01*
X126785508Y-88241774D01*
X126786000Y-88240197D01*
X126786000Y-86522115D01*
X126781525Y-86506876D01*
X126780135Y-86505671D01*
X126772452Y-86504000D01*
X125625115Y-86504000D01*
X125609876Y-86508475D01*
X125608671Y-86509865D01*
X125607000Y-86517548D01*
X125607000Y-86906145D01*
X119888000Y-86906145D01*
X119888000Y-85977885D01*
X125607000Y-85977885D01*
X125611475Y-85993124D01*
X125612865Y-85994329D01*
X125620548Y-85996000D01*
X126767885Y-85996000D01*
X126783124Y-85991525D01*
X126784329Y-85990135D01*
X126786000Y-85982452D01*
X126786000Y-85977885D01*
X127294000Y-85977885D01*
X127298475Y-85993124D01*
X127299865Y-85994329D01*
X127307548Y-85996000D01*
X128454885Y-85996000D01*
X128470124Y-85991525D01*
X128471329Y-85990135D01*
X128473000Y-85982452D01*
X128473000Y-85593855D01*
X128472788Y-85588682D01*
X128459027Y-85421313D01*
X128457342Y-85411133D01*
X128402456Y-85192623D01*
X128399136Y-85182872D01*
X128309296Y-84976251D01*
X128304430Y-84967176D01*
X128182052Y-84778010D01*
X128175760Y-84769839D01*
X128024131Y-84603200D01*
X128016598Y-84596175D01*
X127839782Y-84456534D01*
X127831209Y-84450838D01*
X127633955Y-84341948D01*
X127624560Y-84337727D01*
X127412180Y-84262519D01*
X127402217Y-84259887D01*
X127311837Y-84243788D01*
X127298540Y-84245248D01*
X127294000Y-84259803D01*
X127294000Y-85977885D01*
X126786000Y-85977885D01*
X126786000Y-84258226D01*
X126782082Y-84244882D01*
X126767806Y-84242895D01*
X126711879Y-84251453D01*
X126701854Y-84253841D01*
X126487705Y-84323836D01*
X126478196Y-84327833D01*
X126278360Y-84431861D01*
X126269635Y-84437355D01*
X126089468Y-84572628D01*
X126081761Y-84579471D01*
X125926104Y-84742356D01*
X125919621Y-84750362D01*
X125792657Y-84936485D01*
X125787568Y-84945444D01*
X125692706Y-85149807D01*
X125689149Y-85159475D01*
X125628940Y-85376580D01*
X125627009Y-85386699D01*
X125607356Y-85570595D01*
X125607000Y-85577287D01*
X125607000Y-85977885D01*
X119888000Y-85977885D01*
X119888000Y-74406145D01*
X125607000Y-74406145D01*
X125607212Y-74411318D01*
X125620973Y-74578687D01*
X125622658Y-74588867D01*
X125677544Y-74807377D01*
X125680864Y-74817128D01*
X125770704Y-75023749D01*
X125775570Y-75032824D01*
X125897948Y-75221990D01*
X125904240Y-75230161D01*
X126055869Y-75396800D01*
X126063402Y-75403825D01*
X126240218Y-75543466D01*
X126248791Y-75549162D01*
X126446045Y-75658052D01*
X126455440Y-75662273D01*
X126667820Y-75737481D01*
X126677783Y-75740113D01*
X126768163Y-75756212D01*
X126781460Y-75754752D01*
X126785508Y-75741774D01*
X127294000Y-75741774D01*
X127297918Y-75755118D01*
X127312194Y-75757105D01*
X127368121Y-75748547D01*
X127378146Y-75746159D01*
X127592295Y-75676164D01*
X127601804Y-75672167D01*
X127801640Y-75568139D01*
X127810365Y-75562645D01*
X127990532Y-75427372D01*
X127998239Y-75420529D01*
X128153896Y-75257644D01*
X128160379Y-75249638D01*
X128287343Y-75063515D01*
X128292432Y-75054556D01*
X128387294Y-74850193D01*
X128390851Y-74840525D01*
X128451060Y-74623420D01*
X128452991Y-74613301D01*
X128472644Y-74429405D01*
X128473000Y-74422713D01*
X128473000Y-74022115D01*
X128468525Y-74006876D01*
X128467135Y-74005671D01*
X128459452Y-74004000D01*
X127312115Y-74004000D01*
X127296876Y-74008475D01*
X127295671Y-74009865D01*
X127294000Y-74017548D01*
X127294000Y-75741774D01*
X126785508Y-75741774D01*
X126786000Y-75740197D01*
X126786000Y-74022115D01*
X126781525Y-74006876D01*
X126780135Y-74005671D01*
X126772452Y-74004000D01*
X125625115Y-74004000D01*
X125609876Y-74008475D01*
X125608671Y-74009865D01*
X125607000Y-74017548D01*
X125607000Y-74406145D01*
X119888000Y-74406145D01*
X119888000Y-73477885D01*
X125607000Y-73477885D01*
X125611475Y-73493124D01*
X125612865Y-73494329D01*
X125620548Y-73496000D01*
X126767885Y-73496000D01*
X126783124Y-73491525D01*
X126784329Y-73490135D01*
X126786000Y-73482452D01*
X126786000Y-73477885D01*
X127294000Y-73477885D01*
X127298475Y-73493124D01*
X127299865Y-73494329D01*
X127307548Y-73496000D01*
X128454885Y-73496000D01*
X128470124Y-73491525D01*
X128471329Y-73490135D01*
X128473000Y-73482452D01*
X128473000Y-73093855D01*
X128472788Y-73088682D01*
X128459027Y-72921313D01*
X128457342Y-72911133D01*
X128402456Y-72692623D01*
X128399136Y-72682872D01*
X128309296Y-72476251D01*
X128304430Y-72467176D01*
X128182052Y-72278010D01*
X128175760Y-72269839D01*
X128024131Y-72103200D01*
X128016598Y-72096175D01*
X127839782Y-71956534D01*
X127831209Y-71950838D01*
X127633955Y-71841948D01*
X127624560Y-71837727D01*
X127412180Y-71762519D01*
X127402217Y-71759887D01*
X127311837Y-71743788D01*
X127298540Y-71745248D01*
X127294000Y-71759803D01*
X127294000Y-73477885D01*
X126786000Y-73477885D01*
X126786000Y-71758226D01*
X126782082Y-71744882D01*
X126767806Y-71742895D01*
X126711879Y-71751453D01*
X126701854Y-71753841D01*
X126487705Y-71823836D01*
X126478196Y-71827833D01*
X126278360Y-71931861D01*
X126269635Y-71937355D01*
X126089468Y-72072628D01*
X126081761Y-72079471D01*
X125926104Y-72242356D01*
X125919621Y-72250362D01*
X125792657Y-72436485D01*
X125787568Y-72445444D01*
X125692706Y-72649807D01*
X125689149Y-72659475D01*
X125628940Y-72876580D01*
X125627009Y-72886699D01*
X125607356Y-73070595D01*
X125607000Y-73077287D01*
X125607000Y-73477885D01*
X119888000Y-73477885D01*
X119888000Y-71252703D01*
X140130743Y-71252703D01*
X140168268Y-71537734D01*
X140244129Y-71815036D01*
X140245813Y-71818984D01*
X140355167Y-72075358D01*
X140356923Y-72079476D01*
X140368693Y-72099142D01*
X140472960Y-72273359D01*
X140504561Y-72326161D01*
X140684313Y-72550528D01*
X140892851Y-72748423D01*
X141126317Y-72916186D01*
X141130112Y-72918195D01*
X141130113Y-72918196D01*
X141151869Y-72929715D01*
X141380392Y-73050712D01*
X141650373Y-73149511D01*
X141931264Y-73210755D01*
X141959841Y-73213004D01*
X142154282Y-73228307D01*
X142154291Y-73228307D01*
X142156739Y-73228500D01*
X142312271Y-73228500D01*
X142314407Y-73228354D01*
X142314418Y-73228354D01*
X142522548Y-73214165D01*
X142522554Y-73214164D01*
X142526825Y-73213873D01*
X142531020Y-73213004D01*
X142531022Y-73213004D01*
X142667584Y-73184723D01*
X142808342Y-73155574D01*
X143079343Y-73059607D01*
X143334812Y-72927750D01*
X143338313Y-72925289D01*
X143338317Y-72925287D01*
X143452418Y-72845095D01*
X143570023Y-72762441D01*
X143655827Y-72682707D01*
X143777479Y-72569661D01*
X143777481Y-72569658D01*
X143780622Y-72566740D01*
X143962713Y-72344268D01*
X144112927Y-72099142D01*
X144123368Y-72075358D01*
X144226757Y-71839830D01*
X144228483Y-71835898D01*
X144249524Y-71762035D01*
X144306068Y-71563534D01*
X144307244Y-71559406D01*
X144347751Y-71274784D01*
X144347845Y-71256951D01*
X144347867Y-71252703D01*
X189660743Y-71252703D01*
X189698268Y-71537734D01*
X189774129Y-71815036D01*
X189775813Y-71818984D01*
X189885167Y-72075358D01*
X189886923Y-72079476D01*
X189898693Y-72099142D01*
X190002960Y-72273359D01*
X190034561Y-72326161D01*
X190214313Y-72550528D01*
X190422851Y-72748423D01*
X190656317Y-72916186D01*
X190660112Y-72918195D01*
X190660113Y-72918196D01*
X190681869Y-72929715D01*
X190910392Y-73050712D01*
X191180373Y-73149511D01*
X191461264Y-73210755D01*
X191489841Y-73213004D01*
X191684282Y-73228307D01*
X191684291Y-73228307D01*
X191686739Y-73228500D01*
X191842271Y-73228500D01*
X191844407Y-73228354D01*
X191844418Y-73228354D01*
X192052548Y-73214165D01*
X192052554Y-73214164D01*
X192056825Y-73213873D01*
X192061020Y-73213004D01*
X192061022Y-73213004D01*
X192197584Y-73184723D01*
X192338342Y-73155574D01*
X192609343Y-73059607D01*
X192864812Y-72927750D01*
X192868313Y-72925289D01*
X192868317Y-72925287D01*
X192982418Y-72845095D01*
X193100023Y-72762441D01*
X193185827Y-72682707D01*
X193307479Y-72569661D01*
X193307481Y-72569658D01*
X193310622Y-72566740D01*
X193492713Y-72344268D01*
X193642927Y-72099142D01*
X193653368Y-72075358D01*
X193756757Y-71839830D01*
X193758483Y-71835898D01*
X193779524Y-71762035D01*
X193836068Y-71563534D01*
X193837244Y-71559406D01*
X193877751Y-71274784D01*
X193877845Y-71256951D01*
X193879235Y-70991583D01*
X193879235Y-70991576D01*
X193879257Y-70987297D01*
X193841732Y-70702266D01*
X193765871Y-70424964D01*
X193653077Y-70160524D01*
X193505439Y-69913839D01*
X193325687Y-69689472D01*
X193117149Y-69491577D01*
X192883683Y-69323814D01*
X192861843Y-69312250D01*
X192838654Y-69299972D01*
X192629608Y-69189288D01*
X192359627Y-69090489D01*
X192078736Y-69029245D01*
X192047685Y-69026801D01*
X191855718Y-69011693D01*
X191855709Y-69011693D01*
X191853261Y-69011500D01*
X191697729Y-69011500D01*
X191695593Y-69011646D01*
X191695582Y-69011646D01*
X191487452Y-69025835D01*
X191487446Y-69025836D01*
X191483175Y-69026127D01*
X191478980Y-69026996D01*
X191478978Y-69026996D01*
X191342417Y-69055276D01*
X191201658Y-69084426D01*
X190930657Y-69180393D01*
X190675188Y-69312250D01*
X190671687Y-69314711D01*
X190671683Y-69314713D01*
X190661594Y-69321804D01*
X190439977Y-69477559D01*
X190229378Y-69673260D01*
X190047287Y-69895732D01*
X189897073Y-70140858D01*
X189781517Y-70404102D01*
X189702756Y-70680594D01*
X189662249Y-70965216D01*
X189662227Y-70969505D01*
X189662226Y-70969512D01*
X189660765Y-71248417D01*
X189660743Y-71252703D01*
X144347867Y-71252703D01*
X144349235Y-70991583D01*
X144349235Y-70991576D01*
X144349257Y-70987297D01*
X144311732Y-70702266D01*
X144235871Y-70424964D01*
X144123077Y-70160524D01*
X143975439Y-69913839D01*
X143795687Y-69689472D01*
X143587149Y-69491577D01*
X143353683Y-69323814D01*
X143331843Y-69312250D01*
X143308654Y-69299972D01*
X143099608Y-69189288D01*
X142829627Y-69090489D01*
X142548736Y-69029245D01*
X142517685Y-69026801D01*
X142325718Y-69011693D01*
X142325709Y-69011693D01*
X142323261Y-69011500D01*
X142167729Y-69011500D01*
X142165593Y-69011646D01*
X142165582Y-69011646D01*
X141957452Y-69025835D01*
X141957446Y-69025836D01*
X141953175Y-69026127D01*
X141948980Y-69026996D01*
X141948978Y-69026996D01*
X141812417Y-69055276D01*
X141671658Y-69084426D01*
X141400657Y-69180393D01*
X141145188Y-69312250D01*
X141141687Y-69314711D01*
X141141683Y-69314713D01*
X141131594Y-69321804D01*
X140909977Y-69477559D01*
X140699378Y-69673260D01*
X140517287Y-69895732D01*
X140367073Y-70140858D01*
X140251517Y-70404102D01*
X140172756Y-70680594D01*
X140132249Y-70965216D01*
X140132227Y-70969505D01*
X140132226Y-70969512D01*
X140130765Y-71248417D01*
X140130743Y-71252703D01*
X119888000Y-71252703D01*
X119888000Y-66674000D01*
X119908002Y-66605879D01*
X119961658Y-66559386D01*
X120014000Y-66548000D01*
X197486000Y-66548000D01*
X197554121Y-66568002D01*
G37*
%TD.AperFunction*%
%TD*%
M02*
