  0
SECTION
  2
HEADER
  9
$ANGBASE
  50
0.0
  9
$ANGDIR
  70
1
  9
$MEASUREMENT
  70
0
  0
ENDSEC
  0
SECTION
  2
TABLES
  0
TABLE
  2
LTYPE
  70
4
  0
LTYPE
  5
40F
  2
CONTINUOUS
  70
0
  3
Solid line
  72
65
  73
0
  40
0.0
  0
LTYPE
  5
410
  2
DASHDOT
 70
0
  3
Dash Dot ____ _ ____ _
 72
65
 73
4
 40
2.0
 49
1.25
 49
-0.25
 49
0.25
 49
-0.25
  0
LTYPE
  5
411
  2
DASHED
 70
0
  3
Dashed __ __ __ __ __
 72
65
 73
2
 40
0.75
 49
0.5
 49
-0.25
  0
LTYPE
  5
43B
  2
DOTTED
 70
0
  3
Dotted .  .  .  .
 72
65
 73
2
 40
0.2
 49
0.0
 49
-0.2
  0
ENDTAB
  0
TABLE
  2
STYLE
  70
4
  0
STYLE
  2
KICAD
  70
0
  40
0
  41
1
  42
1
  50
0
  71
0
  3
isocp.shx
  0
STYLE
  2
KICADB
  70
0
  40
0
  41
1
  42
1
  50
0
  71
0
  3
isocp.shx
  0
STYLE
  2
KICADI
  70
0
  40
0
  41
1
  42
1
  50
15
  71
0
  3
isocp.shx
  0
STYLE
  2
KICADBI
  70
0
  40
0
  41
1
  42
1
  50
15
  71
0
  3
isocp.shx
  0
ENDTAB
  0
TABLE
  2
LAYER
  70
1
  0
LAYER
  2
BLACK
  70
0
  62
7
  6
CONTINUOUS
  0
ENDTAB
  0
ENDSEC
  0
SECTION
  2
ENTITIES
0
CIRCLE
8
BLACK
10
5.6
20
-3.5
40
0.0649921
0
LINE
8
BLACK
6
CONTINUOUS
10
7.03999
20
-3.41925
11
7.03999
21
-3.37209
0
LINE
8
BLACK
6
CONTINUOUS
10
6.96316
20
-3.41925
11
6.96316
21
-3.37209
0
ARC
8
BLACK
10
7.00157
20
-3.37209
40
0.0384173
50
360
51
540
0
ARC
8
BLACK
10
7.00157
20
-3.41925
40
0.0384173
50
180
51
360
0
LINE
8
BLACK
6
CONTINUOUS
10
7.03999
20
-2.92713
11
7.03999
21
-2.87996
0
LINE
8
BLACK
6
CONTINUOUS
10
6.96316
20
-2.92713
11
6.96316
21
-2.87996
0
ARC
8
BLACK
10
7.00157
20
-2.87996
40
0.0384173
50
360
51
540
0
ARC
8
BLACK
10
7.00157
20
-2.92713
40
0.0384173
50
180
51
360
0
LINE
8
BLACK
6
CONTINUOUS
10
7.23684
20
-2.92713
11
7.23684
21
-2.87996
0
LINE
8
BLACK
6
CONTINUOUS
10
7.16001
20
-2.92713
11
7.16001
21
-2.87996
0
ARC
8
BLACK
10
7.19843
20
-2.87996
40
0.0384173
50
360
51
540
0
ARC
8
BLACK
10
7.19843
20
-2.92713
40
0.0384173
50
180
51
360
0
LINE
8
BLACK
6
CONTINUOUS
10
7.23684
20
-3.41925
11
7.23684
21
-3.37209
0
LINE
8
BLACK
6
CONTINUOUS
10
7.16001
20
-3.41925
11
7.16001
21
-3.37209
0
ARC
8
BLACK
10
7.19843
20
-3.37209
40
0.0384173
50
360
51
540
0
ARC
8
BLACK
10
7.19843
20
-3.41925
40
0.0384173
50
180
51
360
0
LINE
8
BLACK
6
CONTINUOUS
10
5.03999
20
-3.41925
11
5.03999
21
-3.37209
0
LINE
8
BLACK
6
CONTINUOUS
10
4.96316
20
-3.41925
11
4.96316
21
-3.37209
0
ARC
8
BLACK
10
5.00157
20
-3.37209
40
0.0384173
50
360
51
540
0
ARC
8
BLACK
10
5.00157
20
-3.41925
40
0.0384173
50
180
51
360
0
LINE
8
BLACK
6
CONTINUOUS
10
5.03999
20
-2.92713
11
5.03999
21
-2.87996
0
LINE
8
BLACK
6
CONTINUOUS
10
4.96316
20
-2.92713
11
4.96316
21
-2.87996
0
ARC
8
BLACK
10
5.00157
20
-2.87996
40
0.0384173
50
360
51
540
0
ARC
8
BLACK
10
5.00157
20
-2.92713
40
0.0384173
50
180
51
360
0
LINE
8
BLACK
6
CONTINUOUS
10
5.23684
20
-3.41925
11
5.23684
21
-3.37209
0
LINE
8
BLACK
6
CONTINUOUS
10
5.16001
20
-3.41925
11
5.16001
21
-3.37209
0
ARC
8
BLACK
10
5.19843
20
-3.37209
40
0.0384173
50
360
51
540
0
ARC
8
BLACK
10
5.19843
20
-3.41925
40
0.0384173
50
180
51
360
0
LINE
8
BLACK
6
CONTINUOUS
10
5.23684
20
-2.92713
11
5.23684
21
-2.87996
0
LINE
8
BLACK
6
CONTINUOUS
10
5.16001
20
-2.92713
11
5.16001
21
-2.87996
0
ARC
8
BLACK
10
5.19843
20
-2.87996
40
0.0384173
50
360
51
540
0
ARC
8
BLACK
10
5.19843
20
-2.92713
40
0.0384173
50
180
51
360
0
CIRCLE
8
BLACK
10
7.55
20
-3.5
40
0.0649921
0
CIRCLE
8
BLACK
10
7.55
20
-2.8
40
0.0649921
0
LINE
8
BLACK
6
CONTINUOUS
10
6.03842
20
-3.41925
11
6.03842
21
-3.37209
0
LINE
8
BLACK
6
CONTINUOUS
10
5.96158
20
-3.41925
11
5.96158
21
-3.37209
0
ARC
8
BLACK
10
6
20
-3.37209
40
0.0384173
50
360
51
540
0
ARC
8
BLACK
10
6
20
-3.41925
40
0.0384173
50
180
51
360
0
LINE
8
BLACK
6
CONTINUOUS
10
6.03842
20
-2.92713
11
6.03842
21
-2.87996
0
LINE
8
BLACK
6
CONTINUOUS
10
5.96158
20
-2.92713
11
5.96158
21
-2.87996
0
ARC
8
BLACK
10
6
20
-2.87996
40
0.0384173
50
360
51
540
0
ARC
8
BLACK
10
6
20
-2.92713
40
0.0384173
50
180
51
360
0
LINE
8
BLACK
6
CONTINUOUS
10
6.23527
20
-2.92713
11
6.23527
21
-2.87996
0
LINE
8
BLACK
6
CONTINUOUS
10
6.15843
20
-2.92713
11
6.15843
21
-2.87996
0
ARC
8
BLACK
10
6.19685
20
-2.87996
40
0.0384173
50
360
51
540
0
ARC
8
BLACK
10
6.19685
20
-2.92713
40
0.0384173
50
180
51
360
0
LINE
8
BLACK
6
CONTINUOUS
10
6.23527
20
-3.41925
11
6.23527
21
-3.37209
0
LINE
8
BLACK
6
CONTINUOUS
10
6.15843
20
-3.41925
11
6.15843
21
-3.37209
0
ARC
8
BLACK
10
6.19685
20
-3.37209
40
0.0384173
50
360
51
540
0
ARC
8
BLACK
10
6.19685
20
-3.41925
40
0.0384173
50
180
51
360
0
CIRCLE
8
BLACK
10
5.6
20
-2.8
40
0.0649921
0
LINE
8
BLACK
6
CONTINUOUS
10
6.56454
20
-3.21654
11
6.56469
21
-3.21577
0
LINE
8
BLACK
6
CONTINUOUS
10
6.56469
20
-3.21577
11
6.56512
21
-3.21512
0
LINE
8
BLACK
6
CONTINUOUS
10
6.56512
20
-3.21512
11
6.56577
21
-3.21469
0
LINE
8
BLACK
6
CONTINUOUS
10
6.56577
20
-3.21469
11
6.56654
21
-3.21454
0
LINE
8
BLACK
6
CONTINUOUS
10
6.56654
20
-3.21454
11
6.63346
21
-3.21454
0
LINE
8
BLACK
6
CONTINUOUS
10
6.63346
20
-3.21454
11
6.63423
21
-3.21469
0
LINE
8
BLACK
6
CONTINUOUS
10
6.63423
20
-3.21469
11
6.63488
21
-3.21512
0
LINE
8
BLACK
6
CONTINUOUS
10
6.63488
20
-3.21512
11
6.63531
21
-3.21577
0
LINE
8
BLACK
6
CONTINUOUS
10
6.63531
20
-3.21577
11
6.63546
21
-3.21654
0
LINE
8
BLACK
6
CONTINUOUS
10
6.63546
20
-3.21654
11
6.63546
21
-3.28346
0
LINE
8
BLACK
6
CONTINUOUS
10
6.63546
20
-3.28346
11
6.63531
21
-3.28423
0
LINE
8
BLACK
6
CONTINUOUS
10
6.63531
20
-3.28423
11
6.63488
21
-3.28488
0
LINE
8
BLACK
6
CONTINUOUS
10
6.63488
20
-3.28488
11
6.63423
21
-3.28531
0
LINE
8
BLACK
6
CONTINUOUS
10
6.63423
20
-3.28531
11
6.63346
21
-3.28546
0
LINE
8
BLACK
6
CONTINUOUS
10
6.63346
20
-3.28546
11
6.56654
21
-3.28546
0
LINE
8
BLACK
6
CONTINUOUS
10
6.56654
20
-3.28546
11
6.56577
21
-3.28531
0
LINE
8
BLACK
6
CONTINUOUS
10
6.56577
20
-3.28531
11
6.56512
21
-3.28488
0
LINE
8
BLACK
6
CONTINUOUS
10
6.56512
20
-3.28488
11
6.56469
21
-3.28423
0
LINE
8
BLACK
6
CONTINUOUS
10
6.56469
20
-3.28423
11
6.56454
21
-3.28346
0
LINE
8
BLACK
6
CONTINUOUS
10
6.56454
20
-3.28346
11
6.56454
21
-3.21654
0
ARC
8
BLACK
10
6.6
20
-3.15
40
0.0354646
50
180
51
360
0
ARC
8
BLACK
10
6.6
20
-3.15
40
0.0354646
50
0
51
180
0
ARC
8
BLACK
10
6.6
20
-3.05
40
0.0354646
50
180
51
360
0
ARC
8
BLACK
10
6.6
20
-3.05
40
0.0354646
50
0
51
180
0
ARC
8
BLACK
10
6.6
20
-2.95
40
0.0354646
50
180
51
360
0
ARC
8
BLACK
10
6.6
20
-2.95
40
0.0354646
50
0
51
180
  0
ENDSEC
  0
EOF
