  0
SECTION
  2
HEADER
  9
$ANGBASE
  50
0.0
  9
$ANGDIR
  70
1
  9
$MEASUREMENT
  70
0
  0
ENDSEC
  0
SECTION
  2
TABLES
  0
TABLE
  2
LTYPE
  70
4
  0
LTYPE
  5
40F
  2
CONTINUOUS
  70
0
  3
Solid line
  72
65
  73
0
  40
0.0
  0
LTYPE
  5
410
  2
DASHDOT
 70
0
  3
Dash Dot ____ _ ____ _
 72
65
 73
4
 40
2.0
 49
1.25
 49
-0.25
 49
0.25
 49
-0.25
  0
LTYPE
  5
411
  2
DASHED
 70
0
  3
Dashed __ __ __ __ __
 72
65
 73
2
 40
0.75
 49
0.5
 49
-0.25
  0
LTYPE
  5
43B
  2
DOTTED
 70
0
  3
Dotted .  .  .  .
 72
65
 73
2
 40
0.2
 49
0.0
 49
-0.2
  0
ENDTAB
  0
TABLE
  2
STYLE
  70
4
  0
STYLE
  2
KICAD
  70
0
  40
0
  41
1
  42
1
  50
0
  71
0
  3
isocp.shx
  0
STYLE
  2
KICADB
  70
0
  40
0
  41
1
  42
1
  50
0
  71
0
  3
isocp.shx
  0
STYLE
  2
KICADI
  70
0
  40
0
  41
1
  42
1
  50
15
  71
0
  3
isocp.shx
  0
STYLE
  2
KICADBI
  70
0
  40
0
  41
1
  42
1
  50
15
  71
0
  3
isocp.shx
  0
ENDTAB
  0
TABLE
  2
LAYER
  70
1
  0
LAYER
  2
BLACK
  70
0
  62
7
  6
CONTINUOUS
  0
ENDTAB
  0
ENDSEC
  0
SECTION
  2
ENTITIES
0
LINE
8
BLACK
6
CONTINUOUS
10
6.96663
20
-2.90581
11
6.96732
21
-2.90748
0
LINE
8
BLACK
6
CONTINUOUS
10
6.96732
20
-2.90748
11
6.96663
21
-2.90915
0
LINE
8
BLACK
6
CONTINUOUS
10
6.96663
20
-2.90915
11
6.96496
21
-2.90984
0
LINE
8
BLACK
6
CONTINUOUS
10
6.96496
20
-2.90984
11
6.86024
21
-2.90984
0
LINE
8
BLACK
6
CONTINUOUS
10
6.86024
20
-2.90984
11
6.86024
21
-3.38937
0
LINE
8
BLACK
6
CONTINUOUS
10
6.86024
20
-3.38937
11
6.96496
21
-3.38937
0
LINE
8
BLACK
6
CONTINUOUS
10
6.96496
20
-3.38937
11
6.96663
21
-3.39006
0
LINE
8
BLACK
6
CONTINUOUS
10
6.96663
20
-3.39006
11
6.96732
21
-3.39173
0
LINE
8
BLACK
6
CONTINUOUS
10
6.96732
20
-3.39173
11
6.96663
21
-3.3934
0
LINE
8
BLACK
6
CONTINUOUS
10
6.96663
20
-3.3934
11
6.96496
21
-3.39409
0
LINE
8
BLACK
6
CONTINUOUS
10
6.96496
20
-3.39409
11
6.85787
21
-3.39409
0
LINE
8
BLACK
6
CONTINUOUS
10
6.85787
20
-3.39409
11
6.8562
21
-3.3934
0
LINE
8
BLACK
6
CONTINUOUS
10
6.8562
20
-3.3934
11
6.85551
21
-3.39173
0
LINE
8
BLACK
6
CONTINUOUS
10
6.85551
20
-3.39173
11
6.85551
21
-2.90748
0
LINE
8
BLACK
6
CONTINUOUS
10
6.85551
20
-2.90748
11
6.8562
21
-2.90581
0
LINE
8
BLACK
6
CONTINUOUS
10
6.8562
20
-2.90581
11
6.85787
21
-2.90512
0
LINE
8
BLACK
6
CONTINUOUS
10
6.85787
20
-2.90512
11
6.96496
21
-2.90512
0
LINE
8
BLACK
6
CONTINUOUS
10
6.96496
20
-2.90512
11
6.96663
21
-2.90581
0
LINE
8
BLACK
6
CONTINUOUS
10
6.23179
20
-3.3934
11
6.2311
21
-3.39173
0
LINE
8
BLACK
6
CONTINUOUS
10
6.2311
20
-3.39173
11
6.23179
21
-3.39006
0
LINE
8
BLACK
6
CONTINUOUS
10
6.23179
20
-3.39006
11
6.23346
21
-3.38937
0
LINE
8
BLACK
6
CONTINUOUS
10
6.23346
20
-3.38937
11
6.33819
21
-3.38937
0
LINE
8
BLACK
6
CONTINUOUS
10
6.33819
20
-3.38937
11
6.33819
21
-2.90984
0
LINE
8
BLACK
6
CONTINUOUS
10
6.33819
20
-2.90984
11
6.23346
21
-2.90984
0
LINE
8
BLACK
6
CONTINUOUS
10
6.23346
20
-2.90984
11
6.23179
21
-2.90915
0
LINE
8
BLACK
6
CONTINUOUS
10
6.23179
20
-2.90915
11
6.2311
21
-2.90748
0
LINE
8
BLACK
6
CONTINUOUS
10
6.2311
20
-2.90748
11
6.23179
21
-2.90581
0
LINE
8
BLACK
6
CONTINUOUS
10
6.23179
20
-2.90581
11
6.23346
21
-2.90512
0
LINE
8
BLACK
6
CONTINUOUS
10
6.23346
20
-2.90512
11
6.34055
21
-2.90512
0
LINE
8
BLACK
6
CONTINUOUS
10
6.34055
20
-2.90512
11
6.34222
21
-2.90581
0
LINE
8
BLACK
6
CONTINUOUS
10
6.34222
20
-2.90581
11
6.34291
21
-2.90748
0
LINE
8
BLACK
6
CONTINUOUS
10
6.34291
20
-2.90748
11
6.34291
21
-3.39173
0
LINE
8
BLACK
6
CONTINUOUS
10
6.34291
20
-3.39173
11
6.34222
21
-3.3934
0
LINE
8
BLACK
6
CONTINUOUS
10
6.34222
20
-3.3934
11
6.34055
21
-3.39409
0
LINE
8
BLACK
6
CONTINUOUS
10
6.34055
20
-3.39409
11
6.23346
21
-3.39409
0
LINE
8
BLACK
6
CONTINUOUS
10
6.23346
20
-3.39409
11
6.23179
21
-3.3934
0
LINE
8
BLACK
6
CONTINUOUS
10
5.23337
20
-3.3934
11
5.23268
21
-3.39173
0
LINE
8
BLACK
6
CONTINUOUS
10
5.23268
20
-3.39173
11
5.23337
21
-3.39006
0
LINE
8
BLACK
6
CONTINUOUS
10
5.23337
20
-3.39006
11
5.23504
21
-3.38937
0
LINE
8
BLACK
6
CONTINUOUS
10
5.23504
20
-3.38937
11
5.33976
21
-3.38937
0
LINE
8
BLACK
6
CONTINUOUS
10
5.33976
20
-3.38937
11
5.33976
21
-2.90984
0
LINE
8
BLACK
6
CONTINUOUS
10
5.33976
20
-2.90984
11
5.23504
21
-2.90984
0
LINE
8
BLACK
6
CONTINUOUS
10
5.23504
20
-2.90984
11
5.23337
21
-2.90915
0
LINE
8
BLACK
6
CONTINUOUS
10
5.23337
20
-2.90915
11
5.23268
21
-2.90748
0
LINE
8
BLACK
6
CONTINUOUS
10
5.23268
20
-2.90748
11
5.23337
21
-2.90581
0
LINE
8
BLACK
6
CONTINUOUS
10
5.23337
20
-2.90581
11
5.23504
21
-2.90512
0
LINE
8
BLACK
6
CONTINUOUS
10
5.23504
20
-2.90512
11
5.34213
21
-2.90512
0
LINE
8
BLACK
6
CONTINUOUS
10
5.34213
20
-2.90512
11
5.3438
21
-2.90581
0
LINE
8
BLACK
6
CONTINUOUS
10
5.3438
20
-2.90581
11
5.34449
21
-2.90748
0
LINE
8
BLACK
6
CONTINUOUS
10
5.34449
20
-2.90748
11
5.34449
21
-3.39173
0
LINE
8
BLACK
6
CONTINUOUS
10
5.34449
20
-3.39173
11
5.3438
21
-3.3934
0
LINE
8
BLACK
6
CONTINUOUS
10
5.3438
20
-3.3934
11
5.34213
21
-3.39409
0
LINE
8
BLACK
6
CONTINUOUS
10
5.34213
20
-3.39409
11
5.23504
21
-3.39409
0
LINE
8
BLACK
6
CONTINUOUS
10
5.23504
20
-3.39409
11
5.23337
21
-3.3934
0
LINE
8
BLACK
6
CONTINUOUS
10
4.96663
20
-2.90581
11
4.96732
21
-2.90748
0
LINE
8
BLACK
6
CONTINUOUS
10
4.96732
20
-2.90748
11
4.96663
21
-2.90915
0
LINE
8
BLACK
6
CONTINUOUS
10
4.96663
20
-2.90915
11
4.96496
21
-2.90984
0
LINE
8
BLACK
6
CONTINUOUS
10
4.96496
20
-2.90984
11
4.86024
21
-2.90984
0
LINE
8
BLACK
6
CONTINUOUS
10
4.86024
20
-2.90984
11
4.86024
21
-3.38937
0
LINE
8
BLACK
6
CONTINUOUS
10
4.86024
20
-3.38937
11
4.96496
21
-3.38937
0
LINE
8
BLACK
6
CONTINUOUS
10
4.96496
20
-3.38937
11
4.96663
21
-3.39006
0
LINE
8
BLACK
6
CONTINUOUS
10
4.96663
20
-3.39006
11
4.96732
21
-3.39173
0
LINE
8
BLACK
6
CONTINUOUS
10
4.96732
20
-3.39173
11
4.96663
21
-3.3934
0
LINE
8
BLACK
6
CONTINUOUS
10
4.96663
20
-3.3934
11
4.96496
21
-3.39409
0
LINE
8
BLACK
6
CONTINUOUS
10
4.96496
20
-3.39409
11
4.85787
21
-3.39409
0
LINE
8
BLACK
6
CONTINUOUS
10
4.85787
20
-3.39409
11
4.8562
21
-3.3934
0
LINE
8
BLACK
6
CONTINUOUS
10
4.8562
20
-3.3934
11
4.85551
21
-3.39173
0
LINE
8
BLACK
6
CONTINUOUS
10
4.85551
20
-3.39173
11
4.85551
21
-2.90748
0
LINE
8
BLACK
6
CONTINUOUS
10
4.85551
20
-2.90748
11
4.8562
21
-2.90581
0
LINE
8
BLACK
6
CONTINUOUS
10
4.8562
20
-2.90581
11
4.85787
21
-2.90512
0
LINE
8
BLACK
6
CONTINUOUS
10
4.85787
20
-2.90512
11
4.96496
21
-2.90512
0
LINE
8
BLACK
6
CONTINUOUS
10
4.96496
20
-2.90512
11
4.96663
21
-2.90581
0
LINE
8
BLACK
6
CONTINUOUS
10
5.16348
20
-3.39006
11
5.16417
21
-3.39173
0
LINE
8
BLACK
6
CONTINUOUS
10
5.16417
20
-3.39173
11
5.16348
21
-3.3934
0
LINE
8
BLACK
6
CONTINUOUS
10
5.16348
20
-3.3934
11
5.16181
21
-3.39409
0
LINE
8
BLACK
6
CONTINUOUS
10
5.16181
20
-3.39409
11
5.03819
21
-3.39409
0
LINE
8
BLACK
6
CONTINUOUS
10
5.03819
20
-3.39409
11
5.03652
21
-3.3934
0
LINE
8
BLACK
6
CONTINUOUS
10
5.03652
20
-3.3934
11
5.03583
21
-3.39173
0
LINE
8
BLACK
6
CONTINUOUS
10
5.03583
20
-3.39173
11
5.03652
21
-3.39006
0
LINE
8
BLACK
6
CONTINUOUS
10
5.03652
20
-3.39006
11
5.03819
21
-3.38937
0
LINE
8
BLACK
6
CONTINUOUS
10
5.03819
20
-3.38937
11
5.16181
21
-3.38937
0
LINE
8
BLACK
6
CONTINUOUS
10
5.16181
20
-3.38937
11
5.16348
21
-3.39006
0
LINE
8
BLACK
6
CONTINUOUS
10
5.96506
20
-2.90581
11
5.96575
21
-2.90748
0
LINE
8
BLACK
6
CONTINUOUS
10
5.96575
20
-2.90748
11
5.96506
21
-2.90915
0
LINE
8
BLACK
6
CONTINUOUS
10
5.96506
20
-2.90915
11
5.96339
21
-2.90984
0
LINE
8
BLACK
6
CONTINUOUS
10
5.96339
20
-2.90984
11
5.85866
21
-2.90984
0
LINE
8
BLACK
6
CONTINUOUS
10
5.85866
20
-2.90984
11
5.85866
21
-3.38937
0
LINE
8
BLACK
6
CONTINUOUS
10
5.85866
20
-3.38937
11
5.96339
21
-3.38937
0
LINE
8
BLACK
6
CONTINUOUS
10
5.96339
20
-3.38937
11
5.96506
21
-3.39006
0
LINE
8
BLACK
6
CONTINUOUS
10
5.96506
20
-3.39006
11
5.96575
21
-3.39173
0
LINE
8
BLACK
6
CONTINUOUS
10
5.96575
20
-3.39173
11
5.96506
21
-3.3934
0
LINE
8
BLACK
6
CONTINUOUS
10
5.96506
20
-3.3934
11
5.96339
21
-3.39409
0
LINE
8
BLACK
6
CONTINUOUS
10
5.96339
20
-3.39409
11
5.8563
21
-3.39409
0
LINE
8
BLACK
6
CONTINUOUS
10
5.8563
20
-3.39409
11
5.85463
21
-3.3934
0
LINE
8
BLACK
6
CONTINUOUS
10
5.85463
20
-3.3934
11
5.85394
21
-3.39173
0
LINE
8
BLACK
6
CONTINUOUS
10
5.85394
20
-3.39173
11
5.85394
21
-2.90748
0
LINE
8
BLACK
6
CONTINUOUS
10
5.85394
20
-2.90748
11
5.85463
21
-2.90581
0
LINE
8
BLACK
6
CONTINUOUS
10
5.85463
20
-2.90581
11
5.8563
21
-2.90512
0
LINE
8
BLACK
6
CONTINUOUS
10
5.8563
20
-2.90512
11
5.96339
21
-2.90512
0
LINE
8
BLACK
6
CONTINUOUS
10
5.96339
20
-2.90512
11
5.96506
21
-2.90581
0
LINE
8
BLACK
6
CONTINUOUS
10
7.16348
20
-3.39006
11
7.16417
21
-3.39173
0
LINE
8
BLACK
6
CONTINUOUS
10
7.16417
20
-3.39173
11
7.16348
21
-3.3934
0
LINE
8
BLACK
6
CONTINUOUS
10
7.16348
20
-3.3934
11
7.16181
21
-3.39409
0
LINE
8
BLACK
6
CONTINUOUS
10
7.16181
20
-3.39409
11
7.03819
21
-3.39409
0
LINE
8
BLACK
6
CONTINUOUS
10
7.03819
20
-3.39409
11
7.03652
21
-3.3934
0
LINE
8
BLACK
6
CONTINUOUS
10
7.03652
20
-3.3934
11
7.03583
21
-3.39173
0
LINE
8
BLACK
6
CONTINUOUS
10
7.03583
20
-3.39173
11
7.03652
21
-3.39006
0
LINE
8
BLACK
6
CONTINUOUS
10
7.03652
20
-3.39006
11
7.03819
21
-3.38937
0
LINE
8
BLACK
6
CONTINUOUS
10
7.03819
20
-3.38937
11
7.16181
21
-3.38937
0
LINE
8
BLACK
6
CONTINUOUS
10
7.16181
20
-3.38937
11
7.16348
21
-3.39006
0
LINE
8
BLACK
6
CONTINUOUS
10
7.23337
20
-3.3934
11
7.23268
21
-3.39173
0
LINE
8
BLACK
6
CONTINUOUS
10
7.23268
20
-3.39173
11
7.23337
21
-3.39006
0
LINE
8
BLACK
6
CONTINUOUS
10
7.23337
20
-3.39006
11
7.23504
21
-3.38937
0
LINE
8
BLACK
6
CONTINUOUS
10
7.23504
20
-3.38937
11
7.33976
21
-3.38937
0
LINE
8
BLACK
6
CONTINUOUS
10
7.33976
20
-3.38937
11
7.33976
21
-2.90984
0
LINE
8
BLACK
6
CONTINUOUS
10
7.33976
20
-2.90984
11
7.23504
21
-2.90984
0
LINE
8
BLACK
6
CONTINUOUS
10
7.23504
20
-2.90984
11
7.23337
21
-2.90915
0
LINE
8
BLACK
6
CONTINUOUS
10
7.23337
20
-2.90915
11
7.23268
21
-2.90748
0
LINE
8
BLACK
6
CONTINUOUS
10
7.23268
20
-2.90748
11
7.23337
21
-2.90581
0
LINE
8
BLACK
6
CONTINUOUS
10
7.23337
20
-2.90581
11
7.23504
21
-2.90512
0
LINE
8
BLACK
6
CONTINUOUS
10
7.23504
20
-2.90512
11
7.34213
21
-2.90512
0
LINE
8
BLACK
6
CONTINUOUS
10
7.34213
20
-2.90512
11
7.3438
21
-2.90581
0
LINE
8
BLACK
6
CONTINUOUS
10
7.3438
20
-2.90581
11
7.34449
21
-2.90748
0
LINE
8
BLACK
6
CONTINUOUS
10
7.34449
20
-2.90748
11
7.34449
21
-3.39173
0
LINE
8
BLACK
6
CONTINUOUS
10
7.34449
20
-3.39173
11
7.3438
21
-3.3934
0
LINE
8
BLACK
6
CONTINUOUS
10
7.3438
20
-3.3934
11
7.34213
21
-3.39409
0
LINE
8
BLACK
6
CONTINUOUS
10
7.34213
20
-3.39409
11
7.23504
21
-3.39409
0
LINE
8
BLACK
6
CONTINUOUS
10
7.23504
20
-3.39409
11
7.23337
21
-3.3934
0
LINE
8
BLACK
6
CONTINUOUS
10
6.16191
20
-3.39006
11
6.1626
21
-3.39173
0
LINE
8
BLACK
6
CONTINUOUS
10
6.1626
20
-3.39173
11
6.16191
21
-3.3934
0
LINE
8
BLACK
6
CONTINUOUS
10
6.16191
20
-3.3934
11
6.16024
21
-3.39409
0
LINE
8
BLACK
6
CONTINUOUS
10
6.16024
20
-3.39409
11
6.03661
21
-3.39409
0
LINE
8
BLACK
6
CONTINUOUS
10
6.03661
20
-3.39409
11
6.03494
21
-3.3934
0
LINE
8
BLACK
6
CONTINUOUS
10
6.03494
20
-3.3934
11
6.03425
21
-3.39173
0
LINE
8
BLACK
6
CONTINUOUS
10
6.03425
20
-3.39173
11
6.03494
21
-3.39006
0
LINE
8
BLACK
6
CONTINUOUS
10
6.03494
20
-3.39006
11
6.03661
21
-3.38937
0
LINE
8
BLACK
6
CONTINUOUS
10
6.03661
20
-3.38937
11
6.16024
21
-3.38937
0
LINE
8
BLACK
6
CONTINUOUS
10
6.16024
20
-3.38937
11
6.16191
21
-3.39006
0
LINE
8
BLACK
6
CONTINUOUS
10
7.57538
20
-3.31031
11
7.57552
21
-3.31042
0
LINE
8
BLACK
6
CONTINUOUS
10
7.57552
20
-3.31042
11
7.57569
21
-3.31044
0
LINE
8
BLACK
6
CONTINUOUS
10
7.57569
20
-3.31044
11
7.57944
21
-3.31232
0
LINE
8
BLACK
6
CONTINUOUS
10
7.57944
20
-3.31232
11
7.58015
21
-3.31285
0
LINE
8
BLACK
6
CONTINUOUS
10
7.58015
20
-3.31285
11
7.58021
21
-3.31287
0
LINE
8
BLACK
6
CONTINUOUS
10
7.58021
20
-3.31287
11
7.58208
21
-3.31475
0
LINE
8
BLACK
6
CONTINUOUS
10
7.58208
20
-3.31475
11
7.58259
21
-3.31547
0
LINE
8
BLACK
6
CONTINUOUS
10
7.58259
20
-3.31547
11
7.58264
21
-3.31551
0
LINE
8
BLACK
6
CONTINUOUS
10
7.58264
20
-3.31551
11
7.58451
21
-3.31926
0
LINE
8
BLACK
6
CONTINUOUS
10
7.58451
20
-3.31926
11
7.5848
21
-3.32025
0
LINE
8
BLACK
6
CONTINUOUS
10
7.5848
20
-3.32025
11
7.58476
21
-3.32042
0
LINE
8
BLACK
6
CONTINUOUS
10
7.58476
20
-3.32042
11
7.58482
21
-3.32058
0
LINE
8
BLACK
6
CONTINUOUS
10
7.58482
20
-3.32058
11
7.58482
21
-3.32433
0
LINE
8
BLACK
6
CONTINUOUS
10
7.58482
20
-3.32433
11
7.58467
21
-3.3252
0
LINE
8
BLACK
6
CONTINUOUS
10
7.58467
20
-3.3252
11
7.58467
21
-3.32527
0
LINE
8
BLACK
6
CONTINUOUS
10
7.58467
20
-3.32527
11
7.5828
21
-3.33089
0
LINE
8
BLACK
6
CONTINUOUS
10
7.5828
20
-3.33089
11
7.58231
21
-3.33179
0
LINE
8
BLACK
6
CONTINUOUS
10
7.58231
20
-3.33179
11
7.58216
21
-3.33189
0
LINE
8
BLACK
6
CONTINUOUS
10
7.58216
20
-3.33189
11
7.58208
21
-3.33205
0
LINE
8
BLACK
6
CONTINUOUS
10
7.58208
20
-3.33205
11
7.56463
21
-3.3495
0
LINE
8
BLACK
6
CONTINUOUS
10
7.56463
20
-3.3495
11
7.58187
21
-3.3495
0
LINE
8
BLACK
6
CONTINUOUS
10
7.58187
20
-3.3495
11
7.58288
21
-3.34968
0
LINE
8
BLACK
6
CONTINUOUS
10
7.58288
20
-3.34968
11
7.58443
21
-3.35098
0
LINE
8
BLACK
6
CONTINUOUS
10
7.58443
20
-3.35098
11
7.58478
21
-3.35297
0
LINE
8
BLACK
6
CONTINUOUS
10
7.58478
20
-3.35297
11
7.58377
21
-3.35472
0
LINE
8
BLACK
6
CONTINUOUS
10
7.58377
20
-3.35472
11
7.58187
21
-3.35541
0
LINE
8
BLACK
6
CONTINUOUS
10
7.58187
20
-3.35541
11
7.5575
21
-3.35541
0
LINE
8
BLACK
6
CONTINUOUS
10
7.5575
20
-3.35541
11
7.55686
21
-3.3553
0
LINE
8
BLACK
6
CONTINUOUS
10
7.55686
20
-3.3553
11
7.55673
21
-3.35531
0
LINE
8
BLACK
6
CONTINUOUS
10
7.55673
20
-3.35531
11
7.55667
21
-3.35526
0
LINE
8
BLACK
6
CONTINUOUS
10
7.55667
20
-3.35526
11
7.55649
21
-3.35523
0
LINE
8
BLACK
6
CONTINUOUS
10
7.55649
20
-3.35523
11
7.55581
21
-3.35466
0
LINE
8
BLACK
6
CONTINUOUS
10
7.55581
20
-3.35466
11
7.55508
21
-3.35415
0
LINE
8
BLACK
6
CONTINUOUS
10
7.55508
20
-3.35415
11
7.55505
21
-3.35402
0
LINE
8
BLACK
6
CONTINUOUS
10
7.55505
20
-3.35402
11
7.55494
21
-3.35393
0
LINE
8
BLACK
6
CONTINUOUS
10
7.55494
20
-3.35393
11
7.55479
21
-3.35306
0
LINE
8
BLACK
6
CONTINUOUS
10
7.55479
20
-3.35306
11
7.55456
21
-3.3522
0
LINE
8
BLACK
6
CONTINUOUS
10
7.55456
20
-3.3522
11
7.55461
21
-3.35208
0
LINE
8
BLACK
6
CONTINUOUS
10
7.55461
20
-3.35208
11
7.55459
21
-3.35194
0
LINE
8
BLACK
6
CONTINUOUS
10
7.55459
20
-3.35194
11
7.55504
21
-3.35117
0
LINE
8
BLACK
6
CONTINUOUS
10
7.55504
20
-3.35117
11
7.55541
21
-3.35037
0
LINE
8
BLACK
6
CONTINUOUS
10
7.55541
20
-3.35037
11
7.57742
21
-3.32836
0
LINE
8
BLACK
6
CONTINUOUS
10
7.57742
20
-3.32836
11
7.57892
21
-3.32386
0
LINE
8
BLACK
6
CONTINUOUS
10
7.57892
20
-3.32386
11
7.57892
21
-3.32128
0
LINE
8
BLACK
6
CONTINUOUS
10
7.57892
20
-3.32128
11
7.57757
21
-3.31858
0
LINE
8
BLACK
6
CONTINUOUS
10
7.57757
20
-3.31858
11
7.57637
21
-3.31739
0
LINE
8
BLACK
6
CONTINUOUS
10
7.57637
20
-3.31739
11
7.57367
21
-3.31604
0
LINE
8
BLACK
6
CONTINUOUS
10
7.57367
20
-3.31604
11
7.5657
21
-3.31604
0
LINE
8
BLACK
6
CONTINUOUS
10
7.5657
20
-3.31604
11
7.563
21
-3.31739
0
LINE
8
BLACK
6
CONTINUOUS
10
7.563
20
-3.31739
11
7.56146
21
-3.31892
0
LINE
8
BLACK
6
CONTINUOUS
10
7.56146
20
-3.31892
11
7.56062
21
-3.31951
0
LINE
8
BLACK
6
CONTINUOUS
10
7.56062
20
-3.31951
11
7.55861
21
-3.31969
0
LINE
8
BLACK
6
CONTINUOUS
10
7.55861
20
-3.31969
11
7.55696
21
-3.31853
0
LINE
8
BLACK
6
CONTINUOUS
10
7.55696
20
-3.31853
11
7.55643
21
-3.31658
0
LINE
8
BLACK
6
CONTINUOUS
10
7.55643
20
-3.31658
11
7.55729
21
-3.31475
0
LINE
8
BLACK
6
CONTINUOUS
10
7.55729
20
-3.31475
11
7.55916
21
-3.31287
0
LINE
8
BLACK
6
CONTINUOUS
10
7.55916
20
-3.31287
11
7.55988
21
-3.31237
0
LINE
8
BLACK
6
CONTINUOUS
10
7.55988
20
-3.31237
11
7.55993
21
-3.31232
0
LINE
8
BLACK
6
CONTINUOUS
10
7.55993
20
-3.31232
11
7.56368
21
-3.31044
0
LINE
8
BLACK
6
CONTINUOUS
10
7.56368
20
-3.31044
11
7.56466
21
-3.31015
0
LINE
8
BLACK
6
CONTINUOUS
10
7.56466
20
-3.31015
11
7.56483
21
-3.31019
0
LINE
8
BLACK
6
CONTINUOUS
10
7.56483
20
-3.31019
11
7.565
21
-3.31013
0
LINE
8
BLACK
6
CONTINUOUS
10
7.565
20
-3.31013
11
7.57437
21
-3.31013
0
LINE
8
BLACK
6
CONTINUOUS
10
7.57437
20
-3.31013
11
7.57538
21
-3.31031
0
LINE
8
BLACK
6
CONTINUOUS
10
5.59476
20
-3.31119
11
5.59545
21
-3.31309
0
LINE
8
BLACK
6
CONTINUOUS
10
5.59545
20
-3.31309
11
5.59545
21
-3.35246
0
LINE
8
BLACK
6
CONTINUOUS
10
5.59545
20
-3.35246
11
5.59528
21
-3.35347
0
LINE
8
BLACK
6
CONTINUOUS
10
5.59528
20
-3.35347
11
5.59398
21
-3.35501
0
LINE
8
BLACK
6
CONTINUOUS
10
5.59398
20
-3.35501
11
5.59199
21
-3.35536
0
LINE
8
BLACK
6
CONTINUOUS
10
5.59199
20
-3.35536
11
5.59024
21
-3.35435
0
LINE
8
BLACK
6
CONTINUOUS
10
5.59024
20
-3.35435
11
5.58955
21
-3.35246
0
LINE
8
BLACK
6
CONTINUOUS
10
5.58955
20
-3.35246
11
5.58955
21
-3.33479
0
LINE
8
BLACK
6
CONTINUOUS
10
5.58955
20
-3.33479
11
5.57296
21
-3.33479
0
LINE
8
BLACK
6
CONTINUOUS
10
5.57296
20
-3.33479
11
5.57296
21
-3.35246
0
LINE
8
BLACK
6
CONTINUOUS
10
5.57296
20
-3.35246
11
5.57278
21
-3.35347
0
LINE
8
BLACK
6
CONTINUOUS
10
5.57278
20
-3.35347
11
5.57148
21
-3.35501
0
LINE
8
BLACK
6
CONTINUOUS
10
5.57148
20
-3.35501
11
5.56949
21
-3.35536
0
LINE
8
BLACK
6
CONTINUOUS
10
5.56949
20
-3.35536
11
5.56774
21
-3.35435
0
LINE
8
BLACK
6
CONTINUOUS
10
5.56774
20
-3.35435
11
5.56705
21
-3.35246
0
LINE
8
BLACK
6
CONTINUOUS
10
5.56705
20
-3.35246
11
5.56705
21
-3.31309
0
LINE
8
BLACK
6
CONTINUOUS
10
5.56705
20
-3.31309
11
5.56723
21
-3.31208
0
LINE
8
BLACK
6
CONTINUOUS
10
5.56723
20
-3.31208
11
5.56853
21
-3.31053
0
LINE
8
BLACK
6
CONTINUOUS
10
5.56853
20
-3.31053
11
5.57052
21
-3.31018
0
LINE
8
BLACK
6
CONTINUOUS
10
5.57052
20
-3.31018
11
5.57227
21
-3.31119
0
LINE
8
BLACK
6
CONTINUOUS
10
5.57227
20
-3.31119
11
5.57296
21
-3.31309
0
LINE
8
BLACK
6
CONTINUOUS
10
5.57296
20
-3.31309
11
5.57296
21
-3.32888
0
LINE
8
BLACK
6
CONTINUOUS
10
5.57296
20
-3.32888
11
5.58955
21
-3.32888
0
LINE
8
BLACK
6
CONTINUOUS
10
5.58955
20
-3.32888
11
5.58955
21
-3.31309
0
LINE
8
BLACK
6
CONTINUOUS
10
5.58955
20
-3.31309
11
5.58973
21
-3.31208
0
LINE
8
BLACK
6
CONTINUOUS
10
5.58973
20
-3.31208
11
5.59102
21
-3.31053
0
LINE
8
BLACK
6
CONTINUOUS
10
5.59102
20
-3.31053
11
5.59301
21
-3.31018
0
LINE
8
BLACK
6
CONTINUOUS
10
5.59301
20
-3.31018
11
5.59476
21
-3.31119
0
LINE
8
BLACK
6
CONTINUOUS
10
5.62015
20
-3.30861
11
5.62149
21
-3.31013
0
LINE
8
BLACK
6
CONTINUOUS
10
5.62149
20
-3.31013
11
5.62155
21
-3.31214
0
LINE
8
BLACK
6
CONTINUOUS
10
5.62155
20
-3.31214
11
5.61347
21
-3.33638
0
LINE
8
BLACK
6
CONTINUOUS
10
5.61347
20
-3.33638
11
5.62517
21
-3.33638
0
LINE
8
BLACK
6
CONTINUOUS
10
5.62517
20
-3.33638
11
5.62517
21
-3.32621
0
LINE
8
BLACK
6
CONTINUOUS
10
5.62517
20
-3.32621
11
5.62535
21
-3.3252
0
LINE
8
BLACK
6
CONTINUOUS
10
5.62535
20
-3.3252
11
5.62665
21
-3.32365
0
LINE
8
BLACK
6
CONTINUOUS
10
5.62665
20
-3.32365
11
5.62863
21
-3.3233
0
LINE
8
BLACK
6
CONTINUOUS
10
5.62863
20
-3.3233
11
5.63038
21
-3.32431
0
LINE
8
BLACK
6
CONTINUOUS
10
5.63038
20
-3.32431
11
5.63107
21
-3.32621
0
LINE
8
BLACK
6
CONTINUOUS
10
5.63107
20
-3.32621
11
5.63107
21
-3.33638
0
LINE
8
BLACK
6
CONTINUOUS
10
5.63107
20
-3.33638
11
5.63375
21
-3.33638
0
LINE
8
BLACK
6
CONTINUOUS
10
5.63375
20
-3.33638
11
5.63476
21
-3.33656
0
LINE
8
BLACK
6
CONTINUOUS
10
5.63476
20
-3.33656
11
5.6363
21
-3.33786
0
LINE
8
BLACK
6
CONTINUOUS
10
5.6363
20
-3.33786
11
5.63665
21
-3.33985
0
LINE
8
BLACK
6
CONTINUOUS
10
5.63665
20
-3.33985
11
5.63564
21
-3.34159
0
LINE
8
BLACK
6
CONTINUOUS
10
5.63564
20
-3.34159
11
5.63375
21
-3.34229
0
LINE
8
BLACK
6
CONTINUOUS
10
5.63375
20
-3.34229
11
5.63107
21
-3.34229
0
LINE
8
BLACK
6
CONTINUOUS
10
5.63107
20
-3.34229
11
5.63107
21
-3.35246
0
LINE
8
BLACK
6
CONTINUOUS
10
5.63107
20
-3.35246
11
5.6309
21
-3.35347
0
LINE
8
BLACK
6
CONTINUOUS
10
5.6309
20
-3.35347
11
5.6296
21
-3.35501
0
LINE
8
BLACK
6
CONTINUOUS
10
5.6296
20
-3.35501
11
5.62761
21
-3.35536
0
LINE
8
BLACK
6
CONTINUOUS
10
5.62761
20
-3.35536
11
5.62586
21
-3.35435
0
LINE
8
BLACK
6
CONTINUOUS
10
5.62586
20
-3.35435
11
5.62517
21
-3.35246
0
LINE
8
BLACK
6
CONTINUOUS
10
5.62517
20
-3.35246
11
5.62517
21
-3.34229
0
LINE
8
BLACK
6
CONTINUOUS
10
5.62517
20
-3.34229
11
5.60937
21
-3.34229
0
LINE
8
BLACK
6
CONTINUOUS
10
5.60937
20
-3.34229
11
5.60836
21
-3.34211
0
LINE
8
BLACK
6
CONTINUOUS
10
5.60836
20
-3.34211
11
5.60819
21
-3.34196
0
LINE
8
BLACK
6
CONTINUOUS
10
5.60819
20
-3.34196
11
5.60797
21
-3.34193
0
LINE
8
BLACK
6
CONTINUOUS
10
5.60797
20
-3.34193
11
5.60743
21
-3.34133
0
LINE
8
BLACK
6
CONTINUOUS
10
5.60743
20
-3.34133
11
5.60682
21
-3.34081
0
LINE
8
BLACK
6
CONTINUOUS
10
5.60682
20
-3.34081
11
5.60678
21
-3.34059
0
LINE
8
BLACK
6
CONTINUOUS
10
5.60678
20
-3.34059
11
5.60663
21
-3.34042
0
LINE
8
BLACK
6
CONTINUOUS
10
5.60663
20
-3.34042
11
5.60661
21
-3.33961
0
LINE
8
BLACK
6
CONTINUOUS
10
5.60661
20
-3.33961
11
5.60647
21
-3.33882
0
LINE
8
BLACK
6
CONTINUOUS
10
5.60647
20
-3.33882
11
5.60658
21
-3.33862
0
LINE
8
BLACK
6
CONTINUOUS
10
5.60658
20
-3.33862
11
5.60657
21
-3.3384
0
LINE
8
BLACK
6
CONTINUOUS
10
5.60657
20
-3.3384
11
5.61595
21
-3.31028
0
LINE
8
BLACK
6
CONTINUOUS
10
5.61595
20
-3.31028
11
5.61643
21
-3.30938
0
LINE
8
BLACK
6
CONTINUOUS
10
5.61643
20
-3.30938
11
5.61816
21
-3.30832
0
LINE
8
BLACK
6
CONTINUOUS
10
5.61816
20
-3.30832
11
5.62015
21
-3.30861
0
LINE
8
BLACK
6
CONTINUOUS
10
7.54476
20
-3.31119
11
7.54545
21
-3.31309
0
LINE
8
BLACK
6
CONTINUOUS
10
7.54545
20
-3.31309
11
7.54545
21
-3.35246
0
LINE
8
BLACK
6
CONTINUOUS
10
7.54545
20
-3.35246
11
7.54528
21
-3.35347
0
LINE
8
BLACK
6
CONTINUOUS
10
7.54528
20
-3.35347
11
7.54398
21
-3.35501
0
LINE
8
BLACK
6
CONTINUOUS
10
7.54398
20
-3.35501
11
7.54199
21
-3.35536
0
LINE
8
BLACK
6
CONTINUOUS
10
7.54199
20
-3.35536
11
7.54024
21
-3.35435
0
LINE
8
BLACK
6
CONTINUOUS
10
7.54024
20
-3.35435
11
7.53955
21
-3.35246
0
LINE
8
BLACK
6
CONTINUOUS
10
7.53955
20
-3.35246
11
7.53955
21
-3.33479
0
LINE
8
BLACK
6
CONTINUOUS
10
7.53955
20
-3.33479
11
7.52296
21
-3.33479
0
LINE
8
BLACK
6
CONTINUOUS
10
7.52296
20
-3.33479
11
7.52296
21
-3.35246
0
LINE
8
BLACK
6
CONTINUOUS
10
7.52296
20
-3.35246
11
7.52278
21
-3.35347
0
LINE
8
BLACK
6
CONTINUOUS
10
7.52278
20
-3.35347
11
7.52148
21
-3.35501
0
LINE
8
BLACK
6
CONTINUOUS
10
7.52148
20
-3.35501
11
7.51949
21
-3.35536
0
LINE
8
BLACK
6
CONTINUOUS
10
7.51949
20
-3.35536
11
7.51774
21
-3.35435
0
LINE
8
BLACK
6
CONTINUOUS
10
7.51774
20
-3.35435
11
7.51705
21
-3.35246
0
LINE
8
BLACK
6
CONTINUOUS
10
7.51705
20
-3.35246
11
7.51705
21
-3.31309
0
LINE
8
BLACK
6
CONTINUOUS
10
7.51705
20
-3.31309
11
7.51723
21
-3.31208
0
LINE
8
BLACK
6
CONTINUOUS
10
7.51723
20
-3.31208
11
7.51853
21
-3.31053
0
LINE
8
BLACK
6
CONTINUOUS
10
7.51853
20
-3.31053
11
7.52052
21
-3.31018
0
LINE
8
BLACK
6
CONTINUOUS
10
7.52052
20
-3.31018
11
7.52227
21
-3.31119
0
LINE
8
BLACK
6
CONTINUOUS
10
7.52227
20
-3.31119
11
7.52296
21
-3.31309
0
LINE
8
BLACK
6
CONTINUOUS
10
7.52296
20
-3.31309
11
7.52296
21
-3.32888
0
LINE
8
BLACK
6
CONTINUOUS
10
7.52296
20
-3.32888
11
7.53955
21
-3.32888
0
LINE
8
BLACK
6
CONTINUOUS
10
7.53955
20
-3.32888
11
7.53955
21
-3.31309
0
LINE
8
BLACK
6
CONTINUOUS
10
7.53955
20
-3.31309
11
7.53973
21
-3.31208
0
LINE
8
BLACK
6
CONTINUOUS
10
7.53973
20
-3.31208
11
7.54102
21
-3.31053
0
LINE
8
BLACK
6
CONTINUOUS
10
7.54102
20
-3.31053
11
7.54301
21
-3.31018
0
LINE
8
BLACK
6
CONTINUOUS
10
7.54301
20
-3.31018
11
7.54476
21
-3.31119
0
LINE
8
BLACK
6
CONTINUOUS
10
6.16191
20
-2.90581
11
6.1626
21
-2.90748
0
LINE
8
BLACK
6
CONTINUOUS
10
6.1626
20
-2.90748
11
6.16191
21
-2.90915
0
LINE
8
BLACK
6
CONTINUOUS
10
6.16191
20
-2.90915
11
6.16024
21
-2.90984
0
LINE
8
BLACK
6
CONTINUOUS
10
6.16024
20
-2.90984
11
6.03661
21
-2.90984
0
LINE
8
BLACK
6
CONTINUOUS
10
6.03661
20
-2.90984
11
6.03494
21
-2.90915
0
LINE
8
BLACK
6
CONTINUOUS
10
6.03494
20
-2.90915
11
6.03425
21
-2.90748
0
LINE
8
BLACK
6
CONTINUOUS
10
6.03425
20
-2.90748
11
6.03494
21
-2.90581
0
LINE
8
BLACK
6
CONTINUOUS
10
6.03494
20
-2.90581
11
6.03661
21
-2.90512
0
LINE
8
BLACK
6
CONTINUOUS
10
6.03661
20
-2.90512
11
6.16024
21
-2.90512
0
LINE
8
BLACK
6
CONTINUOUS
10
6.16024
20
-2.90512
11
6.16191
21
-2.90581
0
LINE
8
BLACK
6
CONTINUOUS
10
5.16348
20
-2.90581
11
5.16417
21
-2.90748
0
LINE
8
BLACK
6
CONTINUOUS
10
5.16417
20
-2.90748
11
5.16348
21
-2.90915
0
LINE
8
BLACK
6
CONTINUOUS
10
5.16348
20
-2.90915
11
5.16181
21
-2.90984
0
LINE
8
BLACK
6
CONTINUOUS
10
5.16181
20
-2.90984
11
5.03819
21
-2.90984
0
LINE
8
BLACK
6
CONTINUOUS
10
5.03819
20
-2.90984
11
5.03652
21
-2.90915
0
LINE
8
BLACK
6
CONTINUOUS
10
5.03652
20
-2.90915
11
5.03583
21
-2.90748
0
LINE
8
BLACK
6
CONTINUOUS
10
5.03583
20
-2.90748
11
5.03652
21
-2.90581
0
LINE
8
BLACK
6
CONTINUOUS
10
5.03652
20
-2.90581
11
5.03819
21
-2.90512
0
LINE
8
BLACK
6
CONTINUOUS
10
5.03819
20
-2.90512
11
5.16181
21
-2.90512
0
LINE
8
BLACK
6
CONTINUOUS
10
5.16181
20
-2.90512
11
5.16348
21
-2.90581
0
LINE
8
BLACK
6
CONTINUOUS
10
7.16348
20
-2.90581
11
7.16417
21
-2.90748
0
LINE
8
BLACK
6
CONTINUOUS
10
7.16417
20
-2.90748
11
7.16348
21
-2.90915
0
LINE
8
BLACK
6
CONTINUOUS
10
7.16348
20
-2.90915
11
7.16181
21
-2.90984
0
LINE
8
BLACK
6
CONTINUOUS
10
7.16181
20
-2.90984
11
7.03819
21
-2.90984
0
LINE
8
BLACK
6
CONTINUOUS
10
7.03819
20
-2.90984
11
7.03652
21
-2.90915
0
LINE
8
BLACK
6
CONTINUOUS
10
7.03652
20
-2.90915
11
7.03583
21
-2.90748
0
LINE
8
BLACK
6
CONTINUOUS
10
7.03583
20
-2.90748
11
7.03652
21
-2.90581
0
LINE
8
BLACK
6
CONTINUOUS
10
7.03652
20
-2.90581
11
7.03819
21
-2.90512
0
LINE
8
BLACK
6
CONTINUOUS
10
7.03819
20
-2.90512
11
7.16181
21
-2.90512
0
LINE
8
BLACK
6
CONTINUOUS
10
7.16181
20
-2.90512
11
7.16348
21
-2.90581
0
LINE
8
BLACK
6
CONTINUOUS
10
5.25525
20
-2.77564
11
5.25531
21
-2.77564
0
LINE
8
BLACK
6
CONTINUOUS
10
5.25531
20
-2.77564
11
5.26094
21
-2.77751
0
LINE
8
BLACK
6
CONTINUOUS
10
5.26094
20
-2.77751
11
5.26184
21
-2.778
0
LINE
8
BLACK
6
CONTINUOUS
10
5.26184
20
-2.778
11
5.2629
21
-2.77972
0
LINE
8
BLACK
6
CONTINUOUS
10
5.2629
20
-2.77972
11
5.2626
21
-2.78172
0
LINE
8
BLACK
6
CONTINUOUS
10
5.2626
20
-2.78172
11
5.26109
21
-2.78306
0
LINE
8
BLACK
6
CONTINUOUS
10
5.26109
20
-2.78306
11
5.25907
21
-2.78312
0
LINE
8
BLACK
6
CONTINUOUS
10
5.25907
20
-2.78312
11
5.2539
21
-2.78139
0
LINE
8
BLACK
6
CONTINUOUS
10
5.2539
20
-2.78139
11
5.2457
21
-2.78139
0
LINE
8
BLACK
6
CONTINUOUS
10
5.2457
20
-2.78139
11
5.24301
21
-2.78274
0
LINE
8
BLACK
6
CONTINUOUS
10
5.24301
20
-2.78274
11
5.24181
21
-2.78394
0
LINE
8
BLACK
6
CONTINUOUS
10
5.24181
20
-2.78394
11
5.24046
21
-2.78664
0
LINE
8
BLACK
6
CONTINUOUS
10
5.24046
20
-2.78664
11
5.24046
21
-2.78899
0
LINE
8
BLACK
6
CONTINUOUS
10
5.24046
20
-2.78899
11
5.24181
21
-2.79169
0
LINE
8
BLACK
6
CONTINUOUS
10
5.24181
20
-2.79169
11
5.24301
21
-2.79289
0
LINE
8
BLACK
6
CONTINUOUS
10
5.24301
20
-2.79289
11
5.24604
21
-2.7944
0
LINE
8
BLACK
6
CONTINUOUS
10
5.24604
20
-2.7944
11
5.25322
21
-2.7962
0
LINE
8
BLACK
6
CONTINUOUS
10
5.25322
20
-2.7962
11
5.25369
21
-2.79641
0
LINE
8
BLACK
6
CONTINUOUS
10
5.25369
20
-2.79641
11
5.25383
21
-2.79642
0
LINE
8
BLACK
6
CONTINUOUS
10
5.25383
20
-2.79642
11
5.25757
21
-2.7983
0
LINE
8
BLACK
6
CONTINUOUS
10
5.25757
20
-2.7983
11
5.25828
21
-2.79882
0
LINE
8
BLACK
6
CONTINUOUS
10
5.25828
20
-2.79882
11
5.25834
21
-2.79885
0
LINE
8
BLACK
6
CONTINUOUS
10
5.25834
20
-2.79885
11
5.26022
21
-2.80072
0
LINE
8
BLACK
6
CONTINUOUS
10
5.26022
20
-2.80072
11
5.26072
21
-2.80145
0
LINE
8
BLACK
6
CONTINUOUS
10
5.26072
20
-2.80145
11
5.26077
21
-2.80149
0
LINE
8
BLACK
6
CONTINUOUS
10
5.26077
20
-2.80149
11
5.26264
21
-2.80524
0
LINE
8
BLACK
6
CONTINUOUS
10
5.26264
20
-2.80524
11
5.26294
21
-2.80622
0
LINE
8
BLACK
6
CONTINUOUS
10
5.26294
20
-2.80622
11
5.2629
21
-2.8064
0
LINE
8
BLACK
6
CONTINUOUS
10
5.2629
20
-2.8064
11
5.26296
21
-2.80656
0
LINE
8
BLACK
6
CONTINUOUS
10
5.26296
20
-2.80656
11
5.26296
21
-2.81031
0
LINE
8
BLACK
6
CONTINUOUS
10
5.26296
20
-2.81031
11
5.26278
21
-2.81132
0
LINE
8
BLACK
6
CONTINUOUS
10
5.26278
20
-2.81132
11
5.26266
21
-2.81146
0
LINE
8
BLACK
6
CONTINUOUS
10
5.26266
20
-2.81146
11
5.26264
21
-2.81163
0
LINE
8
BLACK
6
CONTINUOUS
10
5.26264
20
-2.81163
11
5.26077
21
-2.81538
0
LINE
8
BLACK
6
CONTINUOUS
10
5.26077
20
-2.81538
11
5.26024
21
-2.81609
0
LINE
8
BLACK
6
CONTINUOUS
10
5.26024
20
-2.81609
11
5.26022
21
-2.81615
0
LINE
8
BLACK
6
CONTINUOUS
10
5.26022
20
-2.81615
11
5.25834
21
-2.81802
0
LINE
8
BLACK
6
CONTINUOUS
10
5.25834
20
-2.81802
11
5.25762
21
-2.81853
0
LINE
8
BLACK
6
CONTINUOUS
10
5.25762
20
-2.81853
11
5.25757
21
-2.81858
0
LINE
8
BLACK
6
CONTINUOUS
10
5.25757
20
-2.81858
11
5.25383
21
-2.82045
0
LINE
8
BLACK
6
CONTINUOUS
10
5.25383
20
-2.82045
11
5.25284
21
-2.82074
0
LINE
8
BLACK
6
CONTINUOUS
10
5.25284
20
-2.82074
11
5.25267
21
-2.8207
0
LINE
8
BLACK
6
CONTINUOUS
10
5.25267
20
-2.8207
11
5.2525
21
-2.82076
0
LINE
8
BLACK
6
CONTINUOUS
10
5.2525
20
-2.82076
11
5.24313
21
-2.82076
0
LINE
8
BLACK
6
CONTINUOUS
10
5.24313
20
-2.82076
11
5.24226
21
-2.82061
0
LINE
8
BLACK
6
CONTINUOUS
10
5.24226
20
-2.82061
11
5.2422
21
-2.82061
0
LINE
8
BLACK
6
CONTINUOUS
10
5.2422
20
-2.82061
11
5.23657
21
-2.81874
0
LINE
8
BLACK
6
CONTINUOUS
10
5.23657
20
-2.81874
11
5.23567
21
-2.81825
0
LINE
8
BLACK
6
CONTINUOUS
10
5.23567
20
-2.81825
11
5.23461
21
-2.81653
0
LINE
8
BLACK
6
CONTINUOUS
10
5.23461
20
-2.81653
11
5.23491
21
-2.81453
0
LINE
8
BLACK
6
CONTINUOUS
10
5.23491
20
-2.81453
11
5.23642
21
-2.81319
0
LINE
8
BLACK
6
CONTINUOUS
10
5.23642
20
-2.81319
11
5.23844
21
-2.81313
0
LINE
8
BLACK
6
CONTINUOUS
10
5.23844
20
-2.81313
11
5.24361
21
-2.81486
0
LINE
8
BLACK
6
CONTINUOUS
10
5.24361
20
-2.81486
11
5.25181
21
-2.81486
0
LINE
8
BLACK
6
CONTINUOUS
10
5.25181
20
-2.81486
11
5.25451
21
-2.81351
0
LINE
8
BLACK
6
CONTINUOUS
10
5.25451
20
-2.81351
11
5.2557
21
-2.81231
0
LINE
8
BLACK
6
CONTINUOUS
10
5.2557
20
-2.81231
11
5.25705
21
-2.80961
0
LINE
8
BLACK
6
CONTINUOUS
10
5.25705
20
-2.80961
11
5.25705
21
-2.80726
0
LINE
8
BLACK
6
CONTINUOUS
10
5.25705
20
-2.80726
11
5.2557
21
-2.80456
0
LINE
8
BLACK
6
CONTINUOUS
10
5.2557
20
-2.80456
11
5.25451
21
-2.80336
0
LINE
8
BLACK
6
CONTINUOUS
10
5.25451
20
-2.80336
11
5.25147
21
-2.80185
0
LINE
8
BLACK
6
CONTINUOUS
10
5.25147
20
-2.80185
11
5.24429
21
-2.80005
0
LINE
8
BLACK
6
CONTINUOUS
10
5.24429
20
-2.80005
11
5.24382
21
-2.79984
0
LINE
8
BLACK
6
CONTINUOUS
10
5.24382
20
-2.79984
11
5.24369
21
-2.79983
0
LINE
8
BLACK
6
CONTINUOUS
10
5.24369
20
-2.79983
11
5.23994
21
-2.79795
0
LINE
8
BLACK
6
CONTINUOUS
10
5.23994
20
-2.79795
11
5.23923
21
-2.79743
0
LINE
8
BLACK
6
CONTINUOUS
10
5.23923
20
-2.79743
11
5.23917
21
-2.7974
0
LINE
8
BLACK
6
CONTINUOUS
10
5.23917
20
-2.7974
11
5.23729
21
-2.79553
0
LINE
8
BLACK
6
CONTINUOUS
10
5.23729
20
-2.79553
11
5.23679
21
-2.7948
0
LINE
8
BLACK
6
CONTINUOUS
10
5.23679
20
-2.7948
11
5.23674
21
-2.79476
0
LINE
8
BLACK
6
CONTINUOUS
10
5.23674
20
-2.79476
11
5.23487
21
-2.79101
0
LINE
8
BLACK
6
CONTINUOUS
10
5.23487
20
-2.79101
11
5.23457
21
-2.79003
0
LINE
8
BLACK
6
CONTINUOUS
10
5.23457
20
-2.79003
11
5.23461
21
-2.78985
0
LINE
8
BLACK
6
CONTINUOUS
10
5.23461
20
-2.78985
11
5.23455
21
-2.78969
0
LINE
8
BLACK
6
CONTINUOUS
10
5.23455
20
-2.78969
11
5.23455
21
-2.78594
0
LINE
8
BLACK
6
CONTINUOUS
10
5.23455
20
-2.78594
11
5.23473
21
-2.78493
0
LINE
8
BLACK
6
CONTINUOUS
10
5.23473
20
-2.78493
11
5.23485
21
-2.78479
0
LINE
8
BLACK
6
CONTINUOUS
10
5.23485
20
-2.78479
11
5.23487
21
-2.78462
0
LINE
8
BLACK
6
CONTINUOUS
10
5.23487
20
-2.78462
11
5.23674
21
-2.78087
0
LINE
8
BLACK
6
CONTINUOUS
10
5.23674
20
-2.78087
11
5.23727
21
-2.78016
0
LINE
8
BLACK
6
CONTINUOUS
10
5.23727
20
-2.78016
11
5.23729
21
-2.7801
0
LINE
8
BLACK
6
CONTINUOUS
10
5.23729
20
-2.7801
11
5.23917
21
-2.77823
0
LINE
8
BLACK
6
CONTINUOUS
10
5.23917
20
-2.77823
11
5.23989
21
-2.77772
0
LINE
8
BLACK
6
CONTINUOUS
10
5.23989
20
-2.77772
11
5.23994
21
-2.77767
0
LINE
8
BLACK
6
CONTINUOUS
10
5.23994
20
-2.77767
11
5.24369
21
-2.7758
0
LINE
8
BLACK
6
CONTINUOUS
10
5.24369
20
-2.7758
11
5.24467
21
-2.77551
0
LINE
8
BLACK
6
CONTINUOUS
10
5.24467
20
-2.77551
11
5.24484
21
-2.77555
0
LINE
8
BLACK
6
CONTINUOUS
10
5.24484
20
-2.77555
11
5.24501
21
-2.77549
0
LINE
8
BLACK
6
CONTINUOUS
10
5.24501
20
-2.77549
11
5.25438
21
-2.77549
0
LINE
8
BLACK
6
CONTINUOUS
10
5.25438
20
-2.77549
11
5.25525
21
-2.77564
0
LINE
8
BLACK
6
CONTINUOUS
10
5.34293
20
-2.77556
11
5.34307
21
-2.77554
0
LINE
8
BLACK
6
CONTINUOUS
10
5.34307
20
-2.77554
11
5.34317
21
-2.77561
0
LINE
8
BLACK
6
CONTINUOUS
10
5.34317
20
-2.77561
11
5.3435
21
-2.77567
0
LINE
8
BLACK
6
CONTINUOUS
10
5.3435
20
-2.77567
11
5.34411
21
-2.77618
0
LINE
8
BLACK
6
CONTINUOUS
10
5.34411
20
-2.77618
11
5.34479
21
-2.77659
0
LINE
8
BLACK
6
CONTINUOUS
10
5.34479
20
-2.77659
11
5.34487
21
-2.77681
0
LINE
8
BLACK
6
CONTINUOUS
10
5.34487
20
-2.77681
11
5.34505
21
-2.77696
0
LINE
8
BLACK
6
CONTINUOUS
10
5.34505
20
-2.77696
11
5.34519
21
-2.77775
0
LINE
8
BLACK
6
CONTINUOUS
10
5.34519
20
-2.77775
11
5.34545
21
-2.7785
0
LINE
8
BLACK
6
CONTINUOUS
10
5.34545
20
-2.7785
11
5.34536
21
-2.77872
0
LINE
8
BLACK
6
CONTINUOUS
10
5.34536
20
-2.77872
11
5.3454
21
-2.77895
0
LINE
8
BLACK
6
CONTINUOUS
10
5.3454
20
-2.77895
11
5.345
21
-2.77964
0
LINE
8
BLACK
6
CONTINUOUS
10
5.345
20
-2.77964
11
5.34472
21
-2.78038
0
LINE
8
BLACK
6
CONTINUOUS
10
5.34472
20
-2.78038
11
5.33576
21
-2.79062
0
LINE
8
BLACK
6
CONTINUOUS
10
5.33576
20
-2.79062
11
5.336
21
-2.79066
0
LINE
8
BLACK
6
CONTINUOUS
10
5.336
20
-2.79066
11
5.33614
21
-2.79078
0
LINE
8
BLACK
6
CONTINUOUS
10
5.33614
20
-2.79078
11
5.33631
21
-2.7908
0
LINE
8
BLACK
6
CONTINUOUS
10
5.33631
20
-2.7908
11
5.34006
21
-2.79267
0
LINE
8
BLACK
6
CONTINUOUS
10
5.34006
20
-2.79267
11
5.34077
21
-2.7932
0
LINE
8
BLACK
6
CONTINUOUS
10
5.34077
20
-2.7932
11
5.34083
21
-2.79323
0
LINE
8
BLACK
6
CONTINUOUS
10
5.34083
20
-2.79323
11
5.34271
21
-2.7951
0
LINE
8
BLACK
6
CONTINUOUS
10
5.34271
20
-2.7951
11
5.34321
21
-2.79582
0
LINE
8
BLACK
6
CONTINUOUS
10
5.34321
20
-2.79582
11
5.34326
21
-2.79587
0
LINE
8
BLACK
6
CONTINUOUS
10
5.34326
20
-2.79587
11
5.34513
21
-2.79962
0
LINE
8
BLACK
6
CONTINUOUS
10
5.34513
20
-2.79962
11
5.34543
21
-2.8006
0
LINE
8
BLACK
6
CONTINUOUS
10
5.34543
20
-2.8006
11
5.34539
21
-2.80077
0
LINE
8
BLACK
6
CONTINUOUS
10
5.34539
20
-2.80077
11
5.34545
21
-2.80094
0
LINE
8
BLACK
6
CONTINUOUS
10
5.34545
20
-2.80094
11
5.34545
21
-2.81031
0
LINE
8
BLACK
6
CONTINUOUS
10
5.34545
20
-2.81031
11
5.34527
21
-2.81132
0
LINE
8
BLACK
6
CONTINUOUS
10
5.34527
20
-2.81132
11
5.34515
21
-2.81146
0
LINE
8
BLACK
6
CONTINUOUS
10
5.34515
20
-2.81146
11
5.34513
21
-2.81163
0
LINE
8
BLACK
6
CONTINUOUS
10
5.34513
20
-2.81163
11
5.34326
21
-2.81538
0
LINE
8
BLACK
6
CONTINUOUS
10
5.34326
20
-2.81538
11
5.34273
21
-2.81609
0
LINE
8
BLACK
6
CONTINUOUS
10
5.34273
20
-2.81609
11
5.34271
21
-2.81615
0
LINE
8
BLACK
6
CONTINUOUS
10
5.34271
20
-2.81615
11
5.34083
21
-2.81802
0
LINE
8
BLACK
6
CONTINUOUS
10
5.34083
20
-2.81802
11
5.34011
21
-2.81853
0
LINE
8
BLACK
6
CONTINUOUS
10
5.34011
20
-2.81853
11
5.34006
21
-2.81858
0
LINE
8
BLACK
6
CONTINUOUS
10
5.34006
20
-2.81858
11
5.33631
21
-2.82045
0
LINE
8
BLACK
6
CONTINUOUS
10
5.33631
20
-2.82045
11
5.33533
21
-2.82074
0
LINE
8
BLACK
6
CONTINUOUS
10
5.33533
20
-2.82074
11
5.33516
21
-2.8207
0
LINE
8
BLACK
6
CONTINUOUS
10
5.33516
20
-2.8207
11
5.33499
21
-2.82076
0
LINE
8
BLACK
6
CONTINUOUS
10
5.33499
20
-2.82076
11
5.32375
21
-2.82076
0
LINE
8
BLACK
6
CONTINUOUS
10
5.32375
20
-2.82076
11
5.32274
21
-2.82058
0
LINE
8
BLACK
6
CONTINUOUS
10
5.32274
20
-2.82058
11
5.3226
21
-2.82047
0
LINE
8
BLACK
6
CONTINUOUS
10
5.3226
20
-2.82047
11
5.32243
21
-2.82045
0
LINE
8
BLACK
6
CONTINUOUS
10
5.32243
20
-2.82045
11
5.31868
21
-2.81858
0
LINE
8
BLACK
6
CONTINUOUS
10
5.31868
20
-2.81858
11
5.31797
21
-2.81805
0
LINE
8
BLACK
6
CONTINUOUS
10
5.31797
20
-2.81805
11
5.31791
21
-2.81802
0
LINE
8
BLACK
6
CONTINUOUS
10
5.31791
20
-2.81802
11
5.31603
21
-2.81615
0
LINE
8
BLACK
6
CONTINUOUS
10
5.31603
20
-2.81615
11
5.31545
21
-2.81531
0
LINE
8
BLACK
6
CONTINUOUS
10
5.31545
20
-2.81531
11
5.31527
21
-2.8133
0
LINE
8
BLACK
6
CONTINUOUS
10
5.31527
20
-2.8133
11
5.31643
21
-2.81164
0
LINE
8
BLACK
6
CONTINUOUS
10
5.31643
20
-2.81164
11
5.31838
21
-2.81112
0
LINE
8
BLACK
6
CONTINUOUS
10
5.31838
20
-2.81112
11
5.32021
21
-2.81197
0
LINE
8
BLACK
6
CONTINUOUS
10
5.32021
20
-2.81197
11
5.32175
21
-2.81351
0
LINE
8
BLACK
6
CONTINUOUS
10
5.32175
20
-2.81351
11
5.32444
21
-2.81486
0
LINE
8
BLACK
6
CONTINUOUS
10
5.32444
20
-2.81486
11
5.3343
21
-2.81486
0
LINE
8
BLACK
6
CONTINUOUS
10
5.3343
20
-2.81486
11
5.33699
21
-2.81351
0
LINE
8
BLACK
6
CONTINUOUS
10
5.33699
20
-2.81351
11
5.33819
21
-2.81231
0
LINE
8
BLACK
6
CONTINUOUS
10
5.33819
20
-2.81231
11
5.33954
21
-2.80961
0
LINE
8
BLACK
6
CONTINUOUS
10
5.33954
20
-2.80961
11
5.33954
21
-2.80163
0
LINE
8
BLACK
6
CONTINUOUS
10
5.33954
20
-2.80163
11
5.33819
21
-2.79894
0
LINE
8
BLACK
6
CONTINUOUS
10
5.33819
20
-2.79894
11
5.33699
21
-2.79774
0
LINE
8
BLACK
6
CONTINUOUS
10
5.33699
20
-2.79774
11
5.3343
21
-2.79639
0
LINE
8
BLACK
6
CONTINUOUS
10
5.3343
20
-2.79639
11
5.32937
21
-2.79639
0
LINE
8
BLACK
6
CONTINUOUS
10
5.32937
20
-2.79639
11
5.32893
21
-2.79631
0
LINE
8
BLACK
6
CONTINUOUS
10
5.32893
20
-2.79631
11
5.3288
21
-2.79633
0
LINE
8
BLACK
6
CONTINUOUS
10
5.3288
20
-2.79633
11
5.32869
21
-2.79627
0
LINE
8
BLACK
6
CONTINUOUS
10
5.32869
20
-2.79627
11
5.32836
21
-2.79621
0
LINE
8
BLACK
6
CONTINUOUS
10
5.32836
20
-2.79621
11
5.32775
21
-2.7957
0
LINE
8
BLACK
6
CONTINUOUS
10
5.32775
20
-2.7957
11
5.32707
21
-2.79529
0
LINE
8
BLACK
6
CONTINUOUS
10
5.32707
20
-2.79529
11
5.32699
21
-2.79507
0
LINE
8
BLACK
6
CONTINUOUS
10
5.32699
20
-2.79507
11
5.32681
21
-2.79491
0
LINE
8
BLACK
6
CONTINUOUS
10
5.32681
20
-2.79491
11
5.32667
21
-2.79413
0
LINE
8
BLACK
6
CONTINUOUS
10
5.32667
20
-2.79413
11
5.32642
21
-2.79338
0
LINE
8
BLACK
6
CONTINUOUS
10
5.32642
20
-2.79338
11
5.3265
21
-2.79316
0
LINE
8
BLACK
6
CONTINUOUS
10
5.3265
20
-2.79316
11
5.32646
21
-2.79293
0
LINE
8
BLACK
6
CONTINUOUS
10
5.32646
20
-2.79293
11
5.32686
21
-2.79224
0
LINE
8
BLACK
6
CONTINUOUS
10
5.32686
20
-2.79224
11
5.32715
21
-2.79149
0
LINE
8
BLACK
6
CONTINUOUS
10
5.32715
20
-2.79149
11
5.33599
21
-2.78139
0
LINE
8
BLACK
6
CONTINUOUS
10
5.33599
20
-2.78139
11
5.31812
21
-2.78139
0
LINE
8
BLACK
6
CONTINUOUS
10
5.31812
20
-2.78139
11
5.31711
21
-2.78121
0
LINE
8
BLACK
6
CONTINUOUS
10
5.31711
20
-2.78121
11
5.31556
21
-2.77992
0
LINE
8
BLACK
6
CONTINUOUS
10
5.31556
20
-2.77992
11
5.31521
21
-2.77793
0
LINE
8
BLACK
6
CONTINUOUS
10
5.31521
20
-2.77793
11
5.31622
21
-2.77618
0
LINE
8
BLACK
6
CONTINUOUS
10
5.31622
20
-2.77618
11
5.31812
21
-2.77549
0
LINE
8
BLACK
6
CONTINUOUS
10
5.31812
20
-2.77549
11
5.34249
21
-2.77549
0
LINE
8
BLACK
6
CONTINUOUS
10
5.34249
20
-2.77549
11
5.34293
21
-2.77556
0
LINE
8
BLACK
6
CONTINUOUS
10
5.27489
20
-2.77607
11
5.276
21
-2.77776
0
LINE
8
BLACK
6
CONTINUOUS
10
5.276
20
-2.77776
11
5.28266
21
-2.80574
0
LINE
8
BLACK
6
CONTINUOUS
10
5.28266
20
-2.80574
11
5.28715
21
-2.78893
0
LINE
8
BLACK
6
CONTINUOUS
10
5.28715
20
-2.78893
11
5.28758
21
-2.788
0
LINE
8
BLACK
6
CONTINUOUS
10
5.28758
20
-2.788
11
5.2878
21
-2.78784
0
LINE
8
BLACK
6
CONTINUOUS
10
5.2878
20
-2.78784
11
5.28791
21
-2.7876
0
LINE
8
BLACK
6
CONTINUOUS
10
5.28791
20
-2.7876
11
5.28861
21
-2.78728
0
LINE
8
BLACK
6
CONTINUOUS
10
5.28861
20
-2.78728
11
5.28923
21
-2.78684
0
LINE
8
BLACK
6
CONTINUOUS
10
5.28923
20
-2.78684
11
5.2895
21
-2.78686
0
LINE
8
BLACK
6
CONTINUOUS
10
5.2895
20
-2.78686
11
5.28975
21
-2.78675
0
LINE
8
BLACK
6
CONTINUOUS
10
5.28975
20
-2.78675
11
5.29048
21
-2.78695
0
LINE
8
BLACK
6
CONTINUOUS
10
5.29048
20
-2.78695
11
5.29124
21
-2.78701
0
LINE
8
BLACK
6
CONTINUOUS
10
5.29124
20
-2.78701
11
5.29144
21
-2.7872
0
LINE
8
BLACK
6
CONTINUOUS
10
5.29144
20
-2.7872
11
5.2917
21
-2.78727
0
LINE
8
BLACK
6
CONTINUOUS
10
5.2917
20
-2.78727
11
5.29213
21
-2.7879
0
LINE
8
BLACK
6
CONTINUOUS
10
5.29213
20
-2.7879
11
5.29267
21
-2.78844
0
LINE
8
BLACK
6
CONTINUOUS
10
5.29267
20
-2.78844
11
5.2927
21
-2.78871
0
LINE
8
BLACK
6
CONTINUOUS
10
5.2927
20
-2.78871
11
5.29285
21
-2.78893
0
LINE
8
BLACK
6
CONTINUOUS
10
5.29285
20
-2.78893
11
5.29734
21
-2.80574
0
LINE
8
BLACK
6
CONTINUOUS
10
5.29734
20
-2.80574
11
5.304
21
-2.77776
0
LINE
8
BLACK
6
CONTINUOUS
10
5.304
20
-2.77776
11
5.30441
21
-2.77682
0
LINE
8
BLACK
6
CONTINUOUS
10
5.30441
20
-2.77682
11
5.30603
21
-2.77561
0
LINE
8
BLACK
6
CONTINUOUS
10
5.30603
20
-2.77561
11
5.30805
21
-2.77573
0
LINE
8
BLACK
6
CONTINUOUS
10
5.30805
20
-2.77573
11
5.30951
21
-2.77712
0
LINE
8
BLACK
6
CONTINUOUS
10
5.30951
20
-2.77712
11
5.30975
21
-2.77912
0
LINE
8
BLACK
6
CONTINUOUS
10
5.30975
20
-2.77912
11
5.30037
21
-2.81849
0
LINE
8
BLACK
6
CONTINUOUS
10
5.30037
20
-2.81849
11
5.29996
21
-2.81944
0
LINE
8
BLACK
6
CONTINUOUS
10
5.29996
20
-2.81944
11
5.29972
21
-2.81962
0
LINE
8
BLACK
6
CONTINUOUS
10
5.29972
20
-2.81962
11
5.29958
21
-2.8199
0
LINE
8
BLACK
6
CONTINUOUS
10
5.29958
20
-2.8199
11
5.29893
21
-2.82021
0
LINE
8
BLACK
6
CONTINUOUS
10
5.29893
20
-2.82021
11
5.29834
21
-2.82064
0
LINE
8
BLACK
6
CONTINUOUS
10
5.29834
20
-2.82064
11
5.29803
21
-2.82062
0
LINE
8
BLACK
6
CONTINUOUS
10
5.29803
20
-2.82062
11
5.29775
21
-2.82075
0
LINE
8
BLACK
6
CONTINUOUS
10
5.29775
20
-2.82075
11
5.29705
21
-2.82056
0
LINE
8
BLACK
6
CONTINUOUS
10
5.29705
20
-2.82056
11
5.29633
21
-2.82052
0
LINE
8
BLACK
6
CONTINUOUS
10
5.29633
20
-2.82052
11
5.2961
21
-2.82031
0
LINE
8
BLACK
6
CONTINUOUS
10
5.2961
20
-2.82031
11
5.2958
21
-2.82023
0
LINE
8
BLACK
6
CONTINUOUS
10
5.2958
20
-2.82023
11
5.29539
21
-2.81963
0
LINE
8
BLACK
6
CONTINUOUS
10
5.29539
20
-2.81963
11
5.29486
21
-2.81913
0
LINE
8
BLACK
6
CONTINUOUS
10
5.29486
20
-2.81913
11
5.29482
21
-2.81883
0
LINE
8
BLACK
6
CONTINUOUS
10
5.29482
20
-2.81883
11
5.29465
21
-2.81857
0
LINE
8
BLACK
6
CONTINUOUS
10
5.29465
20
-2.81857
11
5.29
21
-2.80115
0
LINE
8
BLACK
6
CONTINUOUS
10
5.29
20
-2.80115
11
5.28535
21
-2.81857
0
LINE
8
BLACK
6
CONTINUOUS
10
5.28535
20
-2.81857
11
5.28492
21
-2.8195
0
LINE
8
BLACK
6
CONTINUOUS
10
5.28492
20
-2.8195
11
5.28467
21
-2.81968
0
LINE
8
BLACK
6
CONTINUOUS
10
5.28467
20
-2.81968
11
5.28453
21
-2.81996
0
LINE
8
BLACK
6
CONTINUOUS
10
5.28453
20
-2.81996
11
5.28386
21
-2.82024
0
LINE
8
BLACK
6
CONTINUOUS
10
5.28386
20
-2.82024
11
5.28327
21
-2.82066
0
LINE
8
BLACK
6
CONTINUOUS
10
5.28327
20
-2.82066
11
5.28296
21
-2.82063
0
LINE
8
BLACK
6
CONTINUOUS
10
5.28296
20
-2.82063
11
5.28268
21
-2.82076
0
LINE
8
BLACK
6
CONTINUOUS
10
5.28268
20
-2.82076
11
5.28198
21
-2.82055
0
LINE
8
BLACK
6
CONTINUOUS
10
5.28198
20
-2.82055
11
5.28126
21
-2.82049
0
LINE
8
BLACK
6
CONTINUOUS
10
5.28126
20
-2.82049
11
5.28104
21
-2.82027
0
LINE
8
BLACK
6
CONTINUOUS
10
5.28104
20
-2.82027
11
5.28074
21
-2.82018
0
LINE
8
BLACK
6
CONTINUOUS
10
5.28074
20
-2.82018
11
5.28034
21
-2.81957
0
LINE
8
BLACK
6
CONTINUOUS
10
5.28034
20
-2.81957
11
5.27983
21
-2.81906
0
LINE
8
BLACK
6
CONTINUOUS
10
5.27983
20
-2.81906
11
5.2798
21
-2.81875
0
LINE
8
BLACK
6
CONTINUOUS
10
5.2798
20
-2.81875
11
5.27963
21
-2.81849
0
LINE
8
BLACK
6
CONTINUOUS
10
5.27963
20
-2.81849
11
5.27025
21
-2.77912
0
LINE
8
BLACK
6
CONTINUOUS
10
5.27025
20
-2.77912
11
5.27019
21
-2.7781
0
LINE
8
BLACK
6
CONTINUOUS
10
5.27019
20
-2.7781
11
5.2711
21
-2.77629
0
LINE
8
BLACK
6
CONTINUOUS
10
5.2711
20
-2.77629
11
5.27295
21
-2.77549
0
LINE
8
BLACK
6
CONTINUOUS
10
5.27295
20
-2.77549
11
5.27489
21
-2.77607
0
LINE
8
BLACK
6
CONTINUOUS
10
6.336
20
-2.76567
11
6.33614
21
-2.76578
0
LINE
8
BLACK
6
CONTINUOUS
10
6.33614
20
-2.76578
11
6.33631
21
-2.7658
0
LINE
8
BLACK
6
CONTINUOUS
10
6.33631
20
-2.7658
11
6.34006
21
-2.76767
0
LINE
8
BLACK
6
CONTINUOUS
10
6.34006
20
-2.76767
11
6.34077
21
-2.7682
0
LINE
8
BLACK
6
CONTINUOUS
10
6.34077
20
-2.7682
11
6.34083
21
-2.76823
0
LINE
8
BLACK
6
CONTINUOUS
10
6.34083
20
-2.76823
11
6.34271
21
-2.7701
0
LINE
8
BLACK
6
CONTINUOUS
10
6.34271
20
-2.7701
11
6.34321
21
-2.77082
0
LINE
8
BLACK
6
CONTINUOUS
10
6.34321
20
-2.77082
11
6.34326
21
-2.77087
0
LINE
8
BLACK
6
CONTINUOUS
10
6.34326
20
-2.77087
11
6.34513
21
-2.77462
0
LINE
8
BLACK
6
CONTINUOUS
10
6.34513
20
-2.77462
11
6.34543
21
-2.7756
0
LINE
8
BLACK
6
CONTINUOUS
10
6.34543
20
-2.7756
11
6.34539
21
-2.77577
0
LINE
8
BLACK
6
CONTINUOUS
10
6.34539
20
-2.77577
11
6.34545
21
-2.77594
0
LINE
8
BLACK
6
CONTINUOUS
10
6.34545
20
-2.77594
11
6.34545
21
-2.77969
0
LINE
8
BLACK
6
CONTINUOUS
10
6.34545
20
-2.77969
11
6.34529
21
-2.78056
0
LINE
8
BLACK
6
CONTINUOUS
10
6.34529
20
-2.78056
11
6.34529
21
-2.78062
0
LINE
8
BLACK
6
CONTINUOUS
10
6.34529
20
-2.78062
11
6.34342
21
-2.78625
0
LINE
8
BLACK
6
CONTINUOUS
10
6.34342
20
-2.78625
11
6.34293
21
-2.78715
0
LINE
8
BLACK
6
CONTINUOUS
10
6.34293
20
-2.78715
11
6.34278
21
-2.78724
0
LINE
8
BLACK
6
CONTINUOUS
10
6.34278
20
-2.78724
11
6.34271
21
-2.7874
0
LINE
8
BLACK
6
CONTINUOUS
10
6.34271
20
-2.7874
11
6.32525
21
-2.80486
0
LINE
8
BLACK
6
CONTINUOUS
10
6.32525
20
-2.80486
11
6.34249
21
-2.80486
0
LINE
8
BLACK
6
CONTINUOUS
10
6.34249
20
-2.80486
11
6.3435
21
-2.80504
0
LINE
8
BLACK
6
CONTINUOUS
10
6.3435
20
-2.80504
11
6.34505
21
-2.80633
0
LINE
8
BLACK
6
CONTINUOUS
10
6.34505
20
-2.80633
11
6.3454
21
-2.80832
0
LINE
8
BLACK
6
CONTINUOUS
10
6.3454
20
-2.80832
11
6.34439
21
-2.81007
0
LINE
8
BLACK
6
CONTINUOUS
10
6.34439
20
-2.81007
11
6.34249
21
-2.81076
0
LINE
8
BLACK
6
CONTINUOUS
10
6.34249
20
-2.81076
11
6.31812
21
-2.81076
0
LINE
8
BLACK
6
CONTINUOUS
10
6.31812
20
-2.81076
11
6.31749
21
-2.81065
0
LINE
8
BLACK
6
CONTINUOUS
10
6.31749
20
-2.81065
11
6.31736
21
-2.81066
0
LINE
8
BLACK
6
CONTINUOUS
10
6.31736
20
-2.81066
11
6.31729
21
-2.81062
0
LINE
8
BLACK
6
CONTINUOUS
10
6.31729
20
-2.81062
11
6.31711
21
-2.81058
0
LINE
8
BLACK
6
CONTINUOUS
10
6.31711
20
-2.81058
11
6.31643
21
-2.81001
0
LINE
8
BLACK
6
CONTINUOUS
10
6.31643
20
-2.81001
11
6.3157
21
-2.8095
0
LINE
8
BLACK
6
CONTINUOUS
10
6.3157
20
-2.8095
11
6.31567
21
-2.80937
0
LINE
8
BLACK
6
CONTINUOUS
10
6.31567
20
-2.80937
11
6.31556
21
-2.80929
0
LINE
8
BLACK
6
CONTINUOUS
10
6.31556
20
-2.80929
11
6.31541
21
-2.80841
0
LINE
8
BLACK
6
CONTINUOUS
10
6.31541
20
-2.80841
11
6.31518
21
-2.80755
0
LINE
8
BLACK
6
CONTINUOUS
10
6.31518
20
-2.80755
11
6.31524
21
-2.80743
0
LINE
8
BLACK
6
CONTINUOUS
10
6.31524
20
-2.80743
11
6.31521
21
-2.8073
0
LINE
8
BLACK
6
CONTINUOUS
10
6.31521
20
-2.8073
11
6.31566
21
-2.80653
0
LINE
8
BLACK
6
CONTINUOUS
10
6.31566
20
-2.80653
11
6.31603
21
-2.80572
0
LINE
8
BLACK
6
CONTINUOUS
10
6.31603
20
-2.80572
11
6.33804
21
-2.78372
0
LINE
8
BLACK
6
CONTINUOUS
10
6.33804
20
-2.78372
11
6.33954
21
-2.77921
0
LINE
8
BLACK
6
CONTINUOUS
10
6.33954
20
-2.77921
11
6.33954
21
-2.77664
0
LINE
8
BLACK
6
CONTINUOUS
10
6.33954
20
-2.77664
11
6.33819
21
-2.77394
0
LINE
8
BLACK
6
CONTINUOUS
10
6.33819
20
-2.77394
11
6.33699
21
-2.77274
0
LINE
8
BLACK
6
CONTINUOUS
10
6.33699
20
-2.77274
11
6.3343
21
-2.77139
0
LINE
8
BLACK
6
CONTINUOUS
10
6.3343
20
-2.77139
11
6.32632
21
-2.77139
0
LINE
8
BLACK
6
CONTINUOUS
10
6.32632
20
-2.77139
11
6.32362
21
-2.77274
0
LINE
8
BLACK
6
CONTINUOUS
10
6.32362
20
-2.77274
11
6.32208
21
-2.77428
0
LINE
8
BLACK
6
CONTINUOUS
10
6.32208
20
-2.77428
11
6.32124
21
-2.77487
0
LINE
8
BLACK
6
CONTINUOUS
10
6.32124
20
-2.77487
11
6.31923
21
-2.77504
0
LINE
8
BLACK
6
CONTINUOUS
10
6.31923
20
-2.77504
11
6.31758
21
-2.77388
0
LINE
8
BLACK
6
CONTINUOUS
10
6.31758
20
-2.77388
11
6.31705
21
-2.77193
0
LINE
8
BLACK
6
CONTINUOUS
10
6.31705
20
-2.77193
11
6.31791
21
-2.7701
0
LINE
8
BLACK
6
CONTINUOUS
10
6.31791
20
-2.7701
11
6.31978
21
-2.76823
0
LINE
8
BLACK
6
CONTINUOUS
10
6.31978
20
-2.76823
11
6.32051
21
-2.76772
0
LINE
8
BLACK
6
CONTINUOUS
10
6.32051
20
-2.76772
11
6.32055
21
-2.76767
0
LINE
8
BLACK
6
CONTINUOUS
10
6.32055
20
-2.76767
11
6.3243
21
-2.7658
0
LINE
8
BLACK
6
CONTINUOUS
10
6.3243
20
-2.7658
11
6.32528
21
-2.76551
0
LINE
8
BLACK
6
CONTINUOUS
10
6.32528
20
-2.76551
11
6.32545
21
-2.76555
0
LINE
8
BLACK
6
CONTINUOUS
10
6.32545
20
-2.76555
11
6.32562
21
-2.76549
0
LINE
8
BLACK
6
CONTINUOUS
10
6.32562
20
-2.76549
11
6.33499
21
-2.76549
0
LINE
8
BLACK
6
CONTINUOUS
10
6.33499
20
-2.76549
11
6.336
21
-2.76567
0
LINE
8
BLACK
6
CONTINUOUS
10
6.25525
20
-2.76564
11
6.25531
21
-2.76564
0
LINE
8
BLACK
6
CONTINUOUS
10
6.25531
20
-2.76564
11
6.26094
21
-2.76751
0
LINE
8
BLACK
6
CONTINUOUS
10
6.26094
20
-2.76751
11
6.26184
21
-2.768
0
LINE
8
BLACK
6
CONTINUOUS
10
6.26184
20
-2.768
11
6.2629
21
-2.76972
0
LINE
8
BLACK
6
CONTINUOUS
10
6.2629
20
-2.76972
11
6.2626
21
-2.77172
0
LINE
8
BLACK
6
CONTINUOUS
10
6.2626
20
-2.77172
11
6.26109
21
-2.77306
0
LINE
8
BLACK
6
CONTINUOUS
10
6.26109
20
-2.77306
11
6.25907
21
-2.77312
0
LINE
8
BLACK
6
CONTINUOUS
10
6.25907
20
-2.77312
11
6.2539
21
-2.77139
0
LINE
8
BLACK
6
CONTINUOUS
10
6.2539
20
-2.77139
11
6.2457
21
-2.77139
0
LINE
8
BLACK
6
CONTINUOUS
10
6.2457
20
-2.77139
11
6.24301
21
-2.77274
0
LINE
8
BLACK
6
CONTINUOUS
10
6.24301
20
-2.77274
11
6.24181
21
-2.77394
0
LINE
8
BLACK
6
CONTINUOUS
10
6.24181
20
-2.77394
11
6.24046
21
-2.77664
0
LINE
8
BLACK
6
CONTINUOUS
10
6.24046
20
-2.77664
11
6.24046
21
-2.77899
0
LINE
8
BLACK
6
CONTINUOUS
10
6.24046
20
-2.77899
11
6.24181
21
-2.78169
0
LINE
8
BLACK
6
CONTINUOUS
10
6.24181
20
-2.78169
11
6.24301
21
-2.78289
0
LINE
8
BLACK
6
CONTINUOUS
10
6.24301
20
-2.78289
11
6.24604
21
-2.7844
0
LINE
8
BLACK
6
CONTINUOUS
10
6.24604
20
-2.7844
11
6.25322
21
-2.7862
0
LINE
8
BLACK
6
CONTINUOUS
10
6.25322
20
-2.7862
11
6.25369
21
-2.78641
0
LINE
8
BLACK
6
CONTINUOUS
10
6.25369
20
-2.78641
11
6.25383
21
-2.78642
0
LINE
8
BLACK
6
CONTINUOUS
10
6.25383
20
-2.78642
11
6.25757
21
-2.7883
0
LINE
8
BLACK
6
CONTINUOUS
10
6.25757
20
-2.7883
11
6.25828
21
-2.78882
0
LINE
8
BLACK
6
CONTINUOUS
10
6.25828
20
-2.78882
11
6.25834
21
-2.78885
0
LINE
8
BLACK
6
CONTINUOUS
10
6.25834
20
-2.78885
11
6.26022
21
-2.79072
0
LINE
8
BLACK
6
CONTINUOUS
10
6.26022
20
-2.79072
11
6.26072
21
-2.79145
0
LINE
8
BLACK
6
CONTINUOUS
10
6.26072
20
-2.79145
11
6.26077
21
-2.79149
0
LINE
8
BLACK
6
CONTINUOUS
10
6.26077
20
-2.79149
11
6.26264
21
-2.79524
0
LINE
8
BLACK
6
CONTINUOUS
10
6.26264
20
-2.79524
11
6.26294
21
-2.79622
0
LINE
8
BLACK
6
CONTINUOUS
10
6.26294
20
-2.79622
11
6.2629
21
-2.7964
0
LINE
8
BLACK
6
CONTINUOUS
10
6.2629
20
-2.7964
11
6.26296
21
-2.79656
0
LINE
8
BLACK
6
CONTINUOUS
10
6.26296
20
-2.79656
11
6.26296
21
-2.80031
0
LINE
8
BLACK
6
CONTINUOUS
10
6.26296
20
-2.80031
11
6.26278
21
-2.80132
0
LINE
8
BLACK
6
CONTINUOUS
10
6.26278
20
-2.80132
11
6.26266
21
-2.80146
0
LINE
8
BLACK
6
CONTINUOUS
10
6.26266
20
-2.80146
11
6.26264
21
-2.80163
0
LINE
8
BLACK
6
CONTINUOUS
10
6.26264
20
-2.80163
11
6.26077
21
-2.80538
0
LINE
8
BLACK
6
CONTINUOUS
10
6.26077
20
-2.80538
11
6.26024
21
-2.80609
0
LINE
8
BLACK
6
CONTINUOUS
10
6.26024
20
-2.80609
11
6.26022
21
-2.80615
0
LINE
8
BLACK
6
CONTINUOUS
10
6.26022
20
-2.80615
11
6.25834
21
-2.80802
0
LINE
8
BLACK
6
CONTINUOUS
10
6.25834
20
-2.80802
11
6.25762
21
-2.80853
0
LINE
8
BLACK
6
CONTINUOUS
10
6.25762
20
-2.80853
11
6.25757
21
-2.80858
0
LINE
8
BLACK
6
CONTINUOUS
10
6.25757
20
-2.80858
11
6.25383
21
-2.81045
0
LINE
8
BLACK
6
CONTINUOUS
10
6.25383
20
-2.81045
11
6.25284
21
-2.81074
0
LINE
8
BLACK
6
CONTINUOUS
10
6.25284
20
-2.81074
11
6.25267
21
-2.8107
0
LINE
8
BLACK
6
CONTINUOUS
10
6.25267
20
-2.8107
11
6.2525
21
-2.81076
0
LINE
8
BLACK
6
CONTINUOUS
10
6.2525
20
-2.81076
11
6.24313
21
-2.81076
0
LINE
8
BLACK
6
CONTINUOUS
10
6.24313
20
-2.81076
11
6.24226
21
-2.81061
0
LINE
8
BLACK
6
CONTINUOUS
10
6.24226
20
-2.81061
11
6.2422
21
-2.81061
0
LINE
8
BLACK
6
CONTINUOUS
10
6.2422
20
-2.81061
11
6.23657
21
-2.80874
0
LINE
8
BLACK
6
CONTINUOUS
10
6.23657
20
-2.80874
11
6.23567
21
-2.80825
0
LINE
8
BLACK
6
CONTINUOUS
10
6.23567
20
-2.80825
11
6.23461
21
-2.80653
0
LINE
8
BLACK
6
CONTINUOUS
10
6.23461
20
-2.80653
11
6.23491
21
-2.80453
0
LINE
8
BLACK
6
CONTINUOUS
10
6.23491
20
-2.80453
11
6.23642
21
-2.80319
0
LINE
8
BLACK
6
CONTINUOUS
10
6.23642
20
-2.80319
11
6.23844
21
-2.80313
0
LINE
8
BLACK
6
CONTINUOUS
10
6.23844
20
-2.80313
11
6.24361
21
-2.80486
0
LINE
8
BLACK
6
CONTINUOUS
10
6.24361
20
-2.80486
11
6.25181
21
-2.80486
0
LINE
8
BLACK
6
CONTINUOUS
10
6.25181
20
-2.80486
11
6.25451
21
-2.80351
0
LINE
8
BLACK
6
CONTINUOUS
10
6.25451
20
-2.80351
11
6.2557
21
-2.80231
0
LINE
8
BLACK
6
CONTINUOUS
10
6.2557
20
-2.80231
11
6.25705
21
-2.79961
0
LINE
8
BLACK
6
CONTINUOUS
10
6.25705
20
-2.79961
11
6.25705
21
-2.79726
0
LINE
8
BLACK
6
CONTINUOUS
10
6.25705
20
-2.79726
11
6.2557
21
-2.79456
0
LINE
8
BLACK
6
CONTINUOUS
10
6.2557
20
-2.79456
11
6.25451
21
-2.79336
0
LINE
8
BLACK
6
CONTINUOUS
10
6.25451
20
-2.79336
11
6.25147
21
-2.79185
0
LINE
8
BLACK
6
CONTINUOUS
10
6.25147
20
-2.79185
11
6.24429
21
-2.79005
0
LINE
8
BLACK
6
CONTINUOUS
10
6.24429
20
-2.79005
11
6.24382
21
-2.78984
0
LINE
8
BLACK
6
CONTINUOUS
10
6.24382
20
-2.78984
11
6.24369
21
-2.78983
0
LINE
8
BLACK
6
CONTINUOUS
10
6.24369
20
-2.78983
11
6.23994
21
-2.78795
0
LINE
8
BLACK
6
CONTINUOUS
10
6.23994
20
-2.78795
11
6.23923
21
-2.78743
0
LINE
8
BLACK
6
CONTINUOUS
10
6.23923
20
-2.78743
11
6.23917
21
-2.7874
0
LINE
8
BLACK
6
CONTINUOUS
10
6.23917
20
-2.7874
11
6.23729
21
-2.78553
0
LINE
8
BLACK
6
CONTINUOUS
10
6.23729
20
-2.78553
11
6.23679
21
-2.7848
0
LINE
8
BLACK
6
CONTINUOUS
10
6.23679
20
-2.7848
11
6.23674
21
-2.78476
0
LINE
8
BLACK
6
CONTINUOUS
10
6.23674
20
-2.78476
11
6.23487
21
-2.78101
0
LINE
8
BLACK
6
CONTINUOUS
10
6.23487
20
-2.78101
11
6.23457
21
-2.78003
0
LINE
8
BLACK
6
CONTINUOUS
10
6.23457
20
-2.78003
11
6.23461
21
-2.77985
0
LINE
8
BLACK
6
CONTINUOUS
10
6.23461
20
-2.77985
11
6.23455
21
-2.77969
0
LINE
8
BLACK
6
CONTINUOUS
10
6.23455
20
-2.77969
11
6.23455
21
-2.77594
0
LINE
8
BLACK
6
CONTINUOUS
10
6.23455
20
-2.77594
11
6.23473
21
-2.77493
0
LINE
8
BLACK
6
CONTINUOUS
10
6.23473
20
-2.77493
11
6.23485
21
-2.77479
0
LINE
8
BLACK
6
CONTINUOUS
10
6.23485
20
-2.77479
11
6.23487
21
-2.77462
0
LINE
8
BLACK
6
CONTINUOUS
10
6.23487
20
-2.77462
11
6.23674
21
-2.77087
0
LINE
8
BLACK
6
CONTINUOUS
10
6.23674
20
-2.77087
11
6.23727
21
-2.77016
0
LINE
8
BLACK
6
CONTINUOUS
10
6.23727
20
-2.77016
11
6.23729
21
-2.7701
0
LINE
8
BLACK
6
CONTINUOUS
10
6.23729
20
-2.7701
11
6.23917
21
-2.76823
0
LINE
8
BLACK
6
CONTINUOUS
10
6.23917
20
-2.76823
11
6.23989
21
-2.76772
0
LINE
8
BLACK
6
CONTINUOUS
10
6.23989
20
-2.76772
11
6.23994
21
-2.76767
0
LINE
8
BLACK
6
CONTINUOUS
10
6.23994
20
-2.76767
11
6.24369
21
-2.7658
0
LINE
8
BLACK
6
CONTINUOUS
10
6.24369
20
-2.7658
11
6.24467
21
-2.76551
0
LINE
8
BLACK
6
CONTINUOUS
10
6.24467
20
-2.76551
11
6.24484
21
-2.76555
0
LINE
8
BLACK
6
CONTINUOUS
10
6.24484
20
-2.76555
11
6.24501
21
-2.76549
0
LINE
8
BLACK
6
CONTINUOUS
10
6.24501
20
-2.76549
11
6.25438
21
-2.76549
0
LINE
8
BLACK
6
CONTINUOUS
10
6.25438
20
-2.76549
11
6.25525
21
-2.76564
0
LINE
8
BLACK
6
CONTINUOUS
10
6.27489
20
-2.76607
11
6.276
21
-2.76776
0
LINE
8
BLACK
6
CONTINUOUS
10
6.276
20
-2.76776
11
6.28266
21
-2.79574
0
LINE
8
BLACK
6
CONTINUOUS
10
6.28266
20
-2.79574
11
6.28715
21
-2.77893
0
LINE
8
BLACK
6
CONTINUOUS
10
6.28715
20
-2.77893
11
6.28758
21
-2.778
0
LINE
8
BLACK
6
CONTINUOUS
10
6.28758
20
-2.778
11
6.2878
21
-2.77784
0
LINE
8
BLACK
6
CONTINUOUS
10
6.2878
20
-2.77784
11
6.28791
21
-2.7776
0
LINE
8
BLACK
6
CONTINUOUS
10
6.28791
20
-2.7776
11
6.28861
21
-2.77728
0
LINE
8
BLACK
6
CONTINUOUS
10
6.28861
20
-2.77728
11
6.28923
21
-2.77684
0
LINE
8
BLACK
6
CONTINUOUS
10
6.28923
20
-2.77684
11
6.2895
21
-2.77686
0
LINE
8
BLACK
6
CONTINUOUS
10
6.2895
20
-2.77686
11
6.28975
21
-2.77675
0
LINE
8
BLACK
6
CONTINUOUS
10
6.28975
20
-2.77675
11
6.29048
21
-2.77695
0
LINE
8
BLACK
6
CONTINUOUS
10
6.29048
20
-2.77695
11
6.29124
21
-2.77701
0
LINE
8
BLACK
6
CONTINUOUS
10
6.29124
20
-2.77701
11
6.29144
21
-2.7772
0
LINE
8
BLACK
6
CONTINUOUS
10
6.29144
20
-2.7772
11
6.2917
21
-2.77727
0
LINE
8
BLACK
6
CONTINUOUS
10
6.2917
20
-2.77727
11
6.29213
21
-2.7779
0
LINE
8
BLACK
6
CONTINUOUS
10
6.29213
20
-2.7779
11
6.29267
21
-2.77844
0
LINE
8
BLACK
6
CONTINUOUS
10
6.29267
20
-2.77844
11
6.2927
21
-2.77871
0
LINE
8
BLACK
6
CONTINUOUS
10
6.2927
20
-2.77871
11
6.29285
21
-2.77893
0
LINE
8
BLACK
6
CONTINUOUS
10
6.29285
20
-2.77893
11
6.29734
21
-2.79574
0
LINE
8
BLACK
6
CONTINUOUS
10
6.29734
20
-2.79574
11
6.304
21
-2.76776
0
LINE
8
BLACK
6
CONTINUOUS
10
6.304
20
-2.76776
11
6.30441
21
-2.76682
0
LINE
8
BLACK
6
CONTINUOUS
10
6.30441
20
-2.76682
11
6.30603
21
-2.76561
0
LINE
8
BLACK
6
CONTINUOUS
10
6.30603
20
-2.76561
11
6.30805
21
-2.76573
0
LINE
8
BLACK
6
CONTINUOUS
10
6.30805
20
-2.76573
11
6.30951
21
-2.76712
0
LINE
8
BLACK
6
CONTINUOUS
10
6.30951
20
-2.76712
11
6.30975
21
-2.76912
0
LINE
8
BLACK
6
CONTINUOUS
10
6.30975
20
-2.76912
11
6.30037
21
-2.80849
0
LINE
8
BLACK
6
CONTINUOUS
10
6.30037
20
-2.80849
11
6.29996
21
-2.80944
0
LINE
8
BLACK
6
CONTINUOUS
10
6.29996
20
-2.80944
11
6.29972
21
-2.80962
0
LINE
8
BLACK
6
CONTINUOUS
10
6.29972
20
-2.80962
11
6.29958
21
-2.8099
0
LINE
8
BLACK
6
CONTINUOUS
10
6.29958
20
-2.8099
11
6.29893
21
-2.81021
0
LINE
8
BLACK
6
CONTINUOUS
10
6.29893
20
-2.81021
11
6.29834
21
-2.81064
0
LINE
8
BLACK
6
CONTINUOUS
10
6.29834
20
-2.81064
11
6.29803
21
-2.81062
0
LINE
8
BLACK
6
CONTINUOUS
10
6.29803
20
-2.81062
11
6.29775
21
-2.81075
0
LINE
8
BLACK
6
CONTINUOUS
10
6.29775
20
-2.81075
11
6.29705
21
-2.81056
0
LINE
8
BLACK
6
CONTINUOUS
10
6.29705
20
-2.81056
11
6.29633
21
-2.81052
0
LINE
8
BLACK
6
CONTINUOUS
10
6.29633
20
-2.81052
11
6.2961
21
-2.81031
0
LINE
8
BLACK
6
CONTINUOUS
10
6.2961
20
-2.81031
11
6.2958
21
-2.81023
0
LINE
8
BLACK
6
CONTINUOUS
10
6.2958
20
-2.81023
11
6.29539
21
-2.80963
0
LINE
8
BLACK
6
CONTINUOUS
10
6.29539
20
-2.80963
11
6.29486
21
-2.80913
0
LINE
8
BLACK
6
CONTINUOUS
10
6.29486
20
-2.80913
11
6.29482
21
-2.80883
0
LINE
8
BLACK
6
CONTINUOUS
10
6.29482
20
-2.80883
11
6.29465
21
-2.80857
0
LINE
8
BLACK
6
CONTINUOUS
10
6.29465
20
-2.80857
11
6.29
21
-2.79115
0
LINE
8
BLACK
6
CONTINUOUS
10
6.29
20
-2.79115
11
6.28535
21
-2.80857
0
LINE
8
BLACK
6
CONTINUOUS
10
6.28535
20
-2.80857
11
6.28492
21
-2.8095
0
LINE
8
BLACK
6
CONTINUOUS
10
6.28492
20
-2.8095
11
6.28467
21
-2.80968
0
LINE
8
BLACK
6
CONTINUOUS
10
6.28467
20
-2.80968
11
6.28453
21
-2.80996
0
LINE
8
BLACK
6
CONTINUOUS
10
6.28453
20
-2.80996
11
6.28386
21
-2.81024
0
LINE
8
BLACK
6
CONTINUOUS
10
6.28386
20
-2.81024
11
6.28327
21
-2.81066
0
LINE
8
BLACK
6
CONTINUOUS
10
6.28327
20
-2.81066
11
6.28296
21
-2.81063
0
LINE
8
BLACK
6
CONTINUOUS
10
6.28296
20
-2.81063
11
6.28268
21
-2.81076
0
LINE
8
BLACK
6
CONTINUOUS
10
6.28268
20
-2.81076
11
6.28198
21
-2.81055
0
LINE
8
BLACK
6
CONTINUOUS
10
6.28198
20
-2.81055
11
6.28126
21
-2.81049
0
LINE
8
BLACK
6
CONTINUOUS
10
6.28126
20
-2.81049
11
6.28104
21
-2.81027
0
LINE
8
BLACK
6
CONTINUOUS
10
6.28104
20
-2.81027
11
6.28074
21
-2.81018
0
LINE
8
BLACK
6
CONTINUOUS
10
6.28074
20
-2.81018
11
6.28034
21
-2.80957
0
LINE
8
BLACK
6
CONTINUOUS
10
6.28034
20
-2.80957
11
6.27983
21
-2.80906
0
LINE
8
BLACK
6
CONTINUOUS
10
6.27983
20
-2.80906
11
6.2798
21
-2.80875
0
LINE
8
BLACK
6
CONTINUOUS
10
6.2798
20
-2.80875
11
6.27963
21
-2.80849
0
LINE
8
BLACK
6
CONTINUOUS
10
6.27963
20
-2.80849
11
6.27025
21
-2.76912
0
LINE
8
BLACK
6
CONTINUOUS
10
6.27025
20
-2.76912
11
6.27019
21
-2.7681
0
LINE
8
BLACK
6
CONTINUOUS
10
6.27019
20
-2.7681
11
6.2711
21
-2.76629
0
LINE
8
BLACK
6
CONTINUOUS
10
6.2711
20
-2.76629
11
6.27295
21
-2.76549
0
LINE
8
BLACK
6
CONTINUOUS
10
6.27295
20
-2.76549
11
6.27489
21
-2.76607
0
LINE
8
BLACK
6
CONTINUOUS
10
7.22525
20
-2.75564
11
7.22531
21
-2.75564
0
LINE
8
BLACK
6
CONTINUOUS
10
7.22531
20
-2.75564
11
7.23094
21
-2.75751
0
LINE
8
BLACK
6
CONTINUOUS
10
7.23094
20
-2.75751
11
7.23184
21
-2.758
0
LINE
8
BLACK
6
CONTINUOUS
10
7.23184
20
-2.758
11
7.2329
21
-2.75972
0
LINE
8
BLACK
6
CONTINUOUS
10
7.2329
20
-2.75972
11
7.2326
21
-2.76172
0
LINE
8
BLACK
6
CONTINUOUS
10
7.2326
20
-2.76172
11
7.23109
21
-2.76306
0
LINE
8
BLACK
6
CONTINUOUS
10
7.23109
20
-2.76306
11
7.22907
21
-2.76312
0
LINE
8
BLACK
6
CONTINUOUS
10
7.22907
20
-2.76312
11
7.2239
21
-2.76139
0
LINE
8
BLACK
6
CONTINUOUS
10
7.2239
20
-2.76139
11
7.2157
21
-2.76139
0
LINE
8
BLACK
6
CONTINUOUS
10
7.2157
20
-2.76139
11
7.21301
21
-2.76274
0
LINE
8
BLACK
6
CONTINUOUS
10
7.21301
20
-2.76274
11
7.21181
21
-2.76394
0
LINE
8
BLACK
6
CONTINUOUS
10
7.21181
20
-2.76394
11
7.21046
21
-2.76664
0
LINE
8
BLACK
6
CONTINUOUS
10
7.21046
20
-2.76664
11
7.21046
21
-2.76899
0
LINE
8
BLACK
6
CONTINUOUS
10
7.21046
20
-2.76899
11
7.21181
21
-2.77169
0
LINE
8
BLACK
6
CONTINUOUS
10
7.21181
20
-2.77169
11
7.21301
21
-2.77289
0
LINE
8
BLACK
6
CONTINUOUS
10
7.21301
20
-2.77289
11
7.21604
21
-2.7744
0
LINE
8
BLACK
6
CONTINUOUS
10
7.21604
20
-2.7744
11
7.22322
21
-2.7762
0
LINE
8
BLACK
6
CONTINUOUS
10
7.22322
20
-2.7762
11
7.22369
21
-2.77641
0
LINE
8
BLACK
6
CONTINUOUS
10
7.22369
20
-2.77641
11
7.22383
21
-2.77642
0
LINE
8
BLACK
6
CONTINUOUS
10
7.22383
20
-2.77642
11
7.22757
21
-2.7783
0
LINE
8
BLACK
6
CONTINUOUS
10
7.22757
20
-2.7783
11
7.22828
21
-2.77882
0
LINE
8
BLACK
6
CONTINUOUS
10
7.22828
20
-2.77882
11
7.22834
21
-2.77885
0
LINE
8
BLACK
6
CONTINUOUS
10
7.22834
20
-2.77885
11
7.23022
21
-2.78072
0
LINE
8
BLACK
6
CONTINUOUS
10
7.23022
20
-2.78072
11
7.23072
21
-2.78145
0
LINE
8
BLACK
6
CONTINUOUS
10
7.23072
20
-2.78145
11
7.23077
21
-2.78149
0
LINE
8
BLACK
6
CONTINUOUS
10
7.23077
20
-2.78149
11
7.23264
21
-2.78524
0
LINE
8
BLACK
6
CONTINUOUS
10
7.23264
20
-2.78524
11
7.23294
21
-2.78622
0
LINE
8
BLACK
6
CONTINUOUS
10
7.23294
20
-2.78622
11
7.2329
21
-2.7864
0
LINE
8
BLACK
6
CONTINUOUS
10
7.2329
20
-2.7864
11
7.23296
21
-2.78656
0
LINE
8
BLACK
6
CONTINUOUS
10
7.23296
20
-2.78656
11
7.23296
21
-2.79031
0
LINE
8
BLACK
6
CONTINUOUS
10
7.23296
20
-2.79031
11
7.23278
21
-2.79132
0
LINE
8
BLACK
6
CONTINUOUS
10
7.23278
20
-2.79132
11
7.23266
21
-2.79146
0
LINE
8
BLACK
6
CONTINUOUS
10
7.23266
20
-2.79146
11
7.23264
21
-2.79163
0
LINE
8
BLACK
6
CONTINUOUS
10
7.23264
20
-2.79163
11
7.23077
21
-2.79538
0
LINE
8
BLACK
6
CONTINUOUS
10
7.23077
20
-2.79538
11
7.23024
21
-2.79609
0
LINE
8
BLACK
6
CONTINUOUS
10
7.23024
20
-2.79609
11
7.23022
21
-2.79615
0
LINE
8
BLACK
6
CONTINUOUS
10
7.23022
20
-2.79615
11
7.22834
21
-2.79802
0
LINE
8
BLACK
6
CONTINUOUS
10
7.22834
20
-2.79802
11
7.22762
21
-2.79853
0
LINE
8
BLACK
6
CONTINUOUS
10
7.22762
20
-2.79853
11
7.22757
21
-2.79858
0
LINE
8
BLACK
6
CONTINUOUS
10
7.22757
20
-2.79858
11
7.22383
21
-2.80045
0
LINE
8
BLACK
6
CONTINUOUS
10
7.22383
20
-2.80045
11
7.22284
21
-2.80074
0
LINE
8
BLACK
6
CONTINUOUS
10
7.22284
20
-2.80074
11
7.22267
21
-2.8007
0
LINE
8
BLACK
6
CONTINUOUS
10
7.22267
20
-2.8007
11
7.2225
21
-2.80076
0
LINE
8
BLACK
6
CONTINUOUS
10
7.2225
20
-2.80076
11
7.21313
21
-2.80076
0
LINE
8
BLACK
6
CONTINUOUS
10
7.21313
20
-2.80076
11
7.21226
21
-2.80061
0
LINE
8
BLACK
6
CONTINUOUS
10
7.21226
20
-2.80061
11
7.2122
21
-2.80061
0
LINE
8
BLACK
6
CONTINUOUS
10
7.2122
20
-2.80061
11
7.20657
21
-2.79874
0
LINE
8
BLACK
6
CONTINUOUS
10
7.20657
20
-2.79874
11
7.20567
21
-2.79825
0
LINE
8
BLACK
6
CONTINUOUS
10
7.20567
20
-2.79825
11
7.20461
21
-2.79653
0
LINE
8
BLACK
6
CONTINUOUS
10
7.20461
20
-2.79653
11
7.20491
21
-2.79453
0
LINE
8
BLACK
6
CONTINUOUS
10
7.20491
20
-2.79453
11
7.20642
21
-2.79319
0
LINE
8
BLACK
6
CONTINUOUS
10
7.20642
20
-2.79319
11
7.20844
21
-2.79313
0
LINE
8
BLACK
6
CONTINUOUS
10
7.20844
20
-2.79313
11
7.21361
21
-2.79486
0
LINE
8
BLACK
6
CONTINUOUS
10
7.21361
20
-2.79486
11
7.22181
21
-2.79486
0
LINE
8
BLACK
6
CONTINUOUS
10
7.22181
20
-2.79486
11
7.22451
21
-2.79351
0
LINE
8
BLACK
6
CONTINUOUS
10
7.22451
20
-2.79351
11
7.2257
21
-2.79231
0
LINE
8
BLACK
6
CONTINUOUS
10
7.2257
20
-2.79231
11
7.22705
21
-2.78961
0
LINE
8
BLACK
6
CONTINUOUS
10
7.22705
20
-2.78961
11
7.22705
21
-2.78726
0
LINE
8
BLACK
6
CONTINUOUS
10
7.22705
20
-2.78726
11
7.2257
21
-2.78456
0
LINE
8
BLACK
6
CONTINUOUS
10
7.2257
20
-2.78456
11
7.22451
21
-2.78336
0
LINE
8
BLACK
6
CONTINUOUS
10
7.22451
20
-2.78336
11
7.22147
21
-2.78185
0
LINE
8
BLACK
6
CONTINUOUS
10
7.22147
20
-2.78185
11
7.21429
21
-2.78005
0
LINE
8
BLACK
6
CONTINUOUS
10
7.21429
20
-2.78005
11
7.21382
21
-2.77984
0
LINE
8
BLACK
6
CONTINUOUS
10
7.21382
20
-2.77984
11
7.21369
21
-2.77983
0
LINE
8
BLACK
6
CONTINUOUS
10
7.21369
20
-2.77983
11
7.20994
21
-2.77795
0
LINE
8
BLACK
6
CONTINUOUS
10
7.20994
20
-2.77795
11
7.20923
21
-2.77743
0
LINE
8
BLACK
6
CONTINUOUS
10
7.20923
20
-2.77743
11
7.20917
21
-2.7774
0
LINE
8
BLACK
6
CONTINUOUS
10
7.20917
20
-2.7774
11
7.20729
21
-2.77553
0
LINE
8
BLACK
6
CONTINUOUS
10
7.20729
20
-2.77553
11
7.20679
21
-2.7748
0
LINE
8
BLACK
6
CONTINUOUS
10
7.20679
20
-2.7748
11
7.20674
21
-2.77476
0
LINE
8
BLACK
6
CONTINUOUS
10
7.20674
20
-2.77476
11
7.20487
21
-2.77101
0
LINE
8
BLACK
6
CONTINUOUS
10
7.20487
20
-2.77101
11
7.20457
21
-2.77003
0
LINE
8
BLACK
6
CONTINUOUS
10
7.20457
20
-2.77003
11
7.20461
21
-2.76985
0
LINE
8
BLACK
6
CONTINUOUS
10
7.20461
20
-2.76985
11
7.20455
21
-2.76969
0
LINE
8
BLACK
6
CONTINUOUS
10
7.20455
20
-2.76969
11
7.20455
21
-2.76594
0
LINE
8
BLACK
6
CONTINUOUS
10
7.20455
20
-2.76594
11
7.20473
21
-2.76493
0
LINE
8
BLACK
6
CONTINUOUS
10
7.20473
20
-2.76493
11
7.20485
21
-2.76479
0
LINE
8
BLACK
6
CONTINUOUS
10
7.20485
20
-2.76479
11
7.20487
21
-2.76462
0
LINE
8
BLACK
6
CONTINUOUS
10
7.20487
20
-2.76462
11
7.20674
21
-2.76087
0
LINE
8
BLACK
6
CONTINUOUS
10
7.20674
20
-2.76087
11
7.20727
21
-2.76016
0
LINE
8
BLACK
6
CONTINUOUS
10
7.20727
20
-2.76016
11
7.20729
21
-2.7601
0
LINE
8
BLACK
6
CONTINUOUS
10
7.20729
20
-2.7601
11
7.20917
21
-2.75823
0
LINE
8
BLACK
6
CONTINUOUS
10
7.20917
20
-2.75823
11
7.20989
21
-2.75772
0
LINE
8
BLACK
6
CONTINUOUS
10
7.20989
20
-2.75772
11
7.20994
21
-2.75767
0
LINE
8
BLACK
6
CONTINUOUS
10
7.20994
20
-2.75767
11
7.21369
21
-2.7558
0
LINE
8
BLACK
6
CONTINUOUS
10
7.21369
20
-2.7558
11
7.21467
21
-2.75551
0
LINE
8
BLACK
6
CONTINUOUS
10
7.21467
20
-2.75551
11
7.21484
21
-2.75555
0
LINE
8
BLACK
6
CONTINUOUS
10
7.21484
20
-2.75555
11
7.21501
21
-2.75549
0
LINE
8
BLACK
6
CONTINUOUS
10
7.21501
20
-2.75549
11
7.22438
21
-2.75549
0
LINE
8
BLACK
6
CONTINUOUS
10
7.22438
20
-2.75549
11
7.22525
21
-2.75564
0
LINE
8
BLACK
6
CONTINUOUS
10
7.30159
20
-2.75556
11
7.30176
21
-2.75553
0
LINE
8
BLACK
6
CONTINUOUS
10
7.30176
20
-2.75553
11
7.3025
21
-2.75596
0
LINE
8
BLACK
6
CONTINUOUS
10
7.3025
20
-2.75596
11
7.30328
21
-2.75631
0
LINE
8
BLACK
6
CONTINUOUS
10
7.30328
20
-2.75631
11
7.30336
21
-2.75646
0
LINE
8
BLACK
6
CONTINUOUS
10
7.30336
20
-2.75646
11
7.30351
21
-2.75654
0
LINE
8
BLACK
6
CONTINUOUS
10
7.30351
20
-2.75654
11
7.3038
21
-2.75735
0
LINE
8
BLACK
6
CONTINUOUS
10
7.3038
20
-2.75735
11
7.30418
21
-2.75812
0
LINE
8
BLACK
6
CONTINUOUS
10
7.30418
20
-2.75812
11
7.30414
21
-2.75828
0
LINE
8
BLACK
6
CONTINUOUS
10
7.30414
20
-2.75828
11
7.3042
21
-2.75844
0
LINE
8
BLACK
6
CONTINUOUS
10
7.3042
20
-2.75844
11
7.3042
21
-2.79486
0
LINE
8
BLACK
6
CONTINUOUS
10
7.3042
20
-2.79486
11
7.31249
21
-2.79486
0
LINE
8
BLACK
6
CONTINUOUS
10
7.31249
20
-2.79486
11
7.3135
21
-2.79504
0
LINE
8
BLACK
6
CONTINUOUS
10
7.3135
20
-2.79504
11
7.31505
21
-2.79633
0
LINE
8
BLACK
6
CONTINUOUS
10
7.31505
20
-2.79633
11
7.3154
21
-2.79832
0
LINE
8
BLACK
6
CONTINUOUS
10
7.3154
20
-2.79832
11
7.31439
21
-2.80007
0
LINE
8
BLACK
6
CONTINUOUS
10
7.31439
20
-2.80007
11
7.31249
21
-2.80076
0
LINE
8
BLACK
6
CONTINUOUS
10
7.31249
20
-2.80076
11
7.29
21
-2.80076
0
LINE
8
BLACK
6
CONTINUOUS
10
7.29
20
-2.80076
11
7.28899
21
-2.80058
0
LINE
8
BLACK
6
CONTINUOUS
10
7.28899
20
-2.80058
11
7.28744
21
-2.79929
0
LINE
8
BLACK
6
CONTINUOUS
10
7.28744
20
-2.79929
11
7.28709
21
-2.7973
0
LINE
8
BLACK
6
CONTINUOUS
10
7.28709
20
-2.7973
11
7.2881
21
-2.79555
0
LINE
8
BLACK
6
CONTINUOUS
10
7.2881
20
-2.79555
11
7.29
21
-2.79486
0
LINE
8
BLACK
6
CONTINUOUS
10
7.29
20
-2.79486
11
7.29829
21
-2.79486
0
LINE
8
BLACK
6
CONTINUOUS
10
7.29829
20
-2.79486
11
7.29829
21
-2.76744
0
LINE
8
BLACK
6
CONTINUOUS
10
7.29829
20
-2.76744
11
7.29583
21
-2.7699
0
LINE
8
BLACK
6
CONTINUOUS
10
7.29583
20
-2.7699
11
7.29511
21
-2.77041
0
LINE
8
BLACK
6
CONTINUOUS
10
7.29511
20
-2.77041
11
7.29507
21
-2.77046
0
LINE
8
BLACK
6
CONTINUOUS
10
7.29507
20
-2.77046
11
7.29132
21
-2.77233
0
LINE
8
BLACK
6
CONTINUOUS
10
7.29132
20
-2.77233
11
7.29033
21
-2.77262
0
LINE
8
BLACK
6
CONTINUOUS
10
7.29033
20
-2.77262
11
7.28837
21
-2.77215
0
LINE
8
BLACK
6
CONTINUOUS
10
7.28837
20
-2.77215
11
7.28717
21
-2.77053
0
LINE
8
BLACK
6
CONTINUOUS
10
7.28717
20
-2.77053
11
7.28729
21
-2.76851
0
LINE
8
BLACK
6
CONTINUOUS
10
7.28729
20
-2.76851
11
7.28868
21
-2.76705
0
LINE
8
BLACK
6
CONTINUOUS
10
7.28868
20
-2.76705
11
7.292
21
-2.76539
0
LINE
8
BLACK
6
CONTINUOUS
10
7.292
20
-2.76539
11
7.2952
21
-2.76218
0
LINE
8
BLACK
6
CONTINUOUS
10
7.2952
20
-2.76218
11
7.29879
21
-2.7568
0
LINE
8
BLACK
6
CONTINUOUS
10
7.29879
20
-2.7568
11
7.2995
21
-2.75606
0
LINE
8
BLACK
6
CONTINUOUS
10
7.2995
20
-2.75606
11
7.29966
21
-2.75601
0
LINE
8
BLACK
6
CONTINUOUS
10
7.29966
20
-2.75601
11
7.29977
21
-2.75588
0
LINE
8
BLACK
6
CONTINUOUS
10
7.29977
20
-2.75588
11
7.30061
21
-2.75573
0
LINE
8
BLACK
6
CONTINUOUS
10
7.30061
20
-2.75573
11
7.30143
21
-2.75549
0
LINE
8
BLACK
6
CONTINUOUS
10
7.30143
20
-2.75549
11
7.30159
21
-2.75556
0
LINE
8
BLACK
6
CONTINUOUS
10
7.24489
20
-2.75607
11
7.246
21
-2.75776
0
LINE
8
BLACK
6
CONTINUOUS
10
7.246
20
-2.75776
11
7.25266
21
-2.78574
0
LINE
8
BLACK
6
CONTINUOUS
10
7.25266
20
-2.78574
11
7.25715
21
-2.76893
0
LINE
8
BLACK
6
CONTINUOUS
10
7.25715
20
-2.76893
11
7.25758
21
-2.768
0
LINE
8
BLACK
6
CONTINUOUS
10
7.25758
20
-2.768
11
7.2578
21
-2.76784
0
LINE
8
BLACK
6
CONTINUOUS
10
7.2578
20
-2.76784
11
7.25791
21
-2.7676
0
LINE
8
BLACK
6
CONTINUOUS
10
7.25791
20
-2.7676
11
7.25861
21
-2.76728
0
LINE
8
BLACK
6
CONTINUOUS
10
7.25861
20
-2.76728
11
7.25923
21
-2.76684
0
LINE
8
BLACK
6
CONTINUOUS
10
7.25923
20
-2.76684
11
7.2595
21
-2.76686
0
LINE
8
BLACK
6
CONTINUOUS
10
7.2595
20
-2.76686
11
7.25975
21
-2.76675
0
LINE
8
BLACK
6
CONTINUOUS
10
7.25975
20
-2.76675
11
7.26048
21
-2.76695
0
LINE
8
BLACK
6
CONTINUOUS
10
7.26048
20
-2.76695
11
7.26124
21
-2.76701
0
LINE
8
BLACK
6
CONTINUOUS
10
7.26124
20
-2.76701
11
7.26144
21
-2.7672
0
LINE
8
BLACK
6
CONTINUOUS
10
7.26144
20
-2.7672
11
7.2617
21
-2.76727
0
LINE
8
BLACK
6
CONTINUOUS
10
7.2617
20
-2.76727
11
7.26213
21
-2.7679
0
LINE
8
BLACK
6
CONTINUOUS
10
7.26213
20
-2.7679
11
7.26267
21
-2.76844
0
LINE
8
BLACK
6
CONTINUOUS
10
7.26267
20
-2.76844
11
7.2627
21
-2.76871
0
LINE
8
BLACK
6
CONTINUOUS
10
7.2627
20
-2.76871
11
7.26285
21
-2.76893
0
LINE
8
BLACK
6
CONTINUOUS
10
7.26285
20
-2.76893
11
7.26734
21
-2.78574
0
LINE
8
BLACK
6
CONTINUOUS
10
7.26734
20
-2.78574
11
7.274
21
-2.75776
0
LINE
8
BLACK
6
CONTINUOUS
10
7.274
20
-2.75776
11
7.27441
21
-2.75682
0
LINE
8
BLACK
6
CONTINUOUS
10
7.27441
20
-2.75682
11
7.27603
21
-2.75561
0
LINE
8
BLACK
6
CONTINUOUS
10
7.27603
20
-2.75561
11
7.27805
21
-2.75573
0
LINE
8
BLACK
6
CONTINUOUS
10
7.27805
20
-2.75573
11
7.27951
21
-2.75712
0
LINE
8
BLACK
6
CONTINUOUS
10
7.27951
20
-2.75712
11
7.27975
21
-2.75912
0
LINE
8
BLACK
6
CONTINUOUS
10
7.27975
20
-2.75912
11
7.27037
21
-2.79849
0
LINE
8
BLACK
6
CONTINUOUS
10
7.27037
20
-2.79849
11
7.26996
21
-2.79944
0
LINE
8
BLACK
6
CONTINUOUS
10
7.26996
20
-2.79944
11
7.26972
21
-2.79962
0
LINE
8
BLACK
6
CONTINUOUS
10
7.26972
20
-2.79962
11
7.26958
21
-2.7999
0
LINE
8
BLACK
6
CONTINUOUS
10
7.26958
20
-2.7999
11
7.26893
21
-2.80021
0
LINE
8
BLACK
6
CONTINUOUS
10
7.26893
20
-2.80021
11
7.26834
21
-2.80064
0
LINE
8
BLACK
6
CONTINUOUS
10
7.26834
20
-2.80064
11
7.26803
21
-2.80062
0
LINE
8
BLACK
6
CONTINUOUS
10
7.26803
20
-2.80062
11
7.26775
21
-2.80075
0
LINE
8
BLACK
6
CONTINUOUS
10
7.26775
20
-2.80075
11
7.26705
21
-2.80056
0
LINE
8
BLACK
6
CONTINUOUS
10
7.26705
20
-2.80056
11
7.26633
21
-2.80052
0
LINE
8
BLACK
6
CONTINUOUS
10
7.26633
20
-2.80052
11
7.2661
21
-2.80031
0
LINE
8
BLACK
6
CONTINUOUS
10
7.2661
20
-2.80031
11
7.2658
21
-2.80023
0
LINE
8
BLACK
6
CONTINUOUS
10
7.2658
20
-2.80023
11
7.26539
21
-2.79963
0
LINE
8
BLACK
6
CONTINUOUS
10
7.26539
20
-2.79963
11
7.26486
21
-2.79913
0
LINE
8
BLACK
6
CONTINUOUS
10
7.26486
20
-2.79913
11
7.26482
21
-2.79883
0
LINE
8
BLACK
6
CONTINUOUS
10
7.26482
20
-2.79883
11
7.26465
21
-2.79857
0
LINE
8
BLACK
6
CONTINUOUS
10
7.26465
20
-2.79857
11
7.26
21
-2.78115
0
LINE
8
BLACK
6
CONTINUOUS
10
7.26
20
-2.78115
11
7.25535
21
-2.79857
0
LINE
8
BLACK
6
CONTINUOUS
10
7.25535
20
-2.79857
11
7.25492
21
-2.7995
0
LINE
8
BLACK
6
CONTINUOUS
10
7.25492
20
-2.7995
11
7.25467
21
-2.79968
0
LINE
8
BLACK
6
CONTINUOUS
10
7.25467
20
-2.79968
11
7.25453
21
-2.79996
0
LINE
8
BLACK
6
CONTINUOUS
10
7.25453
20
-2.79996
11
7.25386
21
-2.80024
0
LINE
8
BLACK
6
CONTINUOUS
10
7.25386
20
-2.80024
11
7.25327
21
-2.80066
0
LINE
8
BLACK
6
CONTINUOUS
10
7.25327
20
-2.80066
11
7.25296
21
-2.80063
0
LINE
8
BLACK
6
CONTINUOUS
10
7.25296
20
-2.80063
11
7.25268
21
-2.80076
0
LINE
8
BLACK
6
CONTINUOUS
10
7.25268
20
-2.80076
11
7.25198
21
-2.80055
0
LINE
8
BLACK
6
CONTINUOUS
10
7.25198
20
-2.80055
11
7.25126
21
-2.80049
0
LINE
8
BLACK
6
CONTINUOUS
10
7.25126
20
-2.80049
11
7.25104
21
-2.80027
0
LINE
8
BLACK
6
CONTINUOUS
10
7.25104
20
-2.80027
11
7.25074
21
-2.80018
0
LINE
8
BLACK
6
CONTINUOUS
10
7.25074
20
-2.80018
11
7.25034
21
-2.79957
0
LINE
8
BLACK
6
CONTINUOUS
10
7.25034
20
-2.79957
11
7.24983
21
-2.79906
0
LINE
8
BLACK
6
CONTINUOUS
10
7.24983
20
-2.79906
11
7.2498
21
-2.79875
0
LINE
8
BLACK
6
CONTINUOUS
10
7.2498
20
-2.79875
11
7.24963
21
-2.79849
0
LINE
8
BLACK
6
CONTINUOUS
10
7.24963
20
-2.79849
11
7.24025
21
-2.75912
0
LINE
8
BLACK
6
CONTINUOUS
10
7.24025
20
-2.75912
11
7.24019
21
-2.7581
0
LINE
8
BLACK
6
CONTINUOUS
10
7.24019
20
-2.7581
11
7.2411
21
-2.75629
0
LINE
8
BLACK
6
CONTINUOUS
10
7.2411
20
-2.75629
11
7.24295
21
-2.75549
0
LINE
8
BLACK
6
CONTINUOUS
10
7.24295
20
-2.75549
11
7.24489
21
-2.75607
0
LINE
8
BLACK
6
CONTINUOUS
10
5.46101
20
-2.67613
11
5.46115
21
-2.67611
0
LINE
8
BLACK
6
CONTINUOUS
10
5.46115
20
-2.67611
11
5.46126
21
-2.67618
0
LINE
8
BLACK
6
CONTINUOUS
10
5.46126
20
-2.67618
11
5.46159
21
-2.67623
0
LINE
8
BLACK
6
CONTINUOUS
10
5.46159
20
-2.67623
11
5.4622
21
-2.67675
0
LINE
8
BLACK
6
CONTINUOUS
10
5.4622
20
-2.67675
11
5.46288
21
-2.67716
0
LINE
8
BLACK
6
CONTINUOUS
10
5.46288
20
-2.67716
11
5.46295
21
-2.67738
0
LINE
8
BLACK
6
CONTINUOUS
10
5.46295
20
-2.67738
11
5.46313
21
-2.67753
0
LINE
8
BLACK
6
CONTINUOUS
10
5.46313
20
-2.67753
11
5.46327
21
-2.67832
0
LINE
8
BLACK
6
CONTINUOUS
10
5.46327
20
-2.67832
11
5.46353
21
-2.67907
0
LINE
8
BLACK
6
CONTINUOUS
10
5.46353
20
-2.67907
11
5.46344
21
-2.67929
0
LINE
8
BLACK
6
CONTINUOUS
10
5.46344
20
-2.67929
11
5.46349
21
-2.67952
0
LINE
8
BLACK
6
CONTINUOUS
10
5.46349
20
-2.67952
11
5.46309
21
-2.68021
0
LINE
8
BLACK
6
CONTINUOUS
10
5.46309
20
-2.68021
11
5.4628
21
-2.68095
0
LINE
8
BLACK
6
CONTINUOUS
10
5.4628
20
-2.68095
11
5.45384
21
-2.69119
0
LINE
8
BLACK
6
CONTINUOUS
10
5.45384
20
-2.69119
11
5.45409
21
-2.69123
0
LINE
8
BLACK
6
CONTINUOUS
10
5.45409
20
-2.69123
11
5.45422
21
-2.69135
0
LINE
8
BLACK
6
CONTINUOUS
10
5.45422
20
-2.69135
11
5.4544
21
-2.69137
0
LINE
8
BLACK
6
CONTINUOUS
10
5.4544
20
-2.69137
11
5.45815
21
-2.69324
0
LINE
8
BLACK
6
CONTINUOUS
10
5.45815
20
-2.69324
11
5.45886
21
-2.69377
0
LINE
8
BLACK
6
CONTINUOUS
10
5.45886
20
-2.69377
11
5.45892
21
-2.69379
0
LINE
8
BLACK
6
CONTINUOUS
10
5.45892
20
-2.69379
11
5.46079
21
-2.69567
0
LINE
8
BLACK
6
CONTINUOUS
10
5.46079
20
-2.69567
11
5.4613
21
-2.69639
0
LINE
8
BLACK
6
CONTINUOUS
10
5.4613
20
-2.69639
11
5.46134
21
-2.69644
0
LINE
8
BLACK
6
CONTINUOUS
10
5.46134
20
-2.69644
11
5.46322
21
-2.70019
0
LINE
8
BLACK
6
CONTINUOUS
10
5.46322
20
-2.70019
11
5.46351
21
-2.70117
0
LINE
8
BLACK
6
CONTINUOUS
10
5.46351
20
-2.70117
11
5.46347
21
-2.70134
0
LINE
8
BLACK
6
CONTINUOUS
10
5.46347
20
-2.70134
11
5.46353
21
-2.70151
0
LINE
8
BLACK
6
CONTINUOUS
10
5.46353
20
-2.70151
11
5.46353
21
-2.71088
0
LINE
8
BLACK
6
CONTINUOUS
10
5.46353
20
-2.71088
11
5.46335
21
-2.71189
0
LINE
8
BLACK
6
CONTINUOUS
10
5.46335
20
-2.71189
11
5.46324
21
-2.71203
0
LINE
8
BLACK
6
CONTINUOUS
10
5.46324
20
-2.71203
11
5.46322
21
-2.7122
0
LINE
8
BLACK
6
CONTINUOUS
10
5.46322
20
-2.7122
11
5.46134
21
-2.71595
0
LINE
8
BLACK
6
CONTINUOUS
10
5.46134
20
-2.71595
11
5.46082
21
-2.71666
0
LINE
8
BLACK
6
CONTINUOUS
10
5.46082
20
-2.71666
11
5.46079
21
-2.71672
0
LINE
8
BLACK
6
CONTINUOUS
10
5.46079
20
-2.71672
11
5.45892
21
-2.71859
0
LINE
8
BLACK
6
CONTINUOUS
10
5.45892
20
-2.71859
11
5.45819
21
-2.7191
0
LINE
8
BLACK
6
CONTINUOUS
10
5.45819
20
-2.7191
11
5.45815
21
-2.71915
0
LINE
8
BLACK
6
CONTINUOUS
10
5.45815
20
-2.71915
11
5.4544
21
-2.72102
0
LINE
8
BLACK
6
CONTINUOUS
10
5.4544
20
-2.72102
11
5.45342
21
-2.72131
0
LINE
8
BLACK
6
CONTINUOUS
10
5.45342
20
-2.72131
11
5.45324
21
-2.72127
0
LINE
8
BLACK
6
CONTINUOUS
10
5.45324
20
-2.72127
11
5.45308
21
-2.72133
0
LINE
8
BLACK
6
CONTINUOUS
10
5.45308
20
-2.72133
11
5.44183
21
-2.72133
0
LINE
8
BLACK
6
CONTINUOUS
10
5.44183
20
-2.72133
11
5.44082
21
-2.72115
0
LINE
8
BLACK
6
CONTINUOUS
10
5.44082
20
-2.72115
11
5.44068
21
-2.72104
0
LINE
8
BLACK
6
CONTINUOUS
10
5.44068
20
-2.72104
11
5.44051
21
-2.72102
0
LINE
8
BLACK
6
CONTINUOUS
10
5.44051
20
-2.72102
11
5.43676
21
-2.71915
0
LINE
8
BLACK
6
CONTINUOUS
10
5.43676
20
-2.71915
11
5.43605
21
-2.71862
0
LINE
8
BLACK
6
CONTINUOUS
10
5.43605
20
-2.71862
11
5.43599
21
-2.71859
0
LINE
8
BLACK
6
CONTINUOUS
10
5.43599
20
-2.71859
11
5.43412
21
-2.71672
0
LINE
8
BLACK
6
CONTINUOUS
10
5.43412
20
-2.71672
11
5.43353
21
-2.71588
0
LINE
8
BLACK
6
CONTINUOUS
10
5.43353
20
-2.71588
11
5.43335
21
-2.71387
0
LINE
8
BLACK
6
CONTINUOUS
10
5.43335
20
-2.71387
11
5.43451
21
-2.71221
0
LINE
8
BLACK
6
CONTINUOUS
10
5.43451
20
-2.71221
11
5.43646
21
-2.71169
0
LINE
8
BLACK
6
CONTINUOUS
10
5.43646
20
-2.71169
11
5.43829
21
-2.71254
0
LINE
8
BLACK
6
CONTINUOUS
10
5.43829
20
-2.71254
11
5.43983
21
-2.71408
0
LINE
8
BLACK
6
CONTINUOUS
10
5.43983
20
-2.71408
11
5.44253
21
-2.71543
0
LINE
8
BLACK
6
CONTINUOUS
10
5.44253
20
-2.71543
11
5.45238
21
-2.71543
0
LINE
8
BLACK
6
CONTINUOUS
10
5.45238
20
-2.71543
11
5.45508
21
-2.71408
0
LINE
8
BLACK
6
CONTINUOUS
10
5.45508
20
-2.71408
11
5.45628
21
-2.71288
0
LINE
8
BLACK
6
CONTINUOUS
10
5.45628
20
-2.71288
11
5.45762
21
-2.71018
0
LINE
8
BLACK
6
CONTINUOUS
10
5.45762
20
-2.71018
11
5.45762
21
-2.7022
0
LINE
8
BLACK
6
CONTINUOUS
10
5.45762
20
-2.7022
11
5.45628
21
-2.69951
0
LINE
8
BLACK
6
CONTINUOUS
10
5.45628
20
-2.69951
11
5.45508
21
-2.69831
0
LINE
8
BLACK
6
CONTINUOUS
10
5.45508
20
-2.69831
11
5.45238
21
-2.69696
0
LINE
8
BLACK
6
CONTINUOUS
10
5.45238
20
-2.69696
11
5.44745
21
-2.69696
0
LINE
8
BLACK
6
CONTINUOUS
10
5.44745
20
-2.69696
11
5.44702
21
-2.69688
0
LINE
8
BLACK
6
CONTINUOUS
10
5.44702
20
-2.69688
11
5.44688
21
-2.6969
0
LINE
8
BLACK
6
CONTINUOUS
10
5.44688
20
-2.6969
11
5.44678
21
-2.69684
0
LINE
8
BLACK
6
CONTINUOUS
10
5.44678
20
-2.69684
11
5.44644
21
-2.69678
0
LINE
8
BLACK
6
CONTINUOUS
10
5.44644
20
-2.69678
11
5.44583
21
-2.69627
0
LINE
8
BLACK
6
CONTINUOUS
10
5.44583
20
-2.69627
11
5.44515
21
-2.69586
0
LINE
8
BLACK
6
CONTINUOUS
10
5.44515
20
-2.69586
11
5.44508
21
-2.69564
0
LINE
8
BLACK
6
CONTINUOUS
10
5.44508
20
-2.69564
11
5.4449
21
-2.69548
0
LINE
8
BLACK
6
CONTINUOUS
10
5.4449
20
-2.69548
11
5.44476
21
-2.6947
0
LINE
8
BLACK
6
CONTINUOUS
10
5.44476
20
-2.6947
11
5.4445
21
-2.69395
0
LINE
8
BLACK
6
CONTINUOUS
10
5.4445
20
-2.69395
11
5.44459
21
-2.69373
0
LINE
8
BLACK
6
CONTINUOUS
10
5.44459
20
-2.69373
11
5.44455
21
-2.69349
0
LINE
8
BLACK
6
CONTINUOUS
10
5.44455
20
-2.69349
11
5.44494
21
-2.69281
0
LINE
8
BLACK
6
CONTINUOUS
10
5.44494
20
-2.69281
11
5.44523
21
-2.69206
0
LINE
8
BLACK
6
CONTINUOUS
10
5.44523
20
-2.69206
11
5.45407
21
-2.68196
0
LINE
8
BLACK
6
CONTINUOUS
10
5.45407
20
-2.68196
11
5.43621
21
-2.68196
0
LINE
8
BLACK
6
CONTINUOUS
10
5.43621
20
-2.68196
11
5.4352
21
-2.68178
0
LINE
8
BLACK
6
CONTINUOUS
10
5.4352
20
-2.68178
11
5.43365
21
-2.68049
0
LINE
8
BLACK
6
CONTINUOUS
10
5.43365
20
-2.68049
11
5.4333
21
-2.6785
0
LINE
8
BLACK
6
CONTINUOUS
10
5.4333
20
-2.6785
11
5.43431
21
-2.67675
0
LINE
8
BLACK
6
CONTINUOUS
10
5.43431
20
-2.67675
11
5.43621
21
-2.67606
0
LINE
8
BLACK
6
CONTINUOUS
10
5.43621
20
-2.67606
11
5.46058
21
-2.67606
0
LINE
8
BLACK
6
CONTINUOUS
10
5.46058
20
-2.67606
11
5.46101
21
-2.67613
0
LINE
8
BLACK
6
CONTINUOUS
10
5.42347
20
-2.67711
11
5.42416
21
-2.67901
0
LINE
8
BLACK
6
CONTINUOUS
10
5.42416
20
-2.67901
11
5.42416
21
-2.71838
0
LINE
8
BLACK
6
CONTINUOUS
10
5.42416
20
-2.71838
11
5.42398
21
-2.71939
0
LINE
8
BLACK
6
CONTINUOUS
10
5.42398
20
-2.71939
11
5.42268
21
-2.72094
0
LINE
8
BLACK
6
CONTINUOUS
10
5.42268
20
-2.72094
11
5.42069
21
-2.72129
0
LINE
8
BLACK
6
CONTINUOUS
10
5.42069
20
-2.72129
11
5.41895
21
-2.72028
0
LINE
8
BLACK
6
CONTINUOUS
10
5.41895
20
-2.72028
11
5.41825
21
-2.71838
0
LINE
8
BLACK
6
CONTINUOUS
10
5.41825
20
-2.71838
11
5.41825
21
-2.70071
0
LINE
8
BLACK
6
CONTINUOUS
10
5.41825
20
-2.70071
11
5.40166
21
-2.70071
0
LINE
8
BLACK
6
CONTINUOUS
10
5.40166
20
-2.70071
11
5.40166
21
-2.71838
0
LINE
8
BLACK
6
CONTINUOUS
10
5.40166
20
-2.71838
11
5.40148
21
-2.71939
0
LINE
8
BLACK
6
CONTINUOUS
10
5.40148
20
-2.71939
11
5.40019
21
-2.72094
0
LINE
8
BLACK
6
CONTINUOUS
10
5.40019
20
-2.72094
11
5.3982
21
-2.72129
0
LINE
8
BLACK
6
CONTINUOUS
10
5.3982
20
-2.72129
11
5.39645
21
-2.72028
0
LINE
8
BLACK
6
CONTINUOUS
10
5.39645
20
-2.72028
11
5.39576
21
-2.71838
0
LINE
8
BLACK
6
CONTINUOUS
10
5.39576
20
-2.71838
11
5.39576
21
-2.67901
0
LINE
8
BLACK
6
CONTINUOUS
10
5.39576
20
-2.67901
11
5.39594
21
-2.678
0
LINE
8
BLACK
6
CONTINUOUS
10
5.39594
20
-2.678
11
5.39723
21
-2.67645
0
LINE
8
BLACK
6
CONTINUOUS
10
5.39723
20
-2.67645
11
5.39922
21
-2.6761
0
LINE
8
BLACK
6
CONTINUOUS
10
5.39922
20
-2.6761
11
5.40097
21
-2.67711
0
LINE
8
BLACK
6
CONTINUOUS
10
5.40097
20
-2.67711
11
5.40166
21
-2.67901
0
LINE
8
BLACK
6
CONTINUOUS
10
5.40166
20
-2.67901
11
5.40166
21
-2.6948
0
LINE
8
BLACK
6
CONTINUOUS
10
5.40166
20
-2.6948
11
5.41825
21
-2.6948
0
LINE
8
BLACK
6
CONTINUOUS
10
5.41825
20
-2.6948
11
5.41825
21
-2.67901
0
LINE
8
BLACK
6
CONTINUOUS
10
5.41825
20
-2.67901
11
5.41843
21
-2.678
0
LINE
8
BLACK
6
CONTINUOUS
10
5.41843
20
-2.678
11
5.41973
21
-2.67645
0
LINE
8
BLACK
6
CONTINUOUS
10
5.41973
20
-2.67645
11
5.42172
21
-2.6761
0
LINE
8
BLACK
6
CONTINUOUS
10
5.42172
20
-2.6761
11
5.42347
21
-2.67711
0
LINE
8
BLACK
6
CONTINUOUS
10
7.42293
20
-2.66542
11
7.4231
21
-2.66539
0
LINE
8
BLACK
6
CONTINUOUS
10
7.4231
20
-2.66539
11
7.42384
21
-2.66582
0
LINE
8
BLACK
6
CONTINUOUS
10
7.42384
20
-2.66582
11
7.42462
21
-2.66617
0
LINE
8
BLACK
6
CONTINUOUS
10
7.42462
20
-2.66617
11
7.4247
21
-2.66632
0
LINE
8
BLACK
6
CONTINUOUS
10
7.4247
20
-2.66632
11
7.42485
21
-2.6664
0
LINE
8
BLACK
6
CONTINUOUS
10
7.42485
20
-2.6664
11
7.42514
21
-2.66721
0
LINE
8
BLACK
6
CONTINUOUS
10
7.42514
20
-2.66721
11
7.42552
21
-2.66798
0
LINE
8
BLACK
6
CONTINUOUS
10
7.42552
20
-2.66798
11
7.42548
21
-2.66814
0
LINE
8
BLACK
6
CONTINUOUS
10
7.42548
20
-2.66814
11
7.42554
21
-2.6683
0
LINE
8
BLACK
6
CONTINUOUS
10
7.42554
20
-2.6683
11
7.42554
21
-2.70472
0
LINE
8
BLACK
6
CONTINUOUS
10
7.42554
20
-2.70472
11
7.43383
21
-2.70472
0
LINE
8
BLACK
6
CONTINUOUS
10
7.43383
20
-2.70472
11
7.43484
21
-2.7049
0
LINE
8
BLACK
6
CONTINUOUS
10
7.43484
20
-2.7049
11
7.43639
21
-2.7062
0
LINE
8
BLACK
6
CONTINUOUS
10
7.43639
20
-2.7062
11
7.43674
21
-2.70818
0
LINE
8
BLACK
6
CONTINUOUS
10
7.43674
20
-2.70818
11
7.43573
21
-2.70993
0
LINE
8
BLACK
6
CONTINUOUS
10
7.43573
20
-2.70993
11
7.43383
21
-2.71062
0
LINE
8
BLACK
6
CONTINUOUS
10
7.43383
20
-2.71062
11
7.41133
21
-2.71062
0
LINE
8
BLACK
6
CONTINUOUS
10
7.41133
20
-2.71062
11
7.41032
21
-2.71045
0
LINE
8
BLACK
6
CONTINUOUS
10
7.41032
20
-2.71045
11
7.40878
21
-2.70915
0
LINE
8
BLACK
6
CONTINUOUS
10
7.40878
20
-2.70915
11
7.40843
21
-2.70716
0
LINE
8
BLACK
6
CONTINUOUS
10
7.40843
20
-2.70716
11
7.40944
21
-2.70541
0
LINE
8
BLACK
6
CONTINUOUS
10
7.40944
20
-2.70541
11
7.41133
21
-2.70472
0
LINE
8
BLACK
6
CONTINUOUS
10
7.41133
20
-2.70472
11
7.41963
21
-2.70472
0
LINE
8
BLACK
6
CONTINUOUS
10
7.41963
20
-2.70472
11
7.41963
21
-2.6773
0
LINE
8
BLACK
6
CONTINUOUS
10
7.41963
20
-2.6773
11
7.41717
21
-2.67976
0
LINE
8
BLACK
6
CONTINUOUS
10
7.41717
20
-2.67976
11
7.41645
21
-2.68027
0
LINE
8
BLACK
6
CONTINUOUS
10
7.41645
20
-2.68027
11
7.4164
21
-2.68032
0
LINE
8
BLACK
6
CONTINUOUS
10
7.4164
20
-2.68032
11
7.41266
21
-2.68219
0
LINE
8
BLACK
6
CONTINUOUS
10
7.41266
20
-2.68219
11
7.41167
21
-2.68248
0
LINE
8
BLACK
6
CONTINUOUS
10
7.41167
20
-2.68248
11
7.40971
21
-2.68201
0
LINE
8
BLACK
6
CONTINUOUS
10
7.40971
20
-2.68201
11
7.4085
21
-2.68039
0
LINE
8
BLACK
6
CONTINUOUS
10
7.4085
20
-2.68039
11
7.40863
21
-2.67838
0
LINE
8
BLACK
6
CONTINUOUS
10
7.40863
20
-2.67838
11
7.41001
21
-2.67691
0
LINE
8
BLACK
6
CONTINUOUS
10
7.41001
20
-2.67691
11
7.41334
21
-2.67525
0
LINE
8
BLACK
6
CONTINUOUS
10
7.41334
20
-2.67525
11
7.41654
21
-2.67204
0
LINE
8
BLACK
6
CONTINUOUS
10
7.41654
20
-2.67204
11
7.42013
21
-2.66666
0
LINE
8
BLACK
6
CONTINUOUS
10
7.42013
20
-2.66666
11
7.42083
21
-2.66592
0
LINE
8
BLACK
6
CONTINUOUS
10
7.42083
20
-2.66592
11
7.421
21
-2.66587
0
LINE
8
BLACK
6
CONTINUOUS
10
7.421
20
-2.66587
11
7.42111
21
-2.66574
0
LINE
8
BLACK
6
CONTINUOUS
10
7.42111
20
-2.66574
11
7.42195
21
-2.6656
0
LINE
8
BLACK
6
CONTINUOUS
10
7.42195
20
-2.6656
11
7.42277
21
-2.66535
0
LINE
8
BLACK
6
CONTINUOUS
10
7.42277
20
-2.66535
11
7.42293
21
-2.66542
0
LINE
8
BLACK
6
CONTINUOUS
10
7.39672
20
-2.6664
11
7.39741
21
-2.6683
0
LINE
8
BLACK
6
CONTINUOUS
10
7.39741
20
-2.6683
11
7.39741
21
-2.70767
0
LINE
8
BLACK
6
CONTINUOUS
10
7.39741
20
-2.70767
11
7.39724
21
-2.70868
0
LINE
8
BLACK
6
CONTINUOUS
10
7.39724
20
-2.70868
11
7.39594
21
-2.71023
0
LINE
8
BLACK
6
CONTINUOUS
10
7.39594
20
-2.71023
11
7.39395
21
-2.71058
0
LINE
8
BLACK
6
CONTINUOUS
10
7.39395
20
-2.71058
11
7.3922
21
-2.70957
0
LINE
8
BLACK
6
CONTINUOUS
10
7.3922
20
-2.70957
11
7.39151
21
-2.70767
0
LINE
8
BLACK
6
CONTINUOUS
10
7.39151
20
-2.70767
11
7.39151
21
-2.69
0
LINE
8
BLACK
6
CONTINUOUS
10
7.39151
20
-2.69
11
7.37492
21
-2.69
0
LINE
8
BLACK
6
CONTINUOUS
10
7.37492
20
-2.69
11
7.37492
21
-2.70767
0
LINE
8
BLACK
6
CONTINUOUS
10
7.37492
20
-2.70767
11
7.37474
21
-2.70868
0
LINE
8
BLACK
6
CONTINUOUS
10
7.37474
20
-2.70868
11
7.37344
21
-2.71023
0
LINE
8
BLACK
6
CONTINUOUS
10
7.37344
20
-2.71023
11
7.37145
21
-2.71058
0
LINE
8
BLACK
6
CONTINUOUS
10
7.37145
20
-2.71058
11
7.3697
21
-2.70957
0
LINE
8
BLACK
6
CONTINUOUS
10
7.3697
20
-2.70957
11
7.36901
21
-2.70767
0
LINE
8
BLACK
6
CONTINUOUS
10
7.36901
20
-2.70767
11
7.36901
21
-2.6683
0
LINE
8
BLACK
6
CONTINUOUS
10
7.36901
20
-2.6683
11
7.36919
21
-2.66729
0
LINE
8
BLACK
6
CONTINUOUS
10
7.36919
20
-2.66729
11
7.37049
21
-2.66574
0
LINE
8
BLACK
6
CONTINUOUS
10
7.37049
20
-2.66574
11
7.37248
21
-2.66539
0
LINE
8
BLACK
6
CONTINUOUS
10
7.37248
20
-2.66539
11
7.37423
21
-2.6664
0
LINE
8
BLACK
6
CONTINUOUS
10
7.37423
20
-2.6664
11
7.37492
21
-2.6683
0
LINE
8
BLACK
6
CONTINUOUS
10
7.37492
20
-2.6683
11
7.37492
21
-2.6841
0
LINE
8
BLACK
6
CONTINUOUS
10
7.37492
20
-2.6841
11
7.39151
21
-2.6841
0
LINE
8
BLACK
6
CONTINUOUS
10
7.39151
20
-2.6841
11
7.39151
21
-2.6683
0
LINE
8
BLACK
6
CONTINUOUS
10
7.39151
20
-2.6683
11
7.39169
21
-2.66729
0
LINE
8
BLACK
6
CONTINUOUS
10
7.39169
20
-2.66729
11
7.39299
21
-2.66574
0
LINE
8
BLACK
6
CONTINUOUS
10
7.39299
20
-2.66574
11
7.39497
21
-2.66539
0
LINE
8
BLACK
6
CONTINUOUS
10
7.39497
20
-2.66539
11
7.39672
21
-2.6664
0
LINE
8
BLACK
6
CONTINUOUS
10
6.92089
20
-3.11899
11
6.92406
21
-3.10272
0
LINE
8
BLACK
6
CONTINUOUS
10
6.92406
20
-3.10272
11
6.92868
21
-3.08681
0
LINE
8
BLACK
6
CONTINUOUS
10
6.92868
20
-3.08681
11
6.93473
21
-3.07138
0
LINE
8
BLACK
6
CONTINUOUS
10
6.93473
20
-3.07138
11
6.94214
21
-3.05657
0
LINE
8
BLACK
6
CONTINUOUS
10
6.94214
20
-3.05657
11
6.95088
21
-3.04248
0
LINE
8
BLACK
6
CONTINUOUS
10
6.95088
20
-3.04248
11
6.96085
21
-3.02925
0
LINE
8
BLACK
6
CONTINUOUS
10
6.96085
20
-3.02925
11
6.97198
21
-3.01698
0
LINE
8
BLACK
6
CONTINUOUS
10
6.97198
20
-3.01698
11
6.98418
21
-3.00576
0
LINE
8
BLACK
6
CONTINUOUS
10
6.98418
20
-3.00576
11
6.99734
21
-2.99569
0
LINE
8
BLACK
6
CONTINUOUS
10
6.99734
20
-2.99569
11
7.01136
21
-2.98686
0
LINE
8
BLACK
6
CONTINUOUS
10
7.01136
20
-2.98686
11
7.02613
21
-2.97934
0
LINE
8
BLACK
6
CONTINUOUS
10
7.02613
20
-2.97934
11
7.04151
21
-2.97319
0
LINE
8
BLACK
6
CONTINUOUS
10
7.04151
20
-2.97319
11
7.05739
21
-2.96845
0
LINE
8
BLACK
6
CONTINUOUS
10
7.05739
20
-2.96845
11
7.07363
21
-2.96518
0
LINE
8
BLACK
6
CONTINUOUS
10
7.07363
20
-2.96518
11
7.09011
21
-2.96339
0
LINE
8
BLACK
6
CONTINUOUS
10
7.09011
20
-2.96339
11
7.10667
21
-2.9631
0
LINE
8
BLACK
6
CONTINUOUS
10
7.10667
20
-2.9631
11
7.1232
21
-2.96431
0
LINE
8
BLACK
6
CONTINUOUS
10
7.1232
20
-2.96431
11
7.13955
21
-2.96702
0
LINE
8
BLACK
6
CONTINUOUS
10
7.13955
20
-2.96702
11
7.15558
21
-2.9712
0
LINE
8
BLACK
6
CONTINUOUS
10
7.15558
20
-2.9712
11
7.17117
21
-2.97681
0
LINE
8
BLACK
6
CONTINUOUS
10
7.17117
20
-2.97681
11
7.18619
21
-2.98381
0
LINE
8
BLACK
6
CONTINUOUS
10
7.18619
20
-2.98381
11
7.20051
21
-2.99215
0
LINE
8
BLACK
6
CONTINUOUS
10
7.20051
20
-2.99215
11
7.21402
21
-3.00175
0
LINE
8
BLACK
6
CONTINUOUS
10
7.21402
20
-3.00175
11
7.2266
21
-3.01253
0
LINE
8
BLACK
6
CONTINUOUS
10
7.2266
20
-3.01253
11
7.23815
21
-3.02441
0
LINE
8
BLACK
6
CONTINUOUS
10
7.23815
20
-3.02441
11
7.24858
21
-3.03729
0
LINE
8
BLACK
6
CONTINUOUS
10
7.24858
20
-3.03729
11
7.2578
21
-3.05106
0
LINE
8
BLACK
6
CONTINUOUS
10
7.2578
20
-3.05106
11
7.26573
21
-3.06561
0
LINE
8
BLACK
6
CONTINUOUS
10
7.26573
20
-3.06561
11
7.27231
21
-3.08081
0
LINE
8
BLACK
6
CONTINUOUS
10
7.27231
20
-3.08081
11
7.27749
21
-3.09655
0
LINE
8
BLACK
6
CONTINUOUS
10
7.27749
20
-3.09655
11
7.28121
21
-3.1127
0
LINE
8
BLACK
6
CONTINUOUS
10
7.28121
20
-3.1127
11
7.28346
21
-3.12912
0
LINE
8
BLACK
6
CONTINUOUS
10
7.28346
20
-3.12912
11
7.28421
21
-3.14567
0
LINE
8
BLACK
6
CONTINUOUS
10
7.28421
20
-3.14567
11
7.28417
21
-3.14949
0
LINE
8
BLACK
6
CONTINUOUS
10
7.28417
20
-3.14949
11
7.28308
21
-3.16603
0
LINE
8
BLACK
6
CONTINUOUS
10
7.28308
20
-3.16603
11
7.28048
21
-3.18239
0
LINE
8
BLACK
6
CONTINUOUS
10
7.28048
20
-3.18239
11
7.27642
21
-3.19846
0
LINE
8
BLACK
6
CONTINUOUS
10
7.27642
20
-3.19846
11
7.27092
21
-3.21409
0
LINE
8
BLACK
6
CONTINUOUS
10
7.27092
20
-3.21409
11
7.26402
21
-3.22915
0
LINE
8
BLACK
6
CONTINUOUS
10
7.26402
20
-3.22915
11
7.25578
21
-3.24353
0
LINE
8
BLACK
6
CONTINUOUS
10
7.25578
20
-3.24353
11
7.24628
21
-3.25711
0
LINE
8
BLACK
6
CONTINUOUS
10
7.24628
20
-3.25711
11
7.23558
21
-3.26976
0
LINE
8
BLACK
6
CONTINUOUS
10
7.23558
20
-3.26976
11
7.22378
21
-3.2814
0
LINE
8
BLACK
6
CONTINUOUS
10
7.22378
20
-3.2814
11
7.21098
21
-3.29191
0
LINE
8
BLACK
6
CONTINUOUS
10
7.21098
20
-3.29191
11
7.19728
21
-3.30123
0
LINE
8
BLACK
6
CONTINUOUS
10
7.19728
20
-3.30123
11
7.18278
21
-3.30926
0
LINE
8
BLACK
6
CONTINUOUS
10
7.18278
20
-3.30926
11
7.16762
21
-3.31595
0
LINE
8
BLACK
6
CONTINUOUS
10
7.16762
20
-3.31595
11
7.15192
21
-3.32123
0
LINE
8
BLACK
6
CONTINUOUS
10
7.15192
20
-3.32123
11
7.1358
21
-3.32507
0
LINE
8
BLACK
6
CONTINUOUS
10
7.1358
20
-3.32507
11
7.1194
21
-3.32744
0
LINE
8
BLACK
6
CONTINUOUS
10
7.1194
20
-3.32744
11
7.10285
21
-3.3283
0
LINE
8
BLACK
6
CONTINUOUS
10
7.10285
20
-3.3283
11
7.08629
21
-3.32767
0
LINE
8
BLACK
6
CONTINUOUS
10
7.08629
20
-3.32767
11
7.06986
21
-3.32553
0
LINE
8
BLACK
6
CONTINUOUS
10
7.06986
20
-3.32553
11
7.05369
21
-3.32192
0
LINE
8
BLACK
6
CONTINUOUS
10
7.05369
20
-3.32192
11
7.03791
21
-3.31685
0
LINE
8
BLACK
6
CONTINUOUS
10
7.03791
20
-3.31685
11
7.02266
21
-3.31038
0
LINE
8
BLACK
6
CONTINUOUS
10
7.02266
20
-3.31038
11
7.00806
21
-3.30255
0
LINE
8
BLACK
6
CONTINUOUS
10
7.00806
20
-3.30255
11
6.99422
21
-3.29343
0
LINE
8
BLACK
6
CONTINUOUS
10
6.99422
20
-3.29343
11
6.98127
21
-3.28309
0
LINE
8
BLACK
6
CONTINUOUS
10
6.98127
20
-3.28309
11
6.96931
21
-3.27162
0
LINE
8
BLACK
6
CONTINUOUS
10
6.96931
20
-3.27162
11
6.95844
21
-3.25912
0
LINE
8
BLACK
6
CONTINUOUS
10
6.95844
20
-3.25912
11
6.94875
21
-3.24568
0
LINE
8
BLACK
6
CONTINUOUS
10
6.94875
20
-3.24568
11
6.94031
21
-3.23141
0
LINE
8
BLACK
6
CONTINUOUS
10
6.94031
20
-3.23141
11
6.93321
21
-3.21645
0
LINE
8
BLACK
6
CONTINUOUS
10
6.93321
20
-3.21645
11
6.92748
21
-3.20089
0
LINE
8
BLACK
6
CONTINUOUS
10
6.92748
20
-3.20089
11
6.9232
21
-3.18489
0
LINE
8
BLACK
6
CONTINUOUS
10
6.9232
20
-3.18489
11
6.92038
21
-3.16856
0
LINE
8
BLACK
6
CONTINUOUS
10
6.92038
20
-3.16856
11
6.91905
21
-3.15204
0
LINE
8
BLACK
6
CONTINUOUS
10
6.91905
20
-3.15204
11
6.91905
21
-3.15189
0
LINE
8
BLACK
6
CONTINUOUS
10
6.91905
20
-3.15189
11
6.91922
21
-3.13547
0
LINE
8
BLACK
6
CONTINUOUS
10
6.91922
20
-3.13547
11
6.92089
21
-3.11899
0
LINE
8
BLACK
6
CONTINUOUS
10
6.92762
20
-3.18391
11
6.93181
21
-3.19952
0
LINE
8
BLACK
6
CONTINUOUS
10
6.93181
20
-3.19952
11
6.93739
21
-3.21469
0
LINE
8
BLACK
6
CONTINUOUS
10
6.93739
20
-3.21469
11
6.94432
21
-3.22928
0
LINE
8
BLACK
6
CONTINUOUS
10
6.94432
20
-3.22928
11
6.95254
21
-3.24319
0
LINE
8
BLACK
6
CONTINUOUS
10
6.95254
20
-3.24319
11
6.96199
21
-3.2563
0
LINE
8
BLACK
6
CONTINUOUS
10
6.96199
20
-3.2563
11
6.9726
21
-3.26849
0
LINE
8
BLACK
6
CONTINUOUS
10
6.9726
20
-3.26849
11
6.98426
21
-3.27968
0
LINE
8
BLACK
6
CONTINUOUS
10
6.98426
20
-3.27968
11
6.99689
21
-3.28976
0
LINE
8
BLACK
6
CONTINUOUS
10
6.99689
20
-3.28976
11
7.01038
21
-3.29865
0
LINE
8
BLACK
6
CONTINUOUS
10
7.01038
20
-3.29865
11
7.02462
21
-3.30629
0
LINE
8
BLACK
6
CONTINUOUS
10
7.02462
20
-3.30629
11
7.03949
21
-3.3126
0
LINE
8
BLACK
6
CONTINUOUS
10
7.03949
20
-3.3126
11
7.05488
21
-3.31754
0
LINE
8
BLACK
6
CONTINUOUS
10
7.05488
20
-3.31754
11
7.07065
21
-3.32107
0
LINE
8
BLACK
6
CONTINUOUS
10
7.07065
20
-3.32107
11
7.08667
21
-3.32315
0
LINE
8
BLACK
6
CONTINUOUS
10
7.08667
20
-3.32315
11
7.10282
21
-3.32377
0
LINE
8
BLACK
6
CONTINUOUS
10
7.10282
20
-3.32377
11
7.11895
21
-3.32292
0
LINE
8
BLACK
6
CONTINUOUS
10
7.11895
20
-3.32292
11
7.13495
21
-3.32062
0
LINE
8
BLACK
6
CONTINUOUS
10
7.13495
20
-3.32062
11
7.15067
21
-3.31688
0
LINE
8
BLACK
6
CONTINUOUS
10
7.15067
20
-3.31688
11
7.16598
21
-3.31172
0
LINE
8
BLACK
6
CONTINUOUS
10
7.16598
20
-3.31172
11
7.18077
21
-3.3052
0
LINE
8
BLACK
6
CONTINUOUS
10
7.18077
20
-3.3052
11
7.1949
21
-3.29737
0
LINE
8
BLACK
6
CONTINUOUS
10
7.1949
20
-3.29737
11
7.20826
21
-3.28828
0
LINE
8
BLACK
6
CONTINUOUS
10
7.20826
20
-3.28828
11
7.22075
21
-3.27803
0
LINE
8
BLACK
6
CONTINUOUS
10
7.22075
20
-3.27803
11
7.23226
21
-3.26668
0
LINE
8
BLACK
6
CONTINUOUS
10
7.23226
20
-3.26668
11
7.24269
21
-3.25434
0
LINE
8
BLACK
6
CONTINUOUS
10
7.24269
20
-3.25434
11
7.25195
21
-3.2411
0
LINE
8
BLACK
6
CONTINUOUS
10
7.25195
20
-3.2411
11
7.25998
21
-3.22708
0
LINE
8
BLACK
6
CONTINUOUS
10
7.25998
20
-3.22708
11
7.26671
21
-3.21239
0
LINE
8
BLACK
6
CONTINUOUS
10
7.26671
20
-3.21239
11
7.27208
21
-3.19715
0
LINE
8
BLACK
6
CONTINUOUS
10
7.27208
20
-3.19715
11
7.27604
21
-3.18148
0
LINE
8
BLACK
6
CONTINUOUS
10
7.27604
20
-3.18148
11
7.27857
21
-3.16552
0
LINE
8
BLACK
6
CONTINUOUS
10
7.27857
20
-3.16552
11
7.27964
21
-3.1494
0
LINE
8
BLACK
6
CONTINUOUS
10
7.27964
20
-3.1494
11
7.27968
21
-3.14567
0
LINE
8
BLACK
6
CONTINUOUS
10
7.27968
20
-3.14567
11
7.27895
21
-3.12953
0
LINE
8
BLACK
6
CONTINUOUS
10
7.27895
20
-3.12953
11
7.27675
21
-3.11352
0
LINE
8
BLACK
6
CONTINUOUS
10
7.27675
20
-3.11352
11
7.27312
21
-3.09777
0
LINE
8
BLACK
6
CONTINUOUS
10
7.27312
20
-3.09777
11
7.26807
21
-3.08242
0
LINE
8
BLACK
6
CONTINUOUS
10
7.26807
20
-3.08242
11
7.26165
21
-3.06759
0
LINE
8
BLACK
6
CONTINUOUS
10
7.26165
20
-3.06759
11
7.25392
21
-3.05341
0
LINE
8
BLACK
6
CONTINUOUS
10
7.25392
20
-3.05341
11
7.24493
21
-3.03998
0
LINE
8
BLACK
6
CONTINUOUS
10
7.24493
20
-3.03998
11
7.23476
21
-3.02742
0
LINE
8
BLACK
6
CONTINUOUS
10
7.23476
20
-3.02742
11
7.2235
21
-3.01584
0
LINE
8
BLACK
6
CONTINUOUS
10
7.2235
20
-3.01584
11
7.21123
21
-3.00532
0
LINE
8
BLACK
6
CONTINUOUS
10
7.21123
20
-3.00532
11
7.19806
21
-2.99596
0
LINE
8
BLACK
6
CONTINUOUS
10
7.19806
20
-2.99596
11
7.18409
21
-2.98783
0
LINE
8
BLACK
6
CONTINUOUS
10
7.18409
20
-2.98783
11
7.16945
21
-2.981
0
LINE
8
BLACK
6
CONTINUOUS
10
7.16945
20
-2.981
11
7.15424
21
-2.97553
0
LINE
8
BLACK
6
CONTINUOUS
10
7.15424
20
-2.97553
11
7.13861
21
-2.97146
0
LINE
8
BLACK
6
CONTINUOUS
10
7.13861
20
-2.97146
11
7.12266
21
-2.96882
0
LINE
8
BLACK
6
CONTINUOUS
10
7.12266
20
-2.96882
11
7.10655
21
-2.96763
0
LINE
8
BLACK
6
CONTINUOUS
10
7.10655
20
-2.96763
11
7.09039
21
-2.96792
0
LINE
8
BLACK
6
CONTINUOUS
10
7.09039
20
-2.96792
11
7.07433
21
-2.96966
0
LINE
8
BLACK
6
CONTINUOUS
10
7.07433
20
-2.96966
11
7.05849
21
-2.97285
0
LINE
8
BLACK
6
CONTINUOUS
10
7.05849
20
-2.97285
11
7.043
21
-2.97747
0
LINE
8
BLACK
6
CONTINUOUS
10
7.043
20
-2.97747
11
7.028
21
-2.98347
0
LINE
8
BLACK
6
CONTINUOUS
10
7.028
20
-2.98347
11
7.0136
21
-2.99081
0
LINE
8
BLACK
6
CONTINUOUS
10
7.0136
20
-2.99081
11
6.99993
21
-2.99942
0
LINE
8
BLACK
6
CONTINUOUS
10
6.99993
20
-2.99942
11
6.98709
21
-3.00923
0
LINE
8
BLACK
6
CONTINUOUS
10
6.98709
20
-3.00923
11
6.9752
21
-3.02017
0
LINE
8
BLACK
6
CONTINUOUS
10
6.9752
20
-3.02017
11
6.96434
21
-3.03214
0
LINE
8
BLACK
6
CONTINUOUS
10
6.96434
20
-3.03214
11
6.95462
21
-3.04505
0
LINE
8
BLACK
6
CONTINUOUS
10
6.95462
20
-3.04505
11
6.9461
21
-3.05878
0
LINE
8
BLACK
6
CONTINUOUS
10
6.9461
20
-3.05878
11
6.93887
21
-3.07323
0
LINE
8
BLACK
6
CONTINUOUS
10
6.93887
20
-3.07323
11
6.93297
21
-3.08827
0
LINE
8
BLACK
6
CONTINUOUS
10
6.93297
20
-3.08827
11
6.92846
21
-3.10379
0
LINE
8
BLACK
6
CONTINUOUS
10
6.92846
20
-3.10379
11
6.92538
21
-3.11965
0
LINE
8
BLACK
6
CONTINUOUS
10
6.92538
20
-3.11965
11
6.92375
21
-3.13573
0
LINE
8
BLACK
6
CONTINUOUS
10
6.92375
20
-3.13573
11
6.92358
21
-3.15189
0
LINE
8
BLACK
6
CONTINUOUS
10
6.92358
20
-3.15189
11
6.92487
21
-3.16799
0
LINE
8
BLACK
6
CONTINUOUS
10
6.92487
20
-3.16799
11
6.92762
21
-3.18391
0
LINE
8
BLACK
6
CONTINUOUS
10
4.92089
20
-3.11899
11
4.92406
21
-3.10272
0
LINE
8
BLACK
6
CONTINUOUS
10
4.92406
20
-3.10272
11
4.92868
21
-3.08681
0
LINE
8
BLACK
6
CONTINUOUS
10
4.92868
20
-3.08681
11
4.93473
21
-3.07138
0
LINE
8
BLACK
6
CONTINUOUS
10
4.93473
20
-3.07138
11
4.94214
21
-3.05657
0
LINE
8
BLACK
6
CONTINUOUS
10
4.94214
20
-3.05657
11
4.95088
21
-3.04248
0
LINE
8
BLACK
6
CONTINUOUS
10
4.95088
20
-3.04248
11
4.96085
21
-3.02925
0
LINE
8
BLACK
6
CONTINUOUS
10
4.96085
20
-3.02925
11
4.97198
21
-3.01698
0
LINE
8
BLACK
6
CONTINUOUS
10
4.97198
20
-3.01698
11
4.98418
21
-3.00576
0
LINE
8
BLACK
6
CONTINUOUS
10
4.98418
20
-3.00576
11
4.99734
21
-2.99569
0
LINE
8
BLACK
6
CONTINUOUS
10
4.99734
20
-2.99569
11
5.01136
21
-2.98686
0
LINE
8
BLACK
6
CONTINUOUS
10
5.01136
20
-2.98686
11
5.02613
21
-2.97934
0
LINE
8
BLACK
6
CONTINUOUS
10
5.02613
20
-2.97934
11
5.04151
21
-2.97319
0
LINE
8
BLACK
6
CONTINUOUS
10
5.04151
20
-2.97319
11
5.05739
21
-2.96845
0
LINE
8
BLACK
6
CONTINUOUS
10
5.05739
20
-2.96845
11
5.07363
21
-2.96518
0
LINE
8
BLACK
6
CONTINUOUS
10
5.07363
20
-2.96518
11
5.09011
21
-2.96339
0
LINE
8
BLACK
6
CONTINUOUS
10
5.09011
20
-2.96339
11
5.10667
21
-2.9631
0
LINE
8
BLACK
6
CONTINUOUS
10
5.10667
20
-2.9631
11
5.1232
21
-2.96431
0
LINE
8
BLACK
6
CONTINUOUS
10
5.1232
20
-2.96431
11
5.13955
21
-2.96702
0
LINE
8
BLACK
6
CONTINUOUS
10
5.13955
20
-2.96702
11
5.15558
21
-2.9712
0
LINE
8
BLACK
6
CONTINUOUS
10
5.15558
20
-2.9712
11
5.17117
21
-2.97681
0
LINE
8
BLACK
6
CONTINUOUS
10
5.17117
20
-2.97681
11
5.18619
21
-2.98381
0
LINE
8
BLACK
6
CONTINUOUS
10
5.18619
20
-2.98381
11
5.20051
21
-2.99215
0
LINE
8
BLACK
6
CONTINUOUS
10
5.20051
20
-2.99215
11
5.21402
21
-3.00175
0
LINE
8
BLACK
6
CONTINUOUS
10
5.21402
20
-3.00175
11
5.2266
21
-3.01253
0
LINE
8
BLACK
6
CONTINUOUS
10
5.2266
20
-3.01253
11
5.23815
21
-3.02441
0
LINE
8
BLACK
6
CONTINUOUS
10
5.23815
20
-3.02441
11
5.24858
21
-3.03729
0
LINE
8
BLACK
6
CONTINUOUS
10
5.24858
20
-3.03729
11
5.2578
21
-3.05106
0
LINE
8
BLACK
6
CONTINUOUS
10
5.2578
20
-3.05106
11
5.26573
21
-3.06561
0
LINE
8
BLACK
6
CONTINUOUS
10
5.26573
20
-3.06561
11
5.27231
21
-3.08081
0
LINE
8
BLACK
6
CONTINUOUS
10
5.27231
20
-3.08081
11
5.27749
21
-3.09655
0
LINE
8
BLACK
6
CONTINUOUS
10
5.27749
20
-3.09655
11
5.28121
21
-3.1127
0
LINE
8
BLACK
6
CONTINUOUS
10
5.28121
20
-3.1127
11
5.28346
21
-3.12912
0
LINE
8
BLACK
6
CONTINUOUS
10
5.28346
20
-3.12912
11
5.28421
21
-3.14567
0
LINE
8
BLACK
6
CONTINUOUS
10
5.28421
20
-3.14567
11
5.28417
21
-3.14949
0
LINE
8
BLACK
6
CONTINUOUS
10
5.28417
20
-3.14949
11
5.28308
21
-3.16603
0
LINE
8
BLACK
6
CONTINUOUS
10
5.28308
20
-3.16603
11
5.28048
21
-3.18239
0
LINE
8
BLACK
6
CONTINUOUS
10
5.28048
20
-3.18239
11
5.27642
21
-3.19846
0
LINE
8
BLACK
6
CONTINUOUS
10
5.27642
20
-3.19846
11
5.27092
21
-3.21409
0
LINE
8
BLACK
6
CONTINUOUS
10
5.27092
20
-3.21409
11
5.26402
21
-3.22915
0
LINE
8
BLACK
6
CONTINUOUS
10
5.26402
20
-3.22915
11
5.25578
21
-3.24353
0
LINE
8
BLACK
6
CONTINUOUS
10
5.25578
20
-3.24353
11
5.24628
21
-3.25711
0
LINE
8
BLACK
6
CONTINUOUS
10
5.24628
20
-3.25711
11
5.23558
21
-3.26976
0
LINE
8
BLACK
6
CONTINUOUS
10
5.23558
20
-3.26976
11
5.22378
21
-3.2814
0
LINE
8
BLACK
6
CONTINUOUS
10
5.22378
20
-3.2814
11
5.21098
21
-3.29191
0
LINE
8
BLACK
6
CONTINUOUS
10
5.21098
20
-3.29191
11
5.19728
21
-3.30123
0
LINE
8
BLACK
6
CONTINUOUS
10
5.19728
20
-3.30123
11
5.18278
21
-3.30926
0
LINE
8
BLACK
6
CONTINUOUS
10
5.18278
20
-3.30926
11
5.16762
21
-3.31595
0
LINE
8
BLACK
6
CONTINUOUS
10
5.16762
20
-3.31595
11
5.15192
21
-3.32123
0
LINE
8
BLACK
6
CONTINUOUS
10
5.15192
20
-3.32123
11
5.1358
21
-3.32507
0
LINE
8
BLACK
6
CONTINUOUS
10
5.1358
20
-3.32507
11
5.1194
21
-3.32744
0
LINE
8
BLACK
6
CONTINUOUS
10
5.1194
20
-3.32744
11
5.10285
21
-3.3283
0
LINE
8
BLACK
6
CONTINUOUS
10
5.10285
20
-3.3283
11
5.08629
21
-3.32767
0
LINE
8
BLACK
6
CONTINUOUS
10
5.08629
20
-3.32767
11
5.06986
21
-3.32553
0
LINE
8
BLACK
6
CONTINUOUS
10
5.06986
20
-3.32553
11
5.05369
21
-3.32192
0
LINE
8
BLACK
6
CONTINUOUS
10
5.05369
20
-3.32192
11
5.03791
21
-3.31685
0
LINE
8
BLACK
6
CONTINUOUS
10
5.03791
20
-3.31685
11
5.02266
21
-3.31038
0
LINE
8
BLACK
6
CONTINUOUS
10
5.02266
20
-3.31038
11
5.00806
21
-3.30255
0
LINE
8
BLACK
6
CONTINUOUS
10
5.00806
20
-3.30255
11
4.99422
21
-3.29343
0
LINE
8
BLACK
6
CONTINUOUS
10
4.99422
20
-3.29343
11
4.98127
21
-3.28309
0
LINE
8
BLACK
6
CONTINUOUS
10
4.98127
20
-3.28309
11
4.96931
21
-3.27162
0
LINE
8
BLACK
6
CONTINUOUS
10
4.96931
20
-3.27162
11
4.95844
21
-3.25912
0
LINE
8
BLACK
6
CONTINUOUS
10
4.95844
20
-3.25912
11
4.94875
21
-3.24568
0
LINE
8
BLACK
6
CONTINUOUS
10
4.94875
20
-3.24568
11
4.94031
21
-3.23141
0
LINE
8
BLACK
6
CONTINUOUS
10
4.94031
20
-3.23141
11
4.93321
21
-3.21645
0
LINE
8
BLACK
6
CONTINUOUS
10
4.93321
20
-3.21645
11
4.92748
21
-3.20089
0
LINE
8
BLACK
6
CONTINUOUS
10
4.92748
20
-3.20089
11
4.9232
21
-3.18489
0
LINE
8
BLACK
6
CONTINUOUS
10
4.9232
20
-3.18489
11
4.92038
21
-3.16856
0
LINE
8
BLACK
6
CONTINUOUS
10
4.92038
20
-3.16856
11
4.91905
21
-3.15204
0
LINE
8
BLACK
6
CONTINUOUS
10
4.91905
20
-3.15204
11
4.91905
21
-3.15189
0
LINE
8
BLACK
6
CONTINUOUS
10
4.91905
20
-3.15189
11
4.91922
21
-3.13547
0
LINE
8
BLACK
6
CONTINUOUS
10
4.91922
20
-3.13547
11
4.92089
21
-3.11899
0
LINE
8
BLACK
6
CONTINUOUS
10
4.92762
20
-3.18391
11
4.93181
21
-3.19952
0
LINE
8
BLACK
6
CONTINUOUS
10
4.93181
20
-3.19952
11
4.93739
21
-3.21469
0
LINE
8
BLACK
6
CONTINUOUS
10
4.93739
20
-3.21469
11
4.94432
21
-3.22928
0
LINE
8
BLACK
6
CONTINUOUS
10
4.94432
20
-3.22928
11
4.95254
21
-3.24319
0
LINE
8
BLACK
6
CONTINUOUS
10
4.95254
20
-3.24319
11
4.96199
21
-3.2563
0
LINE
8
BLACK
6
CONTINUOUS
10
4.96199
20
-3.2563
11
4.9726
21
-3.26849
0
LINE
8
BLACK
6
CONTINUOUS
10
4.9726
20
-3.26849
11
4.98426
21
-3.27968
0
LINE
8
BLACK
6
CONTINUOUS
10
4.98426
20
-3.27968
11
4.99689
21
-3.28976
0
LINE
8
BLACK
6
CONTINUOUS
10
4.99689
20
-3.28976
11
5.01038
21
-3.29865
0
LINE
8
BLACK
6
CONTINUOUS
10
5.01038
20
-3.29865
11
5.02462
21
-3.30629
0
LINE
8
BLACK
6
CONTINUOUS
10
5.02462
20
-3.30629
11
5.03949
21
-3.3126
0
LINE
8
BLACK
6
CONTINUOUS
10
5.03949
20
-3.3126
11
5.05488
21
-3.31754
0
LINE
8
BLACK
6
CONTINUOUS
10
5.05488
20
-3.31754
11
5.07065
21
-3.32107
0
LINE
8
BLACK
6
CONTINUOUS
10
5.07065
20
-3.32107
11
5.08667
21
-3.32315
0
LINE
8
BLACK
6
CONTINUOUS
10
5.08667
20
-3.32315
11
5.10282
21
-3.32377
0
LINE
8
BLACK
6
CONTINUOUS
10
5.10282
20
-3.32377
11
5.11895
21
-3.32292
0
LINE
8
BLACK
6
CONTINUOUS
10
5.11895
20
-3.32292
11
5.13495
21
-3.32062
0
LINE
8
BLACK
6
CONTINUOUS
10
5.13495
20
-3.32062
11
5.15067
21
-3.31688
0
LINE
8
BLACK
6
CONTINUOUS
10
5.15067
20
-3.31688
11
5.16598
21
-3.31172
0
LINE
8
BLACK
6
CONTINUOUS
10
5.16598
20
-3.31172
11
5.18077
21
-3.3052
0
LINE
8
BLACK
6
CONTINUOUS
10
5.18077
20
-3.3052
11
5.1949
21
-3.29737
0
LINE
8
BLACK
6
CONTINUOUS
10
5.1949
20
-3.29737
11
5.20826
21
-3.28828
0
LINE
8
BLACK
6
CONTINUOUS
10
5.20826
20
-3.28828
11
5.22075
21
-3.27803
0
LINE
8
BLACK
6
CONTINUOUS
10
5.22075
20
-3.27803
11
5.23226
21
-3.26668
0
LINE
8
BLACK
6
CONTINUOUS
10
5.23226
20
-3.26668
11
5.24269
21
-3.25434
0
LINE
8
BLACK
6
CONTINUOUS
10
5.24269
20
-3.25434
11
5.25195
21
-3.2411
0
LINE
8
BLACK
6
CONTINUOUS
10
5.25195
20
-3.2411
11
5.25998
21
-3.22708
0
LINE
8
BLACK
6
CONTINUOUS
10
5.25998
20
-3.22708
11
5.26671
21
-3.21239
0
LINE
8
BLACK
6
CONTINUOUS
10
5.26671
20
-3.21239
11
5.27208
21
-3.19715
0
LINE
8
BLACK
6
CONTINUOUS
10
5.27208
20
-3.19715
11
5.27604
21
-3.18148
0
LINE
8
BLACK
6
CONTINUOUS
10
5.27604
20
-3.18148
11
5.27857
21
-3.16552
0
LINE
8
BLACK
6
CONTINUOUS
10
5.27857
20
-3.16552
11
5.27964
21
-3.1494
0
LINE
8
BLACK
6
CONTINUOUS
10
5.27964
20
-3.1494
11
5.27968
21
-3.14567
0
LINE
8
BLACK
6
CONTINUOUS
10
5.27968
20
-3.14567
11
5.27895
21
-3.12953
0
LINE
8
BLACK
6
CONTINUOUS
10
5.27895
20
-3.12953
11
5.27675
21
-3.11352
0
LINE
8
BLACK
6
CONTINUOUS
10
5.27675
20
-3.11352
11
5.27312
21
-3.09777
0
LINE
8
BLACK
6
CONTINUOUS
10
5.27312
20
-3.09777
11
5.26807
21
-3.08242
0
LINE
8
BLACK
6
CONTINUOUS
10
5.26807
20
-3.08242
11
5.26165
21
-3.06759
0
LINE
8
BLACK
6
CONTINUOUS
10
5.26165
20
-3.06759
11
5.25392
21
-3.05341
0
LINE
8
BLACK
6
CONTINUOUS
10
5.25392
20
-3.05341
11
5.24493
21
-3.03998
0
LINE
8
BLACK
6
CONTINUOUS
10
5.24493
20
-3.03998
11
5.23476
21
-3.02742
0
LINE
8
BLACK
6
CONTINUOUS
10
5.23476
20
-3.02742
11
5.2235
21
-3.01584
0
LINE
8
BLACK
6
CONTINUOUS
10
5.2235
20
-3.01584
11
5.21123
21
-3.00532
0
LINE
8
BLACK
6
CONTINUOUS
10
5.21123
20
-3.00532
11
5.19806
21
-2.99596
0
LINE
8
BLACK
6
CONTINUOUS
10
5.19806
20
-2.99596
11
5.18409
21
-2.98783
0
LINE
8
BLACK
6
CONTINUOUS
10
5.18409
20
-2.98783
11
5.16945
21
-2.981
0
LINE
8
BLACK
6
CONTINUOUS
10
5.16945
20
-2.981
11
5.15424
21
-2.97553
0
LINE
8
BLACK
6
CONTINUOUS
10
5.15424
20
-2.97553
11
5.13861
21
-2.97146
0
LINE
8
BLACK
6
CONTINUOUS
10
5.13861
20
-2.97146
11
5.12266
21
-2.96882
0
LINE
8
BLACK
6
CONTINUOUS
10
5.12266
20
-2.96882
11
5.10655
21
-2.96763
0
LINE
8
BLACK
6
CONTINUOUS
10
5.10655
20
-2.96763
11
5.09039
21
-2.96792
0
LINE
8
BLACK
6
CONTINUOUS
10
5.09039
20
-2.96792
11
5.07433
21
-2.96966
0
LINE
8
BLACK
6
CONTINUOUS
10
5.07433
20
-2.96966
11
5.05849
21
-2.97285
0
LINE
8
BLACK
6
CONTINUOUS
10
5.05849
20
-2.97285
11
5.043
21
-2.97747
0
LINE
8
BLACK
6
CONTINUOUS
10
5.043
20
-2.97747
11
5.028
21
-2.98347
0
LINE
8
BLACK
6
CONTINUOUS
10
5.028
20
-2.98347
11
5.0136
21
-2.99081
0
LINE
8
BLACK
6
CONTINUOUS
10
5.0136
20
-2.99081
11
4.99993
21
-2.99942
0
LINE
8
BLACK
6
CONTINUOUS
10
4.99993
20
-2.99942
11
4.98709
21
-3.00923
0
LINE
8
BLACK
6
CONTINUOUS
10
4.98709
20
-3.00923
11
4.9752
21
-3.02017
0
LINE
8
BLACK
6
CONTINUOUS
10
4.9752
20
-3.02017
11
4.96434
21
-3.03214
0
LINE
8
BLACK
6
CONTINUOUS
10
4.96434
20
-3.03214
11
4.95462
21
-3.04505
0
LINE
8
BLACK
6
CONTINUOUS
10
4.95462
20
-3.04505
11
4.9461
21
-3.05878
0
LINE
8
BLACK
6
CONTINUOUS
10
4.9461
20
-3.05878
11
4.93887
21
-3.07323
0
LINE
8
BLACK
6
CONTINUOUS
10
4.93887
20
-3.07323
11
4.93297
21
-3.08827
0
LINE
8
BLACK
6
CONTINUOUS
10
4.93297
20
-3.08827
11
4.92846
21
-3.10379
0
LINE
8
BLACK
6
CONTINUOUS
10
4.92846
20
-3.10379
11
4.92538
21
-3.11965
0
LINE
8
BLACK
6
CONTINUOUS
10
4.92538
20
-3.11965
11
4.92375
21
-3.13573
0
LINE
8
BLACK
6
CONTINUOUS
10
4.92375
20
-3.13573
11
4.92358
21
-3.15189
0
LINE
8
BLACK
6
CONTINUOUS
10
4.92358
20
-3.15189
11
4.92487
21
-3.16799
0
LINE
8
BLACK
6
CONTINUOUS
10
4.92487
20
-3.16799
11
4.92762
21
-3.18391
0
LINE
8
BLACK
6
CONTINUOUS
10
5.91932
20
-3.11899
11
5.92248
21
-3.10272
0
LINE
8
BLACK
6
CONTINUOUS
10
5.92248
20
-3.10272
11
5.9271
21
-3.08681
0
LINE
8
BLACK
6
CONTINUOUS
10
5.9271
20
-3.08681
11
5.93315
21
-3.07138
0
LINE
8
BLACK
6
CONTINUOUS
10
5.93315
20
-3.07138
11
5.94057
21
-3.05657
0
LINE
8
BLACK
6
CONTINUOUS
10
5.94057
20
-3.05657
11
5.9493
21
-3.04248
0
LINE
8
BLACK
6
CONTINUOUS
10
5.9493
20
-3.04248
11
5.95927
21
-3.02925
0
LINE
8
BLACK
6
CONTINUOUS
10
5.95927
20
-3.02925
11
5.9704
21
-3.01698
0
LINE
8
BLACK
6
CONTINUOUS
10
5.9704
20
-3.01698
11
5.9826
21
-3.00576
0
LINE
8
BLACK
6
CONTINUOUS
10
5.9826
20
-3.00576
11
5.99576
21
-2.99569
0
LINE
8
BLACK
6
CONTINUOUS
10
5.99576
20
-2.99569
11
6.00979
21
-2.98686
0
LINE
8
BLACK
6
CONTINUOUS
10
6.00979
20
-2.98686
11
6.02455
21
-2.97934
0
LINE
8
BLACK
6
CONTINUOUS
10
6.02455
20
-2.97934
11
6.03994
21
-2.97319
0
LINE
8
BLACK
6
CONTINUOUS
10
6.03994
20
-2.97319
11
6.05582
21
-2.96845
0
LINE
8
BLACK
6
CONTINUOUS
10
6.05582
20
-2.96845
11
6.07206
21
-2.96518
0
LINE
8
BLACK
6
CONTINUOUS
10
6.07206
20
-2.96518
11
6.08853
21
-2.96339
0
LINE
8
BLACK
6
CONTINUOUS
10
6.08853
20
-2.96339
11
6.1051
21
-2.9631
0
LINE
8
BLACK
6
CONTINUOUS
10
6.1051
20
-2.9631
11
6.12163
21
-2.96431
0
LINE
8
BLACK
6
CONTINUOUS
10
6.12163
20
-2.96431
11
6.13797
21
-2.96702
0
LINE
8
BLACK
6
CONTINUOUS
10
6.13797
20
-2.96702
11
6.15401
21
-2.9712
0
LINE
8
BLACK
6
CONTINUOUS
10
6.15401
20
-2.9712
11
6.1696
21
-2.97681
0
LINE
8
BLACK
6
CONTINUOUS
10
6.1696
20
-2.97681
11
6.18462
21
-2.98381
0
LINE
8
BLACK
6
CONTINUOUS
10
6.18462
20
-2.98381
11
6.19894
21
-2.99215
0
LINE
8
BLACK
6
CONTINUOUS
10
6.19894
20
-2.99215
11
6.21244
21
-3.00175
0
LINE
8
BLACK
6
CONTINUOUS
10
6.21244
20
-3.00175
11
6.22503
21
-3.01253
0
LINE
8
BLACK
6
CONTINUOUS
10
6.22503
20
-3.01253
11
6.23658
21
-3.02441
0
LINE
8
BLACK
6
CONTINUOUS
10
6.23658
20
-3.02441
11
6.24701
21
-3.03729
0
LINE
8
BLACK
6
CONTINUOUS
10
6.24701
20
-3.03729
11
6.25622
21
-3.05106
0
LINE
8
BLACK
6
CONTINUOUS
10
6.25622
20
-3.05106
11
6.26416
21
-3.06561
0
LINE
8
BLACK
6
CONTINUOUS
10
6.26416
20
-3.06561
11
6.27074
21
-3.08081
0
LINE
8
BLACK
6
CONTINUOUS
10
6.27074
20
-3.08081
11
6.27591
21
-3.09655
0
LINE
8
BLACK
6
CONTINUOUS
10
6.27591
20
-3.09655
11
6.27964
21
-3.1127
0
LINE
8
BLACK
6
CONTINUOUS
10
6.27964
20
-3.1127
11
6.28189
21
-3.12912
0
LINE
8
BLACK
6
CONTINUOUS
10
6.28189
20
-3.12912
11
6.28264
21
-3.14567
0
LINE
8
BLACK
6
CONTINUOUS
10
6.28264
20
-3.14567
11
6.2826
21
-3.14949
0
LINE
8
BLACK
6
CONTINUOUS
10
6.2826
20
-3.14949
11
6.2815
21
-3.16603
0
LINE
8
BLACK
6
CONTINUOUS
10
6.2815
20
-3.16603
11
6.27891
21
-3.18239
0
LINE
8
BLACK
6
CONTINUOUS
10
6.27891
20
-3.18239
11
6.27484
21
-3.19846
0
LINE
8
BLACK
6
CONTINUOUS
10
6.27484
20
-3.19846
11
6.26934
21
-3.21409
0
LINE
8
BLACK
6
CONTINUOUS
10
6.26934
20
-3.21409
11
6.26244
21
-3.22915
0
LINE
8
BLACK
6
CONTINUOUS
10
6.26244
20
-3.22915
11
6.25421
21
-3.24353
0
LINE
8
BLACK
6
CONTINUOUS
10
6.25421
20
-3.24353
11
6.2447
21
-3.25711
0
LINE
8
BLACK
6
CONTINUOUS
10
6.2447
20
-3.25711
11
6.23401
21
-3.26976
0
LINE
8
BLACK
6
CONTINUOUS
10
6.23401
20
-3.26976
11
6.22221
21
-3.2814
0
LINE
8
BLACK
6
CONTINUOUS
10
6.22221
20
-3.2814
11
6.20941
21
-3.29191
0
LINE
8
BLACK
6
CONTINUOUS
10
6.20941
20
-3.29191
11
6.1957
21
-3.30123
0
LINE
8
BLACK
6
CONTINUOUS
10
6.1957
20
-3.30123
11
6.18121
21
-3.30926
0
LINE
8
BLACK
6
CONTINUOUS
10
6.18121
20
-3.30926
11
6.16605
21
-3.31595
0
LINE
8
BLACK
6
CONTINUOUS
10
6.16605
20
-3.31595
11
6.15034
21
-3.32123
0
LINE
8
BLACK
6
CONTINUOUS
10
6.15034
20
-3.32123
11
6.13422
21
-3.32507
0
LINE
8
BLACK
6
CONTINUOUS
10
6.13422
20
-3.32507
11
6.11782
21
-3.32744
0
LINE
8
BLACK
6
CONTINUOUS
10
6.11782
20
-3.32744
11
6.10128
21
-3.3283
0
LINE
8
BLACK
6
CONTINUOUS
10
6.10128
20
-3.3283
11
6.08472
21
-3.32767
0
LINE
8
BLACK
6
CONTINUOUS
10
6.08472
20
-3.32767
11
6.06828
21
-3.32553
0
LINE
8
BLACK
6
CONTINUOUS
10
6.06828
20
-3.32553
11
6.05211
21
-3.32192
0
LINE
8
BLACK
6
CONTINUOUS
10
6.05211
20
-3.32192
11
6.03634
21
-3.31685
0
LINE
8
BLACK
6
CONTINUOUS
10
6.03634
20
-3.31685
11
6.02108
21
-3.31038
0
LINE
8
BLACK
6
CONTINUOUS
10
6.02108
20
-3.31038
11
6.00648
21
-3.30255
0
LINE
8
BLACK
6
CONTINUOUS
10
6.00648
20
-3.30255
11
5.99265
21
-3.29343
0
LINE
8
BLACK
6
CONTINUOUS
10
5.99265
20
-3.29343
11
5.9797
21
-3.28309
0
LINE
8
BLACK
6
CONTINUOUS
10
5.9797
20
-3.28309
11
5.96774
21
-3.27162
0
LINE
8
BLACK
6
CONTINUOUS
10
5.96774
20
-3.27162
11
5.95687
21
-3.25912
0
LINE
8
BLACK
6
CONTINUOUS
10
5.95687
20
-3.25912
11
5.94717
21
-3.24568
0
LINE
8
BLACK
6
CONTINUOUS
10
5.94717
20
-3.24568
11
5.93874
21
-3.23141
0
LINE
8
BLACK
6
CONTINUOUS
10
5.93874
20
-3.23141
11
5.93163
21
-3.21645
0
LINE
8
BLACK
6
CONTINUOUS
10
5.93163
20
-3.21645
11
5.92591
21
-3.20089
0
LINE
8
BLACK
6
CONTINUOUS
10
5.92591
20
-3.20089
11
5.92162
21
-3.18489
0
LINE
8
BLACK
6
CONTINUOUS
10
5.92162
20
-3.18489
11
5.9188
21
-3.16856
0
LINE
8
BLACK
6
CONTINUOUS
10
5.9188
20
-3.16856
11
5.91747
21
-3.15204
0
LINE
8
BLACK
6
CONTINUOUS
10
5.91747
20
-3.15204
11
5.91747
21
-3.15189
0
LINE
8
BLACK
6
CONTINUOUS
10
5.91747
20
-3.15189
11
5.91765
21
-3.13547
0
LINE
8
BLACK
6
CONTINUOUS
10
5.91765
20
-3.13547
11
5.91932
21
-3.11899
0
LINE
8
BLACK
6
CONTINUOUS
10
5.92605
20
-3.18391
11
5.93023
21
-3.19952
0
LINE
8
BLACK
6
CONTINUOUS
10
5.93023
20
-3.19952
11
5.93581
21
-3.21469
0
LINE
8
BLACK
6
CONTINUOUS
10
5.93581
20
-3.21469
11
5.94274
21
-3.22928
0
LINE
8
BLACK
6
CONTINUOUS
10
5.94274
20
-3.22928
11
5.95097
21
-3.24319
0
LINE
8
BLACK
6
CONTINUOUS
10
5.95097
20
-3.24319
11
5.96042
21
-3.2563
0
LINE
8
BLACK
6
CONTINUOUS
10
5.96042
20
-3.2563
11
5.97102
21
-3.26849
0
LINE
8
BLACK
6
CONTINUOUS
10
5.97102
20
-3.26849
11
5.98268
21
-3.27968
0
LINE
8
BLACK
6
CONTINUOUS
10
5.98268
20
-3.27968
11
5.99531
21
-3.28976
0
LINE
8
BLACK
6
CONTINUOUS
10
5.99531
20
-3.28976
11
6.0088
21
-3.29865
0
LINE
8
BLACK
6
CONTINUOUS
10
6.0088
20
-3.29865
11
6.02304
21
-3.30629
0
LINE
8
BLACK
6
CONTINUOUS
10
6.02304
20
-3.30629
11
6.03792
21
-3.3126
0
LINE
8
BLACK
6
CONTINUOUS
10
6.03792
20
-3.3126
11
6.0533
21
-3.31754
0
LINE
8
BLACK
6
CONTINUOUS
10
6.0533
20
-3.31754
11
6.06907
21
-3.32107
0
LINE
8
BLACK
6
CONTINUOUS
10
6.06907
20
-3.32107
11
6.0851
21
-3.32315
0
LINE
8
BLACK
6
CONTINUOUS
10
6.0851
20
-3.32315
11
6.10124
21
-3.32377
0
LINE
8
BLACK
6
CONTINUOUS
10
6.10124
20
-3.32377
11
6.11738
21
-3.32292
0
LINE
8
BLACK
6
CONTINUOUS
10
6.11738
20
-3.32292
11
6.13337
21
-3.32062
0
LINE
8
BLACK
6
CONTINUOUS
10
6.13337
20
-3.32062
11
6.14909
21
-3.31688
0
LINE
8
BLACK
6
CONTINUOUS
10
6.14909
20
-3.31688
11
6.16441
21
-3.31172
0
LINE
8
BLACK
6
CONTINUOUS
10
6.16441
20
-3.31172
11
6.17919
21
-3.3052
0
LINE
8
BLACK
6
CONTINUOUS
10
6.17919
20
-3.3052
11
6.19332
21
-3.29737
0
LINE
8
BLACK
6
CONTINUOUS
10
6.19332
20
-3.29737
11
6.20669
21
-3.28828
0
LINE
8
BLACK
6
CONTINUOUS
10
6.20669
20
-3.28828
11
6.21918
21
-3.27803
0
LINE
8
BLACK
6
CONTINUOUS
10
6.21918
20
-3.27803
11
6.23068
21
-3.26668
0
LINE
8
BLACK
6
CONTINUOUS
10
6.23068
20
-3.26668
11
6.24111
21
-3.25434
0
LINE
8
BLACK
6
CONTINUOUS
10
6.24111
20
-3.25434
11
6.25038
21
-3.2411
0
LINE
8
BLACK
6
CONTINUOUS
10
6.25038
20
-3.2411
11
6.25841
21
-3.22708
0
LINE
8
BLACK
6
CONTINUOUS
10
6.25841
20
-3.22708
11
6.26514
21
-3.21239
0
LINE
8
BLACK
6
CONTINUOUS
10
6.26514
20
-3.21239
11
6.2705
21
-3.19715
0
LINE
8
BLACK
6
CONTINUOUS
10
6.2705
20
-3.19715
11
6.27447
21
-3.18148
0
LINE
8
BLACK
6
CONTINUOUS
10
6.27447
20
-3.18148
11
6.277
21
-3.16552
0
LINE
8
BLACK
6
CONTINUOUS
10
6.277
20
-3.16552
11
6.27807
21
-3.1494
0
LINE
8
BLACK
6
CONTINUOUS
10
6.27807
20
-3.1494
11
6.27811
21
-3.14567
0
LINE
8
BLACK
6
CONTINUOUS
10
6.27811
20
-3.14567
11
6.27737
21
-3.12953
0
LINE
8
BLACK
6
CONTINUOUS
10
6.27737
20
-3.12953
11
6.27518
21
-3.11352
0
LINE
8
BLACK
6
CONTINUOUS
10
6.27518
20
-3.11352
11
6.27154
21
-3.09777
0
LINE
8
BLACK
6
CONTINUOUS
10
6.27154
20
-3.09777
11
6.2665
21
-3.08242
0
LINE
8
BLACK
6
CONTINUOUS
10
6.2665
20
-3.08242
11
6.26008
21
-3.06759
0
LINE
8
BLACK
6
CONTINUOUS
10
6.26008
20
-3.06759
11
6.25235
21
-3.05341
0
LINE
8
BLACK
6
CONTINUOUS
10
6.25235
20
-3.05341
11
6.24336
21
-3.03998
0
LINE
8
BLACK
6
CONTINUOUS
10
6.24336
20
-3.03998
11
6.23319
21
-3.02742
0
LINE
8
BLACK
6
CONTINUOUS
10
6.23319
20
-3.02742
11
6.22192
21
-3.01584
0
LINE
8
BLACK
6
CONTINUOUS
10
6.22192
20
-3.01584
11
6.20965
21
-3.00532
0
LINE
8
BLACK
6
CONTINUOUS
10
6.20965
20
-3.00532
11
6.19648
21
-2.99596
0
LINE
8
BLACK
6
CONTINUOUS
10
6.19648
20
-2.99596
11
6.18252
21
-2.98783
0
LINE
8
BLACK
6
CONTINUOUS
10
6.18252
20
-2.98783
11
6.16787
21
-2.981
0
LINE
8
BLACK
6
CONTINUOUS
10
6.16787
20
-2.981
11
6.15267
21
-2.97553
0
LINE
8
BLACK
6
CONTINUOUS
10
6.15267
20
-2.97553
11
6.13703
21
-2.97146
0
LINE
8
BLACK
6
CONTINUOUS
10
6.13703
20
-2.97146
11
6.12109
21
-2.96882
0
LINE
8
BLACK
6
CONTINUOUS
10
6.12109
20
-2.96882
11
6.10497
21
-2.96763
0
LINE
8
BLACK
6
CONTINUOUS
10
6.10497
20
-2.96763
11
6.08882
21
-2.96792
0
LINE
8
BLACK
6
CONTINUOUS
10
6.08882
20
-2.96792
11
6.07275
21
-2.96966
0
LINE
8
BLACK
6
CONTINUOUS
10
6.07275
20
-2.96966
11
6.05691
21
-2.97285
0
LINE
8
BLACK
6
CONTINUOUS
10
6.05691
20
-2.97285
11
6.04143
21
-2.97747
0
LINE
8
BLACK
6
CONTINUOUS
10
6.04143
20
-2.97747
11
6.02642
21
-2.98347
0
LINE
8
BLACK
6
CONTINUOUS
10
6.02642
20
-2.98347
11
6.01203
21
-2.99081
0
LINE
8
BLACK
6
CONTINUOUS
10
6.01203
20
-2.99081
11
5.99835
21
-2.99942
0
LINE
8
BLACK
6
CONTINUOUS
10
5.99835
20
-2.99942
11
5.98552
21
-3.00923
0
LINE
8
BLACK
6
CONTINUOUS
10
5.98552
20
-3.00923
11
5.97362
21
-3.02017
0
LINE
8
BLACK
6
CONTINUOUS
10
5.97362
20
-3.02017
11
5.96277
21
-3.03214
0
LINE
8
BLACK
6
CONTINUOUS
10
5.96277
20
-3.03214
11
5.95304
21
-3.04505
0
LINE
8
BLACK
6
CONTINUOUS
10
5.95304
20
-3.04505
11
5.94453
21
-3.05878
0
LINE
8
BLACK
6
CONTINUOUS
10
5.94453
20
-3.05878
11
5.93729
21
-3.07323
0
LINE
8
BLACK
6
CONTINUOUS
10
5.93729
20
-3.07323
11
5.9314
21
-3.08827
0
LINE
8
BLACK
6
CONTINUOUS
10
5.9314
20
-3.08827
11
5.92689
21
-3.10379
0
LINE
8
BLACK
6
CONTINUOUS
10
5.92689
20
-3.10379
11
5.92381
21
-3.11965
0
LINE
8
BLACK
6
CONTINUOUS
10
5.92381
20
-3.11965
11
5.92217
21
-3.13573
0
LINE
8
BLACK
6
CONTINUOUS
10
5.92217
20
-3.13573
11
5.922
21
-3.15189
0
LINE
8
BLACK
6
CONTINUOUS
10
5.922
20
-3.15189
11
5.9233
21
-3.16799
0
LINE
8
BLACK
6
CONTINUOUS
10
5.9233
20
-3.16799
11
5.92605
21
-3.18391
  0
ENDSEC
  0
EOF
