  0
SECTION
  2
HEADER
  9
$ANGBASE
  50
0.0
  9
$ANGDIR
  70
1
  9
$MEASUREMENT
  70
0
  0
ENDSEC
  0
SECTION
  2
TABLES
  0
TABLE
  2
LTYPE
  70
4
  0
LTYPE
  5
40F
  2
CONTINUOUS
  70
0
  3
Solid line
  72
65
  73
0
  40
0.0
  0
LTYPE
  5
410
  2
DASHDOT
 70
0
  3
Dash Dot ____ _ ____ _
 72
65
 73
4
 40
2.0
 49
1.25
 49
-0.25
 49
0.25
 49
-0.25
  0
LTYPE
  5
411
  2
DASHED
 70
0
  3
Dashed __ __ __ __ __
 72
65
 73
2
 40
0.75
 49
0.5
 49
-0.25
  0
LTYPE
  5
43B
  2
DOTTED
 70
0
  3
Dotted .  .  .  .
 72
65
 73
2
 40
0.2
 49
0.0
 49
-0.2
  0
ENDTAB
  0
TABLE
  2
STYLE
  70
4
  0
STYLE
  2
KICAD
  70
0
  40
0
  41
1
  42
1
  50
0
  71
0
  3
isocp.shx
  0
STYLE
  2
KICADB
  70
0
  40
0
  41
1
  42
1
  50
0
  71
0
  3
isocp.shx
  0
STYLE
  2
KICADI
  70
0
  40
0
  41
1
  42
1
  50
15
  71
0
  3
isocp.shx
  0
STYLE
  2
KICADBI
  70
0
  40
0
  41
1
  42
1
  50
15
  71
0
  3
isocp.shx
  0
ENDTAB
  0
TABLE
  2
LAYER
  70
1
  0
LAYER
  2
BLACK
  70
0
  62
7
  6
CONTINUOUS
  0
ENDTAB
  0
ENDSEC
  0
SECTION
  2
ENTITIES
0
LINE
8
BLACK
6
CONTINUOUS
10
4.72079
20
-2.62228
11
4.7229
21
-2.62045
0
LINE
8
BLACK
6
CONTINUOUS
10
4.7229
20
-2.62045
11
4.72496
21
-2.62
0
LINE
8
BLACK
6
CONTINUOUS
10
4.72496
20
-2.62
11
7.77504
21
-2.62
0
LINE
8
BLACK
6
CONTINUOUS
10
7.77504
20
-2.62
11
7.77772
21
-2.62079
0
LINE
8
BLACK
6
CONTINUOUS
10
7.77772
20
-2.62079
11
7.77955
21
-2.6229
0
LINE
8
BLACK
6
CONTINUOUS
10
7.77955
20
-2.6229
11
7.78
21
-2.62496
0
LINE
8
BLACK
6
CONTINUOUS
10
7.78
20
-2.62496
11
7.78
21
-3.67504
0
LINE
8
BLACK
6
CONTINUOUS
10
7.78
20
-3.67504
11
7.77921
21
-3.67772
0
LINE
8
BLACK
6
CONTINUOUS
10
7.77921
20
-3.67772
11
7.7771
21
-3.67955
0
LINE
8
BLACK
6
CONTINUOUS
10
7.7771
20
-3.67955
11
7.77504
21
-3.68
0
LINE
8
BLACK
6
CONTINUOUS
10
7.77504
20
-3.68
11
4.72496
21
-3.68
0
LINE
8
BLACK
6
CONTINUOUS
10
4.72496
20
-3.68
11
4.72228
21
-3.67921
0
LINE
8
BLACK
6
CONTINUOUS
10
4.72228
20
-3.67921
11
4.72045
21
-3.6771
0
LINE
8
BLACK
6
CONTINUOUS
10
4.72045
20
-3.6771
11
4.72
21
-3.67504
0
LINE
8
BLACK
6
CONTINUOUS
10
4.72
20
-3.67504
11
4.72
21
-2.62496
0
LINE
8
BLACK
6
CONTINUOUS
10
4.72
20
-2.62496
11
4.72079
21
-2.62228
0
LINE
8
BLACK
6
CONTINUOUS
10
7.47142
20
-3.52736
11
7.47586
21
-3.53777
0
LINE
8
BLACK
6
CONTINUOUS
10
7.47586
20
-3.53777
11
7.48168
21
-3.54749
0
LINE
8
BLACK
6
CONTINUOUS
10
7.48168
20
-3.54749
11
7.48875
21
-3.55632
0
LINE
8
BLACK
6
CONTINUOUS
10
7.48875
20
-3.55632
11
7.49696
21
-3.56411
0
LINE
8
BLACK
6
CONTINUOUS
10
7.49696
20
-3.56411
11
7.50615
21
-3.57072
0
LINE
8
BLACK
6
CONTINUOUS
10
7.50615
20
-3.57072
11
7.5063
21
-3.5708
0
LINE
8
BLACK
6
CONTINUOUS
10
7.5063
20
-3.5708
11
7.5063
21
-3.5708
0
LINE
8
BLACK
6
CONTINUOUS
10
7.5063
20
-3.5708
11
7.50716
21
-3.57125
0
LINE
8
BLACK
6
CONTINUOUS
10
7.50716
20
-3.57125
11
7.51616
21
-3.57601
0
LINE
8
BLACK
6
CONTINUOUS
10
7.51616
20
-3.57601
11
7.52679
21
-3.5799
0
LINE
8
BLACK
6
CONTINUOUS
10
7.52679
20
-3.5799
11
7.53785
21
-3.58231
0
LINE
8
BLACK
6
CONTINUOUS
10
7.53785
20
-3.58231
11
7.53897
21
-3.5824
0
LINE
8
BLACK
6
CONTINUOUS
10
7.53897
20
-3.5824
11
7.54663
21
-3.583
0
LINE
8
BLACK
6
CONTINUOUS
10
7.54663
20
-3.583
11
7.54663
21
-3.583
0
LINE
8
BLACK
6
CONTINUOUS
10
7.54663
20
-3.583
11
7.54672
21
-3.58301
0
LINE
8
BLACK
6
CONTINUOUS
10
7.54672
20
-3.58301
11
7.55285
21
-3.58301
0
LINE
8
BLACK
6
CONTINUOUS
10
7.55285
20
-3.58301
11
7.55293
21
-3.58301
0
LINE
8
BLACK
6
CONTINUOUS
10
7.55293
20
-3.58301
11
7.55293
21
-3.58301
0
LINE
8
BLACK
6
CONTINUOUS
10
7.55293
20
-3.58301
11
7.56112
21
-3.58245
0
LINE
8
BLACK
6
CONTINUOUS
10
7.56112
20
-3.58245
11
7.56112
21
-3.58245
0
LINE
8
BLACK
6
CONTINUOUS
10
7.56112
20
-3.58245
11
7.56129
21
-3.58244
0
LINE
8
BLACK
6
CONTINUOUS
10
7.56129
20
-3.58244
11
7.56146
21
-3.5824
0
LINE
8
BLACK
6
CONTINUOUS
10
7.56146
20
-3.5824
11
7.56146
21
-3.5824
0
LINE
8
BLACK
6
CONTINUOUS
10
7.56146
20
-3.5824
11
7.56683
21
-3.58129
0
LINE
8
BLACK
6
CONTINUOUS
10
7.56683
20
-3.58129
11
7.57238
21
-3.58014
0
LINE
8
BLACK
6
CONTINUOUS
10
7.57238
20
-3.58014
11
7.58305
21
-3.57636
0
LINE
8
BLACK
6
CONTINUOUS
10
7.58305
20
-3.57636
11
7.5931
21
-3.57117
0
LINE
8
BLACK
6
CONTINUOUS
10
7.5931
20
-3.57117
11
7.59324
21
-3.57107
0
LINE
8
BLACK
6
CONTINUOUS
10
7.59324
20
-3.57107
11
7.59324
21
-3.57107
0
LINE
8
BLACK
6
CONTINUOUS
10
7.59324
20
-3.57107
11
7.59773
21
-3.56792
0
LINE
8
BLACK
6
CONTINUOUS
10
7.59773
20
-3.56792
11
7.60236
21
-3.56466
0
LINE
8
BLACK
6
CONTINUOUS
10
7.60236
20
-3.56466
11
7.61065
21
-3.55696
0
LINE
8
BLACK
6
CONTINUOUS
10
7.61065
20
-3.55696
11
7.61782
21
-3.5482
0
LINE
8
BLACK
6
CONTINUOUS
10
7.61782
20
-3.5482
11
7.62374
21
-3.53855
0
LINE
8
BLACK
6
CONTINUOUS
10
7.62374
20
-3.53855
11
7.62829
21
-3.52818
0
LINE
8
BLACK
6
CONTINUOUS
10
7.62829
20
-3.52818
11
7.63139
21
-3.5173
0
LINE
8
BLACK
6
CONTINUOUS
10
7.63139
20
-3.5173
11
7.63298
21
-3.50609
0
LINE
8
BLACK
6
CONTINUOUS
10
7.63298
20
-3.50609
11
7.63299
21
-3.50539
0
LINE
8
BLACK
6
CONTINUOUS
10
7.63299
20
-3.50539
11
7.63304
21
-3.49494
0
LINE
8
BLACK
6
CONTINUOUS
10
7.63304
20
-3.49494
11
7.63304
21
-3.49494
0
LINE
8
BLACK
6
CONTINUOUS
10
7.63304
20
-3.49494
11
7.63304
21
-3.49478
0
LINE
8
BLACK
6
CONTINUOUS
10
7.63304
20
-3.49478
11
7.63156
21
-3.48355
0
LINE
8
BLACK
6
CONTINUOUS
10
7.63156
20
-3.48355
11
7.62858
21
-3.47264
0
LINE
8
BLACK
6
CONTINUOUS
10
7.62858
20
-3.47264
11
7.62619
21
-3.46705
0
LINE
8
BLACK
6
CONTINUOUS
10
7.62619
20
-3.46705
11
7.6242
21
-3.46238
0
LINE
8
BLACK
6
CONTINUOUS
10
7.6242
20
-3.46238
11
7.6242
21
-3.46238
0
LINE
8
BLACK
6
CONTINUOUS
10
7.6242
20
-3.46238
11
7.62414
21
-3.46223
0
LINE
8
BLACK
6
CONTINUOUS
10
7.62414
20
-3.46223
11
7.61964
21
-3.45471
0
LINE
8
BLACK
6
CONTINUOUS
10
7.61964
20
-3.45471
11
7.61841
21
-3.45266
0
LINE
8
BLACK
6
CONTINUOUS
10
7.61841
20
-3.45266
11
7.61841
21
-3.45266
0
LINE
8
BLACK
6
CONTINUOUS
10
7.61841
20
-3.45266
11
7.61832
21
-3.45251
0
LINE
8
BLACK
6
CONTINUOUS
10
7.61832
20
-3.45251
11
7.61125
21
-3.44368
0
LINE
8
BLACK
6
CONTINUOUS
10
7.61125
20
-3.44368
11
7.60453
21
-3.4373
0
LINE
8
BLACK
6
CONTINUOUS
10
7.60453
20
-3.4373
11
7.60316
21
-3.436
0
LINE
8
BLACK
6
CONTINUOUS
10
7.60316
20
-3.436
11
7.60316
21
-3.436
0
LINE
8
BLACK
6
CONTINUOUS
10
7.60316
20
-3.436
11
7.60304
21
-3.43589
0
LINE
8
BLACK
6
CONTINUOUS
10
7.60304
20
-3.43589
11
7.59385
21
-3.42928
0
LINE
8
BLACK
6
CONTINUOUS
10
7.59385
20
-3.42928
11
7.59299
21
-3.42883
0
LINE
8
BLACK
6
CONTINUOUS
10
7.59299
20
-3.42883
11
7.59198
21
-3.42829
0
LINE
8
BLACK
6
CONTINUOUS
10
7.59198
20
-3.42829
11
7.58384
21
-3.42399
0
LINE
8
BLACK
6
CONTINUOUS
10
7.58384
20
-3.42399
11
7.57733
21
-3.4216
0
LINE
8
BLACK
6
CONTINUOUS
10
7.57733
20
-3.4216
11
7.57337
21
-3.42016
0
LINE
8
BLACK
6
CONTINUOUS
10
7.57337
20
-3.42016
11
7.57337
21
-3.42016
0
LINE
8
BLACK
6
CONTINUOUS
10
7.57337
20
-3.42016
11
7.57321
21
-3.4201
0
LINE
8
BLACK
6
CONTINUOUS
10
7.57321
20
-3.4201
11
7.56215
21
-3.41769
0
LINE
8
BLACK
6
CONTINUOUS
10
7.56215
20
-3.41769
11
7.56093
21
-3.41759
0
LINE
8
BLACK
6
CONTINUOUS
10
7.56093
20
-3.41759
11
7.55337
21
-3.417
0
LINE
8
BLACK
6
CONTINUOUS
10
7.55337
20
-3.417
11
7.55337
21
-3.417
0
LINE
8
BLACK
6
CONTINUOUS
10
7.55337
20
-3.417
11
7.55328
21
-3.41699
0
LINE
8
BLACK
6
CONTINUOUS
10
7.55328
20
-3.41699
11
7.54715
21
-3.41699
0
LINE
8
BLACK
6
CONTINUOUS
10
7.54715
20
-3.41699
11
7.54707
21
-3.41699
0
LINE
8
BLACK
6
CONTINUOUS
10
7.54707
20
-3.41699
11
7.54707
21
-3.41699
0
LINE
8
BLACK
6
CONTINUOUS
10
7.54707
20
-3.41699
11
7.53888
21
-3.41755
0
LINE
8
BLACK
6
CONTINUOUS
10
7.53888
20
-3.41755
11
7.53888
21
-3.41755
0
LINE
8
BLACK
6
CONTINUOUS
10
7.53888
20
-3.41755
11
7.53871
21
-3.41756
0
LINE
8
BLACK
6
CONTINUOUS
10
7.53871
20
-3.41756
11
7.53854
21
-3.4176
0
LINE
8
BLACK
6
CONTINUOUS
10
7.53854
20
-3.4176
11
7.53854
21
-3.4176
0
LINE
8
BLACK
6
CONTINUOUS
10
7.53854
20
-3.4176
11
7.53317
21
-3.41871
0
LINE
8
BLACK
6
CONTINUOUS
10
7.53317
20
-3.41871
11
7.52762
21
-3.41986
0
LINE
8
BLACK
6
CONTINUOUS
10
7.52762
20
-3.41986
11
7.51695
21
-3.42364
0
LINE
8
BLACK
6
CONTINUOUS
10
7.51695
20
-3.42364
11
7.5069
21
-3.42883
0
LINE
8
BLACK
6
CONTINUOUS
10
7.5069
20
-3.42883
11
7.50676
21
-3.42893
0
LINE
8
BLACK
6
CONTINUOUS
10
7.50676
20
-3.42893
11
7.50676
21
-3.42893
0
LINE
8
BLACK
6
CONTINUOUS
10
7.50676
20
-3.42893
11
7.50515
21
-3.43006
0
LINE
8
BLACK
6
CONTINUOUS
10
7.50515
20
-3.43006
11
7.49764
21
-3.43534
0
LINE
8
BLACK
6
CONTINUOUS
10
7.49764
20
-3.43534
11
7.48935
21
-3.44304
0
LINE
8
BLACK
6
CONTINUOUS
10
7.48935
20
-3.44304
11
7.48218
21
-3.4518
0
LINE
8
BLACK
6
CONTINUOUS
10
7.48218
20
-3.4518
11
7.47626
21
-3.46145
0
LINE
8
BLACK
6
CONTINUOUS
10
7.47626
20
-3.46145
11
7.47619
21
-3.46161
0
LINE
8
BLACK
6
CONTINUOUS
10
7.47619
20
-3.46161
11
7.47619
21
-3.46161
0
LINE
8
BLACK
6
CONTINUOUS
10
7.47619
20
-3.46161
11
7.47614
21
-3.46172
0
LINE
8
BLACK
6
CONTINUOUS
10
7.47614
20
-3.46172
11
7.47171
21
-3.47182
0
LINE
8
BLACK
6
CONTINUOUS
10
7.47171
20
-3.47182
11
7.47167
21
-3.47198
0
LINE
8
BLACK
6
CONTINUOUS
10
7.47167
20
-3.47198
11
7.47167
21
-3.47198
0
LINE
8
BLACK
6
CONTINUOUS
10
7.47167
20
-3.47198
11
7.47064
21
-3.4756
0
LINE
8
BLACK
6
CONTINUOUS
10
7.47064
20
-3.4756
11
7.46861
21
-3.4827
0
LINE
8
BLACK
6
CONTINUOUS
10
7.46861
20
-3.4827
11
7.46702
21
-3.49391
0
LINE
8
BLACK
6
CONTINUOUS
10
7.46702
20
-3.49391
11
7.46702
21
-3.49408
0
LINE
8
BLACK
6
CONTINUOUS
10
7.46702
20
-3.49408
11
7.46702
21
-3.49408
0
LINE
8
BLACK
6
CONTINUOUS
10
7.46702
20
-3.49408
11
7.46696
21
-3.50506
0
LINE
8
BLACK
6
CONTINUOUS
10
7.46696
20
-3.50506
11
7.46696
21
-3.50522
0
LINE
8
BLACK
6
CONTINUOUS
10
7.46696
20
-3.50522
11
7.46844
21
-3.51645
0
LINE
8
BLACK
6
CONTINUOUS
10
7.46844
20
-3.51645
11
7.47142
21
-3.52736
0
LINE
8
BLACK
6
CONTINUOUS
10
6.01018
20
-3.31674
11
6.01
21
-3.31732
0
LINE
8
BLACK
6
CONTINUOUS
10
6.01
20
-3.31732
11
6.01
21
-3.33719
0
LINE
8
BLACK
6
CONTINUOUS
10
6.01
20
-3.33719
11
6.01125
21
-3.33745
0
LINE
8
BLACK
6
CONTINUOUS
10
6.01125
20
-3.33745
11
6.01821
21
-3.34055
0
LINE
8
BLACK
6
CONTINUOUS
10
6.01821
20
-3.34055
11
6.02437
21
-3.34502
0
LINE
8
BLACK
6
CONTINUOUS
10
6.02437
20
-3.34502
11
6.02946
21
-3.35068
0
LINE
8
BLACK
6
CONTINUOUS
10
6.02946
20
-3.35068
11
6.03327
21
-3.35727
0
LINE
8
BLACK
6
CONTINUOUS
10
6.03327
20
-3.35727
11
6.03562
21
-3.36452
0
LINE
8
BLACK
6
CONTINUOUS
10
6.03562
20
-3.36452
11
6.03642
21
-3.37209
0
LINE
8
BLACK
6
CONTINUOUS
10
6.03642
20
-3.37209
11
6.03642
21
-3.38567
0
LINE
8
BLACK
6
CONTINUOUS
10
6.03642
20
-3.38567
11
6.0557
21
-3.38567
0
LINE
8
BLACK
6
CONTINUOUS
10
6.0557
20
-3.38567
11
6.0563
21
-3.38549
0
LINE
8
BLACK
6
CONTINUOUS
10
6.0563
20
-3.38549
11
6.05635
21
-3.38544
0
LINE
8
BLACK
6
CONTINUOUS
10
6.05635
20
-3.38544
11
6.05642
21
-3.38514
0
LINE
8
BLACK
6
CONTINUOUS
10
6.05642
20
-3.38514
11
6.05642
21
-3.36984
0
LINE
8
BLACK
6
CONTINUOUS
10
6.05642
20
-3.36984
11
6.05641
21
-3.36963
0
LINE
8
BLACK
6
CONTINUOUS
10
6.05641
20
-3.36963
11
6.05587
21
-3.36304
0
LINE
8
BLACK
6
CONTINUOUS
10
6.05587
20
-3.36304
11
6.0558
21
-3.36264
0
LINE
8
BLACK
6
CONTINUOUS
10
6.0558
20
-3.36264
11
6.05364
21
-3.35404
0
LINE
8
BLACK
6
CONTINUOUS
10
6.05364
20
-3.35404
11
6.05351
21
-3.35366
0
LINE
8
BLACK
6
CONTINUOUS
10
6.05351
20
-3.35366
11
6.04997
21
-3.34552
0
LINE
8
BLACK
6
CONTINUOUS
10
6.04997
20
-3.34552
11
6.04978
21
-3.34516
0
LINE
8
BLACK
6
CONTINUOUS
10
6.04978
20
-3.34516
11
6.04496
21
-3.33772
0
LINE
8
BLACK
6
CONTINUOUS
10
6.04496
20
-3.33772
11
6.04471
21
-3.3374
0
LINE
8
BLACK
6
CONTINUOUS
10
6.04471
20
-3.3374
11
6.03875
21
-3.33083
0
LINE
8
BLACK
6
CONTINUOUS
10
6.03875
20
-3.33083
11
6.03845
21
-3.33056
0
LINE
8
BLACK
6
CONTINUOUS
10
6.03845
20
-3.33056
11
6.03149
21
-3.32506
0
LINE
8
BLACK
6
CONTINUOUS
10
6.03149
20
-3.32506
11
6.03115
21
-3.32484
0
LINE
8
BLACK
6
CONTINUOUS
10
6.03115
20
-3.32484
11
6.02338
21
-3.32055
0
LINE
8
BLACK
6
CONTINUOUS
10
6.02338
20
-3.32055
11
6.02301
21
-3.32038
0
LINE
8
BLACK
6
CONTINUOUS
10
6.02301
20
-3.32038
11
6.01465
21
-3.31742
0
LINE
8
BLACK
6
CONTINUOUS
10
6.01465
20
-3.31742
11
6.01426
21
-3.31732
0
LINE
8
BLACK
6
CONTINUOUS
10
6.01426
20
-3.31732
11
6.0107
21
-3.31668
0
LINE
8
BLACK
6
CONTINUOUS
10
6.0107
20
-3.31668
11
6.01018
21
-3.31674
0
LINE
8
BLACK
6
CONTINUOUS
10
7.01175
20
-3.31674
11
7.01157
21
-3.31732
0
LINE
8
BLACK
6
CONTINUOUS
10
7.01157
20
-3.31732
11
7.01157
21
-3.33719
0
LINE
8
BLACK
6
CONTINUOUS
10
7.01157
20
-3.33719
11
7.01283
21
-3.33745
0
LINE
8
BLACK
6
CONTINUOUS
10
7.01283
20
-3.33745
11
7.01978
21
-3.34055
0
LINE
8
BLACK
6
CONTINUOUS
10
7.01978
20
-3.34055
11
7.02594
21
-3.34502
0
LINE
8
BLACK
6
CONTINUOUS
10
7.02594
20
-3.34502
11
7.03104
21
-3.35068
0
LINE
8
BLACK
6
CONTINUOUS
10
7.03104
20
-3.35068
11
7.03484
21
-3.35727
0
LINE
8
BLACK
6
CONTINUOUS
10
7.03484
20
-3.35727
11
7.0372
21
-3.36452
0
LINE
8
BLACK
6
CONTINUOUS
10
7.0372
20
-3.36452
11
7.03799
21
-3.37209
0
LINE
8
BLACK
6
CONTINUOUS
10
7.03799
20
-3.37209
11
7.03799
21
-3.38567
0
LINE
8
BLACK
6
CONTINUOUS
10
7.03799
20
-3.38567
11
7.05728
21
-3.38567
0
LINE
8
BLACK
6
CONTINUOUS
10
7.05728
20
-3.38567
11
7.05788
21
-3.38549
0
LINE
8
BLACK
6
CONTINUOUS
10
7.05788
20
-3.38549
11
7.05793
21
-3.38544
0
LINE
8
BLACK
6
CONTINUOUS
10
7.05793
20
-3.38544
11
7.05799
21
-3.38514
0
LINE
8
BLACK
6
CONTINUOUS
10
7.05799
20
-3.38514
11
7.05799
21
-3.36984
0
LINE
8
BLACK
6
CONTINUOUS
10
7.05799
20
-3.36984
11
7.05798
21
-3.36963
0
LINE
8
BLACK
6
CONTINUOUS
10
7.05798
20
-3.36963
11
7.05744
21
-3.36304
0
LINE
8
BLACK
6
CONTINUOUS
10
7.05744
20
-3.36304
11
7.05738
21
-3.36264
0
LINE
8
BLACK
6
CONTINUOUS
10
7.05738
20
-3.36264
11
7.05521
21
-3.35404
0
LINE
8
BLACK
6
CONTINUOUS
10
7.05521
20
-3.35404
11
7.05508
21
-3.35366
0
LINE
8
BLACK
6
CONTINUOUS
10
7.05508
20
-3.35366
11
7.05155
21
-3.34552
0
LINE
8
BLACK
6
CONTINUOUS
10
7.05155
20
-3.34552
11
7.05136
21
-3.34516
0
LINE
8
BLACK
6
CONTINUOUS
10
7.05136
20
-3.34516
11
7.04654
21
-3.33772
0
LINE
8
BLACK
6
CONTINUOUS
10
7.04654
20
-3.33772
11
7.04629
21
-3.3374
0
LINE
8
BLACK
6
CONTINUOUS
10
7.04629
20
-3.3374
11
7.04032
21
-3.33083
0
LINE
8
BLACK
6
CONTINUOUS
10
7.04032
20
-3.33083
11
7.04002
21
-3.33056
0
LINE
8
BLACK
6
CONTINUOUS
10
7.04002
20
-3.33056
11
7.03306
21
-3.32506
0
LINE
8
BLACK
6
CONTINUOUS
10
7.03306
20
-3.32506
11
7.03272
21
-3.32484
0
LINE
8
BLACK
6
CONTINUOUS
10
7.03272
20
-3.32484
11
7.02496
21
-3.32055
0
LINE
8
BLACK
6
CONTINUOUS
10
7.02496
20
-3.32055
11
7.02459
21
-3.32038
0
LINE
8
BLACK
6
CONTINUOUS
10
7.02459
20
-3.32038
11
7.01623
21
-3.31742
0
LINE
8
BLACK
6
CONTINUOUS
10
7.01623
20
-3.31742
11
7.01584
21
-3.31732
0
LINE
8
BLACK
6
CONTINUOUS
10
7.01584
20
-3.31732
11
7.01228
21
-3.31668
0
LINE
8
BLACK
6
CONTINUOUS
10
7.01228
20
-3.31668
11
7.01175
21
-3.31674
0
LINE
8
BLACK
6
CONTINUOUS
10
5.01175
20
-3.31674
11
5.01157
21
-3.31732
0
LINE
8
BLACK
6
CONTINUOUS
10
5.01157
20
-3.31732
11
5.01157
21
-3.33719
0
LINE
8
BLACK
6
CONTINUOUS
10
5.01157
20
-3.33719
11
5.01283
21
-3.33745
0
LINE
8
BLACK
6
CONTINUOUS
10
5.01283
20
-3.33745
11
5.01978
21
-3.34055
0
LINE
8
BLACK
6
CONTINUOUS
10
5.01978
20
-3.34055
11
5.02594
21
-3.34502
0
LINE
8
BLACK
6
CONTINUOUS
10
5.02594
20
-3.34502
11
5.03104
21
-3.35068
0
LINE
8
BLACK
6
CONTINUOUS
10
5.03104
20
-3.35068
11
5.03484
21
-3.35727
0
LINE
8
BLACK
6
CONTINUOUS
10
5.03484
20
-3.35727
11
5.0372
21
-3.36452
0
LINE
8
BLACK
6
CONTINUOUS
10
5.0372
20
-3.36452
11
5.03799
21
-3.37209
0
LINE
8
BLACK
6
CONTINUOUS
10
5.03799
20
-3.37209
11
5.03799
21
-3.38567
0
LINE
8
BLACK
6
CONTINUOUS
10
5.03799
20
-3.38567
11
5.05728
21
-3.38567
0
LINE
8
BLACK
6
CONTINUOUS
10
5.05728
20
-3.38567
11
5.05788
21
-3.38549
0
LINE
8
BLACK
6
CONTINUOUS
10
5.05788
20
-3.38549
11
5.05793
21
-3.38544
0
LINE
8
BLACK
6
CONTINUOUS
10
5.05793
20
-3.38544
11
5.05799
21
-3.38514
0
LINE
8
BLACK
6
CONTINUOUS
10
5.05799
20
-3.38514
11
5.05799
21
-3.36984
0
LINE
8
BLACK
6
CONTINUOUS
10
5.05799
20
-3.36984
11
5.05798
21
-3.36963
0
LINE
8
BLACK
6
CONTINUOUS
10
5.05798
20
-3.36963
11
5.05744
21
-3.36304
0
LINE
8
BLACK
6
CONTINUOUS
10
5.05744
20
-3.36304
11
5.05738
21
-3.36264
0
LINE
8
BLACK
6
CONTINUOUS
10
5.05738
20
-3.36264
11
5.05521
21
-3.35404
0
LINE
8
BLACK
6
CONTINUOUS
10
5.05521
20
-3.35404
11
5.05508
21
-3.35366
0
LINE
8
BLACK
6
CONTINUOUS
10
5.05508
20
-3.35366
11
5.05155
21
-3.34552
0
LINE
8
BLACK
6
CONTINUOUS
10
5.05155
20
-3.34552
11
5.05136
21
-3.34516
0
LINE
8
BLACK
6
CONTINUOUS
10
5.05136
20
-3.34516
11
5.04654
21
-3.33772
0
LINE
8
BLACK
6
CONTINUOUS
10
5.04654
20
-3.33772
11
5.04629
21
-3.3374
0
LINE
8
BLACK
6
CONTINUOUS
10
5.04629
20
-3.3374
11
5.04032
21
-3.33083
0
LINE
8
BLACK
6
CONTINUOUS
10
5.04032
20
-3.33083
11
5.04002
21
-3.33056
0
LINE
8
BLACK
6
CONTINUOUS
10
5.04002
20
-3.33056
11
5.03306
21
-3.32506
0
LINE
8
BLACK
6
CONTINUOUS
10
5.03306
20
-3.32506
11
5.03272
21
-3.32484
0
LINE
8
BLACK
6
CONTINUOUS
10
5.03272
20
-3.32484
11
5.02496
21
-3.32055
0
LINE
8
BLACK
6
CONTINUOUS
10
5.02496
20
-3.32055
11
5.02459
21
-3.32038
0
LINE
8
BLACK
6
CONTINUOUS
10
5.02459
20
-3.32038
11
5.01623
21
-3.31742
0
LINE
8
BLACK
6
CONTINUOUS
10
5.01623
20
-3.31742
11
5.01584
21
-3.31732
0
LINE
8
BLACK
6
CONTINUOUS
10
5.01584
20
-3.31732
11
5.01228
21
-3.31668
0
LINE
8
BLACK
6
CONTINUOUS
10
5.01228
20
-3.31668
11
5.01175
21
-3.31674
0
LINE
8
BLACK
6
CONTINUOUS
10
5.01175
20
-2.82462
11
5.01157
21
-2.82519
0
LINE
8
BLACK
6
CONTINUOUS
10
5.01157
20
-2.82519
11
5.01157
21
-2.84506
0
LINE
8
BLACK
6
CONTINUOUS
10
5.01157
20
-2.84506
11
5.01283
21
-2.84533
0
LINE
8
BLACK
6
CONTINUOUS
10
5.01283
20
-2.84533
11
5.01978
21
-2.84842
0
LINE
8
BLACK
6
CONTINUOUS
10
5.01978
20
-2.84842
11
5.02594
21
-2.8529
0
LINE
8
BLACK
6
CONTINUOUS
10
5.02594
20
-2.8529
11
5.03104
21
-2.85856
0
LINE
8
BLACK
6
CONTINUOUS
10
5.03104
20
-2.85856
11
5.03484
21
-2.86515
0
LINE
8
BLACK
6
CONTINUOUS
10
5.03484
20
-2.86515
11
5.0372
21
-2.87239
0
LINE
8
BLACK
6
CONTINUOUS
10
5.0372
20
-2.87239
11
5.03799
21
-2.87996
0
LINE
8
BLACK
6
CONTINUOUS
10
5.03799
20
-2.87996
11
5.03799
21
-2.89354
0
LINE
8
BLACK
6
CONTINUOUS
10
5.03799
20
-2.89354
11
5.05728
21
-2.89354
0
LINE
8
BLACK
6
CONTINUOUS
10
5.05728
20
-2.89354
11
5.05788
21
-2.89337
0
LINE
8
BLACK
6
CONTINUOUS
10
5.05788
20
-2.89337
11
5.05793
21
-2.89331
0
LINE
8
BLACK
6
CONTINUOUS
10
5.05793
20
-2.89331
11
5.05799
21
-2.89301
0
LINE
8
BLACK
6
CONTINUOUS
10
5.05799
20
-2.89301
11
5.05799
21
-2.87771
0
LINE
8
BLACK
6
CONTINUOUS
10
5.05799
20
-2.87771
11
5.05798
21
-2.87751
0
LINE
8
BLACK
6
CONTINUOUS
10
5.05798
20
-2.87751
11
5.05744
21
-2.87092
0
LINE
8
BLACK
6
CONTINUOUS
10
5.05744
20
-2.87092
11
5.05738
21
-2.87052
0
LINE
8
BLACK
6
CONTINUOUS
10
5.05738
20
-2.87052
11
5.05521
21
-2.86191
0
LINE
8
BLACK
6
CONTINUOUS
10
5.05521
20
-2.86191
11
5.05508
21
-2.86153
0
LINE
8
BLACK
6
CONTINUOUS
10
5.05508
20
-2.86153
11
5.05155
21
-2.8534
0
LINE
8
BLACK
6
CONTINUOUS
10
5.05155
20
-2.8534
11
5.05136
21
-2.85304
0
LINE
8
BLACK
6
CONTINUOUS
10
5.05136
20
-2.85304
11
5.04654
21
-2.84559
0
LINE
8
BLACK
6
CONTINUOUS
10
5.04654
20
-2.84559
11
5.04629
21
-2.84527
0
LINE
8
BLACK
6
CONTINUOUS
10
5.04629
20
-2.84527
11
5.04032
21
-2.83871
0
LINE
8
BLACK
6
CONTINUOUS
10
5.04032
20
-2.83871
11
5.04002
21
-2.83843
0
LINE
8
BLACK
6
CONTINUOUS
10
5.04002
20
-2.83843
11
5.03306
21
-2.83293
0
LINE
8
BLACK
6
CONTINUOUS
10
5.03306
20
-2.83293
11
5.03272
21
-2.83271
0
LINE
8
BLACK
6
CONTINUOUS
10
5.03272
20
-2.83271
11
5.02496
21
-2.82842
0
LINE
8
BLACK
6
CONTINUOUS
10
5.02496
20
-2.82842
11
5.02459
21
-2.82826
0
LINE
8
BLACK
6
CONTINUOUS
10
5.02459
20
-2.82826
11
5.01623
21
-2.8253
0
LINE
8
BLACK
6
CONTINUOUS
10
5.01623
20
-2.8253
11
5.01584
21
-2.82519
0
LINE
8
BLACK
6
CONTINUOUS
10
5.01584
20
-2.82519
11
5.01228
21
-2.82456
0
LINE
8
BLACK
6
CONTINUOUS
10
5.01228
20
-2.82456
11
5.01175
21
-2.82462
0
LINE
8
BLACK
6
CONTINUOUS
10
6.01018
20
-2.82462
11
6.01
21
-2.82519
0
LINE
8
BLACK
6
CONTINUOUS
10
6.01
20
-2.82519
11
6.01
21
-2.84506
0
LINE
8
BLACK
6
CONTINUOUS
10
6.01
20
-2.84506
11
6.01125
21
-2.84533
0
LINE
8
BLACK
6
CONTINUOUS
10
6.01125
20
-2.84533
11
6.01821
21
-2.84842
0
LINE
8
BLACK
6
CONTINUOUS
10
6.01821
20
-2.84842
11
6.02437
21
-2.8529
0
LINE
8
BLACK
6
CONTINUOUS
10
6.02437
20
-2.8529
11
6.02946
21
-2.85856
0
LINE
8
BLACK
6
CONTINUOUS
10
6.02946
20
-2.85856
11
6.03327
21
-2.86515
0
LINE
8
BLACK
6
CONTINUOUS
10
6.03327
20
-2.86515
11
6.03562
21
-2.87239
0
LINE
8
BLACK
6
CONTINUOUS
10
6.03562
20
-2.87239
11
6.03642
21
-2.87996
0
LINE
8
BLACK
6
CONTINUOUS
10
6.03642
20
-2.87996
11
6.03642
21
-2.89354
0
LINE
8
BLACK
6
CONTINUOUS
10
6.03642
20
-2.89354
11
6.0557
21
-2.89354
0
LINE
8
BLACK
6
CONTINUOUS
10
6.0557
20
-2.89354
11
6.0563
21
-2.89337
0
LINE
8
BLACK
6
CONTINUOUS
10
6.0563
20
-2.89337
11
6.05635
21
-2.89331
0
LINE
8
BLACK
6
CONTINUOUS
10
6.05635
20
-2.89331
11
6.05642
21
-2.89301
0
LINE
8
BLACK
6
CONTINUOUS
10
6.05642
20
-2.89301
11
6.05642
21
-2.87771
0
LINE
8
BLACK
6
CONTINUOUS
10
6.05642
20
-2.87771
11
6.05641
21
-2.87751
0
LINE
8
BLACK
6
CONTINUOUS
10
6.05641
20
-2.87751
11
6.05587
21
-2.87092
0
LINE
8
BLACK
6
CONTINUOUS
10
6.05587
20
-2.87092
11
6.0558
21
-2.87052
0
LINE
8
BLACK
6
CONTINUOUS
10
6.0558
20
-2.87052
11
6.05364
21
-2.86191
0
LINE
8
BLACK
6
CONTINUOUS
10
6.05364
20
-2.86191
11
6.05351
21
-2.86153
0
LINE
8
BLACK
6
CONTINUOUS
10
6.05351
20
-2.86153
11
6.04997
21
-2.8534
0
LINE
8
BLACK
6
CONTINUOUS
10
6.04997
20
-2.8534
11
6.04978
21
-2.85304
0
LINE
8
BLACK
6
CONTINUOUS
10
6.04978
20
-2.85304
11
6.04496
21
-2.84559
0
LINE
8
BLACK
6
CONTINUOUS
10
6.04496
20
-2.84559
11
6.04471
21
-2.84527
0
LINE
8
BLACK
6
CONTINUOUS
10
6.04471
20
-2.84527
11
6.03875
21
-2.83871
0
LINE
8
BLACK
6
CONTINUOUS
10
6.03875
20
-2.83871
11
6.03845
21
-2.83843
0
LINE
8
BLACK
6
CONTINUOUS
10
6.03845
20
-2.83843
11
6.03149
21
-2.83293
0
LINE
8
BLACK
6
CONTINUOUS
10
6.03149
20
-2.83293
11
6.03115
21
-2.83271
0
LINE
8
BLACK
6
CONTINUOUS
10
6.03115
20
-2.83271
11
6.02338
21
-2.82842
0
LINE
8
BLACK
6
CONTINUOUS
10
6.02338
20
-2.82842
11
6.02301
21
-2.82826
0
LINE
8
BLACK
6
CONTINUOUS
10
6.02301
20
-2.82826
11
6.01465
21
-2.8253
0
LINE
8
BLACK
6
CONTINUOUS
10
6.01465
20
-2.8253
11
6.01426
21
-2.82519
0
LINE
8
BLACK
6
CONTINUOUS
10
6.01426
20
-2.82519
11
6.0107
21
-2.82456
0
LINE
8
BLACK
6
CONTINUOUS
10
6.0107
20
-2.82456
11
6.01018
21
-2.82462
0
LINE
8
BLACK
6
CONTINUOUS
10
7.01175
20
-2.82462
11
7.01157
21
-2.82519
0
LINE
8
BLACK
6
CONTINUOUS
10
7.01157
20
-2.82519
11
7.01157
21
-2.84506
0
LINE
8
BLACK
6
CONTINUOUS
10
7.01157
20
-2.84506
11
7.01283
21
-2.84533
0
LINE
8
BLACK
6
CONTINUOUS
10
7.01283
20
-2.84533
11
7.01978
21
-2.84842
0
LINE
8
BLACK
6
CONTINUOUS
10
7.01978
20
-2.84842
11
7.02594
21
-2.8529
0
LINE
8
BLACK
6
CONTINUOUS
10
7.02594
20
-2.8529
11
7.03104
21
-2.85856
0
LINE
8
BLACK
6
CONTINUOUS
10
7.03104
20
-2.85856
11
7.03484
21
-2.86515
0
LINE
8
BLACK
6
CONTINUOUS
10
7.03484
20
-2.86515
11
7.0372
21
-2.87239
0
LINE
8
BLACK
6
CONTINUOUS
10
7.0372
20
-2.87239
11
7.03799
21
-2.87996
0
LINE
8
BLACK
6
CONTINUOUS
10
7.03799
20
-2.87996
11
7.03799
21
-2.89354
0
LINE
8
BLACK
6
CONTINUOUS
10
7.03799
20
-2.89354
11
7.05728
21
-2.89354
0
LINE
8
BLACK
6
CONTINUOUS
10
7.05728
20
-2.89354
11
7.05788
21
-2.89337
0
LINE
8
BLACK
6
CONTINUOUS
10
7.05788
20
-2.89337
11
7.05793
21
-2.89331
0
LINE
8
BLACK
6
CONTINUOUS
10
7.05793
20
-2.89331
11
7.05799
21
-2.89301
0
LINE
8
BLACK
6
CONTINUOUS
10
7.05799
20
-2.89301
11
7.05799
21
-2.87771
0
LINE
8
BLACK
6
CONTINUOUS
10
7.05799
20
-2.87771
11
7.05798
21
-2.87751
0
LINE
8
BLACK
6
CONTINUOUS
10
7.05798
20
-2.87751
11
7.05744
21
-2.87092
0
LINE
8
BLACK
6
CONTINUOUS
10
7.05744
20
-2.87092
11
7.05738
21
-2.87052
0
LINE
8
BLACK
6
CONTINUOUS
10
7.05738
20
-2.87052
11
7.05521
21
-2.86191
0
LINE
8
BLACK
6
CONTINUOUS
10
7.05521
20
-2.86191
11
7.05508
21
-2.86153
0
LINE
8
BLACK
6
CONTINUOUS
10
7.05508
20
-2.86153
11
7.05155
21
-2.8534
0
LINE
8
BLACK
6
CONTINUOUS
10
7.05155
20
-2.8534
11
7.05136
21
-2.85304
0
LINE
8
BLACK
6
CONTINUOUS
10
7.05136
20
-2.85304
11
7.04654
21
-2.84559
0
LINE
8
BLACK
6
CONTINUOUS
10
7.04654
20
-2.84559
11
7.04629
21
-2.84527
0
LINE
8
BLACK
6
CONTINUOUS
10
7.04629
20
-2.84527
11
7.04032
21
-2.83871
0
LINE
8
BLACK
6
CONTINUOUS
10
7.04032
20
-2.83871
11
7.04002
21
-2.83843
0
LINE
8
BLACK
6
CONTINUOUS
10
7.04002
20
-2.83843
11
7.03306
21
-2.83293
0
LINE
8
BLACK
6
CONTINUOUS
10
7.03306
20
-2.83293
11
7.03272
21
-2.83271
0
LINE
8
BLACK
6
CONTINUOUS
10
7.03272
20
-2.83271
11
7.02496
21
-2.82842
0
LINE
8
BLACK
6
CONTINUOUS
10
7.02496
20
-2.82842
11
7.02459
21
-2.82826
0
LINE
8
BLACK
6
CONTINUOUS
10
7.02459
20
-2.82826
11
7.01623
21
-2.8253
0
LINE
8
BLACK
6
CONTINUOUS
10
7.01623
20
-2.8253
11
7.01584
21
-2.82519
0
LINE
8
BLACK
6
CONTINUOUS
10
7.01584
20
-2.82519
11
7.01228
21
-2.82456
0
LINE
8
BLACK
6
CONTINUOUS
10
7.01228
20
-2.82456
11
7.01175
21
-2.82462
0
LINE
8
BLACK
6
CONTINUOUS
10
7.01229
20
-3.47469
11
7.01449
21
-3.47435
0
LINE
8
BLACK
6
CONTINUOUS
10
7.01449
20
-3.47435
11
7.01489
21
-3.47426
0
LINE
8
BLACK
6
CONTINUOUS
10
7.01489
20
-3.47426
11
7.02332
21
-3.4715
0
LINE
8
BLACK
6
CONTINUOUS
10
7.02332
20
-3.4715
11
7.02369
21
-3.47135
0
LINE
8
BLACK
6
CONTINUOUS
10
7.02369
20
-3.47135
11
7.03156
21
-3.46725
0
LINE
8
BLACK
6
CONTINUOUS
10
7.03156
20
-3.46725
11
7.0319
21
-3.46703
0
LINE
8
BLACK
6
CONTINUOUS
10
7.0319
20
-3.46703
11
7.039
21
-3.46171
0
LINE
8
BLACK
6
CONTINUOUS
10
7.039
20
-3.46171
11
7.0393
21
-3.46144
0
LINE
8
BLACK
6
CONTINUOUS
10
7.0393
20
-3.46144
11
7.04543
21
-3.45503
0
LINE
8
BLACK
6
CONTINUOUS
10
7.04543
20
-3.45503
11
7.04568
21
-3.45471
0
LINE
8
BLACK
6
CONTINUOUS
10
7.04568
20
-3.45471
11
7.05068
21
-3.44738
0
LINE
8
BLACK
6
CONTINUOUS
10
7.05068
20
-3.44738
11
7.05088
21
-3.44703
0
LINE
8
BLACK
6
CONTINUOUS
10
7.05088
20
-3.44703
11
7.05462
21
-3.43898
0
LINE
8
BLACK
6
CONTINUOUS
10
7.05462
20
-3.43898
11
7.05476
21
-3.4386
0
LINE
8
BLACK
6
CONTINUOUS
10
7.05476
20
-3.4386
11
7.05713
21
-3.43006
0
LINE
8
BLACK
6
CONTINUOUS
10
7.05713
20
-3.43006
11
7.0572
21
-3.42966
0
LINE
8
BLACK
6
CONTINUOUS
10
7.0572
20
-3.42966
11
7.05798
21
-3.42242
0
LINE
8
BLACK
6
CONTINUOUS
10
7.05798
20
-3.42242
11
7.05799
21
-3.42215
0
LINE
8
BLACK
6
CONTINUOUS
10
7.05799
20
-3.42215
11
7.05799
21
-3.40638
0
LINE
8
BLACK
6
CONTINUOUS
10
7.05799
20
-3.40638
11
7.05782
21
-3.40578
0
LINE
8
BLACK
6
CONTINUOUS
10
7.05782
20
-3.40578
11
7.05776
21
-3.40574
0
LINE
8
BLACK
6
CONTINUOUS
10
7.05776
20
-3.40574
11
7.05746
21
-3.40567
0
LINE
8
BLACK
6
CONTINUOUS
10
7.05746
20
-3.40567
11
7.03799
21
-3.40567
0
LINE
8
BLACK
6
CONTINUOUS
10
7.03799
20
-3.40567
11
7.03799
21
-3.41925
0
LINE
8
BLACK
6
CONTINUOUS
10
7.03799
20
-3.41925
11
7.0372
21
-3.42682
0
LINE
8
BLACK
6
CONTINUOUS
10
7.0372
20
-3.42682
11
7.03484
21
-3.43406
0
LINE
8
BLACK
6
CONTINUOUS
10
7.03484
20
-3.43406
11
7.03104
21
-3.44066
0
LINE
8
BLACK
6
CONTINUOUS
10
7.03104
20
-3.44066
11
7.02594
21
-3.44632
0
LINE
8
BLACK
6
CONTINUOUS
10
7.02594
20
-3.44632
11
7.01978
21
-3.45079
0
LINE
8
BLACK
6
CONTINUOUS
10
7.01978
20
-3.45079
11
7.01283
21
-3.45389
0
LINE
8
BLACK
6
CONTINUOUS
10
7.01283
20
-3.45389
11
7.01157
21
-3.45415
0
LINE
8
BLACK
6
CONTINUOUS
10
7.01157
20
-3.45415
11
7.01157
21
-3.47409
0
LINE
8
BLACK
6
CONTINUOUS
10
7.01157
20
-3.47409
11
7.01173
21
-3.47461
0
LINE
8
BLACK
6
CONTINUOUS
10
7.01173
20
-3.47461
11
7.01229
21
-3.47469
0
LINE
8
BLACK
6
CONTINUOUS
10
5.94381
20
-3.3856
11
5.94412
21
-3.38567
0
LINE
8
BLACK
6
CONTINUOUS
10
5.94412
20
-3.38567
11
5.96358
21
-3.38567
0
LINE
8
BLACK
6
CONTINUOUS
10
5.96358
20
-3.38567
11
5.96358
21
-3.37209
0
LINE
8
BLACK
6
CONTINUOUS
10
5.96358
20
-3.37209
11
5.96438
21
-3.36452
0
LINE
8
BLACK
6
CONTINUOUS
10
5.96438
20
-3.36452
11
5.96673
21
-3.35727
0
LINE
8
BLACK
6
CONTINUOUS
10
5.96673
20
-3.35727
11
5.97054
21
-3.35068
0
LINE
8
BLACK
6
CONTINUOUS
10
5.97054
20
-3.35068
11
5.97563
21
-3.34502
0
LINE
8
BLACK
6
CONTINUOUS
10
5.97563
20
-3.34502
11
5.98179
21
-3.34055
0
LINE
8
BLACK
6
CONTINUOUS
10
5.98179
20
-3.34055
11
5.98875
21
-3.33745
0
LINE
8
BLACK
6
CONTINUOUS
10
5.98875
20
-3.33745
11
5.99
21
-3.33719
0
LINE
8
BLACK
6
CONTINUOUS
10
5.99
20
-3.33719
11
5.99
21
-3.31725
0
LINE
8
BLACK
6
CONTINUOUS
10
5.99
20
-3.31725
11
5.98985
21
-3.31673
0
LINE
8
BLACK
6
CONTINUOUS
10
5.98985
20
-3.31673
11
5.98928
21
-3.31665
0
LINE
8
BLACK
6
CONTINUOUS
10
5.98928
20
-3.31665
11
5.98708
21
-3.31699
0
LINE
8
BLACK
6
CONTINUOUS
10
5.98708
20
-3.31699
11
5.98669
21
-3.31708
0
LINE
8
BLACK
6
CONTINUOUS
10
5.98669
20
-3.31708
11
5.97826
21
-3.31984
0
LINE
8
BLACK
6
CONTINUOUS
10
5.97826
20
-3.31984
11
5.97788
21
-3.31999
0
LINE
8
BLACK
6
CONTINUOUS
10
5.97788
20
-3.31999
11
5.97001
21
-3.32409
0
LINE
8
BLACK
6
CONTINUOUS
10
5.97001
20
-3.32409
11
5.96967
21
-3.32431
0
LINE
8
BLACK
6
CONTINUOUS
10
5.96967
20
-3.32431
11
5.96258
21
-3.32963
0
LINE
8
BLACK
6
CONTINUOUS
10
5.96258
20
-3.32963
11
5.96227
21
-3.3299
0
LINE
8
BLACK
6
CONTINUOUS
10
5.96227
20
-3.3299
11
5.95615
21
-3.33631
0
LINE
8
BLACK
6
CONTINUOUS
10
5.95615
20
-3.33631
11
5.95589
21
-3.33663
0
LINE
8
BLACK
6
CONTINUOUS
10
5.95589
20
-3.33663
11
5.95089
21
-3.34396
0
LINE
8
BLACK
6
CONTINUOUS
10
5.95089
20
-3.34396
11
5.95069
21
-3.34431
0
LINE
8
BLACK
6
CONTINUOUS
10
5.95069
20
-3.34431
11
5.94696
21
-3.35235
0
LINE
8
BLACK
6
CONTINUOUS
10
5.94696
20
-3.35235
11
5.94682
21
-3.35274
0
LINE
8
BLACK
6
CONTINUOUS
10
5.94682
20
-3.35274
11
5.94445
21
-3.36128
0
LINE
8
BLACK
6
CONTINUOUS
10
5.94445
20
-3.36128
11
5.94437
21
-3.36168
0
LINE
8
BLACK
6
CONTINUOUS
10
5.94437
20
-3.36168
11
5.9436
21
-3.36892
0
LINE
8
BLACK
6
CONTINUOUS
10
5.9436
20
-3.36892
11
5.94358
21
-3.36918
0
LINE
8
BLACK
6
CONTINUOUS
10
5.94358
20
-3.36918
11
5.94358
21
-3.38496
0
LINE
8
BLACK
6
CONTINUOUS
10
5.94358
20
-3.38496
11
5.94376
21
-3.38556
0
LINE
8
BLACK
6
CONTINUOUS
10
5.94376
20
-3.38556
11
5.94381
21
-3.3856
0
LINE
8
BLACK
6
CONTINUOUS
10
4.99157
20
-3.45415
11
4.99032
21
-3.45389
0
LINE
8
BLACK
6
CONTINUOUS
10
4.99032
20
-3.45389
11
4.98337
21
-3.45079
0
LINE
8
BLACK
6
CONTINUOUS
10
4.98337
20
-3.45079
11
4.97721
21
-3.44632
0
LINE
8
BLACK
6
CONTINUOUS
10
4.97721
20
-3.44632
11
4.97211
21
-3.44066
0
LINE
8
BLACK
6
CONTINUOUS
10
4.97211
20
-3.44066
11
4.96831
21
-3.43406
0
LINE
8
BLACK
6
CONTINUOUS
10
4.96831
20
-3.43406
11
4.96595
21
-3.42682
0
LINE
8
BLACK
6
CONTINUOUS
10
4.96595
20
-3.42682
11
4.96516
21
-3.41925
0
LINE
8
BLACK
6
CONTINUOUS
10
4.96516
20
-3.41925
11
4.96516
21
-3.40567
0
LINE
8
BLACK
6
CONTINUOUS
10
4.96516
20
-3.40567
11
4.94587
21
-3.40567
0
LINE
8
BLACK
6
CONTINUOUS
10
4.94587
20
-3.40567
11
4.94527
21
-3.40585
0
LINE
8
BLACK
6
CONTINUOUS
10
4.94527
20
-3.40585
11
4.94522
21
-3.4059
0
LINE
8
BLACK
6
CONTINUOUS
10
4.94522
20
-3.4059
11
4.94516
21
-3.4062
0
LINE
8
BLACK
6
CONTINUOUS
10
4.94516
20
-3.4062
11
4.94516
21
-3.4215
0
LINE
8
BLACK
6
CONTINUOUS
10
4.94516
20
-3.4215
11
4.94517
21
-3.42171
0
LINE
8
BLACK
6
CONTINUOUS
10
4.94517
20
-3.42171
11
4.94571
21
-3.42829
0
LINE
8
BLACK
6
CONTINUOUS
10
4.94571
20
-3.42829
11
4.94577
21
-3.4287
0
LINE
8
BLACK
6
CONTINUOUS
10
4.94577
20
-3.4287
11
4.94793
21
-3.4373
0
LINE
8
BLACK
6
CONTINUOUS
10
4.94793
20
-3.4373
11
4.94807
21
-3.43768
0
LINE
8
BLACK
6
CONTINUOUS
10
4.94807
20
-3.43768
11
4.9516
21
-3.44582
0
LINE
8
BLACK
6
CONTINUOUS
10
4.9516
20
-3.44582
11
4.95179
21
-3.44617
0
LINE
8
BLACK
6
CONTINUOUS
10
4.95179
20
-3.44617
11
4.95661
21
-3.45362
0
LINE
8
BLACK
6
CONTINUOUS
10
4.95661
20
-3.45362
11
4.95686
21
-3.45394
0
LINE
8
BLACK
6
CONTINUOUS
10
4.95686
20
-3.45394
11
4.96283
21
-3.4605
0
LINE
8
BLACK
6
CONTINUOUS
10
4.96283
20
-3.4605
11
4.96313
21
-3.46078
0
LINE
8
BLACK
6
CONTINUOUS
10
4.96313
20
-3.46078
11
4.97009
21
-3.46628
0
LINE
8
BLACK
6
CONTINUOUS
10
4.97009
20
-3.46628
11
4.97042
21
-3.4665
0
LINE
8
BLACK
6
CONTINUOUS
10
4.97042
20
-3.4665
11
4.97819
21
-3.47079
0
LINE
8
BLACK
6
CONTINUOUS
10
4.97819
20
-3.47079
11
4.97856
21
-3.47096
0
LINE
8
BLACK
6
CONTINUOUS
10
4.97856
20
-3.47096
11
4.98692
21
-3.47392
0
LINE
8
BLACK
6
CONTINUOUS
10
4.98692
20
-3.47392
11
4.98731
21
-3.47402
0
LINE
8
BLACK
6
CONTINUOUS
10
4.98731
20
-3.47402
11
4.99087
21
-3.47465
0
LINE
8
BLACK
6
CONTINUOUS
10
4.99087
20
-3.47465
11
4.9914
21
-3.4746
0
LINE
8
BLACK
6
CONTINUOUS
10
4.9914
20
-3.4746
11
4.99156
21
-3.47409
0
LINE
8
BLACK
6
CONTINUOUS
10
4.99156
20
-3.47409
11
4.99157
21
-3.47402
0
LINE
8
BLACK
6
CONTINUOUS
10
4.99157
20
-3.47402
11
4.99157
21
-3.45415
0
LINE
8
BLACK
6
CONTINUOUS
10
5.99
20
-3.45415
11
5.98875
21
-3.45389
0
LINE
8
BLACK
6
CONTINUOUS
10
5.98875
20
-3.45389
11
5.98179
21
-3.45079
0
LINE
8
BLACK
6
CONTINUOUS
10
5.98179
20
-3.45079
11
5.97563
21
-3.44632
0
LINE
8
BLACK
6
CONTINUOUS
10
5.97563
20
-3.44632
11
5.97054
21
-3.44066
0
LINE
8
BLACK
6
CONTINUOUS
10
5.97054
20
-3.44066
11
5.96673
21
-3.43406
0
LINE
8
BLACK
6
CONTINUOUS
10
5.96673
20
-3.43406
11
5.96438
21
-3.42682
0
LINE
8
BLACK
6
CONTINUOUS
10
5.96438
20
-3.42682
11
5.96358
21
-3.41925
0
LINE
8
BLACK
6
CONTINUOUS
10
5.96358
20
-3.41925
11
5.96358
21
-3.40567
0
LINE
8
BLACK
6
CONTINUOUS
10
5.96358
20
-3.40567
11
5.9443
21
-3.40567
0
LINE
8
BLACK
6
CONTINUOUS
10
5.9443
20
-3.40567
11
5.9437
21
-3.40585
0
LINE
8
BLACK
6
CONTINUOUS
10
5.9437
20
-3.40585
11
5.94365
21
-3.4059
0
LINE
8
BLACK
6
CONTINUOUS
10
5.94365
20
-3.4059
11
5.94358
21
-3.4062
0
LINE
8
BLACK
6
CONTINUOUS
10
5.94358
20
-3.4062
11
5.94358
21
-3.4215
0
LINE
8
BLACK
6
CONTINUOUS
10
5.94358
20
-3.4215
11
5.94359
21
-3.42171
0
LINE
8
BLACK
6
CONTINUOUS
10
5.94359
20
-3.42171
11
5.94413
21
-3.42829
0
LINE
8
BLACK
6
CONTINUOUS
10
5.94413
20
-3.42829
11
5.9442
21
-3.4287
0
LINE
8
BLACK
6
CONTINUOUS
10
5.9442
20
-3.4287
11
5.94636
21
-3.4373
0
LINE
8
BLACK
6
CONTINUOUS
10
5.94636
20
-3.4373
11
5.94649
21
-3.43768
0
LINE
8
BLACK
6
CONTINUOUS
10
5.94649
20
-3.43768
11
5.95003
21
-3.44582
0
LINE
8
BLACK
6
CONTINUOUS
10
5.95003
20
-3.44582
11
5.95022
21
-3.44617
0
LINE
8
BLACK
6
CONTINUOUS
10
5.95022
20
-3.44617
11
5.95504
21
-3.45362
0
LINE
8
BLACK
6
CONTINUOUS
10
5.95504
20
-3.45362
11
5.95529
21
-3.45394
0
LINE
8
BLACK
6
CONTINUOUS
10
5.95529
20
-3.45394
11
5.96125
21
-3.4605
0
LINE
8
BLACK
6
CONTINUOUS
10
5.96125
20
-3.4605
11
5.96155
21
-3.46078
0
LINE
8
BLACK
6
CONTINUOUS
10
5.96155
20
-3.46078
11
5.96851
21
-3.46628
0
LINE
8
BLACK
6
CONTINUOUS
10
5.96851
20
-3.46628
11
5.96885
21
-3.4665
0
LINE
8
BLACK
6
CONTINUOUS
10
5.96885
20
-3.4665
11
5.97662
21
-3.47079
0
LINE
8
BLACK
6
CONTINUOUS
10
5.97662
20
-3.47079
11
5.97699
21
-3.47096
0
LINE
8
BLACK
6
CONTINUOUS
10
5.97699
20
-3.47096
11
5.98535
21
-3.47392
0
LINE
8
BLACK
6
CONTINUOUS
10
5.98535
20
-3.47392
11
5.98574
21
-3.47402
0
LINE
8
BLACK
6
CONTINUOUS
10
5.98574
20
-3.47402
11
5.9893
21
-3.47465
0
LINE
8
BLACK
6
CONTINUOUS
10
5.9893
20
-3.47465
11
5.98982
21
-3.4746
0
LINE
8
BLACK
6
CONTINUOUS
10
5.98982
20
-3.4746
11
5.98998
21
-3.47409
0
LINE
8
BLACK
6
CONTINUOUS
10
5.98998
20
-3.47409
11
5.99
21
-3.47402
0
LINE
8
BLACK
6
CONTINUOUS
10
5.99
20
-3.47402
11
5.99
21
-3.45415
0
LINE
8
BLACK
6
CONTINUOUS
10
6.99157
20
-3.45415
11
6.99032
21
-3.45389
0
LINE
8
BLACK
6
CONTINUOUS
10
6.99032
20
-3.45389
11
6.98337
21
-3.45079
0
LINE
8
BLACK
6
CONTINUOUS
10
6.98337
20
-3.45079
11
6.97721
21
-3.44632
0
LINE
8
BLACK
6
CONTINUOUS
10
6.97721
20
-3.44632
11
6.97211
21
-3.44066
0
LINE
8
BLACK
6
CONTINUOUS
10
6.97211
20
-3.44066
11
6.96831
21
-3.43406
0
LINE
8
BLACK
6
CONTINUOUS
10
6.96831
20
-3.43406
11
6.96595
21
-3.42682
0
LINE
8
BLACK
6
CONTINUOUS
10
6.96595
20
-3.42682
11
6.96516
21
-3.41925
0
LINE
8
BLACK
6
CONTINUOUS
10
6.96516
20
-3.41925
11
6.96516
21
-3.40567
0
LINE
8
BLACK
6
CONTINUOUS
10
6.96516
20
-3.40567
11
6.94587
21
-3.40567
0
LINE
8
BLACK
6
CONTINUOUS
10
6.94587
20
-3.40567
11
6.94527
21
-3.40585
0
LINE
8
BLACK
6
CONTINUOUS
10
6.94527
20
-3.40585
11
6.94522
21
-3.4059
0
LINE
8
BLACK
6
CONTINUOUS
10
6.94522
20
-3.4059
11
6.94516
21
-3.4062
0
LINE
8
BLACK
6
CONTINUOUS
10
6.94516
20
-3.4062
11
6.94516
21
-3.4215
0
LINE
8
BLACK
6
CONTINUOUS
10
6.94516
20
-3.4215
11
6.94517
21
-3.42171
0
LINE
8
BLACK
6
CONTINUOUS
10
6.94517
20
-3.42171
11
6.94571
21
-3.42829
0
LINE
8
BLACK
6
CONTINUOUS
10
6.94571
20
-3.42829
11
6.94577
21
-3.4287
0
LINE
8
BLACK
6
CONTINUOUS
10
6.94577
20
-3.4287
11
6.94793
21
-3.4373
0
LINE
8
BLACK
6
CONTINUOUS
10
6.94793
20
-3.4373
11
6.94807
21
-3.43768
0
LINE
8
BLACK
6
CONTINUOUS
10
6.94807
20
-3.43768
11
6.9516
21
-3.44582
0
LINE
8
BLACK
6
CONTINUOUS
10
6.9516
20
-3.44582
11
6.95179
21
-3.44617
0
LINE
8
BLACK
6
CONTINUOUS
10
6.95179
20
-3.44617
11
6.95661
21
-3.45362
0
LINE
8
BLACK
6
CONTINUOUS
10
6.95661
20
-3.45362
11
6.95686
21
-3.45394
0
LINE
8
BLACK
6
CONTINUOUS
10
6.95686
20
-3.45394
11
6.96283
21
-3.4605
0
LINE
8
BLACK
6
CONTINUOUS
10
6.96283
20
-3.4605
11
6.96313
21
-3.46078
0
LINE
8
BLACK
6
CONTINUOUS
10
6.96313
20
-3.46078
11
6.97009
21
-3.46628
0
LINE
8
BLACK
6
CONTINUOUS
10
6.97009
20
-3.46628
11
6.97042
21
-3.4665
0
LINE
8
BLACK
6
CONTINUOUS
10
6.97042
20
-3.4665
11
6.97819
21
-3.47079
0
LINE
8
BLACK
6
CONTINUOUS
10
6.97819
20
-3.47079
11
6.97856
21
-3.47096
0
LINE
8
BLACK
6
CONTINUOUS
10
6.97856
20
-3.47096
11
6.98692
21
-3.47392
0
LINE
8
BLACK
6
CONTINUOUS
10
6.98692
20
-3.47392
11
6.98731
21
-3.47402
0
LINE
8
BLACK
6
CONTINUOUS
10
6.98731
20
-3.47402
11
6.99087
21
-3.47465
0
LINE
8
BLACK
6
CONTINUOUS
10
6.99087
20
-3.47465
11
6.9914
21
-3.4746
0
LINE
8
BLACK
6
CONTINUOUS
10
6.9914
20
-3.4746
11
6.99156
21
-3.47409
0
LINE
8
BLACK
6
CONTINUOUS
10
6.99156
20
-3.47409
11
6.99157
21
-3.47402
0
LINE
8
BLACK
6
CONTINUOUS
10
6.99157
20
-3.47402
11
6.99157
21
-3.45415
0
LINE
8
BLACK
6
CONTINUOUS
10
5.01229
20
-3.47469
11
5.01449
21
-3.47435
0
LINE
8
BLACK
6
CONTINUOUS
10
5.01449
20
-3.47435
11
5.01489
21
-3.47426
0
LINE
8
BLACK
6
CONTINUOUS
10
5.01489
20
-3.47426
11
5.02332
21
-3.4715
0
LINE
8
BLACK
6
CONTINUOUS
10
5.02332
20
-3.4715
11
5.02369
21
-3.47135
0
LINE
8
BLACK
6
CONTINUOUS
10
5.02369
20
-3.47135
11
5.03156
21
-3.46725
0
LINE
8
BLACK
6
CONTINUOUS
10
5.03156
20
-3.46725
11
5.0319
21
-3.46703
0
LINE
8
BLACK
6
CONTINUOUS
10
5.0319
20
-3.46703
11
5.039
21
-3.46171
0
LINE
8
BLACK
6
CONTINUOUS
10
5.039
20
-3.46171
11
5.0393
21
-3.46144
0
LINE
8
BLACK
6
CONTINUOUS
10
5.0393
20
-3.46144
11
5.04543
21
-3.45503
0
LINE
8
BLACK
6
CONTINUOUS
10
5.04543
20
-3.45503
11
5.04568
21
-3.45471
0
LINE
8
BLACK
6
CONTINUOUS
10
5.04568
20
-3.45471
11
5.05068
21
-3.44738
0
LINE
8
BLACK
6
CONTINUOUS
10
5.05068
20
-3.44738
11
5.05088
21
-3.44703
0
LINE
8
BLACK
6
CONTINUOUS
10
5.05088
20
-3.44703
11
5.05462
21
-3.43898
0
LINE
8
BLACK
6
CONTINUOUS
10
5.05462
20
-3.43898
11
5.05476
21
-3.4386
0
LINE
8
BLACK
6
CONTINUOUS
10
5.05476
20
-3.4386
11
5.05713
21
-3.43006
0
LINE
8
BLACK
6
CONTINUOUS
10
5.05713
20
-3.43006
11
5.0572
21
-3.42966
0
LINE
8
BLACK
6
CONTINUOUS
10
5.0572
20
-3.42966
11
5.05798
21
-3.42242
0
LINE
8
BLACK
6
CONTINUOUS
10
5.05798
20
-3.42242
11
5.05799
21
-3.42215
0
LINE
8
BLACK
6
CONTINUOUS
10
5.05799
20
-3.42215
11
5.05799
21
-3.40638
0
LINE
8
BLACK
6
CONTINUOUS
10
5.05799
20
-3.40638
11
5.05782
21
-3.40578
0
LINE
8
BLACK
6
CONTINUOUS
10
5.05782
20
-3.40578
11
5.05776
21
-3.40574
0
LINE
8
BLACK
6
CONTINUOUS
10
5.05776
20
-3.40574
11
5.05746
21
-3.40567
0
LINE
8
BLACK
6
CONTINUOUS
10
5.05746
20
-3.40567
11
5.03799
21
-3.40567
0
LINE
8
BLACK
6
CONTINUOUS
10
5.03799
20
-3.40567
11
5.03799
21
-3.41925
0
LINE
8
BLACK
6
CONTINUOUS
10
5.03799
20
-3.41925
11
5.0372
21
-3.42682
0
LINE
8
BLACK
6
CONTINUOUS
10
5.0372
20
-3.42682
11
5.03484
21
-3.43406
0
LINE
8
BLACK
6
CONTINUOUS
10
5.03484
20
-3.43406
11
5.03104
21
-3.44066
0
LINE
8
BLACK
6
CONTINUOUS
10
5.03104
20
-3.44066
11
5.02594
21
-3.44632
0
LINE
8
BLACK
6
CONTINUOUS
10
5.02594
20
-3.44632
11
5.01978
21
-3.45079
0
LINE
8
BLACK
6
CONTINUOUS
10
5.01978
20
-3.45079
11
5.01283
21
-3.45389
0
LINE
8
BLACK
6
CONTINUOUS
10
5.01283
20
-3.45389
11
5.01157
21
-3.45415
0
LINE
8
BLACK
6
CONTINUOUS
10
5.01157
20
-3.45415
11
5.01157
21
-3.47409
0
LINE
8
BLACK
6
CONTINUOUS
10
5.01157
20
-3.47409
11
5.01173
21
-3.47461
0
LINE
8
BLACK
6
CONTINUOUS
10
5.01173
20
-3.47461
11
5.01229
21
-3.47469
0
LINE
8
BLACK
6
CONTINUOUS
10
6.01072
20
-3.47469
11
6.01292
21
-3.47435
0
LINE
8
BLACK
6
CONTINUOUS
10
6.01292
20
-3.47435
11
6.01331
21
-3.47426
0
LINE
8
BLACK
6
CONTINUOUS
10
6.01331
20
-3.47426
11
6.02174
21
-3.4715
0
LINE
8
BLACK
6
CONTINUOUS
10
6.02174
20
-3.4715
11
6.02212
21
-3.47135
0
LINE
8
BLACK
6
CONTINUOUS
10
6.02212
20
-3.47135
11
6.02999
21
-3.46725
0
LINE
8
BLACK
6
CONTINUOUS
10
6.02999
20
-3.46725
11
6.03033
21
-3.46703
0
LINE
8
BLACK
6
CONTINUOUS
10
6.03033
20
-3.46703
11
6.03742
21
-3.46171
0
LINE
8
BLACK
6
CONTINUOUS
10
6.03742
20
-3.46171
11
6.03773
21
-3.46144
0
LINE
8
BLACK
6
CONTINUOUS
10
6.03773
20
-3.46144
11
6.04385
21
-3.45503
0
LINE
8
BLACK
6
CONTINUOUS
10
6.04385
20
-3.45503
11
6.04411
21
-3.45471
0
LINE
8
BLACK
6
CONTINUOUS
10
6.04411
20
-3.45471
11
6.04911
21
-3.44738
0
LINE
8
BLACK
6
CONTINUOUS
10
6.04911
20
-3.44738
11
6.04931
21
-3.44703
0
LINE
8
BLACK
6
CONTINUOUS
10
6.04931
20
-3.44703
11
6.05304
21
-3.43898
0
LINE
8
BLACK
6
CONTINUOUS
10
6.05304
20
-3.43898
11
6.05318
21
-3.4386
0
LINE
8
BLACK
6
CONTINUOUS
10
6.05318
20
-3.4386
11
6.05555
21
-3.43006
0
LINE
8
BLACK
6
CONTINUOUS
10
6.05555
20
-3.43006
11
6.05563
21
-3.42966
0
LINE
8
BLACK
6
CONTINUOUS
10
6.05563
20
-3.42966
11
6.0564
21
-3.42242
0
LINE
8
BLACK
6
CONTINUOUS
10
6.0564
20
-3.42242
11
6.05642
21
-3.42215
0
LINE
8
BLACK
6
CONTINUOUS
10
6.05642
20
-3.42215
11
6.05642
21
-3.40638
0
LINE
8
BLACK
6
CONTINUOUS
10
6.05642
20
-3.40638
11
6.05624
21
-3.40578
0
LINE
8
BLACK
6
CONTINUOUS
10
6.05624
20
-3.40578
11
6.05619
21
-3.40574
0
LINE
8
BLACK
6
CONTINUOUS
10
6.05619
20
-3.40574
11
6.05588
21
-3.40567
0
LINE
8
BLACK
6
CONTINUOUS
10
6.05588
20
-3.40567
11
6.03642
21
-3.40567
0
LINE
8
BLACK
6
CONTINUOUS
10
6.03642
20
-3.40567
11
6.03642
21
-3.41925
0
LINE
8
BLACK
6
CONTINUOUS
10
6.03642
20
-3.41925
11
6.03562
21
-3.42682
0
LINE
8
BLACK
6
CONTINUOUS
10
6.03562
20
-3.42682
11
6.03327
21
-3.43406
0
LINE
8
BLACK
6
CONTINUOUS
10
6.03327
20
-3.43406
11
6.02946
21
-3.44066
0
LINE
8
BLACK
6
CONTINUOUS
10
6.02946
20
-3.44066
11
6.02437
21
-3.44632
0
LINE
8
BLACK
6
CONTINUOUS
10
6.02437
20
-3.44632
11
6.01821
21
-3.45079
0
LINE
8
BLACK
6
CONTINUOUS
10
6.01821
20
-3.45079
11
6.01125
21
-3.45389
0
LINE
8
BLACK
6
CONTINUOUS
10
6.01125
20
-3.45389
11
6.01
21
-3.45415
0
LINE
8
BLACK
6
CONTINUOUS
10
6.01
20
-3.45415
11
6.01
21
-3.47409
0
LINE
8
BLACK
6
CONTINUOUS
10
6.01
20
-3.47409
11
6.01015
21
-3.47461
0
LINE
8
BLACK
6
CONTINUOUS
10
6.01015
20
-3.47461
11
6.01072
21
-3.47469
0
LINE
8
BLACK
6
CONTINUOUS
10
6.94539
20
-3.3856
11
6.94569
21
-3.38567
0
LINE
8
BLACK
6
CONTINUOUS
10
6.94569
20
-3.38567
11
6.96516
21
-3.38567
0
LINE
8
BLACK
6
CONTINUOUS
10
6.96516
20
-3.38567
11
6.96516
21
-3.37209
0
LINE
8
BLACK
6
CONTINUOUS
10
6.96516
20
-3.37209
11
6.96595
21
-3.36452
0
LINE
8
BLACK
6
CONTINUOUS
10
6.96595
20
-3.36452
11
6.96831
21
-3.35727
0
LINE
8
BLACK
6
CONTINUOUS
10
6.96831
20
-3.35727
11
6.97211
21
-3.35068
0
LINE
8
BLACK
6
CONTINUOUS
10
6.97211
20
-3.35068
11
6.97721
21
-3.34502
0
LINE
8
BLACK
6
CONTINUOUS
10
6.97721
20
-3.34502
11
6.98337
21
-3.34055
0
LINE
8
BLACK
6
CONTINUOUS
10
6.98337
20
-3.34055
11
6.99032
21
-3.33745
0
LINE
8
BLACK
6
CONTINUOUS
10
6.99032
20
-3.33745
11
6.99157
21
-3.33719
0
LINE
8
BLACK
6
CONTINUOUS
10
6.99157
20
-3.33719
11
6.99157
21
-3.31725
0
LINE
8
BLACK
6
CONTINUOUS
10
6.99157
20
-3.31725
11
6.99142
21
-3.31673
0
LINE
8
BLACK
6
CONTINUOUS
10
6.99142
20
-3.31673
11
6.99086
21
-3.31665
0
LINE
8
BLACK
6
CONTINUOUS
10
6.99086
20
-3.31665
11
6.98866
21
-3.31699
0
LINE
8
BLACK
6
CONTINUOUS
10
6.98866
20
-3.31699
11
6.98826
21
-3.31708
0
LINE
8
BLACK
6
CONTINUOUS
10
6.98826
20
-3.31708
11
6.97983
21
-3.31984
0
LINE
8
BLACK
6
CONTINUOUS
10
6.97983
20
-3.31984
11
6.97946
21
-3.31999
0
LINE
8
BLACK
6
CONTINUOUS
10
6.97946
20
-3.31999
11
6.97159
21
-3.32409
0
LINE
8
BLACK
6
CONTINUOUS
10
6.97159
20
-3.32409
11
6.97125
21
-3.32431
0
LINE
8
BLACK
6
CONTINUOUS
10
6.97125
20
-3.32431
11
6.96415
21
-3.32963
0
LINE
8
BLACK
6
CONTINUOUS
10
6.96415
20
-3.32963
11
6.96385
21
-3.3299
0
LINE
8
BLACK
6
CONTINUOUS
10
6.96385
20
-3.3299
11
6.95772
21
-3.33631
0
LINE
8
BLACK
6
CONTINUOUS
10
6.95772
20
-3.33631
11
6.95747
21
-3.33663
0
LINE
8
BLACK
6
CONTINUOUS
10
6.95747
20
-3.33663
11
6.95247
21
-3.34396
0
LINE
8
BLACK
6
CONTINUOUS
10
6.95247
20
-3.34396
11
6.95227
21
-3.34431
0
LINE
8
BLACK
6
CONTINUOUS
10
6.95227
20
-3.34431
11
6.94853
21
-3.35235
0
LINE
8
BLACK
6
CONTINUOUS
10
6.94853
20
-3.35235
11
6.94839
21
-3.35274
0
LINE
8
BLACK
6
CONTINUOUS
10
6.94839
20
-3.35274
11
6.94602
21
-3.36128
0
LINE
8
BLACK
6
CONTINUOUS
10
6.94602
20
-3.36128
11
6.94595
21
-3.36168
0
LINE
8
BLACK
6
CONTINUOUS
10
6.94595
20
-3.36168
11
6.94517
21
-3.36892
0
LINE
8
BLACK
6
CONTINUOUS
10
6.94517
20
-3.36892
11
6.94516
21
-3.36918
0
LINE
8
BLACK
6
CONTINUOUS
10
6.94516
20
-3.36918
11
6.94516
21
-3.38496
0
LINE
8
BLACK
6
CONTINUOUS
10
6.94516
20
-3.38496
11
6.94533
21
-3.38556
0
LINE
8
BLACK
6
CONTINUOUS
10
6.94533
20
-3.38556
11
6.94539
21
-3.3856
0
LINE
8
BLACK
6
CONTINUOUS
10
4.94539
20
-3.3856
11
4.94569
21
-3.38567
0
LINE
8
BLACK
6
CONTINUOUS
10
4.94569
20
-3.38567
11
4.96516
21
-3.38567
0
LINE
8
BLACK
6
CONTINUOUS
10
4.96516
20
-3.38567
11
4.96516
21
-3.37209
0
LINE
8
BLACK
6
CONTINUOUS
10
4.96516
20
-3.37209
11
4.96595
21
-3.36452
0
LINE
8
BLACK
6
CONTINUOUS
10
4.96595
20
-3.36452
11
4.96831
21
-3.35727
0
LINE
8
BLACK
6
CONTINUOUS
10
4.96831
20
-3.35727
11
4.97211
21
-3.35068
0
LINE
8
BLACK
6
CONTINUOUS
10
4.97211
20
-3.35068
11
4.97721
21
-3.34502
0
LINE
8
BLACK
6
CONTINUOUS
10
4.97721
20
-3.34502
11
4.98337
21
-3.34055
0
LINE
8
BLACK
6
CONTINUOUS
10
4.98337
20
-3.34055
11
4.99032
21
-3.33745
0
LINE
8
BLACK
6
CONTINUOUS
10
4.99032
20
-3.33745
11
4.99157
21
-3.33719
0
LINE
8
BLACK
6
CONTINUOUS
10
4.99157
20
-3.33719
11
4.99157
21
-3.31725
0
LINE
8
BLACK
6
CONTINUOUS
10
4.99157
20
-3.31725
11
4.99142
21
-3.31673
0
LINE
8
BLACK
6
CONTINUOUS
10
4.99142
20
-3.31673
11
4.99086
21
-3.31665
0
LINE
8
BLACK
6
CONTINUOUS
10
4.99086
20
-3.31665
11
4.98866
21
-3.31699
0
LINE
8
BLACK
6
CONTINUOUS
10
4.98866
20
-3.31699
11
4.98826
21
-3.31708
0
LINE
8
BLACK
6
CONTINUOUS
10
4.98826
20
-3.31708
11
4.97983
21
-3.31984
0
LINE
8
BLACK
6
CONTINUOUS
10
4.97983
20
-3.31984
11
4.97946
21
-3.31999
0
LINE
8
BLACK
6
CONTINUOUS
10
4.97946
20
-3.31999
11
4.97159
21
-3.32409
0
LINE
8
BLACK
6
CONTINUOUS
10
4.97159
20
-3.32409
11
4.97125
21
-3.32431
0
LINE
8
BLACK
6
CONTINUOUS
10
4.97125
20
-3.32431
11
4.96415
21
-3.32963
0
LINE
8
BLACK
6
CONTINUOUS
10
4.96415
20
-3.32963
11
4.96385
21
-3.3299
0
LINE
8
BLACK
6
CONTINUOUS
10
4.96385
20
-3.3299
11
4.95772
21
-3.33631
0
LINE
8
BLACK
6
CONTINUOUS
10
4.95772
20
-3.33631
11
4.95747
21
-3.33663
0
LINE
8
BLACK
6
CONTINUOUS
10
4.95747
20
-3.33663
11
4.95247
21
-3.34396
0
LINE
8
BLACK
6
CONTINUOUS
10
4.95247
20
-3.34396
11
4.95227
21
-3.34431
0
LINE
8
BLACK
6
CONTINUOUS
10
4.95227
20
-3.34431
11
4.94853
21
-3.35235
0
LINE
8
BLACK
6
CONTINUOUS
10
4.94853
20
-3.35235
11
4.94839
21
-3.35274
0
LINE
8
BLACK
6
CONTINUOUS
10
4.94839
20
-3.35274
11
4.94602
21
-3.36128
0
LINE
8
BLACK
6
CONTINUOUS
10
4.94602
20
-3.36128
11
4.94595
21
-3.36168
0
LINE
8
BLACK
6
CONTINUOUS
10
4.94595
20
-3.36168
11
4.94517
21
-3.36892
0
LINE
8
BLACK
6
CONTINUOUS
10
4.94517
20
-3.36892
11
4.94516
21
-3.36918
0
LINE
8
BLACK
6
CONTINUOUS
10
4.94516
20
-3.36918
11
4.94516
21
-3.38496
0
LINE
8
BLACK
6
CONTINUOUS
10
4.94516
20
-3.38496
11
4.94533
21
-3.38556
0
LINE
8
BLACK
6
CONTINUOUS
10
4.94533
20
-3.38556
11
4.94539
21
-3.3856
0
LINE
8
BLACK
6
CONTINUOUS
10
5.52142
20
-3.52736
11
5.52586
21
-3.53777
0
LINE
8
BLACK
6
CONTINUOUS
10
5.52586
20
-3.53777
11
5.53168
21
-3.54749
0
LINE
8
BLACK
6
CONTINUOUS
10
5.53168
20
-3.54749
11
5.53875
21
-3.55632
0
LINE
8
BLACK
6
CONTINUOUS
10
5.53875
20
-3.55632
11
5.54696
21
-3.56411
0
LINE
8
BLACK
6
CONTINUOUS
10
5.54696
20
-3.56411
11
5.55615
21
-3.57072
0
LINE
8
BLACK
6
CONTINUOUS
10
5.55615
20
-3.57072
11
5.5563
21
-3.5708
0
LINE
8
BLACK
6
CONTINUOUS
10
5.5563
20
-3.5708
11
5.5563
21
-3.5708
0
LINE
8
BLACK
6
CONTINUOUS
10
5.5563
20
-3.5708
11
5.55716
21
-3.57125
0
LINE
8
BLACK
6
CONTINUOUS
10
5.55716
20
-3.57125
11
5.56616
21
-3.57601
0
LINE
8
BLACK
6
CONTINUOUS
10
5.56616
20
-3.57601
11
5.57679
21
-3.5799
0
LINE
8
BLACK
6
CONTINUOUS
10
5.57679
20
-3.5799
11
5.58785
21
-3.58231
0
LINE
8
BLACK
6
CONTINUOUS
10
5.58785
20
-3.58231
11
5.58897
21
-3.5824
0
LINE
8
BLACK
6
CONTINUOUS
10
5.58897
20
-3.5824
11
5.59663
21
-3.583
0
LINE
8
BLACK
6
CONTINUOUS
10
5.59663
20
-3.583
11
5.59663
21
-3.583
0
LINE
8
BLACK
6
CONTINUOUS
10
5.59663
20
-3.583
11
5.59672
21
-3.58301
0
LINE
8
BLACK
6
CONTINUOUS
10
5.59672
20
-3.58301
11
5.60285
21
-3.58301
0
LINE
8
BLACK
6
CONTINUOUS
10
5.60285
20
-3.58301
11
5.60293
21
-3.58301
0
LINE
8
BLACK
6
CONTINUOUS
10
5.60293
20
-3.58301
11
5.60293
21
-3.58301
0
LINE
8
BLACK
6
CONTINUOUS
10
5.60293
20
-3.58301
11
5.61112
21
-3.58245
0
LINE
8
BLACK
6
CONTINUOUS
10
5.61112
20
-3.58245
11
5.61112
21
-3.58245
0
LINE
8
BLACK
6
CONTINUOUS
10
5.61112
20
-3.58245
11
5.61129
21
-3.58244
0
LINE
8
BLACK
6
CONTINUOUS
10
5.61129
20
-3.58244
11
5.61146
21
-3.5824
0
LINE
8
BLACK
6
CONTINUOUS
10
5.61146
20
-3.5824
11
5.61146
21
-3.5824
0
LINE
8
BLACK
6
CONTINUOUS
10
5.61146
20
-3.5824
11
5.61683
21
-3.58129
0
LINE
8
BLACK
6
CONTINUOUS
10
5.61683
20
-3.58129
11
5.62238
21
-3.58014
0
LINE
8
BLACK
6
CONTINUOUS
10
5.62238
20
-3.58014
11
5.63305
21
-3.57636
0
LINE
8
BLACK
6
CONTINUOUS
10
5.63305
20
-3.57636
11
5.6431
21
-3.57117
0
LINE
8
BLACK
6
CONTINUOUS
10
5.6431
20
-3.57117
11
5.64324
21
-3.57107
0
LINE
8
BLACK
6
CONTINUOUS
10
5.64324
20
-3.57107
11
5.64324
21
-3.57107
0
LINE
8
BLACK
6
CONTINUOUS
10
5.64324
20
-3.57107
11
5.64773
21
-3.56792
0
LINE
8
BLACK
6
CONTINUOUS
10
5.64773
20
-3.56792
11
5.65236
21
-3.56466
0
LINE
8
BLACK
6
CONTINUOUS
10
5.65236
20
-3.56466
11
5.66065
21
-3.55696
0
LINE
8
BLACK
6
CONTINUOUS
10
5.66065
20
-3.55696
11
5.66782
21
-3.5482
0
LINE
8
BLACK
6
CONTINUOUS
10
5.66782
20
-3.5482
11
5.67374
21
-3.53855
0
LINE
8
BLACK
6
CONTINUOUS
10
5.67374
20
-3.53855
11
5.67829
21
-3.52818
0
LINE
8
BLACK
6
CONTINUOUS
10
5.67829
20
-3.52818
11
5.68139
21
-3.5173
0
LINE
8
BLACK
6
CONTINUOUS
10
5.68139
20
-3.5173
11
5.68298
21
-3.50609
0
LINE
8
BLACK
6
CONTINUOUS
10
5.68298
20
-3.50609
11
5.68299
21
-3.50539
0
LINE
8
BLACK
6
CONTINUOUS
10
5.68299
20
-3.50539
11
5.68299
21
-3.50522
0
LINE
8
BLACK
6
CONTINUOUS
10
5.68299
20
-3.50522
11
5.68304
21
-3.49494
0
LINE
8
BLACK
6
CONTINUOUS
10
5.68304
20
-3.49494
11
5.68304
21
-3.49494
0
LINE
8
BLACK
6
CONTINUOUS
10
5.68304
20
-3.49494
11
5.68304
21
-3.49478
0
LINE
8
BLACK
6
CONTINUOUS
10
5.68304
20
-3.49478
11
5.68156
21
-3.48355
0
LINE
8
BLACK
6
CONTINUOUS
10
5.68156
20
-3.48355
11
5.67858
21
-3.47264
0
LINE
8
BLACK
6
CONTINUOUS
10
5.67858
20
-3.47264
11
5.67619
21
-3.46705
0
LINE
8
BLACK
6
CONTINUOUS
10
5.67619
20
-3.46705
11
5.6742
21
-3.46238
0
LINE
8
BLACK
6
CONTINUOUS
10
5.6742
20
-3.46238
11
5.6742
21
-3.46238
0
LINE
8
BLACK
6
CONTINUOUS
10
5.6742
20
-3.46238
11
5.67414
21
-3.46223
0
LINE
8
BLACK
6
CONTINUOUS
10
5.67414
20
-3.46223
11
5.66964
21
-3.45471
0
LINE
8
BLACK
6
CONTINUOUS
10
5.66964
20
-3.45471
11
5.66841
21
-3.45266
0
LINE
8
BLACK
6
CONTINUOUS
10
5.66841
20
-3.45266
11
5.66841
21
-3.45266
0
LINE
8
BLACK
6
CONTINUOUS
10
5.66841
20
-3.45266
11
5.66832
21
-3.45251
0
LINE
8
BLACK
6
CONTINUOUS
10
5.66832
20
-3.45251
11
5.66125
21
-3.44368
0
LINE
8
BLACK
6
CONTINUOUS
10
5.66125
20
-3.44368
11
5.65453
21
-3.4373
0
LINE
8
BLACK
6
CONTINUOUS
10
5.65453
20
-3.4373
11
5.65316
21
-3.436
0
LINE
8
BLACK
6
CONTINUOUS
10
5.65316
20
-3.436
11
5.65316
21
-3.436
0
LINE
8
BLACK
6
CONTINUOUS
10
5.65316
20
-3.436
11
5.65304
21
-3.43589
0
LINE
8
BLACK
6
CONTINUOUS
10
5.65304
20
-3.43589
11
5.64385
21
-3.42928
0
LINE
8
BLACK
6
CONTINUOUS
10
5.64385
20
-3.42928
11
5.64299
21
-3.42883
0
LINE
8
BLACK
6
CONTINUOUS
10
5.64299
20
-3.42883
11
5.64198
21
-3.42829
0
LINE
8
BLACK
6
CONTINUOUS
10
5.64198
20
-3.42829
11
5.63384
21
-3.42399
0
LINE
8
BLACK
6
CONTINUOUS
10
5.63384
20
-3.42399
11
5.62733
21
-3.4216
0
LINE
8
BLACK
6
CONTINUOUS
10
5.62733
20
-3.4216
11
5.62705
21
-3.4215
0
LINE
8
BLACK
6
CONTINUOUS
10
5.62705
20
-3.4215
11
5.62337
21
-3.42016
0
LINE
8
BLACK
6
CONTINUOUS
10
5.62337
20
-3.42016
11
5.62337
21
-3.42016
0
LINE
8
BLACK
6
CONTINUOUS
10
5.62337
20
-3.42016
11
5.62321
21
-3.4201
0
LINE
8
BLACK
6
CONTINUOUS
10
5.62321
20
-3.4201
11
5.61215
21
-3.41769
0
LINE
8
BLACK
6
CONTINUOUS
10
5.61215
20
-3.41769
11
5.61093
21
-3.41759
0
LINE
8
BLACK
6
CONTINUOUS
10
5.61093
20
-3.41759
11
5.60337
21
-3.417
0
LINE
8
BLACK
6
CONTINUOUS
10
5.60337
20
-3.417
11
5.60337
21
-3.417
0
LINE
8
BLACK
6
CONTINUOUS
10
5.60337
20
-3.417
11
5.60328
21
-3.41699
0
LINE
8
BLACK
6
CONTINUOUS
10
5.60328
20
-3.41699
11
5.59715
21
-3.41699
0
LINE
8
BLACK
6
CONTINUOUS
10
5.59715
20
-3.41699
11
5.59707
21
-3.41699
0
LINE
8
BLACK
6
CONTINUOUS
10
5.59707
20
-3.41699
11
5.59707
21
-3.41699
0
LINE
8
BLACK
6
CONTINUOUS
10
5.59707
20
-3.41699
11
5.58888
21
-3.41755
0
LINE
8
BLACK
6
CONTINUOUS
10
5.58888
20
-3.41755
11
5.58888
21
-3.41755
0
LINE
8
BLACK
6
CONTINUOUS
10
5.58888
20
-3.41755
11
5.58871
21
-3.41756
0
LINE
8
BLACK
6
CONTINUOUS
10
5.58871
20
-3.41756
11
5.58854
21
-3.4176
0
LINE
8
BLACK
6
CONTINUOUS
10
5.58854
20
-3.4176
11
5.58854
21
-3.4176
0
LINE
8
BLACK
6
CONTINUOUS
10
5.58854
20
-3.4176
11
5.58317
21
-3.41871
0
LINE
8
BLACK
6
CONTINUOUS
10
5.58317
20
-3.41871
11
5.57762
21
-3.41986
0
LINE
8
BLACK
6
CONTINUOUS
10
5.57762
20
-3.41986
11
5.56696
21
-3.42364
0
LINE
8
BLACK
6
CONTINUOUS
10
5.56696
20
-3.42364
11
5.5569
21
-3.42883
0
LINE
8
BLACK
6
CONTINUOUS
10
5.5569
20
-3.42883
11
5.55676
21
-3.42893
0
LINE
8
BLACK
6
CONTINUOUS
10
5.55676
20
-3.42893
11
5.55676
21
-3.42893
0
LINE
8
BLACK
6
CONTINUOUS
10
5.55676
20
-3.42893
11
5.55515
21
-3.43006
0
LINE
8
BLACK
6
CONTINUOUS
10
5.55515
20
-3.43006
11
5.54764
21
-3.43534
0
LINE
8
BLACK
6
CONTINUOUS
10
5.54764
20
-3.43534
11
5.53935
21
-3.44304
0
LINE
8
BLACK
6
CONTINUOUS
10
5.53935
20
-3.44304
11
5.53218
21
-3.4518
0
LINE
8
BLACK
6
CONTINUOUS
10
5.53218
20
-3.4518
11
5.52626
21
-3.46145
0
LINE
8
BLACK
6
CONTINUOUS
10
5.52626
20
-3.46145
11
5.52619
21
-3.46161
0
LINE
8
BLACK
6
CONTINUOUS
10
5.52619
20
-3.46161
11
5.52619
21
-3.46161
0
LINE
8
BLACK
6
CONTINUOUS
10
5.52619
20
-3.46161
11
5.52614
21
-3.46172
0
LINE
8
BLACK
6
CONTINUOUS
10
5.52614
20
-3.46172
11
5.52171
21
-3.47182
0
LINE
8
BLACK
6
CONTINUOUS
10
5.52171
20
-3.47182
11
5.52167
21
-3.47198
0
LINE
8
BLACK
6
CONTINUOUS
10
5.52167
20
-3.47198
11
5.52167
21
-3.47198
0
LINE
8
BLACK
6
CONTINUOUS
10
5.52167
20
-3.47198
11
5.52064
21
-3.4756
0
LINE
8
BLACK
6
CONTINUOUS
10
5.52064
20
-3.4756
11
5.51861
21
-3.4827
0
LINE
8
BLACK
6
CONTINUOUS
10
5.51861
20
-3.4827
11
5.51702
21
-3.49391
0
LINE
8
BLACK
6
CONTINUOUS
10
5.51702
20
-3.49391
11
5.51702
21
-3.49408
0
LINE
8
BLACK
6
CONTINUOUS
10
5.51702
20
-3.49408
11
5.51702
21
-3.49408
0
LINE
8
BLACK
6
CONTINUOUS
10
5.51702
20
-3.49408
11
5.51696
21
-3.50506
0
LINE
8
BLACK
6
CONTINUOUS
10
5.51696
20
-3.50506
11
5.51696
21
-3.50522
0
LINE
8
BLACK
6
CONTINUOUS
10
5.51696
20
-3.50522
11
5.51844
21
-3.51645
0
LINE
8
BLACK
6
CONTINUOUS
10
5.51844
20
-3.51645
11
5.52142
21
-3.52736
0
LINE
8
BLACK
6
CONTINUOUS
10
5.142
20
-3.42171
11
5.14254
21
-3.4283
0
LINE
8
BLACK
6
CONTINUOUS
10
5.14254
20
-3.4283
11
5.14254
21
-3.4283
0
LINE
8
BLACK
6
CONTINUOUS
10
5.14254
20
-3.4283
11
5.14256
21
-3.4285
0
LINE
8
BLACK
6
CONTINUOUS
10
5.14256
20
-3.4285
11
5.14482
21
-3.4375
0
LINE
8
BLACK
6
CONTINUOUS
10
5.14482
20
-3.4375
11
5.14852
21
-3.44601
0
LINE
8
BLACK
6
CONTINUOUS
10
5.14852
20
-3.44601
11
5.15356
21
-3.4538
0
LINE
8
BLACK
6
CONTINUOUS
10
5.15356
20
-3.4538
11
5.15369
21
-3.45396
0
LINE
8
BLACK
6
CONTINUOUS
10
5.15369
20
-3.45396
11
5.15369
21
-3.45396
0
LINE
8
BLACK
6
CONTINUOUS
10
5.15369
20
-3.45396
11
5.15468
21
-3.45504
0
LINE
8
BLACK
6
CONTINUOUS
10
5.15468
20
-3.45504
11
5.1598
21
-3.46067
0
LINE
8
BLACK
6
CONTINUOUS
10
5.1598
20
-3.46067
11
5.15996
21
-3.46079
0
LINE
8
BLACK
6
CONTINUOUS
10
5.15996
20
-3.46079
11
5.15996
21
-3.46079
0
LINE
8
BLACK
6
CONTINUOUS
10
5.15996
20
-3.46079
11
5.16693
21
-3.46629
0
LINE
8
BLACK
6
CONTINUOUS
10
5.16693
20
-3.46629
11
5.16693
21
-3.46629
0
LINE
8
BLACK
6
CONTINUOUS
10
5.16693
20
-3.46629
11
5.16709
21
-3.46642
0
LINE
8
BLACK
6
CONTINUOUS
10
5.16709
20
-3.46642
11
5.17521
21
-3.47091
0
LINE
8
BLACK
6
CONTINUOUS
10
5.17521
20
-3.47091
11
5.1754
21
-3.47097
0
LINE
8
BLACK
6
CONTINUOUS
10
5.1754
20
-3.47097
11
5.1754
21
-3.47097
0
LINE
8
BLACK
6
CONTINUOUS
10
5.1754
20
-3.47097
11
5.18377
21
-3.47394
0
LINE
8
BLACK
6
CONTINUOUS
10
5.18377
20
-3.47394
11
5.18377
21
-3.47394
0
LINE
8
BLACK
6
CONTINUOUS
10
5.18377
20
-3.47394
11
5.18396
21
-3.474
0
LINE
8
BLACK
6
CONTINUOUS
10
5.18396
20
-3.474
11
5.18416
21
-3.47404
0
LINE
8
BLACK
6
CONTINUOUS
10
5.18416
20
-3.47404
11
5.18416
21
-3.47404
0
LINE
8
BLACK
6
CONTINUOUS
10
5.18416
20
-3.47404
11
5.1929
21
-3.4756
0
LINE
8
BLACK
6
CONTINUOUS
10
5.1929
20
-3.4756
11
5.1929
21
-3.4756
0
LINE
8
BLACK
6
CONTINUOUS
10
5.1929
20
-3.4756
11
5.1931
21
-3.47563
0
LINE
8
BLACK
6
CONTINUOUS
10
5.1931
20
-3.47563
11
5.19667
21
-3.47567
0
LINE
8
BLACK
6
CONTINUOUS
10
5.19667
20
-3.47567
11
5.20217
21
-3.47574
0
LINE
8
BLACK
6
CONTINUOUS
10
5.20217
20
-3.47574
11
5.20217
21
-3.47574
0
LINE
8
BLACK
6
CONTINUOUS
10
5.20217
20
-3.47574
11
5.20238
21
-3.47574
0
LINE
8
BLACK
6
CONTINUOUS
10
5.20238
20
-3.47574
11
5.21155
21
-3.47434
0
LINE
8
BLACK
6
CONTINUOUS
10
5.21155
20
-3.47434
11
5.22037
21
-3.47146
0
LINE
8
BLACK
6
CONTINUOUS
10
5.22037
20
-3.47146
11
5.2286
21
-3.46717
0
LINE
8
BLACK
6
CONTINUOUS
10
5.2286
20
-3.46717
11
5.22876
21
-3.46705
0
LINE
8
BLACK
6
CONTINUOUS
10
5.22876
20
-3.46705
11
5.22877
21
-3.46705
0
LINE
8
BLACK
6
CONTINUOUS
10
5.22877
20
-3.46705
11
5.23586
21
-3.46172
0
LINE
8
BLACK
6
CONTINUOUS
10
5.23586
20
-3.46172
11
5.23586
21
-3.46172
0
LINE
8
BLACK
6
CONTINUOUS
10
5.23586
20
-3.46172
11
5.23602
21
-3.4616
0
LINE
8
BLACK
6
CONTINUOUS
10
5.23602
20
-3.4616
11
5.24244
21
-3.45489
0
LINE
8
BLACK
6
CONTINUOUS
10
5.24244
20
-3.45489
11
5.24767
21
-3.44722
0
LINE
8
BLACK
6
CONTINUOUS
10
5.24767
20
-3.44722
11
5.24775
21
-3.44704
0
LINE
8
BLACK
6
CONTINUOUS
10
5.24775
20
-3.44704
11
5.25149
21
-3.43899
0
LINE
8
BLACK
6
CONTINUOUS
10
5.25149
20
-3.43899
11
5.25149
21
-3.43899
0
LINE
8
BLACK
6
CONTINUOUS
10
5.25149
20
-3.43899
11
5.25157
21
-3.43881
0
LINE
8
BLACK
6
CONTINUOUS
10
5.25157
20
-3.43881
11
5.25405
21
-3.42986
0
LINE
8
BLACK
6
CONTINUOUS
10
5.25405
20
-3.42986
11
5.25468
21
-3.42399
0
LINE
8
BLACK
6
CONTINUOUS
10
5.25468
20
-3.42399
11
5.25485
21
-3.42242
0
LINE
8
BLACK
6
CONTINUOUS
10
5.25485
20
-3.42242
11
5.25485
21
-3.42242
0
LINE
8
BLACK
6
CONTINUOUS
10
5.25485
20
-3.42242
11
5.25486
21
-3.42229
0
LINE
8
BLACK
6
CONTINUOUS
10
5.25486
20
-3.42229
11
5.25486
21
-3.36973
0
LINE
8
BLACK
6
CONTINUOUS
10
5.25486
20
-3.36973
11
5.25481
21
-3.36905
0
LINE
8
BLACK
6
CONTINUOUS
10
5.25481
20
-3.36905
11
5.25431
21
-3.36304
0
LINE
8
BLACK
6
CONTINUOUS
10
5.25431
20
-3.36304
11
5.25431
21
-3.36304
0
LINE
8
BLACK
6
CONTINUOUS
10
5.25431
20
-3.36304
11
5.2543
21
-3.36284
0
LINE
8
BLACK
6
CONTINUOUS
10
5.2543
20
-3.36284
11
5.25203
21
-3.35384
0
LINE
8
BLACK
6
CONTINUOUS
10
5.25203
20
-3.35384
11
5.24833
21
-3.34533
0
LINE
8
BLACK
6
CONTINUOUS
10
5.24833
20
-3.34533
11
5.24329
21
-3.33753
0
LINE
8
BLACK
6
CONTINUOUS
10
5.24329
20
-3.33753
11
5.24247
21
-3.33663
0
LINE
8
BLACK
6
CONTINUOUS
10
5.24247
20
-3.33663
11
5.23718
21
-3.33082
0
LINE
8
BLACK
6
CONTINUOUS
10
5.23718
20
-3.33082
11
5.23718
21
-3.33082
0
LINE
8
BLACK
6
CONTINUOUS
10
5.23718
20
-3.33082
11
5.23705
21
-3.33067
0
LINE
8
BLACK
6
CONTINUOUS
10
5.23705
20
-3.33067
11
5.23689
21
-3.33054
0
LINE
8
BLACK
6
CONTINUOUS
10
5.23689
20
-3.33054
11
5.23689
21
-3.33054
0
LINE
8
BLACK
6
CONTINUOUS
10
5.23689
20
-3.33054
11
5.22992
21
-3.32504
0
LINE
8
BLACK
6
CONTINUOUS
10
5.22992
20
-3.32504
11
5.22992
21
-3.32504
0
LINE
8
BLACK
6
CONTINUOUS
10
5.22992
20
-3.32504
11
5.22976
21
-3.32492
0
LINE
8
BLACK
6
CONTINUOUS
10
5.22976
20
-3.32492
11
5.22901
21
-3.3245
0
LINE
8
BLACK
6
CONTINUOUS
10
5.22901
20
-3.3245
11
5.22637
21
-3.32304
0
LINE
8
BLACK
6
CONTINUOUS
10
5.22637
20
-3.32304
11
5.22164
21
-3.32043
0
LINE
8
BLACK
6
CONTINUOUS
10
5.22164
20
-3.32043
11
5.22145
21
-3.32036
0
LINE
8
BLACK
6
CONTINUOUS
10
5.22145
20
-3.32036
11
5.22145
21
-3.32036
0
LINE
8
BLACK
6
CONTINUOUS
10
5.22145
20
-3.32036
11
5.21308
21
-3.3174
0
LINE
8
BLACK
6
CONTINUOUS
10
5.21308
20
-3.3174
11
5.21308
21
-3.3174
0
LINE
8
BLACK
6
CONTINUOUS
10
5.21308
20
-3.3174
11
5.21289
21
-3.31733
0
LINE
8
BLACK
6
CONTINUOUS
10
5.21289
20
-3.31733
11
5.21269
21
-3.3173
0
LINE
8
BLACK
6
CONTINUOUS
10
5.21269
20
-3.3173
11
5.21269
21
-3.3173
0
LINE
8
BLACK
6
CONTINUOUS
10
5.21269
20
-3.3173
11
5.20395
21
-3.31574
0
LINE
8
BLACK
6
CONTINUOUS
10
5.20395
20
-3.31574
11
5.20395
21
-3.31574
0
LINE
8
BLACK
6
CONTINUOUS
10
5.20395
20
-3.31574
11
5.20375
21
-3.31571
0
LINE
8
BLACK
6
CONTINUOUS
10
5.20375
20
-3.31571
11
5.20018
21
-3.31566
0
LINE
8
BLACK
6
CONTINUOUS
10
5.20018
20
-3.31566
11
5.19468
21
-3.3156
0
LINE
8
BLACK
6
CONTINUOUS
10
5.19468
20
-3.3156
11
5.19468
21
-3.3156
0
LINE
8
BLACK
6
CONTINUOUS
10
5.19468
20
-3.3156
11
5.19447
21
-3.31559
0
LINE
8
BLACK
6
CONTINUOUS
10
5.19447
20
-3.31559
11
5.1853
21
-3.317
0
LINE
8
BLACK
6
CONTINUOUS
10
5.1853
20
-3.317
11
5.17648
21
-3.31988
0
LINE
8
BLACK
6
CONTINUOUS
10
5.17648
20
-3.31988
11
5.16825
21
-3.32417
0
LINE
8
BLACK
6
CONTINUOUS
10
5.16825
20
-3.32417
11
5.16809
21
-3.32429
0
LINE
8
BLACK
6
CONTINUOUS
10
5.16809
20
-3.32429
11
5.16809
21
-3.32429
0
LINE
8
BLACK
6
CONTINUOUS
10
5.16809
20
-3.32429
11
5.16706
21
-3.32506
0
LINE
8
BLACK
6
CONTINUOUS
10
5.16706
20
-3.32506
11
5.16083
21
-3.32974
0
LINE
8
BLACK
6
CONTINUOUS
10
5.16083
20
-3.32974
11
5.15442
21
-3.33645
0
LINE
8
BLACK
6
CONTINUOUS
10
5.15442
20
-3.33645
11
5.14919
21
-3.34411
0
LINE
8
BLACK
6
CONTINUOUS
10
5.14919
20
-3.34411
11
5.1491
21
-3.3443
0
LINE
8
BLACK
6
CONTINUOUS
10
5.1491
20
-3.3443
11
5.1491
21
-3.3443
0
LINE
8
BLACK
6
CONTINUOUS
10
5.1491
20
-3.3443
11
5.14853
21
-3.34552
0
LINE
8
BLACK
6
CONTINUOUS
10
5.14853
20
-3.34552
11
5.14528
21
-3.35253
0
LINE
8
BLACK
6
CONTINUOUS
10
5.14528
20
-3.35253
11
5.1428
21
-3.36148
0
LINE
8
BLACK
6
CONTINUOUS
10
5.1428
20
-3.36148
11
5.14199
21
-3.36905
0
LINE
8
BLACK
6
CONTINUOUS
10
5.14199
20
-3.36905
11
5.14199
21
-3.4216
0
LINE
8
BLACK
6
CONTINUOUS
10
5.14199
20
-3.4216
11
5.142
21
-3.42171
0
LINE
8
BLACK
6
CONTINUOUS
10
5.142
20
-3.42171
11
5.142
21
-3.42171
0
LINE
8
BLACK
6
CONTINUOUS
10
6.61023
20
-3.3034
11
6.61053
21
-3.30346
0
LINE
8
BLACK
6
CONTINUOUS
10
6.61053
20
-3.30346
11
6.63522
21
-3.30346
0
LINE
8
BLACK
6
CONTINUOUS
10
6.63522
20
-3.30346
11
6.63549
21
-3.30345
0
LINE
8
BLACK
6
CONTINUOUS
10
6.63549
20
-3.30345
11
6.63749
21
-3.30323
0
LINE
8
BLACK
6
CONTINUOUS
10
6.63749
20
-3.30323
11
6.63809
21
-3.30309
0
LINE
8
BLACK
6
CONTINUOUS
10
6.63809
20
-3.30309
11
6.64284
21
-3.30131
0
LINE
8
BLACK
6
CONTINUOUS
10
6.64284
20
-3.30131
11
6.64345
21
-3.30098
0
LINE
8
BLACK
6
CONTINUOUS
10
6.64345
20
-3.30098
11
6.64747
21
-3.29796
0
LINE
8
BLACK
6
CONTINUOUS
10
6.64747
20
-3.29796
11
6.64796
21
-3.29747
0
LINE
8
BLACK
6
CONTINUOUS
10
6.64796
20
-3.29747
11
6.65098
21
-3.29345
0
LINE
8
BLACK
6
CONTINUOUS
10
6.65098
20
-3.29345
11
6.65131
21
-3.29284
0
LINE
8
BLACK
6
CONTINUOUS
10
6.65131
20
-3.29284
11
6.65309
21
-3.28809
0
LINE
8
BLACK
6
CONTINUOUS
10
6.65309
20
-3.28809
11
6.65323
21
-3.28749
0
LINE
8
BLACK
6
CONTINUOUS
10
6.65323
20
-3.28749
11
6.65345
21
-3.28549
0
LINE
8
BLACK
6
CONTINUOUS
10
6.65345
20
-3.28549
11
6.65346
21
-3.28522
0
LINE
8
BLACK
6
CONTINUOUS
10
6.65346
20
-3.28522
11
6.65346
21
-3.26071
0
LINE
8
BLACK
6
CONTINUOUS
10
6.65346
20
-3.26071
11
6.65329
21
-3.26011
0
LINE
8
BLACK
6
CONTINUOUS
10
6.65329
20
-3.26011
11
6.65323
21
-3.26007
0
LINE
8
BLACK
6
CONTINUOUS
10
6.65323
20
-3.26007
11
6.65293
21
-3.26
0
LINE
8
BLACK
6
CONTINUOUS
10
6.65293
20
-3.26
11
6.63346
21
-3.26
0
LINE
8
BLACK
6
CONTINUOUS
10
6.63346
20
-3.26
11
6.63346
21
-3.28346
0
LINE
8
BLACK
6
CONTINUOUS
10
6.63346
20
-3.28346
11
6.61
21
-3.28346
0
LINE
8
BLACK
6
CONTINUOUS
10
6.61
20
-3.28346
11
6.61
21
-3.30275
0
LINE
8
BLACK
6
CONTINUOUS
10
6.61
20
-3.30275
11
6.61018
21
-3.30335
0
LINE
8
BLACK
6
CONTINUOUS
10
6.61018
20
-3.30335
11
6.61023
21
-3.3034
0
LINE
8
BLACK
6
CONTINUOUS
10
6.01072
20
-2.98256
11
6.01292
21
-2.98223
0
LINE
8
BLACK
6
CONTINUOUS
10
6.01292
20
-2.98223
11
6.01331
21
-2.98213
0
LINE
8
BLACK
6
CONTINUOUS
10
6.01331
20
-2.98213
11
6.02174
21
-2.97938
0
LINE
8
BLACK
6
CONTINUOUS
10
6.02174
20
-2.97938
11
6.02212
21
-2.97922
0
LINE
8
BLACK
6
CONTINUOUS
10
6.02212
20
-2.97922
11
6.02999
21
-2.97512
0
LINE
8
BLACK
6
CONTINUOUS
10
6.02999
20
-2.97512
11
6.03033
21
-2.97491
0
LINE
8
BLACK
6
CONTINUOUS
10
6.03033
20
-2.97491
11
6.03742
21
-2.96958
0
LINE
8
BLACK
6
CONTINUOUS
10
6.03742
20
-2.96958
11
6.03773
21
-2.96931
0
LINE
8
BLACK
6
CONTINUOUS
10
6.03773
20
-2.96931
11
6.04385
21
-2.9629
0
LINE
8
BLACK
6
CONTINUOUS
10
6.04385
20
-2.9629
11
6.04411
21
-2.96258
0
LINE
8
BLACK
6
CONTINUOUS
10
6.04411
20
-2.96258
11
6.04911
21
-2.95526
0
LINE
8
BLACK
6
CONTINUOUS
10
6.04911
20
-2.95526
11
6.04931
21
-2.9549
0
LINE
8
BLACK
6
CONTINUOUS
10
6.04931
20
-2.9549
11
6.05304
21
-2.94686
0
LINE
8
BLACK
6
CONTINUOUS
10
6.05304
20
-2.94686
11
6.05318
21
-2.94648
0
LINE
8
BLACK
6
CONTINUOUS
10
6.05318
20
-2.94648
11
6.05555
21
-2.93793
0
LINE
8
BLACK
6
CONTINUOUS
10
6.05555
20
-2.93793
11
6.05563
21
-2.93753
0
LINE
8
BLACK
6
CONTINUOUS
10
6.05563
20
-2.93753
11
6.0564
21
-2.93029
0
LINE
8
BLACK
6
CONTINUOUS
10
6.0564
20
-2.93029
11
6.05642
21
-2.93003
0
LINE
8
BLACK
6
CONTINUOUS
10
6.05642
20
-2.93003
11
6.05642
21
-2.91426
0
LINE
8
BLACK
6
CONTINUOUS
10
6.05642
20
-2.91426
11
6.05624
21
-2.91366
0
LINE
8
BLACK
6
CONTINUOUS
10
6.05624
20
-2.91366
11
6.05619
21
-2.91361
0
LINE
8
BLACK
6
CONTINUOUS
10
6.05619
20
-2.91361
11
6.05588
21
-2.91354
0
LINE
8
BLACK
6
CONTINUOUS
10
6.05588
20
-2.91354
11
6.03642
21
-2.91354
0
LINE
8
BLACK
6
CONTINUOUS
10
6.03642
20
-2.91354
11
6.03642
21
-2.92713
0
LINE
8
BLACK
6
CONTINUOUS
10
6.03642
20
-2.92713
11
6.03562
21
-2.9347
0
LINE
8
BLACK
6
CONTINUOUS
10
6.03562
20
-2.9347
11
6.03327
21
-2.94194
0
LINE
8
BLACK
6
CONTINUOUS
10
6.03327
20
-2.94194
11
6.02946
21
-2.94853
0
LINE
8
BLACK
6
CONTINUOUS
10
6.02946
20
-2.94853
11
6.02437
21
-2.95419
0
LINE
8
BLACK
6
CONTINUOUS
10
6.02437
20
-2.95419
11
6.01821
21
-2.95866
0
LINE
8
BLACK
6
CONTINUOUS
10
6.01821
20
-2.95866
11
6.01125
21
-2.96176
0
LINE
8
BLACK
6
CONTINUOUS
10
6.01125
20
-2.96176
11
6.01
21
-2.96203
0
LINE
8
BLACK
6
CONTINUOUS
10
6.01
20
-2.96203
11
6.01
21
-2.98196
0
LINE
8
BLACK
6
CONTINUOUS
10
6.01
20
-2.98196
11
6.01015
21
-2.98248
0
LINE
8
BLACK
6
CONTINUOUS
10
6.01015
20
-2.98248
11
6.01072
21
-2.98256
0
LINE
8
BLACK
6
CONTINUOUS
10
6.56654
20
-3.28346
11
6.56654
21
-3.26
0
LINE
8
BLACK
6
CONTINUOUS
10
6.56654
20
-3.26
11
6.54725
21
-3.26
0
LINE
8
BLACK
6
CONTINUOUS
10
6.54725
20
-3.26
11
6.54665
21
-3.26018
0
LINE
8
BLACK
6
CONTINUOUS
10
6.54665
20
-3.26018
11
6.5466
21
-3.26023
0
LINE
8
BLACK
6
CONTINUOUS
10
6.5466
20
-3.26023
11
6.54654
21
-3.26053
0
LINE
8
BLACK
6
CONTINUOUS
10
6.54654
20
-3.26053
11
6.54654
21
-3.28522
0
LINE
8
BLACK
6
CONTINUOUS
10
6.54654
20
-3.28522
11
6.54655
21
-3.28549
0
LINE
8
BLACK
6
CONTINUOUS
10
6.54655
20
-3.28549
11
6.54677
21
-3.28749
0
LINE
8
BLACK
6
CONTINUOUS
10
6.54677
20
-3.28749
11
6.54691
21
-3.28809
0
LINE
8
BLACK
6
CONTINUOUS
10
6.54691
20
-3.28809
11
6.54869
21
-3.29284
0
LINE
8
BLACK
6
CONTINUOUS
10
6.54869
20
-3.29284
11
6.54902
21
-3.29345
0
LINE
8
BLACK
6
CONTINUOUS
10
6.54902
20
-3.29345
11
6.55204
21
-3.29747
0
LINE
8
BLACK
6
CONTINUOUS
10
6.55204
20
-3.29747
11
6.55253
21
-3.29796
0
LINE
8
BLACK
6
CONTINUOUS
10
6.55253
20
-3.29796
11
6.55655
21
-3.30098
0
LINE
8
BLACK
6
CONTINUOUS
10
6.55655
20
-3.30098
11
6.55716
21
-3.30131
0
LINE
8
BLACK
6
CONTINUOUS
10
6.55716
20
-3.30131
11
6.56191
21
-3.30309
0
LINE
8
BLACK
6
CONTINUOUS
10
6.56191
20
-3.30309
11
6.56251
21
-3.30323
0
LINE
8
BLACK
6
CONTINUOUS
10
6.56251
20
-3.30323
11
6.56451
21
-3.30345
0
LINE
8
BLACK
6
CONTINUOUS
10
6.56451
20
-3.30345
11
6.56478
21
-3.30346
0
LINE
8
BLACK
6
CONTINUOUS
10
6.56478
20
-3.30346
11
6.58929
21
-3.30346
0
LINE
8
BLACK
6
CONTINUOUS
10
6.58929
20
-3.30346
11
6.58989
21
-3.30329
0
LINE
8
BLACK
6
CONTINUOUS
10
6.58989
20
-3.30329
11
6.58993
21
-3.30323
0
LINE
8
BLACK
6
CONTINUOUS
10
6.58993
20
-3.30323
11
6.59
21
-3.30293
0
LINE
8
BLACK
6
CONTINUOUS
10
6.59
20
-3.30293
11
6.59
21
-3.28346
0
LINE
8
BLACK
6
CONTINUOUS
10
6.59
20
-3.28346
11
6.56654
21
-3.28346
0
LINE
8
BLACK
6
CONTINUOUS
10
7.01229
20
-2.98256
11
7.01449
21
-2.98223
0
LINE
8
BLACK
6
CONTINUOUS
10
7.01449
20
-2.98223
11
7.01489
21
-2.98213
0
LINE
8
BLACK
6
CONTINUOUS
10
7.01489
20
-2.98213
11
7.02332
21
-2.97938
0
LINE
8
BLACK
6
CONTINUOUS
10
7.02332
20
-2.97938
11
7.02369
21
-2.97922
0
LINE
8
BLACK
6
CONTINUOUS
10
7.02369
20
-2.97922
11
7.03156
21
-2.97512
0
LINE
8
BLACK
6
CONTINUOUS
10
7.03156
20
-2.97512
11
7.0319
21
-2.97491
0
LINE
8
BLACK
6
CONTINUOUS
10
7.0319
20
-2.97491
11
7.039
21
-2.96958
0
LINE
8
BLACK
6
CONTINUOUS
10
7.039
20
-2.96958
11
7.0393
21
-2.96931
0
LINE
8
BLACK
6
CONTINUOUS
10
7.0393
20
-2.96931
11
7.04543
21
-2.9629
0
LINE
8
BLACK
6
CONTINUOUS
10
7.04543
20
-2.9629
11
7.04568
21
-2.96258
0
LINE
8
BLACK
6
CONTINUOUS
10
7.04568
20
-2.96258
11
7.05068
21
-2.95526
0
LINE
8
BLACK
6
CONTINUOUS
10
7.05068
20
-2.95526
11
7.05088
21
-2.9549
0
LINE
8
BLACK
6
CONTINUOUS
10
7.05088
20
-2.9549
11
7.05462
21
-2.94686
0
LINE
8
BLACK
6
CONTINUOUS
10
7.05462
20
-2.94686
11
7.05476
21
-2.94648
0
LINE
8
BLACK
6
CONTINUOUS
10
7.05476
20
-2.94648
11
7.05713
21
-2.93793
0
LINE
8
BLACK
6
CONTINUOUS
10
7.05713
20
-2.93793
11
7.0572
21
-2.93753
0
LINE
8
BLACK
6
CONTINUOUS
10
7.0572
20
-2.93753
11
7.05798
21
-2.93029
0
LINE
8
BLACK
6
CONTINUOUS
10
7.05798
20
-2.93029
11
7.05799
21
-2.93003
0
LINE
8
BLACK
6
CONTINUOUS
10
7.05799
20
-2.93003
11
7.05799
21
-2.91426
0
LINE
8
BLACK
6
CONTINUOUS
10
7.05799
20
-2.91426
11
7.05782
21
-2.91366
0
LINE
8
BLACK
6
CONTINUOUS
10
7.05782
20
-2.91366
11
7.05776
21
-2.91361
0
LINE
8
BLACK
6
CONTINUOUS
10
7.05776
20
-2.91361
11
7.05746
21
-2.91354
0
LINE
8
BLACK
6
CONTINUOUS
10
7.05746
20
-2.91354
11
7.03799
21
-2.91354
0
LINE
8
BLACK
6
CONTINUOUS
10
7.03799
20
-2.91354
11
7.03799
21
-2.92713
0
LINE
8
BLACK
6
CONTINUOUS
10
7.03799
20
-2.92713
11
7.0372
21
-2.9347
0
LINE
8
BLACK
6
CONTINUOUS
10
7.0372
20
-2.9347
11
7.03484
21
-2.94194
0
LINE
8
BLACK
6
CONTINUOUS
10
7.03484
20
-2.94194
11
7.03104
21
-2.94853
0
LINE
8
BLACK
6
CONTINUOUS
10
7.03104
20
-2.94853
11
7.02594
21
-2.95419
0
LINE
8
BLACK
6
CONTINUOUS
10
7.02594
20
-2.95419
11
7.01978
21
-2.95866
0
LINE
8
BLACK
6
CONTINUOUS
10
7.01978
20
-2.95866
11
7.01283
21
-2.96176
0
LINE
8
BLACK
6
CONTINUOUS
10
7.01283
20
-2.96176
11
7.01157
21
-2.96203
0
LINE
8
BLACK
6
CONTINUOUS
10
7.01157
20
-2.96203
11
7.01157
21
-2.98196
0
LINE
8
BLACK
6
CONTINUOUS
10
7.01157
20
-2.98196
11
7.01173
21
-2.98248
0
LINE
8
BLACK
6
CONTINUOUS
10
7.01173
20
-2.98248
11
7.01229
21
-2.98256
0
LINE
8
BLACK
6
CONTINUOUS
10
5.99
20
-2.96203
11
5.98875
21
-2.96176
0
LINE
8
BLACK
6
CONTINUOUS
10
5.98875
20
-2.96176
11
5.98179
21
-2.95866
0
LINE
8
BLACK
6
CONTINUOUS
10
5.98179
20
-2.95866
11
5.97563
21
-2.95419
0
LINE
8
BLACK
6
CONTINUOUS
10
5.97563
20
-2.95419
11
5.97054
21
-2.94853
0
LINE
8
BLACK
6
CONTINUOUS
10
5.97054
20
-2.94853
11
5.96673
21
-2.94194
0
LINE
8
BLACK
6
CONTINUOUS
10
5.96673
20
-2.94194
11
5.96438
21
-2.9347
0
LINE
8
BLACK
6
CONTINUOUS
10
5.96438
20
-2.9347
11
5.96358
21
-2.92713
0
LINE
8
BLACK
6
CONTINUOUS
10
5.96358
20
-2.92713
11
5.96358
21
-2.91354
0
LINE
8
BLACK
6
CONTINUOUS
10
5.96358
20
-2.91354
11
5.9443
21
-2.91354
0
LINE
8
BLACK
6
CONTINUOUS
10
5.9443
20
-2.91354
11
5.9437
21
-2.91372
0
LINE
8
BLACK
6
CONTINUOUS
10
5.9437
20
-2.91372
11
5.94365
21
-2.91377
0
LINE
8
BLACK
6
CONTINUOUS
10
5.94365
20
-2.91377
11
5.94358
21
-2.91408
0
LINE
8
BLACK
6
CONTINUOUS
10
5.94358
20
-2.91408
11
5.94358
21
-2.92938
0
LINE
8
BLACK
6
CONTINUOUS
10
5.94358
20
-2.92938
11
5.94359
21
-2.92958
0
LINE
8
BLACK
6
CONTINUOUS
10
5.94359
20
-2.92958
11
5.94413
21
-2.93617
0
LINE
8
BLACK
6
CONTINUOUS
10
5.94413
20
-2.93617
11
5.9442
21
-2.93657
0
LINE
8
BLACK
6
CONTINUOUS
10
5.9442
20
-2.93657
11
5.94636
21
-2.94517
0
LINE
8
BLACK
6
CONTINUOUS
10
5.94636
20
-2.94517
11
5.94649
21
-2.94556
0
LINE
8
BLACK
6
CONTINUOUS
10
5.94649
20
-2.94556
11
5.95003
21
-2.95369
0
LINE
8
BLACK
6
CONTINUOUS
10
5.95003
20
-2.95369
11
5.95022
21
-2.95405
0
LINE
8
BLACK
6
CONTINUOUS
10
5.95022
20
-2.95405
11
5.95504
21
-2.9615
0
LINE
8
BLACK
6
CONTINUOUS
10
5.95504
20
-2.9615
11
5.95529
21
-2.96182
0
LINE
8
BLACK
6
CONTINUOUS
10
5.95529
20
-2.96182
11
5.96125
21
-2.96838
0
LINE
8
BLACK
6
CONTINUOUS
10
5.96125
20
-2.96838
11
5.96155
21
-2.96865
0
LINE
8
BLACK
6
CONTINUOUS
10
5.96155
20
-2.96865
11
5.96851
21
-2.97415
0
LINE
8
BLACK
6
CONTINUOUS
10
5.96851
20
-2.97415
11
5.96885
21
-2.97438
0
LINE
8
BLACK
6
CONTINUOUS
10
5.96885
20
-2.97438
11
5.97662
21
-2.97866
0
LINE
8
BLACK
6
CONTINUOUS
10
5.97662
20
-2.97866
11
5.97699
21
-2.97883
0
LINE
8
BLACK
6
CONTINUOUS
10
5.97699
20
-2.97883
11
5.98535
21
-2.98179
0
LINE
8
BLACK
6
CONTINUOUS
10
5.98535
20
-2.98179
11
5.98574
21
-2.98189
0
LINE
8
BLACK
6
CONTINUOUS
10
5.98574
20
-2.98189
11
5.9893
21
-2.98253
0
LINE
8
BLACK
6
CONTINUOUS
10
5.9893
20
-2.98253
11
5.98982
21
-2.98247
0
LINE
8
BLACK
6
CONTINUOUS
10
5.98982
20
-2.98247
11
5.98998
21
-2.98196
0
LINE
8
BLACK
6
CONTINUOUS
10
5.98998
20
-2.98196
11
5.99
21
-2.9819
0
LINE
8
BLACK
6
CONTINUOUS
10
5.99
20
-2.9819
11
5.99
21
-2.96203
0
LINE
8
BLACK
6
CONTINUOUS
10
4.99157
20
-2.96203
11
4.99032
21
-2.96176
0
LINE
8
BLACK
6
CONTINUOUS
10
4.99032
20
-2.96176
11
4.98337
21
-2.95866
0
LINE
8
BLACK
6
CONTINUOUS
10
4.98337
20
-2.95866
11
4.97721
21
-2.95419
0
LINE
8
BLACK
6
CONTINUOUS
10
4.97721
20
-2.95419
11
4.97211
21
-2.94853
0
LINE
8
BLACK
6
CONTINUOUS
10
4.97211
20
-2.94853
11
4.96831
21
-2.94194
0
LINE
8
BLACK
6
CONTINUOUS
10
4.96831
20
-2.94194
11
4.96595
21
-2.9347
0
LINE
8
BLACK
6
CONTINUOUS
10
4.96595
20
-2.9347
11
4.96516
21
-2.92713
0
LINE
8
BLACK
6
CONTINUOUS
10
4.96516
20
-2.92713
11
4.96516
21
-2.91354
0
LINE
8
BLACK
6
CONTINUOUS
10
4.96516
20
-2.91354
11
4.94587
21
-2.91354
0
LINE
8
BLACK
6
CONTINUOUS
10
4.94587
20
-2.91354
11
4.94527
21
-2.91372
0
LINE
8
BLACK
6
CONTINUOUS
10
4.94527
20
-2.91372
11
4.94522
21
-2.91377
0
LINE
8
BLACK
6
CONTINUOUS
10
4.94522
20
-2.91377
11
4.94516
21
-2.91408
0
LINE
8
BLACK
6
CONTINUOUS
10
4.94516
20
-2.91408
11
4.94516
21
-2.92938
0
LINE
8
BLACK
6
CONTINUOUS
10
4.94516
20
-2.92938
11
4.94517
21
-2.92958
0
LINE
8
BLACK
6
CONTINUOUS
10
4.94517
20
-2.92958
11
4.94571
21
-2.93617
0
LINE
8
BLACK
6
CONTINUOUS
10
4.94571
20
-2.93617
11
4.94577
21
-2.93657
0
LINE
8
BLACK
6
CONTINUOUS
10
4.94577
20
-2.93657
11
4.94793
21
-2.94517
0
LINE
8
BLACK
6
CONTINUOUS
10
4.94793
20
-2.94517
11
4.94807
21
-2.94556
0
LINE
8
BLACK
6
CONTINUOUS
10
4.94807
20
-2.94556
11
4.9516
21
-2.95369
0
LINE
8
BLACK
6
CONTINUOUS
10
4.9516
20
-2.95369
11
4.95179
21
-2.95405
0
LINE
8
BLACK
6
CONTINUOUS
10
4.95179
20
-2.95405
11
4.95661
21
-2.9615
0
LINE
8
BLACK
6
CONTINUOUS
10
4.95661
20
-2.9615
11
4.95686
21
-2.96182
0
LINE
8
BLACK
6
CONTINUOUS
10
4.95686
20
-2.96182
11
4.96283
21
-2.96838
0
LINE
8
BLACK
6
CONTINUOUS
10
4.96283
20
-2.96838
11
4.96313
21
-2.96865
0
LINE
8
BLACK
6
CONTINUOUS
10
4.96313
20
-2.96865
11
4.97009
21
-2.97415
0
LINE
8
BLACK
6
CONTINUOUS
10
4.97009
20
-2.97415
11
4.97042
21
-2.97438
0
LINE
8
BLACK
6
CONTINUOUS
10
4.97042
20
-2.97438
11
4.97819
21
-2.97866
0
LINE
8
BLACK
6
CONTINUOUS
10
4.97819
20
-2.97866
11
4.97856
21
-2.97883
0
LINE
8
BLACK
6
CONTINUOUS
10
4.97856
20
-2.97883
11
4.98692
21
-2.98179
0
LINE
8
BLACK
6
CONTINUOUS
10
4.98692
20
-2.98179
11
4.98731
21
-2.98189
0
LINE
8
BLACK
6
CONTINUOUS
10
4.98731
20
-2.98189
11
4.99087
21
-2.98253
0
LINE
8
BLACK
6
CONTINUOUS
10
4.99087
20
-2.98253
11
4.9914
21
-2.98247
0
LINE
8
BLACK
6
CONTINUOUS
10
4.9914
20
-2.98247
11
4.99156
21
-2.98196
0
LINE
8
BLACK
6
CONTINUOUS
10
4.99156
20
-2.98196
11
4.99157
21
-2.9819
0
LINE
8
BLACK
6
CONTINUOUS
10
4.99157
20
-2.9819
11
4.99157
21
-2.96203
0
LINE
8
BLACK
6
CONTINUOUS
10
6.99157
20
-2.96203
11
6.99032
21
-2.96176
0
LINE
8
BLACK
6
CONTINUOUS
10
6.99032
20
-2.96176
11
6.98337
21
-2.95866
0
LINE
8
BLACK
6
CONTINUOUS
10
6.98337
20
-2.95866
11
6.97721
21
-2.95419
0
LINE
8
BLACK
6
CONTINUOUS
10
6.97721
20
-2.95419
11
6.97211
21
-2.94853
0
LINE
8
BLACK
6
CONTINUOUS
10
6.97211
20
-2.94853
11
6.96831
21
-2.94194
0
LINE
8
BLACK
6
CONTINUOUS
10
6.96831
20
-2.94194
11
6.96595
21
-2.9347
0
LINE
8
BLACK
6
CONTINUOUS
10
6.96595
20
-2.9347
11
6.96516
21
-2.92713
0
LINE
8
BLACK
6
CONTINUOUS
10
6.96516
20
-2.92713
11
6.96516
21
-2.91354
0
LINE
8
BLACK
6
CONTINUOUS
10
6.96516
20
-2.91354
11
6.94587
21
-2.91354
0
LINE
8
BLACK
6
CONTINUOUS
10
6.94587
20
-2.91354
11
6.94527
21
-2.91372
0
LINE
8
BLACK
6
CONTINUOUS
10
6.94527
20
-2.91372
11
6.94522
21
-2.91377
0
LINE
8
BLACK
6
CONTINUOUS
10
6.94522
20
-2.91377
11
6.94516
21
-2.91408
0
LINE
8
BLACK
6
CONTINUOUS
10
6.94516
20
-2.91408
11
6.94516
21
-2.92938
0
LINE
8
BLACK
6
CONTINUOUS
10
6.94516
20
-2.92938
11
6.94517
21
-2.92958
0
LINE
8
BLACK
6
CONTINUOUS
10
6.94517
20
-2.92958
11
6.94571
21
-2.93617
0
LINE
8
BLACK
6
CONTINUOUS
10
6.94571
20
-2.93617
11
6.94577
21
-2.93657
0
LINE
8
BLACK
6
CONTINUOUS
10
6.94577
20
-2.93657
11
6.94793
21
-2.94517
0
LINE
8
BLACK
6
CONTINUOUS
10
6.94793
20
-2.94517
11
6.94807
21
-2.94556
0
LINE
8
BLACK
6
CONTINUOUS
10
6.94807
20
-2.94556
11
6.9516
21
-2.95369
0
LINE
8
BLACK
6
CONTINUOUS
10
6.9516
20
-2.95369
11
6.95179
21
-2.95405
0
LINE
8
BLACK
6
CONTINUOUS
10
6.95179
20
-2.95405
11
6.95661
21
-2.9615
0
LINE
8
BLACK
6
CONTINUOUS
10
6.95661
20
-2.9615
11
6.95686
21
-2.96182
0
LINE
8
BLACK
6
CONTINUOUS
10
6.95686
20
-2.96182
11
6.96283
21
-2.96838
0
LINE
8
BLACK
6
CONTINUOUS
10
6.96283
20
-2.96838
11
6.96313
21
-2.96865
0
LINE
8
BLACK
6
CONTINUOUS
10
6.96313
20
-2.96865
11
6.97009
21
-2.97415
0
LINE
8
BLACK
6
CONTINUOUS
10
6.97009
20
-2.97415
11
6.97042
21
-2.97438
0
LINE
8
BLACK
6
CONTINUOUS
10
6.97042
20
-2.97438
11
6.97819
21
-2.97866
0
LINE
8
BLACK
6
CONTINUOUS
10
6.97819
20
-2.97866
11
6.97856
21
-2.97883
0
LINE
8
BLACK
6
CONTINUOUS
10
6.97856
20
-2.97883
11
6.98692
21
-2.98179
0
LINE
8
BLACK
6
CONTINUOUS
10
6.98692
20
-2.98179
11
6.98731
21
-2.98189
0
LINE
8
BLACK
6
CONTINUOUS
10
6.98731
20
-2.98189
11
6.99087
21
-2.98253
0
LINE
8
BLACK
6
CONTINUOUS
10
6.99087
20
-2.98253
11
6.9914
21
-2.98247
0
LINE
8
BLACK
6
CONTINUOUS
10
6.9914
20
-2.98247
11
6.99156
21
-2.98196
0
LINE
8
BLACK
6
CONTINUOUS
10
6.99156
20
-2.98196
11
6.99157
21
-2.9819
0
LINE
8
BLACK
6
CONTINUOUS
10
6.99157
20
-2.9819
11
6.99157
21
-2.96203
0
LINE
8
BLACK
6
CONTINUOUS
10
5.01229
20
-2.98256
11
5.01449
21
-2.98223
0
LINE
8
BLACK
6
CONTINUOUS
10
5.01449
20
-2.98223
11
5.01489
21
-2.98213
0
LINE
8
BLACK
6
CONTINUOUS
10
5.01489
20
-2.98213
11
5.02332
21
-2.97938
0
LINE
8
BLACK
6
CONTINUOUS
10
5.02332
20
-2.97938
11
5.02369
21
-2.97922
0
LINE
8
BLACK
6
CONTINUOUS
10
5.02369
20
-2.97922
11
5.03156
21
-2.97512
0
LINE
8
BLACK
6
CONTINUOUS
10
5.03156
20
-2.97512
11
5.0319
21
-2.97491
0
LINE
8
BLACK
6
CONTINUOUS
10
5.0319
20
-2.97491
11
5.039
21
-2.96958
0
LINE
8
BLACK
6
CONTINUOUS
10
5.039
20
-2.96958
11
5.0393
21
-2.96931
0
LINE
8
BLACK
6
CONTINUOUS
10
5.0393
20
-2.96931
11
5.04543
21
-2.9629
0
LINE
8
BLACK
6
CONTINUOUS
10
5.04543
20
-2.9629
11
5.04568
21
-2.96258
0
LINE
8
BLACK
6
CONTINUOUS
10
5.04568
20
-2.96258
11
5.05068
21
-2.95526
0
LINE
8
BLACK
6
CONTINUOUS
10
5.05068
20
-2.95526
11
5.05088
21
-2.9549
0
LINE
8
BLACK
6
CONTINUOUS
10
5.05088
20
-2.9549
11
5.05462
21
-2.94686
0
LINE
8
BLACK
6
CONTINUOUS
10
5.05462
20
-2.94686
11
5.05476
21
-2.94648
0
LINE
8
BLACK
6
CONTINUOUS
10
5.05476
20
-2.94648
11
5.05713
21
-2.93793
0
LINE
8
BLACK
6
CONTINUOUS
10
5.05713
20
-2.93793
11
5.0572
21
-2.93753
0
LINE
8
BLACK
6
CONTINUOUS
10
5.0572
20
-2.93753
11
5.05798
21
-2.93029
0
LINE
8
BLACK
6
CONTINUOUS
10
5.05798
20
-2.93029
11
5.05799
21
-2.93003
0
LINE
8
BLACK
6
CONTINUOUS
10
5.05799
20
-2.93003
11
5.05799
21
-2.91426
0
LINE
8
BLACK
6
CONTINUOUS
10
5.05799
20
-2.91426
11
5.05782
21
-2.91366
0
LINE
8
BLACK
6
CONTINUOUS
10
5.05782
20
-2.91366
11
5.05776
21
-2.91361
0
LINE
8
BLACK
6
CONTINUOUS
10
5.05776
20
-2.91361
11
5.05746
21
-2.91354
0
LINE
8
BLACK
6
CONTINUOUS
10
5.05746
20
-2.91354
11
5.03799
21
-2.91354
0
LINE
8
BLACK
6
CONTINUOUS
10
5.03799
20
-2.91354
11
5.03799
21
-2.92713
0
LINE
8
BLACK
6
CONTINUOUS
10
5.03799
20
-2.92713
11
5.0372
21
-2.9347
0
LINE
8
BLACK
6
CONTINUOUS
10
5.0372
20
-2.9347
11
5.03484
21
-2.94194
0
LINE
8
BLACK
6
CONTINUOUS
10
5.03484
20
-2.94194
11
5.03104
21
-2.94853
0
LINE
8
BLACK
6
CONTINUOUS
10
5.03104
20
-2.94853
11
5.02594
21
-2.95419
0
LINE
8
BLACK
6
CONTINUOUS
10
5.02594
20
-2.95419
11
5.01978
21
-2.95866
0
LINE
8
BLACK
6
CONTINUOUS
10
5.01978
20
-2.95866
11
5.01283
21
-2.96176
0
LINE
8
BLACK
6
CONTINUOUS
10
5.01283
20
-2.96176
11
5.01157
21
-2.96203
0
LINE
8
BLACK
6
CONTINUOUS
10
5.01157
20
-2.96203
11
5.01157
21
-2.98196
0
LINE
8
BLACK
6
CONTINUOUS
10
5.01157
20
-2.98196
11
5.01173
21
-2.98248
0
LINE
8
BLACK
6
CONTINUOUS
10
5.01173
20
-2.98248
11
5.01229
21
-2.98256
0
LINE
8
BLACK
6
CONTINUOUS
10
6.94539
20
-2.89348
11
6.94569
21
-2.89354
0
LINE
8
BLACK
6
CONTINUOUS
10
6.94569
20
-2.89354
11
6.96516
21
-2.89354
0
LINE
8
BLACK
6
CONTINUOUS
10
6.96516
20
-2.89354
11
6.96516
21
-2.87996
0
LINE
8
BLACK
6
CONTINUOUS
10
6.96516
20
-2.87996
11
6.96595
21
-2.87239
0
LINE
8
BLACK
6
CONTINUOUS
10
6.96595
20
-2.87239
11
6.96831
21
-2.86515
0
LINE
8
BLACK
6
CONTINUOUS
10
6.96831
20
-2.86515
11
6.97211
21
-2.85856
0
LINE
8
BLACK
6
CONTINUOUS
10
6.97211
20
-2.85856
11
6.97721
21
-2.8529
0
LINE
8
BLACK
6
CONTINUOUS
10
6.97721
20
-2.8529
11
6.98337
21
-2.84842
0
LINE
8
BLACK
6
CONTINUOUS
10
6.98337
20
-2.84842
11
6.99032
21
-2.84533
0
LINE
8
BLACK
6
CONTINUOUS
10
6.99032
20
-2.84533
11
6.99157
21
-2.84506
0
LINE
8
BLACK
6
CONTINUOUS
10
6.99157
20
-2.84506
11
6.99157
21
-2.82513
0
LINE
8
BLACK
6
CONTINUOUS
10
6.99157
20
-2.82513
11
6.99142
21
-2.8246
0
LINE
8
BLACK
6
CONTINUOUS
10
6.99142
20
-2.8246
11
6.99086
21
-2.82452
0
LINE
8
BLACK
6
CONTINUOUS
10
6.99086
20
-2.82452
11
6.98866
21
-2.82486
0
LINE
8
BLACK
6
CONTINUOUS
10
6.98866
20
-2.82486
11
6.98826
21
-2.82495
0
LINE
8
BLACK
6
CONTINUOUS
10
6.98826
20
-2.82495
11
6.97983
21
-2.82771
0
LINE
8
BLACK
6
CONTINUOUS
10
6.97983
20
-2.82771
11
6.97946
21
-2.82787
0
LINE
8
BLACK
6
CONTINUOUS
10
6.97946
20
-2.82787
11
6.97159
21
-2.83196
0
LINE
8
BLACK
6
CONTINUOUS
10
6.97159
20
-2.83196
11
6.97125
21
-2.83218
0
LINE
8
BLACK
6
CONTINUOUS
10
6.97125
20
-2.83218
11
6.96415
21
-2.83751
0
LINE
8
BLACK
6
CONTINUOUS
10
6.96415
20
-2.83751
11
6.96385
21
-2.83777
0
LINE
8
BLACK
6
CONTINUOUS
10
6.96385
20
-2.83777
11
6.95772
21
-2.84419
0
LINE
8
BLACK
6
CONTINUOUS
10
6.95772
20
-2.84419
11
6.95747
21
-2.8445
0
LINE
8
BLACK
6
CONTINUOUS
10
6.95747
20
-2.8445
11
6.95247
21
-2.85183
0
LINE
8
BLACK
6
CONTINUOUS
10
6.95247
20
-2.85183
11
6.95227
21
-2.85218
0
LINE
8
BLACK
6
CONTINUOUS
10
6.95227
20
-2.85218
11
6.94853
21
-2.86023
0
LINE
8
BLACK
6
CONTINUOUS
10
6.94853
20
-2.86023
11
6.94839
21
-2.86061
0
LINE
8
BLACK
6
CONTINUOUS
10
6.94839
20
-2.86061
11
6.94602
21
-2.86916
0
LINE
8
BLACK
6
CONTINUOUS
10
6.94602
20
-2.86916
11
6.94595
21
-2.86956
0
LINE
8
BLACK
6
CONTINUOUS
10
6.94595
20
-2.86956
11
6.94517
21
-2.8768
0
LINE
8
BLACK
6
CONTINUOUS
10
6.94517
20
-2.8768
11
6.94516
21
-2.87706
0
LINE
8
BLACK
6
CONTINUOUS
10
6.94516
20
-2.87706
11
6.94516
21
-2.89283
0
LINE
8
BLACK
6
CONTINUOUS
10
6.94516
20
-2.89283
11
6.94533
21
-2.89343
0
LINE
8
BLACK
6
CONTINUOUS
10
6.94533
20
-2.89343
11
6.94539
21
-2.89348
0
LINE
8
BLACK
6
CONTINUOUS
10
5.94381
20
-2.89348
11
5.94412
21
-2.89354
0
LINE
8
BLACK
6
CONTINUOUS
10
5.94412
20
-2.89354
11
5.96358
21
-2.89354
0
LINE
8
BLACK
6
CONTINUOUS
10
5.96358
20
-2.89354
11
5.96358
21
-2.87996
0
LINE
8
BLACK
6
CONTINUOUS
10
5.96358
20
-2.87996
11
5.96438
21
-2.87239
0
LINE
8
BLACK
6
CONTINUOUS
10
5.96438
20
-2.87239
11
5.96673
21
-2.86515
0
LINE
8
BLACK
6
CONTINUOUS
10
5.96673
20
-2.86515
11
5.97054
21
-2.85856
0
LINE
8
BLACK
6
CONTINUOUS
10
5.97054
20
-2.85856
11
5.97563
21
-2.8529
0
LINE
8
BLACK
6
CONTINUOUS
10
5.97563
20
-2.8529
11
5.98179
21
-2.84842
0
LINE
8
BLACK
6
CONTINUOUS
10
5.98179
20
-2.84842
11
5.98875
21
-2.84533
0
LINE
8
BLACK
6
CONTINUOUS
10
5.98875
20
-2.84533
11
5.99
21
-2.84506
0
LINE
8
BLACK
6
CONTINUOUS
10
5.99
20
-2.84506
11
5.99
21
-2.82513
0
LINE
8
BLACK
6
CONTINUOUS
10
5.99
20
-2.82513
11
5.98985
21
-2.8246
0
LINE
8
BLACK
6
CONTINUOUS
10
5.98985
20
-2.8246
11
5.98928
21
-2.82452
0
LINE
8
BLACK
6
CONTINUOUS
10
5.98928
20
-2.82452
11
5.98708
21
-2.82486
0
LINE
8
BLACK
6
CONTINUOUS
10
5.98708
20
-2.82486
11
5.98669
21
-2.82495
0
LINE
8
BLACK
6
CONTINUOUS
10
5.98669
20
-2.82495
11
5.97826
21
-2.82771
0
LINE
8
BLACK
6
CONTINUOUS
10
5.97826
20
-2.82771
11
5.97788
21
-2.82787
0
LINE
8
BLACK
6
CONTINUOUS
10
5.97788
20
-2.82787
11
5.97001
21
-2.83196
0
LINE
8
BLACK
6
CONTINUOUS
10
5.97001
20
-2.83196
11
5.96967
21
-2.83218
0
LINE
8
BLACK
6
CONTINUOUS
10
5.96967
20
-2.83218
11
5.96258
21
-2.83751
0
LINE
8
BLACK
6
CONTINUOUS
10
5.96258
20
-2.83751
11
5.96227
21
-2.83777
0
LINE
8
BLACK
6
CONTINUOUS
10
5.96227
20
-2.83777
11
5.95615
21
-2.84419
0
LINE
8
BLACK
6
CONTINUOUS
10
5.95615
20
-2.84419
11
5.95589
21
-2.8445
0
LINE
8
BLACK
6
CONTINUOUS
10
5.95589
20
-2.8445
11
5.95089
21
-2.85183
0
LINE
8
BLACK
6
CONTINUOUS
10
5.95089
20
-2.85183
11
5.95069
21
-2.85218
0
LINE
8
BLACK
6
CONTINUOUS
10
5.95069
20
-2.85218
11
5.94696
21
-2.86023
0
LINE
8
BLACK
6
CONTINUOUS
10
5.94696
20
-2.86023
11
5.94682
21
-2.86061
0
LINE
8
BLACK
6
CONTINUOUS
10
5.94682
20
-2.86061
11
5.94445
21
-2.86916
0
LINE
8
BLACK
6
CONTINUOUS
10
5.94445
20
-2.86916
11
5.94437
21
-2.86956
0
LINE
8
BLACK
6
CONTINUOUS
10
5.94437
20
-2.86956
11
5.9436
21
-2.8768
0
LINE
8
BLACK
6
CONTINUOUS
10
5.9436
20
-2.8768
11
5.94358
21
-2.87706
0
LINE
8
BLACK
6
CONTINUOUS
10
5.94358
20
-2.87706
11
5.94358
21
-2.89283
0
LINE
8
BLACK
6
CONTINUOUS
10
5.94358
20
-2.89283
11
5.94376
21
-2.89343
0
LINE
8
BLACK
6
CONTINUOUS
10
5.94376
20
-2.89343
11
5.94381
21
-2.89348
0
LINE
8
BLACK
6
CONTINUOUS
10
4.94539
20
-2.89348
11
4.94569
21
-2.89354
0
LINE
8
BLACK
6
CONTINUOUS
10
4.94569
20
-2.89354
11
4.96516
21
-2.89354
0
LINE
8
BLACK
6
CONTINUOUS
10
4.96516
20
-2.89354
11
4.96516
21
-2.87996
0
LINE
8
BLACK
6
CONTINUOUS
10
4.96516
20
-2.87996
11
4.96595
21
-2.87239
0
LINE
8
BLACK
6
CONTINUOUS
10
4.96595
20
-2.87239
11
4.96831
21
-2.86515
0
LINE
8
BLACK
6
CONTINUOUS
10
4.96831
20
-2.86515
11
4.97211
21
-2.85856
0
LINE
8
BLACK
6
CONTINUOUS
10
4.97211
20
-2.85856
11
4.97721
21
-2.8529
0
LINE
8
BLACK
6
CONTINUOUS
10
4.97721
20
-2.8529
11
4.98337
21
-2.84842
0
LINE
8
BLACK
6
CONTINUOUS
10
4.98337
20
-2.84842
11
4.99032
21
-2.84533
0
LINE
8
BLACK
6
CONTINUOUS
10
4.99032
20
-2.84533
11
4.99157
21
-2.84506
0
LINE
8
BLACK
6
CONTINUOUS
10
4.99157
20
-2.84506
11
4.99157
21
-2.82513
0
LINE
8
BLACK
6
CONTINUOUS
10
4.99157
20
-2.82513
11
4.99142
21
-2.8246
0
LINE
8
BLACK
6
CONTINUOUS
10
4.99142
20
-2.8246
11
4.99086
21
-2.82452
0
LINE
8
BLACK
6
CONTINUOUS
10
4.99086
20
-2.82452
11
4.98866
21
-2.82486
0
LINE
8
BLACK
6
CONTINUOUS
10
4.98866
20
-2.82486
11
4.98826
21
-2.82495
0
LINE
8
BLACK
6
CONTINUOUS
10
4.98826
20
-2.82495
11
4.97983
21
-2.82771
0
LINE
8
BLACK
6
CONTINUOUS
10
4.97983
20
-2.82771
11
4.97946
21
-2.82787
0
LINE
8
BLACK
6
CONTINUOUS
10
4.97946
20
-2.82787
11
4.97159
21
-2.83196
0
LINE
8
BLACK
6
CONTINUOUS
10
4.97159
20
-2.83196
11
4.97125
21
-2.83218
0
LINE
8
BLACK
6
CONTINUOUS
10
4.97125
20
-2.83218
11
4.96415
21
-2.83751
0
LINE
8
BLACK
6
CONTINUOUS
10
4.96415
20
-2.83751
11
4.96385
21
-2.83777
0
LINE
8
BLACK
6
CONTINUOUS
10
4.96385
20
-2.83777
11
4.95772
21
-2.84419
0
LINE
8
BLACK
6
CONTINUOUS
10
4.95772
20
-2.84419
11
4.95747
21
-2.8445
0
LINE
8
BLACK
6
CONTINUOUS
10
4.95747
20
-2.8445
11
4.95247
21
-2.85183
0
LINE
8
BLACK
6
CONTINUOUS
10
4.95247
20
-2.85183
11
4.95227
21
-2.85218
0
LINE
8
BLACK
6
CONTINUOUS
10
4.95227
20
-2.85218
11
4.94853
21
-2.86023
0
LINE
8
BLACK
6
CONTINUOUS
10
4.94853
20
-2.86023
11
4.94839
21
-2.86061
0
LINE
8
BLACK
6
CONTINUOUS
10
4.94839
20
-2.86061
11
4.94602
21
-2.86916
0
LINE
8
BLACK
6
CONTINUOUS
10
4.94602
20
-2.86916
11
4.94595
21
-2.86956
0
LINE
8
BLACK
6
CONTINUOUS
10
4.94595
20
-2.86956
11
4.94517
21
-2.8768
0
LINE
8
BLACK
6
CONTINUOUS
10
4.94517
20
-2.8768
11
4.94516
21
-2.87706
0
LINE
8
BLACK
6
CONTINUOUS
10
4.94516
20
-2.87706
11
4.94516
21
-2.89283
0
LINE
8
BLACK
6
CONTINUOUS
10
4.94516
20
-2.89283
11
4.94533
21
-2.89343
0
LINE
8
BLACK
6
CONTINUOUS
10
4.94533
20
-2.89343
11
4.94539
21
-2.89348
0
LINE
8
BLACK
6
CONTINUOUS
10
6.14042
20
-3.42171
11
6.14096
21
-3.4283
0
LINE
8
BLACK
6
CONTINUOUS
10
6.14096
20
-3.4283
11
6.14096
21
-3.4283
0
LINE
8
BLACK
6
CONTINUOUS
10
6.14096
20
-3.4283
11
6.14098
21
-3.4285
0
LINE
8
BLACK
6
CONTINUOUS
10
6.14098
20
-3.4285
11
6.14324
21
-3.4375
0
LINE
8
BLACK
6
CONTINUOUS
10
6.14324
20
-3.4375
11
6.14694
21
-3.44601
0
LINE
8
BLACK
6
CONTINUOUS
10
6.14694
20
-3.44601
11
6.15198
21
-3.4538
0
LINE
8
BLACK
6
CONTINUOUS
10
6.15198
20
-3.4538
11
6.15212
21
-3.45396
0
LINE
8
BLACK
6
CONTINUOUS
10
6.15212
20
-3.45396
11
6.15212
21
-3.45396
0
LINE
8
BLACK
6
CONTINUOUS
10
6.15212
20
-3.45396
11
6.1531
21
-3.45504
0
LINE
8
BLACK
6
CONTINUOUS
10
6.1531
20
-3.45504
11
6.15823
21
-3.46067
0
LINE
8
BLACK
6
CONTINUOUS
10
6.15823
20
-3.46067
11
6.15839
21
-3.46079
0
LINE
8
BLACK
6
CONTINUOUS
10
6.15839
20
-3.46079
11
6.15839
21
-3.46079
0
LINE
8
BLACK
6
CONTINUOUS
10
6.15839
20
-3.46079
11
6.16535
21
-3.46629
0
LINE
8
BLACK
6
CONTINUOUS
10
6.16535
20
-3.46629
11
6.16535
21
-3.46629
0
LINE
8
BLACK
6
CONTINUOUS
10
6.16535
20
-3.46629
11
6.16551
21
-3.46642
0
LINE
8
BLACK
6
CONTINUOUS
10
6.16551
20
-3.46642
11
6.17364
21
-3.47091
0
LINE
8
BLACK
6
CONTINUOUS
10
6.17364
20
-3.47091
11
6.17383
21
-3.47097
0
LINE
8
BLACK
6
CONTINUOUS
10
6.17383
20
-3.47097
11
6.17383
21
-3.47097
0
LINE
8
BLACK
6
CONTINUOUS
10
6.17383
20
-3.47097
11
6.18219
21
-3.47394
0
LINE
8
BLACK
6
CONTINUOUS
10
6.18219
20
-3.47394
11
6.18219
21
-3.47394
0
LINE
8
BLACK
6
CONTINUOUS
10
6.18219
20
-3.47394
11
6.18238
21
-3.474
0
LINE
8
BLACK
6
CONTINUOUS
10
6.18238
20
-3.474
11
6.18258
21
-3.47404
0
LINE
8
BLACK
6
CONTINUOUS
10
6.18258
20
-3.47404
11
6.18259
21
-3.47404
0
LINE
8
BLACK
6
CONTINUOUS
10
6.18259
20
-3.47404
11
6.19132
21
-3.4756
0
LINE
8
BLACK
6
CONTINUOUS
10
6.19132
20
-3.4756
11
6.19132
21
-3.4756
0
LINE
8
BLACK
6
CONTINUOUS
10
6.19132
20
-3.4756
11
6.19152
21
-3.47563
0
LINE
8
BLACK
6
CONTINUOUS
10
6.19152
20
-3.47563
11
6.1951
21
-3.47567
0
LINE
8
BLACK
6
CONTINUOUS
10
6.1951
20
-3.47567
11
6.2006
21
-3.47574
0
LINE
8
BLACK
6
CONTINUOUS
10
6.2006
20
-3.47574
11
6.2006
21
-3.47574
0
LINE
8
BLACK
6
CONTINUOUS
10
6.2006
20
-3.47574
11
6.2008
21
-3.47574
0
LINE
8
BLACK
6
CONTINUOUS
10
6.2008
20
-3.47574
11
6.20997
21
-3.47434
0
LINE
8
BLACK
6
CONTINUOUS
10
6.20997
20
-3.47434
11
6.2188
21
-3.47146
0
LINE
8
BLACK
6
CONTINUOUS
10
6.2188
20
-3.47146
11
6.22703
21
-3.46717
0
LINE
8
BLACK
6
CONTINUOUS
10
6.22703
20
-3.46717
11
6.22719
21
-3.46705
0
LINE
8
BLACK
6
CONTINUOUS
10
6.22719
20
-3.46705
11
6.22719
21
-3.46705
0
LINE
8
BLACK
6
CONTINUOUS
10
6.22719
20
-3.46705
11
6.23429
21
-3.46172
0
LINE
8
BLACK
6
CONTINUOUS
10
6.23429
20
-3.46172
11
6.23429
21
-3.46172
0
LINE
8
BLACK
6
CONTINUOUS
10
6.23429
20
-3.46172
11
6.23445
21
-3.4616
0
LINE
8
BLACK
6
CONTINUOUS
10
6.23445
20
-3.4616
11
6.24086
21
-3.45489
0
LINE
8
BLACK
6
CONTINUOUS
10
6.24086
20
-3.45489
11
6.24609
21
-3.44722
0
LINE
8
BLACK
6
CONTINUOUS
10
6.24609
20
-3.44722
11
6.24618
21
-3.44704
0
LINE
8
BLACK
6
CONTINUOUS
10
6.24618
20
-3.44704
11
6.24991
21
-3.43899
0
LINE
8
BLACK
6
CONTINUOUS
10
6.24991
20
-3.43899
11
6.24991
21
-3.43899
0
LINE
8
BLACK
6
CONTINUOUS
10
6.24991
20
-3.43899
11
6.25
21
-3.43881
0
LINE
8
BLACK
6
CONTINUOUS
10
6.25
20
-3.43881
11
6.25248
21
-3.42986
0
LINE
8
BLACK
6
CONTINUOUS
10
6.25248
20
-3.42986
11
6.25311
21
-3.42399
0
LINE
8
BLACK
6
CONTINUOUS
10
6.25311
20
-3.42399
11
6.25327
21
-3.42242
0
LINE
8
BLACK
6
CONTINUOUS
10
6.25327
20
-3.42242
11
6.25327
21
-3.42242
0
LINE
8
BLACK
6
CONTINUOUS
10
6.25327
20
-3.42242
11
6.25329
21
-3.42229
0
LINE
8
BLACK
6
CONTINUOUS
10
6.25329
20
-3.42229
11
6.25329
21
-3.36973
0
LINE
8
BLACK
6
CONTINUOUS
10
6.25329
20
-3.36973
11
6.25323
21
-3.36905
0
LINE
8
BLACK
6
CONTINUOUS
10
6.25323
20
-3.36905
11
6.25274
21
-3.36304
0
LINE
8
BLACK
6
CONTINUOUS
10
6.25274
20
-3.36304
11
6.25274
21
-3.36304
0
LINE
8
BLACK
6
CONTINUOUS
10
6.25274
20
-3.36304
11
6.25272
21
-3.36284
0
LINE
8
BLACK
6
CONTINUOUS
10
6.25272
20
-3.36284
11
6.25046
21
-3.35384
0
LINE
8
BLACK
6
CONTINUOUS
10
6.25046
20
-3.35384
11
6.24676
21
-3.34533
0
LINE
8
BLACK
6
CONTINUOUS
10
6.24676
20
-3.34533
11
6.24172
21
-3.33753
0
LINE
8
BLACK
6
CONTINUOUS
10
6.24172
20
-3.33753
11
6.24089
21
-3.33663
0
LINE
8
BLACK
6
CONTINUOUS
10
6.24089
20
-3.33663
11
6.23561
21
-3.33082
0
LINE
8
BLACK
6
CONTINUOUS
10
6.23561
20
-3.33082
11
6.23561
21
-3.33082
0
LINE
8
BLACK
6
CONTINUOUS
10
6.23561
20
-3.33082
11
6.23547
21
-3.33067
0
LINE
8
BLACK
6
CONTINUOUS
10
6.23547
20
-3.33067
11
6.23531
21
-3.33054
0
LINE
8
BLACK
6
CONTINUOUS
10
6.23531
20
-3.33054
11
6.23531
21
-3.33054
0
LINE
8
BLACK
6
CONTINUOUS
10
6.23531
20
-3.33054
11
6.22835
21
-3.32504
0
LINE
8
BLACK
6
CONTINUOUS
10
6.22835
20
-3.32504
11
6.22835
21
-3.32504
0
LINE
8
BLACK
6
CONTINUOUS
10
6.22835
20
-3.32504
11
6.22819
21
-3.32492
0
LINE
8
BLACK
6
CONTINUOUS
10
6.22819
20
-3.32492
11
6.22743
21
-3.3245
0
LINE
8
BLACK
6
CONTINUOUS
10
6.22743
20
-3.3245
11
6.22547
21
-3.32252
0
LINE
8
BLACK
6
CONTINUOUS
10
6.22547
20
-3.32252
11
6.22487
21
-3.32016
0
LINE
8
BLACK
6
CONTINUOUS
10
6.22487
20
-3.32016
11
6.22487
21
-3.11681
0
LINE
8
BLACK
6
CONTINUOUS
10
6.22487
20
-3.11681
11
6.22566
21
-3.11413
0
LINE
8
BLACK
6
CONTINUOUS
10
6.22566
20
-3.11413
11
6.22632
21
-3.1133
0
LINE
8
BLACK
6
CONTINUOUS
10
6.22632
20
-3.1133
11
6.26015
21
-3.07947
0
LINE
8
BLACK
6
CONTINUOUS
10
6.26015
20
-3.07947
11
6.26261
21
-3.07813
0
LINE
8
BLACK
6
CONTINUOUS
10
6.26261
20
-3.07813
11
6.26366
21
-3.07802
0
LINE
8
BLACK
6
CONTINUOUS
10
6.26366
20
-3.07802
11
6.55166
21
-3.07802
0
LINE
8
BLACK
6
CONTINUOUS
10
6.55166
20
-3.07802
11
6.55434
21
-3.07881
0
LINE
8
BLACK
6
CONTINUOUS
10
6.55434
20
-3.07881
11
6.55589
21
-3.08039
0
LINE
8
BLACK
6
CONTINUOUS
10
6.55589
20
-3.08039
11
6.55669
21
-3.0817
0
LINE
8
BLACK
6
CONTINUOUS
10
6.55669
20
-3.0817
11
6.56245
21
-3.08834
0
LINE
8
BLACK
6
CONTINUOUS
10
6.56245
20
-3.08834
11
6.56922
21
-3.09396
0
LINE
8
BLACK
6
CONTINUOUS
10
6.56922
20
-3.09396
11
6.57115
21
-3.09509
0
LINE
8
BLACK
6
CONTINUOUS
10
6.57115
20
-3.09509
11
6.5721
21
-3.09565
0
LINE
8
BLACK
6
CONTINUOUS
10
6.5721
20
-3.09565
11
6.57402
21
-3.09768
0
LINE
8
BLACK
6
CONTINUOUS
10
6.57402
20
-3.09768
11
6.57454
21
-3.10043
0
LINE
8
BLACK
6
CONTINUOUS
10
6.57454
20
-3.10043
11
6.57348
21
-3.10302
0
LINE
8
BLACK
6
CONTINUOUS
10
6.57348
20
-3.10302
11
6.57189
21
-3.10433
0
LINE
8
BLACK
6
CONTINUOUS
10
6.57189
20
-3.10433
11
6.5714
21
-3.10459
0
LINE
8
BLACK
6
CONTINUOUS
10
6.5714
20
-3.10459
11
6.57124
21
-3.10471
0
LINE
8
BLACK
6
CONTINUOUS
10
6.57124
20
-3.10471
11
6.57124
21
-3.10471
0
LINE
8
BLACK
6
CONTINUOUS
10
6.57124
20
-3.10471
11
6.57029
21
-3.10543
0
LINE
8
BLACK
6
CONTINUOUS
10
6.57029
20
-3.10543
11
6.56437
21
-3.10987
0
LINE
8
BLACK
6
CONTINUOUS
10
6.56437
20
-3.10987
11
6.55829
21
-3.11623
0
LINE
8
BLACK
6
CONTINUOUS
10
6.55829
20
-3.11623
11
6.55334
21
-3.12349
0
LINE
8
BLACK
6
CONTINUOUS
10
6.55334
20
-3.12349
11
6.54963
21
-3.13147
0
LINE
8
BLACK
6
CONTINUOUS
10
6.54963
20
-3.13147
11
6.54728
21
-3.13994
0
LINE
8
BLACK
6
CONTINUOUS
10
6.54728
20
-3.13994
11
6.54635
21
-3.14869
0
LINE
8
BLACK
6
CONTINUOUS
10
6.54635
20
-3.14869
11
6.54636
21
-3.14889
0
LINE
8
BLACK
6
CONTINUOUS
10
6.54636
20
-3.14889
11
6.54636
21
-3.14889
0
LINE
8
BLACK
6
CONTINUOUS
10
6.54636
20
-3.14889
11
6.54663
21
-3.15351
0
LINE
8
BLACK
6
CONTINUOUS
10
6.54663
20
-3.15351
11
6.54685
21
-3.15747
0
LINE
8
BLACK
6
CONTINUOUS
10
6.54685
20
-3.15747
11
6.5469
21
-3.15767
0
LINE
8
BLACK
6
CONTINUOUS
10
6.5469
20
-3.15767
11
6.5469
21
-3.15767
0
LINE
8
BLACK
6
CONTINUOUS
10
6.5469
20
-3.15767
11
6.54785
21
-3.16187
0
LINE
8
BLACK
6
CONTINUOUS
10
6.54785
20
-3.16187
11
6.54879
21
-3.16605
0
LINE
8
BLACK
6
CONTINUOUS
10
6.54879
20
-3.16605
11
6.5521
21
-3.1742
0
LINE
8
BLACK
6
CONTINUOUS
10
6.5521
20
-3.1742
11
6.5522
21
-3.17437
0
LINE
8
BLACK
6
CONTINUOUS
10
6.5522
20
-3.17437
11
6.55465
21
-3.17837
0
LINE
8
BLACK
6
CONTINUOUS
10
6.55465
20
-3.17837
11
6.55669
21
-3.1817
0
LINE
8
BLACK
6
CONTINUOUS
10
6.55669
20
-3.1817
11
6.56245
21
-3.18834
0
LINE
8
BLACK
6
CONTINUOUS
10
6.56245
20
-3.18834
11
6.56261
21
-3.18847
0
LINE
8
BLACK
6
CONTINUOUS
10
6.56261
20
-3.18847
11
6.56261
21
-3.18847
0
LINE
8
BLACK
6
CONTINUOUS
10
6.56261
20
-3.18847
11
6.56281
21
-3.18864
0
LINE
8
BLACK
6
CONTINUOUS
10
6.56281
20
-3.18864
11
6.56437
21
-3.19096
0
LINE
8
BLACK
6
CONTINUOUS
10
6.56437
20
-3.19096
11
6.56443
21
-3.19376
0
LINE
8
BLACK
6
CONTINUOUS
10
6.56443
20
-3.19376
11
6.56297
21
-3.19614
0
LINE
8
BLACK
6
CONTINUOUS
10
6.56297
20
-3.19614
11
6.56138
21
-3.19711
0
LINE
8
BLACK
6
CONTINUOUS
10
6.56138
20
-3.19711
11
6.55716
21
-3.19869
0
LINE
8
BLACK
6
CONTINUOUS
10
6.55716
20
-3.19869
11
6.55655
21
-3.19902
0
LINE
8
BLACK
6
CONTINUOUS
10
6.55655
20
-3.19902
11
6.55253
21
-3.20204
0
LINE
8
BLACK
6
CONTINUOUS
10
6.55253
20
-3.20204
11
6.55204
21
-3.20253
0
LINE
8
BLACK
6
CONTINUOUS
10
6.55204
20
-3.20253
11
6.54902
21
-3.20655
0
LINE
8
BLACK
6
CONTINUOUS
10
6.54902
20
-3.20655
11
6.54869
21
-3.20716
0
LINE
8
BLACK
6
CONTINUOUS
10
6.54869
20
-3.20716
11
6.54691
21
-3.21191
0
LINE
8
BLACK
6
CONTINUOUS
10
6.54691
20
-3.21191
11
6.54677
21
-3.21251
0
LINE
8
BLACK
6
CONTINUOUS
10
6.54677
20
-3.21251
11
6.54655
21
-3.21451
0
LINE
8
BLACK
6
CONTINUOUS
10
6.54655
20
-3.21451
11
6.54654
21
-3.21478
0
LINE
8
BLACK
6
CONTINUOUS
10
6.54654
20
-3.21478
11
6.54654
21
-3.23929
0
LINE
8
BLACK
6
CONTINUOUS
10
6.54654
20
-3.23929
11
6.54671
21
-3.23989
0
LINE
8
BLACK
6
CONTINUOUS
10
6.54671
20
-3.23989
11
6.54677
21
-3.23993
0
LINE
8
BLACK
6
CONTINUOUS
10
6.54677
20
-3.23993
11
6.54707
21
-3.24
0
LINE
8
BLACK
6
CONTINUOUS
10
6.54707
20
-3.24
11
6.56654
21
-3.24
0
LINE
8
BLACK
6
CONTINUOUS
10
6.56654
20
-3.24
11
6.56654
21
-3.21654
0
LINE
8
BLACK
6
CONTINUOUS
10
6.56654
20
-3.21654
11
6.63346
21
-3.21654
0
LINE
8
BLACK
6
CONTINUOUS
10
6.63346
20
-3.21654
11
6.63346
21
-3.24
0
LINE
8
BLACK
6
CONTINUOUS
10
6.63346
20
-3.24
11
6.65275
21
-3.24
0
LINE
8
BLACK
6
CONTINUOUS
10
6.65275
20
-3.24
11
6.65335
21
-3.23982
0
LINE
8
BLACK
6
CONTINUOUS
10
6.65335
20
-3.23982
11
6.6534
21
-3.23977
0
LINE
8
BLACK
6
CONTINUOUS
10
6.6534
20
-3.23977
11
6.65346
21
-3.23947
0
LINE
8
BLACK
6
CONTINUOUS
10
6.65346
20
-3.23947
11
6.65346
21
-3.21478
0
LINE
8
BLACK
6
CONTINUOUS
10
6.65346
20
-3.21478
11
6.65345
21
-3.21451
0
LINE
8
BLACK
6
CONTINUOUS
10
6.65345
20
-3.21451
11
6.65323
21
-3.21251
0
LINE
8
BLACK
6
CONTINUOUS
10
6.65323
20
-3.21251
11
6.65309
21
-3.21191
0
LINE
8
BLACK
6
CONTINUOUS
10
6.65309
20
-3.21191
11
6.65131
21
-3.20716
0
LINE
8
BLACK
6
CONTINUOUS
10
6.65131
20
-3.20716
11
6.65098
21
-3.20655
0
LINE
8
BLACK
6
CONTINUOUS
10
6.65098
20
-3.20655
11
6.64796
21
-3.20253
0
LINE
8
BLACK
6
CONTINUOUS
10
6.64796
20
-3.20253
11
6.64747
21
-3.20204
0
LINE
8
BLACK
6
CONTINUOUS
10
6.64747
20
-3.20204
11
6.64345
21
-3.19902
0
LINE
8
BLACK
6
CONTINUOUS
10
6.64345
20
-3.19902
11
6.64284
21
-3.19869
0
LINE
8
BLACK
6
CONTINUOUS
10
6.64284
20
-3.19869
11
6.6385
21
-3.19706
0
LINE
8
BLACK
6
CONTINUOUS
10
6.6385
20
-3.19706
11
6.63626
21
-3.19538
0
LINE
8
BLACK
6
CONTINUOUS
10
6.63626
20
-3.19538
11
6.63529
21
-3.19276
0
LINE
8
BLACK
6
CONTINUOUS
10
6.63529
20
-3.19276
11
6.63589
21
-3.19003
0
LINE
8
BLACK
6
CONTINUOUS
10
6.63589
20
-3.19003
11
6.63674
21
-3.1889
0
LINE
8
BLACK
6
CONTINUOUS
10
6.63674
20
-3.1889
11
6.64073
21
-3.18493
0
LINE
8
BLACK
6
CONTINUOUS
10
6.64073
20
-3.18493
11
6.64073
21
-3.18493
0
LINE
8
BLACK
6
CONTINUOUS
10
6.64073
20
-3.18493
11
6.64087
21
-3.18478
0
LINE
8
BLACK
6
CONTINUOUS
10
6.64087
20
-3.18478
11
6.64309
21
-3.1817
0
LINE
8
BLACK
6
CONTINUOUS
10
6.64309
20
-3.1817
11
6.64425
21
-3.18009
0
LINE
8
BLACK
6
CONTINUOUS
10
6.64425
20
-3.18009
11
6.64645
21
-3.17837
0
LINE
8
BLACK
6
CONTINUOUS
10
6.64645
20
-3.17837
11
6.64827
21
-3.17802
0
LINE
8
BLACK
6
CONTINUOUS
10
6.64827
20
-3.17802
11
7.08634
21
-3.17802
0
LINE
8
BLACK
6
CONTINUOUS
10
7.08634
20
-3.17802
11
7.08902
21
-3.17881
0
LINE
8
BLACK
6
CONTINUOUS
10
7.08902
20
-3.17881
11
7.08985
21
-3.17947
0
LINE
8
BLACK
6
CONTINUOUS
10
7.08985
20
-3.17947
11
7.16895
21
-3.25858
0
LINE
8
BLACK
6
CONTINUOUS
10
7.16895
20
-3.25858
11
7.17029
21
-3.26103
0
LINE
8
BLACK
6
CONTINUOUS
10
7.17029
20
-3.26103
11
7.17041
21
-3.26209
0
LINE
8
BLACK
6
CONTINUOUS
10
7.17041
20
-3.26209
11
7.17041
21
-3.32009
0
LINE
8
BLACK
6
CONTINUOUS
10
7.17041
20
-3.32009
11
7.16962
21
-3.32277
0
LINE
8
BLACK
6
CONTINUOUS
10
7.16962
20
-3.32277
11
7.16823
21
-3.32414
0
LINE
8
BLACK
6
CONTINUOUS
10
7.16823
20
-3.32414
11
7.16825
21
-3.32417
0
LINE
8
BLACK
6
CONTINUOUS
10
7.16825
20
-3.32417
11
7.16809
21
-3.32429
0
LINE
8
BLACK
6
CONTINUOUS
10
7.16809
20
-3.32429
11
7.16809
21
-3.32429
0
LINE
8
BLACK
6
CONTINUOUS
10
7.16809
20
-3.32429
11
7.16706
21
-3.32506
0
LINE
8
BLACK
6
CONTINUOUS
10
7.16706
20
-3.32506
11
7.16083
21
-3.32974
0
LINE
8
BLACK
6
CONTINUOUS
10
7.16083
20
-3.32974
11
7.15442
21
-3.33645
0
LINE
8
BLACK
6
CONTINUOUS
10
7.15442
20
-3.33645
11
7.14919
21
-3.34411
0
LINE
8
BLACK
6
CONTINUOUS
10
7.14919
20
-3.34411
11
7.1491
21
-3.3443
0
LINE
8
BLACK
6
CONTINUOUS
10
7.1491
20
-3.3443
11
7.1491
21
-3.3443
0
LINE
8
BLACK
6
CONTINUOUS
10
7.1491
20
-3.3443
11
7.14853
21
-3.34552
0
LINE
8
BLACK
6
CONTINUOUS
10
7.14853
20
-3.34552
11
7.14528
21
-3.35253
0
LINE
8
BLACK
6
CONTINUOUS
10
7.14528
20
-3.35253
11
7.1428
21
-3.36148
0
LINE
8
BLACK
6
CONTINUOUS
10
7.1428
20
-3.36148
11
7.14199
21
-3.36905
0
LINE
8
BLACK
6
CONTINUOUS
10
7.14199
20
-3.36905
11
7.14199
21
-3.4216
0
LINE
8
BLACK
6
CONTINUOUS
10
7.14199
20
-3.4216
11
7.142
21
-3.42171
0
LINE
8
BLACK
6
CONTINUOUS
10
7.142
20
-3.42171
11
7.142
21
-3.42171
0
LINE
8
BLACK
6
CONTINUOUS
10
7.142
20
-3.42171
11
7.14254
21
-3.4283
0
LINE
8
BLACK
6
CONTINUOUS
10
7.14254
20
-3.4283
11
7.14254
21
-3.4283
0
LINE
8
BLACK
6
CONTINUOUS
10
7.14254
20
-3.4283
11
7.14256
21
-3.4285
0
LINE
8
BLACK
6
CONTINUOUS
10
7.14256
20
-3.4285
11
7.14482
21
-3.4375
0
LINE
8
BLACK
6
CONTINUOUS
10
7.14482
20
-3.4375
11
7.14852
21
-3.44601
0
LINE
8
BLACK
6
CONTINUOUS
10
7.14852
20
-3.44601
11
7.15356
21
-3.4538
0
LINE
8
BLACK
6
CONTINUOUS
10
7.15356
20
-3.4538
11
7.15369
21
-3.45396
0
LINE
8
BLACK
6
CONTINUOUS
10
7.15369
20
-3.45396
11
7.15369
21
-3.45396
0
LINE
8
BLACK
6
CONTINUOUS
10
7.15369
20
-3.45396
11
7.15468
21
-3.45504
0
LINE
8
BLACK
6
CONTINUOUS
10
7.15468
20
-3.45504
11
7.1598
21
-3.46067
0
LINE
8
BLACK
6
CONTINUOUS
10
7.1598
20
-3.46067
11
7.15996
21
-3.46079
0
LINE
8
BLACK
6
CONTINUOUS
10
7.15996
20
-3.46079
11
7.15996
21
-3.46079
0
LINE
8
BLACK
6
CONTINUOUS
10
7.15996
20
-3.46079
11
7.16693
21
-3.46629
0
LINE
8
BLACK
6
CONTINUOUS
10
7.16693
20
-3.46629
11
7.16693
21
-3.46629
0
LINE
8
BLACK
6
CONTINUOUS
10
7.16693
20
-3.46629
11
7.16709
21
-3.46642
0
LINE
8
BLACK
6
CONTINUOUS
10
7.16709
20
-3.46642
11
7.17521
21
-3.47091
0
LINE
8
BLACK
6
CONTINUOUS
10
7.17521
20
-3.47091
11
7.1754
21
-3.47097
0
LINE
8
BLACK
6
CONTINUOUS
10
7.1754
20
-3.47097
11
7.1754
21
-3.47097
0
LINE
8
BLACK
6
CONTINUOUS
10
7.1754
20
-3.47097
11
7.18377
21
-3.47394
0
LINE
8
BLACK
6
CONTINUOUS
10
7.18377
20
-3.47394
11
7.18377
21
-3.47394
0
LINE
8
BLACK
6
CONTINUOUS
10
7.18377
20
-3.47394
11
7.18396
21
-3.474
0
LINE
8
BLACK
6
CONTINUOUS
10
7.18396
20
-3.474
11
7.18416
21
-3.47404
0
LINE
8
BLACK
6
CONTINUOUS
10
7.18416
20
-3.47404
11
7.18416
21
-3.47404
0
LINE
8
BLACK
6
CONTINUOUS
10
7.18416
20
-3.47404
11
7.1929
21
-3.4756
0
LINE
8
BLACK
6
CONTINUOUS
10
7.1929
20
-3.4756
11
7.1929
21
-3.4756
0
LINE
8
BLACK
6
CONTINUOUS
10
7.1929
20
-3.4756
11
7.1931
21
-3.47563
0
LINE
8
BLACK
6
CONTINUOUS
10
7.1931
20
-3.47563
11
7.19667
21
-3.47567
0
LINE
8
BLACK
6
CONTINUOUS
10
7.19667
20
-3.47567
11
7.20217
21
-3.47574
0
LINE
8
BLACK
6
CONTINUOUS
10
7.20217
20
-3.47574
11
7.20217
21
-3.47574
0
LINE
8
BLACK
6
CONTINUOUS
10
7.20217
20
-3.47574
11
7.20238
21
-3.47574
0
LINE
8
BLACK
6
CONTINUOUS
10
7.20238
20
-3.47574
11
7.21155
21
-3.47434
0
LINE
8
BLACK
6
CONTINUOUS
10
7.21155
20
-3.47434
11
7.22037
21
-3.47146
0
LINE
8
BLACK
6
CONTINUOUS
10
7.22037
20
-3.47146
11
7.2286
21
-3.46717
0
LINE
8
BLACK
6
CONTINUOUS
10
7.2286
20
-3.46717
11
7.22876
21
-3.46705
0
LINE
8
BLACK
6
CONTINUOUS
10
7.22876
20
-3.46705
11
7.22877
21
-3.46705
0
LINE
8
BLACK
6
CONTINUOUS
10
7.22877
20
-3.46705
11
7.23586
21
-3.46172
0
LINE
8
BLACK
6
CONTINUOUS
10
7.23586
20
-3.46172
11
7.23586
21
-3.46172
0
LINE
8
BLACK
6
CONTINUOUS
10
7.23586
20
-3.46172
11
7.23602
21
-3.4616
0
LINE
8
BLACK
6
CONTINUOUS
10
7.23602
20
-3.4616
11
7.24244
21
-3.45489
0
LINE
8
BLACK
6
CONTINUOUS
10
7.24244
20
-3.45489
11
7.24767
21
-3.44722
0
LINE
8
BLACK
6
CONTINUOUS
10
7.24767
20
-3.44722
11
7.24775
21
-3.44704
0
LINE
8
BLACK
6
CONTINUOUS
10
7.24775
20
-3.44704
11
7.25149
21
-3.43899
0
LINE
8
BLACK
6
CONTINUOUS
10
7.25149
20
-3.43899
11
7.25149
21
-3.43899
0
LINE
8
BLACK
6
CONTINUOUS
10
7.25149
20
-3.43899
11
7.25157
21
-3.43881
0
LINE
8
BLACK
6
CONTINUOUS
10
7.25157
20
-3.43881
11
7.25405
21
-3.42986
0
LINE
8
BLACK
6
CONTINUOUS
10
7.25405
20
-3.42986
11
7.25468
21
-3.42399
0
LINE
8
BLACK
6
CONTINUOUS
10
7.25468
20
-3.42399
11
7.25485
21
-3.42242
0
LINE
8
BLACK
6
CONTINUOUS
10
7.25485
20
-3.42242
11
7.25485
21
-3.42242
0
LINE
8
BLACK
6
CONTINUOUS
10
7.25485
20
-3.42242
11
7.25486
21
-3.42229
0
LINE
8
BLACK
6
CONTINUOUS
10
7.25486
20
-3.42229
11
7.25486
21
-3.36973
0
LINE
8
BLACK
6
CONTINUOUS
10
7.25486
20
-3.36973
11
7.25481
21
-3.36905
0
LINE
8
BLACK
6
CONTINUOUS
10
7.25481
20
-3.36905
11
7.25431
21
-3.36304
0
LINE
8
BLACK
6
CONTINUOUS
10
7.25431
20
-3.36304
11
7.25431
21
-3.36304
0
LINE
8
BLACK
6
CONTINUOUS
10
7.25431
20
-3.36304
11
7.2543
21
-3.36284
0
LINE
8
BLACK
6
CONTINUOUS
10
7.2543
20
-3.36284
11
7.25203
21
-3.35384
0
LINE
8
BLACK
6
CONTINUOUS
10
7.25203
20
-3.35384
11
7.24833
21
-3.34533
0
LINE
8
BLACK
6
CONTINUOUS
10
7.24833
20
-3.34533
11
7.24329
21
-3.33753
0
LINE
8
BLACK
6
CONTINUOUS
10
7.24329
20
-3.33753
11
7.24247
21
-3.33663
0
LINE
8
BLACK
6
CONTINUOUS
10
7.24247
20
-3.33663
11
7.23718
21
-3.33082
0
LINE
8
BLACK
6
CONTINUOUS
10
7.23718
20
-3.33082
11
7.23718
21
-3.33082
0
LINE
8
BLACK
6
CONTINUOUS
10
7.23718
20
-3.33082
11
7.23705
21
-3.33067
0
LINE
8
BLACK
6
CONTINUOUS
10
7.23705
20
-3.33067
11
7.23689
21
-3.33054
0
LINE
8
BLACK
6
CONTINUOUS
10
7.23689
20
-3.33054
11
7.23689
21
-3.33054
0
LINE
8
BLACK
6
CONTINUOUS
10
7.23689
20
-3.33054
11
7.22992
21
-3.32504
0
LINE
8
BLACK
6
CONTINUOUS
10
7.22992
20
-3.32504
11
7.22992
21
-3.32504
0
LINE
8
BLACK
6
CONTINUOUS
10
7.22992
20
-3.32504
11
7.22976
21
-3.32492
0
LINE
8
BLACK
6
CONTINUOUS
10
7.22976
20
-3.32492
11
7.22901
21
-3.3245
0
LINE
8
BLACK
6
CONTINUOUS
10
7.22901
20
-3.3245
11
7.22704
21
-3.32252
0
LINE
8
BLACK
6
CONTINUOUS
10
7.22704
20
-3.32252
11
7.22644
21
-3.32016
0
LINE
8
BLACK
6
CONTINUOUS
10
7.22644
20
-3.32016
11
7.22644
21
-3.26059
0
LINE
8
BLACK
6
CONTINUOUS
10
7.22644
20
-3.26059
11
7.22678
21
-3.25902
0
LINE
8
BLACK
6
CONTINUOUS
10
7.22678
20
-3.25902
11
7.22672
21
-3.259
0
LINE
8
BLACK
6
CONTINUOUS
10
7.22672
20
-3.259
11
7.22681
21
-3.25871
0
LINE
8
BLACK
6
CONTINUOUS
10
7.22681
20
-3.25871
11
7.22693
21
-3.25844
0
LINE
8
BLACK
6
CONTINUOUS
10
7.22693
20
-3.25844
11
7.22717
21
-3.25715
0
LINE
8
BLACK
6
CONTINUOUS
10
7.22717
20
-3.25715
11
7.22733
21
-3.25654
0
LINE
8
BLACK
6
CONTINUOUS
10
7.22733
20
-3.25654
11
7.22763
21
-3.25557
0
LINE
8
BLACK
6
CONTINUOUS
10
7.22763
20
-3.25557
11
7.22763
21
-3.25557
0
LINE
8
BLACK
6
CONTINUOUS
10
7.22763
20
-3.25557
11
7.22773
21
-3.25529
0
LINE
8
BLACK
6
CONTINUOUS
10
7.22773
20
-3.25529
11
7.22783
21
-3.2538
0
LINE
8
BLACK
6
CONTINUOUS
10
7.22783
20
-3.2538
11
7.2279
21
-3.25324
0
LINE
8
BLACK
6
CONTINUOUS
10
7.2279
20
-3.25324
11
7.22812
21
-3.25207
0
LINE
8
BLACK
6
CONTINUOUS
10
7.22812
20
-3.25207
11
7.22812
21
-3.25207
0
LINE
8
BLACK
6
CONTINUOUS
10
7.22812
20
-3.25207
11
7.22817
21
-3.25177
0
LINE
8
BLACK
6
CONTINUOUS
10
7.22817
20
-3.25177
11
7.22809
21
-3.25046
0
LINE
8
BLACK
6
CONTINUOUS
10
7.22809
20
-3.25046
11
7.2281
21
-3.24984
0
LINE
8
BLACK
6
CONTINUOUS
10
7.2281
20
-3.24984
11
7.22817
21
-3.24882
0
LINE
8
BLACK
6
CONTINUOUS
10
7.22817
20
-3.24882
11
7.22819
21
-3.24852
0
LINE
8
BLACK
6
CONTINUOUS
10
7.22819
20
-3.24852
11
7.22814
21
-3.24823
0
LINE
8
BLACK
6
CONTINUOUS
10
7.22814
20
-3.24823
11
7.22814
21
-3.24823
0
LINE
8
BLACK
6
CONTINUOUS
10
7.22814
20
-3.24823
11
7.22793
21
-3.24706
0
LINE
8
BLACK
6
CONTINUOUS
10
7.22793
20
-3.24706
11
7.22787
21
-3.24649
0
LINE
8
BLACK
6
CONTINUOUS
10
7.22787
20
-3.24649
11
7.2278
21
-3.2453
0
LINE
8
BLACK
6
CONTINUOUS
10
7.2278
20
-3.2453
11
7.22778
21
-3.245
0
LINE
8
BLACK
6
CONTINUOUS
10
7.22778
20
-3.245
11
7.22769
21
-3.24472
0
LINE
8
BLACK
6
CONTINUOUS
10
7.22769
20
-3.24472
11
7.22769
21
-3.24472
0
LINE
8
BLACK
6
CONTINUOUS
10
7.22769
20
-3.24472
11
7.22739
21
-3.24374
0
LINE
8
BLACK
6
CONTINUOUS
10
7.22739
20
-3.24374
11
7.22725
21
-3.24314
0
LINE
8
BLACK
6
CONTINUOUS
10
7.22725
20
-3.24314
11
7.22707
21
-3.24214
0
LINE
8
BLACK
6
CONTINUOUS
10
7.22707
20
-3.24214
11
7.22707
21
-3.24214
0
LINE
8
BLACK
6
CONTINUOUS
10
7.22707
20
-3.24214
11
7.22702
21
-3.24184
0
LINE
8
BLACK
6
CONTINUOUS
10
7.22702
20
-3.24184
11
7.2269
21
-3.24157
0
LINE
8
BLACK
6
CONTINUOUS
10
7.2269
20
-3.24157
11
7.2269
21
-3.24157
0
LINE
8
BLACK
6
CONTINUOUS
10
7.2269
20
-3.24157
11
7.22642
21
-3.24048
0
LINE
8
BLACK
6
CONTINUOUS
10
7.22642
20
-3.24048
11
7.22622
21
-3.23994
0
LINE
8
BLACK
6
CONTINUOUS
10
7.22622
20
-3.23994
11
7.22579
21
-3.23852
0
LINE
8
BLACK
6
CONTINUOUS
10
7.22579
20
-3.23852
11
7.22511
21
-3.23739
0
LINE
8
BLACK
6
CONTINUOUS
10
7.22511
20
-3.23739
11
7.22482
21
-3.23684
0
LINE
8
BLACK
6
CONTINUOUS
10
7.22482
20
-3.23684
11
7.22442
21
-3.23591
0
LINE
8
BLACK
6
CONTINUOUS
10
7.22442
20
-3.23591
11
7.22442
21
-3.23591
0
LINE
8
BLACK
6
CONTINUOUS
10
7.22442
20
-3.23591
11
7.22429
21
-3.23563
0
LINE
8
BLACK
6
CONTINUOUS
10
7.22429
20
-3.23563
11
7.22339
21
-3.23445
0
LINE
8
BLACK
6
CONTINUOUS
10
7.22339
20
-3.23445
11
7.22307
21
-3.23398
0
LINE
8
BLACK
6
CONTINUOUS
10
7.22307
20
-3.23398
11
7.22246
21
-3.23296
0
LINE
8
BLACK
6
CONTINUOUS
10
7.22246
20
-3.23296
11
7.2223
21
-3.2327
0
LINE
8
BLACK
6
CONTINUOUS
10
7.2223
20
-3.2327
11
7.22119
21
-3.23157
0
LINE
8
BLACK
6
CONTINUOUS
10
7.22119
20
-3.23157
11
7.22115
21
-3.23153
0
LINE
8
BLACK
6
CONTINUOUS
10
7.22115
20
-3.23153
11
7.22112
21
-3.23149
0
LINE
8
BLACK
6
CONTINUOUS
10
7.22112
20
-3.23149
11
7.22007
21
-3.23044
0
LINE
8
BLACK
6
CONTINUOUS
10
7.22007
20
-3.23044
11
7.22005
21
-3.23042
0
LINE
8
BLACK
6
CONTINUOUS
10
7.22005
20
-3.23042
11
7.21765
21
-3.228
0
LINE
8
BLACK
6
CONTINUOUS
10
7.21765
20
-3.228
11
7.21765
21
-3.228
0
LINE
8
BLACK
6
CONTINUOUS
10
7.21765
20
-3.228
11
7.21753
21
-3.22788
0
LINE
8
BLACK
6
CONTINUOUS
10
7.21753
20
-3.22788
11
7.21748
21
-3.22785
0
LINE
8
BLACK
6
CONTINUOUS
10
7.21748
20
-3.22785
11
7.21742
21
-3.2278
0
LINE
8
BLACK
6
CONTINUOUS
10
7.21742
20
-3.2278
11
7.14313
21
-3.15351
0
LINE
8
BLACK
6
CONTINUOUS
10
7.14313
20
-3.15351
11
7.14179
21
-3.15105
0
LINE
8
BLACK
6
CONTINUOUS
10
7.14179
20
-3.15105
11
7.14199
21
-3.14827
0
LINE
8
BLACK
6
CONTINUOUS
10
7.14199
20
-3.14827
11
7.14313
21
-3.14649
0
LINE
8
BLACK
6
CONTINUOUS
10
7.14313
20
-3.14649
11
7.21743
21
-3.0722
0
LINE
8
BLACK
6
CONTINUOUS
10
7.21743
20
-3.0722
11
7.21768
21
-3.07197
0
LINE
8
BLACK
6
CONTINUOUS
10
7.21768
20
-3.07197
11
7.21918
21
-3.07066
0
LINE
8
BLACK
6
CONTINUOUS
10
7.21918
20
-3.07066
11
7.21918
21
-3.07066
0
LINE
8
BLACK
6
CONTINUOUS
10
7.21918
20
-3.07066
11
7.2194
21
-3.07046
0
LINE
8
BLACK
6
CONTINUOUS
10
7.2194
20
-3.07046
11
7.22085
21
-3.06839
0
LINE
8
BLACK
6
CONTINUOUS
10
7.22085
20
-3.06839
11
7.22101
21
-3.06819
0
LINE
8
BLACK
6
CONTINUOUS
10
7.22101
20
-3.06819
11
7.22238
21
-3.06643
0
LINE
8
BLACK
6
CONTINUOUS
10
7.22238
20
-3.06643
11
7.22238
21
-3.06643
0
LINE
8
BLACK
6
CONTINUOUS
10
7.22238
20
-3.06643
11
7.22257
21
-3.0662
0
LINE
8
BLACK
6
CONTINUOUS
10
7.22257
20
-3.0662
11
7.22269
21
-3.06592
0
LINE
8
BLACK
6
CONTINUOUS
10
7.22269
20
-3.06592
11
7.22274
21
-3.06584
0
LINE
8
BLACK
6
CONTINUOUS
10
7.22274
20
-3.06584
11
7.22308
21
-3.06524
0
LINE
8
BLACK
6
CONTINUOUS
10
7.22308
20
-3.06524
11
7.22313
21
-3.06516
0
LINE
8
BLACK
6
CONTINUOUS
10
7.22313
20
-3.06516
11
7.2233
21
-3.06491
0
LINE
8
BLACK
6
CONTINUOUS
10
7.2233
20
-3.06491
11
7.22422
21
-3.06256
0
LINE
8
BLACK
6
CONTINUOUS
10
7.22422
20
-3.06256
11
7.22432
21
-3.06232
0
LINE
8
BLACK
6
CONTINUOUS
10
7.22432
20
-3.06232
11
7.22536
21
-3.06002
0
LINE
8
BLACK
6
CONTINUOUS
10
7.22536
20
-3.06002
11
7.22541
21
-3.05972
0
LINE
8
BLACK
6
CONTINUOUS
10
7.22541
20
-3.05972
11
7.22544
21
-3.05963
0
LINE
8
BLACK
6
CONTINUOUS
10
7.22544
20
-3.05963
11
7.22563
21
-3.05896
0
LINE
8
BLACK
6
CONTINUOUS
10
7.22563
20
-3.05896
11
7.22566
21
-3.05887
0
LINE
8
BLACK
6
CONTINUOUS
10
7.22566
20
-3.05887
11
7.22576
21
-3.05859
0
LINE
8
BLACK
6
CONTINUOUS
10
7.22576
20
-3.05859
11
7.22609
21
-3.05609
0
LINE
8
BLACK
6
CONTINUOUS
10
7.22609
20
-3.05609
11
7.22613
21
-3.05583
0
LINE
8
BLACK
6
CONTINUOUS
10
7.22613
20
-3.05583
11
7.22659
21
-3.05335
0
LINE
8
BLACK
6
CONTINUOUS
10
7.22659
20
-3.05335
11
7.22645
21
-3.05089
0
LINE
8
BLACK
6
CONTINUOUS
10
7.22645
20
-3.05089
11
7.22644
21
-3.0506
0
LINE
8
BLACK
6
CONTINUOUS
10
7.22644
20
-3.0506
11
7.22644
21
-2.97912
0
LINE
8
BLACK
6
CONTINUOUS
10
7.22644
20
-2.97912
11
7.22723
21
-2.97644
0
LINE
8
BLACK
6
CONTINUOUS
10
7.22723
20
-2.97644
11
7.22862
21
-2.97507
0
LINE
8
BLACK
6
CONTINUOUS
10
7.22862
20
-2.97507
11
7.2286
21
-2.97505
0
LINE
8
BLACK
6
CONTINUOUS
10
7.2286
20
-2.97505
11
7.22876
21
-2.97493
0
LINE
8
BLACK
6
CONTINUOUS
10
7.22876
20
-2.97493
11
7.22876
21
-2.97493
0
LINE
8
BLACK
6
CONTINUOUS
10
7.22876
20
-2.97493
11
7.22876
21
-2.97492
0
LINE
8
BLACK
6
CONTINUOUS
10
7.22876
20
-2.97492
11
7.22877
21
-2.97492
0
LINE
8
BLACK
6
CONTINUOUS
10
7.22877
20
-2.97492
11
7.23586
21
-2.9696
0
LINE
8
BLACK
6
CONTINUOUS
10
7.23586
20
-2.9696
11
7.23586
21
-2.9696
0
LINE
8
BLACK
6
CONTINUOUS
10
7.23586
20
-2.9696
11
7.23602
21
-2.96947
0
LINE
8
BLACK
6
CONTINUOUS
10
7.23602
20
-2.96947
11
7.24244
21
-2.96276
0
LINE
8
BLACK
6
CONTINUOUS
10
7.24244
20
-2.96276
11
7.24767
21
-2.9551
0
LINE
8
BLACK
6
CONTINUOUS
10
7.24767
20
-2.9551
11
7.24775
21
-2.95491
0
LINE
8
BLACK
6
CONTINUOUS
10
7.24775
20
-2.95491
11
7.25149
21
-2.94687
0
LINE
8
BLACK
6
CONTINUOUS
10
7.25149
20
-2.94687
11
7.25149
21
-2.94686
0
LINE
8
BLACK
6
CONTINUOUS
10
7.25149
20
-2.94686
11
7.25157
21
-2.94668
0
LINE
8
BLACK
6
CONTINUOUS
10
7.25157
20
-2.94668
11
7.25405
21
-2.93774
0
LINE
8
BLACK
6
CONTINUOUS
10
7.25405
20
-2.93774
11
7.25472
21
-2.93147
0
LINE
8
BLACK
6
CONTINUOUS
10
7.25472
20
-2.93147
11
7.25485
21
-2.93029
0
LINE
8
BLACK
6
CONTINUOUS
10
7.25485
20
-2.93029
11
7.25485
21
-2.93029
0
LINE
8
BLACK
6
CONTINUOUS
10
7.25485
20
-2.93029
11
7.25486
21
-2.93016
0
LINE
8
BLACK
6
CONTINUOUS
10
7.25486
20
-2.93016
11
7.25486
21
-2.87761
0
LINE
8
BLACK
6
CONTINUOUS
10
7.25486
20
-2.87761
11
7.25481
21
-2.87693
0
LINE
8
BLACK
6
CONTINUOUS
10
7.25481
20
-2.87693
11
7.25431
21
-2.87091
0
LINE
8
BLACK
6
CONTINUOUS
10
7.25431
20
-2.87091
11
7.25431
21
-2.87091
0
LINE
8
BLACK
6
CONTINUOUS
10
7.25431
20
-2.87091
11
7.2543
21
-2.87071
0
LINE
8
BLACK
6
CONTINUOUS
10
7.2543
20
-2.87071
11
7.25203
21
-2.86171
0
LINE
8
BLACK
6
CONTINUOUS
10
7.25203
20
-2.86171
11
7.24833
21
-2.8532
0
LINE
8
BLACK
6
CONTINUOUS
10
7.24833
20
-2.8532
11
7.24329
21
-2.84541
0
LINE
8
BLACK
6
CONTINUOUS
10
7.24329
20
-2.84541
11
7.24247
21
-2.8445
0
LINE
8
BLACK
6
CONTINUOUS
10
7.24247
20
-2.8445
11
7.23718
21
-2.83869
0
LINE
8
BLACK
6
CONTINUOUS
10
7.23718
20
-2.83869
11
7.23718
21
-2.83869
0
LINE
8
BLACK
6
CONTINUOUS
10
7.23718
20
-2.83869
11
7.23705
21
-2.83854
0
LINE
8
BLACK
6
CONTINUOUS
10
7.23705
20
-2.83854
11
7.23689
21
-2.83842
0
LINE
8
BLACK
6
CONTINUOUS
10
7.23689
20
-2.83842
11
7.23689
21
-2.83842
0
LINE
8
BLACK
6
CONTINUOUS
10
7.23689
20
-2.83842
11
7.22992
21
-2.83292
0
LINE
8
BLACK
6
CONTINUOUS
10
7.22992
20
-2.83292
11
7.22992
21
-2.83292
0
LINE
8
BLACK
6
CONTINUOUS
10
7.22992
20
-2.83292
11
7.22976
21
-2.83279
0
LINE
8
BLACK
6
CONTINUOUS
10
7.22976
20
-2.83279
11
7.22164
21
-2.82831
0
LINE
8
BLACK
6
CONTINUOUS
10
7.22164
20
-2.82831
11
7.22145
21
-2.82824
0
LINE
8
BLACK
6
CONTINUOUS
10
7.22145
20
-2.82824
11
7.22145
21
-2.82824
0
LINE
8
BLACK
6
CONTINUOUS
10
7.22145
20
-2.82824
11
7.21308
21
-2.82528
0
LINE
8
BLACK
6
CONTINUOUS
10
7.21308
20
-2.82528
11
7.21308
21
-2.82528
0
LINE
8
BLACK
6
CONTINUOUS
10
7.21308
20
-2.82528
11
7.21289
21
-2.82521
0
LINE
8
BLACK
6
CONTINUOUS
10
7.21289
20
-2.82521
11
7.21269
21
-2.82517
0
LINE
8
BLACK
6
CONTINUOUS
10
7.21269
20
-2.82517
11
7.21269
21
-2.82517
0
LINE
8
BLACK
6
CONTINUOUS
10
7.21269
20
-2.82517
11
7.20395
21
-2.82362
0
LINE
8
BLACK
6
CONTINUOUS
10
7.20395
20
-2.82362
11
7.20395
21
-2.82362
0
LINE
8
BLACK
6
CONTINUOUS
10
7.20395
20
-2.82362
11
7.20375
21
-2.82358
0
LINE
8
BLACK
6
CONTINUOUS
10
7.20375
20
-2.82358
11
7.20018
21
-2.82354
0
LINE
8
BLACK
6
CONTINUOUS
10
7.20018
20
-2.82354
11
7.19468
21
-2.82347
0
LINE
8
BLACK
6
CONTINUOUS
10
7.19468
20
-2.82347
11
7.19468
21
-2.82347
0
LINE
8
BLACK
6
CONTINUOUS
10
7.19468
20
-2.82347
11
7.19447
21
-2.82347
0
LINE
8
BLACK
6
CONTINUOUS
10
7.19447
20
-2.82347
11
7.1853
21
-2.82487
0
LINE
8
BLACK
6
CONTINUOUS
10
7.1853
20
-2.82487
11
7.17648
21
-2.82776
0
LINE
8
BLACK
6
CONTINUOUS
10
7.17648
20
-2.82776
11
7.16825
21
-2.83204
0
LINE
8
BLACK
6
CONTINUOUS
10
7.16825
20
-2.83204
11
7.16809
21
-2.83216
0
LINE
8
BLACK
6
CONTINUOUS
10
7.16809
20
-2.83216
11
7.16809
21
-2.83216
0
LINE
8
BLACK
6
CONTINUOUS
10
7.16809
20
-2.83216
11
7.16706
21
-2.83293
0
LINE
8
BLACK
6
CONTINUOUS
10
7.16706
20
-2.83293
11
7.16083
21
-2.83761
0
LINE
8
BLACK
6
CONTINUOUS
10
7.16083
20
-2.83761
11
7.15442
21
-2.84432
0
LINE
8
BLACK
6
CONTINUOUS
10
7.15442
20
-2.84432
11
7.14919
21
-2.85199
0
LINE
8
BLACK
6
CONTINUOUS
10
7.14919
20
-2.85199
11
7.1491
21
-2.85217
0
LINE
8
BLACK
6
CONTINUOUS
10
7.1491
20
-2.85217
11
7.1491
21
-2.85217
0
LINE
8
BLACK
6
CONTINUOUS
10
7.1491
20
-2.85217
11
7.14688
21
-2.85696
0
LINE
8
BLACK
6
CONTINUOUS
10
7.14688
20
-2.85696
11
7.14528
21
-2.86041
0
LINE
8
BLACK
6
CONTINUOUS
10
7.14528
20
-2.86041
11
7.1428
21
-2.86935
0
LINE
8
BLACK
6
CONTINUOUS
10
7.1428
20
-2.86935
11
7.14278
21
-2.86955
0
LINE
8
BLACK
6
CONTINUOUS
10
7.14278
20
-2.86955
11
7.14209
21
-2.87593
0
LINE
8
BLACK
6
CONTINUOUS
10
7.14209
20
-2.87593
11
7.14199
21
-2.87693
0
LINE
8
BLACK
6
CONTINUOUS
10
7.14199
20
-2.87693
11
7.14199
21
-2.92948
0
LINE
8
BLACK
6
CONTINUOUS
10
7.14199
20
-2.92948
11
7.142
21
-2.92958
0
LINE
8
BLACK
6
CONTINUOUS
10
7.142
20
-2.92958
11
7.142
21
-2.92958
0
LINE
8
BLACK
6
CONTINUOUS
10
7.142
20
-2.92958
11
7.14254
21
-2.93617
0
LINE
8
BLACK
6
CONTINUOUS
10
7.14254
20
-2.93617
11
7.14254
21
-2.93617
0
LINE
8
BLACK
6
CONTINUOUS
10
7.14254
20
-2.93617
11
7.14256
21
-2.93638
0
LINE
8
BLACK
6
CONTINUOUS
10
7.14256
20
-2.93638
11
7.14482
21
-2.94538
0
LINE
8
BLACK
6
CONTINUOUS
10
7.14482
20
-2.94538
11
7.14852
21
-2.95389
0
LINE
8
BLACK
6
CONTINUOUS
10
7.14852
20
-2.95389
11
7.15356
21
-2.96168
0
LINE
8
BLACK
6
CONTINUOUS
10
7.15356
20
-2.96168
11
7.15369
21
-2.96183
0
LINE
8
BLACK
6
CONTINUOUS
10
7.15369
20
-2.96183
11
7.15369
21
-2.96183
0
LINE
8
BLACK
6
CONTINUOUS
10
7.15369
20
-2.96183
11
7.15965
21
-2.96838
0
LINE
8
BLACK
6
CONTINUOUS
10
7.15965
20
-2.96838
11
7.1598
21
-2.96854
0
LINE
8
BLACK
6
CONTINUOUS
10
7.1598
20
-2.96854
11
7.15996
21
-2.96867
0
LINE
8
BLACK
6
CONTINUOUS
10
7.15996
20
-2.96867
11
7.15996
21
-2.96867
0
LINE
8
BLACK
6
CONTINUOUS
10
7.15996
20
-2.96867
11
7.16693
21
-2.97417
0
LINE
8
BLACK
6
CONTINUOUS
10
7.16693
20
-2.97417
11
7.16693
21
-2.97417
0
LINE
8
BLACK
6
CONTINUOUS
10
7.16693
20
-2.97417
11
7.16709
21
-2.97429
0
LINE
8
BLACK
6
CONTINUOUS
10
7.16709
20
-2.97429
11
7.16784
21
-2.97471
0
LINE
8
BLACK
6
CONTINUOUS
10
7.16784
20
-2.97471
11
7.16981
21
-2.9767
0
LINE
8
BLACK
6
CONTINUOUS
10
7.16981
20
-2.9767
11
7.17041
21
-2.97905
0
LINE
8
BLACK
6
CONTINUOUS
10
7.17041
20
-2.97905
11
7.17041
21
-3.03791
0
LINE
8
BLACK
6
CONTINUOUS
10
7.17041
20
-3.03791
11
7.16962
21
-3.0406
0
LINE
8
BLACK
6
CONTINUOUS
10
7.16962
20
-3.0406
11
7.16895
21
-3.04142
0
LINE
8
BLACK
6
CONTINUOUS
10
7.16895
20
-3.04142
11
7.08985
21
-3.12053
0
LINE
8
BLACK
6
CONTINUOUS
10
7.08985
20
-3.12053
11
7.08739
21
-3.12187
0
LINE
8
BLACK
6
CONTINUOUS
10
7.08739
20
-3.12187
11
7.08634
21
-3.12198
0
LINE
8
BLACK
6
CONTINUOUS
10
7.08634
20
-3.12198
11
6.64828
21
-3.12198
0
LINE
8
BLACK
6
CONTINUOUS
10
6.64828
20
-3.12198
11
6.64559
21
-3.12119
0
LINE
8
BLACK
6
CONTINUOUS
10
6.64559
20
-3.12119
11
6.64411
21
-3.11971
0
LINE
8
BLACK
6
CONTINUOUS
10
6.64411
20
-3.11971
11
6.64263
21
-3.11743
0
LINE
8
BLACK
6
CONTINUOUS
10
6.64263
20
-3.11743
11
6.64263
21
-3.11743
0
LINE
8
BLACK
6
CONTINUOUS
10
6.64263
20
-3.11743
11
6.64252
21
-3.11726
0
LINE
8
BLACK
6
CONTINUOUS
10
6.64252
20
-3.11726
11
6.6366
21
-3.11075
0
LINE
8
BLACK
6
CONTINUOUS
10
6.6366
20
-3.11075
11
6.63644
21
-3.11062
0
LINE
8
BLACK
6
CONTINUOUS
10
6.63644
20
-3.11062
11
6.63644
21
-3.11062
0
LINE
8
BLACK
6
CONTINUOUS
10
6.63644
20
-3.11062
11
6.62986
21
-3.10543
0
LINE
8
BLACK
6
CONTINUOUS
10
6.62986
20
-3.10543
11
6.62986
21
-3.10543
0
LINE
8
BLACK
6
CONTINUOUS
10
6.62986
20
-3.10543
11
6.6297
21
-3.1053
0
LINE
8
BLACK
6
CONTINUOUS
10
6.6297
20
-3.1053
11
6.62807
21
-3.1044
0
LINE
8
BLACK
6
CONTINUOUS
10
6.62807
20
-3.1044
11
6.62611
21
-3.10242
0
LINE
8
BLACK
6
CONTINUOUS
10
6.62611
20
-3.10242
11
6.62552
21
-3.09968
0
LINE
8
BLACK
6
CONTINUOUS
10
6.62552
20
-3.09968
11
6.62651
21
-3.09707
0
LINE
8
BLACK
6
CONTINUOUS
10
6.62651
20
-3.09707
11
6.62759
21
-3.09602
0
LINE
8
BLACK
6
CONTINUOUS
10
6.62759
20
-3.09602
11
6.62943
21
-3.09471
0
LINE
8
BLACK
6
CONTINUOUS
10
6.62943
20
-3.09471
11
6.63464
21
-3.09099
0
LINE
8
BLACK
6
CONTINUOUS
10
6.63464
20
-3.09099
11
6.64087
21
-3.08478
0
LINE
8
BLACK
6
CONTINUOUS
10
6.64087
20
-3.08478
11
6.64321
21
-3.08152
0
LINE
8
BLACK
6
CONTINUOUS
10
6.64321
20
-3.08152
11
6.64588
21
-3.07781
0
LINE
8
BLACK
6
CONTINUOUS
10
6.64588
20
-3.07781
11
6.646
21
-3.07764
0
LINE
8
BLACK
6
CONTINUOUS
10
6.646
20
-3.07764
11
6.64881
21
-3.07197
0
LINE
8
BLACK
6
CONTINUOUS
10
6.64881
20
-3.07197
11
6.64981
21
-3.06994
0
LINE
8
BLACK
6
CONTINUOUS
10
6.64981
20
-3.06994
11
6.64981
21
-3.06994
0
LINE
8
BLACK
6
CONTINUOUS
10
6.64981
20
-3.06994
11
6.6499
21
-3.06976
0
LINE
8
BLACK
6
CONTINUOUS
10
6.6499
20
-3.06976
11
6.65209
21
-3.06256
0
LINE
8
BLACK
6
CONTINUOUS
10
6.65209
20
-3.06256
11
6.6524
21
-3.06154
0
LINE
8
BLACK
6
CONTINUOUS
10
6.6524
20
-3.06154
11
6.6524
21
-3.06154
0
LINE
8
BLACK
6
CONTINUOUS
10
6.6524
20
-3.06154
11
6.65246
21
-3.06134
0
LINE
8
BLACK
6
CONTINUOUS
10
6.65246
20
-3.06134
11
6.6536
21
-3.05262
0
LINE
8
BLACK
6
CONTINUOUS
10
6.6536
20
-3.05262
11
6.65367
21
-3.05
0
LINE
8
BLACK
6
CONTINUOUS
10
6.65367
20
-3.05
11
6.65295
21
-3.04123
0
LINE
8
BLACK
6
CONTINUOUS
10
6.65295
20
-3.04123
11
6.6508
21
-3.0327
0
LINE
8
BLACK
6
CONTINUOUS
10
6.6508
20
-3.0327
11
6.6473
21
-3.02464
0
LINE
8
BLACK
6
CONTINUOUS
10
6.6473
20
-3.02464
11
6.64507
21
-3.02119
0
LINE
8
BLACK
6
CONTINUOUS
10
6.64507
20
-3.02119
11
6.64263
21
-3.01743
0
LINE
8
BLACK
6
CONTINUOUS
10
6.64263
20
-3.01743
11
6.64263
21
-3.01743
0
LINE
8
BLACK
6
CONTINUOUS
10
6.64263
20
-3.01743
11
6.64252
21
-3.01726
0
LINE
8
BLACK
6
CONTINUOUS
10
6.64252
20
-3.01726
11
6.6366
21
-3.01075
0
LINE
8
BLACK
6
CONTINUOUS
10
6.6366
20
-3.01075
11
6.63644
21
-3.01062
0
LINE
8
BLACK
6
CONTINUOUS
10
6.63644
20
-3.01062
11
6.63644
21
-3.01062
0
LINE
8
BLACK
6
CONTINUOUS
10
6.63644
20
-3.01062
11
6.62986
21
-3.00543
0
LINE
8
BLACK
6
CONTINUOUS
10
6.62986
20
-3.00543
11
6.62986
21
-3.00543
0
LINE
8
BLACK
6
CONTINUOUS
10
6.62986
20
-3.00543
11
6.6297
21
-3.0053
0
LINE
8
BLACK
6
CONTINUOUS
10
6.6297
20
-3.0053
11
6.62807
21
-3.0044
0
LINE
8
BLACK
6
CONTINUOUS
10
6.62807
20
-3.0044
11
6.62611
21
-3.00242
0
LINE
8
BLACK
6
CONTINUOUS
10
6.62611
20
-3.00242
11
6.62552
21
-2.99968
0
LINE
8
BLACK
6
CONTINUOUS
10
6.62552
20
-2.99968
11
6.62651
21
-2.99707
0
LINE
8
BLACK
6
CONTINUOUS
10
6.62651
20
-2.99707
11
6.62759
21
-2.99602
0
LINE
8
BLACK
6
CONTINUOUS
10
6.62759
20
-2.99602
11
6.62932
21
-2.99479
0
LINE
8
BLACK
6
CONTINUOUS
10
6.62932
20
-2.99479
11
6.63464
21
-2.99099
0
LINE
8
BLACK
6
CONTINUOUS
10
6.63464
20
-2.99099
11
6.64087
21
-2.98478
0
LINE
8
BLACK
6
CONTINUOUS
10
6.64087
20
-2.98478
11
6.64179
21
-2.98351
0
LINE
8
BLACK
6
CONTINUOUS
10
6.64179
20
-2.98351
11
6.64588
21
-2.97781
0
LINE
8
BLACK
6
CONTINUOUS
10
6.64588
20
-2.97781
11
6.646
21
-2.97764
0
LINE
8
BLACK
6
CONTINUOUS
10
6.646
20
-2.97764
11
6.64727
21
-2.97507
0
LINE
8
BLACK
6
CONTINUOUS
10
6.64727
20
-2.97507
11
6.64981
21
-2.96994
0
LINE
8
BLACK
6
CONTINUOUS
10
6.64981
20
-2.96994
11
6.64981
21
-2.96994
0
LINE
8
BLACK
6
CONTINUOUS
10
6.64981
20
-2.96994
11
6.6499
21
-2.96976
0
LINE
8
BLACK
6
CONTINUOUS
10
6.6499
20
-2.96976
11
6.65246
21
-2.96134
0
LINE
8
BLACK
6
CONTINUOUS
10
6.65246
20
-2.96134
11
6.6536
21
-2.95262
0
LINE
8
BLACK
6
CONTINUOUS
10
6.6536
20
-2.95262
11
6.65367
21
-2.95
0
LINE
8
BLACK
6
CONTINUOUS
10
6.65367
20
-2.95
11
6.65295
21
-2.94123
0
LINE
8
BLACK
6
CONTINUOUS
10
6.65295
20
-2.94123
11
6.6508
21
-2.9327
0
LINE
8
BLACK
6
CONTINUOUS
10
6.6508
20
-2.9327
11
6.64936
21
-2.92938
0
LINE
8
BLACK
6
CONTINUOUS
10
6.64936
20
-2.92938
11
6.6473
21
-2.92464
0
LINE
8
BLACK
6
CONTINUOUS
10
6.6473
20
-2.92464
11
6.64252
21
-2.91725
0
LINE
8
BLACK
6
CONTINUOUS
10
6.64252
20
-2.91725
11
6.6366
21
-2.91075
0
LINE
8
BLACK
6
CONTINUOUS
10
6.6366
20
-2.91075
11
6.63644
21
-2.91062
0
LINE
8
BLACK
6
CONTINUOUS
10
6.63644
20
-2.91062
11
6.63644
21
-2.91062
0
LINE
8
BLACK
6
CONTINUOUS
10
6.63644
20
-2.91062
11
6.62986
21
-2.90543
0
LINE
8
BLACK
6
CONTINUOUS
10
6.62986
20
-2.90543
11
6.62986
21
-2.90543
0
LINE
8
BLACK
6
CONTINUOUS
10
6.62986
20
-2.90543
11
6.6297
21
-2.9053
0
LINE
8
BLACK
6
CONTINUOUS
10
6.6297
20
-2.9053
11
6.622
21
-2.90105
0
LINE
8
BLACK
6
CONTINUOUS
10
6.622
20
-2.90105
11
6.62181
21
-2.90098
0
LINE
8
BLACK
6
CONTINUOUS
10
6.62181
20
-2.90098
11
6.62181
21
-2.90098
0
LINE
8
BLACK
6
CONTINUOUS
10
6.62181
20
-2.90098
11
6.6139
21
-2.89818
0
LINE
8
BLACK
6
CONTINUOUS
10
6.6139
20
-2.89818
11
6.6139
21
-2.89818
0
LINE
8
BLACK
6
CONTINUOUS
10
6.6139
20
-2.89818
11
6.61371
21
-2.89811
0
LINE
8
BLACK
6
CONTINUOUS
10
6.61371
20
-2.89811
11
6.61351
21
-2.89808
0
LINE
8
BLACK
6
CONTINUOUS
10
6.61351
20
-2.89808
11
6.61351
21
-2.89808
0
LINE
8
BLACK
6
CONTINUOUS
10
6.61351
20
-2.89808
11
6.60525
21
-2.89661
0
LINE
8
BLACK
6
CONTINUOUS
10
6.60525
20
-2.89661
11
6.60525
21
-2.89661
0
LINE
8
BLACK
6
CONTINUOUS
10
6.60525
20
-2.89661
11
6.60505
21
-2.89657
0
LINE
8
BLACK
6
CONTINUOUS
10
6.60505
20
-2.89657
11
6.60214
21
-2.89654
0
LINE
8
BLACK
6
CONTINUOUS
10
6.60214
20
-2.89654
11
6.59646
21
-2.89647
0
LINE
8
BLACK
6
CONTINUOUS
10
6.59646
20
-2.89647
11
6.59646
21
-2.89647
0
LINE
8
BLACK
6
CONTINUOUS
10
6.59646
20
-2.89647
11
6.59626
21
-2.89646
0
LINE
8
BLACK
6
CONTINUOUS
10
6.59626
20
-2.89646
11
6.58756
21
-2.89779
0
LINE
8
BLACK
6
CONTINUOUS
10
6.58756
20
-2.89779
11
6.5792
21
-2.90053
0
LINE
8
BLACK
6
CONTINUOUS
10
6.5792
20
-2.90053
11
6.5714
21
-2.90459
0
LINE
8
BLACK
6
CONTINUOUS
10
6.5714
20
-2.90459
11
6.57124
21
-2.90471
0
LINE
8
BLACK
6
CONTINUOUS
10
6.57124
20
-2.90471
11
6.57124
21
-2.90471
0
LINE
8
BLACK
6
CONTINUOUS
10
6.57124
20
-2.90471
11
6.57029
21
-2.90543
0
LINE
8
BLACK
6
CONTINUOUS
10
6.57029
20
-2.90543
11
6.56437
21
-2.90987
0
LINE
8
BLACK
6
CONTINUOUS
10
6.56437
20
-2.90987
11
6.56423
21
-2.91001
0
LINE
8
BLACK
6
CONTINUOUS
10
6.56423
20
-2.91001
11
6.56064
21
-2.91377
0
LINE
8
BLACK
6
CONTINUOUS
10
6.56064
20
-2.91377
11
6.55829
21
-2.91623
0
LINE
8
BLACK
6
CONTINUOUS
10
6.55829
20
-2.91623
11
6.55334
21
-2.92349
0
LINE
8
BLACK
6
CONTINUOUS
10
6.55334
20
-2.92349
11
6.55272
21
-2.92483
0
LINE
8
BLACK
6
CONTINUOUS
10
6.55272
20
-2.92483
11
6.5503
21
-2.93003
0
LINE
8
BLACK
6
CONTINUOUS
10
6.5503
20
-2.93003
11
6.54963
21
-2.93147
0
LINE
8
BLACK
6
CONTINUOUS
10
6.54963
20
-2.93147
11
6.54728
21
-2.93994
0
LINE
8
BLACK
6
CONTINUOUS
10
6.54728
20
-2.93994
11
6.54635
21
-2.94869
0
LINE
8
BLACK
6
CONTINUOUS
10
6.54635
20
-2.94869
11
6.54636
21
-2.94889
0
LINE
8
BLACK
6
CONTINUOUS
10
6.54636
20
-2.94889
11
6.54636
21
-2.94889
0
LINE
8
BLACK
6
CONTINUOUS
10
6.54636
20
-2.94889
11
6.54684
21
-2.95727
0
LINE
8
BLACK
6
CONTINUOUS
10
6.54684
20
-2.95727
11
6.54685
21
-2.95747
0
LINE
8
BLACK
6
CONTINUOUS
10
6.54685
20
-2.95747
11
6.5469
21
-2.95767
0
LINE
8
BLACK
6
CONTINUOUS
10
6.5469
20
-2.95767
11
6.5469
21
-2.95767
0
LINE
8
BLACK
6
CONTINUOUS
10
6.5469
20
-2.95767
11
6.54768
21
-2.96114
0
LINE
8
BLACK
6
CONTINUOUS
10
6.54768
20
-2.96114
11
6.54879
21
-2.96605
0
LINE
8
BLACK
6
CONTINUOUS
10
6.54879
20
-2.96605
11
6.5521
21
-2.9742
0
LINE
8
BLACK
6
CONTINUOUS
10
6.5521
20
-2.9742
11
6.55669
21
-2.9817
0
LINE
8
BLACK
6
CONTINUOUS
10
6.55669
20
-2.9817
11
6.56245
21
-2.98834
0
LINE
8
BLACK
6
CONTINUOUS
10
6.56245
20
-2.98834
11
6.56922
21
-2.99396
0
LINE
8
BLACK
6
CONTINUOUS
10
6.56922
20
-2.99396
11
6.57199
21
-2.99558
0
LINE
8
BLACK
6
CONTINUOUS
10
6.57199
20
-2.99558
11
6.5721
21
-2.99565
0
LINE
8
BLACK
6
CONTINUOUS
10
6.5721
20
-2.99565
11
6.57402
21
-2.99768
0
LINE
8
BLACK
6
CONTINUOUS
10
6.57402
20
-2.99768
11
6.57454
21
-3.00043
0
LINE
8
BLACK
6
CONTINUOUS
10
6.57454
20
-3.00043
11
6.57348
21
-3.00302
0
LINE
8
BLACK
6
CONTINUOUS
10
6.57348
20
-3.00302
11
6.57189
21
-3.00433
0
LINE
8
BLACK
6
CONTINUOUS
10
6.57189
20
-3.00433
11
6.5714
21
-3.00459
0
LINE
8
BLACK
6
CONTINUOUS
10
6.5714
20
-3.00459
11
6.57124
21
-3.00471
0
LINE
8
BLACK
6
CONTINUOUS
10
6.57124
20
-3.00471
11
6.57124
21
-3.00471
0
LINE
8
BLACK
6
CONTINUOUS
10
6.57124
20
-3.00471
11
6.56453
21
-3.00975
0
LINE
8
BLACK
6
CONTINUOUS
10
6.56453
20
-3.00975
11
6.56437
21
-3.00987
0
LINE
8
BLACK
6
CONTINUOUS
10
6.56437
20
-3.00987
11
6.55829
21
-3.01623
0
LINE
8
BLACK
6
CONTINUOUS
10
6.55829
20
-3.01623
11
6.55584
21
-3.01982
0
LINE
8
BLACK
6
CONTINUOUS
10
6.55584
20
-3.01982
11
6.55368
21
-3.02159
0
LINE
8
BLACK
6
CONTINUOUS
10
6.55368
20
-3.02159
11
6.55175
21
-3.02198
0
LINE
8
BLACK
6
CONTINUOUS
10
6.55175
20
-3.02198
11
6.26366
21
-3.02198
0
LINE
8
BLACK
6
CONTINUOUS
10
6.26366
20
-3.02198
11
6.26098
21
-3.02119
0
LINE
8
BLACK
6
CONTINUOUS
10
6.26098
20
-3.02119
11
6.26015
21
-3.02053
0
LINE
8
BLACK
6
CONTINUOUS
10
6.26015
20
-3.02053
11
6.22632
21
-2.9867
0
LINE
8
BLACK
6
CONTINUOUS
10
6.22632
20
-2.9867
11
6.22498
21
-2.98424
0
LINE
8
BLACK
6
CONTINUOUS
10
6.22498
20
-2.98424
11
6.22487
21
-2.98319
0
LINE
8
BLACK
6
CONTINUOUS
10
6.22487
20
-2.98319
11
6.22487
21
-2.97912
0
LINE
8
BLACK
6
CONTINUOUS
10
6.22487
20
-2.97912
11
6.22566
21
-2.97644
0
LINE
8
BLACK
6
CONTINUOUS
10
6.22566
20
-2.97644
11
6.22704
21
-2.97507
0
LINE
8
BLACK
6
CONTINUOUS
10
6.22704
20
-2.97507
11
6.22703
21
-2.97505
0
LINE
8
BLACK
6
CONTINUOUS
10
6.22703
20
-2.97505
11
6.22719
21
-2.97493
0
LINE
8
BLACK
6
CONTINUOUS
10
6.22719
20
-2.97493
11
6.22719
21
-2.97493
0
LINE
8
BLACK
6
CONTINUOUS
10
6.22719
20
-2.97493
11
6.22719
21
-2.97492
0
LINE
8
BLACK
6
CONTINUOUS
10
6.22719
20
-2.97492
11
6.22719
21
-2.97492
0
LINE
8
BLACK
6
CONTINUOUS
10
6.22719
20
-2.97492
11
6.23429
21
-2.9696
0
LINE
8
BLACK
6
CONTINUOUS
10
6.23429
20
-2.9696
11
6.23429
21
-2.9696
0
LINE
8
BLACK
6
CONTINUOUS
10
6.23429
20
-2.9696
11
6.23445
21
-2.96947
0
LINE
8
BLACK
6
CONTINUOUS
10
6.23445
20
-2.96947
11
6.24086
21
-2.96276
0
LINE
8
BLACK
6
CONTINUOUS
10
6.24086
20
-2.96276
11
6.24609
21
-2.9551
0
LINE
8
BLACK
6
CONTINUOUS
10
6.24609
20
-2.9551
11
6.24618
21
-2.95491
0
LINE
8
BLACK
6
CONTINUOUS
10
6.24618
20
-2.95491
11
6.24991
21
-2.94687
0
LINE
8
BLACK
6
CONTINUOUS
10
6.24991
20
-2.94687
11
6.24991
21
-2.94686
0
LINE
8
BLACK
6
CONTINUOUS
10
6.24991
20
-2.94686
11
6.25
21
-2.94668
0
LINE
8
BLACK
6
CONTINUOUS
10
6.25
20
-2.94668
11
6.25248
21
-2.93774
0
LINE
8
BLACK
6
CONTINUOUS
10
6.25248
20
-2.93774
11
6.25315
21
-2.93147
0
LINE
8
BLACK
6
CONTINUOUS
10
6.25315
20
-2.93147
11
6.25327
21
-2.93029
0
LINE
8
BLACK
6
CONTINUOUS
10
6.25327
20
-2.93029
11
6.25327
21
-2.93029
0
LINE
8
BLACK
6
CONTINUOUS
10
6.25327
20
-2.93029
11
6.25329
21
-2.93016
0
LINE
8
BLACK
6
CONTINUOUS
10
6.25329
20
-2.93016
11
6.25329
21
-2.87761
0
LINE
8
BLACK
6
CONTINUOUS
10
6.25329
20
-2.87761
11
6.25323
21
-2.87693
0
LINE
8
BLACK
6
CONTINUOUS
10
6.25323
20
-2.87693
11
6.25274
21
-2.87091
0
LINE
8
BLACK
6
CONTINUOUS
10
6.25274
20
-2.87091
11
6.25274
21
-2.87091
0
LINE
8
BLACK
6
CONTINUOUS
10
6.25274
20
-2.87091
11
6.25272
21
-2.87071
0
LINE
8
BLACK
6
CONTINUOUS
10
6.25272
20
-2.87071
11
6.25046
21
-2.86171
0
LINE
8
BLACK
6
CONTINUOUS
10
6.25046
20
-2.86171
11
6.24676
21
-2.8532
0
LINE
8
BLACK
6
CONTINUOUS
10
6.24676
20
-2.8532
11
6.24172
21
-2.84541
0
LINE
8
BLACK
6
CONTINUOUS
10
6.24172
20
-2.84541
11
6.24089
21
-2.8445
0
LINE
8
BLACK
6
CONTINUOUS
10
6.24089
20
-2.8445
11
6.23561
21
-2.83869
0
LINE
8
BLACK
6
CONTINUOUS
10
6.23561
20
-2.83869
11
6.23561
21
-2.83869
0
LINE
8
BLACK
6
CONTINUOUS
10
6.23561
20
-2.83869
11
6.23547
21
-2.83854
0
LINE
8
BLACK
6
CONTINUOUS
10
6.23547
20
-2.83854
11
6.23531
21
-2.83842
0
LINE
8
BLACK
6
CONTINUOUS
10
6.23531
20
-2.83842
11
6.23531
21
-2.83842
0
LINE
8
BLACK
6
CONTINUOUS
10
6.23531
20
-2.83842
11
6.22835
21
-2.83292
0
LINE
8
BLACK
6
CONTINUOUS
10
6.22835
20
-2.83292
11
6.22835
21
-2.83292
0
LINE
8
BLACK
6
CONTINUOUS
10
6.22835
20
-2.83292
11
6.22819
21
-2.83279
0
LINE
8
BLACK
6
CONTINUOUS
10
6.22819
20
-2.83279
11
6.22006
21
-2.82831
0
LINE
8
BLACK
6
CONTINUOUS
10
6.22006
20
-2.82831
11
6.21987
21
-2.82824
0
LINE
8
BLACK
6
CONTINUOUS
10
6.21987
20
-2.82824
11
6.21987
21
-2.82824
0
LINE
8
BLACK
6
CONTINUOUS
10
6.21987
20
-2.82824
11
6.21151
21
-2.82528
0
LINE
8
BLACK
6
CONTINUOUS
10
6.21151
20
-2.82528
11
6.21151
21
-2.82528
0
LINE
8
BLACK
6
CONTINUOUS
10
6.21151
20
-2.82528
11
6.21132
21
-2.82521
0
LINE
8
BLACK
6
CONTINUOUS
10
6.21132
20
-2.82521
11
6.21112
21
-2.82517
0
LINE
8
BLACK
6
CONTINUOUS
10
6.21112
20
-2.82517
11
6.21112
21
-2.82517
0
LINE
8
BLACK
6
CONTINUOUS
10
6.21112
20
-2.82517
11
6.20238
21
-2.82362
0
LINE
8
BLACK
6
CONTINUOUS
10
6.20238
20
-2.82362
11
6.20238
21
-2.82362
0
LINE
8
BLACK
6
CONTINUOUS
10
6.20238
20
-2.82362
11
6.20218
21
-2.82358
0
LINE
8
BLACK
6
CONTINUOUS
10
6.20218
20
-2.82358
11
6.1986
21
-2.82354
0
LINE
8
BLACK
6
CONTINUOUS
10
6.1986
20
-2.82354
11
6.1931
21
-2.82347
0
LINE
8
BLACK
6
CONTINUOUS
10
6.1931
20
-2.82347
11
6.1931
21
-2.82347
0
LINE
8
BLACK
6
CONTINUOUS
10
6.1931
20
-2.82347
11
6.1929
21
-2.82347
0
LINE
8
BLACK
6
CONTINUOUS
10
6.1929
20
-2.82347
11
6.18373
21
-2.82487
0
LINE
8
BLACK
6
CONTINUOUS
10
6.18373
20
-2.82487
11
6.17491
21
-2.82776
0
LINE
8
BLACK
6
CONTINUOUS
10
6.17491
20
-2.82776
11
6.16667
21
-2.83204
0
LINE
8
BLACK
6
CONTINUOUS
10
6.16667
20
-2.83204
11
6.16651
21
-2.83216
0
LINE
8
BLACK
6
CONTINUOUS
10
6.16651
20
-2.83216
11
6.16651
21
-2.83216
0
LINE
8
BLACK
6
CONTINUOUS
10
6.16651
20
-2.83216
11
6.16548
21
-2.83293
0
LINE
8
BLACK
6
CONTINUOUS
10
6.16548
20
-2.83293
11
6.15925
21
-2.83761
0
LINE
8
BLACK
6
CONTINUOUS
10
6.15925
20
-2.83761
11
6.15284
21
-2.84432
0
LINE
8
BLACK
6
CONTINUOUS
10
6.15284
20
-2.84432
11
6.14761
21
-2.85199
0
LINE
8
BLACK
6
CONTINUOUS
10
6.14761
20
-2.85199
11
6.14752
21
-2.85217
0
LINE
8
BLACK
6
CONTINUOUS
10
6.14752
20
-2.85217
11
6.14752
21
-2.85217
0
LINE
8
BLACK
6
CONTINUOUS
10
6.14752
20
-2.85217
11
6.1453
21
-2.85696
0
LINE
8
BLACK
6
CONTINUOUS
10
6.1453
20
-2.85696
11
6.1437
21
-2.86041
0
LINE
8
BLACK
6
CONTINUOUS
10
6.1437
20
-2.86041
11
6.14122
21
-2.86935
0
LINE
8
BLACK
6
CONTINUOUS
10
6.14122
20
-2.86935
11
6.1412
21
-2.86955
0
LINE
8
BLACK
6
CONTINUOUS
10
6.1412
20
-2.86955
11
6.14052
21
-2.87593
0
LINE
8
BLACK
6
CONTINUOUS
10
6.14052
20
-2.87593
11
6.14041
21
-2.87693
0
LINE
8
BLACK
6
CONTINUOUS
10
6.14041
20
-2.87693
11
6.14041
21
-2.92948
0
LINE
8
BLACK
6
CONTINUOUS
10
6.14041
20
-2.92948
11
6.14042
21
-2.92958
0
LINE
8
BLACK
6
CONTINUOUS
10
6.14042
20
-2.92958
11
6.14042
21
-2.92958
0
LINE
8
BLACK
6
CONTINUOUS
10
6.14042
20
-2.92958
11
6.14096
21
-2.93617
0
LINE
8
BLACK
6
CONTINUOUS
10
6.14096
20
-2.93617
11
6.14096
21
-2.93617
0
LINE
8
BLACK
6
CONTINUOUS
10
6.14096
20
-2.93617
11
6.14098
21
-2.93638
0
LINE
8
BLACK
6
CONTINUOUS
10
6.14098
20
-2.93638
11
6.14324
21
-2.94538
0
LINE
8
BLACK
6
CONTINUOUS
10
6.14324
20
-2.94538
11
6.14694
21
-2.95389
0
LINE
8
BLACK
6
CONTINUOUS
10
6.14694
20
-2.95389
11
6.15198
21
-2.96168
0
LINE
8
BLACK
6
CONTINUOUS
10
6.15198
20
-2.96168
11
6.15212
21
-2.96183
0
LINE
8
BLACK
6
CONTINUOUS
10
6.15212
20
-2.96183
11
6.15212
21
-2.96183
0
LINE
8
BLACK
6
CONTINUOUS
10
6.15212
20
-2.96183
11
6.15808
21
-2.96838
0
LINE
8
BLACK
6
CONTINUOUS
10
6.15808
20
-2.96838
11
6.15823
21
-2.96854
0
LINE
8
BLACK
6
CONTINUOUS
10
6.15823
20
-2.96854
11
6.15839
21
-2.96867
0
LINE
8
BLACK
6
CONTINUOUS
10
6.15839
20
-2.96867
11
6.15839
21
-2.96867
0
LINE
8
BLACK
6
CONTINUOUS
10
6.15839
20
-2.96867
11
6.16535
21
-2.97417
0
LINE
8
BLACK
6
CONTINUOUS
10
6.16535
20
-2.97417
11
6.16535
21
-2.97417
0
LINE
8
BLACK
6
CONTINUOUS
10
6.16535
20
-2.97417
11
6.16551
21
-2.97429
0
LINE
8
BLACK
6
CONTINUOUS
10
6.16551
20
-2.97429
11
6.16627
21
-2.97471
0
LINE
8
BLACK
6
CONTINUOUS
10
6.16627
20
-2.97471
11
6.16823
21
-2.9767
0
LINE
8
BLACK
6
CONTINUOUS
10
6.16823
20
-2.9767
11
6.16883
21
-2.97905
0
LINE
8
BLACK
6
CONTINUOUS
10
6.16883
20
-2.97905
11
6.16883
21
-2.99571
0
LINE
8
BLACK
6
CONTINUOUS
10
6.16883
20
-2.99571
11
6.16882
21
-2.99604
0
LINE
8
BLACK
6
CONTINUOUS
10
6.16882
20
-2.99604
11
6.16871
21
-2.99768
0
LINE
8
BLACK
6
CONTINUOUS
10
6.16871
20
-2.99768
11
6.16866
21
-2.99833
0
LINE
8
BLACK
6
CONTINUOUS
10
6.16866
20
-2.99833
11
6.16871
21
-2.99862
0
LINE
8
BLACK
6
CONTINUOUS
10
6.16871
20
-2.99862
11
6.16871
21
-2.99862
0
LINE
8
BLACK
6
CONTINUOUS
10
6.16871
20
-2.99862
11
6.1691
21
-3.00082
0
LINE
8
BLACK
6
CONTINUOUS
10
6.1691
20
-3.00082
11
6.16914
21
-3.00108
0
LINE
8
BLACK
6
CONTINUOUS
10
6.16914
20
-3.00108
11
6.16944
21
-3.00358
0
LINE
8
BLACK
6
CONTINUOUS
10
6.16944
20
-3.00358
11
6.16955
21
-3.00386
0
LINE
8
BLACK
6
CONTINUOUS
10
6.16955
20
-3.00386
11
6.16957
21
-3.00395
0
LINE
8
BLACK
6
CONTINUOUS
10
6.16957
20
-3.00395
11
6.16975
21
-3.00463
0
LINE
8
BLACK
6
CONTINUOUS
10
6.16975
20
-3.00463
11
6.16978
21
-3.00471
0
LINE
8
BLACK
6
CONTINUOUS
10
6.16978
20
-3.00471
11
6.16983
21
-3.00501
0
LINE
8
BLACK
6
CONTINUOUS
10
6.16983
20
-3.00501
11
6.16995
21
-3.00528
0
LINE
8
BLACK
6
CONTINUOUS
10
6.16995
20
-3.00528
11
6.17085
21
-3.00732
0
LINE
8
BLACK
6
CONTINUOUS
10
6.17085
20
-3.00732
11
6.17094
21
-3.00756
0
LINE
8
BLACK
6
CONTINUOUS
10
6.17094
20
-3.00756
11
6.17184
21
-3.00993
0
LINE
8
BLACK
6
CONTINUOUS
10
6.17184
20
-3.00993
11
6.17201
21
-3.01017
0
LINE
8
BLACK
6
CONTINUOUS
10
6.17201
20
-3.01017
11
6.17205
21
-3.01026
0
LINE
8
BLACK
6
CONTINUOUS
10
6.17205
20
-3.01026
11
6.17239
21
-3.01086
0
LINE
8
BLACK
6
CONTINUOUS
10
6.17239
20
-3.01086
11
6.17244
21
-3.01094
0
LINE
8
BLACK
6
CONTINUOUS
10
6.17244
20
-3.01094
11
6.17256
21
-3.01122
0
LINE
8
BLACK
6
CONTINUOUS
10
6.17256
20
-3.01122
11
6.17274
21
-3.01146
0
LINE
8
BLACK
6
CONTINUOUS
10
6.17274
20
-3.01146
11
6.17274
21
-3.01146
0
LINE
8
BLACK
6
CONTINUOUS
10
6.17274
20
-3.01146
11
6.17409
21
-3.01322
0
LINE
8
BLACK
6
CONTINUOUS
10
6.17409
20
-3.01322
11
6.17425
21
-3.01343
0
LINE
8
BLACK
6
CONTINUOUS
10
6.17425
20
-3.01343
11
6.17551
21
-3.01527
0
LINE
8
BLACK
6
CONTINUOUS
10
6.17551
20
-3.01527
11
6.17551
21
-3.01527
0
LINE
8
BLACK
6
CONTINUOUS
10
6.17551
20
-3.01527
11
6.17568
21
-3.01552
0
LINE
8
BLACK
6
CONTINUOUS
10
6.17568
20
-3.01552
11
6.1759
21
-3.01572
0
LINE
8
BLACK
6
CONTINUOUS
10
6.1759
20
-3.01572
11
6.17752
21
-3.01716
0
LINE
8
BLACK
6
CONTINUOUS
10
6.17752
20
-3.01716
11
6.17773
21
-3.01735
0
LINE
8
BLACK
6
CONTINUOUS
10
6.17773
20
-3.01735
11
6.20687
21
-3.04649
0
LINE
8
BLACK
6
CONTINUOUS
10
6.20687
20
-3.04649
11
6.20821
21
-3.04895
0
LINE
8
BLACK
6
CONTINUOUS
10
6.20821
20
-3.04895
11
6.20801
21
-3.05173
0
LINE
8
BLACK
6
CONTINUOUS
10
6.20801
20
-3.05173
11
6.20687
21
-3.05351
0
LINE
8
BLACK
6
CONTINUOUS
10
6.20687
20
-3.05351
11
6.17785
21
-3.08253
0
LINE
8
BLACK
6
CONTINUOUS
10
6.17785
20
-3.08253
11
6.1776
21
-3.08276
0
LINE
8
BLACK
6
CONTINUOUS
10
6.1776
20
-3.08276
11
6.17587
21
-3.08426
0
LINE
8
BLACK
6
CONTINUOUS
10
6.17587
20
-3.08426
11
6.17476
21
-3.08585
0
LINE
8
BLACK
6
CONTINUOUS
10
6.17476
20
-3.08585
11
6.17442
21
-3.08633
0
LINE
8
BLACK
6
CONTINUOUS
10
6.17442
20
-3.08633
11
6.17427
21
-3.08654
0
LINE
8
BLACK
6
CONTINUOUS
10
6.17427
20
-3.08654
11
6.17289
21
-3.08829
0
LINE
8
BLACK
6
CONTINUOUS
10
6.17289
20
-3.08829
11
6.17289
21
-3.08829
0
LINE
8
BLACK
6
CONTINUOUS
10
6.17289
20
-3.08829
11
6.17271
21
-3.08853
0
LINE
8
BLACK
6
CONTINUOUS
10
6.17271
20
-3.08853
11
6.17258
21
-3.0888
0
LINE
8
BLACK
6
CONTINUOUS
10
6.17258
20
-3.0888
11
6.17254
21
-3.08888
0
LINE
8
BLACK
6
CONTINUOUS
10
6.17254
20
-3.08888
11
6.17219
21
-3.08948
0
LINE
8
BLACK
6
CONTINUOUS
10
6.17219
20
-3.08948
11
6.17215
21
-3.08957
0
LINE
8
BLACK
6
CONTINUOUS
10
6.17215
20
-3.08957
11
6.17198
21
-3.08981
0
LINE
8
BLACK
6
CONTINUOUS
10
6.17198
20
-3.08981
11
6.17187
21
-3.09009
0
LINE
8
BLACK
6
CONTINUOUS
10
6.17187
20
-3.09009
11
6.17187
21
-3.09009
0
LINE
8
BLACK
6
CONTINUOUS
10
6.17187
20
-3.09009
11
6.17106
21
-3.09217
0
LINE
8
BLACK
6
CONTINUOUS
10
6.17106
20
-3.09217
11
6.17096
21
-3.09241
0
LINE
8
BLACK
6
CONTINUOUS
10
6.17096
20
-3.09241
11
6.16992
21
-3.09471
0
LINE
8
BLACK
6
CONTINUOUS
10
6.16992
20
-3.09471
11
6.16986
21
-3.095
0
LINE
8
BLACK
6
CONTINUOUS
10
6.16986
20
-3.095
11
6.16983
21
-3.09509
0
LINE
8
BLACK
6
CONTINUOUS
10
6.16983
20
-3.09509
11
6.16964
21
-3.09576
0
LINE
8
BLACK
6
CONTINUOUS
10
6.16964
20
-3.09576
11
6.16962
21
-3.09585
0
LINE
8
BLACK
6
CONTINUOUS
10
6.16962
20
-3.09585
11
6.16951
21
-3.09613
0
LINE
8
BLACK
6
CONTINUOUS
10
6.16951
20
-3.09613
11
6.16947
21
-3.09643
0
LINE
8
BLACK
6
CONTINUOUS
10
6.16947
20
-3.09643
11
6.16947
21
-3.09643
0
LINE
8
BLACK
6
CONTINUOUS
10
6.16947
20
-3.09643
11
6.16918
21
-3.09864
0
LINE
8
BLACK
6
CONTINUOUS
10
6.16918
20
-3.09864
11
6.16914
21
-3.09889
0
LINE
8
BLACK
6
CONTINUOUS
10
6.16914
20
-3.09889
11
6.16886
21
-3.10043
0
LINE
8
BLACK
6
CONTINUOUS
10
6.16886
20
-3.10043
11
6.16868
21
-3.10138
0
LINE
8
BLACK
6
CONTINUOUS
10
6.16868
20
-3.10138
11
6.1687
21
-3.10168
0
LINE
8
BLACK
6
CONTINUOUS
10
6.1687
20
-3.10168
11
6.1687
21
-3.10168
0
LINE
8
BLACK
6
CONTINUOUS
10
6.1687
20
-3.10168
11
6.16882
21
-3.10384
0
LINE
8
BLACK
6
CONTINUOUS
10
6.16882
20
-3.10384
11
6.16883
21
-3.10412
0
LINE
8
BLACK
6
CONTINUOUS
10
6.16883
20
-3.10412
11
6.16883
21
-3.32009
0
LINE
8
BLACK
6
CONTINUOUS
10
6.16883
20
-3.32009
11
6.16804
21
-3.32277
0
LINE
8
BLACK
6
CONTINUOUS
10
6.16804
20
-3.32277
11
6.16666
21
-3.32414
0
LINE
8
BLACK
6
CONTINUOUS
10
6.16666
20
-3.32414
11
6.16667
21
-3.32417
0
LINE
8
BLACK
6
CONTINUOUS
10
6.16667
20
-3.32417
11
6.16651
21
-3.32429
0
LINE
8
BLACK
6
CONTINUOUS
10
6.16651
20
-3.32429
11
6.16651
21
-3.32429
0
LINE
8
BLACK
6
CONTINUOUS
10
6.16651
20
-3.32429
11
6.16548
21
-3.32506
0
LINE
8
BLACK
6
CONTINUOUS
10
6.16548
20
-3.32506
11
6.15925
21
-3.32974
0
LINE
8
BLACK
6
CONTINUOUS
10
6.15925
20
-3.32974
11
6.15284
21
-3.33645
0
LINE
8
BLACK
6
CONTINUOUS
10
6.15284
20
-3.33645
11
6.14761
21
-3.34411
0
LINE
8
BLACK
6
CONTINUOUS
10
6.14761
20
-3.34411
11
6.14752
21
-3.3443
0
LINE
8
BLACK
6
CONTINUOUS
10
6.14752
20
-3.3443
11
6.14752
21
-3.3443
0
LINE
8
BLACK
6
CONTINUOUS
10
6.14752
20
-3.3443
11
6.14696
21
-3.34552
0
LINE
8
BLACK
6
CONTINUOUS
10
6.14696
20
-3.34552
11
6.1437
21
-3.35253
0
LINE
8
BLACK
6
CONTINUOUS
10
6.1437
20
-3.35253
11
6.14122
21
-3.36148
0
LINE
8
BLACK
6
CONTINUOUS
10
6.14122
20
-3.36148
11
6.14041
21
-3.36905
0
LINE
8
BLACK
6
CONTINUOUS
10
6.14041
20
-3.36905
11
6.14041
21
-3.4216
0
LINE
8
BLACK
6
CONTINUOUS
10
6.14041
20
-3.4216
11
6.14042
21
-3.42171
0
LINE
8
BLACK
6
CONTINUOUS
10
6.14042
20
-3.42171
11
6.14042
21
-3.42171
0
LINE
8
BLACK
6
CONTINUOUS
10
5.142
20
-2.92958
11
5.14254
21
-2.93617
0
LINE
8
BLACK
6
CONTINUOUS
10
5.14254
20
-2.93617
11
5.14254
21
-2.93617
0
LINE
8
BLACK
6
CONTINUOUS
10
5.14254
20
-2.93617
11
5.14256
21
-2.93638
0
LINE
8
BLACK
6
CONTINUOUS
10
5.14256
20
-2.93638
11
5.14482
21
-2.94538
0
LINE
8
BLACK
6
CONTINUOUS
10
5.14482
20
-2.94538
11
5.14852
21
-2.95389
0
LINE
8
BLACK
6
CONTINUOUS
10
5.14852
20
-2.95389
11
5.15356
21
-2.96168
0
LINE
8
BLACK
6
CONTINUOUS
10
5.15356
20
-2.96168
11
5.15369
21
-2.96183
0
LINE
8
BLACK
6
CONTINUOUS
10
5.15369
20
-2.96183
11
5.15369
21
-2.96183
0
LINE
8
BLACK
6
CONTINUOUS
10
5.15369
20
-2.96183
11
5.15965
21
-2.96838
0
LINE
8
BLACK
6
CONTINUOUS
10
5.15965
20
-2.96838
11
5.1598
21
-2.96854
0
LINE
8
BLACK
6
CONTINUOUS
10
5.1598
20
-2.96854
11
5.15996
21
-2.96867
0
LINE
8
BLACK
6
CONTINUOUS
10
5.15996
20
-2.96867
11
5.15996
21
-2.96867
0
LINE
8
BLACK
6
CONTINUOUS
10
5.15996
20
-2.96867
11
5.16693
21
-2.97417
0
LINE
8
BLACK
6
CONTINUOUS
10
5.16693
20
-2.97417
11
5.16693
21
-2.97417
0
LINE
8
BLACK
6
CONTINUOUS
10
5.16693
20
-2.97417
11
5.16709
21
-2.97429
0
LINE
8
BLACK
6
CONTINUOUS
10
5.16709
20
-2.97429
11
5.16726
21
-2.97439
0
LINE
8
BLACK
6
CONTINUOUS
10
5.16726
20
-2.97439
11
5.16726
21
-2.97439
0
LINE
8
BLACK
6
CONTINUOUS
10
5.16726
20
-2.97439
11
5.16823
21
-2.97493
0
LINE
8
BLACK
6
CONTINUOUS
10
5.16823
20
-2.97493
11
5.17521
21
-2.97878
0
LINE
8
BLACK
6
CONTINUOUS
10
5.17521
20
-2.97878
11
5.1754
21
-2.97885
0
LINE
8
BLACK
6
CONTINUOUS
10
5.1754
20
-2.97885
11
5.1754
21
-2.97885
0
LINE
8
BLACK
6
CONTINUOUS
10
5.1754
20
-2.97885
11
5.18377
21
-2.98181
0
LINE
8
BLACK
6
CONTINUOUS
10
5.18377
20
-2.98181
11
5.18377
21
-2.98181
0
LINE
8
BLACK
6
CONTINUOUS
10
5.18377
20
-2.98181
11
5.18396
21
-2.98188
0
LINE
8
BLACK
6
CONTINUOUS
10
5.18396
20
-2.98188
11
5.18416
21
-2.98191
0
LINE
8
BLACK
6
CONTINUOUS
10
5.18416
20
-2.98191
11
5.18416
21
-2.98191
0
LINE
8
BLACK
6
CONTINUOUS
10
5.18416
20
-2.98191
11
5.1929
21
-2.98347
0
LINE
8
BLACK
6
CONTINUOUS
10
5.1929
20
-2.98347
11
5.1929
21
-2.98347
0
LINE
8
BLACK
6
CONTINUOUS
10
5.1929
20
-2.98347
11
5.1931
21
-2.98351
0
LINE
8
BLACK
6
CONTINUOUS
10
5.1931
20
-2.98351
11
5.19667
21
-2.98355
0
LINE
8
BLACK
6
CONTINUOUS
10
5.19667
20
-2.98355
11
5.20217
21
-2.98362
0
LINE
8
BLACK
6
CONTINUOUS
10
5.20217
20
-2.98362
11
5.20217
21
-2.98362
0
LINE
8
BLACK
6
CONTINUOUS
10
5.20217
20
-2.98362
11
5.20238
21
-2.98362
0
LINE
8
BLACK
6
CONTINUOUS
10
5.20238
20
-2.98362
11
5.21155
21
-2.98221
0
LINE
8
BLACK
6
CONTINUOUS
10
5.21155
20
-2.98221
11
5.22037
21
-2.97933
0
LINE
8
BLACK
6
CONTINUOUS
10
5.22037
20
-2.97933
11
5.2286
21
-2.97505
0
LINE
8
BLACK
6
CONTINUOUS
10
5.2286
20
-2.97505
11
5.22876
21
-2.97492
0
LINE
8
BLACK
6
CONTINUOUS
10
5.22876
20
-2.97492
11
5.22877
21
-2.97492
0
LINE
8
BLACK
6
CONTINUOUS
10
5.22877
20
-2.97492
11
5.23586
21
-2.9696
0
LINE
8
BLACK
6
CONTINUOUS
10
5.23586
20
-2.9696
11
5.23586
21
-2.9696
0
LINE
8
BLACK
6
CONTINUOUS
10
5.23586
20
-2.9696
11
5.23602
21
-2.96947
0
LINE
8
BLACK
6
CONTINUOUS
10
5.23602
20
-2.96947
11
5.24244
21
-2.96276
0
LINE
8
BLACK
6
CONTINUOUS
10
5.24244
20
-2.96276
11
5.24767
21
-2.9551
0
LINE
8
BLACK
6
CONTINUOUS
10
5.24767
20
-2.9551
11
5.24775
21
-2.95491
0
LINE
8
BLACK
6
CONTINUOUS
10
5.24775
20
-2.95491
11
5.25149
21
-2.94687
0
LINE
8
BLACK
6
CONTINUOUS
10
5.25149
20
-2.94687
11
5.25149
21
-2.94686
0
LINE
8
BLACK
6
CONTINUOUS
10
5.25149
20
-2.94686
11
5.25157
21
-2.94668
0
LINE
8
BLACK
6
CONTINUOUS
10
5.25157
20
-2.94668
11
5.25405
21
-2.93774
0
LINE
8
BLACK
6
CONTINUOUS
10
5.25405
20
-2.93774
11
5.25472
21
-2.93147
0
LINE
8
BLACK
6
CONTINUOUS
10
5.25472
20
-2.93147
11
5.25485
21
-2.93029
0
LINE
8
BLACK
6
CONTINUOUS
10
5.25485
20
-2.93029
11
5.25485
21
-2.93029
0
LINE
8
BLACK
6
CONTINUOUS
10
5.25485
20
-2.93029
11
5.25486
21
-2.93016
0
LINE
8
BLACK
6
CONTINUOUS
10
5.25486
20
-2.93016
11
5.25486
21
-2.87761
0
LINE
8
BLACK
6
CONTINUOUS
10
5.25486
20
-2.87761
11
5.25481
21
-2.87693
0
LINE
8
BLACK
6
CONTINUOUS
10
5.25481
20
-2.87693
11
5.25431
21
-2.87091
0
LINE
8
BLACK
6
CONTINUOUS
10
5.25431
20
-2.87091
11
5.25431
21
-2.87091
0
LINE
8
BLACK
6
CONTINUOUS
10
5.25431
20
-2.87091
11
5.2543
21
-2.87071
0
LINE
8
BLACK
6
CONTINUOUS
10
5.2543
20
-2.87071
11
5.25203
21
-2.86171
0
LINE
8
BLACK
6
CONTINUOUS
10
5.25203
20
-2.86171
11
5.24833
21
-2.8532
0
LINE
8
BLACK
6
CONTINUOUS
10
5.24833
20
-2.8532
11
5.24329
21
-2.84541
0
LINE
8
BLACK
6
CONTINUOUS
10
5.24329
20
-2.84541
11
5.24247
21
-2.8445
0
LINE
8
BLACK
6
CONTINUOUS
10
5.24247
20
-2.8445
11
5.23718
21
-2.83869
0
LINE
8
BLACK
6
CONTINUOUS
10
5.23718
20
-2.83869
11
5.23718
21
-2.83869
0
LINE
8
BLACK
6
CONTINUOUS
10
5.23718
20
-2.83869
11
5.23705
21
-2.83854
0
LINE
8
BLACK
6
CONTINUOUS
10
5.23705
20
-2.83854
11
5.23689
21
-2.83842
0
LINE
8
BLACK
6
CONTINUOUS
10
5.23689
20
-2.83842
11
5.23689
21
-2.83842
0
LINE
8
BLACK
6
CONTINUOUS
10
5.23689
20
-2.83842
11
5.22992
21
-2.83292
0
LINE
8
BLACK
6
CONTINUOUS
10
5.22992
20
-2.83292
11
5.22992
21
-2.83292
0
LINE
8
BLACK
6
CONTINUOUS
10
5.22992
20
-2.83292
11
5.22976
21
-2.83279
0
LINE
8
BLACK
6
CONTINUOUS
10
5.22976
20
-2.83279
11
5.22164
21
-2.82831
0
LINE
8
BLACK
6
CONTINUOUS
10
5.22164
20
-2.82831
11
5.22145
21
-2.82824
0
LINE
8
BLACK
6
CONTINUOUS
10
5.22145
20
-2.82824
11
5.22145
21
-2.82824
0
LINE
8
BLACK
6
CONTINUOUS
10
5.22145
20
-2.82824
11
5.21308
21
-2.82528
0
LINE
8
BLACK
6
CONTINUOUS
10
5.21308
20
-2.82528
11
5.21308
21
-2.82528
0
LINE
8
BLACK
6
CONTINUOUS
10
5.21308
20
-2.82528
11
5.21289
21
-2.82521
0
LINE
8
BLACK
6
CONTINUOUS
10
5.21289
20
-2.82521
11
5.21269
21
-2.82517
0
LINE
8
BLACK
6
CONTINUOUS
10
5.21269
20
-2.82517
11
5.21269
21
-2.82517
0
LINE
8
BLACK
6
CONTINUOUS
10
5.21269
20
-2.82517
11
5.20395
21
-2.82362
0
LINE
8
BLACK
6
CONTINUOUS
10
5.20395
20
-2.82362
11
5.20395
21
-2.82362
0
LINE
8
BLACK
6
CONTINUOUS
10
5.20395
20
-2.82362
11
5.20375
21
-2.82358
0
LINE
8
BLACK
6
CONTINUOUS
10
5.20375
20
-2.82358
11
5.20018
21
-2.82354
0
LINE
8
BLACK
6
CONTINUOUS
10
5.20018
20
-2.82354
11
5.19468
21
-2.82347
0
LINE
8
BLACK
6
CONTINUOUS
10
5.19468
20
-2.82347
11
5.19468
21
-2.82347
0
LINE
8
BLACK
6
CONTINUOUS
10
5.19468
20
-2.82347
11
5.19447
21
-2.82347
0
LINE
8
BLACK
6
CONTINUOUS
10
5.19447
20
-2.82347
11
5.1853
21
-2.82487
0
LINE
8
BLACK
6
CONTINUOUS
10
5.1853
20
-2.82487
11
5.17648
21
-2.82776
0
LINE
8
BLACK
6
CONTINUOUS
10
5.17648
20
-2.82776
11
5.16825
21
-2.83204
0
LINE
8
BLACK
6
CONTINUOUS
10
5.16825
20
-2.83204
11
5.16809
21
-2.83216
0
LINE
8
BLACK
6
CONTINUOUS
10
5.16809
20
-2.83216
11
5.16809
21
-2.83216
0
LINE
8
BLACK
6
CONTINUOUS
10
5.16809
20
-2.83216
11
5.16706
21
-2.83293
0
LINE
8
BLACK
6
CONTINUOUS
10
5.16706
20
-2.83293
11
5.16083
21
-2.83761
0
LINE
8
BLACK
6
CONTINUOUS
10
5.16083
20
-2.83761
11
5.15442
21
-2.84432
0
LINE
8
BLACK
6
CONTINUOUS
10
5.15442
20
-2.84432
11
5.14919
21
-2.85199
0
LINE
8
BLACK
6
CONTINUOUS
10
5.14919
20
-2.85199
11
5.1491
21
-2.85217
0
LINE
8
BLACK
6
CONTINUOUS
10
5.1491
20
-2.85217
11
5.1491
21
-2.85217
0
LINE
8
BLACK
6
CONTINUOUS
10
5.1491
20
-2.85217
11
5.14688
21
-2.85696
0
LINE
8
BLACK
6
CONTINUOUS
10
5.14688
20
-2.85696
11
5.14528
21
-2.86041
0
LINE
8
BLACK
6
CONTINUOUS
10
5.14528
20
-2.86041
11
5.1428
21
-2.86935
0
LINE
8
BLACK
6
CONTINUOUS
10
5.1428
20
-2.86935
11
5.14278
21
-2.86955
0
LINE
8
BLACK
6
CONTINUOUS
10
5.14278
20
-2.86955
11
5.14209
21
-2.87593
0
LINE
8
BLACK
6
CONTINUOUS
10
5.14209
20
-2.87593
11
5.14199
21
-2.87693
0
LINE
8
BLACK
6
CONTINUOUS
10
5.14199
20
-2.87693
11
5.14199
21
-2.92948
0
LINE
8
BLACK
6
CONTINUOUS
10
5.14199
20
-2.92948
11
5.142
21
-2.92958
0
LINE
8
BLACK
6
CONTINUOUS
10
5.142
20
-2.92958
11
5.142
21
-2.92958
0
LINE
8
BLACK
6
CONTINUOUS
10
7.47142
20
-2.82736
11
7.47149
21
-2.82752
0
LINE
8
BLACK
6
CONTINUOUS
10
7.47149
20
-2.82752
11
7.47579
21
-2.83761
0
LINE
8
BLACK
6
CONTINUOUS
10
7.47579
20
-2.83761
11
7.47586
21
-2.83777
0
LINE
8
BLACK
6
CONTINUOUS
10
7.47586
20
-2.83777
11
7.47633
21
-2.83855
0
LINE
8
BLACK
6
CONTINUOUS
10
7.47633
20
-2.83855
11
7.48043
21
-2.84541
0
LINE
8
BLACK
6
CONTINUOUS
10
7.48043
20
-2.84541
11
7.48168
21
-2.84749
0
LINE
8
BLACK
6
CONTINUOUS
10
7.48168
20
-2.84749
11
7.48875
21
-2.85632
0
LINE
8
BLACK
6
CONTINUOUS
10
7.48875
20
-2.85632
11
7.49696
21
-2.86411
0
LINE
8
BLACK
6
CONTINUOUS
10
7.49696
20
-2.86411
11
7.50615
21
-2.87072
0
LINE
8
BLACK
6
CONTINUOUS
10
7.50615
20
-2.87072
11
7.5063
21
-2.8708
0
LINE
8
BLACK
6
CONTINUOUS
10
7.5063
20
-2.8708
11
7.5063
21
-2.8708
0
LINE
8
BLACK
6
CONTINUOUS
10
7.5063
20
-2.8708
11
7.50716
21
-2.87125
0
LINE
8
BLACK
6
CONTINUOUS
10
7.50716
20
-2.87125
11
7.51616
21
-2.87601
0
LINE
8
BLACK
6
CONTINUOUS
10
7.51616
20
-2.87601
11
7.52679
21
-2.8799
0
LINE
8
BLACK
6
CONTINUOUS
10
7.52679
20
-2.8799
11
7.53785
21
-2.88231
0
LINE
8
BLACK
6
CONTINUOUS
10
7.53785
20
-2.88231
11
7.53897
21
-2.8824
0
LINE
8
BLACK
6
CONTINUOUS
10
7.53897
20
-2.8824
11
7.54663
21
-2.883
0
LINE
8
BLACK
6
CONTINUOUS
10
7.54663
20
-2.883
11
7.54663
21
-2.883
0
LINE
8
BLACK
6
CONTINUOUS
10
7.54663
20
-2.883
11
7.54672
21
-2.88301
0
LINE
8
BLACK
6
CONTINUOUS
10
7.54672
20
-2.88301
11
7.55285
21
-2.88301
0
LINE
8
BLACK
6
CONTINUOUS
10
7.55285
20
-2.88301
11
7.55293
21
-2.88301
0
LINE
8
BLACK
6
CONTINUOUS
10
7.55293
20
-2.88301
11
7.55293
21
-2.88301
0
LINE
8
BLACK
6
CONTINUOUS
10
7.55293
20
-2.88301
11
7.56112
21
-2.88245
0
LINE
8
BLACK
6
CONTINUOUS
10
7.56112
20
-2.88245
11
7.56112
21
-2.88245
0
LINE
8
BLACK
6
CONTINUOUS
10
7.56112
20
-2.88245
11
7.56129
21
-2.88244
0
LINE
8
BLACK
6
CONTINUOUS
10
7.56129
20
-2.88244
11
7.56146
21
-2.8824
0
LINE
8
BLACK
6
CONTINUOUS
10
7.56146
20
-2.8824
11
7.56146
21
-2.8824
0
LINE
8
BLACK
6
CONTINUOUS
10
7.56146
20
-2.8824
11
7.56683
21
-2.88129
0
LINE
8
BLACK
6
CONTINUOUS
10
7.56683
20
-2.88129
11
7.57238
21
-2.88014
0
LINE
8
BLACK
6
CONTINUOUS
10
7.57238
20
-2.88014
11
7.58305
21
-2.87636
0
LINE
8
BLACK
6
CONTINUOUS
10
7.58305
20
-2.87636
11
7.5931
21
-2.87117
0
LINE
8
BLACK
6
CONTINUOUS
10
7.5931
20
-2.87117
11
7.59324
21
-2.87107
0
LINE
8
BLACK
6
CONTINUOUS
10
7.59324
20
-2.87107
11
7.59324
21
-2.87107
0
LINE
8
BLACK
6
CONTINUOUS
10
7.59324
20
-2.87107
11
7.59773
21
-2.86792
0
LINE
8
BLACK
6
CONTINUOUS
10
7.59773
20
-2.86792
11
7.60236
21
-2.86466
0
LINE
8
BLACK
6
CONTINUOUS
10
7.60236
20
-2.86466
11
7.60574
21
-2.86152
0
LINE
8
BLACK
6
CONTINUOUS
10
7.60574
20
-2.86152
11
7.61053
21
-2.85707
0
LINE
8
BLACK
6
CONTINUOUS
10
7.61053
20
-2.85707
11
7.61053
21
-2.85707
0
LINE
8
BLACK
6
CONTINUOUS
10
7.61053
20
-2.85707
11
7.61065
21
-2.85696
0
LINE
8
BLACK
6
CONTINUOUS
10
7.61065
20
-2.85696
11
7.61782
21
-2.8482
0
LINE
8
BLACK
6
CONTINUOUS
10
7.61782
20
-2.8482
11
7.62374
21
-2.83855
0
LINE
8
BLACK
6
CONTINUOUS
10
7.62374
20
-2.83855
11
7.62415
21
-2.83761
0
LINE
8
BLACK
6
CONTINUOUS
10
7.62415
20
-2.83761
11
7.62822
21
-2.82834
0
LINE
8
BLACK
6
CONTINUOUS
10
7.62822
20
-2.82834
11
7.62829
21
-2.82818
0
LINE
8
BLACK
6
CONTINUOUS
10
7.62829
20
-2.82818
11
7.62912
21
-2.82528
0
LINE
8
BLACK
6
CONTINUOUS
10
7.62912
20
-2.82528
11
7.63134
21
-2.81746
0
LINE
8
BLACK
6
CONTINUOUS
10
7.63134
20
-2.81746
11
7.63139
21
-2.8173
0
LINE
8
BLACK
6
CONTINUOUS
10
7.63139
20
-2.8173
11
7.63298
21
-2.80609
0
LINE
8
BLACK
6
CONTINUOUS
10
7.63298
20
-2.80609
11
7.63299
21
-2.80539
0
LINE
8
BLACK
6
CONTINUOUS
10
7.63299
20
-2.80539
11
7.63304
21
-2.79494
0
LINE
8
BLACK
6
CONTINUOUS
10
7.63304
20
-2.79494
11
7.63304
21
-2.79494
0
LINE
8
BLACK
6
CONTINUOUS
10
7.63304
20
-2.79494
11
7.63304
21
-2.79478
0
LINE
8
BLACK
6
CONTINUOUS
10
7.63304
20
-2.79478
11
7.63156
21
-2.78355
0
LINE
8
BLACK
6
CONTINUOUS
10
7.63156
20
-2.78355
11
7.62858
21
-2.77264
0
LINE
8
BLACK
6
CONTINUOUS
10
7.62858
20
-2.77264
11
7.62414
21
-2.76223
0
LINE
8
BLACK
6
CONTINUOUS
10
7.62414
20
-2.76223
11
7.61832
21
-2.75251
0
LINE
8
BLACK
6
CONTINUOUS
10
7.61832
20
-2.75251
11
7.61125
21
-2.74368
0
LINE
8
BLACK
6
CONTINUOUS
10
7.61125
20
-2.74368
11
7.60304
21
-2.73589
0
LINE
8
BLACK
6
CONTINUOUS
10
7.60304
20
-2.73589
11
7.59385
21
-2.72928
0
LINE
8
BLACK
6
CONTINUOUS
10
7.59385
20
-2.72928
11
7.59299
21
-2.72883
0
LINE
8
BLACK
6
CONTINUOUS
10
7.59299
20
-2.72883
11
7.59207
21
-2.72835
0
LINE
8
BLACK
6
CONTINUOUS
10
7.59207
20
-2.72835
11
7.58384
21
-2.72399
0
LINE
8
BLACK
6
CONTINUOUS
10
7.58384
20
-2.72399
11
7.57321
21
-2.7201
0
LINE
8
BLACK
6
CONTINUOUS
10
7.57321
20
-2.7201
11
7.56215
21
-2.71769
0
LINE
8
BLACK
6
CONTINUOUS
10
7.56215
20
-2.71769
11
7.56093
21
-2.71759
0
LINE
8
BLACK
6
CONTINUOUS
10
7.56093
20
-2.71759
11
7.55337
21
-2.717
0
LINE
8
BLACK
6
CONTINUOUS
10
7.55337
20
-2.717
11
7.55337
21
-2.717
0
LINE
8
BLACK
6
CONTINUOUS
10
7.55337
20
-2.717
11
7.55328
21
-2.71699
0
LINE
8
BLACK
6
CONTINUOUS
10
7.55328
20
-2.71699
11
7.54715
21
-2.71699
0
LINE
8
BLACK
6
CONTINUOUS
10
7.54715
20
-2.71699
11
7.54707
21
-2.71699
0
LINE
8
BLACK
6
CONTINUOUS
10
7.54707
20
-2.71699
11
7.54707
21
-2.71699
0
LINE
8
BLACK
6
CONTINUOUS
10
7.54707
20
-2.71699
11
7.53888
21
-2.71755
0
LINE
8
BLACK
6
CONTINUOUS
10
7.53888
20
-2.71755
11
7.53888
21
-2.71755
0
LINE
8
BLACK
6
CONTINUOUS
10
7.53888
20
-2.71755
11
7.53871
21
-2.71756
0
LINE
8
BLACK
6
CONTINUOUS
10
7.53871
20
-2.71756
11
7.53854
21
-2.7176
0
LINE
8
BLACK
6
CONTINUOUS
10
7.53854
20
-2.7176
11
7.53854
21
-2.7176
0
LINE
8
BLACK
6
CONTINUOUS
10
7.53854
20
-2.7176
11
7.53317
21
-2.71871
0
LINE
8
BLACK
6
CONTINUOUS
10
7.53317
20
-2.71871
11
7.52762
21
-2.71986
0
LINE
8
BLACK
6
CONTINUOUS
10
7.52762
20
-2.71986
11
7.51695
21
-2.72364
0
LINE
8
BLACK
6
CONTINUOUS
10
7.51695
20
-2.72364
11
7.5069
21
-2.72883
0
LINE
8
BLACK
6
CONTINUOUS
10
7.5069
20
-2.72883
11
7.50676
21
-2.72893
0
LINE
8
BLACK
6
CONTINUOUS
10
7.50676
20
-2.72893
11
7.50676
21
-2.72893
0
LINE
8
BLACK
6
CONTINUOUS
10
7.50676
20
-2.72893
11
7.50636
21
-2.7292
0
LINE
8
BLACK
6
CONTINUOUS
10
7.50636
20
-2.7292
11
7.49764
21
-2.73534
0
LINE
8
BLACK
6
CONTINUOUS
10
7.49764
20
-2.73534
11
7.48935
21
-2.74304
0
LINE
8
BLACK
6
CONTINUOUS
10
7.48935
20
-2.74304
11
7.48218
21
-2.7518
0
LINE
8
BLACK
6
CONTINUOUS
10
7.48218
20
-2.7518
11
7.47626
21
-2.76145
0
LINE
8
BLACK
6
CONTINUOUS
10
7.47626
20
-2.76145
11
7.47171
21
-2.77182
0
LINE
8
BLACK
6
CONTINUOUS
10
7.47171
20
-2.77182
11
7.46861
21
-2.7827
0
LINE
8
BLACK
6
CONTINUOUS
10
7.46861
20
-2.7827
11
7.46702
21
-2.79391
0
LINE
8
BLACK
6
CONTINUOUS
10
7.46702
20
-2.79391
11
7.46702
21
-2.79407
0
LINE
8
BLACK
6
CONTINUOUS
10
7.46702
20
-2.79407
11
7.46702
21
-2.79408
0
LINE
8
BLACK
6
CONTINUOUS
10
7.46702
20
-2.79408
11
7.46696
21
-2.80506
0
LINE
8
BLACK
6
CONTINUOUS
10
7.46696
20
-2.80506
11
7.46696
21
-2.80522
0
LINE
8
BLACK
6
CONTINUOUS
10
7.46696
20
-2.80522
11
7.46844
21
-2.81645
0
LINE
8
BLACK
6
CONTINUOUS
10
7.46844
20
-2.81645
11
7.47142
21
-2.82736
0
LINE
8
BLACK
6
CONTINUOUS
10
5.68304
20
-2.79494
11
5.68304
21
-2.79478
0
LINE
8
BLACK
6
CONTINUOUS
10
5.68304
20
-2.79478
11
5.68156
21
-2.78355
0
LINE
8
BLACK
6
CONTINUOUS
10
5.68156
20
-2.78355
11
5.67858
21
-2.77264
0
LINE
8
BLACK
6
CONTINUOUS
10
5.67858
20
-2.77264
11
5.67414
21
-2.76223
0
LINE
8
BLACK
6
CONTINUOUS
10
5.67414
20
-2.76223
11
5.66832
21
-2.75251
0
LINE
8
BLACK
6
CONTINUOUS
10
5.66832
20
-2.75251
11
5.66125
21
-2.74368
0
LINE
8
BLACK
6
CONTINUOUS
10
5.66125
20
-2.74368
11
5.65304
21
-2.73589
0
LINE
8
BLACK
6
CONTINUOUS
10
5.65304
20
-2.73589
11
5.64385
21
-2.72928
0
LINE
8
BLACK
6
CONTINUOUS
10
5.64385
20
-2.72928
11
5.64299
21
-2.72883
0
LINE
8
BLACK
6
CONTINUOUS
10
5.64299
20
-2.72883
11
5.64207
21
-2.72835
0
LINE
8
BLACK
6
CONTINUOUS
10
5.64207
20
-2.72835
11
5.63384
21
-2.72399
0
LINE
8
BLACK
6
CONTINUOUS
10
5.63384
20
-2.72399
11
5.62321
21
-2.7201
0
LINE
8
BLACK
6
CONTINUOUS
10
5.62321
20
-2.7201
11
5.61215
21
-2.71769
0
LINE
8
BLACK
6
CONTINUOUS
10
5.61215
20
-2.71769
11
5.61093
21
-2.71759
0
LINE
8
BLACK
6
CONTINUOUS
10
5.61093
20
-2.71759
11
5.60337
21
-2.717
0
LINE
8
BLACK
6
CONTINUOUS
10
5.60337
20
-2.717
11
5.60337
21
-2.717
0
LINE
8
BLACK
6
CONTINUOUS
10
5.60337
20
-2.717
11
5.60328
21
-2.71699
0
LINE
8
BLACK
6
CONTINUOUS
10
5.60328
20
-2.71699
11
5.59715
21
-2.71699
0
LINE
8
BLACK
6
CONTINUOUS
10
5.59715
20
-2.71699
11
5.59707
21
-2.71699
0
LINE
8
BLACK
6
CONTINUOUS
10
5.59707
20
-2.71699
11
5.59707
21
-2.71699
0
LINE
8
BLACK
6
CONTINUOUS
10
5.59707
20
-2.71699
11
5.58888
21
-2.71755
0
LINE
8
BLACK
6
CONTINUOUS
10
5.58888
20
-2.71755
11
5.58888
21
-2.71755
0
LINE
8
BLACK
6
CONTINUOUS
10
5.58888
20
-2.71755
11
5.58871
21
-2.71756
0
LINE
8
BLACK
6
CONTINUOUS
10
5.58871
20
-2.71756
11
5.58854
21
-2.7176
0
LINE
8
BLACK
6
CONTINUOUS
10
5.58854
20
-2.7176
11
5.58854
21
-2.7176
0
LINE
8
BLACK
6
CONTINUOUS
10
5.58854
20
-2.7176
11
5.58317
21
-2.71871
0
LINE
8
BLACK
6
CONTINUOUS
10
5.58317
20
-2.71871
11
5.57762
21
-2.71986
0
LINE
8
BLACK
6
CONTINUOUS
10
5.57762
20
-2.71986
11
5.56696
21
-2.72364
0
LINE
8
BLACK
6
CONTINUOUS
10
5.56696
20
-2.72364
11
5.5569
21
-2.72883
0
LINE
8
BLACK
6
CONTINUOUS
10
5.5569
20
-2.72883
11
5.55676
21
-2.72893
0
LINE
8
BLACK
6
CONTINUOUS
10
5.55676
20
-2.72893
11
5.55676
21
-2.72893
0
LINE
8
BLACK
6
CONTINUOUS
10
5.55676
20
-2.72893
11
5.55636
21
-2.7292
0
LINE
8
BLACK
6
CONTINUOUS
10
5.55636
20
-2.7292
11
5.54764
21
-2.73534
0
LINE
8
BLACK
6
CONTINUOUS
10
5.54764
20
-2.73534
11
5.53935
21
-2.74304
0
LINE
8
BLACK
6
CONTINUOUS
10
5.53935
20
-2.74304
11
5.53218
21
-2.7518
0
LINE
8
BLACK
6
CONTINUOUS
10
5.53218
20
-2.7518
11
5.52626
21
-2.76145
0
LINE
8
BLACK
6
CONTINUOUS
10
5.52626
20
-2.76145
11
5.52171
21
-2.77182
0
LINE
8
BLACK
6
CONTINUOUS
10
5.52171
20
-2.77182
11
5.51861
21
-2.7827
0
LINE
8
BLACK
6
CONTINUOUS
10
5.51861
20
-2.7827
11
5.51702
21
-2.79391
0
LINE
8
BLACK
6
CONTINUOUS
10
5.51702
20
-2.79391
11
5.51702
21
-2.79407
0
LINE
8
BLACK
6
CONTINUOUS
10
5.51702
20
-2.79407
11
5.51702
21
-2.79408
0
LINE
8
BLACK
6
CONTINUOUS
10
5.51702
20
-2.79408
11
5.51696
21
-2.80506
0
LINE
8
BLACK
6
CONTINUOUS
10
5.51696
20
-2.80506
11
5.51696
21
-2.80522
0
LINE
8
BLACK
6
CONTINUOUS
10
5.51696
20
-2.80522
11
5.51844
21
-2.81645
0
LINE
8
BLACK
6
CONTINUOUS
10
5.51844
20
-2.81645
11
5.52142
21
-2.82736
0
LINE
8
BLACK
6
CONTINUOUS
10
5.52142
20
-2.82736
11
5.52149
21
-2.82752
0
LINE
8
BLACK
6
CONTINUOUS
10
5.52149
20
-2.82752
11
5.52579
21
-2.83761
0
LINE
8
BLACK
6
CONTINUOUS
10
5.52579
20
-2.83761
11
5.52586
21
-2.83777
0
LINE
8
BLACK
6
CONTINUOUS
10
5.52586
20
-2.83777
11
5.52633
21
-2.83855
0
LINE
8
BLACK
6
CONTINUOUS
10
5.52633
20
-2.83855
11
5.53043
21
-2.84541
0
LINE
8
BLACK
6
CONTINUOUS
10
5.53043
20
-2.84541
11
5.53168
21
-2.84749
0
LINE
8
BLACK
6
CONTINUOUS
10
5.53168
20
-2.84749
11
5.53875
21
-2.85632
0
LINE
8
BLACK
6
CONTINUOUS
10
5.53875
20
-2.85632
11
5.54696
21
-2.86411
0
LINE
8
BLACK
6
CONTINUOUS
10
5.54696
20
-2.86411
11
5.55615
21
-2.87072
0
LINE
8
BLACK
6
CONTINUOUS
10
5.55615
20
-2.87072
11
5.5563
21
-2.8708
0
LINE
8
BLACK
6
CONTINUOUS
10
5.5563
20
-2.8708
11
5.5563
21
-2.8708
0
LINE
8
BLACK
6
CONTINUOUS
10
5.5563
20
-2.8708
11
5.55716
21
-2.87125
0
LINE
8
BLACK
6
CONTINUOUS
10
5.55716
20
-2.87125
11
5.56616
21
-2.87601
0
LINE
8
BLACK
6
CONTINUOUS
10
5.56616
20
-2.87601
11
5.57679
21
-2.8799
0
LINE
8
BLACK
6
CONTINUOUS
10
5.57679
20
-2.8799
11
5.58785
21
-2.88231
0
LINE
8
BLACK
6
CONTINUOUS
10
5.58785
20
-2.88231
11
5.58897
21
-2.8824
0
LINE
8
BLACK
6
CONTINUOUS
10
5.58897
20
-2.8824
11
5.59663
21
-2.883
0
LINE
8
BLACK
6
CONTINUOUS
10
5.59663
20
-2.883
11
5.59663
21
-2.883
0
LINE
8
BLACK
6
CONTINUOUS
10
5.59663
20
-2.883
11
5.59672
21
-2.88301
0
LINE
8
BLACK
6
CONTINUOUS
10
5.59672
20
-2.88301
11
5.60285
21
-2.88301
0
LINE
8
BLACK
6
CONTINUOUS
10
5.60285
20
-2.88301
11
5.60293
21
-2.88301
0
LINE
8
BLACK
6
CONTINUOUS
10
5.60293
20
-2.88301
11
5.60293
21
-2.88301
0
LINE
8
BLACK
6
CONTINUOUS
10
5.60293
20
-2.88301
11
5.61112
21
-2.88245
0
LINE
8
BLACK
6
CONTINUOUS
10
5.61112
20
-2.88245
11
5.61112
21
-2.88245
0
LINE
8
BLACK
6
CONTINUOUS
10
5.61112
20
-2.88245
11
5.61129
21
-2.88244
0
LINE
8
BLACK
6
CONTINUOUS
10
5.61129
20
-2.88244
11
5.61146
21
-2.8824
0
LINE
8
BLACK
6
CONTINUOUS
10
5.61146
20
-2.8824
11
5.61146
21
-2.8824
0
LINE
8
BLACK
6
CONTINUOUS
10
5.61146
20
-2.8824
11
5.61683
21
-2.88129
0
LINE
8
BLACK
6
CONTINUOUS
10
5.61683
20
-2.88129
11
5.62238
21
-2.88014
0
LINE
8
BLACK
6
CONTINUOUS
10
5.62238
20
-2.88014
11
5.63305
21
-2.87636
0
LINE
8
BLACK
6
CONTINUOUS
10
5.63305
20
-2.87636
11
5.6431
21
-2.87117
0
LINE
8
BLACK
6
CONTINUOUS
10
5.6431
20
-2.87117
11
5.64324
21
-2.87107
0
LINE
8
BLACK
6
CONTINUOUS
10
5.64324
20
-2.87107
11
5.64324
21
-2.87107
0
LINE
8
BLACK
6
CONTINUOUS
10
5.64324
20
-2.87107
11
5.64773
21
-2.86792
0
LINE
8
BLACK
6
CONTINUOUS
10
5.64773
20
-2.86792
11
5.65236
21
-2.86466
0
LINE
8
BLACK
6
CONTINUOUS
10
5.65236
20
-2.86466
11
5.65574
21
-2.86152
0
LINE
8
BLACK
6
CONTINUOUS
10
5.65574
20
-2.86152
11
5.66053
21
-2.85707
0
LINE
8
BLACK
6
CONTINUOUS
10
5.66053
20
-2.85707
11
5.66053
21
-2.85707
0
LINE
8
BLACK
6
CONTINUOUS
10
5.66053
20
-2.85707
11
5.66065
21
-2.85696
0
LINE
8
BLACK
6
CONTINUOUS
10
5.66065
20
-2.85696
11
5.66782
21
-2.8482
0
LINE
8
BLACK
6
CONTINUOUS
10
5.66782
20
-2.8482
11
5.67374
21
-2.83855
0
LINE
8
BLACK
6
CONTINUOUS
10
5.67374
20
-2.83855
11
5.67415
21
-2.83761
0
LINE
8
BLACK
6
CONTINUOUS
10
5.67415
20
-2.83761
11
5.67822
21
-2.82834
0
LINE
8
BLACK
6
CONTINUOUS
10
5.67822
20
-2.82834
11
5.67829
21
-2.82818
0
LINE
8
BLACK
6
CONTINUOUS
10
5.67829
20
-2.82818
11
5.67912
21
-2.82528
0
LINE
8
BLACK
6
CONTINUOUS
10
5.67912
20
-2.82528
11
5.68134
21
-2.81746
0
LINE
8
BLACK
6
CONTINUOUS
10
5.68134
20
-2.81746
11
5.68139
21
-2.8173
0
LINE
8
BLACK
6
CONTINUOUS
10
5.68139
20
-2.8173
11
5.68298
21
-2.80609
0
LINE
8
BLACK
6
CONTINUOUS
10
5.68298
20
-2.80609
11
5.68299
21
-2.80539
0
LINE
8
BLACK
6
CONTINUOUS
10
5.68299
20
-2.80539
11
5.68299
21
-2.80522
0
LINE
8
BLACK
6
CONTINUOUS
10
5.68299
20
-2.80522
11
5.68304
21
-2.79494
0
LINE
8
BLACK
6
CONTINUOUS
10
5.68304
20
-2.79494
11
5.68304
21
-2.79494
0
LINE
8
BLACK
6
CONTINUOUS
10
7.20968
20
-2.84533
11
7.21663
21
-2.84842
0
LINE
8
BLACK
6
CONTINUOUS
10
7.21663
20
-2.84842
11
7.22279
21
-2.8529
0
LINE
8
BLACK
6
CONTINUOUS
10
7.22279
20
-2.8529
11
7.22789
21
-2.85856
0
LINE
8
BLACK
6
CONTINUOUS
10
7.22789
20
-2.85856
11
7.23169
21
-2.86515
0
LINE
8
BLACK
6
CONTINUOUS
10
7.23169
20
-2.86515
11
7.23405
21
-2.87239
0
LINE
8
BLACK
6
CONTINUOUS
10
7.23405
20
-2.87239
11
7.23484
21
-2.87996
0
LINE
8
BLACK
6
CONTINUOUS
10
7.23484
20
-2.87996
11
7.23484
21
-2.92713
0
LINE
8
BLACK
6
CONTINUOUS
10
7.23484
20
-2.92713
11
7.23405
21
-2.9347
0
LINE
8
BLACK
6
CONTINUOUS
10
7.23405
20
-2.9347
11
7.23169
21
-2.94194
0
LINE
8
BLACK
6
CONTINUOUS
10
7.23169
20
-2.94194
11
7.22789
21
-2.94853
0
LINE
8
BLACK
6
CONTINUOUS
10
7.22789
20
-2.94853
11
7.22279
21
-2.95419
0
LINE
8
BLACK
6
CONTINUOUS
10
7.22279
20
-2.95419
11
7.21663
21
-2.95866
0
LINE
8
BLACK
6
CONTINUOUS
10
7.21663
20
-2.95866
11
7.20968
21
-2.96176
0
LINE
8
BLACK
6
CONTINUOUS
10
7.20968
20
-2.96176
11
7.20643
21
-2.96245
0
LINE
8
BLACK
6
CONTINUOUS
10
7.20643
20
-2.96245
11
7.20643
21
-3.05159
0
LINE
8
BLACK
6
CONTINUOUS
10
7.20643
20
-3.05159
11
7.20613
21
-3.05289
0
LINE
8
BLACK
6
CONTINUOUS
10
7.20613
20
-3.05289
11
7.20598
21
-3.05422
0
LINE
8
BLACK
6
CONTINUOUS
10
7.20598
20
-3.05422
11
7.20573
21
-3.05461
0
LINE
8
BLACK
6
CONTINUOUS
10
7.20573
20
-3.05461
11
7.20563
21
-3.05506
0
LINE
8
BLACK
6
CONTINUOUS
10
7.20563
20
-3.05506
11
7.20479
21
-3.0561
0
LINE
8
BLACK
6
CONTINUOUS
10
7.20479
20
-3.0561
11
7.20408
21
-3.05723
0
LINE
8
BLACK
6
CONTINUOUS
10
7.20408
20
-3.05723
11
7.11131
21
-3.15
0
LINE
8
BLACK
6
CONTINUOUS
10
7.11131
20
-3.15
11
7.20567
21
-3.24435
0
LINE
8
BLACK
6
CONTINUOUS
10
7.20567
20
-3.24435
11
7.20614
21
-3.24511
0
LINE
8
BLACK
6
CONTINUOUS
10
7.20614
20
-3.24511
11
7.20678
21
-3.24575
0
LINE
8
BLACK
6
CONTINUOUS
10
7.20678
20
-3.24575
11
7.20708
21
-3.2466
0
LINE
8
BLACK
6
CONTINUOUS
10
7.20708
20
-3.2466
11
7.20756
21
-3.24737
0
LINE
8
BLACK
6
CONTINUOUS
10
7.20756
20
-3.24737
11
7.20765
21
-3.24826
0
LINE
8
BLACK
6
CONTINUOUS
10
7.20765
20
-3.24826
11
7.20795
21
-3.24911
0
LINE
8
BLACK
6
CONTINUOUS
10
7.20795
20
-3.24911
11
7.20785
21
-3.25001
0
LINE
8
BLACK
6
CONTINUOUS
10
7.20785
20
-3.25001
11
7.20795
21
-3.25091
0
LINE
8
BLACK
6
CONTINUOUS
10
7.20795
20
-3.25091
11
7.20765
21
-3.25175
0
LINE
8
BLACK
6
CONTINUOUS
10
7.20765
20
-3.25175
11
7.20755
21
-3.25264
0
LINE
8
BLACK
6
CONTINUOUS
10
7.20755
20
-3.25264
11
7.20707
21
-3.25341
0
LINE
8
BLACK
6
CONTINUOUS
10
7.20707
20
-3.25341
11
7.20677
21
-3.25426
0
LINE
8
BLACK
6
CONTINUOUS
10
7.20677
20
-3.25426
11
7.20643
21
-3.25461
0
LINE
8
BLACK
6
CONTINUOUS
10
7.20643
20
-3.25461
11
7.20643
21
-3.33676
0
LINE
8
BLACK
6
CONTINUOUS
10
7.20643
20
-3.33676
11
7.20968
21
-3.33745
0
LINE
8
BLACK
6
CONTINUOUS
10
7.20968
20
-3.33745
11
7.21663
21
-3.34055
0
LINE
8
BLACK
6
CONTINUOUS
10
7.21663
20
-3.34055
11
7.22279
21
-3.34502
0
LINE
8
BLACK
6
CONTINUOUS
10
7.22279
20
-3.34502
11
7.22789
21
-3.35068
0
LINE
8
BLACK
6
CONTINUOUS
10
7.22789
20
-3.35068
11
7.23169
21
-3.35727
0
LINE
8
BLACK
6
CONTINUOUS
10
7.23169
20
-3.35727
11
7.23405
21
-3.36452
0
LINE
8
BLACK
6
CONTINUOUS
10
7.23405
20
-3.36452
11
7.23484
21
-3.37209
0
LINE
8
BLACK
6
CONTINUOUS
10
7.23484
20
-3.37209
11
7.23484
21
-3.41925
0
LINE
8
BLACK
6
CONTINUOUS
10
7.23484
20
-3.41925
11
7.23405
21
-3.42682
0
LINE
8
BLACK
6
CONTINUOUS
10
7.23405
20
-3.42682
11
7.23169
21
-3.43406
0
LINE
8
BLACK
6
CONTINUOUS
10
7.23169
20
-3.43406
11
7.22789
21
-3.44066
0
LINE
8
BLACK
6
CONTINUOUS
10
7.22789
20
-3.44066
11
7.22279
21
-3.44632
0
LINE
8
BLACK
6
CONTINUOUS
10
7.22279
20
-3.44632
11
7.21663
21
-3.45079
0
LINE
8
BLACK
6
CONTINUOUS
10
7.21663
20
-3.45079
11
7.20968
21
-3.45389
0
LINE
8
BLACK
6
CONTINUOUS
10
7.20968
20
-3.45389
11
7.20223
21
-3.45547
0
LINE
8
BLACK
6
CONTINUOUS
10
7.20223
20
-3.45547
11
7.19462
21
-3.45547
0
LINE
8
BLACK
6
CONTINUOUS
10
7.19462
20
-3.45547
11
7.18717
21
-3.45389
0
LINE
8
BLACK
6
CONTINUOUS
10
7.18717
20
-3.45389
11
7.18022
21
-3.45079
0
LINE
8
BLACK
6
CONTINUOUS
10
7.18022
20
-3.45079
11
7.17406
21
-3.44632
0
LINE
8
BLACK
6
CONTINUOUS
10
7.17406
20
-3.44632
11
7.16896
21
-3.44066
0
LINE
8
BLACK
6
CONTINUOUS
10
7.16896
20
-3.44066
11
7.16516
21
-3.43406
0
LINE
8
BLACK
6
CONTINUOUS
10
7.16516
20
-3.43406
11
7.1628
21
-3.42682
0
LINE
8
BLACK
6
CONTINUOUS
10
7.1628
20
-3.42682
11
7.16201
21
-3.41925
0
LINE
8
BLACK
6
CONTINUOUS
10
7.16201
20
-3.41925
11
7.16201
21
-3.37209
0
LINE
8
BLACK
6
CONTINUOUS
10
7.16201
20
-3.37209
11
7.1628
21
-3.36452
0
LINE
8
BLACK
6
CONTINUOUS
10
7.1628
20
-3.36452
11
7.16516
21
-3.35727
0
LINE
8
BLACK
6
CONTINUOUS
10
7.16516
20
-3.35727
11
7.16896
21
-3.35068
0
LINE
8
BLACK
6
CONTINUOUS
10
7.16896
20
-3.35068
11
7.17406
21
-3.34502
0
LINE
8
BLACK
6
CONTINUOUS
10
7.17406
20
-3.34502
11
7.18022
21
-3.34055
0
LINE
8
BLACK
6
CONTINUOUS
10
7.18022
20
-3.34055
11
7.18717
21
-3.33745
0
LINE
8
BLACK
6
CONTINUOUS
10
7.18717
20
-3.33745
11
7.19043
21
-3.33676
0
LINE
8
BLACK
6
CONTINUOUS
10
7.19043
20
-3.33676
11
7.19043
21
-3.25174
0
LINE
8
BLACK
6
CONTINUOUS
10
7.19043
20
-3.25174
11
7.09669
21
-3.158
0
LINE
8
BLACK
6
CONTINUOUS
10
7.09669
20
-3.158
11
6.63239
21
-3.158
0
LINE
8
BLACK
6
CONTINUOUS
10
6.63239
20
-3.158
11
6.63057
21
-3.16361
0
LINE
8
BLACK
6
CONTINUOUS
10
6.63057
20
-3.16361
11
6.62707
21
-3.16967
0
LINE
8
BLACK
6
CONTINUOUS
10
6.62707
20
-3.16967
11
6.62239
21
-3.17487
0
LINE
8
BLACK
6
CONTINUOUS
10
6.62239
20
-3.17487
11
6.61673
21
-3.17898
0
LINE
8
BLACK
6
CONTINUOUS
10
6.61673
20
-3.17898
11
6.61034
21
-3.18183
0
LINE
8
BLACK
6
CONTINUOUS
10
6.61034
20
-3.18183
11
6.6035
21
-3.18328
0
LINE
8
BLACK
6
CONTINUOUS
10
6.6035
20
-3.18328
11
6.5965
21
-3.18328
0
LINE
8
BLACK
6
CONTINUOUS
10
6.5965
20
-3.18328
11
6.58966
21
-3.18183
0
LINE
8
BLACK
6
CONTINUOUS
10
6.58966
20
-3.18183
11
6.58327
21
-3.17898
0
LINE
8
BLACK
6
CONTINUOUS
10
6.58327
20
-3.17898
11
6.57761
21
-3.17487
0
LINE
8
BLACK
6
CONTINUOUS
10
6.57761
20
-3.17487
11
6.57293
21
-3.16967
0
LINE
8
BLACK
6
CONTINUOUS
10
6.57293
20
-3.16967
11
6.56943
21
-3.16361
0
LINE
8
BLACK
6
CONTINUOUS
10
6.56943
20
-3.16361
11
6.56727
21
-3.15696
0
LINE
8
BLACK
6
CONTINUOUS
10
6.56727
20
-3.15696
11
6.56654
21
-3.15
0
LINE
8
BLACK
6
CONTINUOUS
10
6.56654
20
-3.15
11
6.56727
21
-3.14304
0
LINE
8
BLACK
6
CONTINUOUS
10
6.56727
20
-3.14304
11
6.56943
21
-3.13639
0
LINE
8
BLACK
6
CONTINUOUS
10
6.56943
20
-3.13639
11
6.57293
21
-3.13033
0
LINE
8
BLACK
6
CONTINUOUS
10
6.57293
20
-3.13033
11
6.57761
21
-3.12513
0
LINE
8
BLACK
6
CONTINUOUS
10
6.57761
20
-3.12513
11
6.58327
21
-3.12102
0
LINE
8
BLACK
6
CONTINUOUS
10
6.58327
20
-3.12102
11
6.58966
21
-3.11817
0
LINE
8
BLACK
6
CONTINUOUS
10
6.58966
20
-3.11817
11
6.5965
21
-3.11672
0
LINE
8
BLACK
6
CONTINUOUS
10
6.5965
20
-3.11672
11
6.6035
21
-3.11672
0
LINE
8
BLACK
6
CONTINUOUS
10
6.6035
20
-3.11672
11
6.61034
21
-3.11817
0
LINE
8
BLACK
6
CONTINUOUS
10
6.61034
20
-3.11817
11
6.61673
21
-3.12102
0
LINE
8
BLACK
6
CONTINUOUS
10
6.61673
20
-3.12102
11
6.62239
21
-3.12513
0
LINE
8
BLACK
6
CONTINUOUS
10
6.62239
20
-3.12513
11
6.62707
21
-3.13033
0
LINE
8
BLACK
6
CONTINUOUS
10
6.62707
20
-3.13033
11
6.63057
21
-3.13639
0
LINE
8
BLACK
6
CONTINUOUS
10
6.63057
20
-3.13639
11
6.63239
21
-3.142
0
LINE
8
BLACK
6
CONTINUOUS
10
6.63239
20
-3.142
11
7.09669
21
-3.142
0
LINE
8
BLACK
6
CONTINUOUS
10
7.09669
20
-3.142
11
7.19043
21
-3.04826
0
LINE
8
BLACK
6
CONTINUOUS
10
7.19043
20
-3.04826
11
7.19043
21
-2.96245
0
LINE
8
BLACK
6
CONTINUOUS
10
7.19043
20
-2.96245
11
7.18717
21
-2.96176
0
LINE
8
BLACK
6
CONTINUOUS
10
7.18717
20
-2.96176
11
7.18022
21
-2.95866
0
LINE
8
BLACK
6
CONTINUOUS
10
7.18022
20
-2.95866
11
7.17406
21
-2.95419
0
LINE
8
BLACK
6
CONTINUOUS
10
7.17406
20
-2.95419
11
7.16896
21
-2.94853
0
LINE
8
BLACK
6
CONTINUOUS
10
7.16896
20
-2.94853
11
7.16516
21
-2.94194
0
LINE
8
BLACK
6
CONTINUOUS
10
7.16516
20
-2.94194
11
7.1628
21
-2.9347
0
LINE
8
BLACK
6
CONTINUOUS
10
7.1628
20
-2.9347
11
7.16201
21
-2.92713
0
LINE
8
BLACK
6
CONTINUOUS
10
7.16201
20
-2.92713
11
7.16201
21
-2.87996
0
LINE
8
BLACK
6
CONTINUOUS
10
7.16201
20
-2.87996
11
7.1628
21
-2.87239
0
LINE
8
BLACK
6
CONTINUOUS
10
7.1628
20
-2.87239
11
7.16516
21
-2.86515
0
LINE
8
BLACK
6
CONTINUOUS
10
7.16516
20
-2.86515
11
7.16896
21
-2.85856
0
LINE
8
BLACK
6
CONTINUOUS
10
7.16896
20
-2.85856
11
7.17406
21
-2.8529
0
LINE
8
BLACK
6
CONTINUOUS
10
7.17406
20
-2.8529
11
7.18022
21
-2.84842
0
LINE
8
BLACK
6
CONTINUOUS
10
7.18022
20
-2.84842
11
7.18717
21
-2.84533
0
LINE
8
BLACK
6
CONTINUOUS
10
7.18717
20
-2.84533
11
7.19462
21
-2.84374
0
LINE
8
BLACK
6
CONTINUOUS
10
7.19462
20
-2.84374
11
7.20223
21
-2.84374
0
LINE
8
BLACK
6
CONTINUOUS
10
7.20223
20
-2.84374
11
7.20968
21
-2.84533
0
LINE
8
BLACK
6
CONTINUOUS
10
5.20968
20
-3.33745
11
5.21663
21
-3.34055
0
LINE
8
BLACK
6
CONTINUOUS
10
5.21663
20
-3.34055
11
5.22279
21
-3.34502
0
LINE
8
BLACK
6
CONTINUOUS
10
5.22279
20
-3.34502
11
5.22789
21
-3.35068
0
LINE
8
BLACK
6
CONTINUOUS
10
5.22789
20
-3.35068
11
5.23169
21
-3.35727
0
LINE
8
BLACK
6
CONTINUOUS
10
5.23169
20
-3.35727
11
5.23405
21
-3.36452
0
LINE
8
BLACK
6
CONTINUOUS
10
5.23405
20
-3.36452
11
5.23484
21
-3.37209
0
LINE
8
BLACK
6
CONTINUOUS
10
5.23484
20
-3.37209
11
5.23484
21
-3.41925
0
LINE
8
BLACK
6
CONTINUOUS
10
5.23484
20
-3.41925
11
5.23405
21
-3.42682
0
LINE
8
BLACK
6
CONTINUOUS
10
5.23405
20
-3.42682
11
5.23169
21
-3.43406
0
LINE
8
BLACK
6
CONTINUOUS
10
5.23169
20
-3.43406
11
5.22789
21
-3.44066
0
LINE
8
BLACK
6
CONTINUOUS
10
5.22789
20
-3.44066
11
5.22279
21
-3.44632
0
LINE
8
BLACK
6
CONTINUOUS
10
5.22279
20
-3.44632
11
5.21663
21
-3.45079
0
LINE
8
BLACK
6
CONTINUOUS
10
5.21663
20
-3.45079
11
5.20968
21
-3.45389
0
LINE
8
BLACK
6
CONTINUOUS
10
5.20968
20
-3.45389
11
5.20223
21
-3.45547
0
LINE
8
BLACK
6
CONTINUOUS
10
5.20223
20
-3.45547
11
5.19462
21
-3.45547
0
LINE
8
BLACK
6
CONTINUOUS
10
5.19462
20
-3.45547
11
5.18717
21
-3.45389
0
LINE
8
BLACK
6
CONTINUOUS
10
5.18717
20
-3.45389
11
5.18022
21
-3.45079
0
LINE
8
BLACK
6
CONTINUOUS
10
5.18022
20
-3.45079
11
5.17406
21
-3.44632
0
LINE
8
BLACK
6
CONTINUOUS
10
5.17406
20
-3.44632
11
5.16896
21
-3.44066
0
LINE
8
BLACK
6
CONTINUOUS
10
5.16896
20
-3.44066
11
5.16516
21
-3.43406
0
LINE
8
BLACK
6
CONTINUOUS
10
5.16516
20
-3.43406
11
5.1628
21
-3.42682
0
LINE
8
BLACK
6
CONTINUOUS
10
5.1628
20
-3.42682
11
5.16201
21
-3.41925
0
LINE
8
BLACK
6
CONTINUOUS
10
5.16201
20
-3.41925
11
5.16201
21
-3.37209
0
LINE
8
BLACK
6
CONTINUOUS
10
5.16201
20
-3.37209
11
5.1628
21
-3.36452
0
LINE
8
BLACK
6
CONTINUOUS
10
5.1628
20
-3.36452
11
5.16516
21
-3.35727
0
LINE
8
BLACK
6
CONTINUOUS
10
5.16516
20
-3.35727
11
5.16896
21
-3.35068
0
LINE
8
BLACK
6
CONTINUOUS
10
5.16896
20
-3.35068
11
5.17406
21
-3.34502
0
LINE
8
BLACK
6
CONTINUOUS
10
5.17406
20
-3.34502
11
5.18022
21
-3.34055
0
LINE
8
BLACK
6
CONTINUOUS
10
5.18022
20
-3.34055
11
5.18717
21
-3.33745
0
LINE
8
BLACK
6
CONTINUOUS
10
5.18717
20
-3.33745
11
5.19462
21
-3.33587
0
LINE
8
BLACK
6
CONTINUOUS
10
5.19462
20
-3.33587
11
5.20223
21
-3.33587
0
LINE
8
BLACK
6
CONTINUOUS
10
5.20223
20
-3.33587
11
5.20968
21
-3.33745
0
LINE
8
BLACK
6
CONTINUOUS
10
6.2081
20
-2.84533
11
6.21506
21
-2.84842
0
LINE
8
BLACK
6
CONTINUOUS
10
6.21506
20
-2.84842
11
6.22122
21
-2.8529
0
LINE
8
BLACK
6
CONTINUOUS
10
6.22122
20
-2.8529
11
6.22631
21
-2.85856
0
LINE
8
BLACK
6
CONTINUOUS
10
6.22631
20
-2.85856
11
6.23012
21
-2.86515
0
LINE
8
BLACK
6
CONTINUOUS
10
6.23012
20
-2.86515
11
6.23247
21
-2.87239
0
LINE
8
BLACK
6
CONTINUOUS
10
6.23247
20
-2.87239
11
6.23327
21
-2.87996
0
LINE
8
BLACK
6
CONTINUOUS
10
6.23327
20
-2.87996
11
6.23327
21
-2.92713
0
LINE
8
BLACK
6
CONTINUOUS
10
6.23327
20
-2.92713
11
6.23247
21
-2.9347
0
LINE
8
BLACK
6
CONTINUOUS
10
6.23247
20
-2.9347
11
6.23012
21
-2.94194
0
LINE
8
BLACK
6
CONTINUOUS
10
6.23012
20
-2.94194
11
6.22631
21
-2.94853
0
LINE
8
BLACK
6
CONTINUOUS
10
6.22631
20
-2.94853
11
6.22122
21
-2.95419
0
LINE
8
BLACK
6
CONTINUOUS
10
6.22122
20
-2.95419
11
6.21506
21
-2.95866
0
LINE
8
BLACK
6
CONTINUOUS
10
6.21506
20
-2.95866
11
6.2081
21
-2.96176
0
LINE
8
BLACK
6
CONTINUOUS
10
6.2081
20
-2.96176
11
6.20485
21
-2.96245
0
LINE
8
BLACK
6
CONTINUOUS
10
6.20485
20
-2.96245
11
6.20485
21
-2.99354
0
LINE
8
BLACK
6
CONTINUOUS
10
6.20485
20
-2.99354
11
6.25331
21
-3.042
0
LINE
8
BLACK
6
CONTINUOUS
10
6.25331
20
-3.042
11
6.56761
21
-3.042
0
LINE
8
BLACK
6
CONTINUOUS
10
6.56761
20
-3.042
11
6.56943
21
-3.03639
0
LINE
8
BLACK
6
CONTINUOUS
10
6.56943
20
-3.03639
11
6.57293
21
-3.03033
0
LINE
8
BLACK
6
CONTINUOUS
10
6.57293
20
-3.03033
11
6.57761
21
-3.02513
0
LINE
8
BLACK
6
CONTINUOUS
10
6.57761
20
-3.02513
11
6.58327
21
-3.02102
0
LINE
8
BLACK
6
CONTINUOUS
10
6.58327
20
-3.02102
11
6.58966
21
-3.01817
0
LINE
8
BLACK
6
CONTINUOUS
10
6.58966
20
-3.01817
11
6.5965
21
-3.01672
0
LINE
8
BLACK
6
CONTINUOUS
10
6.5965
20
-3.01672
11
6.6035
21
-3.01672
0
LINE
8
BLACK
6
CONTINUOUS
10
6.6035
20
-3.01672
11
6.61034
21
-3.01817
0
LINE
8
BLACK
6
CONTINUOUS
10
6.61034
20
-3.01817
11
6.61673
21
-3.02102
0
LINE
8
BLACK
6
CONTINUOUS
10
6.61673
20
-3.02102
11
6.62239
21
-3.02513
0
LINE
8
BLACK
6
CONTINUOUS
10
6.62239
20
-3.02513
11
6.62707
21
-3.03033
0
LINE
8
BLACK
6
CONTINUOUS
10
6.62707
20
-3.03033
11
6.63057
21
-3.03639
0
LINE
8
BLACK
6
CONTINUOUS
10
6.63057
20
-3.03639
11
6.63273
21
-3.04304
0
LINE
8
BLACK
6
CONTINUOUS
10
6.63273
20
-3.04304
11
6.63346
21
-3.05
0
LINE
8
BLACK
6
CONTINUOUS
10
6.63346
20
-3.05
11
6.63273
21
-3.05696
0
LINE
8
BLACK
6
CONTINUOUS
10
6.63273
20
-3.05696
11
6.63057
21
-3.06361
0
LINE
8
BLACK
6
CONTINUOUS
10
6.63057
20
-3.06361
11
6.62707
21
-3.06967
0
LINE
8
BLACK
6
CONTINUOUS
10
6.62707
20
-3.06967
11
6.62239
21
-3.07487
0
LINE
8
BLACK
6
CONTINUOUS
10
6.62239
20
-3.07487
11
6.61673
21
-3.07898
0
LINE
8
BLACK
6
CONTINUOUS
10
6.61673
20
-3.07898
11
6.61034
21
-3.08183
0
LINE
8
BLACK
6
CONTINUOUS
10
6.61034
20
-3.08183
11
6.6035
21
-3.08328
0
LINE
8
BLACK
6
CONTINUOUS
10
6.6035
20
-3.08328
11
6.5965
21
-3.08328
0
LINE
8
BLACK
6
CONTINUOUS
10
6.5965
20
-3.08328
11
6.58966
21
-3.08183
0
LINE
8
BLACK
6
CONTINUOUS
10
6.58966
20
-3.08183
11
6.58327
21
-3.07898
0
LINE
8
BLACK
6
CONTINUOUS
10
6.58327
20
-3.07898
11
6.57761
21
-3.07487
0
LINE
8
BLACK
6
CONTINUOUS
10
6.57761
20
-3.07487
11
6.57293
21
-3.06967
0
LINE
8
BLACK
6
CONTINUOUS
10
6.57293
20
-3.06967
11
6.56943
21
-3.06361
0
LINE
8
BLACK
6
CONTINUOUS
10
6.56943
20
-3.06361
11
6.56761
21
-3.058
0
LINE
8
BLACK
6
CONTINUOUS
10
6.56761
20
-3.058
11
6.25331
21
-3.058
0
LINE
8
BLACK
6
CONTINUOUS
10
6.25331
20
-3.058
11
6.20485
21
-3.10646
0
LINE
8
BLACK
6
CONTINUOUS
10
6.20485
20
-3.10646
11
6.20485
21
-3.33676
0
LINE
8
BLACK
6
CONTINUOUS
10
6.20485
20
-3.33676
11
6.2081
21
-3.33745
0
LINE
8
BLACK
6
CONTINUOUS
10
6.2081
20
-3.33745
11
6.21506
21
-3.34055
0
LINE
8
BLACK
6
CONTINUOUS
10
6.21506
20
-3.34055
11
6.22122
21
-3.34502
0
LINE
8
BLACK
6
CONTINUOUS
10
6.22122
20
-3.34502
11
6.22631
21
-3.35068
0
LINE
8
BLACK
6
CONTINUOUS
10
6.22631
20
-3.35068
11
6.23012
21
-3.35727
0
LINE
8
BLACK
6
CONTINUOUS
10
6.23012
20
-3.35727
11
6.23247
21
-3.36452
0
LINE
8
BLACK
6
CONTINUOUS
10
6.23247
20
-3.36452
11
6.23327
21
-3.37209
0
LINE
8
BLACK
6
CONTINUOUS
10
6.23327
20
-3.37209
11
6.23327
21
-3.41925
0
LINE
8
BLACK
6
CONTINUOUS
10
6.23327
20
-3.41925
11
6.23247
21
-3.42682
0
LINE
8
BLACK
6
CONTINUOUS
10
6.23247
20
-3.42682
11
6.23012
21
-3.43406
0
LINE
8
BLACK
6
CONTINUOUS
10
6.23012
20
-3.43406
11
6.22631
21
-3.44066
0
LINE
8
BLACK
6
CONTINUOUS
10
6.22631
20
-3.44066
11
6.22122
21
-3.44632
0
LINE
8
BLACK
6
CONTINUOUS
10
6.22122
20
-3.44632
11
6.21506
21
-3.45079
0
LINE
8
BLACK
6
CONTINUOUS
10
6.21506
20
-3.45079
11
6.2081
21
-3.45389
0
LINE
8
BLACK
6
CONTINUOUS
10
6.2081
20
-3.45389
11
6.20066
21
-3.45547
0
LINE
8
BLACK
6
CONTINUOUS
10
6.20066
20
-3.45547
11
6.19304
21
-3.45547
0
LINE
8
BLACK
6
CONTINUOUS
10
6.19304
20
-3.45547
11
6.1856
21
-3.45389
0
LINE
8
BLACK
6
CONTINUOUS
10
6.1856
20
-3.45389
11
6.17864
21
-3.45079
0
LINE
8
BLACK
6
CONTINUOUS
10
6.17864
20
-3.45079
11
6.17248
21
-3.44632
0
LINE
8
BLACK
6
CONTINUOUS
10
6.17248
20
-3.44632
11
6.16739
21
-3.44066
0
LINE
8
BLACK
6
CONTINUOUS
10
6.16739
20
-3.44066
11
6.16358
21
-3.43406
0
LINE
8
BLACK
6
CONTINUOUS
10
6.16358
20
-3.43406
11
6.16123
21
-3.42682
0
LINE
8
BLACK
6
CONTINUOUS
10
6.16123
20
-3.42682
11
6.16043
21
-3.41925
0
LINE
8
BLACK
6
CONTINUOUS
10
6.16043
20
-3.41925
11
6.16043
21
-3.37209
0
LINE
8
BLACK
6
CONTINUOUS
10
6.16043
20
-3.37209
11
6.16123
21
-3.36452
0
LINE
8
BLACK
6
CONTINUOUS
10
6.16123
20
-3.36452
11
6.16358
21
-3.35727
0
LINE
8
BLACK
6
CONTINUOUS
10
6.16358
20
-3.35727
11
6.16739
21
-3.35068
0
LINE
8
BLACK
6
CONTINUOUS
10
6.16739
20
-3.35068
11
6.17248
21
-3.34502
0
LINE
8
BLACK
6
CONTINUOUS
10
6.17248
20
-3.34502
11
6.17864
21
-3.34055
0
LINE
8
BLACK
6
CONTINUOUS
10
6.17864
20
-3.34055
11
6.1856
21
-3.33745
0
LINE
8
BLACK
6
CONTINUOUS
10
6.1856
20
-3.33745
11
6.18885
21
-3.33676
0
LINE
8
BLACK
6
CONTINUOUS
10
6.18885
20
-3.33676
11
6.18885
21
-3.10314
0
LINE
8
BLACK
6
CONTINUOUS
10
6.18885
20
-3.10314
11
6.18915
21
-3.10183
0
LINE
8
BLACK
6
CONTINUOUS
10
6.18915
20
-3.10183
11
6.1893
21
-3.10051
0
LINE
8
BLACK
6
CONTINUOUS
10
6.1893
20
-3.10051
11
6.18954
21
-3.10012
0
LINE
8
BLACK
6
CONTINUOUS
10
6.18954
20
-3.10012
11
6.18965
21
-3.09967
0
LINE
8
BLACK
6
CONTINUOUS
10
6.18965
20
-3.09967
11
6.19048
21
-3.09862
0
LINE
8
BLACK
6
CONTINUOUS
10
6.19048
20
-3.09862
11
6.19119
21
-3.09749
0
LINE
8
BLACK
6
CONTINUOUS
10
6.19119
20
-3.09749
11
6.23869
21
-3.05
0
LINE
8
BLACK
6
CONTINUOUS
10
6.23869
20
-3.05
11
6.19118
21
-3.0025
0
LINE
8
BLACK
6
CONTINUOUS
10
6.19118
20
-3.0025
11
6.19047
21
-3.00136
0
LINE
8
BLACK
6
CONTINUOUS
10
6.19047
20
-3.00136
11
6.18964
21
-3.00032
0
LINE
8
BLACK
6
CONTINUOUS
10
6.18964
20
-3.00032
11
6.18954
21
-2.99987
0
LINE
8
BLACK
6
CONTINUOUS
10
6.18954
20
-2.99987
11
6.1893
21
-2.99948
0
LINE
8
BLACK
6
CONTINUOUS
10
6.1893
20
-2.99948
11
6.18915
21
-2.99815
0
LINE
8
BLACK
6
CONTINUOUS
10
6.18915
20
-2.99815
11
6.18885
21
-2.99685
0
LINE
8
BLACK
6
CONTINUOUS
10
6.18885
20
-2.99685
11
6.18885
21
-2.96245
0
LINE
8
BLACK
6
CONTINUOUS
10
6.18885
20
-2.96245
11
6.1856
21
-2.96176
0
LINE
8
BLACK
6
CONTINUOUS
10
6.1856
20
-2.96176
11
6.17864
21
-2.95866
0
LINE
8
BLACK
6
CONTINUOUS
10
6.17864
20
-2.95866
11
6.17248
21
-2.95419
0
LINE
8
BLACK
6
CONTINUOUS
10
6.17248
20
-2.95419
11
6.16739
21
-2.94853
0
LINE
8
BLACK
6
CONTINUOUS
10
6.16739
20
-2.94853
11
6.16358
21
-2.94194
0
LINE
8
BLACK
6
CONTINUOUS
10
6.16358
20
-2.94194
11
6.16123
21
-2.9347
0
LINE
8
BLACK
6
CONTINUOUS
10
6.16123
20
-2.9347
11
6.16043
21
-2.92713
0
LINE
8
BLACK
6
CONTINUOUS
10
6.16043
20
-2.92713
11
6.16043
21
-2.87996
0
LINE
8
BLACK
6
CONTINUOUS
10
6.16043
20
-2.87996
11
6.16123
21
-2.87239
0
LINE
8
BLACK
6
CONTINUOUS
10
6.16123
20
-2.87239
11
6.16358
21
-2.86515
0
LINE
8
BLACK
6
CONTINUOUS
10
6.16358
20
-2.86515
11
6.16739
21
-2.85856
0
LINE
8
BLACK
6
CONTINUOUS
10
6.16739
20
-2.85856
11
6.17248
21
-2.8529
0
LINE
8
BLACK
6
CONTINUOUS
10
6.17248
20
-2.8529
11
6.17864
21
-2.84842
0
LINE
8
BLACK
6
CONTINUOUS
10
6.17864
20
-2.84842
11
6.1856
21
-2.84533
0
LINE
8
BLACK
6
CONTINUOUS
10
6.1856
20
-2.84533
11
6.19304
21
-2.84374
0
LINE
8
BLACK
6
CONTINUOUS
10
6.19304
20
-2.84374
11
6.20066
21
-2.84374
0
LINE
8
BLACK
6
CONTINUOUS
10
6.20066
20
-2.84374
11
6.2081
21
-2.84533
0
LINE
8
BLACK
6
CONTINUOUS
10
5.20968
20
-2.84533
11
5.21663
21
-2.84842
0
LINE
8
BLACK
6
CONTINUOUS
10
5.21663
20
-2.84842
11
5.22279
21
-2.8529
0
LINE
8
BLACK
6
CONTINUOUS
10
5.22279
20
-2.8529
11
5.22789
21
-2.85856
0
LINE
8
BLACK
6
CONTINUOUS
10
5.22789
20
-2.85856
11
5.23169
21
-2.86515
0
LINE
8
BLACK
6
CONTINUOUS
10
5.23169
20
-2.86515
11
5.23405
21
-2.87239
0
LINE
8
BLACK
6
CONTINUOUS
10
5.23405
20
-2.87239
11
5.23484
21
-2.87996
0
LINE
8
BLACK
6
CONTINUOUS
10
5.23484
20
-2.87996
11
5.23484
21
-2.92713
0
LINE
8
BLACK
6
CONTINUOUS
10
5.23484
20
-2.92713
11
5.23405
21
-2.9347
0
LINE
8
BLACK
6
CONTINUOUS
10
5.23405
20
-2.9347
11
5.23169
21
-2.94194
0
LINE
8
BLACK
6
CONTINUOUS
10
5.23169
20
-2.94194
11
5.22789
21
-2.94853
0
LINE
8
BLACK
6
CONTINUOUS
10
5.22789
20
-2.94853
11
5.22279
21
-2.95419
0
LINE
8
BLACK
6
CONTINUOUS
10
5.22279
20
-2.95419
11
5.21663
21
-2.95866
0
LINE
8
BLACK
6
CONTINUOUS
10
5.21663
20
-2.95866
11
5.20968
21
-2.96176
0
LINE
8
BLACK
6
CONTINUOUS
10
5.20968
20
-2.96176
11
5.20223
21
-2.96334
0
LINE
8
BLACK
6
CONTINUOUS
10
5.20223
20
-2.96334
11
5.19462
21
-2.96334
0
LINE
8
BLACK
6
CONTINUOUS
10
5.19462
20
-2.96334
11
5.18717
21
-2.96176
0
LINE
8
BLACK
6
CONTINUOUS
10
5.18717
20
-2.96176
11
5.18022
21
-2.95866
0
LINE
8
BLACK
6
CONTINUOUS
10
5.18022
20
-2.95866
11
5.17406
21
-2.95419
0
LINE
8
BLACK
6
CONTINUOUS
10
5.17406
20
-2.95419
11
5.16896
21
-2.94853
0
LINE
8
BLACK
6
CONTINUOUS
10
5.16896
20
-2.94853
11
5.16516
21
-2.94194
0
LINE
8
BLACK
6
CONTINUOUS
10
5.16516
20
-2.94194
11
5.1628
21
-2.9347
0
LINE
8
BLACK
6
CONTINUOUS
10
5.1628
20
-2.9347
11
5.16201
21
-2.92713
0
LINE
8
BLACK
6
CONTINUOUS
10
5.16201
20
-2.92713
11
5.16201
21
-2.87996
0
LINE
8
BLACK
6
CONTINUOUS
10
5.16201
20
-2.87996
11
5.1628
21
-2.87239
0
LINE
8
BLACK
6
CONTINUOUS
10
5.1628
20
-2.87239
11
5.16516
21
-2.86515
0
LINE
8
BLACK
6
CONTINUOUS
10
5.16516
20
-2.86515
11
5.16896
21
-2.85856
0
LINE
8
BLACK
6
CONTINUOUS
10
5.16896
20
-2.85856
11
5.17406
21
-2.8529
0
LINE
8
BLACK
6
CONTINUOUS
10
5.17406
20
-2.8529
11
5.18022
21
-2.84842
0
LINE
8
BLACK
6
CONTINUOUS
10
5.18022
20
-2.84842
11
5.18717
21
-2.84533
0
LINE
8
BLACK
6
CONTINUOUS
10
5.18717
20
-2.84533
11
5.19462
21
-2.84374
0
LINE
8
BLACK
6
CONTINUOUS
10
5.19462
20
-2.84374
11
5.20223
21
-2.84374
0
LINE
8
BLACK
6
CONTINUOUS
10
5.20223
20
-2.84374
11
5.20968
21
-2.84533
0
LINE
8
BLACK
6
CONTINUOUS
10
6.61034
20
-2.91817
11
6.61673
21
-2.92102
0
LINE
8
BLACK
6
CONTINUOUS
10
6.61673
20
-2.92102
11
6.62239
21
-2.92513
0
LINE
8
BLACK
6
CONTINUOUS
10
6.62239
20
-2.92513
11
6.62707
21
-2.93033
0
LINE
8
BLACK
6
CONTINUOUS
10
6.62707
20
-2.93033
11
6.63057
21
-2.93639
0
LINE
8
BLACK
6
CONTINUOUS
10
6.63057
20
-2.93639
11
6.63273
21
-2.94304
0
LINE
8
BLACK
6
CONTINUOUS
10
6.63273
20
-2.94304
11
6.63346
21
-2.95
0
LINE
8
BLACK
6
CONTINUOUS
10
6.63346
20
-2.95
11
6.63273
21
-2.95696
0
LINE
8
BLACK
6
CONTINUOUS
10
6.63273
20
-2.95696
11
6.63057
21
-2.96361
0
LINE
8
BLACK
6
CONTINUOUS
10
6.63057
20
-2.96361
11
6.62707
21
-2.96967
0
LINE
8
BLACK
6
CONTINUOUS
10
6.62707
20
-2.96967
11
6.62239
21
-2.97487
0
LINE
8
BLACK
6
CONTINUOUS
10
6.62239
20
-2.97487
11
6.61673
21
-2.97898
0
LINE
8
BLACK
6
CONTINUOUS
10
6.61673
20
-2.97898
11
6.61034
21
-2.98183
0
LINE
8
BLACK
6
CONTINUOUS
10
6.61034
20
-2.98183
11
6.6035
21
-2.98328
0
LINE
8
BLACK
6
CONTINUOUS
10
6.6035
20
-2.98328
11
6.5965
21
-2.98328
0
LINE
8
BLACK
6
CONTINUOUS
10
6.5965
20
-2.98328
11
6.58966
21
-2.98183
0
LINE
8
BLACK
6
CONTINUOUS
10
6.58966
20
-2.98183
11
6.58327
21
-2.97898
0
LINE
8
BLACK
6
CONTINUOUS
10
6.58327
20
-2.97898
11
6.57761
21
-2.97487
0
LINE
8
BLACK
6
CONTINUOUS
10
6.57761
20
-2.97487
11
6.57293
21
-2.96967
0
LINE
8
BLACK
6
CONTINUOUS
10
6.57293
20
-2.96967
11
6.56943
21
-2.96361
0
LINE
8
BLACK
6
CONTINUOUS
10
6.56943
20
-2.96361
11
6.56727
21
-2.95696
0
LINE
8
BLACK
6
CONTINUOUS
10
6.56727
20
-2.95696
11
6.56654
21
-2.95
0
LINE
8
BLACK
6
CONTINUOUS
10
6.56654
20
-2.95
11
6.56727
21
-2.94304
0
LINE
8
BLACK
6
CONTINUOUS
10
6.56727
20
-2.94304
11
6.56943
21
-2.93639
0
LINE
8
BLACK
6
CONTINUOUS
10
6.56943
20
-2.93639
11
6.57293
21
-2.93033
0
LINE
8
BLACK
6
CONTINUOUS
10
6.57293
20
-2.93033
11
6.57761
21
-2.92513
0
LINE
8
BLACK
6
CONTINUOUS
10
6.57761
20
-2.92513
11
6.58327
21
-2.92102
0
LINE
8
BLACK
6
CONTINUOUS
10
6.58327
20
-2.92102
11
6.58966
21
-2.91817
0
LINE
8
BLACK
6
CONTINUOUS
10
6.58966
20
-2.91817
11
6.5965
21
-2.91672
0
LINE
8
BLACK
6
CONTINUOUS
10
6.5965
20
-2.91672
11
6.6035
21
-2.91672
0
LINE
8
BLACK
6
CONTINUOUS
10
6.6035
20
-2.91672
11
6.61034
21
-2.91817
  0
ENDSEC
  0
EOF
