%TF.GenerationSoftware,KiCad,Pcbnew,(6.0.2)*%
%TF.CreationDate,2022-03-25T16:36:57-07:00*%
%TF.ProjectId,buttons,62757474-6f6e-4732-9e6b-696361645f70,rev?*%
%TF.SameCoordinates,Original*%
%TF.FileFunction,Legend,Top*%
%TF.FilePolarity,Positive*%
%FSLAX46Y46*%
G04 Gerber Fmt 4.6, Leading zero omitted, Abs format (unit mm)*
G04 Created by KiCad (PCBNEW (6.0.2)) date 2022-03-25 16:36:57*
%MOMM*%
%LPD*%
G01*
G04 APERTURE LIST*
%ADD10C,0.150000*%
%ADD11C,0.120000*%
G04 APERTURE END LIST*
D10*
%TO.C,H4*%
X141478095Y-85152380D02*
X141478095Y-84152380D01*
X141478095Y-84628571D02*
X142049523Y-84628571D01*
X142049523Y-85152380D02*
X142049523Y-84152380D01*
X142954285Y-84485714D02*
X142954285Y-85152380D01*
X142716190Y-84104761D02*
X142478095Y-84819047D01*
X143097142Y-84819047D01*
%TO.C,SW1*%
X183070666Y-71016761D02*
X183213523Y-71064380D01*
X183451619Y-71064380D01*
X183546857Y-71016761D01*
X183594476Y-70969142D01*
X183642095Y-70873904D01*
X183642095Y-70778666D01*
X183594476Y-70683428D01*
X183546857Y-70635809D01*
X183451619Y-70588190D01*
X183261142Y-70540571D01*
X183165904Y-70492952D01*
X183118285Y-70445333D01*
X183070666Y-70350095D01*
X183070666Y-70254857D01*
X183118285Y-70159619D01*
X183165904Y-70112000D01*
X183261142Y-70064380D01*
X183499238Y-70064380D01*
X183642095Y-70112000D01*
X183975428Y-70064380D02*
X184213523Y-71064380D01*
X184404000Y-70350095D01*
X184594476Y-71064380D01*
X184832571Y-70064380D01*
X185737333Y-71064380D02*
X185165904Y-71064380D01*
X185451619Y-71064380D02*
X185451619Y-70064380D01*
X185356380Y-70207238D01*
X185261142Y-70302476D01*
X185165904Y-70350095D01*
%TO.C,SW3*%
X133032666Y-71524761D02*
X133175523Y-71572380D01*
X133413619Y-71572380D01*
X133508857Y-71524761D01*
X133556476Y-71477142D01*
X133604095Y-71381904D01*
X133604095Y-71286666D01*
X133556476Y-71191428D01*
X133508857Y-71143809D01*
X133413619Y-71096190D01*
X133223142Y-71048571D01*
X133127904Y-71000952D01*
X133080285Y-70953333D01*
X133032666Y-70858095D01*
X133032666Y-70762857D01*
X133080285Y-70667619D01*
X133127904Y-70620000D01*
X133223142Y-70572380D01*
X133461238Y-70572380D01*
X133604095Y-70620000D01*
X133937428Y-70572380D02*
X134175523Y-71572380D01*
X134366000Y-70858095D01*
X134556476Y-71572380D01*
X134794571Y-70572380D01*
X135080285Y-70572380D02*
X135699333Y-70572380D01*
X135366000Y-70953333D01*
X135508857Y-70953333D01*
X135604095Y-71000952D01*
X135651714Y-71048571D01*
X135699333Y-71143809D01*
X135699333Y-71381904D01*
X135651714Y-71477142D01*
X135604095Y-71524761D01*
X135508857Y-71572380D01*
X135223142Y-71572380D01*
X135127904Y-71524761D01*
X135080285Y-71477142D01*
%TO.C,H2*%
X191008095Y-85152380D02*
X191008095Y-84152380D01*
X191008095Y-84628571D02*
X191579523Y-84628571D01*
X191579523Y-85152380D02*
X191579523Y-84152380D01*
X192008095Y-84247619D02*
X192055714Y-84200000D01*
X192150952Y-84152380D01*
X192389047Y-84152380D01*
X192484285Y-84200000D01*
X192531904Y-84247619D01*
X192579523Y-84342857D01*
X192579523Y-84438095D01*
X192531904Y-84580952D01*
X191960476Y-85152380D01*
X192579523Y-85152380D01*
%TO.C,H1*%
X187247898Y-68774855D02*
X187247898Y-67774855D01*
X187247898Y-68251046D02*
X187819326Y-68251046D01*
X187819326Y-68774855D02*
X187819326Y-67774855D01*
X188819326Y-68774855D02*
X188247898Y-68774855D01*
X188533612Y-68774855D02*
X188533612Y-67774855D01*
X188438374Y-67917713D01*
X188343136Y-68012951D01*
X188247898Y-68060570D01*
%TO.C,SW2*%
X158432666Y-71270761D02*
X158575523Y-71318380D01*
X158813619Y-71318380D01*
X158908857Y-71270761D01*
X158956476Y-71223142D01*
X159004095Y-71127904D01*
X159004095Y-71032666D01*
X158956476Y-70937428D01*
X158908857Y-70889809D01*
X158813619Y-70842190D01*
X158623142Y-70794571D01*
X158527904Y-70746952D01*
X158480285Y-70699333D01*
X158432666Y-70604095D01*
X158432666Y-70508857D01*
X158480285Y-70413619D01*
X158527904Y-70366000D01*
X158623142Y-70318380D01*
X158861238Y-70318380D01*
X159004095Y-70366000D01*
X159337428Y-70318380D02*
X159575523Y-71318380D01*
X159766000Y-70604095D01*
X159956476Y-71318380D01*
X160194571Y-70318380D01*
X160527904Y-70413619D02*
X160575523Y-70366000D01*
X160670761Y-70318380D01*
X160908857Y-70318380D01*
X161004095Y-70366000D01*
X161051714Y-70413619D01*
X161099333Y-70508857D01*
X161099333Y-70604095D01*
X161051714Y-70746952D01*
X160480285Y-71318380D01*
X161099333Y-71318380D01*
%TO.C,H3*%
X137127240Y-69046842D02*
X137127240Y-68046842D01*
X137127240Y-68523033D02*
X137698668Y-68523033D01*
X137698668Y-69046842D02*
X137698668Y-68046842D01*
X138079621Y-68046842D02*
X138698668Y-68046842D01*
X138365335Y-68427795D01*
X138508192Y-68427795D01*
X138603430Y-68475414D01*
X138651049Y-68523033D01*
X138698668Y-68618271D01*
X138698668Y-68856366D01*
X138651049Y-68951604D01*
X138603430Y-68999223D01*
X138508192Y-69046842D01*
X138222478Y-69046842D01*
X138127240Y-68999223D01*
X138079621Y-68951604D01*
D11*
%TO.C,SW1*%
X174190000Y-73850000D02*
X176910000Y-73850000D01*
X183770000Y-73850000D02*
X186490000Y-73850000D01*
X181910000Y-86150000D02*
X178770000Y-86150000D01*
X186490000Y-86150000D02*
X183770000Y-86150000D01*
X178770000Y-73850000D02*
X181910000Y-73850000D01*
X174190000Y-86150000D02*
X174190000Y-73850000D01*
X176910000Y-86150000D02*
X174190000Y-86150000D01*
X186490000Y-73850000D02*
X186490000Y-86150000D01*
X184959050Y-79900000D02*
G75*
G03*
X184959050Y-79900000I-4579050J0D01*
G01*
%TO.C,SW3*%
X127970000Y-73850000D02*
X131110000Y-73850000D01*
X135690000Y-73850000D02*
X135690000Y-86150000D01*
X123390000Y-86150000D02*
X123390000Y-73850000D01*
X135690000Y-86150000D02*
X132970000Y-86150000D01*
X132970000Y-73850000D02*
X135690000Y-73850000D01*
X131110000Y-86150000D02*
X127970000Y-86150000D01*
X126110000Y-86150000D02*
X123390000Y-86150000D01*
X123390000Y-73850000D02*
X126110000Y-73850000D01*
X134159050Y-79900000D02*
G75*
G03*
X134159050Y-79900000I-4579050J0D01*
G01*
%TO.C,SW2*%
X161050000Y-86150000D02*
X158330000Y-86150000D01*
X161050000Y-73850000D02*
X161050000Y-86150000D01*
X148750000Y-86150000D02*
X148750000Y-73850000D01*
X158330000Y-73850000D02*
X161050000Y-73850000D01*
X148750000Y-73850000D02*
X151470000Y-73850000D01*
X153330000Y-73850000D02*
X156470000Y-73850000D01*
X156470000Y-86150000D02*
X153330000Y-86150000D01*
X151470000Y-86150000D02*
X148750000Y-86150000D01*
X159519050Y-79900000D02*
G75*
G03*
X159519050Y-79900000I-4579050J0D01*
G01*
%TD*%
M02*
