G04 #@! TF.GenerationSoftware,KiCad,Pcbnew,7.0.10*
G04 #@! TF.CreationDate,2024-03-26T16:12:50-07:00*
G04 #@! TF.ProjectId,optLowPass,6f70744c-6f77-4506-9173-732e6b696361,rev?*
G04 #@! TF.SameCoordinates,Original*
G04 #@! TF.FileFunction,Legend,Top*
G04 #@! TF.FilePolarity,Positive*
%FSLAX46Y46*%
G04 Gerber Fmt 4.6, Leading zero omitted, Abs format (unit mm)*
G04 Created by KiCad (PCBNEW 7.0.10) date 2024-03-26 16:12:50*
%MOMM*%
%LPD*%
G01*
G04 APERTURE LIST*
G04 Aperture macros list*
%AMRoundRect*
0 Rectangle with rounded corners*
0 $1 Rounding radius*
0 $2 $3 $4 $5 $6 $7 $8 $9 X,Y pos of 4 corners*
0 Add a 4 corners polygon primitive as box body*
4,1,4,$2,$3,$4,$5,$6,$7,$8,$9,$2,$3,0*
0 Add four circle primitives for the rounded corners*
1,1,$1+$1,$2,$3*
1,1,$1+$1,$4,$5*
1,1,$1+$1,$6,$7*
1,1,$1+$1,$8,$9*
0 Add four rect primitives between the rounded corners*
20,1,$1+$1,$2,$3,$4,$5,0*
20,1,$1+$1,$4,$5,$6,$7,0*
20,1,$1+$1,$6,$7,$8,$9,0*
20,1,$1+$1,$8,$9,$2,$3,0*%
G04 Aperture macros list end*
%ADD10C,0.150000*%
%ADD11C,0.300000*%
%ADD12C,0.120000*%
%ADD13C,1.600000*%
%ADD14R,2.200000X2.200000*%
%ADD15O,2.200000X2.200000*%
%ADD16RoundRect,0.150000X-0.587500X-0.150000X0.587500X-0.150000X0.587500X0.150000X-0.587500X0.150000X0*%
%ADD17RoundRect,0.237500X0.250000X0.237500X-0.250000X0.237500X-0.250000X-0.237500X0.250000X-0.237500X0*%
%ADD18R,1.700000X1.700000*%
%ADD19O,1.700000X1.700000*%
%ADD20R,1.400000X1.400000*%
%ADD21C,1.400000*%
%ADD22C,2.600000*%
%ADD23RoundRect,0.237500X0.300000X0.237500X-0.300000X0.237500X-0.300000X-0.237500X0.300000X-0.237500X0*%
%ADD24R,1.270000X3.600000*%
%ADD25R,1.350000X4.200000*%
G04 APERTURE END LIST*
D10*
X90847999Y-41536152D02*
X91228951Y-41536152D01*
X90990856Y-41202819D02*
X90990856Y-42059961D01*
X90990856Y-42059961D02*
X91038475Y-42155200D01*
X91038475Y-42155200D02*
X91133713Y-42202819D01*
X91133713Y-42202819D02*
X91228951Y-42202819D01*
X91705142Y-42202819D02*
X91609904Y-42155200D01*
X91609904Y-42155200D02*
X91562285Y-42107580D01*
X91562285Y-42107580D02*
X91514666Y-42012342D01*
X91514666Y-42012342D02*
X91514666Y-41726628D01*
X91514666Y-41726628D02*
X91562285Y-41631390D01*
X91562285Y-41631390D02*
X91609904Y-41583771D01*
X91609904Y-41583771D02*
X91705142Y-41536152D01*
X91705142Y-41536152D02*
X91847999Y-41536152D01*
X91847999Y-41536152D02*
X91943237Y-41583771D01*
X91943237Y-41583771D02*
X91990856Y-41631390D01*
X91990856Y-41631390D02*
X92038475Y-41726628D01*
X92038475Y-41726628D02*
X92038475Y-42012342D01*
X92038475Y-42012342D02*
X91990856Y-42107580D01*
X91990856Y-42107580D02*
X91943237Y-42155200D01*
X91943237Y-42155200D02*
X91847999Y-42202819D01*
X91847999Y-42202819D02*
X91705142Y-42202819D01*
X93657523Y-42202819D02*
X93657523Y-41679009D01*
X93657523Y-41679009D02*
X93609904Y-41583771D01*
X93609904Y-41583771D02*
X93514666Y-41536152D01*
X93514666Y-41536152D02*
X93324190Y-41536152D01*
X93324190Y-41536152D02*
X93228952Y-41583771D01*
X93657523Y-42155200D02*
X93562285Y-42202819D01*
X93562285Y-42202819D02*
X93324190Y-42202819D01*
X93324190Y-42202819D02*
X93228952Y-42155200D01*
X93228952Y-42155200D02*
X93181333Y-42059961D01*
X93181333Y-42059961D02*
X93181333Y-41964723D01*
X93181333Y-41964723D02*
X93228952Y-41869485D01*
X93228952Y-41869485D02*
X93324190Y-41821866D01*
X93324190Y-41821866D02*
X93562285Y-41821866D01*
X93562285Y-41821866D02*
X93657523Y-41774247D01*
X94133714Y-41536152D02*
X94133714Y-42202819D01*
X94133714Y-41631390D02*
X94181333Y-41583771D01*
X94181333Y-41583771D02*
X94276571Y-41536152D01*
X94276571Y-41536152D02*
X94419428Y-41536152D01*
X94419428Y-41536152D02*
X94514666Y-41583771D01*
X94514666Y-41583771D02*
X94562285Y-41679009D01*
X94562285Y-41679009D02*
X94562285Y-42202819D01*
X94895619Y-41536152D02*
X95276571Y-41536152D01*
X95038476Y-41202819D02*
X95038476Y-42059961D01*
X95038476Y-42059961D02*
X95086095Y-42155200D01*
X95086095Y-42155200D02*
X95181333Y-42202819D01*
X95181333Y-42202819D02*
X95276571Y-42202819D01*
X95990857Y-42155200D02*
X95895619Y-42202819D01*
X95895619Y-42202819D02*
X95705143Y-42202819D01*
X95705143Y-42202819D02*
X95609905Y-42155200D01*
X95609905Y-42155200D02*
X95562286Y-42059961D01*
X95562286Y-42059961D02*
X95562286Y-41679009D01*
X95562286Y-41679009D02*
X95609905Y-41583771D01*
X95609905Y-41583771D02*
X95705143Y-41536152D01*
X95705143Y-41536152D02*
X95895619Y-41536152D01*
X95895619Y-41536152D02*
X95990857Y-41583771D01*
X95990857Y-41583771D02*
X96038476Y-41679009D01*
X96038476Y-41679009D02*
X96038476Y-41774247D01*
X96038476Y-41774247D02*
X95562286Y-41869485D01*
X96467048Y-41536152D02*
X96467048Y-42202819D01*
X96467048Y-41631390D02*
X96514667Y-41583771D01*
X96514667Y-41583771D02*
X96609905Y-41536152D01*
X96609905Y-41536152D02*
X96752762Y-41536152D01*
X96752762Y-41536152D02*
X96848000Y-41583771D01*
X96848000Y-41583771D02*
X96895619Y-41679009D01*
X96895619Y-41679009D02*
X96895619Y-42202819D01*
X97371810Y-41536152D02*
X97371810Y-42202819D01*
X97371810Y-41631390D02*
X97419429Y-41583771D01*
X97419429Y-41583771D02*
X97514667Y-41536152D01*
X97514667Y-41536152D02*
X97657524Y-41536152D01*
X97657524Y-41536152D02*
X97752762Y-41583771D01*
X97752762Y-41583771D02*
X97800381Y-41679009D01*
X97800381Y-41679009D02*
X97800381Y-42202819D01*
X98705143Y-42202819D02*
X98705143Y-41679009D01*
X98705143Y-41679009D02*
X98657524Y-41583771D01*
X98657524Y-41583771D02*
X98562286Y-41536152D01*
X98562286Y-41536152D02*
X98371810Y-41536152D01*
X98371810Y-41536152D02*
X98276572Y-41583771D01*
X98705143Y-42155200D02*
X98609905Y-42202819D01*
X98609905Y-42202819D02*
X98371810Y-42202819D01*
X98371810Y-42202819D02*
X98276572Y-42155200D01*
X98276572Y-42155200D02*
X98228953Y-42059961D01*
X98228953Y-42059961D02*
X98228953Y-41964723D01*
X98228953Y-41964723D02*
X98276572Y-41869485D01*
X98276572Y-41869485D02*
X98371810Y-41821866D01*
X98371810Y-41821866D02*
X98609905Y-41821866D01*
X98609905Y-41821866D02*
X98705143Y-41774247D01*
D11*
X83700000Y-95821185D02*
X83771428Y-95749757D01*
X83771428Y-95749757D02*
X83914286Y-95678328D01*
X83914286Y-95678328D02*
X84271428Y-95678328D01*
X84271428Y-95678328D02*
X84414286Y-95749757D01*
X84414286Y-95749757D02*
X84485714Y-95821185D01*
X84485714Y-95821185D02*
X84557143Y-95964042D01*
X84557143Y-95964042D02*
X84557143Y-96106900D01*
X84557143Y-96106900D02*
X84485714Y-96321185D01*
X84485714Y-96321185D02*
X83628571Y-97178328D01*
X83628571Y-97178328D02*
X84557143Y-97178328D01*
X85485714Y-95678328D02*
X85628571Y-95678328D01*
X85628571Y-95678328D02*
X85771428Y-95749757D01*
X85771428Y-95749757D02*
X85842857Y-95821185D01*
X85842857Y-95821185D02*
X85914285Y-95964042D01*
X85914285Y-95964042D02*
X85985714Y-96249757D01*
X85985714Y-96249757D02*
X85985714Y-96606900D01*
X85985714Y-96606900D02*
X85914285Y-96892614D01*
X85914285Y-96892614D02*
X85842857Y-97035471D01*
X85842857Y-97035471D02*
X85771428Y-97106900D01*
X85771428Y-97106900D02*
X85628571Y-97178328D01*
X85628571Y-97178328D02*
X85485714Y-97178328D01*
X85485714Y-97178328D02*
X85342857Y-97106900D01*
X85342857Y-97106900D02*
X85271428Y-97035471D01*
X85271428Y-97035471D02*
X85199999Y-96892614D01*
X85199999Y-96892614D02*
X85128571Y-96606900D01*
X85128571Y-96606900D02*
X85128571Y-96249757D01*
X85128571Y-96249757D02*
X85199999Y-95964042D01*
X85199999Y-95964042D02*
X85271428Y-95821185D01*
X85271428Y-95821185D02*
X85342857Y-95749757D01*
X85342857Y-95749757D02*
X85485714Y-95678328D01*
X86628570Y-97178328D02*
X86628570Y-95678328D01*
X86628570Y-95678328D02*
X87128570Y-96749757D01*
X87128570Y-96749757D02*
X87628570Y-95678328D01*
X87628570Y-95678328D02*
X87628570Y-97178328D01*
X84557143Y-99778328D02*
X83700000Y-99778328D01*
X84128571Y-99778328D02*
X84128571Y-98278328D01*
X84128571Y-98278328D02*
X83985714Y-98492614D01*
X83985714Y-98492614D02*
X83842857Y-98635471D01*
X83842857Y-98635471D02*
X83700000Y-98706900D01*
X85057142Y-98278328D02*
X86057142Y-98278328D01*
X86057142Y-98278328D02*
X85414285Y-99778328D01*
X86628570Y-99778328D02*
X86628570Y-98278328D01*
X86628570Y-98278328D02*
X87128570Y-99349757D01*
X87128570Y-99349757D02*
X87628570Y-98278328D01*
X87628570Y-98278328D02*
X87628570Y-99778328D01*
X84457143Y-103649757D02*
X84314286Y-103578328D01*
X84314286Y-103578328D02*
X84100000Y-103578328D01*
X84100000Y-103578328D02*
X83885714Y-103649757D01*
X83885714Y-103649757D02*
X83742857Y-103792614D01*
X83742857Y-103792614D02*
X83671428Y-103935471D01*
X83671428Y-103935471D02*
X83600000Y-104221185D01*
X83600000Y-104221185D02*
X83600000Y-104435471D01*
X83600000Y-104435471D02*
X83671428Y-104721185D01*
X83671428Y-104721185D02*
X83742857Y-104864042D01*
X83742857Y-104864042D02*
X83885714Y-105006900D01*
X83885714Y-105006900D02*
X84100000Y-105078328D01*
X84100000Y-105078328D02*
X84242857Y-105078328D01*
X84242857Y-105078328D02*
X84457143Y-105006900D01*
X84457143Y-105006900D02*
X84528571Y-104935471D01*
X84528571Y-104935471D02*
X84528571Y-104435471D01*
X84528571Y-104435471D02*
X84242857Y-104435471D01*
X85171428Y-105078328D02*
X85171428Y-103578328D01*
X85171428Y-103578328D02*
X86028571Y-105078328D01*
X86028571Y-105078328D02*
X86028571Y-103578328D01*
X86742857Y-105078328D02*
X86742857Y-103578328D01*
X86742857Y-103578328D02*
X87100000Y-103578328D01*
X87100000Y-103578328D02*
X87314286Y-103649757D01*
X87314286Y-103649757D02*
X87457143Y-103792614D01*
X87457143Y-103792614D02*
X87528572Y-103935471D01*
X87528572Y-103935471D02*
X87600000Y-104221185D01*
X87600000Y-104221185D02*
X87600000Y-104435471D01*
X87600000Y-104435471D02*
X87528572Y-104721185D01*
X87528572Y-104721185D02*
X87457143Y-104864042D01*
X87457143Y-104864042D02*
X87314286Y-105006900D01*
X87314286Y-105006900D02*
X87100000Y-105078328D01*
X87100000Y-105078328D02*
X86742857Y-105078328D01*
D10*
X109186779Y-42399819D02*
X109186779Y-41399819D01*
X109186779Y-41399819D02*
X109758207Y-42399819D01*
X109758207Y-42399819D02*
X109758207Y-41399819D01*
X110139160Y-41399819D02*
X110805826Y-41399819D01*
X110805826Y-41399819D02*
X110377255Y-42399819D01*
X111091541Y-41399819D02*
X111329636Y-42399819D01*
X111329636Y-42399819D02*
X111520112Y-41685533D01*
X111520112Y-41685533D02*
X111710588Y-42399819D01*
X111710588Y-42399819D02*
X111948684Y-41399819D01*
X112329636Y-42399819D02*
X112329636Y-41399819D01*
X112329636Y-41399819D02*
X112662969Y-42114104D01*
X112662969Y-42114104D02*
X112996302Y-41399819D01*
X112996302Y-41399819D02*
X112996302Y-42399819D01*
X113472493Y-42399819D02*
X113472493Y-41399819D01*
X113472493Y-41399819D02*
X114043921Y-42399819D01*
X114043921Y-42399819D02*
X114043921Y-41399819D01*
X115472493Y-41399819D02*
X115662969Y-41399819D01*
X115662969Y-41399819D02*
X115758207Y-41447438D01*
X115758207Y-41447438D02*
X115853445Y-41542676D01*
X115853445Y-41542676D02*
X115901064Y-41733152D01*
X115901064Y-41733152D02*
X115901064Y-42066485D01*
X115901064Y-42066485D02*
X115853445Y-42256961D01*
X115853445Y-42256961D02*
X115758207Y-42352200D01*
X115758207Y-42352200D02*
X115662969Y-42399819D01*
X115662969Y-42399819D02*
X115472493Y-42399819D01*
X115472493Y-42399819D02*
X115377255Y-42352200D01*
X115377255Y-42352200D02*
X115282017Y-42256961D01*
X115282017Y-42256961D02*
X115234398Y-42066485D01*
X115234398Y-42066485D02*
X115234398Y-41733152D01*
X115234398Y-41733152D02*
X115282017Y-41542676D01*
X115282017Y-41542676D02*
X115377255Y-41447438D01*
X115377255Y-41447438D02*
X115472493Y-41399819D01*
X116329636Y-41733152D02*
X116329636Y-42733152D01*
X116329636Y-41780771D02*
X116424874Y-41733152D01*
X116424874Y-41733152D02*
X116615350Y-41733152D01*
X116615350Y-41733152D02*
X116710588Y-41780771D01*
X116710588Y-41780771D02*
X116758207Y-41828390D01*
X116758207Y-41828390D02*
X116805826Y-41923628D01*
X116805826Y-41923628D02*
X116805826Y-42209342D01*
X116805826Y-42209342D02*
X116758207Y-42304580D01*
X116758207Y-42304580D02*
X116710588Y-42352200D01*
X116710588Y-42352200D02*
X116615350Y-42399819D01*
X116615350Y-42399819D02*
X116424874Y-42399819D01*
X116424874Y-42399819D02*
X116329636Y-42352200D01*
X117091541Y-41733152D02*
X117472493Y-41733152D01*
X117234398Y-41399819D02*
X117234398Y-42256961D01*
X117234398Y-42256961D02*
X117282017Y-42352200D01*
X117282017Y-42352200D02*
X117377255Y-42399819D01*
X117377255Y-42399819D02*
X117472493Y-42399819D01*
X118282017Y-42399819D02*
X117805827Y-42399819D01*
X117805827Y-42399819D02*
X117805827Y-41399819D01*
X118758208Y-42399819D02*
X118662970Y-42352200D01*
X118662970Y-42352200D02*
X118615351Y-42304580D01*
X118615351Y-42304580D02*
X118567732Y-42209342D01*
X118567732Y-42209342D02*
X118567732Y-41923628D01*
X118567732Y-41923628D02*
X118615351Y-41828390D01*
X118615351Y-41828390D02*
X118662970Y-41780771D01*
X118662970Y-41780771D02*
X118758208Y-41733152D01*
X118758208Y-41733152D02*
X118901065Y-41733152D01*
X118901065Y-41733152D02*
X118996303Y-41780771D01*
X118996303Y-41780771D02*
X119043922Y-41828390D01*
X119043922Y-41828390D02*
X119091541Y-41923628D01*
X119091541Y-41923628D02*
X119091541Y-42209342D01*
X119091541Y-42209342D02*
X119043922Y-42304580D01*
X119043922Y-42304580D02*
X118996303Y-42352200D01*
X118996303Y-42352200D02*
X118901065Y-42399819D01*
X118901065Y-42399819D02*
X118758208Y-42399819D01*
X119424875Y-41733152D02*
X119615351Y-42399819D01*
X119615351Y-42399819D02*
X119805827Y-41923628D01*
X119805827Y-41923628D02*
X119996303Y-42399819D01*
X119996303Y-42399819D02*
X120186779Y-41733152D01*
X120567732Y-42399819D02*
X120567732Y-41399819D01*
X120567732Y-41399819D02*
X120948684Y-41399819D01*
X120948684Y-41399819D02*
X121043922Y-41447438D01*
X121043922Y-41447438D02*
X121091541Y-41495057D01*
X121091541Y-41495057D02*
X121139160Y-41590295D01*
X121139160Y-41590295D02*
X121139160Y-41733152D01*
X121139160Y-41733152D02*
X121091541Y-41828390D01*
X121091541Y-41828390D02*
X121043922Y-41876009D01*
X121043922Y-41876009D02*
X120948684Y-41923628D01*
X120948684Y-41923628D02*
X120567732Y-41923628D01*
X121996303Y-42399819D02*
X121996303Y-41876009D01*
X121996303Y-41876009D02*
X121948684Y-41780771D01*
X121948684Y-41780771D02*
X121853446Y-41733152D01*
X121853446Y-41733152D02*
X121662970Y-41733152D01*
X121662970Y-41733152D02*
X121567732Y-41780771D01*
X121996303Y-42352200D02*
X121901065Y-42399819D01*
X121901065Y-42399819D02*
X121662970Y-42399819D01*
X121662970Y-42399819D02*
X121567732Y-42352200D01*
X121567732Y-42352200D02*
X121520113Y-42256961D01*
X121520113Y-42256961D02*
X121520113Y-42161723D01*
X121520113Y-42161723D02*
X121567732Y-42066485D01*
X121567732Y-42066485D02*
X121662970Y-42018866D01*
X121662970Y-42018866D02*
X121901065Y-42018866D01*
X121901065Y-42018866D02*
X121996303Y-41971247D01*
X122424875Y-42352200D02*
X122520113Y-42399819D01*
X122520113Y-42399819D02*
X122710589Y-42399819D01*
X122710589Y-42399819D02*
X122805827Y-42352200D01*
X122805827Y-42352200D02*
X122853446Y-42256961D01*
X122853446Y-42256961D02*
X122853446Y-42209342D01*
X122853446Y-42209342D02*
X122805827Y-42114104D01*
X122805827Y-42114104D02*
X122710589Y-42066485D01*
X122710589Y-42066485D02*
X122567732Y-42066485D01*
X122567732Y-42066485D02*
X122472494Y-42018866D01*
X122472494Y-42018866D02*
X122424875Y-41923628D01*
X122424875Y-41923628D02*
X122424875Y-41876009D01*
X122424875Y-41876009D02*
X122472494Y-41780771D01*
X122472494Y-41780771D02*
X122567732Y-41733152D01*
X122567732Y-41733152D02*
X122710589Y-41733152D01*
X122710589Y-41733152D02*
X122805827Y-41780771D01*
X123234399Y-42352200D02*
X123329637Y-42399819D01*
X123329637Y-42399819D02*
X123520113Y-42399819D01*
X123520113Y-42399819D02*
X123615351Y-42352200D01*
X123615351Y-42352200D02*
X123662970Y-42256961D01*
X123662970Y-42256961D02*
X123662970Y-42209342D01*
X123662970Y-42209342D02*
X123615351Y-42114104D01*
X123615351Y-42114104D02*
X123520113Y-42066485D01*
X123520113Y-42066485D02*
X123377256Y-42066485D01*
X123377256Y-42066485D02*
X123282018Y-42018866D01*
X123282018Y-42018866D02*
X123234399Y-41923628D01*
X123234399Y-41923628D02*
X123234399Y-41876009D01*
X123234399Y-41876009D02*
X123282018Y-41780771D01*
X123282018Y-41780771D02*
X123377256Y-41733152D01*
X123377256Y-41733152D02*
X123520113Y-41733152D01*
X123520113Y-41733152D02*
X123615351Y-41780771D01*
X125329637Y-42399819D02*
X124853447Y-42399819D01*
X124853447Y-42399819D02*
X124853447Y-41399819D01*
X125662971Y-42399819D02*
X125662971Y-41399819D01*
X125662971Y-41399819D02*
X126043923Y-41399819D01*
X126043923Y-41399819D02*
X126139161Y-41447438D01*
X126139161Y-41447438D02*
X126186780Y-41495057D01*
X126186780Y-41495057D02*
X126234399Y-41590295D01*
X126234399Y-41590295D02*
X126234399Y-41733152D01*
X126234399Y-41733152D02*
X126186780Y-41828390D01*
X126186780Y-41828390D02*
X126139161Y-41876009D01*
X126139161Y-41876009D02*
X126043923Y-41923628D01*
X126043923Y-41923628D02*
X125662971Y-41923628D01*
X126996304Y-41876009D02*
X126662971Y-41876009D01*
X126662971Y-42399819D02*
X126662971Y-41399819D01*
X126662971Y-41399819D02*
X127139161Y-41399819D01*
X109520112Y-43486009D02*
X109662969Y-43533628D01*
X109662969Y-43533628D02*
X109710588Y-43581247D01*
X109710588Y-43581247D02*
X109758207Y-43676485D01*
X109758207Y-43676485D02*
X109758207Y-43819342D01*
X109758207Y-43819342D02*
X109710588Y-43914580D01*
X109710588Y-43914580D02*
X109662969Y-43962200D01*
X109662969Y-43962200D02*
X109567731Y-44009819D01*
X109567731Y-44009819D02*
X109186779Y-44009819D01*
X109186779Y-44009819D02*
X109186779Y-43009819D01*
X109186779Y-43009819D02*
X109520112Y-43009819D01*
X109520112Y-43009819D02*
X109615350Y-43057438D01*
X109615350Y-43057438D02*
X109662969Y-43105057D01*
X109662969Y-43105057D02*
X109710588Y-43200295D01*
X109710588Y-43200295D02*
X109710588Y-43295533D01*
X109710588Y-43295533D02*
X109662969Y-43390771D01*
X109662969Y-43390771D02*
X109615350Y-43438390D01*
X109615350Y-43438390D02*
X109520112Y-43486009D01*
X109520112Y-43486009D02*
X109186779Y-43486009D01*
X110329636Y-44009819D02*
X110234398Y-43962200D01*
X110234398Y-43962200D02*
X110186779Y-43914580D01*
X110186779Y-43914580D02*
X110139160Y-43819342D01*
X110139160Y-43819342D02*
X110139160Y-43533628D01*
X110139160Y-43533628D02*
X110186779Y-43438390D01*
X110186779Y-43438390D02*
X110234398Y-43390771D01*
X110234398Y-43390771D02*
X110329636Y-43343152D01*
X110329636Y-43343152D02*
X110472493Y-43343152D01*
X110472493Y-43343152D02*
X110567731Y-43390771D01*
X110567731Y-43390771D02*
X110615350Y-43438390D01*
X110615350Y-43438390D02*
X110662969Y-43533628D01*
X110662969Y-43533628D02*
X110662969Y-43819342D01*
X110662969Y-43819342D02*
X110615350Y-43914580D01*
X110615350Y-43914580D02*
X110567731Y-43962200D01*
X110567731Y-43962200D02*
X110472493Y-44009819D01*
X110472493Y-44009819D02*
X110329636Y-44009819D01*
X111520112Y-44009819D02*
X111520112Y-43486009D01*
X111520112Y-43486009D02*
X111472493Y-43390771D01*
X111472493Y-43390771D02*
X111377255Y-43343152D01*
X111377255Y-43343152D02*
X111186779Y-43343152D01*
X111186779Y-43343152D02*
X111091541Y-43390771D01*
X111520112Y-43962200D02*
X111424874Y-44009819D01*
X111424874Y-44009819D02*
X111186779Y-44009819D01*
X111186779Y-44009819D02*
X111091541Y-43962200D01*
X111091541Y-43962200D02*
X111043922Y-43866961D01*
X111043922Y-43866961D02*
X111043922Y-43771723D01*
X111043922Y-43771723D02*
X111091541Y-43676485D01*
X111091541Y-43676485D02*
X111186779Y-43628866D01*
X111186779Y-43628866D02*
X111424874Y-43628866D01*
X111424874Y-43628866D02*
X111520112Y-43581247D01*
X111996303Y-44009819D02*
X111996303Y-43343152D01*
X111996303Y-43533628D02*
X112043922Y-43438390D01*
X112043922Y-43438390D02*
X112091541Y-43390771D01*
X112091541Y-43390771D02*
X112186779Y-43343152D01*
X112186779Y-43343152D02*
X112282017Y-43343152D01*
X113043922Y-44009819D02*
X113043922Y-43009819D01*
X113043922Y-43962200D02*
X112948684Y-44009819D01*
X112948684Y-44009819D02*
X112758208Y-44009819D01*
X112758208Y-44009819D02*
X112662970Y-43962200D01*
X112662970Y-43962200D02*
X112615351Y-43914580D01*
X112615351Y-43914580D02*
X112567732Y-43819342D01*
X112567732Y-43819342D02*
X112567732Y-43533628D01*
X112567732Y-43533628D02*
X112615351Y-43438390D01*
X112615351Y-43438390D02*
X112662970Y-43390771D01*
X112662970Y-43390771D02*
X112758208Y-43343152D01*
X112758208Y-43343152D02*
X112948684Y-43343152D01*
X112948684Y-43343152D02*
X113043922Y-43390771D01*
X114853446Y-44009819D02*
X114520113Y-43533628D01*
X114282018Y-44009819D02*
X114282018Y-43009819D01*
X114282018Y-43009819D02*
X114662970Y-43009819D01*
X114662970Y-43009819D02*
X114758208Y-43057438D01*
X114758208Y-43057438D02*
X114805827Y-43105057D01*
X114805827Y-43105057D02*
X114853446Y-43200295D01*
X114853446Y-43200295D02*
X114853446Y-43343152D01*
X114853446Y-43343152D02*
X114805827Y-43438390D01*
X114805827Y-43438390D02*
X114758208Y-43486009D01*
X114758208Y-43486009D02*
X114662970Y-43533628D01*
X114662970Y-43533628D02*
X114282018Y-43533628D01*
X115662970Y-43962200D02*
X115567732Y-44009819D01*
X115567732Y-44009819D02*
X115377256Y-44009819D01*
X115377256Y-44009819D02*
X115282018Y-43962200D01*
X115282018Y-43962200D02*
X115234399Y-43866961D01*
X115234399Y-43866961D02*
X115234399Y-43486009D01*
X115234399Y-43486009D02*
X115282018Y-43390771D01*
X115282018Y-43390771D02*
X115377256Y-43343152D01*
X115377256Y-43343152D02*
X115567732Y-43343152D01*
X115567732Y-43343152D02*
X115662970Y-43390771D01*
X115662970Y-43390771D02*
X115710589Y-43486009D01*
X115710589Y-43486009D02*
X115710589Y-43581247D01*
X115710589Y-43581247D02*
X115234399Y-43676485D01*
X116043923Y-43343152D02*
X116282018Y-44009819D01*
X116282018Y-44009819D02*
X116520113Y-43343152D01*
X116901066Y-43914580D02*
X116948685Y-43962200D01*
X116948685Y-43962200D02*
X116901066Y-44009819D01*
X116901066Y-44009819D02*
X116853447Y-43962200D01*
X116853447Y-43962200D02*
X116901066Y-43914580D01*
X116901066Y-43914580D02*
X116901066Y-44009819D01*
X118091542Y-43724104D02*
X118567732Y-43724104D01*
X117996304Y-44009819D02*
X118329637Y-43009819D01*
X118329637Y-43009819D02*
X118662970Y-44009819D01*
D11*
X84314286Y-90978328D02*
X84314286Y-91978328D01*
X83957143Y-90406900D02*
X83600000Y-91478328D01*
X83600000Y-91478328D02*
X84528571Y-91478328D01*
X85385714Y-90478328D02*
X85528571Y-90478328D01*
X85528571Y-90478328D02*
X85671428Y-90549757D01*
X85671428Y-90549757D02*
X85742857Y-90621185D01*
X85742857Y-90621185D02*
X85814285Y-90764042D01*
X85814285Y-90764042D02*
X85885714Y-91049757D01*
X85885714Y-91049757D02*
X85885714Y-91406900D01*
X85885714Y-91406900D02*
X85814285Y-91692614D01*
X85814285Y-91692614D02*
X85742857Y-91835471D01*
X85742857Y-91835471D02*
X85671428Y-91906900D01*
X85671428Y-91906900D02*
X85528571Y-91978328D01*
X85528571Y-91978328D02*
X85385714Y-91978328D01*
X85385714Y-91978328D02*
X85242857Y-91906900D01*
X85242857Y-91906900D02*
X85171428Y-91835471D01*
X85171428Y-91835471D02*
X85099999Y-91692614D01*
X85099999Y-91692614D02*
X85028571Y-91406900D01*
X85028571Y-91406900D02*
X85028571Y-91049757D01*
X85028571Y-91049757D02*
X85099999Y-90764042D01*
X85099999Y-90764042D02*
X85171428Y-90621185D01*
X85171428Y-90621185D02*
X85242857Y-90549757D01*
X85242857Y-90549757D02*
X85385714Y-90478328D01*
X86528570Y-91978328D02*
X86528570Y-90478328D01*
X86528570Y-90478328D02*
X87028570Y-91549757D01*
X87028570Y-91549757D02*
X87528570Y-90478328D01*
X87528570Y-90478328D02*
X87528570Y-91978328D01*
X83569143Y-140406900D02*
X84712001Y-140406900D01*
X84140572Y-140978328D02*
X84140572Y-139835471D01*
X86212001Y-140978328D02*
X85354858Y-140978328D01*
X85783429Y-140978328D02*
X85783429Y-139478328D01*
X85783429Y-139478328D02*
X85640572Y-139692614D01*
X85640572Y-139692614D02*
X85497715Y-139835471D01*
X85497715Y-139835471D02*
X85354858Y-139906900D01*
X86783429Y-139621185D02*
X86854857Y-139549757D01*
X86854857Y-139549757D02*
X86997715Y-139478328D01*
X86997715Y-139478328D02*
X87354857Y-139478328D01*
X87354857Y-139478328D02*
X87497715Y-139549757D01*
X87497715Y-139549757D02*
X87569143Y-139621185D01*
X87569143Y-139621185D02*
X87640572Y-139764042D01*
X87640572Y-139764042D02*
X87640572Y-139906900D01*
X87640572Y-139906900D02*
X87569143Y-140121185D01*
X87569143Y-140121185D02*
X86712000Y-140978328D01*
X86712000Y-140978328D02*
X87640572Y-140978328D01*
X88069143Y-139478328D02*
X88569143Y-140978328D01*
X88569143Y-140978328D02*
X89069143Y-139478328D01*
X84557143Y-102278328D02*
X83700000Y-102278328D01*
X84128571Y-102278328D02*
X84128571Y-100778328D01*
X84128571Y-100778328D02*
X83985714Y-100992614D01*
X83985714Y-100992614D02*
X83842857Y-101135471D01*
X83842857Y-101135471D02*
X83700000Y-101206900D01*
X85914285Y-100778328D02*
X85199999Y-100778328D01*
X85199999Y-100778328D02*
X85128571Y-101492614D01*
X85128571Y-101492614D02*
X85199999Y-101421185D01*
X85199999Y-101421185D02*
X85342857Y-101349757D01*
X85342857Y-101349757D02*
X85699999Y-101349757D01*
X85699999Y-101349757D02*
X85842857Y-101421185D01*
X85842857Y-101421185D02*
X85914285Y-101492614D01*
X85914285Y-101492614D02*
X85985714Y-101635471D01*
X85985714Y-101635471D02*
X85985714Y-101992614D01*
X85985714Y-101992614D02*
X85914285Y-102135471D01*
X85914285Y-102135471D02*
X85842857Y-102206900D01*
X85842857Y-102206900D02*
X85699999Y-102278328D01*
X85699999Y-102278328D02*
X85342857Y-102278328D01*
X85342857Y-102278328D02*
X85199999Y-102206900D01*
X85199999Y-102206900D02*
X85128571Y-102135471D01*
X86628570Y-102278328D02*
X86628570Y-100778328D01*
X86628570Y-100778328D02*
X87128570Y-101849757D01*
X87128570Y-101849757D02*
X87628570Y-100778328D01*
X87628570Y-100778328D02*
X87628570Y-102278328D01*
D10*
X92957142Y-149733152D02*
X93338094Y-149733152D01*
X93099999Y-149399819D02*
X93099999Y-150256961D01*
X93099999Y-150256961D02*
X93147618Y-150352200D01*
X93147618Y-150352200D02*
X93242856Y-150399819D01*
X93242856Y-150399819D02*
X93338094Y-150399819D01*
X93814285Y-150399819D02*
X93719047Y-150352200D01*
X93719047Y-150352200D02*
X93671428Y-150304580D01*
X93671428Y-150304580D02*
X93623809Y-150209342D01*
X93623809Y-150209342D02*
X93623809Y-149923628D01*
X93623809Y-149923628D02*
X93671428Y-149828390D01*
X93671428Y-149828390D02*
X93719047Y-149780771D01*
X93719047Y-149780771D02*
X93814285Y-149733152D01*
X93814285Y-149733152D02*
X93957142Y-149733152D01*
X93957142Y-149733152D02*
X94052380Y-149780771D01*
X94052380Y-149780771D02*
X94099999Y-149828390D01*
X94099999Y-149828390D02*
X94147618Y-149923628D01*
X94147618Y-149923628D02*
X94147618Y-150209342D01*
X94147618Y-150209342D02*
X94099999Y-150304580D01*
X94099999Y-150304580D02*
X94052380Y-150352200D01*
X94052380Y-150352200D02*
X93957142Y-150399819D01*
X93957142Y-150399819D02*
X93814285Y-150399819D01*
X95195238Y-149733152D02*
X95576190Y-149733152D01*
X95338095Y-149399819D02*
X95338095Y-150256961D01*
X95338095Y-150256961D02*
X95385714Y-150352200D01*
X95385714Y-150352200D02*
X95480952Y-150399819D01*
X95480952Y-150399819D02*
X95576190Y-150399819D01*
X96623809Y-149352200D02*
X95766667Y-150637914D01*
X96957143Y-150399819D02*
X96957143Y-149733152D01*
X96957143Y-149923628D02*
X97004762Y-149828390D01*
X97004762Y-149828390D02*
X97052381Y-149780771D01*
X97052381Y-149780771D02*
X97147619Y-149733152D01*
X97147619Y-149733152D02*
X97242857Y-149733152D01*
X92957143Y-151962200D02*
X93052381Y-152009819D01*
X93052381Y-152009819D02*
X93242857Y-152009819D01*
X93242857Y-152009819D02*
X93338095Y-151962200D01*
X93338095Y-151962200D02*
X93385714Y-151866961D01*
X93385714Y-151866961D02*
X93385714Y-151819342D01*
X93385714Y-151819342D02*
X93338095Y-151724104D01*
X93338095Y-151724104D02*
X93242857Y-151676485D01*
X93242857Y-151676485D02*
X93100000Y-151676485D01*
X93100000Y-151676485D02*
X93004762Y-151628866D01*
X93004762Y-151628866D02*
X92957143Y-151533628D01*
X92957143Y-151533628D02*
X92957143Y-151486009D01*
X92957143Y-151486009D02*
X93004762Y-151390771D01*
X93004762Y-151390771D02*
X93100000Y-151343152D01*
X93100000Y-151343152D02*
X93242857Y-151343152D01*
X93242857Y-151343152D02*
X93338095Y-151390771D01*
X93719048Y-151343152D02*
X93909524Y-152009819D01*
X93909524Y-152009819D02*
X94100000Y-151533628D01*
X94100000Y-151533628D02*
X94290476Y-152009819D01*
X94290476Y-152009819D02*
X94480952Y-151343152D01*
X94861905Y-152009819D02*
X94861905Y-151343152D01*
X94861905Y-151009819D02*
X94814286Y-151057438D01*
X94814286Y-151057438D02*
X94861905Y-151105057D01*
X94861905Y-151105057D02*
X94909524Y-151057438D01*
X94909524Y-151057438D02*
X94861905Y-151009819D01*
X94861905Y-151009819D02*
X94861905Y-151105057D01*
X95195238Y-151343152D02*
X95576190Y-151343152D01*
X95338095Y-151009819D02*
X95338095Y-151866961D01*
X95338095Y-151866961D02*
X95385714Y-151962200D01*
X95385714Y-151962200D02*
X95480952Y-152009819D01*
X95480952Y-152009819D02*
X95576190Y-152009819D01*
X96338095Y-151962200D02*
X96242857Y-152009819D01*
X96242857Y-152009819D02*
X96052381Y-152009819D01*
X96052381Y-152009819D02*
X95957143Y-151962200D01*
X95957143Y-151962200D02*
X95909524Y-151914580D01*
X95909524Y-151914580D02*
X95861905Y-151819342D01*
X95861905Y-151819342D02*
X95861905Y-151533628D01*
X95861905Y-151533628D02*
X95909524Y-151438390D01*
X95909524Y-151438390D02*
X95957143Y-151390771D01*
X95957143Y-151390771D02*
X96052381Y-151343152D01*
X96052381Y-151343152D02*
X96242857Y-151343152D01*
X96242857Y-151343152D02*
X96338095Y-151390771D01*
X96766667Y-152009819D02*
X96766667Y-151009819D01*
X97195238Y-152009819D02*
X97195238Y-151486009D01*
X97195238Y-151486009D02*
X97147619Y-151390771D01*
X97147619Y-151390771D02*
X97052381Y-151343152D01*
X97052381Y-151343152D02*
X96909524Y-151343152D01*
X96909524Y-151343152D02*
X96814286Y-151390771D01*
X96814286Y-151390771D02*
X96766667Y-151438390D01*
D11*
X83628571Y-93178328D02*
X84557143Y-93178328D01*
X84557143Y-93178328D02*
X84057143Y-93749757D01*
X84057143Y-93749757D02*
X84271428Y-93749757D01*
X84271428Y-93749757D02*
X84414286Y-93821185D01*
X84414286Y-93821185D02*
X84485714Y-93892614D01*
X84485714Y-93892614D02*
X84557143Y-94035471D01*
X84557143Y-94035471D02*
X84557143Y-94392614D01*
X84557143Y-94392614D02*
X84485714Y-94535471D01*
X84485714Y-94535471D02*
X84414286Y-94606900D01*
X84414286Y-94606900D02*
X84271428Y-94678328D01*
X84271428Y-94678328D02*
X83842857Y-94678328D01*
X83842857Y-94678328D02*
X83700000Y-94606900D01*
X83700000Y-94606900D02*
X83628571Y-94535471D01*
X85485714Y-93178328D02*
X85628571Y-93178328D01*
X85628571Y-93178328D02*
X85771428Y-93249757D01*
X85771428Y-93249757D02*
X85842857Y-93321185D01*
X85842857Y-93321185D02*
X85914285Y-93464042D01*
X85914285Y-93464042D02*
X85985714Y-93749757D01*
X85985714Y-93749757D02*
X85985714Y-94106900D01*
X85985714Y-94106900D02*
X85914285Y-94392614D01*
X85914285Y-94392614D02*
X85842857Y-94535471D01*
X85842857Y-94535471D02*
X85771428Y-94606900D01*
X85771428Y-94606900D02*
X85628571Y-94678328D01*
X85628571Y-94678328D02*
X85485714Y-94678328D01*
X85485714Y-94678328D02*
X85342857Y-94606900D01*
X85342857Y-94606900D02*
X85271428Y-94535471D01*
X85271428Y-94535471D02*
X85199999Y-94392614D01*
X85199999Y-94392614D02*
X85128571Y-94106900D01*
X85128571Y-94106900D02*
X85128571Y-93749757D01*
X85128571Y-93749757D02*
X85199999Y-93464042D01*
X85199999Y-93464042D02*
X85271428Y-93321185D01*
X85271428Y-93321185D02*
X85342857Y-93249757D01*
X85342857Y-93249757D02*
X85485714Y-93178328D01*
X86628570Y-94678328D02*
X86628570Y-93178328D01*
X86628570Y-93178328D02*
X87128570Y-94249757D01*
X87128570Y-94249757D02*
X87628570Y-93178328D01*
X87628570Y-93178328D02*
X87628570Y-94678328D01*
D10*
X134707142Y-130359580D02*
X134659523Y-130407200D01*
X134659523Y-130407200D02*
X134516666Y-130454819D01*
X134516666Y-130454819D02*
X134421428Y-130454819D01*
X134421428Y-130454819D02*
X134278571Y-130407200D01*
X134278571Y-130407200D02*
X134183333Y-130311961D01*
X134183333Y-130311961D02*
X134135714Y-130216723D01*
X134135714Y-130216723D02*
X134088095Y-130026247D01*
X134088095Y-130026247D02*
X134088095Y-129883390D01*
X134088095Y-129883390D02*
X134135714Y-129692914D01*
X134135714Y-129692914D02*
X134183333Y-129597676D01*
X134183333Y-129597676D02*
X134278571Y-129502438D01*
X134278571Y-129502438D02*
X134421428Y-129454819D01*
X134421428Y-129454819D02*
X134516666Y-129454819D01*
X134516666Y-129454819D02*
X134659523Y-129502438D01*
X134659523Y-129502438D02*
X134707142Y-129550057D01*
X135611904Y-129454819D02*
X135135714Y-129454819D01*
X135135714Y-129454819D02*
X135088095Y-129931009D01*
X135088095Y-129931009D02*
X135135714Y-129883390D01*
X135135714Y-129883390D02*
X135230952Y-129835771D01*
X135230952Y-129835771D02*
X135469047Y-129835771D01*
X135469047Y-129835771D02*
X135564285Y-129883390D01*
X135564285Y-129883390D02*
X135611904Y-129931009D01*
X135611904Y-129931009D02*
X135659523Y-130026247D01*
X135659523Y-130026247D02*
X135659523Y-130264342D01*
X135659523Y-130264342D02*
X135611904Y-130359580D01*
X135611904Y-130359580D02*
X135564285Y-130407200D01*
X135564285Y-130407200D02*
X135469047Y-130454819D01*
X135469047Y-130454819D02*
X135230952Y-130454819D01*
X135230952Y-130454819D02*
X135135714Y-130407200D01*
X135135714Y-130407200D02*
X135088095Y-130359580D01*
X136564285Y-129454819D02*
X136088095Y-129454819D01*
X136088095Y-129454819D02*
X136040476Y-129931009D01*
X136040476Y-129931009D02*
X136088095Y-129883390D01*
X136088095Y-129883390D02*
X136183333Y-129835771D01*
X136183333Y-129835771D02*
X136421428Y-129835771D01*
X136421428Y-129835771D02*
X136516666Y-129883390D01*
X136516666Y-129883390D02*
X136564285Y-129931009D01*
X136564285Y-129931009D02*
X136611904Y-130026247D01*
X136611904Y-130026247D02*
X136611904Y-130264342D01*
X136611904Y-130264342D02*
X136564285Y-130359580D01*
X136564285Y-130359580D02*
X136516666Y-130407200D01*
X136516666Y-130407200D02*
X136421428Y-130454819D01*
X136421428Y-130454819D02*
X136183333Y-130454819D01*
X136183333Y-130454819D02*
X136088095Y-130407200D01*
X136088095Y-130407200D02*
X136040476Y-130359580D01*
X134957142Y-140859580D02*
X134909523Y-140907200D01*
X134909523Y-140907200D02*
X134766666Y-140954819D01*
X134766666Y-140954819D02*
X134671428Y-140954819D01*
X134671428Y-140954819D02*
X134528571Y-140907200D01*
X134528571Y-140907200D02*
X134433333Y-140811961D01*
X134433333Y-140811961D02*
X134385714Y-140716723D01*
X134385714Y-140716723D02*
X134338095Y-140526247D01*
X134338095Y-140526247D02*
X134338095Y-140383390D01*
X134338095Y-140383390D02*
X134385714Y-140192914D01*
X134385714Y-140192914D02*
X134433333Y-140097676D01*
X134433333Y-140097676D02*
X134528571Y-140002438D01*
X134528571Y-140002438D02*
X134671428Y-139954819D01*
X134671428Y-139954819D02*
X134766666Y-139954819D01*
X134766666Y-139954819D02*
X134909523Y-140002438D01*
X134909523Y-140002438D02*
X134957142Y-140050057D01*
X135861904Y-139954819D02*
X135385714Y-139954819D01*
X135385714Y-139954819D02*
X135338095Y-140431009D01*
X135338095Y-140431009D02*
X135385714Y-140383390D01*
X135385714Y-140383390D02*
X135480952Y-140335771D01*
X135480952Y-140335771D02*
X135719047Y-140335771D01*
X135719047Y-140335771D02*
X135814285Y-140383390D01*
X135814285Y-140383390D02*
X135861904Y-140431009D01*
X135861904Y-140431009D02*
X135909523Y-140526247D01*
X135909523Y-140526247D02*
X135909523Y-140764342D01*
X135909523Y-140764342D02*
X135861904Y-140859580D01*
X135861904Y-140859580D02*
X135814285Y-140907200D01*
X135814285Y-140907200D02*
X135719047Y-140954819D01*
X135719047Y-140954819D02*
X135480952Y-140954819D01*
X135480952Y-140954819D02*
X135385714Y-140907200D01*
X135385714Y-140907200D02*
X135338095Y-140859580D01*
X136242857Y-139954819D02*
X136861904Y-139954819D01*
X136861904Y-139954819D02*
X136528571Y-140335771D01*
X136528571Y-140335771D02*
X136671428Y-140335771D01*
X136671428Y-140335771D02*
X136766666Y-140383390D01*
X136766666Y-140383390D02*
X136814285Y-140431009D01*
X136814285Y-140431009D02*
X136861904Y-140526247D01*
X136861904Y-140526247D02*
X136861904Y-140764342D01*
X136861904Y-140764342D02*
X136814285Y-140859580D01*
X136814285Y-140859580D02*
X136766666Y-140907200D01*
X136766666Y-140907200D02*
X136671428Y-140954819D01*
X136671428Y-140954819D02*
X136385714Y-140954819D01*
X136385714Y-140954819D02*
X136290476Y-140907200D01*
X136290476Y-140907200D02*
X136242857Y-140859580D01*
X115707142Y-149859580D02*
X115659523Y-149907200D01*
X115659523Y-149907200D02*
X115516666Y-149954819D01*
X115516666Y-149954819D02*
X115421428Y-149954819D01*
X115421428Y-149954819D02*
X115278571Y-149907200D01*
X115278571Y-149907200D02*
X115183333Y-149811961D01*
X115183333Y-149811961D02*
X115135714Y-149716723D01*
X115135714Y-149716723D02*
X115088095Y-149526247D01*
X115088095Y-149526247D02*
X115088095Y-149383390D01*
X115088095Y-149383390D02*
X115135714Y-149192914D01*
X115135714Y-149192914D02*
X115183333Y-149097676D01*
X115183333Y-149097676D02*
X115278571Y-149002438D01*
X115278571Y-149002438D02*
X115421428Y-148954819D01*
X115421428Y-148954819D02*
X115516666Y-148954819D01*
X115516666Y-148954819D02*
X115659523Y-149002438D01*
X115659523Y-149002438D02*
X115707142Y-149050057D01*
X116611904Y-148954819D02*
X116135714Y-148954819D01*
X116135714Y-148954819D02*
X116088095Y-149431009D01*
X116088095Y-149431009D02*
X116135714Y-149383390D01*
X116135714Y-149383390D02*
X116230952Y-149335771D01*
X116230952Y-149335771D02*
X116469047Y-149335771D01*
X116469047Y-149335771D02*
X116564285Y-149383390D01*
X116564285Y-149383390D02*
X116611904Y-149431009D01*
X116611904Y-149431009D02*
X116659523Y-149526247D01*
X116659523Y-149526247D02*
X116659523Y-149764342D01*
X116659523Y-149764342D02*
X116611904Y-149859580D01*
X116611904Y-149859580D02*
X116564285Y-149907200D01*
X116564285Y-149907200D02*
X116469047Y-149954819D01*
X116469047Y-149954819D02*
X116230952Y-149954819D01*
X116230952Y-149954819D02*
X116135714Y-149907200D01*
X116135714Y-149907200D02*
X116088095Y-149859580D01*
X117040476Y-149050057D02*
X117088095Y-149002438D01*
X117088095Y-149002438D02*
X117183333Y-148954819D01*
X117183333Y-148954819D02*
X117421428Y-148954819D01*
X117421428Y-148954819D02*
X117516666Y-149002438D01*
X117516666Y-149002438D02*
X117564285Y-149050057D01*
X117564285Y-149050057D02*
X117611904Y-149145295D01*
X117611904Y-149145295D02*
X117611904Y-149240533D01*
X117611904Y-149240533D02*
X117564285Y-149383390D01*
X117564285Y-149383390D02*
X116992857Y-149954819D01*
X116992857Y-149954819D02*
X117611904Y-149954819D01*
X135207142Y-109109580D02*
X135159523Y-109157200D01*
X135159523Y-109157200D02*
X135016666Y-109204819D01*
X135016666Y-109204819D02*
X134921428Y-109204819D01*
X134921428Y-109204819D02*
X134778571Y-109157200D01*
X134778571Y-109157200D02*
X134683333Y-109061961D01*
X134683333Y-109061961D02*
X134635714Y-108966723D01*
X134635714Y-108966723D02*
X134588095Y-108776247D01*
X134588095Y-108776247D02*
X134588095Y-108633390D01*
X134588095Y-108633390D02*
X134635714Y-108442914D01*
X134635714Y-108442914D02*
X134683333Y-108347676D01*
X134683333Y-108347676D02*
X134778571Y-108252438D01*
X134778571Y-108252438D02*
X134921428Y-108204819D01*
X134921428Y-108204819D02*
X135016666Y-108204819D01*
X135016666Y-108204819D02*
X135159523Y-108252438D01*
X135159523Y-108252438D02*
X135207142Y-108300057D01*
X136111904Y-108204819D02*
X135635714Y-108204819D01*
X135635714Y-108204819D02*
X135588095Y-108681009D01*
X135588095Y-108681009D02*
X135635714Y-108633390D01*
X135635714Y-108633390D02*
X135730952Y-108585771D01*
X135730952Y-108585771D02*
X135969047Y-108585771D01*
X135969047Y-108585771D02*
X136064285Y-108633390D01*
X136064285Y-108633390D02*
X136111904Y-108681009D01*
X136111904Y-108681009D02*
X136159523Y-108776247D01*
X136159523Y-108776247D02*
X136159523Y-109014342D01*
X136159523Y-109014342D02*
X136111904Y-109109580D01*
X136111904Y-109109580D02*
X136064285Y-109157200D01*
X136064285Y-109157200D02*
X135969047Y-109204819D01*
X135969047Y-109204819D02*
X135730952Y-109204819D01*
X135730952Y-109204819D02*
X135635714Y-109157200D01*
X135635714Y-109157200D02*
X135588095Y-109109580D01*
X136778571Y-108204819D02*
X136873809Y-108204819D01*
X136873809Y-108204819D02*
X136969047Y-108252438D01*
X136969047Y-108252438D02*
X137016666Y-108300057D01*
X137016666Y-108300057D02*
X137064285Y-108395295D01*
X137064285Y-108395295D02*
X137111904Y-108585771D01*
X137111904Y-108585771D02*
X137111904Y-108823866D01*
X137111904Y-108823866D02*
X137064285Y-109014342D01*
X137064285Y-109014342D02*
X137016666Y-109109580D01*
X137016666Y-109109580D02*
X136969047Y-109157200D01*
X136969047Y-109157200D02*
X136873809Y-109204819D01*
X136873809Y-109204819D02*
X136778571Y-109204819D01*
X136778571Y-109204819D02*
X136683333Y-109157200D01*
X136683333Y-109157200D02*
X136635714Y-109109580D01*
X136635714Y-109109580D02*
X136588095Y-109014342D01*
X136588095Y-109014342D02*
X136540476Y-108823866D01*
X136540476Y-108823866D02*
X136540476Y-108585771D01*
X136540476Y-108585771D02*
X136588095Y-108395295D01*
X136588095Y-108395295D02*
X136635714Y-108300057D01*
X136635714Y-108300057D02*
X136683333Y-108252438D01*
X136683333Y-108252438D02*
X136778571Y-108204819D01*
X134957142Y-119609580D02*
X134909523Y-119657200D01*
X134909523Y-119657200D02*
X134766666Y-119704819D01*
X134766666Y-119704819D02*
X134671428Y-119704819D01*
X134671428Y-119704819D02*
X134528571Y-119657200D01*
X134528571Y-119657200D02*
X134433333Y-119561961D01*
X134433333Y-119561961D02*
X134385714Y-119466723D01*
X134385714Y-119466723D02*
X134338095Y-119276247D01*
X134338095Y-119276247D02*
X134338095Y-119133390D01*
X134338095Y-119133390D02*
X134385714Y-118942914D01*
X134385714Y-118942914D02*
X134433333Y-118847676D01*
X134433333Y-118847676D02*
X134528571Y-118752438D01*
X134528571Y-118752438D02*
X134671428Y-118704819D01*
X134671428Y-118704819D02*
X134766666Y-118704819D01*
X134766666Y-118704819D02*
X134909523Y-118752438D01*
X134909523Y-118752438D02*
X134957142Y-118800057D01*
X135814285Y-119038152D02*
X135814285Y-119704819D01*
X135576190Y-118657200D02*
X135338095Y-119371485D01*
X135338095Y-119371485D02*
X135957142Y-119371485D01*
X136480952Y-119133390D02*
X136385714Y-119085771D01*
X136385714Y-119085771D02*
X136338095Y-119038152D01*
X136338095Y-119038152D02*
X136290476Y-118942914D01*
X136290476Y-118942914D02*
X136290476Y-118895295D01*
X136290476Y-118895295D02*
X136338095Y-118800057D01*
X136338095Y-118800057D02*
X136385714Y-118752438D01*
X136385714Y-118752438D02*
X136480952Y-118704819D01*
X136480952Y-118704819D02*
X136671428Y-118704819D01*
X136671428Y-118704819D02*
X136766666Y-118752438D01*
X136766666Y-118752438D02*
X136814285Y-118800057D01*
X136814285Y-118800057D02*
X136861904Y-118895295D01*
X136861904Y-118895295D02*
X136861904Y-118942914D01*
X136861904Y-118942914D02*
X136814285Y-119038152D01*
X136814285Y-119038152D02*
X136766666Y-119085771D01*
X136766666Y-119085771D02*
X136671428Y-119133390D01*
X136671428Y-119133390D02*
X136480952Y-119133390D01*
X136480952Y-119133390D02*
X136385714Y-119181009D01*
X136385714Y-119181009D02*
X136338095Y-119228628D01*
X136338095Y-119228628D02*
X136290476Y-119323866D01*
X136290476Y-119323866D02*
X136290476Y-119514342D01*
X136290476Y-119514342D02*
X136338095Y-119609580D01*
X136338095Y-119609580D02*
X136385714Y-119657200D01*
X136385714Y-119657200D02*
X136480952Y-119704819D01*
X136480952Y-119704819D02*
X136671428Y-119704819D01*
X136671428Y-119704819D02*
X136766666Y-119657200D01*
X136766666Y-119657200D02*
X136814285Y-119609580D01*
X136814285Y-119609580D02*
X136861904Y-119514342D01*
X136861904Y-119514342D02*
X136861904Y-119323866D01*
X136861904Y-119323866D02*
X136814285Y-119228628D01*
X136814285Y-119228628D02*
X136766666Y-119181009D01*
X136766666Y-119181009D02*
X136671428Y-119133390D01*
X105957142Y-128859580D02*
X105909523Y-128907200D01*
X105909523Y-128907200D02*
X105766666Y-128954819D01*
X105766666Y-128954819D02*
X105671428Y-128954819D01*
X105671428Y-128954819D02*
X105528571Y-128907200D01*
X105528571Y-128907200D02*
X105433333Y-128811961D01*
X105433333Y-128811961D02*
X105385714Y-128716723D01*
X105385714Y-128716723D02*
X105338095Y-128526247D01*
X105338095Y-128526247D02*
X105338095Y-128383390D01*
X105338095Y-128383390D02*
X105385714Y-128192914D01*
X105385714Y-128192914D02*
X105433333Y-128097676D01*
X105433333Y-128097676D02*
X105528571Y-128002438D01*
X105528571Y-128002438D02*
X105671428Y-127954819D01*
X105671428Y-127954819D02*
X105766666Y-127954819D01*
X105766666Y-127954819D02*
X105909523Y-128002438D01*
X105909523Y-128002438D02*
X105957142Y-128050057D01*
X106814285Y-128288152D02*
X106814285Y-128954819D01*
X106576190Y-127907200D02*
X106338095Y-128621485D01*
X106338095Y-128621485D02*
X106957142Y-128621485D01*
X107242857Y-127954819D02*
X107909523Y-127954819D01*
X107909523Y-127954819D02*
X107480952Y-128954819D01*
X135207142Y-88109580D02*
X135159523Y-88157200D01*
X135159523Y-88157200D02*
X135016666Y-88204819D01*
X135016666Y-88204819D02*
X134921428Y-88204819D01*
X134921428Y-88204819D02*
X134778571Y-88157200D01*
X134778571Y-88157200D02*
X134683333Y-88061961D01*
X134683333Y-88061961D02*
X134635714Y-87966723D01*
X134635714Y-87966723D02*
X134588095Y-87776247D01*
X134588095Y-87776247D02*
X134588095Y-87633390D01*
X134588095Y-87633390D02*
X134635714Y-87442914D01*
X134635714Y-87442914D02*
X134683333Y-87347676D01*
X134683333Y-87347676D02*
X134778571Y-87252438D01*
X134778571Y-87252438D02*
X134921428Y-87204819D01*
X134921428Y-87204819D02*
X135016666Y-87204819D01*
X135016666Y-87204819D02*
X135159523Y-87252438D01*
X135159523Y-87252438D02*
X135207142Y-87300057D01*
X136064285Y-87538152D02*
X136064285Y-88204819D01*
X135826190Y-87157200D02*
X135588095Y-87871485D01*
X135588095Y-87871485D02*
X136207142Y-87871485D01*
X137064285Y-87204819D02*
X136588095Y-87204819D01*
X136588095Y-87204819D02*
X136540476Y-87681009D01*
X136540476Y-87681009D02*
X136588095Y-87633390D01*
X136588095Y-87633390D02*
X136683333Y-87585771D01*
X136683333Y-87585771D02*
X136921428Y-87585771D01*
X136921428Y-87585771D02*
X137016666Y-87633390D01*
X137016666Y-87633390D02*
X137064285Y-87681009D01*
X137064285Y-87681009D02*
X137111904Y-87776247D01*
X137111904Y-87776247D02*
X137111904Y-88014342D01*
X137111904Y-88014342D02*
X137064285Y-88109580D01*
X137064285Y-88109580D02*
X137016666Y-88157200D01*
X137016666Y-88157200D02*
X136921428Y-88204819D01*
X136921428Y-88204819D02*
X136683333Y-88204819D01*
X136683333Y-88204819D02*
X136588095Y-88157200D01*
X136588095Y-88157200D02*
X136540476Y-88109580D01*
X134957142Y-98609580D02*
X134909523Y-98657200D01*
X134909523Y-98657200D02*
X134766666Y-98704819D01*
X134766666Y-98704819D02*
X134671428Y-98704819D01*
X134671428Y-98704819D02*
X134528571Y-98657200D01*
X134528571Y-98657200D02*
X134433333Y-98561961D01*
X134433333Y-98561961D02*
X134385714Y-98466723D01*
X134385714Y-98466723D02*
X134338095Y-98276247D01*
X134338095Y-98276247D02*
X134338095Y-98133390D01*
X134338095Y-98133390D02*
X134385714Y-97942914D01*
X134385714Y-97942914D02*
X134433333Y-97847676D01*
X134433333Y-97847676D02*
X134528571Y-97752438D01*
X134528571Y-97752438D02*
X134671428Y-97704819D01*
X134671428Y-97704819D02*
X134766666Y-97704819D01*
X134766666Y-97704819D02*
X134909523Y-97752438D01*
X134909523Y-97752438D02*
X134957142Y-97800057D01*
X135814285Y-98038152D02*
X135814285Y-98704819D01*
X135576190Y-97657200D02*
X135338095Y-98371485D01*
X135338095Y-98371485D02*
X135957142Y-98371485D01*
X136242857Y-97704819D02*
X136861904Y-97704819D01*
X136861904Y-97704819D02*
X136528571Y-98085771D01*
X136528571Y-98085771D02*
X136671428Y-98085771D01*
X136671428Y-98085771D02*
X136766666Y-98133390D01*
X136766666Y-98133390D02*
X136814285Y-98181009D01*
X136814285Y-98181009D02*
X136861904Y-98276247D01*
X136861904Y-98276247D02*
X136861904Y-98514342D01*
X136861904Y-98514342D02*
X136814285Y-98609580D01*
X136814285Y-98609580D02*
X136766666Y-98657200D01*
X136766666Y-98657200D02*
X136671428Y-98704819D01*
X136671428Y-98704819D02*
X136385714Y-98704819D01*
X136385714Y-98704819D02*
X136290476Y-98657200D01*
X136290476Y-98657200D02*
X136242857Y-98609580D01*
X106207142Y-107859580D02*
X106159523Y-107907200D01*
X106159523Y-107907200D02*
X106016666Y-107954819D01*
X106016666Y-107954819D02*
X105921428Y-107954819D01*
X105921428Y-107954819D02*
X105778571Y-107907200D01*
X105778571Y-107907200D02*
X105683333Y-107811961D01*
X105683333Y-107811961D02*
X105635714Y-107716723D01*
X105635714Y-107716723D02*
X105588095Y-107526247D01*
X105588095Y-107526247D02*
X105588095Y-107383390D01*
X105588095Y-107383390D02*
X105635714Y-107192914D01*
X105635714Y-107192914D02*
X105683333Y-107097676D01*
X105683333Y-107097676D02*
X105778571Y-107002438D01*
X105778571Y-107002438D02*
X105921428Y-106954819D01*
X105921428Y-106954819D02*
X106016666Y-106954819D01*
X106016666Y-106954819D02*
X106159523Y-107002438D01*
X106159523Y-107002438D02*
X106207142Y-107050057D01*
X107064285Y-107288152D02*
X107064285Y-107954819D01*
X106826190Y-106907200D02*
X106588095Y-107621485D01*
X106588095Y-107621485D02*
X107207142Y-107621485D01*
X107540476Y-107050057D02*
X107588095Y-107002438D01*
X107588095Y-107002438D02*
X107683333Y-106954819D01*
X107683333Y-106954819D02*
X107921428Y-106954819D01*
X107921428Y-106954819D02*
X108016666Y-107002438D01*
X108016666Y-107002438D02*
X108064285Y-107050057D01*
X108064285Y-107050057D02*
X108111904Y-107145295D01*
X108111904Y-107145295D02*
X108111904Y-107240533D01*
X108111904Y-107240533D02*
X108064285Y-107383390D01*
X108064285Y-107383390D02*
X107492857Y-107954819D01*
X107492857Y-107954819D02*
X108111904Y-107954819D01*
X134707142Y-66609580D02*
X134659523Y-66657200D01*
X134659523Y-66657200D02*
X134516666Y-66704819D01*
X134516666Y-66704819D02*
X134421428Y-66704819D01*
X134421428Y-66704819D02*
X134278571Y-66657200D01*
X134278571Y-66657200D02*
X134183333Y-66561961D01*
X134183333Y-66561961D02*
X134135714Y-66466723D01*
X134135714Y-66466723D02*
X134088095Y-66276247D01*
X134088095Y-66276247D02*
X134088095Y-66133390D01*
X134088095Y-66133390D02*
X134135714Y-65942914D01*
X134135714Y-65942914D02*
X134183333Y-65847676D01*
X134183333Y-65847676D02*
X134278571Y-65752438D01*
X134278571Y-65752438D02*
X134421428Y-65704819D01*
X134421428Y-65704819D02*
X134516666Y-65704819D01*
X134516666Y-65704819D02*
X134659523Y-65752438D01*
X134659523Y-65752438D02*
X134707142Y-65800057D01*
X135564285Y-66038152D02*
X135564285Y-66704819D01*
X135326190Y-65657200D02*
X135088095Y-66371485D01*
X135088095Y-66371485D02*
X135707142Y-66371485D01*
X136278571Y-65704819D02*
X136373809Y-65704819D01*
X136373809Y-65704819D02*
X136469047Y-65752438D01*
X136469047Y-65752438D02*
X136516666Y-65800057D01*
X136516666Y-65800057D02*
X136564285Y-65895295D01*
X136564285Y-65895295D02*
X136611904Y-66085771D01*
X136611904Y-66085771D02*
X136611904Y-66323866D01*
X136611904Y-66323866D02*
X136564285Y-66514342D01*
X136564285Y-66514342D02*
X136516666Y-66609580D01*
X136516666Y-66609580D02*
X136469047Y-66657200D01*
X136469047Y-66657200D02*
X136373809Y-66704819D01*
X136373809Y-66704819D02*
X136278571Y-66704819D01*
X136278571Y-66704819D02*
X136183333Y-66657200D01*
X136183333Y-66657200D02*
X136135714Y-66609580D01*
X136135714Y-66609580D02*
X136088095Y-66514342D01*
X136088095Y-66514342D02*
X136040476Y-66323866D01*
X136040476Y-66323866D02*
X136040476Y-66085771D01*
X136040476Y-66085771D02*
X136088095Y-65895295D01*
X136088095Y-65895295D02*
X136135714Y-65800057D01*
X136135714Y-65800057D02*
X136183333Y-65752438D01*
X136183333Y-65752438D02*
X136278571Y-65704819D01*
X135207142Y-77359580D02*
X135159523Y-77407200D01*
X135159523Y-77407200D02*
X135016666Y-77454819D01*
X135016666Y-77454819D02*
X134921428Y-77454819D01*
X134921428Y-77454819D02*
X134778571Y-77407200D01*
X134778571Y-77407200D02*
X134683333Y-77311961D01*
X134683333Y-77311961D02*
X134635714Y-77216723D01*
X134635714Y-77216723D02*
X134588095Y-77026247D01*
X134588095Y-77026247D02*
X134588095Y-76883390D01*
X134588095Y-76883390D02*
X134635714Y-76692914D01*
X134635714Y-76692914D02*
X134683333Y-76597676D01*
X134683333Y-76597676D02*
X134778571Y-76502438D01*
X134778571Y-76502438D02*
X134921428Y-76454819D01*
X134921428Y-76454819D02*
X135016666Y-76454819D01*
X135016666Y-76454819D02*
X135159523Y-76502438D01*
X135159523Y-76502438D02*
X135207142Y-76550057D01*
X135540476Y-76454819D02*
X136159523Y-76454819D01*
X136159523Y-76454819D02*
X135826190Y-76835771D01*
X135826190Y-76835771D02*
X135969047Y-76835771D01*
X135969047Y-76835771D02*
X136064285Y-76883390D01*
X136064285Y-76883390D02*
X136111904Y-76931009D01*
X136111904Y-76931009D02*
X136159523Y-77026247D01*
X136159523Y-77026247D02*
X136159523Y-77264342D01*
X136159523Y-77264342D02*
X136111904Y-77359580D01*
X136111904Y-77359580D02*
X136064285Y-77407200D01*
X136064285Y-77407200D02*
X135969047Y-77454819D01*
X135969047Y-77454819D02*
X135683333Y-77454819D01*
X135683333Y-77454819D02*
X135588095Y-77407200D01*
X135588095Y-77407200D02*
X135540476Y-77359580D01*
X136730952Y-76883390D02*
X136635714Y-76835771D01*
X136635714Y-76835771D02*
X136588095Y-76788152D01*
X136588095Y-76788152D02*
X136540476Y-76692914D01*
X136540476Y-76692914D02*
X136540476Y-76645295D01*
X136540476Y-76645295D02*
X136588095Y-76550057D01*
X136588095Y-76550057D02*
X136635714Y-76502438D01*
X136635714Y-76502438D02*
X136730952Y-76454819D01*
X136730952Y-76454819D02*
X136921428Y-76454819D01*
X136921428Y-76454819D02*
X137016666Y-76502438D01*
X137016666Y-76502438D02*
X137064285Y-76550057D01*
X137064285Y-76550057D02*
X137111904Y-76645295D01*
X137111904Y-76645295D02*
X137111904Y-76692914D01*
X137111904Y-76692914D02*
X137064285Y-76788152D01*
X137064285Y-76788152D02*
X137016666Y-76835771D01*
X137016666Y-76835771D02*
X136921428Y-76883390D01*
X136921428Y-76883390D02*
X136730952Y-76883390D01*
X136730952Y-76883390D02*
X136635714Y-76931009D01*
X136635714Y-76931009D02*
X136588095Y-76978628D01*
X136588095Y-76978628D02*
X136540476Y-77073866D01*
X136540476Y-77073866D02*
X136540476Y-77264342D01*
X136540476Y-77264342D02*
X136588095Y-77359580D01*
X136588095Y-77359580D02*
X136635714Y-77407200D01*
X136635714Y-77407200D02*
X136730952Y-77454819D01*
X136730952Y-77454819D02*
X136921428Y-77454819D01*
X136921428Y-77454819D02*
X137016666Y-77407200D01*
X137016666Y-77407200D02*
X137064285Y-77359580D01*
X137064285Y-77359580D02*
X137111904Y-77264342D01*
X137111904Y-77264342D02*
X137111904Y-77073866D01*
X137111904Y-77073866D02*
X137064285Y-76978628D01*
X137064285Y-76978628D02*
X137016666Y-76931009D01*
X137016666Y-76931009D02*
X136921428Y-76883390D01*
X105707142Y-87359580D02*
X105659523Y-87407200D01*
X105659523Y-87407200D02*
X105516666Y-87454819D01*
X105516666Y-87454819D02*
X105421428Y-87454819D01*
X105421428Y-87454819D02*
X105278571Y-87407200D01*
X105278571Y-87407200D02*
X105183333Y-87311961D01*
X105183333Y-87311961D02*
X105135714Y-87216723D01*
X105135714Y-87216723D02*
X105088095Y-87026247D01*
X105088095Y-87026247D02*
X105088095Y-86883390D01*
X105088095Y-86883390D02*
X105135714Y-86692914D01*
X105135714Y-86692914D02*
X105183333Y-86597676D01*
X105183333Y-86597676D02*
X105278571Y-86502438D01*
X105278571Y-86502438D02*
X105421428Y-86454819D01*
X105421428Y-86454819D02*
X105516666Y-86454819D01*
X105516666Y-86454819D02*
X105659523Y-86502438D01*
X105659523Y-86502438D02*
X105707142Y-86550057D01*
X106040476Y-86454819D02*
X106659523Y-86454819D01*
X106659523Y-86454819D02*
X106326190Y-86835771D01*
X106326190Y-86835771D02*
X106469047Y-86835771D01*
X106469047Y-86835771D02*
X106564285Y-86883390D01*
X106564285Y-86883390D02*
X106611904Y-86931009D01*
X106611904Y-86931009D02*
X106659523Y-87026247D01*
X106659523Y-87026247D02*
X106659523Y-87264342D01*
X106659523Y-87264342D02*
X106611904Y-87359580D01*
X106611904Y-87359580D02*
X106564285Y-87407200D01*
X106564285Y-87407200D02*
X106469047Y-87454819D01*
X106469047Y-87454819D02*
X106183333Y-87454819D01*
X106183333Y-87454819D02*
X106088095Y-87407200D01*
X106088095Y-87407200D02*
X106040476Y-87359580D01*
X106992857Y-86454819D02*
X107659523Y-86454819D01*
X107659523Y-86454819D02*
X107230952Y-87454819D01*
X135207142Y-45109580D02*
X135159523Y-45157200D01*
X135159523Y-45157200D02*
X135016666Y-45204819D01*
X135016666Y-45204819D02*
X134921428Y-45204819D01*
X134921428Y-45204819D02*
X134778571Y-45157200D01*
X134778571Y-45157200D02*
X134683333Y-45061961D01*
X134683333Y-45061961D02*
X134635714Y-44966723D01*
X134635714Y-44966723D02*
X134588095Y-44776247D01*
X134588095Y-44776247D02*
X134588095Y-44633390D01*
X134588095Y-44633390D02*
X134635714Y-44442914D01*
X134635714Y-44442914D02*
X134683333Y-44347676D01*
X134683333Y-44347676D02*
X134778571Y-44252438D01*
X134778571Y-44252438D02*
X134921428Y-44204819D01*
X134921428Y-44204819D02*
X135016666Y-44204819D01*
X135016666Y-44204819D02*
X135159523Y-44252438D01*
X135159523Y-44252438D02*
X135207142Y-44300057D01*
X135540476Y-44204819D02*
X136159523Y-44204819D01*
X136159523Y-44204819D02*
X135826190Y-44585771D01*
X135826190Y-44585771D02*
X135969047Y-44585771D01*
X135969047Y-44585771D02*
X136064285Y-44633390D01*
X136064285Y-44633390D02*
X136111904Y-44681009D01*
X136111904Y-44681009D02*
X136159523Y-44776247D01*
X136159523Y-44776247D02*
X136159523Y-45014342D01*
X136159523Y-45014342D02*
X136111904Y-45109580D01*
X136111904Y-45109580D02*
X136064285Y-45157200D01*
X136064285Y-45157200D02*
X135969047Y-45204819D01*
X135969047Y-45204819D02*
X135683333Y-45204819D01*
X135683333Y-45204819D02*
X135588095Y-45157200D01*
X135588095Y-45157200D02*
X135540476Y-45109580D01*
X137064285Y-44204819D02*
X136588095Y-44204819D01*
X136588095Y-44204819D02*
X136540476Y-44681009D01*
X136540476Y-44681009D02*
X136588095Y-44633390D01*
X136588095Y-44633390D02*
X136683333Y-44585771D01*
X136683333Y-44585771D02*
X136921428Y-44585771D01*
X136921428Y-44585771D02*
X137016666Y-44633390D01*
X137016666Y-44633390D02*
X137064285Y-44681009D01*
X137064285Y-44681009D02*
X137111904Y-44776247D01*
X137111904Y-44776247D02*
X137111904Y-45014342D01*
X137111904Y-45014342D02*
X137064285Y-45109580D01*
X137064285Y-45109580D02*
X137016666Y-45157200D01*
X137016666Y-45157200D02*
X136921428Y-45204819D01*
X136921428Y-45204819D02*
X136683333Y-45204819D01*
X136683333Y-45204819D02*
X136588095Y-45157200D01*
X136588095Y-45157200D02*
X136540476Y-45109580D01*
X134707142Y-55609580D02*
X134659523Y-55657200D01*
X134659523Y-55657200D02*
X134516666Y-55704819D01*
X134516666Y-55704819D02*
X134421428Y-55704819D01*
X134421428Y-55704819D02*
X134278571Y-55657200D01*
X134278571Y-55657200D02*
X134183333Y-55561961D01*
X134183333Y-55561961D02*
X134135714Y-55466723D01*
X134135714Y-55466723D02*
X134088095Y-55276247D01*
X134088095Y-55276247D02*
X134088095Y-55133390D01*
X134088095Y-55133390D02*
X134135714Y-54942914D01*
X134135714Y-54942914D02*
X134183333Y-54847676D01*
X134183333Y-54847676D02*
X134278571Y-54752438D01*
X134278571Y-54752438D02*
X134421428Y-54704819D01*
X134421428Y-54704819D02*
X134516666Y-54704819D01*
X134516666Y-54704819D02*
X134659523Y-54752438D01*
X134659523Y-54752438D02*
X134707142Y-54800057D01*
X135040476Y-54704819D02*
X135659523Y-54704819D01*
X135659523Y-54704819D02*
X135326190Y-55085771D01*
X135326190Y-55085771D02*
X135469047Y-55085771D01*
X135469047Y-55085771D02*
X135564285Y-55133390D01*
X135564285Y-55133390D02*
X135611904Y-55181009D01*
X135611904Y-55181009D02*
X135659523Y-55276247D01*
X135659523Y-55276247D02*
X135659523Y-55514342D01*
X135659523Y-55514342D02*
X135611904Y-55609580D01*
X135611904Y-55609580D02*
X135564285Y-55657200D01*
X135564285Y-55657200D02*
X135469047Y-55704819D01*
X135469047Y-55704819D02*
X135183333Y-55704819D01*
X135183333Y-55704819D02*
X135088095Y-55657200D01*
X135088095Y-55657200D02*
X135040476Y-55609580D01*
X135992857Y-54704819D02*
X136611904Y-54704819D01*
X136611904Y-54704819D02*
X136278571Y-55085771D01*
X136278571Y-55085771D02*
X136421428Y-55085771D01*
X136421428Y-55085771D02*
X136516666Y-55133390D01*
X136516666Y-55133390D02*
X136564285Y-55181009D01*
X136564285Y-55181009D02*
X136611904Y-55276247D01*
X136611904Y-55276247D02*
X136611904Y-55514342D01*
X136611904Y-55514342D02*
X136564285Y-55609580D01*
X136564285Y-55609580D02*
X136516666Y-55657200D01*
X136516666Y-55657200D02*
X136421428Y-55704819D01*
X136421428Y-55704819D02*
X136135714Y-55704819D01*
X136135714Y-55704819D02*
X136040476Y-55657200D01*
X136040476Y-55657200D02*
X135992857Y-55609580D01*
X131957142Y-140609580D02*
X131909523Y-140657200D01*
X131909523Y-140657200D02*
X131766666Y-140704819D01*
X131766666Y-140704819D02*
X131671428Y-140704819D01*
X131671428Y-140704819D02*
X131528571Y-140657200D01*
X131528571Y-140657200D02*
X131433333Y-140561961D01*
X131433333Y-140561961D02*
X131385714Y-140466723D01*
X131385714Y-140466723D02*
X131338095Y-140276247D01*
X131338095Y-140276247D02*
X131338095Y-140133390D01*
X131338095Y-140133390D02*
X131385714Y-139942914D01*
X131385714Y-139942914D02*
X131433333Y-139847676D01*
X131433333Y-139847676D02*
X131528571Y-139752438D01*
X131528571Y-139752438D02*
X131671428Y-139704819D01*
X131671428Y-139704819D02*
X131766666Y-139704819D01*
X131766666Y-139704819D02*
X131909523Y-139752438D01*
X131909523Y-139752438D02*
X131957142Y-139800057D01*
X132290476Y-139704819D02*
X132909523Y-139704819D01*
X132909523Y-139704819D02*
X132576190Y-140085771D01*
X132576190Y-140085771D02*
X132719047Y-140085771D01*
X132719047Y-140085771D02*
X132814285Y-140133390D01*
X132814285Y-140133390D02*
X132861904Y-140181009D01*
X132861904Y-140181009D02*
X132909523Y-140276247D01*
X132909523Y-140276247D02*
X132909523Y-140514342D01*
X132909523Y-140514342D02*
X132861904Y-140609580D01*
X132861904Y-140609580D02*
X132814285Y-140657200D01*
X132814285Y-140657200D02*
X132719047Y-140704819D01*
X132719047Y-140704819D02*
X132433333Y-140704819D01*
X132433333Y-140704819D02*
X132338095Y-140657200D01*
X132338095Y-140657200D02*
X132290476Y-140609580D01*
X133861904Y-140704819D02*
X133290476Y-140704819D01*
X133576190Y-140704819D02*
X133576190Y-139704819D01*
X133576190Y-139704819D02*
X133480952Y-139847676D01*
X133480952Y-139847676D02*
X133385714Y-139942914D01*
X133385714Y-139942914D02*
X133290476Y-139990533D01*
X131957142Y-119609580D02*
X131909523Y-119657200D01*
X131909523Y-119657200D02*
X131766666Y-119704819D01*
X131766666Y-119704819D02*
X131671428Y-119704819D01*
X131671428Y-119704819D02*
X131528571Y-119657200D01*
X131528571Y-119657200D02*
X131433333Y-119561961D01*
X131433333Y-119561961D02*
X131385714Y-119466723D01*
X131385714Y-119466723D02*
X131338095Y-119276247D01*
X131338095Y-119276247D02*
X131338095Y-119133390D01*
X131338095Y-119133390D02*
X131385714Y-118942914D01*
X131385714Y-118942914D02*
X131433333Y-118847676D01*
X131433333Y-118847676D02*
X131528571Y-118752438D01*
X131528571Y-118752438D02*
X131671428Y-118704819D01*
X131671428Y-118704819D02*
X131766666Y-118704819D01*
X131766666Y-118704819D02*
X131909523Y-118752438D01*
X131909523Y-118752438D02*
X131957142Y-118800057D01*
X132290476Y-118704819D02*
X132909523Y-118704819D01*
X132909523Y-118704819D02*
X132576190Y-119085771D01*
X132576190Y-119085771D02*
X132719047Y-119085771D01*
X132719047Y-119085771D02*
X132814285Y-119133390D01*
X132814285Y-119133390D02*
X132861904Y-119181009D01*
X132861904Y-119181009D02*
X132909523Y-119276247D01*
X132909523Y-119276247D02*
X132909523Y-119514342D01*
X132909523Y-119514342D02*
X132861904Y-119609580D01*
X132861904Y-119609580D02*
X132814285Y-119657200D01*
X132814285Y-119657200D02*
X132719047Y-119704819D01*
X132719047Y-119704819D02*
X132433333Y-119704819D01*
X132433333Y-119704819D02*
X132338095Y-119657200D01*
X132338095Y-119657200D02*
X132290476Y-119609580D01*
X133528571Y-118704819D02*
X133623809Y-118704819D01*
X133623809Y-118704819D02*
X133719047Y-118752438D01*
X133719047Y-118752438D02*
X133766666Y-118800057D01*
X133766666Y-118800057D02*
X133814285Y-118895295D01*
X133814285Y-118895295D02*
X133861904Y-119085771D01*
X133861904Y-119085771D02*
X133861904Y-119323866D01*
X133861904Y-119323866D02*
X133814285Y-119514342D01*
X133814285Y-119514342D02*
X133766666Y-119609580D01*
X133766666Y-119609580D02*
X133719047Y-119657200D01*
X133719047Y-119657200D02*
X133623809Y-119704819D01*
X133623809Y-119704819D02*
X133528571Y-119704819D01*
X133528571Y-119704819D02*
X133433333Y-119657200D01*
X133433333Y-119657200D02*
X133385714Y-119609580D01*
X133385714Y-119609580D02*
X133338095Y-119514342D01*
X133338095Y-119514342D02*
X133290476Y-119323866D01*
X133290476Y-119323866D02*
X133290476Y-119085771D01*
X133290476Y-119085771D02*
X133338095Y-118895295D01*
X133338095Y-118895295D02*
X133385714Y-118800057D01*
X133385714Y-118800057D02*
X133433333Y-118752438D01*
X133433333Y-118752438D02*
X133528571Y-118704819D01*
X131957142Y-130359580D02*
X131909523Y-130407200D01*
X131909523Y-130407200D02*
X131766666Y-130454819D01*
X131766666Y-130454819D02*
X131671428Y-130454819D01*
X131671428Y-130454819D02*
X131528571Y-130407200D01*
X131528571Y-130407200D02*
X131433333Y-130311961D01*
X131433333Y-130311961D02*
X131385714Y-130216723D01*
X131385714Y-130216723D02*
X131338095Y-130026247D01*
X131338095Y-130026247D02*
X131338095Y-129883390D01*
X131338095Y-129883390D02*
X131385714Y-129692914D01*
X131385714Y-129692914D02*
X131433333Y-129597676D01*
X131433333Y-129597676D02*
X131528571Y-129502438D01*
X131528571Y-129502438D02*
X131671428Y-129454819D01*
X131671428Y-129454819D02*
X131766666Y-129454819D01*
X131766666Y-129454819D02*
X131909523Y-129502438D01*
X131909523Y-129502438D02*
X131957142Y-129550057D01*
X132338095Y-129550057D02*
X132385714Y-129502438D01*
X132385714Y-129502438D02*
X132480952Y-129454819D01*
X132480952Y-129454819D02*
X132719047Y-129454819D01*
X132719047Y-129454819D02*
X132814285Y-129502438D01*
X132814285Y-129502438D02*
X132861904Y-129550057D01*
X132861904Y-129550057D02*
X132909523Y-129645295D01*
X132909523Y-129645295D02*
X132909523Y-129740533D01*
X132909523Y-129740533D02*
X132861904Y-129883390D01*
X132861904Y-129883390D02*
X132290476Y-130454819D01*
X132290476Y-130454819D02*
X132909523Y-130454819D01*
X133242857Y-129454819D02*
X133909523Y-129454819D01*
X133909523Y-129454819D02*
X133480952Y-130454819D01*
X132207142Y-109109580D02*
X132159523Y-109157200D01*
X132159523Y-109157200D02*
X132016666Y-109204819D01*
X132016666Y-109204819D02*
X131921428Y-109204819D01*
X131921428Y-109204819D02*
X131778571Y-109157200D01*
X131778571Y-109157200D02*
X131683333Y-109061961D01*
X131683333Y-109061961D02*
X131635714Y-108966723D01*
X131635714Y-108966723D02*
X131588095Y-108776247D01*
X131588095Y-108776247D02*
X131588095Y-108633390D01*
X131588095Y-108633390D02*
X131635714Y-108442914D01*
X131635714Y-108442914D02*
X131683333Y-108347676D01*
X131683333Y-108347676D02*
X131778571Y-108252438D01*
X131778571Y-108252438D02*
X131921428Y-108204819D01*
X131921428Y-108204819D02*
X132016666Y-108204819D01*
X132016666Y-108204819D02*
X132159523Y-108252438D01*
X132159523Y-108252438D02*
X132207142Y-108300057D01*
X132588095Y-108300057D02*
X132635714Y-108252438D01*
X132635714Y-108252438D02*
X132730952Y-108204819D01*
X132730952Y-108204819D02*
X132969047Y-108204819D01*
X132969047Y-108204819D02*
X133064285Y-108252438D01*
X133064285Y-108252438D02*
X133111904Y-108300057D01*
X133111904Y-108300057D02*
X133159523Y-108395295D01*
X133159523Y-108395295D02*
X133159523Y-108490533D01*
X133159523Y-108490533D02*
X133111904Y-108633390D01*
X133111904Y-108633390D02*
X132540476Y-109204819D01*
X132540476Y-109204819D02*
X133159523Y-109204819D01*
X134016666Y-108204819D02*
X133826190Y-108204819D01*
X133826190Y-108204819D02*
X133730952Y-108252438D01*
X133730952Y-108252438D02*
X133683333Y-108300057D01*
X133683333Y-108300057D02*
X133588095Y-108442914D01*
X133588095Y-108442914D02*
X133540476Y-108633390D01*
X133540476Y-108633390D02*
X133540476Y-109014342D01*
X133540476Y-109014342D02*
X133588095Y-109109580D01*
X133588095Y-109109580D02*
X133635714Y-109157200D01*
X133635714Y-109157200D02*
X133730952Y-109204819D01*
X133730952Y-109204819D02*
X133921428Y-109204819D01*
X133921428Y-109204819D02*
X134016666Y-109157200D01*
X134016666Y-109157200D02*
X134064285Y-109109580D01*
X134064285Y-109109580D02*
X134111904Y-109014342D01*
X134111904Y-109014342D02*
X134111904Y-108776247D01*
X134111904Y-108776247D02*
X134064285Y-108681009D01*
X134064285Y-108681009D02*
X134016666Y-108633390D01*
X134016666Y-108633390D02*
X133921428Y-108585771D01*
X133921428Y-108585771D02*
X133730952Y-108585771D01*
X133730952Y-108585771D02*
X133635714Y-108633390D01*
X133635714Y-108633390D02*
X133588095Y-108681009D01*
X133588095Y-108681009D02*
X133540476Y-108776247D01*
X105457142Y-146859580D02*
X105409523Y-146907200D01*
X105409523Y-146907200D02*
X105266666Y-146954819D01*
X105266666Y-146954819D02*
X105171428Y-146954819D01*
X105171428Y-146954819D02*
X105028571Y-146907200D01*
X105028571Y-146907200D02*
X104933333Y-146811961D01*
X104933333Y-146811961D02*
X104885714Y-146716723D01*
X104885714Y-146716723D02*
X104838095Y-146526247D01*
X104838095Y-146526247D02*
X104838095Y-146383390D01*
X104838095Y-146383390D02*
X104885714Y-146192914D01*
X104885714Y-146192914D02*
X104933333Y-146097676D01*
X104933333Y-146097676D02*
X105028571Y-146002438D01*
X105028571Y-146002438D02*
X105171428Y-145954819D01*
X105171428Y-145954819D02*
X105266666Y-145954819D01*
X105266666Y-145954819D02*
X105409523Y-146002438D01*
X105409523Y-146002438D02*
X105457142Y-146050057D01*
X105838095Y-146050057D02*
X105885714Y-146002438D01*
X105885714Y-146002438D02*
X105980952Y-145954819D01*
X105980952Y-145954819D02*
X106219047Y-145954819D01*
X106219047Y-145954819D02*
X106314285Y-146002438D01*
X106314285Y-146002438D02*
X106361904Y-146050057D01*
X106361904Y-146050057D02*
X106409523Y-146145295D01*
X106409523Y-146145295D02*
X106409523Y-146240533D01*
X106409523Y-146240533D02*
X106361904Y-146383390D01*
X106361904Y-146383390D02*
X105790476Y-146954819D01*
X105790476Y-146954819D02*
X106409523Y-146954819D01*
X106742857Y-145954819D02*
X107361904Y-145954819D01*
X107361904Y-145954819D02*
X107028571Y-146335771D01*
X107028571Y-146335771D02*
X107171428Y-146335771D01*
X107171428Y-146335771D02*
X107266666Y-146383390D01*
X107266666Y-146383390D02*
X107314285Y-146431009D01*
X107314285Y-146431009D02*
X107361904Y-146526247D01*
X107361904Y-146526247D02*
X107361904Y-146764342D01*
X107361904Y-146764342D02*
X107314285Y-146859580D01*
X107314285Y-146859580D02*
X107266666Y-146907200D01*
X107266666Y-146907200D02*
X107171428Y-146954819D01*
X107171428Y-146954819D02*
X106885714Y-146954819D01*
X106885714Y-146954819D02*
X106790476Y-146907200D01*
X106790476Y-146907200D02*
X106742857Y-146859580D01*
X106107142Y-126459580D02*
X106059523Y-126507200D01*
X106059523Y-126507200D02*
X105916666Y-126554819D01*
X105916666Y-126554819D02*
X105821428Y-126554819D01*
X105821428Y-126554819D02*
X105678571Y-126507200D01*
X105678571Y-126507200D02*
X105583333Y-126411961D01*
X105583333Y-126411961D02*
X105535714Y-126316723D01*
X105535714Y-126316723D02*
X105488095Y-126126247D01*
X105488095Y-126126247D02*
X105488095Y-125983390D01*
X105488095Y-125983390D02*
X105535714Y-125792914D01*
X105535714Y-125792914D02*
X105583333Y-125697676D01*
X105583333Y-125697676D02*
X105678571Y-125602438D01*
X105678571Y-125602438D02*
X105821428Y-125554819D01*
X105821428Y-125554819D02*
X105916666Y-125554819D01*
X105916666Y-125554819D02*
X106059523Y-125602438D01*
X106059523Y-125602438D02*
X106107142Y-125650057D01*
X106488095Y-125650057D02*
X106535714Y-125602438D01*
X106535714Y-125602438D02*
X106630952Y-125554819D01*
X106630952Y-125554819D02*
X106869047Y-125554819D01*
X106869047Y-125554819D02*
X106964285Y-125602438D01*
X106964285Y-125602438D02*
X107011904Y-125650057D01*
X107011904Y-125650057D02*
X107059523Y-125745295D01*
X107059523Y-125745295D02*
X107059523Y-125840533D01*
X107059523Y-125840533D02*
X107011904Y-125983390D01*
X107011904Y-125983390D02*
X106440476Y-126554819D01*
X106440476Y-126554819D02*
X107059523Y-126554819D01*
X107440476Y-125650057D02*
X107488095Y-125602438D01*
X107488095Y-125602438D02*
X107583333Y-125554819D01*
X107583333Y-125554819D02*
X107821428Y-125554819D01*
X107821428Y-125554819D02*
X107916666Y-125602438D01*
X107916666Y-125602438D02*
X107964285Y-125650057D01*
X107964285Y-125650057D02*
X108011904Y-125745295D01*
X108011904Y-125745295D02*
X108011904Y-125840533D01*
X108011904Y-125840533D02*
X107964285Y-125983390D01*
X107964285Y-125983390D02*
X107392857Y-126554819D01*
X107392857Y-126554819D02*
X108011904Y-126554819D01*
X131957142Y-98609580D02*
X131909523Y-98657200D01*
X131909523Y-98657200D02*
X131766666Y-98704819D01*
X131766666Y-98704819D02*
X131671428Y-98704819D01*
X131671428Y-98704819D02*
X131528571Y-98657200D01*
X131528571Y-98657200D02*
X131433333Y-98561961D01*
X131433333Y-98561961D02*
X131385714Y-98466723D01*
X131385714Y-98466723D02*
X131338095Y-98276247D01*
X131338095Y-98276247D02*
X131338095Y-98133390D01*
X131338095Y-98133390D02*
X131385714Y-97942914D01*
X131385714Y-97942914D02*
X131433333Y-97847676D01*
X131433333Y-97847676D02*
X131528571Y-97752438D01*
X131528571Y-97752438D02*
X131671428Y-97704819D01*
X131671428Y-97704819D02*
X131766666Y-97704819D01*
X131766666Y-97704819D02*
X131909523Y-97752438D01*
X131909523Y-97752438D02*
X131957142Y-97800057D01*
X132909523Y-98704819D02*
X132338095Y-98704819D01*
X132623809Y-98704819D02*
X132623809Y-97704819D01*
X132623809Y-97704819D02*
X132528571Y-97847676D01*
X132528571Y-97847676D02*
X132433333Y-97942914D01*
X132433333Y-97942914D02*
X132338095Y-97990533D01*
X133480952Y-98133390D02*
X133385714Y-98085771D01*
X133385714Y-98085771D02*
X133338095Y-98038152D01*
X133338095Y-98038152D02*
X133290476Y-97942914D01*
X133290476Y-97942914D02*
X133290476Y-97895295D01*
X133290476Y-97895295D02*
X133338095Y-97800057D01*
X133338095Y-97800057D02*
X133385714Y-97752438D01*
X133385714Y-97752438D02*
X133480952Y-97704819D01*
X133480952Y-97704819D02*
X133671428Y-97704819D01*
X133671428Y-97704819D02*
X133766666Y-97752438D01*
X133766666Y-97752438D02*
X133814285Y-97800057D01*
X133814285Y-97800057D02*
X133861904Y-97895295D01*
X133861904Y-97895295D02*
X133861904Y-97942914D01*
X133861904Y-97942914D02*
X133814285Y-98038152D01*
X133814285Y-98038152D02*
X133766666Y-98085771D01*
X133766666Y-98085771D02*
X133671428Y-98133390D01*
X133671428Y-98133390D02*
X133480952Y-98133390D01*
X133480952Y-98133390D02*
X133385714Y-98181009D01*
X133385714Y-98181009D02*
X133338095Y-98228628D01*
X133338095Y-98228628D02*
X133290476Y-98323866D01*
X133290476Y-98323866D02*
X133290476Y-98514342D01*
X133290476Y-98514342D02*
X133338095Y-98609580D01*
X133338095Y-98609580D02*
X133385714Y-98657200D01*
X133385714Y-98657200D02*
X133480952Y-98704819D01*
X133480952Y-98704819D02*
X133671428Y-98704819D01*
X133671428Y-98704819D02*
X133766666Y-98657200D01*
X133766666Y-98657200D02*
X133814285Y-98609580D01*
X133814285Y-98609580D02*
X133861904Y-98514342D01*
X133861904Y-98514342D02*
X133861904Y-98323866D01*
X133861904Y-98323866D02*
X133814285Y-98228628D01*
X133814285Y-98228628D02*
X133766666Y-98181009D01*
X133766666Y-98181009D02*
X133671428Y-98133390D01*
X132207142Y-77359580D02*
X132159523Y-77407200D01*
X132159523Y-77407200D02*
X132016666Y-77454819D01*
X132016666Y-77454819D02*
X131921428Y-77454819D01*
X131921428Y-77454819D02*
X131778571Y-77407200D01*
X131778571Y-77407200D02*
X131683333Y-77311961D01*
X131683333Y-77311961D02*
X131635714Y-77216723D01*
X131635714Y-77216723D02*
X131588095Y-77026247D01*
X131588095Y-77026247D02*
X131588095Y-76883390D01*
X131588095Y-76883390D02*
X131635714Y-76692914D01*
X131635714Y-76692914D02*
X131683333Y-76597676D01*
X131683333Y-76597676D02*
X131778571Y-76502438D01*
X131778571Y-76502438D02*
X131921428Y-76454819D01*
X131921428Y-76454819D02*
X132016666Y-76454819D01*
X132016666Y-76454819D02*
X132159523Y-76502438D01*
X132159523Y-76502438D02*
X132207142Y-76550057D01*
X133159523Y-77454819D02*
X132588095Y-77454819D01*
X132873809Y-77454819D02*
X132873809Y-76454819D01*
X132873809Y-76454819D02*
X132778571Y-76597676D01*
X132778571Y-76597676D02*
X132683333Y-76692914D01*
X132683333Y-76692914D02*
X132588095Y-76740533D01*
X133492857Y-76454819D02*
X134159523Y-76454819D01*
X134159523Y-76454819D02*
X133730952Y-77454819D01*
X131957142Y-55609580D02*
X131909523Y-55657200D01*
X131909523Y-55657200D02*
X131766666Y-55704819D01*
X131766666Y-55704819D02*
X131671428Y-55704819D01*
X131671428Y-55704819D02*
X131528571Y-55657200D01*
X131528571Y-55657200D02*
X131433333Y-55561961D01*
X131433333Y-55561961D02*
X131385714Y-55466723D01*
X131385714Y-55466723D02*
X131338095Y-55276247D01*
X131338095Y-55276247D02*
X131338095Y-55133390D01*
X131338095Y-55133390D02*
X131385714Y-54942914D01*
X131385714Y-54942914D02*
X131433333Y-54847676D01*
X131433333Y-54847676D02*
X131528571Y-54752438D01*
X131528571Y-54752438D02*
X131671428Y-54704819D01*
X131671428Y-54704819D02*
X131766666Y-54704819D01*
X131766666Y-54704819D02*
X131909523Y-54752438D01*
X131909523Y-54752438D02*
X131957142Y-54800057D01*
X132909523Y-55704819D02*
X132338095Y-55704819D01*
X132623809Y-55704819D02*
X132623809Y-54704819D01*
X132623809Y-54704819D02*
X132528571Y-54847676D01*
X132528571Y-54847676D02*
X132433333Y-54942914D01*
X132433333Y-54942914D02*
X132338095Y-54990533D01*
X133766666Y-54704819D02*
X133576190Y-54704819D01*
X133576190Y-54704819D02*
X133480952Y-54752438D01*
X133480952Y-54752438D02*
X133433333Y-54800057D01*
X133433333Y-54800057D02*
X133338095Y-54942914D01*
X133338095Y-54942914D02*
X133290476Y-55133390D01*
X133290476Y-55133390D02*
X133290476Y-55514342D01*
X133290476Y-55514342D02*
X133338095Y-55609580D01*
X133338095Y-55609580D02*
X133385714Y-55657200D01*
X133385714Y-55657200D02*
X133480952Y-55704819D01*
X133480952Y-55704819D02*
X133671428Y-55704819D01*
X133671428Y-55704819D02*
X133766666Y-55657200D01*
X133766666Y-55657200D02*
X133814285Y-55609580D01*
X133814285Y-55609580D02*
X133861904Y-55514342D01*
X133861904Y-55514342D02*
X133861904Y-55276247D01*
X133861904Y-55276247D02*
X133814285Y-55181009D01*
X133814285Y-55181009D02*
X133766666Y-55133390D01*
X133766666Y-55133390D02*
X133671428Y-55085771D01*
X133671428Y-55085771D02*
X133480952Y-55085771D01*
X133480952Y-55085771D02*
X133385714Y-55133390D01*
X133385714Y-55133390D02*
X133338095Y-55181009D01*
X133338095Y-55181009D02*
X133290476Y-55276247D01*
X132207142Y-88109580D02*
X132159523Y-88157200D01*
X132159523Y-88157200D02*
X132016666Y-88204819D01*
X132016666Y-88204819D02*
X131921428Y-88204819D01*
X131921428Y-88204819D02*
X131778571Y-88157200D01*
X131778571Y-88157200D02*
X131683333Y-88061961D01*
X131683333Y-88061961D02*
X131635714Y-87966723D01*
X131635714Y-87966723D02*
X131588095Y-87776247D01*
X131588095Y-87776247D02*
X131588095Y-87633390D01*
X131588095Y-87633390D02*
X131635714Y-87442914D01*
X131635714Y-87442914D02*
X131683333Y-87347676D01*
X131683333Y-87347676D02*
X131778571Y-87252438D01*
X131778571Y-87252438D02*
X131921428Y-87204819D01*
X131921428Y-87204819D02*
X132016666Y-87204819D01*
X132016666Y-87204819D02*
X132159523Y-87252438D01*
X132159523Y-87252438D02*
X132207142Y-87300057D01*
X133159523Y-88204819D02*
X132588095Y-88204819D01*
X132873809Y-88204819D02*
X132873809Y-87204819D01*
X132873809Y-87204819D02*
X132778571Y-87347676D01*
X132778571Y-87347676D02*
X132683333Y-87442914D01*
X132683333Y-87442914D02*
X132588095Y-87490533D01*
X133540476Y-87300057D02*
X133588095Y-87252438D01*
X133588095Y-87252438D02*
X133683333Y-87204819D01*
X133683333Y-87204819D02*
X133921428Y-87204819D01*
X133921428Y-87204819D02*
X134016666Y-87252438D01*
X134016666Y-87252438D02*
X134064285Y-87300057D01*
X134064285Y-87300057D02*
X134111904Y-87395295D01*
X134111904Y-87395295D02*
X134111904Y-87490533D01*
X134111904Y-87490533D02*
X134064285Y-87633390D01*
X134064285Y-87633390D02*
X133492857Y-88204819D01*
X133492857Y-88204819D02*
X134111904Y-88204819D01*
X131957142Y-66609580D02*
X131909523Y-66657200D01*
X131909523Y-66657200D02*
X131766666Y-66704819D01*
X131766666Y-66704819D02*
X131671428Y-66704819D01*
X131671428Y-66704819D02*
X131528571Y-66657200D01*
X131528571Y-66657200D02*
X131433333Y-66561961D01*
X131433333Y-66561961D02*
X131385714Y-66466723D01*
X131385714Y-66466723D02*
X131338095Y-66276247D01*
X131338095Y-66276247D02*
X131338095Y-66133390D01*
X131338095Y-66133390D02*
X131385714Y-65942914D01*
X131385714Y-65942914D02*
X131433333Y-65847676D01*
X131433333Y-65847676D02*
X131528571Y-65752438D01*
X131528571Y-65752438D02*
X131671428Y-65704819D01*
X131671428Y-65704819D02*
X131766666Y-65704819D01*
X131766666Y-65704819D02*
X131909523Y-65752438D01*
X131909523Y-65752438D02*
X131957142Y-65800057D01*
X132909523Y-66704819D02*
X132338095Y-66704819D01*
X132623809Y-66704819D02*
X132623809Y-65704819D01*
X132623809Y-65704819D02*
X132528571Y-65847676D01*
X132528571Y-65847676D02*
X132433333Y-65942914D01*
X132433333Y-65942914D02*
X132338095Y-65990533D01*
X133861904Y-66704819D02*
X133290476Y-66704819D01*
X133576190Y-66704819D02*
X133576190Y-65704819D01*
X133576190Y-65704819D02*
X133480952Y-65847676D01*
X133480952Y-65847676D02*
X133385714Y-65942914D01*
X133385714Y-65942914D02*
X133290476Y-65990533D01*
X132207142Y-45109580D02*
X132159523Y-45157200D01*
X132159523Y-45157200D02*
X132016666Y-45204819D01*
X132016666Y-45204819D02*
X131921428Y-45204819D01*
X131921428Y-45204819D02*
X131778571Y-45157200D01*
X131778571Y-45157200D02*
X131683333Y-45061961D01*
X131683333Y-45061961D02*
X131635714Y-44966723D01*
X131635714Y-44966723D02*
X131588095Y-44776247D01*
X131588095Y-44776247D02*
X131588095Y-44633390D01*
X131588095Y-44633390D02*
X131635714Y-44442914D01*
X131635714Y-44442914D02*
X131683333Y-44347676D01*
X131683333Y-44347676D02*
X131778571Y-44252438D01*
X131778571Y-44252438D02*
X131921428Y-44204819D01*
X131921428Y-44204819D02*
X132016666Y-44204819D01*
X132016666Y-44204819D02*
X132159523Y-44252438D01*
X132159523Y-44252438D02*
X132207142Y-44300057D01*
X133159523Y-45204819D02*
X132588095Y-45204819D01*
X132873809Y-45204819D02*
X132873809Y-44204819D01*
X132873809Y-44204819D02*
X132778571Y-44347676D01*
X132778571Y-44347676D02*
X132683333Y-44442914D01*
X132683333Y-44442914D02*
X132588095Y-44490533D01*
X133778571Y-44204819D02*
X133873809Y-44204819D01*
X133873809Y-44204819D02*
X133969047Y-44252438D01*
X133969047Y-44252438D02*
X134016666Y-44300057D01*
X134016666Y-44300057D02*
X134064285Y-44395295D01*
X134064285Y-44395295D02*
X134111904Y-44585771D01*
X134111904Y-44585771D02*
X134111904Y-44823866D01*
X134111904Y-44823866D02*
X134064285Y-45014342D01*
X134064285Y-45014342D02*
X134016666Y-45109580D01*
X134016666Y-45109580D02*
X133969047Y-45157200D01*
X133969047Y-45157200D02*
X133873809Y-45204819D01*
X133873809Y-45204819D02*
X133778571Y-45204819D01*
X133778571Y-45204819D02*
X133683333Y-45157200D01*
X133683333Y-45157200D02*
X133635714Y-45109580D01*
X133635714Y-45109580D02*
X133588095Y-45014342D01*
X133588095Y-45014342D02*
X133540476Y-44823866D01*
X133540476Y-44823866D02*
X133540476Y-44585771D01*
X133540476Y-44585771D02*
X133588095Y-44395295D01*
X133588095Y-44395295D02*
X133635714Y-44300057D01*
X133635714Y-44300057D02*
X133683333Y-44252438D01*
X133683333Y-44252438D02*
X133778571Y-44204819D01*
X106920833Y-105209580D02*
X106873214Y-105257200D01*
X106873214Y-105257200D02*
X106730357Y-105304819D01*
X106730357Y-105304819D02*
X106635119Y-105304819D01*
X106635119Y-105304819D02*
X106492262Y-105257200D01*
X106492262Y-105257200D02*
X106397024Y-105161961D01*
X106397024Y-105161961D02*
X106349405Y-105066723D01*
X106349405Y-105066723D02*
X106301786Y-104876247D01*
X106301786Y-104876247D02*
X106301786Y-104733390D01*
X106301786Y-104733390D02*
X106349405Y-104542914D01*
X106349405Y-104542914D02*
X106397024Y-104447676D01*
X106397024Y-104447676D02*
X106492262Y-104352438D01*
X106492262Y-104352438D02*
X106635119Y-104304819D01*
X106635119Y-104304819D02*
X106730357Y-104304819D01*
X106730357Y-104304819D02*
X106873214Y-104352438D01*
X106873214Y-104352438D02*
X106920833Y-104400057D01*
X107777976Y-104304819D02*
X107587500Y-104304819D01*
X107587500Y-104304819D02*
X107492262Y-104352438D01*
X107492262Y-104352438D02*
X107444643Y-104400057D01*
X107444643Y-104400057D02*
X107349405Y-104542914D01*
X107349405Y-104542914D02*
X107301786Y-104733390D01*
X107301786Y-104733390D02*
X107301786Y-105114342D01*
X107301786Y-105114342D02*
X107349405Y-105209580D01*
X107349405Y-105209580D02*
X107397024Y-105257200D01*
X107397024Y-105257200D02*
X107492262Y-105304819D01*
X107492262Y-105304819D02*
X107682738Y-105304819D01*
X107682738Y-105304819D02*
X107777976Y-105257200D01*
X107777976Y-105257200D02*
X107825595Y-105209580D01*
X107825595Y-105209580D02*
X107873214Y-105114342D01*
X107873214Y-105114342D02*
X107873214Y-104876247D01*
X107873214Y-104876247D02*
X107825595Y-104781009D01*
X107825595Y-104781009D02*
X107777976Y-104733390D01*
X107777976Y-104733390D02*
X107682738Y-104685771D01*
X107682738Y-104685771D02*
X107492262Y-104685771D01*
X107492262Y-104685771D02*
X107397024Y-104733390D01*
X107397024Y-104733390D02*
X107349405Y-104781009D01*
X107349405Y-104781009D02*
X107301786Y-104876247D01*
X106483333Y-84359580D02*
X106435714Y-84407200D01*
X106435714Y-84407200D02*
X106292857Y-84454819D01*
X106292857Y-84454819D02*
X106197619Y-84454819D01*
X106197619Y-84454819D02*
X106054762Y-84407200D01*
X106054762Y-84407200D02*
X105959524Y-84311961D01*
X105959524Y-84311961D02*
X105911905Y-84216723D01*
X105911905Y-84216723D02*
X105864286Y-84026247D01*
X105864286Y-84026247D02*
X105864286Y-83883390D01*
X105864286Y-83883390D02*
X105911905Y-83692914D01*
X105911905Y-83692914D02*
X105959524Y-83597676D01*
X105959524Y-83597676D02*
X106054762Y-83502438D01*
X106054762Y-83502438D02*
X106197619Y-83454819D01*
X106197619Y-83454819D02*
X106292857Y-83454819D01*
X106292857Y-83454819D02*
X106435714Y-83502438D01*
X106435714Y-83502438D02*
X106483333Y-83550057D01*
X107388095Y-83454819D02*
X106911905Y-83454819D01*
X106911905Y-83454819D02*
X106864286Y-83931009D01*
X106864286Y-83931009D02*
X106911905Y-83883390D01*
X106911905Y-83883390D02*
X107007143Y-83835771D01*
X107007143Y-83835771D02*
X107245238Y-83835771D01*
X107245238Y-83835771D02*
X107340476Y-83883390D01*
X107340476Y-83883390D02*
X107388095Y-83931009D01*
X107388095Y-83931009D02*
X107435714Y-84026247D01*
X107435714Y-84026247D02*
X107435714Y-84264342D01*
X107435714Y-84264342D02*
X107388095Y-84359580D01*
X107388095Y-84359580D02*
X107340476Y-84407200D01*
X107340476Y-84407200D02*
X107245238Y-84454819D01*
X107245238Y-84454819D02*
X107007143Y-84454819D01*
X107007143Y-84454819D02*
X106911905Y-84407200D01*
X106911905Y-84407200D02*
X106864286Y-84359580D01*
X105957142Y-64609580D02*
X105909523Y-64657200D01*
X105909523Y-64657200D02*
X105766666Y-64704819D01*
X105766666Y-64704819D02*
X105671428Y-64704819D01*
X105671428Y-64704819D02*
X105528571Y-64657200D01*
X105528571Y-64657200D02*
X105433333Y-64561961D01*
X105433333Y-64561961D02*
X105385714Y-64466723D01*
X105385714Y-64466723D02*
X105338095Y-64276247D01*
X105338095Y-64276247D02*
X105338095Y-64133390D01*
X105338095Y-64133390D02*
X105385714Y-63942914D01*
X105385714Y-63942914D02*
X105433333Y-63847676D01*
X105433333Y-63847676D02*
X105528571Y-63752438D01*
X105528571Y-63752438D02*
X105671428Y-63704819D01*
X105671428Y-63704819D02*
X105766666Y-63704819D01*
X105766666Y-63704819D02*
X105909523Y-63752438D01*
X105909523Y-63752438D02*
X105957142Y-63800057D01*
X106290476Y-63704819D02*
X106909523Y-63704819D01*
X106909523Y-63704819D02*
X106576190Y-64085771D01*
X106576190Y-64085771D02*
X106719047Y-64085771D01*
X106719047Y-64085771D02*
X106814285Y-64133390D01*
X106814285Y-64133390D02*
X106861904Y-64181009D01*
X106861904Y-64181009D02*
X106909523Y-64276247D01*
X106909523Y-64276247D02*
X106909523Y-64514342D01*
X106909523Y-64514342D02*
X106861904Y-64609580D01*
X106861904Y-64609580D02*
X106814285Y-64657200D01*
X106814285Y-64657200D02*
X106719047Y-64704819D01*
X106719047Y-64704819D02*
X106433333Y-64704819D01*
X106433333Y-64704819D02*
X106338095Y-64657200D01*
X106338095Y-64657200D02*
X106290476Y-64609580D01*
X107290476Y-63800057D02*
X107338095Y-63752438D01*
X107338095Y-63752438D02*
X107433333Y-63704819D01*
X107433333Y-63704819D02*
X107671428Y-63704819D01*
X107671428Y-63704819D02*
X107766666Y-63752438D01*
X107766666Y-63752438D02*
X107814285Y-63800057D01*
X107814285Y-63800057D02*
X107861904Y-63895295D01*
X107861904Y-63895295D02*
X107861904Y-63990533D01*
X107861904Y-63990533D02*
X107814285Y-64133390D01*
X107814285Y-64133390D02*
X107242857Y-64704819D01*
X107242857Y-64704819D02*
X107861904Y-64704819D01*
X107033333Y-62359580D02*
X106985714Y-62407200D01*
X106985714Y-62407200D02*
X106842857Y-62454819D01*
X106842857Y-62454819D02*
X106747619Y-62454819D01*
X106747619Y-62454819D02*
X106604762Y-62407200D01*
X106604762Y-62407200D02*
X106509524Y-62311961D01*
X106509524Y-62311961D02*
X106461905Y-62216723D01*
X106461905Y-62216723D02*
X106414286Y-62026247D01*
X106414286Y-62026247D02*
X106414286Y-61883390D01*
X106414286Y-61883390D02*
X106461905Y-61692914D01*
X106461905Y-61692914D02*
X106509524Y-61597676D01*
X106509524Y-61597676D02*
X106604762Y-61502438D01*
X106604762Y-61502438D02*
X106747619Y-61454819D01*
X106747619Y-61454819D02*
X106842857Y-61454819D01*
X106842857Y-61454819D02*
X106985714Y-61502438D01*
X106985714Y-61502438D02*
X107033333Y-61550057D01*
X107890476Y-61788152D02*
X107890476Y-62454819D01*
X107652381Y-61407200D02*
X107414286Y-62121485D01*
X107414286Y-62121485D02*
X108033333Y-62121485D01*
X87299405Y-136554819D02*
X87299405Y-135554819D01*
X87299405Y-135554819D02*
X87537500Y-135554819D01*
X87537500Y-135554819D02*
X87680357Y-135602438D01*
X87680357Y-135602438D02*
X87775595Y-135697676D01*
X87775595Y-135697676D02*
X87823214Y-135792914D01*
X87823214Y-135792914D02*
X87870833Y-135983390D01*
X87870833Y-135983390D02*
X87870833Y-136126247D01*
X87870833Y-136126247D02*
X87823214Y-136316723D01*
X87823214Y-136316723D02*
X87775595Y-136411961D01*
X87775595Y-136411961D02*
X87680357Y-136507200D01*
X87680357Y-136507200D02*
X87537500Y-136554819D01*
X87537500Y-136554819D02*
X87299405Y-136554819D01*
X88775595Y-135554819D02*
X88299405Y-135554819D01*
X88299405Y-135554819D02*
X88251786Y-136031009D01*
X88251786Y-136031009D02*
X88299405Y-135983390D01*
X88299405Y-135983390D02*
X88394643Y-135935771D01*
X88394643Y-135935771D02*
X88632738Y-135935771D01*
X88632738Y-135935771D02*
X88727976Y-135983390D01*
X88727976Y-135983390D02*
X88775595Y-136031009D01*
X88775595Y-136031009D02*
X88823214Y-136126247D01*
X88823214Y-136126247D02*
X88823214Y-136364342D01*
X88823214Y-136364342D02*
X88775595Y-136459580D01*
X88775595Y-136459580D02*
X88727976Y-136507200D01*
X88727976Y-136507200D02*
X88632738Y-136554819D01*
X88632738Y-136554819D02*
X88394643Y-136554819D01*
X88394643Y-136554819D02*
X88299405Y-136507200D01*
X88299405Y-136507200D02*
X88251786Y-136459580D01*
X88675595Y-143864819D02*
X88675595Y-142864819D01*
X89247023Y-143864819D02*
X88818452Y-143293390D01*
X89247023Y-142864819D02*
X88675595Y-143436247D01*
X95367261Y-44450057D02*
X95272023Y-44402438D01*
X95272023Y-44402438D02*
X95176785Y-44307200D01*
X95176785Y-44307200D02*
X95033928Y-44164342D01*
X95033928Y-44164342D02*
X94938690Y-44116723D01*
X94938690Y-44116723D02*
X94843452Y-44116723D01*
X94891071Y-44354819D02*
X94795833Y-44307200D01*
X94795833Y-44307200D02*
X94700595Y-44211961D01*
X94700595Y-44211961D02*
X94652976Y-44021485D01*
X94652976Y-44021485D02*
X94652976Y-43688152D01*
X94652976Y-43688152D02*
X94700595Y-43497676D01*
X94700595Y-43497676D02*
X94795833Y-43402438D01*
X94795833Y-43402438D02*
X94891071Y-43354819D01*
X94891071Y-43354819D02*
X95081547Y-43354819D01*
X95081547Y-43354819D02*
X95176785Y-43402438D01*
X95176785Y-43402438D02*
X95272023Y-43497676D01*
X95272023Y-43497676D02*
X95319642Y-43688152D01*
X95319642Y-43688152D02*
X95319642Y-44021485D01*
X95319642Y-44021485D02*
X95272023Y-44211961D01*
X95272023Y-44211961D02*
X95176785Y-44307200D01*
X95176785Y-44307200D02*
X95081547Y-44354819D01*
X95081547Y-44354819D02*
X94891071Y-44354819D01*
X96272023Y-44354819D02*
X95700595Y-44354819D01*
X95986309Y-44354819D02*
X95986309Y-43354819D01*
X95986309Y-43354819D02*
X95891071Y-43497676D01*
X95891071Y-43497676D02*
X95795833Y-43592914D01*
X95795833Y-43592914D02*
X95700595Y-43640533D01*
X87133333Y-68454819D02*
X86800000Y-67978628D01*
X86561905Y-68454819D02*
X86561905Y-67454819D01*
X86561905Y-67454819D02*
X86942857Y-67454819D01*
X86942857Y-67454819D02*
X87038095Y-67502438D01*
X87038095Y-67502438D02*
X87085714Y-67550057D01*
X87085714Y-67550057D02*
X87133333Y-67645295D01*
X87133333Y-67645295D02*
X87133333Y-67788152D01*
X87133333Y-67788152D02*
X87085714Y-67883390D01*
X87085714Y-67883390D02*
X87038095Y-67931009D01*
X87038095Y-67931009D02*
X86942857Y-67978628D01*
X86942857Y-67978628D02*
X86561905Y-67978628D01*
X87514286Y-67550057D02*
X87561905Y-67502438D01*
X87561905Y-67502438D02*
X87657143Y-67454819D01*
X87657143Y-67454819D02*
X87895238Y-67454819D01*
X87895238Y-67454819D02*
X87990476Y-67502438D01*
X87990476Y-67502438D02*
X88038095Y-67550057D01*
X88038095Y-67550057D02*
X88085714Y-67645295D01*
X88085714Y-67645295D02*
X88085714Y-67740533D01*
X88085714Y-67740533D02*
X88038095Y-67883390D01*
X88038095Y-67883390D02*
X87466667Y-68454819D01*
X87466667Y-68454819D02*
X88085714Y-68454819D01*
X87533333Y-45354819D02*
X87200000Y-44878628D01*
X86961905Y-45354819D02*
X86961905Y-44354819D01*
X86961905Y-44354819D02*
X87342857Y-44354819D01*
X87342857Y-44354819D02*
X87438095Y-44402438D01*
X87438095Y-44402438D02*
X87485714Y-44450057D01*
X87485714Y-44450057D02*
X87533333Y-44545295D01*
X87533333Y-44545295D02*
X87533333Y-44688152D01*
X87533333Y-44688152D02*
X87485714Y-44783390D01*
X87485714Y-44783390D02*
X87438095Y-44831009D01*
X87438095Y-44831009D02*
X87342857Y-44878628D01*
X87342857Y-44878628D02*
X86961905Y-44878628D01*
X88485714Y-45354819D02*
X87914286Y-45354819D01*
X88200000Y-45354819D02*
X88200000Y-44354819D01*
X88200000Y-44354819D02*
X88104762Y-44497676D01*
X88104762Y-44497676D02*
X88009524Y-44592914D01*
X88009524Y-44592914D02*
X87914286Y-44640533D01*
X96167261Y-87350057D02*
X96072023Y-87302438D01*
X96072023Y-87302438D02*
X95976785Y-87207200D01*
X95976785Y-87207200D02*
X95833928Y-87064342D01*
X95833928Y-87064342D02*
X95738690Y-87016723D01*
X95738690Y-87016723D02*
X95643452Y-87016723D01*
X95691071Y-87254819D02*
X95595833Y-87207200D01*
X95595833Y-87207200D02*
X95500595Y-87111961D01*
X95500595Y-87111961D02*
X95452976Y-86921485D01*
X95452976Y-86921485D02*
X95452976Y-86588152D01*
X95452976Y-86588152D02*
X95500595Y-86397676D01*
X95500595Y-86397676D02*
X95595833Y-86302438D01*
X95595833Y-86302438D02*
X95691071Y-86254819D01*
X95691071Y-86254819D02*
X95881547Y-86254819D01*
X95881547Y-86254819D02*
X95976785Y-86302438D01*
X95976785Y-86302438D02*
X96072023Y-86397676D01*
X96072023Y-86397676D02*
X96119642Y-86588152D01*
X96119642Y-86588152D02*
X96119642Y-86921485D01*
X96119642Y-86921485D02*
X96072023Y-87111961D01*
X96072023Y-87111961D02*
X95976785Y-87207200D01*
X95976785Y-87207200D02*
X95881547Y-87254819D01*
X95881547Y-87254819D02*
X95691071Y-87254819D01*
X96452976Y-86254819D02*
X97072023Y-86254819D01*
X97072023Y-86254819D02*
X96738690Y-86635771D01*
X96738690Y-86635771D02*
X96881547Y-86635771D01*
X96881547Y-86635771D02*
X96976785Y-86683390D01*
X96976785Y-86683390D02*
X97024404Y-86731009D01*
X97024404Y-86731009D02*
X97072023Y-86826247D01*
X97072023Y-86826247D02*
X97072023Y-87064342D01*
X97072023Y-87064342D02*
X97024404Y-87159580D01*
X97024404Y-87159580D02*
X96976785Y-87207200D01*
X96976785Y-87207200D02*
X96881547Y-87254819D01*
X96881547Y-87254819D02*
X96595833Y-87254819D01*
X96595833Y-87254819D02*
X96500595Y-87207200D01*
X96500595Y-87207200D02*
X96452976Y-87159580D01*
X87233333Y-70754819D02*
X86900000Y-70278628D01*
X86661905Y-70754819D02*
X86661905Y-69754819D01*
X86661905Y-69754819D02*
X87042857Y-69754819D01*
X87042857Y-69754819D02*
X87138095Y-69802438D01*
X87138095Y-69802438D02*
X87185714Y-69850057D01*
X87185714Y-69850057D02*
X87233333Y-69945295D01*
X87233333Y-69945295D02*
X87233333Y-70088152D01*
X87233333Y-70088152D02*
X87185714Y-70183390D01*
X87185714Y-70183390D02*
X87138095Y-70231009D01*
X87138095Y-70231009D02*
X87042857Y-70278628D01*
X87042857Y-70278628D02*
X86661905Y-70278628D01*
X88138095Y-69754819D02*
X87661905Y-69754819D01*
X87661905Y-69754819D02*
X87614286Y-70231009D01*
X87614286Y-70231009D02*
X87661905Y-70183390D01*
X87661905Y-70183390D02*
X87757143Y-70135771D01*
X87757143Y-70135771D02*
X87995238Y-70135771D01*
X87995238Y-70135771D02*
X88090476Y-70183390D01*
X88090476Y-70183390D02*
X88138095Y-70231009D01*
X88138095Y-70231009D02*
X88185714Y-70326247D01*
X88185714Y-70326247D02*
X88185714Y-70564342D01*
X88185714Y-70564342D02*
X88138095Y-70659580D01*
X88138095Y-70659580D02*
X88090476Y-70707200D01*
X88090476Y-70707200D02*
X87995238Y-70754819D01*
X87995238Y-70754819D02*
X87757143Y-70754819D01*
X87757143Y-70754819D02*
X87661905Y-70707200D01*
X87661905Y-70707200D02*
X87614286Y-70659580D01*
X82366666Y-49154819D02*
X82366666Y-49869104D01*
X82366666Y-49869104D02*
X82319047Y-50011961D01*
X82319047Y-50011961D02*
X82223809Y-50107200D01*
X82223809Y-50107200D02*
X82080952Y-50154819D01*
X82080952Y-50154819D02*
X81985714Y-50154819D01*
X82985714Y-49583390D02*
X82890476Y-49535771D01*
X82890476Y-49535771D02*
X82842857Y-49488152D01*
X82842857Y-49488152D02*
X82795238Y-49392914D01*
X82795238Y-49392914D02*
X82795238Y-49345295D01*
X82795238Y-49345295D02*
X82842857Y-49250057D01*
X82842857Y-49250057D02*
X82890476Y-49202438D01*
X82890476Y-49202438D02*
X82985714Y-49154819D01*
X82985714Y-49154819D02*
X83176190Y-49154819D01*
X83176190Y-49154819D02*
X83271428Y-49202438D01*
X83271428Y-49202438D02*
X83319047Y-49250057D01*
X83319047Y-49250057D02*
X83366666Y-49345295D01*
X83366666Y-49345295D02*
X83366666Y-49392914D01*
X83366666Y-49392914D02*
X83319047Y-49488152D01*
X83319047Y-49488152D02*
X83271428Y-49535771D01*
X83271428Y-49535771D02*
X83176190Y-49583390D01*
X83176190Y-49583390D02*
X82985714Y-49583390D01*
X82985714Y-49583390D02*
X82890476Y-49631009D01*
X82890476Y-49631009D02*
X82842857Y-49678628D01*
X82842857Y-49678628D02*
X82795238Y-49773866D01*
X82795238Y-49773866D02*
X82795238Y-49964342D01*
X82795238Y-49964342D02*
X82842857Y-50059580D01*
X82842857Y-50059580D02*
X82890476Y-50107200D01*
X82890476Y-50107200D02*
X82985714Y-50154819D01*
X82985714Y-50154819D02*
X83176190Y-50154819D01*
X83176190Y-50154819D02*
X83271428Y-50107200D01*
X83271428Y-50107200D02*
X83319047Y-50059580D01*
X83319047Y-50059580D02*
X83366666Y-49964342D01*
X83366666Y-49964342D02*
X83366666Y-49773866D01*
X83366666Y-49773866D02*
X83319047Y-49678628D01*
X83319047Y-49678628D02*
X83271428Y-49631009D01*
X83271428Y-49631009D02*
X83176190Y-49583390D01*
X106261905Y-71354819D02*
X106261905Y-70354819D01*
X106833333Y-71354819D02*
X106404762Y-70783390D01*
X106833333Y-70354819D02*
X106261905Y-70926247D01*
X107214286Y-70450057D02*
X107261905Y-70402438D01*
X107261905Y-70402438D02*
X107357143Y-70354819D01*
X107357143Y-70354819D02*
X107595238Y-70354819D01*
X107595238Y-70354819D02*
X107690476Y-70402438D01*
X107690476Y-70402438D02*
X107738095Y-70450057D01*
X107738095Y-70450057D02*
X107785714Y-70545295D01*
X107785714Y-70545295D02*
X107785714Y-70640533D01*
X107785714Y-70640533D02*
X107738095Y-70783390D01*
X107738095Y-70783390D02*
X107166667Y-71354819D01*
X107166667Y-71354819D02*
X107785714Y-71354819D01*
X116933333Y-97454819D02*
X116457143Y-97454819D01*
X116457143Y-97454819D02*
X116457143Y-96454819D01*
X117171429Y-96454819D02*
X117790476Y-96454819D01*
X117790476Y-96454819D02*
X117457143Y-96835771D01*
X117457143Y-96835771D02*
X117600000Y-96835771D01*
X117600000Y-96835771D02*
X117695238Y-96883390D01*
X117695238Y-96883390D02*
X117742857Y-96931009D01*
X117742857Y-96931009D02*
X117790476Y-97026247D01*
X117790476Y-97026247D02*
X117790476Y-97264342D01*
X117790476Y-97264342D02*
X117742857Y-97359580D01*
X117742857Y-97359580D02*
X117695238Y-97407200D01*
X117695238Y-97407200D02*
X117600000Y-97454819D01*
X117600000Y-97454819D02*
X117314286Y-97454819D01*
X117314286Y-97454819D02*
X117219048Y-97407200D01*
X117219048Y-97407200D02*
X117171429Y-97359580D01*
X86561905Y-51054819D02*
X86561905Y-50054819D01*
X86561905Y-50054819D02*
X86800000Y-50054819D01*
X86800000Y-50054819D02*
X86942857Y-50102438D01*
X86942857Y-50102438D02*
X87038095Y-50197676D01*
X87038095Y-50197676D02*
X87085714Y-50292914D01*
X87085714Y-50292914D02*
X87133333Y-50483390D01*
X87133333Y-50483390D02*
X87133333Y-50626247D01*
X87133333Y-50626247D02*
X87085714Y-50816723D01*
X87085714Y-50816723D02*
X87038095Y-50911961D01*
X87038095Y-50911961D02*
X86942857Y-51007200D01*
X86942857Y-51007200D02*
X86800000Y-51054819D01*
X86800000Y-51054819D02*
X86561905Y-51054819D01*
X88085714Y-51054819D02*
X87514286Y-51054819D01*
X87800000Y-51054819D02*
X87800000Y-50054819D01*
X87800000Y-50054819D02*
X87704762Y-50197676D01*
X87704762Y-50197676D02*
X87609524Y-50292914D01*
X87609524Y-50292914D02*
X87514286Y-50340533D01*
X87338095Y-58854819D02*
X87338095Y-57854819D01*
X87909523Y-58854819D02*
X87480952Y-58283390D01*
X87909523Y-57854819D02*
X87338095Y-58426247D01*
X81766666Y-132524819D02*
X81766666Y-133239104D01*
X81766666Y-133239104D02*
X81719047Y-133381961D01*
X81719047Y-133381961D02*
X81623809Y-133477200D01*
X81623809Y-133477200D02*
X81480952Y-133524819D01*
X81480952Y-133524819D02*
X81385714Y-133524819D01*
X82195238Y-132620057D02*
X82242857Y-132572438D01*
X82242857Y-132572438D02*
X82338095Y-132524819D01*
X82338095Y-132524819D02*
X82576190Y-132524819D01*
X82576190Y-132524819D02*
X82671428Y-132572438D01*
X82671428Y-132572438D02*
X82719047Y-132620057D01*
X82719047Y-132620057D02*
X82766666Y-132715295D01*
X82766666Y-132715295D02*
X82766666Y-132810533D01*
X82766666Y-132810533D02*
X82719047Y-132953390D01*
X82719047Y-132953390D02*
X82147619Y-133524819D01*
X82147619Y-133524819D02*
X82766666Y-133524819D01*
X81557142Y-143689580D02*
X81509523Y-143737200D01*
X81509523Y-143737200D02*
X81366666Y-143784819D01*
X81366666Y-143784819D02*
X81271428Y-143784819D01*
X81271428Y-143784819D02*
X81128571Y-143737200D01*
X81128571Y-143737200D02*
X81033333Y-143641961D01*
X81033333Y-143641961D02*
X80985714Y-143546723D01*
X80985714Y-143546723D02*
X80938095Y-143356247D01*
X80938095Y-143356247D02*
X80938095Y-143213390D01*
X80938095Y-143213390D02*
X80985714Y-143022914D01*
X80985714Y-143022914D02*
X81033333Y-142927676D01*
X81033333Y-142927676D02*
X81128571Y-142832438D01*
X81128571Y-142832438D02*
X81271428Y-142784819D01*
X81271428Y-142784819D02*
X81366666Y-142784819D01*
X81366666Y-142784819D02*
X81509523Y-142832438D01*
X81509523Y-142832438D02*
X81557142Y-142880057D01*
X82509523Y-143784819D02*
X81938095Y-143784819D01*
X82223809Y-143784819D02*
X82223809Y-142784819D01*
X82223809Y-142784819D02*
X82128571Y-142927676D01*
X82128571Y-142927676D02*
X82033333Y-143022914D01*
X82033333Y-143022914D02*
X81938095Y-143070533D01*
X82985714Y-143784819D02*
X83176190Y-143784819D01*
X83176190Y-143784819D02*
X83271428Y-143737200D01*
X83271428Y-143737200D02*
X83319047Y-143689580D01*
X83319047Y-143689580D02*
X83414285Y-143546723D01*
X83414285Y-143546723D02*
X83461904Y-143356247D01*
X83461904Y-143356247D02*
X83461904Y-142975295D01*
X83461904Y-142975295D02*
X83414285Y-142880057D01*
X83414285Y-142880057D02*
X83366666Y-142832438D01*
X83366666Y-142832438D02*
X83271428Y-142784819D01*
X83271428Y-142784819D02*
X83080952Y-142784819D01*
X83080952Y-142784819D02*
X82985714Y-142832438D01*
X82985714Y-142832438D02*
X82938095Y-142880057D01*
X82938095Y-142880057D02*
X82890476Y-142975295D01*
X82890476Y-142975295D02*
X82890476Y-143213390D01*
X82890476Y-143213390D02*
X82938095Y-143308628D01*
X82938095Y-143308628D02*
X82985714Y-143356247D01*
X82985714Y-143356247D02*
X83080952Y-143403866D01*
X83080952Y-143403866D02*
X83271428Y-143403866D01*
X83271428Y-143403866D02*
X83366666Y-143356247D01*
X83366666Y-143356247D02*
X83414285Y-143308628D01*
X83414285Y-143308628D02*
X83461904Y-143213390D01*
X105361905Y-112254819D02*
X105361905Y-111254819D01*
X105933333Y-112254819D02*
X105504762Y-111683390D01*
X105933333Y-111254819D02*
X105361905Y-111826247D01*
X106790476Y-111588152D02*
X106790476Y-112254819D01*
X106552381Y-111207200D02*
X106314286Y-111921485D01*
X106314286Y-111921485D02*
X106933333Y-111921485D01*
X116957142Y-129454819D02*
X116480952Y-129454819D01*
X116480952Y-129454819D02*
X116480952Y-128454819D01*
X117814285Y-129454819D02*
X117242857Y-129454819D01*
X117528571Y-129454819D02*
X117528571Y-128454819D01*
X117528571Y-128454819D02*
X117433333Y-128597676D01*
X117433333Y-128597676D02*
X117338095Y-128692914D01*
X117338095Y-128692914D02*
X117242857Y-128740533D01*
X118147619Y-128454819D02*
X118766666Y-128454819D01*
X118766666Y-128454819D02*
X118433333Y-128835771D01*
X118433333Y-128835771D02*
X118576190Y-128835771D01*
X118576190Y-128835771D02*
X118671428Y-128883390D01*
X118671428Y-128883390D02*
X118719047Y-128931009D01*
X118719047Y-128931009D02*
X118766666Y-129026247D01*
X118766666Y-129026247D02*
X118766666Y-129264342D01*
X118766666Y-129264342D02*
X118719047Y-129359580D01*
X118719047Y-129359580D02*
X118671428Y-129407200D01*
X118671428Y-129407200D02*
X118576190Y-129454819D01*
X118576190Y-129454819D02*
X118290476Y-129454819D01*
X118290476Y-129454819D02*
X118195238Y-129407200D01*
X118195238Y-129407200D02*
X118147619Y-129359580D01*
X96167261Y-108250057D02*
X96072023Y-108202438D01*
X96072023Y-108202438D02*
X95976785Y-108107200D01*
X95976785Y-108107200D02*
X95833928Y-107964342D01*
X95833928Y-107964342D02*
X95738690Y-107916723D01*
X95738690Y-107916723D02*
X95643452Y-107916723D01*
X95691071Y-108154819D02*
X95595833Y-108107200D01*
X95595833Y-108107200D02*
X95500595Y-108011961D01*
X95500595Y-108011961D02*
X95452976Y-107821485D01*
X95452976Y-107821485D02*
X95452976Y-107488152D01*
X95452976Y-107488152D02*
X95500595Y-107297676D01*
X95500595Y-107297676D02*
X95595833Y-107202438D01*
X95595833Y-107202438D02*
X95691071Y-107154819D01*
X95691071Y-107154819D02*
X95881547Y-107154819D01*
X95881547Y-107154819D02*
X95976785Y-107202438D01*
X95976785Y-107202438D02*
X96072023Y-107297676D01*
X96072023Y-107297676D02*
X96119642Y-107488152D01*
X96119642Y-107488152D02*
X96119642Y-107821485D01*
X96119642Y-107821485D02*
X96072023Y-108011961D01*
X96072023Y-108011961D02*
X95976785Y-108107200D01*
X95976785Y-108107200D02*
X95881547Y-108154819D01*
X95881547Y-108154819D02*
X95691071Y-108154819D01*
X96976785Y-107488152D02*
X96976785Y-108154819D01*
X96738690Y-107107200D02*
X96500595Y-107821485D01*
X96500595Y-107821485D02*
X97119642Y-107821485D01*
X92633333Y-87254819D02*
X92300000Y-86778628D01*
X92061905Y-87254819D02*
X92061905Y-86254819D01*
X92061905Y-86254819D02*
X92442857Y-86254819D01*
X92442857Y-86254819D02*
X92538095Y-86302438D01*
X92538095Y-86302438D02*
X92585714Y-86350057D01*
X92585714Y-86350057D02*
X92633333Y-86445295D01*
X92633333Y-86445295D02*
X92633333Y-86588152D01*
X92633333Y-86588152D02*
X92585714Y-86683390D01*
X92585714Y-86683390D02*
X92538095Y-86731009D01*
X92538095Y-86731009D02*
X92442857Y-86778628D01*
X92442857Y-86778628D02*
X92061905Y-86778628D01*
X92966667Y-86254819D02*
X93585714Y-86254819D01*
X93585714Y-86254819D02*
X93252381Y-86635771D01*
X93252381Y-86635771D02*
X93395238Y-86635771D01*
X93395238Y-86635771D02*
X93490476Y-86683390D01*
X93490476Y-86683390D02*
X93538095Y-86731009D01*
X93538095Y-86731009D02*
X93585714Y-86826247D01*
X93585714Y-86826247D02*
X93585714Y-87064342D01*
X93585714Y-87064342D02*
X93538095Y-87159580D01*
X93538095Y-87159580D02*
X93490476Y-87207200D01*
X93490476Y-87207200D02*
X93395238Y-87254819D01*
X93395238Y-87254819D02*
X93109524Y-87254819D01*
X93109524Y-87254819D02*
X93014286Y-87207200D01*
X93014286Y-87207200D02*
X92966667Y-87159580D01*
X105124405Y-91354819D02*
X105124405Y-90354819D01*
X105695833Y-91354819D02*
X105267262Y-90783390D01*
X105695833Y-90354819D02*
X105124405Y-90926247D01*
X106029167Y-90354819D02*
X106648214Y-90354819D01*
X106648214Y-90354819D02*
X106314881Y-90735771D01*
X106314881Y-90735771D02*
X106457738Y-90735771D01*
X106457738Y-90735771D02*
X106552976Y-90783390D01*
X106552976Y-90783390D02*
X106600595Y-90831009D01*
X106600595Y-90831009D02*
X106648214Y-90926247D01*
X106648214Y-90926247D02*
X106648214Y-91164342D01*
X106648214Y-91164342D02*
X106600595Y-91259580D01*
X106600595Y-91259580D02*
X106552976Y-91307200D01*
X106552976Y-91307200D02*
X106457738Y-91354819D01*
X106457738Y-91354819D02*
X106172024Y-91354819D01*
X106172024Y-91354819D02*
X106076786Y-91307200D01*
X106076786Y-91307200D02*
X106029167Y-91259580D01*
X94157142Y-146159580D02*
X94109523Y-146207200D01*
X94109523Y-146207200D02*
X93966666Y-146254819D01*
X93966666Y-146254819D02*
X93871428Y-146254819D01*
X93871428Y-146254819D02*
X93728571Y-146207200D01*
X93728571Y-146207200D02*
X93633333Y-146111961D01*
X93633333Y-146111961D02*
X93585714Y-146016723D01*
X93585714Y-146016723D02*
X93538095Y-145826247D01*
X93538095Y-145826247D02*
X93538095Y-145683390D01*
X93538095Y-145683390D02*
X93585714Y-145492914D01*
X93585714Y-145492914D02*
X93633333Y-145397676D01*
X93633333Y-145397676D02*
X93728571Y-145302438D01*
X93728571Y-145302438D02*
X93871428Y-145254819D01*
X93871428Y-145254819D02*
X93966666Y-145254819D01*
X93966666Y-145254819D02*
X94109523Y-145302438D01*
X94109523Y-145302438D02*
X94157142Y-145350057D01*
X94538095Y-145350057D02*
X94585714Y-145302438D01*
X94585714Y-145302438D02*
X94680952Y-145254819D01*
X94680952Y-145254819D02*
X94919047Y-145254819D01*
X94919047Y-145254819D02*
X95014285Y-145302438D01*
X95014285Y-145302438D02*
X95061904Y-145350057D01*
X95061904Y-145350057D02*
X95109523Y-145445295D01*
X95109523Y-145445295D02*
X95109523Y-145540533D01*
X95109523Y-145540533D02*
X95061904Y-145683390D01*
X95061904Y-145683390D02*
X94490476Y-146254819D01*
X94490476Y-146254819D02*
X95109523Y-146254819D01*
X96061904Y-146254819D02*
X95490476Y-146254819D01*
X95776190Y-146254819D02*
X95776190Y-145254819D01*
X95776190Y-145254819D02*
X95680952Y-145397676D01*
X95680952Y-145397676D02*
X95585714Y-145492914D01*
X95585714Y-145492914D02*
X95490476Y-145540533D01*
X105761905Y-48854819D02*
X105761905Y-47854819D01*
X106333333Y-48854819D02*
X105904762Y-48283390D01*
X106333333Y-47854819D02*
X105761905Y-48426247D01*
X107285714Y-48854819D02*
X106714286Y-48854819D01*
X107000000Y-48854819D02*
X107000000Y-47854819D01*
X107000000Y-47854819D02*
X106904762Y-47997676D01*
X106904762Y-47997676D02*
X106809524Y-48092914D01*
X106809524Y-48092914D02*
X106714286Y-48140533D01*
X95442261Y-129150057D02*
X95347023Y-129102438D01*
X95347023Y-129102438D02*
X95251785Y-129007200D01*
X95251785Y-129007200D02*
X95108928Y-128864342D01*
X95108928Y-128864342D02*
X95013690Y-128816723D01*
X95013690Y-128816723D02*
X94918452Y-128816723D01*
X94966071Y-129054819D02*
X94870833Y-129007200D01*
X94870833Y-129007200D02*
X94775595Y-128911961D01*
X94775595Y-128911961D02*
X94727976Y-128721485D01*
X94727976Y-128721485D02*
X94727976Y-128388152D01*
X94727976Y-128388152D02*
X94775595Y-128197676D01*
X94775595Y-128197676D02*
X94870833Y-128102438D01*
X94870833Y-128102438D02*
X94966071Y-128054819D01*
X94966071Y-128054819D02*
X95156547Y-128054819D01*
X95156547Y-128054819D02*
X95251785Y-128102438D01*
X95251785Y-128102438D02*
X95347023Y-128197676D01*
X95347023Y-128197676D02*
X95394642Y-128388152D01*
X95394642Y-128388152D02*
X95394642Y-128721485D01*
X95394642Y-128721485D02*
X95347023Y-128911961D01*
X95347023Y-128911961D02*
X95251785Y-129007200D01*
X95251785Y-129007200D02*
X95156547Y-129054819D01*
X95156547Y-129054819D02*
X94966071Y-129054819D01*
X96299404Y-128054819D02*
X95823214Y-128054819D01*
X95823214Y-128054819D02*
X95775595Y-128531009D01*
X95775595Y-128531009D02*
X95823214Y-128483390D01*
X95823214Y-128483390D02*
X95918452Y-128435771D01*
X95918452Y-128435771D02*
X96156547Y-128435771D01*
X96156547Y-128435771D02*
X96251785Y-128483390D01*
X96251785Y-128483390D02*
X96299404Y-128531009D01*
X96299404Y-128531009D02*
X96347023Y-128626247D01*
X96347023Y-128626247D02*
X96347023Y-128864342D01*
X96347023Y-128864342D02*
X96299404Y-128959580D01*
X96299404Y-128959580D02*
X96251785Y-129007200D01*
X96251785Y-129007200D02*
X96156547Y-129054819D01*
X96156547Y-129054819D02*
X95918452Y-129054819D01*
X95918452Y-129054819D02*
X95823214Y-129007200D01*
X95823214Y-129007200D02*
X95775595Y-128959580D01*
X92933333Y-91554819D02*
X92600000Y-91078628D01*
X92361905Y-91554819D02*
X92361905Y-90554819D01*
X92361905Y-90554819D02*
X92742857Y-90554819D01*
X92742857Y-90554819D02*
X92838095Y-90602438D01*
X92838095Y-90602438D02*
X92885714Y-90650057D01*
X92885714Y-90650057D02*
X92933333Y-90745295D01*
X92933333Y-90745295D02*
X92933333Y-90888152D01*
X92933333Y-90888152D02*
X92885714Y-90983390D01*
X92885714Y-90983390D02*
X92838095Y-91031009D01*
X92838095Y-91031009D02*
X92742857Y-91078628D01*
X92742857Y-91078628D02*
X92361905Y-91078628D01*
X93790476Y-90554819D02*
X93600000Y-90554819D01*
X93600000Y-90554819D02*
X93504762Y-90602438D01*
X93504762Y-90602438D02*
X93457143Y-90650057D01*
X93457143Y-90650057D02*
X93361905Y-90792914D01*
X93361905Y-90792914D02*
X93314286Y-90983390D01*
X93314286Y-90983390D02*
X93314286Y-91364342D01*
X93314286Y-91364342D02*
X93361905Y-91459580D01*
X93361905Y-91459580D02*
X93409524Y-91507200D01*
X93409524Y-91507200D02*
X93504762Y-91554819D01*
X93504762Y-91554819D02*
X93695238Y-91554819D01*
X93695238Y-91554819D02*
X93790476Y-91507200D01*
X93790476Y-91507200D02*
X93838095Y-91459580D01*
X93838095Y-91459580D02*
X93885714Y-91364342D01*
X93885714Y-91364342D02*
X93885714Y-91126247D01*
X93885714Y-91126247D02*
X93838095Y-91031009D01*
X93838095Y-91031009D02*
X93790476Y-90983390D01*
X93790476Y-90983390D02*
X93695238Y-90935771D01*
X93695238Y-90935771D02*
X93504762Y-90935771D01*
X93504762Y-90935771D02*
X93409524Y-90983390D01*
X93409524Y-90983390D02*
X93361905Y-91031009D01*
X93361905Y-91031009D02*
X93314286Y-91126247D01*
X104699405Y-133254819D02*
X104699405Y-132254819D01*
X105270833Y-133254819D02*
X104842262Y-132683390D01*
X105270833Y-132254819D02*
X104699405Y-132826247D01*
X106175595Y-132254819D02*
X105699405Y-132254819D01*
X105699405Y-132254819D02*
X105651786Y-132731009D01*
X105651786Y-132731009D02*
X105699405Y-132683390D01*
X105699405Y-132683390D02*
X105794643Y-132635771D01*
X105794643Y-132635771D02*
X106032738Y-132635771D01*
X106032738Y-132635771D02*
X106127976Y-132683390D01*
X106127976Y-132683390D02*
X106175595Y-132731009D01*
X106175595Y-132731009D02*
X106223214Y-132826247D01*
X106223214Y-132826247D02*
X106223214Y-133064342D01*
X106223214Y-133064342D02*
X106175595Y-133159580D01*
X106175595Y-133159580D02*
X106127976Y-133207200D01*
X106127976Y-133207200D02*
X106032738Y-133254819D01*
X106032738Y-133254819D02*
X105794643Y-133254819D01*
X105794643Y-133254819D02*
X105699405Y-133207200D01*
X105699405Y-133207200D02*
X105651786Y-133159580D01*
X115433333Y-45954819D02*
X114957143Y-45954819D01*
X114957143Y-45954819D02*
X114957143Y-44954819D01*
X116195238Y-45288152D02*
X116195238Y-45954819D01*
X115957143Y-44907200D02*
X115719048Y-45621485D01*
X115719048Y-45621485D02*
X116338095Y-45621485D01*
X100929666Y-146054819D02*
X100929666Y-146769104D01*
X100929666Y-146769104D02*
X100882047Y-146911961D01*
X100882047Y-146911961D02*
X100786809Y-147007200D01*
X100786809Y-147007200D02*
X100643952Y-147054819D01*
X100643952Y-147054819D02*
X100548714Y-147054819D01*
X101310619Y-146054819D02*
X101929666Y-146054819D01*
X101929666Y-146054819D02*
X101596333Y-146435771D01*
X101596333Y-146435771D02*
X101739190Y-146435771D01*
X101739190Y-146435771D02*
X101834428Y-146483390D01*
X101834428Y-146483390D02*
X101882047Y-146531009D01*
X101882047Y-146531009D02*
X101929666Y-146626247D01*
X101929666Y-146626247D02*
X101929666Y-146864342D01*
X101929666Y-146864342D02*
X101882047Y-146959580D01*
X101882047Y-146959580D02*
X101834428Y-147007200D01*
X101834428Y-147007200D02*
X101739190Y-147054819D01*
X101739190Y-147054819D02*
X101453476Y-147054819D01*
X101453476Y-147054819D02*
X101358238Y-147007200D01*
X101358238Y-147007200D02*
X101310619Y-146959580D01*
X87333333Y-61759580D02*
X87285714Y-61807200D01*
X87285714Y-61807200D02*
X87142857Y-61854819D01*
X87142857Y-61854819D02*
X87047619Y-61854819D01*
X87047619Y-61854819D02*
X86904762Y-61807200D01*
X86904762Y-61807200D02*
X86809524Y-61711961D01*
X86809524Y-61711961D02*
X86761905Y-61616723D01*
X86761905Y-61616723D02*
X86714286Y-61426247D01*
X86714286Y-61426247D02*
X86714286Y-61283390D01*
X86714286Y-61283390D02*
X86761905Y-61092914D01*
X86761905Y-61092914D02*
X86809524Y-60997676D01*
X86809524Y-60997676D02*
X86904762Y-60902438D01*
X86904762Y-60902438D02*
X87047619Y-60854819D01*
X87047619Y-60854819D02*
X87142857Y-60854819D01*
X87142857Y-60854819D02*
X87285714Y-60902438D01*
X87285714Y-60902438D02*
X87333333Y-60950057D01*
X88285714Y-61854819D02*
X87714286Y-61854819D01*
X88000000Y-61854819D02*
X88000000Y-60854819D01*
X88000000Y-60854819D02*
X87904762Y-60997676D01*
X87904762Y-60997676D02*
X87809524Y-61092914D01*
X87809524Y-61092914D02*
X87714286Y-61140533D01*
X116957142Y-140204819D02*
X116480952Y-140204819D01*
X116480952Y-140204819D02*
X116480952Y-139204819D01*
X117814285Y-140204819D02*
X117242857Y-140204819D01*
X117528571Y-140204819D02*
X117528571Y-139204819D01*
X117528571Y-139204819D02*
X117433333Y-139347676D01*
X117433333Y-139347676D02*
X117338095Y-139442914D01*
X117338095Y-139442914D02*
X117242857Y-139490533D01*
X118766666Y-140204819D02*
X118195238Y-140204819D01*
X118480952Y-140204819D02*
X118480952Y-139204819D01*
X118480952Y-139204819D02*
X118385714Y-139347676D01*
X118385714Y-139347676D02*
X118290476Y-139442914D01*
X118290476Y-139442914D02*
X118195238Y-139490533D01*
X87533333Y-111954819D02*
X87200000Y-111478628D01*
X86961905Y-111954819D02*
X86961905Y-110954819D01*
X86961905Y-110954819D02*
X87342857Y-110954819D01*
X87342857Y-110954819D02*
X87438095Y-111002438D01*
X87438095Y-111002438D02*
X87485714Y-111050057D01*
X87485714Y-111050057D02*
X87533333Y-111145295D01*
X87533333Y-111145295D02*
X87533333Y-111288152D01*
X87533333Y-111288152D02*
X87485714Y-111383390D01*
X87485714Y-111383390D02*
X87438095Y-111431009D01*
X87438095Y-111431009D02*
X87342857Y-111478628D01*
X87342857Y-111478628D02*
X86961905Y-111478628D01*
X88009524Y-111954819D02*
X88200000Y-111954819D01*
X88200000Y-111954819D02*
X88295238Y-111907200D01*
X88295238Y-111907200D02*
X88342857Y-111859580D01*
X88342857Y-111859580D02*
X88438095Y-111716723D01*
X88438095Y-111716723D02*
X88485714Y-111526247D01*
X88485714Y-111526247D02*
X88485714Y-111145295D01*
X88485714Y-111145295D02*
X88438095Y-111050057D01*
X88438095Y-111050057D02*
X88390476Y-111002438D01*
X88390476Y-111002438D02*
X88295238Y-110954819D01*
X88295238Y-110954819D02*
X88104762Y-110954819D01*
X88104762Y-110954819D02*
X88009524Y-111002438D01*
X88009524Y-111002438D02*
X87961905Y-111050057D01*
X87961905Y-111050057D02*
X87914286Y-111145295D01*
X87914286Y-111145295D02*
X87914286Y-111383390D01*
X87914286Y-111383390D02*
X87961905Y-111478628D01*
X87961905Y-111478628D02*
X88009524Y-111526247D01*
X88009524Y-111526247D02*
X88104762Y-111573866D01*
X88104762Y-111573866D02*
X88295238Y-111573866D01*
X88295238Y-111573866D02*
X88390476Y-111526247D01*
X88390476Y-111526247D02*
X88438095Y-111478628D01*
X88438095Y-111478628D02*
X88485714Y-111383390D01*
X87261905Y-115054819D02*
X87261905Y-114054819D01*
X87261905Y-114054819D02*
X87500000Y-114054819D01*
X87500000Y-114054819D02*
X87642857Y-114102438D01*
X87642857Y-114102438D02*
X87738095Y-114197676D01*
X87738095Y-114197676D02*
X87785714Y-114292914D01*
X87785714Y-114292914D02*
X87833333Y-114483390D01*
X87833333Y-114483390D02*
X87833333Y-114626247D01*
X87833333Y-114626247D02*
X87785714Y-114816723D01*
X87785714Y-114816723D02*
X87738095Y-114911961D01*
X87738095Y-114911961D02*
X87642857Y-115007200D01*
X87642857Y-115007200D02*
X87500000Y-115054819D01*
X87500000Y-115054819D02*
X87261905Y-115054819D01*
X88690476Y-114388152D02*
X88690476Y-115054819D01*
X88452381Y-114007200D02*
X88214286Y-114721485D01*
X88214286Y-114721485D02*
X88833333Y-114721485D01*
X88538095Y-122564819D02*
X88538095Y-121564819D01*
X89109523Y-122564819D02*
X88680952Y-121993390D01*
X89109523Y-121564819D02*
X88538095Y-122136247D01*
X116933333Y-76704819D02*
X116457143Y-76704819D01*
X116457143Y-76704819D02*
X116457143Y-75704819D01*
X117219048Y-75800057D02*
X117266667Y-75752438D01*
X117266667Y-75752438D02*
X117361905Y-75704819D01*
X117361905Y-75704819D02*
X117600000Y-75704819D01*
X117600000Y-75704819D02*
X117695238Y-75752438D01*
X117695238Y-75752438D02*
X117742857Y-75800057D01*
X117742857Y-75800057D02*
X117790476Y-75895295D01*
X117790476Y-75895295D02*
X117790476Y-75990533D01*
X117790476Y-75990533D02*
X117742857Y-76133390D01*
X117742857Y-76133390D02*
X117171429Y-76704819D01*
X117171429Y-76704819D02*
X117790476Y-76704819D01*
X125516666Y-149954819D02*
X125516666Y-150669104D01*
X125516666Y-150669104D02*
X125469047Y-150811961D01*
X125469047Y-150811961D02*
X125373809Y-150907200D01*
X125373809Y-150907200D02*
X125230952Y-150954819D01*
X125230952Y-150954819D02*
X125135714Y-150954819D01*
X126469047Y-149954819D02*
X125992857Y-149954819D01*
X125992857Y-149954819D02*
X125945238Y-150431009D01*
X125945238Y-150431009D02*
X125992857Y-150383390D01*
X125992857Y-150383390D02*
X126088095Y-150335771D01*
X126088095Y-150335771D02*
X126326190Y-150335771D01*
X126326190Y-150335771D02*
X126421428Y-150383390D01*
X126421428Y-150383390D02*
X126469047Y-150431009D01*
X126469047Y-150431009D02*
X126516666Y-150526247D01*
X126516666Y-150526247D02*
X126516666Y-150764342D01*
X126516666Y-150764342D02*
X126469047Y-150859580D01*
X126469047Y-150859580D02*
X126421428Y-150907200D01*
X126421428Y-150907200D02*
X126326190Y-150954819D01*
X126326190Y-150954819D02*
X126088095Y-150954819D01*
X126088095Y-150954819D02*
X125992857Y-150907200D01*
X125992857Y-150907200D02*
X125945238Y-150859580D01*
X87533333Y-47954819D02*
X87200000Y-47478628D01*
X86961905Y-47954819D02*
X86961905Y-46954819D01*
X86961905Y-46954819D02*
X87342857Y-46954819D01*
X87342857Y-46954819D02*
X87438095Y-47002438D01*
X87438095Y-47002438D02*
X87485714Y-47050057D01*
X87485714Y-47050057D02*
X87533333Y-47145295D01*
X87533333Y-47145295D02*
X87533333Y-47288152D01*
X87533333Y-47288152D02*
X87485714Y-47383390D01*
X87485714Y-47383390D02*
X87438095Y-47431009D01*
X87438095Y-47431009D02*
X87342857Y-47478628D01*
X87342857Y-47478628D02*
X86961905Y-47478628D01*
X88390476Y-47288152D02*
X88390476Y-47954819D01*
X88152381Y-46907200D02*
X87914286Y-47621485D01*
X87914286Y-47621485D02*
X88533333Y-47621485D01*
X117183333Y-55704819D02*
X116707143Y-55704819D01*
X116707143Y-55704819D02*
X116707143Y-54704819D01*
X118040476Y-55704819D02*
X117469048Y-55704819D01*
X117754762Y-55704819D02*
X117754762Y-54704819D01*
X117754762Y-54704819D02*
X117659524Y-54847676D01*
X117659524Y-54847676D02*
X117564286Y-54942914D01*
X117564286Y-54942914D02*
X117469048Y-54990533D01*
X116933333Y-87204819D02*
X116457143Y-87204819D01*
X116457143Y-87204819D02*
X116457143Y-86204819D01*
X117695238Y-86204819D02*
X117504762Y-86204819D01*
X117504762Y-86204819D02*
X117409524Y-86252438D01*
X117409524Y-86252438D02*
X117361905Y-86300057D01*
X117361905Y-86300057D02*
X117266667Y-86442914D01*
X117266667Y-86442914D02*
X117219048Y-86633390D01*
X117219048Y-86633390D02*
X117219048Y-87014342D01*
X117219048Y-87014342D02*
X117266667Y-87109580D01*
X117266667Y-87109580D02*
X117314286Y-87157200D01*
X117314286Y-87157200D02*
X117409524Y-87204819D01*
X117409524Y-87204819D02*
X117600000Y-87204819D01*
X117600000Y-87204819D02*
X117695238Y-87157200D01*
X117695238Y-87157200D02*
X117742857Y-87109580D01*
X117742857Y-87109580D02*
X117790476Y-87014342D01*
X117790476Y-87014342D02*
X117790476Y-86776247D01*
X117790476Y-86776247D02*
X117742857Y-86681009D01*
X117742857Y-86681009D02*
X117695238Y-86633390D01*
X117695238Y-86633390D02*
X117600000Y-86585771D01*
X117600000Y-86585771D02*
X117409524Y-86585771D01*
X117409524Y-86585771D02*
X117314286Y-86633390D01*
X117314286Y-86633390D02*
X117266667Y-86681009D01*
X117266667Y-86681009D02*
X117219048Y-86776247D01*
X87470833Y-130554819D02*
X87137500Y-130078628D01*
X86899405Y-130554819D02*
X86899405Y-129554819D01*
X86899405Y-129554819D02*
X87280357Y-129554819D01*
X87280357Y-129554819D02*
X87375595Y-129602438D01*
X87375595Y-129602438D02*
X87423214Y-129650057D01*
X87423214Y-129650057D02*
X87470833Y-129745295D01*
X87470833Y-129745295D02*
X87470833Y-129888152D01*
X87470833Y-129888152D02*
X87423214Y-129983390D01*
X87423214Y-129983390D02*
X87375595Y-130031009D01*
X87375595Y-130031009D02*
X87280357Y-130078628D01*
X87280357Y-130078628D02*
X86899405Y-130078628D01*
X88042262Y-129983390D02*
X87947024Y-129935771D01*
X87947024Y-129935771D02*
X87899405Y-129888152D01*
X87899405Y-129888152D02*
X87851786Y-129792914D01*
X87851786Y-129792914D02*
X87851786Y-129745295D01*
X87851786Y-129745295D02*
X87899405Y-129650057D01*
X87899405Y-129650057D02*
X87947024Y-129602438D01*
X87947024Y-129602438D02*
X88042262Y-129554819D01*
X88042262Y-129554819D02*
X88232738Y-129554819D01*
X88232738Y-129554819D02*
X88327976Y-129602438D01*
X88327976Y-129602438D02*
X88375595Y-129650057D01*
X88375595Y-129650057D02*
X88423214Y-129745295D01*
X88423214Y-129745295D02*
X88423214Y-129792914D01*
X88423214Y-129792914D02*
X88375595Y-129888152D01*
X88375595Y-129888152D02*
X88327976Y-129935771D01*
X88327976Y-129935771D02*
X88232738Y-129983390D01*
X88232738Y-129983390D02*
X88042262Y-129983390D01*
X88042262Y-129983390D02*
X87947024Y-130031009D01*
X87947024Y-130031009D02*
X87899405Y-130078628D01*
X87899405Y-130078628D02*
X87851786Y-130173866D01*
X87851786Y-130173866D02*
X87851786Y-130364342D01*
X87851786Y-130364342D02*
X87899405Y-130459580D01*
X87899405Y-130459580D02*
X87947024Y-130507200D01*
X87947024Y-130507200D02*
X88042262Y-130554819D01*
X88042262Y-130554819D02*
X88232738Y-130554819D01*
X88232738Y-130554819D02*
X88327976Y-130507200D01*
X88327976Y-130507200D02*
X88375595Y-130459580D01*
X88375595Y-130459580D02*
X88423214Y-130364342D01*
X88423214Y-130364342D02*
X88423214Y-130173866D01*
X88423214Y-130173866D02*
X88375595Y-130078628D01*
X88375595Y-130078628D02*
X88327976Y-130031009D01*
X88327976Y-130031009D02*
X88232738Y-129983390D01*
X87733333Y-109454819D02*
X87400000Y-108978628D01*
X87161905Y-109454819D02*
X87161905Y-108454819D01*
X87161905Y-108454819D02*
X87542857Y-108454819D01*
X87542857Y-108454819D02*
X87638095Y-108502438D01*
X87638095Y-108502438D02*
X87685714Y-108550057D01*
X87685714Y-108550057D02*
X87733333Y-108645295D01*
X87733333Y-108645295D02*
X87733333Y-108788152D01*
X87733333Y-108788152D02*
X87685714Y-108883390D01*
X87685714Y-108883390D02*
X87638095Y-108931009D01*
X87638095Y-108931009D02*
X87542857Y-108978628D01*
X87542857Y-108978628D02*
X87161905Y-108978628D01*
X88066667Y-108454819D02*
X88733333Y-108454819D01*
X88733333Y-108454819D02*
X88304762Y-109454819D01*
X93233333Y-104359580D02*
X93185714Y-104407200D01*
X93185714Y-104407200D02*
X93042857Y-104454819D01*
X93042857Y-104454819D02*
X92947619Y-104454819D01*
X92947619Y-104454819D02*
X92804762Y-104407200D01*
X92804762Y-104407200D02*
X92709524Y-104311961D01*
X92709524Y-104311961D02*
X92661905Y-104216723D01*
X92661905Y-104216723D02*
X92614286Y-104026247D01*
X92614286Y-104026247D02*
X92614286Y-103883390D01*
X92614286Y-103883390D02*
X92661905Y-103692914D01*
X92661905Y-103692914D02*
X92709524Y-103597676D01*
X92709524Y-103597676D02*
X92804762Y-103502438D01*
X92804762Y-103502438D02*
X92947619Y-103454819D01*
X92947619Y-103454819D02*
X93042857Y-103454819D01*
X93042857Y-103454819D02*
X93185714Y-103502438D01*
X93185714Y-103502438D02*
X93233333Y-103550057D01*
X93566667Y-103454819D02*
X94185714Y-103454819D01*
X94185714Y-103454819D02*
X93852381Y-103835771D01*
X93852381Y-103835771D02*
X93995238Y-103835771D01*
X93995238Y-103835771D02*
X94090476Y-103883390D01*
X94090476Y-103883390D02*
X94138095Y-103931009D01*
X94138095Y-103931009D02*
X94185714Y-104026247D01*
X94185714Y-104026247D02*
X94185714Y-104264342D01*
X94185714Y-104264342D02*
X94138095Y-104359580D01*
X94138095Y-104359580D02*
X94090476Y-104407200D01*
X94090476Y-104407200D02*
X93995238Y-104454819D01*
X93995238Y-104454819D02*
X93709524Y-104454819D01*
X93709524Y-104454819D02*
X93614286Y-104407200D01*
X93614286Y-104407200D02*
X93566667Y-104359580D01*
X117183333Y-65904819D02*
X116707143Y-65904819D01*
X116707143Y-65904819D02*
X116707143Y-64904819D01*
X117992857Y-64904819D02*
X117516667Y-64904819D01*
X117516667Y-64904819D02*
X117469048Y-65381009D01*
X117469048Y-65381009D02*
X117516667Y-65333390D01*
X117516667Y-65333390D02*
X117611905Y-65285771D01*
X117611905Y-65285771D02*
X117850000Y-65285771D01*
X117850000Y-65285771D02*
X117945238Y-65333390D01*
X117945238Y-65333390D02*
X117992857Y-65381009D01*
X117992857Y-65381009D02*
X118040476Y-65476247D01*
X118040476Y-65476247D02*
X118040476Y-65714342D01*
X118040476Y-65714342D02*
X117992857Y-65809580D01*
X117992857Y-65809580D02*
X117945238Y-65857200D01*
X117945238Y-65857200D02*
X117850000Y-65904819D01*
X117850000Y-65904819D02*
X117611905Y-65904819D01*
X117611905Y-65904819D02*
X117516667Y-65857200D01*
X117516667Y-65857200D02*
X117469048Y-65809580D01*
X103266666Y-45454819D02*
X103266666Y-46169104D01*
X103266666Y-46169104D02*
X103219047Y-46311961D01*
X103219047Y-46311961D02*
X103123809Y-46407200D01*
X103123809Y-46407200D02*
X102980952Y-46454819D01*
X102980952Y-46454819D02*
X102885714Y-46454819D01*
X104171428Y-45788152D02*
X104171428Y-46454819D01*
X103933333Y-45407200D02*
X103695238Y-46121485D01*
X103695238Y-46121485D02*
X104314285Y-46121485D01*
X116707142Y-108454819D02*
X116230952Y-108454819D01*
X116230952Y-108454819D02*
X116230952Y-107454819D01*
X117564285Y-108454819D02*
X116992857Y-108454819D01*
X117278571Y-108454819D02*
X117278571Y-107454819D01*
X117278571Y-107454819D02*
X117183333Y-107597676D01*
X117183333Y-107597676D02*
X117088095Y-107692914D01*
X117088095Y-107692914D02*
X116992857Y-107740533D01*
X117945238Y-107550057D02*
X117992857Y-107502438D01*
X117992857Y-107502438D02*
X118088095Y-107454819D01*
X118088095Y-107454819D02*
X118326190Y-107454819D01*
X118326190Y-107454819D02*
X118421428Y-107502438D01*
X118421428Y-107502438D02*
X118469047Y-107550057D01*
X118469047Y-107550057D02*
X118516666Y-107645295D01*
X118516666Y-107645295D02*
X118516666Y-107740533D01*
X118516666Y-107740533D02*
X118469047Y-107883390D01*
X118469047Y-107883390D02*
X117897619Y-108454819D01*
X117897619Y-108454819D02*
X118516666Y-108454819D01*
X92161905Y-93654819D02*
X92161905Y-92654819D01*
X92161905Y-92654819D02*
X92400000Y-92654819D01*
X92400000Y-92654819D02*
X92542857Y-92702438D01*
X92542857Y-92702438D02*
X92638095Y-92797676D01*
X92638095Y-92797676D02*
X92685714Y-92892914D01*
X92685714Y-92892914D02*
X92733333Y-93083390D01*
X92733333Y-93083390D02*
X92733333Y-93226247D01*
X92733333Y-93226247D02*
X92685714Y-93416723D01*
X92685714Y-93416723D02*
X92638095Y-93511961D01*
X92638095Y-93511961D02*
X92542857Y-93607200D01*
X92542857Y-93607200D02*
X92400000Y-93654819D01*
X92400000Y-93654819D02*
X92161905Y-93654819D01*
X93066667Y-92654819D02*
X93685714Y-92654819D01*
X93685714Y-92654819D02*
X93352381Y-93035771D01*
X93352381Y-93035771D02*
X93495238Y-93035771D01*
X93495238Y-93035771D02*
X93590476Y-93083390D01*
X93590476Y-93083390D02*
X93638095Y-93131009D01*
X93638095Y-93131009D02*
X93685714Y-93226247D01*
X93685714Y-93226247D02*
X93685714Y-93464342D01*
X93685714Y-93464342D02*
X93638095Y-93559580D01*
X93638095Y-93559580D02*
X93590476Y-93607200D01*
X93590476Y-93607200D02*
X93495238Y-93654819D01*
X93495238Y-93654819D02*
X93209524Y-93654819D01*
X93209524Y-93654819D02*
X93114286Y-93607200D01*
X93114286Y-93607200D02*
X93066667Y-93559580D01*
X92538095Y-101354819D02*
X92538095Y-100354819D01*
X93109523Y-101354819D02*
X92680952Y-100783390D01*
X93109523Y-100354819D02*
X92538095Y-100926247D01*
X86857142Y-125459580D02*
X86809523Y-125507200D01*
X86809523Y-125507200D02*
X86666666Y-125554819D01*
X86666666Y-125554819D02*
X86571428Y-125554819D01*
X86571428Y-125554819D02*
X86428571Y-125507200D01*
X86428571Y-125507200D02*
X86333333Y-125411961D01*
X86333333Y-125411961D02*
X86285714Y-125316723D01*
X86285714Y-125316723D02*
X86238095Y-125126247D01*
X86238095Y-125126247D02*
X86238095Y-124983390D01*
X86238095Y-124983390D02*
X86285714Y-124792914D01*
X86285714Y-124792914D02*
X86333333Y-124697676D01*
X86333333Y-124697676D02*
X86428571Y-124602438D01*
X86428571Y-124602438D02*
X86571428Y-124554819D01*
X86571428Y-124554819D02*
X86666666Y-124554819D01*
X86666666Y-124554819D02*
X86809523Y-124602438D01*
X86809523Y-124602438D02*
X86857142Y-124650057D01*
X87238095Y-124650057D02*
X87285714Y-124602438D01*
X87285714Y-124602438D02*
X87380952Y-124554819D01*
X87380952Y-124554819D02*
X87619047Y-124554819D01*
X87619047Y-124554819D02*
X87714285Y-124602438D01*
X87714285Y-124602438D02*
X87761904Y-124650057D01*
X87761904Y-124650057D02*
X87809523Y-124745295D01*
X87809523Y-124745295D02*
X87809523Y-124840533D01*
X87809523Y-124840533D02*
X87761904Y-124983390D01*
X87761904Y-124983390D02*
X87190476Y-125554819D01*
X87190476Y-125554819D02*
X87809523Y-125554819D01*
X88428571Y-124554819D02*
X88523809Y-124554819D01*
X88523809Y-124554819D02*
X88619047Y-124602438D01*
X88619047Y-124602438D02*
X88666666Y-124650057D01*
X88666666Y-124650057D02*
X88714285Y-124745295D01*
X88714285Y-124745295D02*
X88761904Y-124935771D01*
X88761904Y-124935771D02*
X88761904Y-125173866D01*
X88761904Y-125173866D02*
X88714285Y-125364342D01*
X88714285Y-125364342D02*
X88666666Y-125459580D01*
X88666666Y-125459580D02*
X88619047Y-125507200D01*
X88619047Y-125507200D02*
X88523809Y-125554819D01*
X88523809Y-125554819D02*
X88428571Y-125554819D01*
X88428571Y-125554819D02*
X88333333Y-125507200D01*
X88333333Y-125507200D02*
X88285714Y-125459580D01*
X88285714Y-125459580D02*
X88238095Y-125364342D01*
X88238095Y-125364342D02*
X88190476Y-125173866D01*
X88190476Y-125173866D02*
X88190476Y-124935771D01*
X88190476Y-124935771D02*
X88238095Y-124745295D01*
X88238095Y-124745295D02*
X88285714Y-124650057D01*
X88285714Y-124650057D02*
X88333333Y-124602438D01*
X88333333Y-124602438D02*
X88428571Y-124554819D01*
X81066666Y-88304819D02*
X81066666Y-89019104D01*
X81066666Y-89019104D02*
X81019047Y-89161961D01*
X81019047Y-89161961D02*
X80923809Y-89257200D01*
X80923809Y-89257200D02*
X80780952Y-89304819D01*
X80780952Y-89304819D02*
X80685714Y-89304819D01*
X82066666Y-89304819D02*
X81495238Y-89304819D01*
X81780952Y-89304819D02*
X81780952Y-88304819D01*
X81780952Y-88304819D02*
X81685714Y-88447676D01*
X81685714Y-88447676D02*
X81590476Y-88542914D01*
X81590476Y-88542914D02*
X81495238Y-88590533D01*
X135266666Y-40704819D02*
X135266666Y-41419104D01*
X135266666Y-41419104D02*
X135219047Y-41561961D01*
X135219047Y-41561961D02*
X135123809Y-41657200D01*
X135123809Y-41657200D02*
X134980952Y-41704819D01*
X134980952Y-41704819D02*
X134885714Y-41704819D01*
X135647619Y-40704819D02*
X136314285Y-40704819D01*
X136314285Y-40704819D02*
X135885714Y-41704819D01*
X95904761Y-66950057D02*
X95809523Y-66902438D01*
X95809523Y-66902438D02*
X95714285Y-66807200D01*
X95714285Y-66807200D02*
X95571428Y-66664342D01*
X95571428Y-66664342D02*
X95476190Y-66616723D01*
X95476190Y-66616723D02*
X95380952Y-66616723D01*
X95428571Y-66854819D02*
X95333333Y-66807200D01*
X95333333Y-66807200D02*
X95238095Y-66711961D01*
X95238095Y-66711961D02*
X95190476Y-66521485D01*
X95190476Y-66521485D02*
X95190476Y-66188152D01*
X95190476Y-66188152D02*
X95238095Y-65997676D01*
X95238095Y-65997676D02*
X95333333Y-65902438D01*
X95333333Y-65902438D02*
X95428571Y-65854819D01*
X95428571Y-65854819D02*
X95619047Y-65854819D01*
X95619047Y-65854819D02*
X95714285Y-65902438D01*
X95714285Y-65902438D02*
X95809523Y-65997676D01*
X95809523Y-65997676D02*
X95857142Y-66188152D01*
X95857142Y-66188152D02*
X95857142Y-66521485D01*
X95857142Y-66521485D02*
X95809523Y-66711961D01*
X95809523Y-66711961D02*
X95714285Y-66807200D01*
X95714285Y-66807200D02*
X95619047Y-66854819D01*
X95619047Y-66854819D02*
X95428571Y-66854819D01*
X96238095Y-65950057D02*
X96285714Y-65902438D01*
X96285714Y-65902438D02*
X96380952Y-65854819D01*
X96380952Y-65854819D02*
X96619047Y-65854819D01*
X96619047Y-65854819D02*
X96714285Y-65902438D01*
X96714285Y-65902438D02*
X96761904Y-65950057D01*
X96761904Y-65950057D02*
X96809523Y-66045295D01*
X96809523Y-66045295D02*
X96809523Y-66140533D01*
X96809523Y-66140533D02*
X96761904Y-66283390D01*
X96761904Y-66283390D02*
X96190476Y-66854819D01*
X96190476Y-66854819D02*
X96809523Y-66854819D01*
X85366666Y-143454819D02*
X85366666Y-144169104D01*
X85366666Y-144169104D02*
X85319047Y-144311961D01*
X85319047Y-144311961D02*
X85223809Y-144407200D01*
X85223809Y-144407200D02*
X85080952Y-144454819D01*
X85080952Y-144454819D02*
X84985714Y-144454819D01*
X86271428Y-143454819D02*
X86080952Y-143454819D01*
X86080952Y-143454819D02*
X85985714Y-143502438D01*
X85985714Y-143502438D02*
X85938095Y-143550057D01*
X85938095Y-143550057D02*
X85842857Y-143692914D01*
X85842857Y-143692914D02*
X85795238Y-143883390D01*
X85795238Y-143883390D02*
X85795238Y-144264342D01*
X85795238Y-144264342D02*
X85842857Y-144359580D01*
X85842857Y-144359580D02*
X85890476Y-144407200D01*
X85890476Y-144407200D02*
X85985714Y-144454819D01*
X85985714Y-144454819D02*
X86176190Y-144454819D01*
X86176190Y-144454819D02*
X86271428Y-144407200D01*
X86271428Y-144407200D02*
X86319047Y-144359580D01*
X86319047Y-144359580D02*
X86366666Y-144264342D01*
X86366666Y-144264342D02*
X86366666Y-144026247D01*
X86366666Y-144026247D02*
X86319047Y-143931009D01*
X86319047Y-143931009D02*
X86271428Y-143883390D01*
X86271428Y-143883390D02*
X86176190Y-143835771D01*
X86176190Y-143835771D02*
X85985714Y-143835771D01*
X85985714Y-143835771D02*
X85890476Y-143883390D01*
X85890476Y-143883390D02*
X85842857Y-143931009D01*
X85842857Y-143931009D02*
X85795238Y-144026247D01*
X86594642Y-132954819D02*
X86261309Y-132478628D01*
X86023214Y-132954819D02*
X86023214Y-131954819D01*
X86023214Y-131954819D02*
X86404166Y-131954819D01*
X86404166Y-131954819D02*
X86499404Y-132002438D01*
X86499404Y-132002438D02*
X86547023Y-132050057D01*
X86547023Y-132050057D02*
X86594642Y-132145295D01*
X86594642Y-132145295D02*
X86594642Y-132288152D01*
X86594642Y-132288152D02*
X86547023Y-132383390D01*
X86547023Y-132383390D02*
X86499404Y-132431009D01*
X86499404Y-132431009D02*
X86404166Y-132478628D01*
X86404166Y-132478628D02*
X86023214Y-132478628D01*
X87547023Y-132954819D02*
X86975595Y-132954819D01*
X87261309Y-132954819D02*
X87261309Y-131954819D01*
X87261309Y-131954819D02*
X87166071Y-132097676D01*
X87166071Y-132097676D02*
X87070833Y-132192914D01*
X87070833Y-132192914D02*
X86975595Y-132240533D01*
X88166071Y-131954819D02*
X88261309Y-131954819D01*
X88261309Y-131954819D02*
X88356547Y-132002438D01*
X88356547Y-132002438D02*
X88404166Y-132050057D01*
X88404166Y-132050057D02*
X88451785Y-132145295D01*
X88451785Y-132145295D02*
X88499404Y-132335771D01*
X88499404Y-132335771D02*
X88499404Y-132573866D01*
X88499404Y-132573866D02*
X88451785Y-132764342D01*
X88451785Y-132764342D02*
X88404166Y-132859580D01*
X88404166Y-132859580D02*
X88356547Y-132907200D01*
X88356547Y-132907200D02*
X88261309Y-132954819D01*
X88261309Y-132954819D02*
X88166071Y-132954819D01*
X88166071Y-132954819D02*
X88070833Y-132907200D01*
X88070833Y-132907200D02*
X88023214Y-132859580D01*
X88023214Y-132859580D02*
X87975595Y-132764342D01*
X87975595Y-132764342D02*
X87927976Y-132573866D01*
X87927976Y-132573866D02*
X87927976Y-132335771D01*
X87927976Y-132335771D02*
X87975595Y-132145295D01*
X87975595Y-132145295D02*
X88023214Y-132050057D01*
X88023214Y-132050057D02*
X88070833Y-132002438D01*
X88070833Y-132002438D02*
X88166071Y-131954819D01*
X116707142Y-118954819D02*
X116230952Y-118954819D01*
X116230952Y-118954819D02*
X116230952Y-117954819D01*
X117564285Y-118954819D02*
X116992857Y-118954819D01*
X117278571Y-118954819D02*
X117278571Y-117954819D01*
X117278571Y-117954819D02*
X117183333Y-118097676D01*
X117183333Y-118097676D02*
X117088095Y-118192914D01*
X117088095Y-118192914D02*
X116992857Y-118240533D01*
X118183333Y-117954819D02*
X118278571Y-117954819D01*
X118278571Y-117954819D02*
X118373809Y-118002438D01*
X118373809Y-118002438D02*
X118421428Y-118050057D01*
X118421428Y-118050057D02*
X118469047Y-118145295D01*
X118469047Y-118145295D02*
X118516666Y-118335771D01*
X118516666Y-118335771D02*
X118516666Y-118573866D01*
X118516666Y-118573866D02*
X118469047Y-118764342D01*
X118469047Y-118764342D02*
X118421428Y-118859580D01*
X118421428Y-118859580D02*
X118373809Y-118907200D01*
X118373809Y-118907200D02*
X118278571Y-118954819D01*
X118278571Y-118954819D02*
X118183333Y-118954819D01*
X118183333Y-118954819D02*
X118088095Y-118907200D01*
X118088095Y-118907200D02*
X118040476Y-118859580D01*
X118040476Y-118859580D02*
X117992857Y-118764342D01*
X117992857Y-118764342D02*
X117945238Y-118573866D01*
X117945238Y-118573866D02*
X117945238Y-118335771D01*
X117945238Y-118335771D02*
X117992857Y-118145295D01*
X117992857Y-118145295D02*
X118040476Y-118050057D01*
X118040476Y-118050057D02*
X118088095Y-118002438D01*
X118088095Y-118002438D02*
X118183333Y-117954819D01*
X87133333Y-84359580D02*
X87085714Y-84407200D01*
X87085714Y-84407200D02*
X86942857Y-84454819D01*
X86942857Y-84454819D02*
X86847619Y-84454819D01*
X86847619Y-84454819D02*
X86704762Y-84407200D01*
X86704762Y-84407200D02*
X86609524Y-84311961D01*
X86609524Y-84311961D02*
X86561905Y-84216723D01*
X86561905Y-84216723D02*
X86514286Y-84026247D01*
X86514286Y-84026247D02*
X86514286Y-83883390D01*
X86514286Y-83883390D02*
X86561905Y-83692914D01*
X86561905Y-83692914D02*
X86609524Y-83597676D01*
X86609524Y-83597676D02*
X86704762Y-83502438D01*
X86704762Y-83502438D02*
X86847619Y-83454819D01*
X86847619Y-83454819D02*
X86942857Y-83454819D01*
X86942857Y-83454819D02*
X87085714Y-83502438D01*
X87085714Y-83502438D02*
X87133333Y-83550057D01*
X87514286Y-83550057D02*
X87561905Y-83502438D01*
X87561905Y-83502438D02*
X87657143Y-83454819D01*
X87657143Y-83454819D02*
X87895238Y-83454819D01*
X87895238Y-83454819D02*
X87990476Y-83502438D01*
X87990476Y-83502438D02*
X88038095Y-83550057D01*
X88038095Y-83550057D02*
X88085714Y-83645295D01*
X88085714Y-83645295D02*
X88085714Y-83740533D01*
X88085714Y-83740533D02*
X88038095Y-83883390D01*
X88038095Y-83883390D02*
X87466667Y-84454819D01*
X87466667Y-84454819D02*
X88085714Y-84454819D01*
X86261905Y-73554819D02*
X86261905Y-72554819D01*
X86261905Y-72554819D02*
X86500000Y-72554819D01*
X86500000Y-72554819D02*
X86642857Y-72602438D01*
X86642857Y-72602438D02*
X86738095Y-72697676D01*
X86738095Y-72697676D02*
X86785714Y-72792914D01*
X86785714Y-72792914D02*
X86833333Y-72983390D01*
X86833333Y-72983390D02*
X86833333Y-73126247D01*
X86833333Y-73126247D02*
X86785714Y-73316723D01*
X86785714Y-73316723D02*
X86738095Y-73411961D01*
X86738095Y-73411961D02*
X86642857Y-73507200D01*
X86642857Y-73507200D02*
X86500000Y-73554819D01*
X86500000Y-73554819D02*
X86261905Y-73554819D01*
X87214286Y-72650057D02*
X87261905Y-72602438D01*
X87261905Y-72602438D02*
X87357143Y-72554819D01*
X87357143Y-72554819D02*
X87595238Y-72554819D01*
X87595238Y-72554819D02*
X87690476Y-72602438D01*
X87690476Y-72602438D02*
X87738095Y-72650057D01*
X87738095Y-72650057D02*
X87785714Y-72745295D01*
X87785714Y-72745295D02*
X87785714Y-72840533D01*
X87785714Y-72840533D02*
X87738095Y-72983390D01*
X87738095Y-72983390D02*
X87166667Y-73554819D01*
X87166667Y-73554819D02*
X87785714Y-73554819D01*
X87938095Y-81264819D02*
X87938095Y-80264819D01*
X88509523Y-81264819D02*
X88080952Y-80693390D01*
X88509523Y-80264819D02*
X87938095Y-80836247D01*
D12*
X134295000Y-131980000D02*
X134280000Y-131980000D01*
X136420000Y-136520000D02*
X136405000Y-136520000D01*
X136420000Y-131980000D02*
X136405000Y-131980000D01*
X134295000Y-136520000D02*
X134280000Y-136520000D01*
X136420000Y-131980000D02*
X136420000Y-136520000D01*
X134280000Y-131980000D02*
X134280000Y-136520000D01*
X134545000Y-142480000D02*
X134530000Y-142480000D01*
X136670000Y-147020000D02*
X136655000Y-147020000D01*
X136670000Y-142480000D02*
X136655000Y-142480000D01*
X134545000Y-147020000D02*
X134530000Y-147020000D01*
X136670000Y-142480000D02*
X136670000Y-147020000D01*
X134530000Y-142480000D02*
X134530000Y-147020000D01*
X113620000Y-148445000D02*
X113620000Y-148430000D01*
X109080000Y-150570000D02*
X109080000Y-150555000D01*
X113620000Y-150570000D02*
X113620000Y-150555000D01*
X109080000Y-148445000D02*
X109080000Y-148430000D01*
X113620000Y-150570000D02*
X109080000Y-150570000D01*
X113620000Y-148430000D02*
X109080000Y-148430000D01*
X134545000Y-110730000D02*
X134530000Y-110730000D01*
X136670000Y-115270000D02*
X136655000Y-115270000D01*
X136670000Y-110730000D02*
X136655000Y-110730000D01*
X134545000Y-115270000D02*
X134530000Y-115270000D01*
X136670000Y-110730000D02*
X136670000Y-115270000D01*
X134530000Y-110730000D02*
X134530000Y-115270000D01*
X134545000Y-121230000D02*
X134530000Y-121230000D01*
X136670000Y-125770000D02*
X136655000Y-125770000D01*
X136670000Y-121230000D02*
X136655000Y-121230000D01*
X134545000Y-125770000D02*
X134530000Y-125770000D01*
X136670000Y-121230000D02*
X136670000Y-125770000D01*
X134530000Y-121230000D02*
X134530000Y-125770000D01*
X114120000Y-127445000D02*
X114120000Y-127430000D01*
X109580000Y-129570000D02*
X109580000Y-129555000D01*
X114120000Y-129570000D02*
X114120000Y-129555000D01*
X109580000Y-127445000D02*
X109580000Y-127430000D01*
X114120000Y-129570000D02*
X109580000Y-129570000D01*
X114120000Y-127430000D02*
X109580000Y-127430000D01*
X134545000Y-89730000D02*
X134530000Y-89730000D01*
X136670000Y-94270000D02*
X136655000Y-94270000D01*
X136670000Y-89730000D02*
X136655000Y-89730000D01*
X134545000Y-94270000D02*
X134530000Y-94270000D01*
X136670000Y-89730000D02*
X136670000Y-94270000D01*
X134530000Y-89730000D02*
X134530000Y-94270000D01*
X134545000Y-100230000D02*
X134530000Y-100230000D01*
X136670000Y-104770000D02*
X136655000Y-104770000D01*
X136670000Y-100230000D02*
X136655000Y-100230000D01*
X134545000Y-104770000D02*
X134530000Y-104770000D01*
X136670000Y-100230000D02*
X136670000Y-104770000D01*
X134530000Y-100230000D02*
X134530000Y-104770000D01*
X114120000Y-106445000D02*
X114120000Y-106430000D01*
X109580000Y-108570000D02*
X109580000Y-108555000D01*
X114120000Y-108570000D02*
X114120000Y-108555000D01*
X109580000Y-106445000D02*
X109580000Y-106430000D01*
X114120000Y-108570000D02*
X109580000Y-108570000D01*
X114120000Y-106430000D02*
X109580000Y-106430000D01*
X134295000Y-68480000D02*
X134280000Y-68480000D01*
X136420000Y-73020000D02*
X136405000Y-73020000D01*
X136420000Y-68480000D02*
X136405000Y-68480000D01*
X134295000Y-73020000D02*
X134280000Y-73020000D01*
X136420000Y-68480000D02*
X136420000Y-73020000D01*
X134280000Y-68480000D02*
X134280000Y-73020000D01*
X134295000Y-78980000D02*
X134280000Y-78980000D01*
X136420000Y-83520000D02*
X136405000Y-83520000D01*
X136420000Y-78980000D02*
X136405000Y-78980000D01*
X134295000Y-83520000D02*
X134280000Y-83520000D01*
X136420000Y-78980000D02*
X136420000Y-83520000D01*
X134280000Y-78980000D02*
X134280000Y-83520000D01*
X113870000Y-86195000D02*
X113870000Y-86180000D01*
X109330000Y-88320000D02*
X109330000Y-88305000D01*
X113870000Y-88320000D02*
X113870000Y-88305000D01*
X109330000Y-86195000D02*
X109330000Y-86180000D01*
X113870000Y-88320000D02*
X109330000Y-88320000D01*
X113870000Y-86180000D02*
X109330000Y-86180000D01*
X134295000Y-46730000D02*
X134280000Y-46730000D01*
X136420000Y-51270000D02*
X136405000Y-51270000D01*
X136420000Y-46730000D02*
X136405000Y-46730000D01*
X134295000Y-51270000D02*
X134280000Y-51270000D01*
X136420000Y-46730000D02*
X136420000Y-51270000D01*
X134280000Y-46730000D02*
X134280000Y-51270000D01*
X134295000Y-57480000D02*
X134280000Y-57480000D01*
X136420000Y-62020000D02*
X136405000Y-62020000D01*
X136420000Y-57480000D02*
X136405000Y-57480000D01*
X134295000Y-62020000D02*
X134280000Y-62020000D01*
X136420000Y-57480000D02*
X136420000Y-62020000D01*
X134280000Y-57480000D02*
X134280000Y-62020000D01*
X131740000Y-142480000D02*
X131725000Y-142480000D01*
X133865000Y-147020000D02*
X133850000Y-147020000D01*
X133865000Y-142480000D02*
X133850000Y-142480000D01*
X131740000Y-147020000D02*
X131725000Y-147020000D01*
X133865000Y-142480000D02*
X133865000Y-147020000D01*
X131725000Y-142480000D02*
X131725000Y-147020000D01*
X131990000Y-121230000D02*
X131975000Y-121230000D01*
X134115000Y-125770000D02*
X134100000Y-125770000D01*
X134115000Y-121230000D02*
X134100000Y-121230000D01*
X131990000Y-125770000D02*
X131975000Y-125770000D01*
X134115000Y-121230000D02*
X134115000Y-125770000D01*
X131975000Y-121230000D02*
X131975000Y-125770000D01*
X131740000Y-131980000D02*
X131725000Y-131980000D01*
X133865000Y-136520000D02*
X133850000Y-136520000D01*
X133865000Y-131980000D02*
X133850000Y-131980000D01*
X131740000Y-136520000D02*
X131725000Y-136520000D01*
X133865000Y-131980000D02*
X133865000Y-136520000D01*
X131725000Y-131980000D02*
X131725000Y-136520000D01*
X131990000Y-110730000D02*
X131975000Y-110730000D01*
X134115000Y-115270000D02*
X134100000Y-115270000D01*
X134115000Y-110730000D02*
X134100000Y-110730000D01*
X131990000Y-115270000D02*
X131975000Y-115270000D01*
X134115000Y-110730000D02*
X134115000Y-115270000D01*
X131975000Y-110730000D02*
X131975000Y-115270000D01*
X113670000Y-145745000D02*
X113670000Y-145730000D01*
X109130000Y-147870000D02*
X109130000Y-147855000D01*
X113670000Y-147870000D02*
X113670000Y-147855000D01*
X109130000Y-145745000D02*
X109130000Y-145730000D01*
X113670000Y-147870000D02*
X109130000Y-147870000D01*
X113670000Y-145730000D02*
X109130000Y-145730000D01*
X114120000Y-124695000D02*
X114120000Y-124680000D01*
X109580000Y-126820000D02*
X109580000Y-126805000D01*
X114120000Y-126820000D02*
X114120000Y-126805000D01*
X109580000Y-124695000D02*
X109580000Y-124680000D01*
X114120000Y-126820000D02*
X109580000Y-126820000D01*
X114120000Y-124680000D02*
X109580000Y-124680000D01*
X131990000Y-100230000D02*
X131975000Y-100230000D01*
X134115000Y-104770000D02*
X134100000Y-104770000D01*
X134115000Y-100230000D02*
X134100000Y-100230000D01*
X131990000Y-104770000D02*
X131975000Y-104770000D01*
X134115000Y-100230000D02*
X134115000Y-104770000D01*
X131975000Y-100230000D02*
X131975000Y-104770000D01*
X131740000Y-78980000D02*
X131725000Y-78980000D01*
X133865000Y-83520000D02*
X133850000Y-83520000D01*
X133865000Y-78980000D02*
X133850000Y-78980000D01*
X131740000Y-83520000D02*
X131725000Y-83520000D01*
X133865000Y-78980000D02*
X133865000Y-83520000D01*
X131725000Y-78980000D02*
X131725000Y-83520000D01*
X131740000Y-57480000D02*
X131725000Y-57480000D01*
X133865000Y-62020000D02*
X133850000Y-62020000D01*
X133865000Y-57480000D02*
X133850000Y-57480000D01*
X131740000Y-62020000D02*
X131725000Y-62020000D01*
X133865000Y-57480000D02*
X133865000Y-62020000D01*
X131725000Y-57480000D02*
X131725000Y-62020000D01*
X131990000Y-89730000D02*
X131975000Y-89730000D01*
X134115000Y-94270000D02*
X134100000Y-94270000D01*
X134115000Y-89730000D02*
X134100000Y-89730000D01*
X131990000Y-94270000D02*
X131975000Y-94270000D01*
X134115000Y-89730000D02*
X134115000Y-94270000D01*
X131975000Y-89730000D02*
X131975000Y-94270000D01*
X131740000Y-68480000D02*
X131725000Y-68480000D01*
X133865000Y-73020000D02*
X133850000Y-73020000D01*
X133865000Y-68480000D02*
X133850000Y-68480000D01*
X131740000Y-73020000D02*
X131725000Y-73020000D01*
X133865000Y-68480000D02*
X133865000Y-73020000D01*
X131725000Y-68480000D02*
X131725000Y-73020000D01*
X131740000Y-46730000D02*
X131725000Y-46730000D01*
X133865000Y-51270000D02*
X133850000Y-51270000D01*
X133865000Y-46730000D02*
X133850000Y-46730000D01*
X131740000Y-51270000D02*
X131725000Y-51270000D01*
X133865000Y-46730000D02*
X133865000Y-51270000D01*
X131725000Y-46730000D02*
X131725000Y-51270000D01*
X114120000Y-103695000D02*
X114120000Y-103680000D01*
X109580000Y-105820000D02*
X109580000Y-105805000D01*
X114120000Y-105820000D02*
X114120000Y-105805000D01*
X109580000Y-103695000D02*
X109580000Y-103680000D01*
X114120000Y-105820000D02*
X109580000Y-105820000D01*
X114120000Y-103680000D02*
X109580000Y-103680000D01*
X113870000Y-83445000D02*
X113870000Y-83430000D01*
X109330000Y-85570000D02*
X109330000Y-85555000D01*
X113870000Y-85570000D02*
X113870000Y-85555000D01*
X109330000Y-83445000D02*
X109330000Y-83430000D01*
X113870000Y-85570000D02*
X109330000Y-85570000D01*
X113870000Y-83430000D02*
X109330000Y-83430000D01*
X114120000Y-63195000D02*
X114120000Y-63180000D01*
X109580000Y-65320000D02*
X109580000Y-65305000D01*
X114120000Y-65320000D02*
X114120000Y-65305000D01*
X109580000Y-63195000D02*
X109580000Y-63180000D01*
X114120000Y-65320000D02*
X109580000Y-65320000D01*
X114120000Y-63180000D02*
X109580000Y-63180000D01*
X114120000Y-60645000D02*
X114120000Y-60630000D01*
X109580000Y-62770000D02*
X109580000Y-62755000D01*
X114120000Y-62770000D02*
X114120000Y-62755000D01*
X109580000Y-60645000D02*
X109580000Y-60630000D01*
X114120000Y-62770000D02*
X109580000Y-62770000D01*
X114120000Y-60630000D02*
X109580000Y-60630000D01*
X89567500Y-136880000D02*
X89697500Y-136880000D01*
X92507500Y-136880000D02*
X92377500Y-136880000D01*
X92377500Y-142320000D02*
X92507500Y-142320000D01*
X89697500Y-142320000D02*
X89567500Y-142320000D01*
X92507500Y-142320000D02*
X92507500Y-136880000D01*
X89567500Y-142320000D02*
X89567500Y-136880000D01*
X89567500Y-141540000D02*
X92507500Y-141540000D01*
X89567500Y-141420000D02*
X92507500Y-141420000D01*
X89567500Y-141300000D02*
X92507500Y-141300000D01*
X95462500Y-47860000D02*
X94812500Y-47860000D01*
X95462500Y-44740000D02*
X96112500Y-44740000D01*
X95462500Y-47860000D02*
X96112500Y-47860000D01*
X95462500Y-44740000D02*
X93787500Y-44740000D01*
X90667224Y-68522500D02*
X90157776Y-68522500D01*
X90667224Y-67477500D02*
X90157776Y-67477500D01*
X90954724Y-44377500D02*
X90445276Y-44377500D01*
X90954724Y-45422500D02*
X90445276Y-45422500D01*
X96262500Y-90760000D02*
X95612500Y-90760000D01*
X96262500Y-87640000D02*
X96912500Y-87640000D01*
X96262500Y-87640000D02*
X94587500Y-87640000D01*
X96262500Y-90760000D02*
X96912500Y-90760000D01*
X90654724Y-70822500D02*
X90145276Y-70822500D01*
X90654724Y-69777500D02*
X90145276Y-69777500D01*
X81370000Y-42695000D02*
X82700000Y-42695000D01*
X81370000Y-47895000D02*
X84030000Y-47895000D01*
X84030000Y-45295000D02*
X84030000Y-47895000D01*
X81370000Y-45295000D02*
X84030000Y-45295000D01*
X81370000Y-45295000D02*
X81370000Y-47895000D01*
X81370000Y-44025000D02*
X81370000Y-42695000D01*
X94542500Y-82142500D02*
X115132500Y-82142500D01*
X95692500Y-82302500D02*
X94392500Y-82302500D01*
X115132500Y-71762500D02*
X94542500Y-71762500D01*
X95602500Y-78462500D02*
X95602500Y-75462500D01*
X94392500Y-82302500D02*
X94392500Y-81092500D01*
X95752500Y-77292500D02*
X96952500Y-77292500D01*
X96382500Y-77292500D02*
X96382500Y-78392500D01*
X96952500Y-76592500D02*
X95752500Y-76592500D01*
X115132500Y-82142500D02*
X115132500Y-71762500D01*
X96382500Y-76592500D02*
X96382500Y-75492500D01*
X94542500Y-78462500D02*
X95582500Y-78462500D01*
X96552500Y-77292500D02*
X96152500Y-76592500D01*
X95752500Y-76592500D02*
X95752500Y-77292500D01*
X96952500Y-77292500D02*
X96952500Y-76592500D01*
X95602500Y-75462500D02*
X94542500Y-75462500D01*
X94542500Y-71762500D02*
X94542500Y-82142500D01*
X125540500Y-99030000D02*
X130682500Y-99030000D01*
X117442500Y-99030000D02*
X117442500Y-105770000D01*
X130682500Y-99030000D02*
X130682500Y-105770000D01*
X117442500Y-99030000D02*
X122584500Y-99030000D01*
X117442500Y-105770000D02*
X122584500Y-105770000D01*
X125540500Y-105770000D02*
X130682500Y-105770000D01*
X89060000Y-57320000D02*
X88930000Y-57320000D01*
X91740000Y-57320000D02*
X91870000Y-57320000D01*
X91870000Y-57320000D02*
X91870000Y-51880000D01*
X91870000Y-51880000D02*
X91740000Y-51880000D01*
X88930000Y-57320000D02*
X88930000Y-51880000D01*
X88930000Y-56420000D02*
X91870000Y-56420000D01*
X88930000Y-51880000D02*
X89060000Y-51880000D01*
X88930000Y-56540000D02*
X91870000Y-56540000D01*
X88930000Y-56300000D02*
X91870000Y-56300000D01*
X80770000Y-135400000D02*
X80770000Y-134070000D01*
X80770000Y-136670000D02*
X80770000Y-139270000D01*
X80770000Y-136670000D02*
X83430000Y-136670000D01*
X80770000Y-134070000D02*
X82100000Y-134070000D01*
X80770000Y-139270000D02*
X83430000Y-139270000D01*
X83430000Y-136670000D02*
X83430000Y-139270000D01*
X82346267Y-142410000D02*
X82053733Y-142410000D01*
X82346267Y-141390000D02*
X82053733Y-141390000D01*
X97152500Y-117792500D02*
X95952500Y-117792500D01*
X95952500Y-117792500D02*
X95952500Y-118492500D01*
X94742500Y-119662500D02*
X95782500Y-119662500D01*
X95892500Y-123502500D02*
X94592500Y-123502500D01*
X94592500Y-123502500D02*
X94592500Y-122292500D01*
X95802500Y-119662500D02*
X95802500Y-116662500D01*
X96582500Y-117792500D02*
X96582500Y-116692500D01*
X97152500Y-118492500D02*
X97152500Y-117792500D01*
X95802500Y-116662500D02*
X94742500Y-116662500D01*
X95952500Y-118492500D02*
X97152500Y-118492500D01*
X94742500Y-123342500D02*
X115332500Y-123342500D01*
X96752500Y-118492500D02*
X96352500Y-117792500D01*
X115332500Y-112962500D02*
X94742500Y-112962500D01*
X115332500Y-123342500D02*
X115332500Y-112962500D01*
X96582500Y-118492500D02*
X96582500Y-119592500D01*
X94742500Y-112962500D02*
X94742500Y-123342500D01*
X117230000Y-137620000D02*
X122372000Y-137620000D01*
X125328000Y-130880000D02*
X130470000Y-130880000D01*
X125328000Y-137620000D02*
X130470000Y-137620000D01*
X130470000Y-130880000D02*
X130470000Y-137620000D01*
X117230000Y-130880000D02*
X122372000Y-130880000D01*
X117230000Y-130880000D02*
X117230000Y-137620000D01*
X96262500Y-108540000D02*
X94587500Y-108540000D01*
X96262500Y-111660000D02*
X96912500Y-111660000D01*
X96262500Y-111660000D02*
X95612500Y-111660000D01*
X96262500Y-108540000D02*
X96912500Y-108540000D01*
X90517224Y-88822500D02*
X90007776Y-88822500D01*
X90517224Y-87777500D02*
X90007776Y-87777500D01*
X95722500Y-98720000D02*
X95722500Y-95720000D01*
X95872500Y-96850000D02*
X95872500Y-97550000D01*
X95872500Y-97550000D02*
X97072500Y-97550000D01*
X95722500Y-95720000D02*
X94662500Y-95720000D01*
X96502500Y-97550000D02*
X96502500Y-98650000D01*
X95812500Y-102560000D02*
X94512500Y-102560000D01*
X94662500Y-102400000D02*
X115252500Y-102400000D01*
X94662500Y-92020000D02*
X94662500Y-102400000D01*
X115252500Y-102400000D02*
X115252500Y-92020000D01*
X97072500Y-97550000D02*
X97072500Y-96850000D01*
X94662500Y-98720000D02*
X95702500Y-98720000D01*
X97072500Y-96850000D02*
X95872500Y-96850000D01*
X96672500Y-97550000D02*
X96272500Y-96850000D01*
X115252500Y-92020000D02*
X94662500Y-92020000D01*
X94512500Y-102560000D02*
X94512500Y-101350000D01*
X96502500Y-96850000D02*
X96502500Y-95750000D01*
X91221267Y-146810000D02*
X90928733Y-146810000D01*
X91221267Y-145790000D02*
X90928733Y-145790000D01*
X94742500Y-59642500D02*
X115332500Y-59642500D01*
X95802500Y-52962500D02*
X94742500Y-52962500D01*
X94742500Y-55962500D02*
X95782500Y-55962500D01*
X96582500Y-54092500D02*
X96582500Y-52992500D01*
X94592500Y-59802500D02*
X94592500Y-58592500D01*
X94742500Y-49262500D02*
X94742500Y-59642500D01*
X95952500Y-54792500D02*
X97152500Y-54792500D01*
X97152500Y-54092500D02*
X95952500Y-54092500D01*
X115332500Y-49262500D02*
X94742500Y-49262500D01*
X96752500Y-54792500D02*
X96352500Y-54092500D01*
X96582500Y-54792500D02*
X96582500Y-55892500D01*
X95892500Y-59802500D02*
X94592500Y-59802500D01*
X95802500Y-55962500D02*
X95802500Y-52962500D01*
X115332500Y-59642500D02*
X115332500Y-49262500D01*
X97152500Y-54792500D02*
X97152500Y-54092500D01*
X95952500Y-54092500D02*
X95952500Y-54792500D01*
X95537500Y-129440000D02*
X93862500Y-129440000D01*
X95537500Y-132560000D02*
X96187500Y-132560000D01*
X95537500Y-132560000D02*
X94887500Y-132560000D01*
X95537500Y-129440000D02*
X96187500Y-129440000D01*
X90517224Y-89977500D02*
X90007776Y-89977500D01*
X90517224Y-91022500D02*
X90007776Y-91022500D01*
X96520000Y-139492500D02*
X96520000Y-140592500D01*
X95890000Y-139492500D02*
X97090000Y-139492500D01*
X95740000Y-137662500D02*
X94680000Y-137662500D01*
X96690000Y-139492500D02*
X96290000Y-138792500D01*
X95740000Y-140662500D02*
X95740000Y-137662500D01*
X97090000Y-139492500D02*
X97090000Y-138792500D01*
X95890000Y-138792500D02*
X95890000Y-139492500D01*
X115270000Y-144342500D02*
X115270000Y-133962500D01*
X94680000Y-133962500D02*
X94680000Y-144342500D01*
X94680000Y-140662500D02*
X95720000Y-140662500D01*
X94680000Y-144342500D02*
X115270000Y-144342500D01*
X115270000Y-133962500D02*
X94680000Y-133962500D01*
X94530000Y-144502500D02*
X94530000Y-143292500D01*
X95830000Y-144502500D02*
X94530000Y-144502500D01*
X97090000Y-138792500D02*
X95890000Y-138792500D01*
X96520000Y-138792500D02*
X96520000Y-137692500D01*
X117230000Y-52370000D02*
X122372000Y-52370000D01*
X125328000Y-52370000D02*
X130470000Y-52370000D01*
X130470000Y-45630000D02*
X130470000Y-52370000D01*
X117230000Y-45630000D02*
X117230000Y-52370000D01*
X125328000Y-45630000D02*
X130470000Y-45630000D01*
X117230000Y-45630000D02*
X122372000Y-45630000D01*
X103350000Y-147740000D02*
X102850000Y-147740000D01*
X102850000Y-147740000D02*
X103100000Y-148240000D01*
X101150000Y-148790000D02*
X102260000Y-148790000D01*
X103100000Y-148240000D02*
X103350000Y-147740000D01*
X101150000Y-152500000D02*
X102260000Y-152500000D01*
X103940000Y-152500000D02*
X105050000Y-152500000D01*
X103940000Y-148790000D02*
X105050000Y-148790000D01*
X90546267Y-61910000D02*
X90253733Y-61910000D01*
X90546267Y-60890000D02*
X90253733Y-60890000D01*
X125415500Y-147970000D02*
X130557500Y-147970000D01*
X125415500Y-141230000D02*
X130557500Y-141230000D01*
X117317500Y-141230000D02*
X117317500Y-147970000D01*
X117317500Y-147970000D02*
X122459500Y-147970000D01*
X117317500Y-141230000D02*
X122459500Y-141230000D01*
X130557500Y-141230000D02*
X130557500Y-147970000D01*
X91154724Y-111822500D02*
X90645276Y-111822500D01*
X91154724Y-110777500D02*
X90645276Y-110777500D01*
X89430000Y-120120000D02*
X92370000Y-120120000D01*
X89430000Y-120240000D02*
X92370000Y-120240000D01*
X89430000Y-115580000D02*
X89560000Y-115580000D01*
X89430000Y-121020000D02*
X89430000Y-115580000D01*
X92240000Y-121020000D02*
X92370000Y-121020000D01*
X89430000Y-120000000D02*
X92370000Y-120000000D01*
X89560000Y-121020000D02*
X89430000Y-121020000D01*
X92370000Y-115580000D02*
X92240000Y-115580000D01*
X92370000Y-121020000D02*
X92370000Y-115580000D01*
X117380000Y-84770000D02*
X122522000Y-84770000D01*
X125478000Y-78030000D02*
X130620000Y-78030000D01*
X117380000Y-78030000D02*
X117380000Y-84770000D01*
X117380000Y-78030000D02*
X122522000Y-78030000D01*
X130620000Y-78030000D02*
X130620000Y-84770000D01*
X125478000Y-84770000D02*
X130620000Y-84770000D01*
X130095000Y-152080000D02*
X132695000Y-152080000D01*
X130095000Y-149420000D02*
X132695000Y-149420000D01*
X132695000Y-152080000D02*
X132695000Y-149420000D01*
X127495000Y-152080000D02*
X127495000Y-150750000D01*
X128825000Y-152080000D02*
X127495000Y-152080000D01*
X130095000Y-152080000D02*
X130095000Y-149420000D01*
X90854724Y-48022500D02*
X90345276Y-48022500D01*
X90854724Y-46977500D02*
X90345276Y-46977500D01*
X125278000Y-62870000D02*
X130420000Y-62870000D01*
X117180000Y-56130000D02*
X117180000Y-62870000D01*
X117180000Y-56130000D02*
X122322000Y-56130000D01*
X125278000Y-56130000D02*
X130420000Y-56130000D01*
X117180000Y-62870000D02*
X122322000Y-62870000D01*
X130420000Y-56130000D02*
X130420000Y-62870000D01*
X130720000Y-88630000D02*
X130720000Y-95370000D01*
X117480000Y-88630000D02*
X117480000Y-95370000D01*
X125578000Y-95370000D02*
X130720000Y-95370000D01*
X125578000Y-88630000D02*
X130720000Y-88630000D01*
X117480000Y-95370000D02*
X122622000Y-95370000D01*
X117480000Y-88630000D02*
X122622000Y-88630000D01*
X90792224Y-130622500D02*
X90282776Y-130622500D01*
X90792224Y-129577500D02*
X90282776Y-129577500D01*
X91154724Y-109422500D02*
X90645276Y-109422500D01*
X91154724Y-108377500D02*
X90645276Y-108377500D01*
X90508767Y-104410000D02*
X90216233Y-104410000D01*
X90508767Y-103390000D02*
X90216233Y-103390000D01*
X125578000Y-74120000D02*
X130720000Y-74120000D01*
X117480000Y-74120000D02*
X122622000Y-74120000D01*
X125578000Y-67380000D02*
X130720000Y-67380000D01*
X117480000Y-67380000D02*
X122622000Y-67380000D01*
X130720000Y-67380000D02*
X130720000Y-74120000D01*
X117480000Y-67380000D02*
X117480000Y-74120000D01*
X103350000Y-45260000D02*
X103850000Y-45260000D01*
X105550000Y-40500000D02*
X104440000Y-40500000D01*
X102760000Y-44210000D02*
X101650000Y-44210000D01*
X103600000Y-44760000D02*
X103350000Y-45260000D01*
X105550000Y-44210000D02*
X104440000Y-44210000D01*
X102760000Y-40500000D02*
X101650000Y-40500000D01*
X103850000Y-45260000D02*
X103600000Y-44760000D01*
X125578000Y-109880000D02*
X130720000Y-109880000D01*
X117480000Y-109880000D02*
X117480000Y-116620000D01*
X117480000Y-116620000D02*
X122622000Y-116620000D01*
X117480000Y-109880000D02*
X122622000Y-109880000D01*
X130720000Y-109880000D02*
X130720000Y-116620000D01*
X125578000Y-116620000D02*
X130720000Y-116620000D01*
X88892500Y-99020000D02*
X91832500Y-99020000D01*
X91702500Y-99920000D02*
X91832500Y-99920000D01*
X88892500Y-98900000D02*
X91832500Y-98900000D01*
X88892500Y-99140000D02*
X91832500Y-99140000D01*
X89022500Y-99920000D02*
X88892500Y-99920000D01*
X91832500Y-99920000D02*
X91832500Y-94480000D01*
X88892500Y-94480000D02*
X89022500Y-94480000D01*
X91832500Y-94480000D02*
X91702500Y-94480000D01*
X88892500Y-99920000D02*
X88892500Y-94480000D01*
X90946267Y-124590000D02*
X90653733Y-124590000D01*
X90946267Y-125610000D02*
X90653733Y-125610000D01*
X80070000Y-89850000D02*
X81400000Y-89850000D01*
X80070000Y-92450000D02*
X80070000Y-105210000D01*
X80070000Y-91180000D02*
X80070000Y-89850000D01*
X82730000Y-92450000D02*
X82730000Y-105210000D01*
X80070000Y-92450000D02*
X82730000Y-92450000D01*
X80070000Y-105210000D02*
X82730000Y-105210000D01*
X130325000Y-43580000D02*
X128995000Y-43580000D01*
X134195000Y-43580000D02*
X134195000Y-40920000D01*
X131595000Y-40920000D02*
X134195000Y-40920000D01*
X131595000Y-43580000D02*
X131595000Y-40920000D01*
X128995000Y-43580000D02*
X128995000Y-42250000D01*
X131595000Y-43580000D02*
X134195000Y-43580000D01*
X96000000Y-67240000D02*
X94325000Y-67240000D01*
X96000000Y-70360000D02*
X96650000Y-70360000D01*
X96000000Y-67240000D02*
X96650000Y-67240000D01*
X96000000Y-70360000D02*
X95350000Y-70360000D01*
X85395000Y-147930000D02*
X85395000Y-145270000D01*
X81525000Y-147930000D02*
X80195000Y-147930000D01*
X82795000Y-145270000D02*
X85395000Y-145270000D01*
X80195000Y-147930000D02*
X80195000Y-146600000D01*
X82795000Y-147930000D02*
X85395000Y-147930000D01*
X82795000Y-147930000D02*
X82795000Y-145270000D01*
X90804724Y-131977500D02*
X90295276Y-131977500D01*
X90804724Y-133022500D02*
X90295276Y-133022500D01*
X117480000Y-120230000D02*
X122622000Y-120230000D01*
X125578000Y-120230000D02*
X130720000Y-120230000D01*
X125578000Y-126970000D02*
X130720000Y-126970000D01*
X130720000Y-120230000D02*
X130720000Y-126970000D01*
X117480000Y-126970000D02*
X122622000Y-126970000D01*
X117480000Y-120230000D02*
X117480000Y-126970000D01*
X90408767Y-84410000D02*
X90116233Y-84410000D01*
X90408767Y-83390000D02*
X90116233Y-83390000D01*
X91640000Y-79720000D02*
X91770000Y-79720000D01*
X88830000Y-74280000D02*
X88960000Y-74280000D01*
X88830000Y-78940000D02*
X91770000Y-78940000D01*
X91770000Y-79720000D02*
X91770000Y-74280000D01*
X88830000Y-78820000D02*
X91770000Y-78820000D01*
X88830000Y-79720000D02*
X88830000Y-74280000D01*
X91770000Y-74280000D02*
X91640000Y-74280000D01*
X88960000Y-79720000D02*
X88830000Y-79720000D01*
X88830000Y-78700000D02*
X91770000Y-78700000D01*
%LPC*%
D13*
X127350000Y-131250000D03*
X127350000Y-136250000D03*
X135350000Y-131750000D03*
X135350000Y-136750000D03*
X127350000Y-140000000D03*
X127350000Y-145000000D03*
X135600000Y-142250000D03*
X135600000Y-147250000D03*
X113850000Y-149500000D03*
X108850000Y-149500000D03*
X127350000Y-109500000D03*
X127350000Y-114500000D03*
X135600000Y-110500000D03*
X135600000Y-115500000D03*
X127100000Y-119000000D03*
X127100000Y-124000000D03*
X135600000Y-121000000D03*
X135600000Y-126000000D03*
X114350000Y-128500000D03*
X109350000Y-128500000D03*
X127100000Y-89500000D03*
X127100000Y-94500000D03*
X135600000Y-89500000D03*
X135600000Y-94500000D03*
X127350000Y-97500000D03*
X127350000Y-102500000D03*
X135600000Y-100000000D03*
X135600000Y-105000000D03*
X114350000Y-107500000D03*
X109350000Y-107500000D03*
X127100000Y-67750000D03*
X127100000Y-72750000D03*
X135350000Y-68250000D03*
X135350000Y-73250000D03*
X127100000Y-76750000D03*
X127100000Y-81750000D03*
X135350000Y-78750000D03*
X135350000Y-83750000D03*
X114100000Y-87250000D03*
X109100000Y-87250000D03*
X127100000Y-45250000D03*
X127100000Y-50250000D03*
X135350000Y-46500000D03*
X135350000Y-51500000D03*
X127100000Y-54500000D03*
X127100000Y-59500000D03*
X135350000Y-57250000D03*
X135350000Y-62250000D03*
X132795000Y-142250000D03*
X132795000Y-147250000D03*
X133045000Y-121000000D03*
X133045000Y-126000000D03*
X129905000Y-131250000D03*
X129905000Y-136250000D03*
X129905000Y-109500000D03*
X129905000Y-114500000D03*
X132795000Y-131750000D03*
X132795000Y-136750000D03*
X133045000Y-110500000D03*
X133045000Y-115500000D03*
X129905000Y-140000000D03*
X129905000Y-145000000D03*
X129850000Y-119000000D03*
X129850000Y-124000000D03*
X113900000Y-146800000D03*
X108900000Y-146800000D03*
X114350000Y-125750000D03*
X109350000Y-125750000D03*
X133045000Y-100000000D03*
X133045000Y-105000000D03*
X132795000Y-78750000D03*
X132795000Y-83750000D03*
X132795000Y-57250000D03*
X132795000Y-62250000D03*
X129905000Y-89500000D03*
X129905000Y-94500000D03*
X129905000Y-67750000D03*
X129905000Y-72750000D03*
X129600000Y-45250000D03*
X129600000Y-50250000D03*
X133045000Y-89500000D03*
X133045000Y-94500000D03*
X132795000Y-68250000D03*
X132795000Y-73250000D03*
X132795000Y-46500000D03*
X132795000Y-51500000D03*
X129850000Y-97500000D03*
X129850000Y-102500000D03*
X129850000Y-76750000D03*
X129850000Y-81750000D03*
X129655000Y-54500000D03*
X129655000Y-59500000D03*
X114350000Y-104750000D03*
X109350000Y-104750000D03*
X114100000Y-84500000D03*
X109100000Y-84500000D03*
X114350000Y-64250000D03*
X109350000Y-64250000D03*
X114350000Y-61700000D03*
X109350000Y-61700000D03*
D14*
X91037500Y-143410000D03*
D15*
X91037500Y-135790000D03*
D16*
X94525000Y-45350000D03*
X94525000Y-47250000D03*
X96400000Y-46300000D03*
D17*
X91325000Y-68000000D03*
X89500000Y-68000000D03*
X91612500Y-44900000D03*
X89787500Y-44900000D03*
D16*
X95325000Y-88250000D03*
X95325000Y-90150000D03*
X97200000Y-89200000D03*
D17*
X91312500Y-70300000D03*
X89487500Y-70300000D03*
D18*
X82700000Y-44025000D03*
D19*
X82700000Y-46565000D03*
D20*
X95942500Y-80762500D03*
D21*
X103562500Y-80762500D03*
X108642500Y-80762500D03*
X113722500Y-80762500D03*
X113722500Y-73142500D03*
X108642500Y-73142500D03*
X103562500Y-73142500D03*
X95942500Y-73142500D03*
D22*
X124062500Y-99600000D03*
X124062500Y-105200000D03*
D14*
X90400000Y-58410000D03*
D15*
X90400000Y-50790000D03*
D18*
X82100000Y-135400000D03*
D19*
X82100000Y-137940000D03*
D23*
X83062500Y-141900000D03*
X81337500Y-141900000D03*
D20*
X96142500Y-121962500D03*
D21*
X103762500Y-121962500D03*
X108842500Y-121962500D03*
X113922500Y-121962500D03*
X113922500Y-114342500D03*
X108842500Y-114342500D03*
X103762500Y-114342500D03*
X96142500Y-114342500D03*
D22*
X123850000Y-131450000D03*
X123850000Y-137050000D03*
D16*
X95325000Y-109150000D03*
X95325000Y-111050000D03*
X97200000Y-110100000D03*
D17*
X91175000Y-88300000D03*
X89350000Y-88300000D03*
D20*
X96062500Y-101020000D03*
D21*
X103682500Y-101020000D03*
X108762500Y-101020000D03*
X113842500Y-101020000D03*
X113842500Y-93400000D03*
X108762500Y-93400000D03*
X103682500Y-93400000D03*
X96062500Y-93400000D03*
D23*
X91937500Y-146300000D03*
X90212500Y-146300000D03*
D20*
X96142500Y-58262500D03*
D21*
X103762500Y-58262500D03*
X108842500Y-58262500D03*
X113922500Y-58262500D03*
X113922500Y-50642500D03*
X108842500Y-50642500D03*
X103762500Y-50642500D03*
X96142500Y-50642500D03*
D16*
X94600000Y-130050000D03*
X94600000Y-131950000D03*
X96475000Y-131000000D03*
D17*
X91175000Y-90500000D03*
X89350000Y-90500000D03*
D20*
X96080000Y-142962500D03*
D21*
X103700000Y-142962500D03*
X108780000Y-142962500D03*
X113860000Y-142962500D03*
X113860000Y-135342500D03*
X108780000Y-135342500D03*
X103700000Y-135342500D03*
X96080000Y-135342500D03*
D22*
X123850000Y-46200000D03*
X123850000Y-51800000D03*
D24*
X103100000Y-150700000D03*
D25*
X105925000Y-150500000D03*
X100275000Y-150500000D03*
D23*
X91262500Y-61400000D03*
X89537500Y-61400000D03*
D22*
X123937500Y-147400000D03*
X123937500Y-141800000D03*
D17*
X91812500Y-111300000D03*
X89987500Y-111300000D03*
D14*
X90900000Y-122110000D03*
D15*
X90900000Y-114490000D03*
D22*
X124000000Y-78600000D03*
X124000000Y-84200000D03*
D18*
X128825000Y-150750000D03*
D19*
X131365000Y-150750000D03*
D17*
X91512500Y-47500000D03*
X89687500Y-47500000D03*
D22*
X123800000Y-56700000D03*
X123800000Y-62300000D03*
X124100000Y-89200000D03*
X124100000Y-94800000D03*
D17*
X91450000Y-130100000D03*
X89625000Y-130100000D03*
X91812500Y-108900000D03*
X89987500Y-108900000D03*
D23*
X91225000Y-103900000D03*
X89500000Y-103900000D03*
D22*
X124100000Y-67950000D03*
X124100000Y-73550000D03*
D24*
X103600000Y-42300000D03*
D25*
X100775000Y-42500000D03*
X106425000Y-42500000D03*
D22*
X124100000Y-110450000D03*
X124100000Y-116050000D03*
D14*
X90362500Y-101010000D03*
D15*
X90362500Y-93390000D03*
D23*
X91662500Y-125100000D03*
X89937500Y-125100000D03*
D18*
X81400000Y-91180000D03*
D19*
X81400000Y-93720000D03*
X81400000Y-96260000D03*
X81400000Y-98800000D03*
X81400000Y-101340000D03*
X81400000Y-103880000D03*
D18*
X130325000Y-42250000D03*
D19*
X132865000Y-42250000D03*
D16*
X95062500Y-67850000D03*
X95062500Y-69750000D03*
X96937500Y-68800000D03*
D18*
X81525000Y-146600000D03*
D19*
X84065000Y-146600000D03*
D17*
X91462500Y-132500000D03*
X89637500Y-132500000D03*
D22*
X124100000Y-120800000D03*
X124100000Y-126400000D03*
D23*
X91125000Y-83900000D03*
X89400000Y-83900000D03*
D14*
X90300000Y-80810000D03*
D15*
X90300000Y-73190000D03*
%LPD*%
M02*
