%TF.GenerationSoftware,KiCad,Pcbnew,(6.0.2)*%
%TF.CreationDate,2022-11-21T15:36:14-08:00*%
%TF.ProjectId,tr_switch,74725f73-7769-4746-9368-2e6b69636164,rev?*%
%TF.SameCoordinates,PX4b94250PY699e930*%
%TF.FileFunction,Soldermask,Top*%
%TF.FilePolarity,Negative*%
%FSLAX46Y46*%
G04 Gerber Fmt 4.6, Leading zero omitted, Abs format (unit mm)*
G04 Created by KiCad (PCBNEW (6.0.2)) date 2022-11-21 15:36:14*
%MOMM*%
%LPD*%
G01*
G04 APERTURE LIST*
G04 Aperture macros list*
%AMRoundRect*
0 Rectangle with rounded corners*
0 $1 Rounding radius*
0 $2 $3 $4 $5 $6 $7 $8 $9 X,Y pos of 4 corners*
0 Add a 4 corners polygon primitive as box body*
4,1,4,$2,$3,$4,$5,$6,$7,$8,$9,$2,$3,0*
0 Add four circle primitives for the rounded corners*
1,1,$1+$1,$2,$3*
1,1,$1+$1,$4,$5*
1,1,$1+$1,$6,$7*
1,1,$1+$1,$8,$9*
0 Add four rect primitives between the rounded corners*
20,1,$1+$1,$2,$3,$4,$5,0*
20,1,$1+$1,$4,$5,$6,$7,0*
20,1,$1+$1,$6,$7,$8,$9,0*
20,1,$1+$1,$8,$9,$2,$3,0*%
G04 Aperture macros list end*
%ADD10R,1.700000X1.700000*%
%ADD11O,1.700000X1.700000*%
%ADD12R,1.100000X0.600000*%
%ADD13C,1.600000*%
%ADD14RoundRect,0.237500X0.300000X0.237500X-0.300000X0.237500X-0.300000X-0.237500X0.300000X-0.237500X0*%
%ADD15C,2.000000*%
%ADD16R,3.600000X1.270000*%
%ADD17R,4.200000X1.350000*%
%ADD18RoundRect,0.237500X0.250000X0.237500X-0.250000X0.237500X-0.250000X-0.237500X0.250000X-0.237500X0*%
%ADD19RoundRect,0.150000X0.150000X-0.587500X0.150000X0.587500X-0.150000X0.587500X-0.150000X-0.587500X0*%
%ADD20R,1.270000X3.600000*%
%ADD21R,1.350000X4.200000*%
%ADD22RoundRect,0.237500X0.237500X-0.300000X0.237500X0.300000X-0.237500X0.300000X-0.237500X-0.300000X0*%
%ADD23RoundRect,0.237500X-0.250000X-0.237500X0.250000X-0.237500X0.250000X0.237500X-0.250000X0.237500X0*%
%ADD24RoundRect,0.150000X0.587500X0.150000X-0.587500X0.150000X-0.587500X-0.150000X0.587500X-0.150000X0*%
%ADD25RoundRect,0.150000X-0.150000X0.587500X-0.150000X-0.587500X0.150000X-0.587500X0.150000X0.587500X0*%
G04 APERTURE END LIST*
D10*
%TO.C,J3*%
X2750000Y36900000D03*
D11*
X2750000Y39440000D03*
%TD*%
D12*
%TO.C,D2*%
X24800000Y29850000D03*
X27000000Y29850000D03*
%TD*%
D13*
%TO.C,C4*%
X9200000Y29900000D03*
X14200000Y29900000D03*
%TD*%
%TO.C,C5*%
X23650000Y34500000D03*
X23650000Y39500000D03*
%TD*%
D14*
%TO.C,C2*%
X30562500Y8000000D03*
X28837500Y8000000D03*
%TD*%
D15*
%TO.C,L2*%
X23050000Y23740000D03*
X23050000Y18660000D03*
%TD*%
D16*
%TO.C,J4*%
X2400000Y30000000D03*
D17*
X2600000Y32825000D03*
X2600000Y27175000D03*
%TD*%
D18*
%TO.C,R1*%
X17612500Y4850000D03*
X15787500Y4850000D03*
%TD*%
D19*
%TO.C,Q4*%
X29900000Y12825000D03*
X31800000Y12825000D03*
X30850000Y14700000D03*
%TD*%
D10*
%TO.C,J9*%
X3600000Y46550000D03*
D11*
X6140000Y46550000D03*
%TD*%
D15*
%TO.C,L3*%
X34950000Y18760000D03*
X34950000Y23840000D03*
%TD*%
D10*
%TO.C,J2*%
X21825000Y3750000D03*
D11*
X24365000Y3750000D03*
%TD*%
D20*
%TO.C,J6*%
X23500000Y47037500D03*
D21*
X26325000Y46837500D03*
X20675000Y46837500D03*
%TD*%
D15*
%TO.C,L1*%
X11350000Y18660000D03*
X11350000Y23740000D03*
%TD*%
D22*
%TO.C,C7*%
X42250000Y20137500D03*
X42250000Y21862500D03*
%TD*%
D18*
%TO.C,R13*%
X13662500Y13150000D03*
X11837500Y13150000D03*
%TD*%
D19*
%TO.C,Q3*%
X39650000Y12912500D03*
X41550000Y12912500D03*
X40600000Y14787500D03*
%TD*%
D23*
%TO.C,R12*%
X38537500Y9800000D03*
X40362500Y9800000D03*
%TD*%
D10*
%TO.C,J8*%
X41400000Y37200000D03*
D11*
X41400000Y39740000D03*
%TD*%
D23*
%TO.C,R7*%
X6637500Y8150000D03*
X8462500Y8150000D03*
%TD*%
D14*
%TO.C,C1*%
X30512500Y10250000D03*
X28787500Y10250000D03*
%TD*%
D23*
%TO.C,R11*%
X24587500Y15200000D03*
X26412500Y15200000D03*
%TD*%
D19*
%TO.C,Q6*%
X6450000Y12912500D03*
X8350000Y12912500D03*
X7400000Y14787500D03*
%TD*%
D18*
%TO.C,R10*%
X12812500Y14950000D03*
X10987500Y14950000D03*
%TD*%
D12*
%TO.C,D1*%
X20950000Y29850000D03*
X18750000Y29850000D03*
%TD*%
D10*
%TO.C,J1*%
X32650000Y3800000D03*
D11*
X30110000Y3800000D03*
%TD*%
D10*
%TO.C,J10*%
X38775000Y2600000D03*
D11*
X41315000Y2600000D03*
%TD*%
D18*
%TO.C,R5*%
X41612500Y7100000D03*
X39787500Y7100000D03*
%TD*%
D23*
%TO.C,R4*%
X24637500Y12200000D03*
X26462500Y12200000D03*
%TD*%
%TO.C,R8*%
X6537500Y10400000D03*
X8362500Y10400000D03*
%TD*%
%TO.C,R2*%
X20675000Y8400000D03*
X22500000Y8400000D03*
%TD*%
D10*
%TO.C,J11*%
X2600000Y4925000D03*
D11*
X2600000Y2385000D03*
%TD*%
D13*
%TO.C,C6*%
X31050000Y29900000D03*
X36050000Y29900000D03*
%TD*%
D19*
%TO.C,Q7*%
X18500000Y13062500D03*
X20400000Y13062500D03*
X19450000Y14937500D03*
%TD*%
D16*
%TO.C,J7*%
X41600000Y30000000D03*
D17*
X41400000Y27175000D03*
X41400000Y32825000D03*
%TD*%
D19*
%TO.C,Q5*%
X11400000Y9162500D03*
X13300000Y9162500D03*
X12350000Y11037500D03*
%TD*%
D23*
%TO.C,R9*%
X34787500Y14900000D03*
X36612500Y14900000D03*
%TD*%
D10*
%TO.C,J5*%
X16250000Y46800000D03*
D11*
X13710000Y46800000D03*
%TD*%
D24*
%TO.C,Q1*%
X13137500Y4900000D03*
X13137500Y6800000D03*
X11262500Y5850000D03*
%TD*%
D23*
%TO.C,R6*%
X6687500Y5800000D03*
X8512500Y5800000D03*
%TD*%
D18*
%TO.C,R3*%
X8525000Y3500000D03*
X6700000Y3500000D03*
%TD*%
D25*
%TO.C,Q2*%
X36800000Y12137500D03*
X34900000Y12137500D03*
X35850000Y10262500D03*
%TD*%
D10*
%TO.C,J12*%
X38550000Y46550000D03*
D11*
X41090000Y46550000D03*
%TD*%
D22*
%TO.C,C3*%
X3900000Y20387500D03*
X3900000Y22112500D03*
%TD*%
M02*
