%TF.GenerationSoftware,KiCad,Pcbnew,(6.0.2)*%
%TF.CreationDate,2022-12-27T18:57:37-08:00*%
%TF.ProjectId,tr_switch,74725f73-7769-4746-9368-2e6b69636164,rev?*%
%TF.SameCoordinates,PX4b94250PY699e930*%
%TF.FileFunction,Soldermask,Top*%
%TF.FilePolarity,Negative*%
%FSLAX46Y46*%
G04 Gerber Fmt 4.6, Leading zero omitted, Abs format (unit mm)*
G04 Created by KiCad (PCBNEW (6.0.2)) date 2022-12-27 18:57:37*
%MOMM*%
%LPD*%
G01*
G04 APERTURE LIST*
G04 Aperture macros list*
%AMRoundRect*
0 Rectangle with rounded corners*
0 $1 Rounding radius*
0 $2 $3 $4 $5 $6 $7 $8 $9 X,Y pos of 4 corners*
0 Add a 4 corners polygon primitive as box body*
4,1,4,$2,$3,$4,$5,$6,$7,$8,$9,$2,$3,0*
0 Add four circle primitives for the rounded corners*
1,1,$1+$1,$2,$3*
1,1,$1+$1,$4,$5*
1,1,$1+$1,$6,$7*
1,1,$1+$1,$8,$9*
0 Add four rect primitives between the rounded corners*
20,1,$1+$1,$2,$3,$4,$5,0*
20,1,$1+$1,$4,$5,$6,$7,0*
20,1,$1+$1,$6,$7,$8,$9,0*
20,1,$1+$1,$8,$9,$2,$3,0*%
G04 Aperture macros list end*
%ADD10R,2.200000X2.200000*%
%ADD11O,2.200000X2.200000*%
%ADD12C,1.600000*%
%ADD13R,1.600000X1.600000*%
%ADD14O,1.600000X1.600000*%
%ADD15RoundRect,0.237500X0.300000X0.237500X-0.300000X0.237500X-0.300000X-0.237500X0.300000X-0.237500X0*%
%ADD16C,2.000000*%
%ADD17R,3.600000X1.270000*%
%ADD18R,4.200000X1.350000*%
%ADD19RoundRect,0.237500X0.250000X0.237500X-0.250000X0.237500X-0.250000X-0.237500X0.250000X-0.237500X0*%
%ADD20R,1.700000X1.700000*%
%ADD21O,1.700000X1.700000*%
%ADD22R,1.270000X3.600000*%
%ADD23R,1.350000X4.200000*%
%ADD24RoundRect,0.150000X0.150000X-0.587500X0.150000X0.587500X-0.150000X0.587500X-0.150000X-0.587500X0*%
%ADD25RoundRect,0.237500X-0.250000X-0.237500X0.250000X-0.237500X0.250000X0.237500X-0.250000X0.237500X0*%
%ADD26RoundRect,0.237500X-0.237500X0.250000X-0.237500X-0.250000X0.237500X-0.250000X0.237500X0.250000X0*%
%ADD27RoundRect,0.237500X0.237500X-0.250000X0.237500X0.250000X-0.237500X0.250000X-0.237500X-0.250000X0*%
%ADD28RoundRect,0.150000X0.587500X0.150000X-0.587500X0.150000X-0.587500X-0.150000X0.587500X-0.150000X0*%
%ADD29RoundRect,0.150000X-0.150000X0.587500X-0.150000X-0.587500X0.150000X-0.587500X0.150000X0.587500X0*%
%ADD30C,2.400000*%
%ADD31O,2.400000X2.400000*%
G04 APERTURE END LIST*
D10*
%TO.C,D2*%
X32450000Y38955000D03*
D11*
X32450000Y28795000D03*
%TD*%
D12*
%TO.C,C4*%
X11675000Y33700000D03*
X11675000Y28700000D03*
%TD*%
D13*
%TO.C,D3*%
X18650000Y28040000D03*
D14*
X18650000Y35660000D03*
%TD*%
D12*
%TO.C,C5*%
X26025000Y41100000D03*
X21025000Y41100000D03*
%TD*%
D15*
%TO.C,C2*%
X30562500Y8000000D03*
X28837500Y8000000D03*
%TD*%
D16*
%TO.C,L2*%
X22975000Y23715000D03*
X22975000Y18635000D03*
%TD*%
D17*
%TO.C,J4*%
X2400000Y30000000D03*
D18*
X2600000Y32825000D03*
X2600000Y27175000D03*
%TD*%
D19*
%TO.C,R1*%
X17612500Y4850000D03*
X15787500Y4850000D03*
%TD*%
D20*
%TO.C,J9*%
X3600000Y46550000D03*
D21*
X6140000Y46550000D03*
%TD*%
D16*
%TO.C,L3*%
X38425000Y18635000D03*
X38425000Y23715000D03*
%TD*%
D20*
%TO.C,J2*%
X21825000Y3750000D03*
D21*
X24365000Y3750000D03*
%TD*%
D22*
%TO.C,J6*%
X23500000Y47037500D03*
D23*
X26325000Y46837500D03*
X20675000Y46837500D03*
%TD*%
D16*
%TO.C,L1*%
X10025000Y18585000D03*
X10025000Y23665000D03*
%TD*%
D12*
%TO.C,C7*%
X25625000Y33800000D03*
X25625000Y28800000D03*
%TD*%
D19*
%TO.C,R13*%
X13662500Y13150000D03*
X11837500Y13150000D03*
%TD*%
D24*
%TO.C,Q3*%
X39650000Y12912500D03*
X41550000Y12912500D03*
X40600000Y14787500D03*
%TD*%
D13*
%TO.C,D4*%
X21850000Y35710000D03*
D14*
X21850000Y28090000D03*
%TD*%
D25*
%TO.C,R12*%
X38537500Y9800000D03*
X40362500Y9800000D03*
%TD*%
%TO.C,R7*%
X6637500Y8150000D03*
X8462500Y8150000D03*
%TD*%
D15*
%TO.C,C1*%
X30512500Y10250000D03*
X28787500Y10250000D03*
%TD*%
D24*
%TO.C,Q6*%
X6450000Y12912500D03*
X8350000Y12912500D03*
X7400000Y14787500D03*
%TD*%
D19*
%TO.C,R10*%
X12812500Y14950000D03*
X10987500Y14950000D03*
%TD*%
D10*
%TO.C,D1*%
X7800000Y39130000D03*
D11*
X7800000Y28970000D03*
%TD*%
D20*
%TO.C,J1*%
X32650000Y3800000D03*
D21*
X30110000Y3800000D03*
%TD*%
D20*
%TO.C,J10*%
X43050000Y2925000D03*
D21*
X45590000Y2925000D03*
%TD*%
D19*
%TO.C,R5*%
X41612500Y7100000D03*
X39787500Y7100000D03*
%TD*%
D25*
%TO.C,R4*%
X21387500Y8975000D03*
X23212500Y8975000D03*
%TD*%
%TO.C,R8*%
X6537500Y10400000D03*
X8362500Y10400000D03*
%TD*%
D26*
%TO.C,R2*%
X17800000Y10212500D03*
X17800000Y8387500D03*
%TD*%
D20*
%TO.C,J11*%
X2600000Y4925000D03*
D21*
X2600000Y2385000D03*
%TD*%
D12*
%TO.C,C6*%
X41375000Y28500000D03*
X41375000Y33500000D03*
%TD*%
D24*
%TO.C,Q7*%
X18500000Y13062500D03*
X20400000Y13062500D03*
X19450000Y14937500D03*
%TD*%
D17*
%TO.C,J7*%
X46575000Y31025000D03*
D18*
X46375000Y28200000D03*
X46375000Y33850000D03*
%TD*%
D10*
%TO.C,D5*%
X36850000Y38905000D03*
D11*
X36850000Y28745000D03*
%TD*%
D24*
%TO.C,Q5*%
X11400000Y9162500D03*
X13300000Y9162500D03*
X12350000Y11037500D03*
%TD*%
D27*
%TO.C,R9*%
X29075000Y28337500D03*
X29075000Y30162500D03*
%TD*%
D28*
%TO.C,Q1*%
X13137500Y4900000D03*
X13137500Y6800000D03*
X11262500Y5850000D03*
%TD*%
D25*
%TO.C,R6*%
X6687500Y5800000D03*
X8512500Y5800000D03*
%TD*%
D19*
%TO.C,R3*%
X8525000Y3500000D03*
X6700000Y3500000D03*
%TD*%
D16*
%TO.C,L4*%
X41835000Y41125000D03*
X46915000Y41125000D03*
%TD*%
D29*
%TO.C,Q2*%
X36800000Y12137500D03*
X34900000Y12137500D03*
X35850000Y10262500D03*
%TD*%
D20*
%TO.C,J12*%
X35585000Y47525000D03*
D21*
X38125000Y47525000D03*
%TD*%
D12*
%TO.C,C3*%
X15125000Y28700000D03*
X15125000Y33700000D03*
%TD*%
D30*
%TO.C,R14*%
X44625000Y43850000D03*
D31*
X29385000Y43850000D03*
%TD*%
D30*
%TO.C,R11*%
X30370000Y21425000D03*
D31*
X15130000Y21425000D03*
%TD*%
M02*
