%TF.GenerationSoftware,KiCad,Pcbnew,(6.0.2)*%
%TF.CreationDate,2022-12-27T18:57:37-08:00*%
%TF.ProjectId,tr_switch,74725f73-7769-4746-9368-2e6b69636164,rev?*%
%TF.SameCoordinates,PX4b94250PY699e930*%
%TF.FileFunction,Legend,Bot*%
%TF.FilePolarity,Positive*%
%FSLAX46Y46*%
G04 Gerber Fmt 4.6, Leading zero omitted, Abs format (unit mm)*
G04 Created by KiCad (PCBNEW (6.0.2)) date 2022-12-27 18:57:37*
%MOMM*%
%LPD*%
G01*
G04 APERTURE LIST*
%ADD10C,0.150000*%
%ADD11C,0.120000*%
G04 APERTURE END LIST*
D10*
%TO.C,R14*%
X42317857Y46272620D02*
X42651190Y46748810D01*
X42889285Y46272620D02*
X42889285Y47272620D01*
X42508333Y47272620D01*
X42413095Y47225000D01*
X42365476Y47177381D01*
X42317857Y47082143D01*
X42317857Y46939286D01*
X42365476Y46844048D01*
X42413095Y46796429D01*
X42508333Y46748810D01*
X42889285Y46748810D01*
X41365476Y46272620D02*
X41936904Y46272620D01*
X41651190Y46272620D02*
X41651190Y47272620D01*
X41746428Y47129762D01*
X41841666Y47034524D01*
X41936904Y46986905D01*
X40508333Y46939286D02*
X40508333Y46272620D01*
X40746428Y47320239D02*
X40984523Y46605953D01*
X40365476Y46605953D01*
%TO.C,R11*%
X20167857Y24497620D02*
X20501190Y24973810D01*
X20739285Y24497620D02*
X20739285Y25497620D01*
X20358333Y25497620D01*
X20263095Y25450000D01*
X20215476Y25402381D01*
X20167857Y25307143D01*
X20167857Y25164286D01*
X20215476Y25069048D01*
X20263095Y25021429D01*
X20358333Y24973810D01*
X20739285Y24973810D01*
X19215476Y24497620D02*
X19786904Y24497620D01*
X19501190Y24497620D02*
X19501190Y25497620D01*
X19596428Y25354762D01*
X19691666Y25259524D01*
X19786904Y25211905D01*
X18263095Y24497620D02*
X18834523Y24497620D01*
X18548809Y24497620D02*
X18548809Y25497620D01*
X18644047Y25354762D01*
X18739285Y25259524D01*
X18834523Y25211905D01*
D11*
%TO.C,R14*%
X31935000Y45770000D02*
X42075000Y45770000D01*
X43185000Y43850000D02*
X42075000Y43850000D01*
X42075000Y45770000D02*
X42075000Y41930000D01*
X30825000Y43850000D02*
X31935000Y43850000D01*
X31935000Y41930000D02*
X31935000Y45770000D01*
X42075000Y41930000D02*
X31935000Y41930000D01*
%TO.C,R11*%
X27820000Y19505000D02*
X17680000Y19505000D01*
X17680000Y19505000D02*
X17680000Y23345000D01*
X27820000Y23345000D02*
X27820000Y19505000D01*
X17680000Y23345000D02*
X27820000Y23345000D01*
X16570000Y21425000D02*
X17680000Y21425000D01*
X28930000Y21425000D02*
X27820000Y21425000D01*
%TD*%
M02*
