M48
; DRILL file {KiCad (6.0.2)} date Mon Nov 21 15:36:23 2022
; FORMAT={-:-/ absolute / inch / decimal}
; #@! TF.CreationDate,2022-11-21T15:36:23-08:00
; #@! TF.GenerationSoftware,Kicad,Pcbnew,(6.0.2)
; #@! TF.FileFunction,Plated,1,2,PTH
FMAT,2
INCH
; #@! TA.AperFunction,Plated,PTH,ViaDrill
T1C0.0157
; #@! TA.AperFunction,Plated,PTH,ComponentDrill
T2C0.0315
; #@! TA.AperFunction,Plated,PTH,ComponentDrill
T3C0.0394
%
G90
G05
T1
X0.0748Y0.3996
X0.0965Y0.6043
X0.1004Y0.9921
X0.187Y0.4744
X0.2067Y1.372
X0.2126Y0.187
X0.3819Y1.2933
X0.3976Y1.6516
X0.3996Y0.4941
X0.5768Y0.3465
X0.5945Y0.2559
X0.7067Y1.0669
X0.75Y0.3327
X0.7579Y1.4331
X0.815Y1.7087
X0.872Y0.5079
X1.0827Y0.3583
X1.0846Y1.0571
X1.1022Y1.4358
X1.1024Y0.5965
X1.1122Y0.4823
X1.126Y1.7815
X1.2953Y0.3366
X1.3228Y0.5315
X1.3799Y0.1122
X1.3996Y1.2854
X1.4331Y1.752
X1.4921Y1.065
X1.5Y0.5354
X1.565Y1.3681
X1.6654Y0.9193
T2
X0.3622Y1.1772
X0.5591Y1.1772
X0.9311Y1.5551
X0.9311Y1.3583
X1.2224Y1.1772
X1.4193Y1.1772
T3
X0.1024Y0.1939
X0.1024Y0.0939
X0.1083Y1.5528
X0.1083Y1.4528
X0.1417Y1.8327
X0.2417Y1.8327
X0.4469Y0.9346
X0.4469Y0.7346
X0.5398Y1.8425
X0.6398Y1.8425
X0.8593Y0.1476
X0.9075Y0.9346
X0.9075Y0.7346
X0.9593Y0.1476
X1.1854Y0.1496
X1.2854Y0.1496
X1.376Y0.9386
X1.376Y0.7386
X1.5177Y1.8327
X1.5266Y0.1024
X1.6177Y1.8327
X1.6266Y0.1024
X1.6299Y1.5646
X1.6299Y1.4646
T0
M30
