%TF.GenerationSoftware,KiCad,Pcbnew,(6.0.2)*%
%TF.CreationDate,2022-12-27T18:57:37-08:00*%
%TF.ProjectId,tr_switch,74725f73-7769-4746-9368-2e6b69636164,rev?*%
%TF.SameCoordinates,PX4b94250PY699e930*%
%TF.FileFunction,Paste,Top*%
%TF.FilePolarity,Positive*%
%FSLAX46Y46*%
G04 Gerber Fmt 4.6, Leading zero omitted, Abs format (unit mm)*
G04 Created by KiCad (PCBNEW (6.0.2)) date 2022-12-27 18:57:37*
%MOMM*%
%LPD*%
G01*
G04 APERTURE LIST*
G04 Aperture macros list*
%AMRoundRect*
0 Rectangle with rounded corners*
0 $1 Rounding radius*
0 $2 $3 $4 $5 $6 $7 $8 $9 X,Y pos of 4 corners*
0 Add a 4 corners polygon primitive as box body*
4,1,4,$2,$3,$4,$5,$6,$7,$8,$9,$2,$3,0*
0 Add four circle primitives for the rounded corners*
1,1,$1+$1,$2,$3*
1,1,$1+$1,$4,$5*
1,1,$1+$1,$6,$7*
1,1,$1+$1,$8,$9*
0 Add four rect primitives between the rounded corners*
20,1,$1+$1,$2,$3,$4,$5,0*
20,1,$1+$1,$4,$5,$6,$7,0*
20,1,$1+$1,$6,$7,$8,$9,0*
20,1,$1+$1,$8,$9,$2,$3,0*%
G04 Aperture macros list end*
%ADD10RoundRect,0.237500X0.300000X0.237500X-0.300000X0.237500X-0.300000X-0.237500X0.300000X-0.237500X0*%
%ADD11R,3.600000X1.270000*%
%ADD12R,4.200000X1.350000*%
%ADD13RoundRect,0.237500X0.250000X0.237500X-0.250000X0.237500X-0.250000X-0.237500X0.250000X-0.237500X0*%
%ADD14R,1.270000X3.600000*%
%ADD15R,1.350000X4.200000*%
%ADD16RoundRect,0.150000X0.150000X-0.587500X0.150000X0.587500X-0.150000X0.587500X-0.150000X-0.587500X0*%
%ADD17RoundRect,0.237500X-0.250000X-0.237500X0.250000X-0.237500X0.250000X0.237500X-0.250000X0.237500X0*%
%ADD18RoundRect,0.237500X-0.237500X0.250000X-0.237500X-0.250000X0.237500X-0.250000X0.237500X0.250000X0*%
%ADD19RoundRect,0.237500X0.237500X-0.250000X0.237500X0.250000X-0.237500X0.250000X-0.237500X-0.250000X0*%
%ADD20RoundRect,0.150000X0.587500X0.150000X-0.587500X0.150000X-0.587500X-0.150000X0.587500X-0.150000X0*%
%ADD21RoundRect,0.150000X-0.150000X0.587500X-0.150000X-0.587500X0.150000X-0.587500X0.150000X0.587500X0*%
G04 APERTURE END LIST*
D10*
%TO.C,C2*%
X30562500Y8000000D03*
X28837500Y8000000D03*
%TD*%
D11*
%TO.C,J4*%
X2400000Y30000000D03*
D12*
X2600000Y32825000D03*
X2600000Y27175000D03*
%TD*%
D13*
%TO.C,R1*%
X17612500Y4850000D03*
X15787500Y4850000D03*
%TD*%
D14*
%TO.C,J6*%
X23500000Y47037500D03*
D15*
X26325000Y46837500D03*
X20675000Y46837500D03*
%TD*%
D13*
%TO.C,R13*%
X13662500Y13150000D03*
X11837500Y13150000D03*
%TD*%
D16*
%TO.C,Q3*%
X39650000Y12912500D03*
X41550000Y12912500D03*
X40600000Y14787500D03*
%TD*%
D17*
%TO.C,R12*%
X38537500Y9800000D03*
X40362500Y9800000D03*
%TD*%
%TO.C,R7*%
X6637500Y8150000D03*
X8462500Y8150000D03*
%TD*%
D10*
%TO.C,C1*%
X30512500Y10250000D03*
X28787500Y10250000D03*
%TD*%
D16*
%TO.C,Q6*%
X6450000Y12912500D03*
X8350000Y12912500D03*
X7400000Y14787500D03*
%TD*%
D13*
%TO.C,R10*%
X12812500Y14950000D03*
X10987500Y14950000D03*
%TD*%
%TO.C,R5*%
X41612500Y7100000D03*
X39787500Y7100000D03*
%TD*%
D17*
%TO.C,R4*%
X21387500Y8975000D03*
X23212500Y8975000D03*
%TD*%
%TO.C,R8*%
X6537500Y10400000D03*
X8362500Y10400000D03*
%TD*%
D18*
%TO.C,R2*%
X17800000Y10212500D03*
X17800000Y8387500D03*
%TD*%
D16*
%TO.C,Q7*%
X18500000Y13062500D03*
X20400000Y13062500D03*
X19450000Y14937500D03*
%TD*%
D11*
%TO.C,J7*%
X46575000Y31025000D03*
D12*
X46375000Y28200000D03*
X46375000Y33850000D03*
%TD*%
D16*
%TO.C,Q5*%
X11400000Y9162500D03*
X13300000Y9162500D03*
X12350000Y11037500D03*
%TD*%
D19*
%TO.C,R9*%
X29075000Y28337500D03*
X29075000Y30162500D03*
%TD*%
D20*
%TO.C,Q1*%
X13137500Y4900000D03*
X13137500Y6800000D03*
X11262500Y5850000D03*
%TD*%
D17*
%TO.C,R6*%
X6687500Y5800000D03*
X8512500Y5800000D03*
%TD*%
D13*
%TO.C,R3*%
X8525000Y3500000D03*
X6700000Y3500000D03*
%TD*%
D21*
%TO.C,Q2*%
X36800000Y12137500D03*
X34900000Y12137500D03*
X35850000Y10262500D03*
%TD*%
M02*
