M48
; DRILL file {KiCad (6.0.2)} date Tue Dec 27 18:58:28 2022
; FORMAT={-:-/ absolute / inch / decimal}
; #@! TF.CreationDate,2022-12-27T18:58:28-08:00
; #@! TF.GenerationSoftware,Kicad,Pcbnew,(6.0.2)
; #@! TF.FileFunction,Plated,1,2,PTH
FMAT,2
INCH
; #@! TA.AperFunction,Plated,PTH,ViaDrill
T1C0.0157
; #@! TA.AperFunction,Plated,PTH,ComponentDrill
T2C0.0315
; #@! TA.AperFunction,Plated,PTH,ComponentDrill
T3C0.0394
; #@! TA.AperFunction,Plated,PTH,ComponentDrill
T4C0.0433
; #@! TA.AperFunction,Plated,PTH,ComponentDrill
T5C0.0472
%
G90
G05
T1
X0.0748Y0.3996
X0.0965Y0.6043
X0.1398Y1.3681
X0.187Y0.4744
X0.1919Y0.9774
X0.2126Y0.187
X0.3976Y1.6516
X0.3996Y0.4941
X0.5768Y0.3465
X0.5945Y0.2559
X0.6191Y1.2313
X0.6604Y0.4587
X0.815Y1.7087
X0.872Y0.5079
X1.0423Y1.7126
X1.0472Y1.4754
X1.0827Y0.3583
X1.2057Y0.7028
X1.2126Y1.0157
X1.2953Y0.3366
X1.3228Y0.5315
X1.3681Y1.7067
X1.3799Y0.1122
X1.7057Y1.1693
X1.7726Y1.3976
X1.8031Y0.435
X1.812Y0.878
T2
X0.4596Y1.3268
X0.4596Y1.1299
X0.5955Y1.3268
X0.5955Y1.1299
X0.7343Y1.4039
X0.7343Y1.1039
X0.8278Y1.6181
X0.8602Y1.4059
X0.8602Y1.1059
X1.0089Y1.3307
X1.0089Y1.1339
X1.0246Y1.6181
X1.6289Y1.3189
X1.6289Y1.122
T3
X0.1024Y0.1939
X0.1024Y0.0939
X0.1417Y1.8327
X0.2417Y1.8327
X0.3947Y0.9317
X0.3947Y0.7317
X0.8593Y0.1476
X0.9045Y0.9337
X0.9045Y0.7337
X0.9593Y0.1476
X1.1854Y0.1496
X1.2854Y0.1496
X1.401Y1.8711
X1.501Y1.8711
X1.5128Y0.9337
X1.5128Y0.7337
X1.647Y1.6191
X1.6949Y0.1152
X1.7949Y0.1152
X1.847Y1.6191
T4
X0.3071Y1.5406
X0.3071Y1.1406
X1.2776Y1.5337
X1.2776Y1.1337
X1.4508Y1.5317
X1.4508Y1.1317
T5
X0.5957Y0.8435
X1.1569Y1.7264
X1.1957Y0.8435
X1.7569Y1.7264
T0
M30
