%TF.GenerationSoftware,KiCad,Pcbnew,(6.0.2)*%
%TF.CreationDate,2022-11-21T15:36:14-08:00*%
%TF.ProjectId,tr_switch,74725f73-7769-4746-9368-2e6b69636164,rev?*%
%TF.SameCoordinates,PX4b94250PY699e930*%
%TF.FileFunction,Copper,L1,Top*%
%TF.FilePolarity,Positive*%
%FSLAX46Y46*%
G04 Gerber Fmt 4.6, Leading zero omitted, Abs format (unit mm)*
G04 Created by KiCad (PCBNEW (6.0.2)) date 2022-11-21 15:36:14*
%MOMM*%
%LPD*%
G01*
G04 APERTURE LIST*
G04 Aperture macros list*
%AMRoundRect*
0 Rectangle with rounded corners*
0 $1 Rounding radius*
0 $2 $3 $4 $5 $6 $7 $8 $9 X,Y pos of 4 corners*
0 Add a 4 corners polygon primitive as box body*
4,1,4,$2,$3,$4,$5,$6,$7,$8,$9,$2,$3,0*
0 Add four circle primitives for the rounded corners*
1,1,$1+$1,$2,$3*
1,1,$1+$1,$4,$5*
1,1,$1+$1,$6,$7*
1,1,$1+$1,$8,$9*
0 Add four rect primitives between the rounded corners*
20,1,$1+$1,$2,$3,$4,$5,0*
20,1,$1+$1,$4,$5,$6,$7,0*
20,1,$1+$1,$6,$7,$8,$9,0*
20,1,$1+$1,$8,$9,$2,$3,0*%
G04 Aperture macros list end*
%TA.AperFunction,ComponentPad*%
%ADD10R,1.700000X1.700000*%
%TD*%
%TA.AperFunction,ComponentPad*%
%ADD11O,1.700000X1.700000*%
%TD*%
%TA.AperFunction,SMDPad,CuDef*%
%ADD12R,1.100000X0.600000*%
%TD*%
%TA.AperFunction,ComponentPad*%
%ADD13C,1.600000*%
%TD*%
%TA.AperFunction,SMDPad,CuDef*%
%ADD14RoundRect,0.237500X0.300000X0.237500X-0.300000X0.237500X-0.300000X-0.237500X0.300000X-0.237500X0*%
%TD*%
%TA.AperFunction,ComponentPad*%
%ADD15C,2.000000*%
%TD*%
%TA.AperFunction,SMDPad,CuDef*%
%ADD16R,3.600000X1.270000*%
%TD*%
%TA.AperFunction,SMDPad,CuDef*%
%ADD17R,4.200000X1.350000*%
%TD*%
%TA.AperFunction,SMDPad,CuDef*%
%ADD18RoundRect,0.237500X0.250000X0.237500X-0.250000X0.237500X-0.250000X-0.237500X0.250000X-0.237500X0*%
%TD*%
%TA.AperFunction,SMDPad,CuDef*%
%ADD19RoundRect,0.150000X0.150000X-0.587500X0.150000X0.587500X-0.150000X0.587500X-0.150000X-0.587500X0*%
%TD*%
%TA.AperFunction,SMDPad,CuDef*%
%ADD20R,1.270000X3.600000*%
%TD*%
%TA.AperFunction,SMDPad,CuDef*%
%ADD21R,1.350000X4.200000*%
%TD*%
%TA.AperFunction,SMDPad,CuDef*%
%ADD22RoundRect,0.237500X0.237500X-0.300000X0.237500X0.300000X-0.237500X0.300000X-0.237500X-0.300000X0*%
%TD*%
%TA.AperFunction,SMDPad,CuDef*%
%ADD23RoundRect,0.237500X-0.250000X-0.237500X0.250000X-0.237500X0.250000X0.237500X-0.250000X0.237500X0*%
%TD*%
%TA.AperFunction,SMDPad,CuDef*%
%ADD24RoundRect,0.150000X0.587500X0.150000X-0.587500X0.150000X-0.587500X-0.150000X0.587500X-0.150000X0*%
%TD*%
%TA.AperFunction,SMDPad,CuDef*%
%ADD25RoundRect,0.150000X-0.150000X0.587500X-0.150000X-0.587500X0.150000X-0.587500X0.150000X0.587500X0*%
%TD*%
%TA.AperFunction,ViaPad*%
%ADD26C,0.800000*%
%TD*%
%TA.AperFunction,Conductor*%
%ADD27C,0.609600*%
%TD*%
%TA.AperFunction,Conductor*%
%ADD28C,0.203200*%
%TD*%
G04 APERTURE END LIST*
D10*
%TO.P,J3,1,Pin_1*%
%TO.N,Net-(C4-Pad1)*%
X2750000Y36900000D03*
D11*
%TO.P,J3,2,Pin_2*%
%TO.N,GND*%
X2750000Y39440000D03*
%TD*%
D12*
%TO.P,D2,1,K*%
%TO.N,Net-(C5-Pad1)*%
X24800000Y29850000D03*
%TO.P,D2,2,A*%
%TO.N,Net-(C6-Pad1)*%
X27000000Y29850000D03*
%TD*%
D13*
%TO.P,C4,1*%
%TO.N,Net-(C4-Pad1)*%
X9200000Y29900000D03*
%TO.P,C4,2*%
%TO.N,Net-(C4-Pad2)*%
X14200000Y29900000D03*
%TD*%
%TO.P,C5,1*%
%TO.N,Net-(C5-Pad1)*%
X23650000Y34500000D03*
%TO.P,C5,2*%
%TO.N,Net-(C5-Pad2)*%
X23650000Y39500000D03*
%TD*%
D14*
%TO.P,C2,1*%
%TO.N,/VDD12*%
X30562500Y8000000D03*
%TO.P,C2,2*%
%TO.N,GND*%
X28837500Y8000000D03*
%TD*%
D15*
%TO.P,L2,1,1*%
%TO.N,Net-(C5-Pad1)*%
X23050000Y23740000D03*
%TO.P,L2,2,2*%
%TO.N,Net-(L2-Pad2)*%
X23050000Y18660000D03*
%TD*%
D16*
%TO.P,J4,1,In*%
%TO.N,Net-(C4-Pad1)*%
X2400000Y30000000D03*
D17*
%TO.P,J4,2,Ext*%
%TO.N,GND*%
X2600000Y32825000D03*
X2600000Y27175000D03*
%TD*%
D18*
%TO.P,R1,1*%
%TO.N,Net-(J2-Pad1)*%
X17612500Y4850000D03*
%TO.P,R1,2*%
%TO.N,Net-(Q1-Pad1)*%
X15787500Y4850000D03*
%TD*%
D19*
%TO.P,Q4,1,G*%
%TO.N,Net-(Q2-Pad3)*%
X29900000Y12825000D03*
%TO.P,Q4,2,S*%
%TO.N,GND*%
X31800000Y12825000D03*
%TO.P,Q4,3,D*%
%TO.N,Net-(Q4-Pad3)*%
X30850000Y14700000D03*
%TD*%
D10*
%TO.P,J9,1,Pin_1*%
%TO.N,GND*%
X3600000Y46550000D03*
D11*
%TO.P,J9,2,Pin_2*%
X6140000Y46550000D03*
%TD*%
D15*
%TO.P,L3,1,1*%
%TO.N,Net-(C7-Pad1)*%
X34950000Y18760000D03*
%TO.P,L3,2,2*%
%TO.N,Net-(C6-Pad1)*%
X34950000Y23840000D03*
%TD*%
D10*
%TO.P,J2,1,Pin_1*%
%TO.N,Net-(J2-Pad1)*%
X21825000Y3750000D03*
D11*
%TO.P,J2,2,Pin_2*%
%TO.N,GND*%
X24365000Y3750000D03*
%TD*%
D20*
%TO.P,J6,1,In*%
%TO.N,Net-(C5-Pad2)*%
X23500000Y47037500D03*
D21*
%TO.P,J6,2,Ext*%
%TO.N,GND*%
X26325000Y46837500D03*
X20675000Y46837500D03*
%TD*%
D15*
%TO.P,L1,1,1*%
%TO.N,Net-(C3-Pad1)*%
X11350000Y18660000D03*
%TO.P,L1,2,2*%
%TO.N,Net-(C4-Pad2)*%
X11350000Y23740000D03*
%TD*%
D22*
%TO.P,C7,1*%
%TO.N,Net-(C7-Pad1)*%
X42250000Y20137500D03*
%TO.P,C7,2*%
%TO.N,GND*%
X42250000Y21862500D03*
%TD*%
D18*
%TO.P,R13,1*%
%TO.N,Net-(Q5-Pad3)*%
X13662500Y13150000D03*
%TO.P,R13,2*%
%TO.N,Net-(Q6-Pad1)*%
X11837500Y13150000D03*
%TD*%
D19*
%TO.P,Q3,1,G*%
%TO.N,Net-(Q3-Pad1)*%
X39650000Y12912500D03*
%TO.P,Q3,2,S*%
%TO.N,/VDD12*%
X41550000Y12912500D03*
%TO.P,Q3,3,D*%
%TO.N,Net-(C7-Pad1)*%
X40600000Y14787500D03*
%TD*%
D23*
%TO.P,R12,1*%
%TO.N,Net-(Q2-Pad3)*%
X38537500Y9800000D03*
%TO.P,R12,2*%
%TO.N,Net-(Q3-Pad1)*%
X40362500Y9800000D03*
%TD*%
D10*
%TO.P,J8,1,Pin_1*%
%TO.N,Net-(C6-Pad2)*%
X41400000Y37200000D03*
D11*
%TO.P,J8,2,Pin_2*%
%TO.N,GND*%
X41400000Y39740000D03*
%TD*%
D23*
%TO.P,R7,1*%
%TO.N,Net-(Q1-Pad3)*%
X6637500Y8150000D03*
%TO.P,R7,2*%
%TO.N,Net-(Q5-Pad1)*%
X8462500Y8150000D03*
%TD*%
D14*
%TO.P,C1,1*%
%TO.N,/VDD12*%
X30512500Y10250000D03*
%TO.P,C1,2*%
%TO.N,GND*%
X28787500Y10250000D03*
%TD*%
D23*
%TO.P,R11,1*%
%TO.N,Net-(L2-Pad2)*%
X24587500Y15200000D03*
%TO.P,R11,2*%
%TO.N,GND*%
X26412500Y15200000D03*
%TD*%
D19*
%TO.P,Q6,1,G*%
%TO.N,Net-(Q6-Pad1)*%
X6450000Y12912500D03*
%TO.P,Q6,2,S*%
%TO.N,/VDD12*%
X8350000Y12912500D03*
%TO.P,Q6,3,D*%
%TO.N,Net-(C3-Pad1)*%
X7400000Y14787500D03*
%TD*%
D18*
%TO.P,R10,1*%
%TO.N,Net-(Q7-Pad3)*%
X12812500Y14950000D03*
%TO.P,R10,2*%
%TO.N,Net-(C3-Pad1)*%
X10987500Y14950000D03*
%TD*%
D12*
%TO.P,D1,1,K*%
%TO.N,Net-(C5-Pad1)*%
X20950000Y29850000D03*
%TO.P,D1,2,A*%
%TO.N,Net-(C4-Pad2)*%
X18750000Y29850000D03*
%TD*%
D10*
%TO.P,J1,1,Pin_1*%
%TO.N,/VDD12*%
X32650000Y3800000D03*
D11*
%TO.P,J1,2,Pin_2*%
%TO.N,GND*%
X30110000Y3800000D03*
%TD*%
D10*
%TO.P,J10,1,Pin_1*%
%TO.N,GND*%
X38775000Y2600000D03*
D11*
%TO.P,J10,2,Pin_2*%
X41315000Y2600000D03*
%TD*%
D18*
%TO.P,R5,1*%
%TO.N,/VDD12*%
X41612500Y7100000D03*
%TO.P,R5,2*%
%TO.N,Net-(Q3-Pad1)*%
X39787500Y7100000D03*
%TD*%
D23*
%TO.P,R4,1*%
%TO.N,Net-(J2-Pad1)*%
X24637500Y12200000D03*
%TO.P,R4,2*%
%TO.N,Net-(Q2-Pad1)*%
X26462500Y12200000D03*
%TD*%
%TO.P,R8,1*%
%TO.N,/VDD12*%
X6537500Y10400000D03*
%TO.P,R8,2*%
%TO.N,Net-(Q6-Pad1)*%
X8362500Y10400000D03*
%TD*%
%TO.P,R2,1*%
%TO.N,GND*%
X20675000Y8400000D03*
%TO.P,R2,2*%
%TO.N,Net-(J2-Pad1)*%
X22500000Y8400000D03*
%TD*%
D10*
%TO.P,J11,1,Pin_1*%
%TO.N,GND*%
X2600000Y4925000D03*
D11*
%TO.P,J11,2,Pin_2*%
X2600000Y2385000D03*
%TD*%
D13*
%TO.P,C6,1*%
%TO.N,Net-(C6-Pad1)*%
X31050000Y29900000D03*
%TO.P,C6,2*%
%TO.N,Net-(C6-Pad2)*%
X36050000Y29900000D03*
%TD*%
D19*
%TO.P,Q7,1,G*%
%TO.N,Net-(Q5-Pad3)*%
X18500000Y13062500D03*
%TO.P,Q7,2,S*%
%TO.N,GND*%
X20400000Y13062500D03*
%TO.P,Q7,3,D*%
%TO.N,Net-(Q7-Pad3)*%
X19450000Y14937500D03*
%TD*%
D16*
%TO.P,J7,1,In*%
%TO.N,Net-(C6-Pad2)*%
X41600000Y30000000D03*
D17*
%TO.P,J7,2,Ext*%
%TO.N,GND*%
X41400000Y27175000D03*
X41400000Y32825000D03*
%TD*%
D19*
%TO.P,Q5,1,B*%
%TO.N,Net-(Q5-Pad1)*%
X11400000Y9162500D03*
%TO.P,Q5,2,E*%
%TO.N,GND*%
X13300000Y9162500D03*
%TO.P,Q5,3,C*%
%TO.N,Net-(Q5-Pad3)*%
X12350000Y11037500D03*
%TD*%
D23*
%TO.P,R9,1*%
%TO.N,Net-(Q4-Pad3)*%
X34787500Y14900000D03*
%TO.P,R9,2*%
%TO.N,Net-(C7-Pad1)*%
X36612500Y14900000D03*
%TD*%
D10*
%TO.P,J5,1,Pin_1*%
%TO.N,Net-(C5-Pad2)*%
X16250000Y46800000D03*
D11*
%TO.P,J5,2,Pin_2*%
%TO.N,GND*%
X13710000Y46800000D03*
%TD*%
D24*
%TO.P,Q1,1,B*%
%TO.N,Net-(Q1-Pad1)*%
X13137500Y4900000D03*
%TO.P,Q1,2,E*%
%TO.N,GND*%
X13137500Y6800000D03*
%TO.P,Q1,3,C*%
%TO.N,Net-(Q1-Pad3)*%
X11262500Y5850000D03*
%TD*%
D23*
%TO.P,R6,1*%
%TO.N,GND*%
X6687500Y5800000D03*
%TO.P,R6,2*%
%TO.N,Net-(Q1-Pad3)*%
X8512500Y5800000D03*
%TD*%
D18*
%TO.P,R3,1*%
%TO.N,Net-(Q1-Pad3)*%
X8525000Y3500000D03*
%TO.P,R3,2*%
%TO.N,/VDD12*%
X6700000Y3500000D03*
%TD*%
D25*
%TO.P,Q2,1,B*%
%TO.N,Net-(Q2-Pad1)*%
X36800000Y12137500D03*
%TO.P,Q2,2,E*%
%TO.N,GND*%
X34900000Y12137500D03*
%TO.P,Q2,3,C*%
%TO.N,Net-(Q2-Pad3)*%
X35850000Y10262500D03*
%TD*%
D10*
%TO.P,J12,1,Pin_1*%
%TO.N,GND*%
X38550000Y46550000D03*
D11*
%TO.P,J12,2,Pin_2*%
X41090000Y46550000D03*
%TD*%
D22*
%TO.P,C3,1*%
%TO.N,Net-(C3-Pad1)*%
X3900000Y20387500D03*
%TO.P,C3,2*%
%TO.N,GND*%
X3900000Y22112500D03*
%TD*%
D26*
%TO.N,/VDD12*%
X10150000Y12550000D03*
X4750000Y12050000D03*
%TO.N,GND*%
X15100000Y6500000D03*
X17950000Y27100000D03*
X2450000Y15350000D03*
X20700000Y43400000D03*
X28000000Y15150000D03*
X37900000Y27050000D03*
X5400000Y4750000D03*
X28600000Y45250000D03*
X32900000Y8550000D03*
X1900000Y10150000D03*
X42300000Y23350000D03*
X27550000Y26850000D03*
X27500002Y9099987D03*
X5250000Y34850000D03*
X9700000Y32850000D03*
X14650000Y8800000D03*
X2550000Y25200000D03*
X19050000Y8450000D03*
X35050000Y2850000D03*
X19250000Y36400000D03*
X35550000Y32650000D03*
X36400000Y44500000D03*
X33600000Y13500000D03*
X10100000Y41950000D03*
X22150000Y12900000D03*
X39750000Y34750000D03*
X27994726Y36470239D03*
%TO.N,Net-(Q2-Pad1)*%
X28250000Y12250000D03*
X38100000Y13600000D03*
%TD*%
D27*
%TO.N,/VDD12*%
X32650000Y3800000D02*
X32650000Y1750000D01*
X32100000Y1200000D02*
X7500000Y1200000D01*
X9787500Y12912500D02*
X10150000Y12550000D01*
X4100000Y9450000D02*
X4100000Y4650000D01*
X4750000Y12050000D02*
X4750000Y10600000D01*
X30512500Y10250000D02*
X30512500Y8050000D01*
X30512500Y8050000D02*
X30562500Y8000000D01*
X8350000Y12912500D02*
X9787500Y12912500D01*
X4750000Y10600000D02*
X5000000Y10350000D01*
X32650000Y1750000D02*
X32100000Y1200000D01*
X6487500Y10350000D02*
X6537500Y10400000D01*
X41612500Y5762500D02*
X41612500Y7100000D01*
X5000000Y10350000D02*
X6487500Y10350000D01*
X41612500Y12850000D02*
X41550000Y12912500D01*
X31856250Y6706250D02*
X30562500Y8000000D01*
X41612500Y7100000D02*
X41612500Y12850000D01*
X7500000Y1200000D02*
X6700000Y2000000D01*
X32650000Y5912500D02*
X36387500Y5912500D01*
X4100000Y4650000D02*
X5250000Y3500000D01*
X5250000Y3500000D02*
X6700000Y3500000D01*
X41100000Y5250000D02*
X41612500Y5762500D01*
X6700000Y2000000D02*
X6700000Y3500000D01*
X32650000Y5912500D02*
X31856250Y6706250D01*
X37050000Y5250000D02*
X41100000Y5250000D01*
X36387500Y5912500D02*
X37050000Y5250000D01*
X32650000Y3800000D02*
X32650000Y5912500D01*
X5000000Y10350000D02*
X4100000Y9450000D01*
%TO.N,Net-(C3-Pad1)*%
X3900000Y20387500D02*
X4512500Y20387500D01*
X10987500Y14950000D02*
X7562500Y14950000D01*
X7400000Y17800000D02*
X7400000Y17500000D01*
X4512500Y20387500D02*
X7400000Y17500000D01*
X11350000Y18660000D02*
X8260000Y18660000D01*
X7562500Y14950000D02*
X7400000Y14787500D01*
X7400000Y17500000D02*
X7400000Y14787500D01*
X8260000Y18660000D02*
X7400000Y17800000D01*
%TO.N,Net-(C4-Pad1)*%
X6850000Y34850000D02*
X6850000Y30300000D01*
X6450000Y29900000D02*
X2500000Y29900000D01*
X4800000Y36900000D02*
X6850000Y34850000D01*
X2750000Y36900000D02*
X4800000Y36900000D01*
X2500000Y29900000D02*
X2400000Y30000000D01*
X6850000Y30300000D02*
X6450000Y29900000D01*
X9200000Y29900000D02*
X6450000Y29900000D01*
%TO.N,Net-(C4-Pad2)*%
X14200000Y29900000D02*
X18700000Y29900000D01*
X18700000Y29900000D02*
X18750000Y29850000D01*
X11350000Y23740000D02*
X14200000Y26590000D01*
X14200000Y26590000D02*
X14200000Y29900000D01*
%TO.N,Net-(C5-Pad1)*%
X20950000Y29850000D02*
X22500000Y29850000D01*
X23650000Y31000000D02*
X24800000Y29850000D01*
X22700000Y30050000D02*
X23650000Y31000000D01*
X22500000Y29850000D02*
X22700000Y30050000D01*
X23650000Y34500000D02*
X23650000Y31000000D01*
X23050000Y23740000D02*
X23050000Y29700000D01*
X23050000Y29700000D02*
X22700000Y30050000D01*
%TO.N,Net-(C5-Pad2)*%
X23500000Y47037500D02*
X23500000Y42000000D01*
X23500000Y39650000D02*
X23650000Y39500000D01*
X16250000Y45050000D02*
X19300000Y42000000D01*
X16250000Y46800000D02*
X16250000Y45050000D01*
X19300000Y42000000D02*
X23500000Y42000000D01*
X23500000Y42000000D02*
X23500000Y39650000D01*
%TO.N,Net-(C6-Pad1)*%
X34950000Y23840000D02*
X34950000Y26000000D01*
X34950000Y26000000D02*
X31050000Y29900000D01*
X31050000Y29900000D02*
X27050000Y29900000D01*
X27050000Y29900000D02*
X27000000Y29850000D01*
%TO.N,Net-(C6-Pad2)*%
X37700000Y29900000D02*
X41500000Y29900000D01*
X37500000Y30100000D02*
X37700000Y29900000D01*
X36050000Y29900000D02*
X37700000Y29900000D01*
X39700000Y37200000D02*
X37500000Y35000000D01*
X41400000Y37200000D02*
X39700000Y37200000D01*
X37500000Y35000000D02*
X37500000Y30100000D01*
X41500000Y29900000D02*
X41600000Y30000000D01*
%TO.N,Net-(C7-Pad1)*%
X36612500Y14900000D02*
X40487500Y14900000D01*
X40490000Y18760000D02*
X34950000Y18760000D01*
X42250000Y20137500D02*
X42087500Y20137500D01*
X40600000Y18650000D02*
X40600000Y14787500D01*
X42087500Y20137500D02*
X40600000Y18650000D01*
X40487500Y14900000D02*
X40600000Y14787500D01*
X40600000Y18650000D02*
X40490000Y18760000D01*
%TO.N,Net-(J2-Pad1)*%
X20000000Y4850000D02*
X20725000Y4850000D01*
X22500000Y8400000D02*
X22500000Y7350000D01*
X22500000Y10062500D02*
X24637500Y12200000D01*
X17612500Y4850000D02*
X20000000Y4850000D01*
X22500000Y8400000D02*
X22500000Y10062500D01*
X22500000Y7350000D02*
X20000000Y4850000D01*
X20725000Y4850000D02*
X21825000Y3750000D01*
%TO.N,Net-(L2-Pad2)*%
X23050000Y18660000D02*
X23050000Y16737500D01*
X23050000Y16737500D02*
X24587500Y15200000D01*
%TO.N,Net-(Q1-Pad1)*%
X15737500Y4900000D02*
X15787500Y4850000D01*
X13137500Y4900000D02*
X15737500Y4900000D01*
%TO.N,Net-(Q1-Pad3)*%
X11262500Y5850000D02*
X8562500Y5850000D01*
D28*
X6637500Y7462500D02*
X7100000Y7000000D01*
X6637500Y8150000D02*
X6637500Y7462500D01*
X7800000Y7000000D02*
X8512500Y6287500D01*
D27*
X8562500Y5850000D02*
X8512500Y5800000D01*
D28*
X8512500Y6287500D02*
X8512500Y5800000D01*
D27*
X8525000Y5787500D02*
X8512500Y5800000D01*
D28*
X7100000Y7000000D02*
X7800000Y7000000D01*
D27*
X8525000Y3500000D02*
X8525000Y5787500D01*
D28*
%TO.N,Net-(Q2-Pad1)*%
X26462500Y12200000D02*
X28200000Y12200000D01*
X28200000Y12200000D02*
X28250000Y12250000D01*
X38100000Y13600000D02*
X38100000Y13437500D01*
X38100000Y13437500D02*
X36800000Y12137500D01*
%TO.N,Net-(Q2-Pad3)*%
X34200000Y10250000D02*
X35837500Y10250000D01*
X35850000Y10262500D02*
X36312500Y9800000D01*
X35837500Y10250000D02*
X35850000Y10262500D01*
X29900000Y12825000D02*
X31325000Y11400000D01*
X33050000Y11400000D02*
X34200000Y10250000D01*
X31325000Y11400000D02*
X33050000Y11400000D01*
X36312500Y9800000D02*
X38537500Y9800000D01*
D27*
%TO.N,Net-(Q4-Pad3)*%
X34587500Y14700000D02*
X34787500Y14900000D01*
X30850000Y14700000D02*
X34587500Y14700000D01*
%TO.N,Net-(Q5-Pad1)*%
X11400000Y9162500D02*
X11012500Y9162500D01*
X11012500Y9162500D02*
X10000000Y8150000D01*
X10000000Y8150000D02*
X8462500Y8150000D01*
%TO.N,Net-(Q5-Pad3)*%
X18500000Y13062500D02*
X13750000Y13062500D01*
X13037500Y11037500D02*
X13750000Y11750000D01*
X13750000Y13062500D02*
X13662500Y13150000D01*
X12350000Y11037500D02*
X13037500Y11037500D01*
X13750000Y11750000D02*
X13750000Y13062500D01*
%TO.N,Net-(Q7-Pad3)*%
X19450000Y14937500D02*
X19250000Y14737500D01*
X19250000Y14737500D02*
X13025000Y14737500D01*
X13025000Y14737500D02*
X12812500Y14950000D01*
%TO.N,Net-(Q3-Pad1)*%
X39650000Y12912500D02*
X39650000Y12300000D01*
X40362500Y8812500D02*
X40362500Y9800000D01*
X40362500Y11587500D02*
X40362500Y9800000D01*
X39787500Y8237500D02*
X40362500Y8812500D01*
X39787500Y7100000D02*
X39787500Y8237500D01*
X39650000Y12300000D02*
X40362500Y11587500D01*
D28*
%TO.N,Net-(Q6-Pad1)*%
X6450000Y12600000D02*
X8362500Y10687500D01*
X10000000Y10400000D02*
X11300000Y11700000D01*
X11300000Y12612500D02*
X11837500Y13150000D01*
X11300000Y11700000D02*
X11300000Y12612500D01*
X8362500Y10687500D02*
X8362500Y10400000D01*
X8362500Y10400000D02*
X10000000Y10400000D01*
X6450000Y12912500D02*
X6450000Y12600000D01*
%TD*%
%TA.AperFunction,Conductor*%
%TO.N,GND*%
G36*
X19434121Y48921998D02*
G01*
X19480614Y48868342D01*
X19492000Y48816000D01*
X19492000Y47109615D01*
X19496475Y47094376D01*
X19497865Y47093171D01*
X19505548Y47091500D01*
X21839884Y47091500D01*
X21855123Y47095975D01*
X21856328Y47097365D01*
X21857999Y47105048D01*
X21857999Y48816000D01*
X21878001Y48884121D01*
X21931657Y48930614D01*
X21983999Y48942000D01*
X22230500Y48942000D01*
X22298621Y48921998D01*
X22345114Y48868342D01*
X22356500Y48816000D01*
X22356500Y45189366D01*
X22363255Y45127184D01*
X22414385Y44990795D01*
X22501739Y44874239D01*
X22618295Y44786885D01*
X22622722Y44785225D01*
X22671356Y44736479D01*
X22686700Y44676220D01*
X22686700Y42939300D01*
X22666698Y42871179D01*
X22613042Y42824686D01*
X22560700Y42813300D01*
X19689070Y42813300D01*
X19620949Y42833302D01*
X19599975Y42850205D01*
X17757349Y44692831D01*
X19492001Y44692831D01*
X19492371Y44686010D01*
X19497895Y44635148D01*
X19501521Y44619896D01*
X19546676Y44499446D01*
X19555214Y44483851D01*
X19631715Y44381776D01*
X19644276Y44369215D01*
X19746351Y44292714D01*
X19761946Y44284176D01*
X19882394Y44239022D01*
X19897649Y44235395D01*
X19948514Y44229869D01*
X19955328Y44229500D01*
X20402885Y44229500D01*
X20418124Y44233975D01*
X20419329Y44235365D01*
X20421000Y44243048D01*
X20421000Y44247616D01*
X20929000Y44247616D01*
X20933475Y44232377D01*
X20934865Y44231172D01*
X20942548Y44229501D01*
X21394669Y44229501D01*
X21401490Y44229871D01*
X21452352Y44235395D01*
X21467604Y44239021D01*
X21588054Y44284176D01*
X21603649Y44292714D01*
X21705724Y44369215D01*
X21718285Y44381776D01*
X21794786Y44483851D01*
X21803324Y44499446D01*
X21848478Y44619894D01*
X21852105Y44635149D01*
X21857631Y44686014D01*
X21858000Y44692828D01*
X21858000Y46565385D01*
X21853525Y46580624D01*
X21852135Y46581829D01*
X21844452Y46583500D01*
X20947115Y46583500D01*
X20931876Y46579025D01*
X20930671Y46577635D01*
X20929000Y46569952D01*
X20929000Y44247616D01*
X20421000Y44247616D01*
X20421000Y46565385D01*
X20416525Y46580624D01*
X20415135Y46581829D01*
X20407452Y46583500D01*
X19510116Y46583500D01*
X19494877Y46579025D01*
X19493672Y46577635D01*
X19492001Y46569952D01*
X19492001Y44692831D01*
X17757349Y44692831D01*
X17197127Y45253053D01*
X17163101Y45315365D01*
X17168166Y45386180D01*
X17210713Y45443016D01*
X17241993Y45460130D01*
X17338295Y45496232D01*
X17338296Y45496233D01*
X17346705Y45499385D01*
X17463261Y45586739D01*
X17550615Y45703295D01*
X17601745Y45839684D01*
X17608500Y45901866D01*
X17608500Y47698134D01*
X17601745Y47760316D01*
X17550615Y47896705D01*
X17463261Y48013261D01*
X17346705Y48100615D01*
X17210316Y48151745D01*
X17148134Y48158500D01*
X15351866Y48158500D01*
X15289684Y48151745D01*
X15153295Y48100615D01*
X15036739Y48013261D01*
X14949385Y47896705D01*
X14946233Y47888297D01*
X14946232Y47888295D01*
X14904722Y47777567D01*
X14862081Y47720802D01*
X14795519Y47696102D01*
X14726170Y47711309D01*
X14693546Y47736996D01*
X14642799Y47792766D01*
X14635273Y47799785D01*
X14468139Y47931778D01*
X14459552Y47937483D01*
X14273117Y48040401D01*
X14263705Y48044631D01*
X14062959Y48115720D01*
X14052988Y48118354D01*
X13981837Y48131028D01*
X13968540Y48129568D01*
X13964000Y48115011D01*
X13964000Y45481483D01*
X13968064Y45467641D01*
X13981478Y45465607D01*
X13988184Y45466466D01*
X13998262Y45468608D01*
X14202255Y45529809D01*
X14211842Y45533567D01*
X14403095Y45627261D01*
X14411945Y45632536D01*
X14585328Y45756208D01*
X14593193Y45762855D01*
X14697897Y45867195D01*
X14760268Y45901111D01*
X14831075Y45895923D01*
X14887837Y45853277D01*
X14904819Y45822174D01*
X14949385Y45703295D01*
X15036739Y45586739D01*
X15153295Y45499385D01*
X15289684Y45448255D01*
X15324308Y45444494D01*
X15389869Y45417253D01*
X15430296Y45358890D01*
X15436700Y45319231D01*
X15436700Y45059217D01*
X15436693Y45057897D01*
X15435744Y44967291D01*
X15437233Y44960404D01*
X15444967Y44924635D01*
X15447028Y44912051D01*
X15450464Y44881419D01*
X15451893Y44868675D01*
X15454208Y44862028D01*
X15463002Y44836774D01*
X15467164Y44821964D01*
X15474302Y44788949D01*
X15477280Y44782562D01*
X15477281Y44782560D01*
X15492752Y44749381D01*
X15497547Y44737573D01*
X15511899Y44696361D01*
X15518365Y44686014D01*
X15529797Y44667718D01*
X15537133Y44654208D01*
X15551415Y44623581D01*
X15570796Y44598595D01*
X15578169Y44589090D01*
X15585462Y44578636D01*
X15608589Y44541624D01*
X15613554Y44536625D01*
X15613555Y44536623D01*
X15637356Y44512656D01*
X15637953Y44512018D01*
X15638473Y44511347D01*
X15664731Y44485089D01*
X15737159Y44412154D01*
X15738200Y44411494D01*
X15739435Y44410385D01*
X18718289Y41431531D01*
X18719218Y41430594D01*
X18782718Y41365750D01*
X18788636Y41361936D01*
X18788641Y41361932D01*
X18819407Y41342105D01*
X18829760Y41334666D01*
X18863869Y41307437D01*
X18894283Y41292734D01*
X18907691Y41285210D01*
X18936090Y41266908D01*
X18975996Y41252383D01*
X18977115Y41251976D01*
X18988854Y41247017D01*
X19028144Y41228024D01*
X19061053Y41220426D01*
X19075793Y41216060D01*
X19107549Y41204502D01*
X19150874Y41199029D01*
X19163403Y41196796D01*
X19199065Y41188562D01*
X19199073Y41188561D01*
X19205930Y41186978D01*
X19212971Y41186953D01*
X19212974Y41186953D01*
X19246739Y41186835D01*
X19247632Y41186806D01*
X19248470Y41186700D01*
X19285533Y41186700D01*
X19285972Y41186699D01*
X19384859Y41186354D01*
X19384864Y41186354D01*
X19388392Y41186342D01*
X19389595Y41186611D01*
X19391240Y41186700D01*
X22560700Y41186700D01*
X22628821Y41166698D01*
X22675314Y41113042D01*
X22686700Y41060700D01*
X22686700Y40439388D01*
X22666698Y40371267D01*
X22649795Y40350293D01*
X22643802Y40344300D01*
X22512477Y40156749D01*
X22510154Y40151767D01*
X22510151Y40151762D01*
X22436586Y39994000D01*
X22415716Y39949243D01*
X22356457Y39728087D01*
X22336502Y39500000D01*
X22356457Y39271913D01*
X22415716Y39050757D01*
X22418039Y39045776D01*
X22418039Y39045775D01*
X22510151Y38848238D01*
X22510154Y38848233D01*
X22512477Y38843251D01*
X22643802Y38655700D01*
X22805700Y38493802D01*
X22810208Y38490645D01*
X22810211Y38490643D01*
X22839217Y38470333D01*
X22993251Y38362477D01*
X22998233Y38360154D01*
X22998238Y38360151D01*
X23194555Y38268608D01*
X23200757Y38265716D01*
X23206065Y38264294D01*
X23206067Y38264293D01*
X23416598Y38207881D01*
X23416600Y38207881D01*
X23421913Y38206457D01*
X23650000Y38186502D01*
X23878087Y38206457D01*
X23883400Y38207881D01*
X23883402Y38207881D01*
X24093933Y38264293D01*
X24093935Y38264294D01*
X24099243Y38265716D01*
X24105445Y38268608D01*
X24301762Y38360151D01*
X24301767Y38360154D01*
X24306749Y38362477D01*
X24460783Y38470333D01*
X24489789Y38490643D01*
X24489792Y38490645D01*
X24494300Y38493802D01*
X24656198Y38655700D01*
X24787523Y38843251D01*
X24789846Y38848233D01*
X24789849Y38848238D01*
X24881961Y39045775D01*
X24881961Y39045776D01*
X24884284Y39050757D01*
X24943543Y39271913D01*
X24963498Y39500000D01*
X24943543Y39728087D01*
X24884284Y39949243D01*
X24863414Y39994000D01*
X24857904Y40005817D01*
X40064389Y40005817D01*
X40065912Y39997393D01*
X40078292Y39994000D01*
X41127885Y39994000D01*
X41143124Y39998475D01*
X41144329Y39999865D01*
X41146000Y40007548D01*
X41146000Y40012115D01*
X41654000Y40012115D01*
X41658475Y39996876D01*
X41659865Y39995671D01*
X41667548Y39994000D01*
X42718344Y39994000D01*
X42731875Y39997973D01*
X42733180Y40007053D01*
X42691214Y40174125D01*
X42687894Y40183876D01*
X42602972Y40379186D01*
X42598105Y40388261D01*
X42482426Y40567074D01*
X42476136Y40575243D01*
X42332806Y40732760D01*
X42325273Y40739785D01*
X42158139Y40871778D01*
X42149552Y40877483D01*
X41963117Y40980401D01*
X41953705Y40984631D01*
X41752959Y41055720D01*
X41742988Y41058354D01*
X41671837Y41071028D01*
X41658540Y41069568D01*
X41654000Y41055011D01*
X41654000Y40012115D01*
X41146000Y40012115D01*
X41146000Y41056898D01*
X41142082Y41070242D01*
X41127806Y41072229D01*
X41089324Y41066340D01*
X41079288Y41063949D01*
X40876868Y40997788D01*
X40867359Y40993791D01*
X40678463Y40895458D01*
X40669738Y40889964D01*
X40499433Y40762095D01*
X40491726Y40755252D01*
X40344590Y40601283D01*
X40338104Y40593273D01*
X40218098Y40417351D01*
X40213000Y40408377D01*
X40123338Y40215217D01*
X40119775Y40205530D01*
X40064389Y40005817D01*
X24857904Y40005817D01*
X24789849Y40151762D01*
X24789846Y40151767D01*
X24787523Y40156749D01*
X24656198Y40344300D01*
X24494300Y40506198D01*
X24489792Y40509355D01*
X24489789Y40509357D01*
X24395694Y40575243D01*
X24367028Y40595315D01*
X24322701Y40650771D01*
X24313300Y40698527D01*
X24313300Y41943808D01*
X24314186Y41958726D01*
X24317592Y41987292D01*
X24318426Y41994286D01*
X24313990Y42036493D01*
X24313300Y42049663D01*
X24313300Y44676220D01*
X24318177Y44692831D01*
X25142001Y44692831D01*
X25142371Y44686010D01*
X25147895Y44635148D01*
X25151521Y44619896D01*
X25196676Y44499446D01*
X25205214Y44483851D01*
X25281715Y44381776D01*
X25294276Y44369215D01*
X25396351Y44292714D01*
X25411946Y44284176D01*
X25532394Y44239022D01*
X25547649Y44235395D01*
X25598514Y44229869D01*
X25605328Y44229500D01*
X26052885Y44229500D01*
X26068124Y44233975D01*
X26069329Y44235365D01*
X26071000Y44243048D01*
X26071000Y44247616D01*
X26579000Y44247616D01*
X26583475Y44232377D01*
X26584865Y44231172D01*
X26592548Y44229501D01*
X27044669Y44229501D01*
X27051490Y44229871D01*
X27102352Y44235395D01*
X27117604Y44239021D01*
X27238054Y44284176D01*
X27253649Y44292714D01*
X27355724Y44369215D01*
X27368285Y44381776D01*
X27444786Y44483851D01*
X27453324Y44499446D01*
X27498478Y44619894D01*
X27502105Y44635149D01*
X27507631Y44686014D01*
X27508000Y44692828D01*
X27508000Y45655331D01*
X37192001Y45655331D01*
X37192371Y45648510D01*
X37197895Y45597648D01*
X37201521Y45582396D01*
X37246676Y45461946D01*
X37255214Y45446351D01*
X37331715Y45344276D01*
X37344276Y45331715D01*
X37446351Y45255214D01*
X37461946Y45246676D01*
X37582394Y45201522D01*
X37597649Y45197895D01*
X37648514Y45192369D01*
X37655328Y45192000D01*
X38277885Y45192000D01*
X38293124Y45196475D01*
X38294329Y45197865D01*
X38296000Y45205548D01*
X38296000Y45210116D01*
X38804000Y45210116D01*
X38808475Y45194877D01*
X38809865Y45193672D01*
X38817548Y45192001D01*
X39444669Y45192001D01*
X39451490Y45192371D01*
X39502352Y45197895D01*
X39517604Y45201521D01*
X39638054Y45246676D01*
X39653649Y45255214D01*
X39755724Y45331715D01*
X39768285Y45344276D01*
X39844786Y45446351D01*
X39853325Y45461948D01*
X39894425Y45571582D01*
X39937066Y45628347D01*
X40003628Y45653047D01*
X40072977Y45637840D01*
X40107645Y45609850D01*
X40133219Y45580326D01*
X40140580Y45573117D01*
X40304434Y45437084D01*
X40312881Y45431169D01*
X40496756Y45323721D01*
X40506042Y45319271D01*
X40705001Y45243297D01*
X40714899Y45240421D01*
X40818250Y45219394D01*
X40832299Y45220590D01*
X40836000Y45230935D01*
X40836000Y45231483D01*
X41344000Y45231483D01*
X41348064Y45217641D01*
X41361478Y45215607D01*
X41368184Y45216466D01*
X41378262Y45218608D01*
X41582255Y45279809D01*
X41591842Y45283567D01*
X41783095Y45377261D01*
X41791945Y45382536D01*
X41965328Y45506208D01*
X41973200Y45512861D01*
X42124052Y45663188D01*
X42130730Y45671035D01*
X42255003Y45843980D01*
X42260313Y45852817D01*
X42354670Y46043733D01*
X42358469Y46053328D01*
X42420377Y46257090D01*
X42422555Y46267163D01*
X42423986Y46278038D01*
X42421775Y46292222D01*
X42408617Y46296000D01*
X41362115Y46296000D01*
X41346876Y46291525D01*
X41345671Y46290135D01*
X41344000Y46282452D01*
X41344000Y45231483D01*
X40836000Y45231483D01*
X40836000Y46277885D01*
X40831525Y46293124D01*
X40830135Y46294329D01*
X40822452Y46296000D01*
X38822115Y46296000D01*
X38806876Y46291525D01*
X38805671Y46290135D01*
X38804000Y46282452D01*
X38804000Y45210116D01*
X38296000Y45210116D01*
X38296000Y46277885D01*
X38291525Y46293124D01*
X38290135Y46294329D01*
X38282452Y46296000D01*
X37210116Y46296000D01*
X37194877Y46291525D01*
X37193672Y46290135D01*
X37192001Y46282452D01*
X37192001Y45655331D01*
X27508000Y45655331D01*
X27508000Y46565385D01*
X27503525Y46580624D01*
X27502135Y46581829D01*
X27494452Y46583500D01*
X26597115Y46583500D01*
X26581876Y46579025D01*
X26580671Y46577635D01*
X26579000Y46569952D01*
X26579000Y44247616D01*
X26071000Y44247616D01*
X26071000Y46565385D01*
X26066525Y46580624D01*
X26065135Y46581829D01*
X26057452Y46583500D01*
X25160116Y46583500D01*
X25144877Y46579025D01*
X25143672Y46577635D01*
X25142001Y46569952D01*
X25142001Y44692831D01*
X24318177Y44692831D01*
X24333302Y44744341D01*
X24377088Y44785154D01*
X24381705Y44786885D01*
X24498261Y44874239D01*
X24585615Y44990795D01*
X24636745Y45127184D01*
X24643500Y45189366D01*
X24643500Y46822115D01*
X37192000Y46822115D01*
X37196475Y46806876D01*
X37197865Y46805671D01*
X37205548Y46804000D01*
X38277885Y46804000D01*
X38293124Y46808475D01*
X38294329Y46809865D01*
X38296000Y46817548D01*
X38296000Y46822115D01*
X38804000Y46822115D01*
X38808475Y46806876D01*
X38809865Y46805671D01*
X38817548Y46804000D01*
X40817885Y46804000D01*
X40833124Y46808475D01*
X40834329Y46809865D01*
X40836000Y46817548D01*
X40836000Y46822115D01*
X41344000Y46822115D01*
X41348475Y46806876D01*
X41349865Y46805671D01*
X41357548Y46804000D01*
X42408344Y46804000D01*
X42421875Y46807973D01*
X42423180Y46817053D01*
X42381214Y46984125D01*
X42377894Y46993876D01*
X42292972Y47189186D01*
X42288105Y47198261D01*
X42172426Y47377074D01*
X42166136Y47385243D01*
X42022806Y47542760D01*
X42015273Y47549785D01*
X41848139Y47681778D01*
X41839552Y47687483D01*
X41653117Y47790401D01*
X41643705Y47794631D01*
X41442959Y47865720D01*
X41432988Y47868354D01*
X41361837Y47881028D01*
X41348540Y47879568D01*
X41344000Y47865011D01*
X41344000Y46822115D01*
X40836000Y46822115D01*
X40836000Y47866898D01*
X40832082Y47880242D01*
X40817806Y47882229D01*
X40779324Y47876340D01*
X40769288Y47873949D01*
X40566868Y47807788D01*
X40557359Y47803791D01*
X40368463Y47705458D01*
X40359738Y47699964D01*
X40189433Y47572095D01*
X40181726Y47565252D01*
X40104094Y47484015D01*
X40042570Y47448585D01*
X39971657Y47452042D01*
X39913871Y47493288D01*
X39895018Y47526836D01*
X39853324Y47638054D01*
X39844786Y47653649D01*
X39768285Y47755724D01*
X39755724Y47768285D01*
X39653649Y47844786D01*
X39638054Y47853324D01*
X39517606Y47898478D01*
X39502351Y47902105D01*
X39451486Y47907631D01*
X39444672Y47908000D01*
X38822115Y47908000D01*
X38806876Y47903525D01*
X38805671Y47902135D01*
X38804000Y47894452D01*
X38804000Y46822115D01*
X38296000Y46822115D01*
X38296000Y47889884D01*
X38291525Y47905123D01*
X38290135Y47906328D01*
X38282452Y47907999D01*
X37655331Y47907999D01*
X37648510Y47907629D01*
X37597648Y47902105D01*
X37582396Y47898479D01*
X37461946Y47853324D01*
X37446351Y47844786D01*
X37344276Y47768285D01*
X37331715Y47755724D01*
X37255214Y47653649D01*
X37246676Y47638054D01*
X37201522Y47517606D01*
X37197895Y47502351D01*
X37192369Y47451486D01*
X37192000Y47444672D01*
X37192000Y46822115D01*
X24643500Y46822115D01*
X24643500Y48816000D01*
X24663502Y48884121D01*
X24717158Y48930614D01*
X24769500Y48942000D01*
X25016000Y48942000D01*
X25084121Y48921998D01*
X25130614Y48868342D01*
X25142000Y48816000D01*
X25142000Y47109615D01*
X25146475Y47094376D01*
X25147865Y47093171D01*
X25155548Y47091500D01*
X27489884Y47091500D01*
X27505123Y47095975D01*
X27506328Y47097365D01*
X27507999Y47105048D01*
X27507999Y48816000D01*
X27528001Y48884121D01*
X27581657Y48930614D01*
X27633999Y48942000D01*
X43366000Y48942000D01*
X43434121Y48921998D01*
X43480614Y48868342D01*
X43492000Y48816000D01*
X43492000Y34134000D01*
X43471998Y34065879D01*
X43418342Y34019386D01*
X43366000Y34008000D01*
X41672115Y34008000D01*
X41656876Y34003525D01*
X41655671Y34002135D01*
X41654000Y33994452D01*
X41654000Y31660116D01*
X41658475Y31644877D01*
X41659865Y31643672D01*
X41667548Y31642001D01*
X43366000Y31642001D01*
X43434121Y31621999D01*
X43480614Y31568343D01*
X43492000Y31516001D01*
X43492000Y31269500D01*
X43471998Y31201379D01*
X43418342Y31154886D01*
X43366000Y31143500D01*
X39751866Y31143500D01*
X39689684Y31136745D01*
X39553295Y31085615D01*
X39436739Y30998261D01*
X39349385Y30881705D01*
X39346233Y30873296D01*
X39346232Y30873295D01*
X39316907Y30795071D01*
X39274266Y30738306D01*
X39207704Y30713606D01*
X39198925Y30713300D01*
X38439300Y30713300D01*
X38371179Y30733302D01*
X38324686Y30786958D01*
X38313300Y30839300D01*
X38313300Y32105331D01*
X38792001Y32105331D01*
X38792371Y32098510D01*
X38797895Y32047648D01*
X38801521Y32032396D01*
X38846676Y31911946D01*
X38855214Y31896351D01*
X38931715Y31794276D01*
X38944276Y31781715D01*
X39046351Y31705214D01*
X39061946Y31696676D01*
X39182394Y31651522D01*
X39197649Y31647895D01*
X39248514Y31642369D01*
X39255328Y31642000D01*
X41127885Y31642000D01*
X41143124Y31646475D01*
X41144329Y31647865D01*
X41146000Y31655548D01*
X41146000Y32552885D01*
X41141525Y32568124D01*
X41140135Y32569329D01*
X41132452Y32571000D01*
X38810116Y32571000D01*
X38794877Y32566525D01*
X38793672Y32565135D01*
X38792001Y32557452D01*
X38792001Y32105331D01*
X38313300Y32105331D01*
X38313300Y33097115D01*
X38792000Y33097115D01*
X38796475Y33081876D01*
X38797865Y33080671D01*
X38805548Y33079000D01*
X41127885Y33079000D01*
X41143124Y33083475D01*
X41144329Y33084865D01*
X41146000Y33092548D01*
X41146000Y33989884D01*
X41141525Y34005123D01*
X41140135Y34006328D01*
X41132452Y34007999D01*
X39255331Y34007999D01*
X39248510Y34007629D01*
X39197648Y34002105D01*
X39182396Y33998479D01*
X39061946Y33953324D01*
X39046351Y33944786D01*
X38944276Y33868285D01*
X38931715Y33855724D01*
X38855214Y33753649D01*
X38846676Y33738054D01*
X38801522Y33617606D01*
X38797895Y33602351D01*
X38792369Y33551486D01*
X38792000Y33544672D01*
X38792000Y33097115D01*
X38313300Y33097115D01*
X38313300Y34610930D01*
X38333302Y34679051D01*
X38350205Y34700025D01*
X39866686Y36216506D01*
X39928998Y36250532D01*
X39999813Y36245467D01*
X40056649Y36202920D01*
X40073763Y36171641D01*
X40099385Y36103295D01*
X40186739Y35986739D01*
X40303295Y35899385D01*
X40439684Y35848255D01*
X40501866Y35841500D01*
X42298134Y35841500D01*
X42360316Y35848255D01*
X42496705Y35899385D01*
X42613261Y35986739D01*
X42700615Y36103295D01*
X42751745Y36239684D01*
X42758500Y36301866D01*
X42758500Y38098134D01*
X42751745Y38160316D01*
X42700615Y38296705D01*
X42613261Y38413261D01*
X42496705Y38500615D01*
X42377687Y38545233D01*
X42320923Y38587875D01*
X42296223Y38654436D01*
X42311430Y38723785D01*
X42332977Y38752465D01*
X42434052Y38853188D01*
X42440730Y38861035D01*
X42565003Y39033980D01*
X42570313Y39042817D01*
X42664670Y39233733D01*
X42668469Y39243328D01*
X42730377Y39447090D01*
X42732555Y39457163D01*
X42733986Y39468038D01*
X42731775Y39482222D01*
X42718617Y39486000D01*
X40083225Y39486000D01*
X40069694Y39482027D01*
X40068257Y39472034D01*
X40098565Y39337554D01*
X40101645Y39327725D01*
X40181770Y39130397D01*
X40186413Y39121206D01*
X40297694Y38939612D01*
X40303777Y38931301D01*
X40443213Y38770333D01*
X40450577Y38763121D01*
X40455522Y38759015D01*
X40495156Y38700111D01*
X40496653Y38629130D01*
X40459537Y38568608D01*
X40419264Y38544090D01*
X40311705Y38503768D01*
X40311704Y38503767D01*
X40303295Y38500615D01*
X40186739Y38413261D01*
X40099385Y38296705D01*
X40048255Y38160316D01*
X40047402Y38152460D01*
X40044494Y38125693D01*
X40017253Y38060131D01*
X39958890Y38019704D01*
X39919231Y38013300D01*
X39709263Y38013300D01*
X39707944Y38013307D01*
X39617291Y38014256D01*
X39610405Y38012767D01*
X39610403Y38012767D01*
X39591670Y38008716D01*
X39574630Y38005032D01*
X39562051Y38002972D01*
X39525671Y37998892D01*
X39525668Y37998891D01*
X39518675Y37998107D01*
X39490504Y37988297D01*
X39486774Y37986998D01*
X39471964Y37982836D01*
X39438949Y37975698D01*
X39432562Y37972720D01*
X39432560Y37972719D01*
X39399377Y37957246D01*
X39387568Y37952451D01*
X39346361Y37938101D01*
X39340384Y37934366D01*
X39317726Y37920208D01*
X39304209Y37912869D01*
X39279969Y37901565D01*
X39273581Y37898586D01*
X39268016Y37894269D01*
X39268014Y37894268D01*
X39239087Y37871829D01*
X39228639Y37864540D01*
X39191624Y37841411D01*
X39186625Y37836446D01*
X39186623Y37836445D01*
X39162656Y37812644D01*
X39162018Y37812047D01*
X39161347Y37811527D01*
X39135089Y37785269D01*
X39062154Y37712841D01*
X39061494Y37711800D01*
X39060385Y37710565D01*
X36931531Y35581711D01*
X36930594Y35580782D01*
X36890481Y35541500D01*
X36865750Y35517282D01*
X36861936Y35511364D01*
X36861932Y35511359D01*
X36842105Y35480593D01*
X36834666Y35470240D01*
X36807437Y35436131D01*
X36804372Y35429791D01*
X36804369Y35429786D01*
X36792735Y35405721D01*
X36785208Y35392308D01*
X36770726Y35369836D01*
X36770723Y35369829D01*
X36766908Y35363910D01*
X36764498Y35357290D01*
X36764498Y35357289D01*
X36751979Y35322893D01*
X36747018Y35311149D01*
X36732920Y35281985D01*
X36728023Y35271856D01*
X36720423Y35238936D01*
X36716057Y35224201D01*
X36706911Y35199072D01*
X36706909Y35199066D01*
X36704502Y35192451D01*
X36703620Y35185468D01*
X36699031Y35149141D01*
X36696797Y35136600D01*
X36686978Y35094070D01*
X36686953Y35087024D01*
X36686953Y35087021D01*
X36686835Y35053259D01*
X36686805Y35052366D01*
X36686700Y35051530D01*
X36686700Y35014594D01*
X36686699Y35014154D01*
X36686415Y34932709D01*
X36686341Y34911608D01*
X36686611Y34910402D01*
X36686700Y34908753D01*
X36686700Y31244652D01*
X36666698Y31176531D01*
X36613042Y31130038D01*
X36542768Y31119934D01*
X36507450Y31130457D01*
X36504225Y31131961D01*
X36504224Y31131961D01*
X36499243Y31134284D01*
X36493935Y31135706D01*
X36493933Y31135707D01*
X36283402Y31192119D01*
X36283400Y31192119D01*
X36278087Y31193543D01*
X36050000Y31213498D01*
X35821913Y31193543D01*
X35816600Y31192119D01*
X35816598Y31192119D01*
X35606067Y31135707D01*
X35606065Y31135706D01*
X35600757Y31134284D01*
X35595776Y31131961D01*
X35595775Y31131961D01*
X35398238Y31039849D01*
X35398233Y31039846D01*
X35393251Y31037523D01*
X35326925Y30991081D01*
X35210211Y30909357D01*
X35210208Y30909355D01*
X35205700Y30906198D01*
X35043802Y30744300D01*
X35040645Y30739792D01*
X35040643Y30739789D01*
X34997730Y30678502D01*
X34912477Y30556749D01*
X34910154Y30551767D01*
X34910151Y30551762D01*
X34818039Y30354225D01*
X34815716Y30349243D01*
X34756457Y30128087D01*
X34736502Y29900000D01*
X34756457Y29671913D01*
X34815716Y29450757D01*
X34818039Y29445776D01*
X34818039Y29445775D01*
X34910151Y29248238D01*
X34910154Y29248233D01*
X34912477Y29243251D01*
X34947019Y29193920D01*
X35023509Y29084682D01*
X35043802Y29055700D01*
X35205700Y28893802D01*
X35210208Y28890645D01*
X35210211Y28890643D01*
X35275233Y28845114D01*
X35393251Y28762477D01*
X35398233Y28760154D01*
X35398238Y28760151D01*
X35595775Y28668039D01*
X35600757Y28665716D01*
X35606065Y28664294D01*
X35606067Y28664293D01*
X35816598Y28607881D01*
X35816600Y28607881D01*
X35821913Y28606457D01*
X36050000Y28586502D01*
X36278087Y28606457D01*
X36283400Y28607881D01*
X36283402Y28607881D01*
X36493933Y28664293D01*
X36493935Y28664294D01*
X36499243Y28665716D01*
X36504225Y28668039D01*
X36701762Y28760151D01*
X36701767Y28760154D01*
X36706749Y28762477D01*
X36824767Y28845114D01*
X36889789Y28890643D01*
X36889792Y28890645D01*
X36894300Y28893802D01*
X37050293Y29049795D01*
X37112605Y29083821D01*
X37139388Y29086700D01*
X37685406Y29086700D01*
X37685846Y29086699D01*
X37784846Y29086353D01*
X37784853Y29086353D01*
X37788392Y29086341D01*
X37789598Y29086611D01*
X37791247Y29086700D01*
X39310037Y29086700D01*
X39378158Y29066698D01*
X39410863Y29036265D01*
X39411254Y29035744D01*
X39436739Y29001739D01*
X39553295Y28914385D01*
X39689684Y28863255D01*
X39751866Y28856500D01*
X43366000Y28856500D01*
X43434121Y28836498D01*
X43480614Y28782842D01*
X43492000Y28730500D01*
X43492000Y28484000D01*
X43471998Y28415879D01*
X43418342Y28369386D01*
X43366000Y28358000D01*
X41672115Y28358000D01*
X41656876Y28353525D01*
X41655671Y28352135D01*
X41654000Y28344452D01*
X41654000Y26010116D01*
X41658475Y25994877D01*
X41659865Y25993672D01*
X41667548Y25992001D01*
X43366000Y25992001D01*
X43434121Y25971999D01*
X43480614Y25918343D01*
X43492000Y25866001D01*
X43492000Y634000D01*
X43471998Y565879D01*
X43418342Y519386D01*
X43366000Y508000D01*
X32862370Y508000D01*
X32794249Y528002D01*
X32747756Y581658D01*
X32737652Y651932D01*
X32767146Y716512D01*
X32773275Y723095D01*
X33218469Y1168289D01*
X33219406Y1169218D01*
X33279218Y1227790D01*
X33279219Y1227791D01*
X33284250Y1232718D01*
X33288064Y1238636D01*
X33288068Y1238641D01*
X33307895Y1269407D01*
X33315334Y1279760D01*
X33338170Y1308366D01*
X33342563Y1313869D01*
X33357266Y1344283D01*
X33364791Y1357693D01*
X33379275Y1380167D01*
X33379276Y1380168D01*
X33383092Y1386090D01*
X33398024Y1427115D01*
X33402984Y1438857D01*
X33414262Y1462187D01*
X33421976Y1478144D01*
X33429574Y1511053D01*
X33433942Y1525800D01*
X33445498Y1557549D01*
X33450971Y1600874D01*
X33453204Y1613403D01*
X33461438Y1649065D01*
X33461439Y1649073D01*
X33463022Y1655930D01*
X33463101Y1678347D01*
X33463165Y1696739D01*
X33463194Y1697632D01*
X33463300Y1698470D01*
X33463300Y1705331D01*
X37417001Y1705331D01*
X37417371Y1698510D01*
X37422895Y1647648D01*
X37426521Y1632396D01*
X37471676Y1511946D01*
X37480214Y1496351D01*
X37556715Y1394276D01*
X37569276Y1381715D01*
X37671351Y1305214D01*
X37686946Y1296676D01*
X37807394Y1251522D01*
X37822649Y1247895D01*
X37873514Y1242369D01*
X37880328Y1242000D01*
X38502885Y1242000D01*
X38518124Y1246475D01*
X38519329Y1247865D01*
X38521000Y1255548D01*
X38521000Y1260116D01*
X39029000Y1260116D01*
X39033475Y1244877D01*
X39034865Y1243672D01*
X39042548Y1242001D01*
X39669669Y1242001D01*
X39676490Y1242371D01*
X39727352Y1247895D01*
X39742604Y1251521D01*
X39863054Y1296676D01*
X39878649Y1305214D01*
X39980724Y1381715D01*
X39993285Y1394276D01*
X40069786Y1496351D01*
X40078325Y1511948D01*
X40119425Y1621582D01*
X40162066Y1678347D01*
X40228628Y1703047D01*
X40297977Y1687840D01*
X40332645Y1659850D01*
X40358219Y1630326D01*
X40365580Y1623117D01*
X40529434Y1487084D01*
X40537881Y1481169D01*
X40721756Y1373721D01*
X40731042Y1369271D01*
X40930001Y1293297D01*
X40939899Y1290421D01*
X41043250Y1269394D01*
X41057299Y1270590D01*
X41061000Y1280935D01*
X41061000Y1281483D01*
X41569000Y1281483D01*
X41573064Y1267641D01*
X41586478Y1265607D01*
X41593184Y1266466D01*
X41603262Y1268608D01*
X41807255Y1329809D01*
X41816842Y1333567D01*
X42008095Y1427261D01*
X42016945Y1432536D01*
X42190328Y1556208D01*
X42198200Y1562861D01*
X42349052Y1713188D01*
X42355730Y1721035D01*
X42480003Y1893980D01*
X42485313Y1902817D01*
X42579670Y2093733D01*
X42583469Y2103328D01*
X42645377Y2307090D01*
X42647555Y2317163D01*
X42648986Y2328038D01*
X42646775Y2342222D01*
X42633617Y2346000D01*
X41587115Y2346000D01*
X41571876Y2341525D01*
X41570671Y2340135D01*
X41569000Y2332452D01*
X41569000Y1281483D01*
X41061000Y1281483D01*
X41061000Y2327885D01*
X41056525Y2343124D01*
X41055135Y2344329D01*
X41047452Y2346000D01*
X39047115Y2346000D01*
X39031876Y2341525D01*
X39030671Y2340135D01*
X39029000Y2332452D01*
X39029000Y1260116D01*
X38521000Y1260116D01*
X38521000Y2327885D01*
X38516525Y2343124D01*
X38515135Y2344329D01*
X38507452Y2346000D01*
X37435116Y2346000D01*
X37419877Y2341525D01*
X37418672Y2340135D01*
X37417001Y2332452D01*
X37417001Y1705331D01*
X33463300Y1705331D01*
X33463300Y1735685D01*
X33463406Y1766206D01*
X33463646Y1834859D01*
X33463646Y1834864D01*
X33463658Y1838392D01*
X33463389Y1839595D01*
X33463300Y1841240D01*
X33463300Y2319231D01*
X33483302Y2387352D01*
X33536958Y2433845D01*
X33575692Y2444494D01*
X33610316Y2448255D01*
X33746705Y2499385D01*
X33863261Y2586739D01*
X33950615Y2703295D01*
X34001745Y2839684D01*
X34005268Y2872115D01*
X37417000Y2872115D01*
X37421475Y2856876D01*
X37422865Y2855671D01*
X37430548Y2854000D01*
X38502885Y2854000D01*
X38518124Y2858475D01*
X38519329Y2859865D01*
X38521000Y2867548D01*
X38521000Y2872115D01*
X39029000Y2872115D01*
X39033475Y2856876D01*
X39034865Y2855671D01*
X39042548Y2854000D01*
X41042885Y2854000D01*
X41058124Y2858475D01*
X41059329Y2859865D01*
X41061000Y2867548D01*
X41061000Y2872115D01*
X41569000Y2872115D01*
X41573475Y2856876D01*
X41574865Y2855671D01*
X41582548Y2854000D01*
X42633344Y2854000D01*
X42646875Y2857973D01*
X42648180Y2867053D01*
X42606214Y3034125D01*
X42602894Y3043876D01*
X42517972Y3239186D01*
X42513105Y3248261D01*
X42397426Y3427074D01*
X42391136Y3435243D01*
X42247806Y3592760D01*
X42240273Y3599785D01*
X42073139Y3731778D01*
X42064552Y3737483D01*
X41878117Y3840401D01*
X41868705Y3844631D01*
X41667959Y3915720D01*
X41657988Y3918354D01*
X41586837Y3931028D01*
X41573540Y3929568D01*
X41569000Y3915011D01*
X41569000Y2872115D01*
X41061000Y2872115D01*
X41061000Y3916898D01*
X41057082Y3930242D01*
X41042806Y3932229D01*
X41004324Y3926340D01*
X40994288Y3923949D01*
X40791868Y3857788D01*
X40782359Y3853791D01*
X40593463Y3755458D01*
X40584738Y3749964D01*
X40414433Y3622095D01*
X40406726Y3615252D01*
X40329094Y3534015D01*
X40267570Y3498585D01*
X40196657Y3502042D01*
X40138871Y3543288D01*
X40120018Y3576836D01*
X40078324Y3688054D01*
X40069786Y3703649D01*
X39993285Y3805724D01*
X39980724Y3818285D01*
X39878649Y3894786D01*
X39863054Y3903324D01*
X39742606Y3948478D01*
X39727351Y3952105D01*
X39676486Y3957631D01*
X39669672Y3958000D01*
X39047115Y3958000D01*
X39031876Y3953525D01*
X39030671Y3952135D01*
X39029000Y3944452D01*
X39029000Y2872115D01*
X38521000Y2872115D01*
X38521000Y3939884D01*
X38516525Y3955123D01*
X38515135Y3956328D01*
X38507452Y3957999D01*
X37880331Y3957999D01*
X37873510Y3957629D01*
X37822648Y3952105D01*
X37807396Y3948479D01*
X37686946Y3903324D01*
X37671351Y3894786D01*
X37569276Y3818285D01*
X37556715Y3805724D01*
X37480214Y3703649D01*
X37471676Y3688054D01*
X37426522Y3567606D01*
X37422895Y3552351D01*
X37417369Y3501486D01*
X37417000Y3494672D01*
X37417000Y2872115D01*
X34005268Y2872115D01*
X34008500Y2901866D01*
X34008500Y4698134D01*
X34001745Y4760316D01*
X33950615Y4896705D01*
X33945229Y4903892D01*
X33940921Y4911760D01*
X33944009Y4913451D01*
X33925070Y4964141D01*
X33940123Y5033524D01*
X33990297Y5083754D01*
X34050744Y5099200D01*
X35998430Y5099200D01*
X36066551Y5079198D01*
X36087525Y5062295D01*
X36468289Y4681531D01*
X36469218Y4680594D01*
X36508826Y4640148D01*
X36532718Y4615750D01*
X36538636Y4611936D01*
X36538641Y4611932D01*
X36569407Y4592105D01*
X36579760Y4584666D01*
X36601525Y4567291D01*
X36613869Y4557437D01*
X36644283Y4542734D01*
X36657691Y4535210D01*
X36686090Y4516908D01*
X36725996Y4502383D01*
X36727115Y4501976D01*
X36738854Y4497017D01*
X36778144Y4478024D01*
X36809394Y4470809D01*
X36811053Y4470426D01*
X36825793Y4466060D01*
X36857549Y4454502D01*
X36900874Y4449029D01*
X36913403Y4446796D01*
X36949065Y4438562D01*
X36949073Y4438561D01*
X36955930Y4436978D01*
X36962971Y4436953D01*
X36962974Y4436953D01*
X36996739Y4436835D01*
X36997632Y4436806D01*
X36998470Y4436700D01*
X37035533Y4436700D01*
X37035972Y4436699D01*
X37134859Y4436354D01*
X37134864Y4436354D01*
X37138392Y4436342D01*
X37139595Y4436611D01*
X37141240Y4436700D01*
X41090783Y4436700D01*
X41092104Y4436693D01*
X41182709Y4435744D01*
X41225370Y4444968D01*
X41237949Y4447028D01*
X41274329Y4451108D01*
X41274332Y4451109D01*
X41281325Y4451893D01*
X41313226Y4463002D01*
X41328036Y4467164D01*
X41361051Y4474302D01*
X41372355Y4479573D01*
X41400619Y4492752D01*
X41412429Y4497548D01*
X41453639Y4511899D01*
X41482283Y4529798D01*
X41495792Y4537133D01*
X41526419Y4551415D01*
X41560910Y4578169D01*
X41571366Y4585463D01*
X41602400Y4604855D01*
X41608376Y4608589D01*
X41637344Y4637356D01*
X41637982Y4637953D01*
X41638653Y4638473D01*
X41664911Y4664731D01*
X41737846Y4737159D01*
X41738506Y4738200D01*
X41739615Y4739435D01*
X42180969Y5180789D01*
X42181906Y5181718D01*
X42241718Y5240290D01*
X42241719Y5240291D01*
X42246750Y5245218D01*
X42250564Y5251136D01*
X42250568Y5251141D01*
X42270395Y5281907D01*
X42277834Y5292260D01*
X42300670Y5320866D01*
X42305063Y5326369D01*
X42319766Y5356783D01*
X42327291Y5370193D01*
X42341775Y5392667D01*
X42341776Y5392668D01*
X42345592Y5398590D01*
X42360524Y5439615D01*
X42365484Y5451357D01*
X42384476Y5490644D01*
X42392074Y5523553D01*
X42396442Y5538300D01*
X42398198Y5543124D01*
X42407998Y5570049D01*
X42413471Y5613374D01*
X42415704Y5625903D01*
X42423938Y5661565D01*
X42423939Y5661573D01*
X42425522Y5668430D01*
X42425563Y5679970D01*
X42425665Y5709239D01*
X42425694Y5710132D01*
X42425800Y5710970D01*
X42425800Y5748185D01*
X42425878Y5770513D01*
X42426146Y5847359D01*
X42426146Y5847364D01*
X42426158Y5850892D01*
X42425889Y5852095D01*
X42425800Y5853740D01*
X42425800Y6321525D01*
X42445802Y6389646D01*
X42448840Y6393902D01*
X42451929Y6396997D01*
X42537340Y6535558D01*
X42539369Y6538850D01*
X42539370Y6538852D01*
X42543209Y6545080D01*
X42597974Y6710191D01*
X42598796Y6718209D01*
X42608172Y6809729D01*
X42608500Y6812928D01*
X42608500Y7387072D01*
X42605360Y7417337D01*
X42598419Y7484235D01*
X42598418Y7484239D01*
X42597707Y7491093D01*
X42582273Y7537356D01*
X42544972Y7649159D01*
X42542654Y7656107D01*
X42451116Y7804031D01*
X42451432Y7804226D01*
X42426417Y7866034D01*
X42425800Y7878485D01*
X42425800Y12840783D01*
X42425807Y12842103D01*
X42426317Y12890782D01*
X42426756Y12932709D01*
X42425268Y12939592D01*
X42417533Y12975372D01*
X42415474Y12987950D01*
X42411394Y13024318D01*
X42411392Y13024327D01*
X42410607Y13031325D01*
X42401741Y13056786D01*
X42399497Y13063231D01*
X42395335Y13078038D01*
X42389686Y13104164D01*
X42388197Y13111051D01*
X42384587Y13118794D01*
X42370305Y13149421D01*
X42358500Y13202670D01*
X42358500Y13566502D01*
X42357608Y13577834D01*
X42356067Y13597421D01*
X42356066Y13597426D01*
X42355562Y13603831D01*
X42314316Y13745802D01*
X42311357Y13755988D01*
X42311356Y13755990D01*
X42309145Y13763601D01*
X42280238Y13812480D01*
X42228491Y13899980D01*
X42228489Y13899983D01*
X42224453Y13906807D01*
X42106807Y14024453D01*
X42099983Y14028489D01*
X42099980Y14028491D01*
X41970427Y14105108D01*
X41970428Y14105108D01*
X41963601Y14109145D01*
X41955990Y14111356D01*
X41955988Y14111357D01*
X41895675Y14128879D01*
X41803831Y14155562D01*
X41797426Y14156066D01*
X41797421Y14156067D01*
X41768958Y14158307D01*
X41768950Y14158307D01*
X41766502Y14158500D01*
X41534500Y14158500D01*
X41466379Y14178502D01*
X41419886Y14232158D01*
X41408500Y14284500D01*
X41408500Y14656815D01*
X41410499Y14673832D01*
X41409854Y14673911D01*
X41410713Y14680906D01*
X41412345Y14687757D01*
X41412775Y14728841D01*
X41412929Y14733034D01*
X41413300Y14735970D01*
X41413300Y14778283D01*
X41413307Y14779603D01*
X41413830Y14829565D01*
X41414256Y14870209D01*
X41413538Y14873528D01*
X41413300Y14878234D01*
X41413300Y18260930D01*
X41433302Y18329051D01*
X41450205Y18350025D01*
X42154775Y19054595D01*
X42217087Y19088621D01*
X42243870Y19091500D01*
X42537072Y19091500D01*
X42540318Y19091837D01*
X42540322Y19091837D01*
X42634235Y19101581D01*
X42634239Y19101582D01*
X42641093Y19102293D01*
X42647629Y19104474D01*
X42647631Y19104474D01*
X42799159Y19155028D01*
X42806107Y19157346D01*
X42954031Y19248884D01*
X42959204Y19254066D01*
X43071758Y19366816D01*
X43071762Y19366821D01*
X43076929Y19371997D01*
X43093020Y19398101D01*
X43164369Y19513850D01*
X43164370Y19513852D01*
X43168209Y19520080D01*
X43222974Y19685191D01*
X43227891Y19733177D01*
X43231550Y19768893D01*
X43233500Y19787928D01*
X43233500Y20487072D01*
X43222707Y20591093D01*
X43167654Y20756107D01*
X43076116Y20904031D01*
X43068861Y20911274D01*
X43067895Y20913038D01*
X43066387Y20914941D01*
X43066713Y20915199D01*
X43034781Y20973554D01*
X43039782Y21044375D01*
X43068708Y21089470D01*
X43071364Y21092131D01*
X43080375Y21103540D01*
X43163912Y21239063D01*
X43170056Y21252241D01*
X43220315Y21403766D01*
X43223181Y21417132D01*
X43232672Y21509770D01*
X43233000Y21516185D01*
X43233000Y21590385D01*
X43228525Y21605624D01*
X43227135Y21606829D01*
X43219452Y21608500D01*
X41285115Y21608500D01*
X41269876Y21604025D01*
X41268671Y21602635D01*
X41267000Y21594952D01*
X41267000Y21516234D01*
X41267337Y21509718D01*
X41277075Y21415868D01*
X41279968Y21402472D01*
X41330488Y21251047D01*
X41336653Y21237885D01*
X41420426Y21102508D01*
X41429464Y21091106D01*
X41431139Y21089433D01*
X41431919Y21088007D01*
X41434007Y21085373D01*
X41433556Y21085016D01*
X41465219Y21027151D01*
X41460216Y20956331D01*
X41431299Y20911246D01*
X41429260Y20909203D01*
X41423071Y20903003D01*
X41419231Y20896773D01*
X41419230Y20896772D01*
X41336364Y20762338D01*
X41331791Y20754920D01*
X41277026Y20589809D01*
X41276326Y20582973D01*
X41276325Y20582970D01*
X41268739Y20508923D01*
X41241898Y20443196D01*
X41232490Y20432670D01*
X40410025Y19610205D01*
X40347713Y19576179D01*
X40320930Y19573300D01*
X36291384Y19573300D01*
X36223263Y19593302D01*
X36183952Y19633464D01*
X36176761Y19645198D01*
X36176758Y19645202D01*
X36174176Y19649416D01*
X36019969Y19829969D01*
X35839416Y19984176D01*
X35835208Y19986755D01*
X35835202Y19986759D01*
X35641183Y20105654D01*
X35636963Y20108240D01*
X35632393Y20110133D01*
X35632389Y20110135D01*
X35422167Y20197211D01*
X35422165Y20197212D01*
X35417594Y20199105D01*
X35337391Y20218360D01*
X35191524Y20253380D01*
X35191518Y20253381D01*
X35186711Y20254535D01*
X34950000Y20273165D01*
X34713289Y20254535D01*
X34708482Y20253381D01*
X34708476Y20253380D01*
X34562609Y20218360D01*
X34482406Y20199105D01*
X34477835Y20197212D01*
X34477833Y20197211D01*
X34267611Y20110135D01*
X34267607Y20110133D01*
X34263037Y20108240D01*
X34258817Y20105654D01*
X34064798Y19986759D01*
X34064792Y19986755D01*
X34060584Y19984176D01*
X33880031Y19829969D01*
X33725824Y19649416D01*
X33723245Y19645208D01*
X33723241Y19645202D01*
X33636248Y19503242D01*
X33601760Y19446963D01*
X33599867Y19442393D01*
X33599865Y19442389D01*
X33518274Y19245408D01*
X33510895Y19227594D01*
X33491640Y19147391D01*
X33469362Y19054595D01*
X33455465Y18996711D01*
X33436835Y18760000D01*
X33455465Y18523289D01*
X33510895Y18292406D01*
X33512788Y18287835D01*
X33512789Y18287833D01*
X33523933Y18260930D01*
X33601760Y18073037D01*
X33604346Y18068817D01*
X33723241Y17874798D01*
X33723245Y17874792D01*
X33725824Y17870584D01*
X33880031Y17690031D01*
X34060584Y17535824D01*
X34064792Y17533245D01*
X34064798Y17533241D01*
X34239721Y17426048D01*
X34263037Y17411760D01*
X34267607Y17409867D01*
X34267611Y17409865D01*
X34477833Y17322789D01*
X34482406Y17320895D01*
X34562609Y17301640D01*
X34708476Y17266620D01*
X34708482Y17266619D01*
X34713289Y17265465D01*
X34950000Y17246835D01*
X35186711Y17265465D01*
X35191518Y17266619D01*
X35191524Y17266620D01*
X35337391Y17301640D01*
X35417594Y17320895D01*
X35422167Y17322789D01*
X35632389Y17409865D01*
X35632393Y17409867D01*
X35636963Y17411760D01*
X35660279Y17426048D01*
X35835202Y17533241D01*
X35835208Y17533245D01*
X35839416Y17535824D01*
X36019969Y17690031D01*
X36174176Y17870584D01*
X36176761Y17874802D01*
X36183952Y17886536D01*
X36236600Y17934167D01*
X36291384Y17946700D01*
X39660700Y17946700D01*
X39728821Y17926698D01*
X39775314Y17873042D01*
X39786700Y17820700D01*
X39786700Y15839300D01*
X39766698Y15771179D01*
X39713042Y15724686D01*
X39660700Y15713300D01*
X37385827Y15713300D01*
X37319711Y15732040D01*
X37292274Y15748953D01*
X37179920Y15818209D01*
X37014809Y15872974D01*
X37007973Y15873674D01*
X37007970Y15873675D01*
X36956474Y15878951D01*
X36912072Y15883500D01*
X36312928Y15883500D01*
X36309682Y15883163D01*
X36309678Y15883163D01*
X36215765Y15873419D01*
X36215761Y15873418D01*
X36208907Y15872707D01*
X36202371Y15870526D01*
X36202369Y15870526D01*
X36182203Y15863798D01*
X36043893Y15817654D01*
X35895969Y15726116D01*
X35890796Y15720934D01*
X35789253Y15619214D01*
X35726970Y15585135D01*
X35656150Y15590138D01*
X35611063Y15619059D01*
X35508188Y15721754D01*
X35508183Y15721758D01*
X35503003Y15726929D01*
X35496772Y15730770D01*
X35361150Y15814369D01*
X35361148Y15814370D01*
X35354920Y15818209D01*
X35189809Y15872974D01*
X35182973Y15873674D01*
X35182970Y15873675D01*
X35131474Y15878951D01*
X35087072Y15883500D01*
X34487928Y15883500D01*
X34484682Y15883163D01*
X34484678Y15883163D01*
X34390765Y15873419D01*
X34390761Y15873418D01*
X34383907Y15872707D01*
X34377371Y15870526D01*
X34377369Y15870526D01*
X34357203Y15863798D01*
X34218893Y15817654D01*
X34070969Y15726116D01*
X34065796Y15720934D01*
X33953242Y15608184D01*
X33953238Y15608179D01*
X33948071Y15603003D01*
X33944229Y15596771D01*
X33944228Y15596769D01*
X33929689Y15573183D01*
X33876917Y15525690D01*
X33822430Y15513300D01*
X31703369Y15513300D01*
X31635248Y15533302D01*
X31594916Y15575161D01*
X31528491Y15687480D01*
X31528489Y15687483D01*
X31524453Y15694307D01*
X31406807Y15811953D01*
X31399983Y15815989D01*
X31399980Y15815991D01*
X31286398Y15883163D01*
X31263601Y15896645D01*
X31255990Y15898856D01*
X31255988Y15898857D01*
X31187669Y15918705D01*
X31103831Y15943062D01*
X31097426Y15943566D01*
X31097421Y15943567D01*
X31068958Y15945807D01*
X31068950Y15945807D01*
X31066502Y15946000D01*
X30633498Y15946000D01*
X30631050Y15945807D01*
X30631042Y15945807D01*
X30602579Y15943567D01*
X30602574Y15943566D01*
X30596169Y15943062D01*
X30512331Y15918705D01*
X30444012Y15898857D01*
X30444010Y15898856D01*
X30436399Y15896645D01*
X30413602Y15883163D01*
X30300020Y15815991D01*
X30300017Y15815989D01*
X30293193Y15811953D01*
X30175547Y15694307D01*
X30171511Y15687483D01*
X30171509Y15687480D01*
X30131137Y15619214D01*
X30090855Y15551101D01*
X30044438Y15391331D01*
X30041500Y15354002D01*
X30041500Y14796446D01*
X30040614Y14781527D01*
X30031574Y14705714D01*
X30032310Y14698711D01*
X30032310Y14698710D01*
X30040810Y14617837D01*
X30041500Y14604667D01*
X30041500Y14197000D01*
X30021498Y14128879D01*
X29967842Y14082386D01*
X29915500Y14071000D01*
X29683498Y14071000D01*
X29681050Y14070807D01*
X29681042Y14070807D01*
X29652579Y14068567D01*
X29652574Y14068566D01*
X29646169Y14068062D01*
X29546231Y14039028D01*
X29494012Y14023857D01*
X29494010Y14023856D01*
X29486399Y14021645D01*
X29479572Y14017608D01*
X29479573Y14017608D01*
X29350020Y13940991D01*
X29350017Y13940989D01*
X29343193Y13936953D01*
X29225547Y13819307D01*
X29221511Y13812483D01*
X29221509Y13812480D01*
X29169145Y13723937D01*
X29140855Y13676101D01*
X29138644Y13668490D01*
X29138643Y13668488D01*
X29126675Y13627292D01*
X29094438Y13516331D01*
X29093934Y13509926D01*
X29093933Y13509921D01*
X29091698Y13481520D01*
X29091500Y13479002D01*
X29091500Y13001391D01*
X29071498Y12933270D01*
X29017842Y12886777D01*
X28947568Y12876673D01*
X28882988Y12906167D01*
X28871863Y12917082D01*
X28869944Y12919214D01*
X28861253Y12928866D01*
X28727439Y13026088D01*
X28712094Y13037237D01*
X28712093Y13037238D01*
X28706752Y13041118D01*
X28700724Y13043802D01*
X28700722Y13043803D01*
X28538319Y13116109D01*
X28538318Y13116109D01*
X28532288Y13118794D01*
X28410585Y13144663D01*
X28351944Y13157128D01*
X28351939Y13157128D01*
X28345487Y13158500D01*
X28154513Y13158500D01*
X28148061Y13157128D01*
X28148056Y13157128D01*
X28089415Y13144663D01*
X27967712Y13118794D01*
X27961682Y13116109D01*
X27961681Y13116109D01*
X27799278Y13043803D01*
X27799276Y13043802D01*
X27793248Y13041118D01*
X27787907Y13037238D01*
X27787906Y13037237D01*
X27772561Y13026088D01*
X27638747Y12928866D01*
X27569346Y12851788D01*
X27508903Y12814550D01*
X27475712Y12810100D01*
X27429446Y12810100D01*
X27361325Y12830102D01*
X27322302Y12869796D01*
X27304967Y12897808D01*
X27304967Y12897809D01*
X27301116Y12904031D01*
X27286062Y12919059D01*
X27183184Y13021758D01*
X27183179Y13021762D01*
X27178003Y13026929D01*
X27171772Y13030770D01*
X27036150Y13114369D01*
X27036148Y13114370D01*
X27029920Y13118209D01*
X26864809Y13172974D01*
X26857973Y13173674D01*
X26857970Y13173675D01*
X26806474Y13178951D01*
X26762072Y13183500D01*
X26162928Y13183500D01*
X26159682Y13183163D01*
X26159678Y13183163D01*
X26065765Y13173419D01*
X26065761Y13173418D01*
X26058907Y13172707D01*
X26052371Y13170526D01*
X26052369Y13170526D01*
X25989110Y13149421D01*
X25893893Y13117654D01*
X25745969Y13026116D01*
X25740796Y13020934D01*
X25639253Y12919214D01*
X25576970Y12885135D01*
X25506150Y12890138D01*
X25461063Y12919059D01*
X25358188Y13021754D01*
X25358183Y13021758D01*
X25353003Y13026929D01*
X25346772Y13030770D01*
X25211150Y13114369D01*
X25211148Y13114370D01*
X25204920Y13118209D01*
X25039809Y13172974D01*
X25032973Y13173674D01*
X25032970Y13173675D01*
X24981474Y13178951D01*
X24937072Y13183500D01*
X24337928Y13183500D01*
X24334682Y13183163D01*
X24334678Y13183163D01*
X24240765Y13173419D01*
X24240761Y13173418D01*
X24233907Y13172707D01*
X24227371Y13170526D01*
X24227369Y13170526D01*
X24164110Y13149421D01*
X24068893Y13117654D01*
X23920969Y13026116D01*
X23915796Y13020934D01*
X23803242Y12908184D01*
X23803238Y12908179D01*
X23798071Y12903003D01*
X23794231Y12896773D01*
X23794230Y12896772D01*
X23727790Y12788986D01*
X23706791Y12754920D01*
X23652026Y12589809D01*
X23651326Y12582973D01*
X23651325Y12582970D01*
X23649804Y12568124D01*
X23641500Y12487072D01*
X23641500Y12406370D01*
X23621498Y12338249D01*
X23604595Y12317275D01*
X21931531Y10644211D01*
X21930594Y10643282D01*
X21899552Y10612883D01*
X21865750Y10579782D01*
X21861936Y10573864D01*
X21861932Y10573859D01*
X21842105Y10543093D01*
X21834666Y10532740D01*
X21829323Y10526047D01*
X21807437Y10498631D01*
X21804372Y10492291D01*
X21804369Y10492286D01*
X21792735Y10468221D01*
X21785208Y10454808D01*
X21770726Y10432336D01*
X21770723Y10432329D01*
X21766908Y10426410D01*
X21764498Y10419790D01*
X21764498Y10419789D01*
X21751979Y10385393D01*
X21747019Y10373652D01*
X21728023Y10334356D01*
X21720423Y10301436D01*
X21716057Y10286701D01*
X21706911Y10261572D01*
X21706909Y10261566D01*
X21704502Y10254951D01*
X21703620Y10247968D01*
X21699031Y10211641D01*
X21696797Y10199100D01*
X21686978Y10156570D01*
X21686953Y10149524D01*
X21686953Y10149521D01*
X21686835Y10115759D01*
X21686805Y10114866D01*
X21686700Y10114030D01*
X21686700Y10077094D01*
X21686699Y10076654D01*
X21686393Y9988946D01*
X21686341Y9974108D01*
X21686611Y9972902D01*
X21686700Y9971253D01*
X21686700Y9234358D01*
X21666698Y9166237D01*
X21613042Y9119744D01*
X21542768Y9109640D01*
X21478188Y9139134D01*
X21471682Y9145185D01*
X21395371Y9221363D01*
X21383960Y9230375D01*
X21248437Y9313912D01*
X21235259Y9320056D01*
X21083734Y9370315D01*
X21070368Y9373181D01*
X20977730Y9382672D01*
X20971315Y9383000D01*
X20947115Y9383000D01*
X20931876Y9378525D01*
X20930671Y9377135D01*
X20929000Y9369452D01*
X20929000Y7435115D01*
X20933475Y7419876D01*
X20934865Y7418671D01*
X20942548Y7417000D01*
X20971266Y7417000D01*
X20977782Y7417337D01*
X21071632Y7427075D01*
X21085029Y7429968D01*
X21095788Y7433558D01*
X21166738Y7436142D01*
X21227822Y7399958D01*
X21259646Y7336494D01*
X21252107Y7265899D01*
X21224759Y7224939D01*
X19700025Y5700205D01*
X19637713Y5666179D01*
X19610930Y5663300D01*
X18385827Y5663300D01*
X18319711Y5682040D01*
X18276786Y5708500D01*
X18238409Y5732156D01*
X18186150Y5764369D01*
X18186148Y5764370D01*
X18179920Y5768209D01*
X18014809Y5822974D01*
X18007973Y5823674D01*
X18007970Y5823675D01*
X17956474Y5828951D01*
X17912072Y5833500D01*
X17312928Y5833500D01*
X17309682Y5833163D01*
X17309678Y5833163D01*
X17215765Y5823419D01*
X17215761Y5823418D01*
X17208907Y5822707D01*
X17202371Y5820526D01*
X17202369Y5820526D01*
X17087367Y5782158D01*
X17043893Y5767654D01*
X16895969Y5676116D01*
X16890796Y5670934D01*
X16789253Y5569214D01*
X16726970Y5535135D01*
X16656150Y5540138D01*
X16611063Y5569059D01*
X16508188Y5671754D01*
X16508183Y5671758D01*
X16503003Y5676929D01*
X16496772Y5680770D01*
X16361150Y5764369D01*
X16361148Y5764370D01*
X16354920Y5768209D01*
X16189809Y5822974D01*
X16182973Y5823674D01*
X16182970Y5823675D01*
X16131474Y5828951D01*
X16087072Y5833500D01*
X15487928Y5833500D01*
X15484682Y5833163D01*
X15484678Y5833163D01*
X15390765Y5823419D01*
X15390761Y5823418D01*
X15383907Y5822707D01*
X15377371Y5820526D01*
X15377369Y5820526D01*
X15262367Y5782158D01*
X15218893Y5767654D01*
X15187186Y5748033D01*
X15161529Y5732156D01*
X15095226Y5713300D01*
X13091623Y5713300D01*
X13061436Y5709914D01*
X13055828Y5709285D01*
X13041783Y5708500D01*
X12634500Y5708500D01*
X12566379Y5728502D01*
X12519886Y5782158D01*
X12508500Y5834500D01*
X12508500Y5866000D01*
X12528502Y5934121D01*
X12582158Y5980614D01*
X12634500Y5992000D01*
X12865385Y5992000D01*
X12880624Y5996475D01*
X12881829Y5997865D01*
X12883500Y6005548D01*
X12883500Y6010116D01*
X13391500Y6010116D01*
X13395975Y5994877D01*
X13397365Y5993672D01*
X13405048Y5992001D01*
X13788984Y5992001D01*
X13793920Y5992195D01*
X13822336Y5994430D01*
X13834931Y5996730D01*
X13980790Y6039107D01*
X13995221Y6045352D01*
X14124678Y6121911D01*
X14137104Y6131551D01*
X14243449Y6237896D01*
X14253089Y6250322D01*
X14329648Y6379779D01*
X14335893Y6394210D01*
X14374939Y6528605D01*
X14374899Y6542706D01*
X14367630Y6546000D01*
X13409615Y6546000D01*
X13394376Y6541525D01*
X13393171Y6540135D01*
X13391500Y6532452D01*
X13391500Y6010116D01*
X12883500Y6010116D01*
X12883500Y6527885D01*
X12879025Y6543124D01*
X12877635Y6544329D01*
X12869952Y6546000D01*
X12254842Y6546000D01*
X12190703Y6563547D01*
X12120427Y6605108D01*
X12120428Y6605108D01*
X12113601Y6609145D01*
X12105990Y6611356D01*
X12105988Y6611357D01*
X12043283Y6629574D01*
X11953831Y6655562D01*
X11947426Y6656066D01*
X11947421Y6656067D01*
X11918958Y6658307D01*
X11918950Y6658307D01*
X11916502Y6658500D01*
X11359958Y6658500D01*
X11344166Y6659494D01*
X11317973Y6662803D01*
X11317956Y6662804D01*
X11314030Y6663300D01*
X9204713Y6663300D01*
X9138597Y6682040D01*
X9134644Y6684477D01*
X9131753Y6686259D01*
X9086150Y6714369D01*
X9086149Y6714370D01*
X9079920Y6718209D01*
X8914809Y6772974D01*
X8915109Y6773879D01*
X8857691Y6805121D01*
X8708407Y6954405D01*
X8674381Y7016717D01*
X8678292Y7071395D01*
X11900061Y7071395D01*
X11900101Y7057294D01*
X11907370Y7054000D01*
X12865385Y7054000D01*
X12880624Y7058475D01*
X12881829Y7059865D01*
X12883500Y7067548D01*
X12883500Y7072115D01*
X13391500Y7072115D01*
X13395975Y7056876D01*
X13397365Y7055671D01*
X13405048Y7054000D01*
X14361878Y7054000D01*
X14375409Y7057973D01*
X14376544Y7065871D01*
X14335893Y7205790D01*
X14329648Y7220221D01*
X14253089Y7349678D01*
X14243449Y7362104D01*
X14137104Y7468449D01*
X14124678Y7478089D01*
X13995221Y7554648D01*
X13980790Y7560893D01*
X13834935Y7603269D01*
X13822333Y7605570D01*
X13793916Y7607807D01*
X13788986Y7608000D01*
X13409615Y7608000D01*
X13394376Y7603525D01*
X13393171Y7602135D01*
X13391500Y7594452D01*
X13391500Y7072115D01*
X12883500Y7072115D01*
X12883500Y7589884D01*
X12879025Y7605123D01*
X12877635Y7606328D01*
X12869952Y7607999D01*
X12486017Y7607999D01*
X12481080Y7607805D01*
X12452664Y7605570D01*
X12440069Y7603270D01*
X12294210Y7560893D01*
X12279779Y7554648D01*
X12150322Y7478089D01*
X12137896Y7468449D01*
X12031551Y7362104D01*
X12021911Y7349678D01*
X11945352Y7220221D01*
X11939107Y7205790D01*
X11900061Y7071395D01*
X8678292Y7071395D01*
X8679446Y7087532D01*
X8721993Y7144368D01*
X8784499Y7168827D01*
X8859234Y7176581D01*
X8859237Y7176582D01*
X8866093Y7177293D01*
X8872629Y7179474D01*
X8872631Y7179474D01*
X9005395Y7223768D01*
X9031107Y7232346D01*
X9169271Y7317844D01*
X9235573Y7336700D01*
X9990783Y7336700D01*
X9992104Y7336693D01*
X10082709Y7335744D01*
X10125370Y7344968D01*
X10137949Y7347028D01*
X10174329Y7351108D01*
X10174332Y7351109D01*
X10181325Y7351893D01*
X10213226Y7363002D01*
X10228036Y7367164D01*
X10261051Y7374302D01*
X10281433Y7383806D01*
X10300619Y7392752D01*
X10312429Y7397548D01*
X10353639Y7411899D01*
X10382283Y7429798D01*
X10395792Y7437133D01*
X10426419Y7451415D01*
X10451405Y7470796D01*
X10460910Y7478169D01*
X10471366Y7485463D01*
X10502400Y7504855D01*
X10508376Y7508589D01*
X10537344Y7537356D01*
X10537982Y7537953D01*
X10538653Y7538473D01*
X10564911Y7564731D01*
X10608483Y7608000D01*
X10635335Y7634665D01*
X10635339Y7634669D01*
X10637846Y7637159D01*
X10638506Y7638200D01*
X10639615Y7639435D01*
X10917928Y7917748D01*
X10980240Y7951774D01*
X11042175Y7949650D01*
X11139989Y7921233D01*
X11139993Y7921232D01*
X11146169Y7919438D01*
X11152574Y7918934D01*
X11152579Y7918933D01*
X11181042Y7916693D01*
X11181050Y7916693D01*
X11183498Y7916500D01*
X11616502Y7916500D01*
X11618950Y7916693D01*
X11618958Y7916693D01*
X11647421Y7918933D01*
X11647426Y7918934D01*
X11653831Y7919438D01*
X11753769Y7948472D01*
X11805988Y7963643D01*
X11805990Y7963644D01*
X11813601Y7965855D01*
X11888569Y8010191D01*
X11949980Y8046509D01*
X11949983Y8046511D01*
X11956807Y8050547D01*
X12074453Y8168193D01*
X12078489Y8175017D01*
X12078491Y8175020D01*
X12142107Y8282589D01*
X12159145Y8311399D01*
X12161415Y8319210D01*
X12182298Y8391093D01*
X12205562Y8471169D01*
X12206074Y8477664D01*
X12208307Y8506042D01*
X12208307Y8506050D01*
X12208500Y8508498D01*
X12208500Y8511016D01*
X12492001Y8511016D01*
X12492195Y8506080D01*
X12494430Y8477664D01*
X12496730Y8465069D01*
X12539107Y8319210D01*
X12545352Y8304779D01*
X12621911Y8175322D01*
X12631551Y8162896D01*
X12737896Y8056551D01*
X12750322Y8046911D01*
X12879779Y7970352D01*
X12894210Y7964107D01*
X13028605Y7925061D01*
X13042706Y7925101D01*
X13046000Y7932370D01*
X13046000Y7938122D01*
X13554000Y7938122D01*
X13557973Y7924591D01*
X13565871Y7923456D01*
X13705790Y7964107D01*
X13720221Y7970352D01*
X13849678Y8046911D01*
X13862104Y8056551D01*
X13921787Y8116234D01*
X19679500Y8116234D01*
X19679837Y8109718D01*
X19689575Y8015868D01*
X19692468Y8002472D01*
X19742988Y7851047D01*
X19749153Y7837885D01*
X19832926Y7702508D01*
X19841960Y7691110D01*
X19954629Y7578637D01*
X19966040Y7569625D01*
X20101563Y7486088D01*
X20114741Y7479944D01*
X20266266Y7429685D01*
X20279632Y7426819D01*
X20372270Y7417328D01*
X20378685Y7417000D01*
X20402885Y7417000D01*
X20418124Y7421475D01*
X20419329Y7422865D01*
X20421000Y7430548D01*
X20421000Y8127885D01*
X20416525Y8143124D01*
X20415135Y8144329D01*
X20407452Y8146000D01*
X19697615Y8146000D01*
X19682376Y8141525D01*
X19681171Y8140135D01*
X19679500Y8132452D01*
X19679500Y8116234D01*
X13921787Y8116234D01*
X13968449Y8162896D01*
X13978089Y8175322D01*
X14054648Y8304779D01*
X14060893Y8319210D01*
X14103269Y8465065D01*
X14105570Y8477667D01*
X14107807Y8506084D01*
X14108000Y8511014D01*
X14108000Y8672115D01*
X19679500Y8672115D01*
X19683975Y8656876D01*
X19685365Y8655671D01*
X19693048Y8654000D01*
X20402885Y8654000D01*
X20418124Y8658475D01*
X20419329Y8659865D01*
X20421000Y8667548D01*
X20421000Y9364885D01*
X20416525Y9380124D01*
X20415135Y9381329D01*
X20407452Y9383000D01*
X20378734Y9383000D01*
X20372218Y9382663D01*
X20278368Y9372925D01*
X20264972Y9370032D01*
X20113547Y9319512D01*
X20100385Y9313347D01*
X19965008Y9229574D01*
X19953610Y9220540D01*
X19841137Y9107871D01*
X19832125Y9096460D01*
X19748588Y8960937D01*
X19742444Y8947759D01*
X19692185Y8796234D01*
X19689319Y8782868D01*
X19679828Y8690230D01*
X19679500Y8683815D01*
X19679500Y8672115D01*
X14108000Y8672115D01*
X14108000Y8890385D01*
X14103525Y8905624D01*
X14102135Y8906829D01*
X14094452Y8908500D01*
X13572115Y8908500D01*
X13556876Y8904025D01*
X13555671Y8902635D01*
X13554000Y8894952D01*
X13554000Y7938122D01*
X13046000Y7938122D01*
X13046000Y8890385D01*
X13041525Y8905624D01*
X13040135Y8906829D01*
X13032452Y8908500D01*
X12510116Y8908500D01*
X12494877Y8904025D01*
X12493672Y8902635D01*
X12492001Y8894952D01*
X12492001Y8511016D01*
X12208500Y8511016D01*
X12208500Y9066054D01*
X12209386Y9080973D01*
X12213219Y9113120D01*
X12218426Y9156786D01*
X12216146Y9178485D01*
X12209190Y9244663D01*
X12208500Y9257833D01*
X12208500Y9665500D01*
X12228502Y9733621D01*
X12282158Y9780114D01*
X12334500Y9791500D01*
X12366000Y9791500D01*
X12434121Y9771498D01*
X12480614Y9717842D01*
X12492000Y9665500D01*
X12492000Y9434615D01*
X12496475Y9419376D01*
X12497865Y9418171D01*
X12505548Y9416500D01*
X14089884Y9416500D01*
X14105123Y9420975D01*
X14106328Y9422365D01*
X14107999Y9430048D01*
X14107999Y9813983D01*
X14107805Y9818920D01*
X14105570Y9847336D01*
X14103270Y9859931D01*
X14060893Y10005790D01*
X14054648Y10020221D01*
X13978089Y10149678D01*
X13968449Y10162104D01*
X13862104Y10268449D01*
X13849678Y10278089D01*
X13724690Y10352005D01*
X13676238Y10403898D01*
X13663532Y10473748D01*
X13690607Y10539379D01*
X13699734Y10549554D01*
X14318469Y11168289D01*
X14319406Y11169218D01*
X14379218Y11227790D01*
X14379219Y11227791D01*
X14384250Y11232718D01*
X14388064Y11238636D01*
X14388068Y11238641D01*
X14407895Y11269407D01*
X14415334Y11279760D01*
X14438170Y11308366D01*
X14442563Y11313869D01*
X14445628Y11320209D01*
X14445631Y11320214D01*
X14457265Y11344279D01*
X14464792Y11357692D01*
X14479274Y11380164D01*
X14479277Y11380171D01*
X14483092Y11386090D01*
X14498023Y11427111D01*
X14502982Y11438851D01*
X14518911Y11471801D01*
X14518912Y11471803D01*
X14521977Y11478144D01*
X14529577Y11511064D01*
X14533943Y11525799D01*
X14543089Y11550928D01*
X14543091Y11550934D01*
X14545498Y11557549D01*
X14550969Y11600859D01*
X14553203Y11613400D01*
X14563022Y11655930D01*
X14563068Y11668933D01*
X14563165Y11696739D01*
X14563194Y11697632D01*
X14563300Y11698470D01*
X14563300Y11735685D01*
X14563301Y11736091D01*
X14563646Y11834859D01*
X14563646Y11834864D01*
X14563658Y11838392D01*
X14563389Y11839595D01*
X14563300Y11841240D01*
X14563300Y12123200D01*
X14583302Y12191321D01*
X14636958Y12237814D01*
X14689300Y12249200D01*
X17646631Y12249200D01*
X17714752Y12229198D01*
X17755084Y12187339D01*
X17821509Y12075020D01*
X17821511Y12075017D01*
X17825547Y12068193D01*
X17943193Y11950547D01*
X17950017Y11946511D01*
X17950020Y11946509D01*
X18056563Y11883500D01*
X18086399Y11865855D01*
X18094010Y11863644D01*
X18094012Y11863643D01*
X18146231Y11848472D01*
X18246169Y11819438D01*
X18252574Y11818934D01*
X18252579Y11818933D01*
X18281042Y11816693D01*
X18281050Y11816693D01*
X18283498Y11816500D01*
X18716502Y11816500D01*
X18718950Y11816693D01*
X18718958Y11816693D01*
X18747421Y11818933D01*
X18747426Y11818934D01*
X18753831Y11819438D01*
X18853769Y11848472D01*
X18905988Y11863643D01*
X18905990Y11863644D01*
X18913601Y11865855D01*
X18943437Y11883500D01*
X19049980Y11946509D01*
X19049983Y11946511D01*
X19056807Y11950547D01*
X19174453Y12068193D01*
X19178489Y12075017D01*
X19178491Y12075020D01*
X19255108Y12204573D01*
X19259145Y12211399D01*
X19261415Y12219210D01*
X19276528Y12271231D01*
X19305562Y12371169D01*
X19306074Y12377664D01*
X19308307Y12406042D01*
X19308307Y12406050D01*
X19308500Y12408498D01*
X19308500Y12411016D01*
X19592001Y12411016D01*
X19592195Y12406080D01*
X19594430Y12377664D01*
X19596730Y12365069D01*
X19639107Y12219210D01*
X19645352Y12204779D01*
X19721911Y12075322D01*
X19731551Y12062896D01*
X19837896Y11956551D01*
X19850322Y11946911D01*
X19979779Y11870352D01*
X19994210Y11864107D01*
X20128605Y11825061D01*
X20142706Y11825101D01*
X20146000Y11832370D01*
X20146000Y11838122D01*
X20654000Y11838122D01*
X20657973Y11824591D01*
X20665871Y11823456D01*
X20805790Y11864107D01*
X20820221Y11870352D01*
X20949678Y11946911D01*
X20962104Y11956551D01*
X21068449Y12062896D01*
X21078089Y12075322D01*
X21154648Y12204779D01*
X21160893Y12219210D01*
X21203269Y12365065D01*
X21205570Y12377667D01*
X21207807Y12406084D01*
X21208000Y12411014D01*
X21208000Y12790385D01*
X21203525Y12805624D01*
X21202135Y12806829D01*
X21194452Y12808500D01*
X20672115Y12808500D01*
X20656876Y12804025D01*
X20655671Y12802635D01*
X20654000Y12794952D01*
X20654000Y11838122D01*
X20146000Y11838122D01*
X20146000Y12790385D01*
X20141525Y12805624D01*
X20140135Y12806829D01*
X20132452Y12808500D01*
X19610116Y12808500D01*
X19594877Y12804025D01*
X19593672Y12802635D01*
X19592001Y12794952D01*
X19592001Y12411016D01*
X19308500Y12411016D01*
X19308500Y12966054D01*
X19309386Y12980973D01*
X19311821Y13001391D01*
X19318426Y13056786D01*
X19313447Y13104164D01*
X19309190Y13144663D01*
X19308500Y13157833D01*
X19308500Y13565500D01*
X19328502Y13633621D01*
X19382158Y13680114D01*
X19434500Y13691500D01*
X19466000Y13691500D01*
X19534121Y13671498D01*
X19580614Y13617842D01*
X19592000Y13565500D01*
X19592000Y13334615D01*
X19596475Y13319376D01*
X19597865Y13318171D01*
X19605548Y13316500D01*
X20127885Y13316500D01*
X20143124Y13320975D01*
X20144329Y13322365D01*
X20146000Y13330048D01*
X20146000Y13334615D01*
X20654000Y13334615D01*
X20658475Y13319376D01*
X20659865Y13318171D01*
X20667548Y13316500D01*
X21189884Y13316500D01*
X21205123Y13320975D01*
X21206328Y13322365D01*
X21207999Y13330048D01*
X21207999Y13713983D01*
X21207805Y13718920D01*
X21205570Y13747336D01*
X21203270Y13759931D01*
X21160893Y13905790D01*
X21154648Y13920221D01*
X21078089Y14049678D01*
X21068449Y14062104D01*
X20962104Y14168449D01*
X20949678Y14178089D01*
X20820221Y14254648D01*
X20805790Y14260893D01*
X20671395Y14299939D01*
X20657294Y14299899D01*
X20654000Y14292630D01*
X20654000Y13334615D01*
X20146000Y13334615D01*
X20146000Y13945158D01*
X20163547Y14009297D01*
X20197239Y14066267D01*
X20209145Y14086399D01*
X20214581Y14105108D01*
X20228717Y14153767D01*
X20255562Y14246169D01*
X20256230Y14254648D01*
X20258307Y14281042D01*
X20258307Y14281050D01*
X20258500Y14283498D01*
X20258500Y14809485D01*
X20260786Y14829547D01*
X20260628Y14829565D01*
X20261439Y14836572D01*
X20263022Y14843430D01*
X20263116Y14870209D01*
X20263634Y15018850D01*
X20263659Y15025892D01*
X20261534Y15035400D01*
X20258500Y15062885D01*
X20258500Y15591502D01*
X20258307Y15593958D01*
X20256067Y15622421D01*
X20256066Y15622426D01*
X20255562Y15628831D01*
X20214207Y15771179D01*
X20211357Y15780988D01*
X20211356Y15780990D01*
X20209145Y15788601D01*
X20161022Y15869972D01*
X20128491Y15924980D01*
X20128489Y15924983D01*
X20124453Y15931807D01*
X20006807Y16049453D01*
X19999983Y16053489D01*
X19999980Y16053491D01*
X19870427Y16130108D01*
X19870428Y16130108D01*
X19863601Y16134145D01*
X19855990Y16136356D01*
X19855988Y16136357D01*
X19803769Y16151528D01*
X19703831Y16180562D01*
X19697426Y16181066D01*
X19697421Y16181067D01*
X19668958Y16183307D01*
X19668950Y16183307D01*
X19666502Y16183500D01*
X19233498Y16183500D01*
X19231050Y16183307D01*
X19231042Y16183307D01*
X19202579Y16181067D01*
X19202574Y16181066D01*
X19196169Y16180562D01*
X19096231Y16151528D01*
X19044012Y16136357D01*
X19044010Y16136356D01*
X19036399Y16134145D01*
X19029572Y16130108D01*
X19029573Y16130108D01*
X18900020Y16053491D01*
X18900017Y16053489D01*
X18893193Y16049453D01*
X18775547Y15931807D01*
X18771511Y15924983D01*
X18771509Y15924980D01*
X18738978Y15869972D01*
X18690855Y15788601D01*
X18688644Y15780990D01*
X18688643Y15780988D01*
X18648161Y15641647D01*
X18609948Y15581812D01*
X18545452Y15552134D01*
X18527164Y15550800D01*
X13785201Y15550800D01*
X13717080Y15570802D01*
X13678057Y15610496D01*
X13654967Y15647808D01*
X13654967Y15647809D01*
X13651116Y15654031D01*
X13636062Y15669059D01*
X13533184Y15771758D01*
X13533179Y15771762D01*
X13528003Y15776929D01*
X13521418Y15780988D01*
X13386150Y15864369D01*
X13386148Y15864370D01*
X13379920Y15868209D01*
X13214809Y15922974D01*
X13207973Y15923674D01*
X13207970Y15923675D01*
X13156474Y15928951D01*
X13112072Y15933500D01*
X12512928Y15933500D01*
X12509682Y15933163D01*
X12509678Y15933163D01*
X12415765Y15923419D01*
X12415761Y15923418D01*
X12408907Y15922707D01*
X12402371Y15920526D01*
X12402369Y15920526D01*
X12308774Y15889300D01*
X12243893Y15867654D01*
X12095969Y15776116D01*
X12090796Y15770934D01*
X11989253Y15669214D01*
X11926970Y15635135D01*
X11856150Y15640138D01*
X11811063Y15669059D01*
X11708188Y15771754D01*
X11708183Y15771758D01*
X11703003Y15776929D01*
X11696418Y15780988D01*
X11561150Y15864369D01*
X11561148Y15864370D01*
X11554920Y15868209D01*
X11389809Y15922974D01*
X11382973Y15923674D01*
X11382970Y15923675D01*
X11331474Y15928951D01*
X11287072Y15933500D01*
X10687928Y15933500D01*
X10684682Y15933163D01*
X10684678Y15933163D01*
X10590765Y15923419D01*
X10590761Y15923418D01*
X10583907Y15922707D01*
X10577371Y15920526D01*
X10577369Y15920526D01*
X10483774Y15889300D01*
X10418893Y15867654D01*
X10282582Y15783302D01*
X10280730Y15782156D01*
X10214427Y15763300D01*
X8339300Y15763300D01*
X8271179Y15783302D01*
X8224686Y15836958D01*
X8213300Y15889300D01*
X8213300Y17410930D01*
X8233302Y17479051D01*
X8250205Y17500025D01*
X8559975Y17809795D01*
X8622287Y17843821D01*
X8649070Y17846700D01*
X10008616Y17846700D01*
X10076737Y17826698D01*
X10116048Y17786536D01*
X10123239Y17774802D01*
X10125824Y17770584D01*
X10280031Y17590031D01*
X10460584Y17435824D01*
X10464792Y17433245D01*
X10464798Y17433241D01*
X10540686Y17386737D01*
X10663037Y17311760D01*
X10667607Y17309867D01*
X10667611Y17309865D01*
X10877833Y17222789D01*
X10882406Y17220895D01*
X10962609Y17201640D01*
X11108476Y17166620D01*
X11108482Y17166619D01*
X11113289Y17165465D01*
X11350000Y17146835D01*
X11586711Y17165465D01*
X11591518Y17166619D01*
X11591524Y17166620D01*
X11737391Y17201640D01*
X11817594Y17220895D01*
X11822167Y17222789D01*
X12032389Y17309865D01*
X12032393Y17309867D01*
X12036963Y17311760D01*
X12159314Y17386737D01*
X12235202Y17433241D01*
X12235208Y17433245D01*
X12239416Y17435824D01*
X12419969Y17590031D01*
X12574176Y17770584D01*
X12576755Y17774792D01*
X12576759Y17774798D01*
X12695654Y17968817D01*
X12698240Y17973037D01*
X12789105Y18192406D01*
X12844535Y18423289D01*
X12863165Y18660000D01*
X21536835Y18660000D01*
X21555465Y18423289D01*
X21610895Y18192406D01*
X21701760Y17973037D01*
X21704346Y17968817D01*
X21823241Y17774798D01*
X21823245Y17774792D01*
X21825824Y17770584D01*
X21980031Y17590031D01*
X22160584Y17435824D01*
X22164799Y17433241D01*
X22164802Y17433239D01*
X22176536Y17426048D01*
X22224167Y17373400D01*
X22236700Y17318616D01*
X22236700Y16746717D01*
X22236693Y16745397D01*
X22235744Y16654791D01*
X22237233Y16647904D01*
X22244967Y16612135D01*
X22247028Y16599551D01*
X22251893Y16556175D01*
X22254208Y16549528D01*
X22263002Y16524274D01*
X22267164Y16509464D01*
X22274302Y16476449D01*
X22277280Y16470062D01*
X22277281Y16470060D01*
X22292752Y16436881D01*
X22297547Y16425073D01*
X22311899Y16383861D01*
X22315632Y16377887D01*
X22329797Y16355218D01*
X22337133Y16341708D01*
X22351415Y16311081D01*
X22370796Y16286095D01*
X22378169Y16276590D01*
X22385462Y16266136D01*
X22408589Y16229124D01*
X22413554Y16224125D01*
X22413555Y16224123D01*
X22437356Y16200156D01*
X22437953Y16199518D01*
X22438473Y16198847D01*
X22464731Y16172589D01*
X22516899Y16120056D01*
X22537159Y16099654D01*
X22538200Y16098994D01*
X22539435Y16097885D01*
X23554595Y15082725D01*
X23588621Y15020413D01*
X23591500Y14993630D01*
X23591500Y14912928D01*
X23591837Y14909682D01*
X23591837Y14909678D01*
X23601440Y14817132D01*
X23602293Y14808907D01*
X23604474Y14802371D01*
X23604474Y14802369D01*
X23642097Y14689600D01*
X23657346Y14643893D01*
X23748884Y14495969D01*
X23754066Y14490796D01*
X23866816Y14378242D01*
X23866821Y14378238D01*
X23871997Y14373071D01*
X23878227Y14369231D01*
X23878228Y14369230D01*
X23990639Y14299939D01*
X24020080Y14281791D01*
X24185191Y14227026D01*
X24192027Y14226326D01*
X24192030Y14226325D01*
X24239370Y14221475D01*
X24287928Y14216500D01*
X24887072Y14216500D01*
X24890318Y14216837D01*
X24890322Y14216837D01*
X24984235Y14226581D01*
X24984239Y14226582D01*
X24991093Y14227293D01*
X24997629Y14229474D01*
X24997631Y14229474D01*
X25130395Y14273768D01*
X25156107Y14282346D01*
X25304031Y14373884D01*
X25411101Y14481141D01*
X25473382Y14515220D01*
X25544202Y14510217D01*
X25589291Y14481296D01*
X25692129Y14378637D01*
X25703540Y14369625D01*
X25839063Y14286088D01*
X25852241Y14279944D01*
X26003766Y14229685D01*
X26017132Y14226819D01*
X26109770Y14217328D01*
X26116185Y14217000D01*
X26140385Y14217000D01*
X26155624Y14221475D01*
X26156829Y14222865D01*
X26158500Y14230548D01*
X26158500Y14235115D01*
X26666500Y14235115D01*
X26670975Y14219876D01*
X26672365Y14218671D01*
X26680048Y14217000D01*
X26708766Y14217000D01*
X26715282Y14217337D01*
X26809132Y14227075D01*
X26822528Y14229968D01*
X26973953Y14280488D01*
X26987115Y14286653D01*
X27122492Y14370426D01*
X27133890Y14379460D01*
X27246363Y14492129D01*
X27255375Y14503540D01*
X27338912Y14639063D01*
X27345056Y14652241D01*
X27395315Y14803766D01*
X27398181Y14817132D01*
X27407672Y14909770D01*
X27408000Y14916185D01*
X27408000Y14927885D01*
X27403525Y14943124D01*
X27402135Y14944329D01*
X27394452Y14946000D01*
X26684615Y14946000D01*
X26669376Y14941525D01*
X26668171Y14940135D01*
X26666500Y14932452D01*
X26666500Y14235115D01*
X26158500Y14235115D01*
X26158500Y15472115D01*
X26666500Y15472115D01*
X26670975Y15456876D01*
X26672365Y15455671D01*
X26680048Y15454000D01*
X27389885Y15454000D01*
X27405124Y15458475D01*
X27406329Y15459865D01*
X27408000Y15467548D01*
X27408000Y15483766D01*
X27407663Y15490282D01*
X27397925Y15584132D01*
X27395032Y15597528D01*
X27344512Y15748953D01*
X27338347Y15762115D01*
X27254574Y15897492D01*
X27245540Y15908890D01*
X27132871Y16021363D01*
X27121460Y16030375D01*
X26985937Y16113912D01*
X26972759Y16120056D01*
X26821234Y16170315D01*
X26807868Y16173181D01*
X26715230Y16182672D01*
X26708815Y16183000D01*
X26684615Y16183000D01*
X26669376Y16178525D01*
X26668171Y16177135D01*
X26666500Y16169452D01*
X26666500Y15472115D01*
X26158500Y15472115D01*
X26158500Y16164885D01*
X26154025Y16180124D01*
X26152635Y16181329D01*
X26144952Y16183000D01*
X26116234Y16183000D01*
X26109718Y16182663D01*
X26015868Y16172925D01*
X26002472Y16170032D01*
X25851047Y16119512D01*
X25837885Y16113347D01*
X25702508Y16029574D01*
X25691110Y16020540D01*
X25589607Y15918860D01*
X25527324Y15884781D01*
X25456504Y15889784D01*
X25411416Y15918705D01*
X25409309Y15920809D01*
X25303003Y16026929D01*
X25275562Y16043844D01*
X25161150Y16114369D01*
X25161148Y16114370D01*
X25154920Y16118209D01*
X24989809Y16172974D01*
X24982973Y16173674D01*
X24982970Y16173675D01*
X24931474Y16178951D01*
X24887072Y16183500D01*
X24806370Y16183500D01*
X24738249Y16203502D01*
X24717275Y16220405D01*
X23900205Y17037475D01*
X23866179Y17099787D01*
X23863300Y17126570D01*
X23863300Y17318616D01*
X23883302Y17386737D01*
X23923464Y17426048D01*
X23935198Y17433239D01*
X23935201Y17433241D01*
X23939416Y17435824D01*
X24119969Y17590031D01*
X24274176Y17770584D01*
X24276755Y17774792D01*
X24276759Y17774798D01*
X24395654Y17968817D01*
X24398240Y17973037D01*
X24489105Y18192406D01*
X24544535Y18423289D01*
X24563165Y18660000D01*
X24544535Y18896711D01*
X24489105Y19127594D01*
X24477742Y19155028D01*
X24400135Y19342389D01*
X24400133Y19342393D01*
X24398240Y19346963D01*
X24393763Y19354269D01*
X24276759Y19545202D01*
X24276755Y19545208D01*
X24274176Y19549416D01*
X24119969Y19729969D01*
X23939416Y19884176D01*
X23935208Y19886755D01*
X23935202Y19886759D01*
X23741183Y20005654D01*
X23736963Y20008240D01*
X23732393Y20010133D01*
X23732389Y20010135D01*
X23522167Y20097211D01*
X23522165Y20097212D01*
X23517594Y20099105D01*
X23437391Y20118360D01*
X23291524Y20153380D01*
X23291518Y20153381D01*
X23286711Y20154535D01*
X23050000Y20173165D01*
X22813289Y20154535D01*
X22808482Y20153381D01*
X22808476Y20153380D01*
X22662609Y20118360D01*
X22582406Y20099105D01*
X22577835Y20097212D01*
X22577833Y20097211D01*
X22367611Y20010135D01*
X22367607Y20010133D01*
X22363037Y20008240D01*
X22358817Y20005654D01*
X22164798Y19886759D01*
X22164792Y19886755D01*
X22160584Y19884176D01*
X21980031Y19729969D01*
X21825824Y19549416D01*
X21823245Y19545208D01*
X21823241Y19545202D01*
X21706237Y19354269D01*
X21701760Y19346963D01*
X21699867Y19342393D01*
X21699865Y19342389D01*
X21622258Y19155028D01*
X21610895Y19127594D01*
X21555465Y18896711D01*
X21536835Y18660000D01*
X12863165Y18660000D01*
X12844535Y18896711D01*
X12789105Y19127594D01*
X12777742Y19155028D01*
X12700135Y19342389D01*
X12700133Y19342393D01*
X12698240Y19346963D01*
X12693763Y19354269D01*
X12576759Y19545202D01*
X12576755Y19545208D01*
X12574176Y19549416D01*
X12419969Y19729969D01*
X12239416Y19884176D01*
X12235208Y19886755D01*
X12235202Y19886759D01*
X12041183Y20005654D01*
X12036963Y20008240D01*
X12032393Y20010133D01*
X12032389Y20010135D01*
X11822167Y20097211D01*
X11822165Y20097212D01*
X11817594Y20099105D01*
X11737391Y20118360D01*
X11591524Y20153380D01*
X11591518Y20153381D01*
X11586711Y20154535D01*
X11350000Y20173165D01*
X11113289Y20154535D01*
X11108482Y20153381D01*
X11108476Y20153380D01*
X10962609Y20118360D01*
X10882406Y20099105D01*
X10877835Y20097212D01*
X10877833Y20097211D01*
X10667611Y20010135D01*
X10667607Y20010133D01*
X10663037Y20008240D01*
X10658817Y20005654D01*
X10464798Y19886759D01*
X10464792Y19886755D01*
X10460584Y19884176D01*
X10280031Y19729969D01*
X10125824Y19549416D01*
X10123242Y19545202D01*
X10123239Y19545198D01*
X10116048Y19533464D01*
X10063400Y19485833D01*
X10008616Y19473300D01*
X8269263Y19473300D01*
X8267944Y19473307D01*
X8177291Y19474256D01*
X8170405Y19472767D01*
X8170403Y19472767D01*
X8151670Y19468716D01*
X8134630Y19465032D01*
X8122051Y19462972D01*
X8085671Y19458892D01*
X8085668Y19458891D01*
X8078675Y19458107D01*
X8058792Y19451183D01*
X8046774Y19446998D01*
X8031964Y19442836D01*
X8005839Y19437188D01*
X8005836Y19437187D01*
X7998949Y19435698D01*
X7992562Y19432720D01*
X7992560Y19432719D01*
X7959390Y19417251D01*
X7947581Y19412455D01*
X7906361Y19398101D01*
X7900386Y19394367D01*
X7900381Y19394365D01*
X7877720Y19380205D01*
X7864201Y19372864D01*
X7833582Y19358586D01*
X7818598Y19346963D01*
X7799095Y19331835D01*
X7788640Y19324542D01*
X7757601Y19305146D01*
X7751624Y19301411D01*
X7746626Y19296448D01*
X7746625Y19296447D01*
X7722647Y19272636D01*
X7722016Y19272045D01*
X7721348Y19271527D01*
X7695229Y19245408D01*
X7622154Y19172841D01*
X7621492Y19171798D01*
X7620381Y19170560D01*
X7339095Y18889274D01*
X7276783Y18855248D01*
X7205968Y18860313D01*
X7160905Y18889274D01*
X6169215Y19880965D01*
X5094164Y20956016D01*
X5093236Y20956953D01*
X5034711Y21016717D01*
X5034709Y21016718D01*
X5029782Y21021750D01*
X5023863Y21025564D01*
X5023860Y21025567D01*
X4993093Y21045395D01*
X4982740Y21052834D01*
X4954134Y21075670D01*
X4948631Y21080063D01*
X4942291Y21083128D01*
X4942286Y21083131D01*
X4918221Y21094765D01*
X4904808Y21102292D01*
X4882336Y21116774D01*
X4882329Y21116777D01*
X4876410Y21120592D01*
X4835389Y21135523D01*
X4823649Y21140482D01*
X4784356Y21159477D01*
X4784539Y21159855D01*
X4730395Y21198852D01*
X4704363Y21264904D01*
X4718174Y21334544D01*
X4728264Y21350115D01*
X4813912Y21489063D01*
X4820056Y21502241D01*
X4870315Y21653766D01*
X4873181Y21667132D01*
X4882672Y21759770D01*
X4883000Y21766185D01*
X4883000Y21840385D01*
X4878525Y21855624D01*
X4877135Y21856829D01*
X4869452Y21858500D01*
X2935115Y21858500D01*
X2919876Y21854025D01*
X2918671Y21852635D01*
X2917000Y21844952D01*
X2917000Y21766234D01*
X2917337Y21759718D01*
X2927075Y21665868D01*
X2929968Y21652472D01*
X2980488Y21501047D01*
X2986653Y21487885D01*
X3070426Y21352508D01*
X3079464Y21341106D01*
X3081139Y21339433D01*
X3081919Y21338007D01*
X3084007Y21335373D01*
X3083556Y21335016D01*
X3115219Y21277151D01*
X3110216Y21206331D01*
X3081299Y21161246D01*
X3078496Y21158437D01*
X3073071Y21153003D01*
X3069231Y21146773D01*
X3069230Y21146772D01*
X2995358Y21026929D01*
X2981791Y21004920D01*
X2927026Y20839809D01*
X2916500Y20737072D01*
X2916500Y20037928D01*
X2916837Y20034682D01*
X2916837Y20034678D01*
X2919849Y20005654D01*
X2927293Y19933907D01*
X2929474Y19927371D01*
X2929474Y19927369D01*
X2973768Y19794605D01*
X2982346Y19768893D01*
X3073884Y19620969D01*
X3079066Y19615796D01*
X3191816Y19503242D01*
X3191821Y19503238D01*
X3196997Y19498071D01*
X3203227Y19494231D01*
X3203228Y19494230D01*
X3335895Y19412453D01*
X3345080Y19406791D01*
X3510191Y19352026D01*
X3517027Y19351326D01*
X3517030Y19351325D01*
X3559607Y19346963D01*
X3612928Y19341500D01*
X4187072Y19341500D01*
X4190318Y19341837D01*
X4190322Y19341837D01*
X4284235Y19351581D01*
X4284239Y19351582D01*
X4291093Y19352293D01*
X4297630Y19354474D01*
X4304372Y19355930D01*
X4304671Y19354547D01*
X4367968Y19356849D01*
X4425982Y19323838D01*
X6549795Y17200025D01*
X6583821Y17137713D01*
X6586700Y17110930D01*
X6586700Y14801940D01*
X6586341Y14699108D01*
X6587877Y14692237D01*
X6587877Y14692236D01*
X6588466Y14689600D01*
X6591500Y14662115D01*
X6591500Y14284500D01*
X6571498Y14216379D01*
X6517842Y14169886D01*
X6465500Y14158500D01*
X6233498Y14158500D01*
X6231050Y14158307D01*
X6231042Y14158307D01*
X6202579Y14156067D01*
X6202574Y14156066D01*
X6196169Y14155562D01*
X6104325Y14128879D01*
X6044012Y14111357D01*
X6044010Y14111356D01*
X6036399Y14109145D01*
X6029572Y14105108D01*
X6029573Y14105108D01*
X5900020Y14028491D01*
X5900017Y14028489D01*
X5893193Y14024453D01*
X5775547Y13906807D01*
X5771511Y13899983D01*
X5771509Y13899980D01*
X5719762Y13812480D01*
X5690855Y13763601D01*
X5688644Y13755990D01*
X5688643Y13755988D01*
X5685684Y13745802D01*
X5644438Y13603831D01*
X5643934Y13597426D01*
X5643933Y13597421D01*
X5642392Y13577834D01*
X5641500Y13566502D01*
X5641500Y12745861D01*
X5621498Y12677740D01*
X5567842Y12631247D01*
X5497568Y12621143D01*
X5432988Y12650637D01*
X5421869Y12661546D01*
X5361253Y12728866D01*
X5259719Y12802635D01*
X5212094Y12837237D01*
X5212093Y12837238D01*
X5206752Y12841118D01*
X5200724Y12843802D01*
X5200722Y12843803D01*
X5038319Y12916109D01*
X5038318Y12916109D01*
X5032288Y12918794D01*
X4934442Y12939592D01*
X4851944Y12957128D01*
X4851939Y12957128D01*
X4845487Y12958500D01*
X4654513Y12958500D01*
X4648061Y12957128D01*
X4648056Y12957128D01*
X4565558Y12939592D01*
X4467712Y12918794D01*
X4461682Y12916109D01*
X4461681Y12916109D01*
X4299278Y12843803D01*
X4299276Y12843802D01*
X4293248Y12841118D01*
X4287907Y12837238D01*
X4287906Y12837237D01*
X4240281Y12802635D01*
X4138747Y12728866D01*
X4134329Y12723959D01*
X4134325Y12723955D01*
X4017988Y12594749D01*
X4010960Y12586944D01*
X3915473Y12421556D01*
X3856458Y12239928D01*
X3855768Y12233367D01*
X3855768Y12233365D01*
X3843863Y12120094D01*
X3836496Y12050000D01*
X3837186Y12043435D01*
X3855420Y11869952D01*
X3856458Y11860072D01*
X3915473Y11678444D01*
X3918776Y11672722D01*
X3918777Y11672721D01*
X3919817Y11670920D01*
X3920177Y11669577D01*
X3921461Y11666693D01*
X3921004Y11666490D01*
X3936700Y11607917D01*
X3936700Y10609217D01*
X3936693Y10607897D01*
X3935744Y10517291D01*
X3937234Y10510397D01*
X3937918Y10503669D01*
X3924904Y10433875D01*
X3901658Y10401838D01*
X3531531Y10031711D01*
X3530594Y10030782D01*
X3476342Y9977654D01*
X3465750Y9967282D01*
X3461936Y9961364D01*
X3461932Y9961359D01*
X3442105Y9930593D01*
X3434666Y9920240D01*
X3411830Y9891634D01*
X3407437Y9886131D01*
X3404372Y9879791D01*
X3404369Y9879786D01*
X3392735Y9855721D01*
X3385208Y9842308D01*
X3370726Y9819836D01*
X3370723Y9819829D01*
X3366908Y9813910D01*
X3352629Y9774678D01*
X3351979Y9772893D01*
X3347019Y9761152D01*
X3328023Y9721856D01*
X3320423Y9688936D01*
X3316057Y9674201D01*
X3306911Y9649072D01*
X3306909Y9649066D01*
X3304502Y9642451D01*
X3303620Y9635468D01*
X3299031Y9599141D01*
X3296797Y9586600D01*
X3286978Y9544070D01*
X3286953Y9537024D01*
X3286953Y9537021D01*
X3286835Y9503259D01*
X3286805Y9502366D01*
X3286700Y9501530D01*
X3286700Y9464594D01*
X3286699Y9464154D01*
X3286381Y9372925D01*
X3286341Y9361608D01*
X3286611Y9360402D01*
X3286700Y9358753D01*
X3286700Y6409000D01*
X3266698Y6340879D01*
X3213042Y6294386D01*
X3160700Y6283000D01*
X2872115Y6283000D01*
X2856876Y6278525D01*
X2855671Y6277135D01*
X2854000Y6269452D01*
X2854000Y2657115D01*
X2858475Y2641876D01*
X2859865Y2640671D01*
X2867548Y2639000D01*
X3918344Y2639000D01*
X3931875Y2642973D01*
X3933180Y2652053D01*
X3891214Y2819125D01*
X3887894Y2828876D01*
X3802972Y3024186D01*
X3798105Y3033261D01*
X3682426Y3212074D01*
X3676136Y3220243D01*
X3531931Y3378721D01*
X3500879Y3442567D01*
X3509273Y3513066D01*
X3554450Y3567834D01*
X3580894Y3581503D01*
X3688054Y3621676D01*
X3703648Y3630214D01*
X3768256Y3678635D01*
X3834762Y3703483D01*
X3904145Y3688430D01*
X3932916Y3666904D01*
X4668289Y2931531D01*
X4669218Y2930594D01*
X4727543Y2871035D01*
X4732718Y2865750D01*
X4738640Y2861933D01*
X4738642Y2861932D01*
X4769414Y2842101D01*
X4779754Y2834671D01*
X4813870Y2807437D01*
X4820216Y2804369D01*
X4820218Y2804368D01*
X4844282Y2792734D01*
X4857693Y2785208D01*
X4886090Y2766908D01*
X4927119Y2751975D01*
X4938843Y2747022D01*
X4978145Y2728023D01*
X4985003Y2726440D01*
X4985005Y2726439D01*
X5011056Y2720425D01*
X5025806Y2716055D01*
X5050922Y2706914D01*
X5057549Y2704502D01*
X5064539Y2703619D01*
X5100859Y2699031D01*
X5113400Y2696797D01*
X5155930Y2686978D01*
X5162976Y2686953D01*
X5162979Y2686953D01*
X5196741Y2686835D01*
X5197634Y2686805D01*
X5198470Y2686700D01*
X5235406Y2686700D01*
X5235846Y2686699D01*
X5334846Y2686353D01*
X5334853Y2686353D01*
X5338392Y2686341D01*
X5339598Y2686611D01*
X5341247Y2686700D01*
X5760700Y2686700D01*
X5828821Y2666698D01*
X5875314Y2613042D01*
X5886700Y2560700D01*
X5886700Y2009217D01*
X5886693Y2007897D01*
X5885744Y1917291D01*
X5887233Y1910404D01*
X5894967Y1874635D01*
X5897028Y1862051D01*
X5899682Y1838392D01*
X5901893Y1818675D01*
X5904208Y1812028D01*
X5913002Y1786774D01*
X5917164Y1771964D01*
X5924302Y1738949D01*
X5927280Y1732562D01*
X5927281Y1732560D01*
X5942752Y1699381D01*
X5947547Y1687573D01*
X5961899Y1646361D01*
X5977383Y1621582D01*
X5979797Y1617718D01*
X5987133Y1604208D01*
X6001415Y1573581D01*
X6013851Y1557549D01*
X6028169Y1539090D01*
X6035462Y1528636D01*
X6058589Y1491624D01*
X6063554Y1486625D01*
X6063555Y1486623D01*
X6087356Y1462656D01*
X6087953Y1462018D01*
X6088473Y1461347D01*
X6114731Y1435089D01*
X6141516Y1408117D01*
X6187159Y1362154D01*
X6188200Y1361494D01*
X6189435Y1360385D01*
X6826725Y723095D01*
X6860751Y660783D01*
X6855686Y589968D01*
X6813139Y533132D01*
X6746619Y508321D01*
X6737630Y508000D01*
X634000Y508000D01*
X565879Y528002D01*
X519386Y581658D01*
X508000Y634000D01*
X508000Y2117034D01*
X1268257Y2117034D01*
X1298565Y1982554D01*
X1301645Y1972725D01*
X1381770Y1775397D01*
X1386413Y1766206D01*
X1497694Y1584612D01*
X1503777Y1576301D01*
X1643213Y1415333D01*
X1650580Y1408117D01*
X1814434Y1272084D01*
X1822881Y1266169D01*
X2006756Y1158721D01*
X2016042Y1154271D01*
X2215001Y1078297D01*
X2224899Y1075421D01*
X2328250Y1054394D01*
X2342299Y1055590D01*
X2346000Y1065935D01*
X2346000Y1066483D01*
X2854000Y1066483D01*
X2858064Y1052641D01*
X2871478Y1050607D01*
X2878184Y1051466D01*
X2888262Y1053608D01*
X3092255Y1114809D01*
X3101842Y1118567D01*
X3293095Y1212261D01*
X3301945Y1217536D01*
X3475328Y1341208D01*
X3483200Y1347861D01*
X3634052Y1498188D01*
X3640730Y1506035D01*
X3765003Y1678980D01*
X3770313Y1687817D01*
X3864670Y1878733D01*
X3868469Y1888328D01*
X3930377Y2092090D01*
X3932555Y2102163D01*
X3933986Y2113038D01*
X3931775Y2127222D01*
X3918617Y2131000D01*
X2872115Y2131000D01*
X2856876Y2126525D01*
X2855671Y2125135D01*
X2854000Y2117452D01*
X2854000Y1066483D01*
X2346000Y1066483D01*
X2346000Y2112885D01*
X2341525Y2128124D01*
X2340135Y2129329D01*
X2332452Y2131000D01*
X1283225Y2131000D01*
X1269694Y2127027D01*
X1268257Y2117034D01*
X508000Y2117034D01*
X508000Y4030331D01*
X1242001Y4030331D01*
X1242371Y4023510D01*
X1247895Y3972648D01*
X1251521Y3957396D01*
X1296676Y3836946D01*
X1305214Y3821351D01*
X1381715Y3719276D01*
X1394276Y3706715D01*
X1496351Y3630214D01*
X1511946Y3621676D01*
X1621337Y3580667D01*
X1678101Y3538025D01*
X1702801Y3471464D01*
X1687594Y3402115D01*
X1668201Y3375634D01*
X1544590Y3246283D01*
X1538104Y3238273D01*
X1418098Y3062351D01*
X1413000Y3053377D01*
X1323338Y2860217D01*
X1319775Y2850530D01*
X1264389Y2650817D01*
X1265912Y2642393D01*
X1278292Y2639000D01*
X2327885Y2639000D01*
X2343124Y2643475D01*
X2344329Y2644865D01*
X2346000Y2652548D01*
X2346000Y4652885D01*
X2341525Y4668124D01*
X2340135Y4669329D01*
X2332452Y4671000D01*
X1260116Y4671000D01*
X1244877Y4666525D01*
X1243672Y4665135D01*
X1242001Y4657452D01*
X1242001Y4030331D01*
X508000Y4030331D01*
X508000Y5197115D01*
X1242000Y5197115D01*
X1246475Y5181876D01*
X1247865Y5180671D01*
X1255548Y5179000D01*
X2327885Y5179000D01*
X2343124Y5183475D01*
X2344329Y5184865D01*
X2346000Y5192548D01*
X2346000Y6264884D01*
X2341525Y6280123D01*
X2340135Y6281328D01*
X2332452Y6282999D01*
X1705331Y6282999D01*
X1698510Y6282629D01*
X1647648Y6277105D01*
X1632396Y6273479D01*
X1511946Y6228324D01*
X1496351Y6219786D01*
X1394276Y6143285D01*
X1381715Y6130724D01*
X1305214Y6028649D01*
X1296676Y6013054D01*
X1251522Y5892606D01*
X1247895Y5877351D01*
X1242369Y5826486D01*
X1242000Y5819672D01*
X1242000Y5197115D01*
X508000Y5197115D01*
X508000Y22134615D01*
X41267000Y22134615D01*
X41271475Y22119376D01*
X41272865Y22118171D01*
X41280548Y22116500D01*
X41977885Y22116500D01*
X41993124Y22120975D01*
X41994329Y22122365D01*
X41996000Y22130048D01*
X41996000Y22134615D01*
X42504000Y22134615D01*
X42508475Y22119376D01*
X42509865Y22118171D01*
X42517548Y22116500D01*
X43214885Y22116500D01*
X43230124Y22120975D01*
X43231329Y22122365D01*
X43233000Y22130048D01*
X43233000Y22208766D01*
X43232663Y22215282D01*
X43222925Y22309132D01*
X43220032Y22322528D01*
X43169512Y22473953D01*
X43163347Y22487115D01*
X43079574Y22622492D01*
X43070540Y22633890D01*
X42957871Y22746363D01*
X42946460Y22755375D01*
X42810937Y22838912D01*
X42797759Y22845056D01*
X42646234Y22895315D01*
X42632868Y22898181D01*
X42540230Y22907672D01*
X42533815Y22908000D01*
X42522115Y22908000D01*
X42506876Y22903525D01*
X42505671Y22902135D01*
X42504000Y22894452D01*
X42504000Y22134615D01*
X41996000Y22134615D01*
X41996000Y22889885D01*
X41991525Y22905124D01*
X41990135Y22906329D01*
X41982452Y22908000D01*
X41966234Y22908000D01*
X41959718Y22907663D01*
X41865868Y22897925D01*
X41852472Y22895032D01*
X41701047Y22844512D01*
X41687885Y22838347D01*
X41552508Y22754574D01*
X41541110Y22745540D01*
X41428637Y22632871D01*
X41419625Y22621460D01*
X41336088Y22485937D01*
X41329944Y22472759D01*
X41279685Y22321234D01*
X41276819Y22307868D01*
X41267328Y22215230D01*
X41267000Y22208815D01*
X41267000Y22134615D01*
X508000Y22134615D01*
X508000Y22384615D01*
X2917000Y22384615D01*
X2921475Y22369376D01*
X2922865Y22368171D01*
X2930548Y22366500D01*
X3627885Y22366500D01*
X3643124Y22370975D01*
X3644329Y22372365D01*
X3646000Y22380048D01*
X3646000Y22384615D01*
X4154000Y22384615D01*
X4158475Y22369376D01*
X4159865Y22368171D01*
X4167548Y22366500D01*
X4864885Y22366500D01*
X4880124Y22370975D01*
X4881329Y22372365D01*
X4883000Y22380048D01*
X4883000Y22458766D01*
X4882663Y22465282D01*
X4872925Y22559132D01*
X4870032Y22572528D01*
X4819512Y22723953D01*
X4813347Y22737115D01*
X4729574Y22872492D01*
X4720540Y22883890D01*
X4607871Y22996363D01*
X4596460Y23005375D01*
X4460937Y23088912D01*
X4447759Y23095056D01*
X4296234Y23145315D01*
X4282868Y23148181D01*
X4190230Y23157672D01*
X4183815Y23158000D01*
X4172115Y23158000D01*
X4156876Y23153525D01*
X4155671Y23152135D01*
X4154000Y23144452D01*
X4154000Y22384615D01*
X3646000Y22384615D01*
X3646000Y23139885D01*
X3641525Y23155124D01*
X3640135Y23156329D01*
X3632452Y23158000D01*
X3616234Y23158000D01*
X3609718Y23157663D01*
X3515868Y23147925D01*
X3502472Y23145032D01*
X3351047Y23094512D01*
X3337885Y23088347D01*
X3202508Y23004574D01*
X3191110Y22995540D01*
X3078637Y22882871D01*
X3069625Y22871460D01*
X2986088Y22735937D01*
X2979944Y22722759D01*
X2929685Y22571234D01*
X2926819Y22557868D01*
X2917328Y22465230D01*
X2917000Y22458815D01*
X2917000Y22384615D01*
X508000Y22384615D01*
X508000Y23740000D01*
X9836835Y23740000D01*
X9855465Y23503289D01*
X9910895Y23272406D01*
X9912788Y23267835D01*
X9912789Y23267833D01*
X9984581Y23094512D01*
X10001760Y23053037D01*
X10004346Y23048817D01*
X10123241Y22854798D01*
X10123245Y22854792D01*
X10125824Y22850584D01*
X10280031Y22670031D01*
X10460584Y22515824D01*
X10464792Y22513245D01*
X10464798Y22513241D01*
X10645039Y22402789D01*
X10663037Y22391760D01*
X10667607Y22389867D01*
X10667611Y22389865D01*
X10877833Y22302789D01*
X10882406Y22300895D01*
X10962609Y22281640D01*
X11108476Y22246620D01*
X11108482Y22246619D01*
X11113289Y22245465D01*
X11350000Y22226835D01*
X11586711Y22245465D01*
X11591518Y22246619D01*
X11591524Y22246620D01*
X11737391Y22281640D01*
X11817594Y22300895D01*
X11822167Y22302789D01*
X12032389Y22389865D01*
X12032393Y22389867D01*
X12036963Y22391760D01*
X12054961Y22402789D01*
X12235202Y22513241D01*
X12235208Y22513245D01*
X12239416Y22515824D01*
X12419969Y22670031D01*
X12574176Y22850584D01*
X12576755Y22854792D01*
X12576759Y22854798D01*
X12695654Y23048817D01*
X12698240Y23053037D01*
X12715420Y23094512D01*
X12787211Y23267833D01*
X12787212Y23267835D01*
X12789105Y23272406D01*
X12844535Y23503289D01*
X12863165Y23740000D01*
X12844535Y23976711D01*
X12843380Y23981523D01*
X12843378Y23981534D01*
X12840168Y23994906D01*
X12843716Y24065814D01*
X12873592Y24113412D01*
X14768469Y26008289D01*
X14769406Y26009218D01*
X14829218Y26067790D01*
X14829219Y26067791D01*
X14834250Y26072718D01*
X14857899Y26109414D01*
X14865329Y26119754D01*
X14892563Y26153870D01*
X14895632Y26160218D01*
X14907266Y26184282D01*
X14914792Y26197694D01*
X14933092Y26226090D01*
X14948025Y26267119D01*
X14952980Y26278849D01*
X14963506Y26300623D01*
X14971977Y26318145D01*
X14979575Y26351056D01*
X14983945Y26365806D01*
X14993086Y26390922D01*
X14993086Y26390923D01*
X14995498Y26397549D01*
X15000969Y26440859D01*
X15003203Y26453400D01*
X15013022Y26495930D01*
X15013165Y26536741D01*
X15013195Y26537634D01*
X15013300Y26538470D01*
X15013300Y26575560D01*
X15013509Y26635335D01*
X15013647Y26674846D01*
X15013647Y26674853D01*
X15013659Y26678392D01*
X15013389Y26679598D01*
X15013300Y26681247D01*
X15013300Y28810612D01*
X15033302Y28878733D01*
X15050205Y28899707D01*
X15200293Y29049795D01*
X15262605Y29083821D01*
X15289388Y29086700D01*
X17964291Y29086700D01*
X18008520Y29078682D01*
X18082289Y29051027D01*
X18082291Y29051027D01*
X18089684Y29048255D01*
X18097532Y29047402D01*
X18097534Y29047402D01*
X18148469Y29041869D01*
X18151866Y29041500D01*
X18621985Y29041500D01*
X18642047Y29039214D01*
X18642065Y29039372D01*
X18649072Y29038561D01*
X18655930Y29036978D01*
X18662968Y29036953D01*
X18662972Y29036953D01*
X18747161Y29036659D01*
X18838392Y29036341D01*
X18845264Y29037877D01*
X18847900Y29038466D01*
X18875385Y29041500D01*
X19348134Y29041500D01*
X19410316Y29048255D01*
X19546705Y29099385D01*
X19663261Y29186739D01*
X19702236Y29238743D01*
X19749174Y29301372D01*
X19806033Y29343887D01*
X19876852Y29348913D01*
X19939145Y29314853D01*
X19950826Y29301372D01*
X19997764Y29238743D01*
X20036739Y29186739D01*
X20153295Y29099385D01*
X20289684Y29048255D01*
X20351866Y29041500D01*
X20852542Y29041500D01*
X20868334Y29040506D01*
X20894527Y29037197D01*
X20894544Y29037196D01*
X20898470Y29036700D01*
X22110700Y29036700D01*
X22178821Y29016698D01*
X22225314Y28963042D01*
X22236700Y28910700D01*
X22236700Y25081384D01*
X22216698Y25013263D01*
X22176536Y24973952D01*
X22164802Y24966761D01*
X22160584Y24964176D01*
X21980031Y24809969D01*
X21825824Y24629416D01*
X21823245Y24625208D01*
X21823241Y24625202D01*
X21765626Y24531183D01*
X21701760Y24426963D01*
X21610895Y24207594D01*
X21609740Y24202782D01*
X21556623Y23981534D01*
X21555465Y23976711D01*
X21536835Y23740000D01*
X21555465Y23503289D01*
X21610895Y23272406D01*
X21612788Y23267835D01*
X21612789Y23267833D01*
X21684581Y23094512D01*
X21701760Y23053037D01*
X21704346Y23048817D01*
X21823241Y22854798D01*
X21823245Y22854792D01*
X21825824Y22850584D01*
X21980031Y22670031D01*
X22160584Y22515824D01*
X22164792Y22513245D01*
X22164798Y22513241D01*
X22345039Y22402789D01*
X22363037Y22391760D01*
X22367607Y22389867D01*
X22367611Y22389865D01*
X22577833Y22302789D01*
X22582406Y22300895D01*
X22662609Y22281640D01*
X22808476Y22246620D01*
X22808482Y22246619D01*
X22813289Y22245465D01*
X23050000Y22226835D01*
X23286711Y22245465D01*
X23291518Y22246619D01*
X23291524Y22246620D01*
X23437391Y22281640D01*
X23517594Y22300895D01*
X23522167Y22302789D01*
X23732389Y22389865D01*
X23732393Y22389867D01*
X23736963Y22391760D01*
X23754961Y22402789D01*
X23935202Y22513241D01*
X23935208Y22513245D01*
X23939416Y22515824D01*
X24119969Y22670031D01*
X24274176Y22850584D01*
X24276755Y22854792D01*
X24276759Y22854798D01*
X24395654Y23048817D01*
X24398240Y23053037D01*
X24415420Y23094512D01*
X24487211Y23267833D01*
X24487212Y23267835D01*
X24489105Y23272406D01*
X24544535Y23503289D01*
X24563165Y23740000D01*
X24544535Y23976711D01*
X24543378Y23981534D01*
X24490260Y24202782D01*
X24489105Y24207594D01*
X24398240Y24426963D01*
X24334374Y24531183D01*
X24276759Y24625202D01*
X24276755Y24625208D01*
X24274176Y24629416D01*
X24119969Y24809969D01*
X23939416Y24964176D01*
X23935198Y24966761D01*
X23923464Y24973952D01*
X23875833Y25026600D01*
X23863300Y25081384D01*
X23863300Y28970068D01*
X23883302Y29038189D01*
X23936958Y29084682D01*
X24007232Y29094786D01*
X24033529Y29088050D01*
X24132282Y29051029D01*
X24132288Y29051027D01*
X24139684Y29048255D01*
X24201866Y29041500D01*
X24671985Y29041500D01*
X24692047Y29039214D01*
X24692065Y29039372D01*
X24699072Y29038561D01*
X24705930Y29036978D01*
X24712968Y29036953D01*
X24712972Y29036953D01*
X24797161Y29036659D01*
X24888392Y29036341D01*
X24895264Y29037877D01*
X24897900Y29038466D01*
X24925385Y29041500D01*
X25398134Y29041500D01*
X25460316Y29048255D01*
X25596705Y29099385D01*
X25713261Y29186739D01*
X25752236Y29238743D01*
X25799174Y29301372D01*
X25856033Y29343887D01*
X25926852Y29348913D01*
X25989145Y29314853D01*
X26000826Y29301372D01*
X26047764Y29238743D01*
X26086739Y29186739D01*
X26203295Y29099385D01*
X26339684Y29048255D01*
X26401866Y29041500D01*
X26869315Y29041500D01*
X26886333Y29039501D01*
X26886412Y29040146D01*
X26893405Y29039287D01*
X26900257Y29037655D01*
X26907300Y29037581D01*
X26907302Y29037581D01*
X26998262Y29036628D01*
X27082709Y29035744D01*
X27096177Y29038656D01*
X27122795Y29041500D01*
X27598134Y29041500D01*
X27601531Y29041869D01*
X27652466Y29047402D01*
X27652468Y29047402D01*
X27660316Y29048255D01*
X27667709Y29051027D01*
X27667711Y29051027D01*
X27741480Y29078682D01*
X27785709Y29086700D01*
X29960612Y29086700D01*
X30028733Y29066698D01*
X30049707Y29049795D01*
X30205700Y28893802D01*
X30210208Y28890645D01*
X30210211Y28890643D01*
X30275233Y28845114D01*
X30393251Y28762477D01*
X30398233Y28760154D01*
X30398238Y28760151D01*
X30595775Y28668039D01*
X30600757Y28665716D01*
X30606065Y28664294D01*
X30606067Y28664293D01*
X30816598Y28607881D01*
X30816600Y28607881D01*
X30821913Y28606457D01*
X31050000Y28586502D01*
X31055475Y28586981D01*
X31055476Y28586981D01*
X31141650Y28594520D01*
X31211254Y28580531D01*
X31241726Y28558094D01*
X34099795Y25700025D01*
X34133821Y25637713D01*
X34136700Y25610930D01*
X34136700Y25181384D01*
X34116698Y25113263D01*
X34076536Y25073952D01*
X34064802Y25066761D01*
X34060584Y25064176D01*
X33880031Y24909969D01*
X33725824Y24729416D01*
X33723245Y24725208D01*
X33723241Y24725202D01*
X33661961Y24625202D01*
X33601760Y24526963D01*
X33510895Y24307594D01*
X33455465Y24076711D01*
X33436835Y23840000D01*
X33455465Y23603289D01*
X33510895Y23372406D01*
X33512788Y23367835D01*
X33512789Y23367833D01*
X33599844Y23157663D01*
X33601760Y23153037D01*
X33604346Y23148817D01*
X33723241Y22954798D01*
X33723245Y22954792D01*
X33725824Y22950584D01*
X33880031Y22770031D01*
X34060584Y22615824D01*
X34064792Y22613245D01*
X34064798Y22613241D01*
X34153096Y22559132D01*
X34263037Y22491760D01*
X34267607Y22489867D01*
X34267611Y22489865D01*
X34477833Y22402789D01*
X34482406Y22400895D01*
X34550217Y22384615D01*
X34708476Y22346620D01*
X34708482Y22346619D01*
X34713289Y22345465D01*
X34950000Y22326835D01*
X35186711Y22345465D01*
X35191518Y22346619D01*
X35191524Y22346620D01*
X35349783Y22384615D01*
X35417594Y22400895D01*
X35422167Y22402789D01*
X35632389Y22489865D01*
X35632393Y22489867D01*
X35636963Y22491760D01*
X35746904Y22559132D01*
X35835202Y22613241D01*
X35835208Y22613245D01*
X35839416Y22615824D01*
X36019969Y22770031D01*
X36174176Y22950584D01*
X36176755Y22954792D01*
X36176759Y22954798D01*
X36295654Y23148817D01*
X36298240Y23153037D01*
X36300157Y23157663D01*
X36387211Y23367833D01*
X36387212Y23367835D01*
X36389105Y23372406D01*
X36444535Y23603289D01*
X36463165Y23840000D01*
X36444535Y24076711D01*
X36389105Y24307594D01*
X36298240Y24526963D01*
X36238039Y24625202D01*
X36176759Y24725202D01*
X36176755Y24725208D01*
X36174176Y24729416D01*
X36019969Y24909969D01*
X35839416Y25064176D01*
X35835198Y25066761D01*
X35823464Y25073952D01*
X35775833Y25126600D01*
X35763300Y25181384D01*
X35763300Y25990737D01*
X35763307Y25992056D01*
X35764182Y26075661D01*
X35764256Y26082709D01*
X35755032Y26125370D01*
X35752972Y26137949D01*
X35748892Y26174329D01*
X35748891Y26174332D01*
X35748107Y26181325D01*
X35736998Y26213226D01*
X35732836Y26228036D01*
X35727187Y26254162D01*
X35725698Y26261051D01*
X35717399Y26278849D01*
X35707246Y26300623D01*
X35702450Y26312434D01*
X35698072Y26325005D01*
X35688101Y26353639D01*
X35670208Y26382274D01*
X35662869Y26395791D01*
X35651565Y26420031D01*
X35651564Y26420033D01*
X35648586Y26426419D01*
X35626159Y26455331D01*
X38792001Y26455331D01*
X38792371Y26448510D01*
X38797895Y26397648D01*
X38801521Y26382396D01*
X38846676Y26261946D01*
X38855214Y26246351D01*
X38931715Y26144276D01*
X38944276Y26131715D01*
X39046351Y26055214D01*
X39061946Y26046676D01*
X39182394Y26001522D01*
X39197649Y25997895D01*
X39248514Y25992369D01*
X39255328Y25992000D01*
X41127885Y25992000D01*
X41143124Y25996475D01*
X41144329Y25997865D01*
X41146000Y26005548D01*
X41146000Y26902885D01*
X41141525Y26918124D01*
X41140135Y26919329D01*
X41132452Y26921000D01*
X38810116Y26921000D01*
X38794877Y26916525D01*
X38793672Y26915135D01*
X38792001Y26907452D01*
X38792001Y26455331D01*
X35626159Y26455331D01*
X35621827Y26460916D01*
X35614540Y26471361D01*
X35591411Y26508376D01*
X35562644Y26537344D01*
X35562047Y26537982D01*
X35561527Y26538653D01*
X35535269Y26564911D01*
X35462841Y26637846D01*
X35461800Y26638506D01*
X35460565Y26639615D01*
X34653065Y27447115D01*
X38792000Y27447115D01*
X38796475Y27431876D01*
X38797865Y27430671D01*
X38805548Y27429000D01*
X41127885Y27429000D01*
X41143124Y27433475D01*
X41144329Y27434865D01*
X41146000Y27442548D01*
X41146000Y28339884D01*
X41141525Y28355123D01*
X41140135Y28356328D01*
X41132452Y28357999D01*
X39255331Y28357999D01*
X39248510Y28357629D01*
X39197648Y28352105D01*
X39182396Y28348479D01*
X39061946Y28303324D01*
X39046351Y28294786D01*
X38944276Y28218285D01*
X38931715Y28205724D01*
X38855214Y28103649D01*
X38846676Y28088054D01*
X38801522Y27967606D01*
X38797895Y27952351D01*
X38792369Y27901486D01*
X38792000Y27894672D01*
X38792000Y27447115D01*
X34653065Y27447115D01*
X32391906Y29708274D01*
X32357880Y29770586D01*
X32355480Y29808350D01*
X32363019Y29894524D01*
X32363019Y29894525D01*
X32363498Y29900000D01*
X32343543Y30128087D01*
X32284284Y30349243D01*
X32281961Y30354225D01*
X32189849Y30551762D01*
X32189846Y30551767D01*
X32187523Y30556749D01*
X32102270Y30678502D01*
X32059357Y30739789D01*
X32059355Y30739792D01*
X32056198Y30744300D01*
X31894300Y30906198D01*
X31889792Y30909355D01*
X31889789Y30909357D01*
X31773075Y30991081D01*
X31706749Y31037523D01*
X31701767Y31039846D01*
X31701762Y31039849D01*
X31504225Y31131961D01*
X31504224Y31131961D01*
X31499243Y31134284D01*
X31493935Y31135706D01*
X31493933Y31135707D01*
X31283402Y31192119D01*
X31283400Y31192119D01*
X31278087Y31193543D01*
X31050000Y31213498D01*
X30821913Y31193543D01*
X30816600Y31192119D01*
X30816598Y31192119D01*
X30606067Y31135707D01*
X30606065Y31135706D01*
X30600757Y31134284D01*
X30595776Y31131961D01*
X30595775Y31131961D01*
X30398238Y31039849D01*
X30398233Y31039846D01*
X30393251Y31037523D01*
X30326925Y30991081D01*
X30210211Y30909357D01*
X30210208Y30909355D01*
X30205700Y30906198D01*
X30049707Y30750205D01*
X29987395Y30716179D01*
X29960612Y30713300D01*
X27059263Y30713300D01*
X27057944Y30713307D01*
X26967291Y30714256D01*
X26960405Y30712767D01*
X26960403Y30712767D01*
X26941670Y30708716D01*
X26924630Y30705032D01*
X26912051Y30702972D01*
X26875671Y30698892D01*
X26875668Y30698891D01*
X26868675Y30698107D01*
X26836774Y30686998D01*
X26821964Y30682836D01*
X26788949Y30675698D01*
X26782562Y30672720D01*
X26782560Y30672719D01*
X26777385Y30670306D01*
X26724134Y30658500D01*
X26401866Y30658500D01*
X26339684Y30651745D01*
X26203295Y30600615D01*
X26086739Y30513261D01*
X26081358Y30506081D01*
X26081357Y30506080D01*
X26000826Y30398628D01*
X25943967Y30356113D01*
X25873148Y30351087D01*
X25810855Y30385147D01*
X25799174Y30398628D01*
X25718643Y30506080D01*
X25718642Y30506081D01*
X25713261Y30513261D01*
X25596705Y30600615D01*
X25460316Y30651745D01*
X25398134Y30658500D01*
X25193870Y30658500D01*
X25125749Y30678502D01*
X25104774Y30695405D01*
X24500204Y31299976D01*
X24466179Y31362288D01*
X24463300Y31389071D01*
X24463300Y33410612D01*
X24483302Y33478733D01*
X24500205Y33499707D01*
X24656198Y33655700D01*
X24787523Y33843251D01*
X24789846Y33848233D01*
X24789849Y33848238D01*
X24881961Y34045775D01*
X24881961Y34045776D01*
X24884284Y34050757D01*
X24943543Y34271913D01*
X24963498Y34500000D01*
X24943543Y34728087D01*
X24913005Y34842056D01*
X24885707Y34943933D01*
X24885706Y34943935D01*
X24884284Y34949243D01*
X24854016Y35014154D01*
X24789849Y35151762D01*
X24789846Y35151767D01*
X24787523Y35156749D01*
X24699832Y35281985D01*
X24659357Y35339789D01*
X24659355Y35339792D01*
X24656198Y35344300D01*
X24494300Y35506198D01*
X24489792Y35509355D01*
X24489789Y35509357D01*
X24387243Y35581160D01*
X24306749Y35637523D01*
X24301767Y35639846D01*
X24301762Y35639849D01*
X24104225Y35731961D01*
X24104224Y35731961D01*
X24099243Y35734284D01*
X24093935Y35735706D01*
X24093933Y35735707D01*
X23883402Y35792119D01*
X23883400Y35792119D01*
X23878087Y35793543D01*
X23650000Y35813498D01*
X23421913Y35793543D01*
X23416600Y35792119D01*
X23416598Y35792119D01*
X23206067Y35735707D01*
X23206065Y35735706D01*
X23200757Y35734284D01*
X23195776Y35731961D01*
X23195775Y35731961D01*
X22998238Y35639849D01*
X22998233Y35639846D01*
X22993251Y35637523D01*
X22912757Y35581160D01*
X22810211Y35509357D01*
X22810208Y35509355D01*
X22805700Y35506198D01*
X22643802Y35344300D01*
X22640645Y35339792D01*
X22640643Y35339789D01*
X22600168Y35281985D01*
X22512477Y35156749D01*
X22510154Y35151767D01*
X22510151Y35151762D01*
X22445984Y35014154D01*
X22415716Y34949243D01*
X22414294Y34943935D01*
X22414293Y34943933D01*
X22386995Y34842056D01*
X22356457Y34728087D01*
X22336502Y34500000D01*
X22356457Y34271913D01*
X22415716Y34050757D01*
X22418039Y34045776D01*
X22418039Y34045775D01*
X22510151Y33848238D01*
X22510154Y33848233D01*
X22512477Y33843251D01*
X22643802Y33655700D01*
X22799795Y33499707D01*
X22833821Y33437395D01*
X22836700Y33410612D01*
X22836700Y31389070D01*
X22816698Y31320949D01*
X22799795Y31299975D01*
X22200025Y30700205D01*
X22137713Y30666179D01*
X22110930Y30663300D01*
X20904123Y30663300D01*
X20871769Y30659671D01*
X20868328Y30659285D01*
X20854283Y30658500D01*
X20351866Y30658500D01*
X20289684Y30651745D01*
X20153295Y30600615D01*
X20036739Y30513261D01*
X20031358Y30506081D01*
X20031357Y30506080D01*
X19950826Y30398628D01*
X19893967Y30356113D01*
X19823148Y30351087D01*
X19760855Y30385147D01*
X19749174Y30398628D01*
X19668643Y30506080D01*
X19668642Y30506081D01*
X19663261Y30513261D01*
X19546705Y30600615D01*
X19410316Y30651745D01*
X19348134Y30658500D01*
X19028593Y30658500D01*
X18985480Y30668374D01*
X18984845Y30666570D01*
X18978200Y30668910D01*
X18971856Y30671977D01*
X18938936Y30679577D01*
X18924201Y30683943D01*
X18899072Y30693089D01*
X18899066Y30693091D01*
X18892451Y30695498D01*
X18865583Y30698892D01*
X18849141Y30700969D01*
X18836600Y30703203D01*
X18794070Y30713022D01*
X18787024Y30713047D01*
X18787021Y30713047D01*
X18753259Y30713165D01*
X18752366Y30713195D01*
X18751530Y30713300D01*
X18714594Y30713300D01*
X18714154Y30713301D01*
X18615154Y30713647D01*
X18615147Y30713647D01*
X18611608Y30713659D01*
X18610402Y30713389D01*
X18608753Y30713300D01*
X15289388Y30713300D01*
X15221267Y30733302D01*
X15200293Y30750205D01*
X15044300Y30906198D01*
X15039792Y30909355D01*
X15039789Y30909357D01*
X14923075Y30991081D01*
X14856749Y31037523D01*
X14851767Y31039846D01*
X14851762Y31039849D01*
X14654225Y31131961D01*
X14654224Y31131961D01*
X14649243Y31134284D01*
X14643935Y31135706D01*
X14643933Y31135707D01*
X14433402Y31192119D01*
X14433400Y31192119D01*
X14428087Y31193543D01*
X14200000Y31213498D01*
X13971913Y31193543D01*
X13966600Y31192119D01*
X13966598Y31192119D01*
X13756067Y31135707D01*
X13756065Y31135706D01*
X13750757Y31134284D01*
X13745776Y31131961D01*
X13745775Y31131961D01*
X13548238Y31039849D01*
X13548233Y31039846D01*
X13543251Y31037523D01*
X13476925Y30991081D01*
X13360211Y30909357D01*
X13360208Y30909355D01*
X13355700Y30906198D01*
X13193802Y30744300D01*
X13190645Y30739792D01*
X13190643Y30739789D01*
X13147730Y30678502D01*
X13062477Y30556749D01*
X13060154Y30551767D01*
X13060151Y30551762D01*
X12968039Y30354225D01*
X12965716Y30349243D01*
X12906457Y30128087D01*
X12886502Y29900000D01*
X12906457Y29671913D01*
X12965716Y29450757D01*
X12968039Y29445776D01*
X12968039Y29445775D01*
X13060151Y29248238D01*
X13060154Y29248233D01*
X13062477Y29243251D01*
X13097019Y29193920D01*
X13173509Y29084682D01*
X13193802Y29055700D01*
X13349795Y28899707D01*
X13383821Y28837395D01*
X13386700Y28810612D01*
X13386700Y26979069D01*
X13366698Y26910948D01*
X13349795Y26889974D01*
X11723412Y25263592D01*
X11661100Y25229566D01*
X11604906Y25230168D01*
X11591534Y25233378D01*
X11591523Y25233380D01*
X11586711Y25234535D01*
X11350000Y25253165D01*
X11113289Y25234535D01*
X11108482Y25233381D01*
X11108476Y25233380D01*
X10962609Y25198360D01*
X10882406Y25179105D01*
X10877835Y25177212D01*
X10877833Y25177211D01*
X10667611Y25090135D01*
X10667607Y25090133D01*
X10663037Y25088240D01*
X10658817Y25085654D01*
X10464798Y24966759D01*
X10464792Y24966755D01*
X10460584Y24964176D01*
X10280031Y24809969D01*
X10125824Y24629416D01*
X10123245Y24625208D01*
X10123241Y24625202D01*
X10065626Y24531183D01*
X10001760Y24426963D01*
X9910895Y24207594D01*
X9909740Y24202782D01*
X9856623Y23981534D01*
X9855465Y23976711D01*
X9836835Y23740000D01*
X508000Y23740000D01*
X508000Y25866000D01*
X528002Y25934121D01*
X581658Y25980614D01*
X634000Y25992000D01*
X2327885Y25992000D01*
X2343124Y25996475D01*
X2344329Y25997865D01*
X2346000Y26005548D01*
X2346000Y26010116D01*
X2854000Y26010116D01*
X2858475Y25994877D01*
X2859865Y25993672D01*
X2867548Y25992001D01*
X4744669Y25992001D01*
X4751490Y25992371D01*
X4802352Y25997895D01*
X4817604Y26001521D01*
X4938054Y26046676D01*
X4953649Y26055214D01*
X5055724Y26131715D01*
X5068285Y26144276D01*
X5144786Y26246351D01*
X5153324Y26261946D01*
X5198478Y26382394D01*
X5202105Y26397649D01*
X5207631Y26448514D01*
X5208000Y26455328D01*
X5208000Y26902885D01*
X5203525Y26918124D01*
X5202135Y26919329D01*
X5194452Y26921000D01*
X2872115Y26921000D01*
X2856876Y26916525D01*
X2855671Y26915135D01*
X2854000Y26907452D01*
X2854000Y26010116D01*
X2346000Y26010116D01*
X2346000Y27447115D01*
X2854000Y27447115D01*
X2858475Y27431876D01*
X2859865Y27430671D01*
X2867548Y27429000D01*
X5189884Y27429000D01*
X5205123Y27433475D01*
X5206328Y27434865D01*
X5207999Y27442548D01*
X5207999Y27894669D01*
X5207629Y27901490D01*
X5202105Y27952352D01*
X5198479Y27967604D01*
X5153324Y28088054D01*
X5144786Y28103649D01*
X5068285Y28205724D01*
X5055724Y28218285D01*
X4953649Y28294786D01*
X4938054Y28303324D01*
X4817606Y28348478D01*
X4802351Y28352105D01*
X4751486Y28357631D01*
X4744672Y28358000D01*
X2872115Y28358000D01*
X2856876Y28353525D01*
X2855671Y28352135D01*
X2854000Y28344452D01*
X2854000Y27447115D01*
X2346000Y27447115D01*
X2346000Y28339884D01*
X2341525Y28355123D01*
X2340135Y28356328D01*
X2332452Y28357999D01*
X634000Y28357999D01*
X565879Y28378001D01*
X519386Y28431657D01*
X508000Y28483999D01*
X508000Y28730500D01*
X528002Y28798621D01*
X581658Y28845114D01*
X634000Y28856500D01*
X4248134Y28856500D01*
X4310316Y28863255D01*
X4446705Y28914385D01*
X4563261Y29001739D01*
X4588747Y29035744D01*
X4589137Y29036265D01*
X4645997Y29078780D01*
X4689963Y29086700D01*
X6440783Y29086700D01*
X6442104Y29086693D01*
X6532709Y29085744D01*
X6536028Y29086462D01*
X6540734Y29086700D01*
X8110612Y29086700D01*
X8178733Y29066698D01*
X8199707Y29049795D01*
X8355700Y28893802D01*
X8360208Y28890645D01*
X8360211Y28890643D01*
X8425233Y28845114D01*
X8543251Y28762477D01*
X8548233Y28760154D01*
X8548238Y28760151D01*
X8745775Y28668039D01*
X8750757Y28665716D01*
X8756065Y28664294D01*
X8756067Y28664293D01*
X8966598Y28607881D01*
X8966600Y28607881D01*
X8971913Y28606457D01*
X9200000Y28586502D01*
X9428087Y28606457D01*
X9433400Y28607881D01*
X9433402Y28607881D01*
X9643933Y28664293D01*
X9643935Y28664294D01*
X9649243Y28665716D01*
X9654225Y28668039D01*
X9851762Y28760151D01*
X9851767Y28760154D01*
X9856749Y28762477D01*
X9974767Y28845114D01*
X10039789Y28890643D01*
X10039792Y28890645D01*
X10044300Y28893802D01*
X10206198Y29055700D01*
X10226492Y29084682D01*
X10302981Y29193920D01*
X10337523Y29243251D01*
X10339846Y29248233D01*
X10339849Y29248238D01*
X10431961Y29445775D01*
X10431961Y29445776D01*
X10434284Y29450757D01*
X10493543Y29671913D01*
X10513498Y29900000D01*
X10493543Y30128087D01*
X10434284Y30349243D01*
X10431961Y30354225D01*
X10339849Y30551762D01*
X10339846Y30551767D01*
X10337523Y30556749D01*
X10252270Y30678502D01*
X10209357Y30739789D01*
X10209355Y30739792D01*
X10206198Y30744300D01*
X10044300Y30906198D01*
X10039792Y30909355D01*
X10039789Y30909357D01*
X9923075Y30991081D01*
X9856749Y31037523D01*
X9851767Y31039846D01*
X9851762Y31039849D01*
X9654225Y31131961D01*
X9654224Y31131961D01*
X9649243Y31134284D01*
X9643935Y31135706D01*
X9643933Y31135707D01*
X9433402Y31192119D01*
X9433400Y31192119D01*
X9428087Y31193543D01*
X9200000Y31213498D01*
X8971913Y31193543D01*
X8966600Y31192119D01*
X8966598Y31192119D01*
X8756067Y31135707D01*
X8756065Y31135706D01*
X8750757Y31134284D01*
X8745776Y31131961D01*
X8745775Y31131961D01*
X8548238Y31039849D01*
X8548233Y31039846D01*
X8543251Y31037523D01*
X8476925Y30991081D01*
X8360211Y30909357D01*
X8360208Y30909355D01*
X8355700Y30906198D01*
X8199707Y30750205D01*
X8137395Y30716179D01*
X8110612Y30713300D01*
X7789300Y30713300D01*
X7721179Y30733302D01*
X7674686Y30786958D01*
X7663300Y30839300D01*
X7663300Y34840737D01*
X7663307Y34842056D01*
X7664182Y34925661D01*
X7664256Y34932709D01*
X7655032Y34975370D01*
X7652972Y34987949D01*
X7648892Y35024329D01*
X7648891Y35024332D01*
X7648107Y35031325D01*
X7636998Y35063226D01*
X7632836Y35078036D01*
X7627188Y35104161D01*
X7627187Y35104164D01*
X7625698Y35111051D01*
X7607251Y35150610D01*
X7602453Y35162424D01*
X7590417Y35196988D01*
X7588101Y35203639D01*
X7584367Y35209614D01*
X7584365Y35209619D01*
X7570205Y35232280D01*
X7562864Y35245799D01*
X7551562Y35270037D01*
X7551560Y35270041D01*
X7548586Y35276418D01*
X7544274Y35281977D01*
X7544269Y35281985D01*
X7521833Y35310908D01*
X7514537Y35321366D01*
X7495145Y35352400D01*
X7491411Y35358376D01*
X7485916Y35363910D01*
X7462644Y35387344D01*
X7462047Y35387982D01*
X7461527Y35388653D01*
X7435269Y35414911D01*
X7380325Y35470240D01*
X7365335Y35485335D01*
X7365331Y35485339D01*
X7362841Y35487846D01*
X7361800Y35488506D01*
X7360565Y35489615D01*
X5381711Y37468469D01*
X5380782Y37469406D01*
X5322210Y37529218D01*
X5322209Y37529219D01*
X5317282Y37534250D01*
X5311364Y37538064D01*
X5311359Y37538068D01*
X5280593Y37557895D01*
X5270240Y37565334D01*
X5241634Y37588170D01*
X5236131Y37592563D01*
X5229791Y37595628D01*
X5229786Y37595631D01*
X5205721Y37607265D01*
X5192308Y37614792D01*
X5169836Y37629274D01*
X5169829Y37629277D01*
X5163910Y37633092D01*
X5122889Y37648023D01*
X5111149Y37652982D01*
X5078199Y37668911D01*
X5078197Y37668912D01*
X5071856Y37671977D01*
X5038936Y37679577D01*
X5024201Y37683943D01*
X4999072Y37693089D01*
X4999066Y37693091D01*
X4992451Y37695498D01*
X4968081Y37698576D01*
X4949141Y37700969D01*
X4936600Y37703203D01*
X4894070Y37713022D01*
X4887024Y37713047D01*
X4887021Y37713047D01*
X4853259Y37713165D01*
X4852366Y37713195D01*
X4851530Y37713300D01*
X4814594Y37713300D01*
X4814154Y37713301D01*
X4715154Y37713647D01*
X4715147Y37713647D01*
X4711608Y37713659D01*
X4710402Y37713389D01*
X4708753Y37713300D01*
X4230769Y37713300D01*
X4162648Y37733302D01*
X4116155Y37786958D01*
X4105506Y37825693D01*
X4104338Y37836445D01*
X4101745Y37860316D01*
X4050615Y37996705D01*
X3963261Y38113261D01*
X3846705Y38200615D01*
X3727687Y38245233D01*
X3670923Y38287875D01*
X3646223Y38354436D01*
X3661430Y38423785D01*
X3682977Y38452465D01*
X3784052Y38553188D01*
X3790730Y38561035D01*
X3915003Y38733980D01*
X3920313Y38742817D01*
X4014670Y38933733D01*
X4018469Y38943328D01*
X4080377Y39147090D01*
X4082555Y39157163D01*
X4083986Y39168038D01*
X4081775Y39182222D01*
X4068617Y39186000D01*
X1433225Y39186000D01*
X1419694Y39182027D01*
X1418257Y39172034D01*
X1448565Y39037554D01*
X1451645Y39027725D01*
X1531770Y38830397D01*
X1536413Y38821206D01*
X1647694Y38639612D01*
X1653777Y38631301D01*
X1793213Y38470333D01*
X1800577Y38463121D01*
X1805522Y38459015D01*
X1845156Y38400111D01*
X1846653Y38329130D01*
X1809537Y38268608D01*
X1769264Y38244090D01*
X1661705Y38203768D01*
X1661704Y38203767D01*
X1653295Y38200615D01*
X1536739Y38113261D01*
X1449385Y37996705D01*
X1398255Y37860316D01*
X1391500Y37798134D01*
X1391500Y36001866D01*
X1398255Y35939684D01*
X1449385Y35803295D01*
X1536739Y35686739D01*
X1653295Y35599385D01*
X1789684Y35548255D01*
X1851866Y35541500D01*
X3648134Y35541500D01*
X3710316Y35548255D01*
X3846705Y35599385D01*
X3963261Y35686739D01*
X4050615Y35803295D01*
X4101745Y35939684D01*
X4105506Y35974308D01*
X4132747Y36039869D01*
X4191110Y36080296D01*
X4230769Y36086700D01*
X4410930Y36086700D01*
X4479051Y36066698D01*
X4500025Y36049795D01*
X5999795Y34550025D01*
X6033821Y34487713D01*
X6036700Y34460930D01*
X6036700Y30839300D01*
X6016698Y30771179D01*
X5963042Y30724686D01*
X5910700Y30713300D01*
X4801075Y30713300D01*
X4732954Y30733302D01*
X4686461Y30786958D01*
X4683093Y30795071D01*
X4653768Y30873295D01*
X4653767Y30873296D01*
X4650615Y30881705D01*
X4563261Y30998261D01*
X4446705Y31085615D01*
X4310316Y31136745D01*
X4248134Y31143500D01*
X634000Y31143500D01*
X565879Y31163502D01*
X519386Y31217158D01*
X508000Y31269500D01*
X508000Y31516000D01*
X528002Y31584121D01*
X581658Y31630614D01*
X634000Y31642000D01*
X2327885Y31642000D01*
X2343124Y31646475D01*
X2344329Y31647865D01*
X2346000Y31655548D01*
X2346000Y31660116D01*
X2854000Y31660116D01*
X2858475Y31644877D01*
X2859865Y31643672D01*
X2867548Y31642001D01*
X4744669Y31642001D01*
X4751490Y31642371D01*
X4802352Y31647895D01*
X4817604Y31651521D01*
X4938054Y31696676D01*
X4953649Y31705214D01*
X5055724Y31781715D01*
X5068285Y31794276D01*
X5144786Y31896351D01*
X5153324Y31911946D01*
X5198478Y32032394D01*
X5202105Y32047649D01*
X5207631Y32098514D01*
X5208000Y32105328D01*
X5208000Y32552885D01*
X5203525Y32568124D01*
X5202135Y32569329D01*
X5194452Y32571000D01*
X2872115Y32571000D01*
X2856876Y32566525D01*
X2855671Y32565135D01*
X2854000Y32557452D01*
X2854000Y31660116D01*
X2346000Y31660116D01*
X2346000Y33097115D01*
X2854000Y33097115D01*
X2858475Y33081876D01*
X2859865Y33080671D01*
X2867548Y33079000D01*
X5189884Y33079000D01*
X5205123Y33083475D01*
X5206328Y33084865D01*
X5207999Y33092548D01*
X5207999Y33544669D01*
X5207629Y33551490D01*
X5202105Y33602352D01*
X5198479Y33617604D01*
X5153324Y33738054D01*
X5144786Y33753649D01*
X5068285Y33855724D01*
X5055724Y33868285D01*
X4953649Y33944786D01*
X4938054Y33953324D01*
X4817606Y33998478D01*
X4802351Y34002105D01*
X4751486Y34007631D01*
X4744672Y34008000D01*
X2872115Y34008000D01*
X2856876Y34003525D01*
X2855671Y34002135D01*
X2854000Y33994452D01*
X2854000Y33097115D01*
X2346000Y33097115D01*
X2346000Y33989884D01*
X2341525Y34005123D01*
X2340135Y34006328D01*
X2332452Y34007999D01*
X634000Y34007999D01*
X565879Y34028001D01*
X519386Y34081657D01*
X508000Y34133999D01*
X508000Y39705817D01*
X1414389Y39705817D01*
X1415912Y39697393D01*
X1428292Y39694000D01*
X2477885Y39694000D01*
X2493124Y39698475D01*
X2494329Y39699865D01*
X2496000Y39707548D01*
X2496000Y39712115D01*
X3004000Y39712115D01*
X3008475Y39696876D01*
X3009865Y39695671D01*
X3017548Y39694000D01*
X4068344Y39694000D01*
X4081875Y39697973D01*
X4083180Y39707053D01*
X4041214Y39874125D01*
X4037894Y39883876D01*
X3952972Y40079186D01*
X3948105Y40088261D01*
X3832426Y40267074D01*
X3826136Y40275243D01*
X3682806Y40432760D01*
X3675273Y40439785D01*
X3508139Y40571778D01*
X3499552Y40577483D01*
X3313117Y40680401D01*
X3303705Y40684631D01*
X3102959Y40755720D01*
X3092988Y40758354D01*
X3021837Y40771028D01*
X3008540Y40769568D01*
X3004000Y40755011D01*
X3004000Y39712115D01*
X2496000Y39712115D01*
X2496000Y40756898D01*
X2492082Y40770242D01*
X2477806Y40772229D01*
X2439324Y40766340D01*
X2429288Y40763949D01*
X2226868Y40697788D01*
X2217359Y40693791D01*
X2028463Y40595458D01*
X2019738Y40589964D01*
X1849433Y40462095D01*
X1841726Y40455252D01*
X1694590Y40301283D01*
X1688104Y40293273D01*
X1568098Y40117351D01*
X1563000Y40108377D01*
X1473338Y39915217D01*
X1469775Y39905530D01*
X1414389Y39705817D01*
X508000Y39705817D01*
X508000Y45655331D01*
X2242001Y45655331D01*
X2242371Y45648510D01*
X2247895Y45597648D01*
X2251521Y45582396D01*
X2296676Y45461946D01*
X2305214Y45446351D01*
X2381715Y45344276D01*
X2394276Y45331715D01*
X2496351Y45255214D01*
X2511946Y45246676D01*
X2632394Y45201522D01*
X2647649Y45197895D01*
X2698514Y45192369D01*
X2705328Y45192000D01*
X3327885Y45192000D01*
X3343124Y45196475D01*
X3344329Y45197865D01*
X3346000Y45205548D01*
X3346000Y45210116D01*
X3854000Y45210116D01*
X3858475Y45194877D01*
X3859865Y45193672D01*
X3867548Y45192001D01*
X4494669Y45192001D01*
X4501490Y45192371D01*
X4552352Y45197895D01*
X4567604Y45201521D01*
X4688054Y45246676D01*
X4703649Y45255214D01*
X4805724Y45331715D01*
X4818285Y45344276D01*
X4894786Y45446351D01*
X4903325Y45461948D01*
X4944425Y45571582D01*
X4987066Y45628347D01*
X5053628Y45653047D01*
X5122977Y45637840D01*
X5157645Y45609850D01*
X5183219Y45580326D01*
X5190580Y45573117D01*
X5354434Y45437084D01*
X5362881Y45431169D01*
X5546756Y45323721D01*
X5556042Y45319271D01*
X5755001Y45243297D01*
X5764899Y45240421D01*
X5868250Y45219394D01*
X5882299Y45220590D01*
X5886000Y45230935D01*
X5886000Y45231483D01*
X6394000Y45231483D01*
X6398064Y45217641D01*
X6411478Y45215607D01*
X6418184Y45216466D01*
X6428262Y45218608D01*
X6632255Y45279809D01*
X6641842Y45283567D01*
X6833095Y45377261D01*
X6841945Y45382536D01*
X7015328Y45506208D01*
X7023200Y45512861D01*
X7174052Y45663188D01*
X7180730Y45671035D01*
X7305003Y45843980D01*
X7310313Y45852817D01*
X7404670Y46043733D01*
X7408469Y46053328D01*
X7470377Y46257090D01*
X7472555Y46267163D01*
X7473986Y46278038D01*
X7471775Y46292222D01*
X7458617Y46296000D01*
X6412115Y46296000D01*
X6396876Y46291525D01*
X6395671Y46290135D01*
X6394000Y46282452D01*
X6394000Y45231483D01*
X5886000Y45231483D01*
X5886000Y46277885D01*
X5881525Y46293124D01*
X5880135Y46294329D01*
X5872452Y46296000D01*
X3872115Y46296000D01*
X3856876Y46291525D01*
X3855671Y46290135D01*
X3854000Y46282452D01*
X3854000Y45210116D01*
X3346000Y45210116D01*
X3346000Y46277885D01*
X3341525Y46293124D01*
X3340135Y46294329D01*
X3332452Y46296000D01*
X2260116Y46296000D01*
X2244877Y46291525D01*
X2243672Y46290135D01*
X2242001Y46282452D01*
X2242001Y45655331D01*
X508000Y45655331D01*
X508000Y46532034D01*
X12378257Y46532034D01*
X12408565Y46397554D01*
X12411645Y46387725D01*
X12491770Y46190397D01*
X12496413Y46181206D01*
X12607694Y45999612D01*
X12613777Y45991301D01*
X12753213Y45830333D01*
X12760580Y45823117D01*
X12924434Y45687084D01*
X12932881Y45681169D01*
X13116756Y45573721D01*
X13126042Y45569271D01*
X13325001Y45493297D01*
X13334899Y45490421D01*
X13438250Y45469394D01*
X13452299Y45470590D01*
X13456000Y45480935D01*
X13456000Y46527885D01*
X13451525Y46543124D01*
X13450135Y46544329D01*
X13442452Y46546000D01*
X12393225Y46546000D01*
X12379694Y46542027D01*
X12378257Y46532034D01*
X508000Y46532034D01*
X508000Y46822115D01*
X2242000Y46822115D01*
X2246475Y46806876D01*
X2247865Y46805671D01*
X2255548Y46804000D01*
X3327885Y46804000D01*
X3343124Y46808475D01*
X3344329Y46809865D01*
X3346000Y46817548D01*
X3346000Y46822115D01*
X3854000Y46822115D01*
X3858475Y46806876D01*
X3859865Y46805671D01*
X3867548Y46804000D01*
X5867885Y46804000D01*
X5883124Y46808475D01*
X5884329Y46809865D01*
X5886000Y46817548D01*
X5886000Y46822115D01*
X6394000Y46822115D01*
X6398475Y46806876D01*
X6399865Y46805671D01*
X6407548Y46804000D01*
X7458344Y46804000D01*
X7471875Y46807973D01*
X7473180Y46817053D01*
X7431214Y46984125D01*
X7427894Y46993876D01*
X7396614Y47065817D01*
X12374389Y47065817D01*
X12375912Y47057393D01*
X12388292Y47054000D01*
X13437885Y47054000D01*
X13453124Y47058475D01*
X13454329Y47059865D01*
X13456000Y47067548D01*
X13456000Y48116898D01*
X13452082Y48130242D01*
X13437806Y48132229D01*
X13399324Y48126340D01*
X13389288Y48123949D01*
X13186868Y48057788D01*
X13177359Y48053791D01*
X12988463Y47955458D01*
X12979738Y47949964D01*
X12809433Y47822095D01*
X12801726Y47815252D01*
X12654590Y47661283D01*
X12648104Y47653273D01*
X12528098Y47477351D01*
X12523000Y47468377D01*
X12433338Y47275217D01*
X12429775Y47265530D01*
X12374389Y47065817D01*
X7396614Y47065817D01*
X7342972Y47189186D01*
X7338105Y47198261D01*
X7222426Y47377074D01*
X7216136Y47385243D01*
X7072806Y47542760D01*
X7065273Y47549785D01*
X6898139Y47681778D01*
X6889552Y47687483D01*
X6703117Y47790401D01*
X6693705Y47794631D01*
X6492959Y47865720D01*
X6482988Y47868354D01*
X6411837Y47881028D01*
X6398540Y47879568D01*
X6394000Y47865011D01*
X6394000Y46822115D01*
X5886000Y46822115D01*
X5886000Y47866898D01*
X5882082Y47880242D01*
X5867806Y47882229D01*
X5829324Y47876340D01*
X5819288Y47873949D01*
X5616868Y47807788D01*
X5607359Y47803791D01*
X5418463Y47705458D01*
X5409738Y47699964D01*
X5239433Y47572095D01*
X5231726Y47565252D01*
X5154094Y47484015D01*
X5092570Y47448585D01*
X5021657Y47452042D01*
X4963871Y47493288D01*
X4945018Y47526836D01*
X4903324Y47638054D01*
X4894786Y47653649D01*
X4818285Y47755724D01*
X4805724Y47768285D01*
X4703649Y47844786D01*
X4688054Y47853324D01*
X4567606Y47898478D01*
X4552351Y47902105D01*
X4501486Y47907631D01*
X4494672Y47908000D01*
X3872115Y47908000D01*
X3856876Y47903525D01*
X3855671Y47902135D01*
X3854000Y47894452D01*
X3854000Y46822115D01*
X3346000Y46822115D01*
X3346000Y47889884D01*
X3341525Y47905123D01*
X3340135Y47906328D01*
X3332452Y47907999D01*
X2705331Y47907999D01*
X2698510Y47907629D01*
X2647648Y47902105D01*
X2632396Y47898479D01*
X2511946Y47853324D01*
X2496351Y47844786D01*
X2394276Y47768285D01*
X2381715Y47755724D01*
X2305214Y47653649D01*
X2296676Y47638054D01*
X2251522Y47517606D01*
X2247895Y47502351D01*
X2242369Y47451486D01*
X2242000Y47444672D01*
X2242000Y46822115D01*
X508000Y46822115D01*
X508000Y48816000D01*
X528002Y48884121D01*
X581658Y48930614D01*
X634000Y48942000D01*
X19366000Y48942000D01*
X19434121Y48921998D01*
G37*
%TD.AperFunction*%
%TA.AperFunction,Conductor*%
G36*
X29223570Y11831411D02*
G01*
X29234777Y11821463D01*
X29343193Y11713047D01*
X29350017Y11709011D01*
X29350020Y11709009D01*
X29421573Y11666693D01*
X29486399Y11628355D01*
X29494010Y11626144D01*
X29494012Y11626143D01*
X29510001Y11621498D01*
X29646169Y11581938D01*
X29652574Y11581434D01*
X29652579Y11581433D01*
X29681042Y11579193D01*
X29681050Y11579193D01*
X29683498Y11579000D01*
X30116502Y11579000D01*
X30118950Y11579193D01*
X30118958Y11579193D01*
X30147421Y11581433D01*
X30147426Y11581434D01*
X30153831Y11581938D01*
X30180235Y11589609D01*
X30251230Y11589407D01*
X30304482Y11557707D01*
X30413594Y11448595D01*
X30447620Y11386283D01*
X30442555Y11315468D01*
X30400008Y11258632D01*
X30333488Y11233821D01*
X30324499Y11233500D01*
X30162928Y11233500D01*
X30159682Y11233163D01*
X30159678Y11233163D01*
X30065765Y11223419D01*
X30065761Y11223418D01*
X30058907Y11222707D01*
X30052371Y11220526D01*
X30052369Y11220526D01*
X29919605Y11176232D01*
X29893893Y11167654D01*
X29745969Y11076116D01*
X29740797Y11070935D01*
X29738727Y11068861D01*
X29736962Y11067895D01*
X29735059Y11066387D01*
X29734801Y11066713D01*
X29676446Y11034781D01*
X29605625Y11039782D01*
X29560530Y11068708D01*
X29557869Y11071364D01*
X29546460Y11080375D01*
X29410937Y11163912D01*
X29397759Y11170056D01*
X29246234Y11220315D01*
X29232868Y11223181D01*
X29140230Y11232672D01*
X29133815Y11233000D01*
X29059615Y11233000D01*
X29044376Y11228525D01*
X29043171Y11227135D01*
X29041500Y11219452D01*
X29041500Y9285115D01*
X29045975Y9269876D01*
X29047365Y9268671D01*
X29055048Y9267000D01*
X29133766Y9267000D01*
X29140282Y9267337D01*
X29234132Y9277075D01*
X29247528Y9279968D01*
X29398953Y9330488D01*
X29412115Y9336653D01*
X29506898Y9395306D01*
X29575350Y9414143D01*
X29643119Y9392981D01*
X29688690Y9338540D01*
X29699200Y9288161D01*
X29699200Y8992727D01*
X29679198Y8924606D01*
X29625542Y8878113D01*
X29555268Y8868009D01*
X29507085Y8885467D01*
X29460941Y8913910D01*
X29447759Y8920056D01*
X29296234Y8970315D01*
X29282868Y8973181D01*
X29190230Y8982672D01*
X29183815Y8983000D01*
X29109615Y8983000D01*
X29094376Y8978525D01*
X29093171Y8977135D01*
X29091500Y8969452D01*
X29091500Y7035115D01*
X29095975Y7019876D01*
X29097365Y7018671D01*
X29105048Y7017000D01*
X29183766Y7017000D01*
X29190282Y7017337D01*
X29284132Y7027075D01*
X29297528Y7029968D01*
X29448953Y7080488D01*
X29462115Y7086653D01*
X29597492Y7170426D01*
X29608894Y7179464D01*
X29610567Y7181139D01*
X29611993Y7181919D01*
X29614627Y7184007D01*
X29614984Y7183556D01*
X29672849Y7215219D01*
X29743669Y7210216D01*
X29788754Y7181299D01*
X29790583Y7179474D01*
X29796997Y7173071D01*
X29803227Y7169231D01*
X29803228Y7169230D01*
X29843562Y7144368D01*
X29945080Y7081791D01*
X30110191Y7027026D01*
X30117027Y7026326D01*
X30117030Y7026325D01*
X30164370Y7021475D01*
X30212928Y7016500D01*
X30343630Y7016500D01*
X30411751Y6996498D01*
X30432725Y6979595D01*
X31799795Y5612525D01*
X31833821Y5550213D01*
X31836700Y5523430D01*
X31836700Y5280769D01*
X31816698Y5212648D01*
X31763042Y5166155D01*
X31724308Y5155506D01*
X31689684Y5151745D01*
X31553295Y5100615D01*
X31436739Y5013261D01*
X31349385Y4896705D01*
X31346233Y4888297D01*
X31346232Y4888295D01*
X31304722Y4777567D01*
X31262081Y4720802D01*
X31195519Y4696102D01*
X31126170Y4711309D01*
X31093546Y4736996D01*
X31042799Y4792766D01*
X31035273Y4799785D01*
X30868139Y4931778D01*
X30859552Y4937483D01*
X30673117Y5040401D01*
X30663705Y5044631D01*
X30462959Y5115720D01*
X30452988Y5118354D01*
X30381837Y5131028D01*
X30368540Y5129568D01*
X30364000Y5115011D01*
X30364000Y2481483D01*
X30368064Y2467641D01*
X30381478Y2465607D01*
X30388184Y2466466D01*
X30398262Y2468608D01*
X30602255Y2529809D01*
X30611842Y2533567D01*
X30803095Y2627261D01*
X30811945Y2632536D01*
X30985328Y2756208D01*
X30993193Y2762855D01*
X31097897Y2867195D01*
X31160268Y2901111D01*
X31231075Y2895923D01*
X31287837Y2853277D01*
X31304819Y2822174D01*
X31326441Y2764499D01*
X31349385Y2703295D01*
X31436739Y2586739D01*
X31553295Y2499385D01*
X31689684Y2448255D01*
X31724308Y2444494D01*
X31789869Y2417253D01*
X31830296Y2358890D01*
X31836700Y2319231D01*
X31836700Y2139300D01*
X31816698Y2071179D01*
X31763042Y2024686D01*
X31710700Y2013300D01*
X7889070Y2013300D01*
X7820949Y2033302D01*
X7799975Y2050205D01*
X7550205Y2299975D01*
X7516179Y2362287D01*
X7513300Y2389070D01*
X7513300Y2664935D01*
X7533302Y2733056D01*
X7586958Y2779549D01*
X7657232Y2789653D01*
X7721812Y2760159D01*
X7728317Y2754108D01*
X7804312Y2678246D01*
X7804317Y2678242D01*
X7809497Y2673071D01*
X7815727Y2669231D01*
X7815728Y2669230D01*
X7937905Y2593919D01*
X7957580Y2581791D01*
X8122691Y2527026D01*
X8129527Y2526326D01*
X8129530Y2526325D01*
X8181026Y2521049D01*
X8225428Y2516500D01*
X8824572Y2516500D01*
X8827818Y2516837D01*
X8827822Y2516837D01*
X8921735Y2526581D01*
X8921739Y2526582D01*
X8928593Y2527293D01*
X8935129Y2529474D01*
X8935131Y2529474D01*
X9078365Y2577261D01*
X9093607Y2582346D01*
X9241531Y2673884D01*
X9264402Y2696795D01*
X9359258Y2791816D01*
X9359262Y2791821D01*
X9364429Y2796997D01*
X9378069Y2819125D01*
X9451869Y2938850D01*
X9451870Y2938852D01*
X9455709Y2945080D01*
X9510474Y3110191D01*
X9521000Y3212928D01*
X9521000Y3787072D01*
X9519065Y3805724D01*
X9510919Y3884235D01*
X9510918Y3884239D01*
X9510207Y3891093D01*
X9506127Y3903324D01*
X9457472Y4049159D01*
X9455154Y4056107D01*
X9363616Y4204031D01*
X9363932Y4204226D01*
X9338917Y4266034D01*
X9338300Y4278485D01*
X9338300Y4910700D01*
X9358302Y4978821D01*
X9411958Y5025314D01*
X9464300Y5036700D01*
X11308377Y5036700D01*
X11344171Y5040715D01*
X11358217Y5041500D01*
X11765500Y5041500D01*
X11833621Y5021498D01*
X11880114Y4967842D01*
X11891500Y4915500D01*
X11891500Y4683498D01*
X11891693Y4681050D01*
X11891693Y4681042D01*
X11893879Y4653273D01*
X11894438Y4646169D01*
X11920217Y4557437D01*
X11937771Y4497016D01*
X11940855Y4486399D01*
X11950075Y4470809D01*
X12021509Y4350020D01*
X12021511Y4350017D01*
X12025547Y4343193D01*
X12143193Y4225547D01*
X12150017Y4221511D01*
X12150020Y4221509D01*
X12245800Y4164865D01*
X12286399Y4140855D01*
X12294010Y4138644D01*
X12294012Y4138643D01*
X12321057Y4130786D01*
X12446169Y4094438D01*
X12452574Y4093934D01*
X12452579Y4093933D01*
X12481042Y4091693D01*
X12481050Y4091693D01*
X12483498Y4091500D01*
X13040042Y4091500D01*
X13055834Y4090506D01*
X13082027Y4087197D01*
X13082044Y4087196D01*
X13085970Y4086700D01*
X14956130Y4086700D01*
X15024251Y4066698D01*
X15045147Y4049873D01*
X15066812Y4028246D01*
X15066817Y4028242D01*
X15071997Y4023071D01*
X15078227Y4019231D01*
X15078228Y4019230D01*
X15206951Y3939884D01*
X15220080Y3931791D01*
X15385191Y3877026D01*
X15392027Y3876326D01*
X15392030Y3876325D01*
X15443526Y3871049D01*
X15487928Y3866500D01*
X16087072Y3866500D01*
X16090318Y3866837D01*
X16090322Y3866837D01*
X16184235Y3876581D01*
X16184239Y3876582D01*
X16191093Y3877293D01*
X16197629Y3879474D01*
X16197631Y3879474D01*
X16338105Y3926340D01*
X16356107Y3932346D01*
X16504031Y4023884D01*
X16529975Y4049873D01*
X16610747Y4130786D01*
X16673030Y4164865D01*
X16743850Y4159862D01*
X16788937Y4130941D01*
X16891812Y4028246D01*
X16891817Y4028242D01*
X16896997Y4023071D01*
X16903227Y4019231D01*
X16903228Y4019230D01*
X17031951Y3939884D01*
X17045080Y3931791D01*
X17210191Y3877026D01*
X17217027Y3876326D01*
X17217030Y3876325D01*
X17268526Y3871049D01*
X17312928Y3866500D01*
X17912072Y3866500D01*
X17915318Y3866837D01*
X17915322Y3866837D01*
X18009235Y3876581D01*
X18009239Y3876582D01*
X18016093Y3877293D01*
X18022629Y3879474D01*
X18022631Y3879474D01*
X18163105Y3926340D01*
X18181107Y3932346D01*
X18319271Y4017844D01*
X18385573Y4036700D01*
X19990783Y4036700D01*
X19992104Y4036693D01*
X20082709Y4035744D01*
X20086028Y4036462D01*
X20090734Y4036700D01*
X20335930Y4036700D01*
X20404051Y4016698D01*
X20425025Y3999795D01*
X20429595Y3995225D01*
X20463621Y3932913D01*
X20466500Y3906130D01*
X20466500Y2851866D01*
X20473255Y2789684D01*
X20524385Y2653295D01*
X20611739Y2536739D01*
X20728295Y2449385D01*
X20864684Y2398255D01*
X20926866Y2391500D01*
X22723134Y2391500D01*
X22785316Y2398255D01*
X22921705Y2449385D01*
X23038261Y2536739D01*
X23125615Y2653295D01*
X23141665Y2696109D01*
X23169798Y2771152D01*
X23212440Y2827916D01*
X23279001Y2852616D01*
X23348350Y2837408D01*
X23383017Y2809420D01*
X23408218Y2780327D01*
X23415580Y2773117D01*
X23579434Y2637084D01*
X23587881Y2631169D01*
X23771756Y2523721D01*
X23781042Y2519271D01*
X23980001Y2443297D01*
X23989899Y2440421D01*
X24093250Y2419394D01*
X24107299Y2420590D01*
X24111000Y2430935D01*
X24111000Y2431483D01*
X24619000Y2431483D01*
X24623064Y2417641D01*
X24636478Y2415607D01*
X24643184Y2416466D01*
X24653262Y2418608D01*
X24857255Y2479809D01*
X24866842Y2483567D01*
X25058095Y2577261D01*
X25066945Y2582536D01*
X25240328Y2706208D01*
X25248200Y2712861D01*
X25399052Y2863188D01*
X25405730Y2871035D01*
X25530003Y3043980D01*
X25535313Y3052817D01*
X25629670Y3243733D01*
X25633469Y3253328D01*
X25695377Y3457090D01*
X25697555Y3467163D01*
X25698986Y3478038D01*
X25696775Y3492222D01*
X25683617Y3496000D01*
X24637115Y3496000D01*
X24621876Y3491525D01*
X24620671Y3490135D01*
X24619000Y3482452D01*
X24619000Y2431483D01*
X24111000Y2431483D01*
X24111000Y3532034D01*
X28778257Y3532034D01*
X28808565Y3397554D01*
X28811645Y3387725D01*
X28891770Y3190397D01*
X28896413Y3181206D01*
X29007694Y2999612D01*
X29013777Y2991301D01*
X29153213Y2830333D01*
X29160580Y2823117D01*
X29324434Y2687084D01*
X29332881Y2681169D01*
X29516756Y2573721D01*
X29526042Y2569271D01*
X29725001Y2493297D01*
X29734899Y2490421D01*
X29838250Y2469394D01*
X29852299Y2470590D01*
X29856000Y2480935D01*
X29856000Y3527885D01*
X29851525Y3543124D01*
X29850135Y3544329D01*
X29842452Y3546000D01*
X28793225Y3546000D01*
X28779694Y3542027D01*
X28778257Y3532034D01*
X24111000Y3532034D01*
X24111000Y4022115D01*
X24619000Y4022115D01*
X24623475Y4006876D01*
X24624865Y4005671D01*
X24632548Y4004000D01*
X25683344Y4004000D01*
X25696875Y4007973D01*
X25698180Y4017053D01*
X25685931Y4065817D01*
X28774389Y4065817D01*
X28775912Y4057393D01*
X28788292Y4054000D01*
X29837885Y4054000D01*
X29853124Y4058475D01*
X29854329Y4059865D01*
X29856000Y4067548D01*
X29856000Y5116898D01*
X29852082Y5130242D01*
X29837806Y5132229D01*
X29799324Y5126340D01*
X29789288Y5123949D01*
X29586868Y5057788D01*
X29577359Y5053791D01*
X29388463Y4955458D01*
X29379738Y4949964D01*
X29209433Y4822095D01*
X29201726Y4815252D01*
X29054590Y4661283D01*
X29048104Y4653273D01*
X28928098Y4477351D01*
X28923000Y4468377D01*
X28833338Y4275217D01*
X28829775Y4265530D01*
X28774389Y4065817D01*
X25685931Y4065817D01*
X25656214Y4184125D01*
X25652894Y4193876D01*
X25567972Y4389186D01*
X25563105Y4398261D01*
X25447426Y4577074D01*
X25441136Y4585243D01*
X25297806Y4742760D01*
X25290273Y4749785D01*
X25123139Y4881778D01*
X25114552Y4887483D01*
X24928117Y4990401D01*
X24918705Y4994631D01*
X24717959Y5065720D01*
X24707988Y5068354D01*
X24636837Y5081028D01*
X24623540Y5079568D01*
X24619000Y5065011D01*
X24619000Y4022115D01*
X24111000Y4022115D01*
X24111000Y5066898D01*
X24107082Y5080242D01*
X24092806Y5082229D01*
X24054324Y5076340D01*
X24044288Y5073949D01*
X23841868Y5007788D01*
X23832359Y5003791D01*
X23643463Y4905458D01*
X23634738Y4899964D01*
X23464433Y4772095D01*
X23456726Y4765252D01*
X23379478Y4684416D01*
X23317954Y4648986D01*
X23247042Y4652443D01*
X23189255Y4693689D01*
X23170402Y4727237D01*
X23128767Y4838297D01*
X23125615Y4846705D01*
X23038261Y4963261D01*
X22921705Y5050615D01*
X22785316Y5101745D01*
X22723134Y5108500D01*
X21712870Y5108500D01*
X21644749Y5128502D01*
X21598256Y5182158D01*
X21588152Y5252432D01*
X21617646Y5317012D01*
X21623775Y5323595D01*
X23068469Y6768289D01*
X23069406Y6769218D01*
X23129218Y6827790D01*
X23129219Y6827791D01*
X23134250Y6832718D01*
X23138064Y6838636D01*
X23138068Y6838641D01*
X23157895Y6869407D01*
X23165334Y6879760D01*
X23188170Y6908366D01*
X23192563Y6913869D01*
X23195628Y6920209D01*
X23195631Y6920214D01*
X23207265Y6944279D01*
X23214792Y6957692D01*
X23229274Y6980164D01*
X23229277Y6980171D01*
X23233092Y6986090D01*
X23248023Y7027111D01*
X23252982Y7038851D01*
X23268911Y7071801D01*
X23268912Y7071803D01*
X23271977Y7078144D01*
X23279577Y7111064D01*
X23283943Y7125799D01*
X23293089Y7150928D01*
X23293091Y7150934D01*
X23295498Y7157549D01*
X23300969Y7200859D01*
X23303203Y7213400D01*
X23313022Y7255930D01*
X23313165Y7296741D01*
X23313195Y7297634D01*
X23313300Y7298470D01*
X23313300Y7335560D01*
X23313446Y7377281D01*
X23313647Y7434846D01*
X23313647Y7434853D01*
X23313659Y7438392D01*
X23313389Y7439598D01*
X23313300Y7441247D01*
X23313300Y7621525D01*
X23333302Y7689646D01*
X23336340Y7693902D01*
X23339429Y7696997D01*
X23351287Y7716234D01*
X27792000Y7716234D01*
X27792337Y7709718D01*
X27802075Y7615868D01*
X27804968Y7602472D01*
X27855488Y7451047D01*
X27861653Y7437885D01*
X27945426Y7302508D01*
X27954460Y7291110D01*
X28067129Y7178637D01*
X28078540Y7169625D01*
X28214063Y7086088D01*
X28227241Y7079944D01*
X28378766Y7029685D01*
X28392132Y7026819D01*
X28484770Y7017328D01*
X28491185Y7017000D01*
X28565385Y7017000D01*
X28580624Y7021475D01*
X28581829Y7022865D01*
X28583500Y7030548D01*
X28583500Y7727885D01*
X28579025Y7743124D01*
X28577635Y7744329D01*
X28569952Y7746000D01*
X27810115Y7746000D01*
X27794876Y7741525D01*
X27793671Y7740135D01*
X27792000Y7732452D01*
X27792000Y7716234D01*
X23351287Y7716234D01*
X23430709Y7845080D01*
X23485474Y8010191D01*
X23496000Y8112928D01*
X23496000Y8272115D01*
X27792000Y8272115D01*
X27796475Y8256876D01*
X27797865Y8255671D01*
X27805548Y8254000D01*
X28565385Y8254000D01*
X28580624Y8258475D01*
X28581829Y8259865D01*
X28583500Y8267548D01*
X28583500Y8964885D01*
X28579025Y8980124D01*
X28577635Y8981329D01*
X28569952Y8983000D01*
X28491234Y8983000D01*
X28484718Y8982663D01*
X28390868Y8972925D01*
X28377472Y8970032D01*
X28226047Y8919512D01*
X28212885Y8913347D01*
X28077508Y8829574D01*
X28066110Y8820540D01*
X27953637Y8707871D01*
X27944625Y8696460D01*
X27861088Y8560937D01*
X27854944Y8547759D01*
X27804685Y8396234D01*
X27801819Y8382868D01*
X27792328Y8290230D01*
X27792000Y8283815D01*
X27792000Y8272115D01*
X23496000Y8272115D01*
X23496000Y8687072D01*
X23494347Y8703003D01*
X23485919Y8784235D01*
X23485918Y8784239D01*
X23485207Y8791093D01*
X23470514Y8835135D01*
X23432472Y8949159D01*
X23430154Y8956107D01*
X23338616Y9104031D01*
X23338932Y9104226D01*
X23313917Y9166034D01*
X23313300Y9178485D01*
X23313300Y9673430D01*
X23333302Y9741551D01*
X23350205Y9762525D01*
X23553914Y9966234D01*
X27742000Y9966234D01*
X27742337Y9959718D01*
X27752075Y9865868D01*
X27754968Y9852472D01*
X27805488Y9701047D01*
X27811653Y9687885D01*
X27895426Y9552508D01*
X27904460Y9541110D01*
X28017129Y9428637D01*
X28028540Y9419625D01*
X28164063Y9336088D01*
X28177241Y9329944D01*
X28328766Y9279685D01*
X28342132Y9276819D01*
X28434770Y9267328D01*
X28441185Y9267000D01*
X28515385Y9267000D01*
X28530624Y9271475D01*
X28531829Y9272865D01*
X28533500Y9280548D01*
X28533500Y9977885D01*
X28529025Y9993124D01*
X28527635Y9994329D01*
X28519952Y9996000D01*
X27760115Y9996000D01*
X27744876Y9991525D01*
X27743671Y9990135D01*
X27742000Y9982452D01*
X27742000Y9966234D01*
X23553914Y9966234D01*
X24767275Y11179595D01*
X24829587Y11213621D01*
X24856370Y11216500D01*
X24937072Y11216500D01*
X24940318Y11216837D01*
X24940322Y11216837D01*
X25034235Y11226581D01*
X25034239Y11226582D01*
X25041093Y11227293D01*
X25047629Y11229474D01*
X25047631Y11229474D01*
X25183402Y11274771D01*
X25206107Y11282346D01*
X25354031Y11373884D01*
X25387379Y11407290D01*
X25460747Y11480786D01*
X25523030Y11514865D01*
X25593850Y11509862D01*
X25638937Y11480941D01*
X25741812Y11378246D01*
X25741817Y11378242D01*
X25746997Y11373071D01*
X25753227Y11369231D01*
X25753228Y11369230D01*
X25885778Y11287525D01*
X25895080Y11281791D01*
X26060191Y11227026D01*
X26067027Y11226326D01*
X26067030Y11226325D01*
X26111608Y11221758D01*
X26162928Y11216500D01*
X26762072Y11216500D01*
X26765318Y11216837D01*
X26765322Y11216837D01*
X26859235Y11226581D01*
X26859239Y11226582D01*
X26866093Y11227293D01*
X26872629Y11229474D01*
X26872631Y11229474D01*
X27008402Y11274771D01*
X27031107Y11282346D01*
X27179031Y11373884D01*
X27191408Y11386283D01*
X27296758Y11491816D01*
X27296762Y11491821D01*
X27301929Y11496997D01*
X27310591Y11511049D01*
X27322282Y11530015D01*
X27375054Y11577509D01*
X27429542Y11589900D01*
X27571978Y11589900D01*
X27640099Y11569898D01*
X27646039Y11565836D01*
X27775467Y11471801D01*
X27793248Y11458882D01*
X27799276Y11456198D01*
X27799278Y11456197D01*
X27956742Y11386090D01*
X27967712Y11381206D01*
X27974167Y11379834D01*
X27974170Y11379833D01*
X28005984Y11373071D01*
X28068059Y11359876D01*
X28130532Y11326149D01*
X28164854Y11263999D01*
X28160126Y11193160D01*
X28117851Y11136123D01*
X28108165Y11129486D01*
X28027510Y11079575D01*
X28016110Y11070540D01*
X27903637Y10957871D01*
X27894625Y10946460D01*
X27811088Y10810937D01*
X27804944Y10797759D01*
X27754685Y10646234D01*
X27751819Y10632868D01*
X27742328Y10540230D01*
X27742000Y10533815D01*
X27742000Y10522115D01*
X27746475Y10506876D01*
X27747865Y10505671D01*
X27755548Y10504000D01*
X28515385Y10504000D01*
X28530624Y10508475D01*
X28531829Y10509865D01*
X28533500Y10517548D01*
X28533500Y11214883D01*
X28521226Y11256684D01*
X28521226Y11327681D01*
X28559609Y11387407D01*
X28590874Y11407290D01*
X28700719Y11456195D01*
X28700726Y11456199D01*
X28706752Y11458882D01*
X28724534Y11471801D01*
X28778553Y11511049D01*
X28861253Y11571134D01*
X28885979Y11598595D01*
X28984621Y11708148D01*
X28984622Y11708149D01*
X28989040Y11713056D01*
X29036563Y11795368D01*
X29087946Y11844361D01*
X29157659Y11857797D01*
X29223570Y11831411D01*
G37*
%TD.AperFunction*%
%TA.AperFunction,Conductor*%
G36*
X10302394Y9784327D02*
G01*
X10337658Y9722708D01*
X10334010Y9651805D01*
X10304193Y9604373D01*
X9700025Y9000205D01*
X9637713Y8966179D01*
X9610930Y8963300D01*
X9235827Y8963300D01*
X9169711Y8982040D01*
X9168701Y8982663D01*
X9041729Y9060930D01*
X9036150Y9064369D01*
X9036148Y9064370D01*
X9029920Y9068209D01*
X8864809Y9122974D01*
X8857973Y9123674D01*
X8857970Y9123675D01*
X8803036Y9129303D01*
X8762072Y9133500D01*
X8162928Y9133500D01*
X8159682Y9133163D01*
X8159678Y9133163D01*
X8065765Y9123419D01*
X8065761Y9123418D01*
X8058907Y9122707D01*
X8052371Y9120526D01*
X8052369Y9120526D01*
X7980235Y9096460D01*
X7893893Y9067654D01*
X7745969Y8976116D01*
X7740796Y8970934D01*
X7639253Y8869214D01*
X7576970Y8835135D01*
X7506150Y8840138D01*
X7461063Y8869059D01*
X7358188Y8971754D01*
X7358183Y8971758D01*
X7353003Y8976929D01*
X7345865Y8981329D01*
X7211150Y9064369D01*
X7211148Y9064370D01*
X7204920Y9068209D01*
X7039809Y9122974D01*
X7032973Y9123674D01*
X7032970Y9123675D01*
X6978036Y9129303D01*
X6937072Y9133500D01*
X6337928Y9133500D01*
X6334682Y9133163D01*
X6334678Y9133163D01*
X6240765Y9123419D01*
X6240761Y9123418D01*
X6233907Y9122707D01*
X6227371Y9120526D01*
X6227369Y9120526D01*
X6155235Y9096460D01*
X6068893Y9067654D01*
X5920969Y8976116D01*
X5915796Y8970934D01*
X5803242Y8858184D01*
X5803238Y8858179D01*
X5798071Y8853003D01*
X5794231Y8846773D01*
X5794230Y8846772D01*
X5711605Y8712729D01*
X5706791Y8704920D01*
X5652026Y8539809D01*
X5641500Y8437072D01*
X5641500Y7862928D01*
X5641837Y7859682D01*
X5641837Y7859678D01*
X5647990Y7800382D01*
X5652293Y7758907D01*
X5654474Y7752371D01*
X5654474Y7752369D01*
X5658092Y7741525D01*
X5707346Y7593893D01*
X5798884Y7445969D01*
X5804066Y7440796D01*
X5916816Y7328242D01*
X5916821Y7328238D01*
X5921997Y7323071D01*
X5928227Y7319231D01*
X5928228Y7319230D01*
X6035804Y7252919D01*
X6078140Y7209800D01*
X6082874Y7201795D01*
X6091565Y7184055D01*
X6098616Y7166246D01*
X6114511Y7144368D01*
X6123520Y7131968D01*
X6130036Y7122048D01*
X6151595Y7085594D01*
X6165122Y7072067D01*
X6177963Y7057033D01*
X6189221Y7041538D01*
X6195329Y7036485D01*
X6221866Y7014532D01*
X6230646Y7006542D01*
X6275587Y6961601D01*
X6309613Y6899289D01*
X6304548Y6828474D01*
X6262001Y6771638D01*
X6226368Y6752982D01*
X6126047Y6719512D01*
X6112885Y6713347D01*
X5977508Y6629574D01*
X5966110Y6620540D01*
X5853637Y6507871D01*
X5844625Y6496460D01*
X5761088Y6360937D01*
X5754944Y6347759D01*
X5704685Y6196234D01*
X5701819Y6182868D01*
X5692328Y6090230D01*
X5692000Y6083815D01*
X5692000Y6072115D01*
X5696475Y6056876D01*
X5697865Y6055671D01*
X5705548Y6054000D01*
X6815500Y6054000D01*
X6883621Y6033998D01*
X6930114Y5980342D01*
X6941500Y5928000D01*
X6941500Y4835115D01*
X6945975Y4819876D01*
X6947365Y4818671D01*
X6955048Y4817000D01*
X6983766Y4817000D01*
X6990282Y4817337D01*
X7084132Y4827075D01*
X7097528Y4829968D01*
X7248953Y4880488D01*
X7262115Y4886653D01*
X7397492Y4970426D01*
X7408890Y4979460D01*
X7496527Y5067250D01*
X7558809Y5101329D01*
X7629630Y5096326D01*
X7686502Y5053829D01*
X7711371Y4987330D01*
X7711700Y4978232D01*
X7711700Y4335065D01*
X7691698Y4266944D01*
X7638042Y4220451D01*
X7567768Y4210347D01*
X7503188Y4239841D01*
X7496683Y4245892D01*
X7420688Y4321754D01*
X7420683Y4321758D01*
X7415503Y4326929D01*
X7409272Y4330770D01*
X7273650Y4414369D01*
X7273648Y4414370D01*
X7267420Y4418209D01*
X7102309Y4472974D01*
X7095473Y4473674D01*
X7095470Y4473675D01*
X7043974Y4478951D01*
X6999572Y4483500D01*
X6400428Y4483500D01*
X6397182Y4483163D01*
X6397178Y4483163D01*
X6303265Y4473419D01*
X6303261Y4473418D01*
X6296407Y4472707D01*
X6289871Y4470526D01*
X6289869Y4470526D01*
X6213260Y4444967D01*
X6131393Y4417654D01*
X5995082Y4333302D01*
X5993230Y4332156D01*
X5926927Y4313300D01*
X5639070Y4313300D01*
X5570949Y4333302D01*
X5549974Y4350205D01*
X4950204Y4949976D01*
X4916179Y5012288D01*
X4913300Y5039071D01*
X4913300Y5516234D01*
X5692000Y5516234D01*
X5692337Y5509718D01*
X5702075Y5415868D01*
X5704968Y5402472D01*
X5755488Y5251047D01*
X5761653Y5237885D01*
X5845426Y5102508D01*
X5854460Y5091110D01*
X5967129Y4978637D01*
X5978540Y4969625D01*
X6114063Y4886088D01*
X6127241Y4879944D01*
X6278766Y4829685D01*
X6292132Y4826819D01*
X6384770Y4817328D01*
X6391185Y4817000D01*
X6415385Y4817000D01*
X6430624Y4821475D01*
X6431829Y4822865D01*
X6433500Y4830548D01*
X6433500Y5527885D01*
X6429025Y5543124D01*
X6427635Y5544329D01*
X6419952Y5546000D01*
X5710115Y5546000D01*
X5694876Y5541525D01*
X5693671Y5540135D01*
X5692000Y5532452D01*
X5692000Y5516234D01*
X4913300Y5516234D01*
X4913300Y9060930D01*
X4933302Y9129051D01*
X4950205Y9150025D01*
X5299975Y9499795D01*
X5362287Y9533821D01*
X5389070Y9536700D01*
X5845287Y9536700D01*
X5911403Y9517960D01*
X5970080Y9481791D01*
X6135191Y9427026D01*
X6142027Y9426326D01*
X6142030Y9426325D01*
X6193526Y9421049D01*
X6237928Y9416500D01*
X6837072Y9416500D01*
X6840318Y9416837D01*
X6840322Y9416837D01*
X6934235Y9426581D01*
X6934239Y9426582D01*
X6941093Y9427293D01*
X6947629Y9429474D01*
X6947631Y9429474D01*
X7080395Y9473768D01*
X7106107Y9482346D01*
X7254031Y9573884D01*
X7315394Y9635354D01*
X7360747Y9680786D01*
X7423030Y9714865D01*
X7493850Y9709862D01*
X7538937Y9680941D01*
X7641812Y9578246D01*
X7641817Y9578242D01*
X7646997Y9573071D01*
X7653227Y9569231D01*
X7653228Y9569230D01*
X7763058Y9501530D01*
X7795080Y9481791D01*
X7960191Y9427026D01*
X7967027Y9426326D01*
X7967030Y9426325D01*
X8018526Y9421049D01*
X8062928Y9416500D01*
X8662072Y9416500D01*
X8665318Y9416837D01*
X8665322Y9416837D01*
X8759235Y9426581D01*
X8759239Y9426582D01*
X8766093Y9427293D01*
X8772629Y9429474D01*
X8772631Y9429474D01*
X8905395Y9473768D01*
X8931107Y9482346D01*
X9079031Y9573884D01*
X9140394Y9635354D01*
X9196758Y9691816D01*
X9196762Y9691821D01*
X9201929Y9696997D01*
X9213025Y9714998D01*
X9222282Y9730015D01*
X9275054Y9777509D01*
X9329542Y9789900D01*
X9924322Y9789900D01*
X9934874Y9789402D01*
X9942128Y9787781D01*
X10007595Y9789838D01*
X10011552Y9789900D01*
X10038383Y9789900D01*
X10042310Y9790396D01*
X10043216Y9790453D01*
X10053860Y9791292D01*
X10096199Y9792622D01*
X10114586Y9797964D01*
X10133943Y9801972D01*
X10145065Y9803377D01*
X10145066Y9803377D01*
X10152932Y9804371D01*
X10168716Y9810620D01*
X10239414Y9817099D01*
X10302394Y9784327D01*
G37*
%TD.AperFunction*%
%TA.AperFunction,Conductor*%
G36*
X32813219Y10769898D02*
G01*
X32834194Y10752995D01*
X33285737Y10301451D01*
X33715084Y9872104D01*
X33722190Y9864294D01*
X33726174Y9858017D01*
X33731952Y9852591D01*
X33773931Y9813170D01*
X33776773Y9810415D01*
X33795735Y9791453D01*
X33798862Y9789027D01*
X33799503Y9788462D01*
X33807661Y9781494D01*
X33838542Y9752496D01*
X33855319Y9743272D01*
X33871832Y9732425D01*
X33880698Y9725548D01*
X33880703Y9725545D01*
X33886966Y9720687D01*
X33925847Y9703862D01*
X33936495Y9698646D01*
X33973622Y9678235D01*
X33992161Y9673475D01*
X34010859Y9667074D01*
X34028435Y9659468D01*
X34070278Y9652841D01*
X34081897Y9650435D01*
X34122926Y9639900D01*
X34142064Y9639900D01*
X34161774Y9638349D01*
X34180684Y9635354D01*
X34222860Y9639341D01*
X34234719Y9639900D01*
X34929866Y9639900D01*
X34997987Y9619898D01*
X35044480Y9566242D01*
X35050863Y9549053D01*
X35086519Y9426325D01*
X35090855Y9411399D01*
X35094892Y9404573D01*
X35171509Y9275020D01*
X35171511Y9275017D01*
X35175547Y9268193D01*
X35293193Y9150547D01*
X35300017Y9146511D01*
X35300020Y9146509D01*
X35374965Y9102187D01*
X35436399Y9065855D01*
X35444010Y9063644D01*
X35444012Y9063643D01*
X35496231Y9048472D01*
X35596169Y9019438D01*
X35602574Y9018934D01*
X35602579Y9018933D01*
X35631042Y9016693D01*
X35631050Y9016693D01*
X35633498Y9016500D01*
X36066502Y9016500D01*
X36068950Y9016693D01*
X36068958Y9016693D01*
X36097421Y9018933D01*
X36097426Y9018934D01*
X36103831Y9019438D01*
X36203769Y9048472D01*
X36255988Y9063643D01*
X36255990Y9063644D01*
X36263601Y9065855D01*
X36325035Y9102187D01*
X36399980Y9146509D01*
X36399983Y9146511D01*
X36406807Y9150547D01*
X36412416Y9156156D01*
X36418675Y9161011D01*
X36420240Y9158993D01*
X36471567Y9187021D01*
X36498350Y9189900D01*
X37570554Y9189900D01*
X37638675Y9169898D01*
X37677698Y9130204D01*
X37690424Y9109640D01*
X37698884Y9095969D01*
X37704062Y9090800D01*
X37816816Y8978242D01*
X37816821Y8978238D01*
X37821997Y8973071D01*
X37828227Y8969231D01*
X37828228Y8969230D01*
X37917974Y8913910D01*
X37970080Y8881791D01*
X38135191Y8827026D01*
X38142027Y8826326D01*
X38142030Y8826325D01*
X38193526Y8821049D01*
X38237928Y8816500D01*
X38837072Y8816500D01*
X38840318Y8816837D01*
X38840322Y8816837D01*
X38915579Y8824646D01*
X38941093Y8827293D01*
X38944899Y8828563D01*
X39014597Y8823471D01*
X39071367Y8780838D01*
X39096077Y8714280D01*
X39083821Y8650637D01*
X39080233Y8643216D01*
X39072708Y8629808D01*
X39058226Y8607336D01*
X39058223Y8607329D01*
X39054408Y8601410D01*
X39051998Y8594790D01*
X39051998Y8594789D01*
X39039479Y8560393D01*
X39034519Y8548652D01*
X39015523Y8509356D01*
X39007923Y8476436D01*
X39003557Y8461701D01*
X38994411Y8436572D01*
X38994409Y8436566D01*
X38992002Y8429951D01*
X38991120Y8422968D01*
X38986531Y8386641D01*
X38984297Y8374100D01*
X38974478Y8331570D01*
X38974453Y8324524D01*
X38974453Y8324521D01*
X38974335Y8290759D01*
X38974305Y8289866D01*
X38974200Y8289030D01*
X38974200Y8252094D01*
X38974199Y8251654D01*
X38973908Y8168193D01*
X38973841Y8149108D01*
X38974111Y8147902D01*
X38974200Y8146253D01*
X38974200Y7878475D01*
X38954198Y7810354D01*
X38951160Y7806098D01*
X38948071Y7803003D01*
X38904583Y7732452D01*
X38861364Y7662338D01*
X38856791Y7654920D01*
X38802026Y7489809D01*
X38801326Y7482973D01*
X38801325Y7482970D01*
X38796422Y7435115D01*
X38791500Y7387072D01*
X38791500Y6812928D01*
X38791837Y6809682D01*
X38791837Y6809678D01*
X38801328Y6718209D01*
X38802293Y6708907D01*
X38804474Y6702371D01*
X38804474Y6702369D01*
X38836923Y6605108D01*
X38857346Y6543893D01*
X38948884Y6395969D01*
X38954066Y6390796D01*
X38954070Y6390791D01*
X39066585Y6278473D01*
X39100665Y6216191D01*
X39095662Y6145371D01*
X39053165Y6088498D01*
X38986667Y6063629D01*
X38977568Y6063300D01*
X37439070Y6063300D01*
X37370949Y6083302D01*
X37349975Y6100205D01*
X36969211Y6480969D01*
X36968282Y6481906D01*
X36909710Y6541718D01*
X36909709Y6541719D01*
X36904782Y6546750D01*
X36898864Y6550564D01*
X36898859Y6550568D01*
X36868093Y6570395D01*
X36857740Y6577834D01*
X36829134Y6600670D01*
X36823631Y6605063D01*
X36817291Y6608128D01*
X36817286Y6608131D01*
X36793221Y6619765D01*
X36779808Y6627292D01*
X36757336Y6641774D01*
X36757329Y6641777D01*
X36751410Y6645592D01*
X36710389Y6660523D01*
X36698649Y6665482D01*
X36665699Y6681411D01*
X36665697Y6681412D01*
X36659356Y6684477D01*
X36626436Y6692077D01*
X36611701Y6696443D01*
X36586572Y6705589D01*
X36586566Y6705591D01*
X36579951Y6707998D01*
X36555581Y6711076D01*
X36536641Y6713469D01*
X36524100Y6715703D01*
X36481570Y6725522D01*
X36474524Y6725547D01*
X36474521Y6725547D01*
X36440759Y6725665D01*
X36439866Y6725695D01*
X36439030Y6725800D01*
X36402094Y6725800D01*
X36401654Y6725801D01*
X36302654Y6726147D01*
X36302647Y6726147D01*
X36299108Y6726159D01*
X36297902Y6725889D01*
X36296253Y6725800D01*
X33039070Y6725800D01*
X32970949Y6745802D01*
X32949975Y6762705D01*
X31645405Y8067275D01*
X31611379Y8129587D01*
X31608500Y8156370D01*
X31608500Y8287072D01*
X31608163Y8290322D01*
X31598419Y8384235D01*
X31598418Y8384239D01*
X31597707Y8391093D01*
X31542654Y8556107D01*
X31451116Y8704031D01*
X31362782Y8792211D01*
X31328703Y8854493D01*
X31325800Y8881384D01*
X31325800Y9418608D01*
X31345802Y9486729D01*
X31362626Y9507625D01*
X31396757Y9541816D01*
X31401929Y9546997D01*
X31418001Y9573071D01*
X31489369Y9688850D01*
X31489370Y9688852D01*
X31493209Y9695080D01*
X31547974Y9860191D01*
X31558500Y9962928D01*
X31558500Y10537072D01*
X31553557Y10584710D01*
X31548419Y10634235D01*
X31548418Y10634239D01*
X31547707Y10641093D01*
X31548035Y10641127D01*
X31552928Y10708111D01*
X31595561Y10764882D01*
X31662118Y10789592D01*
X31670917Y10789900D01*
X32745098Y10789900D01*
X32813219Y10769898D01*
G37*
%TD.AperFunction*%
%TA.AperFunction,Conductor*%
G36*
X35743850Y14209862D02*
G01*
X35788937Y14180941D01*
X35891812Y14078246D01*
X35891817Y14078242D01*
X35896997Y14073071D01*
X35903227Y14069231D01*
X35903228Y14069230D01*
X35976837Y14023857D01*
X36045080Y13981791D01*
X36210191Y13927026D01*
X36217027Y13926326D01*
X36217030Y13926325D01*
X36268526Y13921049D01*
X36312928Y13916500D01*
X36912072Y13916500D01*
X36915318Y13916837D01*
X36915322Y13916837D01*
X37009235Y13926581D01*
X37009239Y13926582D01*
X37016093Y13927293D01*
X37022630Y13929474D01*
X37022635Y13929475D01*
X37044264Y13936691D01*
X37115213Y13939275D01*
X37176297Y13903091D01*
X37208121Y13839626D01*
X37207414Y13792870D01*
X37206458Y13789928D01*
X37205768Y13783360D01*
X37205767Y13783357D01*
X37190030Y13633621D01*
X37186496Y13600000D01*
X37195090Y13518236D01*
X37182318Y13448400D01*
X37133816Y13396553D01*
X37064984Y13379158D01*
X37054824Y13380274D01*
X37053831Y13380562D01*
X37048061Y13381016D01*
X37048053Y13381017D01*
X37018958Y13383307D01*
X37018950Y13383307D01*
X37016502Y13383500D01*
X36583498Y13383500D01*
X36581050Y13383307D01*
X36581042Y13383307D01*
X36552579Y13381067D01*
X36552574Y13381066D01*
X36546169Y13380562D01*
X36481858Y13361878D01*
X36394012Y13336357D01*
X36394010Y13336356D01*
X36386399Y13334145D01*
X36366480Y13322365D01*
X36250020Y13253491D01*
X36250017Y13253489D01*
X36243193Y13249453D01*
X36125547Y13131807D01*
X36121511Y13124983D01*
X36121509Y13124980D01*
X36063041Y13026116D01*
X36040855Y12988601D01*
X36038644Y12980990D01*
X36038643Y12980988D01*
X36033091Y12961877D01*
X35994438Y12828831D01*
X35993934Y12822426D01*
X35993933Y12822421D01*
X35991693Y12793958D01*
X35991500Y12791502D01*
X35991500Y11634500D01*
X35971498Y11566379D01*
X35917842Y11519886D01*
X35865500Y11508500D01*
X35834000Y11508500D01*
X35765879Y11528502D01*
X35719386Y11582158D01*
X35708000Y11634500D01*
X35708000Y11865385D01*
X35703525Y11880624D01*
X35702135Y11881829D01*
X35694452Y11883500D01*
X34110116Y11883500D01*
X34094877Y11879025D01*
X34093672Y11877635D01*
X34092001Y11869952D01*
X34092001Y11525001D01*
X34071999Y11456880D01*
X34018343Y11410387D01*
X33948069Y11400283D01*
X33883489Y11429777D01*
X33876906Y11435906D01*
X33534920Y11777892D01*
X33527810Y11785705D01*
X33523826Y11791983D01*
X33476069Y11836830D01*
X33473227Y11839585D01*
X33454265Y11858547D01*
X33451138Y11860973D01*
X33450497Y11861538D01*
X33442337Y11868507D01*
X33440372Y11870352D01*
X33411458Y11897504D01*
X33394681Y11906728D01*
X33378168Y11917575D01*
X33369302Y11924452D01*
X33369297Y11924455D01*
X33363034Y11929313D01*
X33324150Y11946139D01*
X33313505Y11951354D01*
X33276378Y11971765D01*
X33257838Y11976525D01*
X33239141Y11982926D01*
X33221565Y11990532D01*
X33179722Y11997159D01*
X33168103Y11999565D01*
X33127074Y12010100D01*
X33107936Y12010100D01*
X33088225Y12011651D01*
X33069316Y12014646D01*
X33056199Y12013406D01*
X33027139Y12010659D01*
X33015281Y12010100D01*
X32731640Y12010100D01*
X32663519Y12030102D01*
X32617026Y12083758D01*
X32606028Y12145985D01*
X32607807Y12168584D01*
X32608000Y12173514D01*
X32608000Y12409615D01*
X34092000Y12409615D01*
X34096475Y12394376D01*
X34097865Y12393171D01*
X34105548Y12391500D01*
X34627885Y12391500D01*
X34643124Y12395975D01*
X34644329Y12397365D01*
X34646000Y12405048D01*
X34646000Y12409615D01*
X35154000Y12409615D01*
X35158475Y12394376D01*
X35159865Y12393171D01*
X35167548Y12391500D01*
X35689884Y12391500D01*
X35705123Y12395975D01*
X35706328Y12397365D01*
X35707999Y12405048D01*
X35707999Y12788983D01*
X35707805Y12793920D01*
X35705570Y12822336D01*
X35703270Y12834931D01*
X35660893Y12980790D01*
X35654648Y12995221D01*
X35578089Y13124678D01*
X35568449Y13137104D01*
X35462104Y13243449D01*
X35449678Y13253089D01*
X35320221Y13329648D01*
X35305790Y13335893D01*
X35171395Y13374939D01*
X35157294Y13374899D01*
X35154000Y13367630D01*
X35154000Y12409615D01*
X34646000Y12409615D01*
X34646000Y13361878D01*
X34642027Y13375409D01*
X34634129Y13376544D01*
X34494210Y13335893D01*
X34479779Y13329648D01*
X34350322Y13253089D01*
X34337896Y13243449D01*
X34231551Y13137104D01*
X34221911Y13124678D01*
X34145352Y12995221D01*
X34139107Y12980790D01*
X34096731Y12834935D01*
X34094430Y12822333D01*
X34092193Y12793916D01*
X34092000Y12788986D01*
X34092000Y12409615D01*
X32608000Y12409615D01*
X32608000Y12552885D01*
X32603525Y12568124D01*
X32602135Y12569329D01*
X32594452Y12571000D01*
X31069002Y12571000D01*
X31000881Y12591002D01*
X30979907Y12607905D01*
X30745405Y12842407D01*
X30711379Y12904719D01*
X30708500Y12931502D01*
X30708500Y13328000D01*
X30728502Y13396121D01*
X30782158Y13442614D01*
X30834500Y13454000D01*
X30866000Y13454000D01*
X30934121Y13433998D01*
X30980614Y13380342D01*
X30992000Y13328000D01*
X30992000Y13097115D01*
X30996475Y13081876D01*
X30997865Y13080671D01*
X31005548Y13079000D01*
X32589884Y13079000D01*
X32605123Y13083475D01*
X32606328Y13084865D01*
X32607999Y13092548D01*
X32607999Y13476483D01*
X32607805Y13481420D01*
X32605570Y13509836D01*
X32603270Y13522431D01*
X32560893Y13668290D01*
X32554647Y13682723D01*
X32546464Y13696560D01*
X32529004Y13765377D01*
X32551520Y13832708D01*
X32606865Y13877177D01*
X32654917Y13886700D01*
X34578283Y13886700D01*
X34579604Y13886693D01*
X34670209Y13885744D01*
X34712870Y13894968D01*
X34725449Y13897028D01*
X34761829Y13901108D01*
X34761832Y13901109D01*
X34768825Y13901893D01*
X34775469Y13904207D01*
X34775475Y13904208D01*
X34790648Y13909492D01*
X34832084Y13916500D01*
X35087072Y13916500D01*
X35090318Y13916837D01*
X35090322Y13916837D01*
X35184235Y13926581D01*
X35184239Y13926582D01*
X35191093Y13927293D01*
X35197629Y13929474D01*
X35197631Y13929474D01*
X35346650Y13979191D01*
X35356107Y13982346D01*
X35504031Y14073884D01*
X35524124Y14094012D01*
X35610747Y14180786D01*
X35673030Y14214865D01*
X35743850Y14209862D01*
G37*
%TD.AperFunction*%
%TD*%
M02*
