%TF.GenerationSoftware,KiCad,Pcbnew,(6.0.2)*%
%TF.CreationDate,2022-11-21T15:36:14-08:00*%
%TF.ProjectId,tr_switch,74725f73-7769-4746-9368-2e6b69636164,rev?*%
%TF.SameCoordinates,PX4b94250PY699e930*%
%TF.FileFunction,Copper,L2,Bot*%
%TF.FilePolarity,Positive*%
%FSLAX46Y46*%
G04 Gerber Fmt 4.6, Leading zero omitted, Abs format (unit mm)*
G04 Created by KiCad (PCBNEW (6.0.2)) date 2022-11-21 15:36:14*
%MOMM*%
%LPD*%
G01*
G04 APERTURE LIST*
%TA.AperFunction,ComponentPad*%
%ADD10R,1.700000X1.700000*%
%TD*%
%TA.AperFunction,ComponentPad*%
%ADD11O,1.700000X1.700000*%
%TD*%
%TA.AperFunction,ComponentPad*%
%ADD12C,1.600000*%
%TD*%
%TA.AperFunction,ComponentPad*%
%ADD13C,2.000000*%
%TD*%
%TA.AperFunction,SMDPad,CuDef*%
%ADD14R,4.200000X1.350000*%
%TD*%
%TA.AperFunction,SMDPad,CuDef*%
%ADD15R,1.350000X4.200000*%
%TD*%
%TA.AperFunction,ViaPad*%
%ADD16C,0.800000*%
%TD*%
%TA.AperFunction,Conductor*%
%ADD17C,0.609600*%
%TD*%
%TA.AperFunction,Conductor*%
%ADD18C,0.203200*%
%TD*%
G04 APERTURE END LIST*
D10*
%TO.P,J3,1,Pin_1*%
%TO.N,Net-(C4-Pad1)*%
X2750000Y36900000D03*
D11*
%TO.P,J3,2,Pin_2*%
%TO.N,GND*%
X2750000Y39440000D03*
%TD*%
D12*
%TO.P,C4,1*%
%TO.N,Net-(C4-Pad1)*%
X9200000Y29900000D03*
%TO.P,C4,2*%
%TO.N,Net-(C4-Pad2)*%
X14200000Y29900000D03*
%TD*%
%TO.P,C5,1*%
%TO.N,Net-(C5-Pad1)*%
X23650000Y34500000D03*
%TO.P,C5,2*%
%TO.N,Net-(C5-Pad2)*%
X23650000Y39500000D03*
%TD*%
D13*
%TO.P,L2,1,1*%
%TO.N,Net-(C5-Pad1)*%
X23050000Y23740000D03*
%TO.P,L2,2,2*%
%TO.N,Net-(L2-Pad2)*%
X23050000Y18660000D03*
%TD*%
D14*
%TO.P,J4,2,Ext*%
%TO.N,GND*%
X2600000Y27175000D03*
X2600000Y32825000D03*
%TD*%
D10*
%TO.P,J9,1,Pin_1*%
%TO.N,GND*%
X3600000Y46550000D03*
D11*
%TO.P,J9,2,Pin_2*%
X6140000Y46550000D03*
%TD*%
D13*
%TO.P,L3,1,1*%
%TO.N,Net-(C7-Pad1)*%
X34950000Y18760000D03*
%TO.P,L3,2,2*%
%TO.N,Net-(C6-Pad1)*%
X34950000Y23840000D03*
%TD*%
D10*
%TO.P,J2,1,Pin_1*%
%TO.N,Net-(J2-Pad1)*%
X21825000Y3750000D03*
D11*
%TO.P,J2,2,Pin_2*%
%TO.N,GND*%
X24365000Y3750000D03*
%TD*%
D15*
%TO.P,J6,2,Ext*%
%TO.N,GND*%
X26325000Y46837500D03*
X20675000Y46837500D03*
%TD*%
D13*
%TO.P,L1,1,1*%
%TO.N,Net-(C3-Pad1)*%
X11350000Y18660000D03*
%TO.P,L1,2,2*%
%TO.N,Net-(C4-Pad2)*%
X11350000Y23740000D03*
%TD*%
D10*
%TO.P,J8,1,Pin_1*%
%TO.N,Net-(C6-Pad2)*%
X41400000Y37200000D03*
D11*
%TO.P,J8,2,Pin_2*%
%TO.N,GND*%
X41400000Y39740000D03*
%TD*%
D10*
%TO.P,J1,1,Pin_1*%
%TO.N,/VDD12*%
X32650000Y3800000D03*
D11*
%TO.P,J1,2,Pin_2*%
%TO.N,GND*%
X30110000Y3800000D03*
%TD*%
D10*
%TO.P,J10,1,Pin_1*%
%TO.N,GND*%
X38775000Y2600000D03*
D11*
%TO.P,J10,2,Pin_2*%
X41315000Y2600000D03*
%TD*%
D10*
%TO.P,J11,1,Pin_1*%
%TO.N,GND*%
X2600000Y4925000D03*
D11*
%TO.P,J11,2,Pin_2*%
X2600000Y2385000D03*
%TD*%
D12*
%TO.P,C6,1*%
%TO.N,Net-(C6-Pad1)*%
X31050000Y29900000D03*
%TO.P,C6,2*%
%TO.N,Net-(C6-Pad2)*%
X36050000Y29900000D03*
%TD*%
D14*
%TO.P,J7,2,Ext*%
%TO.N,GND*%
X41400000Y27175000D03*
X41400000Y32825000D03*
%TD*%
D10*
%TO.P,J5,1,Pin_1*%
%TO.N,Net-(C5-Pad2)*%
X16250000Y46800000D03*
D11*
%TO.P,J5,2,Pin_2*%
%TO.N,GND*%
X13710000Y46800000D03*
%TD*%
D10*
%TO.P,J12,1,Pin_1*%
%TO.N,GND*%
X38550000Y46550000D03*
D11*
%TO.P,J12,2,Pin_2*%
X41090000Y46550000D03*
%TD*%
D16*
%TO.N,/VDD12*%
X10150000Y12550000D03*
X4750000Y12050000D03*
%TO.N,GND*%
X15100000Y6500000D03*
X17950000Y27100000D03*
X2450000Y15350000D03*
X20700000Y43400000D03*
X28000000Y15150000D03*
X37900000Y27050000D03*
X5400000Y4750000D03*
X28600000Y45250000D03*
X32900000Y8550000D03*
X1900000Y10150000D03*
X42300000Y23350000D03*
X27550000Y26850000D03*
X27500002Y9099987D03*
X5250000Y34850000D03*
X9700000Y32850000D03*
X14650000Y8800000D03*
X2550000Y25200000D03*
X19050000Y8450000D03*
X35050000Y2850000D03*
X19250000Y36400000D03*
X35550000Y32650000D03*
X36400000Y44500000D03*
X33600000Y13500000D03*
X10100000Y41950000D03*
X22150000Y12900000D03*
X39750000Y34750000D03*
X27994726Y36470239D03*
%TO.N,Net-(Q2-Pad1)*%
X28250000Y12250000D03*
X38100000Y13600000D03*
%TD*%
D17*
%TO.N,/VDD12*%
X10150000Y12550000D02*
X5250000Y12550000D01*
X5250000Y12550000D02*
X4750000Y12050000D01*
D18*
%TO.N,Net-(Q2-Pad1)*%
X36750000Y12250000D02*
X38100000Y13600000D01*
X28250000Y12250000D02*
X36750000Y12250000D01*
%TD*%
%TA.AperFunction,Conductor*%
%TO.N,GND*%
G36*
X19434121Y48921998D02*
G01*
X19480614Y48868342D01*
X19492000Y48816000D01*
X19492000Y47109615D01*
X19496475Y47094376D01*
X19497865Y47093171D01*
X19505548Y47091500D01*
X21839884Y47091500D01*
X21855123Y47095975D01*
X21856328Y47097365D01*
X21857999Y47105048D01*
X21857999Y48816000D01*
X21878001Y48884121D01*
X21931657Y48930614D01*
X21983999Y48942000D01*
X25016000Y48942000D01*
X25084121Y48921998D01*
X25130614Y48868342D01*
X25142000Y48816000D01*
X25142000Y47109615D01*
X25146475Y47094376D01*
X25147865Y47093171D01*
X25155548Y47091500D01*
X27489884Y47091500D01*
X27505123Y47095975D01*
X27506328Y47097365D01*
X27507999Y47105048D01*
X27507999Y48816000D01*
X27528001Y48884121D01*
X27581657Y48930614D01*
X27633999Y48942000D01*
X43366000Y48942000D01*
X43434121Y48921998D01*
X43480614Y48868342D01*
X43492000Y48816000D01*
X43492000Y34134000D01*
X43471998Y34065879D01*
X43418342Y34019386D01*
X43366000Y34008000D01*
X41672115Y34008000D01*
X41656876Y34003525D01*
X41655671Y34002135D01*
X41654000Y33994452D01*
X41654000Y31660116D01*
X41658475Y31644877D01*
X41659865Y31643672D01*
X41667548Y31642001D01*
X43366000Y31642001D01*
X43434121Y31621999D01*
X43480614Y31568343D01*
X43492000Y31516001D01*
X43492000Y28484000D01*
X43471998Y28415879D01*
X43418342Y28369386D01*
X43366000Y28358000D01*
X41672115Y28358000D01*
X41656876Y28353525D01*
X41655671Y28352135D01*
X41654000Y28344452D01*
X41654000Y26010116D01*
X41658475Y25994877D01*
X41659865Y25993672D01*
X41667548Y25992001D01*
X43366000Y25992001D01*
X43434121Y25971999D01*
X43480614Y25918343D01*
X43492000Y25866001D01*
X43492000Y634000D01*
X43471998Y565879D01*
X43418342Y519386D01*
X43366000Y508000D01*
X634000Y508000D01*
X565879Y528002D01*
X519386Y581658D01*
X508000Y634000D01*
X508000Y2117034D01*
X1268257Y2117034D01*
X1298565Y1982554D01*
X1301645Y1972725D01*
X1381770Y1775397D01*
X1386413Y1766206D01*
X1497694Y1584612D01*
X1503777Y1576301D01*
X1643213Y1415333D01*
X1650580Y1408117D01*
X1814434Y1272084D01*
X1822881Y1266169D01*
X2006756Y1158721D01*
X2016042Y1154271D01*
X2215001Y1078297D01*
X2224899Y1075421D01*
X2328250Y1054394D01*
X2342299Y1055590D01*
X2346000Y1065935D01*
X2346000Y1066483D01*
X2854000Y1066483D01*
X2858064Y1052641D01*
X2871478Y1050607D01*
X2878184Y1051466D01*
X2888262Y1053608D01*
X3092255Y1114809D01*
X3101842Y1118567D01*
X3293095Y1212261D01*
X3301945Y1217536D01*
X3475328Y1341208D01*
X3483200Y1347861D01*
X3634052Y1498188D01*
X3640730Y1506035D01*
X3765003Y1678980D01*
X3770313Y1687817D01*
X3778969Y1705331D01*
X37417001Y1705331D01*
X37417371Y1698510D01*
X37422895Y1647648D01*
X37426521Y1632396D01*
X37471676Y1511946D01*
X37480214Y1496351D01*
X37556715Y1394276D01*
X37569276Y1381715D01*
X37671351Y1305214D01*
X37686946Y1296676D01*
X37807394Y1251522D01*
X37822649Y1247895D01*
X37873514Y1242369D01*
X37880328Y1242000D01*
X38502885Y1242000D01*
X38518124Y1246475D01*
X38519329Y1247865D01*
X38521000Y1255548D01*
X38521000Y1260116D01*
X39029000Y1260116D01*
X39033475Y1244877D01*
X39034865Y1243672D01*
X39042548Y1242001D01*
X39669669Y1242001D01*
X39676490Y1242371D01*
X39727352Y1247895D01*
X39742604Y1251521D01*
X39863054Y1296676D01*
X39878649Y1305214D01*
X39980724Y1381715D01*
X39993285Y1394276D01*
X40069786Y1496351D01*
X40078325Y1511948D01*
X40119425Y1621582D01*
X40162066Y1678347D01*
X40228628Y1703047D01*
X40297977Y1687840D01*
X40332645Y1659850D01*
X40358219Y1630326D01*
X40365580Y1623117D01*
X40529434Y1487084D01*
X40537881Y1481169D01*
X40721756Y1373721D01*
X40731042Y1369271D01*
X40930001Y1293297D01*
X40939899Y1290421D01*
X41043250Y1269394D01*
X41057299Y1270590D01*
X41061000Y1280935D01*
X41061000Y1281483D01*
X41569000Y1281483D01*
X41573064Y1267641D01*
X41586478Y1265607D01*
X41593184Y1266466D01*
X41603262Y1268608D01*
X41807255Y1329809D01*
X41816842Y1333567D01*
X42008095Y1427261D01*
X42016945Y1432536D01*
X42190328Y1556208D01*
X42198200Y1562861D01*
X42349052Y1713188D01*
X42355730Y1721035D01*
X42480003Y1893980D01*
X42485313Y1902817D01*
X42579670Y2093733D01*
X42583469Y2103328D01*
X42645377Y2307090D01*
X42647555Y2317163D01*
X42648986Y2328038D01*
X42646775Y2342222D01*
X42633617Y2346000D01*
X41587115Y2346000D01*
X41571876Y2341525D01*
X41570671Y2340135D01*
X41569000Y2332452D01*
X41569000Y1281483D01*
X41061000Y1281483D01*
X41061000Y2327885D01*
X41056525Y2343124D01*
X41055135Y2344329D01*
X41047452Y2346000D01*
X39047115Y2346000D01*
X39031876Y2341525D01*
X39030671Y2340135D01*
X39029000Y2332452D01*
X39029000Y1260116D01*
X38521000Y1260116D01*
X38521000Y2327885D01*
X38516525Y2343124D01*
X38515135Y2344329D01*
X38507452Y2346000D01*
X37435116Y2346000D01*
X37419877Y2341525D01*
X37418672Y2340135D01*
X37417001Y2332452D01*
X37417001Y1705331D01*
X3778969Y1705331D01*
X3864670Y1878733D01*
X3868469Y1888328D01*
X3930377Y2092090D01*
X3932555Y2102163D01*
X3933986Y2113038D01*
X3931775Y2127222D01*
X3918617Y2131000D01*
X2872115Y2131000D01*
X2856876Y2126525D01*
X2855671Y2125135D01*
X2854000Y2117452D01*
X2854000Y1066483D01*
X2346000Y1066483D01*
X2346000Y2112885D01*
X2341525Y2128124D01*
X2340135Y2129329D01*
X2332452Y2131000D01*
X1283225Y2131000D01*
X1269694Y2127027D01*
X1268257Y2117034D01*
X508000Y2117034D01*
X508000Y4030331D01*
X1242001Y4030331D01*
X1242371Y4023510D01*
X1247895Y3972648D01*
X1251521Y3957396D01*
X1296676Y3836946D01*
X1305214Y3821351D01*
X1381715Y3719276D01*
X1394276Y3706715D01*
X1496351Y3630214D01*
X1511946Y3621676D01*
X1621337Y3580667D01*
X1678101Y3538025D01*
X1702801Y3471464D01*
X1687594Y3402115D01*
X1668201Y3375634D01*
X1544590Y3246283D01*
X1538104Y3238273D01*
X1418098Y3062351D01*
X1413000Y3053377D01*
X1323338Y2860217D01*
X1319775Y2850530D01*
X1264389Y2650817D01*
X1265912Y2642393D01*
X1278292Y2639000D01*
X2327885Y2639000D01*
X2343124Y2643475D01*
X2344329Y2644865D01*
X2346000Y2652548D01*
X2346000Y2657115D01*
X2854000Y2657115D01*
X2858475Y2641876D01*
X2859865Y2640671D01*
X2867548Y2639000D01*
X3918344Y2639000D01*
X3931875Y2642973D01*
X3933180Y2652053D01*
X3891214Y2819125D01*
X3887894Y2828876D01*
X3877898Y2851866D01*
X20466500Y2851866D01*
X20473255Y2789684D01*
X20524385Y2653295D01*
X20611739Y2536739D01*
X20728295Y2449385D01*
X20864684Y2398255D01*
X20926866Y2391500D01*
X22723134Y2391500D01*
X22785316Y2398255D01*
X22921705Y2449385D01*
X23038261Y2536739D01*
X23125615Y2653295D01*
X23147945Y2712861D01*
X23169798Y2771152D01*
X23212440Y2827916D01*
X23279001Y2852616D01*
X23348350Y2837408D01*
X23383017Y2809420D01*
X23408218Y2780327D01*
X23415580Y2773117D01*
X23579434Y2637084D01*
X23587881Y2631169D01*
X23771756Y2523721D01*
X23781042Y2519271D01*
X23980001Y2443297D01*
X23989899Y2440421D01*
X24093250Y2419394D01*
X24107299Y2420590D01*
X24111000Y2430935D01*
X24111000Y2431483D01*
X24619000Y2431483D01*
X24623064Y2417641D01*
X24636478Y2415607D01*
X24643184Y2416466D01*
X24653262Y2418608D01*
X24857255Y2479809D01*
X24866842Y2483567D01*
X25058095Y2577261D01*
X25066945Y2582536D01*
X25240328Y2706208D01*
X25248200Y2712861D01*
X25399052Y2863188D01*
X25405730Y2871035D01*
X25530003Y3043980D01*
X25535313Y3052817D01*
X25629670Y3243733D01*
X25633469Y3253328D01*
X25695377Y3457090D01*
X25697555Y3467163D01*
X25698986Y3478038D01*
X25696775Y3492222D01*
X25683617Y3496000D01*
X24637115Y3496000D01*
X24621876Y3491525D01*
X24620671Y3490135D01*
X24619000Y3482452D01*
X24619000Y2431483D01*
X24111000Y2431483D01*
X24111000Y3532034D01*
X28778257Y3532034D01*
X28808565Y3397554D01*
X28811645Y3387725D01*
X28891770Y3190397D01*
X28896413Y3181206D01*
X29007694Y2999612D01*
X29013777Y2991301D01*
X29153213Y2830333D01*
X29160580Y2823117D01*
X29324434Y2687084D01*
X29332881Y2681169D01*
X29516756Y2573721D01*
X29526042Y2569271D01*
X29725001Y2493297D01*
X29734899Y2490421D01*
X29838250Y2469394D01*
X29852299Y2470590D01*
X29856000Y2480935D01*
X29856000Y2481483D01*
X30364000Y2481483D01*
X30368064Y2467641D01*
X30381478Y2465607D01*
X30388184Y2466466D01*
X30398262Y2468608D01*
X30602255Y2529809D01*
X30611842Y2533567D01*
X30803095Y2627261D01*
X30811945Y2632536D01*
X30985328Y2756208D01*
X30993193Y2762855D01*
X31097897Y2867195D01*
X31160268Y2901111D01*
X31231075Y2895923D01*
X31287837Y2853277D01*
X31304819Y2822174D01*
X31327057Y2762855D01*
X31349385Y2703295D01*
X31436739Y2586739D01*
X31553295Y2499385D01*
X31689684Y2448255D01*
X31751866Y2441500D01*
X33548134Y2441500D01*
X33610316Y2448255D01*
X33746705Y2499385D01*
X33863261Y2586739D01*
X33950615Y2703295D01*
X34001745Y2839684D01*
X34005268Y2872115D01*
X37417000Y2872115D01*
X37421475Y2856876D01*
X37422865Y2855671D01*
X37430548Y2854000D01*
X38502885Y2854000D01*
X38518124Y2858475D01*
X38519329Y2859865D01*
X38521000Y2867548D01*
X38521000Y2872115D01*
X39029000Y2872115D01*
X39033475Y2856876D01*
X39034865Y2855671D01*
X39042548Y2854000D01*
X41042885Y2854000D01*
X41058124Y2858475D01*
X41059329Y2859865D01*
X41061000Y2867548D01*
X41061000Y2872115D01*
X41569000Y2872115D01*
X41573475Y2856876D01*
X41574865Y2855671D01*
X41582548Y2854000D01*
X42633344Y2854000D01*
X42646875Y2857973D01*
X42648180Y2867053D01*
X42606214Y3034125D01*
X42602894Y3043876D01*
X42517972Y3239186D01*
X42513105Y3248261D01*
X42397426Y3427074D01*
X42391136Y3435243D01*
X42247806Y3592760D01*
X42240273Y3599785D01*
X42073139Y3731778D01*
X42064552Y3737483D01*
X41878117Y3840401D01*
X41868705Y3844631D01*
X41667959Y3915720D01*
X41657988Y3918354D01*
X41586837Y3931028D01*
X41573540Y3929568D01*
X41569000Y3915011D01*
X41569000Y2872115D01*
X41061000Y2872115D01*
X41061000Y3916898D01*
X41057082Y3930242D01*
X41042806Y3932229D01*
X41004324Y3926340D01*
X40994288Y3923949D01*
X40791868Y3857788D01*
X40782359Y3853791D01*
X40593463Y3755458D01*
X40584738Y3749964D01*
X40414433Y3622095D01*
X40406726Y3615252D01*
X40329094Y3534015D01*
X40267570Y3498585D01*
X40196657Y3502042D01*
X40138871Y3543288D01*
X40120018Y3576836D01*
X40078324Y3688054D01*
X40069786Y3703649D01*
X39993285Y3805724D01*
X39980724Y3818285D01*
X39878649Y3894786D01*
X39863054Y3903324D01*
X39742606Y3948478D01*
X39727351Y3952105D01*
X39676486Y3957631D01*
X39669672Y3958000D01*
X39047115Y3958000D01*
X39031876Y3953525D01*
X39030671Y3952135D01*
X39029000Y3944452D01*
X39029000Y2872115D01*
X38521000Y2872115D01*
X38521000Y3939884D01*
X38516525Y3955123D01*
X38515135Y3956328D01*
X38507452Y3957999D01*
X37880331Y3957999D01*
X37873510Y3957629D01*
X37822648Y3952105D01*
X37807396Y3948479D01*
X37686946Y3903324D01*
X37671351Y3894786D01*
X37569276Y3818285D01*
X37556715Y3805724D01*
X37480214Y3703649D01*
X37471676Y3688054D01*
X37426522Y3567606D01*
X37422895Y3552351D01*
X37417369Y3501486D01*
X37417000Y3494672D01*
X37417000Y2872115D01*
X34005268Y2872115D01*
X34008500Y2901866D01*
X34008500Y4698134D01*
X34001745Y4760316D01*
X33950615Y4896705D01*
X33863261Y5013261D01*
X33746705Y5100615D01*
X33610316Y5151745D01*
X33548134Y5158500D01*
X31751866Y5158500D01*
X31689684Y5151745D01*
X31553295Y5100615D01*
X31436739Y5013261D01*
X31349385Y4896705D01*
X31346233Y4888297D01*
X31346232Y4888295D01*
X31304722Y4777567D01*
X31262081Y4720802D01*
X31195519Y4696102D01*
X31126170Y4711309D01*
X31093546Y4736996D01*
X31042799Y4792766D01*
X31035273Y4799785D01*
X30868139Y4931778D01*
X30859552Y4937483D01*
X30673117Y5040401D01*
X30663705Y5044631D01*
X30462959Y5115720D01*
X30452988Y5118354D01*
X30381837Y5131028D01*
X30368540Y5129568D01*
X30364000Y5115011D01*
X30364000Y2481483D01*
X29856000Y2481483D01*
X29856000Y3527885D01*
X29851525Y3543124D01*
X29850135Y3544329D01*
X29842452Y3546000D01*
X28793225Y3546000D01*
X28779694Y3542027D01*
X28778257Y3532034D01*
X24111000Y3532034D01*
X24111000Y4022115D01*
X24619000Y4022115D01*
X24623475Y4006876D01*
X24624865Y4005671D01*
X24632548Y4004000D01*
X25683344Y4004000D01*
X25696875Y4007973D01*
X25698180Y4017053D01*
X25685931Y4065817D01*
X28774389Y4065817D01*
X28775912Y4057393D01*
X28788292Y4054000D01*
X29837885Y4054000D01*
X29853124Y4058475D01*
X29854329Y4059865D01*
X29856000Y4067548D01*
X29856000Y5116898D01*
X29852082Y5130242D01*
X29837806Y5132229D01*
X29799324Y5126340D01*
X29789288Y5123949D01*
X29586868Y5057788D01*
X29577359Y5053791D01*
X29388463Y4955458D01*
X29379738Y4949964D01*
X29209433Y4822095D01*
X29201726Y4815252D01*
X29054590Y4661283D01*
X29048104Y4653273D01*
X28928098Y4477351D01*
X28923000Y4468377D01*
X28833338Y4275217D01*
X28829775Y4265530D01*
X28774389Y4065817D01*
X25685931Y4065817D01*
X25656214Y4184125D01*
X25652894Y4193876D01*
X25567972Y4389186D01*
X25563105Y4398261D01*
X25447426Y4577074D01*
X25441136Y4585243D01*
X25297806Y4742760D01*
X25290273Y4749785D01*
X25123139Y4881778D01*
X25114552Y4887483D01*
X24928117Y4990401D01*
X24918705Y4994631D01*
X24717959Y5065720D01*
X24707988Y5068354D01*
X24636837Y5081028D01*
X24623540Y5079568D01*
X24619000Y5065011D01*
X24619000Y4022115D01*
X24111000Y4022115D01*
X24111000Y5066898D01*
X24107082Y5080242D01*
X24092806Y5082229D01*
X24054324Y5076340D01*
X24044288Y5073949D01*
X23841868Y5007788D01*
X23832359Y5003791D01*
X23643463Y4905458D01*
X23634738Y4899964D01*
X23464433Y4772095D01*
X23456726Y4765252D01*
X23379478Y4684416D01*
X23317954Y4648986D01*
X23247042Y4652443D01*
X23189255Y4693689D01*
X23170402Y4727237D01*
X23128767Y4838297D01*
X23125615Y4846705D01*
X23038261Y4963261D01*
X22921705Y5050615D01*
X22785316Y5101745D01*
X22723134Y5108500D01*
X20926866Y5108500D01*
X20864684Y5101745D01*
X20728295Y5050615D01*
X20611739Y4963261D01*
X20524385Y4846705D01*
X20473255Y4710316D01*
X20466500Y4648134D01*
X20466500Y2851866D01*
X3877898Y2851866D01*
X3802972Y3024186D01*
X3798105Y3033261D01*
X3682426Y3212074D01*
X3676136Y3220243D01*
X3531931Y3378721D01*
X3500879Y3442567D01*
X3509273Y3513066D01*
X3554450Y3567834D01*
X3580894Y3581503D01*
X3688054Y3621676D01*
X3703649Y3630214D01*
X3805724Y3706715D01*
X3818285Y3719276D01*
X3894786Y3821351D01*
X3903324Y3836946D01*
X3948478Y3957394D01*
X3952105Y3972649D01*
X3957631Y4023514D01*
X3958000Y4030328D01*
X3958000Y4652885D01*
X3953525Y4668124D01*
X3952135Y4669329D01*
X3944452Y4671000D01*
X2872115Y4671000D01*
X2856876Y4666525D01*
X2855671Y4665135D01*
X2854000Y4657452D01*
X2854000Y2657115D01*
X2346000Y2657115D01*
X2346000Y4652885D01*
X2341525Y4668124D01*
X2340135Y4669329D01*
X2332452Y4671000D01*
X1260116Y4671000D01*
X1244877Y4666525D01*
X1243672Y4665135D01*
X1242001Y4657452D01*
X1242001Y4030331D01*
X508000Y4030331D01*
X508000Y5197115D01*
X1242000Y5197115D01*
X1246475Y5181876D01*
X1247865Y5180671D01*
X1255548Y5179000D01*
X2327885Y5179000D01*
X2343124Y5183475D01*
X2344329Y5184865D01*
X2346000Y5192548D01*
X2346000Y5197115D01*
X2854000Y5197115D01*
X2858475Y5181876D01*
X2859865Y5180671D01*
X2867548Y5179000D01*
X3939884Y5179000D01*
X3955123Y5183475D01*
X3956328Y5184865D01*
X3957999Y5192548D01*
X3957999Y5819669D01*
X3957629Y5826490D01*
X3952105Y5877352D01*
X3948479Y5892604D01*
X3903324Y6013054D01*
X3894786Y6028649D01*
X3818285Y6130724D01*
X3805724Y6143285D01*
X3703649Y6219786D01*
X3688054Y6228324D01*
X3567606Y6273478D01*
X3552351Y6277105D01*
X3501486Y6282631D01*
X3494672Y6283000D01*
X2872115Y6283000D01*
X2856876Y6278525D01*
X2855671Y6277135D01*
X2854000Y6269452D01*
X2854000Y5197115D01*
X2346000Y5197115D01*
X2346000Y6264884D01*
X2341525Y6280123D01*
X2340135Y6281328D01*
X2332452Y6282999D01*
X1705331Y6282999D01*
X1698510Y6282629D01*
X1647648Y6277105D01*
X1632396Y6273479D01*
X1511946Y6228324D01*
X1496351Y6219786D01*
X1394276Y6143285D01*
X1381715Y6130724D01*
X1305214Y6028649D01*
X1296676Y6013054D01*
X1251522Y5892606D01*
X1247895Y5877351D01*
X1242369Y5826486D01*
X1242000Y5819672D01*
X1242000Y5197115D01*
X508000Y5197115D01*
X508000Y12050000D01*
X3836496Y12050000D01*
X3837186Y12043435D01*
X3855129Y11872721D01*
X3856458Y11860072D01*
X3915473Y11678444D01*
X3918776Y11672722D01*
X3918777Y11672721D01*
X3936155Y11642622D01*
X4010960Y11513056D01*
X4015378Y11508149D01*
X4015379Y11508148D01*
X4129678Y11381206D01*
X4138747Y11371134D01*
X4293248Y11258882D01*
X4299276Y11256198D01*
X4299278Y11256197D01*
X4461681Y11183891D01*
X4467712Y11181206D01*
X4561112Y11161353D01*
X4648056Y11142872D01*
X4648061Y11142872D01*
X4654513Y11141500D01*
X4845487Y11141500D01*
X4851939Y11142872D01*
X4851944Y11142872D01*
X4938887Y11161353D01*
X5032288Y11181206D01*
X5038319Y11183891D01*
X5200722Y11256197D01*
X5200724Y11256198D01*
X5206752Y11258882D01*
X5361253Y11371134D01*
X5370322Y11381206D01*
X5484621Y11508148D01*
X5484622Y11508149D01*
X5489040Y11513056D01*
X5581788Y11673700D01*
X5633171Y11722693D01*
X5690907Y11736700D01*
X9716287Y11736700D01*
X9767536Y11725807D01*
X9848722Y11689661D01*
X9867712Y11681206D01*
X9961112Y11661353D01*
X10048056Y11642872D01*
X10048061Y11642872D01*
X10054513Y11641500D01*
X10245487Y11641500D01*
X10251939Y11642872D01*
X10251944Y11642872D01*
X10338887Y11661353D01*
X10432288Y11681206D01*
X10442220Y11685628D01*
X10600722Y11756197D01*
X10600724Y11756198D01*
X10606752Y11758882D01*
X10761253Y11871134D01*
X10889040Y12013056D01*
X10984527Y12178444D01*
X11007777Y12250000D01*
X27336496Y12250000D01*
X27356458Y12060072D01*
X27415473Y11878444D01*
X27510960Y11713056D01*
X27515378Y11708149D01*
X27515379Y11708148D01*
X27578738Y11637781D01*
X27638747Y11571134D01*
X27793248Y11458882D01*
X27799276Y11456198D01*
X27799278Y11456197D01*
X27961681Y11383891D01*
X27967712Y11381206D01*
X28033365Y11367251D01*
X28148056Y11342872D01*
X28148061Y11342872D01*
X28154513Y11341500D01*
X28345487Y11341500D01*
X28351939Y11342872D01*
X28351944Y11342872D01*
X28466635Y11367251D01*
X28532288Y11381206D01*
X28538319Y11383891D01*
X28700722Y11456197D01*
X28700724Y11456198D01*
X28706752Y11458882D01*
X28861253Y11571134D01*
X28885634Y11598212D01*
X28946077Y11635450D01*
X28979268Y11639900D01*
X36674322Y11639900D01*
X36684874Y11639402D01*
X36692128Y11637781D01*
X36757595Y11639838D01*
X36761552Y11639900D01*
X36788383Y11639900D01*
X36792310Y11640396D01*
X36793216Y11640453D01*
X36803860Y11641292D01*
X36846199Y11642622D01*
X36864586Y11647964D01*
X36883943Y11651972D01*
X36895065Y11653377D01*
X36895066Y11653377D01*
X36902932Y11654371D01*
X36913504Y11658556D01*
X36942318Y11669964D01*
X36953545Y11673808D01*
X36986609Y11683415D01*
X36986611Y11683416D01*
X36994225Y11685628D01*
X37010705Y11695374D01*
X37028445Y11704065D01*
X37046254Y11711116D01*
X37080532Y11736020D01*
X37090452Y11742536D01*
X37120079Y11760057D01*
X37120082Y11760059D01*
X37126906Y11764095D01*
X37140433Y11777622D01*
X37155467Y11790463D01*
X37164547Y11797060D01*
X37164548Y11797061D01*
X37170962Y11801721D01*
X37197969Y11834367D01*
X37205959Y11843148D01*
X38017408Y12654596D01*
X38079720Y12688621D01*
X38106503Y12691500D01*
X38195487Y12691500D01*
X38201939Y12692872D01*
X38201944Y12692872D01*
X38288887Y12711353D01*
X38382288Y12731206D01*
X38415979Y12746206D01*
X38550722Y12806197D01*
X38550724Y12806198D01*
X38556752Y12808882D01*
X38711253Y12921134D01*
X38724668Y12936033D01*
X38834621Y13058148D01*
X38834622Y13058149D01*
X38839040Y13063056D01*
X38934527Y13228444D01*
X38993542Y13410072D01*
X39013504Y13600000D01*
X38993542Y13789928D01*
X38934527Y13971556D01*
X38839040Y14136944D01*
X38711253Y14278866D01*
X38556752Y14391118D01*
X38550724Y14393802D01*
X38550722Y14393803D01*
X38388319Y14466109D01*
X38388318Y14466109D01*
X38382288Y14468794D01*
X38288887Y14488647D01*
X38201944Y14507128D01*
X38201939Y14507128D01*
X38195487Y14508500D01*
X38004513Y14508500D01*
X37998061Y14507128D01*
X37998056Y14507128D01*
X37911112Y14488647D01*
X37817712Y14468794D01*
X37811682Y14466109D01*
X37811681Y14466109D01*
X37649278Y14393803D01*
X37649276Y14393802D01*
X37643248Y14391118D01*
X37488747Y14278866D01*
X37360960Y14136944D01*
X37265473Y13971556D01*
X37206458Y13789928D01*
X37186496Y13600000D01*
X37186509Y13599881D01*
X37167184Y13534067D01*
X37150281Y13513093D01*
X36534193Y12897005D01*
X36471881Y12862979D01*
X36445098Y12860100D01*
X28979268Y12860100D01*
X28911147Y12880102D01*
X28885636Y12901785D01*
X28861253Y12928866D01*
X28706752Y13041118D01*
X28700724Y13043802D01*
X28700722Y13043803D01*
X28538319Y13116109D01*
X28538318Y13116109D01*
X28532288Y13118794D01*
X28438887Y13138647D01*
X28351944Y13157128D01*
X28351939Y13157128D01*
X28345487Y13158500D01*
X28154513Y13158500D01*
X28148061Y13157128D01*
X28148056Y13157128D01*
X28061112Y13138647D01*
X27967712Y13118794D01*
X27961682Y13116109D01*
X27961681Y13116109D01*
X27799278Y13043803D01*
X27799276Y13043802D01*
X27793248Y13041118D01*
X27638747Y12928866D01*
X27634326Y12923956D01*
X27634325Y12923955D01*
X27534208Y12812763D01*
X27510960Y12786944D01*
X27415473Y12621556D01*
X27356458Y12439928D01*
X27355768Y12433367D01*
X27355768Y12433365D01*
X27354527Y12421556D01*
X27336496Y12250000D01*
X11007777Y12250000D01*
X11043542Y12360072D01*
X11063504Y12550000D01*
X11043542Y12739928D01*
X10984527Y12921556D01*
X10889040Y13086944D01*
X10823394Y13159852D01*
X10765675Y13223955D01*
X10765674Y13223956D01*
X10761253Y13228866D01*
X10606752Y13341118D01*
X10600724Y13343802D01*
X10600722Y13343803D01*
X10438319Y13416109D01*
X10438318Y13416109D01*
X10432288Y13418794D01*
X10338887Y13438647D01*
X10251944Y13457128D01*
X10251939Y13457128D01*
X10245487Y13458500D01*
X10054513Y13458500D01*
X10048061Y13457128D01*
X10048056Y13457128D01*
X9961112Y13438647D01*
X9867712Y13418794D01*
X9861682Y13416109D01*
X9861681Y13416109D01*
X9767536Y13374193D01*
X9716287Y13363300D01*
X5259263Y13363300D01*
X5257944Y13363307D01*
X5167291Y13364256D01*
X5160405Y13362767D01*
X5160403Y13362767D01*
X5141670Y13358716D01*
X5124630Y13355032D01*
X5112051Y13352972D01*
X5075671Y13348892D01*
X5075668Y13348891D01*
X5068675Y13348107D01*
X5037460Y13337237D01*
X5036774Y13336998D01*
X5021964Y13332836D01*
X4995839Y13327188D01*
X4995836Y13327187D01*
X4988949Y13325698D01*
X4982562Y13322720D01*
X4982560Y13322719D01*
X4949390Y13307251D01*
X4937581Y13302455D01*
X4896361Y13288101D01*
X4890386Y13284367D01*
X4890381Y13284365D01*
X4867720Y13270205D01*
X4854201Y13262864D01*
X4829963Y13251562D01*
X4829959Y13251560D01*
X4823582Y13248586D01*
X4818023Y13244274D01*
X4818015Y13244269D01*
X4789092Y13221833D01*
X4778634Y13214537D01*
X4741624Y13191411D01*
X4736624Y13186445D01*
X4736622Y13186444D01*
X4712656Y13162644D01*
X4712018Y13162047D01*
X4711347Y13161527D01*
X4685089Y13135269D01*
X4618129Y13068774D01*
X4612154Y13062841D01*
X4611494Y13061800D01*
X4610385Y13060565D01*
X4485853Y12936033D01*
X4448007Y12910021D01*
X4299278Y12843803D01*
X4299276Y12843802D01*
X4293248Y12841118D01*
X4138747Y12728866D01*
X4134326Y12723956D01*
X4134325Y12723955D01*
X4105103Y12691500D01*
X4010960Y12586944D01*
X3915473Y12421556D01*
X3856458Y12239928D01*
X3836496Y12050000D01*
X508000Y12050000D01*
X508000Y18660000D01*
X9836835Y18660000D01*
X9855465Y18423289D01*
X9910895Y18192406D01*
X10001760Y17973037D01*
X10004346Y17968817D01*
X10123241Y17774798D01*
X10123245Y17774792D01*
X10125824Y17770584D01*
X10280031Y17590031D01*
X10460584Y17435824D01*
X10464792Y17433245D01*
X10464798Y17433241D01*
X10645039Y17322789D01*
X10663037Y17311760D01*
X10667607Y17309867D01*
X10667611Y17309865D01*
X10877833Y17222789D01*
X10882406Y17220895D01*
X10962609Y17201640D01*
X11108476Y17166620D01*
X11108482Y17166619D01*
X11113289Y17165465D01*
X11350000Y17146835D01*
X11586711Y17165465D01*
X11591518Y17166619D01*
X11591524Y17166620D01*
X11737391Y17201640D01*
X11817594Y17220895D01*
X11822167Y17222789D01*
X12032389Y17309865D01*
X12032393Y17309867D01*
X12036963Y17311760D01*
X12054961Y17322789D01*
X12235202Y17433241D01*
X12235208Y17433245D01*
X12239416Y17435824D01*
X12419969Y17590031D01*
X12574176Y17770584D01*
X12576755Y17774792D01*
X12576759Y17774798D01*
X12695654Y17968817D01*
X12698240Y17973037D01*
X12789105Y18192406D01*
X12844535Y18423289D01*
X12863165Y18660000D01*
X21536835Y18660000D01*
X21555465Y18423289D01*
X21610895Y18192406D01*
X21701760Y17973037D01*
X21704346Y17968817D01*
X21823241Y17774798D01*
X21823245Y17774792D01*
X21825824Y17770584D01*
X21980031Y17590031D01*
X22160584Y17435824D01*
X22164792Y17433245D01*
X22164798Y17433241D01*
X22345039Y17322789D01*
X22363037Y17311760D01*
X22367607Y17309867D01*
X22367611Y17309865D01*
X22577833Y17222789D01*
X22582406Y17220895D01*
X22662609Y17201640D01*
X22808476Y17166620D01*
X22808482Y17166619D01*
X22813289Y17165465D01*
X23050000Y17146835D01*
X23286711Y17165465D01*
X23291518Y17166619D01*
X23291524Y17166620D01*
X23437391Y17201640D01*
X23517594Y17220895D01*
X23522167Y17222789D01*
X23732389Y17309865D01*
X23732393Y17309867D01*
X23736963Y17311760D01*
X23754961Y17322789D01*
X23935202Y17433241D01*
X23935208Y17433245D01*
X23939416Y17435824D01*
X24119969Y17590031D01*
X24274176Y17770584D01*
X24276755Y17774792D01*
X24276759Y17774798D01*
X24395654Y17968817D01*
X24398240Y17973037D01*
X24489105Y18192406D01*
X24544535Y18423289D01*
X24563165Y18660000D01*
X24555295Y18760000D01*
X33436835Y18760000D01*
X33455465Y18523289D01*
X33510895Y18292406D01*
X33601760Y18073037D01*
X33604346Y18068817D01*
X33723241Y17874798D01*
X33723245Y17874792D01*
X33725824Y17870584D01*
X33880031Y17690031D01*
X34060584Y17535824D01*
X34064792Y17533245D01*
X34064798Y17533241D01*
X34218528Y17439035D01*
X34263037Y17411760D01*
X34267607Y17409867D01*
X34267611Y17409865D01*
X34477833Y17322789D01*
X34482406Y17320895D01*
X34562609Y17301640D01*
X34708476Y17266620D01*
X34708482Y17266619D01*
X34713289Y17265465D01*
X34950000Y17246835D01*
X35186711Y17265465D01*
X35191518Y17266619D01*
X35191524Y17266620D01*
X35337391Y17301640D01*
X35417594Y17320895D01*
X35422167Y17322789D01*
X35632389Y17409865D01*
X35632393Y17409867D01*
X35636963Y17411760D01*
X35681472Y17439035D01*
X35835202Y17533241D01*
X35835208Y17533245D01*
X35839416Y17535824D01*
X36019969Y17690031D01*
X36174176Y17870584D01*
X36176755Y17874792D01*
X36176759Y17874798D01*
X36295654Y18068817D01*
X36298240Y18073037D01*
X36389105Y18292406D01*
X36444535Y18523289D01*
X36463165Y18760000D01*
X36444535Y18996711D01*
X36389105Y19227594D01*
X36298240Y19446963D01*
X36238039Y19545202D01*
X36176759Y19645202D01*
X36176755Y19645208D01*
X36174176Y19649416D01*
X36019969Y19829969D01*
X35839416Y19984176D01*
X35835208Y19986755D01*
X35835202Y19986759D01*
X35641183Y20105654D01*
X35636963Y20108240D01*
X35632393Y20110133D01*
X35632389Y20110135D01*
X35422167Y20197211D01*
X35422165Y20197212D01*
X35417594Y20199105D01*
X35337391Y20218360D01*
X35191524Y20253380D01*
X35191518Y20253381D01*
X35186711Y20254535D01*
X34950000Y20273165D01*
X34713289Y20254535D01*
X34708482Y20253381D01*
X34708476Y20253380D01*
X34562609Y20218360D01*
X34482406Y20199105D01*
X34477835Y20197212D01*
X34477833Y20197211D01*
X34267611Y20110135D01*
X34267607Y20110133D01*
X34263037Y20108240D01*
X34258817Y20105654D01*
X34064798Y19986759D01*
X34064792Y19986755D01*
X34060584Y19984176D01*
X33880031Y19829969D01*
X33725824Y19649416D01*
X33723245Y19645208D01*
X33723241Y19645202D01*
X33661961Y19545202D01*
X33601760Y19446963D01*
X33510895Y19227594D01*
X33455465Y18996711D01*
X33436835Y18760000D01*
X24555295Y18760000D01*
X24544535Y18896711D01*
X24489105Y19127594D01*
X24398240Y19346963D01*
X24334374Y19451183D01*
X24276759Y19545202D01*
X24276755Y19545208D01*
X24274176Y19549416D01*
X24119969Y19729969D01*
X23939416Y19884176D01*
X23935208Y19886755D01*
X23935202Y19886759D01*
X23741183Y20005654D01*
X23736963Y20008240D01*
X23732393Y20010133D01*
X23732389Y20010135D01*
X23522167Y20097211D01*
X23522165Y20097212D01*
X23517594Y20099105D01*
X23437391Y20118360D01*
X23291524Y20153380D01*
X23291518Y20153381D01*
X23286711Y20154535D01*
X23050000Y20173165D01*
X22813289Y20154535D01*
X22808482Y20153381D01*
X22808476Y20153380D01*
X22662609Y20118360D01*
X22582406Y20099105D01*
X22577835Y20097212D01*
X22577833Y20097211D01*
X22367611Y20010135D01*
X22367607Y20010133D01*
X22363037Y20008240D01*
X22358817Y20005654D01*
X22164798Y19886759D01*
X22164792Y19886755D01*
X22160584Y19884176D01*
X21980031Y19729969D01*
X21825824Y19549416D01*
X21823245Y19545208D01*
X21823241Y19545202D01*
X21765626Y19451183D01*
X21701760Y19346963D01*
X21610895Y19127594D01*
X21555465Y18896711D01*
X21536835Y18660000D01*
X12863165Y18660000D01*
X12844535Y18896711D01*
X12789105Y19127594D01*
X12698240Y19346963D01*
X12634374Y19451183D01*
X12576759Y19545202D01*
X12576755Y19545208D01*
X12574176Y19549416D01*
X12419969Y19729969D01*
X12239416Y19884176D01*
X12235208Y19886755D01*
X12235202Y19886759D01*
X12041183Y20005654D01*
X12036963Y20008240D01*
X12032393Y20010133D01*
X12032389Y20010135D01*
X11822167Y20097211D01*
X11822165Y20097212D01*
X11817594Y20099105D01*
X11737391Y20118360D01*
X11591524Y20153380D01*
X11591518Y20153381D01*
X11586711Y20154535D01*
X11350000Y20173165D01*
X11113289Y20154535D01*
X11108482Y20153381D01*
X11108476Y20153380D01*
X10962609Y20118360D01*
X10882406Y20099105D01*
X10877835Y20097212D01*
X10877833Y20097211D01*
X10667611Y20010135D01*
X10667607Y20010133D01*
X10663037Y20008240D01*
X10658817Y20005654D01*
X10464798Y19886759D01*
X10464792Y19886755D01*
X10460584Y19884176D01*
X10280031Y19729969D01*
X10125824Y19549416D01*
X10123245Y19545208D01*
X10123241Y19545202D01*
X10065626Y19451183D01*
X10001760Y19346963D01*
X9910895Y19127594D01*
X9855465Y18896711D01*
X9836835Y18660000D01*
X508000Y18660000D01*
X508000Y23740000D01*
X9836835Y23740000D01*
X9855465Y23503289D01*
X9910895Y23272406D01*
X10001760Y23053037D01*
X10004346Y23048817D01*
X10123241Y22854798D01*
X10123245Y22854792D01*
X10125824Y22850584D01*
X10280031Y22670031D01*
X10460584Y22515824D01*
X10464792Y22513245D01*
X10464798Y22513241D01*
X10645039Y22402789D01*
X10663037Y22391760D01*
X10667607Y22389867D01*
X10667611Y22389865D01*
X10877833Y22302789D01*
X10882406Y22300895D01*
X10962609Y22281640D01*
X11108476Y22246620D01*
X11108482Y22246619D01*
X11113289Y22245465D01*
X11350000Y22226835D01*
X11586711Y22245465D01*
X11591518Y22246619D01*
X11591524Y22246620D01*
X11737391Y22281640D01*
X11817594Y22300895D01*
X11822167Y22302789D01*
X12032389Y22389865D01*
X12032393Y22389867D01*
X12036963Y22391760D01*
X12054961Y22402789D01*
X12235202Y22513241D01*
X12235208Y22513245D01*
X12239416Y22515824D01*
X12419969Y22670031D01*
X12574176Y22850584D01*
X12576755Y22854792D01*
X12576759Y22854798D01*
X12695654Y23048817D01*
X12698240Y23053037D01*
X12789105Y23272406D01*
X12844535Y23503289D01*
X12863165Y23740000D01*
X21536835Y23740000D01*
X21555465Y23503289D01*
X21610895Y23272406D01*
X21701760Y23053037D01*
X21704346Y23048817D01*
X21823241Y22854798D01*
X21823245Y22854792D01*
X21825824Y22850584D01*
X21980031Y22670031D01*
X22160584Y22515824D01*
X22164792Y22513245D01*
X22164798Y22513241D01*
X22345039Y22402789D01*
X22363037Y22391760D01*
X22367607Y22389867D01*
X22367611Y22389865D01*
X22577833Y22302789D01*
X22582406Y22300895D01*
X22662609Y22281640D01*
X22808476Y22246620D01*
X22808482Y22246619D01*
X22813289Y22245465D01*
X23050000Y22226835D01*
X23286711Y22245465D01*
X23291518Y22246619D01*
X23291524Y22246620D01*
X23437391Y22281640D01*
X23517594Y22300895D01*
X23522167Y22302789D01*
X23732389Y22389865D01*
X23732393Y22389867D01*
X23736963Y22391760D01*
X23754961Y22402789D01*
X23935202Y22513241D01*
X23935208Y22513245D01*
X23939416Y22515824D01*
X24119969Y22670031D01*
X24274176Y22850584D01*
X24276755Y22854792D01*
X24276759Y22854798D01*
X24395654Y23048817D01*
X24398240Y23053037D01*
X24489105Y23272406D01*
X24544535Y23503289D01*
X24563165Y23740000D01*
X24555295Y23840000D01*
X33436835Y23840000D01*
X33455465Y23603289D01*
X33510895Y23372406D01*
X33601760Y23153037D01*
X33604346Y23148817D01*
X33723241Y22954798D01*
X33723245Y22954792D01*
X33725824Y22950584D01*
X33880031Y22770031D01*
X34060584Y22615824D01*
X34064792Y22613245D01*
X34064798Y22613241D01*
X34218528Y22519035D01*
X34263037Y22491760D01*
X34267607Y22489867D01*
X34267611Y22489865D01*
X34477833Y22402789D01*
X34482406Y22400895D01*
X34562609Y22381640D01*
X34708476Y22346620D01*
X34708482Y22346619D01*
X34713289Y22345465D01*
X34950000Y22326835D01*
X35186711Y22345465D01*
X35191518Y22346619D01*
X35191524Y22346620D01*
X35337391Y22381640D01*
X35417594Y22400895D01*
X35422167Y22402789D01*
X35632389Y22489865D01*
X35632393Y22489867D01*
X35636963Y22491760D01*
X35681472Y22519035D01*
X35835202Y22613241D01*
X35835208Y22613245D01*
X35839416Y22615824D01*
X36019969Y22770031D01*
X36174176Y22950584D01*
X36176755Y22954792D01*
X36176759Y22954798D01*
X36295654Y23148817D01*
X36298240Y23153037D01*
X36389105Y23372406D01*
X36444535Y23603289D01*
X36463165Y23840000D01*
X36444535Y24076711D01*
X36389105Y24307594D01*
X36298240Y24526963D01*
X36238039Y24625202D01*
X36176759Y24725202D01*
X36176755Y24725208D01*
X36174176Y24729416D01*
X36019969Y24909969D01*
X35839416Y25064176D01*
X35835208Y25066755D01*
X35835202Y25066759D01*
X35641183Y25185654D01*
X35636963Y25188240D01*
X35632393Y25190133D01*
X35632389Y25190135D01*
X35422167Y25277211D01*
X35422165Y25277212D01*
X35417594Y25279105D01*
X35337391Y25298360D01*
X35191524Y25333380D01*
X35191518Y25333381D01*
X35186711Y25334535D01*
X34950000Y25353165D01*
X34713289Y25334535D01*
X34708482Y25333381D01*
X34708476Y25333380D01*
X34562609Y25298360D01*
X34482406Y25279105D01*
X34477835Y25277212D01*
X34477833Y25277211D01*
X34267611Y25190135D01*
X34267607Y25190133D01*
X34263037Y25188240D01*
X34258817Y25185654D01*
X34064798Y25066759D01*
X34064792Y25066755D01*
X34060584Y25064176D01*
X33880031Y24909969D01*
X33725824Y24729416D01*
X33723245Y24725208D01*
X33723241Y24725202D01*
X33661961Y24625202D01*
X33601760Y24526963D01*
X33510895Y24307594D01*
X33455465Y24076711D01*
X33436835Y23840000D01*
X24555295Y23840000D01*
X24544535Y23976711D01*
X24489105Y24207594D01*
X24398240Y24426963D01*
X24334374Y24531183D01*
X24276759Y24625202D01*
X24276755Y24625208D01*
X24274176Y24629416D01*
X24119969Y24809969D01*
X23939416Y24964176D01*
X23935208Y24966755D01*
X23935202Y24966759D01*
X23741183Y25085654D01*
X23736963Y25088240D01*
X23732393Y25090133D01*
X23732389Y25090135D01*
X23522167Y25177211D01*
X23522165Y25177212D01*
X23517594Y25179105D01*
X23437391Y25198360D01*
X23291524Y25233380D01*
X23291518Y25233381D01*
X23286711Y25234535D01*
X23050000Y25253165D01*
X22813289Y25234535D01*
X22808482Y25233381D01*
X22808476Y25233380D01*
X22662609Y25198360D01*
X22582406Y25179105D01*
X22577835Y25177212D01*
X22577833Y25177211D01*
X22367611Y25090135D01*
X22367607Y25090133D01*
X22363037Y25088240D01*
X22358817Y25085654D01*
X22164798Y24966759D01*
X22164792Y24966755D01*
X22160584Y24964176D01*
X21980031Y24809969D01*
X21825824Y24629416D01*
X21823245Y24625208D01*
X21823241Y24625202D01*
X21765626Y24531183D01*
X21701760Y24426963D01*
X21610895Y24207594D01*
X21555465Y23976711D01*
X21536835Y23740000D01*
X12863165Y23740000D01*
X12844535Y23976711D01*
X12789105Y24207594D01*
X12698240Y24426963D01*
X12634374Y24531183D01*
X12576759Y24625202D01*
X12576755Y24625208D01*
X12574176Y24629416D01*
X12419969Y24809969D01*
X12239416Y24964176D01*
X12235208Y24966755D01*
X12235202Y24966759D01*
X12041183Y25085654D01*
X12036963Y25088240D01*
X12032393Y25090133D01*
X12032389Y25090135D01*
X11822167Y25177211D01*
X11822165Y25177212D01*
X11817594Y25179105D01*
X11737391Y25198360D01*
X11591524Y25233380D01*
X11591518Y25233381D01*
X11586711Y25234535D01*
X11350000Y25253165D01*
X11113289Y25234535D01*
X11108482Y25233381D01*
X11108476Y25233380D01*
X10962609Y25198360D01*
X10882406Y25179105D01*
X10877835Y25177212D01*
X10877833Y25177211D01*
X10667611Y25090135D01*
X10667607Y25090133D01*
X10663037Y25088240D01*
X10658817Y25085654D01*
X10464798Y24966759D01*
X10464792Y24966755D01*
X10460584Y24964176D01*
X10280031Y24809969D01*
X10125824Y24629416D01*
X10123245Y24625208D01*
X10123241Y24625202D01*
X10065626Y24531183D01*
X10001760Y24426963D01*
X9910895Y24207594D01*
X9855465Y23976711D01*
X9836835Y23740000D01*
X508000Y23740000D01*
X508000Y25866000D01*
X528002Y25934121D01*
X581658Y25980614D01*
X634000Y25992000D01*
X2327885Y25992000D01*
X2343124Y25996475D01*
X2344329Y25997865D01*
X2346000Y26005548D01*
X2346000Y26010116D01*
X2854000Y26010116D01*
X2858475Y25994877D01*
X2859865Y25993672D01*
X2867548Y25992001D01*
X4744669Y25992001D01*
X4751490Y25992371D01*
X4802352Y25997895D01*
X4817604Y26001521D01*
X4938054Y26046676D01*
X4953649Y26055214D01*
X5055724Y26131715D01*
X5068285Y26144276D01*
X5144786Y26246351D01*
X5153324Y26261946D01*
X5198478Y26382394D01*
X5202105Y26397649D01*
X5207631Y26448514D01*
X5208000Y26455328D01*
X5208000Y26455331D01*
X38792001Y26455331D01*
X38792371Y26448510D01*
X38797895Y26397648D01*
X38801521Y26382396D01*
X38846676Y26261946D01*
X38855214Y26246351D01*
X38931715Y26144276D01*
X38944276Y26131715D01*
X39046351Y26055214D01*
X39061946Y26046676D01*
X39182394Y26001522D01*
X39197649Y25997895D01*
X39248514Y25992369D01*
X39255328Y25992000D01*
X41127885Y25992000D01*
X41143124Y25996475D01*
X41144329Y25997865D01*
X41146000Y26005548D01*
X41146000Y26902885D01*
X41141525Y26918124D01*
X41140135Y26919329D01*
X41132452Y26921000D01*
X38810116Y26921000D01*
X38794877Y26916525D01*
X38793672Y26915135D01*
X38792001Y26907452D01*
X38792001Y26455331D01*
X5208000Y26455331D01*
X5208000Y26902885D01*
X5203525Y26918124D01*
X5202135Y26919329D01*
X5194452Y26921000D01*
X2872115Y26921000D01*
X2856876Y26916525D01*
X2855671Y26915135D01*
X2854000Y26907452D01*
X2854000Y26010116D01*
X2346000Y26010116D01*
X2346000Y27447115D01*
X2854000Y27447115D01*
X2858475Y27431876D01*
X2859865Y27430671D01*
X2867548Y27429000D01*
X5189884Y27429000D01*
X5205123Y27433475D01*
X5206328Y27434865D01*
X5207999Y27442548D01*
X5207999Y27447115D01*
X38792000Y27447115D01*
X38796475Y27431876D01*
X38797865Y27430671D01*
X38805548Y27429000D01*
X41127885Y27429000D01*
X41143124Y27433475D01*
X41144329Y27434865D01*
X41146000Y27442548D01*
X41146000Y28339884D01*
X41141525Y28355123D01*
X41140135Y28356328D01*
X41132452Y28357999D01*
X39255331Y28357999D01*
X39248510Y28357629D01*
X39197648Y28352105D01*
X39182396Y28348479D01*
X39061946Y28303324D01*
X39046351Y28294786D01*
X38944276Y28218285D01*
X38931715Y28205724D01*
X38855214Y28103649D01*
X38846676Y28088054D01*
X38801522Y27967606D01*
X38797895Y27952351D01*
X38792369Y27901486D01*
X38792000Y27894672D01*
X38792000Y27447115D01*
X5207999Y27447115D01*
X5207999Y27894669D01*
X5207629Y27901490D01*
X5202105Y27952352D01*
X5198479Y27967604D01*
X5153324Y28088054D01*
X5144786Y28103649D01*
X5068285Y28205724D01*
X5055724Y28218285D01*
X4953649Y28294786D01*
X4938054Y28303324D01*
X4817606Y28348478D01*
X4802351Y28352105D01*
X4751486Y28357631D01*
X4744672Y28358000D01*
X2872115Y28358000D01*
X2856876Y28353525D01*
X2855671Y28352135D01*
X2854000Y28344452D01*
X2854000Y27447115D01*
X2346000Y27447115D01*
X2346000Y28339884D01*
X2341525Y28355123D01*
X2340135Y28356328D01*
X2332452Y28357999D01*
X634000Y28357999D01*
X565879Y28378001D01*
X519386Y28431657D01*
X508000Y28483999D01*
X508000Y29900000D01*
X7886502Y29900000D01*
X7906457Y29671913D01*
X7965716Y29450757D01*
X7968039Y29445776D01*
X7968039Y29445775D01*
X8060151Y29248238D01*
X8060154Y29248233D01*
X8062477Y29243251D01*
X8193802Y29055700D01*
X8355700Y28893802D01*
X8360208Y28890645D01*
X8360211Y28890643D01*
X8438389Y28835902D01*
X8543251Y28762477D01*
X8548233Y28760154D01*
X8548238Y28760151D01*
X8745775Y28668039D01*
X8750757Y28665716D01*
X8756065Y28664294D01*
X8756067Y28664293D01*
X8966598Y28607881D01*
X8966600Y28607881D01*
X8971913Y28606457D01*
X9200000Y28586502D01*
X9428087Y28606457D01*
X9433400Y28607881D01*
X9433402Y28607881D01*
X9643933Y28664293D01*
X9643935Y28664294D01*
X9649243Y28665716D01*
X9654225Y28668039D01*
X9851762Y28760151D01*
X9851767Y28760154D01*
X9856749Y28762477D01*
X9961611Y28835902D01*
X10039789Y28890643D01*
X10039792Y28890645D01*
X10044300Y28893802D01*
X10206198Y29055700D01*
X10337523Y29243251D01*
X10339846Y29248233D01*
X10339849Y29248238D01*
X10431961Y29445775D01*
X10431961Y29445776D01*
X10434284Y29450757D01*
X10493543Y29671913D01*
X10513498Y29900000D01*
X12886502Y29900000D01*
X12906457Y29671913D01*
X12965716Y29450757D01*
X12968039Y29445776D01*
X12968039Y29445775D01*
X13060151Y29248238D01*
X13060154Y29248233D01*
X13062477Y29243251D01*
X13193802Y29055700D01*
X13355700Y28893802D01*
X13360208Y28890645D01*
X13360211Y28890643D01*
X13438389Y28835902D01*
X13543251Y28762477D01*
X13548233Y28760154D01*
X13548238Y28760151D01*
X13745775Y28668039D01*
X13750757Y28665716D01*
X13756065Y28664294D01*
X13756067Y28664293D01*
X13966598Y28607881D01*
X13966600Y28607881D01*
X13971913Y28606457D01*
X14200000Y28586502D01*
X14428087Y28606457D01*
X14433400Y28607881D01*
X14433402Y28607881D01*
X14643933Y28664293D01*
X14643935Y28664294D01*
X14649243Y28665716D01*
X14654225Y28668039D01*
X14851762Y28760151D01*
X14851767Y28760154D01*
X14856749Y28762477D01*
X14961611Y28835902D01*
X15039789Y28890643D01*
X15039792Y28890645D01*
X15044300Y28893802D01*
X15206198Y29055700D01*
X15337523Y29243251D01*
X15339846Y29248233D01*
X15339849Y29248238D01*
X15431961Y29445775D01*
X15431961Y29445776D01*
X15434284Y29450757D01*
X15493543Y29671913D01*
X15513498Y29900000D01*
X29736502Y29900000D01*
X29756457Y29671913D01*
X29815716Y29450757D01*
X29818039Y29445776D01*
X29818039Y29445775D01*
X29910151Y29248238D01*
X29910154Y29248233D01*
X29912477Y29243251D01*
X30043802Y29055700D01*
X30205700Y28893802D01*
X30210208Y28890645D01*
X30210211Y28890643D01*
X30288389Y28835902D01*
X30393251Y28762477D01*
X30398233Y28760154D01*
X30398238Y28760151D01*
X30595775Y28668039D01*
X30600757Y28665716D01*
X30606065Y28664294D01*
X30606067Y28664293D01*
X30816598Y28607881D01*
X30816600Y28607881D01*
X30821913Y28606457D01*
X31050000Y28586502D01*
X31278087Y28606457D01*
X31283400Y28607881D01*
X31283402Y28607881D01*
X31493933Y28664293D01*
X31493935Y28664294D01*
X31499243Y28665716D01*
X31504225Y28668039D01*
X31701762Y28760151D01*
X31701767Y28760154D01*
X31706749Y28762477D01*
X31811611Y28835902D01*
X31889789Y28890643D01*
X31889792Y28890645D01*
X31894300Y28893802D01*
X32056198Y29055700D01*
X32187523Y29243251D01*
X32189846Y29248233D01*
X32189849Y29248238D01*
X32281961Y29445775D01*
X32281961Y29445776D01*
X32284284Y29450757D01*
X32343543Y29671913D01*
X32363498Y29900000D01*
X34736502Y29900000D01*
X34756457Y29671913D01*
X34815716Y29450757D01*
X34818039Y29445776D01*
X34818039Y29445775D01*
X34910151Y29248238D01*
X34910154Y29248233D01*
X34912477Y29243251D01*
X35043802Y29055700D01*
X35205700Y28893802D01*
X35210208Y28890645D01*
X35210211Y28890643D01*
X35288389Y28835902D01*
X35393251Y28762477D01*
X35398233Y28760154D01*
X35398238Y28760151D01*
X35595775Y28668039D01*
X35600757Y28665716D01*
X35606065Y28664294D01*
X35606067Y28664293D01*
X35816598Y28607881D01*
X35816600Y28607881D01*
X35821913Y28606457D01*
X36050000Y28586502D01*
X36278087Y28606457D01*
X36283400Y28607881D01*
X36283402Y28607881D01*
X36493933Y28664293D01*
X36493935Y28664294D01*
X36499243Y28665716D01*
X36504225Y28668039D01*
X36701762Y28760151D01*
X36701767Y28760154D01*
X36706749Y28762477D01*
X36811611Y28835902D01*
X36889789Y28890643D01*
X36889792Y28890645D01*
X36894300Y28893802D01*
X37056198Y29055700D01*
X37187523Y29243251D01*
X37189846Y29248233D01*
X37189849Y29248238D01*
X37281961Y29445775D01*
X37281961Y29445776D01*
X37284284Y29450757D01*
X37343543Y29671913D01*
X37363498Y29900000D01*
X37343543Y30128087D01*
X37284284Y30349243D01*
X37281961Y30354225D01*
X37189849Y30551762D01*
X37189846Y30551767D01*
X37187523Y30556749D01*
X37056198Y30744300D01*
X36894300Y30906198D01*
X36889792Y30909355D01*
X36889789Y30909357D01*
X36811611Y30964098D01*
X36706749Y31037523D01*
X36701767Y31039846D01*
X36701762Y31039849D01*
X36504225Y31131961D01*
X36504224Y31131961D01*
X36499243Y31134284D01*
X36493935Y31135706D01*
X36493933Y31135707D01*
X36283402Y31192119D01*
X36283400Y31192119D01*
X36278087Y31193543D01*
X36050000Y31213498D01*
X35821913Y31193543D01*
X35816600Y31192119D01*
X35816598Y31192119D01*
X35606067Y31135707D01*
X35606065Y31135706D01*
X35600757Y31134284D01*
X35595776Y31131961D01*
X35595775Y31131961D01*
X35398238Y31039849D01*
X35398233Y31039846D01*
X35393251Y31037523D01*
X35288389Y30964098D01*
X35210211Y30909357D01*
X35210208Y30909355D01*
X35205700Y30906198D01*
X35043802Y30744300D01*
X34912477Y30556749D01*
X34910154Y30551767D01*
X34910151Y30551762D01*
X34818039Y30354225D01*
X34815716Y30349243D01*
X34756457Y30128087D01*
X34736502Y29900000D01*
X32363498Y29900000D01*
X32343543Y30128087D01*
X32284284Y30349243D01*
X32281961Y30354225D01*
X32189849Y30551762D01*
X32189846Y30551767D01*
X32187523Y30556749D01*
X32056198Y30744300D01*
X31894300Y30906198D01*
X31889792Y30909355D01*
X31889789Y30909357D01*
X31811611Y30964098D01*
X31706749Y31037523D01*
X31701767Y31039846D01*
X31701762Y31039849D01*
X31504225Y31131961D01*
X31504224Y31131961D01*
X31499243Y31134284D01*
X31493935Y31135706D01*
X31493933Y31135707D01*
X31283402Y31192119D01*
X31283400Y31192119D01*
X31278087Y31193543D01*
X31050000Y31213498D01*
X30821913Y31193543D01*
X30816600Y31192119D01*
X30816598Y31192119D01*
X30606067Y31135707D01*
X30606065Y31135706D01*
X30600757Y31134284D01*
X30595776Y31131961D01*
X30595775Y31131961D01*
X30398238Y31039849D01*
X30398233Y31039846D01*
X30393251Y31037523D01*
X30288389Y30964098D01*
X30210211Y30909357D01*
X30210208Y30909355D01*
X30205700Y30906198D01*
X30043802Y30744300D01*
X29912477Y30556749D01*
X29910154Y30551767D01*
X29910151Y30551762D01*
X29818039Y30354225D01*
X29815716Y30349243D01*
X29756457Y30128087D01*
X29736502Y29900000D01*
X15513498Y29900000D01*
X15493543Y30128087D01*
X15434284Y30349243D01*
X15431961Y30354225D01*
X15339849Y30551762D01*
X15339846Y30551767D01*
X15337523Y30556749D01*
X15206198Y30744300D01*
X15044300Y30906198D01*
X15039792Y30909355D01*
X15039789Y30909357D01*
X14961611Y30964098D01*
X14856749Y31037523D01*
X14851767Y31039846D01*
X14851762Y31039849D01*
X14654225Y31131961D01*
X14654224Y31131961D01*
X14649243Y31134284D01*
X14643935Y31135706D01*
X14643933Y31135707D01*
X14433402Y31192119D01*
X14433400Y31192119D01*
X14428087Y31193543D01*
X14200000Y31213498D01*
X13971913Y31193543D01*
X13966600Y31192119D01*
X13966598Y31192119D01*
X13756067Y31135707D01*
X13756065Y31135706D01*
X13750757Y31134284D01*
X13745776Y31131961D01*
X13745775Y31131961D01*
X13548238Y31039849D01*
X13548233Y31039846D01*
X13543251Y31037523D01*
X13438389Y30964098D01*
X13360211Y30909357D01*
X13360208Y30909355D01*
X13355700Y30906198D01*
X13193802Y30744300D01*
X13062477Y30556749D01*
X13060154Y30551767D01*
X13060151Y30551762D01*
X12968039Y30354225D01*
X12965716Y30349243D01*
X12906457Y30128087D01*
X12886502Y29900000D01*
X10513498Y29900000D01*
X10493543Y30128087D01*
X10434284Y30349243D01*
X10431961Y30354225D01*
X10339849Y30551762D01*
X10339846Y30551767D01*
X10337523Y30556749D01*
X10206198Y30744300D01*
X10044300Y30906198D01*
X10039792Y30909355D01*
X10039789Y30909357D01*
X9961611Y30964098D01*
X9856749Y31037523D01*
X9851767Y31039846D01*
X9851762Y31039849D01*
X9654225Y31131961D01*
X9654224Y31131961D01*
X9649243Y31134284D01*
X9643935Y31135706D01*
X9643933Y31135707D01*
X9433402Y31192119D01*
X9433400Y31192119D01*
X9428087Y31193543D01*
X9200000Y31213498D01*
X8971913Y31193543D01*
X8966600Y31192119D01*
X8966598Y31192119D01*
X8756067Y31135707D01*
X8756065Y31135706D01*
X8750757Y31134284D01*
X8745776Y31131961D01*
X8745775Y31131961D01*
X8548238Y31039849D01*
X8548233Y31039846D01*
X8543251Y31037523D01*
X8438389Y30964098D01*
X8360211Y30909357D01*
X8360208Y30909355D01*
X8355700Y30906198D01*
X8193802Y30744300D01*
X8062477Y30556749D01*
X8060154Y30551767D01*
X8060151Y30551762D01*
X7968039Y30354225D01*
X7965716Y30349243D01*
X7906457Y30128087D01*
X7886502Y29900000D01*
X508000Y29900000D01*
X508000Y31516000D01*
X528002Y31584121D01*
X581658Y31630614D01*
X634000Y31642000D01*
X2327885Y31642000D01*
X2343124Y31646475D01*
X2344329Y31647865D01*
X2346000Y31655548D01*
X2346000Y31660116D01*
X2854000Y31660116D01*
X2858475Y31644877D01*
X2859865Y31643672D01*
X2867548Y31642001D01*
X4744669Y31642001D01*
X4751490Y31642371D01*
X4802352Y31647895D01*
X4817604Y31651521D01*
X4938054Y31696676D01*
X4953649Y31705214D01*
X5055724Y31781715D01*
X5068285Y31794276D01*
X5144786Y31896351D01*
X5153324Y31911946D01*
X5198478Y32032394D01*
X5202105Y32047649D01*
X5207631Y32098514D01*
X5208000Y32105328D01*
X5208000Y32105331D01*
X38792001Y32105331D01*
X38792371Y32098510D01*
X38797895Y32047648D01*
X38801521Y32032396D01*
X38846676Y31911946D01*
X38855214Y31896351D01*
X38931715Y31794276D01*
X38944276Y31781715D01*
X39046351Y31705214D01*
X39061946Y31696676D01*
X39182394Y31651522D01*
X39197649Y31647895D01*
X39248514Y31642369D01*
X39255328Y31642000D01*
X41127885Y31642000D01*
X41143124Y31646475D01*
X41144329Y31647865D01*
X41146000Y31655548D01*
X41146000Y32552885D01*
X41141525Y32568124D01*
X41140135Y32569329D01*
X41132452Y32571000D01*
X38810116Y32571000D01*
X38794877Y32566525D01*
X38793672Y32565135D01*
X38792001Y32557452D01*
X38792001Y32105331D01*
X5208000Y32105331D01*
X5208000Y32552885D01*
X5203525Y32568124D01*
X5202135Y32569329D01*
X5194452Y32571000D01*
X2872115Y32571000D01*
X2856876Y32566525D01*
X2855671Y32565135D01*
X2854000Y32557452D01*
X2854000Y31660116D01*
X2346000Y31660116D01*
X2346000Y33097115D01*
X2854000Y33097115D01*
X2858475Y33081876D01*
X2859865Y33080671D01*
X2867548Y33079000D01*
X5189884Y33079000D01*
X5205123Y33083475D01*
X5206328Y33084865D01*
X5207999Y33092548D01*
X5207999Y33097115D01*
X38792000Y33097115D01*
X38796475Y33081876D01*
X38797865Y33080671D01*
X38805548Y33079000D01*
X41127885Y33079000D01*
X41143124Y33083475D01*
X41144329Y33084865D01*
X41146000Y33092548D01*
X41146000Y33989884D01*
X41141525Y34005123D01*
X41140135Y34006328D01*
X41132452Y34007999D01*
X39255331Y34007999D01*
X39248510Y34007629D01*
X39197648Y34002105D01*
X39182396Y33998479D01*
X39061946Y33953324D01*
X39046351Y33944786D01*
X38944276Y33868285D01*
X38931715Y33855724D01*
X38855214Y33753649D01*
X38846676Y33738054D01*
X38801522Y33617606D01*
X38797895Y33602351D01*
X38792369Y33551486D01*
X38792000Y33544672D01*
X38792000Y33097115D01*
X5207999Y33097115D01*
X5207999Y33544669D01*
X5207629Y33551490D01*
X5202105Y33602352D01*
X5198479Y33617604D01*
X5153324Y33738054D01*
X5144786Y33753649D01*
X5068285Y33855724D01*
X5055724Y33868285D01*
X4953649Y33944786D01*
X4938054Y33953324D01*
X4817606Y33998478D01*
X4802351Y34002105D01*
X4751486Y34007631D01*
X4744672Y34008000D01*
X2872115Y34008000D01*
X2856876Y34003525D01*
X2855671Y34002135D01*
X2854000Y33994452D01*
X2854000Y33097115D01*
X2346000Y33097115D01*
X2346000Y33989884D01*
X2341525Y34005123D01*
X2340135Y34006328D01*
X2332452Y34007999D01*
X634000Y34007999D01*
X565879Y34028001D01*
X519386Y34081657D01*
X508000Y34133999D01*
X508000Y34500000D01*
X22336502Y34500000D01*
X22356457Y34271913D01*
X22415716Y34050757D01*
X22418039Y34045776D01*
X22418039Y34045775D01*
X22510151Y33848238D01*
X22510154Y33848233D01*
X22512477Y33843251D01*
X22643802Y33655700D01*
X22805700Y33493802D01*
X22810208Y33490645D01*
X22810211Y33490643D01*
X22888389Y33435902D01*
X22993251Y33362477D01*
X22998233Y33360154D01*
X22998238Y33360151D01*
X23195775Y33268039D01*
X23200757Y33265716D01*
X23206065Y33264294D01*
X23206067Y33264293D01*
X23416598Y33207881D01*
X23416600Y33207881D01*
X23421913Y33206457D01*
X23650000Y33186502D01*
X23878087Y33206457D01*
X23883400Y33207881D01*
X23883402Y33207881D01*
X24093933Y33264293D01*
X24093935Y33264294D01*
X24099243Y33265716D01*
X24104225Y33268039D01*
X24301762Y33360151D01*
X24301767Y33360154D01*
X24306749Y33362477D01*
X24411611Y33435902D01*
X24489789Y33490643D01*
X24489792Y33490645D01*
X24494300Y33493802D01*
X24656198Y33655700D01*
X24787523Y33843251D01*
X24789846Y33848233D01*
X24789849Y33848238D01*
X24881961Y34045775D01*
X24881961Y34045776D01*
X24884284Y34050757D01*
X24943543Y34271913D01*
X24963498Y34500000D01*
X24943543Y34728087D01*
X24884284Y34949243D01*
X24881961Y34954225D01*
X24789849Y35151762D01*
X24789846Y35151767D01*
X24787523Y35156749D01*
X24656198Y35344300D01*
X24494300Y35506198D01*
X24489792Y35509355D01*
X24489789Y35509357D01*
X24365717Y35596233D01*
X24306749Y35637523D01*
X24301767Y35639846D01*
X24301762Y35639849D01*
X24104225Y35731961D01*
X24104224Y35731961D01*
X24099243Y35734284D01*
X24093935Y35735706D01*
X24093933Y35735707D01*
X23883402Y35792119D01*
X23883400Y35792119D01*
X23878087Y35793543D01*
X23650000Y35813498D01*
X23421913Y35793543D01*
X23416600Y35792119D01*
X23416598Y35792119D01*
X23206067Y35735707D01*
X23206065Y35735706D01*
X23200757Y35734284D01*
X23195776Y35731961D01*
X23195775Y35731961D01*
X22998238Y35639849D01*
X22998233Y35639846D01*
X22993251Y35637523D01*
X22934283Y35596233D01*
X22810211Y35509357D01*
X22810208Y35509355D01*
X22805700Y35506198D01*
X22643802Y35344300D01*
X22512477Y35156749D01*
X22510154Y35151767D01*
X22510151Y35151762D01*
X22418039Y34954225D01*
X22415716Y34949243D01*
X22356457Y34728087D01*
X22336502Y34500000D01*
X508000Y34500000D01*
X508000Y36001866D01*
X1391500Y36001866D01*
X1398255Y35939684D01*
X1449385Y35803295D01*
X1536739Y35686739D01*
X1653295Y35599385D01*
X1789684Y35548255D01*
X1851866Y35541500D01*
X3648134Y35541500D01*
X3710316Y35548255D01*
X3846705Y35599385D01*
X3963261Y35686739D01*
X4050615Y35803295D01*
X4101745Y35939684D01*
X4108500Y36001866D01*
X4108500Y36301866D01*
X40041500Y36301866D01*
X40048255Y36239684D01*
X40099385Y36103295D01*
X40186739Y35986739D01*
X40303295Y35899385D01*
X40439684Y35848255D01*
X40501866Y35841500D01*
X42298134Y35841500D01*
X42360316Y35848255D01*
X42496705Y35899385D01*
X42613261Y35986739D01*
X42700615Y36103295D01*
X42751745Y36239684D01*
X42758500Y36301866D01*
X42758500Y38098134D01*
X42751745Y38160316D01*
X42700615Y38296705D01*
X42613261Y38413261D01*
X42496705Y38500615D01*
X42377687Y38545233D01*
X42320923Y38587875D01*
X42296223Y38654436D01*
X42311430Y38723785D01*
X42332977Y38752465D01*
X42434052Y38853188D01*
X42440730Y38861035D01*
X42565003Y39033980D01*
X42570313Y39042817D01*
X42664670Y39233733D01*
X42668469Y39243328D01*
X42730377Y39447090D01*
X42732555Y39457163D01*
X42733986Y39468038D01*
X42731775Y39482222D01*
X42718617Y39486000D01*
X40083225Y39486000D01*
X40069694Y39482027D01*
X40068257Y39472034D01*
X40098565Y39337554D01*
X40101645Y39327725D01*
X40181770Y39130397D01*
X40186413Y39121206D01*
X40297694Y38939612D01*
X40303777Y38931301D01*
X40443213Y38770333D01*
X40450577Y38763121D01*
X40455522Y38759015D01*
X40495156Y38700111D01*
X40496653Y38629130D01*
X40459537Y38568608D01*
X40419264Y38544090D01*
X40311705Y38503768D01*
X40311704Y38503767D01*
X40303295Y38500615D01*
X40186739Y38413261D01*
X40099385Y38296705D01*
X40048255Y38160316D01*
X40041500Y38098134D01*
X40041500Y36301866D01*
X4108500Y36301866D01*
X4108500Y37798134D01*
X4101745Y37860316D01*
X4050615Y37996705D01*
X3963261Y38113261D01*
X3846705Y38200615D01*
X3727687Y38245233D01*
X3670923Y38287875D01*
X3646223Y38354436D01*
X3661430Y38423785D01*
X3682977Y38452465D01*
X3784052Y38553188D01*
X3790730Y38561035D01*
X3915003Y38733980D01*
X3920313Y38742817D01*
X4014670Y38933733D01*
X4018469Y38943328D01*
X4080377Y39147090D01*
X4082555Y39157163D01*
X4083986Y39168038D01*
X4081775Y39182222D01*
X4068617Y39186000D01*
X1433225Y39186000D01*
X1419694Y39182027D01*
X1418257Y39172034D01*
X1448565Y39037554D01*
X1451645Y39027725D01*
X1531770Y38830397D01*
X1536413Y38821206D01*
X1647694Y38639612D01*
X1653777Y38631301D01*
X1793213Y38470333D01*
X1800577Y38463121D01*
X1805522Y38459015D01*
X1845156Y38400111D01*
X1846653Y38329130D01*
X1809537Y38268608D01*
X1769264Y38244090D01*
X1661705Y38203768D01*
X1661704Y38203767D01*
X1653295Y38200615D01*
X1536739Y38113261D01*
X1449385Y37996705D01*
X1398255Y37860316D01*
X1391500Y37798134D01*
X1391500Y36001866D01*
X508000Y36001866D01*
X508000Y39500000D01*
X22336502Y39500000D01*
X22356457Y39271913D01*
X22415716Y39050757D01*
X22418039Y39045776D01*
X22418039Y39045775D01*
X22510151Y38848238D01*
X22510154Y38848233D01*
X22512477Y38843251D01*
X22643802Y38655700D01*
X22805700Y38493802D01*
X22810208Y38490645D01*
X22810211Y38490643D01*
X22839217Y38470333D01*
X22993251Y38362477D01*
X22998233Y38360154D01*
X22998238Y38360151D01*
X23194555Y38268608D01*
X23200757Y38265716D01*
X23206065Y38264294D01*
X23206067Y38264293D01*
X23416598Y38207881D01*
X23416600Y38207881D01*
X23421913Y38206457D01*
X23650000Y38186502D01*
X23878087Y38206457D01*
X23883400Y38207881D01*
X23883402Y38207881D01*
X24093933Y38264293D01*
X24093935Y38264294D01*
X24099243Y38265716D01*
X24105445Y38268608D01*
X24301762Y38360151D01*
X24301767Y38360154D01*
X24306749Y38362477D01*
X24460783Y38470333D01*
X24489789Y38490643D01*
X24489792Y38490645D01*
X24494300Y38493802D01*
X24656198Y38655700D01*
X24787523Y38843251D01*
X24789846Y38848233D01*
X24789849Y38848238D01*
X24881961Y39045775D01*
X24881961Y39045776D01*
X24884284Y39050757D01*
X24943543Y39271913D01*
X24963498Y39500000D01*
X24943543Y39728087D01*
X24884284Y39949243D01*
X24863414Y39994000D01*
X24857904Y40005817D01*
X40064389Y40005817D01*
X40065912Y39997393D01*
X40078292Y39994000D01*
X41127885Y39994000D01*
X41143124Y39998475D01*
X41144329Y39999865D01*
X41146000Y40007548D01*
X41146000Y40012115D01*
X41654000Y40012115D01*
X41658475Y39996876D01*
X41659865Y39995671D01*
X41667548Y39994000D01*
X42718344Y39994000D01*
X42731875Y39997973D01*
X42733180Y40007053D01*
X42691214Y40174125D01*
X42687894Y40183876D01*
X42602972Y40379186D01*
X42598105Y40388261D01*
X42482426Y40567074D01*
X42476136Y40575243D01*
X42332806Y40732760D01*
X42325273Y40739785D01*
X42158139Y40871778D01*
X42149552Y40877483D01*
X41963117Y40980401D01*
X41953705Y40984631D01*
X41752959Y41055720D01*
X41742988Y41058354D01*
X41671837Y41071028D01*
X41658540Y41069568D01*
X41654000Y41055011D01*
X41654000Y40012115D01*
X41146000Y40012115D01*
X41146000Y41056898D01*
X41142082Y41070242D01*
X41127806Y41072229D01*
X41089324Y41066340D01*
X41079288Y41063949D01*
X40876868Y40997788D01*
X40867359Y40993791D01*
X40678463Y40895458D01*
X40669738Y40889964D01*
X40499433Y40762095D01*
X40491726Y40755252D01*
X40344590Y40601283D01*
X40338104Y40593273D01*
X40218098Y40417351D01*
X40213000Y40408377D01*
X40123338Y40215217D01*
X40119775Y40205530D01*
X40064389Y40005817D01*
X24857904Y40005817D01*
X24789849Y40151762D01*
X24789846Y40151767D01*
X24787523Y40156749D01*
X24656198Y40344300D01*
X24494300Y40506198D01*
X24489792Y40509355D01*
X24489789Y40509357D01*
X24358505Y40601283D01*
X24306749Y40637523D01*
X24301767Y40639846D01*
X24301762Y40639849D01*
X24104225Y40731961D01*
X24104224Y40731961D01*
X24099243Y40734284D01*
X24093935Y40735706D01*
X24093933Y40735707D01*
X23883402Y40792119D01*
X23883400Y40792119D01*
X23878087Y40793543D01*
X23650000Y40813498D01*
X23421913Y40793543D01*
X23416600Y40792119D01*
X23416598Y40792119D01*
X23206067Y40735707D01*
X23206065Y40735706D01*
X23200757Y40734284D01*
X23195776Y40731961D01*
X23195775Y40731961D01*
X22998238Y40639849D01*
X22998233Y40639846D01*
X22993251Y40637523D01*
X22941495Y40601283D01*
X22810211Y40509357D01*
X22810208Y40509355D01*
X22805700Y40506198D01*
X22643802Y40344300D01*
X22512477Y40156749D01*
X22510154Y40151767D01*
X22510151Y40151762D01*
X22436586Y39994000D01*
X22415716Y39949243D01*
X22356457Y39728087D01*
X22336502Y39500000D01*
X508000Y39500000D01*
X508000Y39705817D01*
X1414389Y39705817D01*
X1415912Y39697393D01*
X1428292Y39694000D01*
X2477885Y39694000D01*
X2493124Y39698475D01*
X2494329Y39699865D01*
X2496000Y39707548D01*
X2496000Y39712115D01*
X3004000Y39712115D01*
X3008475Y39696876D01*
X3009865Y39695671D01*
X3017548Y39694000D01*
X4068344Y39694000D01*
X4081875Y39697973D01*
X4083180Y39707053D01*
X4041214Y39874125D01*
X4037894Y39883876D01*
X3952972Y40079186D01*
X3948105Y40088261D01*
X3832426Y40267074D01*
X3826136Y40275243D01*
X3682806Y40432760D01*
X3675273Y40439785D01*
X3508139Y40571778D01*
X3499552Y40577483D01*
X3313117Y40680401D01*
X3303705Y40684631D01*
X3102959Y40755720D01*
X3092988Y40758354D01*
X3021837Y40771028D01*
X3008540Y40769568D01*
X3004000Y40755011D01*
X3004000Y39712115D01*
X2496000Y39712115D01*
X2496000Y40756898D01*
X2492082Y40770242D01*
X2477806Y40772229D01*
X2439324Y40766340D01*
X2429288Y40763949D01*
X2226868Y40697788D01*
X2217359Y40693791D01*
X2028463Y40595458D01*
X2019738Y40589964D01*
X1849433Y40462095D01*
X1841726Y40455252D01*
X1694590Y40301283D01*
X1688104Y40293273D01*
X1568098Y40117351D01*
X1563000Y40108377D01*
X1473338Y39915217D01*
X1469775Y39905530D01*
X1414389Y39705817D01*
X508000Y39705817D01*
X508000Y44692831D01*
X19492001Y44692831D01*
X19492371Y44686010D01*
X19497895Y44635148D01*
X19501521Y44619896D01*
X19546676Y44499446D01*
X19555214Y44483851D01*
X19631715Y44381776D01*
X19644276Y44369215D01*
X19746351Y44292714D01*
X19761946Y44284176D01*
X19882394Y44239022D01*
X19897649Y44235395D01*
X19948514Y44229869D01*
X19955328Y44229500D01*
X20402885Y44229500D01*
X20418124Y44233975D01*
X20419329Y44235365D01*
X20421000Y44243048D01*
X20421000Y44247616D01*
X20929000Y44247616D01*
X20933475Y44232377D01*
X20934865Y44231172D01*
X20942548Y44229501D01*
X21394669Y44229501D01*
X21401490Y44229871D01*
X21452352Y44235395D01*
X21467604Y44239021D01*
X21588054Y44284176D01*
X21603649Y44292714D01*
X21705724Y44369215D01*
X21718285Y44381776D01*
X21794786Y44483851D01*
X21803324Y44499446D01*
X21848478Y44619894D01*
X21852105Y44635149D01*
X21857631Y44686014D01*
X21858000Y44692828D01*
X21858000Y44692831D01*
X25142001Y44692831D01*
X25142371Y44686010D01*
X25147895Y44635148D01*
X25151521Y44619896D01*
X25196676Y44499446D01*
X25205214Y44483851D01*
X25281715Y44381776D01*
X25294276Y44369215D01*
X25396351Y44292714D01*
X25411946Y44284176D01*
X25532394Y44239022D01*
X25547649Y44235395D01*
X25598514Y44229869D01*
X25605328Y44229500D01*
X26052885Y44229500D01*
X26068124Y44233975D01*
X26069329Y44235365D01*
X26071000Y44243048D01*
X26071000Y44247616D01*
X26579000Y44247616D01*
X26583475Y44232377D01*
X26584865Y44231172D01*
X26592548Y44229501D01*
X27044669Y44229501D01*
X27051490Y44229871D01*
X27102352Y44235395D01*
X27117604Y44239021D01*
X27238054Y44284176D01*
X27253649Y44292714D01*
X27355724Y44369215D01*
X27368285Y44381776D01*
X27444786Y44483851D01*
X27453324Y44499446D01*
X27498478Y44619894D01*
X27502105Y44635149D01*
X27507631Y44686014D01*
X27508000Y44692828D01*
X27508000Y45655331D01*
X37192001Y45655331D01*
X37192371Y45648510D01*
X37197895Y45597648D01*
X37201521Y45582396D01*
X37246676Y45461946D01*
X37255214Y45446351D01*
X37331715Y45344276D01*
X37344276Y45331715D01*
X37446351Y45255214D01*
X37461946Y45246676D01*
X37582394Y45201522D01*
X37597649Y45197895D01*
X37648514Y45192369D01*
X37655328Y45192000D01*
X38277885Y45192000D01*
X38293124Y45196475D01*
X38294329Y45197865D01*
X38296000Y45205548D01*
X38296000Y45210116D01*
X38804000Y45210116D01*
X38808475Y45194877D01*
X38809865Y45193672D01*
X38817548Y45192001D01*
X39444669Y45192001D01*
X39451490Y45192371D01*
X39502352Y45197895D01*
X39517604Y45201521D01*
X39638054Y45246676D01*
X39653649Y45255214D01*
X39755724Y45331715D01*
X39768285Y45344276D01*
X39844786Y45446351D01*
X39853325Y45461948D01*
X39894425Y45571582D01*
X39937066Y45628347D01*
X40003628Y45653047D01*
X40072977Y45637840D01*
X40107645Y45609850D01*
X40133219Y45580326D01*
X40140580Y45573117D01*
X40304434Y45437084D01*
X40312881Y45431169D01*
X40496756Y45323721D01*
X40506042Y45319271D01*
X40705001Y45243297D01*
X40714899Y45240421D01*
X40818250Y45219394D01*
X40832299Y45220590D01*
X40836000Y45230935D01*
X40836000Y45231483D01*
X41344000Y45231483D01*
X41348064Y45217641D01*
X41361478Y45215607D01*
X41368184Y45216466D01*
X41378262Y45218608D01*
X41582255Y45279809D01*
X41591842Y45283567D01*
X41783095Y45377261D01*
X41791945Y45382536D01*
X41965328Y45506208D01*
X41973200Y45512861D01*
X42124052Y45663188D01*
X42130730Y45671035D01*
X42255003Y45843980D01*
X42260313Y45852817D01*
X42354670Y46043733D01*
X42358469Y46053328D01*
X42420377Y46257090D01*
X42422555Y46267163D01*
X42423986Y46278038D01*
X42421775Y46292222D01*
X42408617Y46296000D01*
X41362115Y46296000D01*
X41346876Y46291525D01*
X41345671Y46290135D01*
X41344000Y46282452D01*
X41344000Y45231483D01*
X40836000Y45231483D01*
X40836000Y46277885D01*
X40831525Y46293124D01*
X40830135Y46294329D01*
X40822452Y46296000D01*
X38822115Y46296000D01*
X38806876Y46291525D01*
X38805671Y46290135D01*
X38804000Y46282452D01*
X38804000Y45210116D01*
X38296000Y45210116D01*
X38296000Y46277885D01*
X38291525Y46293124D01*
X38290135Y46294329D01*
X38282452Y46296000D01*
X37210116Y46296000D01*
X37194877Y46291525D01*
X37193672Y46290135D01*
X37192001Y46282452D01*
X37192001Y45655331D01*
X27508000Y45655331D01*
X27508000Y46565385D01*
X27503525Y46580624D01*
X27502135Y46581829D01*
X27494452Y46583500D01*
X26597115Y46583500D01*
X26581876Y46579025D01*
X26580671Y46577635D01*
X26579000Y46569952D01*
X26579000Y44247616D01*
X26071000Y44247616D01*
X26071000Y46565385D01*
X26066525Y46580624D01*
X26065135Y46581829D01*
X26057452Y46583500D01*
X25160116Y46583500D01*
X25144877Y46579025D01*
X25143672Y46577635D01*
X25142001Y46569952D01*
X25142001Y44692831D01*
X21858000Y44692831D01*
X21858000Y46565385D01*
X21853525Y46580624D01*
X21852135Y46581829D01*
X21844452Y46583500D01*
X20947115Y46583500D01*
X20931876Y46579025D01*
X20930671Y46577635D01*
X20929000Y46569952D01*
X20929000Y44247616D01*
X20421000Y44247616D01*
X20421000Y46565385D01*
X20416525Y46580624D01*
X20415135Y46581829D01*
X20407452Y46583500D01*
X19510116Y46583500D01*
X19494877Y46579025D01*
X19493672Y46577635D01*
X19492001Y46569952D01*
X19492001Y44692831D01*
X508000Y44692831D01*
X508000Y45655331D01*
X2242001Y45655331D01*
X2242371Y45648510D01*
X2247895Y45597648D01*
X2251521Y45582396D01*
X2296676Y45461946D01*
X2305214Y45446351D01*
X2381715Y45344276D01*
X2394276Y45331715D01*
X2496351Y45255214D01*
X2511946Y45246676D01*
X2632394Y45201522D01*
X2647649Y45197895D01*
X2698514Y45192369D01*
X2705328Y45192000D01*
X3327885Y45192000D01*
X3343124Y45196475D01*
X3344329Y45197865D01*
X3346000Y45205548D01*
X3346000Y45210116D01*
X3854000Y45210116D01*
X3858475Y45194877D01*
X3859865Y45193672D01*
X3867548Y45192001D01*
X4494669Y45192001D01*
X4501490Y45192371D01*
X4552352Y45197895D01*
X4567604Y45201521D01*
X4688054Y45246676D01*
X4703649Y45255214D01*
X4805724Y45331715D01*
X4818285Y45344276D01*
X4894786Y45446351D01*
X4903325Y45461948D01*
X4944425Y45571582D01*
X4987066Y45628347D01*
X5053628Y45653047D01*
X5122977Y45637840D01*
X5157645Y45609850D01*
X5183219Y45580326D01*
X5190580Y45573117D01*
X5354434Y45437084D01*
X5362881Y45431169D01*
X5546756Y45323721D01*
X5556042Y45319271D01*
X5755001Y45243297D01*
X5764899Y45240421D01*
X5868250Y45219394D01*
X5882299Y45220590D01*
X5886000Y45230935D01*
X5886000Y45231483D01*
X6394000Y45231483D01*
X6398064Y45217641D01*
X6411478Y45215607D01*
X6418184Y45216466D01*
X6428262Y45218608D01*
X6632255Y45279809D01*
X6641842Y45283567D01*
X6833095Y45377261D01*
X6841945Y45382536D01*
X7015328Y45506208D01*
X7023200Y45512861D01*
X7174052Y45663188D01*
X7180730Y45671035D01*
X7305003Y45843980D01*
X7310313Y45852817D01*
X7404670Y46043733D01*
X7408469Y46053328D01*
X7470377Y46257090D01*
X7472555Y46267163D01*
X7473986Y46278038D01*
X7471775Y46292222D01*
X7458617Y46296000D01*
X6412115Y46296000D01*
X6396876Y46291525D01*
X6395671Y46290135D01*
X6394000Y46282452D01*
X6394000Y45231483D01*
X5886000Y45231483D01*
X5886000Y46277885D01*
X5881525Y46293124D01*
X5880135Y46294329D01*
X5872452Y46296000D01*
X3872115Y46296000D01*
X3856876Y46291525D01*
X3855671Y46290135D01*
X3854000Y46282452D01*
X3854000Y45210116D01*
X3346000Y45210116D01*
X3346000Y46277885D01*
X3341525Y46293124D01*
X3340135Y46294329D01*
X3332452Y46296000D01*
X2260116Y46296000D01*
X2244877Y46291525D01*
X2243672Y46290135D01*
X2242001Y46282452D01*
X2242001Y45655331D01*
X508000Y45655331D01*
X508000Y46532034D01*
X12378257Y46532034D01*
X12408565Y46397554D01*
X12411645Y46387725D01*
X12491770Y46190397D01*
X12496413Y46181206D01*
X12607694Y45999612D01*
X12613777Y45991301D01*
X12753213Y45830333D01*
X12760580Y45823117D01*
X12924434Y45687084D01*
X12932881Y45681169D01*
X13116756Y45573721D01*
X13126042Y45569271D01*
X13325001Y45493297D01*
X13334899Y45490421D01*
X13438250Y45469394D01*
X13452299Y45470590D01*
X13456000Y45480935D01*
X13456000Y45481483D01*
X13964000Y45481483D01*
X13968064Y45467641D01*
X13981478Y45465607D01*
X13988184Y45466466D01*
X13998262Y45468608D01*
X14202255Y45529809D01*
X14211842Y45533567D01*
X14403095Y45627261D01*
X14411945Y45632536D01*
X14585328Y45756208D01*
X14593193Y45762855D01*
X14697897Y45867195D01*
X14760268Y45901111D01*
X14831075Y45895923D01*
X14887837Y45853277D01*
X14904819Y45822174D01*
X14949385Y45703295D01*
X15036739Y45586739D01*
X15153295Y45499385D01*
X15289684Y45448255D01*
X15351866Y45441500D01*
X17148134Y45441500D01*
X17210316Y45448255D01*
X17346705Y45499385D01*
X17463261Y45586739D01*
X17550615Y45703295D01*
X17601745Y45839684D01*
X17608500Y45901866D01*
X17608500Y46822115D01*
X37192000Y46822115D01*
X37196475Y46806876D01*
X37197865Y46805671D01*
X37205548Y46804000D01*
X38277885Y46804000D01*
X38293124Y46808475D01*
X38294329Y46809865D01*
X38296000Y46817548D01*
X38296000Y46822115D01*
X38804000Y46822115D01*
X38808475Y46806876D01*
X38809865Y46805671D01*
X38817548Y46804000D01*
X40817885Y46804000D01*
X40833124Y46808475D01*
X40834329Y46809865D01*
X40836000Y46817548D01*
X40836000Y46822115D01*
X41344000Y46822115D01*
X41348475Y46806876D01*
X41349865Y46805671D01*
X41357548Y46804000D01*
X42408344Y46804000D01*
X42421875Y46807973D01*
X42423180Y46817053D01*
X42381214Y46984125D01*
X42377894Y46993876D01*
X42292972Y47189186D01*
X42288105Y47198261D01*
X42172426Y47377074D01*
X42166136Y47385243D01*
X42022806Y47542760D01*
X42015273Y47549785D01*
X41848139Y47681778D01*
X41839552Y47687483D01*
X41653117Y47790401D01*
X41643705Y47794631D01*
X41442959Y47865720D01*
X41432988Y47868354D01*
X41361837Y47881028D01*
X41348540Y47879568D01*
X41344000Y47865011D01*
X41344000Y46822115D01*
X40836000Y46822115D01*
X40836000Y47866898D01*
X40832082Y47880242D01*
X40817806Y47882229D01*
X40779324Y47876340D01*
X40769288Y47873949D01*
X40566868Y47807788D01*
X40557359Y47803791D01*
X40368463Y47705458D01*
X40359738Y47699964D01*
X40189433Y47572095D01*
X40181726Y47565252D01*
X40104094Y47484015D01*
X40042570Y47448585D01*
X39971657Y47452042D01*
X39913871Y47493288D01*
X39895018Y47526836D01*
X39853324Y47638054D01*
X39844786Y47653649D01*
X39768285Y47755724D01*
X39755724Y47768285D01*
X39653649Y47844786D01*
X39638054Y47853324D01*
X39517606Y47898478D01*
X39502351Y47902105D01*
X39451486Y47907631D01*
X39444672Y47908000D01*
X38822115Y47908000D01*
X38806876Y47903525D01*
X38805671Y47902135D01*
X38804000Y47894452D01*
X38804000Y46822115D01*
X38296000Y46822115D01*
X38296000Y47889884D01*
X38291525Y47905123D01*
X38290135Y47906328D01*
X38282452Y47907999D01*
X37655331Y47907999D01*
X37648510Y47907629D01*
X37597648Y47902105D01*
X37582396Y47898479D01*
X37461946Y47853324D01*
X37446351Y47844786D01*
X37344276Y47768285D01*
X37331715Y47755724D01*
X37255214Y47653649D01*
X37246676Y47638054D01*
X37201522Y47517606D01*
X37197895Y47502351D01*
X37192369Y47451486D01*
X37192000Y47444672D01*
X37192000Y46822115D01*
X17608500Y46822115D01*
X17608500Y47698134D01*
X17601745Y47760316D01*
X17550615Y47896705D01*
X17463261Y48013261D01*
X17346705Y48100615D01*
X17210316Y48151745D01*
X17148134Y48158500D01*
X15351866Y48158500D01*
X15289684Y48151745D01*
X15153295Y48100615D01*
X15036739Y48013261D01*
X14949385Y47896705D01*
X14946233Y47888297D01*
X14946232Y47888295D01*
X14904722Y47777567D01*
X14862081Y47720802D01*
X14795519Y47696102D01*
X14726170Y47711309D01*
X14693546Y47736996D01*
X14642799Y47792766D01*
X14635273Y47799785D01*
X14468139Y47931778D01*
X14459552Y47937483D01*
X14273117Y48040401D01*
X14263705Y48044631D01*
X14062959Y48115720D01*
X14052988Y48118354D01*
X13981837Y48131028D01*
X13968540Y48129568D01*
X13964000Y48115011D01*
X13964000Y45481483D01*
X13456000Y45481483D01*
X13456000Y46527885D01*
X13451525Y46543124D01*
X13450135Y46544329D01*
X13442452Y46546000D01*
X12393225Y46546000D01*
X12379694Y46542027D01*
X12378257Y46532034D01*
X508000Y46532034D01*
X508000Y46822115D01*
X2242000Y46822115D01*
X2246475Y46806876D01*
X2247865Y46805671D01*
X2255548Y46804000D01*
X3327885Y46804000D01*
X3343124Y46808475D01*
X3344329Y46809865D01*
X3346000Y46817548D01*
X3346000Y46822115D01*
X3854000Y46822115D01*
X3858475Y46806876D01*
X3859865Y46805671D01*
X3867548Y46804000D01*
X5867885Y46804000D01*
X5883124Y46808475D01*
X5884329Y46809865D01*
X5886000Y46817548D01*
X5886000Y46822115D01*
X6394000Y46822115D01*
X6398475Y46806876D01*
X6399865Y46805671D01*
X6407548Y46804000D01*
X7458344Y46804000D01*
X7471875Y46807973D01*
X7473180Y46817053D01*
X7431214Y46984125D01*
X7427894Y46993876D01*
X7396614Y47065817D01*
X12374389Y47065817D01*
X12375912Y47057393D01*
X12388292Y47054000D01*
X13437885Y47054000D01*
X13453124Y47058475D01*
X13454329Y47059865D01*
X13456000Y47067548D01*
X13456000Y48116898D01*
X13452082Y48130242D01*
X13437806Y48132229D01*
X13399324Y48126340D01*
X13389288Y48123949D01*
X13186868Y48057788D01*
X13177359Y48053791D01*
X12988463Y47955458D01*
X12979738Y47949964D01*
X12809433Y47822095D01*
X12801726Y47815252D01*
X12654590Y47661283D01*
X12648104Y47653273D01*
X12528098Y47477351D01*
X12523000Y47468377D01*
X12433338Y47275217D01*
X12429775Y47265530D01*
X12374389Y47065817D01*
X7396614Y47065817D01*
X7342972Y47189186D01*
X7338105Y47198261D01*
X7222426Y47377074D01*
X7216136Y47385243D01*
X7072806Y47542760D01*
X7065273Y47549785D01*
X6898139Y47681778D01*
X6889552Y47687483D01*
X6703117Y47790401D01*
X6693705Y47794631D01*
X6492959Y47865720D01*
X6482988Y47868354D01*
X6411837Y47881028D01*
X6398540Y47879568D01*
X6394000Y47865011D01*
X6394000Y46822115D01*
X5886000Y46822115D01*
X5886000Y47866898D01*
X5882082Y47880242D01*
X5867806Y47882229D01*
X5829324Y47876340D01*
X5819288Y47873949D01*
X5616868Y47807788D01*
X5607359Y47803791D01*
X5418463Y47705458D01*
X5409738Y47699964D01*
X5239433Y47572095D01*
X5231726Y47565252D01*
X5154094Y47484015D01*
X5092570Y47448585D01*
X5021657Y47452042D01*
X4963871Y47493288D01*
X4945018Y47526836D01*
X4903324Y47638054D01*
X4894786Y47653649D01*
X4818285Y47755724D01*
X4805724Y47768285D01*
X4703649Y47844786D01*
X4688054Y47853324D01*
X4567606Y47898478D01*
X4552351Y47902105D01*
X4501486Y47907631D01*
X4494672Y47908000D01*
X3872115Y47908000D01*
X3856876Y47903525D01*
X3855671Y47902135D01*
X3854000Y47894452D01*
X3854000Y46822115D01*
X3346000Y46822115D01*
X3346000Y47889884D01*
X3341525Y47905123D01*
X3340135Y47906328D01*
X3332452Y47907999D01*
X2705331Y47907999D01*
X2698510Y47907629D01*
X2647648Y47902105D01*
X2632396Y47898479D01*
X2511946Y47853324D01*
X2496351Y47844786D01*
X2394276Y47768285D01*
X2381715Y47755724D01*
X2305214Y47653649D01*
X2296676Y47638054D01*
X2251522Y47517606D01*
X2247895Y47502351D01*
X2242369Y47451486D01*
X2242000Y47444672D01*
X2242000Y46822115D01*
X508000Y46822115D01*
X508000Y48816000D01*
X528002Y48884121D01*
X581658Y48930614D01*
X634000Y48942000D01*
X19366000Y48942000D01*
X19434121Y48921998D01*
G37*
%TD.AperFunction*%
%TD*%
M02*
