%TF.GenerationSoftware,KiCad,Pcbnew,(6.0.2)*%
%TF.CreationDate,2022-12-27T18:57:37-08:00*%
%TF.ProjectId,tr_switch,74725f73-7769-4746-9368-2e6b69636164,rev?*%
%TF.SameCoordinates,PX4b94250PY699e930*%
%TF.FileFunction,Copper,L1,Top*%
%TF.FilePolarity,Positive*%
%FSLAX46Y46*%
G04 Gerber Fmt 4.6, Leading zero omitted, Abs format (unit mm)*
G04 Created by KiCad (PCBNEW (6.0.2)) date 2022-12-27 18:57:37*
%MOMM*%
%LPD*%
G01*
G04 APERTURE LIST*
G04 Aperture macros list*
%AMRoundRect*
0 Rectangle with rounded corners*
0 $1 Rounding radius*
0 $2 $3 $4 $5 $6 $7 $8 $9 X,Y pos of 4 corners*
0 Add a 4 corners polygon primitive as box body*
4,1,4,$2,$3,$4,$5,$6,$7,$8,$9,$2,$3,0*
0 Add four circle primitives for the rounded corners*
1,1,$1+$1,$2,$3*
1,1,$1+$1,$4,$5*
1,1,$1+$1,$6,$7*
1,1,$1+$1,$8,$9*
0 Add four rect primitives between the rounded corners*
20,1,$1+$1,$2,$3,$4,$5,0*
20,1,$1+$1,$4,$5,$6,$7,0*
20,1,$1+$1,$6,$7,$8,$9,0*
20,1,$1+$1,$8,$9,$2,$3,0*%
G04 Aperture macros list end*
%TA.AperFunction,ComponentPad*%
%ADD10R,2.200000X2.200000*%
%TD*%
%TA.AperFunction,ComponentPad*%
%ADD11O,2.200000X2.200000*%
%TD*%
%TA.AperFunction,ComponentPad*%
%ADD12C,1.600000*%
%TD*%
%TA.AperFunction,ComponentPad*%
%ADD13R,1.600000X1.600000*%
%TD*%
%TA.AperFunction,ComponentPad*%
%ADD14O,1.600000X1.600000*%
%TD*%
%TA.AperFunction,SMDPad,CuDef*%
%ADD15RoundRect,0.237500X0.300000X0.237500X-0.300000X0.237500X-0.300000X-0.237500X0.300000X-0.237500X0*%
%TD*%
%TA.AperFunction,ComponentPad*%
%ADD16C,2.000000*%
%TD*%
%TA.AperFunction,SMDPad,CuDef*%
%ADD17R,3.600000X1.270000*%
%TD*%
%TA.AperFunction,SMDPad,CuDef*%
%ADD18R,4.200000X1.350000*%
%TD*%
%TA.AperFunction,SMDPad,CuDef*%
%ADD19RoundRect,0.237500X0.250000X0.237500X-0.250000X0.237500X-0.250000X-0.237500X0.250000X-0.237500X0*%
%TD*%
%TA.AperFunction,ComponentPad*%
%ADD20R,1.700000X1.700000*%
%TD*%
%TA.AperFunction,ComponentPad*%
%ADD21O,1.700000X1.700000*%
%TD*%
%TA.AperFunction,SMDPad,CuDef*%
%ADD22R,1.270000X3.600000*%
%TD*%
%TA.AperFunction,SMDPad,CuDef*%
%ADD23R,1.350000X4.200000*%
%TD*%
%TA.AperFunction,SMDPad,CuDef*%
%ADD24RoundRect,0.150000X0.150000X-0.587500X0.150000X0.587500X-0.150000X0.587500X-0.150000X-0.587500X0*%
%TD*%
%TA.AperFunction,SMDPad,CuDef*%
%ADD25RoundRect,0.237500X-0.250000X-0.237500X0.250000X-0.237500X0.250000X0.237500X-0.250000X0.237500X0*%
%TD*%
%TA.AperFunction,SMDPad,CuDef*%
%ADD26RoundRect,0.237500X-0.237500X0.250000X-0.237500X-0.250000X0.237500X-0.250000X0.237500X0.250000X0*%
%TD*%
%TA.AperFunction,SMDPad,CuDef*%
%ADD27RoundRect,0.237500X0.237500X-0.250000X0.237500X0.250000X-0.237500X0.250000X-0.237500X-0.250000X0*%
%TD*%
%TA.AperFunction,SMDPad,CuDef*%
%ADD28RoundRect,0.150000X0.587500X0.150000X-0.587500X0.150000X-0.587500X-0.150000X0.587500X-0.150000X0*%
%TD*%
%TA.AperFunction,SMDPad,CuDef*%
%ADD29RoundRect,0.150000X-0.150000X0.587500X-0.150000X-0.587500X0.150000X-0.587500X0.150000X0.587500X0*%
%TD*%
%TA.AperFunction,ComponentPad*%
%ADD30C,2.400000*%
%TD*%
%TA.AperFunction,ComponentPad*%
%ADD31O,2.400000X2.400000*%
%TD*%
%TA.AperFunction,ViaPad*%
%ADD32C,0.800000*%
%TD*%
%TA.AperFunction,Conductor*%
%ADD33C,0.609600*%
%TD*%
%TA.AperFunction,Conductor*%
%ADD34C,0.203200*%
%TD*%
G04 APERTURE END LIST*
D10*
%TO.P,D2,1,K*%
%TO.N,Net-(C5-Pad1)*%
X32450000Y38955000D03*
D11*
%TO.P,D2,2,A*%
%TO.N,Net-(D2-Pad2)*%
X32450000Y28795000D03*
%TD*%
D12*
%TO.P,C4,1*%
%TO.N,Net-(C4-Pad1)*%
X11675000Y33700000D03*
%TO.P,C4,2*%
%TO.N,Net-(C3-Pad1)*%
X11675000Y28700000D03*
%TD*%
D13*
%TO.P,D3,1,K*%
%TO.N,GND*%
X18650000Y28040000D03*
D14*
%TO.P,D3,2,A*%
%TO.N,Net-(C3-Pad2)*%
X18650000Y35660000D03*
%TD*%
D12*
%TO.P,C5,1*%
%TO.N,Net-(C5-Pad1)*%
X26025000Y41100000D03*
%TO.P,C5,2*%
%TO.N,Net-(C5-Pad2)*%
X21025000Y41100000D03*
%TD*%
D15*
%TO.P,C2,1*%
%TO.N,/VDD12*%
X30562500Y8000000D03*
%TO.P,C2,2*%
%TO.N,GND*%
X28837500Y8000000D03*
%TD*%
D16*
%TO.P,L2,1,1*%
%TO.N,Net-(C5-Pad1)*%
X22975000Y23715000D03*
%TO.P,L2,2,2*%
%TO.N,Net-(L2-Pad2)*%
X22975000Y18635000D03*
%TD*%
D17*
%TO.P,J4,1,In*%
%TO.N,Net-(C4-Pad1)*%
X2400000Y30000000D03*
D18*
%TO.P,J4,2,Ext*%
%TO.N,GND*%
X2600000Y32825000D03*
X2600000Y27175000D03*
%TD*%
D19*
%TO.P,R1,1*%
%TO.N,Net-(J2-Pad1)*%
X17612500Y4850000D03*
%TO.P,R1,2*%
%TO.N,Net-(Q1-Pad1)*%
X15787500Y4850000D03*
%TD*%
D20*
%TO.P,J9,1,Pin_1*%
%TO.N,GND*%
X3600000Y46550000D03*
D21*
%TO.P,J9,2,Pin_2*%
X6140000Y46550000D03*
%TD*%
D16*
%TO.P,L3,1,1*%
%TO.N,Net-(L3-Pad1)*%
X38425000Y18635000D03*
%TO.P,L3,2,2*%
%TO.N,Net-(D2-Pad2)*%
X38425000Y23715000D03*
%TD*%
D20*
%TO.P,J2,1,Pin_1*%
%TO.N,Net-(J2-Pad1)*%
X21825000Y3750000D03*
D21*
%TO.P,J2,2,Pin_2*%
%TO.N,GND*%
X24365000Y3750000D03*
%TD*%
D22*
%TO.P,J6,1,In*%
%TO.N,Net-(C5-Pad2)*%
X23500000Y47037500D03*
D23*
%TO.P,J6,2,Ext*%
%TO.N,GND*%
X26325000Y46837500D03*
X20675000Y46837500D03*
%TD*%
D16*
%TO.P,L1,1,1*%
%TO.N,Net-(L1-Pad1)*%
X10025000Y18585000D03*
%TO.P,L1,2,2*%
%TO.N,Net-(C3-Pad1)*%
X10025000Y23665000D03*
%TD*%
D12*
%TO.P,C7,1*%
%TO.N,GND*%
X25625000Y33800000D03*
%TO.P,C7,2*%
%TO.N,Net-(C7-Pad2)*%
X25625000Y28800000D03*
%TD*%
D19*
%TO.P,R13,1*%
%TO.N,Net-(Q5-Pad3)*%
X13662500Y13150000D03*
%TO.P,R13,2*%
%TO.N,Net-(Q6-Pad1)*%
X11837500Y13150000D03*
%TD*%
D24*
%TO.P,Q3,1,G*%
%TO.N,Net-(Q3-Pad1)*%
X39650000Y12912500D03*
%TO.P,Q3,2,S*%
%TO.N,/VDD12*%
X41550000Y12912500D03*
%TO.P,Q3,3,D*%
%TO.N,Net-(L3-Pad1)*%
X40600000Y14787500D03*
%TD*%
D13*
%TO.P,D4,1,K*%
%TO.N,Net-(C3-Pad2)*%
X21850000Y35710000D03*
D14*
%TO.P,D4,2,A*%
%TO.N,Net-(C7-Pad2)*%
X21850000Y28090000D03*
%TD*%
D25*
%TO.P,R12,1*%
%TO.N,Net-(Q2-Pad3)*%
X38537500Y9800000D03*
%TO.P,R12,2*%
%TO.N,Net-(Q3-Pad1)*%
X40362500Y9800000D03*
%TD*%
%TO.P,R7,1*%
%TO.N,Net-(Q1-Pad3)*%
X6637500Y8150000D03*
%TO.P,R7,2*%
%TO.N,Net-(Q5-Pad1)*%
X8462500Y8150000D03*
%TD*%
D15*
%TO.P,C1,1*%
%TO.N,/VDD12*%
X30512500Y10250000D03*
%TO.P,C1,2*%
%TO.N,GND*%
X28787500Y10250000D03*
%TD*%
D24*
%TO.P,Q6,1,G*%
%TO.N,Net-(Q6-Pad1)*%
X6450000Y12912500D03*
%TO.P,Q6,2,S*%
%TO.N,/VDD12*%
X8350000Y12912500D03*
%TO.P,Q6,3,D*%
%TO.N,Net-(L1-Pad1)*%
X7400000Y14787500D03*
%TD*%
D19*
%TO.P,R10,1*%
%TO.N,Net-(Q7-Pad3)*%
X12812500Y14950000D03*
%TO.P,R10,2*%
%TO.N,Net-(L1-Pad1)*%
X10987500Y14950000D03*
%TD*%
D10*
%TO.P,D1,1,K*%
%TO.N,Net-(C5-Pad1)*%
X7800000Y39130000D03*
D11*
%TO.P,D1,2,A*%
%TO.N,Net-(C3-Pad1)*%
X7800000Y28970000D03*
%TD*%
D20*
%TO.P,J1,1,Pin_1*%
%TO.N,/VDD12*%
X32650000Y3800000D03*
D21*
%TO.P,J1,2,Pin_2*%
%TO.N,GND*%
X30110000Y3800000D03*
%TD*%
D20*
%TO.P,J10,1,Pin_1*%
%TO.N,GND*%
X43050000Y2925000D03*
D21*
%TO.P,J10,2,Pin_2*%
X45590000Y2925000D03*
%TD*%
D19*
%TO.P,R5,1*%
%TO.N,/VDD12*%
X41612500Y7100000D03*
%TO.P,R5,2*%
%TO.N,Net-(Q3-Pad1)*%
X39787500Y7100000D03*
%TD*%
D25*
%TO.P,R4,1*%
%TO.N,Net-(J2-Pad1)*%
X21387500Y8975000D03*
%TO.P,R4,2*%
%TO.N,Net-(Q2-Pad1)*%
X23212500Y8975000D03*
%TD*%
%TO.P,R8,1*%
%TO.N,/VDD12*%
X6537500Y10400000D03*
%TO.P,R8,2*%
%TO.N,Net-(Q6-Pad1)*%
X8362500Y10400000D03*
%TD*%
D26*
%TO.P,R2,1*%
%TO.N,GND*%
X17800000Y10212500D03*
%TO.P,R2,2*%
%TO.N,Net-(J2-Pad1)*%
X17800000Y8387500D03*
%TD*%
D20*
%TO.P,J11,1,Pin_1*%
%TO.N,GND*%
X2600000Y4925000D03*
D21*
%TO.P,J11,2,Pin_2*%
X2600000Y2385000D03*
%TD*%
D12*
%TO.P,C6,1*%
%TO.N,Net-(C6-Pad1)*%
X41375000Y28500000D03*
%TO.P,C6,2*%
%TO.N,Net-(C6-Pad2)*%
X41375000Y33500000D03*
%TD*%
D24*
%TO.P,Q7,1,G*%
%TO.N,Net-(Q5-Pad3)*%
X18500000Y13062500D03*
%TO.P,Q7,2,S*%
%TO.N,GND*%
X20400000Y13062500D03*
%TO.P,Q7,3,D*%
%TO.N,Net-(Q7-Pad3)*%
X19450000Y14937500D03*
%TD*%
D17*
%TO.P,J7,1,In*%
%TO.N,Net-(C6-Pad2)*%
X46575000Y31025000D03*
D18*
%TO.P,J7,2,Ext*%
%TO.N,GND*%
X46375000Y28200000D03*
X46375000Y33850000D03*
%TD*%
D10*
%TO.P,D5,1,K*%
%TO.N,Net-(C6-Pad1)*%
X36850000Y38905000D03*
D11*
%TO.P,D5,2,A*%
%TO.N,Net-(D2-Pad2)*%
X36850000Y28745000D03*
%TD*%
D24*
%TO.P,Q5,1,B*%
%TO.N,Net-(Q5-Pad1)*%
X11400000Y9162500D03*
%TO.P,Q5,2,E*%
%TO.N,GND*%
X13300000Y9162500D03*
%TO.P,Q5,3,C*%
%TO.N,Net-(Q5-Pad3)*%
X12350000Y11037500D03*
%TD*%
D27*
%TO.P,R9,1*%
%TO.N,Net-(C7-Pad2)*%
X29075000Y28337500D03*
%TO.P,R9,2*%
%TO.N,Net-(D2-Pad2)*%
X29075000Y30162500D03*
%TD*%
D28*
%TO.P,Q1,1,B*%
%TO.N,Net-(Q1-Pad1)*%
X13137500Y4900000D03*
%TO.P,Q1,2,E*%
%TO.N,GND*%
X13137500Y6800000D03*
%TO.P,Q1,3,C*%
%TO.N,Net-(Q1-Pad3)*%
X11262500Y5850000D03*
%TD*%
D25*
%TO.P,R6,1*%
%TO.N,GND*%
X6687500Y5800000D03*
%TO.P,R6,2*%
%TO.N,Net-(Q1-Pad3)*%
X8512500Y5800000D03*
%TD*%
D19*
%TO.P,R3,1*%
%TO.N,Net-(Q1-Pad3)*%
X8525000Y3500000D03*
%TO.P,R3,2*%
%TO.N,/VDD12*%
X6700000Y3500000D03*
%TD*%
D16*
%TO.P,L4,1,1*%
%TO.N,Net-(C6-Pad1)*%
X41835000Y41125000D03*
%TO.P,L4,2,2*%
%TO.N,Net-(L4-Pad2)*%
X46915000Y41125000D03*
%TD*%
D29*
%TO.P,Q2,1,B*%
%TO.N,Net-(Q2-Pad1)*%
X36800000Y12137500D03*
%TO.P,Q2,2,E*%
%TO.N,GND*%
X34900000Y12137500D03*
%TO.P,Q2,3,C*%
%TO.N,Net-(Q2-Pad3)*%
X35850000Y10262500D03*
%TD*%
D20*
%TO.P,J12,1,Pin_1*%
%TO.N,GND*%
X35585000Y47525000D03*
D21*
%TO.P,J12,2,Pin_2*%
X38125000Y47525000D03*
%TD*%
D12*
%TO.P,C3,1*%
%TO.N,Net-(C3-Pad1)*%
X15125000Y28700000D03*
%TO.P,C3,2*%
%TO.N,Net-(C3-Pad2)*%
X15125000Y33700000D03*
%TD*%
D30*
%TO.P,R14,1*%
%TO.N,Net-(L4-Pad2)*%
X44625000Y43850000D03*
D31*
%TO.P,R14,2*%
%TO.N,GND*%
X29385000Y43850000D03*
%TD*%
D30*
%TO.P,R11,1*%
%TO.N,Net-(L2-Pad2)*%
X30370000Y21425000D03*
D31*
%TO.P,R11,2*%
%TO.N,GND*%
X15130000Y21425000D03*
%TD*%
D32*
%TO.N,/VDD12*%
X10150000Y12550000D03*
X4750000Y12050000D03*
%TO.N,GND*%
X15100000Y6500000D03*
X2450000Y15350000D03*
X20700000Y43400000D03*
X43325000Y29700000D03*
X5400000Y4750000D03*
X45800000Y11050000D03*
X26475000Y43500000D03*
X32900000Y8550000D03*
X1900000Y10150000D03*
X46025000Y22300000D03*
X45025000Y35500000D03*
X30625000Y17850000D03*
X27500002Y9099987D03*
X3550000Y34750000D03*
X14650000Y8800000D03*
X4875000Y24825000D03*
X16775000Y11650000D03*
X35050000Y2850000D03*
X34750000Y43350000D03*
X30800000Y25800000D03*
X33600000Y13500000D03*
X15725000Y31275000D03*
X10100000Y41950000D03*
X22150000Y12900000D03*
X26600000Y37475000D03*
%TD*%
D33*
%TO.N,/VDD12*%
X32650000Y3800000D02*
X32650000Y1750000D01*
X32100000Y1200000D02*
X7500000Y1200000D01*
X9787500Y12912500D02*
X10150000Y12550000D01*
X4100000Y9450000D02*
X4100000Y4650000D01*
X4750000Y12050000D02*
X4750000Y10600000D01*
X30512500Y10250000D02*
X30512500Y8050000D01*
X30512500Y8050000D02*
X30562500Y8000000D01*
X8350000Y12912500D02*
X9787500Y12912500D01*
X4750000Y10600000D02*
X5000000Y10350000D01*
X32650000Y1750000D02*
X32100000Y1200000D01*
X6487500Y10350000D02*
X6537500Y10400000D01*
X41612500Y5762500D02*
X41612500Y7100000D01*
X5000000Y10350000D02*
X6487500Y10350000D01*
X41612500Y12850000D02*
X41550000Y12912500D01*
X31856250Y6706250D02*
X30562500Y8000000D01*
X41612500Y7100000D02*
X41612500Y12850000D01*
X7500000Y1200000D02*
X6700000Y2000000D01*
X32650000Y5912500D02*
X36387500Y5912500D01*
X4100000Y4650000D02*
X5250000Y3500000D01*
X5250000Y3500000D02*
X6700000Y3500000D01*
X41100000Y5250000D02*
X41612500Y5762500D01*
X6700000Y2000000D02*
X6700000Y3500000D01*
X32650000Y5912500D02*
X31856250Y6706250D01*
X37050000Y5250000D02*
X41100000Y5250000D01*
X36387500Y5912500D02*
X37050000Y5250000D01*
X32650000Y3800000D02*
X32650000Y5912500D01*
X5000000Y10350000D02*
X4100000Y9450000D01*
%TO.N,Net-(C3-Pad1)*%
X11405000Y28970000D02*
X11675000Y28700000D01*
X7800000Y28970000D02*
X11405000Y28970000D01*
X10025000Y27050000D02*
X11675000Y28700000D01*
X11675000Y28700000D02*
X15125000Y28700000D01*
X10025000Y23665000D02*
X10025000Y27050000D01*
%TO.N,Net-(C4-Pad1)*%
X4650000Y30000000D02*
X2400000Y30000000D01*
X6475000Y31825000D02*
X9800000Y31825000D01*
X9800000Y31825000D02*
X11675000Y33700000D01*
X2500000Y29900000D02*
X2400000Y30000000D01*
X4650000Y30000000D02*
X6475000Y31825000D01*
%TO.N,Net-(C5-Pad1)*%
X7800000Y39130000D02*
X13795000Y39130000D01*
X13795000Y39130000D02*
X15075000Y37850000D01*
X28170000Y38955000D02*
X26025000Y41100000D01*
X15075000Y37850000D02*
X22775000Y37850000D01*
X32450000Y38955000D02*
X28170000Y38955000D01*
X22775000Y37850000D02*
X26025000Y41100000D01*
%TO.N,Net-(C5-Pad2)*%
X23500000Y43575000D02*
X23500000Y47037500D01*
X21025000Y41100000D02*
X23500000Y43575000D01*
%TO.N,Net-(C6-Pad1)*%
X41375000Y28500000D02*
X36850000Y33025000D01*
X36850000Y33025000D02*
X36850000Y38905000D01*
X39615000Y38905000D02*
X41835000Y41125000D01*
X36850000Y38905000D02*
X39615000Y38905000D01*
%TO.N,Net-(C6-Pad2)*%
X41375000Y33500000D02*
X43850000Y31025000D01*
X43850000Y31025000D02*
X46575000Y31025000D01*
%TO.N,Net-(J2-Pad1)*%
X20000000Y4850000D02*
X20725000Y4850000D01*
X20800000Y8387500D02*
X21387500Y8975000D01*
X17612500Y8200000D02*
X17800000Y8387500D01*
X17612500Y4850000D02*
X20000000Y4850000D01*
X17612500Y4850000D02*
X17612500Y8200000D01*
X17800000Y8387500D02*
X20800000Y8387500D01*
X20725000Y4850000D02*
X21825000Y3750000D01*
%TO.N,Net-(L2-Pad2)*%
X22975000Y18635000D02*
X27580000Y18635000D01*
X27580000Y18635000D02*
X30370000Y21425000D01*
%TO.N,Net-(Q1-Pad1)*%
X15737500Y4900000D02*
X15787500Y4850000D01*
X13137500Y4900000D02*
X15737500Y4900000D01*
%TO.N,Net-(Q1-Pad3)*%
X11262500Y5850000D02*
X8562500Y5850000D01*
D34*
X6637500Y7462500D02*
X7100000Y7000000D01*
X6637500Y8150000D02*
X6637500Y7462500D01*
X7800000Y7000000D02*
X8512500Y6287500D01*
D33*
X8562500Y5850000D02*
X8512500Y5800000D01*
D34*
X8512500Y6287500D02*
X8512500Y5800000D01*
D33*
X8525000Y5787500D02*
X8512500Y5800000D01*
D34*
X7100000Y7000000D02*
X7800000Y7000000D01*
D33*
X8525000Y3500000D02*
X8525000Y5787500D01*
%TO.N,Net-(Q2-Pad1)*%
X35875000Y15175000D02*
X36800000Y14250000D01*
X28850000Y15175000D02*
X35875000Y15175000D01*
X23212500Y9537500D02*
X28850000Y15175000D01*
X23212500Y8975000D02*
X23212500Y9537500D01*
X36800000Y14250000D02*
X36800000Y12137500D01*
%TO.N,Net-(Q2-Pad3)*%
X36312500Y9800000D02*
X35850000Y10262500D01*
D34*
X35837500Y10250000D02*
X35850000Y10262500D01*
D33*
X38537500Y9800000D02*
X36312500Y9800000D01*
%TO.N,Net-(Q5-Pad1)*%
X11400000Y9162500D02*
X11012500Y9162500D01*
X11012500Y9162500D02*
X10000000Y8150000D01*
X10000000Y8150000D02*
X8462500Y8150000D01*
%TO.N,Net-(Q5-Pad3)*%
X18500000Y13062500D02*
X13750000Y13062500D01*
X13037500Y11037500D02*
X13750000Y11750000D01*
X13750000Y13062500D02*
X13662500Y13150000D01*
X12350000Y11037500D02*
X13037500Y11037500D01*
X13750000Y11750000D02*
X13750000Y13062500D01*
%TO.N,Net-(Q7-Pad3)*%
X19450000Y14937500D02*
X19250000Y14737500D01*
X19250000Y14737500D02*
X13025000Y14737500D01*
X13025000Y14737500D02*
X12812500Y14950000D01*
%TO.N,Net-(Q3-Pad1)*%
X39650000Y12912500D02*
X39650000Y12300000D01*
X40362500Y8812500D02*
X40362500Y9800000D01*
X40362500Y11587500D02*
X40362500Y9800000D01*
X39787500Y8237500D02*
X40362500Y8812500D01*
X39787500Y7100000D02*
X39787500Y8237500D01*
X39650000Y12300000D02*
X40362500Y11587500D01*
D34*
%TO.N,Net-(Q6-Pad1)*%
X6450000Y12600000D02*
X8362500Y10687500D01*
X10000000Y10400000D02*
X11300000Y11700000D01*
X11300000Y12612500D02*
X11837500Y13150000D01*
X11300000Y11700000D02*
X11300000Y12612500D01*
X8362500Y10687500D02*
X8362500Y10400000D01*
X8362500Y10400000D02*
X10000000Y10400000D01*
X6450000Y12912500D02*
X6450000Y12600000D01*
D33*
%TO.N,Net-(C3-Pad2)*%
X18650000Y35660000D02*
X21800000Y35660000D01*
X15125000Y33700000D02*
X16690000Y33700000D01*
X21800000Y35660000D02*
X21850000Y35710000D01*
X16690000Y33700000D02*
X18650000Y35660000D01*
%TO.N,Net-(C7-Pad2)*%
X21850000Y28090000D02*
X24915000Y28090000D01*
X26087500Y28337500D02*
X25625000Y28800000D01*
X29075000Y28337500D02*
X26087500Y28337500D01*
X24915000Y28090000D02*
X25625000Y28800000D01*
%TO.N,Net-(L1-Pad1)*%
X10987500Y14950000D02*
X10987500Y17622500D01*
X10987500Y17622500D02*
X10025000Y18585000D01*
X10987500Y14950000D02*
X7562500Y14950000D01*
X7562500Y14950000D02*
X7400000Y14787500D01*
%TO.N,Net-(L3-Pad1)*%
X40600000Y16460000D02*
X38425000Y18635000D01*
X40600000Y14787500D02*
X40600000Y16460000D01*
%TO.N,Net-(D2-Pad2)*%
X38425000Y27170000D02*
X36850000Y28745000D01*
X36800000Y28795000D02*
X36850000Y28745000D01*
X31082500Y30162500D02*
X32450000Y28795000D01*
X29075000Y30162500D02*
X31082500Y30162500D01*
X38425000Y23715000D02*
X38425000Y27170000D01*
X32450000Y28795000D02*
X36800000Y28795000D01*
%TO.N,Net-(L4-Pad2)*%
X44625000Y43850000D02*
X44625000Y43415000D01*
X44625000Y43415000D02*
X46915000Y41125000D01*
%TD*%
%TA.AperFunction,Conductor*%
%TO.N,GND*%
G36*
X19443671Y49175998D02*
G01*
X19490164Y49122342D01*
X19500268Y49052068D01*
X19498133Y49040854D01*
X19497895Y49039852D01*
X19492370Y48988998D01*
X19492000Y48982172D01*
X19492000Y47109615D01*
X19496475Y47094376D01*
X19497865Y47093171D01*
X19505548Y47091500D01*
X21839884Y47091500D01*
X21855123Y47095975D01*
X21856328Y47097365D01*
X21857999Y47105048D01*
X21857999Y48982169D01*
X21857629Y48988998D01*
X21852106Y49039845D01*
X21851867Y49040850D01*
X21851909Y49041657D01*
X21851252Y49047707D01*
X21852230Y49047813D01*
X21855567Y49111750D01*
X21897011Y49169395D01*
X21963041Y49195483D01*
X21974449Y49196000D01*
X22562728Y49196000D01*
X22630849Y49175998D01*
X22677342Y49122342D01*
X22687446Y49052068D01*
X22667493Y48999998D01*
X22625266Y48936801D01*
X22610500Y48862567D01*
X22610501Y45212434D01*
X22625266Y45138199D01*
X22632161Y45127880D01*
X22632162Y45127878D01*
X22660809Y45085006D01*
X22681516Y45054016D01*
X22765699Y44997766D01*
X22839282Y44983130D01*
X22902191Y44950223D01*
X22937323Y44888528D01*
X22940700Y44859551D01*
X22940700Y43858860D01*
X22920698Y43790739D01*
X22903795Y43769765D01*
X21311261Y42177230D01*
X21248949Y42143205D01*
X21208996Y42141015D01*
X21038526Y42158932D01*
X21038524Y42158932D01*
X21032397Y42159576D01*
X20906229Y42148094D01*
X20832591Y42141393D01*
X20832590Y42141393D01*
X20826450Y42140834D01*
X20628066Y42082446D01*
X20622601Y42079589D01*
X20450261Y41989492D01*
X20450257Y41989489D01*
X20444801Y41986637D01*
X20283635Y41857057D01*
X20150708Y41698640D01*
X20051082Y41517422D01*
X19988553Y41320304D01*
X19965501Y41114794D01*
X19982806Y40908722D01*
X20039807Y40709934D01*
X20042625Y40704452D01*
X20042626Y40704448D01*
X20131514Y40531491D01*
X20131517Y40531487D01*
X20134334Y40526005D01*
X20262786Y40363939D01*
X20267479Y40359945D01*
X20267480Y40359944D01*
X20402852Y40244734D01*
X20420271Y40229909D01*
X20600789Y40129020D01*
X20797466Y40065116D01*
X21002809Y40040630D01*
X21008944Y40041102D01*
X21008946Y40041102D01*
X21202856Y40056023D01*
X21202860Y40056024D01*
X21208998Y40056496D01*
X21408178Y40112108D01*
X21413682Y40114888D01*
X21413684Y40114889D01*
X21587262Y40202569D01*
X21587264Y40202570D01*
X21592763Y40205348D01*
X21755722Y40332666D01*
X21759748Y40337330D01*
X21759751Y40337333D01*
X21886819Y40484543D01*
X21886820Y40484545D01*
X21890848Y40489211D01*
X21992995Y40669021D01*
X22058270Y40865247D01*
X22084189Y41070414D01*
X22084602Y41100000D01*
X22066426Y41285371D01*
X22079685Y41355118D01*
X22102730Y41386761D01*
X22993695Y42277725D01*
X23884753Y43168783D01*
X23888562Y43172436D01*
X23928676Y43209323D01*
X23934999Y43215137D01*
X23939528Y43222441D01*
X23958344Y43252787D01*
X23965067Y43262570D01*
X23986657Y43291014D01*
X23986657Y43291015D01*
X23991851Y43297857D01*
X23997543Y43312233D01*
X24007605Y43332239D01*
X24011222Y43338073D01*
X24015749Y43345374D01*
X24018145Y43353622D01*
X24018148Y43353628D01*
X24028110Y43387915D01*
X24031954Y43399142D01*
X24045098Y43432342D01*
X24045098Y43432343D01*
X24048262Y43440334D01*
X24049877Y43455702D01*
X24054191Y43477691D01*
X24056662Y43486195D01*
X24058502Y43492528D01*
X24059300Y43503395D01*
X24059300Y43538746D01*
X24059990Y43551917D01*
X24062578Y43576540D01*
X27697852Y43576540D01*
X27733593Y43396857D01*
X27736082Y43387882D01*
X27818708Y43157750D01*
X27822505Y43149222D01*
X27938234Y42933840D01*
X27943245Y42925973D01*
X28089550Y42730047D01*
X28095656Y42723023D01*
X28269316Y42550873D01*
X28276398Y42544824D01*
X28473586Y42400240D01*
X28481505Y42395292D01*
X28697877Y42281453D01*
X28706451Y42277725D01*
X28937282Y42197115D01*
X28946291Y42194701D01*
X29113201Y42163012D01*
X29126261Y42164296D01*
X29130506Y42177640D01*
X29639000Y42177640D01*
X29643171Y42163435D01*
X29655933Y42161380D01*
X29692487Y42165383D01*
X29701649Y42167081D01*
X29938107Y42229335D01*
X29946926Y42232372D01*
X30171584Y42328893D01*
X30179856Y42333200D01*
X30387777Y42461865D01*
X30395317Y42467343D01*
X30581943Y42625332D01*
X30588593Y42631868D01*
X30749813Y42815705D01*
X30755420Y42823146D01*
X30887700Y43028798D01*
X30892147Y43036989D01*
X30992572Y43259924D01*
X30995767Y43268702D01*
X31062135Y43504027D01*
X31063993Y43513156D01*
X31072246Y43578031D01*
X31069958Y43592292D01*
X31056938Y43596000D01*
X29657115Y43596000D01*
X29641876Y43591525D01*
X29640671Y43590135D01*
X29639000Y43582452D01*
X29639000Y42177640D01*
X29130506Y42177640D01*
X29131000Y42179192D01*
X29131000Y43577885D01*
X29126525Y43593124D01*
X29125135Y43594329D01*
X29117452Y43596000D01*
X27712096Y43596000D01*
X27699695Y43592359D01*
X27697852Y43576540D01*
X24062578Y43576540D01*
X24063382Y43584189D01*
X24064280Y43592733D01*
X24061065Y43611741D01*
X24059300Y43632754D01*
X24059300Y43885658D01*
X43165951Y43885658D01*
X43166248Y43880506D01*
X43166248Y43880502D01*
X43168007Y43850000D01*
X43179719Y43646879D01*
X43180856Y43641833D01*
X43180857Y43641827D01*
X43202295Y43546701D01*
X43232301Y43413554D01*
X43322284Y43191951D01*
X43324989Y43187536D01*
X43324990Y43187535D01*
X43369972Y43114132D01*
X43447254Y42988020D01*
X43603852Y42807238D01*
X43787874Y42654460D01*
X43792326Y42651858D01*
X43792331Y42651855D01*
X43826535Y42631868D01*
X43994377Y42533789D01*
X44217817Y42448466D01*
X44222883Y42447435D01*
X44222884Y42447435D01*
X44277729Y42436277D01*
X44452191Y42400782D01*
X44592323Y42395643D01*
X44686044Y42392206D01*
X44686048Y42392206D01*
X44691207Y42392017D01*
X44696327Y42392673D01*
X44696329Y42392673D01*
X44776825Y42402985D01*
X44846935Y42391801D01*
X44881930Y42367101D01*
X45672114Y41576917D01*
X45706140Y41514605D01*
X45704726Y41455211D01*
X45674839Y41343674D01*
X45655708Y41125000D01*
X45674839Y40906326D01*
X45731653Y40694297D01*
X45775104Y40601116D01*
X45822095Y40500341D01*
X45822098Y40500336D01*
X45824421Y40495354D01*
X45827577Y40490847D01*
X45827578Y40490845D01*
X45940693Y40329301D01*
X45950326Y40315543D01*
X46105543Y40160326D01*
X46110051Y40157169D01*
X46110054Y40157167D01*
X46280845Y40037578D01*
X46285354Y40034421D01*
X46290336Y40032098D01*
X46290341Y40032095D01*
X46391116Y39985104D01*
X46484297Y39941653D01*
X46696326Y39884839D01*
X46915000Y39865708D01*
X47133674Y39884839D01*
X47345703Y39941653D01*
X47438884Y39985104D01*
X47539659Y40032095D01*
X47539664Y40032098D01*
X47544646Y40034421D01*
X47549155Y40037578D01*
X47719946Y40157167D01*
X47719949Y40157169D01*
X47724457Y40160326D01*
X47879674Y40315543D01*
X47889308Y40329301D01*
X48002422Y40490845D01*
X48002423Y40490847D01*
X48005579Y40495354D01*
X48007902Y40500336D01*
X48007905Y40500341D01*
X48054896Y40601116D01*
X48098347Y40694297D01*
X48155161Y40906326D01*
X48174292Y41125000D01*
X48155161Y41343674D01*
X48098347Y41555703D01*
X48035188Y41691149D01*
X48007905Y41749659D01*
X48007902Y41749664D01*
X48005579Y41754646D01*
X48002422Y41759155D01*
X47882833Y41929946D01*
X47882831Y41929949D01*
X47879674Y41934457D01*
X47724457Y42089674D01*
X47719949Y42092831D01*
X47719946Y42092833D01*
X47549155Y42212422D01*
X47549153Y42212423D01*
X47544646Y42215579D01*
X47539664Y42217902D01*
X47539659Y42217905D01*
X47438884Y42264896D01*
X47345703Y42308347D01*
X47133674Y42365161D01*
X46915000Y42384292D01*
X46696326Y42365161D01*
X46584789Y42335274D01*
X46513813Y42336964D01*
X46463083Y42367886D01*
X45891514Y42939455D01*
X45857488Y43001767D01*
X45862553Y43072582D01*
X45872603Y43093440D01*
X45873008Y43094115D01*
X45876023Y43098310D01*
X45981995Y43312728D01*
X46051524Y43541575D01*
X46056127Y43576540D01*
X46082306Y43775383D01*
X46082306Y43775387D01*
X46082743Y43778704D01*
X46084485Y43850000D01*
X46064887Y44088372D01*
X46006620Y44320342D01*
X45950801Y44448718D01*
X45913309Y44534944D01*
X45913307Y44534947D01*
X45911249Y44539681D01*
X45781335Y44740498D01*
X45752470Y44772221D01*
X45623844Y44913578D01*
X45623842Y44913579D01*
X45620366Y44917400D01*
X45616315Y44920599D01*
X45616311Y44920603D01*
X45436725Y45062431D01*
X45432667Y45065636D01*
X45223277Y45181226D01*
X44997819Y45261064D01*
X44949046Y45269752D01*
X44767438Y45302102D01*
X44767434Y45302102D01*
X44762350Y45303008D01*
X44678548Y45304032D01*
X44528360Y45305867D01*
X44528358Y45305867D01*
X44523191Y45305930D01*
X44364680Y45281674D01*
X44291876Y45270534D01*
X44291874Y45270533D01*
X44286767Y45269752D01*
X44216167Y45246676D01*
X44064340Y45197051D01*
X44064338Y45197050D01*
X44059427Y45195445D01*
X43847275Y45085006D01*
X43843142Y45081903D01*
X43843139Y45081901D01*
X43699650Y44974166D01*
X43656010Y44941400D01*
X43490767Y44768484D01*
X43355985Y44570901D01*
X43322817Y44499446D01*
X43268197Y44381776D01*
X43255284Y44353958D01*
X43191366Y44123480D01*
X43190817Y44118346D01*
X43190817Y44118344D01*
X43187614Y44088372D01*
X43165951Y43885658D01*
X24059300Y43885658D01*
X24059300Y44122024D01*
X27695675Y44122024D01*
X27698435Y44107297D01*
X27710614Y44104000D01*
X29112885Y44104000D01*
X29128124Y44108475D01*
X29129329Y44109865D01*
X29131000Y44117548D01*
X29131000Y44122115D01*
X29639000Y44122115D01*
X29643475Y44106876D01*
X29644865Y44105671D01*
X29652548Y44104000D01*
X31060671Y44104000D01*
X31074202Y44107973D01*
X31075634Y44117932D01*
X31023979Y44346214D01*
X31021255Y44355125D01*
X30932633Y44583017D01*
X30928619Y44591433D01*
X30807286Y44803719D01*
X30802070Y44811452D01*
X30650692Y45003475D01*
X30644399Y45010343D01*
X30466294Y45177888D01*
X30459060Y45183746D01*
X30258141Y45323128D01*
X30250115Y45327856D01*
X30030810Y45436005D01*
X30022177Y45439493D01*
X29789288Y45514042D01*
X29780238Y45516215D01*
X29656880Y45536304D01*
X29643286Y45534607D01*
X29639000Y45520500D01*
X29639000Y44122115D01*
X29131000Y44122115D01*
X29131000Y45521141D01*
X29126982Y45534825D01*
X29113290Y45536846D01*
X29033521Y45525990D01*
X29024403Y45524052D01*
X28789668Y45455633D01*
X28780915Y45452361D01*
X28558869Y45349996D01*
X28550714Y45345476D01*
X28346233Y45211413D01*
X28338828Y45205730D01*
X28156413Y45042918D01*
X28149935Y45036210D01*
X27993584Y44848219D01*
X27988163Y44840619D01*
X27861322Y44631591D01*
X27857084Y44623274D01*
X27762529Y44397786D01*
X27759572Y44388948D01*
X27699382Y44151952D01*
X27697764Y44142772D01*
X27695675Y44122024D01*
X24059300Y44122024D01*
X24059300Y44692831D01*
X25142001Y44692831D01*
X25142371Y44686010D01*
X25147895Y44635148D01*
X25151521Y44619896D01*
X25196676Y44499446D01*
X25205214Y44483851D01*
X25281715Y44381776D01*
X25294276Y44369215D01*
X25396351Y44292714D01*
X25411946Y44284176D01*
X25532394Y44239022D01*
X25547649Y44235395D01*
X25598514Y44229869D01*
X25605328Y44229500D01*
X26052885Y44229500D01*
X26068124Y44233975D01*
X26069329Y44235365D01*
X26071000Y44243048D01*
X26071000Y44247616D01*
X26579000Y44247616D01*
X26583475Y44232377D01*
X26584865Y44231172D01*
X26592548Y44229501D01*
X27044669Y44229501D01*
X27051490Y44229871D01*
X27102352Y44235395D01*
X27117604Y44239021D01*
X27238054Y44284176D01*
X27253649Y44292714D01*
X27355724Y44369215D01*
X27368285Y44381776D01*
X27444786Y44483851D01*
X27453324Y44499446D01*
X27498478Y44619894D01*
X27502105Y44635149D01*
X27507631Y44686014D01*
X27508000Y44692828D01*
X27508000Y46565385D01*
X27503525Y46580624D01*
X27502135Y46581829D01*
X27494452Y46583500D01*
X26597115Y46583500D01*
X26581876Y46579025D01*
X26580671Y46577635D01*
X26579000Y46569952D01*
X26579000Y44247616D01*
X26071000Y44247616D01*
X26071000Y46565385D01*
X26066525Y46580624D01*
X26065135Y46581829D01*
X26057452Y46583500D01*
X25160116Y46583500D01*
X25144877Y46579025D01*
X25143672Y46577635D01*
X25142001Y46569952D01*
X25142001Y44692831D01*
X24059300Y44692831D01*
X24059300Y44859552D01*
X24079302Y44927673D01*
X24132958Y44974166D01*
X24160720Y44983131D01*
X24168294Y44984637D01*
X24234301Y44997766D01*
X24244621Y45004661D01*
X24244622Y45004662D01*
X24308168Y45047123D01*
X24318484Y45054016D01*
X24374734Y45138199D01*
X24389500Y45212433D01*
X24389500Y46630331D01*
X34227001Y46630331D01*
X34227371Y46623510D01*
X34232895Y46572648D01*
X34236521Y46557396D01*
X34281676Y46436946D01*
X34290214Y46421351D01*
X34366715Y46319276D01*
X34379276Y46306715D01*
X34481351Y46230214D01*
X34496946Y46221676D01*
X34617394Y46176522D01*
X34632649Y46172895D01*
X34683514Y46167369D01*
X34690328Y46167000D01*
X35312885Y46167000D01*
X35328124Y46171475D01*
X35329329Y46172865D01*
X35331000Y46180548D01*
X35331000Y46185116D01*
X35839000Y46185116D01*
X35843475Y46169877D01*
X35844865Y46168672D01*
X35852548Y46167001D01*
X36479669Y46167001D01*
X36486490Y46167371D01*
X36537352Y46172895D01*
X36552604Y46176521D01*
X36673054Y46221676D01*
X36688649Y46230214D01*
X36790724Y46306715D01*
X36803285Y46319276D01*
X36879786Y46421351D01*
X36888325Y46436948D01*
X36929425Y46546582D01*
X36972066Y46603347D01*
X37038628Y46628047D01*
X37107977Y46612840D01*
X37142645Y46584850D01*
X37168219Y46555326D01*
X37175580Y46548117D01*
X37339434Y46412084D01*
X37347881Y46406169D01*
X37531756Y46298721D01*
X37541042Y46294271D01*
X37740001Y46218297D01*
X37749899Y46215421D01*
X37853250Y46194394D01*
X37867299Y46195590D01*
X37871000Y46205935D01*
X37871000Y46206483D01*
X38379000Y46206483D01*
X38383064Y46192641D01*
X38396478Y46190607D01*
X38403184Y46191466D01*
X38413262Y46193608D01*
X38617255Y46254809D01*
X38626842Y46258567D01*
X38818095Y46352261D01*
X38826945Y46357536D01*
X39000328Y46481208D01*
X39008200Y46487861D01*
X39159052Y46638188D01*
X39165730Y46646035D01*
X39290003Y46818980D01*
X39295313Y46827817D01*
X39389670Y47018733D01*
X39393469Y47028328D01*
X39455377Y47232090D01*
X39457555Y47242163D01*
X39458986Y47253038D01*
X39456775Y47267222D01*
X39443617Y47271000D01*
X38397115Y47271000D01*
X38381876Y47266525D01*
X38380671Y47265135D01*
X38379000Y47257452D01*
X38379000Y46206483D01*
X37871000Y46206483D01*
X37871000Y47252885D01*
X37866525Y47268124D01*
X37865135Y47269329D01*
X37857452Y47271000D01*
X35857115Y47271000D01*
X35841876Y47266525D01*
X35840671Y47265135D01*
X35839000Y47257452D01*
X35839000Y46185116D01*
X35331000Y46185116D01*
X35331000Y47252885D01*
X35326525Y47268124D01*
X35325135Y47269329D01*
X35317452Y47271000D01*
X34245116Y47271000D01*
X34229877Y47266525D01*
X34228672Y47265135D01*
X34227001Y47257452D01*
X34227001Y46630331D01*
X24389500Y46630331D01*
X24389499Y48862566D01*
X24374734Y48936801D01*
X24332507Y48999998D01*
X24311292Y49067751D01*
X24330075Y49136218D01*
X24382892Y49183661D01*
X24437272Y49196000D01*
X25025550Y49196000D01*
X25093671Y49175998D01*
X25140164Y49122342D01*
X25150268Y49052068D01*
X25148133Y49040854D01*
X25147895Y49039852D01*
X25142370Y48988998D01*
X25142000Y48982172D01*
X25142000Y47109615D01*
X25146475Y47094376D01*
X25147865Y47093171D01*
X25155548Y47091500D01*
X27489884Y47091500D01*
X27505123Y47095975D01*
X27506328Y47097365D01*
X27507999Y47105048D01*
X27507999Y47797115D01*
X34227000Y47797115D01*
X34231475Y47781876D01*
X34232865Y47780671D01*
X34240548Y47779000D01*
X35312885Y47779000D01*
X35328124Y47783475D01*
X35329329Y47784865D01*
X35331000Y47792548D01*
X35331000Y47797115D01*
X35839000Y47797115D01*
X35843475Y47781876D01*
X35844865Y47780671D01*
X35852548Y47779000D01*
X37852885Y47779000D01*
X37868124Y47783475D01*
X37869329Y47784865D01*
X37871000Y47792548D01*
X37871000Y47797115D01*
X38379000Y47797115D01*
X38383475Y47781876D01*
X38384865Y47780671D01*
X38392548Y47779000D01*
X39443344Y47779000D01*
X39456875Y47782973D01*
X39458180Y47792053D01*
X39416214Y47959125D01*
X39412894Y47968876D01*
X39327972Y48164186D01*
X39323105Y48173261D01*
X39207426Y48352074D01*
X39201136Y48360243D01*
X39057806Y48517760D01*
X39050273Y48524785D01*
X38883139Y48656778D01*
X38874552Y48662483D01*
X38688117Y48765401D01*
X38678705Y48769631D01*
X38477959Y48840720D01*
X38467988Y48843354D01*
X38396837Y48856028D01*
X38383540Y48854568D01*
X38379000Y48840011D01*
X38379000Y47797115D01*
X37871000Y47797115D01*
X37871000Y48841898D01*
X37867082Y48855242D01*
X37852806Y48857229D01*
X37814324Y48851340D01*
X37804288Y48848949D01*
X37601868Y48782788D01*
X37592359Y48778791D01*
X37403463Y48680458D01*
X37394738Y48674964D01*
X37224433Y48547095D01*
X37216726Y48540252D01*
X37139094Y48459015D01*
X37077570Y48423585D01*
X37006657Y48427042D01*
X36948871Y48468288D01*
X36930018Y48501836D01*
X36888324Y48613054D01*
X36879786Y48628649D01*
X36803285Y48730724D01*
X36790724Y48743285D01*
X36688649Y48819786D01*
X36673054Y48828324D01*
X36552606Y48873478D01*
X36537351Y48877105D01*
X36486486Y48882631D01*
X36479672Y48883000D01*
X35857115Y48883000D01*
X35841876Y48878525D01*
X35840671Y48877135D01*
X35839000Y48869452D01*
X35839000Y47797115D01*
X35331000Y47797115D01*
X35331000Y48864884D01*
X35326525Y48880123D01*
X35325135Y48881328D01*
X35317452Y48882999D01*
X34690331Y48882999D01*
X34683510Y48882629D01*
X34632648Y48877105D01*
X34617396Y48873479D01*
X34496946Y48828324D01*
X34481351Y48819786D01*
X34379276Y48743285D01*
X34366715Y48730724D01*
X34290214Y48628649D01*
X34281676Y48613054D01*
X34236522Y48492606D01*
X34232895Y48477351D01*
X34227369Y48426486D01*
X34227000Y48419672D01*
X34227000Y47797115D01*
X27507999Y47797115D01*
X27507999Y48982169D01*
X27507629Y48988998D01*
X27502106Y49039845D01*
X27501867Y49040850D01*
X27501909Y49041657D01*
X27501252Y49047707D01*
X27502230Y49047813D01*
X27505567Y49111750D01*
X27547011Y49169395D01*
X27613041Y49195483D01*
X27624449Y49196000D01*
X48595000Y49196000D01*
X48663121Y49175998D01*
X48709614Y49122342D01*
X48721000Y49070000D01*
X48721000Y35151929D01*
X48700998Y35083808D01*
X48647342Y35037315D01*
X48581392Y35026666D01*
X48526486Y35032631D01*
X48519672Y35033000D01*
X46647115Y35033000D01*
X46631876Y35028525D01*
X46630671Y35027135D01*
X46629000Y35019452D01*
X46629000Y32685116D01*
X46633475Y32669877D01*
X46634865Y32668672D01*
X46642548Y32667001D01*
X48519669Y32667001D01*
X48526490Y32667371D01*
X48581395Y32673334D01*
X48651277Y32660805D01*
X48703292Y32612483D01*
X48721000Y32548071D01*
X48721000Y31970624D01*
X48700998Y31902503D01*
X48647342Y31856010D01*
X48577068Y31845906D01*
X48524998Y31865859D01*
X48484620Y31892839D01*
X48474301Y31899734D01*
X48400067Y31914500D01*
X46575295Y31914500D01*
X44749934Y31914499D01*
X44714182Y31907388D01*
X44687874Y31902156D01*
X44687872Y31902155D01*
X44675699Y31899734D01*
X44665379Y31892839D01*
X44665378Y31892838D01*
X44625002Y31865859D01*
X44591516Y31843484D01*
X44535266Y31759301D01*
X44524508Y31705214D01*
X44520630Y31685719D01*
X44487723Y31622809D01*
X44426028Y31587677D01*
X44397051Y31584300D01*
X44133860Y31584300D01*
X44065739Y31604302D01*
X44044765Y31621205D01*
X43278791Y32387179D01*
X42535638Y33130331D01*
X43767001Y33130331D01*
X43767371Y33123510D01*
X43772895Y33072648D01*
X43776521Y33057396D01*
X43821676Y32936946D01*
X43830214Y32921351D01*
X43906715Y32819276D01*
X43919276Y32806715D01*
X44021351Y32730214D01*
X44036946Y32721676D01*
X44157394Y32676522D01*
X44172649Y32672895D01*
X44223514Y32667369D01*
X44230328Y32667000D01*
X46102885Y32667000D01*
X46118124Y32671475D01*
X46119329Y32672865D01*
X46121000Y32680548D01*
X46121000Y33577885D01*
X46116525Y33593124D01*
X46115135Y33594329D01*
X46107452Y33596000D01*
X43785116Y33596000D01*
X43769877Y33591525D01*
X43768672Y33590135D01*
X43767001Y33582452D01*
X43767001Y33130331D01*
X42535638Y33130331D01*
X42451071Y33214898D01*
X42417046Y33277210D01*
X42415160Y33319785D01*
X42429790Y33435592D01*
X42434189Y33470414D01*
X42434602Y33500000D01*
X42414422Y33705811D01*
X42354651Y33903783D01*
X42257565Y34086375D01*
X42253674Y34091145D01*
X42253672Y34091149D01*
X42228417Y34122115D01*
X43767000Y34122115D01*
X43771475Y34106876D01*
X43772865Y34105671D01*
X43780548Y34104000D01*
X46102885Y34104000D01*
X46118124Y34108475D01*
X46119329Y34109865D01*
X46121000Y34117548D01*
X46121000Y35014884D01*
X46116525Y35030123D01*
X46115135Y35031328D01*
X46107452Y35032999D01*
X44230331Y35032999D01*
X44223510Y35032629D01*
X44172648Y35027105D01*
X44157396Y35023479D01*
X44036946Y34978324D01*
X44021351Y34969786D01*
X43919276Y34893285D01*
X43906715Y34880724D01*
X43830214Y34778649D01*
X43821676Y34763054D01*
X43776522Y34642606D01*
X43772895Y34627351D01*
X43767369Y34576486D01*
X43767000Y34569672D01*
X43767000Y34122115D01*
X42228417Y34122115D01*
X42130758Y34241857D01*
X42130755Y34241860D01*
X42126863Y34246632D01*
X42117893Y34254053D01*
X41972271Y34374522D01*
X41972266Y34374525D01*
X41967522Y34378450D01*
X41962103Y34381380D01*
X41962100Y34381382D01*
X41791032Y34473878D01*
X41791027Y34473880D01*
X41785612Y34476808D01*
X41588063Y34537960D01*
X41581938Y34538604D01*
X41581937Y34538604D01*
X41388526Y34558932D01*
X41388524Y34558932D01*
X41382397Y34559576D01*
X41256229Y34548094D01*
X41182591Y34541393D01*
X41182590Y34541393D01*
X41176450Y34540834D01*
X40978066Y34482446D01*
X40972601Y34479589D01*
X40800261Y34389492D01*
X40800257Y34389489D01*
X40794801Y34386637D01*
X40633635Y34257057D01*
X40500708Y34098640D01*
X40401082Y33917422D01*
X40338553Y33720304D01*
X40337867Y33714187D01*
X40337866Y33714183D01*
X40321322Y33566688D01*
X40315501Y33514794D01*
X40316743Y33500000D01*
X40332207Y33315860D01*
X40332806Y33308722D01*
X40389807Y33109934D01*
X40392625Y33104452D01*
X40392626Y33104448D01*
X40481514Y32931491D01*
X40481517Y32931487D01*
X40484334Y32926005D01*
X40612786Y32763939D01*
X40617479Y32759945D01*
X40617480Y32759944D01*
X40740612Y32655151D01*
X40770271Y32629909D01*
X40950789Y32529020D01*
X41147466Y32465116D01*
X41352809Y32440630D01*
X41358944Y32441102D01*
X41358946Y32441102D01*
X41558998Y32456496D01*
X41559104Y32455121D01*
X41622700Y32448033D01*
X41663123Y32420908D01*
X43443783Y30640247D01*
X43447436Y30636438D01*
X43490137Y30590001D01*
X43497439Y30585473D01*
X43497441Y30585472D01*
X43527787Y30566656D01*
X43537570Y30559933D01*
X43572857Y30533149D01*
X43587233Y30527457D01*
X43607237Y30517396D01*
X43620374Y30509251D01*
X43628622Y30506855D01*
X43628628Y30506852D01*
X43662915Y30496890D01*
X43674142Y30493046D01*
X43707342Y30479902D01*
X43715334Y30476738D01*
X43730702Y30475123D01*
X43752687Y30470810D01*
X43767528Y30466498D01*
X43774105Y30466015D01*
X43776088Y30465869D01*
X43776099Y30465869D01*
X43778395Y30465700D01*
X43813746Y30465700D01*
X43826917Y30465010D01*
X43851112Y30462467D01*
X43867733Y30460720D01*
X43876205Y30462153D01*
X43876206Y30462153D01*
X43886741Y30463935D01*
X43907754Y30465700D01*
X44397052Y30465700D01*
X44465173Y30445698D01*
X44511666Y30392042D01*
X44520631Y30364280D01*
X44535266Y30290699D01*
X44591516Y30206516D01*
X44675699Y30150266D01*
X44749933Y30135500D01*
X46574705Y30135500D01*
X48400066Y30135501D01*
X48435818Y30142612D01*
X48462126Y30147844D01*
X48462128Y30147845D01*
X48474301Y30150266D01*
X48484621Y30157161D01*
X48484622Y30157162D01*
X48524998Y30184141D01*
X48592750Y30205356D01*
X48661217Y30186573D01*
X48708661Y30133756D01*
X48721000Y30079376D01*
X48721000Y29501929D01*
X48700998Y29433808D01*
X48647342Y29387315D01*
X48581392Y29376666D01*
X48526486Y29382631D01*
X48519672Y29383000D01*
X46647115Y29383000D01*
X46631876Y29378525D01*
X46630671Y29377135D01*
X46629000Y29369452D01*
X46629000Y27035116D01*
X46633475Y27019877D01*
X46634865Y27018672D01*
X46642548Y27017001D01*
X48519669Y27017001D01*
X48526490Y27017371D01*
X48581395Y27023334D01*
X48651277Y27010805D01*
X48703292Y26962483D01*
X48721000Y26898071D01*
X48721000Y380000D01*
X48700998Y311879D01*
X48647342Y265386D01*
X48595000Y254000D01*
X380000Y254000D01*
X311879Y274002D01*
X265386Y327658D01*
X254000Y380000D01*
X254000Y2117034D01*
X1268257Y2117034D01*
X1298565Y1982554D01*
X1301645Y1972725D01*
X1381770Y1775397D01*
X1386413Y1766206D01*
X1497694Y1584612D01*
X1503777Y1576301D01*
X1643213Y1415333D01*
X1650580Y1408117D01*
X1814434Y1272084D01*
X1822881Y1266169D01*
X2006756Y1158721D01*
X2016042Y1154271D01*
X2215001Y1078297D01*
X2224899Y1075421D01*
X2328250Y1054394D01*
X2342299Y1055590D01*
X2346000Y1065935D01*
X2346000Y1066483D01*
X2854000Y1066483D01*
X2858064Y1052641D01*
X2871478Y1050607D01*
X2878184Y1051466D01*
X2888262Y1053608D01*
X3092255Y1114809D01*
X3101842Y1118567D01*
X3293095Y1212261D01*
X3301945Y1217536D01*
X3475328Y1341208D01*
X3483200Y1347861D01*
X3634052Y1498188D01*
X3640730Y1506035D01*
X3765003Y1678980D01*
X3770313Y1687817D01*
X3864670Y1878733D01*
X3868469Y1888328D01*
X3930377Y2092090D01*
X3932555Y2102163D01*
X3933986Y2113038D01*
X3931775Y2127222D01*
X3918617Y2131000D01*
X2872115Y2131000D01*
X2856876Y2126525D01*
X2855671Y2125135D01*
X2854000Y2117452D01*
X2854000Y1066483D01*
X2346000Y1066483D01*
X2346000Y2112885D01*
X2341525Y2128124D01*
X2340135Y2129329D01*
X2332452Y2131000D01*
X1283225Y2131000D01*
X1269694Y2127027D01*
X1268257Y2117034D01*
X254000Y2117034D01*
X254000Y4030331D01*
X1242001Y4030331D01*
X1242371Y4023510D01*
X1247895Y3972648D01*
X1251521Y3957396D01*
X1296676Y3836946D01*
X1305214Y3821351D01*
X1381715Y3719276D01*
X1394276Y3706715D01*
X1496351Y3630214D01*
X1511946Y3621676D01*
X1621337Y3580667D01*
X1678101Y3538025D01*
X1702801Y3471464D01*
X1687594Y3402115D01*
X1668201Y3375634D01*
X1544590Y3246283D01*
X1538104Y3238273D01*
X1418098Y3062351D01*
X1413000Y3053377D01*
X1323338Y2860217D01*
X1319775Y2850530D01*
X1264389Y2650817D01*
X1265912Y2642393D01*
X1278292Y2639000D01*
X2327885Y2639000D01*
X2343124Y2643475D01*
X2344329Y2644865D01*
X2346000Y2652548D01*
X2346000Y2657115D01*
X2854000Y2657115D01*
X2858475Y2641876D01*
X2859865Y2640671D01*
X2867548Y2639000D01*
X3918344Y2639000D01*
X3931875Y2642973D01*
X3933180Y2652053D01*
X3891214Y2819125D01*
X3887894Y2828876D01*
X3802972Y3024186D01*
X3798105Y3033261D01*
X3682426Y3212074D01*
X3676136Y3220243D01*
X3531931Y3378721D01*
X3500879Y3442567D01*
X3509273Y3513066D01*
X3554450Y3567834D01*
X3580894Y3581503D01*
X3688054Y3621676D01*
X3703649Y3630214D01*
X3805724Y3706715D01*
X3818285Y3719276D01*
X3894790Y3821356D01*
X3899984Y3830844D01*
X3950242Y3880991D01*
X4019633Y3896005D01*
X4086125Y3871120D01*
X4099598Y3859433D01*
X4476578Y3482452D01*
X4843795Y3115235D01*
X4847447Y3111426D01*
X4890137Y3065001D01*
X4897439Y3060473D01*
X4897441Y3060472D01*
X4927787Y3041656D01*
X4937570Y3034933D01*
X4972857Y3008149D01*
X4987233Y3002457D01*
X5007237Y2992396D01*
X5020374Y2984251D01*
X5028622Y2981855D01*
X5028628Y2981852D01*
X5062915Y2971890D01*
X5074142Y2968046D01*
X5107342Y2954902D01*
X5115334Y2951738D01*
X5130702Y2950123D01*
X5152687Y2945810D01*
X5167528Y2941498D01*
X5174105Y2941015D01*
X5176088Y2940869D01*
X5176099Y2940869D01*
X5178395Y2940700D01*
X5213746Y2940700D01*
X5226917Y2940010D01*
X5267733Y2935720D01*
X5276205Y2937153D01*
X5276206Y2937153D01*
X5286741Y2938935D01*
X5307754Y2940700D01*
X6014700Y2940700D01*
X6082821Y2920698D01*
X6129314Y2867042D01*
X6140700Y2814700D01*
X6140700Y2015159D01*
X6140589Y2009883D01*
X6137948Y1946871D01*
X6148064Y1903743D01*
X6150227Y1892070D01*
X6156239Y1848179D01*
X6159649Y1840299D01*
X6162378Y1833991D01*
X6169411Y1812727D01*
X6172940Y1797680D01*
X6177075Y1790158D01*
X6177078Y1790151D01*
X6194284Y1758854D01*
X6199505Y1748198D01*
X6217097Y1707544D01*
X6226826Y1695530D01*
X6239317Y1676941D01*
X6246763Y1663396D01*
X6253883Y1655148D01*
X6278880Y1630151D01*
X6287705Y1620350D01*
X6313533Y1588455D01*
X6320531Y1583482D01*
X6320533Y1583480D01*
X6329251Y1577285D01*
X6345358Y1563673D01*
X7093795Y815235D01*
X7097447Y811426D01*
X7140137Y765001D01*
X7147439Y760473D01*
X7147441Y760472D01*
X7177787Y741656D01*
X7187570Y734933D01*
X7211068Y717097D01*
X7222857Y708149D01*
X7237233Y702457D01*
X7257237Y692396D01*
X7270374Y684251D01*
X7278622Y681855D01*
X7278628Y681852D01*
X7312915Y671890D01*
X7324142Y668046D01*
X7356908Y655074D01*
X7365334Y651738D01*
X7380702Y650123D01*
X7402687Y645810D01*
X7417528Y641498D01*
X7424105Y641015D01*
X7426088Y640869D01*
X7426099Y640869D01*
X7428395Y640700D01*
X7463746Y640700D01*
X7476917Y640010D01*
X7517733Y635720D01*
X7526205Y637153D01*
X7526206Y637153D01*
X7536741Y638935D01*
X7557754Y640700D01*
X32084841Y640700D01*
X32090118Y640589D01*
X32153129Y637948D01*
X32196265Y648065D01*
X32207931Y650227D01*
X32212406Y650840D01*
X32251821Y656239D01*
X32260706Y660084D01*
X32266009Y662378D01*
X32287274Y669411D01*
X32302320Y672940D01*
X32309842Y677075D01*
X32309849Y677078D01*
X32341146Y694284D01*
X32351802Y699505D01*
X32392456Y717097D01*
X32404470Y726826D01*
X32423061Y739318D01*
X32430812Y743579D01*
X32436604Y746763D01*
X32444852Y753883D01*
X32469853Y778883D01*
X32479651Y787705D01*
X32484494Y791627D01*
X32511545Y813533D01*
X32522715Y829251D01*
X32536327Y845358D01*
X33034765Y1343795D01*
X33038574Y1347447D01*
X33078676Y1384323D01*
X33084999Y1390137D01*
X33089522Y1397432D01*
X33089527Y1397438D01*
X33108340Y1427782D01*
X33115064Y1437567D01*
X33136658Y1466016D01*
X33141850Y1472856D01*
X33147539Y1487224D01*
X33157603Y1507235D01*
X33161222Y1513072D01*
X33161223Y1513075D01*
X33165749Y1520374D01*
X33178109Y1562917D01*
X33181955Y1574150D01*
X33189970Y1594394D01*
X33198261Y1615333D01*
X33199158Y1623871D01*
X33199161Y1623881D01*
X33199878Y1630706D01*
X33204188Y1652678D01*
X33208502Y1667528D01*
X33209300Y1678395D01*
X33209300Y1713755D01*
X33209990Y1726926D01*
X33213381Y1759188D01*
X33214279Y1767732D01*
X33211065Y1786734D01*
X33209300Y1807747D01*
X33209300Y2030331D01*
X41692001Y2030331D01*
X41692371Y2023510D01*
X41697895Y1972648D01*
X41701521Y1957396D01*
X41746676Y1836946D01*
X41755214Y1821351D01*
X41831715Y1719276D01*
X41844276Y1706715D01*
X41946351Y1630214D01*
X41961946Y1621676D01*
X42082394Y1576522D01*
X42097649Y1572895D01*
X42148514Y1567369D01*
X42155328Y1567000D01*
X42777885Y1567000D01*
X42793124Y1571475D01*
X42794329Y1572865D01*
X42796000Y1580548D01*
X42796000Y1585116D01*
X43304000Y1585116D01*
X43308475Y1569877D01*
X43309865Y1568672D01*
X43317548Y1567001D01*
X43944669Y1567001D01*
X43951490Y1567371D01*
X44002352Y1572895D01*
X44017604Y1576521D01*
X44138054Y1621676D01*
X44153649Y1630214D01*
X44255724Y1706715D01*
X44268285Y1719276D01*
X44344786Y1821351D01*
X44353325Y1836948D01*
X44394425Y1946582D01*
X44437066Y2003347D01*
X44503628Y2028047D01*
X44572977Y2012840D01*
X44607645Y1984850D01*
X44633219Y1955326D01*
X44640580Y1948117D01*
X44804434Y1812084D01*
X44812881Y1806169D01*
X44996756Y1698721D01*
X45006042Y1694271D01*
X45205001Y1618297D01*
X45214899Y1615421D01*
X45318250Y1594394D01*
X45332299Y1595590D01*
X45336000Y1605935D01*
X45336000Y1606483D01*
X45844000Y1606483D01*
X45848064Y1592641D01*
X45861478Y1590607D01*
X45868184Y1591466D01*
X45878262Y1593608D01*
X46082255Y1654809D01*
X46091842Y1658567D01*
X46283095Y1752261D01*
X46291945Y1757536D01*
X46465328Y1881208D01*
X46473200Y1887861D01*
X46624052Y2038188D01*
X46630730Y2046035D01*
X46755003Y2218980D01*
X46760313Y2227817D01*
X46854670Y2418733D01*
X46858469Y2428328D01*
X46920377Y2632090D01*
X46922555Y2642163D01*
X46923986Y2653038D01*
X46921775Y2667222D01*
X46908617Y2671000D01*
X45862115Y2671000D01*
X45846876Y2666525D01*
X45845671Y2665135D01*
X45844000Y2657452D01*
X45844000Y1606483D01*
X45336000Y1606483D01*
X45336000Y2652885D01*
X45331525Y2668124D01*
X45330135Y2669329D01*
X45322452Y2671000D01*
X43322115Y2671000D01*
X43306876Y2666525D01*
X43305671Y2665135D01*
X43304000Y2657452D01*
X43304000Y1585116D01*
X42796000Y1585116D01*
X42796000Y2652885D01*
X42791525Y2668124D01*
X42790135Y2669329D01*
X42782452Y2671000D01*
X41710116Y2671000D01*
X41694877Y2666525D01*
X41693672Y2665135D01*
X41692001Y2657452D01*
X41692001Y2030331D01*
X33209300Y2030331D01*
X33209300Y2569501D01*
X33229302Y2637622D01*
X33282958Y2684115D01*
X33335300Y2695501D01*
X33525066Y2695501D01*
X33560818Y2702612D01*
X33587126Y2707844D01*
X33587128Y2707845D01*
X33599301Y2710266D01*
X33609621Y2717161D01*
X33609622Y2717162D01*
X33673168Y2759623D01*
X33683484Y2766516D01*
X33739734Y2850699D01*
X33754500Y2924933D01*
X33754500Y3197115D01*
X41692000Y3197115D01*
X41696475Y3181876D01*
X41697865Y3180671D01*
X41705548Y3179000D01*
X42777885Y3179000D01*
X42793124Y3183475D01*
X42794329Y3184865D01*
X42796000Y3192548D01*
X42796000Y3197115D01*
X43304000Y3197115D01*
X43308475Y3181876D01*
X43309865Y3180671D01*
X43317548Y3179000D01*
X45317885Y3179000D01*
X45333124Y3183475D01*
X45334329Y3184865D01*
X45336000Y3192548D01*
X45336000Y3197115D01*
X45844000Y3197115D01*
X45848475Y3181876D01*
X45849865Y3180671D01*
X45857548Y3179000D01*
X46908344Y3179000D01*
X46921875Y3182973D01*
X46923180Y3192053D01*
X46881214Y3359125D01*
X46877894Y3368876D01*
X46792972Y3564186D01*
X46788105Y3573261D01*
X46672426Y3752074D01*
X46666136Y3760243D01*
X46522806Y3917760D01*
X46515273Y3924785D01*
X46348139Y4056778D01*
X46339552Y4062483D01*
X46153117Y4165401D01*
X46143705Y4169631D01*
X45942959Y4240720D01*
X45932988Y4243354D01*
X45861837Y4256028D01*
X45848540Y4254568D01*
X45844000Y4240011D01*
X45844000Y3197115D01*
X45336000Y3197115D01*
X45336000Y4241898D01*
X45332082Y4255242D01*
X45317806Y4257229D01*
X45279324Y4251340D01*
X45269288Y4248949D01*
X45066868Y4182788D01*
X45057359Y4178791D01*
X44868463Y4080458D01*
X44859738Y4074964D01*
X44689433Y3947095D01*
X44681726Y3940252D01*
X44604094Y3859015D01*
X44542570Y3823585D01*
X44471657Y3827042D01*
X44413871Y3868288D01*
X44395018Y3901836D01*
X44353324Y4013054D01*
X44344786Y4028649D01*
X44268285Y4130724D01*
X44255724Y4143285D01*
X44153649Y4219786D01*
X44138054Y4228324D01*
X44017606Y4273478D01*
X44002351Y4277105D01*
X43951486Y4282631D01*
X43944672Y4283000D01*
X43322115Y4283000D01*
X43306876Y4278525D01*
X43305671Y4277135D01*
X43304000Y4269452D01*
X43304000Y3197115D01*
X42796000Y3197115D01*
X42796000Y4264884D01*
X42791525Y4280123D01*
X42790135Y4281328D01*
X42782452Y4282999D01*
X42155331Y4282999D01*
X42148510Y4282629D01*
X42097648Y4277105D01*
X42082396Y4273479D01*
X41961946Y4228324D01*
X41946351Y4219786D01*
X41844276Y4143285D01*
X41831715Y4130724D01*
X41755214Y4028649D01*
X41746676Y4013054D01*
X41701522Y3892606D01*
X41697895Y3877351D01*
X41692369Y3826486D01*
X41692000Y3819672D01*
X41692000Y3197115D01*
X33754500Y3197115D01*
X33754499Y4675066D01*
X33743204Y4731854D01*
X33742156Y4737126D01*
X33742155Y4737128D01*
X33739734Y4749301D01*
X33724504Y4772095D01*
X33690377Y4823168D01*
X33683484Y4833484D01*
X33599301Y4889734D01*
X33525067Y4904500D01*
X33335300Y4904500D01*
X33267179Y4924502D01*
X33220686Y4978158D01*
X33209300Y5030500D01*
X33209300Y5227200D01*
X33229302Y5295321D01*
X33282958Y5341814D01*
X33335300Y5353200D01*
X36103640Y5353200D01*
X36171761Y5333198D01*
X36192736Y5316295D01*
X36422304Y5086726D01*
X36643795Y4865235D01*
X36647447Y4861426D01*
X36690137Y4815001D01*
X36697432Y4810478D01*
X36697438Y4810473D01*
X36727782Y4791660D01*
X36737566Y4784936D01*
X36772856Y4758150D01*
X36787224Y4752461D01*
X36807235Y4742397D01*
X36813072Y4738778D01*
X36813075Y4738777D01*
X36820374Y4734251D01*
X36828620Y4731855D01*
X36828623Y4731854D01*
X36862917Y4721891D01*
X36874147Y4718046D01*
X36915333Y4701739D01*
X36923871Y4700842D01*
X36923881Y4700839D01*
X36930706Y4700122D01*
X36952678Y4695812D01*
X36967528Y4691498D01*
X36974885Y4690958D01*
X36976088Y4690869D01*
X36976099Y4690869D01*
X36978395Y4690700D01*
X37013755Y4690700D01*
X37026926Y4690010D01*
X37041339Y4688495D01*
X37054365Y4687126D01*
X37067732Y4685721D01*
X37076204Y4687154D01*
X37076205Y4687154D01*
X37086734Y4688935D01*
X37107747Y4690700D01*
X41084841Y4690700D01*
X41090118Y4690589D01*
X41153129Y4687948D01*
X41196265Y4698065D01*
X41207931Y4700227D01*
X41218969Y4701739D01*
X41251821Y4706239D01*
X41260706Y4710084D01*
X41266009Y4712378D01*
X41287274Y4719411D01*
X41302320Y4722940D01*
X41309842Y4727075D01*
X41309849Y4727078D01*
X41341146Y4744284D01*
X41351802Y4749505D01*
X41392456Y4767097D01*
X41404470Y4776826D01*
X41423061Y4789318D01*
X41424988Y4790377D01*
X41436604Y4796763D01*
X41444852Y4803883D01*
X41457969Y4817000D01*
X41469853Y4828883D01*
X41479651Y4837705D01*
X41500390Y4854500D01*
X41511545Y4863533D01*
X41522715Y4879251D01*
X41536327Y4895358D01*
X41764919Y5123949D01*
X41997265Y5356295D01*
X42001074Y5359947D01*
X42009992Y5368148D01*
X42047499Y5402637D01*
X42052022Y5409932D01*
X42052027Y5409938D01*
X42070840Y5440282D01*
X42077564Y5450067D01*
X42081888Y5455764D01*
X42104350Y5485356D01*
X42110039Y5499724D01*
X42120103Y5519735D01*
X42123722Y5525572D01*
X42123723Y5525575D01*
X42128249Y5532874D01*
X42130763Y5541525D01*
X42140609Y5575417D01*
X42144455Y5586650D01*
X42157598Y5619845D01*
X42160761Y5627833D01*
X42161658Y5636371D01*
X42161661Y5636381D01*
X42162378Y5643206D01*
X42166688Y5665178D01*
X42171002Y5680028D01*
X42171800Y5690895D01*
X42171800Y5726255D01*
X42172490Y5739426D01*
X42175881Y5771689D01*
X42176779Y5780233D01*
X42173565Y5799235D01*
X42171800Y5820248D01*
X42171800Y6418461D01*
X42191802Y6486582D01*
X42207731Y6506347D01*
X42213974Y6511026D01*
X42298493Y6623801D01*
X42305250Y6641823D01*
X42345190Y6748365D01*
X42347964Y6755764D01*
X42354500Y6815930D01*
X42354500Y7384070D01*
X42347964Y7444236D01*
X42318136Y7523801D01*
X42301644Y7567795D01*
X42301643Y7567798D01*
X42298493Y7576199D01*
X42213974Y7688974D01*
X42208262Y7693255D01*
X42174679Y7754756D01*
X42171800Y7781539D01*
X42171800Y12834841D01*
X42171911Y12840117D01*
X42172816Y12861712D01*
X42174552Y12903129D01*
X42164435Y12946265D01*
X42162274Y12957926D01*
X42157427Y12993313D01*
X42157426Y12993316D01*
X42156261Y13001821D01*
X42150121Y13016009D01*
X42143087Y13037280D01*
X42141522Y13043952D01*
X42141521Y13043954D01*
X42139559Y13052320D01*
X42120085Y13087744D01*
X42104500Y13148444D01*
X42104500Y13531834D01*
X42089498Y13626555D01*
X42031326Y13740723D01*
X41940723Y13831326D01*
X41826555Y13889498D01*
X41731834Y13904500D01*
X41368166Y13904500D01*
X41273445Y13889498D01*
X41272980Y13892435D01*
X41217931Y13890867D01*
X41157136Y13927535D01*
X41125817Y13991250D01*
X41133113Y14054794D01*
X41131932Y14055178D01*
X41133827Y14061012D01*
X41133916Y14061783D01*
X41134453Y14062937D01*
X41134997Y14064611D01*
X41139498Y14073445D01*
X41154500Y14168166D01*
X41154500Y14675438D01*
X41156492Y14697752D01*
X41156661Y14698691D01*
X41158502Y14705028D01*
X41159300Y14715895D01*
X41159300Y16444842D01*
X41159411Y16450118D01*
X41161692Y16504546D01*
X41162052Y16513130D01*
X41151936Y16556259D01*
X41149772Y16567936D01*
X41144927Y16603308D01*
X41143761Y16611821D01*
X41137621Y16626009D01*
X41130587Y16647280D01*
X41129022Y16653952D01*
X41129021Y16653954D01*
X41127059Y16662320D01*
X41105713Y16701150D01*
X41100500Y16711792D01*
X41086316Y16744570D01*
X41086315Y16744572D01*
X41082903Y16752456D01*
X41073174Y16764470D01*
X41060682Y16783061D01*
X41056418Y16790818D01*
X41056417Y16790819D01*
X41053237Y16796604D01*
X41048926Y16801598D01*
X41048923Y16801603D01*
X41047635Y16803094D01*
X41046117Y16804853D01*
X41021116Y16829854D01*
X41012291Y16839655D01*
X40991875Y16864867D01*
X40991874Y16864868D01*
X40986467Y16871545D01*
X40979465Y16876521D01*
X40979463Y16876523D01*
X40970752Y16882713D01*
X40954646Y16896324D01*
X39667886Y18183084D01*
X39633860Y18245396D01*
X39635274Y18304790D01*
X39650340Y18361016D01*
X39665161Y18416326D01*
X39684292Y18635000D01*
X39665161Y18853674D01*
X39608347Y19065703D01*
X39539055Y19214302D01*
X39517905Y19259659D01*
X39517902Y19259664D01*
X39515579Y19264646D01*
X39427843Y19389946D01*
X39392833Y19439946D01*
X39392831Y19439949D01*
X39389674Y19444457D01*
X39234457Y19599674D01*
X39229949Y19602831D01*
X39229946Y19602833D01*
X39059155Y19722422D01*
X39059153Y19722423D01*
X39054646Y19725579D01*
X39049664Y19727902D01*
X39049659Y19727905D01*
X38948884Y19774896D01*
X38855703Y19818347D01*
X38643674Y19875161D01*
X38425000Y19894292D01*
X38206326Y19875161D01*
X37994297Y19818347D01*
X37901116Y19774896D01*
X37800341Y19727905D01*
X37800336Y19727902D01*
X37795354Y19725579D01*
X37790847Y19722423D01*
X37790845Y19722422D01*
X37620054Y19602833D01*
X37620051Y19602831D01*
X37615543Y19599674D01*
X37460326Y19444457D01*
X37457169Y19439949D01*
X37457167Y19439946D01*
X37422157Y19389946D01*
X37334421Y19264646D01*
X37332098Y19259664D01*
X37332095Y19259659D01*
X37310945Y19214302D01*
X37241653Y19065703D01*
X37184839Y18853674D01*
X37165708Y18635000D01*
X37184839Y18416326D01*
X37241653Y18204297D01*
X37275298Y18132144D01*
X37332095Y18010341D01*
X37332098Y18010336D01*
X37334421Y18005354D01*
X37337577Y18000847D01*
X37337578Y18000845D01*
X37433654Y17863635D01*
X37460326Y17825543D01*
X37615543Y17670326D01*
X37620051Y17667169D01*
X37620054Y17667167D01*
X37697994Y17612593D01*
X37795354Y17544421D01*
X37800336Y17542098D01*
X37800341Y17542095D01*
X37895810Y17497578D01*
X37994297Y17451653D01*
X38206326Y17394839D01*
X38425000Y17375708D01*
X38643674Y17394839D01*
X38755211Y17424726D01*
X38826186Y17423036D01*
X38876916Y17392114D01*
X40003795Y16265235D01*
X40037821Y16202923D01*
X40040700Y16176140D01*
X40040700Y14749116D01*
X40041282Y14744871D01*
X40041282Y14744864D01*
X40044334Y14722587D01*
X40045500Y14705487D01*
X40045500Y14168166D01*
X40060502Y14073445D01*
X40065003Y14064611D01*
X40068068Y14055178D01*
X40065237Y14054258D01*
X40075398Y14000151D01*
X40048698Y13934366D01*
X39990670Y13893460D01*
X39926749Y13890720D01*
X39926555Y13889498D01*
X39920522Y13890454D01*
X39920520Y13890454D01*
X39831834Y13904500D01*
X39468166Y13904500D01*
X39373445Y13889498D01*
X39259277Y13831326D01*
X39168674Y13740723D01*
X39110502Y13626555D01*
X39095500Y13531834D01*
X39095500Y13024562D01*
X39093508Y13002248D01*
X39093339Y13001309D01*
X39091498Y12994972D01*
X39090700Y12984105D01*
X39090700Y12315159D01*
X39090589Y12309883D01*
X39087948Y12246871D01*
X39097237Y12207267D01*
X39098064Y12203743D01*
X39100227Y12192070D01*
X39106239Y12148179D01*
X39109649Y12140299D01*
X39112378Y12133991D01*
X39119411Y12112727D01*
X39122940Y12097680D01*
X39127075Y12090158D01*
X39127078Y12090151D01*
X39144284Y12058854D01*
X39149507Y12048193D01*
X39163417Y12016049D01*
X39167097Y12007544D01*
X39176826Y11995530D01*
X39189317Y11976941D01*
X39196763Y11963396D01*
X39203883Y11955148D01*
X39228880Y11930151D01*
X39237705Y11920350D01*
X39263533Y11888455D01*
X39270534Y11883480D01*
X39270538Y11883476D01*
X39279255Y11877281D01*
X39295361Y11863670D01*
X39766295Y11392736D01*
X39800321Y11330424D01*
X39803200Y11303641D01*
X39803200Y10481539D01*
X39783198Y10413418D01*
X39767269Y10393653D01*
X39761026Y10388974D01*
X39676507Y10276199D01*
X39673357Y10267798D01*
X39673356Y10267795D01*
X39651454Y10209371D01*
X39627036Y10144236D01*
X39620500Y10084070D01*
X39620500Y9515930D01*
X39627036Y9455764D01*
X39642970Y9413260D01*
X39671901Y9336088D01*
X39676507Y9323801D01*
X39761026Y9211026D01*
X39766738Y9206745D01*
X39800321Y9145244D01*
X39803200Y9118461D01*
X39803200Y9096359D01*
X39783198Y9028238D01*
X39766295Y9007264D01*
X39402759Y8643728D01*
X39398950Y8640075D01*
X39352501Y8597363D01*
X39342848Y8581794D01*
X39329159Y8559716D01*
X39322435Y8549933D01*
X39295649Y8514643D01*
X39292259Y8506080D01*
X39289958Y8500269D01*
X39279896Y8480263D01*
X39271751Y8467126D01*
X39269355Y8458878D01*
X39269352Y8458872D01*
X39259390Y8424585D01*
X39255546Y8413358D01*
X39252750Y8406295D01*
X39239238Y8372166D01*
X39238340Y8363621D01*
X39237623Y8356799D01*
X39233310Y8334813D01*
X39228998Y8319972D01*
X39228200Y8309105D01*
X39228200Y8273754D01*
X39227510Y8260583D01*
X39223220Y8219767D01*
X39224653Y8211295D01*
X39224653Y8211294D01*
X39226435Y8200760D01*
X39228200Y8179746D01*
X39228200Y7781539D01*
X39208198Y7713418D01*
X39192269Y7693653D01*
X39186026Y7688974D01*
X39101507Y7576199D01*
X39098357Y7567798D01*
X39098356Y7567795D01*
X39081864Y7523801D01*
X39052036Y7444236D01*
X39045500Y7384070D01*
X39045500Y6815930D01*
X39052036Y6755764D01*
X39054810Y6748365D01*
X39094751Y6641823D01*
X39101507Y6623801D01*
X39186026Y6511026D01*
X39298801Y6426507D01*
X39307202Y6423357D01*
X39307205Y6423356D01*
X39371751Y6399159D01*
X39430764Y6377036D01*
X39490930Y6370500D01*
X40084070Y6370500D01*
X40144236Y6377036D01*
X40203249Y6399159D01*
X40267795Y6423356D01*
X40267798Y6423357D01*
X40276199Y6426507D01*
X40388974Y6511026D01*
X40473493Y6623801D01*
X40480250Y6641823D01*
X40520190Y6748365D01*
X40522964Y6755764D01*
X40529500Y6815930D01*
X40529500Y7384070D01*
X40522964Y7444236D01*
X40493136Y7523801D01*
X40476644Y7567795D01*
X40476643Y7567798D01*
X40473493Y7576199D01*
X40388974Y7688974D01*
X40383262Y7693255D01*
X40349679Y7754756D01*
X40346800Y7781539D01*
X40346800Y7953640D01*
X40366802Y8021761D01*
X40383705Y8042736D01*
X40549565Y8208595D01*
X40747265Y8406295D01*
X40751074Y8409947D01*
X40766993Y8424585D01*
X40797499Y8452637D01*
X40820113Y8489110D01*
X40873009Y8536465D01*
X40943110Y8547705D01*
X41008160Y8519262D01*
X41047506Y8460165D01*
X41053200Y8422714D01*
X41053200Y7781539D01*
X41033198Y7713418D01*
X41017269Y7693653D01*
X41011026Y7688974D01*
X40926507Y7576199D01*
X40923357Y7567798D01*
X40923356Y7567795D01*
X40906864Y7523801D01*
X40877036Y7444236D01*
X40870500Y7384070D01*
X40870500Y6815930D01*
X40877036Y6755764D01*
X40879810Y6748365D01*
X40919751Y6641823D01*
X40926507Y6623801D01*
X41011026Y6511026D01*
X41016738Y6506745D01*
X41050321Y6445244D01*
X41053200Y6418461D01*
X41053200Y6046361D01*
X41033198Y5978240D01*
X41016296Y5957266D01*
X40905236Y5846205D01*
X40842924Y5812180D01*
X40816140Y5809300D01*
X37333861Y5809300D01*
X37265740Y5829302D01*
X37244766Y5846204D01*
X36793717Y6297252D01*
X36790064Y6301062D01*
X36753177Y6341176D01*
X36747363Y6347499D01*
X36709716Y6370841D01*
X36699932Y6377565D01*
X36671483Y6399159D01*
X36671484Y6399159D01*
X36664643Y6404351D01*
X36650267Y6410043D01*
X36630261Y6420105D01*
X36617126Y6428249D01*
X36608878Y6430645D01*
X36608872Y6430648D01*
X36574585Y6440610D01*
X36563358Y6444454D01*
X36530158Y6457598D01*
X36530157Y6457598D01*
X36522166Y6460762D01*
X36506798Y6462377D01*
X36484813Y6466690D01*
X36469972Y6471002D01*
X36463395Y6471485D01*
X36461412Y6471631D01*
X36461401Y6471631D01*
X36459105Y6471800D01*
X36423754Y6471800D01*
X36410583Y6472490D01*
X36378311Y6475882D01*
X36369767Y6476780D01*
X36361295Y6475347D01*
X36361294Y6475347D01*
X36350760Y6473565D01*
X36329746Y6471800D01*
X32933859Y6471800D01*
X32865738Y6491802D01*
X32844764Y6508705D01*
X31391405Y7962064D01*
X31357379Y8024376D01*
X31354500Y8051159D01*
X31354500Y8284070D01*
X31347964Y8344236D01*
X31324699Y8406295D01*
X31301644Y8467795D01*
X31301643Y8467798D01*
X31298493Y8476199D01*
X31213974Y8588974D01*
X31122236Y8657727D01*
X31079720Y8714586D01*
X31071800Y8758554D01*
X31071800Y9528918D01*
X31091802Y9597039D01*
X31122236Y9629745D01*
X31156790Y9655641D01*
X31156794Y9655645D01*
X31163974Y9661026D01*
X31248493Y9773801D01*
X31253339Y9786726D01*
X31294207Y9895742D01*
X31297964Y9905764D01*
X31304500Y9965930D01*
X31304500Y10534070D01*
X31297964Y10594236D01*
X31248493Y10726199D01*
X31163974Y10838974D01*
X31051199Y10923493D01*
X31042798Y10926643D01*
X31042795Y10926644D01*
X30954521Y10959736D01*
X30919236Y10972964D01*
X30859070Y10979500D01*
X30165930Y10979500D01*
X30105764Y10972964D01*
X30070479Y10959736D01*
X29982205Y10926644D01*
X29982202Y10926643D01*
X29973801Y10923493D01*
X29966619Y10918111D01*
X29966618Y10918110D01*
X29893165Y10863061D01*
X29826658Y10838214D01*
X29757276Y10853268D01*
X29710456Y10897586D01*
X29679573Y10947492D01*
X29670540Y10958890D01*
X29557871Y11071363D01*
X29546460Y11080375D01*
X29410937Y11163912D01*
X29397759Y11170056D01*
X29246234Y11220315D01*
X29232868Y11223181D01*
X29140230Y11232672D01*
X29133815Y11233000D01*
X29059615Y11233000D01*
X29044376Y11228525D01*
X29043171Y11227135D01*
X29041500Y11219452D01*
X29041500Y9285115D01*
X29045975Y9269876D01*
X29047365Y9268671D01*
X29055048Y9267000D01*
X29133766Y9267000D01*
X29140282Y9267337D01*
X29234132Y9277075D01*
X29247528Y9279968D01*
X29398953Y9330488D01*
X29412115Y9336653D01*
X29547492Y9420426D01*
X29558890Y9429460D01*
X29671363Y9542129D01*
X29680377Y9553543D01*
X29710372Y9602204D01*
X29763144Y9649698D01*
X29833215Y9661122D01*
X29893198Y9636914D01*
X29902766Y9629743D01*
X29945281Y9572883D01*
X29953200Y9528918D01*
X29953200Y8777169D01*
X29933198Y8709048D01*
X29879542Y8662555D01*
X29809268Y8652451D01*
X29744688Y8681945D01*
X29728454Y8698905D01*
X29720540Y8708890D01*
X29607871Y8821363D01*
X29596460Y8830375D01*
X29460937Y8913912D01*
X29447759Y8920056D01*
X29296234Y8970315D01*
X29282868Y8973181D01*
X29190230Y8982672D01*
X29183815Y8983000D01*
X29109615Y8983000D01*
X29094376Y8978525D01*
X29093171Y8977135D01*
X29091500Y8969452D01*
X29091500Y7035115D01*
X29095975Y7019876D01*
X29097365Y7018671D01*
X29105048Y7017000D01*
X29183766Y7017000D01*
X29190282Y7017337D01*
X29284132Y7027075D01*
X29297528Y7029968D01*
X29448953Y7080488D01*
X29462115Y7086653D01*
X29597492Y7170426D01*
X29608890Y7179460D01*
X29721363Y7292129D01*
X29730377Y7303543D01*
X29760372Y7352204D01*
X29813144Y7399698D01*
X29883215Y7411122D01*
X29943196Y7386916D01*
X30007756Y7338532D01*
X30023801Y7326507D01*
X30032202Y7323357D01*
X30032205Y7323356D01*
X30099565Y7298104D01*
X30155764Y7277036D01*
X30215930Y7270500D01*
X30448841Y7270500D01*
X30516962Y7250498D01*
X30537932Y7233599D01*
X31487907Y6283623D01*
X31487911Y6283620D01*
X32053795Y5717736D01*
X32087821Y5655424D01*
X32090700Y5628641D01*
X32090700Y5030499D01*
X32070698Y4962378D01*
X32017042Y4915885D01*
X31964700Y4904499D01*
X31774934Y4904499D01*
X31739182Y4897388D01*
X31712874Y4892156D01*
X31712872Y4892155D01*
X31700699Y4889734D01*
X31690379Y4882839D01*
X31690378Y4882838D01*
X31653398Y4858128D01*
X31616516Y4833484D01*
X31590691Y4794835D01*
X31578655Y4776821D01*
X31560266Y4749301D01*
X31545500Y4675067D01*
X31545500Y4507148D01*
X31525498Y4439027D01*
X31471842Y4392534D01*
X31401568Y4382430D01*
X31336988Y4411924D01*
X31311235Y4444132D01*
X31310912Y4443923D01*
X31308836Y4447132D01*
X31308453Y4447611D01*
X31308099Y4448271D01*
X31192426Y4627074D01*
X31186136Y4635243D01*
X31042806Y4792760D01*
X31035273Y4799785D01*
X30868139Y4931778D01*
X30859552Y4937483D01*
X30673117Y5040401D01*
X30663705Y5044631D01*
X30462959Y5115720D01*
X30452988Y5118354D01*
X30381837Y5131028D01*
X30368540Y5129568D01*
X30364000Y5115011D01*
X30364000Y2481483D01*
X30368064Y2467641D01*
X30381478Y2465607D01*
X30388184Y2466466D01*
X30398262Y2468608D01*
X30602255Y2529809D01*
X30611842Y2533567D01*
X30803095Y2627261D01*
X30811945Y2632536D01*
X30985328Y2756208D01*
X30993200Y2762861D01*
X31144052Y2913188D01*
X31150730Y2921035D01*
X31275003Y3093980D01*
X31280310Y3102812D01*
X31306544Y3155891D01*
X31354658Y3208097D01*
X31423360Y3226004D01*
X31490836Y3203925D01*
X31535664Y3148871D01*
X31545501Y3100063D01*
X31545501Y2924934D01*
X31560266Y2850699D01*
X31567161Y2840380D01*
X31567162Y2840378D01*
X31593675Y2800699D01*
X31616516Y2766516D01*
X31700699Y2710266D01*
X31774933Y2695500D01*
X31964700Y2695500D01*
X32032821Y2675498D01*
X32079314Y2621842D01*
X32090700Y2569500D01*
X32090700Y2033861D01*
X32070698Y1965740D01*
X32053796Y1944766D01*
X31905236Y1796205D01*
X31842924Y1762180D01*
X31816140Y1759300D01*
X7783859Y1759300D01*
X7715738Y1779302D01*
X7694764Y1796205D01*
X7296205Y2194764D01*
X7262179Y2257076D01*
X7259300Y2283859D01*
X7259300Y2818461D01*
X7279302Y2886582D01*
X7295231Y2906347D01*
X7301474Y2911026D01*
X7385993Y3023801D01*
X7389540Y3033261D01*
X7420270Y3115235D01*
X7435464Y3155764D01*
X7442000Y3215930D01*
X7442000Y3784070D01*
X7435464Y3844236D01*
X7407901Y3917760D01*
X7389144Y3967795D01*
X7389143Y3967798D01*
X7385993Y3976199D01*
X7301474Y4088974D01*
X7188699Y4173493D01*
X7180298Y4176643D01*
X7180295Y4176644D01*
X7065213Y4219786D01*
X7056736Y4222964D01*
X6996570Y4229500D01*
X6403430Y4229500D01*
X6343264Y4222964D01*
X6334787Y4219786D01*
X6219705Y4176644D01*
X6219702Y4176643D01*
X6211301Y4173493D01*
X6098526Y4088974D01*
X6097303Y4090606D01*
X6045244Y4062179D01*
X6018461Y4059300D01*
X5533859Y4059300D01*
X5465738Y4079302D01*
X5444764Y4096205D01*
X4696205Y4844764D01*
X4662179Y4907076D01*
X4659300Y4933859D01*
X4659300Y5516234D01*
X5692000Y5516234D01*
X5692337Y5509718D01*
X5702075Y5415868D01*
X5704968Y5402472D01*
X5755488Y5251047D01*
X5761653Y5237885D01*
X5845426Y5102508D01*
X5854460Y5091110D01*
X5967129Y4978637D01*
X5978540Y4969625D01*
X6114063Y4886088D01*
X6127241Y4879944D01*
X6278766Y4829685D01*
X6292132Y4826819D01*
X6384770Y4817328D01*
X6391185Y4817000D01*
X6415385Y4817000D01*
X6430624Y4821475D01*
X6431829Y4822865D01*
X6433500Y4830548D01*
X6433500Y5527885D01*
X6429025Y5543124D01*
X6427635Y5544329D01*
X6419952Y5546000D01*
X5710115Y5546000D01*
X5694876Y5541525D01*
X5693671Y5540135D01*
X5692000Y5532452D01*
X5692000Y5516234D01*
X4659300Y5516234D01*
X4659300Y6072115D01*
X5692000Y6072115D01*
X5696475Y6056876D01*
X5697865Y6055671D01*
X5705548Y6054000D01*
X6815500Y6054000D01*
X6883621Y6033998D01*
X6930114Y5980342D01*
X6941500Y5928000D01*
X6941500Y4835115D01*
X6945975Y4819876D01*
X6947365Y4818671D01*
X6955048Y4817000D01*
X6983766Y4817000D01*
X6990282Y4817337D01*
X7084132Y4827075D01*
X7097528Y4829968D01*
X7248953Y4880488D01*
X7262115Y4886653D01*
X7397492Y4970426D01*
X7408890Y4979460D01*
X7521363Y5092129D01*
X7530375Y5103540D01*
X7613912Y5239063D01*
X7620054Y5252236D01*
X7623971Y5264044D01*
X7664403Y5322403D01*
X7729967Y5349639D01*
X7799849Y5337105D01*
X7844389Y5299940D01*
X7911026Y5211026D01*
X7918206Y5205645D01*
X7924557Y5199294D01*
X7922900Y5197637D01*
X7957779Y5150994D01*
X7965700Y5107023D01*
X7965700Y4181539D01*
X7945698Y4113418D01*
X7929769Y4093653D01*
X7923526Y4088974D01*
X7839007Y3976199D01*
X7835857Y3967798D01*
X7835856Y3967795D01*
X7817099Y3917760D01*
X7789536Y3844236D01*
X7783000Y3784070D01*
X7783000Y3215930D01*
X7789536Y3155764D01*
X7804730Y3115235D01*
X7835461Y3033261D01*
X7839007Y3023801D01*
X7923526Y2911026D01*
X8036301Y2826507D01*
X8044702Y2823357D01*
X8044705Y2823356D01*
X8105143Y2800699D01*
X8168264Y2777036D01*
X8228430Y2770500D01*
X8821570Y2770500D01*
X8881736Y2777036D01*
X8944857Y2800699D01*
X9005295Y2823356D01*
X9005298Y2823357D01*
X9013699Y2826507D01*
X9126474Y2911026D01*
X9210993Y3023801D01*
X9214540Y3033261D01*
X9245270Y3115235D01*
X9260464Y3155764D01*
X9267000Y3215930D01*
X9267000Y3784070D01*
X9260464Y3844236D01*
X9232901Y3917760D01*
X9214144Y3967795D01*
X9214143Y3967798D01*
X9210993Y3976199D01*
X9126474Y4088974D01*
X9120762Y4093255D01*
X9087179Y4154756D01*
X9084300Y4181539D01*
X9084300Y5130961D01*
X9104302Y5199082D01*
X9113856Y5210938D01*
X9113974Y5211026D01*
X9135887Y5240265D01*
X9192745Y5282780D01*
X9236713Y5290700D01*
X11300884Y5290700D01*
X11305129Y5291282D01*
X11305136Y5291282D01*
X11327413Y5294334D01*
X11344513Y5295500D01*
X11881834Y5295500D01*
X11976555Y5310502D01*
X11985389Y5315003D01*
X11994822Y5318068D01*
X11995742Y5315237D01*
X12049849Y5325398D01*
X12115634Y5298698D01*
X12156540Y5240670D01*
X12159280Y5176749D01*
X12160502Y5176555D01*
X12145500Y5081834D01*
X12145500Y4718166D01*
X12160502Y4623445D01*
X12218674Y4509277D01*
X12309277Y4418674D01*
X12423445Y4360502D01*
X12518166Y4345500D01*
X13025438Y4345500D01*
X13047752Y4343508D01*
X13048691Y4343339D01*
X13055028Y4341498D01*
X13062049Y4340982D01*
X13063588Y4340869D01*
X13063599Y4340869D01*
X13065895Y4340700D01*
X15063287Y4340700D01*
X15131408Y4320698D01*
X15164112Y4290266D01*
X15186026Y4261026D01*
X15298801Y4176507D01*
X15307202Y4173357D01*
X15307205Y4173356D01*
X15356821Y4154756D01*
X15430764Y4127036D01*
X15490930Y4120500D01*
X16084070Y4120500D01*
X16144236Y4127036D01*
X16218179Y4154756D01*
X16267795Y4173356D01*
X16267798Y4173357D01*
X16276199Y4176507D01*
X16388974Y4261026D01*
X16473493Y4373801D01*
X16484103Y4402101D01*
X16520190Y4498365D01*
X16522964Y4505764D01*
X16529500Y4565930D01*
X16529500Y5134070D01*
X16522964Y5194236D01*
X16489770Y5282780D01*
X16476644Y5317795D01*
X16476643Y5317798D01*
X16473493Y5326199D01*
X16388974Y5438974D01*
X16276199Y5523493D01*
X16267798Y5526643D01*
X16267795Y5526644D01*
X16189387Y5556037D01*
X16144236Y5572964D01*
X16084070Y5579500D01*
X15490930Y5579500D01*
X15430764Y5572964D01*
X15385613Y5556037D01*
X15307205Y5526644D01*
X15307202Y5526643D01*
X15298801Y5523493D01*
X15267082Y5499721D01*
X15246736Y5484473D01*
X15180230Y5459626D01*
X15171172Y5459300D01*
X13099116Y5459300D01*
X13094871Y5458718D01*
X13094864Y5458718D01*
X13072587Y5455666D01*
X13055487Y5454500D01*
X12518166Y5454500D01*
X12423445Y5439498D01*
X12414611Y5434997D01*
X12405178Y5431932D01*
X12404258Y5434763D01*
X12350151Y5424602D01*
X12284366Y5451302D01*
X12243460Y5509330D01*
X12240720Y5573251D01*
X12239498Y5573445D01*
X12240454Y5579478D01*
X12240454Y5579480D01*
X12254500Y5668166D01*
X12254500Y5882827D01*
X12274502Y5950948D01*
X12328158Y5997441D01*
X12398432Y6007545D01*
X12415655Y6003823D01*
X12440059Y5996732D01*
X12452667Y5994430D01*
X12481084Y5992193D01*
X12486014Y5992000D01*
X12865385Y5992000D01*
X12880624Y5996475D01*
X12881829Y5997865D01*
X12883500Y6005548D01*
X12883500Y6010116D01*
X13391500Y6010116D01*
X13395975Y5994877D01*
X13397365Y5993672D01*
X13405048Y5992001D01*
X13788984Y5992001D01*
X13793920Y5992195D01*
X13822336Y5994430D01*
X13834931Y5996730D01*
X13980790Y6039107D01*
X13995221Y6045352D01*
X14124678Y6121911D01*
X14137104Y6131551D01*
X14243449Y6237896D01*
X14253089Y6250322D01*
X14329648Y6379779D01*
X14335893Y6394210D01*
X14374939Y6528605D01*
X14374899Y6542706D01*
X14367630Y6546000D01*
X13409615Y6546000D01*
X13394376Y6541525D01*
X13393171Y6540135D01*
X13391500Y6532452D01*
X13391500Y6010116D01*
X12883500Y6010116D01*
X12883500Y6527885D01*
X12879025Y6543124D01*
X12877635Y6544329D01*
X12869952Y6546000D01*
X11913122Y6546000D01*
X11899592Y6542027D01*
X11895357Y6512569D01*
X11865864Y6447988D01*
X11806138Y6409604D01*
X11770639Y6404500D01*
X11374562Y6404500D01*
X11352248Y6406492D01*
X11351309Y6406661D01*
X11344972Y6408502D01*
X11337951Y6409018D01*
X11336412Y6409131D01*
X11336401Y6409131D01*
X11334105Y6409300D01*
X9128828Y6409300D01*
X9060707Y6429302D01*
X9053264Y6434473D01*
X9038892Y6445244D01*
X9001199Y6473493D01*
X8992798Y6476643D01*
X8992795Y6476644D01*
X8914387Y6506037D01*
X8869236Y6522964D01*
X8823937Y6527885D01*
X8813950Y6528970D01*
X8748388Y6556212D01*
X8738463Y6565138D01*
X8232206Y7071395D01*
X11900061Y7071395D01*
X11900101Y7057294D01*
X11907370Y7054000D01*
X12865385Y7054000D01*
X12880624Y7058475D01*
X12881829Y7059865D01*
X12883500Y7067548D01*
X12883500Y7072115D01*
X13391500Y7072115D01*
X13395975Y7056876D01*
X13397365Y7055671D01*
X13405048Y7054000D01*
X14361878Y7054000D01*
X14375409Y7057973D01*
X14376544Y7065871D01*
X14335893Y7205790D01*
X14329648Y7220221D01*
X14253089Y7349678D01*
X14243449Y7362104D01*
X14137104Y7468449D01*
X14124678Y7478089D01*
X13995221Y7554648D01*
X13980790Y7560893D01*
X13834935Y7603269D01*
X13822333Y7605570D01*
X13793916Y7607807D01*
X13788986Y7608000D01*
X13409615Y7608000D01*
X13394376Y7603525D01*
X13393171Y7602135D01*
X13391500Y7594452D01*
X13391500Y7072115D01*
X12883500Y7072115D01*
X12883500Y7589884D01*
X12879025Y7605123D01*
X12877635Y7606328D01*
X12869952Y7607999D01*
X12486017Y7607999D01*
X12481080Y7607805D01*
X12452664Y7605570D01*
X12440069Y7603270D01*
X12294210Y7560893D01*
X12279779Y7554648D01*
X12150322Y7478089D01*
X12137896Y7468449D01*
X12031551Y7362104D01*
X12021911Y7349678D01*
X11945352Y7220221D01*
X11939107Y7205790D01*
X11900061Y7071395D01*
X8232206Y7071395D01*
X8098196Y7205405D01*
X8064170Y7267717D01*
X8069235Y7338532D01*
X8111782Y7395368D01*
X8178302Y7420179D01*
X8187291Y7420500D01*
X8759070Y7420500D01*
X8819236Y7427036D01*
X8883285Y7451047D01*
X8942795Y7473356D01*
X8942798Y7473357D01*
X8951199Y7476507D01*
X9063974Y7561026D01*
X9065197Y7559394D01*
X9117256Y7587821D01*
X9144039Y7590700D01*
X9984841Y7590700D01*
X9990118Y7590589D01*
X10053129Y7587948D01*
X10096265Y7598065D01*
X10107931Y7600227D01*
X10151821Y7606239D01*
X10160706Y7610084D01*
X10166009Y7612378D01*
X10187274Y7619411D01*
X10202320Y7622940D01*
X10209842Y7627075D01*
X10209849Y7627078D01*
X10241146Y7644284D01*
X10251802Y7649505D01*
X10292456Y7667097D01*
X10304470Y7676826D01*
X10323061Y7689318D01*
X10328748Y7692444D01*
X10336604Y7696763D01*
X10344852Y7703883D01*
X10369849Y7728880D01*
X10379650Y7737705D01*
X10404868Y7758126D01*
X10411545Y7763533D01*
X10416520Y7770534D01*
X10416524Y7770538D01*
X10422719Y7779255D01*
X10436330Y7795361D01*
X10862106Y8221137D01*
X10924418Y8255163D01*
X10995233Y8250098D01*
X11008829Y8242795D01*
X11009277Y8243674D01*
X11123445Y8185502D01*
X11218166Y8170500D01*
X11581834Y8170500D01*
X11676555Y8185502D01*
X11790723Y8243674D01*
X11881326Y8334277D01*
X11939498Y8448445D01*
X11949408Y8511016D01*
X12492001Y8511016D01*
X12492195Y8506080D01*
X12494430Y8477664D01*
X12496730Y8465069D01*
X12539107Y8319210D01*
X12545352Y8304779D01*
X12621911Y8175322D01*
X12631551Y8162896D01*
X12737896Y8056551D01*
X12750322Y8046911D01*
X12879779Y7970352D01*
X12894210Y7964107D01*
X13028605Y7925061D01*
X13042706Y7925101D01*
X13046000Y7932370D01*
X13046000Y7938122D01*
X13554000Y7938122D01*
X13557973Y7924591D01*
X13565871Y7923456D01*
X13705790Y7964107D01*
X13720221Y7970352D01*
X13849678Y8046911D01*
X13862104Y8056551D01*
X13968449Y8162896D01*
X13978089Y8175322D01*
X14054648Y8304779D01*
X14060893Y8319210D01*
X14103269Y8465065D01*
X14105570Y8477667D01*
X14107807Y8506084D01*
X14108000Y8511014D01*
X14108000Y8890385D01*
X14103525Y8905624D01*
X14102135Y8906829D01*
X14094452Y8908500D01*
X13572115Y8908500D01*
X13556876Y8904025D01*
X13555671Y8902635D01*
X13554000Y8894952D01*
X13554000Y7938122D01*
X13046000Y7938122D01*
X13046000Y8890385D01*
X13041525Y8905624D01*
X13040135Y8906829D01*
X13032452Y8908500D01*
X12510116Y8908500D01*
X12494877Y8904025D01*
X12493672Y8902635D01*
X12492001Y8894952D01*
X12492001Y8511016D01*
X11949408Y8511016D01*
X11954500Y8543166D01*
X11954500Y9071531D01*
X11954838Y9080759D01*
X11957966Y9123356D01*
X11963444Y9197949D01*
X11956986Y9229977D01*
X11954500Y9254882D01*
X11954500Y9781834D01*
X11939498Y9876555D01*
X11934997Y9885389D01*
X11931932Y9894822D01*
X11934763Y9895742D01*
X11924602Y9949849D01*
X11951302Y10015634D01*
X12009330Y10056540D01*
X12073251Y10059280D01*
X12073445Y10060502D01*
X12079478Y10059546D01*
X12079480Y10059546D01*
X12168166Y10045500D01*
X12382827Y10045500D01*
X12450948Y10025498D01*
X12497441Y9971842D01*
X12507545Y9901568D01*
X12503823Y9884345D01*
X12496732Y9859941D01*
X12494430Y9847333D01*
X12492193Y9818916D01*
X12492000Y9813986D01*
X12492000Y9434615D01*
X12496475Y9419376D01*
X12497865Y9418171D01*
X12505548Y9416500D01*
X14089884Y9416500D01*
X14105123Y9420975D01*
X14106328Y9422365D01*
X14107999Y9430048D01*
X14107999Y9813983D01*
X14107805Y9818920D01*
X14105570Y9847336D01*
X14103270Y9859931D01*
X14086912Y9916234D01*
X16817000Y9916234D01*
X16817337Y9909718D01*
X16827075Y9815868D01*
X16829968Y9802472D01*
X16880488Y9651047D01*
X16886653Y9637885D01*
X16970426Y9502508D01*
X16979460Y9491110D01*
X17092129Y9378637D01*
X17103540Y9369625D01*
X17239063Y9286088D01*
X17252236Y9279946D01*
X17264044Y9276029D01*
X17322403Y9235597D01*
X17349639Y9170033D01*
X17337105Y9100151D01*
X17299940Y9055611D01*
X17211026Y8988974D01*
X17126507Y8876199D01*
X17123357Y8867798D01*
X17123356Y8867795D01*
X17106748Y8823493D01*
X17077036Y8744236D01*
X17070500Y8684070D01*
X17070500Y8370522D01*
X17067007Y8341660D01*
X17064238Y8334666D01*
X17063341Y8326129D01*
X17063340Y8326126D01*
X17062623Y8319299D01*
X17058310Y8297313D01*
X17053998Y8282472D01*
X17053200Y8271605D01*
X17053200Y8236254D01*
X17052510Y8223083D01*
X17048220Y8182267D01*
X17049653Y8173795D01*
X17049653Y8173794D01*
X17051435Y8163260D01*
X17053200Y8142246D01*
X17053200Y5531539D01*
X17033198Y5463418D01*
X17017269Y5443653D01*
X17011026Y5438974D01*
X16926507Y5326199D01*
X16923357Y5317798D01*
X16923356Y5317795D01*
X16910230Y5282780D01*
X16877036Y5194236D01*
X16870500Y5134070D01*
X16870500Y4565930D01*
X16877036Y4505764D01*
X16879810Y4498365D01*
X16915898Y4402101D01*
X16926507Y4373801D01*
X17011026Y4261026D01*
X17123801Y4176507D01*
X17132202Y4173357D01*
X17132205Y4173356D01*
X17181821Y4154756D01*
X17255764Y4127036D01*
X17315930Y4120500D01*
X17909070Y4120500D01*
X17969236Y4127036D01*
X18043179Y4154756D01*
X18092795Y4173356D01*
X18092798Y4173357D01*
X18101199Y4176507D01*
X18213974Y4261026D01*
X18215197Y4259394D01*
X18267256Y4287821D01*
X18294039Y4290700D01*
X20441141Y4290700D01*
X20509262Y4270698D01*
X20530236Y4253795D01*
X20683595Y4100436D01*
X20717621Y4038124D01*
X20720500Y4011341D01*
X20720501Y3442567D01*
X20720501Y2874934D01*
X20725321Y2850699D01*
X20730760Y2823356D01*
X20735266Y2800699D01*
X20742161Y2790380D01*
X20742162Y2790378D01*
X20760549Y2762861D01*
X20791516Y2716516D01*
X20875699Y2660266D01*
X20949933Y2645500D01*
X21824858Y2645500D01*
X22700066Y2645501D01*
X22737960Y2653038D01*
X22762126Y2657844D01*
X22762128Y2657845D01*
X22774301Y2660266D01*
X22784621Y2667161D01*
X22784622Y2667162D01*
X22848168Y2709623D01*
X22858484Y2716516D01*
X22914734Y2800699D01*
X22929500Y2874933D01*
X22929500Y3046572D01*
X22949502Y3114693D01*
X23003158Y3161186D01*
X23073432Y3171290D01*
X23138012Y3141796D01*
X23162933Y3112407D01*
X23262694Y2949612D01*
X23268777Y2941301D01*
X23408213Y2780333D01*
X23415580Y2773117D01*
X23579434Y2637084D01*
X23587881Y2631169D01*
X23771756Y2523721D01*
X23781042Y2519271D01*
X23980001Y2443297D01*
X23989899Y2440421D01*
X24093250Y2419394D01*
X24107299Y2420590D01*
X24111000Y2430935D01*
X24111000Y2431483D01*
X24619000Y2431483D01*
X24623064Y2417641D01*
X24636478Y2415607D01*
X24643184Y2416466D01*
X24653262Y2418608D01*
X24857255Y2479809D01*
X24866842Y2483567D01*
X25058095Y2577261D01*
X25066945Y2582536D01*
X25240328Y2706208D01*
X25248200Y2712861D01*
X25399052Y2863188D01*
X25405730Y2871035D01*
X25530003Y3043980D01*
X25535313Y3052817D01*
X25629670Y3243733D01*
X25633469Y3253328D01*
X25695377Y3457090D01*
X25697555Y3467163D01*
X25698986Y3478038D01*
X25696775Y3492222D01*
X25683617Y3496000D01*
X24637115Y3496000D01*
X24621876Y3491525D01*
X24620671Y3490135D01*
X24619000Y3482452D01*
X24619000Y2431483D01*
X24111000Y2431483D01*
X24111000Y3532034D01*
X28778257Y3532034D01*
X28808565Y3397554D01*
X28811645Y3387725D01*
X28891770Y3190397D01*
X28896413Y3181206D01*
X29007694Y2999612D01*
X29013777Y2991301D01*
X29153213Y2830333D01*
X29160580Y2823117D01*
X29324434Y2687084D01*
X29332881Y2681169D01*
X29516756Y2573721D01*
X29526042Y2569271D01*
X29725001Y2493297D01*
X29734899Y2490421D01*
X29838250Y2469394D01*
X29852299Y2470590D01*
X29856000Y2480935D01*
X29856000Y3527885D01*
X29851525Y3543124D01*
X29850135Y3544329D01*
X29842452Y3546000D01*
X28793225Y3546000D01*
X28779694Y3542027D01*
X28778257Y3532034D01*
X24111000Y3532034D01*
X24111000Y4022115D01*
X24619000Y4022115D01*
X24623475Y4006876D01*
X24624865Y4005671D01*
X24632548Y4004000D01*
X25683344Y4004000D01*
X25696875Y4007973D01*
X25698180Y4017053D01*
X25685931Y4065817D01*
X28774389Y4065817D01*
X28775912Y4057393D01*
X28788292Y4054000D01*
X29837885Y4054000D01*
X29853124Y4058475D01*
X29854329Y4059865D01*
X29856000Y4067548D01*
X29856000Y5116898D01*
X29852082Y5130242D01*
X29837806Y5132229D01*
X29799324Y5126340D01*
X29789288Y5123949D01*
X29586868Y5057788D01*
X29577359Y5053791D01*
X29388463Y4955458D01*
X29379738Y4949964D01*
X29209433Y4822095D01*
X29201726Y4815252D01*
X29054590Y4661283D01*
X29048104Y4653273D01*
X28928098Y4477351D01*
X28923000Y4468377D01*
X28833338Y4275217D01*
X28829775Y4265530D01*
X28774389Y4065817D01*
X25685931Y4065817D01*
X25656214Y4184125D01*
X25652894Y4193876D01*
X25567972Y4389186D01*
X25563105Y4398261D01*
X25447426Y4577074D01*
X25441136Y4585243D01*
X25297806Y4742760D01*
X25290273Y4749785D01*
X25123139Y4881778D01*
X25114552Y4887483D01*
X24928117Y4990401D01*
X24918705Y4994631D01*
X24717959Y5065720D01*
X24707988Y5068354D01*
X24636837Y5081028D01*
X24623540Y5079568D01*
X24619000Y5065011D01*
X24619000Y4022115D01*
X24111000Y4022115D01*
X24111000Y5066898D01*
X24107082Y5080242D01*
X24092806Y5082229D01*
X24054324Y5076340D01*
X24044288Y5073949D01*
X23841868Y5007788D01*
X23832359Y5003791D01*
X23643463Y4905458D01*
X23634738Y4899964D01*
X23464433Y4772095D01*
X23456726Y4765252D01*
X23309590Y4611283D01*
X23303104Y4603273D01*
X23183098Y4427351D01*
X23178000Y4418377D01*
X23169787Y4400684D01*
X23122963Y4347317D01*
X23054720Y4327736D01*
X22986724Y4348159D01*
X22940564Y4402101D01*
X22929499Y4453734D01*
X22929499Y4625066D01*
X22922047Y4662531D01*
X22917156Y4687126D01*
X22917155Y4687128D01*
X22914734Y4699301D01*
X22905398Y4713274D01*
X22865377Y4773168D01*
X22858484Y4783484D01*
X22774301Y4839734D01*
X22700067Y4854500D01*
X22574095Y4854500D01*
X21563660Y4854499D01*
X21495539Y4874501D01*
X21474565Y4891404D01*
X21131228Y5234741D01*
X21127575Y5238550D01*
X21090677Y5278676D01*
X21084863Y5284999D01*
X21047216Y5308341D01*
X21037432Y5315065D01*
X21008983Y5336659D01*
X21008984Y5336659D01*
X21002143Y5341851D01*
X20987767Y5347543D01*
X20967761Y5357605D01*
X20966877Y5358153D01*
X20954626Y5365749D01*
X20946378Y5368145D01*
X20946372Y5368148D01*
X20912085Y5378110D01*
X20900858Y5381954D01*
X20867658Y5395098D01*
X20867657Y5395098D01*
X20859666Y5398262D01*
X20844298Y5399877D01*
X20822313Y5404190D01*
X20807472Y5408502D01*
X20800895Y5408985D01*
X20798912Y5409131D01*
X20798901Y5409131D01*
X20796605Y5409300D01*
X20761254Y5409300D01*
X20748083Y5409990D01*
X20715811Y5413382D01*
X20707267Y5414280D01*
X20698795Y5412847D01*
X20698794Y5412847D01*
X20688260Y5411065D01*
X20667246Y5409300D01*
X18297800Y5409300D01*
X18229679Y5429302D01*
X18183186Y5482958D01*
X18171800Y5535300D01*
X18171800Y7575042D01*
X18191802Y7643163D01*
X18245458Y7689656D01*
X18253572Y7693024D01*
X18267791Y7698354D01*
X18267796Y7698357D01*
X18276199Y7701507D01*
X18295849Y7716234D01*
X27792000Y7716234D01*
X27792337Y7709718D01*
X27802075Y7615868D01*
X27804968Y7602472D01*
X27855488Y7451047D01*
X27861653Y7437885D01*
X27945426Y7302508D01*
X27954460Y7291110D01*
X28067129Y7178637D01*
X28078540Y7169625D01*
X28214063Y7086088D01*
X28227241Y7079944D01*
X28378766Y7029685D01*
X28392132Y7026819D01*
X28484770Y7017328D01*
X28491185Y7017000D01*
X28565385Y7017000D01*
X28580624Y7021475D01*
X28581829Y7022865D01*
X28583500Y7030548D01*
X28583500Y7727885D01*
X28579025Y7743124D01*
X28577635Y7744329D01*
X28569952Y7746000D01*
X27810115Y7746000D01*
X27794876Y7741525D01*
X27793671Y7740135D01*
X27792000Y7732452D01*
X27792000Y7716234D01*
X18295849Y7716234D01*
X18388974Y7786026D01*
X18393255Y7791738D01*
X18454756Y7825321D01*
X18481539Y7828200D01*
X20784841Y7828200D01*
X20790118Y7828089D01*
X20853129Y7825448D01*
X20896265Y7835565D01*
X20907931Y7837727D01*
X20951821Y7843739D01*
X20960706Y7847584D01*
X20966009Y7849878D01*
X20987274Y7856911D01*
X21002320Y7860440D01*
X21009842Y7864575D01*
X21009849Y7864578D01*
X21041146Y7881784D01*
X21051802Y7887005D01*
X21092456Y7904597D01*
X21104470Y7914326D01*
X21123061Y7926818D01*
X21130812Y7931079D01*
X21136604Y7934263D01*
X21144852Y7941383D01*
X21169853Y7966383D01*
X21179651Y7975205D01*
X21184494Y7979127D01*
X21211545Y8001033D01*
X21216517Y8008030D01*
X21216524Y8008037D01*
X21222719Y8016755D01*
X21236330Y8032861D01*
X21412064Y8208595D01*
X21474376Y8242621D01*
X21501159Y8245500D01*
X21684070Y8245500D01*
X21744236Y8252036D01*
X21796436Y8271605D01*
X21867795Y8298356D01*
X21867798Y8298357D01*
X21876199Y8301507D01*
X21988974Y8386026D01*
X22073493Y8498801D01*
X22078072Y8511014D01*
X22118102Y8617795D01*
X22122964Y8630764D01*
X22129500Y8690930D01*
X22470500Y8690930D01*
X22477036Y8630764D01*
X22481898Y8617795D01*
X22521929Y8511014D01*
X22526507Y8498801D01*
X22611026Y8386026D01*
X22723801Y8301507D01*
X22732202Y8298357D01*
X22732205Y8298356D01*
X22803564Y8271605D01*
X22855764Y8252036D01*
X22915930Y8245500D01*
X23509070Y8245500D01*
X23569236Y8252036D01*
X23621436Y8271605D01*
X23622796Y8272115D01*
X27792000Y8272115D01*
X27796475Y8256876D01*
X27797865Y8255671D01*
X27805548Y8254000D01*
X28565385Y8254000D01*
X28580624Y8258475D01*
X28581829Y8259865D01*
X28583500Y8267548D01*
X28583500Y8964885D01*
X28579025Y8980124D01*
X28577635Y8981329D01*
X28569952Y8983000D01*
X28491234Y8983000D01*
X28484718Y8982663D01*
X28390868Y8972925D01*
X28377472Y8970032D01*
X28226047Y8919512D01*
X28212885Y8913347D01*
X28077508Y8829574D01*
X28066110Y8820540D01*
X27953637Y8707871D01*
X27944625Y8696460D01*
X27861088Y8560937D01*
X27854944Y8547759D01*
X27804685Y8396234D01*
X27801819Y8382868D01*
X27792328Y8290230D01*
X27792000Y8283815D01*
X27792000Y8272115D01*
X23622796Y8272115D01*
X23692795Y8298356D01*
X23692798Y8298357D01*
X23701199Y8301507D01*
X23813974Y8386026D01*
X23898493Y8498801D01*
X23903072Y8511014D01*
X23943102Y8617795D01*
X23947964Y8630764D01*
X23954500Y8690930D01*
X23954500Y9259070D01*
X23947964Y9319236D01*
X23945192Y9326631D01*
X23945190Y9326638D01*
X23932062Y9361656D01*
X23926879Y9432463D01*
X23960949Y9494980D01*
X24432203Y9966234D01*
X27742000Y9966234D01*
X27742337Y9959718D01*
X27752075Y9865868D01*
X27754968Y9852472D01*
X27805488Y9701047D01*
X27811653Y9687885D01*
X27895426Y9552508D01*
X27904460Y9541110D01*
X28017129Y9428637D01*
X28028540Y9419625D01*
X28164063Y9336088D01*
X28177241Y9329944D01*
X28328766Y9279685D01*
X28342132Y9276819D01*
X28434770Y9267328D01*
X28441185Y9267000D01*
X28515385Y9267000D01*
X28530624Y9271475D01*
X28531829Y9272865D01*
X28533500Y9280548D01*
X28533500Y9977885D01*
X28529025Y9993124D01*
X28527635Y9994329D01*
X28519952Y9996000D01*
X27760115Y9996000D01*
X27744876Y9991525D01*
X27743671Y9990135D01*
X27742000Y9982452D01*
X27742000Y9966234D01*
X24432203Y9966234D01*
X24988084Y10522115D01*
X27742000Y10522115D01*
X27746475Y10506876D01*
X27747865Y10505671D01*
X27755548Y10504000D01*
X28515385Y10504000D01*
X28530624Y10508475D01*
X28531829Y10509865D01*
X28533500Y10517548D01*
X28533500Y11214885D01*
X28529025Y11230124D01*
X28527635Y11231329D01*
X28519952Y11233000D01*
X28441234Y11233000D01*
X28434718Y11232663D01*
X28340868Y11222925D01*
X28327472Y11220032D01*
X28176047Y11169512D01*
X28162885Y11163347D01*
X28027508Y11079574D01*
X28016110Y11070540D01*
X27903637Y10957871D01*
X27894625Y10946460D01*
X27811088Y10810937D01*
X27804944Y10797759D01*
X27754685Y10646234D01*
X27751819Y10632868D01*
X27742328Y10540230D01*
X27742000Y10533815D01*
X27742000Y10522115D01*
X24988084Y10522115D01*
X25951985Y11486016D01*
X34092001Y11486016D01*
X34092195Y11481080D01*
X34094430Y11452664D01*
X34096730Y11440069D01*
X34139107Y11294210D01*
X34145352Y11279779D01*
X34221911Y11150322D01*
X34231551Y11137896D01*
X34337896Y11031551D01*
X34350322Y11021911D01*
X34479779Y10945352D01*
X34494210Y10939107D01*
X34628605Y10900061D01*
X34642706Y10900101D01*
X34646000Y10907370D01*
X34646000Y11865385D01*
X34641525Y11880624D01*
X34640135Y11881829D01*
X34632452Y11883500D01*
X34110116Y11883500D01*
X34094877Y11879025D01*
X34093672Y11877635D01*
X34092001Y11869952D01*
X34092001Y11486016D01*
X25951985Y11486016D01*
X26875584Y12409615D01*
X34092000Y12409615D01*
X34096475Y12394376D01*
X34097865Y12393171D01*
X34105548Y12391500D01*
X34627885Y12391500D01*
X34643124Y12395975D01*
X34644329Y12397365D01*
X34646000Y12405048D01*
X34646000Y12409615D01*
X35154000Y12409615D01*
X35158475Y12394376D01*
X35159865Y12393171D01*
X35167548Y12391500D01*
X35689884Y12391500D01*
X35705123Y12395975D01*
X35706328Y12397365D01*
X35707999Y12405048D01*
X35707999Y12788983D01*
X35707805Y12793920D01*
X35705570Y12822336D01*
X35703270Y12834931D01*
X35660893Y12980790D01*
X35654648Y12995221D01*
X35578089Y13124678D01*
X35568449Y13137104D01*
X35462104Y13243449D01*
X35449678Y13253089D01*
X35320221Y13329648D01*
X35305790Y13335893D01*
X35171395Y13374939D01*
X35157294Y13374899D01*
X35154000Y13367630D01*
X35154000Y12409615D01*
X34646000Y12409615D01*
X34646000Y13361878D01*
X34642027Y13375409D01*
X34634129Y13376544D01*
X34494210Y13335893D01*
X34479779Y13329648D01*
X34350322Y13253089D01*
X34337896Y13243449D01*
X34231551Y13137104D01*
X34221911Y13124678D01*
X34145352Y12995221D01*
X34139107Y12980790D01*
X34096731Y12834935D01*
X34094430Y12822333D01*
X34092193Y12793916D01*
X34092000Y12788986D01*
X34092000Y12409615D01*
X26875584Y12409615D01*
X29044764Y14578795D01*
X29107076Y14612821D01*
X29133859Y14615700D01*
X35591140Y14615700D01*
X35659261Y14595698D01*
X35680236Y14578795D01*
X36203796Y14055234D01*
X36237821Y13992922D01*
X36240700Y13966139D01*
X36240700Y12099116D01*
X36241282Y12094871D01*
X36241282Y12094864D01*
X36244334Y12072587D01*
X36245500Y12055487D01*
X36245500Y11518166D01*
X36260502Y11423445D01*
X36265003Y11414612D01*
X36268068Y11405178D01*
X36265237Y11404258D01*
X36275398Y11350151D01*
X36248698Y11284366D01*
X36190670Y11243460D01*
X36126749Y11240720D01*
X36126555Y11239498D01*
X36120522Y11240454D01*
X36120520Y11240454D01*
X36031834Y11254500D01*
X35817173Y11254500D01*
X35749052Y11274502D01*
X35702559Y11328158D01*
X35692455Y11398432D01*
X35696177Y11415655D01*
X35703268Y11440059D01*
X35705570Y11452667D01*
X35707807Y11481084D01*
X35708000Y11486014D01*
X35708000Y11865385D01*
X35703525Y11880624D01*
X35702135Y11881829D01*
X35694452Y11883500D01*
X35172115Y11883500D01*
X35156876Y11879025D01*
X35155671Y11877635D01*
X35154000Y11869952D01*
X35154000Y10913122D01*
X35157973Y10899592D01*
X35187431Y10895357D01*
X35252012Y10865864D01*
X35290396Y10806138D01*
X35295500Y10770639D01*
X35295500Y10373442D01*
X35294581Y10363137D01*
X35294365Y10362474D01*
X35287948Y10209371D01*
X35292171Y10191367D01*
X35295500Y10162595D01*
X35295500Y9643166D01*
X35310502Y9548445D01*
X35368674Y9434277D01*
X35459277Y9343674D01*
X35573445Y9285502D01*
X35668166Y9270500D01*
X36031834Y9270500D01*
X36036726Y9271275D01*
X36036729Y9271275D01*
X36067681Y9276177D01*
X36122550Y9272723D01*
X36125420Y9271889D01*
X36136642Y9268046D01*
X36169842Y9254902D01*
X36177834Y9251738D01*
X36193202Y9250123D01*
X36215187Y9245810D01*
X36230028Y9241498D01*
X36236605Y9241015D01*
X36238588Y9240869D01*
X36238599Y9240869D01*
X36240895Y9240700D01*
X36276246Y9240700D01*
X36289417Y9240010D01*
X36330233Y9235720D01*
X36338705Y9237153D01*
X36338706Y9237153D01*
X36349241Y9238935D01*
X36370254Y9240700D01*
X37855961Y9240700D01*
X37924082Y9220698D01*
X37935939Y9211142D01*
X37936026Y9211026D01*
X37936846Y9210411D01*
X37972925Y9183372D01*
X38048801Y9126507D01*
X38057202Y9123357D01*
X38057205Y9123356D01*
X38086020Y9112554D01*
X38180764Y9077036D01*
X38240930Y9070500D01*
X38834070Y9070500D01*
X38894236Y9077036D01*
X38988980Y9112554D01*
X39017795Y9123356D01*
X39017798Y9123357D01*
X39026199Y9126507D01*
X39138974Y9211026D01*
X39223493Y9323801D01*
X39228100Y9336088D01*
X39257030Y9413260D01*
X39272964Y9455764D01*
X39279500Y9515930D01*
X39279500Y10084070D01*
X39272964Y10144236D01*
X39248546Y10209371D01*
X39226644Y10267795D01*
X39226643Y10267798D01*
X39223493Y10276199D01*
X39138974Y10388974D01*
X39026199Y10473493D01*
X39017798Y10476643D01*
X39017795Y10476644D01*
X38929177Y10509865D01*
X38894236Y10522964D01*
X38834070Y10529500D01*
X38240930Y10529500D01*
X38180764Y10522964D01*
X38145823Y10509865D01*
X38057205Y10476644D01*
X38057202Y10476643D01*
X38048801Y10473493D01*
X37936026Y10388974D01*
X37934803Y10390606D01*
X37882744Y10362179D01*
X37855961Y10359300D01*
X36596359Y10359300D01*
X36528238Y10379302D01*
X36507264Y10396205D01*
X36441405Y10462064D01*
X36407379Y10524376D01*
X36404500Y10551159D01*
X36404500Y10881834D01*
X36389498Y10976555D01*
X36384997Y10985389D01*
X36381932Y10994822D01*
X36384763Y10995742D01*
X36374602Y11049849D01*
X36401302Y11115634D01*
X36459330Y11156540D01*
X36523251Y11159280D01*
X36523445Y11160502D01*
X36529478Y11159546D01*
X36529480Y11159546D01*
X36618166Y11145500D01*
X36981834Y11145500D01*
X37076555Y11160502D01*
X37190723Y11218674D01*
X37281326Y11309277D01*
X37339498Y11423445D01*
X37354500Y11518166D01*
X37354500Y12025438D01*
X37356492Y12047752D01*
X37356661Y12048691D01*
X37358502Y12055028D01*
X37359300Y12065895D01*
X37359300Y14234817D01*
X37359411Y14240093D01*
X37361693Y14294545D01*
X37362053Y14303129D01*
X37360092Y14311491D01*
X37360091Y14311497D01*
X37351935Y14346268D01*
X37349771Y14357943D01*
X37344927Y14393309D01*
X37343761Y14401821D01*
X37337622Y14416007D01*
X37330589Y14437275D01*
X37329022Y14443958D01*
X37329020Y14443963D01*
X37327060Y14452319D01*
X37315251Y14473801D01*
X37305721Y14491135D01*
X37300499Y14501794D01*
X37286315Y14534572D01*
X37286314Y14534574D01*
X37282903Y14542456D01*
X37273174Y14554470D01*
X37260682Y14573061D01*
X37256419Y14580816D01*
X37253237Y14586604D01*
X37248924Y14591600D01*
X37248922Y14591604D01*
X37247635Y14593094D01*
X37246118Y14594852D01*
X37221116Y14619854D01*
X37212291Y14629655D01*
X37191875Y14654867D01*
X37191874Y14654868D01*
X37186467Y14661545D01*
X37170750Y14672715D01*
X37154649Y14686321D01*
X36281217Y15559752D01*
X36277564Y15563562D01*
X36255740Y15587295D01*
X36234863Y15609999D01*
X36197216Y15633341D01*
X36187432Y15640065D01*
X36152143Y15666851D01*
X36137767Y15672543D01*
X36117761Y15682605D01*
X36104626Y15690749D01*
X36096378Y15693145D01*
X36096372Y15693148D01*
X36062085Y15703110D01*
X36050858Y15706954D01*
X36017658Y15720098D01*
X36017657Y15720098D01*
X36009666Y15723262D01*
X35994298Y15724877D01*
X35972313Y15729190D01*
X35957472Y15733502D01*
X35950895Y15733985D01*
X35948912Y15734131D01*
X35948901Y15734131D01*
X35946605Y15734300D01*
X35911254Y15734300D01*
X35898083Y15734990D01*
X35865811Y15738382D01*
X35857267Y15739280D01*
X35848795Y15737847D01*
X35848794Y15737847D01*
X35838260Y15736065D01*
X35817246Y15734300D01*
X28865159Y15734300D01*
X28859883Y15734411D01*
X28855733Y15734585D01*
X28796871Y15737052D01*
X28788508Y15735090D01*
X28788504Y15735090D01*
X28753738Y15726936D01*
X28742068Y15724773D01*
X28732261Y15723429D01*
X28698179Y15718761D01*
X28690298Y15715351D01*
X28690296Y15715350D01*
X28683992Y15712622D01*
X28662725Y15705588D01*
X28647681Y15702060D01*
X28612292Y15682605D01*
X28608865Y15680721D01*
X28598206Y15675499D01*
X28565428Y15661315D01*
X28565426Y15661314D01*
X28557544Y15657903D01*
X28545530Y15648174D01*
X28526941Y15635683D01*
X28513396Y15628237D01*
X28505148Y15621117D01*
X28480151Y15596120D01*
X28470350Y15587295D01*
X28438455Y15561467D01*
X28433480Y15554466D01*
X28433476Y15554462D01*
X28427281Y15545745D01*
X28413670Y15529639D01*
X22827759Y9943728D01*
X22823950Y9940075D01*
X22777501Y9897363D01*
X22754292Y9859931D01*
X22754159Y9859716D01*
X22747435Y9849933D01*
X22720649Y9814643D01*
X22715830Y9802472D01*
X22714958Y9800269D01*
X22704896Y9780263D01*
X22696751Y9767126D01*
X22694355Y9758878D01*
X22694352Y9758872D01*
X22684390Y9724585D01*
X22680546Y9713358D01*
X22670461Y9687885D01*
X22664238Y9672166D01*
X22663340Y9663621D01*
X22662623Y9656799D01*
X22658305Y9634796D01*
X22656901Y9629966D01*
X22623142Y9577121D01*
X22624557Y9575706D01*
X22618206Y9569355D01*
X22611026Y9563974D01*
X22526507Y9451199D01*
X22523357Y9442798D01*
X22523356Y9442795D01*
X22496226Y9370426D01*
X22477036Y9319236D01*
X22470500Y9259070D01*
X22470500Y8690930D01*
X22129500Y8690930D01*
X22129500Y9259070D01*
X22122964Y9319236D01*
X22103774Y9370426D01*
X22076644Y9442795D01*
X22076643Y9442798D01*
X22073493Y9451199D01*
X21988974Y9563974D01*
X21876199Y9648493D01*
X21867798Y9651643D01*
X21867795Y9651644D01*
X21773677Y9686927D01*
X21744236Y9697964D01*
X21684070Y9704500D01*
X21090930Y9704500D01*
X21030764Y9697964D01*
X21001323Y9686927D01*
X20907205Y9651644D01*
X20907202Y9651643D01*
X20898801Y9648493D01*
X20786026Y9563974D01*
X20701507Y9451199D01*
X20698357Y9442798D01*
X20698356Y9442795D01*
X20671226Y9370426D01*
X20652036Y9319236D01*
X20645500Y9259070D01*
X20645500Y9076159D01*
X20625498Y9008038D01*
X20608595Y8987064D01*
X20605236Y8983705D01*
X20542924Y8949679D01*
X20516141Y8946800D01*
X18481539Y8946800D01*
X18413418Y8966802D01*
X18393653Y8982731D01*
X18388974Y8988974D01*
X18381793Y8994356D01*
X18299948Y9055695D01*
X18257433Y9112554D01*
X18252407Y9183372D01*
X18286467Y9245666D01*
X18335636Y9276044D01*
X18348948Y9280485D01*
X18362115Y9286653D01*
X18497492Y9370426D01*
X18508890Y9379460D01*
X18621363Y9492129D01*
X18630375Y9503540D01*
X18713912Y9639063D01*
X18720056Y9652241D01*
X18770315Y9803766D01*
X18773181Y9817132D01*
X18782672Y9909770D01*
X18783000Y9916185D01*
X18783000Y9940385D01*
X18778525Y9955624D01*
X18777135Y9956829D01*
X18769452Y9958500D01*
X16835115Y9958500D01*
X16819876Y9954025D01*
X16818671Y9952635D01*
X16817000Y9944952D01*
X16817000Y9916234D01*
X14086912Y9916234D01*
X14060893Y10005790D01*
X14054648Y10020221D01*
X13978089Y10149678D01*
X13968449Y10162104D01*
X13862104Y10268449D01*
X13849678Y10278089D01*
X13720221Y10354648D01*
X13705790Y10360893D01*
X13559935Y10403269D01*
X13547333Y10405570D01*
X13518916Y10407807D01*
X13513986Y10408000D01*
X13504736Y10408000D01*
X13436615Y10428002D01*
X13390122Y10481658D01*
X13389697Y10484615D01*
X16817000Y10484615D01*
X16821475Y10469376D01*
X16822865Y10468171D01*
X16830548Y10466500D01*
X17527885Y10466500D01*
X17543124Y10470975D01*
X17544329Y10472365D01*
X17546000Y10480048D01*
X17546000Y10484615D01*
X18054000Y10484615D01*
X18058475Y10469376D01*
X18059865Y10468171D01*
X18067548Y10466500D01*
X18764885Y10466500D01*
X18780124Y10470975D01*
X18781329Y10472365D01*
X18783000Y10480048D01*
X18783000Y10508766D01*
X18782663Y10515282D01*
X18772925Y10609132D01*
X18770032Y10622528D01*
X18719512Y10773953D01*
X18713347Y10787115D01*
X18629574Y10922492D01*
X18620540Y10933890D01*
X18507871Y11046363D01*
X18496460Y11055375D01*
X18360937Y11138912D01*
X18347759Y11145056D01*
X18196234Y11195315D01*
X18182868Y11198181D01*
X18090230Y11207672D01*
X18083815Y11208000D01*
X18072115Y11208000D01*
X18056876Y11203525D01*
X18055671Y11202135D01*
X18054000Y11194452D01*
X18054000Y10484615D01*
X17546000Y10484615D01*
X17546000Y11189885D01*
X17541525Y11205124D01*
X17540135Y11206329D01*
X17532452Y11208000D01*
X17516234Y11208000D01*
X17509718Y11207663D01*
X17415868Y11197925D01*
X17402472Y11195032D01*
X17251047Y11144512D01*
X17237885Y11138347D01*
X17102508Y11054574D01*
X17091110Y11045540D01*
X16978637Y10932871D01*
X16969625Y10921460D01*
X16886088Y10785937D01*
X16879944Y10772759D01*
X16829685Y10621234D01*
X16826819Y10607868D01*
X16817328Y10515230D01*
X16817000Y10508815D01*
X16817000Y10484615D01*
X13389697Y10484615D01*
X13380018Y10551932D01*
X13409512Y10616512D01*
X13425434Y10631913D01*
X13449045Y10651033D01*
X13454020Y10658034D01*
X13454024Y10658038D01*
X13460219Y10666755D01*
X13473830Y10682861D01*
X14134741Y11343772D01*
X14138550Y11347425D01*
X14138553Y11347428D01*
X14184999Y11390137D01*
X14190142Y11398432D01*
X14208341Y11427783D01*
X14215064Y11437566D01*
X14236658Y11466015D01*
X14241851Y11472856D01*
X14245013Y11480842D01*
X14245015Y11480846D01*
X14247542Y11487229D01*
X14257610Y11507247D01*
X14261222Y11513073D01*
X14265749Y11520374D01*
X14278108Y11562914D01*
X14281953Y11574143D01*
X14295098Y11607345D01*
X14298261Y11615334D01*
X14299160Y11623882D01*
X14299878Y11630707D01*
X14304189Y11652683D01*
X14306662Y11661194D01*
X14306662Y11661196D01*
X14308502Y11667528D01*
X14309300Y11678395D01*
X14309300Y11713747D01*
X14309990Y11726918D01*
X14313382Y11759188D01*
X14313382Y11759189D01*
X14314280Y11767733D01*
X14311065Y11786740D01*
X14309300Y11807754D01*
X14309300Y12377200D01*
X14329302Y12445321D01*
X14382958Y12491814D01*
X14435300Y12503200D01*
X17828377Y12503200D01*
X17896498Y12483198D01*
X17942991Y12429542D01*
X17952826Y12396910D01*
X17960502Y12348445D01*
X18018674Y12234277D01*
X18109277Y12143674D01*
X18223445Y12085502D01*
X18318166Y12070500D01*
X18681834Y12070500D01*
X18776555Y12085502D01*
X18890723Y12143674D01*
X18981326Y12234277D01*
X19039498Y12348445D01*
X19049408Y12411016D01*
X19592001Y12411016D01*
X19592195Y12406080D01*
X19594430Y12377664D01*
X19596730Y12365069D01*
X19639107Y12219210D01*
X19645352Y12204779D01*
X19721911Y12075322D01*
X19731551Y12062896D01*
X19837896Y11956551D01*
X19850322Y11946911D01*
X19979779Y11870352D01*
X19994210Y11864107D01*
X20128605Y11825061D01*
X20142706Y11825101D01*
X20146000Y11832370D01*
X20146000Y11838122D01*
X20654000Y11838122D01*
X20657973Y11824591D01*
X20665871Y11823456D01*
X20805790Y11864107D01*
X20820221Y11870352D01*
X20949678Y11946911D01*
X20962104Y11956551D01*
X21068449Y12062896D01*
X21078089Y12075322D01*
X21154648Y12204779D01*
X21160893Y12219210D01*
X21203269Y12365065D01*
X21205570Y12377667D01*
X21207807Y12406084D01*
X21208000Y12411014D01*
X21208000Y12790385D01*
X21203525Y12805624D01*
X21202135Y12806829D01*
X21194452Y12808500D01*
X20672115Y12808500D01*
X20656876Y12804025D01*
X20655671Y12802635D01*
X20654000Y12794952D01*
X20654000Y11838122D01*
X20146000Y11838122D01*
X20146000Y12790385D01*
X20141525Y12805624D01*
X20140135Y12806829D01*
X20132452Y12808500D01*
X19610116Y12808500D01*
X19594877Y12804025D01*
X19593672Y12802635D01*
X19592001Y12794952D01*
X19592001Y12411016D01*
X19049408Y12411016D01*
X19054500Y12443166D01*
X19054500Y12971531D01*
X19054838Y12980759D01*
X19057167Y13012474D01*
X19063444Y13097949D01*
X19056986Y13129977D01*
X19054500Y13154882D01*
X19054500Y13681834D01*
X19039498Y13776555D01*
X19034997Y13785389D01*
X19031932Y13794822D01*
X19034763Y13795742D01*
X19024602Y13849849D01*
X19051302Y13915634D01*
X19109330Y13956540D01*
X19173251Y13959280D01*
X19173445Y13960502D01*
X19179478Y13959546D01*
X19179480Y13959546D01*
X19268166Y13945500D01*
X19482827Y13945500D01*
X19550948Y13925498D01*
X19597441Y13871842D01*
X19607545Y13801568D01*
X19603823Y13784345D01*
X19596732Y13759941D01*
X19594430Y13747333D01*
X19592193Y13718916D01*
X19592000Y13713986D01*
X19592000Y13334615D01*
X19596475Y13319376D01*
X19597865Y13318171D01*
X19605548Y13316500D01*
X20127885Y13316500D01*
X20143124Y13320975D01*
X20144329Y13322365D01*
X20146000Y13330048D01*
X20146000Y13334615D01*
X20654000Y13334615D01*
X20658475Y13319376D01*
X20659865Y13318171D01*
X20667548Y13316500D01*
X21189884Y13316500D01*
X21205123Y13320975D01*
X21206328Y13322365D01*
X21207999Y13330048D01*
X21207999Y13713983D01*
X21207805Y13718920D01*
X21205570Y13747336D01*
X21203270Y13759931D01*
X21160893Y13905790D01*
X21154648Y13920221D01*
X21078089Y14049678D01*
X21068449Y14062104D01*
X20962104Y14168449D01*
X20949678Y14178089D01*
X20820221Y14254648D01*
X20805790Y14260893D01*
X20671395Y14299939D01*
X20657294Y14299899D01*
X20654000Y14292630D01*
X20654000Y13334615D01*
X20146000Y13334615D01*
X20146000Y14286878D01*
X20142027Y14300408D01*
X20112569Y14304643D01*
X20047988Y14334136D01*
X20009604Y14393862D01*
X20004500Y14429361D01*
X20004500Y14855578D01*
X20005190Y14868749D01*
X20013382Y14946689D01*
X20014280Y14955233D01*
X20006265Y15002620D01*
X20004500Y15023633D01*
X20004500Y15556834D01*
X19989498Y15651555D01*
X19931326Y15765723D01*
X19840723Y15856326D01*
X19726555Y15914498D01*
X19631834Y15929500D01*
X19268166Y15929500D01*
X19173445Y15914498D01*
X19059277Y15856326D01*
X18968674Y15765723D01*
X18910502Y15651555D01*
X18895500Y15556834D01*
X18895500Y15422800D01*
X18875498Y15354679D01*
X18821842Y15308186D01*
X18769500Y15296800D01*
X13634330Y15296800D01*
X13566209Y15316802D01*
X13519716Y15370458D01*
X13516348Y15378571D01*
X13501645Y15417793D01*
X13501643Y15417797D01*
X13498493Y15426199D01*
X13413974Y15538974D01*
X13301199Y15623493D01*
X13292798Y15626643D01*
X13292795Y15626644D01*
X13177110Y15670012D01*
X13169236Y15672964D01*
X13109070Y15679500D01*
X12515930Y15679500D01*
X12455764Y15672964D01*
X12447890Y15670012D01*
X12332205Y15626644D01*
X12332202Y15626643D01*
X12323801Y15623493D01*
X12211026Y15538974D01*
X12126507Y15426199D01*
X12123357Y15417798D01*
X12123356Y15417795D01*
X12099695Y15354679D01*
X12077036Y15294236D01*
X12070500Y15234070D01*
X12070500Y14665930D01*
X12077036Y14605764D01*
X12084219Y14586604D01*
X12120009Y14491135D01*
X12126507Y14473801D01*
X12211026Y14361026D01*
X12323801Y14276507D01*
X12332202Y14273357D01*
X12332205Y14273356D01*
X12382109Y14254648D01*
X12455764Y14227036D01*
X12515930Y14220500D01*
X12781747Y14220500D01*
X12816898Y14215497D01*
X12837916Y14209391D01*
X12849147Y14205546D01*
X12890333Y14189239D01*
X12898871Y14188342D01*
X12898881Y14188339D01*
X12905706Y14187622D01*
X12927678Y14183312D01*
X12942528Y14178998D01*
X12949885Y14178458D01*
X12951088Y14178369D01*
X12951099Y14178369D01*
X12953395Y14178200D01*
X12988755Y14178200D01*
X13001926Y14177510D01*
X13042733Y14173221D01*
X13051205Y14174654D01*
X13051206Y14174654D01*
X13061735Y14176435D01*
X13082748Y14178200D01*
X18001961Y14178200D01*
X18070082Y14158198D01*
X18116575Y14104542D01*
X18126679Y14034268D01*
X18097185Y13969688D01*
X18091056Y13963105D01*
X18018674Y13890723D01*
X17960502Y13776555D01*
X17958951Y13766762D01*
X17952826Y13728090D01*
X17922414Y13663936D01*
X17862146Y13626409D01*
X17828377Y13621800D01*
X14414818Y13621800D01*
X14346697Y13641802D01*
X14313992Y13672235D01*
X14269356Y13731793D01*
X14269355Y13731794D01*
X14263974Y13738974D01*
X14151199Y13823493D01*
X14142798Y13826643D01*
X14142795Y13826644D01*
X14030679Y13868674D01*
X14019236Y13872964D01*
X13959070Y13879500D01*
X13365930Y13879500D01*
X13305764Y13872964D01*
X13294321Y13868674D01*
X13182205Y13826644D01*
X13182202Y13826643D01*
X13173801Y13823493D01*
X13061026Y13738974D01*
X12976507Y13626199D01*
X12973357Y13617798D01*
X12973356Y13617795D01*
X12946238Y13545458D01*
X12927036Y13494236D01*
X12920500Y13434070D01*
X12920500Y12865930D01*
X12927036Y12805764D01*
X12933326Y12788986D01*
X12953004Y12736496D01*
X12976507Y12673801D01*
X13061026Y12561026D01*
X13140266Y12501640D01*
X13182780Y12444781D01*
X13190700Y12400814D01*
X13190700Y12033861D01*
X13170698Y11965740D01*
X13153796Y11944766D01*
X13047153Y11838122D01*
X13036123Y11827092D01*
X12973811Y11793067D01*
X12902995Y11798131D01*
X12846159Y11840678D01*
X12837483Y11854611D01*
X12835826Y11856892D01*
X12831326Y11865723D01*
X12740723Y11956326D01*
X12626555Y12014498D01*
X12531834Y12029500D01*
X12168166Y12029500D01*
X12073445Y12014498D01*
X11959277Y11956326D01*
X11871195Y11868244D01*
X11808883Y11834218D01*
X11738068Y11839283D01*
X11681232Y11881830D01*
X11656421Y11948350D01*
X11656100Y11957339D01*
X11656100Y12294500D01*
X11676102Y12362621D01*
X11729758Y12409114D01*
X11782100Y12420500D01*
X12134070Y12420500D01*
X12194236Y12427036D01*
X12239387Y12443963D01*
X12317795Y12473356D01*
X12317798Y12473357D01*
X12326199Y12476507D01*
X12438974Y12561026D01*
X12523493Y12673801D01*
X12546997Y12736496D01*
X12566674Y12788986D01*
X12572964Y12805764D01*
X12579500Y12865930D01*
X12579500Y13434070D01*
X12572964Y13494236D01*
X12553762Y13545458D01*
X12526644Y13617795D01*
X12526643Y13617798D01*
X12523493Y13626199D01*
X12438974Y13738974D01*
X12326199Y13823493D01*
X12317798Y13826643D01*
X12317795Y13826644D01*
X12205679Y13868674D01*
X12194236Y13872964D01*
X12134070Y13879500D01*
X11540930Y13879500D01*
X11480764Y13872964D01*
X11469321Y13868674D01*
X11357205Y13826644D01*
X11357202Y13826643D01*
X11348801Y13823493D01*
X11236026Y13738974D01*
X11151507Y13626199D01*
X11148357Y13617798D01*
X11148356Y13617795D01*
X11121238Y13545458D01*
X11102036Y13494236D01*
X11095500Y13434070D01*
X11095500Y12967926D01*
X11075498Y12899805D01*
X11059945Y12881410D01*
X11057026Y12879525D01*
X11050579Y12871347D01*
X11037797Y12855133D01*
X11034216Y12851103D01*
X11034314Y12851020D01*
X11030961Y12847063D01*
X11027280Y12843382D01*
X11024256Y12839150D01*
X11024254Y12839148D01*
X11016851Y12828789D01*
X11013288Y12824044D01*
X10990080Y12794605D01*
X10990079Y12794603D01*
X10983632Y12786425D01*
X10981215Y12779543D01*
X10977955Y12774360D01*
X10975795Y12771337D01*
X10972433Y12773739D01*
X10938284Y12736496D01*
X10869628Y12718415D01*
X10802096Y12740321D01*
X10755300Y12799827D01*
X10736964Y12848351D01*
X10734280Y12855454D01*
X10707414Y12894544D01*
X10648855Y12979749D01*
X10648854Y12979751D01*
X10644553Y12986008D01*
X10635313Y12994241D01*
X10587006Y13037280D01*
X10526275Y13091389D01*
X10386274Y13165516D01*
X10338827Y13177434D01*
X10280428Y13210542D01*
X10193715Y13297254D01*
X10190062Y13301064D01*
X10153177Y13341176D01*
X10147363Y13347499D01*
X10109716Y13370841D01*
X10099932Y13377565D01*
X10071483Y13399159D01*
X10071484Y13399159D01*
X10064643Y13404351D01*
X10050267Y13410043D01*
X10030261Y13420105D01*
X10017126Y13428249D01*
X10008878Y13430645D01*
X10008872Y13430648D01*
X9974585Y13440610D01*
X9963358Y13444454D01*
X9930158Y13457598D01*
X9930157Y13457598D01*
X9922166Y13460762D01*
X9906798Y13462377D01*
X9884813Y13466690D01*
X9869972Y13471002D01*
X9863395Y13471485D01*
X9861412Y13471631D01*
X9861401Y13471631D01*
X9859105Y13471800D01*
X9823754Y13471800D01*
X9810583Y13472490D01*
X9778311Y13475882D01*
X9769767Y13476780D01*
X9761295Y13475347D01*
X9761294Y13475347D01*
X9750760Y13473565D01*
X9729746Y13471800D01*
X9021623Y13471800D01*
X8953502Y13491802D01*
X8907009Y13545458D01*
X8897174Y13578090D01*
X8891049Y13616762D01*
X8889498Y13626555D01*
X8831326Y13740723D01*
X8740723Y13831326D01*
X8626555Y13889498D01*
X8531834Y13904500D01*
X8168166Y13904500D01*
X8073445Y13889498D01*
X8072980Y13892435D01*
X8017931Y13890867D01*
X7957136Y13927535D01*
X7925817Y13991250D01*
X7933113Y14054794D01*
X7931932Y14055178D01*
X7933827Y14061012D01*
X7933916Y14061783D01*
X7934453Y14062937D01*
X7934997Y14064611D01*
X7939498Y14073445D01*
X7954500Y14168166D01*
X7954500Y14264700D01*
X7974502Y14332821D01*
X8028158Y14379314D01*
X8080500Y14390700D01*
X10305961Y14390700D01*
X10374082Y14370698D01*
X10385939Y14361142D01*
X10386026Y14361026D01*
X10386846Y14360411D01*
X10421906Y14334136D01*
X10498801Y14276507D01*
X10507202Y14273357D01*
X10507205Y14273356D01*
X10557109Y14254648D01*
X10630764Y14227036D01*
X10690930Y14220500D01*
X11284070Y14220500D01*
X11344236Y14227036D01*
X11417891Y14254648D01*
X11467795Y14273356D01*
X11467798Y14273357D01*
X11476199Y14276507D01*
X11588974Y14361026D01*
X11673493Y14473801D01*
X11679992Y14491135D01*
X11715781Y14586604D01*
X11722964Y14605764D01*
X11729500Y14665930D01*
X11729500Y15234070D01*
X11722964Y15294236D01*
X11700305Y15354679D01*
X11676644Y15417795D01*
X11676643Y15417798D01*
X11673493Y15426199D01*
X11588974Y15538974D01*
X11583262Y15543255D01*
X11549679Y15604756D01*
X11546800Y15631539D01*
X11546800Y17607317D01*
X11546911Y17612593D01*
X11549193Y17667045D01*
X11549553Y17675629D01*
X11547592Y17683991D01*
X11547591Y17683997D01*
X11539435Y17718768D01*
X11537271Y17730443D01*
X11532427Y17765809D01*
X11531261Y17774321D01*
X11525122Y17788507D01*
X11518089Y17809775D01*
X11516522Y17816458D01*
X11516520Y17816463D01*
X11514560Y17824819D01*
X11493220Y17863636D01*
X11487999Y17874294D01*
X11473815Y17907072D01*
X11473814Y17907074D01*
X11470403Y17914956D01*
X11460674Y17926970D01*
X11448182Y17945561D01*
X11443919Y17953316D01*
X11440737Y17959104D01*
X11436424Y17964100D01*
X11436422Y17964104D01*
X11435135Y17965594D01*
X11433618Y17967352D01*
X11408616Y17992354D01*
X11399791Y18002155D01*
X11379375Y18027367D01*
X11379374Y18027368D01*
X11373967Y18034045D01*
X11358250Y18045215D01*
X11342149Y18058822D01*
X11267886Y18133085D01*
X11233860Y18195397D01*
X11235274Y18254788D01*
X11265161Y18366326D01*
X11284292Y18585000D01*
X11279918Y18635000D01*
X21715708Y18635000D01*
X21734839Y18416326D01*
X21791653Y18204297D01*
X21825298Y18132144D01*
X21882095Y18010341D01*
X21882098Y18010336D01*
X21884421Y18005354D01*
X21887577Y18000847D01*
X21887578Y18000845D01*
X21983654Y17863635D01*
X22010326Y17825543D01*
X22165543Y17670326D01*
X22170051Y17667169D01*
X22170054Y17667167D01*
X22247994Y17612593D01*
X22345354Y17544421D01*
X22350336Y17542098D01*
X22350341Y17542095D01*
X22445810Y17497578D01*
X22544297Y17451653D01*
X22756326Y17394839D01*
X22975000Y17375708D01*
X23193674Y17394839D01*
X23405703Y17451653D01*
X23504190Y17497578D01*
X23599659Y17542095D01*
X23599664Y17542098D01*
X23604646Y17544421D01*
X23702006Y17612593D01*
X23779946Y17667167D01*
X23779949Y17667169D01*
X23784457Y17670326D01*
X23939674Y17825543D01*
X23966347Y17863635D01*
X24062422Y18000845D01*
X24062423Y18000847D01*
X24065579Y18005354D01*
X24067905Y18010341D01*
X24069267Y18012701D01*
X24120650Y18061694D01*
X24178386Y18075700D01*
X27564841Y18075700D01*
X27570118Y18075589D01*
X27633129Y18072948D01*
X27676265Y18083065D01*
X27687931Y18085227D01*
X27731821Y18091239D01*
X27740706Y18095084D01*
X27746009Y18097378D01*
X27767274Y18104411D01*
X27782320Y18107940D01*
X27789842Y18112075D01*
X27789849Y18112078D01*
X27821146Y18129284D01*
X27831802Y18134505D01*
X27872456Y18152097D01*
X27884470Y18161826D01*
X27903061Y18174318D01*
X27910812Y18178579D01*
X27916604Y18181763D01*
X27924852Y18188883D01*
X27949849Y18213880D01*
X27959650Y18222705D01*
X27984868Y18243126D01*
X27991545Y18248533D01*
X27996520Y18255534D01*
X27996524Y18255538D01*
X28002719Y18264255D01*
X28016330Y18280361D01*
X29757889Y20021919D01*
X29820201Y20055945D01*
X29891933Y20050534D01*
X29962817Y20023466D01*
X29967883Y20022435D01*
X29967884Y20022435D01*
X30022729Y20011277D01*
X30197191Y19975782D01*
X30331499Y19970857D01*
X30431043Y19967206D01*
X30431048Y19967206D01*
X30436207Y19967017D01*
X30441327Y19967673D01*
X30441329Y19967673D01*
X30668316Y19996751D01*
X30668317Y19996751D01*
X30673444Y19997408D01*
X30678394Y19998893D01*
X30897577Y20064651D01*
X30897582Y20064653D01*
X30902532Y20066138D01*
X31117319Y20171361D01*
X31121524Y20174361D01*
X31121530Y20174364D01*
X31307832Y20307252D01*
X31307834Y20307254D01*
X31312036Y20310251D01*
X31481454Y20479079D01*
X31621023Y20673310D01*
X31646186Y20724222D01*
X31724701Y20883086D01*
X31724702Y20883088D01*
X31726995Y20887728D01*
X31796524Y21116575D01*
X31801127Y21151540D01*
X31827306Y21350383D01*
X31827306Y21350387D01*
X31827743Y21353704D01*
X31829485Y21425000D01*
X31809887Y21663372D01*
X31751620Y21895342D01*
X31656249Y22114681D01*
X31526335Y22315498D01*
X31497470Y22347221D01*
X31368844Y22488578D01*
X31368842Y22488579D01*
X31365366Y22492400D01*
X31361315Y22495599D01*
X31361311Y22495603D01*
X31181725Y22637431D01*
X31177667Y22640636D01*
X31062480Y22704223D01*
X30972808Y22753725D01*
X30972805Y22753726D01*
X30968277Y22756226D01*
X30742819Y22836064D01*
X30694046Y22844752D01*
X30512438Y22877102D01*
X30512434Y22877102D01*
X30507350Y22878008D01*
X30423548Y22879032D01*
X30273360Y22880867D01*
X30273358Y22880867D01*
X30268191Y22880930D01*
X30131766Y22860054D01*
X30036876Y22845534D01*
X30036874Y22845533D01*
X30031767Y22844752D01*
X29999906Y22834338D01*
X29809340Y22772051D01*
X29809338Y22772050D01*
X29804427Y22770445D01*
X29592275Y22660006D01*
X29588142Y22656903D01*
X29588139Y22656901D01*
X29405145Y22519505D01*
X29401010Y22516400D01*
X29235767Y22343484D01*
X29100985Y22145901D01*
X29050635Y22037430D01*
X29016526Y21963948D01*
X29000284Y21928958D01*
X28936366Y21698480D01*
X28935817Y21693346D01*
X28935817Y21693344D01*
X28932614Y21663372D01*
X28910951Y21460658D01*
X28911248Y21455506D01*
X28911248Y21455502D01*
X28913007Y21425000D01*
X28924719Y21221879D01*
X28925856Y21216833D01*
X28925857Y21216827D01*
X28947295Y21121701D01*
X28977301Y20988554D01*
X28993078Y20949700D01*
X28993599Y20948416D01*
X29000693Y20877775D01*
X28965950Y20811919D01*
X27385236Y19231205D01*
X27322924Y19197179D01*
X27296141Y19194300D01*
X24178386Y19194300D01*
X24110265Y19214302D01*
X24069267Y19257299D01*
X24067905Y19259659D01*
X24065579Y19264646D01*
X23977843Y19389946D01*
X23942833Y19439946D01*
X23942831Y19439949D01*
X23939674Y19444457D01*
X23784457Y19599674D01*
X23779949Y19602831D01*
X23779946Y19602833D01*
X23609155Y19722422D01*
X23609153Y19722423D01*
X23604646Y19725579D01*
X23599664Y19727902D01*
X23599659Y19727905D01*
X23498884Y19774896D01*
X23405703Y19818347D01*
X23193674Y19875161D01*
X22975000Y19894292D01*
X22756326Y19875161D01*
X22544297Y19818347D01*
X22451116Y19774896D01*
X22350341Y19727905D01*
X22350336Y19727902D01*
X22345354Y19725579D01*
X22340847Y19722423D01*
X22340845Y19722422D01*
X22170054Y19602833D01*
X22170051Y19602831D01*
X22165543Y19599674D01*
X22010326Y19444457D01*
X22007169Y19439949D01*
X22007167Y19439946D01*
X21972157Y19389946D01*
X21884421Y19264646D01*
X21882098Y19259664D01*
X21882095Y19259659D01*
X21860945Y19214302D01*
X21791653Y19065703D01*
X21734839Y18853674D01*
X21715708Y18635000D01*
X11279918Y18635000D01*
X11265161Y18803674D01*
X11208347Y19015703D01*
X11164896Y19108884D01*
X11117905Y19209659D01*
X11117902Y19209664D01*
X11115579Y19214646D01*
X11112422Y19219155D01*
X10992833Y19389946D01*
X10992831Y19389949D01*
X10989674Y19394457D01*
X10834457Y19549674D01*
X10829949Y19552831D01*
X10829946Y19552833D01*
X10659155Y19672422D01*
X10659153Y19672423D01*
X10654646Y19675579D01*
X10649664Y19677902D01*
X10649659Y19677905D01*
X10519850Y19738435D01*
X10455703Y19768347D01*
X10243674Y19825161D01*
X10025000Y19844292D01*
X9806326Y19825161D01*
X9594297Y19768347D01*
X9530150Y19738435D01*
X9400341Y19677905D01*
X9400336Y19677902D01*
X9395354Y19675579D01*
X9390847Y19672423D01*
X9390845Y19672422D01*
X9220054Y19552833D01*
X9220051Y19552831D01*
X9215543Y19549674D01*
X9060326Y19394457D01*
X9057169Y19389949D01*
X9057167Y19389946D01*
X8937578Y19219155D01*
X8934421Y19214646D01*
X8932098Y19209664D01*
X8932095Y19209659D01*
X8885104Y19108884D01*
X8841653Y19015703D01*
X8784839Y18803674D01*
X8765708Y18585000D01*
X8784839Y18366326D01*
X8841653Y18154297D01*
X8873861Y18085227D01*
X8932095Y17960341D01*
X8932098Y17960336D01*
X8934421Y17955354D01*
X8937577Y17950847D01*
X8937578Y17950845D01*
X9055663Y17782203D01*
X9060326Y17775543D01*
X9215543Y17620326D01*
X9220051Y17617169D01*
X9220054Y17617167D01*
X9327268Y17542095D01*
X9395354Y17494421D01*
X9400336Y17492098D01*
X9400341Y17492095D01*
X9501116Y17445104D01*
X9594297Y17401653D01*
X9806326Y17344839D01*
X10025000Y17325708D01*
X10243674Y17344839D01*
X10269589Y17351783D01*
X10340564Y17350095D01*
X10399360Y17310301D01*
X10427309Y17245037D01*
X10428200Y17230077D01*
X10428200Y15635300D01*
X10408198Y15567179D01*
X10354542Y15520686D01*
X10302200Y15509300D01*
X8012764Y15509300D01*
X7944643Y15529302D01*
X7900498Y15578096D01*
X7895811Y15587295D01*
X7881326Y15615723D01*
X7790723Y15706326D01*
X7676555Y15764498D01*
X7581834Y15779500D01*
X7218166Y15779500D01*
X7123445Y15764498D01*
X7009277Y15706326D01*
X6918674Y15615723D01*
X6860502Y15501555D01*
X6845500Y15406834D01*
X6845500Y14869422D01*
X6844810Y14856251D01*
X6835720Y14769767D01*
X6837153Y14761295D01*
X6837153Y14761294D01*
X6843735Y14722383D01*
X6845500Y14701369D01*
X6845500Y14168166D01*
X6860502Y14073445D01*
X6865003Y14064611D01*
X6868068Y14055178D01*
X6865237Y14054258D01*
X6875398Y14000151D01*
X6848698Y13934366D01*
X6790670Y13893460D01*
X6726749Y13890720D01*
X6726555Y13889498D01*
X6720522Y13890454D01*
X6720520Y13890454D01*
X6631834Y13904500D01*
X6268166Y13904500D01*
X6173445Y13889498D01*
X6059277Y13831326D01*
X5968674Y13740723D01*
X5910502Y13626555D01*
X5895500Y13531834D01*
X5895500Y12293166D01*
X5910502Y12198445D01*
X5968674Y12084277D01*
X6059277Y11993674D01*
X6173445Y11935502D01*
X6268166Y11920500D01*
X6573709Y11920500D01*
X6641830Y11900498D01*
X6662804Y11883595D01*
X7617424Y10928975D01*
X7651450Y10866663D01*
X7646311Y10795653D01*
X7627036Y10744236D01*
X7626183Y10736388D01*
X7626183Y10736386D01*
X7620869Y10687467D01*
X7620500Y10684070D01*
X7620500Y10115930D01*
X7627036Y10055764D01*
X7631644Y10043472D01*
X7670290Y9940385D01*
X7676507Y9923801D01*
X7761026Y9811026D01*
X7873801Y9726507D01*
X7882202Y9723357D01*
X7882205Y9723356D01*
X7960613Y9693963D01*
X8005764Y9677036D01*
X8065930Y9670500D01*
X8659070Y9670500D01*
X8719236Y9677036D01*
X8764387Y9693963D01*
X8842795Y9723356D01*
X8842798Y9723357D01*
X8851199Y9726507D01*
X8963974Y9811026D01*
X8991184Y9847333D01*
X9043110Y9916618D01*
X9043111Y9916619D01*
X9048493Y9923801D01*
X9062862Y9962131D01*
X9105501Y10018893D01*
X9172063Y10043594D01*
X9180843Y10043900D01*
X9948572Y10043900D01*
X9968621Y10041766D01*
X9972811Y10041568D01*
X9982993Y10039376D01*
X10013840Y10043027D01*
X10019215Y10043344D01*
X10019204Y10043472D01*
X10024382Y10043900D01*
X10029584Y10043900D01*
X10040919Y10045787D01*
X10047243Y10046839D01*
X10053115Y10047674D01*
X10090374Y10052084D01*
X10090381Y10052086D01*
X10100722Y10053310D01*
X10108468Y10057030D01*
X10116942Y10058440D01*
X10159109Y10081192D01*
X10164396Y10083885D01*
X10200442Y10101195D01*
X10200445Y10101197D01*
X10207590Y10104628D01*
X10211600Y10107999D01*
X10213538Y10109937D01*
X10215189Y10111452D01*
X10215599Y10111673D01*
X10215637Y10111631D01*
X10215820Y10111792D01*
X10221274Y10114735D01*
X10241283Y10136380D01*
X10255532Y10151795D01*
X10258962Y10155361D01*
X11515433Y11411832D01*
X11531129Y11424509D01*
X11534225Y11427326D01*
X11542974Y11432975D01*
X11562207Y11457372D01*
X11565785Y11461399D01*
X11565687Y11461482D01*
X11569041Y11465440D01*
X11572720Y11469119D01*
X11574073Y11471013D01*
X11632672Y11509591D01*
X11703664Y11510373D01*
X11763809Y11472650D01*
X11794012Y11408398D01*
X11795500Y11389093D01*
X11795500Y11128469D01*
X11795162Y11119242D01*
X11786556Y11002051D01*
X11790641Y10981794D01*
X11793014Y10970023D01*
X11795500Y10945118D01*
X11795500Y10418166D01*
X11810502Y10323445D01*
X11815003Y10314611D01*
X11818068Y10305178D01*
X11815237Y10304258D01*
X11825398Y10250151D01*
X11798698Y10184366D01*
X11740670Y10143460D01*
X11676749Y10140720D01*
X11676555Y10139498D01*
X11670522Y10140454D01*
X11670520Y10140454D01*
X11581834Y10154500D01*
X11218166Y10154500D01*
X11123445Y10139498D01*
X11009277Y10081326D01*
X10918674Y9990723D01*
X10860502Y9876555D01*
X10858951Y9866762D01*
X10846275Y9786726D01*
X10845500Y9781834D01*
X10845500Y9776880D01*
X10845249Y9773688D01*
X10819966Y9707345D01*
X10780339Y9673155D01*
X10776182Y9670869D01*
X10771354Y9668215D01*
X10760698Y9662995D01*
X10756369Y9661122D01*
X10733087Y9651047D01*
X10720044Y9645403D01*
X10708030Y9635674D01*
X10689439Y9623182D01*
X10683600Y9619972D01*
X10675896Y9615737D01*
X10670902Y9611426D01*
X10670897Y9611423D01*
X10669762Y9610442D01*
X10667647Y9608617D01*
X10642646Y9583616D01*
X10632845Y9574791D01*
X10610621Y9556794D01*
X10600955Y9548967D01*
X10589785Y9533250D01*
X10576179Y9517149D01*
X10177492Y9118461D01*
X9805236Y8746205D01*
X9742923Y8712180D01*
X9716140Y8709300D01*
X9144039Y8709300D01*
X9075918Y8729302D01*
X9064061Y8738858D01*
X9063974Y8738974D01*
X9063154Y8739589D01*
X9005427Y8782852D01*
X8951199Y8823493D01*
X8942798Y8826643D01*
X8942795Y8826644D01*
X8864387Y8856037D01*
X8819236Y8872964D01*
X8759070Y8879500D01*
X8165930Y8879500D01*
X8105764Y8872964D01*
X8060613Y8856037D01*
X7982205Y8826644D01*
X7982202Y8826643D01*
X7973801Y8823493D01*
X7861026Y8738974D01*
X7776507Y8626199D01*
X7773357Y8617798D01*
X7773356Y8617795D01*
X7762552Y8588974D01*
X7727036Y8494236D01*
X7720500Y8434070D01*
X7720500Y7865930D01*
X7727036Y7805764D01*
X7736118Y7781539D01*
X7770819Y7688974D01*
X7776507Y7673801D01*
X7840580Y7588308D01*
X7861026Y7561026D01*
X7859027Y7559528D01*
X7886682Y7508883D01*
X7881617Y7438068D01*
X7839070Y7381232D01*
X7772550Y7356421D01*
X7763561Y7356100D01*
X7336439Y7356100D01*
X7268318Y7376102D01*
X7221825Y7429758D01*
X7211721Y7500032D01*
X7239423Y7560689D01*
X7238974Y7561026D01*
X7323493Y7673801D01*
X7329182Y7688974D01*
X7363882Y7781539D01*
X7372964Y7805764D01*
X7379500Y7865930D01*
X7379500Y8434070D01*
X7372964Y8494236D01*
X7337448Y8588974D01*
X7326644Y8617795D01*
X7326643Y8617798D01*
X7323493Y8626199D01*
X7238974Y8738974D01*
X7126199Y8823493D01*
X7117798Y8826643D01*
X7117795Y8826644D01*
X7039387Y8856037D01*
X6994236Y8872964D01*
X6934070Y8879500D01*
X6340930Y8879500D01*
X6280764Y8872964D01*
X6235613Y8856037D01*
X6157205Y8826644D01*
X6157202Y8826643D01*
X6148801Y8823493D01*
X6036026Y8738974D01*
X5951507Y8626199D01*
X5948357Y8617798D01*
X5948356Y8617795D01*
X5937552Y8588974D01*
X5902036Y8494236D01*
X5895500Y8434070D01*
X5895500Y7865930D01*
X5902036Y7805764D01*
X5911118Y7781539D01*
X5945819Y7688974D01*
X5951507Y7673801D01*
X6036026Y7561026D01*
X6148801Y7476507D01*
X6157202Y7473357D01*
X6157205Y7473356D01*
X6213615Y7452209D01*
X6270379Y7409567D01*
X6289763Y7370622D01*
X6290810Y7361778D01*
X6294530Y7354032D01*
X6295940Y7345558D01*
X6311690Y7316368D01*
X6318692Y7303391D01*
X6321385Y7298104D01*
X6338695Y7262058D01*
X6338697Y7262055D01*
X6342128Y7254910D01*
X6345499Y7250900D01*
X6347437Y7248962D01*
X6348952Y7247311D01*
X6349173Y7246901D01*
X6349131Y7246863D01*
X6349292Y7246681D01*
X6352235Y7241226D01*
X6389307Y7206956D01*
X6392844Y7203554D01*
X6598303Y6998095D01*
X6632329Y6935783D01*
X6627264Y6864968D01*
X6584717Y6808132D01*
X6518197Y6783321D01*
X6509208Y6783000D01*
X6391234Y6783000D01*
X6384718Y6782663D01*
X6290868Y6772925D01*
X6277472Y6770032D01*
X6126047Y6719512D01*
X6112885Y6713347D01*
X5977508Y6629574D01*
X5966110Y6620540D01*
X5853637Y6507871D01*
X5844625Y6496460D01*
X5761088Y6360937D01*
X5754944Y6347759D01*
X5704685Y6196234D01*
X5701819Y6182868D01*
X5692328Y6090230D01*
X5692000Y6083815D01*
X5692000Y6072115D01*
X4659300Y6072115D01*
X4659300Y9166141D01*
X4679302Y9234262D01*
X4696205Y9255236D01*
X5194764Y9753795D01*
X5257076Y9787821D01*
X5283859Y9790700D01*
X5921172Y9790700D01*
X5989293Y9770698D01*
X5996734Y9765529D01*
X6048801Y9726507D01*
X6057202Y9723357D01*
X6057205Y9723356D01*
X6135613Y9693963D01*
X6180764Y9677036D01*
X6240930Y9670500D01*
X6834070Y9670500D01*
X6894236Y9677036D01*
X6939387Y9693963D01*
X7017795Y9723356D01*
X7017798Y9723357D01*
X7026199Y9726507D01*
X7138974Y9811026D01*
X7223493Y9923801D01*
X7229711Y9940385D01*
X7268356Y10043472D01*
X7272964Y10055764D01*
X7279500Y10115930D01*
X7279500Y10684070D01*
X7272964Y10744236D01*
X7240140Y10831794D01*
X7226644Y10867795D01*
X7226643Y10867798D01*
X7223493Y10876199D01*
X7138974Y10988974D01*
X7026199Y11073493D01*
X7017798Y11076643D01*
X7017795Y11076644D01*
X6939387Y11106037D01*
X6894236Y11122964D01*
X6834070Y11129500D01*
X6240930Y11129500D01*
X6180764Y11122964D01*
X6135613Y11106037D01*
X6057205Y11076644D01*
X6057202Y11076643D01*
X6048801Y11073493D01*
X5936026Y10988974D01*
X5914113Y10959735D01*
X5857255Y10917220D01*
X5813287Y10909300D01*
X5435300Y10909300D01*
X5367179Y10929302D01*
X5320686Y10982958D01*
X5309300Y11035300D01*
X5309300Y11668349D01*
X5324617Y11728010D01*
X5327755Y11732376D01*
X5386842Y11879359D01*
X5395560Y11940615D01*
X5408581Y12032109D01*
X5408581Y12032112D01*
X5409162Y12036193D01*
X5409307Y12050000D01*
X5407903Y12061607D01*
X5401716Y12112726D01*
X5390276Y12207267D01*
X5334280Y12355454D01*
X5319016Y12377664D01*
X5248855Y12479749D01*
X5248854Y12479751D01*
X5244553Y12486008D01*
X5238037Y12491814D01*
X5172729Y12550000D01*
X5126275Y12591389D01*
X5118889Y12595300D01*
X4992988Y12661961D01*
X4992989Y12661961D01*
X4986274Y12665516D01*
X4832633Y12704108D01*
X4825034Y12704148D01*
X4825033Y12704148D01*
X4759181Y12704493D01*
X4674221Y12704938D01*
X4666841Y12703166D01*
X4666839Y12703166D01*
X4527563Y12669729D01*
X4527560Y12669728D01*
X4520184Y12667957D01*
X4379414Y12595300D01*
X4260039Y12491162D01*
X4168950Y12361556D01*
X4157894Y12333198D01*
X4116593Y12227266D01*
X4111406Y12213963D01*
X4110414Y12206430D01*
X4110414Y12206429D01*
X4091913Y12065895D01*
X4090729Y12056904D01*
X4098900Y11982898D01*
X4106549Y11913615D01*
X4108113Y11899447D01*
X4110723Y11892316D01*
X4110723Y11892314D01*
X4131643Y11835148D01*
X4162553Y11750681D01*
X4169282Y11740668D01*
X4170177Y11737729D01*
X4170238Y11737610D01*
X4170217Y11737599D01*
X4190700Y11670393D01*
X4190700Y10615159D01*
X4190589Y10609883D01*
X4187948Y10546871D01*
X4198064Y10503743D01*
X4200227Y10492070D01*
X4206239Y10448179D01*
X4209420Y10440827D01*
X4208477Y10370116D01*
X4177160Y10318129D01*
X3715259Y9856228D01*
X3711450Y9852575D01*
X3665001Y9809863D01*
X3646647Y9780261D01*
X3641659Y9772216D01*
X3634935Y9762433D01*
X3608149Y9727143D01*
X3602691Y9713358D01*
X3602458Y9712769D01*
X3592396Y9692763D01*
X3584251Y9679626D01*
X3581855Y9671378D01*
X3581852Y9671372D01*
X3571890Y9637085D01*
X3568046Y9625858D01*
X3556059Y9595581D01*
X3551738Y9584666D01*
X3550840Y9576121D01*
X3550123Y9569299D01*
X3545810Y9547313D01*
X3541498Y9532472D01*
X3540700Y9521605D01*
X3540700Y9486254D01*
X3540010Y9473083D01*
X3535720Y9432267D01*
X3537153Y9423795D01*
X3537153Y9423794D01*
X3538935Y9413260D01*
X3540700Y9392246D01*
X3540700Y6409000D01*
X3520698Y6340879D01*
X3467042Y6294386D01*
X3414700Y6283000D01*
X2872115Y6283000D01*
X2856876Y6278525D01*
X2855671Y6277135D01*
X2854000Y6269452D01*
X2854000Y2657115D01*
X2346000Y2657115D01*
X2346000Y4652885D01*
X2341525Y4668124D01*
X2340135Y4669329D01*
X2332452Y4671000D01*
X1260116Y4671000D01*
X1244877Y4666525D01*
X1243672Y4665135D01*
X1242001Y4657452D01*
X1242001Y4030331D01*
X254000Y4030331D01*
X254000Y5197115D01*
X1242000Y5197115D01*
X1246475Y5181876D01*
X1247865Y5180671D01*
X1255548Y5179000D01*
X2327885Y5179000D01*
X2343124Y5183475D01*
X2344329Y5184865D01*
X2346000Y5192548D01*
X2346000Y6264884D01*
X2341525Y6280123D01*
X2340135Y6281328D01*
X2332452Y6282999D01*
X1705331Y6282999D01*
X1698510Y6282629D01*
X1647648Y6277105D01*
X1632396Y6273479D01*
X1511946Y6228324D01*
X1496351Y6219786D01*
X1394276Y6143285D01*
X1381715Y6130724D01*
X1305214Y6028649D01*
X1296676Y6013054D01*
X1251522Y5892606D01*
X1247895Y5877351D01*
X1242369Y5826486D01*
X1242000Y5819672D01*
X1242000Y5197115D01*
X254000Y5197115D01*
X254000Y21151540D01*
X13442852Y21151540D01*
X13478593Y20971857D01*
X13481082Y20962882D01*
X13563708Y20732750D01*
X13567505Y20724222D01*
X13683234Y20508840D01*
X13688245Y20500973D01*
X13834550Y20305047D01*
X13840656Y20298023D01*
X14014316Y20125873D01*
X14021398Y20119824D01*
X14218586Y19975240D01*
X14226505Y19970292D01*
X14442877Y19856453D01*
X14451451Y19852725D01*
X14682282Y19772115D01*
X14691291Y19769701D01*
X14858201Y19738012D01*
X14871261Y19739296D01*
X14875506Y19752640D01*
X15384000Y19752640D01*
X15388171Y19738435D01*
X15400933Y19736380D01*
X15437487Y19740383D01*
X15446649Y19742081D01*
X15683107Y19804335D01*
X15691926Y19807372D01*
X15916584Y19903893D01*
X15924856Y19908200D01*
X16132777Y20036865D01*
X16140317Y20042343D01*
X16326943Y20200332D01*
X16333593Y20206868D01*
X16494813Y20390705D01*
X16500420Y20398146D01*
X16632700Y20603798D01*
X16637147Y20611989D01*
X16737572Y20834924D01*
X16740767Y20843702D01*
X16807135Y21079027D01*
X16808993Y21088156D01*
X16817246Y21153031D01*
X16814958Y21167292D01*
X16801938Y21171000D01*
X15402115Y21171000D01*
X15386876Y21166525D01*
X15385671Y21165135D01*
X15384000Y21157452D01*
X15384000Y19752640D01*
X14875506Y19752640D01*
X14876000Y19754192D01*
X14876000Y21152885D01*
X14871525Y21168124D01*
X14870135Y21169329D01*
X14862452Y21171000D01*
X13457096Y21171000D01*
X13444695Y21167359D01*
X13442852Y21151540D01*
X254000Y21151540D01*
X254000Y21697024D01*
X13440675Y21697024D01*
X13443435Y21682297D01*
X13455614Y21679000D01*
X14857885Y21679000D01*
X14873124Y21683475D01*
X14874329Y21684865D01*
X14876000Y21692548D01*
X14876000Y21697115D01*
X15384000Y21697115D01*
X15388475Y21681876D01*
X15389865Y21680671D01*
X15397548Y21679000D01*
X16805671Y21679000D01*
X16819202Y21682973D01*
X16820634Y21692932D01*
X16768979Y21921214D01*
X16766255Y21930125D01*
X16677633Y22158017D01*
X16673619Y22166433D01*
X16552286Y22378719D01*
X16547070Y22386452D01*
X16395692Y22578475D01*
X16389399Y22585343D01*
X16211294Y22752888D01*
X16204060Y22758746D01*
X16003141Y22898128D01*
X15995115Y22902856D01*
X15775810Y23011005D01*
X15767177Y23014493D01*
X15534288Y23089042D01*
X15525238Y23091215D01*
X15401880Y23111304D01*
X15388286Y23109607D01*
X15384000Y23095500D01*
X15384000Y21697115D01*
X14876000Y21697115D01*
X14876000Y23096141D01*
X14871982Y23109825D01*
X14858290Y23111846D01*
X14778521Y23100990D01*
X14769403Y23099052D01*
X14534668Y23030633D01*
X14525915Y23027361D01*
X14303869Y22924996D01*
X14295714Y22920476D01*
X14091233Y22786413D01*
X14083828Y22780730D01*
X13901413Y22617918D01*
X13894935Y22611210D01*
X13738584Y22423219D01*
X13733163Y22415619D01*
X13606322Y22206591D01*
X13602084Y22198274D01*
X13507529Y21972786D01*
X13504572Y21963948D01*
X13444382Y21726952D01*
X13442764Y21717772D01*
X13440675Y21697024D01*
X254000Y21697024D01*
X254000Y25873071D01*
X274002Y25941192D01*
X327658Y25987685D01*
X393608Y25998334D01*
X448514Y25992369D01*
X455328Y25992000D01*
X2327885Y25992000D01*
X2343124Y25996475D01*
X2344329Y25997865D01*
X2346000Y26005548D01*
X2346000Y26010116D01*
X2854000Y26010116D01*
X2858475Y25994877D01*
X2859865Y25993672D01*
X2867548Y25992001D01*
X4744669Y25992001D01*
X4751490Y25992371D01*
X4802352Y25997895D01*
X4817604Y26001521D01*
X4938054Y26046676D01*
X4953649Y26055214D01*
X5055724Y26131715D01*
X5068285Y26144276D01*
X5144786Y26246351D01*
X5153324Y26261946D01*
X5198478Y26382394D01*
X5202105Y26397649D01*
X5207631Y26448514D01*
X5208000Y26455328D01*
X5208000Y26902885D01*
X5203525Y26918124D01*
X5202135Y26919329D01*
X5194452Y26921000D01*
X2872115Y26921000D01*
X2856876Y26916525D01*
X2855671Y26915135D01*
X2854000Y26907452D01*
X2854000Y26010116D01*
X2346000Y26010116D01*
X2346000Y27447115D01*
X2854000Y27447115D01*
X2858475Y27431876D01*
X2859865Y27430671D01*
X2867548Y27429000D01*
X5189884Y27429000D01*
X5205123Y27433475D01*
X5206328Y27434865D01*
X5207999Y27442548D01*
X5207999Y27894669D01*
X5207629Y27901490D01*
X5202105Y27952352D01*
X5198479Y27967604D01*
X5153324Y28088054D01*
X5144786Y28103649D01*
X5068285Y28205724D01*
X5055724Y28218285D01*
X4953649Y28294786D01*
X4938054Y28303324D01*
X4817606Y28348478D01*
X4802351Y28352105D01*
X4751486Y28357631D01*
X4744672Y28358000D01*
X2872115Y28358000D01*
X2856876Y28353525D01*
X2855671Y28352135D01*
X2854000Y28344452D01*
X2854000Y27447115D01*
X2346000Y27447115D01*
X2346000Y28339884D01*
X2341525Y28355123D01*
X2340135Y28356328D01*
X2332452Y28357999D01*
X455331Y28357999D01*
X448510Y28357629D01*
X393605Y28351666D01*
X323723Y28364195D01*
X271708Y28412517D01*
X254000Y28476929D01*
X254000Y29003207D01*
X6441264Y29003207D01*
X6441561Y28998054D01*
X6441561Y28998051D01*
X6452482Y28808650D01*
X6454085Y28780844D01*
X6455222Y28775798D01*
X6455223Y28775792D01*
X6479222Y28669302D01*
X6503052Y28563561D01*
X6504994Y28558779D01*
X6504995Y28558775D01*
X6564384Y28412517D01*
X6586849Y28357193D01*
X6703226Y28167283D01*
X6849058Y27998930D01*
X7020428Y27856656D01*
X7212734Y27744282D01*
X7217559Y27742440D01*
X7217560Y27742439D01*
X7234354Y27736026D01*
X7420811Y27664825D01*
X7425879Y27663794D01*
X7425882Y27663793D01*
X7531185Y27642369D01*
X7639072Y27620419D01*
X7644247Y27620229D01*
X7644249Y27620229D01*
X7856491Y27612446D01*
X7856495Y27612446D01*
X7861655Y27612257D01*
X7866775Y27612913D01*
X7866777Y27612913D01*
X7975990Y27626904D01*
X8082582Y27640559D01*
X8087531Y27642044D01*
X8087537Y27642045D01*
X8290969Y27703078D01*
X8290968Y27703078D01*
X8295919Y27704563D01*
X8495939Y27802552D01*
X8500144Y27805552D01*
X8500150Y27805555D01*
X8673065Y27928894D01*
X8673067Y27928896D01*
X8677269Y27931893D01*
X8835039Y28089113D01*
X8850001Y28109934D01*
X8961994Y28265790D01*
X8965012Y28269990D01*
X8999874Y28340528D01*
X9047986Y28392734D01*
X9112830Y28410700D01*
X10290539Y28410700D01*
X10358660Y28390698D01*
X10405153Y28337042D01*
X10415257Y28266768D01*
X10385763Y28202188D01*
X10379635Y28195605D01*
X9640248Y27456217D01*
X9636438Y27452564D01*
X9590001Y27409863D01*
X9566723Y27372320D01*
X9566659Y27372216D01*
X9559935Y27362433D01*
X9533149Y27327143D01*
X9527673Y27313313D01*
X9527458Y27312769D01*
X9517396Y27292763D01*
X9509251Y27279626D01*
X9506855Y27271378D01*
X9506852Y27271372D01*
X9496890Y27237085D01*
X9493046Y27225858D01*
X9488567Y27214544D01*
X9476738Y27184666D01*
X9475840Y27176121D01*
X9475123Y27169299D01*
X9470810Y27147313D01*
X9466498Y27132472D01*
X9465700Y27121605D01*
X9465700Y27086254D01*
X9465010Y27073083D01*
X9460720Y27032267D01*
X9462153Y27023795D01*
X9462153Y27023794D01*
X9463935Y27013260D01*
X9465700Y26992246D01*
X9465700Y24868386D01*
X9445698Y24800265D01*
X9402701Y24759267D01*
X9400341Y24757905D01*
X9395354Y24755579D01*
X9390847Y24752423D01*
X9390845Y24752422D01*
X9220054Y24632833D01*
X9220051Y24632831D01*
X9215543Y24629674D01*
X9060326Y24474457D01*
X9057169Y24469949D01*
X9057167Y24469946D01*
X8969431Y24344646D01*
X8934421Y24294646D01*
X8932098Y24289664D01*
X8932095Y24289659D01*
X8885104Y24188884D01*
X8841653Y24095703D01*
X8784839Y23883674D01*
X8765708Y23665000D01*
X8784839Y23446326D01*
X8841653Y23234297D01*
X8843978Y23229312D01*
X8932095Y23040341D01*
X8932098Y23040336D01*
X8934421Y23035354D01*
X8937577Y23030847D01*
X8937578Y23030845D01*
X9044596Y22878008D01*
X9060326Y22855543D01*
X9215543Y22700326D01*
X9220051Y22697169D01*
X9220054Y22697167D01*
X9389564Y22578475D01*
X9395354Y22574421D01*
X9400336Y22572098D01*
X9400341Y22572095D01*
X9501116Y22525104D01*
X9594297Y22481653D01*
X9806326Y22424839D01*
X10025000Y22405708D01*
X10243674Y22424839D01*
X10455703Y22481653D01*
X10548884Y22525104D01*
X10649659Y22572095D01*
X10649664Y22572098D01*
X10654646Y22574421D01*
X10660436Y22578475D01*
X10829946Y22697167D01*
X10829949Y22697169D01*
X10834457Y22700326D01*
X10989674Y22855543D01*
X11005405Y22878008D01*
X11112422Y23030845D01*
X11112423Y23030847D01*
X11115579Y23035354D01*
X11117902Y23040336D01*
X11117905Y23040341D01*
X11206022Y23229312D01*
X11208347Y23234297D01*
X11265161Y23446326D01*
X11284292Y23665000D01*
X11279918Y23715000D01*
X21715708Y23715000D01*
X21734839Y23496326D01*
X21791653Y23284297D01*
X21793978Y23279312D01*
X21882095Y23090341D01*
X21882098Y23090336D01*
X21884421Y23085354D01*
X21887577Y23080847D01*
X21887578Y23080845D01*
X21999870Y22920476D01*
X22010326Y22905543D01*
X22165543Y22750326D01*
X22170051Y22747169D01*
X22170054Y22747167D01*
X22340845Y22627578D01*
X22345354Y22624421D01*
X22350336Y22622098D01*
X22350341Y22622095D01*
X22443886Y22578475D01*
X22544297Y22531653D01*
X22756326Y22474839D01*
X22975000Y22455708D01*
X23193674Y22474839D01*
X23405703Y22531653D01*
X23506114Y22578475D01*
X23599659Y22622095D01*
X23599664Y22622098D01*
X23604646Y22624421D01*
X23609155Y22627578D01*
X23779946Y22747167D01*
X23779949Y22747169D01*
X23784457Y22750326D01*
X23939674Y22905543D01*
X23950131Y22920476D01*
X24062422Y23080845D01*
X24062423Y23080847D01*
X24065579Y23085354D01*
X24067902Y23090336D01*
X24067905Y23090341D01*
X24156022Y23279312D01*
X24158347Y23284297D01*
X24215161Y23496326D01*
X24234292Y23715000D01*
X24215161Y23933674D01*
X24158347Y24145703D01*
X24091220Y24289659D01*
X24067905Y24339659D01*
X24067902Y24339664D01*
X24065579Y24344646D01*
X23977843Y24469946D01*
X23942833Y24519946D01*
X23942831Y24519949D01*
X23939674Y24524457D01*
X23784457Y24679674D01*
X23779949Y24682831D01*
X23779946Y24682833D01*
X23609155Y24802422D01*
X23609153Y24802423D01*
X23604646Y24805579D01*
X23599664Y24807902D01*
X23599659Y24807905D01*
X23469955Y24868386D01*
X23405703Y24898347D01*
X23193674Y24955161D01*
X22975000Y24974292D01*
X22756326Y24955161D01*
X22544297Y24898347D01*
X22480045Y24868386D01*
X22350341Y24807905D01*
X22350336Y24807902D01*
X22345354Y24805579D01*
X22340847Y24802423D01*
X22340845Y24802422D01*
X22170054Y24682833D01*
X22170051Y24682831D01*
X22165543Y24679674D01*
X22010326Y24524457D01*
X22007169Y24519949D01*
X22007167Y24519946D01*
X21972157Y24469946D01*
X21884421Y24344646D01*
X21882098Y24339664D01*
X21882095Y24339659D01*
X21858780Y24289659D01*
X21791653Y24145703D01*
X21734839Y23933674D01*
X21715708Y23715000D01*
X11279918Y23715000D01*
X11265161Y23883674D01*
X11208347Y24095703D01*
X11164896Y24188884D01*
X11117905Y24289659D01*
X11117902Y24289664D01*
X11115579Y24294646D01*
X11080569Y24344646D01*
X10992833Y24469946D01*
X10992831Y24469949D01*
X10989674Y24474457D01*
X10834457Y24629674D01*
X10829949Y24632831D01*
X10829946Y24632833D01*
X10659155Y24752422D01*
X10659153Y24752423D01*
X10654646Y24755579D01*
X10649659Y24757905D01*
X10647299Y24759267D01*
X10598306Y24810650D01*
X10584300Y24868386D01*
X10584300Y26766140D01*
X10604302Y26834261D01*
X10621205Y26855236D01*
X10961300Y27195331D01*
X17342001Y27195331D01*
X17342371Y27188510D01*
X17347895Y27137648D01*
X17351521Y27122396D01*
X17396676Y27001946D01*
X17405214Y26986351D01*
X17481715Y26884276D01*
X17494276Y26871715D01*
X17596351Y26795214D01*
X17611946Y26786676D01*
X17732394Y26741522D01*
X17747649Y26737895D01*
X17798514Y26732369D01*
X17805328Y26732000D01*
X18377885Y26732000D01*
X18393124Y26736475D01*
X18394329Y26737865D01*
X18396000Y26745548D01*
X18396000Y26750116D01*
X18904000Y26750116D01*
X18908475Y26734877D01*
X18909865Y26733672D01*
X18917548Y26732001D01*
X19494669Y26732001D01*
X19501490Y26732371D01*
X19552352Y26737895D01*
X19567604Y26741521D01*
X19688054Y26786676D01*
X19703649Y26795214D01*
X19805724Y26871715D01*
X19818285Y26884276D01*
X19894786Y26986351D01*
X19903324Y27001946D01*
X19948478Y27122394D01*
X19952105Y27137649D01*
X19957631Y27188514D01*
X19958000Y27195328D01*
X19958000Y27767885D01*
X19953525Y27783124D01*
X19952135Y27784329D01*
X19944452Y27786000D01*
X18922115Y27786000D01*
X18906876Y27781525D01*
X18905671Y27780135D01*
X18904000Y27772452D01*
X18904000Y26750116D01*
X18396000Y26750116D01*
X18396000Y27767885D01*
X18391525Y27783124D01*
X18390135Y27784329D01*
X18382452Y27786000D01*
X17360116Y27786000D01*
X17344877Y27781525D01*
X17343672Y27780135D01*
X17342001Y27772452D01*
X17342001Y27195331D01*
X10961300Y27195331D01*
X11389569Y27623599D01*
X11451881Y27657624D01*
X11493582Y27659617D01*
X11652809Y27640630D01*
X11658944Y27641102D01*
X11658946Y27641102D01*
X11852856Y27656023D01*
X11852860Y27656024D01*
X11858998Y27656496D01*
X12058178Y27712108D01*
X12063682Y27714888D01*
X12063684Y27714889D01*
X12237262Y27802569D01*
X12237264Y27802570D01*
X12242763Y27805348D01*
X12405722Y27932666D01*
X12409748Y27937330D01*
X12409751Y27937333D01*
X12536816Y28084540D01*
X12540176Y28088433D01*
X12540179Y28088435D01*
X12540848Y28089211D01*
X12540995Y28089084D01*
X12594392Y28131464D01*
X12641745Y28140700D01*
X14161776Y28140700D01*
X14229897Y28120698D01*
X14260521Y28092965D01*
X14267196Y28084543D01*
X14362786Y27963939D01*
X14367479Y27959945D01*
X14367480Y27959944D01*
X14387244Y27943124D01*
X14520271Y27829909D01*
X14700789Y27729020D01*
X14897466Y27665116D01*
X15102809Y27640630D01*
X15108944Y27641102D01*
X15108946Y27641102D01*
X15302856Y27656023D01*
X15302860Y27656024D01*
X15308998Y27656496D01*
X15508178Y27712108D01*
X15513682Y27714888D01*
X15513684Y27714889D01*
X15687262Y27802569D01*
X15687264Y27802570D01*
X15692763Y27805348D01*
X15855722Y27932666D01*
X15859748Y27937330D01*
X15859751Y27937333D01*
X15986819Y28084543D01*
X15986820Y28084545D01*
X15990848Y28089211D01*
X15999701Y28104794D01*
X20790501Y28104794D01*
X20791494Y28092965D01*
X20806514Y27914113D01*
X20807806Y27898722D01*
X20864807Y27699934D01*
X20867625Y27694452D01*
X20867626Y27694448D01*
X20956514Y27521491D01*
X20956517Y27521487D01*
X20959334Y27516005D01*
X21087786Y27353939D01*
X21092479Y27349945D01*
X21092480Y27349944D01*
X21231787Y27231385D01*
X21245271Y27219909D01*
X21425789Y27119020D01*
X21622466Y27055116D01*
X21827809Y27030630D01*
X21833944Y27031102D01*
X21833946Y27031102D01*
X22027856Y27046023D01*
X22027860Y27046024D01*
X22033998Y27046496D01*
X22233178Y27102108D01*
X22238682Y27104888D01*
X22238684Y27104889D01*
X22412262Y27192569D01*
X22412264Y27192570D01*
X22417763Y27195348D01*
X22580722Y27322666D01*
X22584748Y27327330D01*
X22584751Y27327333D01*
X22703497Y27464902D01*
X22715176Y27478433D01*
X22715179Y27478435D01*
X22715848Y27479211D01*
X22715995Y27479084D01*
X22769392Y27521464D01*
X22816745Y27530700D01*
X24899841Y27530700D01*
X24905118Y27530589D01*
X24968129Y27527948D01*
X25011265Y27538065D01*
X25022931Y27540227D01*
X25066821Y27546239D01*
X25075706Y27550084D01*
X25081009Y27552378D01*
X25102274Y27559411D01*
X25117320Y27562940D01*
X25124842Y27567075D01*
X25124849Y27567078D01*
X25156146Y27584284D01*
X25166802Y27589505D01*
X25188377Y27598841D01*
X25199567Y27603683D01*
X25199568Y27603684D01*
X25207456Y27607097D01*
X25219470Y27616826D01*
X25238061Y27629318D01*
X25240312Y27630555D01*
X25251604Y27636763D01*
X25259852Y27643883D01*
X25284849Y27668880D01*
X25294650Y27677705D01*
X25319868Y27698126D01*
X25326545Y27703533D01*
X25331520Y27710533D01*
X25337404Y27716799D01*
X25339217Y27715096D01*
X25384865Y27751061D01*
X25446718Y27759243D01*
X25602809Y27740630D01*
X25608944Y27741102D01*
X25608946Y27741102D01*
X25802857Y27756023D01*
X25802862Y27756024D01*
X25808998Y27756496D01*
X25814928Y27758152D01*
X25814930Y27758152D01*
X25910383Y27784803D01*
X25957430Y27788755D01*
X25968205Y27787623D01*
X25990187Y27783310D01*
X26005028Y27778998D01*
X26011605Y27778515D01*
X26013588Y27778369D01*
X26013599Y27778369D01*
X26015895Y27778200D01*
X26051246Y27778200D01*
X26064417Y27777510D01*
X26105233Y27773220D01*
X26113705Y27774653D01*
X26113706Y27774653D01*
X26124241Y27776435D01*
X26145254Y27778200D01*
X28393461Y27778200D01*
X28461582Y27758198D01*
X28481347Y27742269D01*
X28486026Y27736026D01*
X28598801Y27651507D01*
X28607202Y27648357D01*
X28607205Y27648356D01*
X28685613Y27618963D01*
X28730764Y27602036D01*
X28790930Y27595500D01*
X29359070Y27595500D01*
X29419236Y27602036D01*
X29464387Y27618963D01*
X29542795Y27648356D01*
X29542798Y27648357D01*
X29551199Y27651507D01*
X29663974Y27736026D01*
X29748493Y27848801D01*
X29764987Y27892797D01*
X29790159Y27959944D01*
X29797964Y27980764D01*
X29804500Y28040930D01*
X29804500Y28634070D01*
X29797964Y28694236D01*
X29765496Y28780844D01*
X29751644Y28817795D01*
X29751643Y28817798D01*
X29748493Y28826199D01*
X29663974Y28938974D01*
X29551199Y29023493D01*
X29542798Y29026643D01*
X29542795Y29026644D01*
X29464387Y29056037D01*
X29419236Y29072964D01*
X29359070Y29079500D01*
X28790930Y29079500D01*
X28730764Y29072964D01*
X28685613Y29056037D01*
X28607205Y29026644D01*
X28607202Y29026643D01*
X28598801Y29023493D01*
X28486026Y28938974D01*
X28481745Y28933262D01*
X28420244Y28899679D01*
X28393461Y28896800D01*
X26788892Y28896800D01*
X26720771Y28916802D01*
X26674278Y28970458D01*
X26665293Y28998321D01*
X26665022Y28999687D01*
X26664422Y29005811D01*
X26661895Y29014183D01*
X26606432Y29197884D01*
X26604651Y29203783D01*
X26535173Y29334452D01*
X26510459Y29380933D01*
X26510457Y29380936D01*
X26507565Y29386375D01*
X26503674Y29391145D01*
X26503672Y29391149D01*
X26380758Y29541857D01*
X26380755Y29541860D01*
X26376863Y29546632D01*
X26372114Y29550561D01*
X26222271Y29674522D01*
X26222266Y29674525D01*
X26217522Y29678450D01*
X26212103Y29681380D01*
X26212100Y29681382D01*
X26041032Y29773878D01*
X26041027Y29773880D01*
X26035612Y29776808D01*
X25838063Y29837960D01*
X25831938Y29838604D01*
X25831937Y29838604D01*
X25638526Y29858932D01*
X25638524Y29858932D01*
X25632397Y29859576D01*
X25506229Y29848094D01*
X25432591Y29841393D01*
X25432590Y29841393D01*
X25426450Y29840834D01*
X25228066Y29782446D01*
X25222601Y29779589D01*
X25050261Y29689492D01*
X25050257Y29689489D01*
X25044801Y29686637D01*
X24883635Y29557057D01*
X24750708Y29398640D01*
X24651082Y29217422D01*
X24588553Y29020304D01*
X24587867Y29014187D01*
X24587866Y29014183D01*
X24566780Y28826199D01*
X24565501Y28814794D01*
X24566017Y28808650D01*
X24567932Y28785843D01*
X24553700Y28716288D01*
X24504123Y28665468D01*
X24442374Y28649300D01*
X22814476Y28649300D01*
X22746355Y28669302D01*
X22716833Y28695665D01*
X22605762Y28831852D01*
X22605759Y28831855D01*
X22601863Y28836632D01*
X22594966Y28842338D01*
X22447271Y28964522D01*
X22447266Y28964525D01*
X22442522Y28968450D01*
X22437103Y28971380D01*
X22437100Y28971382D01*
X22266032Y29063878D01*
X22266027Y29063880D01*
X22260612Y29066808D01*
X22063063Y29127960D01*
X22056938Y29128604D01*
X22056937Y29128604D01*
X21863526Y29148932D01*
X21863524Y29148932D01*
X21857397Y29149576D01*
X21731229Y29138094D01*
X21657591Y29131393D01*
X21657590Y29131393D01*
X21651450Y29130834D01*
X21453066Y29072446D01*
X21447601Y29069589D01*
X21275261Y28979492D01*
X21275257Y28979489D01*
X21269801Y28976637D01*
X21108635Y28847057D01*
X20975708Y28688640D01*
X20876082Y28507422D01*
X20813553Y28310304D01*
X20812867Y28304187D01*
X20812866Y28304183D01*
X20793080Y28127789D01*
X20790501Y28104794D01*
X15999701Y28104794D01*
X16041922Y28179116D01*
X16089950Y28263660D01*
X16089952Y28263664D01*
X16092995Y28269021D01*
X16107330Y28312115D01*
X17342000Y28312115D01*
X17346475Y28296876D01*
X17347865Y28295671D01*
X17355548Y28294000D01*
X18377885Y28294000D01*
X18393124Y28298475D01*
X18394329Y28299865D01*
X18396000Y28307548D01*
X18396000Y28312115D01*
X18904000Y28312115D01*
X18908475Y28296876D01*
X18909865Y28295671D01*
X18917548Y28294000D01*
X19939884Y28294000D01*
X19955123Y28298475D01*
X19956328Y28299865D01*
X19957999Y28307548D01*
X19957999Y28884669D01*
X19957629Y28891490D01*
X19952105Y28942352D01*
X19948479Y28957604D01*
X19903324Y29078054D01*
X19894786Y29093649D01*
X19818285Y29195724D01*
X19805724Y29208285D01*
X19703649Y29284786D01*
X19688054Y29293324D01*
X19567606Y29338478D01*
X19552351Y29342105D01*
X19501486Y29347631D01*
X19494672Y29348000D01*
X18922115Y29348000D01*
X18906876Y29343525D01*
X18905671Y29342135D01*
X18904000Y29334452D01*
X18904000Y28312115D01*
X18396000Y28312115D01*
X18396000Y29329884D01*
X18391525Y29345123D01*
X18390135Y29346328D01*
X18382452Y29347999D01*
X17805331Y29347999D01*
X17798510Y29347629D01*
X17747648Y29342105D01*
X17732396Y29338479D01*
X17611946Y29293324D01*
X17596351Y29284786D01*
X17494276Y29208285D01*
X17481715Y29195724D01*
X17405214Y29093649D01*
X17396676Y29078054D01*
X17351522Y28957606D01*
X17347895Y28942351D01*
X17342369Y28891486D01*
X17342000Y28884672D01*
X17342000Y28312115D01*
X16107330Y28312115D01*
X16134148Y28392734D01*
X16156325Y28459399D01*
X16156326Y28459402D01*
X16158270Y28465247D01*
X16184189Y28670414D01*
X16184602Y28700000D01*
X16164422Y28905811D01*
X16104651Y29103783D01*
X16049086Y29208285D01*
X16010459Y29280933D01*
X16010457Y29280936D01*
X16007565Y29286375D01*
X16003674Y29291145D01*
X16003672Y29291149D01*
X15880758Y29441857D01*
X15880755Y29441860D01*
X15876863Y29446632D01*
X15869966Y29452338D01*
X15722271Y29574522D01*
X15722266Y29574525D01*
X15717522Y29578450D01*
X15712103Y29581380D01*
X15712100Y29581382D01*
X15541032Y29673878D01*
X15541027Y29673880D01*
X15535612Y29676808D01*
X15338063Y29737960D01*
X15331938Y29738604D01*
X15331937Y29738604D01*
X15138526Y29758932D01*
X15138524Y29758932D01*
X15132397Y29759576D01*
X15006229Y29748094D01*
X14932591Y29741393D01*
X14932590Y29741393D01*
X14926450Y29740834D01*
X14728066Y29682446D01*
X14722601Y29679589D01*
X14550261Y29589492D01*
X14550257Y29589489D01*
X14544801Y29586637D01*
X14540001Y29582777D01*
X14540000Y29582777D01*
X14512947Y29561026D01*
X14383635Y29457057D01*
X14268452Y29319786D01*
X14255465Y29304309D01*
X14196355Y29264982D01*
X14158943Y29259300D01*
X12639476Y29259300D01*
X12571355Y29279302D01*
X12541833Y29305665D01*
X12430762Y29441852D01*
X12430757Y29441857D01*
X12426863Y29446632D01*
X12419966Y29452338D01*
X12272271Y29574522D01*
X12272266Y29574525D01*
X12267522Y29578450D01*
X12262103Y29581380D01*
X12262100Y29581382D01*
X12091032Y29673878D01*
X12091027Y29673880D01*
X12085612Y29676808D01*
X11888063Y29737960D01*
X11881938Y29738604D01*
X11881937Y29738604D01*
X11688526Y29758932D01*
X11688524Y29758932D01*
X11682397Y29759576D01*
X11556229Y29748094D01*
X11482591Y29741393D01*
X11482590Y29741393D01*
X11476450Y29740834D01*
X11278066Y29682446D01*
X11272601Y29679589D01*
X11100261Y29589492D01*
X11100257Y29589489D01*
X11094801Y29586637D01*
X11090001Y29582777D01*
X11090000Y29582777D01*
X11058068Y29557103D01*
X10992445Y29530007D01*
X10979116Y29529300D01*
X9116500Y29529300D01*
X9048379Y29549302D01*
X9002600Y29603116D01*
X9002321Y29602966D01*
X9001628Y29604258D01*
X9000952Y29605053D01*
X8997817Y29612264D01*
X8917679Y29736138D01*
X8879645Y29794930D01*
X8879640Y29794936D01*
X8876834Y29799274D01*
X8863781Y29813620D01*
X8816183Y29865930D01*
X28345500Y29865930D01*
X28352036Y29805764D01*
X28354810Y29798365D01*
X28395625Y29689492D01*
X28401507Y29673801D01*
X28486026Y29561026D01*
X28598801Y29476507D01*
X28607202Y29473357D01*
X28607205Y29473356D01*
X28655973Y29455074D01*
X28730764Y29427036D01*
X28790930Y29420500D01*
X29359070Y29420500D01*
X29419236Y29427036D01*
X29494027Y29455074D01*
X29542795Y29473356D01*
X29542798Y29473357D01*
X29551199Y29476507D01*
X29663974Y29561026D01*
X29668255Y29566738D01*
X29729756Y29600321D01*
X29756539Y29603200D01*
X30798641Y29603200D01*
X30866762Y29583198D01*
X30887736Y29566295D01*
X31125811Y29328220D01*
X31159837Y29265908D01*
X31158133Y29205455D01*
X31114932Y29049678D01*
X31091264Y28828207D01*
X31091561Y28823054D01*
X31091561Y28823051D01*
X31102655Y28630653D01*
X31104085Y28605844D01*
X31105222Y28600798D01*
X31105223Y28600792D01*
X31113614Y28563561D01*
X31153052Y28388561D01*
X31154994Y28383779D01*
X31154995Y28383775D01*
X31222417Y28217734D01*
X31236849Y28182193D01*
X31294983Y28087327D01*
X31346759Y28002837D01*
X31353226Y27992283D01*
X31499058Y27823930D01*
X31670428Y27681656D01*
X31862734Y27569282D01*
X31867559Y27567440D01*
X31867560Y27567439D01*
X31926128Y27545074D01*
X32070811Y27489825D01*
X32075879Y27488794D01*
X32075882Y27488793D01*
X32146317Y27474463D01*
X32289072Y27445419D01*
X32294247Y27445229D01*
X32294249Y27445229D01*
X32506491Y27437446D01*
X32506495Y27437446D01*
X32511655Y27437257D01*
X32516775Y27437913D01*
X32516777Y27437913D01*
X32634436Y27452986D01*
X32732582Y27465559D01*
X32737531Y27467044D01*
X32737537Y27467045D01*
X32940969Y27528078D01*
X32940968Y27528078D01*
X32945919Y27529563D01*
X33145939Y27627552D01*
X33150144Y27630552D01*
X33150150Y27630555D01*
X33323065Y27753894D01*
X33323067Y27753896D01*
X33327269Y27756893D01*
X33485039Y27914113D01*
X33495645Y27928872D01*
X33611994Y28090790D01*
X33615012Y28094990D01*
X33649874Y28165528D01*
X33697986Y28217734D01*
X33762830Y28235700D01*
X35509991Y28235700D01*
X35578112Y28215698D01*
X35626734Y28157103D01*
X35636849Y28132193D01*
X35753226Y27942283D01*
X35899058Y27773930D01*
X36040508Y27656496D01*
X36064277Y27636763D01*
X36070428Y27631656D01*
X36262734Y27519282D01*
X36267559Y27517440D01*
X36267560Y27517439D01*
X36281521Y27512108D01*
X36470811Y27439825D01*
X36475879Y27438794D01*
X36475882Y27438793D01*
X36582778Y27417045D01*
X36689072Y27395419D01*
X36694247Y27395229D01*
X36694249Y27395229D01*
X36906491Y27387446D01*
X36906495Y27387446D01*
X36911655Y27387257D01*
X36916775Y27387913D01*
X36916777Y27387913D01*
X37127454Y27414902D01*
X37127455Y27414902D01*
X37132582Y27415559D01*
X37137533Y27417044D01*
X37137536Y27417045D01*
X37257334Y27452986D01*
X37328329Y27453402D01*
X37382636Y27421395D01*
X37828795Y26975236D01*
X37862821Y26912924D01*
X37865700Y26886141D01*
X37865700Y24918386D01*
X37845698Y24850265D01*
X37802701Y24809267D01*
X37800341Y24807905D01*
X37795354Y24805579D01*
X37790847Y24802423D01*
X37790845Y24802422D01*
X37620054Y24682833D01*
X37620051Y24682831D01*
X37615543Y24679674D01*
X37460326Y24524457D01*
X37457169Y24519949D01*
X37457167Y24519946D01*
X37422157Y24469946D01*
X37334421Y24344646D01*
X37332098Y24339664D01*
X37332095Y24339659D01*
X37308780Y24289659D01*
X37241653Y24145703D01*
X37184839Y23933674D01*
X37165708Y23715000D01*
X37184839Y23496326D01*
X37241653Y23284297D01*
X37243978Y23279312D01*
X37332095Y23090341D01*
X37332098Y23090336D01*
X37334421Y23085354D01*
X37337577Y23080847D01*
X37337578Y23080845D01*
X37449870Y22920476D01*
X37460326Y22905543D01*
X37615543Y22750326D01*
X37620051Y22747169D01*
X37620054Y22747167D01*
X37790845Y22627578D01*
X37795354Y22624421D01*
X37800336Y22622098D01*
X37800341Y22622095D01*
X37893886Y22578475D01*
X37994297Y22531653D01*
X38206326Y22474839D01*
X38425000Y22455708D01*
X38643674Y22474839D01*
X38855703Y22531653D01*
X38956114Y22578475D01*
X39049659Y22622095D01*
X39049664Y22622098D01*
X39054646Y22624421D01*
X39059155Y22627578D01*
X39229946Y22747167D01*
X39229949Y22747169D01*
X39234457Y22750326D01*
X39389674Y22905543D01*
X39400131Y22920476D01*
X39512422Y23080845D01*
X39512423Y23080847D01*
X39515579Y23085354D01*
X39517902Y23090336D01*
X39517905Y23090341D01*
X39606022Y23279312D01*
X39608347Y23284297D01*
X39665161Y23496326D01*
X39684292Y23715000D01*
X39665161Y23933674D01*
X39608347Y24145703D01*
X39541220Y24289659D01*
X39517905Y24339659D01*
X39517902Y24339664D01*
X39515579Y24344646D01*
X39427843Y24469946D01*
X39392833Y24519946D01*
X39392831Y24519949D01*
X39389674Y24524457D01*
X39234457Y24679674D01*
X39229949Y24682831D01*
X39229946Y24682833D01*
X39059155Y24802422D01*
X39059153Y24802423D01*
X39054646Y24805579D01*
X39049659Y24807905D01*
X39047299Y24809267D01*
X38998306Y24860650D01*
X38984300Y24918386D01*
X38984300Y27154841D01*
X38984411Y27160117D01*
X38986692Y27214544D01*
X38987052Y27223129D01*
X38976935Y27266265D01*
X38974774Y27277926D01*
X38969927Y27313313D01*
X38969926Y27313316D01*
X38968761Y27321821D01*
X38962621Y27336009D01*
X38955587Y27357280D01*
X38954022Y27363952D01*
X38954021Y27363954D01*
X38952059Y27372320D01*
X38930713Y27411150D01*
X38925500Y27421792D01*
X38911316Y27454570D01*
X38911315Y27454572D01*
X38907903Y27462456D01*
X38898174Y27474470D01*
X38885682Y27493061D01*
X38881418Y27500818D01*
X38881417Y27500819D01*
X38878237Y27506604D01*
X38873926Y27511598D01*
X38873923Y27511603D01*
X38872635Y27513094D01*
X38871117Y27514853D01*
X38846116Y27539854D01*
X38837291Y27549655D01*
X38816875Y27574867D01*
X38816874Y27574868D01*
X38811467Y27581545D01*
X38804465Y27586521D01*
X38804463Y27586523D01*
X38795752Y27592713D01*
X38779646Y27606324D01*
X38173560Y28212410D01*
X38139534Y28274722D01*
X38142096Y28338133D01*
X38176945Y28452836D01*
X38176945Y28452837D01*
X38178447Y28457780D01*
X38183544Y28496495D01*
X38207082Y28675284D01*
X38207082Y28675290D01*
X38207519Y28678606D01*
X38208617Y28723506D01*
X38209060Y28741636D01*
X38209060Y28741640D01*
X38209142Y28745000D01*
X38190892Y28966983D01*
X38136631Y29183005D01*
X38073445Y29328324D01*
X38049877Y29382527D01*
X38049875Y29382530D01*
X38047817Y29387264D01*
X38043952Y29393239D01*
X37929645Y29569930D01*
X37929640Y29569936D01*
X37926834Y29574274D01*
X37920367Y29581382D01*
X37780411Y29735192D01*
X37780409Y29735194D01*
X37776933Y29739014D01*
X37772882Y29742213D01*
X37772878Y29742217D01*
X37647298Y29841393D01*
X37602138Y29877058D01*
X37451542Y29960192D01*
X37411675Y29982200D01*
X37411672Y29982201D01*
X37407144Y29984701D01*
X37261070Y30036428D01*
X37202059Y30057325D01*
X37202056Y30057326D01*
X37197187Y30059050D01*
X37192098Y30059957D01*
X37192096Y30059957D01*
X36982996Y30097204D01*
X36982990Y30097205D01*
X36977907Y30098110D01*
X36904094Y30099012D01*
X36760361Y30100768D01*
X36760359Y30100768D01*
X36755191Y30100831D01*
X36535022Y30067141D01*
X36323311Y29997943D01*
X36318723Y29995555D01*
X36318719Y29995553D01*
X36180985Y29923853D01*
X36125745Y29895097D01*
X36121612Y29891994D01*
X36121609Y29891992D01*
X35975708Y29782446D01*
X35947630Y29761364D01*
X35882354Y29693056D01*
X35857090Y29666619D01*
X35793748Y29600336D01*
X35790836Y29596067D01*
X35671143Y29420604D01*
X35671139Y29420598D01*
X35668233Y29416337D01*
X35668047Y29416464D01*
X35618659Y29368712D01*
X35560144Y29354300D01*
X33766500Y29354300D01*
X33698379Y29374302D01*
X33652600Y29428116D01*
X33652321Y29427966D01*
X33651628Y29429258D01*
X33650952Y29430053D01*
X33647817Y29437264D01*
X33598379Y29513683D01*
X33529645Y29619930D01*
X33529640Y29619936D01*
X33526834Y29624274D01*
X33507647Y29645361D01*
X33380411Y29785192D01*
X33380409Y29785194D01*
X33376933Y29789014D01*
X33372882Y29792213D01*
X33372878Y29792217D01*
X33249807Y29889412D01*
X33202138Y29927058D01*
X33101477Y29982626D01*
X33011675Y30032200D01*
X33011672Y30032201D01*
X33007144Y30034701D01*
X32856857Y30087920D01*
X32802059Y30107325D01*
X32802056Y30107326D01*
X32797187Y30109050D01*
X32792098Y30109957D01*
X32792096Y30109957D01*
X32582996Y30147204D01*
X32582990Y30147205D01*
X32577907Y30148110D01*
X32504094Y30149012D01*
X32360361Y30150768D01*
X32360359Y30150768D01*
X32355191Y30150831D01*
X32135022Y30117141D01*
X32076989Y30098173D01*
X32045619Y30087920D01*
X31974655Y30085769D01*
X31917379Y30118590D01*
X31488728Y30547241D01*
X31485075Y30551050D01*
X31473601Y30563528D01*
X31442363Y30597499D01*
X31404716Y30620841D01*
X31394932Y30627565D01*
X31366483Y30649159D01*
X31366484Y30649159D01*
X31359643Y30654351D01*
X31345267Y30660043D01*
X31325261Y30670105D01*
X31312126Y30678249D01*
X31303878Y30680645D01*
X31303872Y30680648D01*
X31269585Y30690610D01*
X31258358Y30694454D01*
X31225158Y30707598D01*
X31225157Y30707598D01*
X31217166Y30710762D01*
X31201798Y30712377D01*
X31179813Y30716690D01*
X31164972Y30721002D01*
X31158395Y30721485D01*
X31156412Y30721631D01*
X31156401Y30721631D01*
X31154105Y30721800D01*
X31118754Y30721800D01*
X31105583Y30722490D01*
X31073311Y30725882D01*
X31064767Y30726780D01*
X31056295Y30725347D01*
X31056294Y30725347D01*
X31045760Y30723565D01*
X31024746Y30721800D01*
X29756539Y30721800D01*
X29688418Y30741802D01*
X29668653Y30757731D01*
X29663974Y30763974D01*
X29551199Y30848493D01*
X29542798Y30851643D01*
X29542795Y30851644D01*
X29464387Y30881037D01*
X29419236Y30897964D01*
X29359070Y30904500D01*
X28790930Y30904500D01*
X28730764Y30897964D01*
X28685613Y30881037D01*
X28607205Y30851644D01*
X28607202Y30851643D01*
X28598801Y30848493D01*
X28486026Y30763974D01*
X28401507Y30651199D01*
X28398357Y30642798D01*
X28398356Y30642795D01*
X28380935Y30596324D01*
X28352036Y30519236D01*
X28345500Y30459070D01*
X28345500Y29865930D01*
X8816183Y29865930D01*
X8730411Y29960192D01*
X8730409Y29960194D01*
X8726933Y29964014D01*
X8722882Y29967213D01*
X8722878Y29967217D01*
X8595361Y30067923D01*
X8552138Y30102058D01*
X8399040Y30186573D01*
X8361675Y30207200D01*
X8361672Y30207201D01*
X8357144Y30209701D01*
X8157557Y30280378D01*
X8152059Y30282325D01*
X8152056Y30282326D01*
X8147187Y30284050D01*
X8142098Y30284957D01*
X8142096Y30284957D01*
X7932996Y30322204D01*
X7932990Y30322205D01*
X7927907Y30323110D01*
X7854094Y30324012D01*
X7710361Y30325768D01*
X7710359Y30325768D01*
X7705191Y30325831D01*
X7485022Y30292141D01*
X7273311Y30222943D01*
X7268723Y30220555D01*
X7268719Y30220553D01*
X7080334Y30122486D01*
X7075745Y30120097D01*
X7071612Y30116994D01*
X7071609Y30116992D01*
X6901765Y29989469D01*
X6897630Y29986364D01*
X6843345Y29929558D01*
X6754071Y29836138D01*
X6743748Y29825336D01*
X6618233Y29641337D01*
X6616060Y29636655D01*
X6616058Y29636652D01*
X6532314Y29456239D01*
X6524455Y29439309D01*
X6464932Y29224678D01*
X6441264Y29003207D01*
X254000Y29003207D01*
X254000Y29054376D01*
X274002Y29122497D01*
X327658Y29168990D01*
X397932Y29179094D01*
X450002Y29159141D01*
X465281Y29148932D01*
X500699Y29125266D01*
X574933Y29110500D01*
X2399705Y29110500D01*
X4225066Y29110501D01*
X4260818Y29117612D01*
X4287126Y29122844D01*
X4287128Y29122845D01*
X4299301Y29125266D01*
X4309621Y29132161D01*
X4309622Y29132162D01*
X4373168Y29174623D01*
X4383484Y29181516D01*
X4439734Y29265699D01*
X4454370Y29339282D01*
X4487277Y29402191D01*
X4548972Y29437323D01*
X4577949Y29440700D01*
X4634841Y29440700D01*
X4640118Y29440589D01*
X4703129Y29437948D01*
X4746265Y29448065D01*
X4757931Y29450227D01*
X4801821Y29456239D01*
X4810706Y29460084D01*
X4816009Y29462378D01*
X4837274Y29469411D01*
X4852320Y29472940D01*
X4859842Y29477075D01*
X4859849Y29477078D01*
X4891146Y29494284D01*
X4901802Y29499505D01*
X4942456Y29517097D01*
X4954470Y29526826D01*
X4973061Y29539318D01*
X4977764Y29541903D01*
X4986604Y29546763D01*
X4994852Y29553883D01*
X5019849Y29578880D01*
X5029650Y29587705D01*
X5054868Y29608126D01*
X5061545Y29613533D01*
X5066520Y29620534D01*
X5066524Y29620538D01*
X5072719Y29629255D01*
X5086330Y29645361D01*
X6669765Y31228795D01*
X6732077Y31262821D01*
X6758860Y31265700D01*
X9784841Y31265700D01*
X9790118Y31265589D01*
X9853129Y31262948D01*
X9896265Y31273065D01*
X9907931Y31275227D01*
X9951821Y31281239D01*
X9960706Y31285084D01*
X9966009Y31287378D01*
X9987274Y31294411D01*
X10002320Y31297940D01*
X10009842Y31302075D01*
X10009849Y31302078D01*
X10041146Y31319284D01*
X10051802Y31324505D01*
X10092456Y31342097D01*
X10104470Y31351826D01*
X10123061Y31364318D01*
X10130812Y31368579D01*
X10136604Y31371763D01*
X10144852Y31378883D01*
X10169849Y31403880D01*
X10179650Y31412705D01*
X10204868Y31433126D01*
X10211545Y31438533D01*
X10216520Y31445534D01*
X10216524Y31445538D01*
X10222719Y31454255D01*
X10236330Y31470361D01*
X11389568Y32623598D01*
X11451880Y32657624D01*
X11493582Y32659617D01*
X11652809Y32640630D01*
X11658944Y32641102D01*
X11658946Y32641102D01*
X11852856Y32656023D01*
X11852860Y32656024D01*
X11858998Y32656496D01*
X12058178Y32712108D01*
X12063682Y32714888D01*
X12063684Y32714889D01*
X12237262Y32802569D01*
X12237264Y32802570D01*
X12242763Y32805348D01*
X12405722Y32932666D01*
X12409748Y32937330D01*
X12409751Y32937333D01*
X12536819Y33084543D01*
X12536820Y33084545D01*
X12540848Y33089211D01*
X12603505Y33199507D01*
X12639950Y33263660D01*
X12639952Y33263664D01*
X12642995Y33269021D01*
X12690578Y33412062D01*
X12706325Y33459399D01*
X12706326Y33459402D01*
X12708270Y33465247D01*
X12734189Y33670414D01*
X12734602Y33700000D01*
X12733151Y33714794D01*
X14065501Y33714794D01*
X14066743Y33700000D01*
X14079215Y33551490D01*
X14082806Y33508722D01*
X14139807Y33309934D01*
X14142625Y33304452D01*
X14142626Y33304448D01*
X14231514Y33131491D01*
X14231517Y33131487D01*
X14234334Y33126005D01*
X14362786Y32963939D01*
X14367479Y32959945D01*
X14367480Y32959944D01*
X14486100Y32858991D01*
X14520271Y32829909D01*
X14700789Y32729020D01*
X14897466Y32665116D01*
X15102809Y32640630D01*
X15108944Y32641102D01*
X15108946Y32641102D01*
X15302856Y32656023D01*
X15302860Y32656024D01*
X15308998Y32656496D01*
X15508178Y32712108D01*
X15511801Y32713938D01*
X24903493Y32713938D01*
X24912789Y32701923D01*
X24963994Y32666069D01*
X24973489Y32660586D01*
X25170947Y32568510D01*
X25181239Y32564764D01*
X25391688Y32508375D01*
X25402481Y32506472D01*
X25619525Y32487483D01*
X25630475Y32487483D01*
X25847519Y32506472D01*
X25858312Y32508375D01*
X26068761Y32564764D01*
X26079053Y32568510D01*
X26276511Y32660586D01*
X26286006Y32666069D01*
X26338048Y32702509D01*
X26346424Y32712988D01*
X26339356Y32726434D01*
X25637812Y33427978D01*
X25623868Y33435592D01*
X25622035Y33435461D01*
X25615420Y33431210D01*
X24909923Y32725713D01*
X24903493Y32713938D01*
X15511801Y32713938D01*
X15513682Y32714888D01*
X15513684Y32714889D01*
X15687262Y32802569D01*
X15687264Y32802570D01*
X15692763Y32805348D01*
X15855722Y32932666D01*
X15859748Y32937330D01*
X15859751Y32937333D01*
X15986816Y33084540D01*
X15990176Y33088433D01*
X15990179Y33088435D01*
X15990848Y33089211D01*
X15990995Y33089084D01*
X16044392Y33131464D01*
X16091745Y33140700D01*
X16674841Y33140700D01*
X16680118Y33140589D01*
X16743129Y33137948D01*
X16786265Y33148065D01*
X16797931Y33150227D01*
X16841821Y33156239D01*
X16850706Y33160084D01*
X16856009Y33162378D01*
X16877274Y33169411D01*
X16892320Y33172940D01*
X16899842Y33177075D01*
X16899849Y33177078D01*
X16931146Y33194284D01*
X16941802Y33199505D01*
X16982456Y33217097D01*
X16994470Y33226826D01*
X17013061Y33239318D01*
X17020812Y33243579D01*
X17026604Y33246763D01*
X17034852Y33253883D01*
X17059849Y33278880D01*
X17069650Y33287705D01*
X17094868Y33308126D01*
X17101545Y33313533D01*
X17106520Y33320534D01*
X17106524Y33320538D01*
X17112719Y33329255D01*
X17126330Y33345361D01*
X17575494Y33794525D01*
X24312483Y33794525D01*
X24331472Y33577481D01*
X24333375Y33566688D01*
X24389764Y33356239D01*
X24393510Y33345947D01*
X24485586Y33148489D01*
X24491069Y33138994D01*
X24527509Y33086952D01*
X24537988Y33078576D01*
X24551434Y33085644D01*
X25252978Y33787188D01*
X25259356Y33798868D01*
X25989408Y33798868D01*
X25989539Y33797035D01*
X25993790Y33790420D01*
X26699287Y33084923D01*
X26711062Y33078493D01*
X26723077Y33087789D01*
X26758931Y33138994D01*
X26764414Y33148489D01*
X26856490Y33345947D01*
X26860236Y33356239D01*
X26916625Y33566688D01*
X26918528Y33577481D01*
X26937517Y33794525D01*
X26937517Y33805475D01*
X26918528Y34022519D01*
X26916625Y34033312D01*
X26860236Y34243761D01*
X26856490Y34254053D01*
X26764414Y34451511D01*
X26758931Y34461006D01*
X26722491Y34513048D01*
X26712012Y34521424D01*
X26698566Y34514356D01*
X25997022Y33812812D01*
X25989408Y33798868D01*
X25259356Y33798868D01*
X25260592Y33801132D01*
X25260461Y33802965D01*
X25256210Y33809580D01*
X24550713Y34515077D01*
X24538938Y34521507D01*
X24526923Y34512211D01*
X24491069Y34461006D01*
X24485586Y34451511D01*
X24393510Y34254053D01*
X24389764Y34243761D01*
X24333375Y34033312D01*
X24331472Y34022519D01*
X24312483Y33805475D01*
X24312483Y33794525D01*
X17575494Y33794525D01*
X18364568Y34583598D01*
X18426880Y34617624D01*
X18468582Y34619617D01*
X18627809Y34600630D01*
X18633944Y34601102D01*
X18633946Y34601102D01*
X18827856Y34616023D01*
X18827860Y34616024D01*
X18833998Y34616496D01*
X19033178Y34672108D01*
X19038682Y34674888D01*
X19038684Y34674889D01*
X19212262Y34762569D01*
X19212264Y34762570D01*
X19217763Y34765348D01*
X19380722Y34892666D01*
X19384748Y34897330D01*
X19384751Y34897333D01*
X19496767Y35027105D01*
X19515176Y35048433D01*
X19515179Y35048435D01*
X19515848Y35049211D01*
X19515995Y35049084D01*
X19569392Y35091464D01*
X19616745Y35100700D01*
X20669501Y35100700D01*
X20737622Y35080698D01*
X20784115Y35027042D01*
X20795501Y34974700D01*
X20795501Y34884934D01*
X20810266Y34810699D01*
X20866516Y34726516D01*
X20876832Y34719623D01*
X20929864Y34684188D01*
X20950699Y34670266D01*
X21024933Y34655500D01*
X21849866Y34655500D01*
X22675066Y34655501D01*
X22710818Y34662612D01*
X22737126Y34667844D01*
X22737128Y34667845D01*
X22749301Y34670266D01*
X22759621Y34677161D01*
X22759622Y34677162D01*
X22823168Y34719623D01*
X22833484Y34726516D01*
X22889734Y34810699D01*
X22904500Y34884933D01*
X22904500Y34887012D01*
X24903576Y34887012D01*
X24910644Y34873566D01*
X25612188Y34172022D01*
X25626132Y34164408D01*
X25627965Y34164539D01*
X25634580Y34168790D01*
X26340077Y34874287D01*
X26346507Y34886062D01*
X26337211Y34898077D01*
X26286006Y34933931D01*
X26276511Y34939414D01*
X26079053Y35031490D01*
X26068761Y35035236D01*
X25858312Y35091625D01*
X25847519Y35093528D01*
X25630475Y35112517D01*
X25619525Y35112517D01*
X25402481Y35093528D01*
X25391688Y35091625D01*
X25181239Y35035236D01*
X25170947Y35031490D01*
X24973489Y34939414D01*
X24963994Y34933931D01*
X24911952Y34897491D01*
X24903576Y34887012D01*
X22904500Y34887012D01*
X22904499Y36535066D01*
X22889734Y36609301D01*
X22833484Y36693484D01*
X22749301Y36749734D01*
X22675067Y36764500D01*
X21850134Y36764500D01*
X21024934Y36764499D01*
X20989182Y36757388D01*
X20962874Y36752156D01*
X20962872Y36752155D01*
X20950699Y36749734D01*
X20940379Y36742839D01*
X20940378Y36742838D01*
X20905565Y36719576D01*
X20866516Y36693484D01*
X20810266Y36609301D01*
X20795500Y36535067D01*
X20795500Y36345300D01*
X20775498Y36277179D01*
X20721842Y36230686D01*
X20669500Y36219300D01*
X19614476Y36219300D01*
X19546355Y36239302D01*
X19516833Y36265665D01*
X19405762Y36401852D01*
X19405759Y36401855D01*
X19401863Y36406632D01*
X19394966Y36412338D01*
X19247271Y36534522D01*
X19247266Y36534525D01*
X19242522Y36538450D01*
X19237103Y36541380D01*
X19237100Y36541382D01*
X19066032Y36633878D01*
X19066027Y36633880D01*
X19060612Y36636808D01*
X18863063Y36697960D01*
X18856938Y36698604D01*
X18856937Y36698604D01*
X18663526Y36718932D01*
X18663524Y36718932D01*
X18657397Y36719576D01*
X18531229Y36708094D01*
X18457591Y36701393D01*
X18457590Y36701393D01*
X18451450Y36700834D01*
X18253066Y36642446D01*
X18247601Y36639589D01*
X18075261Y36549492D01*
X18075257Y36549489D01*
X18069801Y36546637D01*
X17908635Y36417057D01*
X17775708Y36258640D01*
X17676082Y36077422D01*
X17613553Y35880304D01*
X17590501Y35674794D01*
X17591017Y35668651D01*
X17607556Y35471701D01*
X17593325Y35402145D01*
X17571093Y35372062D01*
X16495236Y34296205D01*
X16432924Y34262179D01*
X16406141Y34259300D01*
X16089476Y34259300D01*
X16021355Y34279302D01*
X15991833Y34305665D01*
X15880762Y34441852D01*
X15880757Y34441857D01*
X15876863Y34446632D01*
X15872114Y34450561D01*
X15722271Y34574522D01*
X15722266Y34574525D01*
X15717522Y34578450D01*
X15712103Y34581380D01*
X15712100Y34581382D01*
X15541032Y34673878D01*
X15541027Y34673880D01*
X15535612Y34676808D01*
X15338063Y34737960D01*
X15331938Y34738604D01*
X15331937Y34738604D01*
X15138526Y34758932D01*
X15138524Y34758932D01*
X15132397Y34759576D01*
X15006229Y34748094D01*
X14932591Y34741393D01*
X14932590Y34741393D01*
X14926450Y34740834D01*
X14728066Y34682446D01*
X14722601Y34679589D01*
X14550261Y34589492D01*
X14550257Y34589489D01*
X14544801Y34586637D01*
X14383635Y34457057D01*
X14250708Y34298640D01*
X14151082Y34117422D01*
X14088553Y33920304D01*
X14087867Y33914187D01*
X14087866Y33914183D01*
X14074726Y33797035D01*
X14065501Y33714794D01*
X12733151Y33714794D01*
X12714422Y33905811D01*
X12654651Y34103783D01*
X12581236Y34241857D01*
X12560459Y34280933D01*
X12560457Y34280936D01*
X12557565Y34286375D01*
X12553674Y34291145D01*
X12553672Y34291149D01*
X12430758Y34441857D01*
X12430755Y34441860D01*
X12426863Y34446632D01*
X12422114Y34450561D01*
X12272271Y34574522D01*
X12272266Y34574525D01*
X12267522Y34578450D01*
X12262103Y34581380D01*
X12262100Y34581382D01*
X12091032Y34673878D01*
X12091027Y34673880D01*
X12085612Y34676808D01*
X11888063Y34737960D01*
X11881938Y34738604D01*
X11881937Y34738604D01*
X11688526Y34758932D01*
X11688524Y34758932D01*
X11682397Y34759576D01*
X11556229Y34748094D01*
X11482591Y34741393D01*
X11482590Y34741393D01*
X11476450Y34740834D01*
X11278066Y34682446D01*
X11272601Y34679589D01*
X11100261Y34589492D01*
X11100257Y34589489D01*
X11094801Y34586637D01*
X10933635Y34457057D01*
X10800708Y34298640D01*
X10701082Y34117422D01*
X10638553Y33920304D01*
X10637867Y33914187D01*
X10637866Y33914183D01*
X10624726Y33797035D01*
X10615501Y33714794D01*
X10626615Y33582452D01*
X10632556Y33511701D01*
X10618325Y33442145D01*
X10596093Y33412062D01*
X9605236Y32421205D01*
X9542924Y32387179D01*
X9516141Y32384300D01*
X6490159Y32384300D01*
X6484883Y32384411D01*
X6480733Y32384585D01*
X6421871Y32387052D01*
X6413508Y32385090D01*
X6413504Y32385090D01*
X6378738Y32376936D01*
X6367068Y32374773D01*
X6357261Y32373429D01*
X6323179Y32368761D01*
X6315298Y32365351D01*
X6315296Y32365350D01*
X6308992Y32362622D01*
X6287725Y32355588D01*
X6272681Y32352060D01*
X6233865Y32330721D01*
X6223206Y32325499D01*
X6190428Y32311315D01*
X6190426Y32311314D01*
X6182544Y32307903D01*
X6170530Y32298174D01*
X6151941Y32285683D01*
X6138396Y32278237D01*
X6130148Y32271117D01*
X6105151Y32246120D01*
X6095350Y32237295D01*
X6063455Y32211467D01*
X6058480Y32204466D01*
X6058476Y32204462D01*
X6052281Y32195745D01*
X6038670Y32179639D01*
X4609820Y30750789D01*
X4547508Y30716763D01*
X4476693Y30721828D01*
X4415961Y30769880D01*
X4390377Y30808168D01*
X4383484Y30818484D01*
X4299301Y30874734D01*
X4225067Y30889500D01*
X2400295Y30889500D01*
X574934Y30889499D01*
X539182Y30882388D01*
X512874Y30877156D01*
X512872Y30877155D01*
X500699Y30874734D01*
X490379Y30867839D01*
X490378Y30867838D01*
X450002Y30840859D01*
X382250Y30819644D01*
X313783Y30838427D01*
X266339Y30891244D01*
X254000Y30945624D01*
X254000Y31523071D01*
X274002Y31591192D01*
X327658Y31637685D01*
X393608Y31648334D01*
X448514Y31642369D01*
X455328Y31642000D01*
X2327885Y31642000D01*
X2343124Y31646475D01*
X2344329Y31647865D01*
X2346000Y31655548D01*
X2346000Y31660116D01*
X2854000Y31660116D01*
X2858475Y31644877D01*
X2859865Y31643672D01*
X2867548Y31642001D01*
X4744669Y31642001D01*
X4751490Y31642371D01*
X4802352Y31647895D01*
X4817604Y31651521D01*
X4938054Y31696676D01*
X4953649Y31705214D01*
X5055724Y31781715D01*
X5068285Y31794276D01*
X5144786Y31896351D01*
X5153324Y31911946D01*
X5198478Y32032394D01*
X5202105Y32047649D01*
X5207631Y32098514D01*
X5208000Y32105328D01*
X5208000Y32552885D01*
X5203525Y32568124D01*
X5202135Y32569329D01*
X5194452Y32571000D01*
X2872115Y32571000D01*
X2856876Y32566525D01*
X2855671Y32565135D01*
X2854000Y32557452D01*
X2854000Y31660116D01*
X2346000Y31660116D01*
X2346000Y33097115D01*
X2854000Y33097115D01*
X2858475Y33081876D01*
X2859865Y33080671D01*
X2867548Y33079000D01*
X5189884Y33079000D01*
X5205123Y33083475D01*
X5206328Y33084865D01*
X5207999Y33092548D01*
X5207999Y33544669D01*
X5207629Y33551490D01*
X5202105Y33602352D01*
X5198479Y33617604D01*
X5153324Y33738054D01*
X5144786Y33753649D01*
X5068285Y33855724D01*
X5055724Y33868285D01*
X4953649Y33944786D01*
X4938054Y33953324D01*
X4817606Y33998478D01*
X4802351Y34002105D01*
X4751486Y34007631D01*
X4744672Y34008000D01*
X2872115Y34008000D01*
X2856876Y34003525D01*
X2855671Y34002135D01*
X2854000Y33994452D01*
X2854000Y33097115D01*
X2346000Y33097115D01*
X2346000Y33989884D01*
X2341525Y34005123D01*
X2340135Y34006328D01*
X2332452Y34007999D01*
X455331Y34007999D01*
X448510Y34007629D01*
X393605Y34001666D01*
X323723Y34014195D01*
X271708Y34062517D01*
X254000Y34126929D01*
X254000Y40255067D01*
X6445500Y40255067D01*
X6445501Y38004934D01*
X6460266Y37930699D01*
X6516516Y37846516D01*
X6600699Y37790266D01*
X6674933Y37775500D01*
X7799818Y37775500D01*
X8925066Y37775501D01*
X8960818Y37782612D01*
X8987126Y37787844D01*
X8987128Y37787845D01*
X8999301Y37790266D01*
X9009621Y37797161D01*
X9009622Y37797162D01*
X9073168Y37839623D01*
X9083484Y37846516D01*
X9139734Y37930699D01*
X9154500Y38004933D01*
X9154500Y38444700D01*
X9174502Y38512821D01*
X9228158Y38559314D01*
X9280500Y38570700D01*
X13511141Y38570700D01*
X13579262Y38550698D01*
X13600236Y38533795D01*
X14668772Y37465259D01*
X14672425Y37461450D01*
X14715137Y37415001D01*
X14752800Y37391648D01*
X14762568Y37384935D01*
X14797856Y37358150D01*
X14812224Y37352461D01*
X14832235Y37342397D01*
X14838072Y37338778D01*
X14838075Y37338777D01*
X14845374Y37334251D01*
X14853620Y37331855D01*
X14853623Y37331854D01*
X14887917Y37321891D01*
X14899147Y37318046D01*
X14940333Y37301739D01*
X14948871Y37300842D01*
X14948881Y37300839D01*
X14955706Y37300122D01*
X14977678Y37295812D01*
X14992528Y37291498D01*
X14999885Y37290958D01*
X15001088Y37290869D01*
X15001099Y37290869D01*
X15003395Y37290700D01*
X15038755Y37290700D01*
X15051926Y37290010D01*
X15071545Y37287948D01*
X15092733Y37285721D01*
X15101205Y37287154D01*
X15101206Y37287154D01*
X15111735Y37288935D01*
X15132748Y37290700D01*
X22759841Y37290700D01*
X22765118Y37290589D01*
X22828129Y37287948D01*
X22871265Y37298065D01*
X22882931Y37300227D01*
X22893969Y37301739D01*
X22926821Y37306239D01*
X22935706Y37310084D01*
X22941009Y37312378D01*
X22962274Y37319411D01*
X22977320Y37322940D01*
X22984842Y37327075D01*
X22984849Y37327078D01*
X23016146Y37344284D01*
X23026802Y37349505D01*
X23067456Y37367097D01*
X23079470Y37376826D01*
X23098061Y37389318D01*
X23105812Y37393579D01*
X23111604Y37396763D01*
X23119852Y37403883D01*
X23144849Y37428880D01*
X23154650Y37437705D01*
X23179868Y37458126D01*
X23186545Y37463533D01*
X23191520Y37470534D01*
X23191524Y37470538D01*
X23197719Y37479255D01*
X23211330Y37495361D01*
X25739567Y40023598D01*
X25801879Y40057624D01*
X25843581Y40059617D01*
X25873721Y40056023D01*
X26002809Y40040630D01*
X26008944Y40041102D01*
X26008946Y40041102D01*
X26208998Y40056496D01*
X26209104Y40055121D01*
X26272700Y40048033D01*
X26313123Y40020908D01*
X27763772Y38570259D01*
X27767425Y38566450D01*
X27810137Y38520001D01*
X27847784Y38496659D01*
X27857567Y38489935D01*
X27892857Y38463149D01*
X27907233Y38457457D01*
X27927237Y38447396D01*
X27940374Y38439251D01*
X27948622Y38436855D01*
X27948628Y38436852D01*
X27982915Y38426890D01*
X27994142Y38423046D01*
X28021591Y38412179D01*
X28035334Y38406738D01*
X28050702Y38405123D01*
X28072687Y38400810D01*
X28087528Y38396498D01*
X28094105Y38396015D01*
X28096088Y38395869D01*
X28096099Y38395869D01*
X28098395Y38395700D01*
X28133746Y38395700D01*
X28146917Y38395010D01*
X28187733Y38390720D01*
X28196205Y38392153D01*
X28196206Y38392153D01*
X28206740Y38393935D01*
X28227754Y38395700D01*
X30969501Y38395700D01*
X31037622Y38375698D01*
X31084115Y38322042D01*
X31095501Y38269700D01*
X31095501Y37829934D01*
X31102019Y37797162D01*
X31106328Y37775500D01*
X31110266Y37755699D01*
X31117161Y37745380D01*
X31117162Y37745378D01*
X31143675Y37705699D01*
X31166516Y37671516D01*
X31250699Y37615266D01*
X31324933Y37600500D01*
X32449818Y37600500D01*
X33575066Y37600501D01*
X33610818Y37607612D01*
X33637126Y37612844D01*
X33637128Y37612845D01*
X33649301Y37615266D01*
X33659621Y37622161D01*
X33659622Y37622162D01*
X33723168Y37664623D01*
X33733484Y37671516D01*
X33789734Y37755699D01*
X33804500Y37829933D01*
X33804499Y40030067D01*
X35495500Y40030067D01*
X35495501Y37779934D01*
X35510266Y37705699D01*
X35517161Y37695380D01*
X35517162Y37695378D01*
X35537712Y37664623D01*
X35566516Y37621516D01*
X35650699Y37565266D01*
X35724933Y37550500D01*
X36164700Y37550500D01*
X36232821Y37530498D01*
X36279314Y37476842D01*
X36290700Y37424500D01*
X36290700Y33040159D01*
X36290589Y33034883D01*
X36287948Y32971871D01*
X36298064Y32928743D01*
X36300227Y32917070D01*
X36306239Y32873179D01*
X36309649Y32865299D01*
X36312378Y32858991D01*
X36319411Y32837727D01*
X36322940Y32822680D01*
X36327075Y32815158D01*
X36327078Y32815151D01*
X36344284Y32783854D01*
X36349505Y32773198D01*
X36367097Y32732544D01*
X36376826Y32720530D01*
X36389317Y32701941D01*
X36396763Y32688396D01*
X36403883Y32680148D01*
X36428880Y32655151D01*
X36437705Y32645350D01*
X36463533Y32613455D01*
X36470534Y32608480D01*
X36470538Y32608476D01*
X36479255Y32602281D01*
X36495361Y32588670D01*
X40298213Y28785818D01*
X40332239Y28723506D01*
X40334333Y28682681D01*
X40315501Y28514794D01*
X40316613Y28501549D01*
X40329806Y28344452D01*
X40332806Y28308722D01*
X40389807Y28109934D01*
X40392625Y28104452D01*
X40392626Y28104448D01*
X40481514Y27931491D01*
X40481517Y27931487D01*
X40484334Y27926005D01*
X40612786Y27763939D01*
X40617479Y27759945D01*
X40617480Y27759944D01*
X40762218Y27636763D01*
X40770271Y27629909D01*
X40950789Y27529020D01*
X41147466Y27465116D01*
X41352809Y27440630D01*
X41358944Y27441102D01*
X41358946Y27441102D01*
X41552856Y27456023D01*
X41552860Y27456024D01*
X41558998Y27456496D01*
X41644365Y27480331D01*
X43767001Y27480331D01*
X43767371Y27473510D01*
X43772895Y27422648D01*
X43776521Y27407396D01*
X43821676Y27286946D01*
X43830214Y27271351D01*
X43906715Y27169276D01*
X43919276Y27156715D01*
X44021351Y27080214D01*
X44036946Y27071676D01*
X44157394Y27026522D01*
X44172649Y27022895D01*
X44223514Y27017369D01*
X44230328Y27017000D01*
X46102885Y27017000D01*
X46118124Y27021475D01*
X46119329Y27022865D01*
X46121000Y27030548D01*
X46121000Y27927885D01*
X46116525Y27943124D01*
X46115135Y27944329D01*
X46107452Y27946000D01*
X43785116Y27946000D01*
X43769877Y27941525D01*
X43768672Y27940135D01*
X43767001Y27932452D01*
X43767001Y27480331D01*
X41644365Y27480331D01*
X41758178Y27512108D01*
X41763682Y27514888D01*
X41763684Y27514889D01*
X41937262Y27602569D01*
X41937264Y27602570D01*
X41942763Y27605348D01*
X42105722Y27732666D01*
X42109748Y27737330D01*
X42109751Y27737333D01*
X42236819Y27884543D01*
X42236820Y27884545D01*
X42240848Y27889211D01*
X42297321Y27988620D01*
X42339950Y28063660D01*
X42339952Y28063664D01*
X42342995Y28069021D01*
X42382234Y28186980D01*
X42406325Y28259399D01*
X42406326Y28259402D01*
X42408270Y28265247D01*
X42434189Y28470414D01*
X42434213Y28472115D01*
X43767000Y28472115D01*
X43771475Y28456876D01*
X43772865Y28455671D01*
X43780548Y28454000D01*
X46102885Y28454000D01*
X46118124Y28458475D01*
X46119329Y28459865D01*
X46121000Y28467548D01*
X46121000Y29364884D01*
X46116525Y29380123D01*
X46115135Y29381328D01*
X46107452Y29382999D01*
X44230331Y29382999D01*
X44223510Y29382629D01*
X44172648Y29377105D01*
X44157396Y29373479D01*
X44036946Y29328324D01*
X44021351Y29319786D01*
X43919276Y29243285D01*
X43906715Y29230724D01*
X43830214Y29128649D01*
X43821676Y29113054D01*
X43776522Y28992606D01*
X43772895Y28977351D01*
X43767369Y28926486D01*
X43767000Y28919672D01*
X43767000Y28472115D01*
X42434213Y28472115D01*
X42434602Y28500000D01*
X42414422Y28705811D01*
X42354651Y28903783D01*
X42267969Y29066808D01*
X42260459Y29080933D01*
X42260457Y29080936D01*
X42257565Y29086375D01*
X42253674Y29091145D01*
X42253672Y29091149D01*
X42130758Y29241857D01*
X42130755Y29241860D01*
X42126863Y29246632D01*
X42122114Y29250561D01*
X41972271Y29374522D01*
X41972266Y29374525D01*
X41967522Y29378450D01*
X41962103Y29381380D01*
X41962100Y29381382D01*
X41791032Y29473878D01*
X41791027Y29473880D01*
X41785612Y29476808D01*
X41588063Y29537960D01*
X41581938Y29538604D01*
X41581937Y29538604D01*
X41388526Y29558932D01*
X41388524Y29558932D01*
X41382397Y29559576D01*
X41269501Y29549302D01*
X41188195Y29541903D01*
X41118542Y29555649D01*
X41087681Y29578289D01*
X37446205Y33219764D01*
X37412179Y33282076D01*
X37409300Y33308859D01*
X37409300Y37424501D01*
X37429302Y37492622D01*
X37482958Y37539115D01*
X37535300Y37550501D01*
X37975066Y37550501D01*
X38010818Y37557612D01*
X38037126Y37562844D01*
X38037128Y37562845D01*
X38049301Y37565266D01*
X38059621Y37572161D01*
X38059622Y37572162D01*
X38123168Y37614623D01*
X38133484Y37621516D01*
X38189734Y37705699D01*
X38204500Y37779933D01*
X38204500Y38219700D01*
X38224502Y38287821D01*
X38278158Y38334314D01*
X38330500Y38345700D01*
X39599841Y38345700D01*
X39605118Y38345589D01*
X39668129Y38342948D01*
X39711265Y38353065D01*
X39722931Y38355227D01*
X39766821Y38361239D01*
X39775706Y38365084D01*
X39781009Y38367378D01*
X39802274Y38374411D01*
X39817320Y38377940D01*
X39824842Y38382075D01*
X39824849Y38382078D01*
X39856146Y38399284D01*
X39866802Y38404505D01*
X39907456Y38422097D01*
X39919470Y38431826D01*
X39938061Y38444318D01*
X39943659Y38447395D01*
X39951604Y38451763D01*
X39959852Y38458883D01*
X39984849Y38483880D01*
X39994650Y38492705D01*
X40019868Y38513126D01*
X40026545Y38518533D01*
X40031520Y38525534D01*
X40031524Y38525538D01*
X40037719Y38534255D01*
X40051330Y38550361D01*
X41383083Y39882114D01*
X41445395Y39916140D01*
X41504789Y39914726D01*
X41616326Y39884839D01*
X41835000Y39865708D01*
X42053674Y39884839D01*
X42265703Y39941653D01*
X42358884Y39985104D01*
X42459659Y40032095D01*
X42459664Y40032098D01*
X42464646Y40034421D01*
X42469155Y40037578D01*
X42639946Y40157167D01*
X42639949Y40157169D01*
X42644457Y40160326D01*
X42799674Y40315543D01*
X42809308Y40329301D01*
X42922422Y40490845D01*
X42922423Y40490847D01*
X42925579Y40495354D01*
X42927902Y40500336D01*
X42927905Y40500341D01*
X42974896Y40601116D01*
X43018347Y40694297D01*
X43075161Y40906326D01*
X43094292Y41125000D01*
X43075161Y41343674D01*
X43018347Y41555703D01*
X42955188Y41691149D01*
X42927905Y41749659D01*
X42927902Y41749664D01*
X42925579Y41754646D01*
X42922422Y41759155D01*
X42802833Y41929946D01*
X42802831Y41929949D01*
X42799674Y41934457D01*
X42644457Y42089674D01*
X42639949Y42092831D01*
X42639946Y42092833D01*
X42469155Y42212422D01*
X42469153Y42212423D01*
X42464646Y42215579D01*
X42459664Y42217902D01*
X42459659Y42217905D01*
X42358884Y42264896D01*
X42265703Y42308347D01*
X42053674Y42365161D01*
X41835000Y42384292D01*
X41616326Y42365161D01*
X41404297Y42308347D01*
X41311116Y42264896D01*
X41210341Y42217905D01*
X41210336Y42217902D01*
X41205354Y42215579D01*
X41200847Y42212423D01*
X41200845Y42212422D01*
X41030054Y42092833D01*
X41030051Y42092831D01*
X41025543Y42089674D01*
X40870326Y41934457D01*
X40867169Y41929949D01*
X40867167Y41929946D01*
X40747578Y41759155D01*
X40744421Y41754646D01*
X40742098Y41749664D01*
X40742095Y41749659D01*
X40714812Y41691149D01*
X40651653Y41555703D01*
X40594839Y41343674D01*
X40575708Y41125000D01*
X40594839Y40906326D01*
X40624726Y40794789D01*
X40623036Y40723813D01*
X40592114Y40673083D01*
X39420236Y39501205D01*
X39357924Y39467179D01*
X39331141Y39464300D01*
X38330499Y39464300D01*
X38262378Y39484302D01*
X38215885Y39537958D01*
X38204499Y39590300D01*
X38204499Y40030066D01*
X38189734Y40104301D01*
X38182660Y40114889D01*
X38140377Y40178168D01*
X38133484Y40188484D01*
X38049301Y40244734D01*
X37975067Y40259500D01*
X36850182Y40259500D01*
X35724934Y40259499D01*
X35689182Y40252388D01*
X35662874Y40247156D01*
X35662872Y40247155D01*
X35650699Y40244734D01*
X35640379Y40237839D01*
X35640378Y40237838D01*
X35597432Y40209142D01*
X35566516Y40188484D01*
X35510266Y40104301D01*
X35495500Y40030067D01*
X33804499Y40030067D01*
X33804499Y40080066D01*
X33794762Y40129020D01*
X33792156Y40142126D01*
X33792155Y40142128D01*
X33789734Y40154301D01*
X33773787Y40178168D01*
X33740377Y40228168D01*
X33733484Y40238484D01*
X33649301Y40294734D01*
X33575067Y40309500D01*
X32450182Y40309500D01*
X31324934Y40309499D01*
X31289182Y40302388D01*
X31262874Y40297156D01*
X31262872Y40297155D01*
X31250699Y40294734D01*
X31240379Y40287839D01*
X31240378Y40287838D01*
X31182072Y40248878D01*
X31166516Y40238484D01*
X31110266Y40154301D01*
X31095500Y40080067D01*
X31095500Y39640300D01*
X31075498Y39572179D01*
X31021842Y39525686D01*
X30969500Y39514300D01*
X28453860Y39514300D01*
X28385739Y39534302D01*
X28364765Y39551205D01*
X27101071Y40814898D01*
X27067046Y40877210D01*
X27065160Y40919785D01*
X27083746Y41066910D01*
X27084189Y41070414D01*
X27084602Y41100000D01*
X27064422Y41305811D01*
X27004651Y41503783D01*
X26907565Y41686375D01*
X26903674Y41691145D01*
X26903672Y41691149D01*
X26780758Y41841857D01*
X26780755Y41841860D01*
X26776863Y41846632D01*
X26769966Y41852338D01*
X26622271Y41974522D01*
X26622266Y41974525D01*
X26617522Y41978450D01*
X26612103Y41981380D01*
X26612100Y41981382D01*
X26441032Y42073878D01*
X26441027Y42073880D01*
X26435612Y42076808D01*
X26238063Y42137960D01*
X26231938Y42138604D01*
X26231937Y42138604D01*
X26038526Y42158932D01*
X26038524Y42158932D01*
X26032397Y42159576D01*
X25906229Y42148094D01*
X25832591Y42141393D01*
X25832590Y42141393D01*
X25826450Y42140834D01*
X25628066Y42082446D01*
X25622601Y42079589D01*
X25450261Y41989492D01*
X25450257Y41989489D01*
X25444801Y41986637D01*
X25283635Y41857057D01*
X25150708Y41698640D01*
X25051082Y41517422D01*
X24988553Y41320304D01*
X24965501Y41114794D01*
X24966451Y41103488D01*
X24982556Y40911701D01*
X24968325Y40842145D01*
X24946093Y40812062D01*
X22580236Y38446205D01*
X22517924Y38412179D01*
X22491141Y38409300D01*
X15358860Y38409300D01*
X15290739Y38429302D01*
X15269765Y38446205D01*
X14201228Y39514741D01*
X14197575Y39518550D01*
X14160677Y39558676D01*
X14154863Y39564999D01*
X14117216Y39588341D01*
X14107432Y39595065D01*
X14078983Y39616659D01*
X14078984Y39616659D01*
X14072143Y39621851D01*
X14057767Y39627543D01*
X14037761Y39637605D01*
X14024626Y39645749D01*
X14016378Y39648145D01*
X14016372Y39648148D01*
X13982085Y39658110D01*
X13970858Y39661954D01*
X13937658Y39675098D01*
X13937657Y39675098D01*
X13929666Y39678262D01*
X13914298Y39679877D01*
X13892313Y39684190D01*
X13877472Y39688502D01*
X13870895Y39688985D01*
X13868912Y39689131D01*
X13868901Y39689131D01*
X13866605Y39689300D01*
X13831254Y39689300D01*
X13818083Y39689990D01*
X13785811Y39693382D01*
X13777267Y39694280D01*
X13768795Y39692847D01*
X13768794Y39692847D01*
X13758260Y39691065D01*
X13737246Y39689300D01*
X9280499Y39689300D01*
X9212378Y39709302D01*
X9165885Y39762958D01*
X9154499Y39815300D01*
X9154499Y40255066D01*
X9146128Y40297155D01*
X9142156Y40317126D01*
X9142155Y40317128D01*
X9139734Y40329301D01*
X9116590Y40363939D01*
X9090377Y40403168D01*
X9083484Y40413484D01*
X8999301Y40469734D01*
X8925067Y40484500D01*
X7800182Y40484500D01*
X6674934Y40484499D01*
X6639182Y40477388D01*
X6612874Y40472156D01*
X6612872Y40472155D01*
X6600699Y40469734D01*
X6590379Y40462839D01*
X6590378Y40462838D01*
X6529985Y40422484D01*
X6516516Y40413484D01*
X6460266Y40329301D01*
X6445500Y40255067D01*
X254000Y40255067D01*
X254000Y44692831D01*
X19492001Y44692831D01*
X19492371Y44686010D01*
X19497895Y44635148D01*
X19501521Y44619896D01*
X19546676Y44499446D01*
X19555214Y44483851D01*
X19631715Y44381776D01*
X19644276Y44369215D01*
X19746351Y44292714D01*
X19761946Y44284176D01*
X19882394Y44239022D01*
X19897649Y44235395D01*
X19948514Y44229869D01*
X19955328Y44229500D01*
X20402885Y44229500D01*
X20418124Y44233975D01*
X20419329Y44235365D01*
X20421000Y44243048D01*
X20421000Y44247616D01*
X20929000Y44247616D01*
X20933475Y44232377D01*
X20934865Y44231172D01*
X20942548Y44229501D01*
X21394669Y44229501D01*
X21401490Y44229871D01*
X21452352Y44235395D01*
X21467604Y44239021D01*
X21588054Y44284176D01*
X21603649Y44292714D01*
X21705724Y44369215D01*
X21718285Y44381776D01*
X21794786Y44483851D01*
X21803324Y44499446D01*
X21848478Y44619894D01*
X21852105Y44635149D01*
X21857631Y44686014D01*
X21858000Y44692828D01*
X21858000Y46565385D01*
X21853525Y46580624D01*
X21852135Y46581829D01*
X21844452Y46583500D01*
X20947115Y46583500D01*
X20931876Y46579025D01*
X20930671Y46577635D01*
X20929000Y46569952D01*
X20929000Y44247616D01*
X20421000Y44247616D01*
X20421000Y46565385D01*
X20416525Y46580624D01*
X20415135Y46581829D01*
X20407452Y46583500D01*
X19510116Y46583500D01*
X19494877Y46579025D01*
X19493672Y46577635D01*
X19492001Y46569952D01*
X19492001Y44692831D01*
X254000Y44692831D01*
X254000Y45655331D01*
X2242001Y45655331D01*
X2242371Y45648510D01*
X2247895Y45597648D01*
X2251521Y45582396D01*
X2296676Y45461946D01*
X2305214Y45446351D01*
X2381715Y45344276D01*
X2394276Y45331715D01*
X2496351Y45255214D01*
X2511946Y45246676D01*
X2632394Y45201522D01*
X2647649Y45197895D01*
X2698514Y45192369D01*
X2705328Y45192000D01*
X3327885Y45192000D01*
X3343124Y45196475D01*
X3344329Y45197865D01*
X3346000Y45205548D01*
X3346000Y45210116D01*
X3854000Y45210116D01*
X3858475Y45194877D01*
X3859865Y45193672D01*
X3867548Y45192001D01*
X4494669Y45192001D01*
X4501490Y45192371D01*
X4552352Y45197895D01*
X4567604Y45201521D01*
X4688054Y45246676D01*
X4703649Y45255214D01*
X4805724Y45331715D01*
X4818285Y45344276D01*
X4894786Y45446351D01*
X4903325Y45461948D01*
X4944425Y45571582D01*
X4987066Y45628347D01*
X5053628Y45653047D01*
X5122977Y45637840D01*
X5157645Y45609850D01*
X5183219Y45580326D01*
X5190580Y45573117D01*
X5354434Y45437084D01*
X5362881Y45431169D01*
X5546756Y45323721D01*
X5556042Y45319271D01*
X5755001Y45243297D01*
X5764899Y45240421D01*
X5868250Y45219394D01*
X5882299Y45220590D01*
X5886000Y45230935D01*
X5886000Y45231483D01*
X6394000Y45231483D01*
X6398064Y45217641D01*
X6411478Y45215607D01*
X6418184Y45216466D01*
X6428262Y45218608D01*
X6632255Y45279809D01*
X6641842Y45283567D01*
X6833095Y45377261D01*
X6841945Y45382536D01*
X7015328Y45506208D01*
X7023200Y45512861D01*
X7174052Y45663188D01*
X7180730Y45671035D01*
X7305003Y45843980D01*
X7310313Y45852817D01*
X7404670Y46043733D01*
X7408469Y46053328D01*
X7470377Y46257090D01*
X7472555Y46267163D01*
X7473986Y46278038D01*
X7471775Y46292222D01*
X7458617Y46296000D01*
X6412115Y46296000D01*
X6396876Y46291525D01*
X6395671Y46290135D01*
X6394000Y46282452D01*
X6394000Y45231483D01*
X5886000Y45231483D01*
X5886000Y46277885D01*
X5881525Y46293124D01*
X5880135Y46294329D01*
X5872452Y46296000D01*
X3872115Y46296000D01*
X3856876Y46291525D01*
X3855671Y46290135D01*
X3854000Y46282452D01*
X3854000Y45210116D01*
X3346000Y45210116D01*
X3346000Y46277885D01*
X3341525Y46293124D01*
X3340135Y46294329D01*
X3332452Y46296000D01*
X2260116Y46296000D01*
X2244877Y46291525D01*
X2243672Y46290135D01*
X2242001Y46282452D01*
X2242001Y45655331D01*
X254000Y45655331D01*
X254000Y46822115D01*
X2242000Y46822115D01*
X2246475Y46806876D01*
X2247865Y46805671D01*
X2255548Y46804000D01*
X3327885Y46804000D01*
X3343124Y46808475D01*
X3344329Y46809865D01*
X3346000Y46817548D01*
X3346000Y46822115D01*
X3854000Y46822115D01*
X3858475Y46806876D01*
X3859865Y46805671D01*
X3867548Y46804000D01*
X5867885Y46804000D01*
X5883124Y46808475D01*
X5884329Y46809865D01*
X5886000Y46817548D01*
X5886000Y46822115D01*
X6394000Y46822115D01*
X6398475Y46806876D01*
X6399865Y46805671D01*
X6407548Y46804000D01*
X7458344Y46804000D01*
X7471875Y46807973D01*
X7473180Y46817053D01*
X7431214Y46984125D01*
X7427894Y46993876D01*
X7342972Y47189186D01*
X7338105Y47198261D01*
X7222426Y47377074D01*
X7216136Y47385243D01*
X7072806Y47542760D01*
X7065273Y47549785D01*
X6898139Y47681778D01*
X6889552Y47687483D01*
X6703117Y47790401D01*
X6693705Y47794631D01*
X6492959Y47865720D01*
X6482988Y47868354D01*
X6411837Y47881028D01*
X6398540Y47879568D01*
X6394000Y47865011D01*
X6394000Y46822115D01*
X5886000Y46822115D01*
X5886000Y47866898D01*
X5882082Y47880242D01*
X5867806Y47882229D01*
X5829324Y47876340D01*
X5819288Y47873949D01*
X5616868Y47807788D01*
X5607359Y47803791D01*
X5418463Y47705458D01*
X5409738Y47699964D01*
X5239433Y47572095D01*
X5231726Y47565252D01*
X5154094Y47484015D01*
X5092570Y47448585D01*
X5021657Y47452042D01*
X4963871Y47493288D01*
X4945018Y47526836D01*
X4903324Y47638054D01*
X4894786Y47653649D01*
X4818285Y47755724D01*
X4805724Y47768285D01*
X4703649Y47844786D01*
X4688054Y47853324D01*
X4567606Y47898478D01*
X4552351Y47902105D01*
X4501486Y47907631D01*
X4494672Y47908000D01*
X3872115Y47908000D01*
X3856876Y47903525D01*
X3855671Y47902135D01*
X3854000Y47894452D01*
X3854000Y46822115D01*
X3346000Y46822115D01*
X3346000Y47889884D01*
X3341525Y47905123D01*
X3340135Y47906328D01*
X3332452Y47907999D01*
X2705331Y47907999D01*
X2698510Y47907629D01*
X2647648Y47902105D01*
X2632396Y47898479D01*
X2511946Y47853324D01*
X2496351Y47844786D01*
X2394276Y47768285D01*
X2381715Y47755724D01*
X2305214Y47653649D01*
X2296676Y47638054D01*
X2251522Y47517606D01*
X2247895Y47502351D01*
X2242369Y47451486D01*
X2242000Y47444672D01*
X2242000Y46822115D01*
X254000Y46822115D01*
X254000Y49070000D01*
X274002Y49138121D01*
X327658Y49184614D01*
X380000Y49196000D01*
X19375550Y49196000D01*
X19443671Y49175998D01*
G37*
%TD.AperFunction*%
%TD*%
M02*
