M48
; DRILL file {KiCad (6.0.10)} date Wed Jan  4 10:24:14 2023
; FORMAT={-:-/ absolute / inch / decimal}
; #@! TF.CreationDate,2023-01-04T10:24:14-08:00
; #@! TF.GenerationSoftware,Kicad,Pcbnew,(6.0.10)
; #@! TF.FileFunction,Plated,1,2,PTH
FMAT,2
INCH
; #@! TA.AperFunction,Plated,PTH,ViaDrill
T1C0.0157
; #@! TA.AperFunction,Plated,PTH,ComponentDrill
T2C0.0315
; #@! TA.AperFunction,Plated,PTH,ComponentDrill
T3C0.0394
%
G90
G05
T1
X0.063Y0.8268
X0.1181Y0.378
X0.126Y0.4567
X0.2992Y1.6378
X0.315Y0.1339
X0.3543Y0.7087
X0.4252Y1.063
X0.4331Y1.4961
X0.4803Y1.685
X0.5039Y0.8819
X0.5039Y0.5039
X0.5039Y0.3937
X0.5354Y0.2283
X0.5433Y1.3386
X0.6614Y0.5669
X0.6614Y0.3858
X0.6614Y0.2441
X0.6693Y0.4488
X0.7874Y0.9528
X0.8346Y1.3228
X0.8425Y1.1496
X0.8504Y0.4724
X0.874Y1.6772
X0.9213Y1.3465
X0.9606Y0.748
X0.9685Y0.5827
X1.0787Y0.5118
X1.0787Y0.4331
X1.0787Y0.3465
X1.1417Y0.9449
X1.1969Y1.1417
X1.2126Y1.3228
X1.2441Y1.6772
X1.2913Y1.3465
X1.2913Y0.1811
X1.3307Y0.7559
X1.4488Y0.5354
X1.4646Y0.4409
X1.4803Y0.2677
X1.6063Y0.6693
X1.6063Y0.2756
X1.6142Y1.2756
X1.6142Y0.4882
X1.6142Y0.4252
X1.6378Y1.2047
X1.7402Y0.1575
X1.7874Y0.4882
X1.8976Y0.0787
X1.9213Y0.2441
X1.9921Y0.3543
X2.0236Y0.4409
X2.0394Y1.4173
X2.2441Y0.2441
X2.2992Y0.9606
X2.315Y0.0866
X2.3622Y1.2598
X2.3701Y0.7795
X2.4016Y0.6614
X2.4094Y0.4488
X2.4724Y1.4488
X2.4882Y1.5512
X2.5197Y0.8976
X2.5591Y1.189
X2.5669Y0.252
X2.5748Y0.4724
X2.5827Y0.5669
X2.7559Y0.378
X2.7795Y0.1496
X2.7874Y0.4803
T2
X1.7915Y1.6693
X1.8396Y1.3972
X1.8396Y1.2972
X1.8396Y1.1972
X1.89Y1.6693
X2.6691Y1.378
X2.7675Y1.378
T3
X0.126Y1.6955
X0.126Y1.5955
X0.2333Y1.3575
X0.2333Y1.2575
X0.2333Y1.1575
X0.4301Y0.1315
X0.5301Y0.1315
X0.7923Y0.0866
X0.8923Y0.0866
X1.3953Y0.1315
X1.4953Y0.1315
X1.7868Y0.911
X1.8868Y0.911
X2.1388Y1.6669
X2.2388Y1.6669
X2.5876Y0.0866
X2.6299Y1.6693
X2.6663Y1.103
X2.6663Y1.003
X2.6876Y0.0866
X2.7299Y1.6693
T0
M30
