%TF.GenerationSoftware,KiCad,Pcbnew,(6.0.2)*%
%TF.CreationDate,2022-11-21T15:27:55-08:00*%
%TF.ProjectId,si514_clock,73693531-345f-4636-9c6f-636b2e6b6963,rev?*%
%TF.SameCoordinates,PX86903e0PY67ceb50*%
%TF.FileFunction,Copper,L1,Top*%
%TF.FilePolarity,Positive*%
%FSLAX46Y46*%
G04 Gerber Fmt 4.6, Leading zero omitted, Abs format (unit mm)*
G04 Created by KiCad (PCBNEW (6.0.2)) date 2022-11-21 15:27:55*
%MOMM*%
%LPD*%
G01*
G04 APERTURE LIST*
G04 Aperture macros list*
%AMRoundRect*
0 Rectangle with rounded corners*
0 $1 Rounding radius*
0 $2 $3 $4 $5 $6 $7 $8 $9 X,Y pos of 4 corners*
0 Add a 4 corners polygon primitive as box body*
4,1,4,$2,$3,$4,$5,$6,$7,$8,$9,$2,$3,0*
0 Add four circle primitives for the rounded corners*
1,1,$1+$1,$2,$3*
1,1,$1+$1,$4,$5*
1,1,$1+$1,$6,$7*
1,1,$1+$1,$8,$9*
0 Add four rect primitives between the rounded corners*
20,1,$1+$1,$2,$3,$4,$5,0*
20,1,$1+$1,$4,$5,$6,$7,0*
20,1,$1+$1,$6,$7,$8,$9,0*
20,1,$1+$1,$8,$9,$2,$3,0*%
G04 Aperture macros list end*
%TA.AperFunction,SMDPad,CuDef*%
%ADD10R,3.600000X1.270000*%
%TD*%
%TA.AperFunction,SMDPad,CuDef*%
%ADD11R,4.200000X1.350000*%
%TD*%
%TA.AperFunction,ComponentPad*%
%ADD12R,1.700000X1.700000*%
%TD*%
%TA.AperFunction,ComponentPad*%
%ADD13O,1.700000X1.700000*%
%TD*%
%TA.AperFunction,SMDPad,CuDef*%
%ADD14R,1.700000X0.800000*%
%TD*%
%TA.AperFunction,SMDPad,CuDef*%
%ADD15RoundRect,0.237500X-0.237500X0.250000X-0.237500X-0.250000X0.237500X-0.250000X0.237500X0.250000X0*%
%TD*%
%TA.AperFunction,SMDPad,CuDef*%
%ADD16RoundRect,0.237500X0.237500X-0.300000X0.237500X0.300000X-0.237500X0.300000X-0.237500X-0.300000X0*%
%TD*%
%TA.AperFunction,ViaPad*%
%ADD17C,0.800000*%
%TD*%
%TA.AperFunction,Conductor*%
%ADD18C,0.609600*%
%TD*%
G04 APERTURE END LIST*
D10*
%TO.P,J7,1,In*%
%TO.N,/CLK+*%
X25800000Y10350000D03*
D11*
%TO.P,J7,2,Ext*%
%TO.N,GND*%
X25600000Y13175000D03*
X25600000Y7525000D03*
%TD*%
D12*
%TO.P,J8,1,Pin_1*%
%TO.N,/CLK+*%
X17750000Y8050000D03*
D13*
%TO.P,J8,2,Pin_2*%
%TO.N,GND*%
X15210000Y8050000D03*
%TD*%
D10*
%TO.P,J6,1,In*%
%TO.N,/CLK-*%
X25800000Y22000000D03*
D11*
%TO.P,J6,2,Ext*%
%TO.N,GND*%
X25600000Y24825000D03*
X25600000Y19175000D03*
%TD*%
D14*
%TO.P,U1,1,SDA*%
%TO.N,/SDA*%
X15350000Y16220000D03*
%TO.P,U1,2,SCL*%
%TO.N,/SCL*%
X15350000Y14950000D03*
%TO.P,U1,3,GND*%
%TO.N,GND*%
X15350000Y13680000D03*
%TO.P,U1,4,CLK+*%
%TO.N,/CLK+*%
X17950000Y13680000D03*
%TO.P,U1,5,CLK-*%
%TO.N,/CLK-*%
X17950000Y14950000D03*
%TO.P,U1,6,VDD*%
%TO.N,/VDD3.3*%
X17950000Y16220000D03*
%TD*%
D12*
%TO.P,J9,1,Pin_1*%
%TO.N,/CLK-*%
X17740000Y25200000D03*
D13*
%TO.P,J9,2,Pin_2*%
%TO.N,GND*%
X15200000Y25200000D03*
%TD*%
D12*
%TO.P,J3,1,Pin_1*%
%TO.N,GND*%
X3175000Y29250000D03*
D13*
%TO.P,J3,2,Pin_2*%
X5715000Y29250000D03*
%TD*%
D12*
%TO.P,J1,1,Pin_1*%
%TO.N,GND*%
X3200000Y3150000D03*
D13*
%TO.P,J1,2,Pin_2*%
X5740000Y3150000D03*
%TD*%
D15*
%TO.P,R2,1*%
%TO.N,/VDD3.3*%
X11900000Y20262500D03*
%TO.P,R2,2*%
%TO.N,/SDA*%
X11900000Y18437500D03*
%TD*%
D12*
%TO.P,J2,1,Pin_1*%
%TO.N,GND*%
X21825000Y2850000D03*
D13*
%TO.P,J2,2,Pin_2*%
X24365000Y2850000D03*
%TD*%
D12*
%TO.P,J5,1,Pin_1*%
%TO.N,/VDD3.3*%
X3350000Y20050000D03*
D13*
%TO.P,J5,2,Pin_2*%
%TO.N,GND*%
X3350000Y17510000D03*
%TO.P,J5,3,Pin_3*%
%TO.N,/SCL*%
X3350000Y14970000D03*
%TO.P,J5,4,Pin_4*%
%TO.N,/SDA*%
X3350000Y12430000D03*
%TD*%
D15*
%TO.P,R1,1*%
%TO.N,/VDD3.3*%
X8550000Y20262500D03*
%TO.P,R1,2*%
%TO.N,/SCL*%
X8550000Y18437500D03*
%TD*%
D16*
%TO.P,C1,1*%
%TO.N,/VDD3.3*%
X17950000Y19487500D03*
%TO.P,C1,2*%
%TO.N,GND*%
X17950000Y21212500D03*
%TD*%
D12*
%TO.P,J4,1,Pin_1*%
%TO.N,GND*%
X22825000Y29450000D03*
D13*
%TO.P,J4,2,Pin_2*%
X25365000Y29450000D03*
%TD*%
D17*
%TO.N,GND*%
X14600000Y29400000D03*
X6250000Y17350000D03*
X6800000Y8200000D03*
X21600000Y7300000D03*
X24400000Y16150000D03*
X16300000Y20800000D03*
X14000000Y12100001D03*
%TO.N,/SDA*%
X12200000Y13400000D03*
X10300000Y16700000D03*
%TD*%
D18*
%TO.N,/VDD3.3*%
X15900000Y18750000D02*
X14387500Y20262500D01*
X17212500Y18750000D02*
X15900000Y18750000D01*
X17950000Y19487500D02*
X17212500Y18750000D01*
X17950000Y16220000D02*
X17950000Y19487500D01*
X14387500Y20262500D02*
X11900000Y20262500D01*
%TO.N,/CLK-*%
X21750000Y20200000D02*
X23550000Y22000000D01*
X23550000Y22000000D02*
X25850000Y22000000D01*
%TO.N,/VDD3.3*%
X6762500Y20262500D02*
X8550000Y20262500D01*
X11900000Y20262500D02*
X8550000Y20262500D01*
X3350000Y20050000D02*
X6550000Y20050000D01*
X6550000Y20050000D02*
X6762500Y20262500D01*
%TO.N,/SCL*%
X7620000Y14970000D02*
X8550000Y15900000D01*
X9500000Y14950000D02*
X15350000Y14950000D01*
X3350000Y14970000D02*
X7620000Y14970000D01*
X8550000Y18437500D02*
X8550000Y15900000D01*
X8550000Y15900000D02*
X9500000Y14950000D01*
%TO.N,/SDA*%
X10300000Y18050000D02*
X10687500Y18437500D01*
X12530000Y16220000D02*
X15350000Y16220000D01*
X11280000Y12430000D02*
X11750000Y12900000D01*
X10687500Y18437500D02*
X11900000Y18437500D01*
X11900000Y18437500D02*
X11900000Y16850000D01*
X12200000Y13350000D02*
X12200000Y13400000D01*
X11900000Y16850000D02*
X12530000Y16220000D01*
X10300000Y16700000D02*
X10300000Y18050000D01*
X3350000Y12430000D02*
X11280000Y12430000D01*
X11750000Y12900000D02*
X12200000Y13350000D01*
%TO.N,/CLK+*%
X22750000Y10900000D02*
X23300000Y10350000D01*
X17750000Y8050000D02*
X19900000Y8050000D01*
X23300000Y10350000D02*
X25800000Y10350000D01*
X17950000Y13680000D02*
X19970000Y13680000D01*
X19900000Y8050000D02*
X22750000Y10900000D01*
X19970000Y13680000D02*
X22750000Y10900000D01*
%TO.N,/CLK-*%
X19700000Y14950000D02*
X21150000Y16400000D01*
X21750000Y22850000D02*
X21750000Y20200000D01*
X21150000Y16400000D02*
X21150000Y19600000D01*
X17740000Y25200000D02*
X19400000Y25200000D01*
X21150000Y19600000D02*
X21750000Y20200000D01*
X17950000Y14950000D02*
X19700000Y14950000D01*
X19400000Y25200000D02*
X21750000Y22850000D01*
%TD*%
%TA.AperFunction,Conductor*%
%TO.N,GND*%
G36*
X27634121Y31721998D02*
G01*
X27680614Y31668342D01*
X27692000Y31616000D01*
X27692000Y26134000D01*
X27671998Y26065879D01*
X27618342Y26019386D01*
X27566000Y26008000D01*
X25872115Y26008000D01*
X25856876Y26003525D01*
X25855671Y26002135D01*
X25854000Y25994452D01*
X25854000Y23660116D01*
X25858475Y23644877D01*
X25859865Y23643672D01*
X25867548Y23642001D01*
X27566000Y23642001D01*
X27634121Y23621999D01*
X27680614Y23568343D01*
X27692000Y23516001D01*
X27692000Y23269500D01*
X27671998Y23201379D01*
X27618342Y23154886D01*
X27566000Y23143500D01*
X23951866Y23143500D01*
X23889684Y23136745D01*
X23753295Y23085615D01*
X23636739Y22998261D01*
X23549385Y22881705D01*
X23547014Y22875381D01*
X23497547Y22826025D01*
X23463909Y22813525D01*
X23424626Y22805033D01*
X23412050Y22802974D01*
X23375682Y22798894D01*
X23375673Y22798892D01*
X23368675Y22798107D01*
X23355770Y22793613D01*
X23336769Y22786997D01*
X23321962Y22782835D01*
X23302671Y22778664D01*
X23288949Y22775697D01*
X23282564Y22772720D01*
X23282562Y22772719D01*
X23270881Y22767272D01*
X23249386Y22757249D01*
X23237593Y22752460D01*
X23196361Y22738101D01*
X23190386Y22734367D01*
X23190383Y22734366D01*
X23167710Y22720199D01*
X23154193Y22712860D01*
X23123581Y22698585D01*
X23098595Y22679204D01*
X23089090Y22671831D01*
X23078636Y22664538D01*
X23041624Y22641411D01*
X23036625Y22636446D01*
X23036623Y22636445D01*
X23012656Y22612644D01*
X23012018Y22612047D01*
X23011347Y22611527D01*
X22985089Y22585269D01*
X22912154Y22512841D01*
X22911494Y22511800D01*
X22910385Y22510565D01*
X22778395Y22378575D01*
X22716083Y22344549D01*
X22645268Y22349614D01*
X22588432Y22392161D01*
X22563621Y22458681D01*
X22563300Y22467670D01*
X22563300Y22840737D01*
X22563307Y22842056D01*
X22564182Y22925661D01*
X22564256Y22932709D01*
X22555032Y22975370D01*
X22552972Y22987949D01*
X22548892Y23024329D01*
X22548891Y23024332D01*
X22548107Y23031325D01*
X22536998Y23063226D01*
X22532836Y23078036D01*
X22527187Y23104162D01*
X22525698Y23111051D01*
X22522719Y23117440D01*
X22507246Y23150623D01*
X22502450Y23162434D01*
X22488101Y23203639D01*
X22470208Y23232274D01*
X22462869Y23245791D01*
X22451565Y23270031D01*
X22451564Y23270033D01*
X22448586Y23276419D01*
X22421827Y23310916D01*
X22414540Y23321361D01*
X22391411Y23358376D01*
X22362644Y23387344D01*
X22362047Y23387982D01*
X22361527Y23388653D01*
X22335269Y23414911D01*
X22262841Y23487846D01*
X22261800Y23488506D01*
X22260565Y23489615D01*
X21644849Y24105331D01*
X22992001Y24105331D01*
X22992371Y24098510D01*
X22997895Y24047648D01*
X23001521Y24032396D01*
X23046676Y23911946D01*
X23055214Y23896351D01*
X23131715Y23794276D01*
X23144276Y23781715D01*
X23246351Y23705214D01*
X23261946Y23696676D01*
X23382394Y23651522D01*
X23397649Y23647895D01*
X23448514Y23642369D01*
X23455328Y23642000D01*
X25327885Y23642000D01*
X25343124Y23646475D01*
X25344329Y23647865D01*
X25346000Y23655548D01*
X25346000Y24552885D01*
X25341525Y24568124D01*
X25340135Y24569329D01*
X25332452Y24571000D01*
X23010116Y24571000D01*
X22994877Y24566525D01*
X22993672Y24565135D01*
X22992001Y24557452D01*
X22992001Y24105331D01*
X21644849Y24105331D01*
X20653065Y25097115D01*
X22992000Y25097115D01*
X22996475Y25081876D01*
X22997865Y25080671D01*
X23005548Y25079000D01*
X25327885Y25079000D01*
X25343124Y25083475D01*
X25344329Y25084865D01*
X25346000Y25092548D01*
X25346000Y25989884D01*
X25341525Y26005123D01*
X25340135Y26006328D01*
X25332452Y26007999D01*
X23455331Y26007999D01*
X23448510Y26007629D01*
X23397648Y26002105D01*
X23382396Y25998479D01*
X23261946Y25953324D01*
X23246351Y25944786D01*
X23144276Y25868285D01*
X23131715Y25855724D01*
X23055214Y25753649D01*
X23046676Y25738054D01*
X23001522Y25617606D01*
X22997895Y25602351D01*
X22992369Y25551486D01*
X22992000Y25544672D01*
X22992000Y25097115D01*
X20653065Y25097115D01*
X19981711Y25768469D01*
X19980782Y25769406D01*
X19922210Y25829218D01*
X19922209Y25829219D01*
X19917282Y25834250D01*
X19911364Y25838064D01*
X19911359Y25838068D01*
X19880593Y25857895D01*
X19870240Y25865334D01*
X19841634Y25888170D01*
X19836131Y25892563D01*
X19829791Y25895628D01*
X19829786Y25895631D01*
X19805721Y25907265D01*
X19792308Y25914792D01*
X19769836Y25929274D01*
X19769829Y25929277D01*
X19763910Y25933092D01*
X19722889Y25948023D01*
X19711149Y25952982D01*
X19678199Y25968911D01*
X19678197Y25968912D01*
X19671856Y25971977D01*
X19638936Y25979577D01*
X19624201Y25983943D01*
X19599072Y25993089D01*
X19599066Y25993091D01*
X19592451Y25995498D01*
X19568081Y25998576D01*
X19549141Y26000969D01*
X19536600Y26003203D01*
X19494070Y26013022D01*
X19487024Y26013047D01*
X19487021Y26013047D01*
X19453259Y26013165D01*
X19452366Y26013195D01*
X19451530Y26013300D01*
X19414594Y26013300D01*
X19414154Y26013301D01*
X19315154Y26013647D01*
X19315147Y26013647D01*
X19311608Y26013659D01*
X19310402Y26013389D01*
X19308753Y26013300D01*
X19220769Y26013300D01*
X19152648Y26033302D01*
X19106155Y26086958D01*
X19095506Y26125693D01*
X19092598Y26152460D01*
X19091745Y26160316D01*
X19040615Y26296705D01*
X18953261Y26413261D01*
X18836705Y26500615D01*
X18700316Y26551745D01*
X18638134Y26558500D01*
X16841866Y26558500D01*
X16779684Y26551745D01*
X16643295Y26500615D01*
X16526739Y26413261D01*
X16439385Y26296705D01*
X16436233Y26288297D01*
X16436232Y26288295D01*
X16394722Y26177567D01*
X16352081Y26120802D01*
X16285519Y26096102D01*
X16216170Y26111309D01*
X16183546Y26136996D01*
X16132799Y26192766D01*
X16125273Y26199785D01*
X15958139Y26331778D01*
X15949552Y26337483D01*
X15763117Y26440401D01*
X15753705Y26444631D01*
X15552959Y26515720D01*
X15542988Y26518354D01*
X15471837Y26531028D01*
X15458540Y26529568D01*
X15454000Y26515011D01*
X15454000Y23881483D01*
X15458064Y23867641D01*
X15471478Y23865607D01*
X15478184Y23866466D01*
X15488262Y23868608D01*
X15692255Y23929809D01*
X15701842Y23933567D01*
X15893095Y24027261D01*
X15901945Y24032536D01*
X16075328Y24156208D01*
X16083193Y24162855D01*
X16187897Y24267195D01*
X16250268Y24301111D01*
X16321075Y24295923D01*
X16377837Y24253277D01*
X16394819Y24222174D01*
X16417057Y24162855D01*
X16439385Y24103295D01*
X16526739Y23986739D01*
X16643295Y23899385D01*
X16779684Y23848255D01*
X16841866Y23841500D01*
X18638134Y23841500D01*
X18700316Y23848255D01*
X18836705Y23899385D01*
X18953261Y23986739D01*
X19040615Y24103295D01*
X19055330Y24142547D01*
X19097971Y24199312D01*
X19164532Y24224012D01*
X19233881Y24208805D01*
X19262407Y24187413D01*
X20899795Y22550025D01*
X20933821Y22487713D01*
X20936700Y22460930D01*
X20936700Y20589070D01*
X20916698Y20520949D01*
X20899795Y20499975D01*
X20581531Y20181711D01*
X20580594Y20180782D01*
X20515750Y20117282D01*
X20511936Y20111364D01*
X20511932Y20111359D01*
X20492105Y20080593D01*
X20484666Y20070240D01*
X20457437Y20036131D01*
X20454372Y20029791D01*
X20454369Y20029786D01*
X20442735Y20005721D01*
X20435208Y19992308D01*
X20420726Y19969836D01*
X20420723Y19969829D01*
X20416908Y19963910D01*
X20414498Y19957290D01*
X20414498Y19957289D01*
X20401979Y19922893D01*
X20397019Y19911152D01*
X20378023Y19871856D01*
X20370423Y19838936D01*
X20366057Y19824201D01*
X20356911Y19799072D01*
X20356909Y19799066D01*
X20354502Y19792451D01*
X20353620Y19785468D01*
X20349031Y19749141D01*
X20346797Y19736600D01*
X20336978Y19694070D01*
X20336953Y19687024D01*
X20336953Y19687021D01*
X20336835Y19653259D01*
X20336805Y19652366D01*
X20336700Y19651530D01*
X20336700Y19614594D01*
X20336699Y19614154D01*
X20336532Y19566179D01*
X20336341Y19511608D01*
X20336611Y19510402D01*
X20336700Y19508753D01*
X20336700Y16789070D01*
X20316698Y16720949D01*
X20299795Y16699974D01*
X19523595Y15923775D01*
X19461283Y15889750D01*
X19390467Y15894815D01*
X19333632Y15937362D01*
X19308821Y16003882D01*
X19308500Y16012871D01*
X19308500Y16668134D01*
X19301745Y16730316D01*
X19250615Y16866705D01*
X19163261Y16983261D01*
X19046705Y17070615D01*
X18910316Y17121745D01*
X18875692Y17125506D01*
X18810131Y17152747D01*
X18769704Y17211110D01*
X18763300Y17250769D01*
X18763300Y18664173D01*
X18782040Y18730289D01*
X18788214Y18740304D01*
X18868209Y18870080D01*
X18922974Y19035191D01*
X18924459Y19049678D01*
X18933172Y19134729D01*
X18933500Y19137928D01*
X18933500Y19837072D01*
X18933163Y19840322D01*
X18923419Y19934235D01*
X18923418Y19934239D01*
X18922707Y19941093D01*
X18901146Y20005721D01*
X18869972Y20099159D01*
X18867654Y20106107D01*
X18776116Y20254031D01*
X18768861Y20261274D01*
X18767895Y20263038D01*
X18766387Y20264941D01*
X18766713Y20265199D01*
X18734781Y20323554D01*
X18739782Y20394375D01*
X18768708Y20439470D01*
X18771364Y20442131D01*
X18780375Y20453540D01*
X18863912Y20589063D01*
X18870056Y20602241D01*
X18920315Y20753766D01*
X18923181Y20767132D01*
X18932672Y20859770D01*
X18933000Y20866185D01*
X18933000Y20940385D01*
X18928525Y20955624D01*
X18927135Y20956829D01*
X18919452Y20958500D01*
X16985115Y20958500D01*
X16969876Y20954025D01*
X16968671Y20952635D01*
X16967000Y20944952D01*
X16967000Y20866234D01*
X16967337Y20859718D01*
X16977075Y20765868D01*
X16979968Y20752472D01*
X17030488Y20601047D01*
X17036653Y20587885D01*
X17120426Y20452508D01*
X17129464Y20441106D01*
X17131139Y20439433D01*
X17131919Y20438007D01*
X17134007Y20435373D01*
X17133556Y20435016D01*
X17165219Y20377151D01*
X17160216Y20306331D01*
X17131299Y20261246D01*
X17129260Y20259203D01*
X17123071Y20253003D01*
X17119231Y20246773D01*
X17119230Y20246772D01*
X17036364Y20112338D01*
X17031791Y20104920D01*
X16977026Y19939809D01*
X16976326Y19932973D01*
X16976325Y19932970D01*
X16972401Y19894672D01*
X16966500Y19837072D01*
X16966500Y19706370D01*
X16946498Y19638249D01*
X16929595Y19617275D01*
X16912525Y19600205D01*
X16850213Y19566179D01*
X16823430Y19563300D01*
X16289070Y19563300D01*
X16220949Y19583302D01*
X16199975Y19600205D01*
X14969211Y20830969D01*
X14968282Y20831906D01*
X14909710Y20891718D01*
X14909709Y20891719D01*
X14904782Y20896750D01*
X14898864Y20900564D01*
X14898859Y20900568D01*
X14868093Y20920395D01*
X14857740Y20927834D01*
X14829134Y20950670D01*
X14823631Y20955063D01*
X14817291Y20958128D01*
X14817286Y20958131D01*
X14793221Y20969765D01*
X14779808Y20977292D01*
X14757336Y20991774D01*
X14757329Y20991777D01*
X14751410Y20995592D01*
X14710389Y21010523D01*
X14698649Y21015482D01*
X14695398Y21017054D01*
X14686093Y21021552D01*
X14665699Y21031411D01*
X14665697Y21031412D01*
X14659356Y21034477D01*
X14626436Y21042077D01*
X14611701Y21046443D01*
X14586572Y21055589D01*
X14586566Y21055591D01*
X14579951Y21057998D01*
X14553067Y21061394D01*
X14536641Y21063469D01*
X14524100Y21065703D01*
X14481570Y21075522D01*
X14474524Y21075547D01*
X14474521Y21075547D01*
X14440759Y21075665D01*
X14439866Y21075695D01*
X14439030Y21075800D01*
X14402094Y21075800D01*
X14401654Y21075801D01*
X14302654Y21076147D01*
X14302647Y21076147D01*
X14299108Y21076159D01*
X14297902Y21075889D01*
X14296253Y21075800D01*
X12678475Y21075800D01*
X12610354Y21095802D01*
X12606098Y21098840D01*
X12603003Y21101929D01*
X12454920Y21193209D01*
X12289809Y21247974D01*
X12282973Y21248674D01*
X12282970Y21248675D01*
X12231474Y21253951D01*
X12187072Y21258500D01*
X11612928Y21258500D01*
X11609682Y21258163D01*
X11609678Y21258163D01*
X11515765Y21248419D01*
X11515761Y21248418D01*
X11508907Y21247707D01*
X11502371Y21245526D01*
X11502369Y21245526D01*
X11369605Y21201232D01*
X11343893Y21192654D01*
X11195969Y21101116D01*
X11195774Y21101432D01*
X11133966Y21076417D01*
X11121515Y21075800D01*
X9328475Y21075800D01*
X9260354Y21095802D01*
X9256098Y21098840D01*
X9253003Y21101929D01*
X9104920Y21193209D01*
X8939809Y21247974D01*
X8932973Y21248674D01*
X8932970Y21248675D01*
X8881474Y21253951D01*
X8837072Y21258500D01*
X8262928Y21258500D01*
X8259682Y21258163D01*
X8259678Y21258163D01*
X8165765Y21248419D01*
X8165761Y21248418D01*
X8158907Y21247707D01*
X8152371Y21245526D01*
X8152369Y21245526D01*
X8019605Y21201232D01*
X7993893Y21192654D01*
X7845969Y21101116D01*
X7845774Y21101432D01*
X7783966Y21076417D01*
X7771515Y21075800D01*
X6771717Y21075800D01*
X6770397Y21075807D01*
X6769289Y21075819D01*
X6679791Y21076756D01*
X6672909Y21075268D01*
X6672908Y21075268D01*
X6637128Y21067533D01*
X6624550Y21065474D01*
X6588182Y21061394D01*
X6588173Y21061392D01*
X6581175Y21060607D01*
X6573683Y21057998D01*
X6549269Y21049497D01*
X6534462Y21045335D01*
X6519376Y21042073D01*
X6501449Y21038197D01*
X6495064Y21035220D01*
X6495062Y21035219D01*
X6493471Y21034477D01*
X6461886Y21019749D01*
X6450093Y21014960D01*
X6408861Y21000601D01*
X6402886Y20996867D01*
X6402883Y20996866D01*
X6380210Y20982699D01*
X6366693Y20975360D01*
X6336081Y20961085D01*
X6319385Y20948134D01*
X6301590Y20934331D01*
X6291136Y20927038D01*
X6254124Y20903911D01*
X6249124Y20898946D01*
X6243602Y20894569D01*
X6242593Y20895842D01*
X6187650Y20866087D01*
X6161295Y20863300D01*
X4830769Y20863300D01*
X4762648Y20883302D01*
X4716155Y20936958D01*
X4705506Y20975693D01*
X4703759Y20991774D01*
X4701745Y21010316D01*
X4650615Y21146705D01*
X4563261Y21263261D01*
X4446705Y21350615D01*
X4310316Y21401745D01*
X4248134Y21408500D01*
X2451866Y21408500D01*
X2389684Y21401745D01*
X2253295Y21350615D01*
X2136739Y21263261D01*
X2049385Y21146705D01*
X1998255Y21010316D01*
X1991500Y20948134D01*
X1991500Y19151866D01*
X1998255Y19089684D01*
X2049385Y18953295D01*
X2136739Y18836739D01*
X2253295Y18749385D01*
X2261704Y18746233D01*
X2261705Y18746232D01*
X2370960Y18705274D01*
X2427725Y18662633D01*
X2452425Y18596071D01*
X2437218Y18526722D01*
X2417825Y18500241D01*
X2294590Y18371283D01*
X2288104Y18363273D01*
X2168098Y18187351D01*
X2163000Y18178377D01*
X2073338Y17985217D01*
X2069775Y17975530D01*
X2014389Y17775817D01*
X2015912Y17767393D01*
X2028292Y17764000D01*
X4668344Y17764000D01*
X4681875Y17767973D01*
X4683180Y17777053D01*
X4641214Y17944125D01*
X4637894Y17953876D01*
X4552972Y18149186D01*
X4548105Y18158261D01*
X4432426Y18337074D01*
X4426136Y18345243D01*
X4282293Y18503323D01*
X4251241Y18567169D01*
X4259635Y18637667D01*
X4304812Y18692436D01*
X4331256Y18706105D01*
X4438297Y18746233D01*
X4446705Y18749385D01*
X4563261Y18836739D01*
X4650615Y18953295D01*
X4701745Y19089684D01*
X4705506Y19124308D01*
X4732747Y19189869D01*
X4791110Y19230296D01*
X4830769Y19236700D01*
X6540783Y19236700D01*
X6542104Y19236693D01*
X6632709Y19235744D01*
X6675370Y19244968D01*
X6687949Y19247028D01*
X6724329Y19251108D01*
X6724332Y19251109D01*
X6731325Y19251893D01*
X6763226Y19263002D01*
X6778036Y19267164D01*
X6811051Y19274302D01*
X6817440Y19277281D01*
X6850619Y19292752D01*
X6862429Y19297548D01*
X6869542Y19300025D01*
X6903639Y19311899D01*
X6932283Y19329798D01*
X6945792Y19337133D01*
X6976419Y19351415D01*
X7010910Y19378169D01*
X7021366Y19385463D01*
X7052400Y19404855D01*
X7058376Y19408589D01*
X7063376Y19413554D01*
X7068898Y19417931D01*
X7069907Y19416658D01*
X7124850Y19446413D01*
X7151205Y19449200D01*
X7714935Y19449200D01*
X7783056Y19429198D01*
X7829549Y19375542D01*
X7839653Y19305268D01*
X7810159Y19240688D01*
X7804108Y19234183D01*
X7728246Y19158188D01*
X7728242Y19158183D01*
X7723071Y19153003D01*
X7719231Y19146773D01*
X7719230Y19146772D01*
X7636364Y19012338D01*
X7631791Y19004920D01*
X7577026Y18839809D01*
X7566500Y18737072D01*
X7566500Y18137928D01*
X7566837Y18134682D01*
X7566837Y18134678D01*
X7574852Y18057437D01*
X7577293Y18033907D01*
X7579474Y18027371D01*
X7579474Y18027369D01*
X7613351Y17925829D01*
X7632346Y17868893D01*
X7636202Y17862662D01*
X7717844Y17730730D01*
X7736700Y17664427D01*
X7736700Y16289070D01*
X7716698Y16220949D01*
X7699795Y16199974D01*
X7320024Y15820204D01*
X7257712Y15786179D01*
X7230929Y15783300D01*
X4502483Y15783300D01*
X4434362Y15803302D01*
X4409290Y15824500D01*
X4283152Y15963124D01*
X4283142Y15963133D01*
X4279670Y15966949D01*
X4275619Y15970148D01*
X4275615Y15970152D01*
X4108414Y16102200D01*
X4108410Y16102202D01*
X4104359Y16105402D01*
X4062569Y16128471D01*
X4012598Y16178903D01*
X3997826Y16248346D01*
X4022942Y16314752D01*
X4050294Y16341359D01*
X4225328Y16466208D01*
X4233200Y16472861D01*
X4384052Y16623188D01*
X4390730Y16631035D01*
X4515003Y16803980D01*
X4520313Y16812817D01*
X4614670Y17003733D01*
X4618469Y17013328D01*
X4680377Y17217090D01*
X4682555Y17227163D01*
X4683986Y17238038D01*
X4681775Y17252222D01*
X4668617Y17256000D01*
X2033225Y17256000D01*
X2019694Y17252027D01*
X2018257Y17242034D01*
X2048565Y17107554D01*
X2051645Y17097725D01*
X2131770Y16900397D01*
X2136413Y16891206D01*
X2247694Y16709612D01*
X2253777Y16701301D01*
X2393213Y16540333D01*
X2400580Y16533117D01*
X2564434Y16397084D01*
X2572881Y16391169D01*
X2641969Y16350797D01*
X2690693Y16299158D01*
X2703764Y16229375D01*
X2677033Y16163604D01*
X2636584Y16130248D01*
X2623607Y16123493D01*
X2619474Y16120390D01*
X2619471Y16120388D01*
X2449100Y15992470D01*
X2444965Y15989365D01*
X2415343Y15958367D01*
X2307263Y15845268D01*
X2290629Y15827862D01*
X2287715Y15823590D01*
X2287714Y15823589D01*
X2263732Y15788432D01*
X2164743Y15643320D01*
X2070688Y15440695D01*
X2010989Y15225430D01*
X1987251Y15003305D01*
X2000110Y14780285D01*
X2001247Y14775239D01*
X2001248Y14775233D01*
X2019386Y14694751D01*
X2049222Y14562361D01*
X2099497Y14438547D01*
X2122873Y14380980D01*
X2133266Y14355384D01*
X2163858Y14305463D01*
X2242923Y14176440D01*
X2249987Y14164912D01*
X2396250Y13996062D01*
X2568126Y13853368D01*
X2638595Y13812189D01*
X2641445Y13810524D01*
X2690169Y13758886D01*
X2703240Y13689103D01*
X2676509Y13623331D01*
X2636055Y13589973D01*
X2623607Y13583493D01*
X2619474Y13580390D01*
X2619471Y13580388D01*
X2595247Y13562200D01*
X2444965Y13449365D01*
X2290629Y13287862D01*
X2164743Y13103320D01*
X2162564Y13098625D01*
X2075638Y12911358D01*
X2070688Y12900695D01*
X2010989Y12685430D01*
X1987251Y12463305D01*
X1987548Y12458152D01*
X1987548Y12458149D01*
X1991916Y12382396D01*
X2000110Y12240285D01*
X2001247Y12235239D01*
X2001248Y12235233D01*
X2021747Y12144276D01*
X2049222Y12022361D01*
X2110673Y11871024D01*
X2121350Y11844731D01*
X2133266Y11815384D01*
X2135965Y11810980D01*
X2219019Y11675448D01*
X2249987Y11624912D01*
X2396250Y11456062D01*
X2568126Y11313368D01*
X2761000Y11200662D01*
X2969692Y11120970D01*
X2974760Y11119939D01*
X2974763Y11119938D01*
X3082017Y11098117D01*
X3188597Y11076433D01*
X3193772Y11076243D01*
X3193774Y11076243D01*
X3406673Y11068436D01*
X3406677Y11068436D01*
X3411837Y11068247D01*
X3416957Y11068903D01*
X3416959Y11068903D01*
X3628288Y11095975D01*
X3628289Y11095975D01*
X3633416Y11096632D01*
X3638366Y11098117D01*
X3842429Y11159339D01*
X3842434Y11159341D01*
X3847384Y11160826D01*
X4047994Y11259104D01*
X4229860Y11388827D01*
X4281867Y11440652D01*
X4346325Y11504886D01*
X4388096Y11546511D01*
X4400827Y11564228D01*
X4456822Y11607875D01*
X4503148Y11616700D01*
X11270783Y11616700D01*
X11272104Y11616693D01*
X11362709Y11615744D01*
X11405370Y11624968D01*
X11417949Y11627028D01*
X11454329Y11631108D01*
X11454332Y11631109D01*
X11461325Y11631893D01*
X11493226Y11643002D01*
X11508036Y11647164D01*
X11541051Y11654302D01*
X11547440Y11657281D01*
X11580619Y11672752D01*
X11592429Y11677548D01*
X11633639Y11691899D01*
X11662283Y11709798D01*
X11675792Y11717133D01*
X11706419Y11731415D01*
X11740910Y11758169D01*
X11751366Y11765463D01*
X11782400Y11784855D01*
X11788376Y11788589D01*
X11810924Y11810980D01*
X11817344Y11817356D01*
X11817982Y11817953D01*
X11818653Y11818473D01*
X11844911Y11844731D01*
X11917846Y11917159D01*
X11918506Y11918200D01*
X11919615Y11919435D01*
X12554274Y12554094D01*
X12592120Y12580106D01*
X12650722Y12606197D01*
X12650724Y12606198D01*
X12656752Y12608882D01*
X12811253Y12721134D01*
X12857387Y12772371D01*
X12934621Y12858148D01*
X12934622Y12858149D01*
X12939040Y12863056D01*
X13034527Y13028444D01*
X13093542Y13210072D01*
X13096197Y13235331D01*
X13992001Y13235331D01*
X13992371Y13228510D01*
X13997895Y13177648D01*
X14001521Y13162396D01*
X14046676Y13041946D01*
X14055214Y13026351D01*
X14131715Y12924276D01*
X14144276Y12911715D01*
X14246351Y12835214D01*
X14261946Y12826676D01*
X14382394Y12781522D01*
X14397649Y12777895D01*
X14448514Y12772369D01*
X14455328Y12772000D01*
X15077885Y12772000D01*
X15093124Y12776475D01*
X15094329Y12777865D01*
X15096000Y12785548D01*
X15096000Y13407885D01*
X15091525Y13423124D01*
X15090135Y13424329D01*
X15082452Y13426000D01*
X14010116Y13426000D01*
X13994877Y13421525D01*
X13993672Y13420135D01*
X13992001Y13412452D01*
X13992001Y13235331D01*
X13096197Y13235331D01*
X13097035Y13243300D01*
X13112814Y13393435D01*
X13113504Y13400000D01*
X13109032Y13442548D01*
X13094232Y13583365D01*
X13094232Y13583367D01*
X13093542Y13589928D01*
X13034527Y13771556D01*
X12939040Y13936944D01*
X12937813Y13938306D01*
X12914550Y14003504D01*
X12930629Y14072656D01*
X12981542Y14122137D01*
X13040344Y14136700D01*
X13866000Y14136700D01*
X13934121Y14116698D01*
X13980614Y14063042D01*
X13992000Y14010700D01*
X13992000Y13952115D01*
X13996475Y13936876D01*
X13997865Y13935671D01*
X14005548Y13934000D01*
X15478000Y13934000D01*
X15546121Y13913998D01*
X15592614Y13860342D01*
X15604000Y13808000D01*
X15604000Y12790116D01*
X15608475Y12774877D01*
X15609865Y12773672D01*
X15617548Y12772001D01*
X16244669Y12772001D01*
X16251490Y12772371D01*
X16302352Y12777895D01*
X16317604Y12781521D01*
X16438054Y12826676D01*
X16453649Y12835214D01*
X16555724Y12911715D01*
X16560548Y12916539D01*
X16622860Y12950565D01*
X16693675Y12945500D01*
X16735171Y12918832D01*
X16736739Y12916739D01*
X16853295Y12829385D01*
X16989684Y12778255D01*
X17051866Y12771500D01*
X18848134Y12771500D01*
X18910316Y12778255D01*
X19046705Y12829385D01*
X19062906Y12841527D01*
X19129413Y12866374D01*
X19138470Y12866700D01*
X19580930Y12866700D01*
X19649051Y12846698D01*
X19670025Y12829795D01*
X21510725Y10989095D01*
X21544751Y10926783D01*
X21539686Y10855968D01*
X21510725Y10810905D01*
X19600025Y8900205D01*
X19537713Y8866179D01*
X19510930Y8863300D01*
X19230769Y8863300D01*
X19162648Y8883302D01*
X19116155Y8936958D01*
X19105506Y8975693D01*
X19102598Y9002460D01*
X19101745Y9010316D01*
X19050615Y9146705D01*
X18963261Y9263261D01*
X18846705Y9350615D01*
X18710316Y9401745D01*
X18648134Y9408500D01*
X16851866Y9408500D01*
X16789684Y9401745D01*
X16653295Y9350615D01*
X16536739Y9263261D01*
X16449385Y9146705D01*
X16446233Y9138297D01*
X16446232Y9138295D01*
X16404722Y9027567D01*
X16362081Y8970802D01*
X16295519Y8946102D01*
X16226170Y8961309D01*
X16193546Y8986996D01*
X16142799Y9042766D01*
X16135273Y9049785D01*
X15968139Y9181778D01*
X15959552Y9187483D01*
X15773117Y9290401D01*
X15763705Y9294631D01*
X15562959Y9365720D01*
X15552988Y9368354D01*
X15481837Y9381028D01*
X15468540Y9379568D01*
X15464000Y9365011D01*
X15464000Y6731483D01*
X15468064Y6717641D01*
X15481478Y6715607D01*
X15488184Y6716466D01*
X15498262Y6718608D01*
X15702255Y6779809D01*
X15711842Y6783567D01*
X15903095Y6877261D01*
X15911945Y6882536D01*
X16085328Y7006208D01*
X16093193Y7012855D01*
X16197897Y7117195D01*
X16260268Y7151111D01*
X16331075Y7145923D01*
X16387837Y7103277D01*
X16404819Y7072174D01*
X16449385Y6953295D01*
X16536739Y6836739D01*
X16653295Y6749385D01*
X16789684Y6698255D01*
X16851866Y6691500D01*
X18648134Y6691500D01*
X18710316Y6698255D01*
X18846705Y6749385D01*
X18921353Y6805331D01*
X22992001Y6805331D01*
X22992371Y6798510D01*
X22997895Y6747648D01*
X23001521Y6732396D01*
X23046676Y6611946D01*
X23055214Y6596351D01*
X23131715Y6494276D01*
X23144276Y6481715D01*
X23246351Y6405214D01*
X23261946Y6396676D01*
X23382394Y6351522D01*
X23397649Y6347895D01*
X23448514Y6342369D01*
X23455328Y6342000D01*
X25327885Y6342000D01*
X25343124Y6346475D01*
X25344329Y6347865D01*
X25346000Y6355548D01*
X25346000Y7252885D01*
X25341525Y7268124D01*
X25340135Y7269329D01*
X25332452Y7271000D01*
X23010116Y7271000D01*
X22994877Y7266525D01*
X22993672Y7265135D01*
X22992001Y7257452D01*
X22992001Y6805331D01*
X18921353Y6805331D01*
X18963261Y6836739D01*
X19050615Y6953295D01*
X19101745Y7089684D01*
X19105506Y7124308D01*
X19132747Y7189869D01*
X19191110Y7230296D01*
X19230769Y7236700D01*
X19890783Y7236700D01*
X19892104Y7236693D01*
X19982709Y7235744D01*
X20025370Y7244968D01*
X20037949Y7247028D01*
X20074329Y7251108D01*
X20074332Y7251109D01*
X20081325Y7251893D01*
X20113226Y7263002D01*
X20128036Y7267164D01*
X20132476Y7268124D01*
X20161051Y7274302D01*
X20167440Y7277281D01*
X20200619Y7292752D01*
X20212429Y7297548D01*
X20253639Y7311899D01*
X20282283Y7329798D01*
X20295792Y7337133D01*
X20326419Y7351415D01*
X20360910Y7378169D01*
X20371366Y7385463D01*
X20402400Y7404855D01*
X20408376Y7408589D01*
X20437344Y7437356D01*
X20437982Y7437953D01*
X20438653Y7438473D01*
X20464911Y7464731D01*
X20537846Y7537159D01*
X20538506Y7538200D01*
X20539615Y7539435D01*
X20797295Y7797115D01*
X22992000Y7797115D01*
X22996475Y7781876D01*
X22997865Y7780671D01*
X23005548Y7779000D01*
X25327885Y7779000D01*
X25343124Y7783475D01*
X25344329Y7784865D01*
X25346000Y7792548D01*
X25346000Y8689884D01*
X25341525Y8705123D01*
X25340135Y8706328D01*
X25332452Y8707999D01*
X23455331Y8707999D01*
X23448510Y8707629D01*
X23397648Y8702105D01*
X23382396Y8698479D01*
X23261946Y8653324D01*
X23246351Y8644786D01*
X23144276Y8568285D01*
X23131715Y8555724D01*
X23055214Y8453649D01*
X23046676Y8438054D01*
X23001522Y8317606D01*
X22997895Y8302351D01*
X22992369Y8251486D01*
X22992000Y8244672D01*
X22992000Y7797115D01*
X20797295Y7797115D01*
X22669515Y9669335D01*
X22731827Y9703361D01*
X22802642Y9698296D01*
X22837220Y9678711D01*
X22863869Y9657437D01*
X22894283Y9642734D01*
X22907691Y9635210D01*
X22936090Y9616908D01*
X22975996Y9602383D01*
X22977115Y9601976D01*
X22988854Y9597017D01*
X23028144Y9578024D01*
X23061053Y9570426D01*
X23075793Y9566060D01*
X23107549Y9554502D01*
X23150874Y9549029D01*
X23163403Y9546796D01*
X23199065Y9538562D01*
X23199073Y9538561D01*
X23205930Y9536978D01*
X23212971Y9536953D01*
X23212974Y9536953D01*
X23246739Y9536835D01*
X23247632Y9536806D01*
X23248470Y9536700D01*
X23285533Y9536700D01*
X23285972Y9536699D01*
X23384859Y9536354D01*
X23384864Y9536354D01*
X23388392Y9536342D01*
X23389595Y9536611D01*
X23391240Y9536700D01*
X23438720Y9536700D01*
X23506841Y9516698D01*
X23547654Y9472912D01*
X23549385Y9468295D01*
X23636739Y9351739D01*
X23753295Y9264385D01*
X23889684Y9213255D01*
X23951866Y9206500D01*
X27566000Y9206500D01*
X27634121Y9186498D01*
X27680614Y9132842D01*
X27692000Y9080500D01*
X27692000Y8834000D01*
X27671998Y8765879D01*
X27618342Y8719386D01*
X27566000Y8708000D01*
X25872115Y8708000D01*
X25856876Y8703525D01*
X25855671Y8702135D01*
X25854000Y8694452D01*
X25854000Y6360116D01*
X25858475Y6344877D01*
X25859865Y6343672D01*
X25867548Y6342001D01*
X27566000Y6342001D01*
X27634121Y6321999D01*
X27680614Y6268343D01*
X27692000Y6216001D01*
X27692000Y634000D01*
X27671998Y565879D01*
X27618342Y519386D01*
X27566000Y508000D01*
X634000Y508000D01*
X565879Y528002D01*
X519386Y581658D01*
X508000Y634000D01*
X508000Y2255331D01*
X1842001Y2255331D01*
X1842371Y2248510D01*
X1847895Y2197648D01*
X1851521Y2182396D01*
X1896676Y2061946D01*
X1905214Y2046351D01*
X1981715Y1944276D01*
X1994276Y1931715D01*
X2096351Y1855214D01*
X2111946Y1846676D01*
X2232394Y1801522D01*
X2247649Y1797895D01*
X2298514Y1792369D01*
X2305328Y1792000D01*
X2927885Y1792000D01*
X2943124Y1796475D01*
X2944329Y1797865D01*
X2946000Y1805548D01*
X2946000Y1810116D01*
X3454000Y1810116D01*
X3458475Y1794877D01*
X3459865Y1793672D01*
X3467548Y1792001D01*
X4094669Y1792001D01*
X4101490Y1792371D01*
X4152352Y1797895D01*
X4167604Y1801521D01*
X4288054Y1846676D01*
X4303649Y1855214D01*
X4405724Y1931715D01*
X4418285Y1944276D01*
X4494786Y2046351D01*
X4503325Y2061948D01*
X4544425Y2171582D01*
X4587066Y2228347D01*
X4653628Y2253047D01*
X4722977Y2237840D01*
X4757645Y2209850D01*
X4783219Y2180326D01*
X4790580Y2173117D01*
X4954434Y2037084D01*
X4962881Y2031169D01*
X5146756Y1923721D01*
X5156042Y1919271D01*
X5355001Y1843297D01*
X5364899Y1840421D01*
X5468250Y1819394D01*
X5482299Y1820590D01*
X5486000Y1830935D01*
X5486000Y1831483D01*
X5994000Y1831483D01*
X5998064Y1817641D01*
X6011478Y1815607D01*
X6018184Y1816466D01*
X6028262Y1818608D01*
X6232255Y1879809D01*
X6241842Y1883567D01*
X6388330Y1955331D01*
X20467001Y1955331D01*
X20467371Y1948510D01*
X20472895Y1897648D01*
X20476521Y1882396D01*
X20521676Y1761946D01*
X20530214Y1746351D01*
X20606715Y1644276D01*
X20619276Y1631715D01*
X20721351Y1555214D01*
X20736946Y1546676D01*
X20857394Y1501522D01*
X20872649Y1497895D01*
X20923514Y1492369D01*
X20930328Y1492000D01*
X21552885Y1492000D01*
X21568124Y1496475D01*
X21569329Y1497865D01*
X21571000Y1505548D01*
X21571000Y1510116D01*
X22079000Y1510116D01*
X22083475Y1494877D01*
X22084865Y1493672D01*
X22092548Y1492001D01*
X22719669Y1492001D01*
X22726490Y1492371D01*
X22777352Y1497895D01*
X22792604Y1501521D01*
X22913054Y1546676D01*
X22928649Y1555214D01*
X23030724Y1631715D01*
X23043285Y1644276D01*
X23119786Y1746351D01*
X23128325Y1761948D01*
X23169425Y1871582D01*
X23212066Y1928347D01*
X23278628Y1953047D01*
X23347977Y1937840D01*
X23382645Y1909850D01*
X23408219Y1880326D01*
X23415580Y1873117D01*
X23579434Y1737084D01*
X23587881Y1731169D01*
X23771756Y1623721D01*
X23781042Y1619271D01*
X23980001Y1543297D01*
X23989899Y1540421D01*
X24093250Y1519394D01*
X24107299Y1520590D01*
X24111000Y1530935D01*
X24111000Y1531483D01*
X24619000Y1531483D01*
X24623064Y1517641D01*
X24636478Y1515607D01*
X24643184Y1516466D01*
X24653262Y1518608D01*
X24857255Y1579809D01*
X24866842Y1583567D01*
X25058095Y1677261D01*
X25066945Y1682536D01*
X25240328Y1806208D01*
X25248200Y1812861D01*
X25399052Y1963188D01*
X25405730Y1971035D01*
X25530003Y2143980D01*
X25535313Y2152817D01*
X25629670Y2343733D01*
X25633469Y2353328D01*
X25695377Y2557090D01*
X25697555Y2567163D01*
X25698986Y2578038D01*
X25696775Y2592222D01*
X25683617Y2596000D01*
X24637115Y2596000D01*
X24621876Y2591525D01*
X24620671Y2590135D01*
X24619000Y2582452D01*
X24619000Y1531483D01*
X24111000Y1531483D01*
X24111000Y2577885D01*
X24106525Y2593124D01*
X24105135Y2594329D01*
X24097452Y2596000D01*
X22097115Y2596000D01*
X22081876Y2591525D01*
X22080671Y2590135D01*
X22079000Y2582452D01*
X22079000Y1510116D01*
X21571000Y1510116D01*
X21571000Y2577885D01*
X21566525Y2593124D01*
X21565135Y2594329D01*
X21557452Y2596000D01*
X20485116Y2596000D01*
X20469877Y2591525D01*
X20468672Y2590135D01*
X20467001Y2582452D01*
X20467001Y1955331D01*
X6388330Y1955331D01*
X6433095Y1977261D01*
X6441945Y1982536D01*
X6615328Y2106208D01*
X6623200Y2112861D01*
X6774052Y2263188D01*
X6780730Y2271035D01*
X6905003Y2443980D01*
X6910313Y2452817D01*
X7004670Y2643733D01*
X7008469Y2653328D01*
X7070377Y2857090D01*
X7072555Y2867163D01*
X7073986Y2878038D01*
X7071775Y2892222D01*
X7058617Y2896000D01*
X6012115Y2896000D01*
X5996876Y2891525D01*
X5995671Y2890135D01*
X5994000Y2882452D01*
X5994000Y1831483D01*
X5486000Y1831483D01*
X5486000Y2877885D01*
X5481525Y2893124D01*
X5480135Y2894329D01*
X5472452Y2896000D01*
X3472115Y2896000D01*
X3456876Y2891525D01*
X3455671Y2890135D01*
X3454000Y2882452D01*
X3454000Y1810116D01*
X2946000Y1810116D01*
X2946000Y2877885D01*
X2941525Y2893124D01*
X2940135Y2894329D01*
X2932452Y2896000D01*
X1860116Y2896000D01*
X1844877Y2891525D01*
X1843672Y2890135D01*
X1842001Y2882452D01*
X1842001Y2255331D01*
X508000Y2255331D01*
X508000Y3122115D01*
X20467000Y3122115D01*
X20471475Y3106876D01*
X20472865Y3105671D01*
X20480548Y3104000D01*
X21552885Y3104000D01*
X21568124Y3108475D01*
X21569329Y3109865D01*
X21571000Y3117548D01*
X21571000Y3122115D01*
X22079000Y3122115D01*
X22083475Y3106876D01*
X22084865Y3105671D01*
X22092548Y3104000D01*
X24092885Y3104000D01*
X24108124Y3108475D01*
X24109329Y3109865D01*
X24111000Y3117548D01*
X24111000Y3122115D01*
X24619000Y3122115D01*
X24623475Y3106876D01*
X24624865Y3105671D01*
X24632548Y3104000D01*
X25683344Y3104000D01*
X25696875Y3107973D01*
X25698180Y3117053D01*
X25656214Y3284125D01*
X25652894Y3293876D01*
X25567972Y3489186D01*
X25563105Y3498261D01*
X25447426Y3677074D01*
X25441136Y3685243D01*
X25297806Y3842760D01*
X25290273Y3849785D01*
X25123139Y3981778D01*
X25114552Y3987483D01*
X24928117Y4090401D01*
X24918705Y4094631D01*
X24717959Y4165720D01*
X24707988Y4168354D01*
X24636837Y4181028D01*
X24623540Y4179568D01*
X24619000Y4165011D01*
X24619000Y3122115D01*
X24111000Y3122115D01*
X24111000Y4166898D01*
X24107082Y4180242D01*
X24092806Y4182229D01*
X24054324Y4176340D01*
X24044288Y4173949D01*
X23841868Y4107788D01*
X23832359Y4103791D01*
X23643463Y4005458D01*
X23634738Y3999964D01*
X23464433Y3872095D01*
X23456726Y3865252D01*
X23379094Y3784015D01*
X23317570Y3748585D01*
X23246657Y3752042D01*
X23188871Y3793288D01*
X23170018Y3826836D01*
X23128324Y3938054D01*
X23119786Y3953649D01*
X23043285Y4055724D01*
X23030724Y4068285D01*
X22928649Y4144786D01*
X22913054Y4153324D01*
X22792606Y4198478D01*
X22777351Y4202105D01*
X22726486Y4207631D01*
X22719672Y4208000D01*
X22097115Y4208000D01*
X22081876Y4203525D01*
X22080671Y4202135D01*
X22079000Y4194452D01*
X22079000Y3122115D01*
X21571000Y3122115D01*
X21571000Y4189884D01*
X21566525Y4205123D01*
X21565135Y4206328D01*
X21557452Y4207999D01*
X20930331Y4207999D01*
X20923510Y4207629D01*
X20872648Y4202105D01*
X20857396Y4198479D01*
X20736946Y4153324D01*
X20721351Y4144786D01*
X20619276Y4068285D01*
X20606715Y4055724D01*
X20530214Y3953649D01*
X20521676Y3938054D01*
X20476522Y3817606D01*
X20472895Y3802351D01*
X20467369Y3751486D01*
X20467000Y3744672D01*
X20467000Y3122115D01*
X508000Y3122115D01*
X508000Y3422115D01*
X1842000Y3422115D01*
X1846475Y3406876D01*
X1847865Y3405671D01*
X1855548Y3404000D01*
X2927885Y3404000D01*
X2943124Y3408475D01*
X2944329Y3409865D01*
X2946000Y3417548D01*
X2946000Y3422115D01*
X3454000Y3422115D01*
X3458475Y3406876D01*
X3459865Y3405671D01*
X3467548Y3404000D01*
X5467885Y3404000D01*
X5483124Y3408475D01*
X5484329Y3409865D01*
X5486000Y3417548D01*
X5486000Y3422115D01*
X5994000Y3422115D01*
X5998475Y3406876D01*
X5999865Y3405671D01*
X6007548Y3404000D01*
X7058344Y3404000D01*
X7071875Y3407973D01*
X7073180Y3417053D01*
X7031214Y3584125D01*
X7027894Y3593876D01*
X6942972Y3789186D01*
X6938105Y3798261D01*
X6822426Y3977074D01*
X6816136Y3985243D01*
X6672806Y4142760D01*
X6665273Y4149785D01*
X6498139Y4281778D01*
X6489552Y4287483D01*
X6303117Y4390401D01*
X6293705Y4394631D01*
X6092959Y4465720D01*
X6082988Y4468354D01*
X6011837Y4481028D01*
X5998540Y4479568D01*
X5994000Y4465011D01*
X5994000Y3422115D01*
X5486000Y3422115D01*
X5486000Y4466898D01*
X5482082Y4480242D01*
X5467806Y4482229D01*
X5429324Y4476340D01*
X5419288Y4473949D01*
X5216868Y4407788D01*
X5207359Y4403791D01*
X5018463Y4305458D01*
X5009738Y4299964D01*
X4839433Y4172095D01*
X4831726Y4165252D01*
X4754094Y4084015D01*
X4692570Y4048585D01*
X4621657Y4052042D01*
X4563871Y4093288D01*
X4545018Y4126836D01*
X4503324Y4238054D01*
X4494786Y4253649D01*
X4418285Y4355724D01*
X4405724Y4368285D01*
X4303649Y4444786D01*
X4288054Y4453324D01*
X4167606Y4498478D01*
X4152351Y4502105D01*
X4101486Y4507631D01*
X4094672Y4508000D01*
X3472115Y4508000D01*
X3456876Y4503525D01*
X3455671Y4502135D01*
X3454000Y4494452D01*
X3454000Y3422115D01*
X2946000Y3422115D01*
X2946000Y4489884D01*
X2941525Y4505123D01*
X2940135Y4506328D01*
X2932452Y4507999D01*
X2305331Y4507999D01*
X2298510Y4507629D01*
X2247648Y4502105D01*
X2232396Y4498479D01*
X2111946Y4453324D01*
X2096351Y4444786D01*
X1994276Y4368285D01*
X1981715Y4355724D01*
X1905214Y4253649D01*
X1896676Y4238054D01*
X1851522Y4117606D01*
X1847895Y4102351D01*
X1842369Y4051486D01*
X1842000Y4044672D01*
X1842000Y3422115D01*
X508000Y3422115D01*
X508000Y7782034D01*
X13878257Y7782034D01*
X13908565Y7647554D01*
X13911645Y7637725D01*
X13991770Y7440397D01*
X13996413Y7431206D01*
X14107694Y7249612D01*
X14113777Y7241301D01*
X14253213Y7080333D01*
X14260580Y7073117D01*
X14424434Y6937084D01*
X14432881Y6931169D01*
X14616756Y6823721D01*
X14626042Y6819271D01*
X14825001Y6743297D01*
X14834899Y6740421D01*
X14938250Y6719394D01*
X14952299Y6720590D01*
X14956000Y6730935D01*
X14956000Y7777885D01*
X14951525Y7793124D01*
X14950135Y7794329D01*
X14942452Y7796000D01*
X13893225Y7796000D01*
X13879694Y7792027D01*
X13878257Y7782034D01*
X508000Y7782034D01*
X508000Y8315817D01*
X13874389Y8315817D01*
X13875912Y8307393D01*
X13888292Y8304000D01*
X14937885Y8304000D01*
X14953124Y8308475D01*
X14954329Y8309865D01*
X14956000Y8317548D01*
X14956000Y9366898D01*
X14952082Y9380242D01*
X14937806Y9382229D01*
X14899324Y9376340D01*
X14889288Y9373949D01*
X14686868Y9307788D01*
X14677359Y9303791D01*
X14488463Y9205458D01*
X14479738Y9199964D01*
X14309433Y9072095D01*
X14301726Y9065252D01*
X14154590Y8911283D01*
X14148104Y8903273D01*
X14028098Y8727351D01*
X14023000Y8718377D01*
X13933338Y8525217D01*
X13929775Y8515530D01*
X13874389Y8315817D01*
X508000Y8315817D01*
X508000Y21484615D01*
X16967000Y21484615D01*
X16971475Y21469376D01*
X16972865Y21468171D01*
X16980548Y21466500D01*
X17677885Y21466500D01*
X17693124Y21470975D01*
X17694329Y21472365D01*
X17696000Y21480048D01*
X17696000Y21484615D01*
X18204000Y21484615D01*
X18208475Y21469376D01*
X18209865Y21468171D01*
X18217548Y21466500D01*
X18914885Y21466500D01*
X18930124Y21470975D01*
X18931329Y21472365D01*
X18933000Y21480048D01*
X18933000Y21558766D01*
X18932663Y21565282D01*
X18922925Y21659132D01*
X18920032Y21672528D01*
X18869512Y21823953D01*
X18863347Y21837115D01*
X18779574Y21972492D01*
X18770540Y21983890D01*
X18657871Y22096363D01*
X18646460Y22105375D01*
X18510937Y22188912D01*
X18497759Y22195056D01*
X18346234Y22245315D01*
X18332868Y22248181D01*
X18240230Y22257672D01*
X18233815Y22258000D01*
X18222115Y22258000D01*
X18206876Y22253525D01*
X18205671Y22252135D01*
X18204000Y22244452D01*
X18204000Y21484615D01*
X17696000Y21484615D01*
X17696000Y22239885D01*
X17691525Y22255124D01*
X17690135Y22256329D01*
X17682452Y22258000D01*
X17666234Y22258000D01*
X17659718Y22257663D01*
X17565868Y22247925D01*
X17552472Y22245032D01*
X17401047Y22194512D01*
X17387885Y22188347D01*
X17252508Y22104574D01*
X17241110Y22095540D01*
X17128637Y21982871D01*
X17119625Y21971460D01*
X17036088Y21835937D01*
X17029944Y21822759D01*
X16979685Y21671234D01*
X16976819Y21657868D01*
X16967328Y21565230D01*
X16967000Y21558815D01*
X16967000Y21484615D01*
X508000Y21484615D01*
X508000Y24932034D01*
X13868257Y24932034D01*
X13898565Y24797554D01*
X13901645Y24787725D01*
X13981770Y24590397D01*
X13986413Y24581206D01*
X14097694Y24399612D01*
X14103777Y24391301D01*
X14243213Y24230333D01*
X14250580Y24223117D01*
X14414434Y24087084D01*
X14422881Y24081169D01*
X14606756Y23973721D01*
X14616042Y23969271D01*
X14815001Y23893297D01*
X14824899Y23890421D01*
X14928250Y23869394D01*
X14942299Y23870590D01*
X14946000Y23880935D01*
X14946000Y24927885D01*
X14941525Y24943124D01*
X14940135Y24944329D01*
X14932452Y24946000D01*
X13883225Y24946000D01*
X13869694Y24942027D01*
X13868257Y24932034D01*
X508000Y24932034D01*
X508000Y25465817D01*
X13864389Y25465817D01*
X13865912Y25457393D01*
X13878292Y25454000D01*
X14927885Y25454000D01*
X14943124Y25458475D01*
X14944329Y25459865D01*
X14946000Y25467548D01*
X14946000Y26516898D01*
X14942082Y26530242D01*
X14927806Y26532229D01*
X14889324Y26526340D01*
X14879288Y26523949D01*
X14676868Y26457788D01*
X14667359Y26453791D01*
X14478463Y26355458D01*
X14469738Y26349964D01*
X14299433Y26222095D01*
X14291726Y26215252D01*
X14144590Y26061283D01*
X14138104Y26053273D01*
X14018098Y25877351D01*
X14013000Y25868377D01*
X13923338Y25675217D01*
X13919775Y25665530D01*
X13864389Y25465817D01*
X508000Y25465817D01*
X508000Y28355331D01*
X1817001Y28355331D01*
X1817371Y28348510D01*
X1822895Y28297648D01*
X1826521Y28282396D01*
X1871676Y28161946D01*
X1880214Y28146351D01*
X1956715Y28044276D01*
X1969276Y28031715D01*
X2071351Y27955214D01*
X2086946Y27946676D01*
X2207394Y27901522D01*
X2222649Y27897895D01*
X2273514Y27892369D01*
X2280328Y27892000D01*
X2902885Y27892000D01*
X2918124Y27896475D01*
X2919329Y27897865D01*
X2921000Y27905548D01*
X2921000Y27910116D01*
X3429000Y27910116D01*
X3433475Y27894877D01*
X3434865Y27893672D01*
X3442548Y27892001D01*
X4069669Y27892001D01*
X4076490Y27892371D01*
X4127352Y27897895D01*
X4142604Y27901521D01*
X4263054Y27946676D01*
X4278649Y27955214D01*
X4380724Y28031715D01*
X4393285Y28044276D01*
X4469786Y28146351D01*
X4478325Y28161948D01*
X4519425Y28271582D01*
X4562066Y28328347D01*
X4628628Y28353047D01*
X4697977Y28337840D01*
X4732645Y28309850D01*
X4758219Y28280326D01*
X4765580Y28273117D01*
X4929434Y28137084D01*
X4937881Y28131169D01*
X5121756Y28023721D01*
X5131042Y28019271D01*
X5330001Y27943297D01*
X5339899Y27940421D01*
X5443250Y27919394D01*
X5457299Y27920590D01*
X5461000Y27930935D01*
X5461000Y27931483D01*
X5969000Y27931483D01*
X5973064Y27917641D01*
X5986478Y27915607D01*
X5993184Y27916466D01*
X6003262Y27918608D01*
X6207255Y27979809D01*
X6216842Y27983567D01*
X6408095Y28077261D01*
X6416945Y28082536D01*
X6590328Y28206208D01*
X6598200Y28212861D01*
X6749052Y28363188D01*
X6755730Y28371035D01*
X6880003Y28543980D01*
X6885313Y28552817D01*
X6886556Y28555331D01*
X21467001Y28555331D01*
X21467371Y28548510D01*
X21472895Y28497648D01*
X21476521Y28482396D01*
X21521676Y28361946D01*
X21530214Y28346351D01*
X21606715Y28244276D01*
X21619276Y28231715D01*
X21721351Y28155214D01*
X21736946Y28146676D01*
X21857394Y28101522D01*
X21872649Y28097895D01*
X21923514Y28092369D01*
X21930328Y28092000D01*
X22552885Y28092000D01*
X22568124Y28096475D01*
X22569329Y28097865D01*
X22571000Y28105548D01*
X22571000Y28110116D01*
X23079000Y28110116D01*
X23083475Y28094877D01*
X23084865Y28093672D01*
X23092548Y28092001D01*
X23719669Y28092001D01*
X23726490Y28092371D01*
X23777352Y28097895D01*
X23792604Y28101521D01*
X23913054Y28146676D01*
X23928649Y28155214D01*
X24030724Y28231715D01*
X24043285Y28244276D01*
X24119786Y28346351D01*
X24128325Y28361948D01*
X24169425Y28471582D01*
X24212066Y28528347D01*
X24278628Y28553047D01*
X24347977Y28537840D01*
X24382645Y28509850D01*
X24408219Y28480326D01*
X24415580Y28473117D01*
X24579434Y28337084D01*
X24587881Y28331169D01*
X24771756Y28223721D01*
X24781042Y28219271D01*
X24980001Y28143297D01*
X24989899Y28140421D01*
X25093250Y28119394D01*
X25107299Y28120590D01*
X25111000Y28130935D01*
X25111000Y28131483D01*
X25619000Y28131483D01*
X25623064Y28117641D01*
X25636478Y28115607D01*
X25643184Y28116466D01*
X25653262Y28118608D01*
X25857255Y28179809D01*
X25866842Y28183567D01*
X26058095Y28277261D01*
X26066945Y28282536D01*
X26240328Y28406208D01*
X26248200Y28412861D01*
X26399052Y28563188D01*
X26405730Y28571035D01*
X26530003Y28743980D01*
X26535313Y28752817D01*
X26629670Y28943733D01*
X26633469Y28953328D01*
X26695377Y29157090D01*
X26697555Y29167163D01*
X26698986Y29178038D01*
X26696775Y29192222D01*
X26683617Y29196000D01*
X25637115Y29196000D01*
X25621876Y29191525D01*
X25620671Y29190135D01*
X25619000Y29182452D01*
X25619000Y28131483D01*
X25111000Y28131483D01*
X25111000Y29177885D01*
X25106525Y29193124D01*
X25105135Y29194329D01*
X25097452Y29196000D01*
X23097115Y29196000D01*
X23081876Y29191525D01*
X23080671Y29190135D01*
X23079000Y29182452D01*
X23079000Y28110116D01*
X22571000Y28110116D01*
X22571000Y29177885D01*
X22566525Y29193124D01*
X22565135Y29194329D01*
X22557452Y29196000D01*
X21485116Y29196000D01*
X21469877Y29191525D01*
X21468672Y29190135D01*
X21467001Y29182452D01*
X21467001Y28555331D01*
X6886556Y28555331D01*
X6979670Y28743733D01*
X6983469Y28753328D01*
X7045377Y28957090D01*
X7047555Y28967163D01*
X7048986Y28978038D01*
X7046775Y28992222D01*
X7033617Y28996000D01*
X5987115Y28996000D01*
X5971876Y28991525D01*
X5970671Y28990135D01*
X5969000Y28982452D01*
X5969000Y27931483D01*
X5461000Y27931483D01*
X5461000Y28977885D01*
X5456525Y28993124D01*
X5455135Y28994329D01*
X5447452Y28996000D01*
X3447115Y28996000D01*
X3431876Y28991525D01*
X3430671Y28990135D01*
X3429000Y28982452D01*
X3429000Y27910116D01*
X2921000Y27910116D01*
X2921000Y28977885D01*
X2916525Y28993124D01*
X2915135Y28994329D01*
X2907452Y28996000D01*
X1835116Y28996000D01*
X1819877Y28991525D01*
X1818672Y28990135D01*
X1817001Y28982452D01*
X1817001Y28355331D01*
X508000Y28355331D01*
X508000Y29522115D01*
X1817000Y29522115D01*
X1821475Y29506876D01*
X1822865Y29505671D01*
X1830548Y29504000D01*
X2902885Y29504000D01*
X2918124Y29508475D01*
X2919329Y29509865D01*
X2921000Y29517548D01*
X2921000Y29522115D01*
X3429000Y29522115D01*
X3433475Y29506876D01*
X3434865Y29505671D01*
X3442548Y29504000D01*
X5442885Y29504000D01*
X5458124Y29508475D01*
X5459329Y29509865D01*
X5461000Y29517548D01*
X5461000Y29522115D01*
X5969000Y29522115D01*
X5973475Y29506876D01*
X5974865Y29505671D01*
X5982548Y29504000D01*
X7033344Y29504000D01*
X7046875Y29507973D01*
X7048180Y29517053D01*
X7006214Y29684125D01*
X7002894Y29693876D01*
X6990616Y29722115D01*
X21467000Y29722115D01*
X21471475Y29706876D01*
X21472865Y29705671D01*
X21480548Y29704000D01*
X22552885Y29704000D01*
X22568124Y29708475D01*
X22569329Y29709865D01*
X22571000Y29717548D01*
X22571000Y29722115D01*
X23079000Y29722115D01*
X23083475Y29706876D01*
X23084865Y29705671D01*
X23092548Y29704000D01*
X25092885Y29704000D01*
X25108124Y29708475D01*
X25109329Y29709865D01*
X25111000Y29717548D01*
X25111000Y29722115D01*
X25619000Y29722115D01*
X25623475Y29706876D01*
X25624865Y29705671D01*
X25632548Y29704000D01*
X26683344Y29704000D01*
X26696875Y29707973D01*
X26698180Y29717053D01*
X26656214Y29884125D01*
X26652894Y29893876D01*
X26567972Y30089186D01*
X26563105Y30098261D01*
X26447426Y30277074D01*
X26441136Y30285243D01*
X26297806Y30442760D01*
X26290273Y30449785D01*
X26123139Y30581778D01*
X26114552Y30587483D01*
X25928117Y30690401D01*
X25918705Y30694631D01*
X25717959Y30765720D01*
X25707988Y30768354D01*
X25636837Y30781028D01*
X25623540Y30779568D01*
X25619000Y30765011D01*
X25619000Y29722115D01*
X25111000Y29722115D01*
X25111000Y30766898D01*
X25107082Y30780242D01*
X25092806Y30782229D01*
X25054324Y30776340D01*
X25044288Y30773949D01*
X24841868Y30707788D01*
X24832359Y30703791D01*
X24643463Y30605458D01*
X24634738Y30599964D01*
X24464433Y30472095D01*
X24456726Y30465252D01*
X24379094Y30384015D01*
X24317570Y30348585D01*
X24246657Y30352042D01*
X24188871Y30393288D01*
X24170018Y30426836D01*
X24128324Y30538054D01*
X24119786Y30553649D01*
X24043285Y30655724D01*
X24030724Y30668285D01*
X23928649Y30744786D01*
X23913054Y30753324D01*
X23792606Y30798478D01*
X23777351Y30802105D01*
X23726486Y30807631D01*
X23719672Y30808000D01*
X23097115Y30808000D01*
X23081876Y30803525D01*
X23080671Y30802135D01*
X23079000Y30794452D01*
X23079000Y29722115D01*
X22571000Y29722115D01*
X22571000Y30789884D01*
X22566525Y30805123D01*
X22565135Y30806328D01*
X22557452Y30807999D01*
X21930331Y30807999D01*
X21923510Y30807629D01*
X21872648Y30802105D01*
X21857396Y30798479D01*
X21736946Y30753324D01*
X21721351Y30744786D01*
X21619276Y30668285D01*
X21606715Y30655724D01*
X21530214Y30553649D01*
X21521676Y30538054D01*
X21476522Y30417606D01*
X21472895Y30402351D01*
X21467369Y30351486D01*
X21467000Y30344672D01*
X21467000Y29722115D01*
X6990616Y29722115D01*
X6917972Y29889186D01*
X6913105Y29898261D01*
X6797426Y30077074D01*
X6791136Y30085243D01*
X6647806Y30242760D01*
X6640273Y30249785D01*
X6473139Y30381778D01*
X6464552Y30387483D01*
X6278117Y30490401D01*
X6268705Y30494631D01*
X6067959Y30565720D01*
X6057988Y30568354D01*
X5986837Y30581028D01*
X5973540Y30579568D01*
X5969000Y30565011D01*
X5969000Y29522115D01*
X5461000Y29522115D01*
X5461000Y30566898D01*
X5457082Y30580242D01*
X5442806Y30582229D01*
X5404324Y30576340D01*
X5394288Y30573949D01*
X5191868Y30507788D01*
X5182359Y30503791D01*
X4993463Y30405458D01*
X4984738Y30399964D01*
X4814433Y30272095D01*
X4806726Y30265252D01*
X4729094Y30184015D01*
X4667570Y30148585D01*
X4596657Y30152042D01*
X4538871Y30193288D01*
X4520018Y30226836D01*
X4478324Y30338054D01*
X4469786Y30353649D01*
X4393285Y30455724D01*
X4380724Y30468285D01*
X4278649Y30544786D01*
X4263054Y30553324D01*
X4142606Y30598478D01*
X4127351Y30602105D01*
X4076486Y30607631D01*
X4069672Y30608000D01*
X3447115Y30608000D01*
X3431876Y30603525D01*
X3430671Y30602135D01*
X3429000Y30594452D01*
X3429000Y29522115D01*
X2921000Y29522115D01*
X2921000Y30589884D01*
X2916525Y30605123D01*
X2915135Y30606328D01*
X2907452Y30607999D01*
X2280331Y30607999D01*
X2273510Y30607629D01*
X2222648Y30602105D01*
X2207396Y30598479D01*
X2086946Y30553324D01*
X2071351Y30544786D01*
X1969276Y30468285D01*
X1956715Y30455724D01*
X1880214Y30353649D01*
X1871676Y30338054D01*
X1826522Y30217606D01*
X1822895Y30202351D01*
X1817369Y30151486D01*
X1817000Y30144672D01*
X1817000Y29522115D01*
X508000Y29522115D01*
X508000Y31616000D01*
X528002Y31684121D01*
X581658Y31730614D01*
X634000Y31742000D01*
X27566000Y31742000D01*
X27634121Y31721998D01*
G37*
%TD.AperFunction*%
%TA.AperFunction,Conductor*%
G36*
X23730937Y20926591D02*
G01*
X23746515Y20919466D01*
X23753295Y20914385D01*
X23889684Y20863255D01*
X23951866Y20856500D01*
X27566000Y20856500D01*
X27634121Y20836498D01*
X27680614Y20782842D01*
X27692000Y20730500D01*
X27692000Y20484000D01*
X27671998Y20415879D01*
X27618342Y20369386D01*
X27566000Y20358000D01*
X25872115Y20358000D01*
X25856876Y20353525D01*
X25855671Y20352135D01*
X25854000Y20344452D01*
X25854000Y18010116D01*
X25858475Y17994877D01*
X25859865Y17993672D01*
X25867548Y17992001D01*
X27566000Y17992001D01*
X27634121Y17971999D01*
X27680614Y17918343D01*
X27692000Y17866001D01*
X27692000Y14484000D01*
X27671998Y14415879D01*
X27618342Y14369386D01*
X27566000Y14358000D01*
X25872115Y14358000D01*
X25856876Y14353525D01*
X25855671Y14352135D01*
X25854000Y14344452D01*
X25854000Y12010116D01*
X25858475Y11994877D01*
X25859865Y11993672D01*
X25867548Y11992001D01*
X27566000Y11992001D01*
X27634121Y11971999D01*
X27680614Y11918343D01*
X27692000Y11866001D01*
X27692000Y11619500D01*
X27671998Y11551379D01*
X27618342Y11504886D01*
X27566000Y11493500D01*
X23951866Y11493500D01*
X23889684Y11486745D01*
X23753295Y11435615D01*
X23695728Y11392471D01*
X23643925Y11353647D01*
X23643923Y11353645D01*
X23636739Y11348261D01*
X23633065Y11343359D01*
X23572016Y11310021D01*
X23501200Y11315084D01*
X23456134Y11344046D01*
X23364827Y11435353D01*
X23354905Y11446528D01*
X23337116Y11469133D01*
X23337113Y11469136D01*
X23332755Y11474674D01*
X23321275Y11483971D01*
X23299770Y11501385D01*
X23289970Y11510210D01*
X22344849Y12455331D01*
X22992001Y12455331D01*
X22992371Y12448510D01*
X22997895Y12397648D01*
X23001521Y12382396D01*
X23046676Y12261946D01*
X23055214Y12246351D01*
X23131715Y12144276D01*
X23144276Y12131715D01*
X23246351Y12055214D01*
X23261946Y12046676D01*
X23382394Y12001522D01*
X23397649Y11997895D01*
X23448514Y11992369D01*
X23455328Y11992000D01*
X25327885Y11992000D01*
X25343124Y11996475D01*
X25344329Y11997865D01*
X25346000Y12005548D01*
X25346000Y12902885D01*
X25341525Y12918124D01*
X25340135Y12919329D01*
X25332452Y12921000D01*
X23010116Y12921000D01*
X22994877Y12916525D01*
X22993672Y12915135D01*
X22992001Y12907452D01*
X22992001Y12455331D01*
X22344849Y12455331D01*
X21353065Y13447115D01*
X22992000Y13447115D01*
X22996475Y13431876D01*
X22997865Y13430671D01*
X23005548Y13429000D01*
X25327885Y13429000D01*
X25343124Y13433475D01*
X25344329Y13434865D01*
X25346000Y13442548D01*
X25346000Y14339884D01*
X25341525Y14355123D01*
X25340135Y14356328D01*
X25332452Y14357999D01*
X23455331Y14357999D01*
X23448510Y14357629D01*
X23397648Y14352105D01*
X23382396Y14348479D01*
X23261946Y14303324D01*
X23246351Y14294786D01*
X23144276Y14218285D01*
X23131715Y14205724D01*
X23055214Y14103649D01*
X23046676Y14088054D01*
X23001522Y13967606D01*
X22997895Y13952351D01*
X22992369Y13901486D01*
X22992000Y13894672D01*
X22992000Y13447115D01*
X21353065Y13447115D01*
X20551711Y14248469D01*
X20550782Y14249406D01*
X20492210Y14309218D01*
X20492209Y14309219D01*
X20487282Y14314250D01*
X20481357Y14318068D01*
X20481355Y14318070D01*
X20452617Y14336591D01*
X20406192Y14390305D01*
X20396177Y14460592D01*
X20425752Y14525135D01*
X20431777Y14531597D01*
X21718469Y15818289D01*
X21719406Y15819218D01*
X21779218Y15877790D01*
X21779219Y15877791D01*
X21784250Y15882718D01*
X21801112Y15908882D01*
X21807899Y15919414D01*
X21815329Y15929754D01*
X21842563Y15963870D01*
X21845632Y15970218D01*
X21857266Y15994282D01*
X21864792Y16007694D01*
X21870951Y16017251D01*
X21883092Y16036090D01*
X21898025Y16077119D01*
X21902980Y16088849D01*
X21921977Y16128145D01*
X21929575Y16161056D01*
X21933945Y16175806D01*
X21943086Y16200922D01*
X21943086Y16200923D01*
X21945498Y16207549D01*
X21949203Y16236880D01*
X21950969Y16250859D01*
X21953203Y16263400D01*
X21963022Y16305930D01*
X21963165Y16346741D01*
X21963195Y16347634D01*
X21963300Y16348470D01*
X21963300Y16385560D01*
X21963659Y16488392D01*
X21963389Y16489598D01*
X21963300Y16491247D01*
X21963300Y18455331D01*
X22992001Y18455331D01*
X22992371Y18448510D01*
X22997895Y18397648D01*
X23001521Y18382396D01*
X23046676Y18261946D01*
X23055214Y18246351D01*
X23131715Y18144276D01*
X23144276Y18131715D01*
X23246351Y18055214D01*
X23261946Y18046676D01*
X23382394Y18001522D01*
X23397649Y17997895D01*
X23448514Y17992369D01*
X23455328Y17992000D01*
X25327885Y17992000D01*
X25343124Y17996475D01*
X25344329Y17997865D01*
X25346000Y18005548D01*
X25346000Y18902885D01*
X25341525Y18918124D01*
X25340135Y18919329D01*
X25332452Y18921000D01*
X23010116Y18921000D01*
X22994877Y18916525D01*
X22993672Y18915135D01*
X22992001Y18907452D01*
X22992001Y18455331D01*
X21963300Y18455331D01*
X21963300Y19210930D01*
X21983302Y19279051D01*
X22000205Y19300025D01*
X22318469Y19618289D01*
X22319406Y19619218D01*
X22379220Y19677792D01*
X22379221Y19677793D01*
X22384250Y19682718D01*
X22386089Y19685571D01*
X22389257Y19689077D01*
X22791034Y20090854D01*
X22853346Y20124880D01*
X22924161Y20119815D01*
X22980997Y20077268D01*
X23005808Y20010748D01*
X23002712Y19972614D01*
X22997895Y19952354D01*
X22992369Y19901486D01*
X22992000Y19894672D01*
X22992000Y19447115D01*
X22996475Y19431876D01*
X22997865Y19430671D01*
X23005548Y19429000D01*
X25327885Y19429000D01*
X25343124Y19433475D01*
X25344329Y19434865D01*
X25346000Y19442548D01*
X25346000Y20339884D01*
X25341525Y20355123D01*
X25340135Y20356328D01*
X25332452Y20357999D01*
X23455331Y20357999D01*
X23448510Y20357629D01*
X23397651Y20352106D01*
X23377383Y20347287D01*
X23306484Y20350992D01*
X23248841Y20392439D01*
X23222758Y20458471D01*
X23236514Y20528122D01*
X23259146Y20558966D01*
X23597810Y20897630D01*
X23660122Y20931656D01*
X23730937Y20926591D01*
G37*
%TD.AperFunction*%
%TD*%
M02*
