M48
; DRILL file {KiCad (6.0.2)} date Mon Nov 21 15:28:14 2022
; FORMAT={-:-/ absolute / inch / decimal}
; #@! TF.CreationDate,2022-11-21T15:28:14-08:00
; #@! TF.GenerationSoftware,Kicad,Pcbnew,(6.0.2)
; #@! TF.FileFunction,Plated,1,2,PTH
FMAT,2
INCH
; #@! TA.AperFunction,Plated,PTH,ViaDrill
T1C0.0157
; #@! TA.AperFunction,Plated,PTH,ComponentDrill
T2C0.0394
%
G90
G05
T1
X0.2461Y0.6831
X0.2677Y0.3228
X0.4055Y0.6575
X0.4803Y0.5276
X0.5512Y0.4764
X0.5748Y1.1575
X0.6417Y0.8189
X0.8504Y0.2874
X0.9606Y0.6358
T2
X0.125Y1.1516
X0.126Y0.124
X0.1319Y0.7894
X0.1319Y0.6894
X0.1319Y0.5894
X0.1319Y0.4894
X0.225Y1.1516
X0.226Y0.124
X0.5984Y0.9921
X0.5988Y0.3169
X0.6984Y0.9921
X0.6988Y0.3169
X0.8593Y0.1122
X0.8986Y1.1594
X0.9593Y0.1122
X0.9986Y1.1594
T0
M30
