%TF.GenerationSoftware,KiCad,Pcbnew,(6.0.10)*%
%TF.CreationDate,2023-01-04T10:17:45-08:00*%
%TF.ProjectId,attenuator,61747465-6e75-4617-946f-722e6b696361,rev?*%
%TF.SameCoordinates,PX3f52f00PY6dac2c0*%
%TF.FileFunction,Copper,L1,Top*%
%TF.FilePolarity,Positive*%
%FSLAX46Y46*%
G04 Gerber Fmt 4.6, Leading zero omitted, Abs format (unit mm)*
G04 Created by KiCad (PCBNEW (6.0.10)) date 2023-01-04 10:17:45*
%MOMM*%
%LPD*%
G01*
G04 APERTURE LIST*
G04 Aperture macros list*
%AMRoundRect*
0 Rectangle with rounded corners*
0 $1 Rounding radius*
0 $2 $3 $4 $5 $6 $7 $8 $9 X,Y pos of 4 corners*
0 Add a 4 corners polygon primitive as box body*
4,1,4,$2,$3,$4,$5,$6,$7,$8,$9,$2,$3,0*
0 Add four circle primitives for the rounded corners*
1,1,$1+$1,$2,$3*
1,1,$1+$1,$4,$5*
1,1,$1+$1,$6,$7*
1,1,$1+$1,$8,$9*
0 Add four rect primitives between the rounded corners*
20,1,$1+$1,$2,$3,$4,$5,0*
20,1,$1+$1,$4,$5,$6,$7,0*
20,1,$1+$1,$6,$7,$8,$9,0*
20,1,$1+$1,$8,$9,$2,$3,0*%
G04 Aperture macros list end*
%TA.AperFunction,ComponentPad*%
%ADD10R,1.700000X1.700000*%
%TD*%
%TA.AperFunction,ComponentPad*%
%ADD11O,1.700000X1.700000*%
%TD*%
%TA.AperFunction,SMDPad,CuDef*%
%ADD12RoundRect,0.237500X-0.237500X0.250000X-0.237500X-0.250000X0.237500X-0.250000X0.237500X0.250000X0*%
%TD*%
%TA.AperFunction,SMDPad,CuDef*%
%ADD13RoundRect,0.237500X0.250000X0.237500X-0.250000X0.237500X-0.250000X-0.237500X0.250000X-0.237500X0*%
%TD*%
%TA.AperFunction,SMDPad,CuDef*%
%ADD14RoundRect,0.150000X-0.587500X-0.150000X0.587500X-0.150000X0.587500X0.150000X-0.587500X0.150000X0*%
%TD*%
%TA.AperFunction,ComponentPad*%
%ADD15R,1.400000X1.400000*%
%TD*%
%TA.AperFunction,ComponentPad*%
%ADD16C,1.400000*%
%TD*%
%TA.AperFunction,SMDPad,CuDef*%
%ADD17R,3.600000X1.270000*%
%TD*%
%TA.AperFunction,SMDPad,CuDef*%
%ADD18R,4.200000X1.350000*%
%TD*%
%TA.AperFunction,ComponentPad*%
%ADD19R,2.200000X2.200000*%
%TD*%
%TA.AperFunction,ComponentPad*%
%ADD20O,2.200000X2.200000*%
%TD*%
%TA.AperFunction,SMDPad,CuDef*%
%ADD21RoundRect,0.237500X-0.237500X0.300000X-0.237500X-0.300000X0.237500X-0.300000X0.237500X0.300000X0*%
%TD*%
%TA.AperFunction,ViaPad*%
%ADD22C,0.800000*%
%TD*%
%TA.AperFunction,Conductor*%
%ADD23C,0.609600*%
%TD*%
G04 APERTURE END LIST*
D10*
%TO.P,J7,1,Pin_1*%
%TO.N,GND*%
X25800000Y26275000D03*
D11*
%TO.P,J7,2,Pin_2*%
X25800000Y23735000D03*
%TD*%
D10*
%TO.P,J6,1,Pin_1*%
%TO.N,GND*%
X2600000Y5475000D03*
D11*
%TO.P,J6,2,Pin_2*%
X2600000Y2935000D03*
%TD*%
D10*
%TO.P,J5,1,Pin_1*%
%TO.N,GND*%
X25800000Y5675000D03*
D11*
%TO.P,J5,2,Pin_2*%
X25800000Y3135000D03*
%TD*%
D10*
%TO.P,J2,1,Pin_1*%
%TO.N,/ATT*%
X6875000Y30400000D03*
D11*
%TO.P,J2,2,Pin_2*%
%TO.N,GND*%
X4335000Y30400000D03*
%TD*%
%TO.P,J1,2,Pin_2*%
%TO.N,GND*%
X25865000Y30400000D03*
D10*
%TO.P,J1,1,Pin_1*%
%TO.N,/+12V*%
X23325000Y30400000D03*
%TD*%
D12*
%TO.P,R5,1*%
%TO.N,Net-(K1-Pad8)*%
X11200000Y3512500D03*
%TO.P,R5,2*%
%TO.N,GND*%
X11200000Y1687500D03*
%TD*%
D13*
%TO.P,R4,2*%
%TO.N,Net-(K1-Pad8)*%
X14087500Y2800000D03*
%TO.P,R4,1*%
%TO.N,Net-(K1-Pad9)*%
X15912500Y2800000D03*
%TD*%
D12*
%TO.P,R3,1*%
%TO.N,Net-(K1-Pad9)*%
X19000000Y3712500D03*
%TO.P,R3,2*%
%TO.N,GND*%
X19000000Y1887500D03*
%TD*%
%TO.P,R2,1*%
%TO.N,Net-(Q1-Pad1)*%
X1600000Y23912500D03*
%TO.P,R2,2*%
%TO.N,GND*%
X1600000Y22087500D03*
%TD*%
D13*
%TO.P,R1,1*%
%TO.N,/ATT*%
X5712500Y26600000D03*
%TO.P,R1,2*%
%TO.N,Net-(Q1-Pad1)*%
X3887500Y26600000D03*
%TD*%
D14*
%TO.P,Q1,1,B*%
%TO.N,Net-(Q1-Pad1)*%
X4462500Y23950000D03*
%TO.P,Q1,2,E*%
%TO.N,GND*%
X4462500Y22050000D03*
%TO.P,Q1,3,C*%
%TO.N,Net-(D1-Pad2)*%
X6337500Y23000000D03*
%TD*%
D15*
%TO.P,K1,1*%
%TO.N,Net-(D1-Pad2)*%
X11037500Y25457500D03*
D16*
%TO.P,K1,4*%
%TO.N,Net-(J4-Pad1)*%
X11037500Y17837500D03*
%TO.P,K1,6*%
%TO.N,Net-(K1-Pad11)*%
X11037500Y12757500D03*
%TO.P,K1,8*%
%TO.N,Net-(K1-Pad8)*%
X11037500Y7677500D03*
%TO.P,K1,9*%
%TO.N,Net-(K1-Pad9)*%
X18657500Y7677500D03*
%TO.P,K1,11*%
%TO.N,Net-(K1-Pad11)*%
X18657500Y12757500D03*
%TO.P,K1,13*%
%TO.N,Net-(J3-Pad1)*%
X18657500Y17837500D03*
%TO.P,K1,16*%
%TO.N,/+12V*%
X18657500Y25457500D03*
%TD*%
D17*
%TO.P,J4,1,In*%
%TO.N,Net-(J4-Pad1)*%
X2400000Y15400000D03*
D18*
%TO.P,J4,2,Ext*%
%TO.N,GND*%
X2600000Y12575000D03*
X2600000Y18225000D03*
%TD*%
D17*
%TO.P,J3,1,In*%
%TO.N,Net-(J3-Pad1)*%
X26000000Y17000000D03*
D18*
%TO.P,J3,2,Ext*%
%TO.N,GND*%
X25800000Y19825000D03*
X25800000Y14175000D03*
%TD*%
D19*
%TO.P,D1,1,K*%
%TO.N,/+12V*%
X18820000Y30600000D03*
D20*
%TO.P,D1,2,A*%
%TO.N,Net-(D1-Pad2)*%
X11200000Y30600000D03*
%TD*%
D21*
%TO.P,C1,1*%
%TO.N,/+12V*%
X22000000Y25462500D03*
%TO.P,C1,2*%
%TO.N,GND*%
X22000000Y23737500D03*
%TD*%
D22*
%TO.N,GND*%
X17800000Y21800000D03*
X12200000Y21600000D03*
X23200000Y9400000D03*
X15200000Y9600000D03*
X6200000Y8800000D03*
X1600000Y20600000D03*
X4400000Y20600000D03*
X22200000Y19600000D03*
X22200000Y14200000D03*
X6000000Y18200000D03*
X6200000Y12400000D03*
X12600000Y1600000D03*
X17400000Y1600000D03*
%TD*%
D23*
%TO.N,Net-(D1-Pad2)*%
X11200000Y25620000D02*
X11037500Y25457500D01*
X11200000Y30600000D02*
X11200000Y25620000D01*
%TO.N,/+12V*%
X22000000Y29075000D02*
X23325000Y30400000D01*
X22000000Y25462500D02*
X22000000Y29075000D01*
X23125000Y30600000D02*
X23325000Y30400000D01*
X18820000Y30600000D02*
X23125000Y30600000D01*
X18657500Y25457500D02*
X21995000Y25457500D01*
X21995000Y25457500D02*
X22000000Y25462500D01*
%TO.N,Net-(D1-Pad2)*%
X8580000Y23000000D02*
X11037500Y25457500D01*
X6337500Y23000000D02*
X8580000Y23000000D01*
%TO.N,Net-(Q1-Pad1)*%
X2550000Y23950000D02*
X1637500Y23950000D01*
X4200000Y24200000D02*
X3950000Y23950000D01*
X4462500Y23950000D02*
X2550000Y23950000D01*
X3887500Y24512500D02*
X4200000Y24200000D01*
X3887500Y26600000D02*
X3887500Y24512500D01*
X3950000Y23950000D02*
X2550000Y23950000D01*
X1637500Y23950000D02*
X1600000Y23912500D01*
%TO.N,/ATT*%
X6875000Y28675000D02*
X6875000Y30400000D01*
X5712500Y27512500D02*
X6875000Y28675000D01*
X5712500Y26600000D02*
X5712500Y27512500D01*
%TO.N,Net-(K1-Pad9)*%
X18657500Y4055000D02*
X19000000Y3712500D01*
X18657500Y7677500D02*
X18657500Y4055000D01*
X16712500Y3712500D02*
X19000000Y3712500D01*
X15912500Y2912500D02*
X16712500Y3712500D01*
X15912500Y2800000D02*
X15912500Y2912500D01*
%TO.N,Net-(K1-Pad8)*%
X11287500Y3600000D02*
X11200000Y3512500D01*
X12800000Y3600000D02*
X11287500Y3600000D01*
X13600000Y2800000D02*
X12800000Y3600000D01*
X14087500Y2800000D02*
X13600000Y2800000D01*
X11037500Y3675000D02*
X11200000Y3512500D01*
X11037500Y7677500D02*
X11037500Y3675000D01*
%TO.N,Net-(K1-Pad11)*%
X11037500Y12757500D02*
X18657500Y12757500D01*
%TO.N,Net-(J3-Pad1)*%
X19495000Y17000000D02*
X18657500Y17837500D01*
X26000000Y17000000D02*
X19495000Y17000000D01*
%TO.N,Net-(J4-Pad1)*%
X2400000Y15400000D02*
X8600000Y15400000D01*
X8600000Y15400000D02*
X11037500Y17837500D01*
%TD*%
%TA.AperFunction,Conductor*%
%TO.N,GND*%
G36*
X28087621Y34125498D02*
G01*
X28134114Y34071842D01*
X28145500Y34019500D01*
X28145500Y21126984D01*
X28125498Y21058863D01*
X28071842Y21012370D01*
X28005893Y21001721D01*
X27951488Y21007631D01*
X27944672Y21008000D01*
X26072115Y21008000D01*
X26056876Y21003525D01*
X26055671Y21002135D01*
X26054000Y20994452D01*
X26054000Y18660116D01*
X26058475Y18644877D01*
X26059865Y18643672D01*
X26067548Y18642001D01*
X27944669Y18642001D01*
X27951488Y18642370D01*
X28005894Y18648280D01*
X28075776Y18635751D01*
X28127791Y18587430D01*
X28145500Y18523017D01*
X28145500Y17945958D01*
X28125498Y17877837D01*
X28071842Y17831344D01*
X28001568Y17821240D01*
X27949498Y17841193D01*
X27909620Y17867839D01*
X27899301Y17874734D01*
X27825067Y17889500D01*
X26000295Y17889500D01*
X24174934Y17889499D01*
X24139182Y17882388D01*
X24112874Y17877156D01*
X24112872Y17877155D01*
X24100699Y17874734D01*
X24090379Y17867839D01*
X24090378Y17867838D01*
X24035762Y17831344D01*
X24016516Y17818484D01*
X23960266Y17734301D01*
X23950162Y17683501D01*
X23945630Y17660719D01*
X23912723Y17597809D01*
X23851028Y17562677D01*
X23822051Y17559300D01*
X19778859Y17559300D01*
X19710738Y17579302D01*
X19689764Y17596205D01*
X19644077Y17641892D01*
X19610051Y17704204D01*
X19608166Y17746777D01*
X19613138Y17786130D01*
X19615802Y17807219D01*
X19615802Y17807224D01*
X19616244Y17810720D01*
X19616618Y17837500D01*
X19598352Y18023794D01*
X19544249Y18202991D01*
X19456370Y18368268D01*
X19452480Y18373038D01*
X19452477Y18373042D01*
X19341957Y18508552D01*
X19341954Y18508555D01*
X19338062Y18513327D01*
X19193832Y18632645D01*
X19029173Y18721676D01*
X18939765Y18749352D01*
X18856244Y18775206D01*
X18856241Y18775207D01*
X18850357Y18777028D01*
X18844232Y18777672D01*
X18844231Y18777672D01*
X18670324Y18795951D01*
X18670323Y18795951D01*
X18664196Y18796595D01*
X18587643Y18789628D01*
X18483918Y18780188D01*
X18483915Y18780187D01*
X18477779Y18779629D01*
X18471873Y18777891D01*
X18471869Y18777890D01*
X18336575Y18738071D01*
X18298208Y18726779D01*
X18132322Y18640056D01*
X18127522Y18636196D01*
X18127521Y18636196D01*
X18118218Y18628716D01*
X17986440Y18522764D01*
X17866119Y18379370D01*
X17863155Y18373978D01*
X17863152Y18373974D01*
X17788955Y18239009D01*
X17775941Y18215337D01*
X17774080Y18209470D01*
X17774079Y18209468D01*
X17770153Y18197091D01*
X17719341Y18036912D01*
X17698475Y17850891D01*
X17700618Y17825377D01*
X17712361Y17685539D01*
X17714139Y17664361D01*
X17715838Y17658436D01*
X17743297Y17562677D01*
X17765735Y17484425D01*
X17851297Y17317938D01*
X17855120Y17313114D01*
X17855123Y17313110D01*
X17877694Y17284633D01*
X17967568Y17171241D01*
X18110118Y17049921D01*
X18115496Y17046915D01*
X18115498Y17046914D01*
X18149896Y17027690D01*
X18273518Y16958600D01*
X18451543Y16900756D01*
X18637414Y16878592D01*
X18643549Y16879064D01*
X18643551Y16879064D01*
X18722084Y16885107D01*
X18754222Y16887580D01*
X18823677Y16872863D01*
X18852984Y16851046D01*
X19088783Y16615247D01*
X19092436Y16611438D01*
X19135137Y16565001D01*
X19142439Y16560473D01*
X19142441Y16560472D01*
X19172787Y16541656D01*
X19182570Y16534933D01*
X19217857Y16508149D01*
X19232233Y16502457D01*
X19252237Y16492396D01*
X19265374Y16484251D01*
X19273622Y16481855D01*
X19273628Y16481852D01*
X19307915Y16471890D01*
X19319142Y16468046D01*
X19352342Y16454902D01*
X19360334Y16451738D01*
X19375702Y16450123D01*
X19397687Y16445810D01*
X19412528Y16441498D01*
X19419105Y16441015D01*
X19421088Y16440869D01*
X19421099Y16440869D01*
X19423395Y16440700D01*
X19458746Y16440700D01*
X19471917Y16440010D01*
X19512733Y16435720D01*
X19521205Y16437153D01*
X19521206Y16437153D01*
X19531741Y16438935D01*
X19552754Y16440700D01*
X23822052Y16440700D01*
X23890173Y16420698D01*
X23936666Y16367042D01*
X23945631Y16339280D01*
X23960266Y16265699D01*
X23967161Y16255379D01*
X23967162Y16255378D01*
X23990816Y16219978D01*
X24016516Y16181516D01*
X24100699Y16125266D01*
X24174933Y16110500D01*
X25999705Y16110500D01*
X27825066Y16110501D01*
X27860818Y16117612D01*
X27887126Y16122844D01*
X27887128Y16122845D01*
X27899301Y16125266D01*
X27909621Y16132161D01*
X27909622Y16132162D01*
X27949498Y16158807D01*
X28017250Y16180022D01*
X28085717Y16161239D01*
X28133161Y16108422D01*
X28145500Y16054042D01*
X28145500Y15476984D01*
X28125498Y15408863D01*
X28071842Y15362370D01*
X28005893Y15351721D01*
X27951488Y15357631D01*
X27944672Y15358000D01*
X26072115Y15358000D01*
X26056876Y15353525D01*
X26055671Y15352135D01*
X26054000Y15344452D01*
X26054000Y13010116D01*
X26058475Y12994877D01*
X26059865Y12993672D01*
X26067548Y12992001D01*
X27944669Y12992001D01*
X27951488Y12992370D01*
X28005894Y12998280D01*
X28075776Y12985751D01*
X28127791Y12937430D01*
X28145500Y12873017D01*
X28145500Y380500D01*
X28125498Y312379D01*
X28071842Y265886D01*
X28019500Y254500D01*
X380500Y254500D01*
X312379Y274502D01*
X265886Y328158D01*
X254500Y380500D01*
X254500Y1391234D01*
X10217000Y1391234D01*
X10217337Y1384718D01*
X10227075Y1290868D01*
X10229968Y1277472D01*
X10280488Y1126047D01*
X10286653Y1112885D01*
X10370426Y977508D01*
X10379460Y966110D01*
X10492129Y853637D01*
X10503540Y844625D01*
X10639063Y761088D01*
X10652241Y754944D01*
X10803766Y704685D01*
X10817132Y701819D01*
X10909770Y692328D01*
X10916185Y692000D01*
X10927885Y692000D01*
X10943124Y696475D01*
X10944329Y697865D01*
X10946000Y705548D01*
X10946000Y710115D01*
X11454000Y710115D01*
X11458475Y694876D01*
X11459865Y693671D01*
X11467548Y692000D01*
X11483766Y692000D01*
X11490282Y692337D01*
X11584132Y702075D01*
X11597528Y704968D01*
X11748953Y755488D01*
X11762115Y761653D01*
X11897492Y845426D01*
X11908890Y854460D01*
X12021363Y967129D01*
X12030375Y978540D01*
X12113912Y1114063D01*
X12120056Y1127241D01*
X12170315Y1278766D01*
X12173181Y1292132D01*
X12182672Y1384770D01*
X12183000Y1391185D01*
X12183000Y1415385D01*
X12178525Y1430624D01*
X12177135Y1431829D01*
X12169452Y1433500D01*
X11472115Y1433500D01*
X11456876Y1429025D01*
X11455671Y1427635D01*
X11454000Y1419952D01*
X11454000Y710115D01*
X10946000Y710115D01*
X10946000Y1415385D01*
X10941525Y1430624D01*
X10940135Y1431829D01*
X10932452Y1433500D01*
X10235115Y1433500D01*
X10219876Y1429025D01*
X10218671Y1427635D01*
X10217000Y1419952D01*
X10217000Y1391234D01*
X254500Y1391234D01*
X254500Y1591234D01*
X18017000Y1591234D01*
X18017337Y1584718D01*
X18027075Y1490868D01*
X18029968Y1477472D01*
X18080488Y1326047D01*
X18086653Y1312885D01*
X18170426Y1177508D01*
X18179460Y1166110D01*
X18292129Y1053637D01*
X18303540Y1044625D01*
X18439063Y961088D01*
X18452241Y954944D01*
X18603766Y904685D01*
X18617132Y901819D01*
X18709770Y892328D01*
X18716185Y892000D01*
X18727885Y892000D01*
X18743124Y896475D01*
X18744329Y897865D01*
X18746000Y905548D01*
X18746000Y910115D01*
X19254000Y910115D01*
X19258475Y894876D01*
X19259865Y893671D01*
X19267548Y892000D01*
X19283766Y892000D01*
X19290282Y892337D01*
X19384132Y902075D01*
X19397528Y904968D01*
X19548953Y955488D01*
X19562115Y961653D01*
X19697492Y1045426D01*
X19708890Y1054460D01*
X19821363Y1167129D01*
X19830375Y1178540D01*
X19913912Y1314063D01*
X19920056Y1327241D01*
X19970315Y1478766D01*
X19973181Y1492132D01*
X19982672Y1584770D01*
X19983000Y1591185D01*
X19983000Y1615385D01*
X19978525Y1630624D01*
X19977135Y1631829D01*
X19969452Y1633500D01*
X19272115Y1633500D01*
X19256876Y1629025D01*
X19255671Y1627635D01*
X19254000Y1619952D01*
X19254000Y910115D01*
X18746000Y910115D01*
X18746000Y1615385D01*
X18741525Y1630624D01*
X18740135Y1631829D01*
X18732452Y1633500D01*
X18035115Y1633500D01*
X18019876Y1629025D01*
X18018671Y1627635D01*
X18017000Y1619952D01*
X18017000Y1591234D01*
X254500Y1591234D01*
X254500Y2667034D01*
X1268257Y2667034D01*
X1298565Y2532554D01*
X1301645Y2522725D01*
X1381770Y2325397D01*
X1386413Y2316206D01*
X1497694Y2134612D01*
X1503777Y2126301D01*
X1643213Y1965333D01*
X1650580Y1958117D01*
X1814434Y1822084D01*
X1822881Y1816169D01*
X2006756Y1708721D01*
X2016042Y1704271D01*
X2215001Y1628297D01*
X2224899Y1625421D01*
X2328250Y1604394D01*
X2342299Y1605590D01*
X2346000Y1615935D01*
X2346000Y1616483D01*
X2854000Y1616483D01*
X2858064Y1602641D01*
X2871478Y1600607D01*
X2878184Y1601466D01*
X2888262Y1603608D01*
X3092255Y1664809D01*
X3101842Y1668567D01*
X3293095Y1762261D01*
X3301945Y1767536D01*
X3475328Y1891208D01*
X3483200Y1897861D01*
X3634052Y2048188D01*
X3640730Y2056035D01*
X3765003Y2228980D01*
X3770313Y2237817D01*
X3864670Y2428733D01*
X3868469Y2438328D01*
X3930377Y2642090D01*
X3932555Y2652163D01*
X3933986Y2663038D01*
X3931775Y2677222D01*
X3918617Y2681000D01*
X2872115Y2681000D01*
X2856876Y2676525D01*
X2855671Y2675135D01*
X2854000Y2667452D01*
X2854000Y1616483D01*
X2346000Y1616483D01*
X2346000Y2662885D01*
X2341525Y2678124D01*
X2340135Y2679329D01*
X2332452Y2681000D01*
X1283225Y2681000D01*
X1269694Y2677027D01*
X1268257Y2667034D01*
X254500Y2667034D01*
X254500Y4580331D01*
X1242001Y4580331D01*
X1242371Y4573510D01*
X1247895Y4522648D01*
X1251521Y4507396D01*
X1296676Y4386946D01*
X1305214Y4371351D01*
X1381715Y4269276D01*
X1394276Y4256715D01*
X1496351Y4180214D01*
X1511946Y4171676D01*
X1621337Y4130667D01*
X1678101Y4088025D01*
X1702801Y4021464D01*
X1687594Y3952115D01*
X1668201Y3925634D01*
X1544590Y3796283D01*
X1538104Y3788273D01*
X1418098Y3612351D01*
X1413000Y3603377D01*
X1323338Y3410217D01*
X1319775Y3400530D01*
X1264389Y3200817D01*
X1265912Y3192393D01*
X1278292Y3189000D01*
X2327885Y3189000D01*
X2343124Y3193475D01*
X2344329Y3194865D01*
X2346000Y3202548D01*
X2346000Y3207115D01*
X2854000Y3207115D01*
X2858475Y3191876D01*
X2859865Y3190671D01*
X2867548Y3189000D01*
X3918344Y3189000D01*
X3931875Y3192973D01*
X3933180Y3202053D01*
X3891214Y3369125D01*
X3887894Y3378876D01*
X3802972Y3574186D01*
X3798105Y3583261D01*
X3682426Y3762074D01*
X3676136Y3770243D01*
X3531931Y3928721D01*
X3500879Y3992567D01*
X3509273Y4063066D01*
X3554450Y4117834D01*
X3580894Y4131503D01*
X3688054Y4171676D01*
X3703649Y4180214D01*
X3805724Y4256715D01*
X3818285Y4269276D01*
X3894786Y4371351D01*
X3903324Y4386946D01*
X3948478Y4507394D01*
X3952105Y4522649D01*
X3957631Y4573514D01*
X3958000Y4580328D01*
X3958000Y5202885D01*
X3953525Y5218124D01*
X3952135Y5219329D01*
X3944452Y5221000D01*
X2872115Y5221000D01*
X2856876Y5216525D01*
X2855671Y5215135D01*
X2854000Y5207452D01*
X2854000Y3207115D01*
X2346000Y3207115D01*
X2346000Y5202885D01*
X2341525Y5218124D01*
X2340135Y5219329D01*
X2332452Y5221000D01*
X1260116Y5221000D01*
X1244877Y5216525D01*
X1243672Y5215135D01*
X1242001Y5207452D01*
X1242001Y4580331D01*
X254500Y4580331D01*
X254500Y5747115D01*
X1242000Y5747115D01*
X1246475Y5731876D01*
X1247865Y5730671D01*
X1255548Y5729000D01*
X2327885Y5729000D01*
X2343124Y5733475D01*
X2344329Y5734865D01*
X2346000Y5742548D01*
X2346000Y5747115D01*
X2854000Y5747115D01*
X2858475Y5731876D01*
X2859865Y5730671D01*
X2867548Y5729000D01*
X3939884Y5729000D01*
X3955123Y5733475D01*
X3956328Y5734865D01*
X3957999Y5742548D01*
X3957999Y6369669D01*
X3957629Y6376490D01*
X3952105Y6427352D01*
X3948479Y6442604D01*
X3903324Y6563054D01*
X3894786Y6578649D01*
X3818285Y6680724D01*
X3805724Y6693285D01*
X3703649Y6769786D01*
X3688054Y6778324D01*
X3567606Y6823478D01*
X3552351Y6827105D01*
X3501486Y6832631D01*
X3494672Y6833000D01*
X2872115Y6833000D01*
X2856876Y6828525D01*
X2855671Y6827135D01*
X2854000Y6819452D01*
X2854000Y5747115D01*
X2346000Y5747115D01*
X2346000Y6814884D01*
X2341525Y6830123D01*
X2340135Y6831328D01*
X2332452Y6832999D01*
X1705331Y6832999D01*
X1698510Y6832629D01*
X1647648Y6827105D01*
X1632396Y6823479D01*
X1511946Y6778324D01*
X1496351Y6769786D01*
X1394276Y6693285D01*
X1381715Y6680724D01*
X1305214Y6578649D01*
X1296676Y6563054D01*
X1251522Y6442606D01*
X1247895Y6427351D01*
X1242369Y6376486D01*
X1242000Y6369672D01*
X1242000Y5747115D01*
X254500Y5747115D01*
X254500Y7690891D01*
X10078475Y7690891D01*
X10094139Y7504361D01*
X10145735Y7324425D01*
X10231297Y7157938D01*
X10235120Y7153114D01*
X10235123Y7153110D01*
X10334994Y7027105D01*
X10347568Y7011241D01*
X10430127Y6940978D01*
X10433863Y6937798D01*
X10472776Y6878415D01*
X10478200Y6841844D01*
X10478200Y3884640D01*
X10476402Y3869305D01*
X10477036Y3869236D01*
X10470500Y3809070D01*
X10470500Y3215930D01*
X10477036Y3155764D01*
X10479810Y3148365D01*
X10523141Y3032780D01*
X10526507Y3023801D01*
X10611026Y2911026D01*
X10618206Y2905645D01*
X10618207Y2905644D01*
X10700052Y2844305D01*
X10742567Y2787446D01*
X10747593Y2716628D01*
X10713533Y2654334D01*
X10664364Y2623956D01*
X10651052Y2619515D01*
X10637885Y2613347D01*
X10502508Y2529574D01*
X10491110Y2520540D01*
X10378637Y2407871D01*
X10369625Y2396460D01*
X10286088Y2260937D01*
X10279944Y2247759D01*
X10229685Y2096234D01*
X10226819Y2082868D01*
X10217328Y1990230D01*
X10217000Y1983815D01*
X10217000Y1959615D01*
X10221475Y1944376D01*
X10222865Y1943171D01*
X10230548Y1941500D01*
X12164885Y1941500D01*
X12180124Y1945975D01*
X12181329Y1947365D01*
X12183000Y1955048D01*
X12183000Y1983766D01*
X12182663Y1990282D01*
X12172925Y2084132D01*
X12170032Y2097528D01*
X12119512Y2248953D01*
X12113347Y2262115D01*
X12029574Y2397492D01*
X12020540Y2408890D01*
X11907871Y2521363D01*
X11896460Y2530375D01*
X11760937Y2613912D01*
X11747764Y2620054D01*
X11735956Y2623971D01*
X11677597Y2664403D01*
X11650361Y2729967D01*
X11662895Y2799849D01*
X11700060Y2844389D01*
X11788974Y2911026D01*
X11848360Y2990266D01*
X11905219Y3032780D01*
X11949186Y3040700D01*
X12516140Y3040700D01*
X12584261Y3020698D01*
X12605236Y3003795D01*
X12928030Y2681000D01*
X13193795Y2415235D01*
X13197447Y2411426D01*
X13240137Y2365001D01*
X13247439Y2360473D01*
X13247441Y2360472D01*
X13277787Y2341656D01*
X13287570Y2334933D01*
X13302236Y2323801D01*
X13322857Y2308149D01*
X13337233Y2302457D01*
X13357237Y2292396D01*
X13370374Y2284251D01*
X13378621Y2281855D01*
X13378623Y2281854D01*
X13407639Y2273424D01*
X13467474Y2235210D01*
X13473304Y2228001D01*
X13486026Y2211026D01*
X13598801Y2126507D01*
X13607202Y2123357D01*
X13607205Y2123356D01*
X13675214Y2097861D01*
X13730764Y2077036D01*
X13790930Y2070500D01*
X14384070Y2070500D01*
X14444236Y2077036D01*
X14499786Y2097861D01*
X14567795Y2123356D01*
X14567798Y2123357D01*
X14576199Y2126507D01*
X14688974Y2211026D01*
X14773493Y2323801D01*
X14777667Y2334933D01*
X14820190Y2448365D01*
X14822964Y2455764D01*
X14829500Y2515930D01*
X15170500Y2515930D01*
X15177036Y2455764D01*
X15179810Y2448365D01*
X15222334Y2334933D01*
X15226507Y2323801D01*
X15311026Y2211026D01*
X15423801Y2126507D01*
X15432202Y2123357D01*
X15432205Y2123356D01*
X15500214Y2097861D01*
X15555764Y2077036D01*
X15615930Y2070500D01*
X16209070Y2070500D01*
X16269236Y2077036D01*
X16324786Y2097861D01*
X16392795Y2123356D01*
X16392798Y2123357D01*
X16401199Y2126507D01*
X16513974Y2211026D01*
X16598493Y2323801D01*
X16602667Y2334933D01*
X16645190Y2448365D01*
X16647964Y2455764D01*
X16654500Y2515930D01*
X16654500Y2811340D01*
X16674502Y2879461D01*
X16691405Y2900436D01*
X16907266Y3116296D01*
X16969578Y3150321D01*
X16996361Y3153200D01*
X18318461Y3153200D01*
X18386582Y3133198D01*
X18406347Y3117269D01*
X18411026Y3111026D01*
X18418206Y3105645D01*
X18418207Y3105644D01*
X18500052Y3044305D01*
X18542567Y2987446D01*
X18547593Y2916628D01*
X18513533Y2854334D01*
X18464364Y2823956D01*
X18451052Y2819515D01*
X18437885Y2813347D01*
X18302508Y2729574D01*
X18291110Y2720540D01*
X18178637Y2607871D01*
X18169625Y2596460D01*
X18086088Y2460937D01*
X18079944Y2447759D01*
X18029685Y2296234D01*
X18026819Y2282868D01*
X18017328Y2190230D01*
X18017000Y2183815D01*
X18017000Y2159615D01*
X18021475Y2144376D01*
X18022865Y2143171D01*
X18030548Y2141500D01*
X19964885Y2141500D01*
X19980124Y2145975D01*
X19981329Y2147365D01*
X19983000Y2155048D01*
X19983000Y2183766D01*
X19982663Y2190282D01*
X19972925Y2284132D01*
X19970032Y2297528D01*
X19919512Y2448953D01*
X19913347Y2462115D01*
X19829574Y2597492D01*
X19820540Y2608890D01*
X19707871Y2721363D01*
X19696460Y2730375D01*
X19560937Y2813912D01*
X19547764Y2820054D01*
X19535956Y2823971D01*
X19477597Y2864403D01*
X19476504Y2867034D01*
X24468257Y2867034D01*
X24498565Y2732554D01*
X24501645Y2722725D01*
X24581770Y2525397D01*
X24586413Y2516206D01*
X24697694Y2334612D01*
X24703777Y2326301D01*
X24843213Y2165333D01*
X24850580Y2158117D01*
X25014434Y2022084D01*
X25022881Y2016169D01*
X25206756Y1908721D01*
X25216042Y1904271D01*
X25415001Y1828297D01*
X25424899Y1825421D01*
X25528250Y1804394D01*
X25542299Y1805590D01*
X25546000Y1815935D01*
X25546000Y1816483D01*
X26054000Y1816483D01*
X26058064Y1802641D01*
X26071478Y1800607D01*
X26078184Y1801466D01*
X26088262Y1803608D01*
X26292255Y1864809D01*
X26301842Y1868567D01*
X26493095Y1962261D01*
X26501945Y1967536D01*
X26675328Y2091208D01*
X26683200Y2097861D01*
X26834052Y2248188D01*
X26840730Y2256035D01*
X26965003Y2428980D01*
X26970313Y2437817D01*
X27064670Y2628733D01*
X27068469Y2638328D01*
X27130377Y2842090D01*
X27132555Y2852163D01*
X27133986Y2863038D01*
X27131775Y2877222D01*
X27118617Y2881000D01*
X26072115Y2881000D01*
X26056876Y2876525D01*
X26055671Y2875135D01*
X26054000Y2867452D01*
X26054000Y1816483D01*
X25546000Y1816483D01*
X25546000Y2862885D01*
X25541525Y2878124D01*
X25540135Y2879329D01*
X25532452Y2881000D01*
X24483225Y2881000D01*
X24469694Y2877027D01*
X24468257Y2867034D01*
X19476504Y2867034D01*
X19450361Y2929967D01*
X19462895Y2999849D01*
X19500060Y3044389D01*
X19588974Y3111026D01*
X19673493Y3223801D01*
X19722964Y3355764D01*
X19729500Y3415930D01*
X19729500Y4009070D01*
X19722964Y4069236D01*
X19700273Y4129765D01*
X19676644Y4192795D01*
X19676643Y4192798D01*
X19673493Y4201199D01*
X19588974Y4313974D01*
X19476199Y4398493D01*
X19467798Y4401643D01*
X19467795Y4401644D01*
X19389387Y4431037D01*
X19344236Y4447964D01*
X19336383Y4448817D01*
X19336379Y4448818D01*
X19329195Y4449598D01*
X19263632Y4476838D01*
X19223205Y4535201D01*
X19216800Y4574861D01*
X19216800Y4780331D01*
X24442001Y4780331D01*
X24442371Y4773510D01*
X24447895Y4722648D01*
X24451521Y4707396D01*
X24496676Y4586946D01*
X24505214Y4571351D01*
X24581715Y4469276D01*
X24594276Y4456715D01*
X24696351Y4380214D01*
X24711946Y4371676D01*
X24821337Y4330667D01*
X24878101Y4288025D01*
X24902801Y4221464D01*
X24887594Y4152115D01*
X24868201Y4125634D01*
X24744590Y3996283D01*
X24738104Y3988273D01*
X24618098Y3812351D01*
X24613000Y3803377D01*
X24523338Y3610217D01*
X24519775Y3600530D01*
X24464389Y3400817D01*
X24465912Y3392393D01*
X24478292Y3389000D01*
X25527885Y3389000D01*
X25543124Y3393475D01*
X25544329Y3394865D01*
X25546000Y3402548D01*
X25546000Y3407115D01*
X26054000Y3407115D01*
X26058475Y3391876D01*
X26059865Y3390671D01*
X26067548Y3389000D01*
X27118344Y3389000D01*
X27131875Y3392973D01*
X27133180Y3402053D01*
X27091214Y3569125D01*
X27087894Y3578876D01*
X27002972Y3774186D01*
X26998105Y3783261D01*
X26882426Y3962074D01*
X26876136Y3970243D01*
X26731931Y4128721D01*
X26700879Y4192567D01*
X26709273Y4263066D01*
X26754450Y4317834D01*
X26780894Y4331503D01*
X26888054Y4371676D01*
X26903649Y4380214D01*
X27005724Y4456715D01*
X27018285Y4469276D01*
X27094786Y4571351D01*
X27103324Y4586946D01*
X27148478Y4707394D01*
X27152105Y4722649D01*
X27157631Y4773514D01*
X27158000Y4780328D01*
X27158000Y5402885D01*
X27153525Y5418124D01*
X27152135Y5419329D01*
X27144452Y5421000D01*
X26072115Y5421000D01*
X26056876Y5416525D01*
X26055671Y5415135D01*
X26054000Y5407452D01*
X26054000Y3407115D01*
X25546000Y3407115D01*
X25546000Y5402885D01*
X25541525Y5418124D01*
X25540135Y5419329D01*
X25532452Y5421000D01*
X24460116Y5421000D01*
X24444877Y5416525D01*
X24443672Y5415135D01*
X24442001Y5407452D01*
X24442001Y4780331D01*
X19216800Y4780331D01*
X19216800Y5947115D01*
X24442000Y5947115D01*
X24446475Y5931876D01*
X24447865Y5930671D01*
X24455548Y5929000D01*
X25527885Y5929000D01*
X25543124Y5933475D01*
X25544329Y5934865D01*
X25546000Y5942548D01*
X25546000Y5947115D01*
X26054000Y5947115D01*
X26058475Y5931876D01*
X26059865Y5930671D01*
X26067548Y5929000D01*
X27139884Y5929000D01*
X27155123Y5933475D01*
X27156328Y5934865D01*
X27157999Y5942548D01*
X27157999Y6569669D01*
X27157629Y6576490D01*
X27152105Y6627352D01*
X27148479Y6642604D01*
X27103324Y6763054D01*
X27094786Y6778649D01*
X27018285Y6880724D01*
X27005724Y6893285D01*
X26903649Y6969786D01*
X26888054Y6978324D01*
X26767606Y7023478D01*
X26752351Y7027105D01*
X26701486Y7032631D01*
X26694672Y7033000D01*
X26072115Y7033000D01*
X26056876Y7028525D01*
X26055671Y7027135D01*
X26054000Y7019452D01*
X26054000Y5947115D01*
X25546000Y5947115D01*
X25546000Y7014884D01*
X25541525Y7030123D01*
X25540135Y7031328D01*
X25532452Y7032999D01*
X24905331Y7032999D01*
X24898510Y7032629D01*
X24847648Y7027105D01*
X24832396Y7023479D01*
X24711946Y6978324D01*
X24696351Y6969786D01*
X24594276Y6893285D01*
X24581715Y6880724D01*
X24505214Y6778649D01*
X24496676Y6763054D01*
X24451522Y6642606D01*
X24447895Y6627351D01*
X24442369Y6576486D01*
X24442000Y6569672D01*
X24442000Y5947115D01*
X19216800Y5947115D01*
X19216800Y6841689D01*
X19236802Y6909810D01*
X19265227Y6940978D01*
X19314065Y6979134D01*
X19314073Y6979142D01*
X19318927Y6982934D01*
X19441238Y7124633D01*
X19533698Y7287392D01*
X19592783Y7465009D01*
X19616244Y7650720D01*
X19616618Y7677500D01*
X19598352Y7863794D01*
X19544249Y8042991D01*
X19456370Y8208268D01*
X19452480Y8213038D01*
X19452477Y8213042D01*
X19341957Y8348552D01*
X19341954Y8348555D01*
X19338062Y8353327D01*
X19193832Y8472645D01*
X19029173Y8561676D01*
X18939765Y8589352D01*
X18856244Y8615206D01*
X18856241Y8615207D01*
X18850357Y8617028D01*
X18844232Y8617672D01*
X18844231Y8617672D01*
X18670324Y8635951D01*
X18670323Y8635951D01*
X18664196Y8636595D01*
X18587643Y8629628D01*
X18483918Y8620188D01*
X18483915Y8620187D01*
X18477779Y8619629D01*
X18471873Y8617891D01*
X18471869Y8617890D01*
X18336575Y8578071D01*
X18298208Y8566779D01*
X18132322Y8480056D01*
X18127522Y8476196D01*
X18127521Y8476196D01*
X18118218Y8468716D01*
X17986440Y8362764D01*
X17866119Y8219370D01*
X17863155Y8213978D01*
X17863152Y8213974D01*
X17788955Y8079009D01*
X17775941Y8055337D01*
X17774080Y8049470D01*
X17774079Y8049468D01*
X17770153Y8037091D01*
X17719341Y7876912D01*
X17698475Y7690891D01*
X17714139Y7504361D01*
X17765735Y7324425D01*
X17851297Y7157938D01*
X17855120Y7153114D01*
X17855123Y7153110D01*
X17954994Y7027105D01*
X17967568Y7011241D01*
X18050127Y6940978D01*
X18053863Y6937798D01*
X18092776Y6878415D01*
X18098200Y6841844D01*
X18098200Y4397800D01*
X18078198Y4329679D01*
X18024542Y4283186D01*
X17972200Y4271800D01*
X16727659Y4271800D01*
X16722383Y4271911D01*
X16718233Y4272085D01*
X16659371Y4274552D01*
X16651008Y4272590D01*
X16651004Y4272590D01*
X16616238Y4264436D01*
X16604568Y4262273D01*
X16594761Y4260929D01*
X16560679Y4256261D01*
X16552798Y4252851D01*
X16552796Y4252850D01*
X16546492Y4250122D01*
X16525225Y4243088D01*
X16510181Y4239560D01*
X16477264Y4221464D01*
X16471365Y4218221D01*
X16460706Y4212999D01*
X16427928Y4198815D01*
X16427926Y4198814D01*
X16420044Y4195403D01*
X16408030Y4185674D01*
X16389441Y4173183D01*
X16375896Y4165737D01*
X16367648Y4158617D01*
X16342651Y4133620D01*
X16332850Y4124795D01*
X16300955Y4098967D01*
X16295980Y4091966D01*
X16295976Y4091962D01*
X16289781Y4083245D01*
X16276170Y4067139D01*
X15775436Y3566405D01*
X15713124Y3532379D01*
X15686341Y3529500D01*
X15615930Y3529500D01*
X15555764Y3522964D01*
X15510613Y3506037D01*
X15432205Y3476644D01*
X15432202Y3476643D01*
X15423801Y3473493D01*
X15311026Y3388974D01*
X15226507Y3276199D01*
X15223357Y3267798D01*
X15223356Y3267795D01*
X15200608Y3207115D01*
X15177036Y3144236D01*
X15170500Y3084070D01*
X15170500Y2515930D01*
X14829500Y2515930D01*
X14829500Y3084070D01*
X14822964Y3144236D01*
X14799392Y3207115D01*
X14776644Y3267795D01*
X14776643Y3267798D01*
X14773493Y3276199D01*
X14688974Y3388974D01*
X14576199Y3473493D01*
X14567798Y3476643D01*
X14567795Y3476644D01*
X14489387Y3506037D01*
X14444236Y3522964D01*
X14384070Y3529500D01*
X13790930Y3529500D01*
X13734170Y3523334D01*
X13664287Y3535862D01*
X13631467Y3559502D01*
X13206228Y3984741D01*
X13202575Y3988550D01*
X13165677Y4028676D01*
X13159863Y4034999D01*
X13122216Y4058341D01*
X13112432Y4065065D01*
X13083983Y4086659D01*
X13083984Y4086659D01*
X13077143Y4091851D01*
X13062767Y4097543D01*
X13042761Y4107605D01*
X13029626Y4115749D01*
X13021378Y4118145D01*
X13021372Y4118148D01*
X12987085Y4128110D01*
X12975858Y4131954D01*
X12942658Y4145098D01*
X12942657Y4145098D01*
X12934666Y4148262D01*
X12919298Y4149877D01*
X12897313Y4154190D01*
X12882472Y4158502D01*
X12875895Y4158985D01*
X12873912Y4159131D01*
X12873901Y4159131D01*
X12871605Y4159300D01*
X12836254Y4159300D01*
X12823083Y4159990D01*
X12790811Y4163382D01*
X12782267Y4164280D01*
X12773795Y4162847D01*
X12773794Y4162847D01*
X12763260Y4161065D01*
X12742246Y4159300D01*
X11770470Y4159300D01*
X11702349Y4179302D01*
X11694921Y4184462D01*
X11676199Y4198493D01*
X11667794Y4201644D01*
X11662291Y4204657D01*
X11612145Y4254915D01*
X11596800Y4315177D01*
X11596800Y6841689D01*
X11616802Y6909810D01*
X11645227Y6940978D01*
X11694065Y6979134D01*
X11694073Y6979142D01*
X11698927Y6982934D01*
X11821238Y7124633D01*
X11913698Y7287392D01*
X11972783Y7465009D01*
X11996244Y7650720D01*
X11996618Y7677500D01*
X11978352Y7863794D01*
X11924249Y8042991D01*
X11836370Y8208268D01*
X11832480Y8213038D01*
X11832477Y8213042D01*
X11721957Y8348552D01*
X11721954Y8348555D01*
X11718062Y8353327D01*
X11573832Y8472645D01*
X11409173Y8561676D01*
X11319765Y8589352D01*
X11236244Y8615206D01*
X11236241Y8615207D01*
X11230357Y8617028D01*
X11224232Y8617672D01*
X11224231Y8617672D01*
X11050324Y8635951D01*
X11050323Y8635951D01*
X11044196Y8636595D01*
X10967643Y8629628D01*
X10863918Y8620188D01*
X10863915Y8620187D01*
X10857779Y8619629D01*
X10851873Y8617891D01*
X10851869Y8617890D01*
X10716575Y8578071D01*
X10678208Y8566779D01*
X10512322Y8480056D01*
X10507522Y8476196D01*
X10507521Y8476196D01*
X10498218Y8468716D01*
X10366440Y8362764D01*
X10246119Y8219370D01*
X10243155Y8213978D01*
X10243152Y8213974D01*
X10168955Y8079009D01*
X10155941Y8055337D01*
X10154080Y8049470D01*
X10154079Y8049468D01*
X10150153Y8037091D01*
X10099341Y7876912D01*
X10078475Y7690891D01*
X254500Y7690891D01*
X254500Y11273016D01*
X274502Y11341137D01*
X328158Y11387630D01*
X394107Y11398279D01*
X448512Y11392369D01*
X455328Y11392000D01*
X2327885Y11392000D01*
X2343124Y11396475D01*
X2344329Y11397865D01*
X2346000Y11405548D01*
X2346000Y11410116D01*
X2854000Y11410116D01*
X2858475Y11394877D01*
X2859865Y11393672D01*
X2867548Y11392001D01*
X4744669Y11392001D01*
X4751490Y11392371D01*
X4802352Y11397895D01*
X4817604Y11401521D01*
X4938054Y11446676D01*
X4953649Y11455214D01*
X5055724Y11531715D01*
X5068285Y11544276D01*
X5144786Y11646351D01*
X5153324Y11661946D01*
X5198478Y11782394D01*
X5202105Y11797649D01*
X5207631Y11848514D01*
X5208000Y11855328D01*
X5208000Y12302885D01*
X5203525Y12318124D01*
X5202135Y12319329D01*
X5194452Y12321000D01*
X2872115Y12321000D01*
X2856876Y12316525D01*
X2855671Y12315135D01*
X2854000Y12307452D01*
X2854000Y11410116D01*
X2346000Y11410116D01*
X2346000Y12770891D01*
X10078475Y12770891D01*
X10094139Y12584361D01*
X10145735Y12404425D01*
X10231297Y12237938D01*
X10235120Y12233114D01*
X10235123Y12233110D01*
X10257694Y12204633D01*
X10347568Y12091241D01*
X10490118Y11969921D01*
X10495496Y11966915D01*
X10495498Y11966914D01*
X10529896Y11947690D01*
X10653518Y11878600D01*
X10831543Y11820756D01*
X11017414Y11798592D01*
X11023549Y11799064D01*
X11023551Y11799064D01*
X11197908Y11812480D01*
X11197913Y11812481D01*
X11204049Y11812953D01*
X11209979Y11814609D01*
X11209981Y11814609D01*
X11378413Y11861636D01*
X11378412Y11861636D01*
X11384341Y11863291D01*
X11414648Y11878600D01*
X11463274Y11903163D01*
X11551421Y11947690D01*
X11579876Y11969921D01*
X11694066Y12059136D01*
X11694067Y12059137D01*
X11698927Y12062934D01*
X11777991Y12154531D01*
X11837644Y12193028D01*
X11873373Y12198200D01*
X17821882Y12198200D01*
X17890003Y12178198D01*
X17920627Y12150465D01*
X17967568Y12091241D01*
X18110118Y11969921D01*
X18115496Y11966915D01*
X18115498Y11966914D01*
X18149896Y11947690D01*
X18273518Y11878600D01*
X18451543Y11820756D01*
X18637414Y11798592D01*
X18643549Y11799064D01*
X18643551Y11799064D01*
X18817908Y11812480D01*
X18817913Y11812481D01*
X18824049Y11812953D01*
X18829979Y11814609D01*
X18829981Y11814609D01*
X18998413Y11861636D01*
X18998412Y11861636D01*
X19004341Y11863291D01*
X19034648Y11878600D01*
X19083274Y11903163D01*
X19171421Y11947690D01*
X19199876Y11969921D01*
X19314071Y12059140D01*
X19314072Y12059140D01*
X19318927Y12062934D01*
X19441238Y12204633D01*
X19533698Y12367392D01*
X19592783Y12545009D01*
X19616244Y12730720D01*
X19616618Y12757500D01*
X19598352Y12943794D01*
X19544249Y13122991D01*
X19456370Y13288268D01*
X19452480Y13293038D01*
X19452477Y13293042D01*
X19341957Y13428552D01*
X19341954Y13428555D01*
X19338062Y13433327D01*
X19311464Y13455331D01*
X23192001Y13455331D01*
X23192371Y13448510D01*
X23197895Y13397648D01*
X23201521Y13382396D01*
X23246676Y13261946D01*
X23255214Y13246351D01*
X23331715Y13144276D01*
X23344276Y13131715D01*
X23446351Y13055214D01*
X23461946Y13046676D01*
X23582394Y13001522D01*
X23597649Y12997895D01*
X23648514Y12992369D01*
X23655328Y12992000D01*
X25527885Y12992000D01*
X25543124Y12996475D01*
X25544329Y12997865D01*
X25546000Y13005548D01*
X25546000Y13902885D01*
X25541525Y13918124D01*
X25540135Y13919329D01*
X25532452Y13921000D01*
X23210116Y13921000D01*
X23194877Y13916525D01*
X23193672Y13915135D01*
X23192001Y13907452D01*
X23192001Y13455331D01*
X19311464Y13455331D01*
X19193832Y13552645D01*
X19029173Y13641676D01*
X18939765Y13669352D01*
X18856244Y13695206D01*
X18856241Y13695207D01*
X18850357Y13697028D01*
X18844232Y13697672D01*
X18844231Y13697672D01*
X18670324Y13715951D01*
X18670323Y13715951D01*
X18664196Y13716595D01*
X18587643Y13709628D01*
X18483918Y13700188D01*
X18483915Y13700187D01*
X18477779Y13699629D01*
X18471873Y13697891D01*
X18471869Y13697890D01*
X18336575Y13658071D01*
X18298208Y13646779D01*
X18132322Y13560056D01*
X18127522Y13556196D01*
X18127521Y13556196D01*
X18118218Y13548716D01*
X17986440Y13442764D01*
X17919648Y13363164D01*
X17918511Y13361809D01*
X17859401Y13322482D01*
X17821989Y13316800D01*
X11872929Y13316800D01*
X11804808Y13336802D01*
X11775286Y13363164D01*
X11721957Y13428551D01*
X11721956Y13428552D01*
X11718062Y13433327D01*
X11573832Y13552645D01*
X11409173Y13641676D01*
X11319765Y13669352D01*
X11236244Y13695206D01*
X11236241Y13695207D01*
X11230357Y13697028D01*
X11224232Y13697672D01*
X11224231Y13697672D01*
X11050324Y13715951D01*
X11050323Y13715951D01*
X11044196Y13716595D01*
X10967643Y13709628D01*
X10863918Y13700188D01*
X10863915Y13700187D01*
X10857779Y13699629D01*
X10851873Y13697891D01*
X10851869Y13697890D01*
X10716575Y13658071D01*
X10678208Y13646779D01*
X10512322Y13560056D01*
X10507522Y13556196D01*
X10507521Y13556196D01*
X10498218Y13548716D01*
X10366440Y13442764D01*
X10246119Y13299370D01*
X10243155Y13293978D01*
X10243152Y13293974D01*
X10168955Y13159009D01*
X10155941Y13135337D01*
X10154080Y13129470D01*
X10154079Y13129468D01*
X10150153Y13117091D01*
X10099341Y12956912D01*
X10078475Y12770891D01*
X2346000Y12770891D01*
X2346000Y12847115D01*
X2854000Y12847115D01*
X2858475Y12831876D01*
X2859865Y12830671D01*
X2867548Y12829000D01*
X5189884Y12829000D01*
X5205123Y12833475D01*
X5206328Y12834865D01*
X5207999Y12842548D01*
X5207999Y13294669D01*
X5207629Y13301490D01*
X5202105Y13352352D01*
X5198479Y13367604D01*
X5153324Y13488054D01*
X5144786Y13503649D01*
X5068285Y13605724D01*
X5055724Y13618285D01*
X4953649Y13694786D01*
X4938054Y13703324D01*
X4817606Y13748478D01*
X4802351Y13752105D01*
X4751486Y13757631D01*
X4744672Y13758000D01*
X2872115Y13758000D01*
X2856876Y13753525D01*
X2855671Y13752135D01*
X2854000Y13744452D01*
X2854000Y12847115D01*
X2346000Y12847115D01*
X2346000Y13739884D01*
X2341525Y13755123D01*
X2340135Y13756328D01*
X2332452Y13757999D01*
X455331Y13757999D01*
X448512Y13757630D01*
X394106Y13751720D01*
X324224Y13764249D01*
X272209Y13812570D01*
X254500Y13876983D01*
X254500Y14447115D01*
X23192000Y14447115D01*
X23196475Y14431876D01*
X23197865Y14430671D01*
X23205548Y14429000D01*
X25527885Y14429000D01*
X25543124Y14433475D01*
X25544329Y14434865D01*
X25546000Y14442548D01*
X25546000Y15339884D01*
X25541525Y15355123D01*
X25540135Y15356328D01*
X25532452Y15357999D01*
X23655331Y15357999D01*
X23648510Y15357629D01*
X23597648Y15352105D01*
X23582396Y15348479D01*
X23461946Y15303324D01*
X23446351Y15294786D01*
X23344276Y15218285D01*
X23331715Y15205724D01*
X23255214Y15103649D01*
X23246676Y15088054D01*
X23201522Y14967606D01*
X23197895Y14952351D01*
X23192369Y14901486D01*
X23192000Y14894672D01*
X23192000Y14447115D01*
X254500Y14447115D01*
X254500Y14454042D01*
X274502Y14522163D01*
X328158Y14568656D01*
X398432Y14578760D01*
X450502Y14558807D01*
X500699Y14525266D01*
X574933Y14510500D01*
X2399705Y14510500D01*
X4225066Y14510501D01*
X4260818Y14517612D01*
X4287126Y14522844D01*
X4287128Y14522845D01*
X4299301Y14525266D01*
X4309621Y14532161D01*
X4309622Y14532162D01*
X4373168Y14574623D01*
X4383484Y14581516D01*
X4439734Y14665699D01*
X4454370Y14739282D01*
X4487277Y14802191D01*
X4548972Y14837323D01*
X4577949Y14840700D01*
X8584841Y14840700D01*
X8590118Y14840589D01*
X8653129Y14837948D01*
X8696265Y14848065D01*
X8707931Y14850227D01*
X8751821Y14856239D01*
X8760706Y14860084D01*
X8766009Y14862378D01*
X8787274Y14869411D01*
X8802320Y14872940D01*
X8809842Y14877075D01*
X8809849Y14877078D01*
X8841146Y14894284D01*
X8851802Y14899505D01*
X8892456Y14917097D01*
X8904470Y14926826D01*
X8923061Y14939318D01*
X8930812Y14943579D01*
X8936604Y14946763D01*
X8944852Y14953883D01*
X8969849Y14978880D01*
X8979650Y14987705D01*
X9004868Y15008126D01*
X9011545Y15013533D01*
X9016520Y15020534D01*
X9016524Y15020538D01*
X9022719Y15029255D01*
X9036330Y15045361D01*
X10842051Y16851081D01*
X10904363Y16885107D01*
X10946064Y16887100D01*
X11017414Y16878592D01*
X11023549Y16879064D01*
X11023551Y16879064D01*
X11197908Y16892480D01*
X11197913Y16892481D01*
X11204049Y16892953D01*
X11209979Y16894609D01*
X11209981Y16894609D01*
X11378413Y16941636D01*
X11378412Y16941636D01*
X11384341Y16943291D01*
X11414648Y16958600D01*
X11479059Y16991137D01*
X11551421Y17027690D01*
X11569739Y17042001D01*
X11694071Y17139140D01*
X11694072Y17139140D01*
X11698927Y17142934D01*
X11821238Y17284633D01*
X11913698Y17447392D01*
X11972783Y17625009D01*
X11996244Y17810720D01*
X11996618Y17837500D01*
X11978352Y18023794D01*
X11924249Y18202991D01*
X11836370Y18368268D01*
X11832480Y18373038D01*
X11832477Y18373042D01*
X11721957Y18508552D01*
X11721954Y18508555D01*
X11718062Y18513327D01*
X11573832Y18632645D01*
X11409173Y18721676D01*
X11319765Y18749352D01*
X11236244Y18775206D01*
X11236241Y18775207D01*
X11230357Y18777028D01*
X11224232Y18777672D01*
X11224231Y18777672D01*
X11050324Y18795951D01*
X11050323Y18795951D01*
X11044196Y18796595D01*
X10967643Y18789628D01*
X10863918Y18780188D01*
X10863915Y18780187D01*
X10857779Y18779629D01*
X10851873Y18777891D01*
X10851869Y18777890D01*
X10716575Y18738071D01*
X10678208Y18726779D01*
X10512322Y18640056D01*
X10507522Y18636196D01*
X10507521Y18636196D01*
X10498218Y18628716D01*
X10366440Y18522764D01*
X10246119Y18379370D01*
X10243155Y18373978D01*
X10243152Y18373974D01*
X10168955Y18239009D01*
X10155941Y18215337D01*
X10154080Y18209470D01*
X10154079Y18209468D01*
X10150153Y18197091D01*
X10099341Y18036912D01*
X10078475Y17850891D01*
X10087400Y17744620D01*
X10087638Y17741783D01*
X10073407Y17672228D01*
X10051175Y17642144D01*
X8405236Y15996205D01*
X8342924Y15962179D01*
X8316141Y15959300D01*
X4577948Y15959300D01*
X4509827Y15979302D01*
X4463334Y16032958D01*
X4454369Y16060720D01*
X4444881Y16108422D01*
X4439734Y16134301D01*
X4423360Y16158807D01*
X4390377Y16208168D01*
X4383484Y16218484D01*
X4299301Y16274734D01*
X4225067Y16289500D01*
X2400295Y16289500D01*
X574934Y16289499D01*
X539182Y16282388D01*
X512874Y16277156D01*
X512872Y16277155D01*
X500699Y16274734D01*
X490379Y16267839D01*
X490378Y16267838D01*
X450502Y16241193D01*
X382750Y16219978D01*
X314283Y16238761D01*
X266839Y16291578D01*
X254500Y16345958D01*
X254500Y16923016D01*
X274502Y16991137D01*
X328158Y17037630D01*
X394107Y17048279D01*
X448512Y17042369D01*
X455328Y17042000D01*
X2327885Y17042000D01*
X2343124Y17046475D01*
X2344329Y17047865D01*
X2346000Y17055548D01*
X2346000Y17060116D01*
X2854000Y17060116D01*
X2858475Y17044877D01*
X2859865Y17043672D01*
X2867548Y17042001D01*
X4744669Y17042001D01*
X4751490Y17042371D01*
X4802352Y17047895D01*
X4817604Y17051521D01*
X4938054Y17096676D01*
X4953649Y17105214D01*
X5055724Y17181715D01*
X5068285Y17194276D01*
X5144786Y17296351D01*
X5153324Y17311946D01*
X5198478Y17432394D01*
X5202105Y17447649D01*
X5207631Y17498514D01*
X5208000Y17505328D01*
X5208000Y17952885D01*
X5203525Y17968124D01*
X5202135Y17969329D01*
X5194452Y17971000D01*
X2872115Y17971000D01*
X2856876Y17966525D01*
X2855671Y17965135D01*
X2854000Y17957452D01*
X2854000Y17060116D01*
X2346000Y17060116D01*
X2346000Y18497115D01*
X2854000Y18497115D01*
X2858475Y18481876D01*
X2859865Y18480671D01*
X2867548Y18479000D01*
X5189884Y18479000D01*
X5205123Y18483475D01*
X5206328Y18484865D01*
X5207999Y18492548D01*
X5207999Y18944669D01*
X5207629Y18951490D01*
X5202105Y19002352D01*
X5198479Y19017604D01*
X5165591Y19105331D01*
X23192001Y19105331D01*
X23192371Y19098510D01*
X23197895Y19047648D01*
X23201521Y19032396D01*
X23246676Y18911946D01*
X23255214Y18896351D01*
X23331715Y18794276D01*
X23344276Y18781715D01*
X23446351Y18705214D01*
X23461946Y18696676D01*
X23582394Y18651522D01*
X23597649Y18647895D01*
X23648514Y18642369D01*
X23655328Y18642000D01*
X25527885Y18642000D01*
X25543124Y18646475D01*
X25544329Y18647865D01*
X25546000Y18655548D01*
X25546000Y19552885D01*
X25541525Y19568124D01*
X25540135Y19569329D01*
X25532452Y19571000D01*
X23210116Y19571000D01*
X23194877Y19566525D01*
X23193672Y19565135D01*
X23192001Y19557452D01*
X23192001Y19105331D01*
X5165591Y19105331D01*
X5153324Y19138054D01*
X5144786Y19153649D01*
X5068285Y19255724D01*
X5055724Y19268285D01*
X4953649Y19344786D01*
X4938054Y19353324D01*
X4817606Y19398478D01*
X4802351Y19402105D01*
X4751486Y19407631D01*
X4744672Y19408000D01*
X2872115Y19408000D01*
X2856876Y19403525D01*
X2855671Y19402135D01*
X2854000Y19394452D01*
X2854000Y18497115D01*
X2346000Y18497115D01*
X2346000Y19389884D01*
X2341525Y19405123D01*
X2340135Y19406328D01*
X2332452Y19407999D01*
X455331Y19407999D01*
X448512Y19407630D01*
X394106Y19401720D01*
X324224Y19414249D01*
X272209Y19462570D01*
X254500Y19526983D01*
X254500Y20097115D01*
X23192000Y20097115D01*
X23196475Y20081876D01*
X23197865Y20080671D01*
X23205548Y20079000D01*
X25527885Y20079000D01*
X25543124Y20083475D01*
X25544329Y20084865D01*
X25546000Y20092548D01*
X25546000Y20989884D01*
X25541525Y21005123D01*
X25540135Y21006328D01*
X25532452Y21007999D01*
X23655331Y21007999D01*
X23648510Y21007629D01*
X23597648Y21002105D01*
X23582396Y20998479D01*
X23461946Y20953324D01*
X23446351Y20944786D01*
X23344276Y20868285D01*
X23331715Y20855724D01*
X23255214Y20753649D01*
X23246676Y20738054D01*
X23201522Y20617606D01*
X23197895Y20602351D01*
X23192369Y20551486D01*
X23192000Y20544672D01*
X23192000Y20097115D01*
X254500Y20097115D01*
X254500Y21791234D01*
X617000Y21791234D01*
X617337Y21784718D01*
X627075Y21690868D01*
X629968Y21677472D01*
X680488Y21526047D01*
X686653Y21512885D01*
X770426Y21377508D01*
X779460Y21366110D01*
X892129Y21253637D01*
X903540Y21244625D01*
X1039063Y21161088D01*
X1052241Y21154944D01*
X1203766Y21104685D01*
X1217132Y21101819D01*
X1309770Y21092328D01*
X1316185Y21092000D01*
X1327885Y21092000D01*
X1343124Y21096475D01*
X1344329Y21097865D01*
X1346000Y21105548D01*
X1346000Y21110115D01*
X1854000Y21110115D01*
X1858475Y21094876D01*
X1859865Y21093671D01*
X1867548Y21092000D01*
X1883766Y21092000D01*
X1890282Y21092337D01*
X1984132Y21102075D01*
X1997528Y21104968D01*
X2148953Y21155488D01*
X2162115Y21161653D01*
X2297492Y21245426D01*
X2308890Y21254460D01*
X2421363Y21367129D01*
X2430375Y21378540D01*
X2513912Y21514063D01*
X2520056Y21527241D01*
X2570315Y21678766D01*
X2573181Y21692132D01*
X2582606Y21784129D01*
X3223456Y21784129D01*
X3264107Y21644210D01*
X3270352Y21629779D01*
X3346911Y21500322D01*
X3356551Y21487896D01*
X3462896Y21381551D01*
X3475322Y21371911D01*
X3604779Y21295352D01*
X3619210Y21289107D01*
X3765065Y21246731D01*
X3777667Y21244430D01*
X3806084Y21242193D01*
X3811014Y21242000D01*
X4190385Y21242000D01*
X4205624Y21246475D01*
X4206829Y21247865D01*
X4208500Y21255548D01*
X4208500Y21260116D01*
X4716500Y21260116D01*
X4720975Y21244877D01*
X4722365Y21243672D01*
X4730048Y21242001D01*
X5113984Y21242001D01*
X5118920Y21242195D01*
X5147336Y21244430D01*
X5159931Y21246730D01*
X5305790Y21289107D01*
X5320221Y21295352D01*
X5449678Y21371911D01*
X5462104Y21381551D01*
X5568449Y21487896D01*
X5578089Y21500322D01*
X5654648Y21629779D01*
X5660893Y21644210D01*
X5699939Y21778605D01*
X5699899Y21792706D01*
X5692630Y21796000D01*
X4734615Y21796000D01*
X4719376Y21791525D01*
X4718171Y21790135D01*
X4716500Y21782452D01*
X4716500Y21260116D01*
X4208500Y21260116D01*
X4208500Y21777885D01*
X4204025Y21793124D01*
X4202635Y21794329D01*
X4194952Y21796000D01*
X3238122Y21796000D01*
X3224591Y21792027D01*
X3223456Y21784129D01*
X2582606Y21784129D01*
X2582672Y21784770D01*
X2583000Y21791185D01*
X2583000Y21815385D01*
X2578525Y21830624D01*
X2577135Y21831829D01*
X2569452Y21833500D01*
X1872115Y21833500D01*
X1856876Y21829025D01*
X1855671Y21827635D01*
X1854000Y21819952D01*
X1854000Y21110115D01*
X1346000Y21110115D01*
X1346000Y21815385D01*
X1341525Y21830624D01*
X1340135Y21831829D01*
X1332452Y21833500D01*
X635115Y21833500D01*
X619876Y21829025D01*
X618671Y21827635D01*
X617000Y21819952D01*
X617000Y21791234D01*
X254500Y21791234D01*
X254500Y22321395D01*
X3225061Y22321395D01*
X3225101Y22307294D01*
X3232370Y22304000D01*
X4190385Y22304000D01*
X4205624Y22308475D01*
X4206829Y22309865D01*
X4208500Y22317548D01*
X4208500Y22839884D01*
X4204025Y22855123D01*
X4202635Y22856328D01*
X4194952Y22857999D01*
X3811017Y22857999D01*
X3806080Y22857805D01*
X3777664Y22855570D01*
X3765069Y22853270D01*
X3619210Y22810893D01*
X3604779Y22804648D01*
X3475322Y22728089D01*
X3462896Y22718449D01*
X3356551Y22612104D01*
X3346911Y22599678D01*
X3270352Y22470221D01*
X3264107Y22455790D01*
X3225061Y22321395D01*
X254500Y22321395D01*
X254500Y22359615D01*
X617000Y22359615D01*
X621475Y22344376D01*
X622865Y22343171D01*
X630548Y22341500D01*
X2564885Y22341500D01*
X2580124Y22345975D01*
X2581329Y22347365D01*
X2583000Y22355048D01*
X2583000Y22383766D01*
X2582663Y22390282D01*
X2572925Y22484132D01*
X2570032Y22497528D01*
X2519512Y22648953D01*
X2513347Y22662115D01*
X2429574Y22797492D01*
X2420540Y22808890D01*
X2307871Y22921363D01*
X2296460Y22930375D01*
X2160937Y23013912D01*
X2147764Y23020054D01*
X2135956Y23023971D01*
X2077597Y23064403D01*
X2050361Y23129967D01*
X2062895Y23199849D01*
X2100060Y23244389D01*
X2188974Y23311026D01*
X2210887Y23340265D01*
X2267745Y23382780D01*
X2311713Y23390700D01*
X3934841Y23390700D01*
X3940118Y23390589D01*
X4003129Y23387948D01*
X4011491Y23389909D01*
X4013942Y23390141D01*
X4025797Y23390700D01*
X4500884Y23390700D01*
X4505129Y23391282D01*
X4505136Y23391282D01*
X4527413Y23394334D01*
X4544513Y23395500D01*
X5081834Y23395500D01*
X5176555Y23410502D01*
X5185389Y23415003D01*
X5194822Y23418068D01*
X5195742Y23415237D01*
X5249849Y23425398D01*
X5315634Y23398698D01*
X5356540Y23340670D01*
X5359280Y23276749D01*
X5360502Y23276555D01*
X5345500Y23181834D01*
X5345500Y22967173D01*
X5325498Y22899052D01*
X5271842Y22852559D01*
X5201568Y22842455D01*
X5184345Y22846177D01*
X5159941Y22853268D01*
X5147333Y22855570D01*
X5118916Y22857807D01*
X5113986Y22858000D01*
X4734615Y22858000D01*
X4719376Y22853525D01*
X4718171Y22852135D01*
X4716500Y22844452D01*
X4716500Y22322115D01*
X4720975Y22306876D01*
X4722365Y22305671D01*
X4730048Y22304000D01*
X5686878Y22304000D01*
X5700408Y22307973D01*
X5704643Y22337431D01*
X5734136Y22402012D01*
X5793862Y22440396D01*
X5829361Y22445500D01*
X6225438Y22445500D01*
X6247752Y22443508D01*
X6248691Y22443339D01*
X6255028Y22441498D01*
X6262049Y22440982D01*
X6263588Y22440869D01*
X6263599Y22440869D01*
X6265895Y22440700D01*
X8564841Y22440700D01*
X8570118Y22440589D01*
X8633129Y22437948D01*
X8676265Y22448065D01*
X8687931Y22450227D01*
X8731821Y22456239D01*
X8740706Y22460084D01*
X8746009Y22462378D01*
X8767274Y22469411D01*
X8782320Y22472940D01*
X8789842Y22477075D01*
X8789849Y22477078D01*
X8821146Y22494284D01*
X8831802Y22499505D01*
X8872456Y22517097D01*
X8884470Y22526826D01*
X8903061Y22539318D01*
X8910812Y22543579D01*
X8916604Y22546763D01*
X8924852Y22553883D01*
X8949849Y22578880D01*
X8959650Y22587705D01*
X8984868Y22608126D01*
X8991545Y22613533D01*
X8996520Y22620534D01*
X8996524Y22620538D01*
X9002719Y22629255D01*
X9016330Y22645361D01*
X9762203Y23391234D01*
X21017000Y23391234D01*
X21017337Y23384718D01*
X21027075Y23290868D01*
X21029968Y23277472D01*
X21080488Y23126047D01*
X21086653Y23112885D01*
X21170426Y22977508D01*
X21179460Y22966110D01*
X21292129Y22853637D01*
X21303540Y22844625D01*
X21439063Y22761088D01*
X21452241Y22754944D01*
X21603766Y22704685D01*
X21617132Y22701819D01*
X21709770Y22692328D01*
X21716185Y22692000D01*
X21727885Y22692000D01*
X21743124Y22696475D01*
X21744329Y22697865D01*
X21746000Y22705548D01*
X21746000Y22710115D01*
X22254000Y22710115D01*
X22258475Y22694876D01*
X22259865Y22693671D01*
X22267548Y22692000D01*
X22283766Y22692000D01*
X22290282Y22692337D01*
X22384132Y22702075D01*
X22397528Y22704968D01*
X22548953Y22755488D01*
X22562115Y22761653D01*
X22697492Y22845426D01*
X22708890Y22854460D01*
X22821363Y22967129D01*
X22830375Y22978540D01*
X22913912Y23114063D01*
X22920056Y23127241D01*
X22970315Y23278766D01*
X22973181Y23292132D01*
X22982672Y23384770D01*
X22983000Y23391185D01*
X22983000Y23465385D01*
X22982516Y23467034D01*
X24468257Y23467034D01*
X24498565Y23332554D01*
X24501645Y23322725D01*
X24581770Y23125397D01*
X24586413Y23116206D01*
X24697694Y22934612D01*
X24703777Y22926301D01*
X24843213Y22765333D01*
X24850580Y22758117D01*
X25014434Y22622084D01*
X25022881Y22616169D01*
X25206756Y22508721D01*
X25216042Y22504271D01*
X25415001Y22428297D01*
X25424899Y22425421D01*
X25528250Y22404394D01*
X25542299Y22405590D01*
X25546000Y22415935D01*
X25546000Y22416483D01*
X26054000Y22416483D01*
X26058064Y22402641D01*
X26071478Y22400607D01*
X26078184Y22401466D01*
X26088262Y22403608D01*
X26292255Y22464809D01*
X26301842Y22468567D01*
X26493095Y22562261D01*
X26501945Y22567536D01*
X26675328Y22691208D01*
X26683200Y22697861D01*
X26834052Y22848188D01*
X26840730Y22856035D01*
X26965003Y23028980D01*
X26970313Y23037817D01*
X27064670Y23228733D01*
X27068469Y23238328D01*
X27130377Y23442090D01*
X27132555Y23452163D01*
X27133986Y23463038D01*
X27131775Y23477222D01*
X27118617Y23481000D01*
X26072115Y23481000D01*
X26056876Y23476525D01*
X26055671Y23475135D01*
X26054000Y23467452D01*
X26054000Y22416483D01*
X25546000Y22416483D01*
X25546000Y23462885D01*
X25541525Y23478124D01*
X25540135Y23479329D01*
X25532452Y23481000D01*
X24483225Y23481000D01*
X24469694Y23477027D01*
X24468257Y23467034D01*
X22982516Y23467034D01*
X22978525Y23480624D01*
X22977135Y23481829D01*
X22969452Y23483500D01*
X22272115Y23483500D01*
X22256876Y23479025D01*
X22255671Y23477635D01*
X22254000Y23469952D01*
X22254000Y22710115D01*
X21746000Y22710115D01*
X21746000Y23465385D01*
X21741525Y23480624D01*
X21740135Y23481829D01*
X21732452Y23483500D01*
X21035115Y23483500D01*
X21019876Y23479025D01*
X21018671Y23477635D01*
X21017000Y23469952D01*
X21017000Y23391234D01*
X9762203Y23391234D01*
X10837065Y24466095D01*
X10899377Y24500121D01*
X10926160Y24503000D01*
X11668362Y24503001D01*
X11762566Y24503001D01*
X11798318Y24510112D01*
X11824626Y24515344D01*
X11824628Y24515345D01*
X11836801Y24517766D01*
X11847121Y24524661D01*
X11847122Y24524662D01*
X11910668Y24567123D01*
X11920984Y24574016D01*
X11977234Y24658199D01*
X11992000Y24732433D01*
X11991999Y26182566D01*
X11977234Y26256801D01*
X11920984Y26340984D01*
X11836801Y26397234D01*
X11832663Y26398057D01*
X11781801Y26439046D01*
X11759300Y26510906D01*
X11759300Y29287033D01*
X11779302Y29355154D01*
X11829866Y29400183D01*
X11895939Y29432552D01*
X11900144Y29435552D01*
X11900150Y29435555D01*
X12073065Y29558894D01*
X12073067Y29558896D01*
X12077269Y29561893D01*
X12235039Y29719113D01*
X12267792Y29764693D01*
X12361994Y29895790D01*
X12365012Y29899990D01*
X12408111Y29987193D01*
X12461404Y30095024D01*
X12461405Y30095026D01*
X12463698Y30099666D01*
X12528447Y30312780D01*
X12557519Y30533606D01*
X12559142Y30600000D01*
X12540892Y30821983D01*
X12486631Y31038005D01*
X12425194Y31179302D01*
X12399877Y31237527D01*
X12399875Y31237530D01*
X12397817Y31242264D01*
X12382040Y31266652D01*
X12279645Y31424930D01*
X12279640Y31424936D01*
X12276834Y31429274D01*
X12209483Y31503293D01*
X12130411Y31590192D01*
X12130409Y31590194D01*
X12126933Y31594014D01*
X12122882Y31597213D01*
X12122878Y31597217D01*
X11973723Y31715011D01*
X11960990Y31725067D01*
X17465500Y31725067D01*
X17465501Y29474934D01*
X17467900Y29462874D01*
X17474923Y29427564D01*
X17480266Y29400699D01*
X17487161Y29390380D01*
X17487162Y29390378D01*
X17512710Y29352143D01*
X17536516Y29316516D01*
X17620699Y29260266D01*
X17694933Y29245500D01*
X18819818Y29245500D01*
X19945066Y29245501D01*
X19980818Y29252612D01*
X20007126Y29257844D01*
X20007128Y29257845D01*
X20019301Y29260266D01*
X20029621Y29267161D01*
X20029622Y29267162D01*
X20093168Y29309623D01*
X20103484Y29316516D01*
X20136893Y29366516D01*
X20152839Y29390380D01*
X20159734Y29400699D01*
X20174500Y29474933D01*
X20174500Y29914700D01*
X20194502Y29982821D01*
X20248158Y30029314D01*
X20300500Y30040700D01*
X21870541Y30040700D01*
X21938662Y30020698D01*
X21985155Y29967042D01*
X21995259Y29896768D01*
X21965765Y29832188D01*
X21959636Y29825605D01*
X21615259Y29481228D01*
X21611450Y29477575D01*
X21565001Y29434863D01*
X21551366Y29412872D01*
X21541659Y29397216D01*
X21534935Y29387433D01*
X21508149Y29352143D01*
X21502458Y29337769D01*
X21492396Y29317763D01*
X21484251Y29304626D01*
X21481855Y29296378D01*
X21481852Y29296372D01*
X21471890Y29262085D01*
X21468046Y29250858D01*
X21454902Y29217658D01*
X21451738Y29209666D01*
X21450840Y29201121D01*
X21450123Y29194299D01*
X21445810Y29172313D01*
X21441498Y29157472D01*
X21440700Y29146605D01*
X21440700Y29111254D01*
X21440010Y29098083D01*
X21435720Y29057267D01*
X21437153Y29048795D01*
X21437153Y29048794D01*
X21438935Y29038260D01*
X21440700Y29017246D01*
X21440700Y26194039D01*
X21420698Y26125918D01*
X21411144Y26114063D01*
X21411026Y26113974D01*
X21410408Y26113149D01*
X21375997Y26067235D01*
X21319138Y26024720D01*
X21275171Y26016800D01*
X19492929Y26016800D01*
X19424808Y26036802D01*
X19395286Y26063164D01*
X19353846Y26113974D01*
X19338062Y26133327D01*
X19193832Y26252645D01*
X19029173Y26341676D01*
X18939765Y26369352D01*
X18856244Y26395206D01*
X18856241Y26395207D01*
X18850357Y26397028D01*
X18844232Y26397672D01*
X18844231Y26397672D01*
X18670324Y26415951D01*
X18670323Y26415951D01*
X18664196Y26416595D01*
X18587643Y26409628D01*
X18483918Y26400188D01*
X18483915Y26400187D01*
X18477779Y26399629D01*
X18471873Y26397891D01*
X18471869Y26397890D01*
X18336575Y26358071D01*
X18298208Y26346779D01*
X18132322Y26260056D01*
X18127522Y26256196D01*
X18127521Y26256196D01*
X18118218Y26248716D01*
X17986440Y26142764D01*
X17866119Y25999370D01*
X17863155Y25993978D01*
X17863152Y25993974D01*
X17826062Y25926507D01*
X17775941Y25835337D01*
X17774080Y25829470D01*
X17774079Y25829468D01*
X17721203Y25662782D01*
X17719341Y25656912D01*
X17698475Y25470891D01*
X17698991Y25464748D01*
X17712205Y25307396D01*
X17714139Y25284361D01*
X17765735Y25104425D01*
X17768550Y25098948D01*
X17768551Y25098945D01*
X17829570Y24980214D01*
X17851297Y24937938D01*
X17855120Y24933114D01*
X17855123Y24933110D01*
X17961039Y24799479D01*
X17967568Y24791241D01*
X18110118Y24669921D01*
X18115496Y24666915D01*
X18115498Y24666914D01*
X18180874Y24630377D01*
X18273518Y24578600D01*
X18451543Y24520756D01*
X18637414Y24498592D01*
X18643549Y24499064D01*
X18643551Y24499064D01*
X18817908Y24512480D01*
X18817913Y24512481D01*
X18824049Y24512953D01*
X18829979Y24514609D01*
X18829981Y24514609D01*
X18998413Y24561636D01*
X18998412Y24561636D01*
X19004341Y24563291D01*
X19018104Y24570243D01*
X19110626Y24616980D01*
X19171421Y24647690D01*
X19180138Y24654500D01*
X19314066Y24759136D01*
X19314067Y24759137D01*
X19318927Y24762934D01*
X19397991Y24854531D01*
X19457644Y24893028D01*
X19493373Y24898200D01*
X21282666Y24898200D01*
X21350787Y24878198D01*
X21383500Y24847754D01*
X21386946Y24843155D01*
X21411787Y24776646D01*
X21396727Y24707265D01*
X21352414Y24660456D01*
X21302508Y24629573D01*
X21291110Y24620540D01*
X21178637Y24507871D01*
X21169625Y24496460D01*
X21086088Y24360937D01*
X21079944Y24347759D01*
X21029685Y24196234D01*
X21026819Y24182868D01*
X21017328Y24090230D01*
X21017000Y24083815D01*
X21017000Y24009615D01*
X21021475Y23994376D01*
X21022865Y23993171D01*
X21030548Y23991500D01*
X22964885Y23991500D01*
X22980124Y23995975D01*
X22981329Y23997365D01*
X22983000Y24005048D01*
X22983000Y24083766D01*
X22982663Y24090282D01*
X22972925Y24184132D01*
X22970032Y24197528D01*
X22919512Y24348953D01*
X22913347Y24362115D01*
X22829574Y24497492D01*
X22820540Y24508890D01*
X22707871Y24621363D01*
X22696457Y24630377D01*
X22647796Y24660372D01*
X22600302Y24713144D01*
X22588878Y24783215D01*
X22613084Y24843196D01*
X22668110Y24916618D01*
X22668111Y24916619D01*
X22673493Y24923801D01*
X22694642Y24980214D01*
X22720190Y25048365D01*
X22722964Y25055764D01*
X22729500Y25115930D01*
X22729500Y25380331D01*
X24442001Y25380331D01*
X24442371Y25373510D01*
X24447895Y25322648D01*
X24451521Y25307396D01*
X24496676Y25186946D01*
X24505214Y25171351D01*
X24581715Y25069276D01*
X24594276Y25056715D01*
X24696351Y24980214D01*
X24711946Y24971676D01*
X24821337Y24930667D01*
X24878101Y24888025D01*
X24902801Y24821464D01*
X24887594Y24752115D01*
X24868201Y24725634D01*
X24744590Y24596283D01*
X24738104Y24588273D01*
X24618098Y24412351D01*
X24613000Y24403377D01*
X24523338Y24210217D01*
X24519775Y24200530D01*
X24464389Y24000817D01*
X24465912Y23992393D01*
X24478292Y23989000D01*
X25527885Y23989000D01*
X25543124Y23993475D01*
X25544329Y23994865D01*
X25546000Y24002548D01*
X25546000Y24007115D01*
X26054000Y24007115D01*
X26058475Y23991876D01*
X26059865Y23990671D01*
X26067548Y23989000D01*
X27118344Y23989000D01*
X27131875Y23992973D01*
X27133180Y24002053D01*
X27091214Y24169125D01*
X27087894Y24178876D01*
X27002972Y24374186D01*
X26998105Y24383261D01*
X26882426Y24562074D01*
X26876136Y24570243D01*
X26731931Y24728721D01*
X26700879Y24792567D01*
X26709273Y24863066D01*
X26754450Y24917834D01*
X26780894Y24931503D01*
X26888054Y24971676D01*
X26903649Y24980214D01*
X27005724Y25056715D01*
X27018285Y25069276D01*
X27094786Y25171351D01*
X27103324Y25186946D01*
X27148478Y25307394D01*
X27152105Y25322649D01*
X27157631Y25373514D01*
X27158000Y25380328D01*
X27158000Y26002885D01*
X27153525Y26018124D01*
X27152135Y26019329D01*
X27144452Y26021000D01*
X26072115Y26021000D01*
X26056876Y26016525D01*
X26055671Y26015135D01*
X26054000Y26007452D01*
X26054000Y24007115D01*
X25546000Y24007115D01*
X25546000Y26002885D01*
X25541525Y26018124D01*
X25540135Y26019329D01*
X25532452Y26021000D01*
X24460116Y26021000D01*
X24444877Y26016525D01*
X24443672Y26015135D01*
X24442001Y26007452D01*
X24442001Y25380331D01*
X22729500Y25380331D01*
X22729500Y25809070D01*
X22722964Y25869236D01*
X22673493Y26001199D01*
X22588974Y26113974D01*
X22590606Y26115197D01*
X22562179Y26167256D01*
X22559300Y26194039D01*
X22559300Y26547115D01*
X24442000Y26547115D01*
X24446475Y26531876D01*
X24447865Y26530671D01*
X24455548Y26529000D01*
X25527885Y26529000D01*
X25543124Y26533475D01*
X25544329Y26534865D01*
X25546000Y26542548D01*
X25546000Y26547115D01*
X26054000Y26547115D01*
X26058475Y26531876D01*
X26059865Y26530671D01*
X26067548Y26529000D01*
X27139884Y26529000D01*
X27155123Y26533475D01*
X27156328Y26534865D01*
X27157999Y26542548D01*
X27157999Y27169669D01*
X27157629Y27176490D01*
X27152105Y27227352D01*
X27148479Y27242604D01*
X27103324Y27363054D01*
X27094786Y27378649D01*
X27018285Y27480724D01*
X27005724Y27493285D01*
X26903649Y27569786D01*
X26888054Y27578324D01*
X26767606Y27623478D01*
X26752351Y27627105D01*
X26701486Y27632631D01*
X26694672Y27633000D01*
X26072115Y27633000D01*
X26056876Y27628525D01*
X26055671Y27627135D01*
X26054000Y27619452D01*
X26054000Y26547115D01*
X25546000Y26547115D01*
X25546000Y27614884D01*
X25541525Y27630123D01*
X25540135Y27631328D01*
X25532452Y27632999D01*
X24905331Y27632999D01*
X24898510Y27632629D01*
X24847648Y27627105D01*
X24832396Y27623479D01*
X24711946Y27578324D01*
X24696351Y27569786D01*
X24594276Y27493285D01*
X24581715Y27480724D01*
X24505214Y27378649D01*
X24496676Y27363054D01*
X24451522Y27242606D01*
X24447895Y27227351D01*
X24442369Y27176486D01*
X24442000Y27169672D01*
X24442000Y26547115D01*
X22559300Y26547115D01*
X22559300Y28791141D01*
X22579302Y28859262D01*
X22596205Y28880236D01*
X22974564Y29258595D01*
X23036876Y29292621D01*
X23063659Y29295500D01*
X24074058Y29295501D01*
X24200066Y29295501D01*
X24235818Y29302612D01*
X24262126Y29307844D01*
X24262128Y29307845D01*
X24274301Y29310266D01*
X24284621Y29317161D01*
X24284622Y29317162D01*
X24348168Y29359623D01*
X24358484Y29366516D01*
X24396304Y29423117D01*
X24407839Y29440380D01*
X24414734Y29450699D01*
X24429500Y29524933D01*
X24429500Y29696572D01*
X24449502Y29764693D01*
X24503158Y29811186D01*
X24573432Y29821290D01*
X24638012Y29791796D01*
X24662933Y29762407D01*
X24762694Y29599612D01*
X24768777Y29591301D01*
X24908213Y29430333D01*
X24915580Y29423117D01*
X25079434Y29287084D01*
X25087881Y29281169D01*
X25271756Y29173721D01*
X25281042Y29169271D01*
X25480001Y29093297D01*
X25489899Y29090421D01*
X25593250Y29069394D01*
X25607299Y29070590D01*
X25611000Y29080935D01*
X25611000Y29081483D01*
X26119000Y29081483D01*
X26123064Y29067641D01*
X26136478Y29065607D01*
X26143184Y29066466D01*
X26153262Y29068608D01*
X26357255Y29129809D01*
X26366842Y29133567D01*
X26558095Y29227261D01*
X26566945Y29232536D01*
X26740328Y29356208D01*
X26748200Y29362861D01*
X26899052Y29513188D01*
X26905730Y29521035D01*
X27030003Y29693980D01*
X27035313Y29702817D01*
X27129670Y29893733D01*
X27133469Y29903328D01*
X27195377Y30107090D01*
X27197555Y30117163D01*
X27198986Y30128038D01*
X27196775Y30142222D01*
X27183617Y30146000D01*
X26137115Y30146000D01*
X26121876Y30141525D01*
X26120671Y30140135D01*
X26119000Y30132452D01*
X26119000Y29081483D01*
X25611000Y29081483D01*
X25611000Y30672115D01*
X26119000Y30672115D01*
X26123475Y30656876D01*
X26124865Y30655671D01*
X26132548Y30654000D01*
X27183344Y30654000D01*
X27196875Y30657973D01*
X27198180Y30667053D01*
X27156214Y30834125D01*
X27152894Y30843876D01*
X27067972Y31039186D01*
X27063105Y31048261D01*
X26947426Y31227074D01*
X26941136Y31235243D01*
X26797806Y31392760D01*
X26790273Y31399785D01*
X26623139Y31531778D01*
X26614552Y31537483D01*
X26428117Y31640401D01*
X26418705Y31644631D01*
X26217959Y31715720D01*
X26207988Y31718354D01*
X26136837Y31731028D01*
X26123540Y31729568D01*
X26119000Y31715011D01*
X26119000Y30672115D01*
X25611000Y30672115D01*
X25611000Y31716898D01*
X25607082Y31730242D01*
X25592806Y31732229D01*
X25554324Y31726340D01*
X25544288Y31723949D01*
X25341868Y31657788D01*
X25332359Y31653791D01*
X25143463Y31555458D01*
X25134738Y31549964D01*
X24964433Y31422095D01*
X24956726Y31415252D01*
X24809590Y31261283D01*
X24803104Y31253273D01*
X24683098Y31077351D01*
X24678000Y31068377D01*
X24669787Y31050684D01*
X24622963Y30997317D01*
X24554720Y30977736D01*
X24486724Y30998159D01*
X24440564Y31052101D01*
X24429499Y31103734D01*
X24429499Y31275066D01*
X24414734Y31349301D01*
X24358484Y31433484D01*
X24274301Y31489734D01*
X24200067Y31504500D01*
X23325142Y31504500D01*
X22449934Y31504499D01*
X22414182Y31497388D01*
X22387874Y31492156D01*
X22387872Y31492155D01*
X22375699Y31489734D01*
X22365379Y31482839D01*
X22365378Y31482838D01*
X22329812Y31459073D01*
X22291516Y31433484D01*
X22235266Y31349301D01*
X22220500Y31275067D01*
X22220500Y31271958D01*
X22194319Y31207119D01*
X22136365Y31166108D01*
X22095508Y31159300D01*
X20300499Y31159300D01*
X20232378Y31179302D01*
X20185885Y31232958D01*
X20174499Y31285300D01*
X20174499Y31725066D01*
X20159734Y31799301D01*
X20134411Y31837200D01*
X20110377Y31873168D01*
X20103484Y31883484D01*
X20019301Y31939734D01*
X19945067Y31954500D01*
X18820182Y31954500D01*
X17694934Y31954499D01*
X17659182Y31947388D01*
X17632874Y31942156D01*
X17632872Y31942155D01*
X17620699Y31939734D01*
X17610379Y31932839D01*
X17610378Y31932838D01*
X17579679Y31912325D01*
X17536516Y31883484D01*
X17480266Y31799301D01*
X17465500Y31725067D01*
X11960990Y31725067D01*
X11952138Y31732058D01*
X11830328Y31799301D01*
X11761675Y31837200D01*
X11761672Y31837201D01*
X11757144Y31839701D01*
X11614038Y31890377D01*
X11552059Y31912325D01*
X11552056Y31912326D01*
X11547187Y31914050D01*
X11542098Y31914957D01*
X11542096Y31914957D01*
X11332996Y31952204D01*
X11332990Y31952205D01*
X11327907Y31953110D01*
X11254094Y31954012D01*
X11110361Y31955768D01*
X11110359Y31955768D01*
X11105191Y31955831D01*
X10885022Y31922141D01*
X10673311Y31852943D01*
X10668723Y31850555D01*
X10668719Y31850553D01*
X10570265Y31799301D01*
X10475745Y31750097D01*
X10471612Y31746994D01*
X10471609Y31746992D01*
X10335278Y31644631D01*
X10297630Y31616364D01*
X10239427Y31555458D01*
X10170030Y31482838D01*
X10143748Y31455336D01*
X10018233Y31271337D01*
X10016060Y31266655D01*
X10016058Y31266652D01*
X9940435Y31103734D01*
X9924455Y31069309D01*
X9864932Y30854678D01*
X9841264Y30633207D01*
X9841561Y30628054D01*
X9841561Y30628051D01*
X9846813Y30536959D01*
X9854085Y30410844D01*
X9855222Y30405798D01*
X9855223Y30405792D01*
X9876185Y30312780D01*
X9903052Y30193561D01*
X9904994Y30188779D01*
X9904995Y30188775D01*
X9973244Y30020698D01*
X9986849Y29987193D01*
X10103226Y29797283D01*
X10249058Y29628930D01*
X10420428Y29486656D01*
X10516814Y29430333D01*
X10578270Y29394421D01*
X10626994Y29342783D01*
X10640700Y29285633D01*
X10640700Y26537999D01*
X10620698Y26469878D01*
X10567042Y26423385D01*
X10514700Y26411999D01*
X10312434Y26411999D01*
X10276682Y26404888D01*
X10250374Y26399656D01*
X10250372Y26399655D01*
X10238199Y26397234D01*
X10227879Y26390339D01*
X10227878Y26390338D01*
X10167485Y26349984D01*
X10154016Y26340984D01*
X10097766Y26256801D01*
X10083000Y26182567D01*
X10083000Y26176380D01*
X10083001Y25346160D01*
X10062999Y25278039D01*
X10046096Y25257065D01*
X8385236Y23596205D01*
X8322924Y23562179D01*
X8296141Y23559300D01*
X6299116Y23559300D01*
X6294871Y23558718D01*
X6294864Y23558718D01*
X6272587Y23555666D01*
X6255487Y23554500D01*
X5718166Y23554500D01*
X5623445Y23539498D01*
X5614611Y23534997D01*
X5605178Y23531932D01*
X5604258Y23534763D01*
X5550151Y23524602D01*
X5484366Y23551302D01*
X5443460Y23609330D01*
X5440720Y23673251D01*
X5439498Y23673445D01*
X5440454Y23679478D01*
X5440454Y23679480D01*
X5454500Y23768166D01*
X5454500Y24131834D01*
X5439498Y24226555D01*
X5381326Y24340723D01*
X5290723Y24431326D01*
X5176555Y24489498D01*
X5081834Y24504500D01*
X4738415Y24504500D01*
X4670294Y24524502D01*
X4646503Y24544404D01*
X4646117Y24544852D01*
X4613601Y24577368D01*
X4607314Y24584132D01*
X4599564Y24593110D01*
X4573349Y24623481D01*
X4566192Y24628236D01*
X4565795Y24628586D01*
X4546991Y24643978D01*
X4483705Y24707264D01*
X4449679Y24769576D01*
X4446800Y24796359D01*
X4446800Y25918461D01*
X4466802Y25986582D01*
X4482731Y26006347D01*
X4488974Y26011026D01*
X4573493Y26123801D01*
X4577065Y26133327D01*
X4606037Y26210613D01*
X4622964Y26255764D01*
X4629500Y26315930D01*
X4629500Y26884070D01*
X4622964Y26944236D01*
X4573493Y27076199D01*
X4488974Y27188974D01*
X4376199Y27273493D01*
X4367798Y27276643D01*
X4367795Y27276644D01*
X4267982Y27314062D01*
X4244236Y27322964D01*
X4184070Y27329500D01*
X3590930Y27329500D01*
X3530764Y27322964D01*
X3507018Y27314062D01*
X3407205Y27276644D01*
X3407202Y27276643D01*
X3398801Y27273493D01*
X3286026Y27188974D01*
X3201507Y27076199D01*
X3152036Y26944236D01*
X3145500Y26884070D01*
X3145500Y26315930D01*
X3152036Y26255764D01*
X3168963Y26210613D01*
X3197936Y26133327D01*
X3201507Y26123801D01*
X3286026Y26011026D01*
X3291738Y26006745D01*
X3325321Y25945244D01*
X3328200Y25918461D01*
X3328200Y24635300D01*
X3308198Y24567179D01*
X3254542Y24520686D01*
X3202200Y24509300D01*
X2237186Y24509300D01*
X2169065Y24529302D01*
X2161622Y24534473D01*
X2124793Y24562074D01*
X2076199Y24598493D01*
X2067798Y24601643D01*
X2067795Y24601644D01*
X1978017Y24635300D01*
X1944236Y24647964D01*
X1884070Y24654500D01*
X1315930Y24654500D01*
X1255764Y24647964D01*
X1221983Y24635300D01*
X1132205Y24601644D01*
X1132202Y24601643D01*
X1123801Y24598493D01*
X1011026Y24513974D01*
X926507Y24401199D01*
X877036Y24269236D01*
X870500Y24209070D01*
X870500Y23615930D01*
X877036Y23555764D01*
X883134Y23539498D01*
X919651Y23442090D01*
X926507Y23423801D01*
X1011026Y23311026D01*
X1018206Y23305645D01*
X1018207Y23305644D01*
X1100052Y23244305D01*
X1142567Y23187446D01*
X1147593Y23116628D01*
X1113533Y23054334D01*
X1064364Y23023956D01*
X1051052Y23019515D01*
X1037885Y23013347D01*
X902508Y22929574D01*
X891110Y22920540D01*
X778637Y22807871D01*
X769625Y22796460D01*
X686088Y22660937D01*
X679944Y22647759D01*
X629685Y22496234D01*
X626819Y22482868D01*
X617328Y22390230D01*
X617000Y22383815D01*
X617000Y22359615D01*
X254500Y22359615D01*
X254500Y30132034D01*
X3003257Y30132034D01*
X3033565Y29997554D01*
X3036645Y29987725D01*
X3116770Y29790397D01*
X3121413Y29781206D01*
X3232694Y29599612D01*
X3238777Y29591301D01*
X3378213Y29430333D01*
X3385580Y29423117D01*
X3549434Y29287084D01*
X3557881Y29281169D01*
X3741756Y29173721D01*
X3751042Y29169271D01*
X3950001Y29093297D01*
X3959899Y29090421D01*
X4063250Y29069394D01*
X4077299Y29070590D01*
X4081000Y29080935D01*
X4081000Y29081483D01*
X4589000Y29081483D01*
X4593064Y29067641D01*
X4606478Y29065607D01*
X4613184Y29066466D01*
X4623262Y29068608D01*
X4827255Y29129809D01*
X4836842Y29133567D01*
X5028095Y29227261D01*
X5036945Y29232536D01*
X5210328Y29356208D01*
X5218200Y29362861D01*
X5369052Y29513188D01*
X5375730Y29521035D01*
X5500003Y29693980D01*
X5505310Y29702812D01*
X5531544Y29755891D01*
X5579658Y29808097D01*
X5648360Y29826004D01*
X5715836Y29803925D01*
X5760664Y29748871D01*
X5770501Y29700063D01*
X5770501Y29524934D01*
X5785266Y29450699D01*
X5792161Y29440380D01*
X5792162Y29440378D01*
X5818675Y29400699D01*
X5841516Y29366516D01*
X5925699Y29310266D01*
X5999933Y29295500D01*
X6189700Y29295500D01*
X6257821Y29275498D01*
X6304314Y29221842D01*
X6315700Y29169500D01*
X6315700Y28958860D01*
X6295698Y28890739D01*
X6278800Y28869770D01*
X5327736Y27918705D01*
X5323950Y27915075D01*
X5277501Y27872363D01*
X5254159Y27834716D01*
X5247435Y27824933D01*
X5220649Y27789643D01*
X5214958Y27775269D01*
X5204896Y27755263D01*
X5196751Y27742126D01*
X5194355Y27733878D01*
X5194352Y27733872D01*
X5184390Y27699585D01*
X5180546Y27688358D01*
X5167402Y27655158D01*
X5164238Y27647166D01*
X5163340Y27638621D01*
X5162623Y27631799D01*
X5158310Y27609813D01*
X5153998Y27594972D01*
X5153200Y27584105D01*
X5153200Y27548754D01*
X5152510Y27535583D01*
X5148220Y27494767D01*
X5149653Y27486295D01*
X5149653Y27486294D01*
X5151435Y27475760D01*
X5153200Y27454746D01*
X5153200Y27281539D01*
X5133198Y27213418D01*
X5117269Y27193653D01*
X5111026Y27188974D01*
X5026507Y27076199D01*
X4977036Y26944236D01*
X4970500Y26884070D01*
X4970500Y26315930D01*
X4977036Y26255764D01*
X4993963Y26210613D01*
X5022936Y26133327D01*
X5026507Y26123801D01*
X5111026Y26011026D01*
X5223801Y25926507D01*
X5232202Y25923357D01*
X5232205Y25923356D01*
X5310613Y25893963D01*
X5355764Y25877036D01*
X5415930Y25870500D01*
X6009070Y25870500D01*
X6069236Y25877036D01*
X6114387Y25893963D01*
X6192795Y25923356D01*
X6192798Y25923357D01*
X6201199Y25926507D01*
X6313974Y26011026D01*
X6398493Y26123801D01*
X6402065Y26133327D01*
X6431037Y26210613D01*
X6447964Y26255764D01*
X6454500Y26315930D01*
X6454500Y26884070D01*
X6447964Y26944236D01*
X6398493Y27076199D01*
X6393111Y27083381D01*
X6393110Y27083382D01*
X6322069Y27178173D01*
X6297222Y27244679D01*
X6312275Y27314062D01*
X6333801Y27342832D01*
X7259741Y28268772D01*
X7263550Y28272425D01*
X7303676Y28309323D01*
X7309999Y28315137D01*
X7314526Y28322438D01*
X7333341Y28352783D01*
X7340064Y28362566D01*
X7344350Y28368213D01*
X7366851Y28397856D01*
X7372546Y28412238D01*
X7382603Y28432235D01*
X7390749Y28445374D01*
X7403112Y28487929D01*
X7406951Y28499140D01*
X7420099Y28532346D01*
X7420100Y28532348D01*
X7423261Y28540333D01*
X7424159Y28548872D01*
X7424161Y28548882D01*
X7424878Y28555706D01*
X7429189Y28577683D01*
X7431662Y28586194D01*
X7431662Y28586196D01*
X7433502Y28592528D01*
X7434300Y28603395D01*
X7434300Y28638747D01*
X7434990Y28651918D01*
X7438382Y28684188D01*
X7438382Y28684189D01*
X7439280Y28692733D01*
X7436065Y28711740D01*
X7434300Y28732754D01*
X7434300Y29169501D01*
X7454302Y29237622D01*
X7507958Y29284115D01*
X7560300Y29295501D01*
X7750066Y29295501D01*
X7785818Y29302612D01*
X7812126Y29307844D01*
X7812128Y29307845D01*
X7824301Y29310266D01*
X7834621Y29317161D01*
X7834622Y29317162D01*
X7898168Y29359623D01*
X7908484Y29366516D01*
X7946304Y29423117D01*
X7957839Y29440380D01*
X7964734Y29450699D01*
X7979500Y29524933D01*
X7979499Y31275066D01*
X7964734Y31349301D01*
X7908484Y31433484D01*
X7824301Y31489734D01*
X7750067Y31504500D01*
X6875142Y31504500D01*
X5999934Y31504499D01*
X5964182Y31497388D01*
X5937874Y31492156D01*
X5937872Y31492155D01*
X5925699Y31489734D01*
X5915379Y31482839D01*
X5915378Y31482838D01*
X5879812Y31459073D01*
X5841516Y31433484D01*
X5785266Y31349301D01*
X5770500Y31275067D01*
X5770500Y31107148D01*
X5750498Y31039027D01*
X5696842Y30992534D01*
X5626568Y30982430D01*
X5561988Y31011924D01*
X5536235Y31044132D01*
X5535912Y31043923D01*
X5533836Y31047132D01*
X5533453Y31047611D01*
X5533099Y31048271D01*
X5417426Y31227074D01*
X5411136Y31235243D01*
X5267806Y31392760D01*
X5260273Y31399785D01*
X5093139Y31531778D01*
X5084552Y31537483D01*
X4898117Y31640401D01*
X4888705Y31644631D01*
X4687959Y31715720D01*
X4677988Y31718354D01*
X4606837Y31731028D01*
X4593540Y31729568D01*
X4589000Y31715011D01*
X4589000Y29081483D01*
X4081000Y29081483D01*
X4081000Y30127885D01*
X4076525Y30143124D01*
X4075135Y30144329D01*
X4067452Y30146000D01*
X3018225Y30146000D01*
X3004694Y30142027D01*
X3003257Y30132034D01*
X254500Y30132034D01*
X254500Y30665817D01*
X2999389Y30665817D01*
X3000912Y30657393D01*
X3013292Y30654000D01*
X4062885Y30654000D01*
X4078124Y30658475D01*
X4079329Y30659865D01*
X4081000Y30667548D01*
X4081000Y31716898D01*
X4077082Y31730242D01*
X4062806Y31732229D01*
X4024324Y31726340D01*
X4014288Y31723949D01*
X3811868Y31657788D01*
X3802359Y31653791D01*
X3613463Y31555458D01*
X3604738Y31549964D01*
X3434433Y31422095D01*
X3426726Y31415252D01*
X3279590Y31261283D01*
X3273104Y31253273D01*
X3153098Y31077351D01*
X3148000Y31068377D01*
X3058338Y30875217D01*
X3054775Y30865530D01*
X2999389Y30665817D01*
X254500Y30665817D01*
X254500Y34019500D01*
X274502Y34087621D01*
X328158Y34134114D01*
X380500Y34145500D01*
X28019500Y34145500D01*
X28087621Y34125498D01*
G37*
%TD.AperFunction*%
%TD*%
M02*
