%TF.GenerationSoftware,KiCad,Pcbnew,(6.0.10)*%
%TF.CreationDate,2023-01-04T10:17:45-08:00*%
%TF.ProjectId,attenuator,61747465-6e75-4617-946f-722e6b696361,rev?*%
%TF.SameCoordinates,PX3f52f00PY6dac2c0*%
%TF.FileFunction,Copper,L2,Bot*%
%TF.FilePolarity,Positive*%
%FSLAX46Y46*%
G04 Gerber Fmt 4.6, Leading zero omitted, Abs format (unit mm)*
G04 Created by KiCad (PCBNEW (6.0.10)) date 2023-01-04 10:17:45*
%MOMM*%
%LPD*%
G01*
G04 APERTURE LIST*
%TA.AperFunction,ComponentPad*%
%ADD10R,1.700000X1.700000*%
%TD*%
%TA.AperFunction,ComponentPad*%
%ADD11O,1.700000X1.700000*%
%TD*%
%TA.AperFunction,ComponentPad*%
%ADD12R,1.400000X1.400000*%
%TD*%
%TA.AperFunction,ComponentPad*%
%ADD13C,1.400000*%
%TD*%
%TA.AperFunction,SMDPad,CuDef*%
%ADD14R,4.200000X1.350000*%
%TD*%
%TA.AperFunction,ComponentPad*%
%ADD15R,2.200000X2.200000*%
%TD*%
%TA.AperFunction,ComponentPad*%
%ADD16O,2.200000X2.200000*%
%TD*%
%TA.AperFunction,ViaPad*%
%ADD17C,0.800000*%
%TD*%
G04 APERTURE END LIST*
D10*
%TO.P,J7,1,Pin_1*%
%TO.N,GND*%
X25800000Y26275000D03*
D11*
%TO.P,J7,2,Pin_2*%
X25800000Y23735000D03*
%TD*%
D10*
%TO.P,J6,1,Pin_1*%
%TO.N,GND*%
X2600000Y5475000D03*
D11*
%TO.P,J6,2,Pin_2*%
X2600000Y2935000D03*
%TD*%
D10*
%TO.P,J5,1,Pin_1*%
%TO.N,GND*%
X25800000Y5675000D03*
D11*
%TO.P,J5,2,Pin_2*%
X25800000Y3135000D03*
%TD*%
D10*
%TO.P,J2,1,Pin_1*%
%TO.N,/ATT*%
X6875000Y30400000D03*
D11*
%TO.P,J2,2,Pin_2*%
%TO.N,GND*%
X4335000Y30400000D03*
%TD*%
%TO.P,J1,2,Pin_2*%
%TO.N,GND*%
X25865000Y30400000D03*
D10*
%TO.P,J1,1,Pin_1*%
%TO.N,/+12V*%
X23325000Y30400000D03*
%TD*%
D12*
%TO.P,K1,1*%
%TO.N,Net-(D1-Pad2)*%
X11037500Y25457500D03*
D13*
%TO.P,K1,4*%
%TO.N,Net-(J4-Pad1)*%
X11037500Y17837500D03*
%TO.P,K1,6*%
%TO.N,Net-(K1-Pad11)*%
X11037500Y12757500D03*
%TO.P,K1,8*%
%TO.N,Net-(K1-Pad8)*%
X11037500Y7677500D03*
%TO.P,K1,9*%
%TO.N,Net-(K1-Pad9)*%
X18657500Y7677500D03*
%TO.P,K1,11*%
%TO.N,Net-(K1-Pad11)*%
X18657500Y12757500D03*
%TO.P,K1,13*%
%TO.N,Net-(J3-Pad1)*%
X18657500Y17837500D03*
%TO.P,K1,16*%
%TO.N,/+12V*%
X18657500Y25457500D03*
%TD*%
D14*
%TO.P,J4,2,Ext*%
%TO.N,GND*%
X2600000Y12575000D03*
X2600000Y18225000D03*
%TD*%
%TO.P,J3,2,Ext*%
%TO.N,GND*%
X25800000Y19825000D03*
X25800000Y14175000D03*
%TD*%
D15*
%TO.P,D1,1,K*%
%TO.N,/+12V*%
X18820000Y30600000D03*
D16*
%TO.P,D1,2,A*%
%TO.N,Net-(D1-Pad2)*%
X11200000Y30600000D03*
%TD*%
D17*
%TO.N,GND*%
X17800000Y21800000D03*
X12200000Y21600000D03*
X23200000Y9400000D03*
X15200000Y9600000D03*
X6200000Y8800000D03*
X1600000Y20600000D03*
X4400000Y20600000D03*
X22200000Y19600000D03*
X22200000Y14200000D03*
X6000000Y18200000D03*
X6200000Y12400000D03*
X12600000Y1600000D03*
X17400000Y1600000D03*
%TD*%
%TA.AperFunction,Conductor*%
%TO.N,GND*%
G36*
X28087621Y34125498D02*
G01*
X28134114Y34071842D01*
X28145500Y34019500D01*
X28145500Y21126984D01*
X28125498Y21058863D01*
X28071842Y21012370D01*
X28005893Y21001721D01*
X27951488Y21007631D01*
X27944672Y21008000D01*
X26072115Y21008000D01*
X26056876Y21003525D01*
X26055671Y21002135D01*
X26054000Y20994452D01*
X26054000Y18660116D01*
X26058475Y18644877D01*
X26059865Y18643672D01*
X26067548Y18642001D01*
X27944669Y18642001D01*
X27951488Y18642370D01*
X28005894Y18648280D01*
X28075776Y18635751D01*
X28127791Y18587430D01*
X28145500Y18523017D01*
X28145500Y15476984D01*
X28125498Y15408863D01*
X28071842Y15362370D01*
X28005893Y15351721D01*
X27951488Y15357631D01*
X27944672Y15358000D01*
X26072115Y15358000D01*
X26056876Y15353525D01*
X26055671Y15352135D01*
X26054000Y15344452D01*
X26054000Y13010116D01*
X26058475Y12994877D01*
X26059865Y12993672D01*
X26067548Y12992001D01*
X27944669Y12992001D01*
X27951488Y12992370D01*
X28005894Y12998280D01*
X28075776Y12985751D01*
X28127791Y12937430D01*
X28145500Y12873017D01*
X28145500Y380500D01*
X28125498Y312379D01*
X28071842Y265886D01*
X28019500Y254500D01*
X380500Y254500D01*
X312379Y274502D01*
X265886Y328158D01*
X254500Y380500D01*
X254500Y2667034D01*
X1268257Y2667034D01*
X1298565Y2532554D01*
X1301645Y2522725D01*
X1381770Y2325397D01*
X1386413Y2316206D01*
X1497694Y2134612D01*
X1503777Y2126301D01*
X1643213Y1965333D01*
X1650580Y1958117D01*
X1814434Y1822084D01*
X1822881Y1816169D01*
X2006756Y1708721D01*
X2016042Y1704271D01*
X2215001Y1628297D01*
X2224899Y1625421D01*
X2328250Y1604394D01*
X2342299Y1605590D01*
X2346000Y1615935D01*
X2346000Y1616483D01*
X2854000Y1616483D01*
X2858064Y1602641D01*
X2871478Y1600607D01*
X2878184Y1601466D01*
X2888262Y1603608D01*
X3092255Y1664809D01*
X3101842Y1668567D01*
X3293095Y1762261D01*
X3301945Y1767536D01*
X3475328Y1891208D01*
X3483200Y1897861D01*
X3634052Y2048188D01*
X3640730Y2056035D01*
X3765003Y2228980D01*
X3770313Y2237817D01*
X3864670Y2428733D01*
X3868469Y2438328D01*
X3930377Y2642090D01*
X3932555Y2652163D01*
X3933986Y2663038D01*
X3931775Y2677222D01*
X3918617Y2681000D01*
X2872115Y2681000D01*
X2856876Y2676525D01*
X2855671Y2675135D01*
X2854000Y2667452D01*
X2854000Y1616483D01*
X2346000Y1616483D01*
X2346000Y2662885D01*
X2341525Y2678124D01*
X2340135Y2679329D01*
X2332452Y2681000D01*
X1283225Y2681000D01*
X1269694Y2677027D01*
X1268257Y2667034D01*
X254500Y2667034D01*
X254500Y2867034D01*
X24468257Y2867034D01*
X24498565Y2732554D01*
X24501645Y2722725D01*
X24581770Y2525397D01*
X24586413Y2516206D01*
X24697694Y2334612D01*
X24703777Y2326301D01*
X24843213Y2165333D01*
X24850580Y2158117D01*
X25014434Y2022084D01*
X25022881Y2016169D01*
X25206756Y1908721D01*
X25216042Y1904271D01*
X25415001Y1828297D01*
X25424899Y1825421D01*
X25528250Y1804394D01*
X25542299Y1805590D01*
X25546000Y1815935D01*
X25546000Y1816483D01*
X26054000Y1816483D01*
X26058064Y1802641D01*
X26071478Y1800607D01*
X26078184Y1801466D01*
X26088262Y1803608D01*
X26292255Y1864809D01*
X26301842Y1868567D01*
X26493095Y1962261D01*
X26501945Y1967536D01*
X26675328Y2091208D01*
X26683200Y2097861D01*
X26834052Y2248188D01*
X26840730Y2256035D01*
X26965003Y2428980D01*
X26970313Y2437817D01*
X27064670Y2628733D01*
X27068469Y2638328D01*
X27130377Y2842090D01*
X27132555Y2852163D01*
X27133986Y2863038D01*
X27131775Y2877222D01*
X27118617Y2881000D01*
X26072115Y2881000D01*
X26056876Y2876525D01*
X26055671Y2875135D01*
X26054000Y2867452D01*
X26054000Y1816483D01*
X25546000Y1816483D01*
X25546000Y2862885D01*
X25541525Y2878124D01*
X25540135Y2879329D01*
X25532452Y2881000D01*
X24483225Y2881000D01*
X24469694Y2877027D01*
X24468257Y2867034D01*
X254500Y2867034D01*
X254500Y4580331D01*
X1242001Y4580331D01*
X1242371Y4573510D01*
X1247895Y4522648D01*
X1251521Y4507396D01*
X1296676Y4386946D01*
X1305214Y4371351D01*
X1381715Y4269276D01*
X1394276Y4256715D01*
X1496351Y4180214D01*
X1511946Y4171676D01*
X1621337Y4130667D01*
X1678101Y4088025D01*
X1702801Y4021464D01*
X1687594Y3952115D01*
X1668201Y3925634D01*
X1544590Y3796283D01*
X1538104Y3788273D01*
X1418098Y3612351D01*
X1413000Y3603377D01*
X1323338Y3410217D01*
X1319775Y3400530D01*
X1264389Y3200817D01*
X1265912Y3192393D01*
X1278292Y3189000D01*
X2327885Y3189000D01*
X2343124Y3193475D01*
X2344329Y3194865D01*
X2346000Y3202548D01*
X2346000Y3207115D01*
X2854000Y3207115D01*
X2858475Y3191876D01*
X2859865Y3190671D01*
X2867548Y3189000D01*
X3918344Y3189000D01*
X3931875Y3192973D01*
X3933180Y3202053D01*
X3891214Y3369125D01*
X3887894Y3378876D01*
X3802972Y3574186D01*
X3798105Y3583261D01*
X3682426Y3762074D01*
X3676136Y3770243D01*
X3531931Y3928721D01*
X3500879Y3992567D01*
X3509273Y4063066D01*
X3554450Y4117834D01*
X3580894Y4131503D01*
X3688054Y4171676D01*
X3703649Y4180214D01*
X3805724Y4256715D01*
X3818285Y4269276D01*
X3894786Y4371351D01*
X3903324Y4386946D01*
X3948478Y4507394D01*
X3952105Y4522649D01*
X3957631Y4573514D01*
X3958000Y4580328D01*
X3958000Y4780331D01*
X24442001Y4780331D01*
X24442371Y4773510D01*
X24447895Y4722648D01*
X24451521Y4707396D01*
X24496676Y4586946D01*
X24505214Y4571351D01*
X24581715Y4469276D01*
X24594276Y4456715D01*
X24696351Y4380214D01*
X24711946Y4371676D01*
X24821337Y4330667D01*
X24878101Y4288025D01*
X24902801Y4221464D01*
X24887594Y4152115D01*
X24868201Y4125634D01*
X24744590Y3996283D01*
X24738104Y3988273D01*
X24618098Y3812351D01*
X24613000Y3803377D01*
X24523338Y3610217D01*
X24519775Y3600530D01*
X24464389Y3400817D01*
X24465912Y3392393D01*
X24478292Y3389000D01*
X25527885Y3389000D01*
X25543124Y3393475D01*
X25544329Y3394865D01*
X25546000Y3402548D01*
X25546000Y3407115D01*
X26054000Y3407115D01*
X26058475Y3391876D01*
X26059865Y3390671D01*
X26067548Y3389000D01*
X27118344Y3389000D01*
X27131875Y3392973D01*
X27133180Y3402053D01*
X27091214Y3569125D01*
X27087894Y3578876D01*
X27002972Y3774186D01*
X26998105Y3783261D01*
X26882426Y3962074D01*
X26876136Y3970243D01*
X26731931Y4128721D01*
X26700879Y4192567D01*
X26709273Y4263066D01*
X26754450Y4317834D01*
X26780894Y4331503D01*
X26888054Y4371676D01*
X26903649Y4380214D01*
X27005724Y4456715D01*
X27018285Y4469276D01*
X27094786Y4571351D01*
X27103324Y4586946D01*
X27148478Y4707394D01*
X27152105Y4722649D01*
X27157631Y4773514D01*
X27158000Y4780328D01*
X27158000Y5402885D01*
X27153525Y5418124D01*
X27152135Y5419329D01*
X27144452Y5421000D01*
X26072115Y5421000D01*
X26056876Y5416525D01*
X26055671Y5415135D01*
X26054000Y5407452D01*
X26054000Y3407115D01*
X25546000Y3407115D01*
X25546000Y5402885D01*
X25541525Y5418124D01*
X25540135Y5419329D01*
X25532452Y5421000D01*
X24460116Y5421000D01*
X24444877Y5416525D01*
X24443672Y5415135D01*
X24442001Y5407452D01*
X24442001Y4780331D01*
X3958000Y4780331D01*
X3958000Y5202885D01*
X3953525Y5218124D01*
X3952135Y5219329D01*
X3944452Y5221000D01*
X2872115Y5221000D01*
X2856876Y5216525D01*
X2855671Y5215135D01*
X2854000Y5207452D01*
X2854000Y3207115D01*
X2346000Y3207115D01*
X2346000Y5202885D01*
X2341525Y5218124D01*
X2340135Y5219329D01*
X2332452Y5221000D01*
X1260116Y5221000D01*
X1244877Y5216525D01*
X1243672Y5215135D01*
X1242001Y5207452D01*
X1242001Y4580331D01*
X254500Y4580331D01*
X254500Y5747115D01*
X1242000Y5747115D01*
X1246475Y5731876D01*
X1247865Y5730671D01*
X1255548Y5729000D01*
X2327885Y5729000D01*
X2343124Y5733475D01*
X2344329Y5734865D01*
X2346000Y5742548D01*
X2346000Y5747115D01*
X2854000Y5747115D01*
X2858475Y5731876D01*
X2859865Y5730671D01*
X2867548Y5729000D01*
X3939884Y5729000D01*
X3955123Y5733475D01*
X3956328Y5734865D01*
X3957999Y5742548D01*
X3957999Y5947115D01*
X24442000Y5947115D01*
X24446475Y5931876D01*
X24447865Y5930671D01*
X24455548Y5929000D01*
X25527885Y5929000D01*
X25543124Y5933475D01*
X25544329Y5934865D01*
X25546000Y5942548D01*
X25546000Y5947115D01*
X26054000Y5947115D01*
X26058475Y5931876D01*
X26059865Y5930671D01*
X26067548Y5929000D01*
X27139884Y5929000D01*
X27155123Y5933475D01*
X27156328Y5934865D01*
X27157999Y5942548D01*
X27157999Y6569669D01*
X27157629Y6576490D01*
X27152105Y6627352D01*
X27148479Y6642604D01*
X27103324Y6763054D01*
X27094786Y6778649D01*
X27018285Y6880724D01*
X27005724Y6893285D01*
X26903649Y6969786D01*
X26888054Y6978324D01*
X26767606Y7023478D01*
X26752351Y7027105D01*
X26701486Y7032631D01*
X26694672Y7033000D01*
X26072115Y7033000D01*
X26056876Y7028525D01*
X26055671Y7027135D01*
X26054000Y7019452D01*
X26054000Y5947115D01*
X25546000Y5947115D01*
X25546000Y7014884D01*
X25541525Y7030123D01*
X25540135Y7031328D01*
X25532452Y7032999D01*
X24905331Y7032999D01*
X24898510Y7032629D01*
X24847648Y7027105D01*
X24832396Y7023479D01*
X24711946Y6978324D01*
X24696351Y6969786D01*
X24594276Y6893285D01*
X24581715Y6880724D01*
X24505214Y6778649D01*
X24496676Y6763054D01*
X24451522Y6642606D01*
X24447895Y6627351D01*
X24442369Y6576486D01*
X24442000Y6569672D01*
X24442000Y5947115D01*
X3957999Y5947115D01*
X3957999Y6369669D01*
X3957629Y6376490D01*
X3952105Y6427352D01*
X3948479Y6442604D01*
X3903324Y6563054D01*
X3894786Y6578649D01*
X3818285Y6680724D01*
X3805724Y6693285D01*
X3703649Y6769786D01*
X3688054Y6778324D01*
X3567606Y6823478D01*
X3552351Y6827105D01*
X3501486Y6832631D01*
X3494672Y6833000D01*
X2872115Y6833000D01*
X2856876Y6828525D01*
X2855671Y6827135D01*
X2854000Y6819452D01*
X2854000Y5747115D01*
X2346000Y5747115D01*
X2346000Y6814884D01*
X2341525Y6830123D01*
X2340135Y6831328D01*
X2332452Y6832999D01*
X1705331Y6832999D01*
X1698510Y6832629D01*
X1647648Y6827105D01*
X1632396Y6823479D01*
X1511946Y6778324D01*
X1496351Y6769786D01*
X1394276Y6693285D01*
X1381715Y6680724D01*
X1305214Y6578649D01*
X1296676Y6563054D01*
X1251522Y6442606D01*
X1247895Y6427351D01*
X1242369Y6376486D01*
X1242000Y6369672D01*
X1242000Y5747115D01*
X254500Y5747115D01*
X254500Y7690891D01*
X10078475Y7690891D01*
X10094139Y7504361D01*
X10145735Y7324425D01*
X10231297Y7157938D01*
X10235120Y7153114D01*
X10235123Y7153110D01*
X10334994Y7027105D01*
X10347568Y7011241D01*
X10490118Y6889921D01*
X10495496Y6886915D01*
X10495498Y6886914D01*
X10529896Y6867690D01*
X10653518Y6798600D01*
X10831543Y6740756D01*
X11017414Y6718592D01*
X11023549Y6719064D01*
X11023551Y6719064D01*
X11197908Y6732480D01*
X11197913Y6732481D01*
X11204049Y6732953D01*
X11209979Y6734609D01*
X11209981Y6734609D01*
X11378413Y6781636D01*
X11378412Y6781636D01*
X11384341Y6783291D01*
X11414648Y6798600D01*
X11471077Y6827105D01*
X11551421Y6867690D01*
X11579876Y6889921D01*
X11694071Y6979140D01*
X11694072Y6979140D01*
X11698927Y6982934D01*
X11821238Y7124633D01*
X11913698Y7287392D01*
X11972783Y7465009D01*
X11996244Y7650720D01*
X11996618Y7677500D01*
X11995305Y7690891D01*
X17698475Y7690891D01*
X17714139Y7504361D01*
X17765735Y7324425D01*
X17851297Y7157938D01*
X17855120Y7153114D01*
X17855123Y7153110D01*
X17954994Y7027105D01*
X17967568Y7011241D01*
X18110118Y6889921D01*
X18115496Y6886915D01*
X18115498Y6886914D01*
X18149896Y6867690D01*
X18273518Y6798600D01*
X18451543Y6740756D01*
X18637414Y6718592D01*
X18643549Y6719064D01*
X18643551Y6719064D01*
X18817908Y6732480D01*
X18817913Y6732481D01*
X18824049Y6732953D01*
X18829979Y6734609D01*
X18829981Y6734609D01*
X18998413Y6781636D01*
X18998412Y6781636D01*
X19004341Y6783291D01*
X19034648Y6798600D01*
X19091077Y6827105D01*
X19171421Y6867690D01*
X19199876Y6889921D01*
X19314071Y6979140D01*
X19314072Y6979140D01*
X19318927Y6982934D01*
X19441238Y7124633D01*
X19533698Y7287392D01*
X19592783Y7465009D01*
X19616244Y7650720D01*
X19616618Y7677500D01*
X19598352Y7863794D01*
X19544249Y8042991D01*
X19456370Y8208268D01*
X19452480Y8213038D01*
X19452477Y8213042D01*
X19341957Y8348552D01*
X19341954Y8348555D01*
X19338062Y8353327D01*
X19193832Y8472645D01*
X19029173Y8561676D01*
X18939765Y8589352D01*
X18856244Y8615206D01*
X18856241Y8615207D01*
X18850357Y8617028D01*
X18844232Y8617672D01*
X18844231Y8617672D01*
X18670324Y8635951D01*
X18670323Y8635951D01*
X18664196Y8636595D01*
X18587643Y8629628D01*
X18483918Y8620188D01*
X18483915Y8620187D01*
X18477779Y8619629D01*
X18471873Y8617891D01*
X18471869Y8617890D01*
X18336575Y8578071D01*
X18298208Y8566779D01*
X18132322Y8480056D01*
X18127522Y8476196D01*
X18127521Y8476196D01*
X18118218Y8468716D01*
X17986440Y8362764D01*
X17866119Y8219370D01*
X17863155Y8213978D01*
X17863152Y8213974D01*
X17788955Y8079009D01*
X17775941Y8055337D01*
X17774080Y8049470D01*
X17774079Y8049468D01*
X17770153Y8037091D01*
X17719341Y7876912D01*
X17698475Y7690891D01*
X11995305Y7690891D01*
X11978352Y7863794D01*
X11924249Y8042991D01*
X11836370Y8208268D01*
X11832480Y8213038D01*
X11832477Y8213042D01*
X11721957Y8348552D01*
X11721954Y8348555D01*
X11718062Y8353327D01*
X11573832Y8472645D01*
X11409173Y8561676D01*
X11319765Y8589352D01*
X11236244Y8615206D01*
X11236241Y8615207D01*
X11230357Y8617028D01*
X11224232Y8617672D01*
X11224231Y8617672D01*
X11050324Y8635951D01*
X11050323Y8635951D01*
X11044196Y8636595D01*
X10967643Y8629628D01*
X10863918Y8620188D01*
X10863915Y8620187D01*
X10857779Y8619629D01*
X10851873Y8617891D01*
X10851869Y8617890D01*
X10716575Y8578071D01*
X10678208Y8566779D01*
X10512322Y8480056D01*
X10507522Y8476196D01*
X10507521Y8476196D01*
X10498218Y8468716D01*
X10366440Y8362764D01*
X10246119Y8219370D01*
X10243155Y8213978D01*
X10243152Y8213974D01*
X10168955Y8079009D01*
X10155941Y8055337D01*
X10154080Y8049470D01*
X10154079Y8049468D01*
X10150153Y8037091D01*
X10099341Y7876912D01*
X10078475Y7690891D01*
X254500Y7690891D01*
X254500Y11273016D01*
X274502Y11341137D01*
X328158Y11387630D01*
X394107Y11398279D01*
X448512Y11392369D01*
X455328Y11392000D01*
X2327885Y11392000D01*
X2343124Y11396475D01*
X2344329Y11397865D01*
X2346000Y11405548D01*
X2346000Y11410116D01*
X2854000Y11410116D01*
X2858475Y11394877D01*
X2859865Y11393672D01*
X2867548Y11392001D01*
X4744669Y11392001D01*
X4751490Y11392371D01*
X4802352Y11397895D01*
X4817604Y11401521D01*
X4938054Y11446676D01*
X4953649Y11455214D01*
X5055724Y11531715D01*
X5068285Y11544276D01*
X5144786Y11646351D01*
X5153324Y11661946D01*
X5198478Y11782394D01*
X5202105Y11797649D01*
X5207631Y11848514D01*
X5208000Y11855328D01*
X5208000Y12302885D01*
X5203525Y12318124D01*
X5202135Y12319329D01*
X5194452Y12321000D01*
X2872115Y12321000D01*
X2856876Y12316525D01*
X2855671Y12315135D01*
X2854000Y12307452D01*
X2854000Y11410116D01*
X2346000Y11410116D01*
X2346000Y12770891D01*
X10078475Y12770891D01*
X10094139Y12584361D01*
X10145735Y12404425D01*
X10231297Y12237938D01*
X10235120Y12233114D01*
X10235123Y12233110D01*
X10257694Y12204633D01*
X10347568Y12091241D01*
X10490118Y11969921D01*
X10495496Y11966915D01*
X10495498Y11966914D01*
X10529896Y11947690D01*
X10653518Y11878600D01*
X10831543Y11820756D01*
X11017414Y11798592D01*
X11023549Y11799064D01*
X11023551Y11799064D01*
X11197908Y11812480D01*
X11197913Y11812481D01*
X11204049Y11812953D01*
X11209979Y11814609D01*
X11209981Y11814609D01*
X11378413Y11861636D01*
X11378412Y11861636D01*
X11384341Y11863291D01*
X11414648Y11878600D01*
X11463274Y11903163D01*
X11551421Y11947690D01*
X11579876Y11969921D01*
X11694071Y12059140D01*
X11694072Y12059140D01*
X11698927Y12062934D01*
X11821238Y12204633D01*
X11913698Y12367392D01*
X11972783Y12545009D01*
X11996244Y12730720D01*
X11996618Y12757500D01*
X11995305Y12770891D01*
X17698475Y12770891D01*
X17714139Y12584361D01*
X17765735Y12404425D01*
X17851297Y12237938D01*
X17855120Y12233114D01*
X17855123Y12233110D01*
X17877694Y12204633D01*
X17967568Y12091241D01*
X18110118Y11969921D01*
X18115496Y11966915D01*
X18115498Y11966914D01*
X18149896Y11947690D01*
X18273518Y11878600D01*
X18451543Y11820756D01*
X18637414Y11798592D01*
X18643549Y11799064D01*
X18643551Y11799064D01*
X18817908Y11812480D01*
X18817913Y11812481D01*
X18824049Y11812953D01*
X18829979Y11814609D01*
X18829981Y11814609D01*
X18998413Y11861636D01*
X18998412Y11861636D01*
X19004341Y11863291D01*
X19034648Y11878600D01*
X19083274Y11903163D01*
X19171421Y11947690D01*
X19199876Y11969921D01*
X19314071Y12059140D01*
X19314072Y12059140D01*
X19318927Y12062934D01*
X19441238Y12204633D01*
X19533698Y12367392D01*
X19592783Y12545009D01*
X19616244Y12730720D01*
X19616618Y12757500D01*
X19598352Y12943794D01*
X19544249Y13122991D01*
X19456370Y13288268D01*
X19452480Y13293038D01*
X19452477Y13293042D01*
X19341957Y13428552D01*
X19341954Y13428555D01*
X19338062Y13433327D01*
X19311464Y13455331D01*
X23192001Y13455331D01*
X23192371Y13448510D01*
X23197895Y13397648D01*
X23201521Y13382396D01*
X23246676Y13261946D01*
X23255214Y13246351D01*
X23331715Y13144276D01*
X23344276Y13131715D01*
X23446351Y13055214D01*
X23461946Y13046676D01*
X23582394Y13001522D01*
X23597649Y12997895D01*
X23648514Y12992369D01*
X23655328Y12992000D01*
X25527885Y12992000D01*
X25543124Y12996475D01*
X25544329Y12997865D01*
X25546000Y13005548D01*
X25546000Y13902885D01*
X25541525Y13918124D01*
X25540135Y13919329D01*
X25532452Y13921000D01*
X23210116Y13921000D01*
X23194877Y13916525D01*
X23193672Y13915135D01*
X23192001Y13907452D01*
X23192001Y13455331D01*
X19311464Y13455331D01*
X19193832Y13552645D01*
X19029173Y13641676D01*
X18939765Y13669352D01*
X18856244Y13695206D01*
X18856241Y13695207D01*
X18850357Y13697028D01*
X18844232Y13697672D01*
X18844231Y13697672D01*
X18670324Y13715951D01*
X18670323Y13715951D01*
X18664196Y13716595D01*
X18587643Y13709628D01*
X18483918Y13700188D01*
X18483915Y13700187D01*
X18477779Y13699629D01*
X18471873Y13697891D01*
X18471869Y13697890D01*
X18336575Y13658071D01*
X18298208Y13646779D01*
X18132322Y13560056D01*
X18127522Y13556196D01*
X18127521Y13556196D01*
X18118218Y13548716D01*
X17986440Y13442764D01*
X17866119Y13299370D01*
X17863155Y13293978D01*
X17863152Y13293974D01*
X17788955Y13159009D01*
X17775941Y13135337D01*
X17774080Y13129470D01*
X17774079Y13129468D01*
X17770153Y13117091D01*
X17719341Y12956912D01*
X17698475Y12770891D01*
X11995305Y12770891D01*
X11978352Y12943794D01*
X11924249Y13122991D01*
X11836370Y13288268D01*
X11832480Y13293038D01*
X11832477Y13293042D01*
X11721957Y13428552D01*
X11721954Y13428555D01*
X11718062Y13433327D01*
X11573832Y13552645D01*
X11409173Y13641676D01*
X11319765Y13669352D01*
X11236244Y13695206D01*
X11236241Y13695207D01*
X11230357Y13697028D01*
X11224232Y13697672D01*
X11224231Y13697672D01*
X11050324Y13715951D01*
X11050323Y13715951D01*
X11044196Y13716595D01*
X10967643Y13709628D01*
X10863918Y13700188D01*
X10863915Y13700187D01*
X10857779Y13699629D01*
X10851873Y13697891D01*
X10851869Y13697890D01*
X10716575Y13658071D01*
X10678208Y13646779D01*
X10512322Y13560056D01*
X10507522Y13556196D01*
X10507521Y13556196D01*
X10498218Y13548716D01*
X10366440Y13442764D01*
X10246119Y13299370D01*
X10243155Y13293978D01*
X10243152Y13293974D01*
X10168955Y13159009D01*
X10155941Y13135337D01*
X10154080Y13129470D01*
X10154079Y13129468D01*
X10150153Y13117091D01*
X10099341Y12956912D01*
X10078475Y12770891D01*
X2346000Y12770891D01*
X2346000Y12847115D01*
X2854000Y12847115D01*
X2858475Y12831876D01*
X2859865Y12830671D01*
X2867548Y12829000D01*
X5189884Y12829000D01*
X5205123Y12833475D01*
X5206328Y12834865D01*
X5207999Y12842548D01*
X5207999Y13294669D01*
X5207629Y13301490D01*
X5202105Y13352352D01*
X5198479Y13367604D01*
X5153324Y13488054D01*
X5144786Y13503649D01*
X5068285Y13605724D01*
X5055724Y13618285D01*
X4953649Y13694786D01*
X4938054Y13703324D01*
X4817606Y13748478D01*
X4802351Y13752105D01*
X4751486Y13757631D01*
X4744672Y13758000D01*
X2872115Y13758000D01*
X2856876Y13753525D01*
X2855671Y13752135D01*
X2854000Y13744452D01*
X2854000Y12847115D01*
X2346000Y12847115D01*
X2346000Y13739884D01*
X2341525Y13755123D01*
X2340135Y13756328D01*
X2332452Y13757999D01*
X455331Y13757999D01*
X448512Y13757630D01*
X394106Y13751720D01*
X324224Y13764249D01*
X272209Y13812570D01*
X254500Y13876983D01*
X254500Y14447115D01*
X23192000Y14447115D01*
X23196475Y14431876D01*
X23197865Y14430671D01*
X23205548Y14429000D01*
X25527885Y14429000D01*
X25543124Y14433475D01*
X25544329Y14434865D01*
X25546000Y14442548D01*
X25546000Y15339884D01*
X25541525Y15355123D01*
X25540135Y15356328D01*
X25532452Y15357999D01*
X23655331Y15357999D01*
X23648510Y15357629D01*
X23597648Y15352105D01*
X23582396Y15348479D01*
X23461946Y15303324D01*
X23446351Y15294786D01*
X23344276Y15218285D01*
X23331715Y15205724D01*
X23255214Y15103649D01*
X23246676Y15088054D01*
X23201522Y14967606D01*
X23197895Y14952351D01*
X23192369Y14901486D01*
X23192000Y14894672D01*
X23192000Y14447115D01*
X254500Y14447115D01*
X254500Y16923016D01*
X274502Y16991137D01*
X328158Y17037630D01*
X394107Y17048279D01*
X448512Y17042369D01*
X455328Y17042000D01*
X2327885Y17042000D01*
X2343124Y17046475D01*
X2344329Y17047865D01*
X2346000Y17055548D01*
X2346000Y17060116D01*
X2854000Y17060116D01*
X2858475Y17044877D01*
X2859865Y17043672D01*
X2867548Y17042001D01*
X4744669Y17042001D01*
X4751490Y17042371D01*
X4802352Y17047895D01*
X4817604Y17051521D01*
X4938054Y17096676D01*
X4953649Y17105214D01*
X5055724Y17181715D01*
X5068285Y17194276D01*
X5144786Y17296351D01*
X5153324Y17311946D01*
X5198478Y17432394D01*
X5202105Y17447649D01*
X5207631Y17498514D01*
X5208000Y17505328D01*
X5208000Y17850891D01*
X10078475Y17850891D01*
X10094139Y17664361D01*
X10145735Y17484425D01*
X10231297Y17317938D01*
X10235120Y17313114D01*
X10235123Y17313110D01*
X10257694Y17284633D01*
X10347568Y17171241D01*
X10490118Y17049921D01*
X10495496Y17046915D01*
X10495498Y17046914D01*
X10529896Y17027690D01*
X10653518Y16958600D01*
X10831543Y16900756D01*
X11017414Y16878592D01*
X11023549Y16879064D01*
X11023551Y16879064D01*
X11197908Y16892480D01*
X11197913Y16892481D01*
X11204049Y16892953D01*
X11209979Y16894609D01*
X11209981Y16894609D01*
X11378413Y16941636D01*
X11378412Y16941636D01*
X11384341Y16943291D01*
X11414648Y16958600D01*
X11479059Y16991137D01*
X11551421Y17027690D01*
X11569739Y17042001D01*
X11694071Y17139140D01*
X11694072Y17139140D01*
X11698927Y17142934D01*
X11821238Y17284633D01*
X11913698Y17447392D01*
X11972783Y17625009D01*
X11996244Y17810720D01*
X11996618Y17837500D01*
X11995305Y17850891D01*
X17698475Y17850891D01*
X17714139Y17664361D01*
X17765735Y17484425D01*
X17851297Y17317938D01*
X17855120Y17313114D01*
X17855123Y17313110D01*
X17877694Y17284633D01*
X17967568Y17171241D01*
X18110118Y17049921D01*
X18115496Y17046915D01*
X18115498Y17046914D01*
X18149896Y17027690D01*
X18273518Y16958600D01*
X18451543Y16900756D01*
X18637414Y16878592D01*
X18643549Y16879064D01*
X18643551Y16879064D01*
X18817908Y16892480D01*
X18817913Y16892481D01*
X18824049Y16892953D01*
X18829979Y16894609D01*
X18829981Y16894609D01*
X18998413Y16941636D01*
X18998412Y16941636D01*
X19004341Y16943291D01*
X19034648Y16958600D01*
X19099059Y16991137D01*
X19171421Y17027690D01*
X19189739Y17042001D01*
X19314071Y17139140D01*
X19314072Y17139140D01*
X19318927Y17142934D01*
X19441238Y17284633D01*
X19533698Y17447392D01*
X19592783Y17625009D01*
X19616244Y17810720D01*
X19616618Y17837500D01*
X19598352Y18023794D01*
X19544249Y18202991D01*
X19456370Y18368268D01*
X19452480Y18373038D01*
X19452477Y18373042D01*
X19341957Y18508552D01*
X19341954Y18508555D01*
X19338062Y18513327D01*
X19193832Y18632645D01*
X19029173Y18721676D01*
X18939765Y18749352D01*
X18856244Y18775206D01*
X18856241Y18775207D01*
X18850357Y18777028D01*
X18844232Y18777672D01*
X18844231Y18777672D01*
X18670324Y18795951D01*
X18670323Y18795951D01*
X18664196Y18796595D01*
X18587643Y18789628D01*
X18483918Y18780188D01*
X18483915Y18780187D01*
X18477779Y18779629D01*
X18471873Y18777891D01*
X18471869Y18777890D01*
X18336575Y18738071D01*
X18298208Y18726779D01*
X18132322Y18640056D01*
X18127522Y18636196D01*
X18127521Y18636196D01*
X18118218Y18628716D01*
X17986440Y18522764D01*
X17866119Y18379370D01*
X17863155Y18373978D01*
X17863152Y18373974D01*
X17788955Y18239009D01*
X17775941Y18215337D01*
X17774080Y18209470D01*
X17774079Y18209468D01*
X17770153Y18197091D01*
X17719341Y18036912D01*
X17698475Y17850891D01*
X11995305Y17850891D01*
X11978352Y18023794D01*
X11924249Y18202991D01*
X11836370Y18368268D01*
X11832480Y18373038D01*
X11832477Y18373042D01*
X11721957Y18508552D01*
X11721954Y18508555D01*
X11718062Y18513327D01*
X11573832Y18632645D01*
X11409173Y18721676D01*
X11319765Y18749352D01*
X11236244Y18775206D01*
X11236241Y18775207D01*
X11230357Y18777028D01*
X11224232Y18777672D01*
X11224231Y18777672D01*
X11050324Y18795951D01*
X11050323Y18795951D01*
X11044196Y18796595D01*
X10967643Y18789628D01*
X10863918Y18780188D01*
X10863915Y18780187D01*
X10857779Y18779629D01*
X10851873Y18777891D01*
X10851869Y18777890D01*
X10716575Y18738071D01*
X10678208Y18726779D01*
X10512322Y18640056D01*
X10507522Y18636196D01*
X10507521Y18636196D01*
X10498218Y18628716D01*
X10366440Y18522764D01*
X10246119Y18379370D01*
X10243155Y18373978D01*
X10243152Y18373974D01*
X10168955Y18239009D01*
X10155941Y18215337D01*
X10154080Y18209470D01*
X10154079Y18209468D01*
X10150153Y18197091D01*
X10099341Y18036912D01*
X10078475Y17850891D01*
X5208000Y17850891D01*
X5208000Y17952885D01*
X5203525Y17968124D01*
X5202135Y17969329D01*
X5194452Y17971000D01*
X2872115Y17971000D01*
X2856876Y17966525D01*
X2855671Y17965135D01*
X2854000Y17957452D01*
X2854000Y17060116D01*
X2346000Y17060116D01*
X2346000Y18497115D01*
X2854000Y18497115D01*
X2858475Y18481876D01*
X2859865Y18480671D01*
X2867548Y18479000D01*
X5189884Y18479000D01*
X5205123Y18483475D01*
X5206328Y18484865D01*
X5207999Y18492548D01*
X5207999Y18944669D01*
X5207629Y18951490D01*
X5202105Y19002352D01*
X5198479Y19017604D01*
X5165591Y19105331D01*
X23192001Y19105331D01*
X23192371Y19098510D01*
X23197895Y19047648D01*
X23201521Y19032396D01*
X23246676Y18911946D01*
X23255214Y18896351D01*
X23331715Y18794276D01*
X23344276Y18781715D01*
X23446351Y18705214D01*
X23461946Y18696676D01*
X23582394Y18651522D01*
X23597649Y18647895D01*
X23648514Y18642369D01*
X23655328Y18642000D01*
X25527885Y18642000D01*
X25543124Y18646475D01*
X25544329Y18647865D01*
X25546000Y18655548D01*
X25546000Y19552885D01*
X25541525Y19568124D01*
X25540135Y19569329D01*
X25532452Y19571000D01*
X23210116Y19571000D01*
X23194877Y19566525D01*
X23193672Y19565135D01*
X23192001Y19557452D01*
X23192001Y19105331D01*
X5165591Y19105331D01*
X5153324Y19138054D01*
X5144786Y19153649D01*
X5068285Y19255724D01*
X5055724Y19268285D01*
X4953649Y19344786D01*
X4938054Y19353324D01*
X4817606Y19398478D01*
X4802351Y19402105D01*
X4751486Y19407631D01*
X4744672Y19408000D01*
X2872115Y19408000D01*
X2856876Y19403525D01*
X2855671Y19402135D01*
X2854000Y19394452D01*
X2854000Y18497115D01*
X2346000Y18497115D01*
X2346000Y19389884D01*
X2341525Y19405123D01*
X2340135Y19406328D01*
X2332452Y19407999D01*
X455331Y19407999D01*
X448512Y19407630D01*
X394106Y19401720D01*
X324224Y19414249D01*
X272209Y19462570D01*
X254500Y19526983D01*
X254500Y20097115D01*
X23192000Y20097115D01*
X23196475Y20081876D01*
X23197865Y20080671D01*
X23205548Y20079000D01*
X25527885Y20079000D01*
X25543124Y20083475D01*
X25544329Y20084865D01*
X25546000Y20092548D01*
X25546000Y20989884D01*
X25541525Y21005123D01*
X25540135Y21006328D01*
X25532452Y21007999D01*
X23655331Y21007999D01*
X23648510Y21007629D01*
X23597648Y21002105D01*
X23582396Y20998479D01*
X23461946Y20953324D01*
X23446351Y20944786D01*
X23344276Y20868285D01*
X23331715Y20855724D01*
X23255214Y20753649D01*
X23246676Y20738054D01*
X23201522Y20617606D01*
X23197895Y20602351D01*
X23192369Y20551486D01*
X23192000Y20544672D01*
X23192000Y20097115D01*
X254500Y20097115D01*
X254500Y23467034D01*
X24468257Y23467034D01*
X24498565Y23332554D01*
X24501645Y23322725D01*
X24581770Y23125397D01*
X24586413Y23116206D01*
X24697694Y22934612D01*
X24703777Y22926301D01*
X24843213Y22765333D01*
X24850580Y22758117D01*
X25014434Y22622084D01*
X25022881Y22616169D01*
X25206756Y22508721D01*
X25216042Y22504271D01*
X25415001Y22428297D01*
X25424899Y22425421D01*
X25528250Y22404394D01*
X25542299Y22405590D01*
X25546000Y22415935D01*
X25546000Y22416483D01*
X26054000Y22416483D01*
X26058064Y22402641D01*
X26071478Y22400607D01*
X26078184Y22401466D01*
X26088262Y22403608D01*
X26292255Y22464809D01*
X26301842Y22468567D01*
X26493095Y22562261D01*
X26501945Y22567536D01*
X26675328Y22691208D01*
X26683200Y22697861D01*
X26834052Y22848188D01*
X26840730Y22856035D01*
X26965003Y23028980D01*
X26970313Y23037817D01*
X27064670Y23228733D01*
X27068469Y23238328D01*
X27130377Y23442090D01*
X27132555Y23452163D01*
X27133986Y23463038D01*
X27131775Y23477222D01*
X27118617Y23481000D01*
X26072115Y23481000D01*
X26056876Y23476525D01*
X26055671Y23475135D01*
X26054000Y23467452D01*
X26054000Y22416483D01*
X25546000Y22416483D01*
X25546000Y23462885D01*
X25541525Y23478124D01*
X25540135Y23479329D01*
X25532452Y23481000D01*
X24483225Y23481000D01*
X24469694Y23477027D01*
X24468257Y23467034D01*
X254500Y23467034D01*
X254500Y26182567D01*
X10083000Y26182567D01*
X10083001Y24732434D01*
X10097766Y24658199D01*
X10154016Y24574016D01*
X10238199Y24517766D01*
X10312433Y24503000D01*
X11037382Y24503000D01*
X11762566Y24503001D01*
X11798318Y24510112D01*
X11824626Y24515344D01*
X11824628Y24515345D01*
X11836801Y24517766D01*
X11847121Y24524661D01*
X11847122Y24524662D01*
X11910668Y24567123D01*
X11920984Y24574016D01*
X11977234Y24658199D01*
X11992000Y24732433D01*
X11991999Y25470891D01*
X17698475Y25470891D01*
X17698991Y25464748D01*
X17712205Y25307396D01*
X17714139Y25284361D01*
X17765735Y25104425D01*
X17851297Y24937938D01*
X17855120Y24933114D01*
X17855123Y24933110D01*
X17910640Y24863066D01*
X17967568Y24791241D01*
X18110118Y24669921D01*
X18115496Y24666915D01*
X18115498Y24666914D01*
X18149556Y24647880D01*
X18273518Y24578600D01*
X18451543Y24520756D01*
X18637414Y24498592D01*
X18643549Y24499064D01*
X18643551Y24499064D01*
X18817908Y24512480D01*
X18817913Y24512481D01*
X18824049Y24512953D01*
X18829979Y24514609D01*
X18829981Y24514609D01*
X18998413Y24561636D01*
X18998412Y24561636D01*
X19004341Y24563291D01*
X19018104Y24570243D01*
X19083274Y24603163D01*
X19171421Y24647690D01*
X19199876Y24669921D01*
X19314071Y24759140D01*
X19314072Y24759140D01*
X19318927Y24762934D01*
X19407344Y24865366D01*
X19437209Y24899965D01*
X19437210Y24899967D01*
X19441238Y24904633D01*
X19533698Y25067392D01*
X19592783Y25245009D01*
X19609878Y25380331D01*
X24442001Y25380331D01*
X24442371Y25373510D01*
X24447895Y25322648D01*
X24451521Y25307396D01*
X24496676Y25186946D01*
X24505214Y25171351D01*
X24581715Y25069276D01*
X24594276Y25056715D01*
X24696351Y24980214D01*
X24711946Y24971676D01*
X24821337Y24930667D01*
X24878101Y24888025D01*
X24902801Y24821464D01*
X24887594Y24752115D01*
X24868201Y24725634D01*
X24744590Y24596283D01*
X24738104Y24588273D01*
X24618098Y24412351D01*
X24613000Y24403377D01*
X24523338Y24210217D01*
X24519775Y24200530D01*
X24464389Y24000817D01*
X24465912Y23992393D01*
X24478292Y23989000D01*
X25527885Y23989000D01*
X25543124Y23993475D01*
X25544329Y23994865D01*
X25546000Y24002548D01*
X25546000Y24007115D01*
X26054000Y24007115D01*
X26058475Y23991876D01*
X26059865Y23990671D01*
X26067548Y23989000D01*
X27118344Y23989000D01*
X27131875Y23992973D01*
X27133180Y24002053D01*
X27091214Y24169125D01*
X27087894Y24178876D01*
X27002972Y24374186D01*
X26998105Y24383261D01*
X26882426Y24562074D01*
X26876136Y24570243D01*
X26731931Y24728721D01*
X26700879Y24792567D01*
X26709273Y24863066D01*
X26754450Y24917834D01*
X26780894Y24931503D01*
X26888054Y24971676D01*
X26903649Y24980214D01*
X27005724Y25056715D01*
X27018285Y25069276D01*
X27094786Y25171351D01*
X27103324Y25186946D01*
X27148478Y25307394D01*
X27152105Y25322649D01*
X27157631Y25373514D01*
X27158000Y25380328D01*
X27158000Y26002885D01*
X27153525Y26018124D01*
X27152135Y26019329D01*
X27144452Y26021000D01*
X26072115Y26021000D01*
X26056876Y26016525D01*
X26055671Y26015135D01*
X26054000Y26007452D01*
X26054000Y24007115D01*
X25546000Y24007115D01*
X25546000Y26002885D01*
X25541525Y26018124D01*
X25540135Y26019329D01*
X25532452Y26021000D01*
X24460116Y26021000D01*
X24444877Y26016525D01*
X24443672Y26015135D01*
X24442001Y26007452D01*
X24442001Y25380331D01*
X19609878Y25380331D01*
X19616244Y25430720D01*
X19616618Y25457500D01*
X19598352Y25643794D01*
X19544249Y25822991D01*
X19456370Y25988268D01*
X19452480Y25993038D01*
X19452477Y25993042D01*
X19341957Y26128552D01*
X19341954Y26128555D01*
X19338062Y26133327D01*
X19193832Y26252645D01*
X19029173Y26341676D01*
X18939765Y26369352D01*
X18856244Y26395206D01*
X18856241Y26395207D01*
X18850357Y26397028D01*
X18844232Y26397672D01*
X18844231Y26397672D01*
X18670324Y26415951D01*
X18670323Y26415951D01*
X18664196Y26416595D01*
X18587643Y26409628D01*
X18483918Y26400188D01*
X18483915Y26400187D01*
X18477779Y26399629D01*
X18471873Y26397891D01*
X18471869Y26397890D01*
X18336575Y26358071D01*
X18298208Y26346779D01*
X18132322Y26260056D01*
X18127522Y26256196D01*
X18127521Y26256196D01*
X18118218Y26248716D01*
X17986440Y26142764D01*
X17866119Y25999370D01*
X17863155Y25993978D01*
X17863152Y25993974D01*
X17788955Y25859009D01*
X17775941Y25835337D01*
X17774080Y25829470D01*
X17774079Y25829468D01*
X17770153Y25817091D01*
X17719341Y25656912D01*
X17698475Y25470891D01*
X11991999Y25470891D01*
X11991999Y26182566D01*
X11977234Y26256801D01*
X11920984Y26340984D01*
X11836801Y26397234D01*
X11762567Y26412000D01*
X11037618Y26412000D01*
X10312434Y26411999D01*
X10276682Y26404888D01*
X10250374Y26399656D01*
X10250372Y26399655D01*
X10238199Y26397234D01*
X10227879Y26390339D01*
X10227878Y26390338D01*
X10167485Y26349984D01*
X10154016Y26340984D01*
X10097766Y26256801D01*
X10083000Y26182567D01*
X254500Y26182567D01*
X254500Y26547115D01*
X24442000Y26547115D01*
X24446475Y26531876D01*
X24447865Y26530671D01*
X24455548Y26529000D01*
X25527885Y26529000D01*
X25543124Y26533475D01*
X25544329Y26534865D01*
X25546000Y26542548D01*
X25546000Y26547115D01*
X26054000Y26547115D01*
X26058475Y26531876D01*
X26059865Y26530671D01*
X26067548Y26529000D01*
X27139884Y26529000D01*
X27155123Y26533475D01*
X27156328Y26534865D01*
X27157999Y26542548D01*
X27157999Y27169669D01*
X27157629Y27176490D01*
X27152105Y27227352D01*
X27148479Y27242604D01*
X27103324Y27363054D01*
X27094786Y27378649D01*
X27018285Y27480724D01*
X27005724Y27493285D01*
X26903649Y27569786D01*
X26888054Y27578324D01*
X26767606Y27623478D01*
X26752351Y27627105D01*
X26701486Y27632631D01*
X26694672Y27633000D01*
X26072115Y27633000D01*
X26056876Y27628525D01*
X26055671Y27627135D01*
X26054000Y27619452D01*
X26054000Y26547115D01*
X25546000Y26547115D01*
X25546000Y27614884D01*
X25541525Y27630123D01*
X25540135Y27631328D01*
X25532452Y27632999D01*
X24905331Y27632999D01*
X24898510Y27632629D01*
X24847648Y27627105D01*
X24832396Y27623479D01*
X24711946Y27578324D01*
X24696351Y27569786D01*
X24594276Y27493285D01*
X24581715Y27480724D01*
X24505214Y27378649D01*
X24496676Y27363054D01*
X24451522Y27242606D01*
X24447895Y27227351D01*
X24442369Y27176486D01*
X24442000Y27169672D01*
X24442000Y26547115D01*
X254500Y26547115D01*
X254500Y30132034D01*
X3003257Y30132034D01*
X3033565Y29997554D01*
X3036645Y29987725D01*
X3116770Y29790397D01*
X3121413Y29781206D01*
X3232694Y29599612D01*
X3238777Y29591301D01*
X3378213Y29430333D01*
X3385580Y29423117D01*
X3549434Y29287084D01*
X3557881Y29281169D01*
X3741756Y29173721D01*
X3751042Y29169271D01*
X3950001Y29093297D01*
X3959899Y29090421D01*
X4063250Y29069394D01*
X4077299Y29070590D01*
X4081000Y29080935D01*
X4081000Y29081483D01*
X4589000Y29081483D01*
X4593064Y29067641D01*
X4606478Y29065607D01*
X4613184Y29066466D01*
X4623262Y29068608D01*
X4827255Y29129809D01*
X4836842Y29133567D01*
X5028095Y29227261D01*
X5036945Y29232536D01*
X5210328Y29356208D01*
X5218200Y29362861D01*
X5369052Y29513188D01*
X5375730Y29521035D01*
X5500003Y29693980D01*
X5505310Y29702812D01*
X5531544Y29755891D01*
X5579658Y29808097D01*
X5648360Y29826004D01*
X5715836Y29803925D01*
X5760664Y29748871D01*
X5770501Y29700063D01*
X5770501Y29524934D01*
X5785266Y29450699D01*
X5792161Y29440380D01*
X5792162Y29440378D01*
X5818675Y29400699D01*
X5841516Y29366516D01*
X5925699Y29310266D01*
X5999933Y29295500D01*
X6874858Y29295500D01*
X7750066Y29295501D01*
X7785818Y29302612D01*
X7812126Y29307844D01*
X7812128Y29307845D01*
X7824301Y29310266D01*
X7834621Y29317161D01*
X7834622Y29317162D01*
X7898168Y29359623D01*
X7908484Y29366516D01*
X7964734Y29450699D01*
X7979500Y29524933D01*
X7979499Y30633207D01*
X9841264Y30633207D01*
X9841561Y30628054D01*
X9841561Y30628051D01*
X9846813Y30536959D01*
X9854085Y30410844D01*
X9855222Y30405798D01*
X9855223Y30405792D01*
X9876185Y30312780D01*
X9903052Y30193561D01*
X9904994Y30188779D01*
X9904995Y30188775D01*
X9982642Y29997554D01*
X9986849Y29987193D01*
X10103226Y29797283D01*
X10249058Y29628930D01*
X10420428Y29486656D01*
X10612734Y29374282D01*
X10617559Y29372440D01*
X10617560Y29372439D01*
X10651122Y29359623D01*
X10820811Y29294825D01*
X10825879Y29293794D01*
X10825882Y29293793D01*
X10932778Y29272045D01*
X11039072Y29250419D01*
X11044247Y29250229D01*
X11044249Y29250229D01*
X11256491Y29242446D01*
X11256495Y29242446D01*
X11261655Y29242257D01*
X11266775Y29242913D01*
X11266777Y29242913D01*
X11337642Y29251991D01*
X11482582Y29270559D01*
X11487531Y29272044D01*
X11487537Y29272045D01*
X11690969Y29333078D01*
X11690968Y29333078D01*
X11695919Y29334563D01*
X11895939Y29432552D01*
X11900144Y29435552D01*
X11900150Y29435555D01*
X12073065Y29558894D01*
X12073067Y29558896D01*
X12077269Y29561893D01*
X12235039Y29719113D01*
X12267792Y29764693D01*
X12361994Y29895790D01*
X12365012Y29899990D01*
X12408111Y29987193D01*
X12461404Y30095024D01*
X12461405Y30095026D01*
X12463698Y30099666D01*
X12528447Y30312780D01*
X12557519Y30533606D01*
X12559142Y30600000D01*
X12540892Y30821983D01*
X12486631Y31038005D01*
X12397817Y31242264D01*
X12382040Y31266652D01*
X12279645Y31424930D01*
X12279640Y31424936D01*
X12276834Y31429274D01*
X12209483Y31503293D01*
X12130411Y31590192D01*
X12130409Y31590194D01*
X12126933Y31594014D01*
X12122882Y31597213D01*
X12122878Y31597217D01*
X11973723Y31715011D01*
X11960990Y31725067D01*
X17465500Y31725067D01*
X17465501Y29474934D01*
X17467900Y29462874D01*
X17473931Y29432552D01*
X17480266Y29400699D01*
X17487161Y29390380D01*
X17487162Y29390378D01*
X17505549Y29362861D01*
X17536516Y29316516D01*
X17620699Y29260266D01*
X17694933Y29245500D01*
X18819818Y29245500D01*
X19945066Y29245501D01*
X19980818Y29252612D01*
X20007126Y29257844D01*
X20007128Y29257845D01*
X20019301Y29260266D01*
X20029621Y29267161D01*
X20029622Y29267162D01*
X20093168Y29309623D01*
X20103484Y29316516D01*
X20140851Y29372439D01*
X20152839Y29390380D01*
X20159734Y29400699D01*
X20174500Y29474933D01*
X20174499Y31275067D01*
X22220500Y31275067D01*
X22220501Y29524934D01*
X22235266Y29450699D01*
X22242161Y29440380D01*
X22242162Y29440378D01*
X22268675Y29400699D01*
X22291516Y29366516D01*
X22375699Y29310266D01*
X22449933Y29295500D01*
X23324858Y29295500D01*
X24200066Y29295501D01*
X24235818Y29302612D01*
X24262126Y29307844D01*
X24262128Y29307845D01*
X24274301Y29310266D01*
X24284621Y29317161D01*
X24284622Y29317162D01*
X24348168Y29359623D01*
X24358484Y29366516D01*
X24414734Y29450699D01*
X24429500Y29524933D01*
X24429500Y29696572D01*
X24449502Y29764693D01*
X24503158Y29811186D01*
X24573432Y29821290D01*
X24638012Y29791796D01*
X24662933Y29762407D01*
X24762694Y29599612D01*
X24768777Y29591301D01*
X24908213Y29430333D01*
X24915580Y29423117D01*
X25079434Y29287084D01*
X25087881Y29281169D01*
X25271756Y29173721D01*
X25281042Y29169271D01*
X25480001Y29093297D01*
X25489899Y29090421D01*
X25593250Y29069394D01*
X25607299Y29070590D01*
X25611000Y29080935D01*
X25611000Y29081483D01*
X26119000Y29081483D01*
X26123064Y29067641D01*
X26136478Y29065607D01*
X26143184Y29066466D01*
X26153262Y29068608D01*
X26357255Y29129809D01*
X26366842Y29133567D01*
X26558095Y29227261D01*
X26566945Y29232536D01*
X26740328Y29356208D01*
X26748200Y29362861D01*
X26899052Y29513188D01*
X26905730Y29521035D01*
X27030003Y29693980D01*
X27035313Y29702817D01*
X27129670Y29893733D01*
X27133469Y29903328D01*
X27195377Y30107090D01*
X27197555Y30117163D01*
X27198986Y30128038D01*
X27196775Y30142222D01*
X27183617Y30146000D01*
X26137115Y30146000D01*
X26121876Y30141525D01*
X26120671Y30140135D01*
X26119000Y30132452D01*
X26119000Y29081483D01*
X25611000Y29081483D01*
X25611000Y30672115D01*
X26119000Y30672115D01*
X26123475Y30656876D01*
X26124865Y30655671D01*
X26132548Y30654000D01*
X27183344Y30654000D01*
X27196875Y30657973D01*
X27198180Y30667053D01*
X27156214Y30834125D01*
X27152894Y30843876D01*
X27067972Y31039186D01*
X27063105Y31048261D01*
X26947426Y31227074D01*
X26941136Y31235243D01*
X26797806Y31392760D01*
X26790273Y31399785D01*
X26623139Y31531778D01*
X26614552Y31537483D01*
X26428117Y31640401D01*
X26418705Y31644631D01*
X26217959Y31715720D01*
X26207988Y31718354D01*
X26136837Y31731028D01*
X26123540Y31729568D01*
X26119000Y31715011D01*
X26119000Y30672115D01*
X25611000Y30672115D01*
X25611000Y31716898D01*
X25607082Y31730242D01*
X25592806Y31732229D01*
X25554324Y31726340D01*
X25544288Y31723949D01*
X25341868Y31657788D01*
X25332359Y31653791D01*
X25143463Y31555458D01*
X25134738Y31549964D01*
X24964433Y31422095D01*
X24956726Y31415252D01*
X24809590Y31261283D01*
X24803104Y31253273D01*
X24683098Y31077351D01*
X24678000Y31068377D01*
X24669787Y31050684D01*
X24622963Y30997317D01*
X24554720Y30977736D01*
X24486724Y30998159D01*
X24440564Y31052101D01*
X24429499Y31103734D01*
X24429499Y31275066D01*
X24414734Y31349301D01*
X24358484Y31433484D01*
X24274301Y31489734D01*
X24200067Y31504500D01*
X23325142Y31504500D01*
X22449934Y31504499D01*
X22414182Y31497388D01*
X22387874Y31492156D01*
X22387872Y31492155D01*
X22375699Y31489734D01*
X22365379Y31482839D01*
X22365378Y31482838D01*
X22329812Y31459073D01*
X22291516Y31433484D01*
X22235266Y31349301D01*
X22220500Y31275067D01*
X20174499Y31275067D01*
X20174499Y31725066D01*
X20159734Y31799301D01*
X20134411Y31837200D01*
X20110377Y31873168D01*
X20103484Y31883484D01*
X20019301Y31939734D01*
X19945067Y31954500D01*
X18820182Y31954500D01*
X17694934Y31954499D01*
X17659182Y31947388D01*
X17632874Y31942156D01*
X17632872Y31942155D01*
X17620699Y31939734D01*
X17610379Y31932839D01*
X17610378Y31932838D01*
X17579679Y31912325D01*
X17536516Y31883484D01*
X17480266Y31799301D01*
X17465500Y31725067D01*
X11960990Y31725067D01*
X11952138Y31732058D01*
X11830328Y31799301D01*
X11761675Y31837200D01*
X11761672Y31837201D01*
X11757144Y31839701D01*
X11614038Y31890377D01*
X11552059Y31912325D01*
X11552056Y31912326D01*
X11547187Y31914050D01*
X11542098Y31914957D01*
X11542096Y31914957D01*
X11332996Y31952204D01*
X11332990Y31952205D01*
X11327907Y31953110D01*
X11254094Y31954012D01*
X11110361Y31955768D01*
X11110359Y31955768D01*
X11105191Y31955831D01*
X10885022Y31922141D01*
X10673311Y31852943D01*
X10668723Y31850555D01*
X10668719Y31850553D01*
X10570265Y31799301D01*
X10475745Y31750097D01*
X10471612Y31746994D01*
X10471609Y31746992D01*
X10335278Y31644631D01*
X10297630Y31616364D01*
X10239427Y31555458D01*
X10170030Y31482838D01*
X10143748Y31455336D01*
X10018233Y31271337D01*
X10016060Y31266655D01*
X10016058Y31266652D01*
X9940435Y31103734D01*
X9924455Y31069309D01*
X9864932Y30854678D01*
X9841264Y30633207D01*
X7979499Y30633207D01*
X7979499Y31275066D01*
X7964734Y31349301D01*
X7908484Y31433484D01*
X7824301Y31489734D01*
X7750067Y31504500D01*
X6875142Y31504500D01*
X5999934Y31504499D01*
X5964182Y31497388D01*
X5937874Y31492156D01*
X5937872Y31492155D01*
X5925699Y31489734D01*
X5915379Y31482839D01*
X5915378Y31482838D01*
X5879812Y31459073D01*
X5841516Y31433484D01*
X5785266Y31349301D01*
X5770500Y31275067D01*
X5770500Y31107148D01*
X5750498Y31039027D01*
X5696842Y30992534D01*
X5626568Y30982430D01*
X5561988Y31011924D01*
X5536235Y31044132D01*
X5535912Y31043923D01*
X5533836Y31047132D01*
X5533453Y31047611D01*
X5533099Y31048271D01*
X5417426Y31227074D01*
X5411136Y31235243D01*
X5267806Y31392760D01*
X5260273Y31399785D01*
X5093139Y31531778D01*
X5084552Y31537483D01*
X4898117Y31640401D01*
X4888705Y31644631D01*
X4687959Y31715720D01*
X4677988Y31718354D01*
X4606837Y31731028D01*
X4593540Y31729568D01*
X4589000Y31715011D01*
X4589000Y29081483D01*
X4081000Y29081483D01*
X4081000Y30127885D01*
X4076525Y30143124D01*
X4075135Y30144329D01*
X4067452Y30146000D01*
X3018225Y30146000D01*
X3004694Y30142027D01*
X3003257Y30132034D01*
X254500Y30132034D01*
X254500Y30665817D01*
X2999389Y30665817D01*
X3000912Y30657393D01*
X3013292Y30654000D01*
X4062885Y30654000D01*
X4078124Y30658475D01*
X4079329Y30659865D01*
X4081000Y30667548D01*
X4081000Y31716898D01*
X4077082Y31730242D01*
X4062806Y31732229D01*
X4024324Y31726340D01*
X4014288Y31723949D01*
X3811868Y31657788D01*
X3802359Y31653791D01*
X3613463Y31555458D01*
X3604738Y31549964D01*
X3434433Y31422095D01*
X3426726Y31415252D01*
X3279590Y31261283D01*
X3273104Y31253273D01*
X3153098Y31077351D01*
X3148000Y31068377D01*
X3058338Y30875217D01*
X3054775Y30865530D01*
X2999389Y30665817D01*
X254500Y30665817D01*
X254500Y34019500D01*
X274502Y34087621D01*
X328158Y34134114D01*
X380500Y34145500D01*
X28019500Y34145500D01*
X28087621Y34125498D01*
G37*
%TD.AperFunction*%
%TD*%
M02*
