%TF.GenerationSoftware,KiCad,Pcbnew,(6.0.10)*%
%TF.CreationDate,2023-01-04T10:17:45-08:00*%
%TF.ProjectId,attenuator,61747465-6e75-4617-946f-722e6b696361,rev?*%
%TF.SameCoordinates,PX3f52f00PY6dac2c0*%
%TF.FileFunction,Legend,Top*%
%TF.FilePolarity,Positive*%
%FSLAX46Y46*%
G04 Gerber Fmt 4.6, Leading zero omitted, Abs format (unit mm)*
G04 Created by KiCad (PCBNEW (6.0.10)) date 2023-01-04 10:17:45*
%MOMM*%
%LPD*%
G01*
G04 APERTURE LIST*
%ADD10C,0.150000*%
%ADD11C,0.120000*%
G04 APERTURE END LIST*
D10*
X20985714Y11347620D02*
X20652380Y11823810D01*
X20414285Y11347620D02*
X20414285Y12347620D01*
X20795238Y12347620D01*
X20890476Y12300000D01*
X20938095Y12252381D01*
X20985714Y12157143D01*
X20985714Y12014286D01*
X20938095Y11919048D01*
X20890476Y11871429D01*
X20795238Y11823810D01*
X20414285Y11823810D01*
X21747619Y11871429D02*
X21414285Y11871429D01*
X21414285Y11347620D02*
X21414285Y12347620D01*
X21890476Y12347620D01*
X23223809Y12347620D02*
X23414285Y12347620D01*
X23509523Y12300000D01*
X23604761Y12204762D01*
X23652380Y12014286D01*
X23652380Y11680953D01*
X23604761Y11490477D01*
X23509523Y11395239D01*
X23414285Y11347620D01*
X23223809Y11347620D01*
X23128571Y11395239D01*
X23033333Y11490477D01*
X22985714Y11680953D01*
X22985714Y12014286D01*
X23033333Y12204762D01*
X23128571Y12300000D01*
X23223809Y12347620D01*
X24080952Y12347620D02*
X24080952Y11538096D01*
X24128571Y11442858D01*
X24176190Y11395239D01*
X24271428Y11347620D01*
X24461904Y11347620D01*
X24557142Y11395239D01*
X24604761Y11442858D01*
X24652380Y11538096D01*
X24652380Y12347620D01*
X24985714Y12347620D02*
X25557142Y12347620D01*
X25271428Y11347620D02*
X25271428Y12347620D01*
X26604761Y12395239D02*
X25747619Y11109524D01*
X26938095Y11347620D02*
X26938095Y12347620D01*
X27414285Y11347620D02*
X27414285Y12347620D01*
X27985714Y11347620D01*
X27985714Y12347620D01*
X1385714Y9747620D02*
X1052380Y10223810D01*
X814285Y9747620D02*
X814285Y10747620D01*
X1195238Y10747620D01*
X1290476Y10700000D01*
X1338095Y10652381D01*
X1385714Y10557143D01*
X1385714Y10414286D01*
X1338095Y10319048D01*
X1290476Y10271429D01*
X1195238Y10223810D01*
X814285Y10223810D01*
X2147619Y10271429D02*
X1814285Y10271429D01*
X1814285Y9747620D02*
X1814285Y10747620D01*
X2290476Y10747620D01*
X3433333Y9747620D02*
X3433333Y10747620D01*
X3909523Y9747620D02*
X3909523Y10747620D01*
X4480952Y9747620D01*
X4480952Y10747620D01*
X5671428Y10795239D02*
X4814285Y9509524D01*
X6195238Y10747620D02*
X6385714Y10747620D01*
X6480952Y10700000D01*
X6576190Y10604762D01*
X6623809Y10414286D01*
X6623809Y10080953D01*
X6576190Y9890477D01*
X6480952Y9795239D01*
X6385714Y9747620D01*
X6195238Y9747620D01*
X6100000Y9795239D01*
X6004761Y9890477D01*
X5957142Y10080953D01*
X5957142Y10414286D01*
X6004761Y10604762D01*
X6100000Y10700000D01*
X6195238Y10747620D01*
X7052380Y10747620D02*
X7052380Y9938096D01*
X7100000Y9842858D01*
X7147619Y9795239D01*
X7242857Y9747620D01*
X7433333Y9747620D01*
X7528571Y9795239D01*
X7576190Y9842858D01*
X7623809Y9938096D01*
X7623809Y10747620D01*
X7957142Y10747620D02*
X8528571Y10747620D01*
X8242857Y9747620D02*
X8242857Y10747620D01*
X25238095Y33500000D02*
X25142857Y33547620D01*
X25000000Y33547620D01*
X24857142Y33500000D01*
X24761904Y33404762D01*
X24714285Y33309524D01*
X24666666Y33119048D01*
X24666666Y32976191D01*
X24714285Y32785715D01*
X24761904Y32690477D01*
X24857142Y32595239D01*
X25000000Y32547620D01*
X25095238Y32547620D01*
X25238095Y32595239D01*
X25285714Y32642858D01*
X25285714Y32976191D01*
X25095238Y32976191D01*
X25714285Y32547620D02*
X25714285Y33547620D01*
X26285714Y32547620D01*
X26285714Y33547620D01*
X26761904Y32547620D02*
X26761904Y33547620D01*
X27000000Y33547620D01*
X27142857Y33500000D01*
X27238095Y33404762D01*
X27285714Y33309524D01*
X27333333Y33119048D01*
X27333333Y32976191D01*
X27285714Y32785715D01*
X27238095Y32690477D01*
X27142857Y32595239D01*
X27000000Y32547620D01*
X26761904Y32547620D01*
X20638095Y32928572D02*
X21400000Y32928572D01*
X21019047Y32547620D02*
X21019047Y33309524D01*
X22400000Y32547620D02*
X21828571Y32547620D01*
X22114285Y32547620D02*
X22114285Y33547620D01*
X22019047Y33404762D01*
X21923809Y33309524D01*
X21828571Y33261905D01*
X22780952Y33452381D02*
X22828571Y33500000D01*
X22923809Y33547620D01*
X23161904Y33547620D01*
X23257142Y33500000D01*
X23304761Y33452381D01*
X23352380Y33357143D01*
X23352380Y33261905D01*
X23304761Y33119048D01*
X22733333Y32547620D01*
X23352380Y32547620D01*
X23638095Y33547620D02*
X23971428Y32547620D01*
X24304761Y33547620D01*
X3238095Y33500000D02*
X3142857Y33547620D01*
X3000000Y33547620D01*
X2857142Y33500000D01*
X2761904Y33404762D01*
X2714285Y33309524D01*
X2666666Y33119048D01*
X2666666Y32976191D01*
X2714285Y32785715D01*
X2761904Y32690477D01*
X2857142Y32595239D01*
X3000000Y32547620D01*
X3095238Y32547620D01*
X3238095Y32595239D01*
X3285714Y32642858D01*
X3285714Y32976191D01*
X3095238Y32976191D01*
X3714285Y32547620D02*
X3714285Y33547620D01*
X4285714Y32547620D01*
X4285714Y33547620D01*
X4761904Y32547620D02*
X4761904Y33547620D01*
X5000000Y33547620D01*
X5142857Y33500000D01*
X5238095Y33404762D01*
X5285714Y33309524D01*
X5333333Y33119048D01*
X5333333Y32976191D01*
X5285714Y32785715D01*
X5238095Y32690477D01*
X5142857Y32595239D01*
X5000000Y32547620D01*
X4761904Y32547620D01*
X6000000Y32833334D02*
X6476190Y32833334D01*
X5904761Y32547620D02*
X6238095Y33547620D01*
X6571428Y32547620D01*
X6761904Y33547620D02*
X7333333Y33547620D01*
X7047619Y32547620D02*
X7047619Y33547620D01*
X7523809Y33547620D02*
X8095238Y33547620D01*
X7809523Y32547620D02*
X7809523Y33547620D01*
X5661904Y4757620D02*
X5328571Y5233810D01*
X5090476Y4757620D02*
X5090476Y5757620D01*
X5471428Y5757620D01*
X5566666Y5710000D01*
X5614285Y5662381D01*
X5661904Y5567143D01*
X5661904Y5424286D01*
X5614285Y5329048D01*
X5566666Y5281429D01*
X5471428Y5233810D01*
X5090476Y5233810D01*
X6423809Y5281429D02*
X6090476Y5281429D01*
X6090476Y4757620D02*
X6090476Y5757620D01*
X6566666Y5757620D01*
X7661904Y5043334D02*
X8138095Y5043334D01*
X7566666Y4757620D02*
X7900000Y5757620D01*
X8233333Y4757620D01*
X8423809Y5424286D02*
X8804761Y5424286D01*
X8566666Y5757620D02*
X8566666Y4900477D01*
X8614285Y4805239D01*
X8709523Y4757620D01*
X8804761Y4757620D01*
X8995238Y5424286D02*
X9376190Y5424286D01*
X9138095Y5757620D02*
X9138095Y4900477D01*
X9185714Y4805239D01*
X9280952Y4757620D01*
X9376190Y4757620D01*
X9709523Y4852858D02*
X9757142Y4805239D01*
X9709523Y4757620D01*
X9661904Y4805239D01*
X9709523Y4852858D01*
X9709523Y4757620D01*
X4971428Y3147620D02*
X4971428Y4147620D01*
X5542857Y3147620D01*
X5542857Y4147620D01*
X5923809Y4147620D02*
X6590476Y4147620D01*
X6161904Y3147620D01*
X6876190Y4147620D02*
X7114285Y3147620D01*
X7304761Y3861905D01*
X7495238Y3147620D01*
X7733333Y4147620D01*
X8114285Y3147620D02*
X8114285Y4147620D01*
X8447619Y3433334D01*
X8780952Y4147620D01*
X8780952Y3147620D01*
X9257142Y3147620D02*
X9257142Y4147620D01*
X9828571Y3147620D01*
X9828571Y4147620D01*
X5852380Y1537620D02*
X5519047Y2013810D01*
X5280952Y1537620D02*
X5280952Y2537620D01*
X5661904Y2537620D01*
X5757142Y2490000D01*
X5804761Y2442381D01*
X5852380Y2347143D01*
X5852380Y2204286D01*
X5804761Y2109048D01*
X5757142Y2061429D01*
X5661904Y2013810D01*
X5280952Y2013810D01*
X6661904Y1585239D02*
X6566666Y1537620D01*
X6376190Y1537620D01*
X6280952Y1585239D01*
X6233333Y1680477D01*
X6233333Y2061429D01*
X6280952Y2156667D01*
X6376190Y2204286D01*
X6566666Y2204286D01*
X6661904Y2156667D01*
X6709523Y2061429D01*
X6709523Y1966191D01*
X6233333Y1870953D01*
X7042857Y2204286D02*
X7280952Y1537620D01*
X7519047Y2204286D01*
X7900000Y1632858D02*
X7947619Y1585239D01*
X7900000Y1537620D01*
X7852380Y1585239D01*
X7900000Y1632858D01*
X7900000Y1537620D01*
X9090476Y1823334D02*
X9566666Y1823334D01*
X8995238Y1537620D02*
X9328571Y2537620D01*
X9661904Y1537620D01*
%TO.C,J7*%
X22666666Y27747620D02*
X22666666Y27033334D01*
X22619047Y26890477D01*
X22523809Y26795239D01*
X22380952Y26747620D01*
X22285714Y26747620D01*
X23047619Y27747620D02*
X23714285Y27747620D01*
X23285714Y26747620D01*
%TO.C,J6*%
X2266666Y8352620D02*
X2266666Y7638334D01*
X2219047Y7495477D01*
X2123809Y7400239D01*
X1980952Y7352620D01*
X1885714Y7352620D01*
X3171428Y8352620D02*
X2980952Y8352620D01*
X2885714Y8305000D01*
X2838095Y8257381D01*
X2742857Y8114524D01*
X2695238Y7924048D01*
X2695238Y7543096D01*
X2742857Y7447858D01*
X2790476Y7400239D01*
X2885714Y7352620D01*
X3076190Y7352620D01*
X3171428Y7400239D01*
X3219047Y7447858D01*
X3266666Y7543096D01*
X3266666Y7781191D01*
X3219047Y7876429D01*
X3171428Y7924048D01*
X3076190Y7971667D01*
X2885714Y7971667D01*
X2790476Y7924048D01*
X2742857Y7876429D01*
X2695238Y7781191D01*
%TO.C,J5*%
X25466666Y8552620D02*
X25466666Y7838334D01*
X25419047Y7695477D01*
X25323809Y7600239D01*
X25180952Y7552620D01*
X25085714Y7552620D01*
X26419047Y8552620D02*
X25942857Y8552620D01*
X25895238Y8076429D01*
X25942857Y8124048D01*
X26038095Y8171667D01*
X26276190Y8171667D01*
X26371428Y8124048D01*
X26419047Y8076429D01*
X26466666Y7981191D01*
X26466666Y7743096D01*
X26419047Y7647858D01*
X26371428Y7600239D01*
X26276190Y7552620D01*
X26038095Y7552620D01*
X25942857Y7600239D01*
X25895238Y7647858D01*
%TO.C,J2*%
X1066666Y30947620D02*
X1066666Y30233334D01*
X1019047Y30090477D01*
X923809Y29995239D01*
X780952Y29947620D01*
X685714Y29947620D01*
X1495238Y30852381D02*
X1542857Y30900000D01*
X1638095Y30947620D01*
X1876190Y30947620D01*
X1971428Y30900000D01*
X2019047Y30852381D01*
X2066666Y30757143D01*
X2066666Y30661905D01*
X2019047Y30519048D01*
X1447619Y29947620D01*
X2066666Y29947620D01*
%TO.C,J1*%
X20866666Y28347620D02*
X20866666Y27633334D01*
X20819047Y27490477D01*
X20723809Y27395239D01*
X20580952Y27347620D01*
X20485714Y27347620D01*
X21866666Y27347620D02*
X21295238Y27347620D01*
X21580952Y27347620D02*
X21580952Y28347620D01*
X21485714Y28204762D01*
X21390476Y28109524D01*
X21295238Y28061905D01*
%TO.C,R5*%
X12033333Y4747620D02*
X11700000Y5223810D01*
X11461904Y4747620D02*
X11461904Y5747620D01*
X11842857Y5747620D01*
X11938095Y5700000D01*
X11985714Y5652381D01*
X12033333Y5557143D01*
X12033333Y5414286D01*
X11985714Y5319048D01*
X11938095Y5271429D01*
X11842857Y5223810D01*
X11461904Y5223810D01*
X12938095Y5747620D02*
X12461904Y5747620D01*
X12414285Y5271429D01*
X12461904Y5319048D01*
X12557142Y5366667D01*
X12795238Y5366667D01*
X12890476Y5319048D01*
X12938095Y5271429D01*
X12985714Y5176191D01*
X12985714Y4938096D01*
X12938095Y4842858D01*
X12890476Y4795239D01*
X12795238Y4747620D01*
X12557142Y4747620D01*
X12461904Y4795239D01*
X12414285Y4842858D01*
%TO.C,R4*%
X14833333Y3947620D02*
X14500000Y4423810D01*
X14261904Y3947620D02*
X14261904Y4947620D01*
X14642857Y4947620D01*
X14738095Y4900000D01*
X14785714Y4852381D01*
X14833333Y4757143D01*
X14833333Y4614286D01*
X14785714Y4519048D01*
X14738095Y4471429D01*
X14642857Y4423810D01*
X14261904Y4423810D01*
X15690476Y4614286D02*
X15690476Y3947620D01*
X15452380Y4995239D02*
X15214285Y4280953D01*
X15833333Y4280953D01*
%TO.C,R3*%
X20633333Y4547620D02*
X20300000Y5023810D01*
X20061904Y4547620D02*
X20061904Y5547620D01*
X20442857Y5547620D01*
X20538095Y5500000D01*
X20585714Y5452381D01*
X20633333Y5357143D01*
X20633333Y5214286D01*
X20585714Y5119048D01*
X20538095Y5071429D01*
X20442857Y5023810D01*
X20061904Y5023810D01*
X20966666Y5547620D02*
X21585714Y5547620D01*
X21252380Y5166667D01*
X21395238Y5166667D01*
X21490476Y5119048D01*
X21538095Y5071429D01*
X21585714Y4976191D01*
X21585714Y4738096D01*
X21538095Y4642858D01*
X21490476Y4595239D01*
X21395238Y4547620D01*
X21109523Y4547620D01*
X21014285Y4595239D01*
X20966666Y4642858D01*
%TO.C,R2*%
X1433333Y24747620D02*
X1100000Y25223810D01*
X861904Y24747620D02*
X861904Y25747620D01*
X1242857Y25747620D01*
X1338095Y25700000D01*
X1385714Y25652381D01*
X1433333Y25557143D01*
X1433333Y25414286D01*
X1385714Y25319048D01*
X1338095Y25271429D01*
X1242857Y25223810D01*
X861904Y25223810D01*
X1814285Y25652381D02*
X1861904Y25700000D01*
X1957142Y25747620D01*
X2195238Y25747620D01*
X2290476Y25700000D01*
X2338095Y25652381D01*
X2385714Y25557143D01*
X2385714Y25461905D01*
X2338095Y25319048D01*
X1766666Y24747620D01*
X2385714Y24747620D01*
%TO.C,R1*%
X1833333Y26947620D02*
X1500000Y27423810D01*
X1261904Y26947620D02*
X1261904Y27947620D01*
X1642857Y27947620D01*
X1738095Y27900000D01*
X1785714Y27852381D01*
X1833333Y27757143D01*
X1833333Y27614286D01*
X1785714Y27519048D01*
X1738095Y27471429D01*
X1642857Y27423810D01*
X1261904Y27423810D01*
X2785714Y26947620D02*
X2214285Y26947620D01*
X2500000Y26947620D02*
X2500000Y27947620D01*
X2404761Y27804762D01*
X2309523Y27709524D01*
X2214285Y27661905D01*
%TO.C,Q1*%
X8304761Y21852381D02*
X8209523Y21900000D01*
X8114285Y21995239D01*
X7971428Y22138096D01*
X7876190Y22185715D01*
X7780952Y22185715D01*
X7828571Y21947620D02*
X7733333Y21995239D01*
X7638095Y22090477D01*
X7590476Y22280953D01*
X7590476Y22614286D01*
X7638095Y22804762D01*
X7733333Y22900000D01*
X7828571Y22947620D01*
X8019047Y22947620D01*
X8114285Y22900000D01*
X8209523Y22804762D01*
X8257142Y22614286D01*
X8257142Y22280953D01*
X8209523Y22090477D01*
X8114285Y21995239D01*
X8019047Y21947620D01*
X7828571Y21947620D01*
X9209523Y21947620D02*
X8638095Y21947620D01*
X8923809Y21947620D02*
X8923809Y22947620D01*
X8828571Y22804762D01*
X8733333Y22709524D01*
X8638095Y22661905D01*
%TO.C,K1*%
X7661904Y26947620D02*
X7661904Y27947620D01*
X8233333Y26947620D02*
X7804761Y27519048D01*
X8233333Y27947620D02*
X7661904Y27376191D01*
X9185714Y26947620D02*
X8614285Y26947620D01*
X8900000Y26947620D02*
X8900000Y27947620D01*
X8804761Y27804762D01*
X8709523Y27709524D01*
X8614285Y27661905D01*
%TO.C,J4*%
X2666666Y20347620D02*
X2666666Y19633334D01*
X2619047Y19490477D01*
X2523809Y19395239D01*
X2380952Y19347620D01*
X2285714Y19347620D01*
X3571428Y20014286D02*
X3571428Y19347620D01*
X3333333Y20395239D02*
X3095238Y19680953D01*
X3714285Y19680953D01*
%TO.C,J3*%
X23866666Y22147620D02*
X23866666Y21433334D01*
X23819047Y21290477D01*
X23723809Y21195239D01*
X23580952Y21147620D01*
X23485714Y21147620D01*
X24247619Y22147620D02*
X24866666Y22147620D01*
X24533333Y21766667D01*
X24676190Y21766667D01*
X24771428Y21719048D01*
X24819047Y21671429D01*
X24866666Y21576191D01*
X24866666Y21338096D01*
X24819047Y21242858D01*
X24771428Y21195239D01*
X24676190Y21147620D01*
X24390476Y21147620D01*
X24295238Y21195239D01*
X24247619Y21242858D01*
%TO.C,D1*%
X14061904Y27747620D02*
X14061904Y28747620D01*
X14300000Y28747620D01*
X14442857Y28700000D01*
X14538095Y28604762D01*
X14585714Y28509524D01*
X14633333Y28319048D01*
X14633333Y28176191D01*
X14585714Y27985715D01*
X14538095Y27890477D01*
X14442857Y27795239D01*
X14300000Y27747620D01*
X14061904Y27747620D01*
X15585714Y27747620D02*
X15014285Y27747620D01*
X15300000Y27747620D02*
X15300000Y28747620D01*
X15204761Y28604762D01*
X15109523Y28509524D01*
X15014285Y28461905D01*
X18558095Y28047620D02*
X18558095Y29047620D01*
X19129523Y28047620D02*
X18700952Y28619048D01*
X19129523Y29047620D02*
X18558095Y28476191D01*
%TO.C,C1*%
X22033333Y21642858D02*
X21985714Y21595239D01*
X21842857Y21547620D01*
X21747619Y21547620D01*
X21604761Y21595239D01*
X21509523Y21690477D01*
X21461904Y21785715D01*
X21414285Y21976191D01*
X21414285Y22119048D01*
X21461904Y22309524D01*
X21509523Y22404762D01*
X21604761Y22500000D01*
X21747619Y22547620D01*
X21842857Y22547620D01*
X21985714Y22500000D01*
X22033333Y22452381D01*
X22985714Y21547620D02*
X22414285Y21547620D01*
X22700000Y21547620D02*
X22700000Y22547620D01*
X22604761Y22404762D01*
X22509523Y22309524D01*
X22414285Y22261905D01*
D11*
%TO.C,J7*%
X24470000Y26275000D02*
X24470000Y27605000D01*
X24470000Y22405000D02*
X27130000Y22405000D01*
X24470000Y25005000D02*
X24470000Y22405000D01*
X24470000Y25005000D02*
X27130000Y25005000D01*
X24470000Y27605000D02*
X25800000Y27605000D01*
X27130000Y25005000D02*
X27130000Y22405000D01*
%TO.C,J6*%
X1270000Y5475000D02*
X1270000Y6805000D01*
X1270000Y1605000D02*
X3930000Y1605000D01*
X1270000Y4205000D02*
X1270000Y1605000D01*
X1270000Y4205000D02*
X3930000Y4205000D01*
X1270000Y6805000D02*
X2600000Y6805000D01*
X3930000Y4205000D02*
X3930000Y1605000D01*
%TO.C,J5*%
X24470000Y5675000D02*
X24470000Y7005000D01*
X24470000Y1805000D02*
X27130000Y1805000D01*
X24470000Y4405000D02*
X24470000Y1805000D01*
X24470000Y4405000D02*
X27130000Y4405000D01*
X24470000Y7005000D02*
X25800000Y7005000D01*
X27130000Y4405000D02*
X27130000Y1805000D01*
%TO.C,J2*%
X6875000Y31730000D02*
X8205000Y31730000D01*
X3005000Y31730000D02*
X3005000Y29070000D01*
X5605000Y31730000D02*
X3005000Y31730000D01*
X5605000Y31730000D02*
X5605000Y29070000D01*
X8205000Y31730000D02*
X8205000Y30400000D01*
X5605000Y29070000D02*
X3005000Y29070000D01*
%TO.C,J1*%
X24595000Y31730000D02*
X27195000Y31730000D01*
X21995000Y29070000D02*
X21995000Y30400000D01*
X24595000Y29070000D02*
X24595000Y31730000D01*
X24595000Y29070000D02*
X27195000Y29070000D01*
X27195000Y29070000D02*
X27195000Y31730000D01*
X23325000Y29070000D02*
X21995000Y29070000D01*
%TO.C,R5*%
X11722500Y2854724D02*
X11722500Y2345276D01*
X10677500Y2854724D02*
X10677500Y2345276D01*
%TO.C,R4*%
X15254724Y3322500D02*
X14745276Y3322500D01*
X15254724Y2277500D02*
X14745276Y2277500D01*
%TO.C,R3*%
X19522500Y3054724D02*
X19522500Y2545276D01*
X18477500Y3054724D02*
X18477500Y2545276D01*
%TO.C,R2*%
X2122500Y23254724D02*
X2122500Y22745276D01*
X1077500Y23254724D02*
X1077500Y22745276D01*
%TO.C,R1*%
X5054724Y26077500D02*
X4545276Y26077500D01*
X5054724Y27122500D02*
X4545276Y27122500D01*
%TO.C,Q1*%
X5400000Y24560000D02*
X6050000Y24560000D01*
X5400000Y21440000D02*
X6050000Y21440000D01*
X5400000Y24560000D02*
X3725000Y24560000D01*
X5400000Y21440000D02*
X4750000Y21440000D01*
%TO.C,K1*%
X15207500Y24447500D02*
X15207500Y25647500D01*
X14507500Y24847500D02*
X15207500Y25247500D01*
X9497500Y25707500D02*
X9497500Y27007500D01*
X9657500Y6267500D02*
X20037500Y6267500D01*
X14507500Y24447500D02*
X15207500Y24447500D01*
X20037500Y26857500D02*
X9657500Y26857500D01*
X9657500Y26857500D02*
X9657500Y6267500D01*
X14507500Y25017500D02*
X13407500Y25017500D01*
X15207500Y25647500D02*
X14507500Y25647500D01*
X15207500Y25017500D02*
X16307500Y25017500D01*
X13337500Y25797500D02*
X16337500Y25797500D01*
X16337500Y25797500D02*
X16337500Y26857500D01*
X14507500Y25647500D02*
X14507500Y24447500D01*
X20037500Y6267500D02*
X20037500Y26857500D01*
X9497500Y27007500D02*
X10707500Y27007500D01*
X13337500Y26857500D02*
X13337500Y25817500D01*
%TO.C,J4*%
X4310000Y17350000D02*
X4310000Y16240000D01*
X5360000Y15150000D02*
X5360000Y15650000D01*
X600000Y14560000D02*
X600000Y13450000D01*
X4860000Y15400000D02*
X5360000Y15150000D01*
X5360000Y15650000D02*
X4860000Y15400000D01*
X600000Y17350000D02*
X600000Y16240000D01*
X4310000Y14560000D02*
X4310000Y13450000D01*
%TO.C,J3*%
X24090000Y15050000D02*
X24090000Y16160000D01*
X23040000Y17250000D02*
X23040000Y16750000D01*
X27800000Y17840000D02*
X27800000Y18950000D01*
X23540000Y17000000D02*
X23040000Y17250000D01*
X23040000Y16750000D02*
X23540000Y17000000D01*
X27800000Y15050000D02*
X27800000Y16160000D01*
X24090000Y17840000D02*
X24090000Y18950000D01*
%TO.C,D1*%
X16950000Y29130000D02*
X16950000Y32070000D01*
X17730000Y29130000D02*
X12290000Y29130000D01*
X16710000Y29130000D02*
X16710000Y32070000D01*
X12290000Y29130000D02*
X12290000Y29260000D01*
X16830000Y29130000D02*
X16830000Y32070000D01*
X17730000Y32070000D02*
X12290000Y32070000D01*
X12290000Y32070000D02*
X12290000Y31940000D01*
X17730000Y31940000D02*
X17730000Y32070000D01*
X17730000Y29260000D02*
X17730000Y29130000D01*
%TO.C,C1*%
X22510000Y24746267D02*
X22510000Y24453733D01*
X21490000Y24746267D02*
X21490000Y24453733D01*
%TD*%
M02*
