%TF.GenerationSoftware,KiCad,Pcbnew,(6.0.10)*%
%TF.CreationDate,2023-01-04T10:17:45-08:00*%
%TF.ProjectId,attenuator,61747465-6e75-4617-946f-722e6b696361,rev?*%
%TF.SameCoordinates,PX3f52f00PY6dac2c0*%
%TF.FileFunction,Soldermask,Top*%
%TF.FilePolarity,Negative*%
%FSLAX46Y46*%
G04 Gerber Fmt 4.6, Leading zero omitted, Abs format (unit mm)*
G04 Created by KiCad (PCBNEW (6.0.10)) date 2023-01-04 10:17:45*
%MOMM*%
%LPD*%
G01*
G04 APERTURE LIST*
G04 Aperture macros list*
%AMRoundRect*
0 Rectangle with rounded corners*
0 $1 Rounding radius*
0 $2 $3 $4 $5 $6 $7 $8 $9 X,Y pos of 4 corners*
0 Add a 4 corners polygon primitive as box body*
4,1,4,$2,$3,$4,$5,$6,$7,$8,$9,$2,$3,0*
0 Add four circle primitives for the rounded corners*
1,1,$1+$1,$2,$3*
1,1,$1+$1,$4,$5*
1,1,$1+$1,$6,$7*
1,1,$1+$1,$8,$9*
0 Add four rect primitives between the rounded corners*
20,1,$1+$1,$2,$3,$4,$5,0*
20,1,$1+$1,$4,$5,$6,$7,0*
20,1,$1+$1,$6,$7,$8,$9,0*
20,1,$1+$1,$8,$9,$2,$3,0*%
G04 Aperture macros list end*
%ADD10R,1.700000X1.700000*%
%ADD11O,1.700000X1.700000*%
%ADD12RoundRect,0.237500X-0.237500X0.250000X-0.237500X-0.250000X0.237500X-0.250000X0.237500X0.250000X0*%
%ADD13RoundRect,0.237500X0.250000X0.237500X-0.250000X0.237500X-0.250000X-0.237500X0.250000X-0.237500X0*%
%ADD14RoundRect,0.150000X-0.587500X-0.150000X0.587500X-0.150000X0.587500X0.150000X-0.587500X0.150000X0*%
%ADD15R,1.400000X1.400000*%
%ADD16C,1.400000*%
%ADD17R,3.600000X1.270000*%
%ADD18R,4.200000X1.350000*%
%ADD19R,2.200000X2.200000*%
%ADD20O,2.200000X2.200000*%
%ADD21RoundRect,0.237500X-0.237500X0.300000X-0.237500X-0.300000X0.237500X-0.300000X0.237500X0.300000X0*%
G04 APERTURE END LIST*
D10*
%TO.C,J7*%
X25800000Y26275000D03*
D11*
X25800000Y23735000D03*
%TD*%
D10*
%TO.C,J6*%
X2600000Y5475000D03*
D11*
X2600000Y2935000D03*
%TD*%
D10*
%TO.C,J5*%
X25800000Y5675000D03*
D11*
X25800000Y3135000D03*
%TD*%
D10*
%TO.C,J2*%
X6875000Y30400000D03*
D11*
X4335000Y30400000D03*
%TD*%
%TO.C,J1*%
X25865000Y30400000D03*
D10*
X23325000Y30400000D03*
%TD*%
D12*
%TO.C,R5*%
X11200000Y3512500D03*
X11200000Y1687500D03*
%TD*%
D13*
%TO.C,R4*%
X14087500Y2800000D03*
X15912500Y2800000D03*
%TD*%
D12*
%TO.C,R3*%
X19000000Y3712500D03*
X19000000Y1887500D03*
%TD*%
%TO.C,R2*%
X1600000Y23912500D03*
X1600000Y22087500D03*
%TD*%
D13*
%TO.C,R1*%
X5712500Y26600000D03*
X3887500Y26600000D03*
%TD*%
D14*
%TO.C,Q1*%
X4462500Y23950000D03*
X4462500Y22050000D03*
X6337500Y23000000D03*
%TD*%
D15*
%TO.C,K1*%
X11037500Y25457500D03*
D16*
X11037500Y17837500D03*
X11037500Y12757500D03*
X11037500Y7677500D03*
X18657500Y7677500D03*
X18657500Y12757500D03*
X18657500Y17837500D03*
X18657500Y25457500D03*
%TD*%
D17*
%TO.C,J4*%
X2400000Y15400000D03*
D18*
X2600000Y12575000D03*
X2600000Y18225000D03*
%TD*%
D17*
%TO.C,J3*%
X26000000Y17000000D03*
D18*
X25800000Y19825000D03*
X25800000Y14175000D03*
%TD*%
D19*
%TO.C,D1*%
X18820000Y30600000D03*
D20*
X11200000Y30600000D03*
%TD*%
D21*
%TO.C,C1*%
X22000000Y25462500D03*
X22000000Y23737500D03*
%TD*%
M02*
