G04 #@! TF.GenerationSoftware,KiCad,Pcbnew,7.0.10*
G04 #@! TF.CreationDate,2024-04-22T16:42:47-07:00*
G04 #@! TF.ProjectId,powerAmp,706f7765-7241-46d7-902e-6b696361645f,rev?*
G04 #@! TF.SameCoordinates,Original*
G04 #@! TF.FileFunction,Soldermask,Bot*
G04 #@! TF.FilePolarity,Negative*
%FSLAX46Y46*%
G04 Gerber Fmt 4.6, Leading zero omitted, Abs format (unit mm)*
G04 Created by KiCad (PCBNEW 7.0.10) date 2024-04-22 16:42:47*
%MOMM*%
%LPD*%
G01*
G04 APERTURE LIST*
%ADD10C,3.000000*%
%ADD11R,1.700000X1.700000*%
%ADD12O,1.700000X1.700000*%
%ADD13C,1.600000*%
%ADD14R,5.080000X1.500000*%
%ADD15C,1.440000*%
G04 APERTURE END LIST*
D10*
X100750000Y-120060000D03*
X94400000Y-117680000D03*
X94400000Y-127680000D03*
X100750000Y-125140000D03*
D11*
X68565000Y-90180000D03*
D12*
X68565000Y-87640000D03*
D11*
X114770000Y-131885000D03*
D12*
X117310000Y-131885000D03*
D13*
X110085000Y-90305000D03*
X110085000Y-88305000D03*
D11*
X67780000Y-132925000D03*
D12*
X70320000Y-132925000D03*
D11*
X68009600Y-106750400D03*
D12*
X68009600Y-104210400D03*
D11*
X115775000Y-94800000D03*
D12*
X115775000Y-92260000D03*
D14*
X117092500Y-117730000D03*
X117092500Y-126230000D03*
D11*
X114920000Y-87255000D03*
D12*
X117460000Y-87255000D03*
D14*
X68480000Y-128130000D03*
X68480000Y-119630000D03*
D11*
X74605000Y-87635000D03*
D12*
X74605000Y-90175000D03*
D10*
X98730000Y-130055000D03*
X98730000Y-114055000D03*
X108730000Y-130055000D03*
X108730000Y-114055000D03*
D15*
X87315000Y-89115000D03*
X84775000Y-89115000D03*
X82235000Y-89115000D03*
G36*
X89798039Y-124624685D02*
G01*
X89843794Y-124677489D01*
X89855000Y-124729000D01*
X89855000Y-128681000D01*
X89835315Y-128748039D01*
X89782511Y-128793794D01*
X89731000Y-128805000D01*
X83379000Y-128805000D01*
X83311961Y-128785315D01*
X83266206Y-128732511D01*
X83255000Y-128681000D01*
X83255000Y-126429000D01*
X83274685Y-126361961D01*
X83327489Y-126316206D01*
X83379000Y-126305000D01*
X85555000Y-126305000D01*
X85555000Y-126304999D01*
X86321495Y-124676201D01*
X86367851Y-124623924D01*
X86433692Y-124605000D01*
X89731000Y-124605000D01*
X89798039Y-124624685D01*
G37*
G36*
X89698039Y-117024685D02*
G01*
X89743794Y-117077489D01*
X89755000Y-117129000D01*
X89755000Y-120681000D01*
X89735315Y-120748039D01*
X89682511Y-120793794D01*
X89631000Y-120805000D01*
X86451817Y-120805000D01*
X86384778Y-120785315D01*
X86339023Y-120732511D01*
X86331519Y-120711074D01*
X85955000Y-119205000D01*
X83879000Y-119205000D01*
X83811961Y-119185315D01*
X83766206Y-119132511D01*
X83755000Y-119081000D01*
X83755000Y-117129000D01*
X83774685Y-117061961D01*
X83827489Y-117016206D01*
X83879000Y-117005000D01*
X89631000Y-117005000D01*
X89698039Y-117024685D01*
G37*
G36*
X112967360Y-92014685D02*
G01*
X113013115Y-92067489D01*
X113024319Y-92119678D01*
X112994999Y-97484999D01*
X112995000Y-97485000D01*
X117871000Y-97485000D01*
X117938039Y-97504685D01*
X117983794Y-97557489D01*
X117995000Y-97609000D01*
X117995000Y-106131000D01*
X117975315Y-106198039D01*
X117922511Y-106243794D01*
X117871000Y-106255000D01*
X100269937Y-106255000D01*
X100202898Y-106235315D01*
X100157143Y-106182511D01*
X100154313Y-106175800D01*
X98825000Y-102745000D01*
X93778655Y-102745000D01*
X93711616Y-102725315D01*
X93665861Y-102672511D01*
X93654655Y-102621346D01*
X93625347Y-92119346D01*
X93644845Y-92052252D01*
X93697521Y-92006350D01*
X93749347Y-91995000D01*
X112900321Y-91995000D01*
X112967360Y-92014685D01*
G37*
M02*
