G04 #@! TF.GenerationSoftware,KiCad,Pcbnew,7.0.10*
G04 #@! TF.CreationDate,2024-04-22T16:42:47-07:00*
G04 #@! TF.ProjectId,powerAmp,706f7765-7241-46d7-902e-6b696361645f,rev?*
G04 #@! TF.SameCoordinates,Original*
G04 #@! TF.FileFunction,Copper,L2,Bot*
G04 #@! TF.FilePolarity,Positive*
%FSLAX46Y46*%
G04 Gerber Fmt 4.6, Leading zero omitted, Abs format (unit mm)*
G04 Created by KiCad (PCBNEW 7.0.10) date 2024-04-22 16:42:47*
%MOMM*%
%LPD*%
G01*
G04 APERTURE LIST*
G04 #@! TA.AperFunction,ComponentPad*
%ADD10C,3.000000*%
G04 #@! TD*
G04 #@! TA.AperFunction,ComponentPad*
%ADD11R,1.700000X1.700000*%
G04 #@! TD*
G04 #@! TA.AperFunction,ComponentPad*
%ADD12O,1.700000X1.700000*%
G04 #@! TD*
G04 #@! TA.AperFunction,ComponentPad*
%ADD13C,1.600000*%
G04 #@! TD*
G04 #@! TA.AperFunction,SMDPad,CuDef*
%ADD14R,5.080000X1.500000*%
G04 #@! TD*
G04 #@! TA.AperFunction,ComponentPad*
%ADD15C,1.440000*%
G04 #@! TD*
G04 #@! TA.AperFunction,ViaPad*
%ADD16C,0.800000*%
G04 #@! TD*
G04 #@! TA.AperFunction,Conductor*
%ADD17C,0.304800*%
G04 #@! TD*
G04 #@! TA.AperFunction,Conductor*
%ADD18C,0.500000*%
G04 #@! TD*
G04 APERTURE END LIST*
D10*
X100750000Y-120060000D03*
X94400000Y-117680000D03*
X94400000Y-127680000D03*
X100750000Y-125140000D03*
D11*
X68565000Y-90180000D03*
D12*
X68565000Y-87640000D03*
D11*
X114770000Y-131885000D03*
D12*
X117310000Y-131885000D03*
D13*
X110085000Y-90305000D03*
X110085000Y-88305000D03*
D11*
X67780000Y-132925000D03*
D12*
X70320000Y-132925000D03*
D11*
X68009600Y-106750400D03*
D12*
X68009600Y-104210400D03*
D11*
X115775000Y-94800000D03*
D12*
X115775000Y-92260000D03*
D14*
X117092500Y-117730000D03*
X117092500Y-126230000D03*
D11*
X114920000Y-87255000D03*
D12*
X117460000Y-87255000D03*
D14*
X68480000Y-128130000D03*
X68480000Y-119630000D03*
D11*
X74605000Y-87635000D03*
D12*
X74605000Y-90175000D03*
D10*
X98730000Y-130055000D03*
X98730000Y-114055000D03*
X108730000Y-130055000D03*
X108730000Y-114055000D03*
D15*
X87315000Y-89115000D03*
X84775000Y-89115000D03*
X82235000Y-89115000D03*
D16*
X78395000Y-121255000D03*
X78415000Y-126945000D03*
X76355000Y-128295000D03*
X75995000Y-110605000D03*
X80775000Y-113115000D03*
X99055000Y-101315000D03*
X96198909Y-101315000D03*
X98015000Y-99895000D03*
X95158909Y-99895000D03*
X114325000Y-105415000D03*
X117031691Y-105419107D03*
X111468909Y-105415000D03*
X108741691Y-105389107D03*
X114325000Y-103855000D03*
X117031691Y-103859107D03*
X111468909Y-103855000D03*
X108741691Y-103829107D03*
X114385000Y-101935000D03*
X117091691Y-101939107D03*
X111528909Y-101935000D03*
X108801691Y-101909107D03*
X114418309Y-99970893D03*
X117125000Y-99975000D03*
X111562218Y-99970893D03*
X108835000Y-99945000D03*
X108825000Y-98095000D03*
X100758309Y-98160893D03*
X103465000Y-98165000D03*
X106125000Y-98115000D03*
X97902218Y-98160893D03*
X95175000Y-98135000D03*
X111465000Y-98115000D03*
X108795000Y-96605000D03*
X100728309Y-96670893D03*
X103435000Y-96675000D03*
X106095000Y-96625000D03*
X97872218Y-96670893D03*
X95145000Y-96645000D03*
X111435000Y-96625000D03*
X108795000Y-94725000D03*
X100728309Y-94790893D03*
X103435000Y-94795000D03*
X106095000Y-94745000D03*
X97872218Y-94790893D03*
X95145000Y-94765000D03*
X111435000Y-94745000D03*
X111455000Y-92955000D03*
X108815000Y-92935000D03*
X106115000Y-92955000D03*
X103455000Y-93005000D03*
X100748309Y-93000893D03*
X97892218Y-93000893D03*
X95165000Y-92975000D03*
X94915000Y-102265000D03*
X82095000Y-106805000D03*
X83475000Y-108885000D03*
X85935000Y-101275000D03*
X90525000Y-100795000D03*
X92935533Y-110569637D03*
X92963811Y-109438512D03*
X92963811Y-108279108D03*
X92992089Y-107176261D03*
X83045000Y-120655000D03*
X83425000Y-123885000D03*
X73545000Y-122635000D03*
X70515000Y-125785000D03*
X78405000Y-115355000D03*
X78505000Y-129205000D03*
X76334600Y-102525400D03*
X73184600Y-96625400D03*
X92605000Y-87355000D03*
X73625000Y-126930000D03*
X78380000Y-114180000D03*
X72195000Y-93535000D03*
X78505000Y-132255000D03*
X78505000Y-131255000D03*
X78355000Y-123455000D03*
X73600000Y-121230000D03*
X83575000Y-119755000D03*
X78405000Y-118705000D03*
X73834600Y-106525400D03*
X78405000Y-117530000D03*
X78405000Y-116455000D03*
X78405000Y-124630000D03*
X90930000Y-91255000D03*
X83445000Y-122885000D03*
X76334600Y-100525400D03*
X74834600Y-109025400D03*
X90430000Y-95505000D03*
X78505000Y-130255000D03*
X75084600Y-96275400D03*
X75084600Y-98775400D03*
X85355000Y-117605000D03*
X86155000Y-118605000D03*
X89155000Y-118405000D03*
X88255000Y-119005000D03*
X86555000Y-117605000D03*
X89255000Y-119505000D03*
X84555000Y-118305000D03*
X88555000Y-117605000D03*
X87555000Y-117905000D03*
X87055000Y-119005000D03*
X87955000Y-127905000D03*
X87955000Y-126605000D03*
X89255000Y-127905000D03*
X89255000Y-126705000D03*
X86755000Y-127905000D03*
X86755000Y-126605000D03*
X85455000Y-126905000D03*
X84055000Y-127905000D03*
X85455000Y-127905000D03*
X84055000Y-126805000D03*
D17*
X76355000Y-127625000D02*
X76355000Y-128295000D01*
X75625000Y-126895000D02*
X76355000Y-127625000D01*
D18*
X87505000Y-102265000D02*
X94915000Y-102265000D01*
X86515000Y-101275000D02*
X87505000Y-102265000D01*
X85935000Y-101275000D02*
X86515000Y-101275000D01*
D17*
X82095000Y-106805000D02*
X82235000Y-106665000D01*
X82235000Y-106665000D02*
X82235000Y-89115000D01*
D18*
X83475000Y-102255000D02*
X83475000Y-108885000D01*
X85935000Y-101275000D02*
X84455000Y-101275000D01*
X84455000Y-101275000D02*
X83475000Y-102255000D01*
D17*
X73545000Y-122635000D02*
X73545000Y-122755000D01*
X73545000Y-122755000D02*
X70515000Y-125785000D01*
X70515000Y-125785000D02*
X74515000Y-125785000D01*
X74515000Y-125785000D02*
X75625000Y-126895000D01*
X75084600Y-98775400D02*
X75084600Y-96275400D01*
G04 #@! TA.AperFunction,Conductor*
G36*
X119984201Y-83654407D02*
G01*
X120020165Y-83703907D01*
X120025009Y-83734487D01*
X120025816Y-92061998D01*
X120028225Y-116939106D01*
X120009323Y-116997299D01*
X119959827Y-117033268D01*
X119898641Y-117033274D01*
X119849138Y-116997314D01*
X119832127Y-116958429D01*
X119820896Y-116901963D01*
X119776693Y-116835810D01*
X119776689Y-116835806D01*
X119710536Y-116791603D01*
X119652200Y-116780000D01*
X117192501Y-116780000D01*
X117192500Y-116780001D01*
X117192500Y-118679999D01*
X117192501Y-118680000D01*
X119652197Y-118680000D01*
X119652200Y-118679999D01*
X119710536Y-118668396D01*
X119776689Y-118624193D01*
X119776693Y-118624189D01*
X119820896Y-118558036D01*
X119820896Y-118558035D01*
X119832281Y-118500800D01*
X119862177Y-118447415D01*
X119917742Y-118421799D01*
X119977752Y-118433736D01*
X120019285Y-118478665D01*
X120028379Y-118520103D01*
X120029049Y-125443247D01*
X120010147Y-125501440D01*
X119960651Y-125537409D01*
X119899465Y-125537415D01*
X119849962Y-125501455D01*
X119832951Y-125462570D01*
X119820896Y-125401964D01*
X119820896Y-125401963D01*
X119776693Y-125335810D01*
X119776689Y-125335806D01*
X119710536Y-125291603D01*
X119652200Y-125280000D01*
X117192501Y-125280000D01*
X117192500Y-125280001D01*
X117192500Y-127179999D01*
X117192501Y-127180000D01*
X119652197Y-127180000D01*
X119652200Y-127179999D01*
X119710536Y-127168396D01*
X119776689Y-127124193D01*
X119776693Y-127124189D01*
X119820896Y-127058036D01*
X119820896Y-127058035D01*
X119833103Y-126996664D01*
X119862998Y-126943279D01*
X119918563Y-126917662D01*
X119978573Y-126929598D01*
X120020106Y-126974527D01*
X120029201Y-127015966D01*
X120029500Y-130093000D01*
X120029500Y-135155500D01*
X120010593Y-135213691D01*
X119961093Y-135249655D01*
X119930500Y-135254500D01*
X65504500Y-135254500D01*
X65446309Y-135235593D01*
X65410345Y-135186093D01*
X65405500Y-135155500D01*
X65405500Y-133794700D01*
X66730000Y-133794700D01*
X66741603Y-133853036D01*
X66785806Y-133919189D01*
X66785810Y-133919193D01*
X66851963Y-133963396D01*
X66910299Y-133974999D01*
X66910303Y-133975000D01*
X67679999Y-133975000D01*
X67680000Y-133974999D01*
X67680000Y-133415764D01*
X67744237Y-133425000D01*
X67815763Y-133425000D01*
X67880000Y-133415764D01*
X67880000Y-133974999D01*
X67880001Y-133975000D01*
X68649697Y-133975000D01*
X68649700Y-133974999D01*
X68708036Y-133963396D01*
X68774189Y-133919193D01*
X68774193Y-133919189D01*
X68818396Y-133853036D01*
X68829999Y-133794700D01*
X68830000Y-133794697D01*
X68830000Y-133025001D01*
X68829999Y-133025000D01*
X69274767Y-133025000D01*
X69285190Y-133130831D01*
X69285191Y-133130836D01*
X69345232Y-133328762D01*
X69345234Y-133328767D01*
X69442724Y-133511160D01*
X69442731Y-133511170D01*
X69573940Y-133671050D01*
X69573949Y-133671059D01*
X69733829Y-133802268D01*
X69733839Y-133802275D01*
X69916232Y-133899765D01*
X69916237Y-133899767D01*
X70114166Y-133959808D01*
X70219998Y-133970231D01*
X70220000Y-133970230D01*
X70220000Y-133415764D01*
X70284237Y-133425000D01*
X70355763Y-133425000D01*
X70420000Y-133415764D01*
X70420000Y-133970230D01*
X70420001Y-133970231D01*
X70525833Y-133959808D01*
X70723762Y-133899767D01*
X70723767Y-133899765D01*
X70906160Y-133802275D01*
X70906170Y-133802268D01*
X71066050Y-133671059D01*
X71066059Y-133671050D01*
X71197268Y-133511170D01*
X71197275Y-133511160D01*
X71294765Y-133328767D01*
X71294767Y-133328762D01*
X71354808Y-133130836D01*
X71354809Y-133130831D01*
X71365232Y-133025000D01*
X70811746Y-133025000D01*
X70820000Y-132996889D01*
X70820000Y-132853111D01*
X70811746Y-132825000D01*
X71365232Y-132825000D01*
X71365232Y-132824999D01*
X71358308Y-132754700D01*
X113720000Y-132754700D01*
X113731603Y-132813036D01*
X113775806Y-132879189D01*
X113775810Y-132879193D01*
X113841963Y-132923396D01*
X113900299Y-132934999D01*
X113900303Y-132935000D01*
X114669999Y-132935000D01*
X114670000Y-132934999D01*
X114670000Y-132375764D01*
X114734237Y-132385000D01*
X114805763Y-132385000D01*
X114870000Y-132375764D01*
X114870000Y-132934999D01*
X114870001Y-132935000D01*
X115639697Y-132935000D01*
X115639700Y-132934999D01*
X115698036Y-132923396D01*
X115764189Y-132879193D01*
X115764193Y-132879189D01*
X115808396Y-132813036D01*
X115819999Y-132754700D01*
X115820000Y-132754697D01*
X115820000Y-131985001D01*
X115819999Y-131985000D01*
X116264767Y-131985000D01*
X116275190Y-132090831D01*
X116275191Y-132090836D01*
X116335232Y-132288762D01*
X116335234Y-132288767D01*
X116432724Y-132471160D01*
X116432731Y-132471170D01*
X116563940Y-132631050D01*
X116563949Y-132631059D01*
X116723829Y-132762268D01*
X116723839Y-132762275D01*
X116906232Y-132859765D01*
X116906237Y-132859767D01*
X117104166Y-132919808D01*
X117209998Y-132930231D01*
X117210000Y-132930230D01*
X117210000Y-132375764D01*
X117274237Y-132385000D01*
X117345763Y-132385000D01*
X117410000Y-132375764D01*
X117410000Y-132930230D01*
X117410001Y-132930231D01*
X117515833Y-132919808D01*
X117713762Y-132859767D01*
X117713767Y-132859765D01*
X117896160Y-132762275D01*
X117896170Y-132762268D01*
X118056050Y-132631059D01*
X118056059Y-132631050D01*
X118187268Y-132471170D01*
X118187275Y-132471160D01*
X118284765Y-132288767D01*
X118284767Y-132288762D01*
X118344808Y-132090836D01*
X118344809Y-132090831D01*
X118355232Y-131985000D01*
X117801746Y-131985000D01*
X117810000Y-131956889D01*
X117810000Y-131813111D01*
X117801746Y-131785000D01*
X118355232Y-131785000D01*
X118355232Y-131784999D01*
X118344809Y-131679168D01*
X118344808Y-131679163D01*
X118284767Y-131481237D01*
X118284765Y-131481232D01*
X118187275Y-131298839D01*
X118187268Y-131298829D01*
X118056059Y-131138949D01*
X118056050Y-131138940D01*
X117896170Y-131007731D01*
X117896160Y-131007724D01*
X117713767Y-130910234D01*
X117713762Y-130910232D01*
X117515836Y-130850191D01*
X117515831Y-130850190D01*
X117410000Y-130839767D01*
X117410000Y-131394235D01*
X117345763Y-131385000D01*
X117274237Y-131385000D01*
X117210000Y-131394235D01*
X117210000Y-130839767D01*
X117209999Y-130839767D01*
X117104168Y-130850190D01*
X117104163Y-130850191D01*
X116906237Y-130910232D01*
X116906232Y-130910234D01*
X116723839Y-131007724D01*
X116723829Y-131007731D01*
X116563949Y-131138940D01*
X116563940Y-131138949D01*
X116432731Y-131298829D01*
X116432724Y-131298839D01*
X116335234Y-131481232D01*
X116335232Y-131481237D01*
X116275191Y-131679163D01*
X116275190Y-131679168D01*
X116264767Y-131784999D01*
X116264768Y-131785000D01*
X116818254Y-131785000D01*
X116810000Y-131813111D01*
X116810000Y-131956889D01*
X116818254Y-131985000D01*
X116264767Y-131985000D01*
X115819999Y-131985000D01*
X115261746Y-131985000D01*
X115270000Y-131956889D01*
X115270000Y-131813111D01*
X115261746Y-131785000D01*
X115819999Y-131785000D01*
X115820000Y-131784999D01*
X115820000Y-131015302D01*
X115819999Y-131015299D01*
X115808396Y-130956963D01*
X115764193Y-130890810D01*
X115764189Y-130890806D01*
X115698036Y-130846603D01*
X115639700Y-130835000D01*
X114870001Y-130835000D01*
X114870000Y-130835001D01*
X114870000Y-131394235D01*
X114805763Y-131385000D01*
X114734237Y-131385000D01*
X114670000Y-131394235D01*
X114670000Y-130835001D01*
X114669999Y-130835000D01*
X113900299Y-130835000D01*
X113841963Y-130846603D01*
X113775810Y-130890806D01*
X113775806Y-130890810D01*
X113731603Y-130956963D01*
X113720000Y-131015299D01*
X113720000Y-131784999D01*
X113720001Y-131785000D01*
X114278254Y-131785000D01*
X114270000Y-131813111D01*
X114270000Y-131956889D01*
X114278254Y-131985000D01*
X113720001Y-131985000D01*
X113720000Y-131985001D01*
X113720000Y-132754700D01*
X71358308Y-132754700D01*
X71354809Y-132719168D01*
X71354808Y-132719163D01*
X71294767Y-132521237D01*
X71294765Y-132521232D01*
X71197275Y-132338839D01*
X71197268Y-132338829D01*
X71066059Y-132178949D01*
X71066050Y-132178940D01*
X70906170Y-132047731D01*
X70906160Y-132047724D01*
X70723767Y-131950234D01*
X70723762Y-131950232D01*
X70525836Y-131890191D01*
X70525831Y-131890190D01*
X70420000Y-131879767D01*
X70420000Y-132434235D01*
X70355763Y-132425000D01*
X70284237Y-132425000D01*
X70220000Y-132434235D01*
X70220000Y-131879767D01*
X70219999Y-131879767D01*
X70114168Y-131890190D01*
X70114163Y-131890191D01*
X69916237Y-131950232D01*
X69916232Y-131950234D01*
X69733839Y-132047724D01*
X69733829Y-132047731D01*
X69573949Y-132178940D01*
X69573940Y-132178949D01*
X69442731Y-132338829D01*
X69442724Y-132338839D01*
X69345234Y-132521232D01*
X69345232Y-132521237D01*
X69285191Y-132719163D01*
X69285190Y-132719168D01*
X69274767Y-132824999D01*
X69274768Y-132825000D01*
X69828254Y-132825000D01*
X69820000Y-132853111D01*
X69820000Y-132996889D01*
X69828254Y-133025000D01*
X69274767Y-133025000D01*
X68829999Y-133025000D01*
X68271746Y-133025000D01*
X68280000Y-132996889D01*
X68280000Y-132853111D01*
X68271746Y-132825000D01*
X68829999Y-132825000D01*
X68830000Y-132824999D01*
X68830000Y-132055302D01*
X68829999Y-132055299D01*
X68818396Y-131996963D01*
X68774193Y-131930810D01*
X68774189Y-131930806D01*
X68708036Y-131886603D01*
X68649700Y-131875000D01*
X67880001Y-131875000D01*
X67880000Y-131875001D01*
X67880000Y-132434235D01*
X67815763Y-132425000D01*
X67744237Y-132425000D01*
X67680000Y-132434235D01*
X67680000Y-131875001D01*
X67679999Y-131875000D01*
X66910299Y-131875000D01*
X66851963Y-131886603D01*
X66785810Y-131930806D01*
X66785806Y-131930810D01*
X66741603Y-131996963D01*
X66730000Y-132055299D01*
X66730000Y-132824999D01*
X66730001Y-132825000D01*
X67288254Y-132825000D01*
X67280000Y-132853111D01*
X67280000Y-132996889D01*
X67288254Y-133025000D01*
X66730001Y-133025000D01*
X66730000Y-133025001D01*
X66730000Y-133794700D01*
X65405500Y-133794700D01*
X65405500Y-130055002D01*
X97024732Y-130055002D01*
X97043777Y-130309152D01*
X97043779Y-130309161D01*
X97100492Y-130557639D01*
X97193604Y-130794881D01*
X97193607Y-130794888D01*
X97321041Y-131015612D01*
X97321045Y-131015618D01*
X97321047Y-131015620D01*
X97479940Y-131214866D01*
X97479951Y-131214878D01*
X97666776Y-131388226D01*
X97666778Y-131388227D01*
X97666783Y-131388232D01*
X97877366Y-131531805D01*
X98106996Y-131642389D01*
X98350542Y-131717513D01*
X98602565Y-131755500D01*
X98602570Y-131755500D01*
X98857430Y-131755500D01*
X98857435Y-131755500D01*
X99109458Y-131717513D01*
X99353004Y-131642389D01*
X99582634Y-131531805D01*
X99793217Y-131388232D01*
X99980050Y-131214877D01*
X100138959Y-131015612D01*
X100266393Y-130794888D01*
X100359508Y-130557637D01*
X100416222Y-130309157D01*
X100435268Y-130055002D01*
X107024732Y-130055002D01*
X107043777Y-130309152D01*
X107043779Y-130309161D01*
X107100492Y-130557639D01*
X107193604Y-130794881D01*
X107193607Y-130794888D01*
X107321041Y-131015612D01*
X107321045Y-131015618D01*
X107321047Y-131015620D01*
X107479940Y-131214866D01*
X107479951Y-131214878D01*
X107666776Y-131388226D01*
X107666778Y-131388227D01*
X107666783Y-131388232D01*
X107877366Y-131531805D01*
X108106996Y-131642389D01*
X108350542Y-131717513D01*
X108602565Y-131755500D01*
X108602570Y-131755500D01*
X108857430Y-131755500D01*
X108857435Y-131755500D01*
X109109458Y-131717513D01*
X109353004Y-131642389D01*
X109582634Y-131531805D01*
X109793217Y-131388232D01*
X109980050Y-131214877D01*
X110138959Y-131015612D01*
X110266393Y-130794888D01*
X110359508Y-130557637D01*
X110416222Y-130309157D01*
X110435268Y-130055000D01*
X110416222Y-129800843D01*
X110359508Y-129552363D01*
X110266393Y-129315112D01*
X110138959Y-129094388D01*
X110118231Y-129068396D01*
X109980059Y-128895133D01*
X109980048Y-128895121D01*
X109793223Y-128721773D01*
X109793220Y-128721771D01*
X109793217Y-128721768D01*
X109582634Y-128578195D01*
X109353004Y-128467611D01*
X109301610Y-128451758D01*
X109109462Y-128392488D01*
X109109459Y-128392487D01*
X109109458Y-128392487D01*
X109109453Y-128392486D01*
X109109452Y-128392486D01*
X108857438Y-128354500D01*
X108857435Y-128354500D01*
X108602565Y-128354500D01*
X108602561Y-128354500D01*
X108350547Y-128392486D01*
X108350537Y-128392488D01*
X108106995Y-128467611D01*
X107877373Y-128578191D01*
X107877369Y-128578193D01*
X107877366Y-128578195D01*
X107726579Y-128681000D01*
X107666776Y-128721773D01*
X107479951Y-128895121D01*
X107479940Y-128895133D01*
X107321047Y-129094379D01*
X107321043Y-129094384D01*
X107321041Y-129094388D01*
X107285005Y-129156805D01*
X107193608Y-129315109D01*
X107193604Y-129315118D01*
X107100492Y-129552360D01*
X107043779Y-129800838D01*
X107043777Y-129800847D01*
X107024732Y-130054997D01*
X107024732Y-130055002D01*
X100435268Y-130055002D01*
X100435268Y-130055000D01*
X100416222Y-129800843D01*
X100359508Y-129552363D01*
X100266393Y-129315112D01*
X100138959Y-129094388D01*
X100118231Y-129068396D01*
X99980059Y-128895133D01*
X99980048Y-128895121D01*
X99793223Y-128721773D01*
X99793220Y-128721771D01*
X99793217Y-128721768D01*
X99582634Y-128578195D01*
X99353004Y-128467611D01*
X99301610Y-128451758D01*
X99109462Y-128392488D01*
X99109459Y-128392487D01*
X99109458Y-128392487D01*
X99109453Y-128392486D01*
X99109452Y-128392486D01*
X98857438Y-128354500D01*
X98857435Y-128354500D01*
X98602565Y-128354500D01*
X98602561Y-128354500D01*
X98350547Y-128392486D01*
X98350537Y-128392488D01*
X98106995Y-128467611D01*
X97877373Y-128578191D01*
X97877369Y-128578193D01*
X97877366Y-128578195D01*
X97726579Y-128681000D01*
X97666776Y-128721773D01*
X97479951Y-128895121D01*
X97479940Y-128895133D01*
X97321047Y-129094379D01*
X97321043Y-129094384D01*
X97321041Y-129094388D01*
X97285005Y-129156805D01*
X97193608Y-129315109D01*
X97193604Y-129315118D01*
X97100492Y-129552360D01*
X97043779Y-129800838D01*
X97043777Y-129800847D01*
X97024732Y-130054997D01*
X97024732Y-130055002D01*
X65405500Y-130055002D01*
X65405500Y-128899700D01*
X65740000Y-128899700D01*
X65751603Y-128958036D01*
X65795806Y-129024189D01*
X65795810Y-129024193D01*
X65861963Y-129068396D01*
X65920299Y-129079999D01*
X65920303Y-129080000D01*
X68379999Y-129080000D01*
X68380000Y-129079999D01*
X68580000Y-129079999D01*
X68580001Y-129080000D01*
X71039697Y-129080000D01*
X71039700Y-129079999D01*
X71098036Y-129068396D01*
X71164189Y-129024193D01*
X71164193Y-129024189D01*
X71208396Y-128958036D01*
X71219999Y-128899700D01*
X71220000Y-128899697D01*
X71220000Y-128230001D01*
X71219999Y-128230000D01*
X68580001Y-128230000D01*
X68580000Y-128230001D01*
X68580000Y-129079999D01*
X68380000Y-129079999D01*
X68380000Y-128230001D01*
X68379999Y-128230000D01*
X65740001Y-128230000D01*
X65740000Y-128230001D01*
X65740000Y-128899700D01*
X65405500Y-128899700D01*
X65405500Y-128029999D01*
X65740000Y-128029999D01*
X65740001Y-128030000D01*
X68379999Y-128030000D01*
X68380000Y-128029999D01*
X68580000Y-128029999D01*
X68580001Y-128030000D01*
X71219999Y-128030000D01*
X71220000Y-128029999D01*
X71220000Y-127360302D01*
X71219999Y-127360299D01*
X71208396Y-127301963D01*
X71164193Y-127235810D01*
X71164189Y-127235806D01*
X71098036Y-127191603D01*
X71039700Y-127180000D01*
X68580001Y-127180000D01*
X68580000Y-127180001D01*
X68580000Y-128029999D01*
X68380000Y-128029999D01*
X68380000Y-127180001D01*
X68379999Y-127180000D01*
X65920299Y-127180000D01*
X65861963Y-127191603D01*
X65795810Y-127235806D01*
X65795806Y-127235810D01*
X65751603Y-127301963D01*
X65740000Y-127360299D01*
X65740000Y-128029999D01*
X65405500Y-128029999D01*
X65405500Y-125785000D01*
X69909318Y-125785000D01*
X69929955Y-125941758D01*
X69929957Y-125941766D01*
X69990462Y-126087838D01*
X69990462Y-126087839D01*
X70058596Y-126176633D01*
X70086718Y-126213282D01*
X70086722Y-126213285D01*
X70086723Y-126213286D01*
X70116082Y-126235813D01*
X70212159Y-126309536D01*
X70212160Y-126309536D01*
X70212161Y-126309537D01*
X70302045Y-126346768D01*
X70358238Y-126370044D01*
X70475809Y-126385522D01*
X70514999Y-126390682D01*
X70515000Y-126390682D01*
X70515001Y-126390682D01*
X70546352Y-126386554D01*
X70671762Y-126370044D01*
X70817841Y-126309536D01*
X70943282Y-126213282D01*
X70958055Y-126194029D01*
X70971404Y-126176633D01*
X71021829Y-126141977D01*
X71049946Y-126137900D01*
X74327816Y-126137900D01*
X74386007Y-126156807D01*
X74397820Y-126166896D01*
X75943607Y-127712683D01*
X75971384Y-127767200D01*
X75961813Y-127827632D01*
X75933874Y-127861226D01*
X75926724Y-127866712D01*
X75926713Y-127866723D01*
X75830462Y-127992160D01*
X75830462Y-127992161D01*
X75769957Y-128138233D01*
X75769955Y-128138241D01*
X75749318Y-128294999D01*
X75749318Y-128295000D01*
X75769955Y-128451758D01*
X75769957Y-128451766D01*
X75830462Y-128597838D01*
X75830462Y-128597839D01*
X75863289Y-128640620D01*
X75926718Y-128723282D01*
X76052159Y-128819536D01*
X76198238Y-128880044D01*
X76312760Y-128895121D01*
X76354999Y-128900682D01*
X76355000Y-128900682D01*
X76355001Y-128900682D01*
X76397240Y-128895121D01*
X76511762Y-128880044D01*
X76657841Y-128819536D01*
X76783282Y-128723282D01*
X76815726Y-128681000D01*
X83049500Y-128681000D01*
X83053526Y-128718443D01*
X83054197Y-128724685D01*
X83065404Y-128776199D01*
X83067889Y-128786371D01*
X83067889Y-128786372D01*
X83067890Y-128786373D01*
X83110900Y-128867085D01*
X83156655Y-128919889D01*
X83156667Y-128919901D01*
X83174247Y-128937844D01*
X83174249Y-128937846D01*
X83254058Y-128982488D01*
X83254062Y-128982490D01*
X83295294Y-128994597D01*
X83321102Y-129002175D01*
X83379000Y-129010500D01*
X83379001Y-129010500D01*
X89730995Y-129010500D01*
X89731000Y-129010500D01*
X89774684Y-129005803D01*
X89826195Y-128994597D01*
X89836373Y-128992110D01*
X89917085Y-128949100D01*
X89969889Y-128903345D01*
X89987843Y-128885754D01*
X89987844Y-128885751D01*
X89987846Y-128885750D01*
X90032488Y-128805941D01*
X90032490Y-128805937D01*
X90052173Y-128738904D01*
X90052175Y-128738898D01*
X90060500Y-128681000D01*
X90060500Y-127680002D01*
X92694732Y-127680002D01*
X92713777Y-127934152D01*
X92713779Y-127934161D01*
X92770492Y-128182639D01*
X92852853Y-128392488D01*
X92863607Y-128419888D01*
X92991041Y-128640612D01*
X92991045Y-128640618D01*
X92991047Y-128640620D01*
X93149940Y-128839866D01*
X93149951Y-128839878D01*
X93336776Y-129013226D01*
X93336778Y-129013227D01*
X93336783Y-129013232D01*
X93547366Y-129156805D01*
X93776996Y-129267389D01*
X94020542Y-129342513D01*
X94272565Y-129380500D01*
X94272570Y-129380500D01*
X94527430Y-129380500D01*
X94527435Y-129380500D01*
X94779458Y-129342513D01*
X95023004Y-129267389D01*
X95252634Y-129156805D01*
X95463217Y-129013232D01*
X95650050Y-128839877D01*
X95666272Y-128819536D01*
X95700835Y-128776195D01*
X95808959Y-128640612D01*
X95936393Y-128419888D01*
X96029508Y-128182637D01*
X96086222Y-127934157D01*
X96105268Y-127680000D01*
X96104658Y-127671866D01*
X96089175Y-127465251D01*
X96086222Y-127425843D01*
X96029508Y-127177363D01*
X95959780Y-126999700D01*
X114352500Y-126999700D01*
X114364103Y-127058036D01*
X114408306Y-127124189D01*
X114408310Y-127124193D01*
X114474463Y-127168396D01*
X114532799Y-127179999D01*
X114532803Y-127180000D01*
X116992499Y-127180000D01*
X116992500Y-127179999D01*
X116992500Y-126330001D01*
X116992499Y-126330000D01*
X114352501Y-126330000D01*
X114352500Y-126330001D01*
X114352500Y-126999700D01*
X95959780Y-126999700D01*
X95936393Y-126940112D01*
X95808959Y-126719388D01*
X95733515Y-126624784D01*
X95650059Y-126520133D01*
X95650048Y-126520121D01*
X95463223Y-126346773D01*
X95463220Y-126346771D01*
X95463217Y-126346768D01*
X95252634Y-126203195D01*
X95197477Y-126176633D01*
X95023004Y-126092611D01*
X94779462Y-126017488D01*
X94779459Y-126017487D01*
X94779458Y-126017487D01*
X94779453Y-126017486D01*
X94779452Y-126017486D01*
X94527438Y-125979500D01*
X94527435Y-125979500D01*
X94272565Y-125979500D01*
X94272561Y-125979500D01*
X94020547Y-126017486D01*
X94020537Y-126017488D01*
X93776995Y-126092611D01*
X93547373Y-126203191D01*
X93547369Y-126203193D01*
X93547366Y-126203195D01*
X93361376Y-126330001D01*
X93336776Y-126346773D01*
X93149951Y-126520121D01*
X93149940Y-126520133D01*
X92991047Y-126719379D01*
X92991043Y-126719384D01*
X92991041Y-126719388D01*
X92986422Y-126727389D01*
X92863608Y-126940109D01*
X92863604Y-126940118D01*
X92770492Y-127177360D01*
X92713779Y-127425838D01*
X92713777Y-127425847D01*
X92694732Y-127679997D01*
X92694732Y-127680002D01*
X90060500Y-127680002D01*
X90060500Y-125140002D01*
X99044732Y-125140002D01*
X99063777Y-125394152D01*
X99063779Y-125394161D01*
X99120492Y-125642639D01*
X99213604Y-125879881D01*
X99213607Y-125879888D01*
X99341041Y-126100612D01*
X99341045Y-126100618D01*
X99341047Y-126100620D01*
X99499940Y-126299866D01*
X99499951Y-126299878D01*
X99686776Y-126473226D01*
X99686778Y-126473227D01*
X99686783Y-126473232D01*
X99897366Y-126616805D01*
X100126996Y-126727389D01*
X100370542Y-126802513D01*
X100622565Y-126840500D01*
X100622570Y-126840500D01*
X100877430Y-126840500D01*
X100877435Y-126840500D01*
X101129458Y-126802513D01*
X101373004Y-126727389D01*
X101602634Y-126616805D01*
X101813217Y-126473232D01*
X102000050Y-126299877D01*
X102135524Y-126129999D01*
X114352500Y-126129999D01*
X114352501Y-126130000D01*
X116992499Y-126130000D01*
X116992500Y-126129999D01*
X116992500Y-125280001D01*
X116992499Y-125280000D01*
X114532799Y-125280000D01*
X114474463Y-125291603D01*
X114408310Y-125335806D01*
X114408306Y-125335810D01*
X114364103Y-125401963D01*
X114352500Y-125460299D01*
X114352500Y-126129999D01*
X102135524Y-126129999D01*
X102158959Y-126100612D01*
X102286393Y-125879888D01*
X102379508Y-125642637D01*
X102436222Y-125394157D01*
X102455268Y-125140000D01*
X102436222Y-124885843D01*
X102379508Y-124637363D01*
X102374117Y-124623628D01*
X102314667Y-124472153D01*
X102286393Y-124400112D01*
X102158959Y-124179388D01*
X102158952Y-124179379D01*
X102000059Y-123980133D01*
X102000048Y-123980121D01*
X101813223Y-123806773D01*
X101813220Y-123806771D01*
X101813217Y-123806768D01*
X101602634Y-123663195D01*
X101373004Y-123552611D01*
X101129462Y-123477488D01*
X101129459Y-123477487D01*
X101129458Y-123477487D01*
X101129453Y-123477486D01*
X101129452Y-123477486D01*
X100877438Y-123439500D01*
X100877435Y-123439500D01*
X100622565Y-123439500D01*
X100622561Y-123439500D01*
X100370547Y-123477486D01*
X100370537Y-123477488D01*
X100126995Y-123552611D01*
X99897373Y-123663191D01*
X99897369Y-123663193D01*
X99897366Y-123663195D01*
X99686783Y-123806768D01*
X99686776Y-123806773D01*
X99499951Y-123980121D01*
X99499940Y-123980133D01*
X99341047Y-124179379D01*
X99341043Y-124179384D01*
X99341041Y-124179388D01*
X99279181Y-124286533D01*
X99213608Y-124400109D01*
X99213604Y-124400118D01*
X99120492Y-124637360D01*
X99063779Y-124885838D01*
X99063777Y-124885847D01*
X99044732Y-125139997D01*
X99044732Y-125140002D01*
X90060500Y-125140002D01*
X90060500Y-124729000D01*
X90055803Y-124685316D01*
X90044597Y-124633805D01*
X90042110Y-124623627D01*
X89999100Y-124542915D01*
X89953345Y-124490111D01*
X89935754Y-124472157D01*
X89935753Y-124472156D01*
X89935752Y-124472155D01*
X89935750Y-124472153D01*
X89855941Y-124427511D01*
X89855937Y-124427509D01*
X89788904Y-124407826D01*
X89788895Y-124407824D01*
X89742684Y-124401180D01*
X89731000Y-124399500D01*
X86433692Y-124399500D01*
X86433687Y-124399500D01*
X86376927Y-124407495D01*
X86311078Y-124426421D01*
X86288481Y-124434370D01*
X86288475Y-124434373D01*
X86214100Y-124487576D01*
X86214093Y-124487582D01*
X86167737Y-124539859D01*
X86135553Y-124588703D01*
X85451340Y-126042654D01*
X85409455Y-126087255D01*
X85361763Y-126099500D01*
X83379000Y-126099500D01*
X83347797Y-126102855D01*
X83335314Y-126104197D01*
X83283800Y-126115404D01*
X83273628Y-126117889D01*
X83192914Y-126160900D01*
X83140113Y-126206653D01*
X83140098Y-126206667D01*
X83122155Y-126224247D01*
X83122153Y-126224249D01*
X83077511Y-126304058D01*
X83077509Y-126304062D01*
X83057826Y-126371095D01*
X83057824Y-126371104D01*
X83049500Y-126429000D01*
X83049500Y-128681000D01*
X76815726Y-128681000D01*
X76879536Y-128597841D01*
X76940044Y-128451762D01*
X76960682Y-128295000D01*
X76940044Y-128138238D01*
X76879537Y-127992161D01*
X76879537Y-127992160D01*
X76783286Y-127866723D01*
X76783285Y-127866722D01*
X76783282Y-127866718D01*
X76776125Y-127861226D01*
X76746631Y-127838594D01*
X76711976Y-127788169D01*
X76707900Y-127760053D01*
X76707900Y-127671866D01*
X76710007Y-127651550D01*
X76712474Y-127639785D01*
X76708660Y-127609185D01*
X76707900Y-127596941D01*
X76707900Y-127595757D01*
X76704625Y-127576135D01*
X76704034Y-127572081D01*
X76697906Y-127522915D01*
X76697906Y-127522912D01*
X76697903Y-127522907D01*
X76695792Y-127515816D01*
X76693394Y-127508829D01*
X76669811Y-127465251D01*
X76667948Y-127461632D01*
X76646179Y-127417103D01*
X76646176Y-127417100D01*
X76641866Y-127411063D01*
X76637340Y-127405249D01*
X76637339Y-127405247D01*
X76600885Y-127371689D01*
X76597932Y-127368856D01*
X74797676Y-125568600D01*
X74784800Y-125552743D01*
X74778227Y-125542682D01*
X74753895Y-125523744D01*
X74744706Y-125515630D01*
X74743860Y-125514784D01*
X74727645Y-125503206D01*
X74724398Y-125500785D01*
X74685284Y-125470342D01*
X74685281Y-125470341D01*
X74678784Y-125466825D01*
X74672129Y-125463571D01*
X74624630Y-125449429D01*
X74620737Y-125448182D01*
X74573890Y-125432100D01*
X74566565Y-125430877D01*
X74559255Y-125429967D01*
X74509748Y-125432015D01*
X74505656Y-125432100D01*
X71605984Y-125432100D01*
X71547793Y-125413193D01*
X71511829Y-125363693D01*
X71511829Y-125302507D01*
X71535980Y-125263096D01*
X71913238Y-124885838D01*
X73536663Y-123262411D01*
X73591178Y-123234636D01*
X73593709Y-123234268D01*
X73701762Y-123220044D01*
X73847841Y-123159536D01*
X73973282Y-123063282D01*
X74069536Y-122937841D01*
X74130044Y-122791762D01*
X74150682Y-122635000D01*
X74130044Y-122478238D01*
X74069537Y-122332161D01*
X74069537Y-122332160D01*
X73973286Y-122206723D01*
X73973285Y-122206722D01*
X73973282Y-122206718D01*
X73973277Y-122206714D01*
X73973276Y-122206713D01*
X73847838Y-122110462D01*
X73701766Y-122049957D01*
X73701758Y-122049955D01*
X73545001Y-122029318D01*
X73544999Y-122029318D01*
X73388241Y-122049955D01*
X73388233Y-122049957D01*
X73242161Y-122110462D01*
X73242160Y-122110462D01*
X73116723Y-122206713D01*
X73116713Y-122206723D01*
X73020462Y-122332160D01*
X73020462Y-122332161D01*
X72959957Y-122478233D01*
X72959955Y-122478241D01*
X72939318Y-122634999D01*
X72939318Y-122635000D01*
X72959307Y-122786838D01*
X72948157Y-122846999D01*
X72931158Y-122869764D01*
X70643724Y-125157198D01*
X70589207Y-125184975D01*
X70560799Y-125185347D01*
X70515002Y-125179318D01*
X70514999Y-125179318D01*
X70358241Y-125199955D01*
X70358233Y-125199957D01*
X70212161Y-125260462D01*
X70212160Y-125260462D01*
X70086723Y-125356713D01*
X70086713Y-125356723D01*
X69990462Y-125482160D01*
X69990462Y-125482161D01*
X69929957Y-125628233D01*
X69929955Y-125628241D01*
X69909318Y-125784999D01*
X69909318Y-125785000D01*
X65405500Y-125785000D01*
X65405500Y-120399700D01*
X65740000Y-120399700D01*
X65751603Y-120458036D01*
X65795806Y-120524189D01*
X65795810Y-120524193D01*
X65861963Y-120568396D01*
X65920299Y-120579999D01*
X65920303Y-120580000D01*
X68379999Y-120580000D01*
X68380000Y-120579999D01*
X68580000Y-120579999D01*
X68580001Y-120580000D01*
X71039697Y-120580000D01*
X71039700Y-120579999D01*
X71098036Y-120568396D01*
X71164189Y-120524193D01*
X71164193Y-120524189D01*
X71208396Y-120458036D01*
X71219999Y-120399700D01*
X71220000Y-120399697D01*
X71220000Y-119730001D01*
X71219999Y-119730000D01*
X68580001Y-119730000D01*
X68580000Y-119730001D01*
X68580000Y-120579999D01*
X68380000Y-120579999D01*
X68380000Y-119730001D01*
X68379999Y-119730000D01*
X65740001Y-119730000D01*
X65740000Y-119730001D01*
X65740000Y-120399700D01*
X65405500Y-120399700D01*
X65405500Y-119529999D01*
X65740000Y-119529999D01*
X65740001Y-119530000D01*
X68379999Y-119530000D01*
X68380000Y-119529999D01*
X68580000Y-119529999D01*
X68580001Y-119530000D01*
X71219999Y-119530000D01*
X71220000Y-119529999D01*
X71220000Y-119081000D01*
X83549500Y-119081000D01*
X83551476Y-119099379D01*
X83554197Y-119124685D01*
X83565404Y-119176199D01*
X83567889Y-119186371D01*
X83567889Y-119186372D01*
X83567890Y-119186373D01*
X83610900Y-119267085D01*
X83656655Y-119319889D01*
X83674246Y-119337843D01*
X83674247Y-119337844D01*
X83674249Y-119337846D01*
X83754058Y-119382488D01*
X83754062Y-119382490D01*
X83821095Y-119402173D01*
X83821102Y-119402175D01*
X83879000Y-119410500D01*
X85717254Y-119410500D01*
X85775445Y-119429407D01*
X85811409Y-119478907D01*
X85813298Y-119485489D01*
X86132153Y-120760908D01*
X86137555Y-120778959D01*
X86145063Y-120800406D01*
X86183715Y-120867082D01*
X86183719Y-120867088D01*
X86229455Y-120919870D01*
X86229462Y-120919877D01*
X86229472Y-120919889D01*
X86229484Y-120919901D01*
X86247064Y-120937844D01*
X86247066Y-120937846D01*
X86326875Y-120982488D01*
X86326879Y-120982490D01*
X86368111Y-120994597D01*
X86393919Y-121002175D01*
X86451817Y-121010500D01*
X86451818Y-121010500D01*
X89630995Y-121010500D01*
X89631000Y-121010500D01*
X89674684Y-121005803D01*
X89726195Y-120994597D01*
X89736373Y-120992110D01*
X89817085Y-120949100D01*
X89869889Y-120903345D01*
X89887843Y-120885754D01*
X89887844Y-120885751D01*
X89887846Y-120885750D01*
X89932488Y-120805941D01*
X89932490Y-120805937D01*
X89952173Y-120738904D01*
X89952175Y-120738898D01*
X89960500Y-120681000D01*
X89960500Y-120060002D01*
X99044732Y-120060002D01*
X99063777Y-120314152D01*
X99063779Y-120314161D01*
X99120492Y-120562639D01*
X99189670Y-120738898D01*
X99213607Y-120799888D01*
X99341041Y-121020612D01*
X99341045Y-121020618D01*
X99341047Y-121020620D01*
X99499940Y-121219866D01*
X99499951Y-121219878D01*
X99686776Y-121393226D01*
X99686778Y-121393227D01*
X99686783Y-121393232D01*
X99897366Y-121536805D01*
X100126996Y-121647389D01*
X100370542Y-121722513D01*
X100622565Y-121760500D01*
X100622570Y-121760500D01*
X100877430Y-121760500D01*
X100877435Y-121760500D01*
X101129458Y-121722513D01*
X101373004Y-121647389D01*
X101602634Y-121536805D01*
X101813217Y-121393232D01*
X102000050Y-121219877D01*
X102158959Y-121020612D01*
X102286393Y-120799888D01*
X102379508Y-120562637D01*
X102436222Y-120314157D01*
X102455268Y-120060000D01*
X102436222Y-119805843D01*
X102379508Y-119557363D01*
X102286393Y-119320112D01*
X102158959Y-119099388D01*
X102090247Y-119013226D01*
X102000059Y-118900133D01*
X102000048Y-118900121D01*
X101813223Y-118726773D01*
X101813220Y-118726771D01*
X101813217Y-118726768D01*
X101602634Y-118583195D01*
X101429255Y-118499700D01*
X114352500Y-118499700D01*
X114364103Y-118558036D01*
X114408306Y-118624189D01*
X114408310Y-118624193D01*
X114474463Y-118668396D01*
X114532799Y-118679999D01*
X114532803Y-118680000D01*
X116992499Y-118680000D01*
X116992500Y-118679999D01*
X116992500Y-117830001D01*
X116992499Y-117830000D01*
X114352501Y-117830000D01*
X114352500Y-117830001D01*
X114352500Y-118499700D01*
X101429255Y-118499700D01*
X101373004Y-118472611D01*
X101291321Y-118447415D01*
X101129462Y-118397488D01*
X101129459Y-118397487D01*
X101129458Y-118397487D01*
X101129453Y-118397486D01*
X101129452Y-118397486D01*
X100877438Y-118359500D01*
X100877435Y-118359500D01*
X100622565Y-118359500D01*
X100622561Y-118359500D01*
X100370547Y-118397486D01*
X100370537Y-118397488D01*
X100126995Y-118472611D01*
X99897373Y-118583191D01*
X99897369Y-118583193D01*
X99897366Y-118583195D01*
X99755378Y-118680001D01*
X99686776Y-118726773D01*
X99499951Y-118900121D01*
X99499940Y-118900133D01*
X99341047Y-119099379D01*
X99341043Y-119099384D01*
X99341041Y-119099388D01*
X99326436Y-119124685D01*
X99213608Y-119320109D01*
X99213604Y-119320118D01*
X99120492Y-119557360D01*
X99063779Y-119805838D01*
X99063777Y-119805847D01*
X99044732Y-120059997D01*
X99044732Y-120060002D01*
X89960500Y-120060002D01*
X89960500Y-117680002D01*
X92694732Y-117680002D01*
X92713777Y-117934152D01*
X92713779Y-117934161D01*
X92770492Y-118182639D01*
X92863604Y-118419881D01*
X92863607Y-118419888D01*
X92991041Y-118640612D01*
X92991045Y-118640618D01*
X92991047Y-118640620D01*
X93149940Y-118839866D01*
X93149951Y-118839878D01*
X93336776Y-119013226D01*
X93336778Y-119013227D01*
X93336783Y-119013232D01*
X93547366Y-119156805D01*
X93776996Y-119267389D01*
X94020542Y-119342513D01*
X94272565Y-119380500D01*
X94272570Y-119380500D01*
X94527430Y-119380500D01*
X94527435Y-119380500D01*
X94779458Y-119342513D01*
X95023004Y-119267389D01*
X95252634Y-119156805D01*
X95463217Y-119013232D01*
X95650050Y-118839877D01*
X95680286Y-118801963D01*
X95733044Y-118735806D01*
X95808959Y-118640612D01*
X95936393Y-118419888D01*
X96029508Y-118182637D01*
X96086222Y-117934157D01*
X96105268Y-117680000D01*
X96101521Y-117629999D01*
X114352500Y-117629999D01*
X114352501Y-117630000D01*
X116992499Y-117630000D01*
X116992500Y-117629999D01*
X116992500Y-116780001D01*
X116992499Y-116780000D01*
X114532799Y-116780000D01*
X114474463Y-116791603D01*
X114408310Y-116835806D01*
X114408306Y-116835810D01*
X114364103Y-116901963D01*
X114352500Y-116960299D01*
X114352500Y-117629999D01*
X96101521Y-117629999D01*
X96086222Y-117425843D01*
X96029508Y-117177363D01*
X95936393Y-116940112D01*
X95808959Y-116719388D01*
X95808952Y-116719379D01*
X95650059Y-116520133D01*
X95650048Y-116520121D01*
X95463223Y-116346773D01*
X95463220Y-116346771D01*
X95463217Y-116346768D01*
X95252634Y-116203195D01*
X95023004Y-116092611D01*
X94779462Y-116017488D01*
X94779459Y-116017487D01*
X94779458Y-116017487D01*
X94779453Y-116017486D01*
X94779452Y-116017486D01*
X94527438Y-115979500D01*
X94527435Y-115979500D01*
X94272565Y-115979500D01*
X94272561Y-115979500D01*
X94020547Y-116017486D01*
X94020537Y-116017488D01*
X93776995Y-116092611D01*
X93547373Y-116203191D01*
X93547369Y-116203193D01*
X93547366Y-116203195D01*
X93336783Y-116346768D01*
X93336776Y-116346773D01*
X93149951Y-116520121D01*
X93149940Y-116520133D01*
X92991047Y-116719379D01*
X92991043Y-116719384D01*
X92991041Y-116719388D01*
X92949348Y-116791603D01*
X92863608Y-116940109D01*
X92863604Y-116940118D01*
X92770492Y-117177360D01*
X92713779Y-117425838D01*
X92713777Y-117425847D01*
X92694732Y-117679997D01*
X92694732Y-117680002D01*
X89960500Y-117680002D01*
X89960500Y-117129000D01*
X89955803Y-117085316D01*
X89944597Y-117033805D01*
X89942110Y-117023627D01*
X89899100Y-116942915D01*
X89853345Y-116890111D01*
X89835754Y-116872157D01*
X89835753Y-116872156D01*
X89835752Y-116872155D01*
X89835750Y-116872153D01*
X89755941Y-116827511D01*
X89755937Y-116827509D01*
X89688904Y-116807826D01*
X89688895Y-116807824D01*
X89642684Y-116801180D01*
X89631000Y-116799500D01*
X83879000Y-116799500D01*
X83847797Y-116802855D01*
X83835314Y-116804197D01*
X83783800Y-116815404D01*
X83773628Y-116817889D01*
X83692914Y-116860900D01*
X83640113Y-116906653D01*
X83640098Y-116906667D01*
X83622155Y-116924247D01*
X83622153Y-116924249D01*
X83577511Y-117004058D01*
X83577509Y-117004062D01*
X83557826Y-117071095D01*
X83557824Y-117071104D01*
X83555781Y-117085314D01*
X83549500Y-117129000D01*
X83549500Y-119081000D01*
X71220000Y-119081000D01*
X71220000Y-118860302D01*
X71219999Y-118860299D01*
X71208396Y-118801963D01*
X71164193Y-118735810D01*
X71164189Y-118735806D01*
X71098036Y-118691603D01*
X71039700Y-118680000D01*
X68580001Y-118680000D01*
X68580000Y-118680001D01*
X68580000Y-119529999D01*
X68380000Y-119529999D01*
X68380000Y-118680001D01*
X68379999Y-118680000D01*
X65920299Y-118680000D01*
X65861963Y-118691603D01*
X65795810Y-118735806D01*
X65795806Y-118735810D01*
X65751603Y-118801963D01*
X65740000Y-118860299D01*
X65740000Y-119529999D01*
X65405500Y-119529999D01*
X65405500Y-114055002D01*
X97024732Y-114055002D01*
X97043777Y-114309152D01*
X97043779Y-114309161D01*
X97100492Y-114557639D01*
X97193604Y-114794881D01*
X97193607Y-114794888D01*
X97321041Y-115015612D01*
X97321045Y-115015618D01*
X97321047Y-115015620D01*
X97479940Y-115214866D01*
X97479951Y-115214878D01*
X97666776Y-115388226D01*
X97666778Y-115388227D01*
X97666783Y-115388232D01*
X97877366Y-115531805D01*
X98106996Y-115642389D01*
X98350542Y-115717513D01*
X98602565Y-115755500D01*
X98602570Y-115755500D01*
X98857430Y-115755500D01*
X98857435Y-115755500D01*
X99109458Y-115717513D01*
X99353004Y-115642389D01*
X99582634Y-115531805D01*
X99793217Y-115388232D01*
X99980050Y-115214877D01*
X100138959Y-115015612D01*
X100266393Y-114794888D01*
X100359508Y-114557637D01*
X100416222Y-114309157D01*
X100435268Y-114055002D01*
X107025233Y-114055002D01*
X107044273Y-114309076D01*
X107044275Y-114309086D01*
X107100970Y-114557487D01*
X107100970Y-114557489D01*
X107194055Y-114794664D01*
X107194064Y-114794683D01*
X107321451Y-115015322D01*
X107321456Y-115015330D01*
X107457567Y-115186008D01*
X108240672Y-114402902D01*
X108302075Y-114482925D01*
X108382094Y-114544326D01*
X107600433Y-115325988D01*
X107667092Y-115387838D01*
X107877624Y-115531375D01*
X108107176Y-115641922D01*
X108350649Y-115717023D01*
X108350659Y-115717025D01*
X108602599Y-115754999D01*
X108602608Y-115755000D01*
X108857392Y-115755000D01*
X108857400Y-115754999D01*
X109109340Y-115717025D01*
X109109350Y-115717023D01*
X109352823Y-115641921D01*
X109582376Y-115531375D01*
X109792907Y-115387838D01*
X109859565Y-115325988D01*
X109077903Y-114544326D01*
X109157925Y-114482925D01*
X109219327Y-114402904D01*
X110002431Y-115186008D01*
X110138544Y-115015330D01*
X110265935Y-114794683D01*
X110265944Y-114794664D01*
X110359029Y-114557489D01*
X110359029Y-114557487D01*
X110415724Y-114309086D01*
X110415726Y-114309076D01*
X110434767Y-114055002D01*
X110434767Y-114054997D01*
X110415726Y-113800923D01*
X110415724Y-113800913D01*
X110359029Y-113552512D01*
X110359029Y-113552510D01*
X110265944Y-113315335D01*
X110265935Y-113315316D01*
X110138548Y-113094677D01*
X110138543Y-113094669D01*
X110002431Y-112923990D01*
X109219326Y-113707094D01*
X109157925Y-113627075D01*
X109077902Y-113565672D01*
X109859565Y-112784010D01*
X109792907Y-112722161D01*
X109582376Y-112578624D01*
X109352823Y-112468078D01*
X109109350Y-112392976D01*
X109109340Y-112392974D01*
X108857400Y-112355000D01*
X108602599Y-112355000D01*
X108350659Y-112392974D01*
X108350649Y-112392976D01*
X108107176Y-112468077D01*
X107877624Y-112578624D01*
X107667092Y-112722161D01*
X107600433Y-112784010D01*
X108382096Y-113565673D01*
X108302075Y-113627075D01*
X108240672Y-113707095D01*
X107457567Y-112923990D01*
X107321461Y-113094662D01*
X107321451Y-113094677D01*
X107194064Y-113315316D01*
X107194055Y-113315335D01*
X107100970Y-113552510D01*
X107100970Y-113552512D01*
X107044275Y-113800913D01*
X107044273Y-113800923D01*
X107025233Y-114054997D01*
X107025233Y-114055002D01*
X100435268Y-114055002D01*
X100435268Y-114055000D01*
X100416222Y-113800843D01*
X100359508Y-113552363D01*
X100266393Y-113315112D01*
X100138959Y-113094388D01*
X100138952Y-113094379D01*
X99980059Y-112895133D01*
X99980048Y-112895121D01*
X99793223Y-112721773D01*
X99793220Y-112721771D01*
X99793217Y-112721768D01*
X99582634Y-112578195D01*
X99353004Y-112467611D01*
X99109462Y-112392488D01*
X99109459Y-112392487D01*
X99109458Y-112392487D01*
X99109453Y-112392486D01*
X99109452Y-112392486D01*
X98857438Y-112354500D01*
X98857435Y-112354500D01*
X98602565Y-112354500D01*
X98602561Y-112354500D01*
X98350547Y-112392486D01*
X98350537Y-112392488D01*
X98106995Y-112467611D01*
X97877373Y-112578191D01*
X97877369Y-112578193D01*
X97877366Y-112578195D01*
X97666783Y-112721768D01*
X97666776Y-112721773D01*
X97479951Y-112895121D01*
X97479940Y-112895133D01*
X97321047Y-113094379D01*
X97321043Y-113094384D01*
X97321041Y-113094388D01*
X97259181Y-113201533D01*
X97193608Y-113315109D01*
X97193604Y-113315118D01*
X97100492Y-113552360D01*
X97043779Y-113800838D01*
X97043777Y-113800847D01*
X97024732Y-114054997D01*
X97024732Y-114055002D01*
X65405500Y-114055002D01*
X65405500Y-108885000D01*
X82869318Y-108885000D01*
X82889955Y-109041758D01*
X82889957Y-109041766D01*
X82950462Y-109187838D01*
X82950462Y-109187839D01*
X82950464Y-109187841D01*
X83046718Y-109313282D01*
X83172159Y-109409536D01*
X83318238Y-109470044D01*
X83435809Y-109485522D01*
X83474999Y-109490682D01*
X83475000Y-109490682D01*
X83475001Y-109490682D01*
X83506352Y-109486554D01*
X83631762Y-109470044D01*
X83777841Y-109409536D01*
X83903282Y-109313282D01*
X83999536Y-109187841D01*
X84060044Y-109041762D01*
X84080682Y-108885000D01*
X84060044Y-108728238D01*
X83999537Y-108582161D01*
X83999537Y-108582160D01*
X83945958Y-108512334D01*
X83925534Y-108454658D01*
X83925500Y-108452067D01*
X83925500Y-102482611D01*
X83944407Y-102424420D01*
X83954496Y-102412607D01*
X84612607Y-101754496D01*
X84667124Y-101726719D01*
X84682611Y-101725500D01*
X85502068Y-101725500D01*
X85560259Y-101744407D01*
X85562315Y-101745943D01*
X85632159Y-101799536D01*
X85632160Y-101799536D01*
X85632161Y-101799537D01*
X85668285Y-101814500D01*
X85778238Y-101860044D01*
X85895809Y-101875522D01*
X85934999Y-101880682D01*
X85935000Y-101880682D01*
X85935001Y-101880682D01*
X85966352Y-101876554D01*
X86091762Y-101860044D01*
X86237841Y-101799536D01*
X86262092Y-101780927D01*
X86319766Y-101760504D01*
X86378432Y-101777881D01*
X86392362Y-101789466D01*
X87164632Y-102561736D01*
X87172029Y-102570014D01*
X87195121Y-102598970D01*
X87242750Y-102631443D01*
X87245746Y-102633569D01*
X87292117Y-102667792D01*
X87292119Y-102667792D01*
X87298676Y-102671258D01*
X87298469Y-102671648D01*
X87300452Y-102672648D01*
X87300643Y-102672253D01*
X87307324Y-102675470D01*
X87307327Y-102675472D01*
X87362441Y-102692472D01*
X87365881Y-102693603D01*
X87420300Y-102712646D01*
X87420303Y-102712647D01*
X87427592Y-102714026D01*
X87427509Y-102714460D01*
X87429697Y-102714831D01*
X87429763Y-102714394D01*
X87437096Y-102715499D01*
X87437098Y-102715500D01*
X87494715Y-102715500D01*
X87498416Y-102715569D01*
X87500580Y-102715649D01*
X87556010Y-102717724D01*
X87556016Y-102717722D01*
X87563385Y-102716893D01*
X87563434Y-102717331D01*
X87577344Y-102715500D01*
X93402327Y-102715500D01*
X93460518Y-102734407D01*
X93489696Y-102767942D01*
X93510553Y-102807083D01*
X93510555Y-102807085D01*
X93556310Y-102859889D01*
X93556322Y-102859901D01*
X93573902Y-102877844D01*
X93573904Y-102877846D01*
X93653713Y-102922488D01*
X93653717Y-102922490D01*
X93720750Y-102942173D01*
X93720757Y-102942175D01*
X93778655Y-102950500D01*
X98616424Y-102950500D01*
X98674615Y-102969407D01*
X98708737Y-103013732D01*
X99962695Y-106250050D01*
X99964960Y-106255649D01*
X99967791Y-106262360D01*
X99979053Y-106280463D01*
X100001838Y-106317086D01*
X100001838Y-106317087D01*
X100047575Y-106369870D01*
X100047582Y-106369877D01*
X100047592Y-106369889D01*
X100047604Y-106369901D01*
X100065184Y-106387844D01*
X100065186Y-106387846D01*
X100144995Y-106432488D01*
X100144999Y-106432490D01*
X100186231Y-106444597D01*
X100212039Y-106452175D01*
X100269937Y-106460500D01*
X100269938Y-106460500D01*
X117870995Y-106460500D01*
X117871000Y-106460500D01*
X117914684Y-106455803D01*
X117966195Y-106444597D01*
X117976373Y-106442110D01*
X118057085Y-106399100D01*
X118109889Y-106353345D01*
X118127843Y-106335754D01*
X118127844Y-106335751D01*
X118127846Y-106335750D01*
X118172488Y-106255941D01*
X118172490Y-106255937D01*
X118192173Y-106188904D01*
X118192175Y-106188898D01*
X118200500Y-106131000D01*
X118200500Y-97609000D01*
X118195803Y-97565316D01*
X118184597Y-97513805D01*
X118182110Y-97503627D01*
X118139100Y-97422915D01*
X118093345Y-97370111D01*
X118075754Y-97352157D01*
X118075753Y-97352156D01*
X118075752Y-97352155D01*
X118075750Y-97352153D01*
X117995941Y-97307511D01*
X117995937Y-97307509D01*
X117928904Y-97287826D01*
X117928895Y-97287824D01*
X117882684Y-97281180D01*
X117871000Y-97279500D01*
X117870999Y-97279500D01*
X113301169Y-97279500D01*
X113242978Y-97260593D01*
X113207014Y-97211093D01*
X113202170Y-97179959D01*
X113204343Y-96782226D01*
X113210422Y-95669746D01*
X114724500Y-95669746D01*
X114724501Y-95669758D01*
X114736132Y-95728227D01*
X114736134Y-95728233D01*
X114751256Y-95750864D01*
X114780448Y-95794552D01*
X114846769Y-95838867D01*
X114888250Y-95847118D01*
X114905241Y-95850498D01*
X114905246Y-95850498D01*
X114905252Y-95850500D01*
X114905253Y-95850500D01*
X116644747Y-95850500D01*
X116644748Y-95850500D01*
X116703231Y-95838867D01*
X116769552Y-95794552D01*
X116813867Y-95728231D01*
X116825500Y-95669748D01*
X116825500Y-93930252D01*
X116813867Y-93871769D01*
X116769552Y-93805448D01*
X116769548Y-93805445D01*
X116703233Y-93761134D01*
X116703231Y-93761133D01*
X116703228Y-93761132D01*
X116703227Y-93761132D01*
X116644758Y-93749501D01*
X116644748Y-93749500D01*
X114905252Y-93749500D01*
X114905251Y-93749500D01*
X114905241Y-93749501D01*
X114846772Y-93761132D01*
X114846766Y-93761134D01*
X114780451Y-93805445D01*
X114780445Y-93805451D01*
X114736134Y-93871766D01*
X114736132Y-93871772D01*
X114724501Y-93930241D01*
X114724500Y-93930253D01*
X114724500Y-95669746D01*
X113210422Y-95669746D01*
X113228509Y-92360000D01*
X114729767Y-92360000D01*
X114740190Y-92465831D01*
X114740191Y-92465836D01*
X114800232Y-92663762D01*
X114800234Y-92663767D01*
X114897724Y-92846160D01*
X114897731Y-92846170D01*
X115028940Y-93006050D01*
X115028949Y-93006059D01*
X115188829Y-93137268D01*
X115188839Y-93137275D01*
X115371232Y-93234765D01*
X115371237Y-93234767D01*
X115569166Y-93294808D01*
X115674998Y-93305231D01*
X115675000Y-93305230D01*
X115675000Y-92750764D01*
X115739237Y-92760000D01*
X115810763Y-92760000D01*
X115875000Y-92750764D01*
X115875000Y-93305230D01*
X115875001Y-93305231D01*
X115980833Y-93294808D01*
X116178762Y-93234767D01*
X116178767Y-93234765D01*
X116361160Y-93137275D01*
X116361170Y-93137268D01*
X116521050Y-93006059D01*
X116521059Y-93006050D01*
X116652268Y-92846170D01*
X116652275Y-92846160D01*
X116749765Y-92663767D01*
X116749767Y-92663762D01*
X116809808Y-92465836D01*
X116809809Y-92465831D01*
X116820232Y-92360000D01*
X116266746Y-92360000D01*
X116275000Y-92331889D01*
X116275000Y-92188111D01*
X116266746Y-92160000D01*
X116820232Y-92160000D01*
X116820232Y-92159999D01*
X116809809Y-92054168D01*
X116809808Y-92054163D01*
X116749767Y-91856237D01*
X116749765Y-91856232D01*
X116652275Y-91673839D01*
X116652268Y-91673829D01*
X116521059Y-91513949D01*
X116521050Y-91513940D01*
X116361170Y-91382731D01*
X116361160Y-91382724D01*
X116178767Y-91285234D01*
X116178762Y-91285232D01*
X115980836Y-91225191D01*
X115980831Y-91225190D01*
X115875000Y-91214767D01*
X115875000Y-91769235D01*
X115810763Y-91760000D01*
X115739237Y-91760000D01*
X115675000Y-91769235D01*
X115675000Y-91214767D01*
X115674999Y-91214767D01*
X115569168Y-91225190D01*
X115569163Y-91225191D01*
X115371237Y-91285232D01*
X115371232Y-91285234D01*
X115188839Y-91382724D01*
X115188829Y-91382731D01*
X115028949Y-91513940D01*
X115028940Y-91513949D01*
X114897731Y-91673829D01*
X114897724Y-91673839D01*
X114800234Y-91856232D01*
X114800232Y-91856237D01*
X114740191Y-92054163D01*
X114740190Y-92054168D01*
X114729767Y-92159999D01*
X114729768Y-92160000D01*
X115283254Y-92160000D01*
X115275000Y-92188111D01*
X115275000Y-92331889D01*
X115283254Y-92360000D01*
X114729767Y-92360000D01*
X113228509Y-92360000D01*
X113229816Y-92120801D01*
X113225241Y-92076544D01*
X113214037Y-92024355D01*
X113211431Y-92013627D01*
X113168421Y-91932915D01*
X113122666Y-91880111D01*
X113105075Y-91862157D01*
X113105074Y-91862156D01*
X113105073Y-91862155D01*
X113105071Y-91862153D01*
X113025262Y-91817511D01*
X113025258Y-91817509D01*
X112958225Y-91797826D01*
X112958216Y-91797824D01*
X112912005Y-91791180D01*
X112900321Y-91789500D01*
X93749347Y-91789500D01*
X93749341Y-91789500D01*
X93705395Y-91794256D01*
X93705373Y-91794260D01*
X93674467Y-91801028D01*
X93653558Y-91805608D01*
X93653547Y-91805610D01*
X93653541Y-91805612D01*
X93643109Y-91808184D01*
X93643100Y-91808187D01*
X93562517Y-91851418D01*
X93562515Y-91851419D01*
X93562514Y-91851420D01*
X93529604Y-91880098D01*
X93509840Y-91897320D01*
X93491930Y-91914965D01*
X93447510Y-91994901D01*
X93447507Y-91994906D01*
X93428010Y-92061998D01*
X93428010Y-92062000D01*
X93419848Y-92119908D01*
X93419848Y-92119909D01*
X93419848Y-92119918D01*
X93419848Y-92119919D01*
X93444272Y-100871902D01*
X93446626Y-101715224D01*
X93427881Y-101773467D01*
X93378481Y-101809569D01*
X93347626Y-101814500D01*
X87732611Y-101814500D01*
X87674420Y-101795593D01*
X87662607Y-101785504D01*
X86855366Y-100978263D01*
X86847978Y-100969995D01*
X86824879Y-100941030D01*
X86777258Y-100908562D01*
X86774241Y-100906421D01*
X86727881Y-100872206D01*
X86721322Y-100868740D01*
X86721526Y-100868352D01*
X86719544Y-100867352D01*
X86719355Y-100867746D01*
X86712670Y-100864526D01*
X86657596Y-100847538D01*
X86654082Y-100846382D01*
X86599702Y-100827355D01*
X86599701Y-100827354D01*
X86599699Y-100827354D01*
X86599696Y-100827353D01*
X86592414Y-100825976D01*
X86592495Y-100825544D01*
X86590302Y-100825171D01*
X86590237Y-100825605D01*
X86582903Y-100824500D01*
X86582902Y-100824500D01*
X86525284Y-100824500D01*
X86521583Y-100824431D01*
X86486198Y-100823107D01*
X86463990Y-100822276D01*
X86463989Y-100822276D01*
X86456615Y-100823107D01*
X86456565Y-100822668D01*
X86442656Y-100824500D01*
X86367932Y-100824500D01*
X86309741Y-100805593D01*
X86307684Y-100804056D01*
X86237841Y-100750464D01*
X86237840Y-100750463D01*
X86237838Y-100750462D01*
X86091766Y-100689957D01*
X86091758Y-100689955D01*
X85935001Y-100669318D01*
X85934999Y-100669318D01*
X85778241Y-100689955D01*
X85778233Y-100689957D01*
X85632161Y-100750462D01*
X85593994Y-100779748D01*
X85562334Y-100804042D01*
X85504659Y-100824466D01*
X85502068Y-100824500D01*
X84485864Y-100824500D01*
X84474781Y-100823878D01*
X84437966Y-100819730D01*
X84437965Y-100819730D01*
X84416042Y-100823878D01*
X84381337Y-100830444D01*
X84377690Y-100831063D01*
X84320713Y-100839651D01*
X84313628Y-100841837D01*
X84313498Y-100841418D01*
X84311381Y-100842115D01*
X84311526Y-100842529D01*
X84304529Y-100844976D01*
X84304528Y-100844977D01*
X84304526Y-100844977D01*
X84304523Y-100844979D01*
X84253583Y-100871902D01*
X84250279Y-100873570D01*
X84198360Y-100898573D01*
X84192229Y-100902754D01*
X84191982Y-100902392D01*
X84190169Y-100903678D01*
X84190430Y-100904031D01*
X84184458Y-100908438D01*
X84143732Y-100949163D01*
X84141069Y-100951729D01*
X84098802Y-100990947D01*
X84094181Y-100996743D01*
X84093837Y-100996469D01*
X84085295Y-101007600D01*
X83178265Y-101914630D01*
X83169988Y-101922026D01*
X83141030Y-101945119D01*
X83141029Y-101945120D01*
X83108556Y-101992748D01*
X83106416Y-101995764D01*
X83072207Y-102042116D01*
X83068742Y-102048674D01*
X83068353Y-102048468D01*
X83067350Y-102050455D01*
X83067746Y-102050646D01*
X83064526Y-102057332D01*
X83047536Y-102112410D01*
X83046380Y-102115923D01*
X83027355Y-102170295D01*
X83025976Y-102177587D01*
X83025544Y-102177505D01*
X83025171Y-102179700D01*
X83025605Y-102179766D01*
X83024500Y-102187099D01*
X83024500Y-102244715D01*
X83024431Y-102248416D01*
X83022276Y-102306010D01*
X83023107Y-102313385D01*
X83022668Y-102313434D01*
X83024500Y-102327344D01*
X83024500Y-108452067D01*
X83005593Y-108510258D01*
X83004042Y-108512334D01*
X82950462Y-108582160D01*
X82950462Y-108582161D01*
X82889957Y-108728233D01*
X82889955Y-108728241D01*
X82869318Y-108884999D01*
X82869318Y-108885000D01*
X65405500Y-108885000D01*
X65405500Y-107620100D01*
X66959600Y-107620100D01*
X66971203Y-107678436D01*
X67015406Y-107744589D01*
X67015410Y-107744593D01*
X67081563Y-107788796D01*
X67139899Y-107800399D01*
X67139903Y-107800400D01*
X67909599Y-107800400D01*
X67909600Y-107800399D01*
X67909600Y-107241164D01*
X67973837Y-107250400D01*
X68045363Y-107250400D01*
X68109600Y-107241164D01*
X68109600Y-107800399D01*
X68109601Y-107800400D01*
X68879297Y-107800400D01*
X68879300Y-107800399D01*
X68937636Y-107788796D01*
X69003789Y-107744593D01*
X69003793Y-107744589D01*
X69047996Y-107678436D01*
X69059599Y-107620100D01*
X69059600Y-107620097D01*
X69059600Y-106850401D01*
X69059599Y-106850400D01*
X68501346Y-106850400D01*
X68509600Y-106822289D01*
X68509600Y-106678511D01*
X68501346Y-106650400D01*
X69059599Y-106650400D01*
X69059600Y-106650399D01*
X69059600Y-105880702D01*
X69059599Y-105880699D01*
X69047996Y-105822363D01*
X69003793Y-105756210D01*
X69003789Y-105756206D01*
X68937636Y-105712003D01*
X68879300Y-105700400D01*
X68109601Y-105700400D01*
X68109600Y-105700401D01*
X68109600Y-106259635D01*
X68045363Y-106250400D01*
X67973837Y-106250400D01*
X67909600Y-106259635D01*
X67909600Y-105700401D01*
X67909599Y-105700400D01*
X67139899Y-105700400D01*
X67081563Y-105712003D01*
X67015410Y-105756206D01*
X67015406Y-105756210D01*
X66971203Y-105822363D01*
X66959600Y-105880699D01*
X66959600Y-106650399D01*
X66959601Y-106650400D01*
X67517854Y-106650400D01*
X67509600Y-106678511D01*
X67509600Y-106822289D01*
X67517854Y-106850400D01*
X66959601Y-106850400D01*
X66959600Y-106850401D01*
X66959600Y-107620100D01*
X65405500Y-107620100D01*
X65405500Y-104210403D01*
X66954017Y-104210403D01*
X66974298Y-104416329D01*
X66974299Y-104416334D01*
X67034368Y-104614354D01*
X67131916Y-104796852D01*
X67263185Y-104956804D01*
X67263190Y-104956810D01*
X67263195Y-104956814D01*
X67423147Y-105088083D01*
X67423148Y-105088083D01*
X67423150Y-105088085D01*
X67605646Y-105185632D01*
X67743597Y-105227478D01*
X67803665Y-105245700D01*
X67803670Y-105245701D01*
X68009597Y-105265983D01*
X68009600Y-105265983D01*
X68009603Y-105265983D01*
X68215529Y-105245701D01*
X68215534Y-105245700D01*
X68413554Y-105185632D01*
X68596050Y-105088085D01*
X68756010Y-104956810D01*
X68887285Y-104796850D01*
X68984832Y-104614354D01*
X69044900Y-104416334D01*
X69044901Y-104416329D01*
X69065183Y-104210403D01*
X69065183Y-104210396D01*
X69044901Y-104004470D01*
X69044900Y-104004465D01*
X69026678Y-103944397D01*
X68984832Y-103806446D01*
X68887285Y-103623950D01*
X68756010Y-103463990D01*
X68756004Y-103463985D01*
X68596052Y-103332716D01*
X68413554Y-103235168D01*
X68215534Y-103175099D01*
X68215529Y-103175098D01*
X68009603Y-103154817D01*
X68009597Y-103154817D01*
X67803670Y-103175098D01*
X67803665Y-103175099D01*
X67605645Y-103235168D01*
X67423147Y-103332716D01*
X67263195Y-103463985D01*
X67263185Y-103463995D01*
X67131916Y-103623947D01*
X67034368Y-103806445D01*
X66974299Y-104004465D01*
X66974298Y-104004470D01*
X66954017Y-104210396D01*
X66954017Y-104210403D01*
X65405500Y-104210403D01*
X65405500Y-98775400D01*
X74478918Y-98775400D01*
X74499555Y-98932158D01*
X74499557Y-98932166D01*
X74560062Y-99078238D01*
X74560062Y-99078239D01*
X74560064Y-99078241D01*
X74656318Y-99203682D01*
X74781759Y-99299936D01*
X74927838Y-99360444D01*
X75045409Y-99375922D01*
X75084599Y-99381082D01*
X75084600Y-99381082D01*
X75084601Y-99381082D01*
X75115952Y-99376954D01*
X75241362Y-99360444D01*
X75387441Y-99299936D01*
X75512882Y-99203682D01*
X75609136Y-99078241D01*
X75669644Y-98932162D01*
X75690282Y-98775400D01*
X75669644Y-98618638D01*
X75609137Y-98472561D01*
X75609137Y-98472560D01*
X75512886Y-98347123D01*
X75512885Y-98347122D01*
X75512882Y-98347118D01*
X75508603Y-98343834D01*
X75476231Y-98318994D01*
X75441576Y-98268569D01*
X75437500Y-98240453D01*
X75437500Y-96810345D01*
X75456407Y-96752154D01*
X75476231Y-96731804D01*
X75512882Y-96703682D01*
X75609136Y-96578241D01*
X75669644Y-96432162D01*
X75690282Y-96275400D01*
X75669644Y-96118638D01*
X75609137Y-95972561D01*
X75609137Y-95972560D01*
X75512886Y-95847123D01*
X75512885Y-95847122D01*
X75512882Y-95847118D01*
X75512877Y-95847114D01*
X75512876Y-95847113D01*
X75387438Y-95750862D01*
X75241366Y-95690357D01*
X75241358Y-95690355D01*
X75084601Y-95669718D01*
X75084599Y-95669718D01*
X74927841Y-95690355D01*
X74927833Y-95690357D01*
X74781761Y-95750862D01*
X74781760Y-95750862D01*
X74656323Y-95847113D01*
X74656313Y-95847123D01*
X74560062Y-95972560D01*
X74560062Y-95972561D01*
X74499557Y-96118633D01*
X74499555Y-96118641D01*
X74478918Y-96275399D01*
X74478918Y-96275400D01*
X74499555Y-96432158D01*
X74499557Y-96432166D01*
X74560062Y-96578238D01*
X74560062Y-96578239D01*
X74560064Y-96578241D01*
X74656318Y-96703682D01*
X74692966Y-96731803D01*
X74727623Y-96782226D01*
X74731700Y-96810345D01*
X74731700Y-98240453D01*
X74712793Y-98298644D01*
X74692969Y-98318994D01*
X74656321Y-98347115D01*
X74656313Y-98347123D01*
X74560062Y-98472560D01*
X74560062Y-98472561D01*
X74499557Y-98618633D01*
X74499555Y-98618641D01*
X74478918Y-98775399D01*
X74478918Y-98775400D01*
X65405500Y-98775400D01*
X65405500Y-91049700D01*
X67515000Y-91049700D01*
X67526603Y-91108036D01*
X67570806Y-91174189D01*
X67570810Y-91174193D01*
X67636963Y-91218396D01*
X67695299Y-91229999D01*
X67695303Y-91230000D01*
X68464999Y-91230000D01*
X68465000Y-91229999D01*
X68465000Y-90670764D01*
X68529237Y-90680000D01*
X68600763Y-90680000D01*
X68665000Y-90670764D01*
X68665000Y-91229999D01*
X68665001Y-91230000D01*
X69434697Y-91230000D01*
X69434700Y-91229999D01*
X69493036Y-91218396D01*
X69559189Y-91174193D01*
X69559193Y-91174189D01*
X69603396Y-91108036D01*
X69614999Y-91049700D01*
X69615000Y-91049697D01*
X69615000Y-90280001D01*
X69614999Y-90280000D01*
X69056746Y-90280000D01*
X69065000Y-90251889D01*
X69065000Y-90175003D01*
X73549417Y-90175003D01*
X73569698Y-90380929D01*
X73569699Y-90380934D01*
X73629768Y-90578954D01*
X73727316Y-90761452D01*
X73811091Y-90863532D01*
X73858590Y-90921410D01*
X73858595Y-90921414D01*
X74018547Y-91052683D01*
X74018548Y-91052683D01*
X74018550Y-91052685D01*
X74201046Y-91150232D01*
X74338997Y-91192078D01*
X74399065Y-91210300D01*
X74399070Y-91210301D01*
X74604997Y-91230583D01*
X74605000Y-91230583D01*
X74605003Y-91230583D01*
X74810929Y-91210301D01*
X74810934Y-91210300D01*
X75008954Y-91150232D01*
X75191450Y-91052685D01*
X75351410Y-90921410D01*
X75482685Y-90761450D01*
X75580232Y-90578954D01*
X75640300Y-90380934D01*
X75640301Y-90380929D01*
X75660583Y-90175003D01*
X75660583Y-90174996D01*
X75640301Y-89969070D01*
X75640300Y-89969065D01*
X75589874Y-89802833D01*
X75580232Y-89771046D01*
X75482685Y-89588550D01*
X75384646Y-89469089D01*
X75351414Y-89428595D01*
X75351410Y-89428590D01*
X75351404Y-89428585D01*
X75191452Y-89297316D01*
X75008954Y-89199768D01*
X74810934Y-89139699D01*
X74810929Y-89139698D01*
X74605003Y-89119417D01*
X74604997Y-89119417D01*
X74399070Y-89139698D01*
X74399065Y-89139699D01*
X74201045Y-89199768D01*
X74018547Y-89297316D01*
X73858595Y-89428585D01*
X73858585Y-89428595D01*
X73727316Y-89588547D01*
X73629768Y-89771045D01*
X73569699Y-89969065D01*
X73569698Y-89969070D01*
X73549417Y-90174996D01*
X73549417Y-90175003D01*
X69065000Y-90175003D01*
X69065000Y-90108111D01*
X69056746Y-90080000D01*
X69614999Y-90080000D01*
X69615000Y-90079999D01*
X69615000Y-89310302D01*
X69614999Y-89310299D01*
X69603396Y-89251963D01*
X69559193Y-89185810D01*
X69559189Y-89185806D01*
X69493036Y-89141603D01*
X69434700Y-89130000D01*
X68665001Y-89130000D01*
X68665000Y-89130001D01*
X68665000Y-89689235D01*
X68600763Y-89680000D01*
X68529237Y-89680000D01*
X68465000Y-89689235D01*
X68465000Y-89130001D01*
X68464999Y-89130000D01*
X67695299Y-89130000D01*
X67636963Y-89141603D01*
X67570810Y-89185806D01*
X67570806Y-89185810D01*
X67526603Y-89251963D01*
X67515000Y-89310299D01*
X67515000Y-90079999D01*
X67515001Y-90080000D01*
X68073254Y-90080000D01*
X68065000Y-90108111D01*
X68065000Y-90251889D01*
X68073254Y-90280000D01*
X67515001Y-90280000D01*
X67515000Y-90280001D01*
X67515000Y-91049700D01*
X65405500Y-91049700D01*
X65405500Y-89115000D01*
X81309430Y-89115000D01*
X81328838Y-89299659D01*
X81329657Y-89307442D01*
X81389448Y-89491458D01*
X81389454Y-89491472D01*
X81445501Y-89588547D01*
X81486198Y-89659036D01*
X81615673Y-89802833D01*
X81772215Y-89916567D01*
X81823367Y-89939340D01*
X81868836Y-89980279D01*
X81882100Y-90029781D01*
X81882100Y-106177059D01*
X81863193Y-106235250D01*
X81820986Y-106268523D01*
X81792160Y-106280463D01*
X81666723Y-106376713D01*
X81666713Y-106376723D01*
X81570462Y-106502160D01*
X81570462Y-106502161D01*
X81509957Y-106648233D01*
X81509955Y-106648241D01*
X81489318Y-106804999D01*
X81489318Y-106805000D01*
X81509955Y-106961758D01*
X81509957Y-106961766D01*
X81570462Y-107107838D01*
X81570462Y-107107839D01*
X81666713Y-107233276D01*
X81666718Y-107233282D01*
X81792159Y-107329536D01*
X81938238Y-107390044D01*
X82055809Y-107405522D01*
X82094999Y-107410682D01*
X82095000Y-107410682D01*
X82095001Y-107410682D01*
X82126352Y-107406554D01*
X82251762Y-107390044D01*
X82397841Y-107329536D01*
X82523282Y-107233282D01*
X82619536Y-107107841D01*
X82680044Y-106961762D01*
X82700682Y-106805000D01*
X82680044Y-106648238D01*
X82619536Y-106502159D01*
X82608357Y-106487590D01*
X82587934Y-106429914D01*
X82587900Y-106427324D01*
X82587900Y-90305003D01*
X109079659Y-90305003D01*
X109098974Y-90501126D01*
X109098975Y-90501129D01*
X109156187Y-90689730D01*
X109156188Y-90689732D01*
X109194524Y-90761452D01*
X109249090Y-90863538D01*
X109249092Y-90863540D01*
X109249093Y-90863542D01*
X109374112Y-91015878D01*
X109374121Y-91015887D01*
X109486405Y-91108036D01*
X109526462Y-91140910D01*
X109656281Y-91210300D01*
X109693137Y-91230000D01*
X109700273Y-91233814D01*
X109888868Y-91291024D01*
X109888870Y-91291024D01*
X109888873Y-91291025D01*
X110084997Y-91310341D01*
X110085000Y-91310341D01*
X110085003Y-91310341D01*
X110281126Y-91291025D01*
X110281127Y-91291024D01*
X110281132Y-91291024D01*
X110469727Y-91233814D01*
X110643538Y-91140910D01*
X110795883Y-91015883D01*
X110920910Y-90863538D01*
X111013814Y-90689727D01*
X111071024Y-90501132D01*
X111082863Y-90380934D01*
X111090341Y-90305003D01*
X111090341Y-90304996D01*
X111071025Y-90108873D01*
X111071024Y-90108870D01*
X111071024Y-90108868D01*
X111013814Y-89920273D01*
X110920910Y-89746462D01*
X110849161Y-89659036D01*
X110795887Y-89594121D01*
X110795878Y-89594112D01*
X110643542Y-89469093D01*
X110643536Y-89469089D01*
X110499362Y-89392026D01*
X110456956Y-89347920D01*
X110448573Y-89287312D01*
X110477416Y-89233351D01*
X110499363Y-89217406D01*
X110643253Y-89140495D01*
X110643258Y-89140492D01*
X110717852Y-89079274D01*
X110288712Y-88650134D01*
X110323045Y-88632641D01*
X110412641Y-88543045D01*
X110430134Y-88508712D01*
X110859274Y-88937852D01*
X110920492Y-88863258D01*
X110920495Y-88863253D01*
X111013347Y-88689540D01*
X111013351Y-88689532D01*
X111070531Y-88501034D01*
X111070532Y-88501029D01*
X111089839Y-88305000D01*
X111089839Y-88304996D01*
X111072081Y-88124700D01*
X113870000Y-88124700D01*
X113881603Y-88183036D01*
X113925806Y-88249189D01*
X113925810Y-88249193D01*
X113991963Y-88293396D01*
X114050299Y-88304999D01*
X114050303Y-88305000D01*
X114819999Y-88305000D01*
X114820000Y-88304999D01*
X114820000Y-87745764D01*
X114884237Y-87755000D01*
X114955763Y-87755000D01*
X115020000Y-87745764D01*
X115020000Y-88304999D01*
X115020001Y-88305000D01*
X115789697Y-88305000D01*
X115789700Y-88304999D01*
X115848036Y-88293396D01*
X115914189Y-88249193D01*
X115914193Y-88249189D01*
X115958396Y-88183036D01*
X115969999Y-88124700D01*
X115970000Y-88124697D01*
X115970000Y-87355001D01*
X115969999Y-87355000D01*
X116414767Y-87355000D01*
X116425190Y-87460831D01*
X116425191Y-87460836D01*
X116485232Y-87658762D01*
X116485234Y-87658767D01*
X116582724Y-87841160D01*
X116582731Y-87841170D01*
X116713940Y-88001050D01*
X116713949Y-88001059D01*
X116873829Y-88132268D01*
X116873839Y-88132275D01*
X117056232Y-88229765D01*
X117056237Y-88229767D01*
X117254166Y-88289808D01*
X117359998Y-88300231D01*
X117360000Y-88300230D01*
X117360000Y-87745764D01*
X117424237Y-87755000D01*
X117495763Y-87755000D01*
X117560000Y-87745764D01*
X117560000Y-88300230D01*
X117560001Y-88300231D01*
X117665833Y-88289808D01*
X117863762Y-88229767D01*
X117863767Y-88229765D01*
X118046160Y-88132275D01*
X118046170Y-88132268D01*
X118206050Y-88001059D01*
X118206059Y-88001050D01*
X118337268Y-87841170D01*
X118337275Y-87841160D01*
X118434765Y-87658767D01*
X118434767Y-87658762D01*
X118494808Y-87460836D01*
X118494809Y-87460831D01*
X118505232Y-87355000D01*
X117951746Y-87355000D01*
X117960000Y-87326889D01*
X117960000Y-87183111D01*
X117951746Y-87155000D01*
X118505232Y-87155000D01*
X118505232Y-87154999D01*
X118494809Y-87049168D01*
X118494808Y-87049163D01*
X118434767Y-86851237D01*
X118434765Y-86851232D01*
X118337275Y-86668839D01*
X118337268Y-86668829D01*
X118206059Y-86508949D01*
X118206050Y-86508940D01*
X118046170Y-86377731D01*
X118046160Y-86377724D01*
X117863767Y-86280234D01*
X117863762Y-86280232D01*
X117665836Y-86220191D01*
X117665831Y-86220190D01*
X117560000Y-86209767D01*
X117560000Y-86764235D01*
X117495763Y-86755000D01*
X117424237Y-86755000D01*
X117360000Y-86764235D01*
X117360000Y-86209767D01*
X117359999Y-86209767D01*
X117254168Y-86220190D01*
X117254163Y-86220191D01*
X117056237Y-86280232D01*
X117056232Y-86280234D01*
X116873839Y-86377724D01*
X116873829Y-86377731D01*
X116713949Y-86508940D01*
X116713940Y-86508949D01*
X116582731Y-86668829D01*
X116582724Y-86668839D01*
X116485234Y-86851232D01*
X116485232Y-86851237D01*
X116425191Y-87049163D01*
X116425190Y-87049168D01*
X116414767Y-87154999D01*
X116414768Y-87155000D01*
X116968254Y-87155000D01*
X116960000Y-87183111D01*
X116960000Y-87326889D01*
X116968254Y-87355000D01*
X116414767Y-87355000D01*
X115969999Y-87355000D01*
X115411746Y-87355000D01*
X115420000Y-87326889D01*
X115420000Y-87183111D01*
X115411746Y-87155000D01*
X115969999Y-87155000D01*
X115970000Y-87154999D01*
X115970000Y-86385302D01*
X115969999Y-86385299D01*
X115958396Y-86326963D01*
X115914193Y-86260810D01*
X115914189Y-86260806D01*
X115848036Y-86216603D01*
X115789700Y-86205000D01*
X115020001Y-86205000D01*
X115020000Y-86205001D01*
X115020000Y-86764235D01*
X114955763Y-86755000D01*
X114884237Y-86755000D01*
X114820000Y-86764235D01*
X114820000Y-86205001D01*
X114819999Y-86205000D01*
X114050299Y-86205000D01*
X113991963Y-86216603D01*
X113925810Y-86260806D01*
X113925806Y-86260810D01*
X113881603Y-86326963D01*
X113870000Y-86385299D01*
X113870000Y-87154999D01*
X113870001Y-87155000D01*
X114428254Y-87155000D01*
X114420000Y-87183111D01*
X114420000Y-87326889D01*
X114428254Y-87355000D01*
X113870001Y-87355000D01*
X113870000Y-87355001D01*
X113870000Y-88124700D01*
X111072081Y-88124700D01*
X111070532Y-88108970D01*
X111070531Y-88108965D01*
X111013349Y-87920464D01*
X111013347Y-87920459D01*
X110920497Y-87746747D01*
X110920493Y-87746741D01*
X110859274Y-87672146D01*
X110430133Y-88101286D01*
X110412641Y-88066955D01*
X110323045Y-87977359D01*
X110288711Y-87959864D01*
X110717852Y-87530724D01*
X110643257Y-87469506D01*
X110643251Y-87469502D01*
X110469540Y-87376652D01*
X110469535Y-87376650D01*
X110281034Y-87319468D01*
X110281029Y-87319467D01*
X110085003Y-87300161D01*
X110084997Y-87300161D01*
X109888970Y-87319467D01*
X109888965Y-87319468D01*
X109700464Y-87376650D01*
X109700459Y-87376652D01*
X109526747Y-87469503D01*
X109526737Y-87469509D01*
X109452146Y-87530724D01*
X109881287Y-87959865D01*
X109846955Y-87977359D01*
X109757359Y-88066955D01*
X109739865Y-88101287D01*
X109310724Y-87672146D01*
X109249509Y-87746737D01*
X109249503Y-87746747D01*
X109156652Y-87920459D01*
X109156650Y-87920464D01*
X109099468Y-88108965D01*
X109099467Y-88108970D01*
X109080161Y-88304996D01*
X109080161Y-88305000D01*
X109099467Y-88501029D01*
X109099468Y-88501034D01*
X109156649Y-88689532D01*
X109156652Y-88689540D01*
X109249502Y-88863251D01*
X109249506Y-88863257D01*
X109310724Y-88937852D01*
X109739864Y-88508711D01*
X109757359Y-88543045D01*
X109846955Y-88632641D01*
X109881286Y-88650133D01*
X109452146Y-89079274D01*
X109526740Y-89140492D01*
X109670636Y-89217405D01*
X109713043Y-89261511D01*
X109721426Y-89322119D01*
X109692584Y-89376080D01*
X109670637Y-89392026D01*
X109526463Y-89469089D01*
X109526457Y-89469093D01*
X109374121Y-89594112D01*
X109374112Y-89594121D01*
X109249093Y-89746457D01*
X109249087Y-89746467D01*
X109156188Y-89920267D01*
X109156187Y-89920269D01*
X109098975Y-90108870D01*
X109098974Y-90108873D01*
X109079659Y-90304996D01*
X109079659Y-90305003D01*
X82587900Y-90305003D01*
X82587900Y-90029781D01*
X82606807Y-89971590D01*
X82646632Y-89939341D01*
X82697785Y-89916567D01*
X82854327Y-89802833D01*
X82983802Y-89659036D01*
X83080550Y-89491463D01*
X83140344Y-89307437D01*
X83160570Y-89115000D01*
X83849430Y-89115000D01*
X83868838Y-89299659D01*
X83869657Y-89307442D01*
X83929448Y-89491458D01*
X83929454Y-89491472D01*
X83985501Y-89588547D01*
X84026198Y-89659036D01*
X84155673Y-89802833D01*
X84312215Y-89916567D01*
X84312219Y-89916569D01*
X84312221Y-89916570D01*
X84363362Y-89939339D01*
X84488983Y-89995269D01*
X84678252Y-90035500D01*
X84678254Y-90035500D01*
X84871746Y-90035500D01*
X84871748Y-90035500D01*
X85061017Y-89995269D01*
X85237785Y-89916567D01*
X85394327Y-89802833D01*
X85523802Y-89659036D01*
X85620550Y-89491463D01*
X85680344Y-89307437D01*
X85700570Y-89115000D01*
X86389430Y-89115000D01*
X86408838Y-89299659D01*
X86409657Y-89307442D01*
X86469448Y-89491458D01*
X86469454Y-89491472D01*
X86525501Y-89588547D01*
X86566198Y-89659036D01*
X86695673Y-89802833D01*
X86852215Y-89916567D01*
X86852219Y-89916569D01*
X86852221Y-89916570D01*
X86903362Y-89939339D01*
X87028983Y-89995269D01*
X87218252Y-90035500D01*
X87218254Y-90035500D01*
X87411746Y-90035500D01*
X87411748Y-90035500D01*
X87601017Y-89995269D01*
X87777785Y-89916567D01*
X87934327Y-89802833D01*
X88063802Y-89659036D01*
X88160550Y-89491463D01*
X88220344Y-89307437D01*
X88240570Y-89115000D01*
X88220344Y-88922563D01*
X88160550Y-88738537D01*
X88160547Y-88738532D01*
X88160545Y-88738527D01*
X88097629Y-88629554D01*
X88063802Y-88570964D01*
X87934327Y-88427167D01*
X87777785Y-88313433D01*
X87777781Y-88313431D01*
X87777778Y-88313429D01*
X87601019Y-88234732D01*
X87601017Y-88234731D01*
X87601014Y-88234730D01*
X87601013Y-88234730D01*
X87551707Y-88224249D01*
X87411748Y-88194500D01*
X87218252Y-88194500D01*
X87116072Y-88216219D01*
X87028986Y-88234730D01*
X87028980Y-88234732D01*
X86852221Y-88313429D01*
X86852218Y-88313431D01*
X86695671Y-88427168D01*
X86566196Y-88570966D01*
X86566196Y-88570967D01*
X86469454Y-88738527D01*
X86469448Y-88738541D01*
X86409657Y-88922557D01*
X86409656Y-88922561D01*
X86409656Y-88922563D01*
X86389430Y-89115000D01*
X85700570Y-89115000D01*
X85680344Y-88922563D01*
X85620550Y-88738537D01*
X85620547Y-88738532D01*
X85620545Y-88738527D01*
X85557629Y-88629554D01*
X85523802Y-88570964D01*
X85394327Y-88427167D01*
X85237785Y-88313433D01*
X85237781Y-88313431D01*
X85237778Y-88313429D01*
X85061019Y-88234732D01*
X85061017Y-88234731D01*
X85061014Y-88234730D01*
X85061013Y-88234730D01*
X85011707Y-88224249D01*
X84871748Y-88194500D01*
X84678252Y-88194500D01*
X84576072Y-88216219D01*
X84488986Y-88234730D01*
X84488980Y-88234732D01*
X84312221Y-88313429D01*
X84312218Y-88313431D01*
X84155671Y-88427168D01*
X84026196Y-88570966D01*
X84026196Y-88570967D01*
X83929454Y-88738527D01*
X83929448Y-88738541D01*
X83869657Y-88922557D01*
X83869656Y-88922561D01*
X83869656Y-88922563D01*
X83849430Y-89115000D01*
X83160570Y-89115000D01*
X83140344Y-88922563D01*
X83080550Y-88738537D01*
X83080547Y-88738532D01*
X83080545Y-88738527D01*
X83017629Y-88629554D01*
X82983802Y-88570964D01*
X82854327Y-88427167D01*
X82697785Y-88313433D01*
X82697781Y-88313431D01*
X82697778Y-88313429D01*
X82521019Y-88234732D01*
X82521017Y-88234731D01*
X82521014Y-88234730D01*
X82521013Y-88234730D01*
X82471707Y-88224249D01*
X82331748Y-88194500D01*
X82138252Y-88194500D01*
X82036072Y-88216219D01*
X81948986Y-88234730D01*
X81948980Y-88234732D01*
X81772221Y-88313429D01*
X81772218Y-88313431D01*
X81615671Y-88427168D01*
X81486196Y-88570966D01*
X81486196Y-88570967D01*
X81389454Y-88738527D01*
X81389448Y-88738541D01*
X81329657Y-88922557D01*
X81329656Y-88922561D01*
X81329656Y-88922563D01*
X81309430Y-89115000D01*
X65405500Y-89115000D01*
X65405500Y-87740000D01*
X67519767Y-87740000D01*
X67530190Y-87845831D01*
X67530191Y-87845836D01*
X67590232Y-88043762D01*
X67590234Y-88043767D01*
X67687724Y-88226160D01*
X67687731Y-88226170D01*
X67818940Y-88386050D01*
X67818949Y-88386059D01*
X67978829Y-88517268D01*
X67978839Y-88517275D01*
X68161232Y-88614765D01*
X68161237Y-88614767D01*
X68359166Y-88674808D01*
X68464998Y-88685231D01*
X68465000Y-88685230D01*
X68465000Y-88130764D01*
X68529237Y-88140000D01*
X68600763Y-88140000D01*
X68665000Y-88130764D01*
X68665000Y-88685230D01*
X68665001Y-88685231D01*
X68770833Y-88674808D01*
X68968762Y-88614767D01*
X68968767Y-88614765D01*
X69151160Y-88517275D01*
X69151170Y-88517268D01*
X69166428Y-88504746D01*
X73554500Y-88504746D01*
X73554501Y-88504758D01*
X73566132Y-88563227D01*
X73566134Y-88563233D01*
X73610445Y-88629548D01*
X73610448Y-88629552D01*
X73676769Y-88673867D01*
X73721231Y-88682711D01*
X73735241Y-88685498D01*
X73735246Y-88685498D01*
X73735252Y-88685500D01*
X73735253Y-88685500D01*
X75474747Y-88685500D01*
X75474748Y-88685500D01*
X75533231Y-88673867D01*
X75599552Y-88629552D01*
X75643867Y-88563231D01*
X75655500Y-88504748D01*
X75655500Y-86765252D01*
X75643867Y-86706769D01*
X75599552Y-86640448D01*
X75599548Y-86640445D01*
X75533233Y-86596134D01*
X75533231Y-86596133D01*
X75533228Y-86596132D01*
X75533227Y-86596132D01*
X75474758Y-86584501D01*
X75474748Y-86584500D01*
X73735252Y-86584500D01*
X73735251Y-86584500D01*
X73735241Y-86584501D01*
X73676772Y-86596132D01*
X73676766Y-86596134D01*
X73610451Y-86640445D01*
X73610445Y-86640451D01*
X73566134Y-86706766D01*
X73566132Y-86706772D01*
X73554501Y-86765241D01*
X73554500Y-86765253D01*
X73554500Y-88504746D01*
X69166428Y-88504746D01*
X69311050Y-88386059D01*
X69311059Y-88386050D01*
X69442268Y-88226170D01*
X69442275Y-88226160D01*
X69539765Y-88043767D01*
X69539767Y-88043762D01*
X69599808Y-87845836D01*
X69599809Y-87845831D01*
X69610232Y-87740000D01*
X69056746Y-87740000D01*
X69065000Y-87711889D01*
X69065000Y-87568111D01*
X69056746Y-87540000D01*
X69610232Y-87540000D01*
X69610232Y-87539999D01*
X69599809Y-87434168D01*
X69599808Y-87434163D01*
X69539767Y-87236237D01*
X69539765Y-87236232D01*
X69442275Y-87053839D01*
X69442268Y-87053829D01*
X69311059Y-86893949D01*
X69311050Y-86893940D01*
X69151170Y-86762731D01*
X69151160Y-86762724D01*
X68968767Y-86665234D01*
X68968762Y-86665232D01*
X68770836Y-86605191D01*
X68770831Y-86605190D01*
X68665000Y-86594767D01*
X68665000Y-87149235D01*
X68600763Y-87140000D01*
X68529237Y-87140000D01*
X68465000Y-87149235D01*
X68465000Y-86594767D01*
X68464999Y-86594767D01*
X68359168Y-86605190D01*
X68359163Y-86605191D01*
X68161237Y-86665232D01*
X68161232Y-86665234D01*
X67978839Y-86762724D01*
X67978829Y-86762731D01*
X67818949Y-86893940D01*
X67818940Y-86893949D01*
X67687731Y-87053829D01*
X67687724Y-87053839D01*
X67590234Y-87236232D01*
X67590232Y-87236237D01*
X67530191Y-87434163D01*
X67530190Y-87434168D01*
X67519767Y-87539999D01*
X67519768Y-87540000D01*
X68073254Y-87540000D01*
X68065000Y-87568111D01*
X68065000Y-87711889D01*
X68073254Y-87740000D01*
X67519767Y-87740000D01*
X65405500Y-87740000D01*
X65405500Y-83734500D01*
X65424407Y-83676309D01*
X65473907Y-83640345D01*
X65504500Y-83635500D01*
X119926010Y-83635500D01*
X119984201Y-83654407D01*
G37*
G04 #@! TD.AperFunction*
G04 #@! TA.AperFunction,Conductor*
G36*
X89798039Y-124624685D02*
G01*
X89843794Y-124677489D01*
X89855000Y-124729000D01*
X89855000Y-128681000D01*
X89835315Y-128748039D01*
X89782511Y-128793794D01*
X89731000Y-128805000D01*
X83379000Y-128805000D01*
X83311961Y-128785315D01*
X83266206Y-128732511D01*
X83255000Y-128681000D01*
X83255000Y-126429000D01*
X83274685Y-126361961D01*
X83327489Y-126316206D01*
X83379000Y-126305000D01*
X85555000Y-126305000D01*
X85752805Y-125884664D01*
X86321495Y-124676201D01*
X86367851Y-124623924D01*
X86433692Y-124605000D01*
X89731000Y-124605000D01*
X89798039Y-124624685D01*
G37*
G04 #@! TD.AperFunction*
G04 #@! TA.AperFunction,Conductor*
G36*
X89698039Y-117024685D02*
G01*
X89743794Y-117077489D01*
X89755000Y-117129000D01*
X89755000Y-120681000D01*
X89735315Y-120748039D01*
X89682511Y-120793794D01*
X89631000Y-120805000D01*
X86451817Y-120805000D01*
X86384778Y-120785315D01*
X86339023Y-120732511D01*
X86331519Y-120711074D01*
X85955000Y-119205000D01*
X83879000Y-119205000D01*
X83811961Y-119185315D01*
X83766206Y-119132511D01*
X83755000Y-119081000D01*
X83755000Y-117129000D01*
X83774685Y-117061961D01*
X83827489Y-117016206D01*
X83879000Y-117005000D01*
X89631000Y-117005000D01*
X89698039Y-117024685D01*
G37*
G04 #@! TD.AperFunction*
G04 #@! TA.AperFunction,Conductor*
G36*
X112967360Y-92014685D02*
G01*
X113013115Y-92067489D01*
X113024319Y-92119678D01*
X112994999Y-97484999D01*
X112995000Y-97485000D01*
X117871000Y-97485000D01*
X117938039Y-97504685D01*
X117983794Y-97557489D01*
X117995000Y-97609000D01*
X117995000Y-106131000D01*
X117975315Y-106198039D01*
X117922511Y-106243794D01*
X117871000Y-106255000D01*
X100269937Y-106255000D01*
X100202898Y-106235315D01*
X100157143Y-106182511D01*
X100154313Y-106175800D01*
X98825000Y-102745000D01*
X93778655Y-102745000D01*
X93711616Y-102725315D01*
X93665861Y-102672511D01*
X93654655Y-102621346D01*
X93625347Y-92119346D01*
X93644845Y-92052252D01*
X93697521Y-92006350D01*
X93749347Y-91995000D01*
X112900321Y-91995000D01*
X112967360Y-92014685D01*
G37*
G04 #@! TD.AperFunction*
M02*
