G04 #@! TF.GenerationSoftware,KiCad,Pcbnew,7.0.10*
G04 #@! TF.CreationDate,2024-04-22T16:42:47-07:00*
G04 #@! TF.ProjectId,powerAmp,706f7765-7241-46d7-902e-6b696361645f,rev?*
G04 #@! TF.SameCoordinates,Original*
G04 #@! TF.FileFunction,Legend,Top*
G04 #@! TF.FilePolarity,Positive*
%FSLAX46Y46*%
G04 Gerber Fmt 4.6, Leading zero omitted, Abs format (unit mm)*
G04 Created by KiCad (PCBNEW 7.0.10) date 2024-04-22 16:42:47*
%MOMM*%
%LPD*%
G01*
G04 APERTURE LIST*
G04 Aperture macros list*
%AMRoundRect*
0 Rectangle with rounded corners*
0 $1 Rounding radius*
0 $2 $3 $4 $5 $6 $7 $8 $9 X,Y pos of 4 corners*
0 Add a 4 corners polygon primitive as box body*
4,1,4,$2,$3,$4,$5,$6,$7,$8,$9,$2,$3,0*
0 Add four circle primitives for the rounded corners*
1,1,$1+$1,$2,$3*
1,1,$1+$1,$4,$5*
1,1,$1+$1,$6,$7*
1,1,$1+$1,$8,$9*
0 Add four rect primitives between the rounded corners*
20,1,$1+$1,$2,$3,$4,$5,0*
20,1,$1+$1,$4,$5,$6,$7,0*
20,1,$1+$1,$6,$7,$8,$9,0*
20,1,$1+$1,$8,$9,$2,$3,0*%
G04 Aperture macros list end*
%ADD10C,0.150000*%
%ADD11C,0.428553*%
%ADD12C,0.254000*%
%ADD13C,0.200000*%
%ADD14C,0.120000*%
%ADD15R,1.200000X0.600000*%
%ADD16RoundRect,0.237500X0.250000X0.237500X-0.250000X0.237500X-0.250000X-0.237500X0.250000X-0.237500X0*%
%ADD17RoundRect,0.250000X-0.350000X-0.450000X0.350000X-0.450000X0.350000X0.450000X-0.350000X0.450000X0*%
%ADD18RoundRect,0.250000X0.350000X-0.850000X0.350000X0.850000X-0.350000X0.850000X-0.350000X-0.850000X0*%
%ADD19RoundRect,0.249997X2.650003X-2.950003X2.650003X2.950003X-2.650003X2.950003X-2.650003X-2.950003X0*%
%ADD20C,3.000000*%
%ADD21RoundRect,0.237500X-0.300000X-0.237500X0.300000X-0.237500X0.300000X0.237500X-0.300000X0.237500X0*%
%ADD22RoundRect,0.150000X-0.825000X-0.150000X0.825000X-0.150000X0.825000X0.150000X-0.825000X0.150000X0*%
%ADD23R,1.700000X1.700000*%
%ADD24O,1.700000X1.700000*%
%ADD25RoundRect,0.237500X0.237500X-0.250000X0.237500X0.250000X-0.237500X0.250000X-0.237500X-0.250000X0*%
%ADD26RoundRect,0.237500X-0.250000X-0.237500X0.250000X-0.237500X0.250000X0.237500X-0.250000X0.237500X0*%
%ADD27C,1.600000*%
%ADD28RoundRect,0.237500X-0.237500X0.250000X-0.237500X-0.250000X0.237500X-0.250000X0.237500X0.250000X0*%
%ADD29R,5.080000X1.500000*%
%ADD30R,3.810000X1.650000*%
%ADD31R,0.710000X0.610000*%
%ADD32R,0.310000X0.255000*%
%ADD33R,1.270000X0.610000*%
%ADD34RoundRect,0.237500X-0.237500X0.300000X-0.237500X-0.300000X0.237500X-0.300000X0.237500X0.300000X0*%
%ADD35RoundRect,0.237500X0.300000X0.237500X-0.300000X0.237500X-0.300000X-0.237500X0.300000X-0.237500X0*%
%ADD36RoundRect,0.150000X0.512500X0.150000X-0.512500X0.150000X-0.512500X-0.150000X0.512500X-0.150000X0*%
%ADD37C,1.440000*%
G04 APERTURE END LIST*
D10*
X67500350Y-109148152D02*
X67500350Y-109957676D01*
X67500350Y-109957676D02*
X67452731Y-110052914D01*
X67452731Y-110052914D02*
X67405112Y-110100533D01*
X67405112Y-110100533D02*
X67309874Y-110148152D01*
X67309874Y-110148152D02*
X67167017Y-110148152D01*
X67167017Y-110148152D02*
X67071779Y-110100533D01*
X67500350Y-109767200D02*
X67405112Y-109814819D01*
X67405112Y-109814819D02*
X67214636Y-109814819D01*
X67214636Y-109814819D02*
X67119398Y-109767200D01*
X67119398Y-109767200D02*
X67071779Y-109719580D01*
X67071779Y-109719580D02*
X67024160Y-109624342D01*
X67024160Y-109624342D02*
X67024160Y-109338628D01*
X67024160Y-109338628D02*
X67071779Y-109243390D01*
X67071779Y-109243390D02*
X67119398Y-109195771D01*
X67119398Y-109195771D02*
X67214636Y-109148152D01*
X67214636Y-109148152D02*
X67405112Y-109148152D01*
X67405112Y-109148152D02*
X67500350Y-109195771D01*
X67976541Y-109148152D02*
X67976541Y-109814819D01*
X67976541Y-109243390D02*
X68024160Y-109195771D01*
X68024160Y-109195771D02*
X68119398Y-109148152D01*
X68119398Y-109148152D02*
X68262255Y-109148152D01*
X68262255Y-109148152D02*
X68357493Y-109195771D01*
X68357493Y-109195771D02*
X68405112Y-109291009D01*
X68405112Y-109291009D02*
X68405112Y-109814819D01*
X69309874Y-109814819D02*
X69309874Y-108814819D01*
X69309874Y-109767200D02*
X69214636Y-109814819D01*
X69214636Y-109814819D02*
X69024160Y-109814819D01*
X69024160Y-109814819D02*
X68928922Y-109767200D01*
X68928922Y-109767200D02*
X68881303Y-109719580D01*
X68881303Y-109719580D02*
X68833684Y-109624342D01*
X68833684Y-109624342D02*
X68833684Y-109338628D01*
X68833684Y-109338628D02*
X68881303Y-109243390D01*
X68881303Y-109243390D02*
X68928922Y-109195771D01*
X68928922Y-109195771D02*
X69024160Y-109148152D01*
X69024160Y-109148152D02*
X69214636Y-109148152D01*
X69214636Y-109148152D02*
X69309874Y-109195771D01*
D11*
X81469276Y-97405000D02*
G75*
G03*
X81040724Y-97405000I-214276J0D01*
G01*
X81040724Y-97405000D02*
G75*
G03*
X81469276Y-97405000I214276J0D01*
G01*
X73819276Y-125625000D02*
G75*
G03*
X73390724Y-125625000I-214276J0D01*
G01*
X73390724Y-125625000D02*
G75*
G03*
X73819276Y-125625000I214276J0D01*
G01*
X73819276Y-120005000D02*
G75*
G03*
X73390724Y-120005000I-214276J0D01*
G01*
X73390724Y-120005000D02*
G75*
G03*
X73819276Y-120005000I214276J0D01*
G01*
D10*
X115170350Y-89538152D02*
X115170350Y-90347676D01*
X115170350Y-90347676D02*
X115122731Y-90442914D01*
X115122731Y-90442914D02*
X115075112Y-90490533D01*
X115075112Y-90490533D02*
X114979874Y-90538152D01*
X114979874Y-90538152D02*
X114837017Y-90538152D01*
X114837017Y-90538152D02*
X114741779Y-90490533D01*
X115170350Y-90157200D02*
X115075112Y-90204819D01*
X115075112Y-90204819D02*
X114884636Y-90204819D01*
X114884636Y-90204819D02*
X114789398Y-90157200D01*
X114789398Y-90157200D02*
X114741779Y-90109580D01*
X114741779Y-90109580D02*
X114694160Y-90014342D01*
X114694160Y-90014342D02*
X114694160Y-89728628D01*
X114694160Y-89728628D02*
X114741779Y-89633390D01*
X114741779Y-89633390D02*
X114789398Y-89585771D01*
X114789398Y-89585771D02*
X114884636Y-89538152D01*
X114884636Y-89538152D02*
X115075112Y-89538152D01*
X115075112Y-89538152D02*
X115170350Y-89585771D01*
X115646541Y-89538152D02*
X115646541Y-90204819D01*
X115646541Y-89633390D02*
X115694160Y-89585771D01*
X115694160Y-89585771D02*
X115789398Y-89538152D01*
X115789398Y-89538152D02*
X115932255Y-89538152D01*
X115932255Y-89538152D02*
X116027493Y-89585771D01*
X116027493Y-89585771D02*
X116075112Y-89681009D01*
X116075112Y-89681009D02*
X116075112Y-90204819D01*
X116979874Y-90204819D02*
X116979874Y-89204819D01*
X116979874Y-90157200D02*
X116884636Y-90204819D01*
X116884636Y-90204819D02*
X116694160Y-90204819D01*
X116694160Y-90204819D02*
X116598922Y-90157200D01*
X116598922Y-90157200D02*
X116551303Y-90109580D01*
X116551303Y-90109580D02*
X116503684Y-90014342D01*
X116503684Y-90014342D02*
X116503684Y-89728628D01*
X116503684Y-89728628D02*
X116551303Y-89633390D01*
X116551303Y-89633390D02*
X116598922Y-89585771D01*
X116598922Y-89585771D02*
X116694160Y-89538152D01*
X116694160Y-89538152D02*
X116884636Y-89538152D01*
X116884636Y-89538152D02*
X116979874Y-89585771D01*
X118374819Y-98321077D02*
X119374819Y-97987744D01*
X119374819Y-97987744D02*
X118374819Y-97654411D01*
X119279580Y-96749649D02*
X119327200Y-96797268D01*
X119327200Y-96797268D02*
X119374819Y-96940125D01*
X119374819Y-96940125D02*
X119374819Y-97035363D01*
X119374819Y-97035363D02*
X119327200Y-97178220D01*
X119327200Y-97178220D02*
X119231961Y-97273458D01*
X119231961Y-97273458D02*
X119136723Y-97321077D01*
X119136723Y-97321077D02*
X118946247Y-97368696D01*
X118946247Y-97368696D02*
X118803390Y-97368696D01*
X118803390Y-97368696D02*
X118612914Y-97321077D01*
X118612914Y-97321077D02*
X118517676Y-97273458D01*
X118517676Y-97273458D02*
X118422438Y-97178220D01*
X118422438Y-97178220D02*
X118374819Y-97035363D01*
X118374819Y-97035363D02*
X118374819Y-96940125D01*
X118374819Y-96940125D02*
X118422438Y-96797268D01*
X118422438Y-96797268D02*
X118470057Y-96749649D01*
X119279580Y-95749649D02*
X119327200Y-95797268D01*
X119327200Y-95797268D02*
X119374819Y-95940125D01*
X119374819Y-95940125D02*
X119374819Y-96035363D01*
X119374819Y-96035363D02*
X119327200Y-96178220D01*
X119327200Y-96178220D02*
X119231961Y-96273458D01*
X119231961Y-96273458D02*
X119136723Y-96321077D01*
X119136723Y-96321077D02*
X118946247Y-96368696D01*
X118946247Y-96368696D02*
X118803390Y-96368696D01*
X118803390Y-96368696D02*
X118612914Y-96321077D01*
X118612914Y-96321077D02*
X118517676Y-96273458D01*
X118517676Y-96273458D02*
X118422438Y-96178220D01*
X118422438Y-96178220D02*
X118374819Y-96035363D01*
X118374819Y-96035363D02*
X118374819Y-95940125D01*
X118374819Y-95940125D02*
X118422438Y-95797268D01*
X118422438Y-95797268D02*
X118470057Y-95749649D01*
X119374819Y-94797268D02*
X119374819Y-95368696D01*
X119374819Y-95082982D02*
X118374819Y-95082982D01*
X118374819Y-95082982D02*
X118517676Y-95178220D01*
X118517676Y-95178220D02*
X118612914Y-95273458D01*
X118612914Y-95273458D02*
X118660533Y-95368696D01*
X118470057Y-94416315D02*
X118422438Y-94368696D01*
X118422438Y-94368696D02*
X118374819Y-94273458D01*
X118374819Y-94273458D02*
X118374819Y-94035363D01*
X118374819Y-94035363D02*
X118422438Y-93940125D01*
X118422438Y-93940125D02*
X118470057Y-93892506D01*
X118470057Y-93892506D02*
X118565295Y-93844887D01*
X118565295Y-93844887D02*
X118660533Y-93844887D01*
X118660533Y-93844887D02*
X118803390Y-93892506D01*
X118803390Y-93892506D02*
X119374819Y-94463934D01*
X119374819Y-94463934D02*
X119374819Y-93844887D01*
X115143207Y-115084819D02*
X114809874Y-114608628D01*
X114571779Y-115084819D02*
X114571779Y-114084819D01*
X114571779Y-114084819D02*
X114952731Y-114084819D01*
X114952731Y-114084819D02*
X115047969Y-114132438D01*
X115047969Y-114132438D02*
X115095588Y-114180057D01*
X115095588Y-114180057D02*
X115143207Y-114275295D01*
X115143207Y-114275295D02*
X115143207Y-114418152D01*
X115143207Y-114418152D02*
X115095588Y-114513390D01*
X115095588Y-114513390D02*
X115047969Y-114561009D01*
X115047969Y-114561009D02*
X114952731Y-114608628D01*
X114952731Y-114608628D02*
X114571779Y-114608628D01*
X115905112Y-114561009D02*
X115571779Y-114561009D01*
X115571779Y-115084819D02*
X115571779Y-114084819D01*
X115571779Y-114084819D02*
X116047969Y-114084819D01*
X117381303Y-114084819D02*
X117571779Y-114084819D01*
X117571779Y-114084819D02*
X117667017Y-114132438D01*
X117667017Y-114132438D02*
X117762255Y-114227676D01*
X117762255Y-114227676D02*
X117809874Y-114418152D01*
X117809874Y-114418152D02*
X117809874Y-114751485D01*
X117809874Y-114751485D02*
X117762255Y-114941961D01*
X117762255Y-114941961D02*
X117667017Y-115037200D01*
X117667017Y-115037200D02*
X117571779Y-115084819D01*
X117571779Y-115084819D02*
X117381303Y-115084819D01*
X117381303Y-115084819D02*
X117286065Y-115037200D01*
X117286065Y-115037200D02*
X117190827Y-114941961D01*
X117190827Y-114941961D02*
X117143208Y-114751485D01*
X117143208Y-114751485D02*
X117143208Y-114418152D01*
X117143208Y-114418152D02*
X117190827Y-114227676D01*
X117190827Y-114227676D02*
X117286065Y-114132438D01*
X117286065Y-114132438D02*
X117381303Y-114084819D01*
X118667017Y-114418152D02*
X118667017Y-115084819D01*
X118238446Y-114418152D02*
X118238446Y-114941961D01*
X118238446Y-114941961D02*
X118286065Y-115037200D01*
X118286065Y-115037200D02*
X118381303Y-115084819D01*
X118381303Y-115084819D02*
X118524160Y-115084819D01*
X118524160Y-115084819D02*
X118619398Y-115037200D01*
X118619398Y-115037200D02*
X118667017Y-114989580D01*
X119000351Y-114418152D02*
X119381303Y-114418152D01*
X119143208Y-114084819D02*
X119143208Y-114941961D01*
X119143208Y-114941961D02*
X119190827Y-115037200D01*
X119190827Y-115037200D02*
X119286065Y-115084819D01*
X119286065Y-115084819D02*
X119381303Y-115084819D01*
X67613207Y-117834819D02*
X67279874Y-117358628D01*
X67041779Y-117834819D02*
X67041779Y-116834819D01*
X67041779Y-116834819D02*
X67422731Y-116834819D01*
X67422731Y-116834819D02*
X67517969Y-116882438D01*
X67517969Y-116882438D02*
X67565588Y-116930057D01*
X67565588Y-116930057D02*
X67613207Y-117025295D01*
X67613207Y-117025295D02*
X67613207Y-117168152D01*
X67613207Y-117168152D02*
X67565588Y-117263390D01*
X67565588Y-117263390D02*
X67517969Y-117311009D01*
X67517969Y-117311009D02*
X67422731Y-117358628D01*
X67422731Y-117358628D02*
X67041779Y-117358628D01*
X68375112Y-117311009D02*
X68041779Y-117311009D01*
X68041779Y-117834819D02*
X68041779Y-116834819D01*
X68041779Y-116834819D02*
X68517969Y-116834819D01*
X69660827Y-117834819D02*
X69660827Y-116834819D01*
X70137017Y-117168152D02*
X70137017Y-117834819D01*
X70137017Y-117263390D02*
X70184636Y-117215771D01*
X70184636Y-117215771D02*
X70279874Y-117168152D01*
X70279874Y-117168152D02*
X70422731Y-117168152D01*
X70422731Y-117168152D02*
X70517969Y-117215771D01*
X70517969Y-117215771D02*
X70565588Y-117311009D01*
X70565588Y-117311009D02*
X70565588Y-117834819D01*
X66841779Y-95224819D02*
X66841779Y-94224819D01*
X67413207Y-95224819D02*
X66984636Y-94653390D01*
X67413207Y-94224819D02*
X66841779Y-94796247D01*
X68222731Y-95177200D02*
X68127493Y-95224819D01*
X68127493Y-95224819D02*
X67937017Y-95224819D01*
X67937017Y-95224819D02*
X67841779Y-95177200D01*
X67841779Y-95177200D02*
X67794160Y-95081961D01*
X67794160Y-95081961D02*
X67794160Y-94701009D01*
X67794160Y-94701009D02*
X67841779Y-94605771D01*
X67841779Y-94605771D02*
X67937017Y-94558152D01*
X67937017Y-94558152D02*
X68127493Y-94558152D01*
X68127493Y-94558152D02*
X68222731Y-94605771D01*
X68222731Y-94605771D02*
X68270350Y-94701009D01*
X68270350Y-94701009D02*
X68270350Y-94796247D01*
X68270350Y-94796247D02*
X67794160Y-94891485D01*
X68603684Y-94558152D02*
X68841779Y-95224819D01*
X69079874Y-94558152D02*
X68841779Y-95224819D01*
X68841779Y-95224819D02*
X68746541Y-95462914D01*
X68746541Y-95462914D02*
X68698922Y-95510533D01*
X68698922Y-95510533D02*
X68603684Y-95558152D01*
X70222732Y-95224819D02*
X70222732Y-94224819D01*
X70698922Y-94558152D02*
X70698922Y-95224819D01*
X70698922Y-94653390D02*
X70746541Y-94605771D01*
X70746541Y-94605771D02*
X70841779Y-94558152D01*
X70841779Y-94558152D02*
X70984636Y-94558152D01*
X70984636Y-94558152D02*
X71079874Y-94605771D01*
X71079874Y-94605771D02*
X71127493Y-94701009D01*
X71127493Y-94701009D02*
X71127493Y-95224819D01*
X66794160Y-96549104D02*
X67270350Y-96549104D01*
X66698922Y-96834819D02*
X67032255Y-95834819D01*
X67032255Y-95834819D02*
X67365588Y-96834819D01*
X68127493Y-96787200D02*
X68032255Y-96834819D01*
X68032255Y-96834819D02*
X67841779Y-96834819D01*
X67841779Y-96834819D02*
X67746541Y-96787200D01*
X67746541Y-96787200D02*
X67698922Y-96739580D01*
X67698922Y-96739580D02*
X67651303Y-96644342D01*
X67651303Y-96644342D02*
X67651303Y-96358628D01*
X67651303Y-96358628D02*
X67698922Y-96263390D01*
X67698922Y-96263390D02*
X67746541Y-96215771D01*
X67746541Y-96215771D02*
X67841779Y-96168152D01*
X67841779Y-96168152D02*
X68032255Y-96168152D01*
X68032255Y-96168152D02*
X68127493Y-96215771D01*
X68413208Y-96168152D02*
X68794160Y-96168152D01*
X68556065Y-95834819D02*
X68556065Y-96691961D01*
X68556065Y-96691961D02*
X68603684Y-96787200D01*
X68603684Y-96787200D02*
X68698922Y-96834819D01*
X68698922Y-96834819D02*
X68794160Y-96834819D01*
X69127494Y-96834819D02*
X69127494Y-96168152D01*
X69127494Y-95834819D02*
X69079875Y-95882438D01*
X69079875Y-95882438D02*
X69127494Y-95930057D01*
X69127494Y-95930057D02*
X69175113Y-95882438D01*
X69175113Y-95882438D02*
X69127494Y-95834819D01*
X69127494Y-95834819D02*
X69127494Y-95930057D01*
X69508446Y-96168152D02*
X69746541Y-96834819D01*
X69746541Y-96834819D02*
X69984636Y-96168152D01*
X70746541Y-96787200D02*
X70651303Y-96834819D01*
X70651303Y-96834819D02*
X70460827Y-96834819D01*
X70460827Y-96834819D02*
X70365589Y-96787200D01*
X70365589Y-96787200D02*
X70317970Y-96691961D01*
X70317970Y-96691961D02*
X70317970Y-96311009D01*
X70317970Y-96311009D02*
X70365589Y-96215771D01*
X70365589Y-96215771D02*
X70460827Y-96168152D01*
X70460827Y-96168152D02*
X70651303Y-96168152D01*
X70651303Y-96168152D02*
X70746541Y-96215771D01*
X70746541Y-96215771D02*
X70794160Y-96311009D01*
X70794160Y-96311009D02*
X70794160Y-96406247D01*
X70794160Y-96406247D02*
X70317970Y-96501485D01*
X66841779Y-98444819D02*
X66841779Y-97444819D01*
X66841779Y-97921009D02*
X67413207Y-97921009D01*
X67413207Y-98444819D02*
X67413207Y-97444819D01*
X67889398Y-98444819D02*
X67889398Y-97778152D01*
X67889398Y-97444819D02*
X67841779Y-97492438D01*
X67841779Y-97492438D02*
X67889398Y-97540057D01*
X67889398Y-97540057D02*
X67937017Y-97492438D01*
X67937017Y-97492438D02*
X67889398Y-97444819D01*
X67889398Y-97444819D02*
X67889398Y-97540057D01*
X68794159Y-97778152D02*
X68794159Y-98587676D01*
X68794159Y-98587676D02*
X68746540Y-98682914D01*
X68746540Y-98682914D02*
X68698921Y-98730533D01*
X68698921Y-98730533D02*
X68603683Y-98778152D01*
X68603683Y-98778152D02*
X68460826Y-98778152D01*
X68460826Y-98778152D02*
X68365588Y-98730533D01*
X68794159Y-98397200D02*
X68698921Y-98444819D01*
X68698921Y-98444819D02*
X68508445Y-98444819D01*
X68508445Y-98444819D02*
X68413207Y-98397200D01*
X68413207Y-98397200D02*
X68365588Y-98349580D01*
X68365588Y-98349580D02*
X68317969Y-98254342D01*
X68317969Y-98254342D02*
X68317969Y-97968628D01*
X68317969Y-97968628D02*
X68365588Y-97873390D01*
X68365588Y-97873390D02*
X68413207Y-97825771D01*
X68413207Y-97825771D02*
X68508445Y-97778152D01*
X68508445Y-97778152D02*
X68698921Y-97778152D01*
X68698921Y-97778152D02*
X68794159Y-97825771D01*
X69270350Y-98444819D02*
X69270350Y-97444819D01*
X69698921Y-98444819D02*
X69698921Y-97921009D01*
X69698921Y-97921009D02*
X69651302Y-97825771D01*
X69651302Y-97825771D02*
X69556064Y-97778152D01*
X69556064Y-97778152D02*
X69413207Y-97778152D01*
X69413207Y-97778152D02*
X69317969Y-97825771D01*
X69317969Y-97825771D02*
X69270350Y-97873390D01*
X84191779Y-130514819D02*
X84191779Y-129514819D01*
X84191779Y-129514819D02*
X84763207Y-130514819D01*
X84763207Y-130514819D02*
X84763207Y-129514819D01*
X85144160Y-129514819D02*
X85810826Y-129514819D01*
X85810826Y-129514819D02*
X85382255Y-130514819D01*
X86096541Y-129514819D02*
X86334636Y-130514819D01*
X86334636Y-130514819D02*
X86525112Y-129800533D01*
X86525112Y-129800533D02*
X86715588Y-130514819D01*
X86715588Y-130514819D02*
X86953684Y-129514819D01*
X87334636Y-130514819D02*
X87334636Y-129514819D01*
X87334636Y-129514819D02*
X87667969Y-130229104D01*
X87667969Y-130229104D02*
X88001302Y-129514819D01*
X88001302Y-129514819D02*
X88001302Y-130514819D01*
X88477493Y-130514819D02*
X88477493Y-129514819D01*
X88477493Y-129514819D02*
X89048921Y-130514819D01*
X89048921Y-130514819D02*
X89048921Y-129514819D01*
X84191779Y-132124819D02*
X84191779Y-131124819D01*
X84191779Y-131124819D02*
X84572731Y-131124819D01*
X84572731Y-131124819D02*
X84667969Y-131172438D01*
X84667969Y-131172438D02*
X84715588Y-131220057D01*
X84715588Y-131220057D02*
X84763207Y-131315295D01*
X84763207Y-131315295D02*
X84763207Y-131458152D01*
X84763207Y-131458152D02*
X84715588Y-131553390D01*
X84715588Y-131553390D02*
X84667969Y-131601009D01*
X84667969Y-131601009D02*
X84572731Y-131648628D01*
X84572731Y-131648628D02*
X84191779Y-131648628D01*
X85334636Y-132124819D02*
X85239398Y-132077200D01*
X85239398Y-132077200D02*
X85191779Y-132029580D01*
X85191779Y-132029580D02*
X85144160Y-131934342D01*
X85144160Y-131934342D02*
X85144160Y-131648628D01*
X85144160Y-131648628D02*
X85191779Y-131553390D01*
X85191779Y-131553390D02*
X85239398Y-131505771D01*
X85239398Y-131505771D02*
X85334636Y-131458152D01*
X85334636Y-131458152D02*
X85477493Y-131458152D01*
X85477493Y-131458152D02*
X85572731Y-131505771D01*
X85572731Y-131505771D02*
X85620350Y-131553390D01*
X85620350Y-131553390D02*
X85667969Y-131648628D01*
X85667969Y-131648628D02*
X85667969Y-131934342D01*
X85667969Y-131934342D02*
X85620350Y-132029580D01*
X85620350Y-132029580D02*
X85572731Y-132077200D01*
X85572731Y-132077200D02*
X85477493Y-132124819D01*
X85477493Y-132124819D02*
X85334636Y-132124819D01*
X86001303Y-131458152D02*
X86191779Y-132124819D01*
X86191779Y-132124819D02*
X86382255Y-131648628D01*
X86382255Y-131648628D02*
X86572731Y-132124819D01*
X86572731Y-132124819D02*
X86763207Y-131458152D01*
X87525112Y-132077200D02*
X87429874Y-132124819D01*
X87429874Y-132124819D02*
X87239398Y-132124819D01*
X87239398Y-132124819D02*
X87144160Y-132077200D01*
X87144160Y-132077200D02*
X87096541Y-131981961D01*
X87096541Y-131981961D02*
X87096541Y-131601009D01*
X87096541Y-131601009D02*
X87144160Y-131505771D01*
X87144160Y-131505771D02*
X87239398Y-131458152D01*
X87239398Y-131458152D02*
X87429874Y-131458152D01*
X87429874Y-131458152D02*
X87525112Y-131505771D01*
X87525112Y-131505771D02*
X87572731Y-131601009D01*
X87572731Y-131601009D02*
X87572731Y-131696247D01*
X87572731Y-131696247D02*
X87096541Y-131791485D01*
X88001303Y-132124819D02*
X88001303Y-131458152D01*
X88001303Y-131648628D02*
X88048922Y-131553390D01*
X88048922Y-131553390D02*
X88096541Y-131505771D01*
X88096541Y-131505771D02*
X88191779Y-131458152D01*
X88191779Y-131458152D02*
X88287017Y-131458152D01*
X89334637Y-131839104D02*
X89810827Y-131839104D01*
X89239399Y-132124819D02*
X89572732Y-131124819D01*
X89572732Y-131124819D02*
X89906065Y-132124819D01*
X90239399Y-132124819D02*
X90239399Y-131458152D01*
X90239399Y-131553390D02*
X90287018Y-131505771D01*
X90287018Y-131505771D02*
X90382256Y-131458152D01*
X90382256Y-131458152D02*
X90525113Y-131458152D01*
X90525113Y-131458152D02*
X90620351Y-131505771D01*
X90620351Y-131505771D02*
X90667970Y-131601009D01*
X90667970Y-131601009D02*
X90667970Y-132124819D01*
X90667970Y-131601009D02*
X90715589Y-131505771D01*
X90715589Y-131505771D02*
X90810827Y-131458152D01*
X90810827Y-131458152D02*
X90953684Y-131458152D01*
X90953684Y-131458152D02*
X91048923Y-131505771D01*
X91048923Y-131505771D02*
X91096542Y-131601009D01*
X91096542Y-131601009D02*
X91096542Y-132124819D01*
X91572732Y-131458152D02*
X91572732Y-132458152D01*
X91572732Y-131505771D02*
X91667970Y-131458152D01*
X91667970Y-131458152D02*
X91858446Y-131458152D01*
X91858446Y-131458152D02*
X91953684Y-131505771D01*
X91953684Y-131505771D02*
X92001303Y-131553390D01*
X92001303Y-131553390D02*
X92048922Y-131648628D01*
X92048922Y-131648628D02*
X92048922Y-131934342D01*
X92048922Y-131934342D02*
X92001303Y-132029580D01*
X92001303Y-132029580D02*
X91953684Y-132077200D01*
X91953684Y-132077200D02*
X91858446Y-132124819D01*
X91858446Y-132124819D02*
X91667970Y-132124819D01*
X91667970Y-132124819D02*
X91572732Y-132077200D01*
X84763207Y-133734819D02*
X84429874Y-133258628D01*
X84191779Y-133734819D02*
X84191779Y-132734819D01*
X84191779Y-132734819D02*
X84572731Y-132734819D01*
X84572731Y-132734819D02*
X84667969Y-132782438D01*
X84667969Y-132782438D02*
X84715588Y-132830057D01*
X84715588Y-132830057D02*
X84763207Y-132925295D01*
X84763207Y-132925295D02*
X84763207Y-133068152D01*
X84763207Y-133068152D02*
X84715588Y-133163390D01*
X84715588Y-133163390D02*
X84667969Y-133211009D01*
X84667969Y-133211009D02*
X84572731Y-133258628D01*
X84572731Y-133258628D02*
X84191779Y-133258628D01*
X85572731Y-133687200D02*
X85477493Y-133734819D01*
X85477493Y-133734819D02*
X85287017Y-133734819D01*
X85287017Y-133734819D02*
X85191779Y-133687200D01*
X85191779Y-133687200D02*
X85144160Y-133591961D01*
X85144160Y-133591961D02*
X85144160Y-133211009D01*
X85144160Y-133211009D02*
X85191779Y-133115771D01*
X85191779Y-133115771D02*
X85287017Y-133068152D01*
X85287017Y-133068152D02*
X85477493Y-133068152D01*
X85477493Y-133068152D02*
X85572731Y-133115771D01*
X85572731Y-133115771D02*
X85620350Y-133211009D01*
X85620350Y-133211009D02*
X85620350Y-133306247D01*
X85620350Y-133306247D02*
X85144160Y-133401485D01*
X85953684Y-133068152D02*
X86191779Y-133734819D01*
X86191779Y-133734819D02*
X86429874Y-133068152D01*
X86810827Y-133639580D02*
X86858446Y-133687200D01*
X86858446Y-133687200D02*
X86810827Y-133734819D01*
X86810827Y-133734819D02*
X86763208Y-133687200D01*
X86763208Y-133687200D02*
X86810827Y-133639580D01*
X86810827Y-133639580D02*
X86810827Y-133734819D01*
X88620350Y-133639580D02*
X88572731Y-133687200D01*
X88572731Y-133687200D02*
X88429874Y-133734819D01*
X88429874Y-133734819D02*
X88334636Y-133734819D01*
X88334636Y-133734819D02*
X88191779Y-133687200D01*
X88191779Y-133687200D02*
X88096541Y-133591961D01*
X88096541Y-133591961D02*
X88048922Y-133496723D01*
X88048922Y-133496723D02*
X88001303Y-133306247D01*
X88001303Y-133306247D02*
X88001303Y-133163390D01*
X88001303Y-133163390D02*
X88048922Y-132972914D01*
X88048922Y-132972914D02*
X88096541Y-132877676D01*
X88096541Y-132877676D02*
X88191779Y-132782438D01*
X88191779Y-132782438D02*
X88334636Y-132734819D01*
X88334636Y-132734819D02*
X88429874Y-132734819D01*
X88429874Y-132734819D02*
X88572731Y-132782438D01*
X88572731Y-132782438D02*
X88620350Y-132830057D01*
D12*
X79565237Y-131479318D02*
X79565237Y-130209318D01*
X80895714Y-131358365D02*
X80835238Y-131418842D01*
X80835238Y-131418842D02*
X80653809Y-131479318D01*
X80653809Y-131479318D02*
X80532857Y-131479318D01*
X80532857Y-131479318D02*
X80351428Y-131418842D01*
X80351428Y-131418842D02*
X80230476Y-131297889D01*
X80230476Y-131297889D02*
X80169999Y-131176937D01*
X80169999Y-131176937D02*
X80109523Y-130935032D01*
X80109523Y-130935032D02*
X80109523Y-130753603D01*
X80109523Y-130753603D02*
X80169999Y-130511699D01*
X80169999Y-130511699D02*
X80230476Y-130390746D01*
X80230476Y-130390746D02*
X80351428Y-130269794D01*
X80351428Y-130269794D02*
X80532857Y-130209318D01*
X80532857Y-130209318D02*
X80653809Y-130209318D01*
X80653809Y-130209318D02*
X80835238Y-130269794D01*
X80835238Y-130269794D02*
X80895714Y-130330270D01*
X81379523Y-130330270D02*
X81439999Y-130269794D01*
X81439999Y-130269794D02*
X81560952Y-130209318D01*
X81560952Y-130209318D02*
X81863333Y-130209318D01*
X81863333Y-130209318D02*
X81984285Y-130269794D01*
X81984285Y-130269794D02*
X82044761Y-130330270D01*
X82044761Y-130330270D02*
X82105238Y-130451222D01*
X82105238Y-130451222D02*
X82105238Y-130572175D01*
X82105238Y-130572175D02*
X82044761Y-130753603D01*
X82044761Y-130753603D02*
X81319047Y-131479318D01*
X81319047Y-131479318D02*
X82105238Y-131479318D01*
X79465237Y-119229318D02*
X79465237Y-117959318D01*
X80795714Y-119108365D02*
X80735238Y-119168842D01*
X80735238Y-119168842D02*
X80553809Y-119229318D01*
X80553809Y-119229318D02*
X80432857Y-119229318D01*
X80432857Y-119229318D02*
X80251428Y-119168842D01*
X80251428Y-119168842D02*
X80130476Y-119047889D01*
X80130476Y-119047889D02*
X80069999Y-118926937D01*
X80069999Y-118926937D02*
X80009523Y-118685032D01*
X80009523Y-118685032D02*
X80009523Y-118503603D01*
X80009523Y-118503603D02*
X80069999Y-118261699D01*
X80069999Y-118261699D02*
X80130476Y-118140746D01*
X80130476Y-118140746D02*
X80251428Y-118019794D01*
X80251428Y-118019794D02*
X80432857Y-117959318D01*
X80432857Y-117959318D02*
X80553809Y-117959318D01*
X80553809Y-117959318D02*
X80735238Y-118019794D01*
X80735238Y-118019794D02*
X80795714Y-118080270D01*
X82005238Y-119229318D02*
X81279523Y-119229318D01*
X81642380Y-119229318D02*
X81642380Y-117959318D01*
X81642380Y-117959318D02*
X81521428Y-118140746D01*
X81521428Y-118140746D02*
X81400476Y-118261699D01*
X81400476Y-118261699D02*
X81279523Y-118322175D01*
D10*
X98012142Y-106659819D02*
X97678809Y-106183628D01*
X97440714Y-106659819D02*
X97440714Y-105659819D01*
X97440714Y-105659819D02*
X97821666Y-105659819D01*
X97821666Y-105659819D02*
X97916904Y-105707438D01*
X97916904Y-105707438D02*
X97964523Y-105755057D01*
X97964523Y-105755057D02*
X98012142Y-105850295D01*
X98012142Y-105850295D02*
X98012142Y-105993152D01*
X98012142Y-105993152D02*
X97964523Y-106088390D01*
X97964523Y-106088390D02*
X97916904Y-106136009D01*
X97916904Y-106136009D02*
X97821666Y-106183628D01*
X97821666Y-106183628D02*
X97440714Y-106183628D01*
X98964523Y-106659819D02*
X98393095Y-106659819D01*
X98678809Y-106659819D02*
X98678809Y-105659819D01*
X98678809Y-105659819D02*
X98583571Y-105802676D01*
X98583571Y-105802676D02*
X98488333Y-105897914D01*
X98488333Y-105897914D02*
X98393095Y-105945533D01*
X99583571Y-105659819D02*
X99678809Y-105659819D01*
X99678809Y-105659819D02*
X99774047Y-105707438D01*
X99774047Y-105707438D02*
X99821666Y-105755057D01*
X99821666Y-105755057D02*
X99869285Y-105850295D01*
X99869285Y-105850295D02*
X99916904Y-106040771D01*
X99916904Y-106040771D02*
X99916904Y-106278866D01*
X99916904Y-106278866D02*
X99869285Y-106469342D01*
X99869285Y-106469342D02*
X99821666Y-106564580D01*
X99821666Y-106564580D02*
X99774047Y-106612200D01*
X99774047Y-106612200D02*
X99678809Y-106659819D01*
X99678809Y-106659819D02*
X99583571Y-106659819D01*
X99583571Y-106659819D02*
X99488333Y-106612200D01*
X99488333Y-106612200D02*
X99440714Y-106564580D01*
X99440714Y-106564580D02*
X99393095Y-106469342D01*
X99393095Y-106469342D02*
X99345476Y-106278866D01*
X99345476Y-106278866D02*
X99345476Y-106040771D01*
X99345476Y-106040771D02*
X99393095Y-105850295D01*
X99393095Y-105850295D02*
X99440714Y-105755057D01*
X99440714Y-105755057D02*
X99488333Y-105707438D01*
X99488333Y-105707438D02*
X99583571Y-105659819D01*
X80808333Y-126759819D02*
X80475000Y-126283628D01*
X80236905Y-126759819D02*
X80236905Y-125759819D01*
X80236905Y-125759819D02*
X80617857Y-125759819D01*
X80617857Y-125759819D02*
X80713095Y-125807438D01*
X80713095Y-125807438D02*
X80760714Y-125855057D01*
X80760714Y-125855057D02*
X80808333Y-125950295D01*
X80808333Y-125950295D02*
X80808333Y-126093152D01*
X80808333Y-126093152D02*
X80760714Y-126188390D01*
X80760714Y-126188390D02*
X80713095Y-126236009D01*
X80713095Y-126236009D02*
X80617857Y-126283628D01*
X80617857Y-126283628D02*
X80236905Y-126283628D01*
X81665476Y-125759819D02*
X81475000Y-125759819D01*
X81475000Y-125759819D02*
X81379762Y-125807438D01*
X81379762Y-125807438D02*
X81332143Y-125855057D01*
X81332143Y-125855057D02*
X81236905Y-125997914D01*
X81236905Y-125997914D02*
X81189286Y-126188390D01*
X81189286Y-126188390D02*
X81189286Y-126569342D01*
X81189286Y-126569342D02*
X81236905Y-126664580D01*
X81236905Y-126664580D02*
X81284524Y-126712200D01*
X81284524Y-126712200D02*
X81379762Y-126759819D01*
X81379762Y-126759819D02*
X81570238Y-126759819D01*
X81570238Y-126759819D02*
X81665476Y-126712200D01*
X81665476Y-126712200D02*
X81713095Y-126664580D01*
X81713095Y-126664580D02*
X81760714Y-126569342D01*
X81760714Y-126569342D02*
X81760714Y-126331247D01*
X81760714Y-126331247D02*
X81713095Y-126236009D01*
X81713095Y-126236009D02*
X81665476Y-126188390D01*
X81665476Y-126188390D02*
X81570238Y-126140771D01*
X81570238Y-126140771D02*
X81379762Y-126140771D01*
X81379762Y-126140771D02*
X81284524Y-126188390D01*
X81284524Y-126188390D02*
X81236905Y-126236009D01*
X81236905Y-126236009D02*
X81189286Y-126331247D01*
X80758333Y-120859819D02*
X80425000Y-120383628D01*
X80186905Y-120859819D02*
X80186905Y-119859819D01*
X80186905Y-119859819D02*
X80567857Y-119859819D01*
X80567857Y-119859819D02*
X80663095Y-119907438D01*
X80663095Y-119907438D02*
X80710714Y-119955057D01*
X80710714Y-119955057D02*
X80758333Y-120050295D01*
X80758333Y-120050295D02*
X80758333Y-120193152D01*
X80758333Y-120193152D02*
X80710714Y-120288390D01*
X80710714Y-120288390D02*
X80663095Y-120336009D01*
X80663095Y-120336009D02*
X80567857Y-120383628D01*
X80567857Y-120383628D02*
X80186905Y-120383628D01*
X81663095Y-119859819D02*
X81186905Y-119859819D01*
X81186905Y-119859819D02*
X81139286Y-120336009D01*
X81139286Y-120336009D02*
X81186905Y-120288390D01*
X81186905Y-120288390D02*
X81282143Y-120240771D01*
X81282143Y-120240771D02*
X81520238Y-120240771D01*
X81520238Y-120240771D02*
X81615476Y-120288390D01*
X81615476Y-120288390D02*
X81663095Y-120336009D01*
X81663095Y-120336009D02*
X81710714Y-120431247D01*
X81710714Y-120431247D02*
X81710714Y-120669342D01*
X81710714Y-120669342D02*
X81663095Y-120764580D01*
X81663095Y-120764580D02*
X81615476Y-120812200D01*
X81615476Y-120812200D02*
X81520238Y-120859819D01*
X81520238Y-120859819D02*
X81282143Y-120859819D01*
X81282143Y-120859819D02*
X81186905Y-120812200D01*
X81186905Y-120812200D02*
X81139286Y-120764580D01*
X91688333Y-104179819D02*
X91355000Y-103703628D01*
X91116905Y-104179819D02*
X91116905Y-103179819D01*
X91116905Y-103179819D02*
X91497857Y-103179819D01*
X91497857Y-103179819D02*
X91593095Y-103227438D01*
X91593095Y-103227438D02*
X91640714Y-103275057D01*
X91640714Y-103275057D02*
X91688333Y-103370295D01*
X91688333Y-103370295D02*
X91688333Y-103513152D01*
X91688333Y-103513152D02*
X91640714Y-103608390D01*
X91640714Y-103608390D02*
X91593095Y-103656009D01*
X91593095Y-103656009D02*
X91497857Y-103703628D01*
X91497857Y-103703628D02*
X91116905Y-103703628D01*
X92069286Y-103275057D02*
X92116905Y-103227438D01*
X92116905Y-103227438D02*
X92212143Y-103179819D01*
X92212143Y-103179819D02*
X92450238Y-103179819D01*
X92450238Y-103179819D02*
X92545476Y-103227438D01*
X92545476Y-103227438D02*
X92593095Y-103275057D01*
X92593095Y-103275057D02*
X92640714Y-103370295D01*
X92640714Y-103370295D02*
X92640714Y-103465533D01*
X92640714Y-103465533D02*
X92593095Y-103608390D01*
X92593095Y-103608390D02*
X92021667Y-104179819D01*
X92021667Y-104179819D02*
X92640714Y-104179819D01*
X108669761Y-108835057D02*
X108574523Y-108787438D01*
X108574523Y-108787438D02*
X108479285Y-108692200D01*
X108479285Y-108692200D02*
X108336428Y-108549342D01*
X108336428Y-108549342D02*
X108241190Y-108501723D01*
X108241190Y-108501723D02*
X108145952Y-108501723D01*
X108193571Y-108739819D02*
X108098333Y-108692200D01*
X108098333Y-108692200D02*
X108003095Y-108596961D01*
X108003095Y-108596961D02*
X107955476Y-108406485D01*
X107955476Y-108406485D02*
X107955476Y-108073152D01*
X107955476Y-108073152D02*
X108003095Y-107882676D01*
X108003095Y-107882676D02*
X108098333Y-107787438D01*
X108098333Y-107787438D02*
X108193571Y-107739819D01*
X108193571Y-107739819D02*
X108384047Y-107739819D01*
X108384047Y-107739819D02*
X108479285Y-107787438D01*
X108479285Y-107787438D02*
X108574523Y-107882676D01*
X108574523Y-107882676D02*
X108622142Y-108073152D01*
X108622142Y-108073152D02*
X108622142Y-108406485D01*
X108622142Y-108406485D02*
X108574523Y-108596961D01*
X108574523Y-108596961D02*
X108479285Y-108692200D01*
X108479285Y-108692200D02*
X108384047Y-108739819D01*
X108384047Y-108739819D02*
X108193571Y-108739819D01*
X109574523Y-108739819D02*
X109003095Y-108739819D01*
X109288809Y-108739819D02*
X109288809Y-107739819D01*
X109288809Y-107739819D02*
X109193571Y-107882676D01*
X109193571Y-107882676D02*
X109098333Y-107977914D01*
X109098333Y-107977914D02*
X109003095Y-108025533D01*
X102233333Y-114434819D02*
X101757143Y-114434819D01*
X101757143Y-114434819D02*
X101757143Y-113434819D01*
X103090476Y-114434819D02*
X102519048Y-114434819D01*
X102804762Y-114434819D02*
X102804762Y-113434819D01*
X102804762Y-113434819D02*
X102709524Y-113577676D01*
X102709524Y-113577676D02*
X102614286Y-113672914D01*
X102614286Y-113672914D02*
X102519048Y-113720533D01*
X72187142Y-115514580D02*
X72139523Y-115562200D01*
X72139523Y-115562200D02*
X71996666Y-115609819D01*
X71996666Y-115609819D02*
X71901428Y-115609819D01*
X71901428Y-115609819D02*
X71758571Y-115562200D01*
X71758571Y-115562200D02*
X71663333Y-115466961D01*
X71663333Y-115466961D02*
X71615714Y-115371723D01*
X71615714Y-115371723D02*
X71568095Y-115181247D01*
X71568095Y-115181247D02*
X71568095Y-115038390D01*
X71568095Y-115038390D02*
X71615714Y-114847914D01*
X71615714Y-114847914D02*
X71663333Y-114752676D01*
X71663333Y-114752676D02*
X71758571Y-114657438D01*
X71758571Y-114657438D02*
X71901428Y-114609819D01*
X71901428Y-114609819D02*
X71996666Y-114609819D01*
X71996666Y-114609819D02*
X72139523Y-114657438D01*
X72139523Y-114657438D02*
X72187142Y-114705057D01*
X73139523Y-115609819D02*
X72568095Y-115609819D01*
X72853809Y-115609819D02*
X72853809Y-114609819D01*
X72853809Y-114609819D02*
X72758571Y-114752676D01*
X72758571Y-114752676D02*
X72663333Y-114847914D01*
X72663333Y-114847914D02*
X72568095Y-114895533D01*
X73472857Y-114609819D02*
X74091904Y-114609819D01*
X74091904Y-114609819D02*
X73758571Y-114990771D01*
X73758571Y-114990771D02*
X73901428Y-114990771D01*
X73901428Y-114990771D02*
X73996666Y-115038390D01*
X73996666Y-115038390D02*
X74044285Y-115086009D01*
X74044285Y-115086009D02*
X74091904Y-115181247D01*
X74091904Y-115181247D02*
X74091904Y-115419342D01*
X74091904Y-115419342D02*
X74044285Y-115514580D01*
X74044285Y-115514580D02*
X73996666Y-115562200D01*
X73996666Y-115562200D02*
X73901428Y-115609819D01*
X73901428Y-115609819D02*
X73615714Y-115609819D01*
X73615714Y-115609819D02*
X73520476Y-115562200D01*
X73520476Y-115562200D02*
X73472857Y-115514580D01*
X72187142Y-117164580D02*
X72139523Y-117212200D01*
X72139523Y-117212200D02*
X71996666Y-117259819D01*
X71996666Y-117259819D02*
X71901428Y-117259819D01*
X71901428Y-117259819D02*
X71758571Y-117212200D01*
X71758571Y-117212200D02*
X71663333Y-117116961D01*
X71663333Y-117116961D02*
X71615714Y-117021723D01*
X71615714Y-117021723D02*
X71568095Y-116831247D01*
X71568095Y-116831247D02*
X71568095Y-116688390D01*
X71568095Y-116688390D02*
X71615714Y-116497914D01*
X71615714Y-116497914D02*
X71663333Y-116402676D01*
X71663333Y-116402676D02*
X71758571Y-116307438D01*
X71758571Y-116307438D02*
X71901428Y-116259819D01*
X71901428Y-116259819D02*
X71996666Y-116259819D01*
X71996666Y-116259819D02*
X72139523Y-116307438D01*
X72139523Y-116307438D02*
X72187142Y-116355057D01*
X73139523Y-117259819D02*
X72568095Y-117259819D01*
X72853809Y-117259819D02*
X72853809Y-116259819D01*
X72853809Y-116259819D02*
X72758571Y-116402676D01*
X72758571Y-116402676D02*
X72663333Y-116497914D01*
X72663333Y-116497914D02*
X72568095Y-116545533D01*
X73520476Y-116355057D02*
X73568095Y-116307438D01*
X73568095Y-116307438D02*
X73663333Y-116259819D01*
X73663333Y-116259819D02*
X73901428Y-116259819D01*
X73901428Y-116259819D02*
X73996666Y-116307438D01*
X73996666Y-116307438D02*
X74044285Y-116355057D01*
X74044285Y-116355057D02*
X74091904Y-116450295D01*
X74091904Y-116450295D02*
X74091904Y-116545533D01*
X74091904Y-116545533D02*
X74044285Y-116688390D01*
X74044285Y-116688390D02*
X73472857Y-117259819D01*
X73472857Y-117259819D02*
X74091904Y-117259819D01*
X75932142Y-133284580D02*
X75884523Y-133332200D01*
X75884523Y-133332200D02*
X75741666Y-133379819D01*
X75741666Y-133379819D02*
X75646428Y-133379819D01*
X75646428Y-133379819D02*
X75503571Y-133332200D01*
X75503571Y-133332200D02*
X75408333Y-133236961D01*
X75408333Y-133236961D02*
X75360714Y-133141723D01*
X75360714Y-133141723D02*
X75313095Y-132951247D01*
X75313095Y-132951247D02*
X75313095Y-132808390D01*
X75313095Y-132808390D02*
X75360714Y-132617914D01*
X75360714Y-132617914D02*
X75408333Y-132522676D01*
X75408333Y-132522676D02*
X75503571Y-132427438D01*
X75503571Y-132427438D02*
X75646428Y-132379819D01*
X75646428Y-132379819D02*
X75741666Y-132379819D01*
X75741666Y-132379819D02*
X75884523Y-132427438D01*
X75884523Y-132427438D02*
X75932142Y-132475057D01*
X76884523Y-133379819D02*
X76313095Y-133379819D01*
X76598809Y-133379819D02*
X76598809Y-132379819D01*
X76598809Y-132379819D02*
X76503571Y-132522676D01*
X76503571Y-132522676D02*
X76408333Y-132617914D01*
X76408333Y-132617914D02*
X76313095Y-132665533D01*
X77836904Y-133379819D02*
X77265476Y-133379819D01*
X77551190Y-133379819D02*
X77551190Y-132379819D01*
X77551190Y-132379819D02*
X77455952Y-132522676D01*
X77455952Y-132522676D02*
X77360714Y-132617914D01*
X77360714Y-132617914D02*
X77265476Y-132665533D01*
X72187142Y-129939580D02*
X72139523Y-129987200D01*
X72139523Y-129987200D02*
X71996666Y-130034819D01*
X71996666Y-130034819D02*
X71901428Y-130034819D01*
X71901428Y-130034819D02*
X71758571Y-129987200D01*
X71758571Y-129987200D02*
X71663333Y-129891961D01*
X71663333Y-129891961D02*
X71615714Y-129796723D01*
X71615714Y-129796723D02*
X71568095Y-129606247D01*
X71568095Y-129606247D02*
X71568095Y-129463390D01*
X71568095Y-129463390D02*
X71615714Y-129272914D01*
X71615714Y-129272914D02*
X71663333Y-129177676D01*
X71663333Y-129177676D02*
X71758571Y-129082438D01*
X71758571Y-129082438D02*
X71901428Y-129034819D01*
X71901428Y-129034819D02*
X71996666Y-129034819D01*
X71996666Y-129034819D02*
X72139523Y-129082438D01*
X72139523Y-129082438D02*
X72187142Y-129130057D01*
X73139523Y-130034819D02*
X72568095Y-130034819D01*
X72853809Y-130034819D02*
X72853809Y-129034819D01*
X72853809Y-129034819D02*
X72758571Y-129177676D01*
X72758571Y-129177676D02*
X72663333Y-129272914D01*
X72663333Y-129272914D02*
X72568095Y-129320533D01*
X73758571Y-129034819D02*
X73853809Y-129034819D01*
X73853809Y-129034819D02*
X73949047Y-129082438D01*
X73949047Y-129082438D02*
X73996666Y-129130057D01*
X73996666Y-129130057D02*
X74044285Y-129225295D01*
X74044285Y-129225295D02*
X74091904Y-129415771D01*
X74091904Y-129415771D02*
X74091904Y-129653866D01*
X74091904Y-129653866D02*
X74044285Y-129844342D01*
X74044285Y-129844342D02*
X73996666Y-129939580D01*
X73996666Y-129939580D02*
X73949047Y-129987200D01*
X73949047Y-129987200D02*
X73853809Y-130034819D01*
X73853809Y-130034819D02*
X73758571Y-130034819D01*
X73758571Y-130034819D02*
X73663333Y-129987200D01*
X73663333Y-129987200D02*
X73615714Y-129939580D01*
X73615714Y-129939580D02*
X73568095Y-129844342D01*
X73568095Y-129844342D02*
X73520476Y-129653866D01*
X73520476Y-129653866D02*
X73520476Y-129415771D01*
X73520476Y-129415771D02*
X73568095Y-129225295D01*
X73568095Y-129225295D02*
X73615714Y-129130057D01*
X73615714Y-129130057D02*
X73663333Y-129082438D01*
X73663333Y-129082438D02*
X73758571Y-129034819D01*
X85056905Y-106149819D02*
X85056905Y-106959342D01*
X85056905Y-106959342D02*
X85104524Y-107054580D01*
X85104524Y-107054580D02*
X85152143Y-107102200D01*
X85152143Y-107102200D02*
X85247381Y-107149819D01*
X85247381Y-107149819D02*
X85437857Y-107149819D01*
X85437857Y-107149819D02*
X85533095Y-107102200D01*
X85533095Y-107102200D02*
X85580714Y-107054580D01*
X85580714Y-107054580D02*
X85628333Y-106959342D01*
X85628333Y-106959342D02*
X85628333Y-106149819D01*
X86056905Y-107102200D02*
X86199762Y-107149819D01*
X86199762Y-107149819D02*
X86437857Y-107149819D01*
X86437857Y-107149819D02*
X86533095Y-107102200D01*
X86533095Y-107102200D02*
X86580714Y-107054580D01*
X86580714Y-107054580D02*
X86628333Y-106959342D01*
X86628333Y-106959342D02*
X86628333Y-106864104D01*
X86628333Y-106864104D02*
X86580714Y-106768866D01*
X86580714Y-106768866D02*
X86533095Y-106721247D01*
X86533095Y-106721247D02*
X86437857Y-106673628D01*
X86437857Y-106673628D02*
X86247381Y-106626009D01*
X86247381Y-106626009D02*
X86152143Y-106578390D01*
X86152143Y-106578390D02*
X86104524Y-106530771D01*
X86104524Y-106530771D02*
X86056905Y-106435533D01*
X86056905Y-106435533D02*
X86056905Y-106340295D01*
X86056905Y-106340295D02*
X86104524Y-106245057D01*
X86104524Y-106245057D02*
X86152143Y-106197438D01*
X86152143Y-106197438D02*
X86247381Y-106149819D01*
X86247381Y-106149819D02*
X86485476Y-106149819D01*
X86485476Y-106149819D02*
X86628333Y-106197438D01*
X86342619Y-106006961D02*
X86342619Y-107292676D01*
X87009286Y-106245057D02*
X87056905Y-106197438D01*
X87056905Y-106197438D02*
X87152143Y-106149819D01*
X87152143Y-106149819D02*
X87390238Y-106149819D01*
X87390238Y-106149819D02*
X87485476Y-106197438D01*
X87485476Y-106197438D02*
X87533095Y-106245057D01*
X87533095Y-106245057D02*
X87580714Y-106340295D01*
X87580714Y-106340295D02*
X87580714Y-106435533D01*
X87580714Y-106435533D02*
X87533095Y-106578390D01*
X87533095Y-106578390D02*
X86961667Y-107149819D01*
X86961667Y-107149819D02*
X87580714Y-107149819D01*
X98198333Y-110444580D02*
X98150714Y-110492200D01*
X98150714Y-110492200D02*
X98007857Y-110539819D01*
X98007857Y-110539819D02*
X97912619Y-110539819D01*
X97912619Y-110539819D02*
X97769762Y-110492200D01*
X97769762Y-110492200D02*
X97674524Y-110396961D01*
X97674524Y-110396961D02*
X97626905Y-110301723D01*
X97626905Y-110301723D02*
X97579286Y-110111247D01*
X97579286Y-110111247D02*
X97579286Y-109968390D01*
X97579286Y-109968390D02*
X97626905Y-109777914D01*
X97626905Y-109777914D02*
X97674524Y-109682676D01*
X97674524Y-109682676D02*
X97769762Y-109587438D01*
X97769762Y-109587438D02*
X97912619Y-109539819D01*
X97912619Y-109539819D02*
X98007857Y-109539819D01*
X98007857Y-109539819D02*
X98150714Y-109587438D01*
X98150714Y-109587438D02*
X98198333Y-109635057D01*
X99055476Y-109539819D02*
X98865000Y-109539819D01*
X98865000Y-109539819D02*
X98769762Y-109587438D01*
X98769762Y-109587438D02*
X98722143Y-109635057D01*
X98722143Y-109635057D02*
X98626905Y-109777914D01*
X98626905Y-109777914D02*
X98579286Y-109968390D01*
X98579286Y-109968390D02*
X98579286Y-110349342D01*
X98579286Y-110349342D02*
X98626905Y-110444580D01*
X98626905Y-110444580D02*
X98674524Y-110492200D01*
X98674524Y-110492200D02*
X98769762Y-110539819D01*
X98769762Y-110539819D02*
X98960238Y-110539819D01*
X98960238Y-110539819D02*
X99055476Y-110492200D01*
X99055476Y-110492200D02*
X99103095Y-110444580D01*
X99103095Y-110444580D02*
X99150714Y-110349342D01*
X99150714Y-110349342D02*
X99150714Y-110111247D01*
X99150714Y-110111247D02*
X99103095Y-110016009D01*
X99103095Y-110016009D02*
X99055476Y-109968390D01*
X99055476Y-109968390D02*
X98960238Y-109920771D01*
X98960238Y-109920771D02*
X98769762Y-109920771D01*
X98769762Y-109920771D02*
X98674524Y-109968390D01*
X98674524Y-109968390D02*
X98626905Y-110016009D01*
X98626905Y-110016009D02*
X98579286Y-110111247D01*
X67731666Y-84344819D02*
X67731666Y-85059104D01*
X67731666Y-85059104D02*
X67684047Y-85201961D01*
X67684047Y-85201961D02*
X67588809Y-85297200D01*
X67588809Y-85297200D02*
X67445952Y-85344819D01*
X67445952Y-85344819D02*
X67350714Y-85344819D01*
X68207857Y-85344819D02*
X68207857Y-84344819D01*
X68207857Y-84344819D02*
X68588809Y-84344819D01*
X68588809Y-84344819D02*
X68684047Y-84392438D01*
X68684047Y-84392438D02*
X68731666Y-84440057D01*
X68731666Y-84440057D02*
X68779285Y-84535295D01*
X68779285Y-84535295D02*
X68779285Y-84678152D01*
X68779285Y-84678152D02*
X68731666Y-84773390D01*
X68731666Y-84773390D02*
X68684047Y-84821009D01*
X68684047Y-84821009D02*
X68588809Y-84868628D01*
X68588809Y-84868628D02*
X68207857Y-84868628D01*
X69636428Y-84344819D02*
X69445952Y-84344819D01*
X69445952Y-84344819D02*
X69350714Y-84392438D01*
X69350714Y-84392438D02*
X69303095Y-84440057D01*
X69303095Y-84440057D02*
X69207857Y-84582914D01*
X69207857Y-84582914D02*
X69160238Y-84773390D01*
X69160238Y-84773390D02*
X69160238Y-85154342D01*
X69160238Y-85154342D02*
X69207857Y-85249580D01*
X69207857Y-85249580D02*
X69255476Y-85297200D01*
X69255476Y-85297200D02*
X69350714Y-85344819D01*
X69350714Y-85344819D02*
X69541190Y-85344819D01*
X69541190Y-85344819D02*
X69636428Y-85297200D01*
X69636428Y-85297200D02*
X69684047Y-85249580D01*
X69684047Y-85249580D02*
X69731666Y-85154342D01*
X69731666Y-85154342D02*
X69731666Y-84916247D01*
X69731666Y-84916247D02*
X69684047Y-84821009D01*
X69684047Y-84821009D02*
X69636428Y-84773390D01*
X69636428Y-84773390D02*
X69541190Y-84725771D01*
X69541190Y-84725771D02*
X69350714Y-84725771D01*
X69350714Y-84725771D02*
X69255476Y-84773390D01*
X69255476Y-84773390D02*
X69207857Y-84821009D01*
X69207857Y-84821009D02*
X69160238Y-84916247D01*
X110251666Y-132539819D02*
X110251666Y-133254104D01*
X110251666Y-133254104D02*
X110204047Y-133396961D01*
X110204047Y-133396961D02*
X110108809Y-133492200D01*
X110108809Y-133492200D02*
X109965952Y-133539819D01*
X109965952Y-133539819D02*
X109870714Y-133539819D01*
X110727857Y-133539819D02*
X110727857Y-132539819D01*
X110727857Y-132539819D02*
X111108809Y-132539819D01*
X111108809Y-132539819D02*
X111204047Y-132587438D01*
X111204047Y-132587438D02*
X111251666Y-132635057D01*
X111251666Y-132635057D02*
X111299285Y-132730295D01*
X111299285Y-132730295D02*
X111299285Y-132873152D01*
X111299285Y-132873152D02*
X111251666Y-132968390D01*
X111251666Y-132968390D02*
X111204047Y-133016009D01*
X111204047Y-133016009D02*
X111108809Y-133063628D01*
X111108809Y-133063628D02*
X110727857Y-133063628D01*
X111680238Y-132635057D02*
X111727857Y-132587438D01*
X111727857Y-132587438D02*
X111823095Y-132539819D01*
X111823095Y-132539819D02*
X112061190Y-132539819D01*
X112061190Y-132539819D02*
X112156428Y-132587438D01*
X112156428Y-132587438D02*
X112204047Y-132635057D01*
X112204047Y-132635057D02*
X112251666Y-132730295D01*
X112251666Y-132730295D02*
X112251666Y-132825533D01*
X112251666Y-132825533D02*
X112204047Y-132968390D01*
X112204047Y-132968390D02*
X111632619Y-133539819D01*
X111632619Y-133539819D02*
X112251666Y-133539819D01*
X90742142Y-86489819D02*
X90408809Y-86013628D01*
X90170714Y-86489819D02*
X90170714Y-85489819D01*
X90170714Y-85489819D02*
X90551666Y-85489819D01*
X90551666Y-85489819D02*
X90646904Y-85537438D01*
X90646904Y-85537438D02*
X90694523Y-85585057D01*
X90694523Y-85585057D02*
X90742142Y-85680295D01*
X90742142Y-85680295D02*
X90742142Y-85823152D01*
X90742142Y-85823152D02*
X90694523Y-85918390D01*
X90694523Y-85918390D02*
X90646904Y-85966009D01*
X90646904Y-85966009D02*
X90551666Y-86013628D01*
X90551666Y-86013628D02*
X90170714Y-86013628D01*
X91694523Y-86489819D02*
X91123095Y-86489819D01*
X91408809Y-86489819D02*
X91408809Y-85489819D01*
X91408809Y-85489819D02*
X91313571Y-85632676D01*
X91313571Y-85632676D02*
X91218333Y-85727914D01*
X91218333Y-85727914D02*
X91123095Y-85775533D01*
X92599285Y-85489819D02*
X92123095Y-85489819D01*
X92123095Y-85489819D02*
X92075476Y-85966009D01*
X92075476Y-85966009D02*
X92123095Y-85918390D01*
X92123095Y-85918390D02*
X92218333Y-85870771D01*
X92218333Y-85870771D02*
X92456428Y-85870771D01*
X92456428Y-85870771D02*
X92551666Y-85918390D01*
X92551666Y-85918390D02*
X92599285Y-85966009D01*
X92599285Y-85966009D02*
X92646904Y-86061247D01*
X92646904Y-86061247D02*
X92646904Y-86299342D01*
X92646904Y-86299342D02*
X92599285Y-86394580D01*
X92599285Y-86394580D02*
X92551666Y-86442200D01*
X92551666Y-86442200D02*
X92456428Y-86489819D01*
X92456428Y-86489819D02*
X92218333Y-86489819D01*
X92218333Y-86489819D02*
X92123095Y-86442200D01*
X92123095Y-86442200D02*
X92075476Y-86394580D01*
X81167933Y-94357219D02*
X80834600Y-93881028D01*
X80596505Y-94357219D02*
X80596505Y-93357219D01*
X80596505Y-93357219D02*
X80977457Y-93357219D01*
X80977457Y-93357219D02*
X81072695Y-93404838D01*
X81072695Y-93404838D02*
X81120314Y-93452457D01*
X81120314Y-93452457D02*
X81167933Y-93547695D01*
X81167933Y-93547695D02*
X81167933Y-93690552D01*
X81167933Y-93690552D02*
X81120314Y-93785790D01*
X81120314Y-93785790D02*
X81072695Y-93833409D01*
X81072695Y-93833409D02*
X80977457Y-93881028D01*
X80977457Y-93881028D02*
X80596505Y-93881028D01*
X81644124Y-94357219D02*
X81834600Y-94357219D01*
X81834600Y-94357219D02*
X81929838Y-94309600D01*
X81929838Y-94309600D02*
X81977457Y-94261980D01*
X81977457Y-94261980D02*
X82072695Y-94119123D01*
X82072695Y-94119123D02*
X82120314Y-93928647D01*
X82120314Y-93928647D02*
X82120314Y-93547695D01*
X82120314Y-93547695D02*
X82072695Y-93452457D01*
X82072695Y-93452457D02*
X82025076Y-93404838D01*
X82025076Y-93404838D02*
X81929838Y-93357219D01*
X81929838Y-93357219D02*
X81739362Y-93357219D01*
X81739362Y-93357219D02*
X81644124Y-93404838D01*
X81644124Y-93404838D02*
X81596505Y-93452457D01*
X81596505Y-93452457D02*
X81548886Y-93547695D01*
X81548886Y-93547695D02*
X81548886Y-93785790D01*
X81548886Y-93785790D02*
X81596505Y-93881028D01*
X81596505Y-93881028D02*
X81644124Y-93928647D01*
X81644124Y-93928647D02*
X81739362Y-93976266D01*
X81739362Y-93976266D02*
X81929838Y-93976266D01*
X81929838Y-93976266D02*
X82025076Y-93928647D01*
X82025076Y-93928647D02*
X82072695Y-93881028D01*
X82072695Y-93881028D02*
X82120314Y-93785790D01*
X108368333Y-86204580D02*
X108320714Y-86252200D01*
X108320714Y-86252200D02*
X108177857Y-86299819D01*
X108177857Y-86299819D02*
X108082619Y-86299819D01*
X108082619Y-86299819D02*
X107939762Y-86252200D01*
X107939762Y-86252200D02*
X107844524Y-86156961D01*
X107844524Y-86156961D02*
X107796905Y-86061723D01*
X107796905Y-86061723D02*
X107749286Y-85871247D01*
X107749286Y-85871247D02*
X107749286Y-85728390D01*
X107749286Y-85728390D02*
X107796905Y-85537914D01*
X107796905Y-85537914D02*
X107844524Y-85442676D01*
X107844524Y-85442676D02*
X107939762Y-85347438D01*
X107939762Y-85347438D02*
X108082619Y-85299819D01*
X108082619Y-85299819D02*
X108177857Y-85299819D01*
X108177857Y-85299819D02*
X108320714Y-85347438D01*
X108320714Y-85347438D02*
X108368333Y-85395057D01*
X108844524Y-86299819D02*
X109035000Y-86299819D01*
X109035000Y-86299819D02*
X109130238Y-86252200D01*
X109130238Y-86252200D02*
X109177857Y-86204580D01*
X109177857Y-86204580D02*
X109273095Y-86061723D01*
X109273095Y-86061723D02*
X109320714Y-85871247D01*
X109320714Y-85871247D02*
X109320714Y-85490295D01*
X109320714Y-85490295D02*
X109273095Y-85395057D01*
X109273095Y-85395057D02*
X109225476Y-85347438D01*
X109225476Y-85347438D02*
X109130238Y-85299819D01*
X109130238Y-85299819D02*
X108939762Y-85299819D01*
X108939762Y-85299819D02*
X108844524Y-85347438D01*
X108844524Y-85347438D02*
X108796905Y-85395057D01*
X108796905Y-85395057D02*
X108749286Y-85490295D01*
X108749286Y-85490295D02*
X108749286Y-85728390D01*
X108749286Y-85728390D02*
X108796905Y-85823628D01*
X108796905Y-85823628D02*
X108844524Y-85871247D01*
X108844524Y-85871247D02*
X108939762Y-85918866D01*
X108939762Y-85918866D02*
X109130238Y-85918866D01*
X109130238Y-85918866D02*
X109225476Y-85871247D01*
X109225476Y-85871247D02*
X109273095Y-85823628D01*
X109273095Y-85823628D02*
X109320714Y-85728390D01*
X70788333Y-100719819D02*
X70455000Y-100243628D01*
X70216905Y-100719819D02*
X70216905Y-99719819D01*
X70216905Y-99719819D02*
X70597857Y-99719819D01*
X70597857Y-99719819D02*
X70693095Y-99767438D01*
X70693095Y-99767438D02*
X70740714Y-99815057D01*
X70740714Y-99815057D02*
X70788333Y-99910295D01*
X70788333Y-99910295D02*
X70788333Y-100053152D01*
X70788333Y-100053152D02*
X70740714Y-100148390D01*
X70740714Y-100148390D02*
X70693095Y-100196009D01*
X70693095Y-100196009D02*
X70597857Y-100243628D01*
X70597857Y-100243628D02*
X70216905Y-100243628D01*
X71121667Y-99719819D02*
X71788333Y-99719819D01*
X71788333Y-99719819D02*
X71359762Y-100719819D01*
X72801666Y-132999819D02*
X72801666Y-133714104D01*
X72801666Y-133714104D02*
X72754047Y-133856961D01*
X72754047Y-133856961D02*
X72658809Y-133952200D01*
X72658809Y-133952200D02*
X72515952Y-133999819D01*
X72515952Y-133999819D02*
X72420714Y-133999819D01*
X73277857Y-133999819D02*
X73277857Y-132999819D01*
X73277857Y-132999819D02*
X73658809Y-132999819D01*
X73658809Y-132999819D02*
X73754047Y-133047438D01*
X73754047Y-133047438D02*
X73801666Y-133095057D01*
X73801666Y-133095057D02*
X73849285Y-133190295D01*
X73849285Y-133190295D02*
X73849285Y-133333152D01*
X73849285Y-133333152D02*
X73801666Y-133428390D01*
X73801666Y-133428390D02*
X73754047Y-133476009D01*
X73754047Y-133476009D02*
X73658809Y-133523628D01*
X73658809Y-133523628D02*
X73277857Y-133523628D01*
X74754047Y-132999819D02*
X74277857Y-132999819D01*
X74277857Y-132999819D02*
X74230238Y-133476009D01*
X74230238Y-133476009D02*
X74277857Y-133428390D01*
X74277857Y-133428390D02*
X74373095Y-133380771D01*
X74373095Y-133380771D02*
X74611190Y-133380771D01*
X74611190Y-133380771D02*
X74706428Y-133428390D01*
X74706428Y-133428390D02*
X74754047Y-133476009D01*
X74754047Y-133476009D02*
X74801666Y-133571247D01*
X74801666Y-133571247D02*
X74801666Y-133809342D01*
X74801666Y-133809342D02*
X74754047Y-133904580D01*
X74754047Y-133904580D02*
X74706428Y-133952200D01*
X74706428Y-133952200D02*
X74611190Y-133999819D01*
X74611190Y-133999819D02*
X74373095Y-133999819D01*
X74373095Y-133999819D02*
X74277857Y-133952200D01*
X74277857Y-133952200D02*
X74230238Y-133904580D01*
X67141666Y-100939819D02*
X67141666Y-101654104D01*
X67141666Y-101654104D02*
X67094047Y-101796961D01*
X67094047Y-101796961D02*
X66998809Y-101892200D01*
X66998809Y-101892200D02*
X66855952Y-101939819D01*
X66855952Y-101939819D02*
X66760714Y-101939819D01*
X67617857Y-101939819D02*
X67617857Y-100939819D01*
X67617857Y-100939819D02*
X67998809Y-100939819D01*
X67998809Y-100939819D02*
X68094047Y-100987438D01*
X68094047Y-100987438D02*
X68141666Y-101035057D01*
X68141666Y-101035057D02*
X68189285Y-101130295D01*
X68189285Y-101130295D02*
X68189285Y-101273152D01*
X68189285Y-101273152D02*
X68141666Y-101368390D01*
X68141666Y-101368390D02*
X68094047Y-101416009D01*
X68094047Y-101416009D02*
X67998809Y-101463628D01*
X67998809Y-101463628D02*
X67617857Y-101463628D01*
X69141666Y-101939819D02*
X68570238Y-101939819D01*
X68855952Y-101939819D02*
X68855952Y-100939819D01*
X68855952Y-100939819D02*
X68760714Y-101082676D01*
X68760714Y-101082676D02*
X68665476Y-101177914D01*
X68665476Y-101177914D02*
X68570238Y-101225533D01*
X118229819Y-92268333D02*
X118944104Y-92268333D01*
X118944104Y-92268333D02*
X119086961Y-92315952D01*
X119086961Y-92315952D02*
X119182200Y-92411190D01*
X119182200Y-92411190D02*
X119229819Y-92554047D01*
X119229819Y-92554047D02*
X119229819Y-92649285D01*
X119229819Y-91792142D02*
X118229819Y-91792142D01*
X118229819Y-91792142D02*
X118229819Y-91411190D01*
X118229819Y-91411190D02*
X118277438Y-91315952D01*
X118277438Y-91315952D02*
X118325057Y-91268333D01*
X118325057Y-91268333D02*
X118420295Y-91220714D01*
X118420295Y-91220714D02*
X118563152Y-91220714D01*
X118563152Y-91220714D02*
X118658390Y-91268333D01*
X118658390Y-91268333D02*
X118706009Y-91315952D01*
X118706009Y-91315952D02*
X118753628Y-91411190D01*
X118753628Y-91411190D02*
X118753628Y-91792142D01*
X118658390Y-90649285D02*
X118610771Y-90744523D01*
X118610771Y-90744523D02*
X118563152Y-90792142D01*
X118563152Y-90792142D02*
X118467914Y-90839761D01*
X118467914Y-90839761D02*
X118420295Y-90839761D01*
X118420295Y-90839761D02*
X118325057Y-90792142D01*
X118325057Y-90792142D02*
X118277438Y-90744523D01*
X118277438Y-90744523D02*
X118229819Y-90649285D01*
X118229819Y-90649285D02*
X118229819Y-90458809D01*
X118229819Y-90458809D02*
X118277438Y-90363571D01*
X118277438Y-90363571D02*
X118325057Y-90315952D01*
X118325057Y-90315952D02*
X118420295Y-90268333D01*
X118420295Y-90268333D02*
X118467914Y-90268333D01*
X118467914Y-90268333D02*
X118563152Y-90315952D01*
X118563152Y-90315952D02*
X118610771Y-90363571D01*
X118610771Y-90363571D02*
X118658390Y-90458809D01*
X118658390Y-90458809D02*
X118658390Y-90649285D01*
X118658390Y-90649285D02*
X118706009Y-90744523D01*
X118706009Y-90744523D02*
X118753628Y-90792142D01*
X118753628Y-90792142D02*
X118848866Y-90839761D01*
X118848866Y-90839761D02*
X119039342Y-90839761D01*
X119039342Y-90839761D02*
X119134580Y-90792142D01*
X119134580Y-90792142D02*
X119182200Y-90744523D01*
X119182200Y-90744523D02*
X119229819Y-90649285D01*
X119229819Y-90649285D02*
X119229819Y-90458809D01*
X119229819Y-90458809D02*
X119182200Y-90363571D01*
X119182200Y-90363571D02*
X119134580Y-90315952D01*
X119134580Y-90315952D02*
X119039342Y-90268333D01*
X119039342Y-90268333D02*
X118848866Y-90268333D01*
X118848866Y-90268333D02*
X118753628Y-90315952D01*
X118753628Y-90315952D02*
X118706009Y-90363571D01*
X118706009Y-90363571D02*
X118658390Y-90458809D01*
X115231666Y-127979819D02*
X115231666Y-128694104D01*
X115231666Y-128694104D02*
X115184047Y-128836961D01*
X115184047Y-128836961D02*
X115088809Y-128932200D01*
X115088809Y-128932200D02*
X114945952Y-128979819D01*
X114945952Y-128979819D02*
X114850714Y-128979819D01*
X116231666Y-128979819D02*
X115660238Y-128979819D01*
X115945952Y-128979819D02*
X115945952Y-127979819D01*
X115945952Y-127979819D02*
X115850714Y-128122676D01*
X115850714Y-128122676D02*
X115755476Y-128217914D01*
X115755476Y-128217914D02*
X115660238Y-128265533D01*
D12*
X94154047Y-123320270D02*
X94033095Y-123259794D01*
X94033095Y-123259794D02*
X93912142Y-123138842D01*
X93912142Y-123138842D02*
X93730714Y-122957413D01*
X93730714Y-122957413D02*
X93609761Y-122896937D01*
X93609761Y-122896937D02*
X93488809Y-122896937D01*
X93549285Y-123199318D02*
X93428333Y-123138842D01*
X93428333Y-123138842D02*
X93307380Y-123017889D01*
X93307380Y-123017889D02*
X93246904Y-122775984D01*
X93246904Y-122775984D02*
X93246904Y-122352651D01*
X93246904Y-122352651D02*
X93307380Y-122110746D01*
X93307380Y-122110746D02*
X93428333Y-121989794D01*
X93428333Y-121989794D02*
X93549285Y-121929318D01*
X93549285Y-121929318D02*
X93791190Y-121929318D01*
X93791190Y-121929318D02*
X93912142Y-121989794D01*
X93912142Y-121989794D02*
X94033095Y-122110746D01*
X94033095Y-122110746D02*
X94093571Y-122352651D01*
X94093571Y-122352651D02*
X94093571Y-122775984D01*
X94093571Y-122775984D02*
X94033095Y-123017889D01*
X94033095Y-123017889D02*
X93912142Y-123138842D01*
X93912142Y-123138842D02*
X93791190Y-123199318D01*
X93791190Y-123199318D02*
X93549285Y-123199318D01*
X94577380Y-122050270D02*
X94637856Y-121989794D01*
X94637856Y-121989794D02*
X94758809Y-121929318D01*
X94758809Y-121929318D02*
X95061190Y-121929318D01*
X95061190Y-121929318D02*
X95182142Y-121989794D01*
X95182142Y-121989794D02*
X95242618Y-122050270D01*
X95242618Y-122050270D02*
X95303095Y-122171222D01*
X95303095Y-122171222D02*
X95303095Y-122292175D01*
X95303095Y-122292175D02*
X95242618Y-122473603D01*
X95242618Y-122473603D02*
X94516904Y-123199318D01*
X94516904Y-123199318D02*
X95303095Y-123199318D01*
D10*
X110491666Y-85129819D02*
X110491666Y-85844104D01*
X110491666Y-85844104D02*
X110444047Y-85986961D01*
X110444047Y-85986961D02*
X110348809Y-86082200D01*
X110348809Y-86082200D02*
X110205952Y-86129819D01*
X110205952Y-86129819D02*
X110110714Y-86129819D01*
X110967857Y-86129819D02*
X110967857Y-85129819D01*
X110967857Y-85129819D02*
X111348809Y-85129819D01*
X111348809Y-85129819D02*
X111444047Y-85177438D01*
X111444047Y-85177438D02*
X111491666Y-85225057D01*
X111491666Y-85225057D02*
X111539285Y-85320295D01*
X111539285Y-85320295D02*
X111539285Y-85463152D01*
X111539285Y-85463152D02*
X111491666Y-85558390D01*
X111491666Y-85558390D02*
X111444047Y-85606009D01*
X111444047Y-85606009D02*
X111348809Y-85653628D01*
X111348809Y-85653628D02*
X110967857Y-85653628D01*
X112396428Y-85463152D02*
X112396428Y-86129819D01*
X112158333Y-85082200D02*
X111920238Y-85796485D01*
X111920238Y-85796485D02*
X112539285Y-85796485D01*
X83858333Y-110574580D02*
X83810714Y-110622200D01*
X83810714Y-110622200D02*
X83667857Y-110669819D01*
X83667857Y-110669819D02*
X83572619Y-110669819D01*
X83572619Y-110669819D02*
X83429762Y-110622200D01*
X83429762Y-110622200D02*
X83334524Y-110526961D01*
X83334524Y-110526961D02*
X83286905Y-110431723D01*
X83286905Y-110431723D02*
X83239286Y-110241247D01*
X83239286Y-110241247D02*
X83239286Y-110098390D01*
X83239286Y-110098390D02*
X83286905Y-109907914D01*
X83286905Y-109907914D02*
X83334524Y-109812676D01*
X83334524Y-109812676D02*
X83429762Y-109717438D01*
X83429762Y-109717438D02*
X83572619Y-109669819D01*
X83572619Y-109669819D02*
X83667857Y-109669819D01*
X83667857Y-109669819D02*
X83810714Y-109717438D01*
X83810714Y-109717438D02*
X83858333Y-109765057D01*
X84763095Y-109669819D02*
X84286905Y-109669819D01*
X84286905Y-109669819D02*
X84239286Y-110146009D01*
X84239286Y-110146009D02*
X84286905Y-110098390D01*
X84286905Y-110098390D02*
X84382143Y-110050771D01*
X84382143Y-110050771D02*
X84620238Y-110050771D01*
X84620238Y-110050771D02*
X84715476Y-110098390D01*
X84715476Y-110098390D02*
X84763095Y-110146009D01*
X84763095Y-110146009D02*
X84810714Y-110241247D01*
X84810714Y-110241247D02*
X84810714Y-110479342D01*
X84810714Y-110479342D02*
X84763095Y-110574580D01*
X84763095Y-110574580D02*
X84715476Y-110622200D01*
X84715476Y-110622200D02*
X84620238Y-110669819D01*
X84620238Y-110669819D02*
X84382143Y-110669819D01*
X84382143Y-110669819D02*
X84286905Y-110622200D01*
X84286905Y-110622200D02*
X84239286Y-110574580D01*
X98098333Y-104789819D02*
X97765000Y-104313628D01*
X97526905Y-104789819D02*
X97526905Y-103789819D01*
X97526905Y-103789819D02*
X97907857Y-103789819D01*
X97907857Y-103789819D02*
X98003095Y-103837438D01*
X98003095Y-103837438D02*
X98050714Y-103885057D01*
X98050714Y-103885057D02*
X98098333Y-103980295D01*
X98098333Y-103980295D02*
X98098333Y-104123152D01*
X98098333Y-104123152D02*
X98050714Y-104218390D01*
X98050714Y-104218390D02*
X98003095Y-104266009D01*
X98003095Y-104266009D02*
X97907857Y-104313628D01*
X97907857Y-104313628D02*
X97526905Y-104313628D01*
X99050714Y-104789819D02*
X98479286Y-104789819D01*
X98765000Y-104789819D02*
X98765000Y-103789819D01*
X98765000Y-103789819D02*
X98669762Y-103932676D01*
X98669762Y-103932676D02*
X98574524Y-104027914D01*
X98574524Y-104027914D02*
X98479286Y-104075533D01*
X74042142Y-101924580D02*
X73994523Y-101972200D01*
X73994523Y-101972200D02*
X73851666Y-102019819D01*
X73851666Y-102019819D02*
X73756428Y-102019819D01*
X73756428Y-102019819D02*
X73613571Y-101972200D01*
X73613571Y-101972200D02*
X73518333Y-101876961D01*
X73518333Y-101876961D02*
X73470714Y-101781723D01*
X73470714Y-101781723D02*
X73423095Y-101591247D01*
X73423095Y-101591247D02*
X73423095Y-101448390D01*
X73423095Y-101448390D02*
X73470714Y-101257914D01*
X73470714Y-101257914D02*
X73518333Y-101162676D01*
X73518333Y-101162676D02*
X73613571Y-101067438D01*
X73613571Y-101067438D02*
X73756428Y-101019819D01*
X73756428Y-101019819D02*
X73851666Y-101019819D01*
X73851666Y-101019819D02*
X73994523Y-101067438D01*
X73994523Y-101067438D02*
X74042142Y-101115057D01*
X74994523Y-102019819D02*
X74423095Y-102019819D01*
X74708809Y-102019819D02*
X74708809Y-101019819D01*
X74708809Y-101019819D02*
X74613571Y-101162676D01*
X74613571Y-101162676D02*
X74518333Y-101257914D01*
X74518333Y-101257914D02*
X74423095Y-101305533D01*
X75470714Y-102019819D02*
X75661190Y-102019819D01*
X75661190Y-102019819D02*
X75756428Y-101972200D01*
X75756428Y-101972200D02*
X75804047Y-101924580D01*
X75804047Y-101924580D02*
X75899285Y-101781723D01*
X75899285Y-101781723D02*
X75946904Y-101591247D01*
X75946904Y-101591247D02*
X75946904Y-101210295D01*
X75946904Y-101210295D02*
X75899285Y-101115057D01*
X75899285Y-101115057D02*
X75851666Y-101067438D01*
X75851666Y-101067438D02*
X75756428Y-101019819D01*
X75756428Y-101019819D02*
X75565952Y-101019819D01*
X75565952Y-101019819D02*
X75470714Y-101067438D01*
X75470714Y-101067438D02*
X75423095Y-101115057D01*
X75423095Y-101115057D02*
X75375476Y-101210295D01*
X75375476Y-101210295D02*
X75375476Y-101448390D01*
X75375476Y-101448390D02*
X75423095Y-101543628D01*
X75423095Y-101543628D02*
X75470714Y-101591247D01*
X75470714Y-101591247D02*
X75565952Y-101638866D01*
X75565952Y-101638866D02*
X75756428Y-101638866D01*
X75756428Y-101638866D02*
X75851666Y-101591247D01*
X75851666Y-101591247D02*
X75899285Y-101543628D01*
X75899285Y-101543628D02*
X75946904Y-101448390D01*
X84441742Y-95480219D02*
X84108409Y-95004028D01*
X83870314Y-95480219D02*
X83870314Y-94480219D01*
X83870314Y-94480219D02*
X84251266Y-94480219D01*
X84251266Y-94480219D02*
X84346504Y-94527838D01*
X84346504Y-94527838D02*
X84394123Y-94575457D01*
X84394123Y-94575457D02*
X84441742Y-94670695D01*
X84441742Y-94670695D02*
X84441742Y-94813552D01*
X84441742Y-94813552D02*
X84394123Y-94908790D01*
X84394123Y-94908790D02*
X84346504Y-94956409D01*
X84346504Y-94956409D02*
X84251266Y-95004028D01*
X84251266Y-95004028D02*
X83870314Y-95004028D01*
X85394123Y-95480219D02*
X84822695Y-95480219D01*
X85108409Y-95480219D02*
X85108409Y-94480219D01*
X85108409Y-94480219D02*
X85013171Y-94623076D01*
X85013171Y-94623076D02*
X84917933Y-94718314D01*
X84917933Y-94718314D02*
X84822695Y-94765933D01*
X85965552Y-94908790D02*
X85870314Y-94861171D01*
X85870314Y-94861171D02*
X85822695Y-94813552D01*
X85822695Y-94813552D02*
X85775076Y-94718314D01*
X85775076Y-94718314D02*
X85775076Y-94670695D01*
X85775076Y-94670695D02*
X85822695Y-94575457D01*
X85822695Y-94575457D02*
X85870314Y-94527838D01*
X85870314Y-94527838D02*
X85965552Y-94480219D01*
X85965552Y-94480219D02*
X86156028Y-94480219D01*
X86156028Y-94480219D02*
X86251266Y-94527838D01*
X86251266Y-94527838D02*
X86298885Y-94575457D01*
X86298885Y-94575457D02*
X86346504Y-94670695D01*
X86346504Y-94670695D02*
X86346504Y-94718314D01*
X86346504Y-94718314D02*
X86298885Y-94813552D01*
X86298885Y-94813552D02*
X86251266Y-94861171D01*
X86251266Y-94861171D02*
X86156028Y-94908790D01*
X86156028Y-94908790D02*
X85965552Y-94908790D01*
X85965552Y-94908790D02*
X85870314Y-94956409D01*
X85870314Y-94956409D02*
X85822695Y-95004028D01*
X85822695Y-95004028D02*
X85775076Y-95099266D01*
X85775076Y-95099266D02*
X85775076Y-95289742D01*
X85775076Y-95289742D02*
X85822695Y-95384980D01*
X85822695Y-95384980D02*
X85870314Y-95432600D01*
X85870314Y-95432600D02*
X85965552Y-95480219D01*
X85965552Y-95480219D02*
X86156028Y-95480219D01*
X86156028Y-95480219D02*
X86251266Y-95432600D01*
X86251266Y-95432600D02*
X86298885Y-95384980D01*
X86298885Y-95384980D02*
X86346504Y-95289742D01*
X86346504Y-95289742D02*
X86346504Y-95099266D01*
X86346504Y-95099266D02*
X86298885Y-95004028D01*
X86298885Y-95004028D02*
X86251266Y-94956409D01*
X86251266Y-94956409D02*
X86156028Y-94908790D01*
X103438333Y-87177580D02*
X103390714Y-87225200D01*
X103390714Y-87225200D02*
X103247857Y-87272819D01*
X103247857Y-87272819D02*
X103152619Y-87272819D01*
X103152619Y-87272819D02*
X103009762Y-87225200D01*
X103009762Y-87225200D02*
X102914524Y-87129961D01*
X102914524Y-87129961D02*
X102866905Y-87034723D01*
X102866905Y-87034723D02*
X102819286Y-86844247D01*
X102819286Y-86844247D02*
X102819286Y-86701390D01*
X102819286Y-86701390D02*
X102866905Y-86510914D01*
X102866905Y-86510914D02*
X102914524Y-86415676D01*
X102914524Y-86415676D02*
X103009762Y-86320438D01*
X103009762Y-86320438D02*
X103152619Y-86272819D01*
X103152619Y-86272819D02*
X103247857Y-86272819D01*
X103247857Y-86272819D02*
X103390714Y-86320438D01*
X103390714Y-86320438D02*
X103438333Y-86368057D01*
X103771667Y-86272819D02*
X104438333Y-86272819D01*
X104438333Y-86272819D02*
X104009762Y-87272819D01*
X73313333Y-124364580D02*
X73265714Y-124412200D01*
X73265714Y-124412200D02*
X73122857Y-124459819D01*
X73122857Y-124459819D02*
X73027619Y-124459819D01*
X73027619Y-124459819D02*
X72884762Y-124412200D01*
X72884762Y-124412200D02*
X72789524Y-124316961D01*
X72789524Y-124316961D02*
X72741905Y-124221723D01*
X72741905Y-124221723D02*
X72694286Y-124031247D01*
X72694286Y-124031247D02*
X72694286Y-123888390D01*
X72694286Y-123888390D02*
X72741905Y-123697914D01*
X72741905Y-123697914D02*
X72789524Y-123602676D01*
X72789524Y-123602676D02*
X72884762Y-123507438D01*
X72884762Y-123507438D02*
X73027619Y-123459819D01*
X73027619Y-123459819D02*
X73122857Y-123459819D01*
X73122857Y-123459819D02*
X73265714Y-123507438D01*
X73265714Y-123507438D02*
X73313333Y-123555057D01*
X73646667Y-123459819D02*
X74265714Y-123459819D01*
X74265714Y-123459819D02*
X73932381Y-123840771D01*
X73932381Y-123840771D02*
X74075238Y-123840771D01*
X74075238Y-123840771D02*
X74170476Y-123888390D01*
X74170476Y-123888390D02*
X74218095Y-123936009D01*
X74218095Y-123936009D02*
X74265714Y-124031247D01*
X74265714Y-124031247D02*
X74265714Y-124269342D01*
X74265714Y-124269342D02*
X74218095Y-124364580D01*
X74218095Y-124364580D02*
X74170476Y-124412200D01*
X74170476Y-124412200D02*
X74075238Y-124459819D01*
X74075238Y-124459819D02*
X73789524Y-124459819D01*
X73789524Y-124459819D02*
X73694286Y-124412200D01*
X73694286Y-124412200D02*
X73646667Y-124364580D01*
X84389742Y-93861219D02*
X84056409Y-93385028D01*
X83818314Y-93861219D02*
X83818314Y-92861219D01*
X83818314Y-92861219D02*
X84199266Y-92861219D01*
X84199266Y-92861219D02*
X84294504Y-92908838D01*
X84294504Y-92908838D02*
X84342123Y-92956457D01*
X84342123Y-92956457D02*
X84389742Y-93051695D01*
X84389742Y-93051695D02*
X84389742Y-93194552D01*
X84389742Y-93194552D02*
X84342123Y-93289790D01*
X84342123Y-93289790D02*
X84294504Y-93337409D01*
X84294504Y-93337409D02*
X84199266Y-93385028D01*
X84199266Y-93385028D02*
X83818314Y-93385028D01*
X84770695Y-92956457D02*
X84818314Y-92908838D01*
X84818314Y-92908838D02*
X84913552Y-92861219D01*
X84913552Y-92861219D02*
X85151647Y-92861219D01*
X85151647Y-92861219D02*
X85246885Y-92908838D01*
X85246885Y-92908838D02*
X85294504Y-92956457D01*
X85294504Y-92956457D02*
X85342123Y-93051695D01*
X85342123Y-93051695D02*
X85342123Y-93146933D01*
X85342123Y-93146933D02*
X85294504Y-93289790D01*
X85294504Y-93289790D02*
X84723076Y-93861219D01*
X84723076Y-93861219D02*
X85342123Y-93861219D01*
X86294504Y-93861219D02*
X85723076Y-93861219D01*
X86008790Y-93861219D02*
X86008790Y-92861219D01*
X86008790Y-92861219D02*
X85913552Y-93004076D01*
X85913552Y-93004076D02*
X85818314Y-93099314D01*
X85818314Y-93099314D02*
X85723076Y-93146933D01*
X73913333Y-112139580D02*
X73865714Y-112187200D01*
X73865714Y-112187200D02*
X73722857Y-112234819D01*
X73722857Y-112234819D02*
X73627619Y-112234819D01*
X73627619Y-112234819D02*
X73484762Y-112187200D01*
X73484762Y-112187200D02*
X73389524Y-112091961D01*
X73389524Y-112091961D02*
X73341905Y-111996723D01*
X73341905Y-111996723D02*
X73294286Y-111806247D01*
X73294286Y-111806247D02*
X73294286Y-111663390D01*
X73294286Y-111663390D02*
X73341905Y-111472914D01*
X73341905Y-111472914D02*
X73389524Y-111377676D01*
X73389524Y-111377676D02*
X73484762Y-111282438D01*
X73484762Y-111282438D02*
X73627619Y-111234819D01*
X73627619Y-111234819D02*
X73722857Y-111234819D01*
X73722857Y-111234819D02*
X73865714Y-111282438D01*
X73865714Y-111282438D02*
X73913333Y-111330057D01*
X74770476Y-111568152D02*
X74770476Y-112234819D01*
X74532381Y-111187200D02*
X74294286Y-111901485D01*
X74294286Y-111901485D02*
X74913333Y-111901485D01*
X75623933Y-97980219D02*
X75290600Y-97504028D01*
X75052505Y-97980219D02*
X75052505Y-96980219D01*
X75052505Y-96980219D02*
X75433457Y-96980219D01*
X75433457Y-96980219D02*
X75528695Y-97027838D01*
X75528695Y-97027838D02*
X75576314Y-97075457D01*
X75576314Y-97075457D02*
X75623933Y-97170695D01*
X75623933Y-97170695D02*
X75623933Y-97313552D01*
X75623933Y-97313552D02*
X75576314Y-97408790D01*
X75576314Y-97408790D02*
X75528695Y-97456409D01*
X75528695Y-97456409D02*
X75433457Y-97504028D01*
X75433457Y-97504028D02*
X75052505Y-97504028D01*
X76195362Y-97408790D02*
X76100124Y-97361171D01*
X76100124Y-97361171D02*
X76052505Y-97313552D01*
X76052505Y-97313552D02*
X76004886Y-97218314D01*
X76004886Y-97218314D02*
X76004886Y-97170695D01*
X76004886Y-97170695D02*
X76052505Y-97075457D01*
X76052505Y-97075457D02*
X76100124Y-97027838D01*
X76100124Y-97027838D02*
X76195362Y-96980219D01*
X76195362Y-96980219D02*
X76385838Y-96980219D01*
X76385838Y-96980219D02*
X76481076Y-97027838D01*
X76481076Y-97027838D02*
X76528695Y-97075457D01*
X76528695Y-97075457D02*
X76576314Y-97170695D01*
X76576314Y-97170695D02*
X76576314Y-97218314D01*
X76576314Y-97218314D02*
X76528695Y-97313552D01*
X76528695Y-97313552D02*
X76481076Y-97361171D01*
X76481076Y-97361171D02*
X76385838Y-97408790D01*
X76385838Y-97408790D02*
X76195362Y-97408790D01*
X76195362Y-97408790D02*
X76100124Y-97456409D01*
X76100124Y-97456409D02*
X76052505Y-97504028D01*
X76052505Y-97504028D02*
X76004886Y-97599266D01*
X76004886Y-97599266D02*
X76004886Y-97789742D01*
X76004886Y-97789742D02*
X76052505Y-97884980D01*
X76052505Y-97884980D02*
X76100124Y-97932600D01*
X76100124Y-97932600D02*
X76195362Y-97980219D01*
X76195362Y-97980219D02*
X76385838Y-97980219D01*
X76385838Y-97980219D02*
X76481076Y-97932600D01*
X76481076Y-97932600D02*
X76528695Y-97884980D01*
X76528695Y-97884980D02*
X76576314Y-97789742D01*
X76576314Y-97789742D02*
X76576314Y-97599266D01*
X76576314Y-97599266D02*
X76528695Y-97504028D01*
X76528695Y-97504028D02*
X76481076Y-97456409D01*
X76481076Y-97456409D02*
X76385838Y-97408790D01*
X74182142Y-100144580D02*
X74134523Y-100192200D01*
X74134523Y-100192200D02*
X73991666Y-100239819D01*
X73991666Y-100239819D02*
X73896428Y-100239819D01*
X73896428Y-100239819D02*
X73753571Y-100192200D01*
X73753571Y-100192200D02*
X73658333Y-100096961D01*
X73658333Y-100096961D02*
X73610714Y-100001723D01*
X73610714Y-100001723D02*
X73563095Y-99811247D01*
X73563095Y-99811247D02*
X73563095Y-99668390D01*
X73563095Y-99668390D02*
X73610714Y-99477914D01*
X73610714Y-99477914D02*
X73658333Y-99382676D01*
X73658333Y-99382676D02*
X73753571Y-99287438D01*
X73753571Y-99287438D02*
X73896428Y-99239819D01*
X73896428Y-99239819D02*
X73991666Y-99239819D01*
X73991666Y-99239819D02*
X74134523Y-99287438D01*
X74134523Y-99287438D02*
X74182142Y-99335057D01*
X75134523Y-100239819D02*
X74563095Y-100239819D01*
X74848809Y-100239819D02*
X74848809Y-99239819D01*
X74848809Y-99239819D02*
X74753571Y-99382676D01*
X74753571Y-99382676D02*
X74658333Y-99477914D01*
X74658333Y-99477914D02*
X74563095Y-99525533D01*
X75467857Y-99239819D02*
X76134523Y-99239819D01*
X76134523Y-99239819D02*
X75705952Y-100239819D01*
X74766742Y-105980219D02*
X74433409Y-105504028D01*
X74195314Y-105980219D02*
X74195314Y-104980219D01*
X74195314Y-104980219D02*
X74576266Y-104980219D01*
X74576266Y-104980219D02*
X74671504Y-105027838D01*
X74671504Y-105027838D02*
X74719123Y-105075457D01*
X74719123Y-105075457D02*
X74766742Y-105170695D01*
X74766742Y-105170695D02*
X74766742Y-105313552D01*
X74766742Y-105313552D02*
X74719123Y-105408790D01*
X74719123Y-105408790D02*
X74671504Y-105456409D01*
X74671504Y-105456409D02*
X74576266Y-105504028D01*
X74576266Y-105504028D02*
X74195314Y-105504028D01*
X75719123Y-105980219D02*
X75147695Y-105980219D01*
X75433409Y-105980219D02*
X75433409Y-104980219D01*
X75433409Y-104980219D02*
X75338171Y-105123076D01*
X75338171Y-105123076D02*
X75242933Y-105218314D01*
X75242933Y-105218314D02*
X75147695Y-105265933D01*
X76052457Y-104980219D02*
X76671504Y-104980219D01*
X76671504Y-104980219D02*
X76338171Y-105361171D01*
X76338171Y-105361171D02*
X76481028Y-105361171D01*
X76481028Y-105361171D02*
X76576266Y-105408790D01*
X76576266Y-105408790D02*
X76623885Y-105456409D01*
X76623885Y-105456409D02*
X76671504Y-105551647D01*
X76671504Y-105551647D02*
X76671504Y-105789742D01*
X76671504Y-105789742D02*
X76623885Y-105884980D01*
X76623885Y-105884980D02*
X76576266Y-105932600D01*
X76576266Y-105932600D02*
X76481028Y-105980219D01*
X76481028Y-105980219D02*
X76195314Y-105980219D01*
X76195314Y-105980219D02*
X76100076Y-105932600D01*
X76100076Y-105932600D02*
X76052457Y-105884980D01*
X74639742Y-103987580D02*
X74592123Y-104035200D01*
X74592123Y-104035200D02*
X74449266Y-104082819D01*
X74449266Y-104082819D02*
X74354028Y-104082819D01*
X74354028Y-104082819D02*
X74211171Y-104035200D01*
X74211171Y-104035200D02*
X74115933Y-103939961D01*
X74115933Y-103939961D02*
X74068314Y-103844723D01*
X74068314Y-103844723D02*
X74020695Y-103654247D01*
X74020695Y-103654247D02*
X74020695Y-103511390D01*
X74020695Y-103511390D02*
X74068314Y-103320914D01*
X74068314Y-103320914D02*
X74115933Y-103225676D01*
X74115933Y-103225676D02*
X74211171Y-103130438D01*
X74211171Y-103130438D02*
X74354028Y-103082819D01*
X74354028Y-103082819D02*
X74449266Y-103082819D01*
X74449266Y-103082819D02*
X74592123Y-103130438D01*
X74592123Y-103130438D02*
X74639742Y-103178057D01*
X75592123Y-104082819D02*
X75020695Y-104082819D01*
X75306409Y-104082819D02*
X75306409Y-103082819D01*
X75306409Y-103082819D02*
X75211171Y-103225676D01*
X75211171Y-103225676D02*
X75115933Y-103320914D01*
X75115933Y-103320914D02*
X75020695Y-103368533D01*
X76496885Y-103082819D02*
X76020695Y-103082819D01*
X76020695Y-103082819D02*
X75973076Y-103559009D01*
X75973076Y-103559009D02*
X76020695Y-103511390D01*
X76020695Y-103511390D02*
X76115933Y-103463771D01*
X76115933Y-103463771D02*
X76354028Y-103463771D01*
X76354028Y-103463771D02*
X76449266Y-103511390D01*
X76449266Y-103511390D02*
X76496885Y-103559009D01*
X76496885Y-103559009D02*
X76544504Y-103654247D01*
X76544504Y-103654247D02*
X76544504Y-103892342D01*
X76544504Y-103892342D02*
X76496885Y-103987580D01*
X76496885Y-103987580D02*
X76449266Y-104035200D01*
X76449266Y-104035200D02*
X76354028Y-104082819D01*
X76354028Y-104082819D02*
X76115933Y-104082819D01*
X76115933Y-104082819D02*
X76020695Y-104035200D01*
X76020695Y-104035200D02*
X75973076Y-103987580D01*
X98058333Y-108469580D02*
X98010714Y-108517200D01*
X98010714Y-108517200D02*
X97867857Y-108564819D01*
X97867857Y-108564819D02*
X97772619Y-108564819D01*
X97772619Y-108564819D02*
X97629762Y-108517200D01*
X97629762Y-108517200D02*
X97534524Y-108421961D01*
X97534524Y-108421961D02*
X97486905Y-108326723D01*
X97486905Y-108326723D02*
X97439286Y-108136247D01*
X97439286Y-108136247D02*
X97439286Y-107993390D01*
X97439286Y-107993390D02*
X97486905Y-107802914D01*
X97486905Y-107802914D02*
X97534524Y-107707676D01*
X97534524Y-107707676D02*
X97629762Y-107612438D01*
X97629762Y-107612438D02*
X97772619Y-107564819D01*
X97772619Y-107564819D02*
X97867857Y-107564819D01*
X97867857Y-107564819D02*
X98010714Y-107612438D01*
X98010714Y-107612438D02*
X98058333Y-107660057D01*
X99010714Y-108564819D02*
X98439286Y-108564819D01*
X98725000Y-108564819D02*
X98725000Y-107564819D01*
X98725000Y-107564819D02*
X98629762Y-107707676D01*
X98629762Y-107707676D02*
X98534524Y-107802914D01*
X98534524Y-107802914D02*
X98439286Y-107850533D01*
X81683333Y-129859819D02*
X81350000Y-129383628D01*
X81111905Y-129859819D02*
X81111905Y-128859819D01*
X81111905Y-128859819D02*
X81492857Y-128859819D01*
X81492857Y-128859819D02*
X81588095Y-128907438D01*
X81588095Y-128907438D02*
X81635714Y-128955057D01*
X81635714Y-128955057D02*
X81683333Y-129050295D01*
X81683333Y-129050295D02*
X81683333Y-129193152D01*
X81683333Y-129193152D02*
X81635714Y-129288390D01*
X81635714Y-129288390D02*
X81588095Y-129336009D01*
X81588095Y-129336009D02*
X81492857Y-129383628D01*
X81492857Y-129383628D02*
X81111905Y-129383628D01*
X82540476Y-129193152D02*
X82540476Y-129859819D01*
X82302381Y-128812200D02*
X82064286Y-129526485D01*
X82064286Y-129526485D02*
X82683333Y-129526485D01*
X105848333Y-87127580D02*
X105800714Y-87175200D01*
X105800714Y-87175200D02*
X105657857Y-87222819D01*
X105657857Y-87222819D02*
X105562619Y-87222819D01*
X105562619Y-87222819D02*
X105419762Y-87175200D01*
X105419762Y-87175200D02*
X105324524Y-87079961D01*
X105324524Y-87079961D02*
X105276905Y-86984723D01*
X105276905Y-86984723D02*
X105229286Y-86794247D01*
X105229286Y-86794247D02*
X105229286Y-86651390D01*
X105229286Y-86651390D02*
X105276905Y-86460914D01*
X105276905Y-86460914D02*
X105324524Y-86365676D01*
X105324524Y-86365676D02*
X105419762Y-86270438D01*
X105419762Y-86270438D02*
X105562619Y-86222819D01*
X105562619Y-86222819D02*
X105657857Y-86222819D01*
X105657857Y-86222819D02*
X105800714Y-86270438D01*
X105800714Y-86270438D02*
X105848333Y-86318057D01*
X106419762Y-86651390D02*
X106324524Y-86603771D01*
X106324524Y-86603771D02*
X106276905Y-86556152D01*
X106276905Y-86556152D02*
X106229286Y-86460914D01*
X106229286Y-86460914D02*
X106229286Y-86413295D01*
X106229286Y-86413295D02*
X106276905Y-86318057D01*
X106276905Y-86318057D02*
X106324524Y-86270438D01*
X106324524Y-86270438D02*
X106419762Y-86222819D01*
X106419762Y-86222819D02*
X106610238Y-86222819D01*
X106610238Y-86222819D02*
X106705476Y-86270438D01*
X106705476Y-86270438D02*
X106753095Y-86318057D01*
X106753095Y-86318057D02*
X106800714Y-86413295D01*
X106800714Y-86413295D02*
X106800714Y-86460914D01*
X106800714Y-86460914D02*
X106753095Y-86556152D01*
X106753095Y-86556152D02*
X106705476Y-86603771D01*
X106705476Y-86603771D02*
X106610238Y-86651390D01*
X106610238Y-86651390D02*
X106419762Y-86651390D01*
X106419762Y-86651390D02*
X106324524Y-86699009D01*
X106324524Y-86699009D02*
X106276905Y-86746628D01*
X106276905Y-86746628D02*
X106229286Y-86841866D01*
X106229286Y-86841866D02*
X106229286Y-87032342D01*
X106229286Y-87032342D02*
X106276905Y-87127580D01*
X106276905Y-87127580D02*
X106324524Y-87175200D01*
X106324524Y-87175200D02*
X106419762Y-87222819D01*
X106419762Y-87222819D02*
X106610238Y-87222819D01*
X106610238Y-87222819D02*
X106705476Y-87175200D01*
X106705476Y-87175200D02*
X106753095Y-87127580D01*
X106753095Y-87127580D02*
X106800714Y-87032342D01*
X106800714Y-87032342D02*
X106800714Y-86841866D01*
X106800714Y-86841866D02*
X106753095Y-86746628D01*
X106753095Y-86746628D02*
X106705476Y-86699009D01*
X106705476Y-86699009D02*
X106610238Y-86651390D01*
X74941742Y-95634980D02*
X74894123Y-95682600D01*
X74894123Y-95682600D02*
X74751266Y-95730219D01*
X74751266Y-95730219D02*
X74656028Y-95730219D01*
X74656028Y-95730219D02*
X74513171Y-95682600D01*
X74513171Y-95682600D02*
X74417933Y-95587361D01*
X74417933Y-95587361D02*
X74370314Y-95492123D01*
X74370314Y-95492123D02*
X74322695Y-95301647D01*
X74322695Y-95301647D02*
X74322695Y-95158790D01*
X74322695Y-95158790D02*
X74370314Y-94968314D01*
X74370314Y-94968314D02*
X74417933Y-94873076D01*
X74417933Y-94873076D02*
X74513171Y-94777838D01*
X74513171Y-94777838D02*
X74656028Y-94730219D01*
X74656028Y-94730219D02*
X74751266Y-94730219D01*
X74751266Y-94730219D02*
X74894123Y-94777838D01*
X74894123Y-94777838D02*
X74941742Y-94825457D01*
X75894123Y-95730219D02*
X75322695Y-95730219D01*
X75608409Y-95730219D02*
X75608409Y-94730219D01*
X75608409Y-94730219D02*
X75513171Y-94873076D01*
X75513171Y-94873076D02*
X75417933Y-94968314D01*
X75417933Y-94968314D02*
X75322695Y-95015933D01*
X76751266Y-95063552D02*
X76751266Y-95730219D01*
X76513171Y-94682600D02*
X76275076Y-95396885D01*
X76275076Y-95396885D02*
X76894123Y-95396885D01*
X72268333Y-109079819D02*
X71935000Y-108603628D01*
X71696905Y-109079819D02*
X71696905Y-108079819D01*
X71696905Y-108079819D02*
X72077857Y-108079819D01*
X72077857Y-108079819D02*
X72173095Y-108127438D01*
X72173095Y-108127438D02*
X72220714Y-108175057D01*
X72220714Y-108175057D02*
X72268333Y-108270295D01*
X72268333Y-108270295D02*
X72268333Y-108413152D01*
X72268333Y-108413152D02*
X72220714Y-108508390D01*
X72220714Y-108508390D02*
X72173095Y-108556009D01*
X72173095Y-108556009D02*
X72077857Y-108603628D01*
X72077857Y-108603628D02*
X71696905Y-108603628D01*
X72601667Y-108079819D02*
X73220714Y-108079819D01*
X73220714Y-108079819D02*
X72887381Y-108460771D01*
X72887381Y-108460771D02*
X73030238Y-108460771D01*
X73030238Y-108460771D02*
X73125476Y-108508390D01*
X73125476Y-108508390D02*
X73173095Y-108556009D01*
X73173095Y-108556009D02*
X73220714Y-108651247D01*
X73220714Y-108651247D02*
X73220714Y-108889342D01*
X73220714Y-108889342D02*
X73173095Y-108984580D01*
X73173095Y-108984580D02*
X73125476Y-109032200D01*
X73125476Y-109032200D02*
X73030238Y-109079819D01*
X73030238Y-109079819D02*
X72744524Y-109079819D01*
X72744524Y-109079819D02*
X72649286Y-109032200D01*
X72649286Y-109032200D02*
X72601667Y-108984580D01*
X68181666Y-115129819D02*
X68181666Y-115844104D01*
X68181666Y-115844104D02*
X68134047Y-115986961D01*
X68134047Y-115986961D02*
X68038809Y-116082200D01*
X68038809Y-116082200D02*
X67895952Y-116129819D01*
X67895952Y-116129819D02*
X67800714Y-116129819D01*
X68610238Y-115225057D02*
X68657857Y-115177438D01*
X68657857Y-115177438D02*
X68753095Y-115129819D01*
X68753095Y-115129819D02*
X68991190Y-115129819D01*
X68991190Y-115129819D02*
X69086428Y-115177438D01*
X69086428Y-115177438D02*
X69134047Y-115225057D01*
X69134047Y-115225057D02*
X69181666Y-115320295D01*
X69181666Y-115320295D02*
X69181666Y-115415533D01*
X69181666Y-115415533D02*
X69134047Y-115558390D01*
X69134047Y-115558390D02*
X68562619Y-116129819D01*
X68562619Y-116129819D02*
X69181666Y-116129819D01*
X74766742Y-107924580D02*
X74719123Y-107972200D01*
X74719123Y-107972200D02*
X74576266Y-108019819D01*
X74576266Y-108019819D02*
X74481028Y-108019819D01*
X74481028Y-108019819D02*
X74338171Y-107972200D01*
X74338171Y-107972200D02*
X74242933Y-107876961D01*
X74242933Y-107876961D02*
X74195314Y-107781723D01*
X74195314Y-107781723D02*
X74147695Y-107591247D01*
X74147695Y-107591247D02*
X74147695Y-107448390D01*
X74147695Y-107448390D02*
X74195314Y-107257914D01*
X74195314Y-107257914D02*
X74242933Y-107162676D01*
X74242933Y-107162676D02*
X74338171Y-107067438D01*
X74338171Y-107067438D02*
X74481028Y-107019819D01*
X74481028Y-107019819D02*
X74576266Y-107019819D01*
X74576266Y-107019819D02*
X74719123Y-107067438D01*
X74719123Y-107067438D02*
X74766742Y-107115057D01*
X75719123Y-108019819D02*
X75147695Y-108019819D01*
X75433409Y-108019819D02*
X75433409Y-107019819D01*
X75433409Y-107019819D02*
X75338171Y-107162676D01*
X75338171Y-107162676D02*
X75242933Y-107257914D01*
X75242933Y-107257914D02*
X75147695Y-107305533D01*
X76290552Y-107448390D02*
X76195314Y-107400771D01*
X76195314Y-107400771D02*
X76147695Y-107353152D01*
X76147695Y-107353152D02*
X76100076Y-107257914D01*
X76100076Y-107257914D02*
X76100076Y-107210295D01*
X76100076Y-107210295D02*
X76147695Y-107115057D01*
X76147695Y-107115057D02*
X76195314Y-107067438D01*
X76195314Y-107067438D02*
X76290552Y-107019819D01*
X76290552Y-107019819D02*
X76481028Y-107019819D01*
X76481028Y-107019819D02*
X76576266Y-107067438D01*
X76576266Y-107067438D02*
X76623885Y-107115057D01*
X76623885Y-107115057D02*
X76671504Y-107210295D01*
X76671504Y-107210295D02*
X76671504Y-107257914D01*
X76671504Y-107257914D02*
X76623885Y-107353152D01*
X76623885Y-107353152D02*
X76576266Y-107400771D01*
X76576266Y-107400771D02*
X76481028Y-107448390D01*
X76481028Y-107448390D02*
X76290552Y-107448390D01*
X76290552Y-107448390D02*
X76195314Y-107496009D01*
X76195314Y-107496009D02*
X76147695Y-107543628D01*
X76147695Y-107543628D02*
X76100076Y-107638866D01*
X76100076Y-107638866D02*
X76100076Y-107829342D01*
X76100076Y-107829342D02*
X76147695Y-107924580D01*
X76147695Y-107924580D02*
X76195314Y-107972200D01*
X76195314Y-107972200D02*
X76290552Y-108019819D01*
X76290552Y-108019819D02*
X76481028Y-108019819D01*
X76481028Y-108019819D02*
X76576266Y-107972200D01*
X76576266Y-107972200D02*
X76623885Y-107924580D01*
X76623885Y-107924580D02*
X76671504Y-107829342D01*
X76671504Y-107829342D02*
X76671504Y-107638866D01*
X76671504Y-107638866D02*
X76623885Y-107543628D01*
X76623885Y-107543628D02*
X76576266Y-107496009D01*
X76576266Y-107496009D02*
X76481028Y-107448390D01*
X73681666Y-84429819D02*
X73681666Y-85144104D01*
X73681666Y-85144104D02*
X73634047Y-85286961D01*
X73634047Y-85286961D02*
X73538809Y-85382200D01*
X73538809Y-85382200D02*
X73395952Y-85429819D01*
X73395952Y-85429819D02*
X73300714Y-85429819D01*
X74157857Y-85429819D02*
X74157857Y-84429819D01*
X74157857Y-84429819D02*
X74538809Y-84429819D01*
X74538809Y-84429819D02*
X74634047Y-84477438D01*
X74634047Y-84477438D02*
X74681666Y-84525057D01*
X74681666Y-84525057D02*
X74729285Y-84620295D01*
X74729285Y-84620295D02*
X74729285Y-84763152D01*
X74729285Y-84763152D02*
X74681666Y-84858390D01*
X74681666Y-84858390D02*
X74634047Y-84906009D01*
X74634047Y-84906009D02*
X74538809Y-84953628D01*
X74538809Y-84953628D02*
X74157857Y-84953628D01*
X75062619Y-84429819D02*
X75681666Y-84429819D01*
X75681666Y-84429819D02*
X75348333Y-84810771D01*
X75348333Y-84810771D02*
X75491190Y-84810771D01*
X75491190Y-84810771D02*
X75586428Y-84858390D01*
X75586428Y-84858390D02*
X75634047Y-84906009D01*
X75634047Y-84906009D02*
X75681666Y-85001247D01*
X75681666Y-85001247D02*
X75681666Y-85239342D01*
X75681666Y-85239342D02*
X75634047Y-85334580D01*
X75634047Y-85334580D02*
X75586428Y-85382200D01*
X75586428Y-85382200D02*
X75491190Y-85429819D01*
X75491190Y-85429819D02*
X75205476Y-85429819D01*
X75205476Y-85429819D02*
X75110238Y-85382200D01*
X75110238Y-85382200D02*
X75062619Y-85334580D01*
X73038333Y-118789580D02*
X72990714Y-118837200D01*
X72990714Y-118837200D02*
X72847857Y-118884819D01*
X72847857Y-118884819D02*
X72752619Y-118884819D01*
X72752619Y-118884819D02*
X72609762Y-118837200D01*
X72609762Y-118837200D02*
X72514524Y-118741961D01*
X72514524Y-118741961D02*
X72466905Y-118646723D01*
X72466905Y-118646723D02*
X72419286Y-118456247D01*
X72419286Y-118456247D02*
X72419286Y-118313390D01*
X72419286Y-118313390D02*
X72466905Y-118122914D01*
X72466905Y-118122914D02*
X72514524Y-118027676D01*
X72514524Y-118027676D02*
X72609762Y-117932438D01*
X72609762Y-117932438D02*
X72752619Y-117884819D01*
X72752619Y-117884819D02*
X72847857Y-117884819D01*
X72847857Y-117884819D02*
X72990714Y-117932438D01*
X72990714Y-117932438D02*
X73038333Y-117980057D01*
X73419286Y-117980057D02*
X73466905Y-117932438D01*
X73466905Y-117932438D02*
X73562143Y-117884819D01*
X73562143Y-117884819D02*
X73800238Y-117884819D01*
X73800238Y-117884819D02*
X73895476Y-117932438D01*
X73895476Y-117932438D02*
X73943095Y-117980057D01*
X73943095Y-117980057D02*
X73990714Y-118075295D01*
X73990714Y-118075295D02*
X73990714Y-118170533D01*
X73990714Y-118170533D02*
X73943095Y-118313390D01*
X73943095Y-118313390D02*
X73371667Y-118884819D01*
X73371667Y-118884819D02*
X73990714Y-118884819D01*
X83493095Y-111869819D02*
X83493095Y-112679342D01*
X83493095Y-112679342D02*
X83540714Y-112774580D01*
X83540714Y-112774580D02*
X83588333Y-112822200D01*
X83588333Y-112822200D02*
X83683571Y-112869819D01*
X83683571Y-112869819D02*
X83874047Y-112869819D01*
X83874047Y-112869819D02*
X83969285Y-112822200D01*
X83969285Y-112822200D02*
X84016904Y-112774580D01*
X84016904Y-112774580D02*
X84064523Y-112679342D01*
X84064523Y-112679342D02*
X84064523Y-111869819D01*
X84445476Y-111869819D02*
X85064523Y-111869819D01*
X85064523Y-111869819D02*
X84731190Y-112250771D01*
X84731190Y-112250771D02*
X84874047Y-112250771D01*
X84874047Y-112250771D02*
X84969285Y-112298390D01*
X84969285Y-112298390D02*
X85016904Y-112346009D01*
X85016904Y-112346009D02*
X85064523Y-112441247D01*
X85064523Y-112441247D02*
X85064523Y-112679342D01*
X85064523Y-112679342D02*
X85016904Y-112774580D01*
X85016904Y-112774580D02*
X84969285Y-112822200D01*
X84969285Y-112822200D02*
X84874047Y-112869819D01*
X84874047Y-112869819D02*
X84588333Y-112869819D01*
X84588333Y-112869819D02*
X84493095Y-112822200D01*
X84493095Y-112822200D02*
X84445476Y-112774580D01*
X85845476Y-84749819D02*
X86178809Y-85749819D01*
X86178809Y-85749819D02*
X86512142Y-84749819D01*
X87416904Y-85749819D02*
X87083571Y-85273628D01*
X86845476Y-85749819D02*
X86845476Y-84749819D01*
X86845476Y-84749819D02*
X87226428Y-84749819D01*
X87226428Y-84749819D02*
X87321666Y-84797438D01*
X87321666Y-84797438D02*
X87369285Y-84845057D01*
X87369285Y-84845057D02*
X87416904Y-84940295D01*
X87416904Y-84940295D02*
X87416904Y-85083152D01*
X87416904Y-85083152D02*
X87369285Y-85178390D01*
X87369285Y-85178390D02*
X87321666Y-85226009D01*
X87321666Y-85226009D02*
X87226428Y-85273628D01*
X87226428Y-85273628D02*
X86845476Y-85273628D01*
X87750238Y-84749819D02*
X88369285Y-84749819D01*
X88369285Y-84749819D02*
X88035952Y-85130771D01*
X88035952Y-85130771D02*
X88178809Y-85130771D01*
X88178809Y-85130771D02*
X88274047Y-85178390D01*
X88274047Y-85178390D02*
X88321666Y-85226009D01*
X88321666Y-85226009D02*
X88369285Y-85321247D01*
X88369285Y-85321247D02*
X88369285Y-85559342D01*
X88369285Y-85559342D02*
X88321666Y-85654580D01*
X88321666Y-85654580D02*
X88274047Y-85702200D01*
X88274047Y-85702200D02*
X88178809Y-85749819D01*
X88178809Y-85749819D02*
X87893095Y-85749819D01*
X87893095Y-85749819D02*
X87797857Y-85702200D01*
X87797857Y-85702200D02*
X87750238Y-85654580D01*
D13*
X76025000Y-125455000D02*
X76625000Y-125455000D01*
X76625000Y-125455000D02*
X76625000Y-128355000D01*
X76625000Y-128355000D02*
X76025000Y-128355000D01*
X76025000Y-128355000D02*
X76025000Y-125455000D01*
X74475000Y-125405000D02*
X75675000Y-125405000D01*
X76025000Y-119805000D02*
X76625000Y-119805000D01*
X76625000Y-119805000D02*
X76625000Y-122705000D01*
X76625000Y-122705000D02*
X76025000Y-122705000D01*
X76025000Y-122705000D02*
X76025000Y-119805000D01*
X74475000Y-119755000D02*
X75675000Y-119755000D01*
D14*
X95829724Y-106727500D02*
X95320276Y-106727500D01*
X95829724Y-105682500D02*
X95320276Y-105682500D01*
X80697936Y-125340000D02*
X81152064Y-125340000D01*
X80697936Y-123870000D02*
X81152064Y-123870000D01*
X80697936Y-122790000D02*
X81152064Y-122790000D01*
X80697936Y-121320000D02*
X81152064Y-121320000D01*
X92129724Y-105667500D02*
X91620276Y-105667500D01*
X92129724Y-104622500D02*
X91620276Y-104622500D01*
X100305000Y-100470000D02*
X100305000Y-106890000D01*
X100305000Y-106890000D02*
X100575000Y-106890000D01*
X100575000Y-106890000D02*
X100575000Y-109720000D01*
X107205000Y-100470000D02*
X107205000Y-106890000D01*
X107205000Y-106890000D02*
X106935000Y-106890000D01*
X106935000Y-106890000D02*
X106935000Y-107990000D01*
X75853733Y-114595000D02*
X76146267Y-114595000D01*
X75853733Y-115615000D02*
X76146267Y-115615000D01*
X75853733Y-116245000D02*
X76146267Y-116245000D01*
X75853733Y-117265000D02*
X76146267Y-117265000D01*
X75778733Y-130870000D02*
X76071267Y-130870000D01*
X75778733Y-131890000D02*
X76071267Y-131890000D01*
X75803733Y-129120000D02*
X76096267Y-129120000D01*
X75803733Y-130140000D02*
X76096267Y-130140000D01*
X86057000Y-96840400D02*
X82607000Y-96840400D01*
X86057000Y-96840400D02*
X88007000Y-96840400D01*
X86057000Y-105710400D02*
X84107000Y-105710400D01*
X86057000Y-105710400D02*
X88007000Y-105710400D01*
X95411233Y-109550000D02*
X95703767Y-109550000D01*
X95411233Y-110570000D02*
X95703767Y-110570000D01*
X69895000Y-91510000D02*
X68565000Y-91510000D01*
X69895000Y-90180000D02*
X69895000Y-91510000D01*
X69895000Y-88910000D02*
X69895000Y-86310000D01*
X69895000Y-88910000D02*
X67235000Y-88910000D01*
X69895000Y-86310000D02*
X67235000Y-86310000D01*
X67235000Y-88910000D02*
X67235000Y-86310000D01*
X113440000Y-133215000D02*
X113440000Y-131885000D01*
X114770000Y-133215000D02*
X113440000Y-133215000D01*
X116040000Y-133215000D02*
X118640000Y-133215000D01*
X116040000Y-133215000D02*
X116040000Y-130555000D01*
X118640000Y-133215000D02*
X118640000Y-130555000D01*
X116040000Y-130555000D02*
X118640000Y-130555000D01*
X90512500Y-88719724D02*
X90512500Y-88210276D01*
X91557500Y-88719724D02*
X91557500Y-88210276D01*
X78329876Y-93252900D02*
X78839324Y-93252900D01*
X78329876Y-94297900D02*
X78839324Y-94297900D01*
X112705000Y-89305000D02*
G75*
G03*
X107465000Y-89305000I-2620000J0D01*
G01*
X107465000Y-89305000D02*
G75*
G03*
X112705000Y-89305000I2620000J0D01*
G01*
X72990500Y-101770676D02*
X72990500Y-102280124D01*
X71945500Y-101770676D02*
X71945500Y-102280124D01*
X66450000Y-134255000D02*
X66450000Y-132925000D01*
X67780000Y-134255000D02*
X66450000Y-134255000D01*
X69050000Y-134255000D02*
X71650000Y-134255000D01*
X69050000Y-134255000D02*
X69050000Y-131595000D01*
X71650000Y-134255000D02*
X71650000Y-131595000D01*
X69050000Y-131595000D02*
X71650000Y-131595000D01*
X69339600Y-108080400D02*
X68009600Y-108080400D01*
X69339600Y-106750400D02*
X69339600Y-108080400D01*
X69339600Y-105480400D02*
X69339600Y-102880400D01*
X69339600Y-105480400D02*
X66679600Y-105480400D01*
X69339600Y-102880400D02*
X66679600Y-102880400D01*
X66679600Y-105480400D02*
X66679600Y-102880400D01*
X117105000Y-96130000D02*
X115775000Y-96130000D01*
X117105000Y-94800000D02*
X117105000Y-96130000D01*
X117105000Y-93530000D02*
X117105000Y-90930000D01*
X117105000Y-93530000D02*
X114445000Y-93530000D01*
X117105000Y-90930000D02*
X114445000Y-90930000D01*
X114445000Y-93530000D02*
X114445000Y-90930000D01*
X113382500Y-121730000D02*
X113382500Y-122230000D01*
X113382500Y-122230000D02*
X113882500Y-121980000D01*
X113882500Y-121980000D02*
X113382500Y-121730000D01*
D13*
X83755000Y-120800000D02*
G75*
G03*
X83655000Y-120800000I-50000J0D01*
G01*
X83755000Y-120800000D02*
G75*
G03*
X83655000Y-120800000I-50000J0D01*
G01*
X83655000Y-120800000D02*
G75*
G03*
X83755000Y-120800000I50000J0D01*
G01*
X84560000Y-125255000D02*
X90560000Y-125255000D01*
X83655000Y-120800000D02*
X83655000Y-120800000D01*
X83755000Y-120800000D02*
X83755000Y-120800000D01*
X83755000Y-120800000D02*
X83755000Y-120800000D01*
X90560000Y-120155000D02*
X84560000Y-120155000D01*
D14*
X113590000Y-88585000D02*
X113590000Y-87255000D01*
X114920000Y-88585000D02*
X113590000Y-88585000D01*
X116190000Y-88585000D02*
X118790000Y-88585000D01*
X116190000Y-88585000D02*
X116190000Y-85925000D01*
X118790000Y-88585000D02*
X118790000Y-85925000D01*
X116190000Y-85925000D02*
X118790000Y-85925000D01*
X81278733Y-109805000D02*
X81571267Y-109805000D01*
X81278733Y-110825000D02*
X81571267Y-110825000D01*
X95859724Y-104917500D02*
X95350276Y-104917500D01*
X95859724Y-103872500D02*
X95350276Y-103872500D01*
X78438333Y-101086000D02*
X78730867Y-101086000D01*
X78438333Y-102106000D02*
X78730867Y-102106000D01*
X88589324Y-95547900D02*
X88079876Y-95547900D01*
X88589324Y-94502900D02*
X88079876Y-94502900D01*
X104115000Y-89338733D02*
X104115000Y-89631267D01*
X103095000Y-89338733D02*
X103095000Y-89631267D01*
X76196267Y-124490000D02*
X75903733Y-124490000D01*
X76196267Y-123470000D02*
X75903733Y-123470000D01*
X88589324Y-93547900D02*
X88079876Y-93547900D01*
X88589324Y-92502900D02*
X88079876Y-92502900D01*
X76833733Y-111470000D02*
X77126267Y-111470000D01*
X76833733Y-112490000D02*
X77126267Y-112490000D01*
X78839324Y-98047900D02*
X78329876Y-98047900D01*
X78839324Y-97002900D02*
X78329876Y-97002900D01*
X78730867Y-100035400D02*
X78438333Y-100035400D01*
X78730867Y-99015400D02*
X78438333Y-99015400D01*
X78839324Y-106047900D02*
X78329876Y-106047900D01*
X78839324Y-105002900D02*
X78329876Y-105002900D01*
X78730867Y-104138000D02*
X78438333Y-104138000D01*
X78730867Y-103118000D02*
X78438333Y-103118000D01*
X95436233Y-107575000D02*
X95728767Y-107575000D01*
X95436233Y-108595000D02*
X95728767Y-108595000D01*
X81004724Y-128352500D02*
X80495276Y-128352500D01*
X81004724Y-127307500D02*
X80495276Y-127307500D01*
X106525000Y-89288733D02*
X106525000Y-89581267D01*
X105505000Y-89288733D02*
X105505000Y-89581267D01*
X78438333Y-95117000D02*
X78730867Y-95117000D01*
X78438333Y-96137000D02*
X78730867Y-96137000D01*
X72990500Y-105770676D02*
X72990500Y-106280124D01*
X71945500Y-105770676D02*
X71945500Y-106280124D01*
X72190000Y-124130000D02*
X72190000Y-123630000D01*
X72190000Y-123630000D02*
X71690000Y-123880000D01*
X71690000Y-123880000D02*
X72190000Y-124130000D01*
X78438333Y-107055000D02*
X78730867Y-107055000D01*
X78438333Y-108075000D02*
X78730867Y-108075000D01*
X73275000Y-86305000D02*
X74605000Y-86305000D01*
X73275000Y-87635000D02*
X73275000Y-86305000D01*
X73275000Y-88905000D02*
X73275000Y-91505000D01*
X73275000Y-88905000D02*
X75935000Y-88905000D01*
X73275000Y-91505000D02*
X75935000Y-91505000D01*
X75935000Y-88905000D02*
X75935000Y-91505000D01*
X76146267Y-118965000D02*
X75853733Y-118965000D01*
X76146267Y-117945000D02*
X75853733Y-117945000D01*
X81305000Y-114690000D02*
X83105000Y-114690000D01*
X81305000Y-114690000D02*
X80505000Y-114690000D01*
X81305000Y-111570000D02*
X82105000Y-111570000D01*
X81305000Y-111570000D02*
X80505000Y-111570000D01*
X79890000Y-86585000D02*
X79890000Y-91655000D01*
X79890000Y-86585000D02*
X89660000Y-86585000D01*
X79890000Y-91655000D02*
X89660000Y-91655000D01*
X89660000Y-86585000D02*
X89660000Y-91655000D01*
%LPC*%
D15*
X75075000Y-125955000D03*
X75075000Y-126905000D03*
X75075000Y-127855000D03*
X77575000Y-127855000D03*
X77575000Y-125955000D03*
X75075000Y-120305000D03*
X75075000Y-121255000D03*
X75075000Y-122205000D03*
X77575000Y-122205000D03*
X77575000Y-120305000D03*
D16*
X96487500Y-106205000D03*
X94662500Y-106205000D03*
D17*
X81925000Y-124605000D03*
X79925000Y-124605000D03*
X81925000Y-122055000D03*
X79925000Y-122055000D03*
D16*
X92787500Y-105145000D03*
X90962500Y-105145000D03*
D18*
X101475000Y-108620000D03*
X103755000Y-108620000D03*
X106035000Y-108620000D03*
D19*
X103755000Y-102320000D03*
D20*
X100750000Y-120060000D03*
X94400000Y-117680000D03*
X94400000Y-127680000D03*
X100750000Y-125140000D03*
D21*
X75137500Y-115105000D03*
X76862500Y-115105000D03*
X75137500Y-116755000D03*
X76862500Y-116755000D03*
X75062500Y-131380000D03*
X76787500Y-131380000D03*
X75087500Y-129630000D03*
X76812500Y-129630000D03*
D22*
X83582000Y-97465400D03*
X83582000Y-98735400D03*
X83582000Y-100005400D03*
X83582000Y-101275400D03*
X83582000Y-102545400D03*
X83582000Y-103815400D03*
X83582000Y-105085400D03*
X88532000Y-105085400D03*
X88532000Y-103815400D03*
X88532000Y-102545400D03*
X88532000Y-101275400D03*
X88532000Y-100005400D03*
X88532000Y-98735400D03*
X88532000Y-97465400D03*
D21*
X94695000Y-110060000D03*
X96420000Y-110060000D03*
D23*
X68565000Y-90180000D03*
D24*
X68565000Y-87640000D03*
D23*
X114770000Y-131885000D03*
D24*
X117310000Y-131885000D03*
D25*
X91035000Y-89377500D03*
X91035000Y-87552500D03*
D26*
X77672100Y-93775400D03*
X79497100Y-93775400D03*
D27*
X110085000Y-90305000D03*
X110085000Y-88305000D03*
D28*
X72468000Y-101112900D03*
X72468000Y-102937900D03*
D23*
X67780000Y-132925000D03*
D24*
X70320000Y-132925000D03*
D23*
X68009600Y-106750400D03*
D24*
X68009600Y-104210400D03*
D23*
X115775000Y-94800000D03*
D24*
X115775000Y-92260000D03*
D29*
X117092500Y-121980000D03*
X117092500Y-117730000D03*
X117092500Y-126230000D03*
D30*
X88250000Y-121575000D03*
D31*
X90510000Y-120800000D03*
D32*
X90000000Y-120623000D03*
D31*
X90510000Y-122070000D03*
D30*
X88250000Y-123835000D03*
D31*
X90510000Y-123340000D03*
D32*
X90000000Y-124787000D03*
D31*
X90510000Y-124610000D03*
D33*
X84890000Y-124610000D03*
X84890000Y-123340000D03*
X84890000Y-122070000D03*
X84890000Y-120800000D03*
D23*
X114920000Y-87255000D03*
D24*
X117460000Y-87255000D03*
D21*
X80562500Y-110315000D03*
X82287500Y-110315000D03*
D16*
X96517500Y-104395000D03*
X94692500Y-104395000D03*
D21*
X77722100Y-101596000D03*
X79447100Y-101596000D03*
D16*
X89247100Y-95025400D03*
X87422100Y-95025400D03*
D34*
X103605000Y-88622500D03*
X103605000Y-90347500D03*
D35*
X76912500Y-123980000D03*
X75187500Y-123980000D03*
D16*
X89247100Y-93025400D03*
X87422100Y-93025400D03*
D21*
X76117500Y-111980000D03*
X77842500Y-111980000D03*
D16*
X79497100Y-97525400D03*
X77672100Y-97525400D03*
D35*
X79447100Y-99525400D03*
X77722100Y-99525400D03*
D16*
X79497100Y-105525400D03*
X77672100Y-105525400D03*
D35*
X79447100Y-103628000D03*
X77722100Y-103628000D03*
D21*
X94720000Y-108085000D03*
X96445000Y-108085000D03*
D16*
X81662500Y-127830000D03*
X79837500Y-127830000D03*
D34*
X106015000Y-88572500D03*
X106015000Y-90297500D03*
D21*
X77722100Y-95627000D03*
X79447100Y-95627000D03*
D28*
X72468000Y-105112900D03*
X72468000Y-106937900D03*
D29*
X68480000Y-123880000D03*
X68480000Y-128130000D03*
X68480000Y-119630000D03*
D21*
X77722100Y-107565000D03*
X79447100Y-107565000D03*
D23*
X74605000Y-87635000D03*
D24*
X74605000Y-90175000D03*
D35*
X76862500Y-118455000D03*
X75137500Y-118455000D03*
D20*
X98730000Y-130055000D03*
X98730000Y-114055000D03*
X108730000Y-130055000D03*
X108730000Y-114055000D03*
D36*
X82442500Y-114080000D03*
X82442500Y-113130000D03*
X82442500Y-112180000D03*
X80167500Y-112180000D03*
X80167500Y-114080000D03*
D37*
X87315000Y-89115000D03*
X84775000Y-89115000D03*
X82235000Y-89115000D03*
G36*
X89798039Y-124624685D02*
G01*
X89843794Y-124677489D01*
X89855000Y-124729000D01*
X89855000Y-128681000D01*
X89835315Y-128748039D01*
X89782511Y-128793794D01*
X89731000Y-128805000D01*
X83379000Y-128805000D01*
X83311961Y-128785315D01*
X83266206Y-128732511D01*
X83255000Y-128681000D01*
X83255000Y-126429000D01*
X83274685Y-126361961D01*
X83327489Y-126316206D01*
X83379000Y-126305000D01*
X85555000Y-126305000D01*
X85555000Y-126304999D01*
X86321495Y-124676201D01*
X86367851Y-124623924D01*
X86433692Y-124605000D01*
X89731000Y-124605000D01*
X89798039Y-124624685D01*
G37*
G36*
X89698039Y-117024685D02*
G01*
X89743794Y-117077489D01*
X89755000Y-117129000D01*
X89755000Y-120681000D01*
X89735315Y-120748039D01*
X89682511Y-120793794D01*
X89631000Y-120805000D01*
X86451817Y-120805000D01*
X86384778Y-120785315D01*
X86339023Y-120732511D01*
X86331519Y-120711074D01*
X85955000Y-119205000D01*
X83879000Y-119205000D01*
X83811961Y-119185315D01*
X83766206Y-119132511D01*
X83755000Y-119081000D01*
X83755000Y-117129000D01*
X83774685Y-117061961D01*
X83827489Y-117016206D01*
X83879000Y-117005000D01*
X89631000Y-117005000D01*
X89698039Y-117024685D01*
G37*
G36*
X112967360Y-92014685D02*
G01*
X113013115Y-92067489D01*
X113024319Y-92119678D01*
X112994999Y-97484999D01*
X112995000Y-97485000D01*
X117871000Y-97485000D01*
X117938039Y-97504685D01*
X117983794Y-97557489D01*
X117995000Y-97609000D01*
X117995000Y-106131000D01*
X117975315Y-106198039D01*
X117922511Y-106243794D01*
X117871000Y-106255000D01*
X100269937Y-106255000D01*
X100202898Y-106235315D01*
X100157143Y-106182511D01*
X100154313Y-106175800D01*
X98825000Y-102745000D01*
X93778655Y-102745000D01*
X93711616Y-102725315D01*
X93665861Y-102672511D01*
X93654655Y-102621346D01*
X93625347Y-92119346D01*
X93644845Y-92052252D01*
X93697521Y-92006350D01*
X93749347Y-91995000D01*
X112900321Y-91995000D01*
X112967360Y-92014685D01*
G37*
%LPD*%
M02*
