G04 #@! TF.GenerationSoftware,KiCad,Pcbnew,7.0.10*
G04 #@! TF.CreationDate,2024-04-22T16:42:47-07:00*
G04 #@! TF.ProjectId,powerAmp,706f7765-7241-46d7-902e-6b696361645f,rev?*
G04 #@! TF.SameCoordinates,Original*
G04 #@! TF.FileFunction,Soldermask,Top*
G04 #@! TF.FilePolarity,Negative*
%FSLAX46Y46*%
G04 Gerber Fmt 4.6, Leading zero omitted, Abs format (unit mm)*
G04 Created by KiCad (PCBNEW 7.0.10) date 2024-04-22 16:42:47*
%MOMM*%
%LPD*%
G01*
G04 APERTURE LIST*
G04 Aperture macros list*
%AMRoundRect*
0 Rectangle with rounded corners*
0 $1 Rounding radius*
0 $2 $3 $4 $5 $6 $7 $8 $9 X,Y pos of 4 corners*
0 Add a 4 corners polygon primitive as box body*
4,1,4,$2,$3,$4,$5,$6,$7,$8,$9,$2,$3,0*
0 Add four circle primitives for the rounded corners*
1,1,$1+$1,$2,$3*
1,1,$1+$1,$4,$5*
1,1,$1+$1,$6,$7*
1,1,$1+$1,$8,$9*
0 Add four rect primitives between the rounded corners*
20,1,$1+$1,$2,$3,$4,$5,0*
20,1,$1+$1,$4,$5,$6,$7,0*
20,1,$1+$1,$6,$7,$8,$9,0*
20,1,$1+$1,$8,$9,$2,$3,0*%
G04 Aperture macros list end*
%ADD10R,1.200000X0.600000*%
%ADD11RoundRect,0.237500X0.250000X0.237500X-0.250000X0.237500X-0.250000X-0.237500X0.250000X-0.237500X0*%
%ADD12RoundRect,0.250000X-0.350000X-0.450000X0.350000X-0.450000X0.350000X0.450000X-0.350000X0.450000X0*%
%ADD13RoundRect,0.250000X0.350000X-0.850000X0.350000X0.850000X-0.350000X0.850000X-0.350000X-0.850000X0*%
%ADD14RoundRect,0.249997X2.650003X-2.950003X2.650003X2.950003X-2.650003X2.950003X-2.650003X-2.950003X0*%
%ADD15C,3.000000*%
%ADD16RoundRect,0.237500X-0.300000X-0.237500X0.300000X-0.237500X0.300000X0.237500X-0.300000X0.237500X0*%
%ADD17RoundRect,0.150000X-0.825000X-0.150000X0.825000X-0.150000X0.825000X0.150000X-0.825000X0.150000X0*%
%ADD18R,1.700000X1.700000*%
%ADD19O,1.700000X1.700000*%
%ADD20RoundRect,0.237500X0.237500X-0.250000X0.237500X0.250000X-0.237500X0.250000X-0.237500X-0.250000X0*%
%ADD21RoundRect,0.237500X-0.250000X-0.237500X0.250000X-0.237500X0.250000X0.237500X-0.250000X0.237500X0*%
%ADD22C,1.600000*%
%ADD23RoundRect,0.237500X-0.237500X0.250000X-0.237500X-0.250000X0.237500X-0.250000X0.237500X0.250000X0*%
%ADD24R,5.080000X1.500000*%
%ADD25R,3.810000X1.650000*%
%ADD26R,0.710000X0.610000*%
%ADD27R,0.310000X0.255000*%
%ADD28R,1.270000X0.610000*%
%ADD29RoundRect,0.237500X-0.237500X0.300000X-0.237500X-0.300000X0.237500X-0.300000X0.237500X0.300000X0*%
%ADD30RoundRect,0.237500X0.300000X0.237500X-0.300000X0.237500X-0.300000X-0.237500X0.300000X-0.237500X0*%
%ADD31RoundRect,0.150000X0.512500X0.150000X-0.512500X0.150000X-0.512500X-0.150000X0.512500X-0.150000X0*%
%ADD32C,1.440000*%
G04 APERTURE END LIST*
D10*
X75075000Y-125955000D03*
X75075000Y-126905000D03*
X75075000Y-127855000D03*
X77575000Y-127855000D03*
X77575000Y-125955000D03*
X75075000Y-120305000D03*
X75075000Y-121255000D03*
X75075000Y-122205000D03*
X77575000Y-122205000D03*
X77575000Y-120305000D03*
D11*
X96487500Y-106205000D03*
X94662500Y-106205000D03*
D12*
X81925000Y-124605000D03*
X79925000Y-124605000D03*
X81925000Y-122055000D03*
X79925000Y-122055000D03*
D11*
X92787500Y-105145000D03*
X90962500Y-105145000D03*
D13*
X101475000Y-108620000D03*
X103755000Y-108620000D03*
X106035000Y-108620000D03*
D14*
X103755000Y-102320000D03*
D15*
X100750000Y-120060000D03*
X94400000Y-117680000D03*
X94400000Y-127680000D03*
X100750000Y-125140000D03*
D16*
X75137500Y-115105000D03*
X76862500Y-115105000D03*
X75137500Y-116755000D03*
X76862500Y-116755000D03*
X75062500Y-131380000D03*
X76787500Y-131380000D03*
X75087500Y-129630000D03*
X76812500Y-129630000D03*
D17*
X83582000Y-97465400D03*
X83582000Y-98735400D03*
X83582000Y-100005400D03*
X83582000Y-101275400D03*
X83582000Y-102545400D03*
X83582000Y-103815400D03*
X83582000Y-105085400D03*
X88532000Y-105085400D03*
X88532000Y-103815400D03*
X88532000Y-102545400D03*
X88532000Y-101275400D03*
X88532000Y-100005400D03*
X88532000Y-98735400D03*
X88532000Y-97465400D03*
D16*
X94695000Y-110060000D03*
X96420000Y-110060000D03*
D18*
X68565000Y-90180000D03*
D19*
X68565000Y-87640000D03*
D18*
X114770000Y-131885000D03*
D19*
X117310000Y-131885000D03*
D20*
X91035000Y-89377500D03*
X91035000Y-87552500D03*
D21*
X77672100Y-93775400D03*
X79497100Y-93775400D03*
D22*
X110085000Y-90305000D03*
X110085000Y-88305000D03*
D23*
X72468000Y-101112900D03*
X72468000Y-102937900D03*
D18*
X67780000Y-132925000D03*
D19*
X70320000Y-132925000D03*
D18*
X68009600Y-106750400D03*
D19*
X68009600Y-104210400D03*
D18*
X115775000Y-94800000D03*
D19*
X115775000Y-92260000D03*
D24*
X117092500Y-121980000D03*
X117092500Y-117730000D03*
X117092500Y-126230000D03*
D25*
X88250000Y-121575000D03*
D26*
X90510000Y-120800000D03*
D27*
X90000000Y-120623000D03*
D26*
X90510000Y-122070000D03*
D25*
X88250000Y-123835000D03*
D26*
X90510000Y-123340000D03*
D27*
X90000000Y-124787000D03*
D26*
X90510000Y-124610000D03*
D28*
X84890000Y-124610000D03*
X84890000Y-123340000D03*
X84890000Y-122070000D03*
X84890000Y-120800000D03*
D18*
X114920000Y-87255000D03*
D19*
X117460000Y-87255000D03*
D16*
X80562500Y-110315000D03*
X82287500Y-110315000D03*
D11*
X96517500Y-104395000D03*
X94692500Y-104395000D03*
D16*
X77722100Y-101596000D03*
X79447100Y-101596000D03*
D11*
X89247100Y-95025400D03*
X87422100Y-95025400D03*
D29*
X103605000Y-88622500D03*
X103605000Y-90347500D03*
D30*
X76912500Y-123980000D03*
X75187500Y-123980000D03*
D11*
X89247100Y-93025400D03*
X87422100Y-93025400D03*
D16*
X76117500Y-111980000D03*
X77842500Y-111980000D03*
D11*
X79497100Y-97525400D03*
X77672100Y-97525400D03*
D30*
X79447100Y-99525400D03*
X77722100Y-99525400D03*
D11*
X79497100Y-105525400D03*
X77672100Y-105525400D03*
D30*
X79447100Y-103628000D03*
X77722100Y-103628000D03*
D16*
X94720000Y-108085000D03*
X96445000Y-108085000D03*
D11*
X81662500Y-127830000D03*
X79837500Y-127830000D03*
D29*
X106015000Y-88572500D03*
X106015000Y-90297500D03*
D16*
X77722100Y-95627000D03*
X79447100Y-95627000D03*
D23*
X72468000Y-105112900D03*
X72468000Y-106937900D03*
D24*
X68480000Y-123880000D03*
X68480000Y-128130000D03*
X68480000Y-119630000D03*
D16*
X77722100Y-107565000D03*
X79447100Y-107565000D03*
D18*
X74605000Y-87635000D03*
D19*
X74605000Y-90175000D03*
D30*
X76862500Y-118455000D03*
X75137500Y-118455000D03*
D15*
X98730000Y-130055000D03*
X98730000Y-114055000D03*
X108730000Y-130055000D03*
X108730000Y-114055000D03*
D31*
X82442500Y-114080000D03*
X82442500Y-113130000D03*
X82442500Y-112180000D03*
X80167500Y-112180000D03*
X80167500Y-114080000D03*
D32*
X87315000Y-89115000D03*
X84775000Y-89115000D03*
X82235000Y-89115000D03*
G36*
X89798039Y-124624685D02*
G01*
X89843794Y-124677489D01*
X89855000Y-124729000D01*
X89855000Y-128681000D01*
X89835315Y-128748039D01*
X89782511Y-128793794D01*
X89731000Y-128805000D01*
X83379000Y-128805000D01*
X83311961Y-128785315D01*
X83266206Y-128732511D01*
X83255000Y-128681000D01*
X83255000Y-126429000D01*
X83274685Y-126361961D01*
X83327489Y-126316206D01*
X83379000Y-126305000D01*
X85555000Y-126305000D01*
X85555000Y-126304999D01*
X86321495Y-124676201D01*
X86367851Y-124623924D01*
X86433692Y-124605000D01*
X89731000Y-124605000D01*
X89798039Y-124624685D01*
G37*
G36*
X89698039Y-117024685D02*
G01*
X89743794Y-117077489D01*
X89755000Y-117129000D01*
X89755000Y-120681000D01*
X89735315Y-120748039D01*
X89682511Y-120793794D01*
X89631000Y-120805000D01*
X86451817Y-120805000D01*
X86384778Y-120785315D01*
X86339023Y-120732511D01*
X86331519Y-120711074D01*
X85955000Y-119205000D01*
X83879000Y-119205000D01*
X83811961Y-119185315D01*
X83766206Y-119132511D01*
X83755000Y-119081000D01*
X83755000Y-117129000D01*
X83774685Y-117061961D01*
X83827489Y-117016206D01*
X83879000Y-117005000D01*
X89631000Y-117005000D01*
X89698039Y-117024685D01*
G37*
G36*
X112967360Y-92014685D02*
G01*
X113013115Y-92067489D01*
X113024319Y-92119678D01*
X112994999Y-97484999D01*
X112995000Y-97485000D01*
X117871000Y-97485000D01*
X117938039Y-97504685D01*
X117983794Y-97557489D01*
X117995000Y-97609000D01*
X117995000Y-106131000D01*
X117975315Y-106198039D01*
X117922511Y-106243794D01*
X117871000Y-106255000D01*
X100269937Y-106255000D01*
X100202898Y-106235315D01*
X100157143Y-106182511D01*
X100154313Y-106175800D01*
X98825000Y-102745000D01*
X93778655Y-102745000D01*
X93711616Y-102725315D01*
X93665861Y-102672511D01*
X93654655Y-102621346D01*
X93625347Y-92119346D01*
X93644845Y-92052252D01*
X93697521Y-92006350D01*
X93749347Y-91995000D01*
X112900321Y-91995000D01*
X112967360Y-92014685D01*
G37*
M02*
