M48
; DRILL file {KiCad 7.0.10} date Mon Apr 22 16:43:29 2024
; FORMAT={-:-/ absolute / metric / decimal}
; #@! TF.CreationDate,2024-04-22T16:43:29-07:00
; #@! TF.GenerationSoftware,Kicad,Pcbnew,7.0.10
; #@! TF.FileFunction,Plated,1,2,PTH
FMAT,2
METRIC
; #@! TA.AperFunction,Plated,PTH,ViaDrill
T1C0.400
; #@! TA.AperFunction,Plated,PTH,ComponentDrill
T2C0.800
; #@! TA.AperFunction,Plated,PTH,ComponentDrill
T3C1.000
; #@! TA.AperFunction,Plated,PTH,ComponentDrill
T4C1.200
%
G90
G05
T1
X70.515Y-125.785
X72.195Y-93.535
X73.185Y-96.625
X73.545Y-122.635
X73.6Y-121.23
X73.625Y-126.93
X73.835Y-106.525
X74.835Y-109.025
X75.085Y-96.275
X75.085Y-98.775
X75.995Y-110.605
X76.335Y-100.525
X76.335Y-102.525
X76.355Y-128.295
X78.355Y-123.455
X78.38Y-114.18
X78.395Y-121.255
X78.405Y-115.355
X78.405Y-116.455
X78.405Y-117.53
X78.405Y-118.705
X78.405Y-124.63
X78.415Y-126.945
X78.505Y-129.205
X78.505Y-130.255
X78.505Y-131.255
X78.505Y-132.255
X80.775Y-113.115
X82.095Y-106.805
X83.045Y-120.655
X83.425Y-123.885
X83.445Y-122.885
X83.475Y-108.885
X83.575Y-119.755
X84.055Y-126.805
X84.055Y-127.905
X84.555Y-118.305
X85.355Y-117.605
X85.455Y-126.905
X85.455Y-127.905
X85.935Y-101.275
X86.155Y-118.605
X86.555Y-117.605
X86.755Y-126.605
X86.755Y-127.905
X87.055Y-119.005
X87.555Y-117.905
X87.955Y-126.605
X87.955Y-127.905
X88.255Y-119.005
X88.555Y-117.605
X89.155Y-118.405
X89.255Y-119.505
X89.255Y-126.705
X89.255Y-127.905
X90.43Y-95.505
X90.525Y-100.795
X90.93Y-91.255
X92.605Y-87.355
X92.936Y-110.57
X92.964Y-108.279
X92.964Y-109.439
X92.992Y-107.176
X94.915Y-102.265
X95.145Y-94.765
X95.145Y-96.645
X95.159Y-99.895
X95.165Y-92.975
X95.175Y-98.135
X96.199Y-101.315
X97.872Y-94.791
X97.872Y-96.671
X97.892Y-93.001
X97.902Y-98.161
X98.015Y-99.895
X99.055Y-101.315
X100.728Y-94.791
X100.728Y-96.671
X100.748Y-93.001
X100.758Y-98.161
X103.435Y-94.795
X103.435Y-96.675
X103.455Y-93.005
X103.465Y-98.165
X106.095Y-94.745
X106.095Y-96.625
X106.115Y-92.955
X106.125Y-98.115
X108.742Y-103.829
X108.742Y-105.389
X108.795Y-94.725
X108.795Y-96.605
X108.802Y-101.909
X108.815Y-92.935
X108.825Y-98.095
X108.835Y-99.945
X111.435Y-94.745
X111.435Y-96.625
X111.455Y-92.955
X111.465Y-98.115
X111.469Y-103.855
X111.469Y-105.415
X111.529Y-101.935
X111.562Y-99.971
X114.325Y-103.855
X114.325Y-105.415
X114.385Y-101.935
X114.418Y-99.971
X117.032Y-103.859
X117.032Y-105.419
X117.092Y-101.939
X117.125Y-99.975
T2
X82.235Y-89.115
X84.775Y-89.115
X87.315Y-89.115
X110.085Y-88.305
X110.085Y-90.305
T3
X67.78Y-132.925
X68.01Y-104.21
X68.01Y-106.75
X68.565Y-87.64
X68.565Y-90.18
X70.32Y-132.925
X74.605Y-87.635
X74.605Y-90.175
X114.77Y-131.885
X114.92Y-87.255
X115.775Y-92.26
X115.775Y-94.8
X117.31Y-131.885
X117.46Y-87.255
T4
X94.4Y-117.68
X94.4Y-127.68
X98.73Y-114.055
X98.73Y-130.055
X100.75Y-120.06
X100.75Y-125.14
X108.73Y-114.055
X108.73Y-130.055
M30
