G04 #@! TF.GenerationSoftware,KiCad,Pcbnew,7.0.10*
G04 #@! TF.CreationDate,2024-04-06T15:52:41-07:00*
G04 #@! TF.ProjectId,powerAmp,706f7765-7241-46d7-902e-6b696361645f,rev?*
G04 #@! TF.SameCoordinates,Original*
G04 #@! TF.FileFunction,Paste,Top*
G04 #@! TF.FilePolarity,Positive*
%FSLAX46Y46*%
G04 Gerber Fmt 4.6, Leading zero omitted, Abs format (unit mm)*
G04 Created by KiCad (PCBNEW 7.0.10) date 2024-04-06 15:52:41*
%MOMM*%
%LPD*%
G01*
G04 APERTURE LIST*
G04 Aperture macros list*
%AMRoundRect*
0 Rectangle with rounded corners*
0 $1 Rounding radius*
0 $2 $3 $4 $5 $6 $7 $8 $9 X,Y pos of 4 corners*
0 Add a 4 corners polygon primitive as box body*
4,1,4,$2,$3,$4,$5,$6,$7,$8,$9,$2,$3,0*
0 Add four circle primitives for the rounded corners*
1,1,$1+$1,$2,$3*
1,1,$1+$1,$4,$5*
1,1,$1+$1,$6,$7*
1,1,$1+$1,$8,$9*
0 Add four rect primitives between the rounded corners*
20,1,$1+$1,$2,$3,$4,$5,0*
20,1,$1+$1,$4,$5,$6,$7,0*
20,1,$1+$1,$6,$7,$8,$9,0*
20,1,$1+$1,$8,$9,$2,$3,0*%
G04 Aperture macros list end*
%ADD10R,0.650000X1.560000*%
%ADD11RoundRect,0.237500X0.250000X0.237500X-0.250000X0.237500X-0.250000X-0.237500X0.250000X-0.237500X0*%
%ADD12RoundRect,0.237500X-0.300000X-0.237500X0.300000X-0.237500X0.300000X0.237500X-0.300000X0.237500X0*%
%ADD13RoundRect,0.150000X-0.825000X-0.150000X0.825000X-0.150000X0.825000X0.150000X-0.825000X0.150000X0*%
%ADD14RoundRect,0.237500X-0.250000X-0.237500X0.250000X-0.237500X0.250000X0.237500X-0.250000X0.237500X0*%
%ADD15R,1.560000X0.650000*%
%ADD16RoundRect,0.237500X-0.237500X0.250000X-0.237500X-0.250000X0.237500X-0.250000X0.237500X0.250000X0*%
%ADD17R,2.000000X1.500000*%
%ADD18R,2.000000X3.800000*%
%ADD19R,1.500000X5.080000*%
%ADD20R,1.270000X0.610000*%
%ADD21R,0.710000X0.610000*%
%ADD22R,0.310000X0.255000*%
%ADD23R,3.810000X1.650000*%
%ADD24RoundRect,0.237500X-0.237500X0.300000X-0.237500X-0.300000X0.237500X-0.300000X0.237500X0.300000X0*%
%ADD25RoundRect,0.237500X0.237500X-0.250000X0.237500X0.250000X-0.237500X0.250000X-0.237500X-0.250000X0*%
%ADD26RoundRect,0.237500X0.237500X-0.300000X0.237500X0.300000X-0.237500X0.300000X-0.237500X-0.300000X0*%
%ADD27RoundRect,0.237500X0.300000X0.237500X-0.300000X0.237500X-0.300000X-0.237500X0.300000X-0.237500X0*%
%ADD28R,5.080000X1.500000*%
%ADD29RoundRect,0.150000X0.512500X0.150000X-0.512500X0.150000X-0.512500X-0.150000X0.512500X-0.150000X0*%
G04 APERTURE END LIST*
D10*
X67655000Y-84105000D03*
X68605000Y-84105000D03*
X69555000Y-84105000D03*
X69555000Y-81405000D03*
X67655000Y-81405000D03*
D11*
X80417500Y-122455000D03*
X78592500Y-122455000D03*
D12*
X78542500Y-120655000D03*
X80267500Y-120655000D03*
D13*
X83402400Y-73695000D03*
X83402400Y-74965000D03*
X83402400Y-76235000D03*
X83402400Y-77505000D03*
X83402400Y-78775000D03*
X83402400Y-80045000D03*
X83402400Y-81315000D03*
X88352400Y-81315000D03*
X88352400Y-80045000D03*
X88352400Y-78775000D03*
X88352400Y-77505000D03*
X88352400Y-76235000D03*
X88352400Y-74965000D03*
X88352400Y-73695000D03*
D12*
X80792500Y-94755000D03*
X82517500Y-94755000D03*
D14*
X92242500Y-81255000D03*
X94067500Y-81255000D03*
X92242500Y-79005000D03*
X94067500Y-79005000D03*
X77492500Y-70005000D03*
X79317500Y-70005000D03*
D15*
X69055000Y-98305000D03*
X69055000Y-99255000D03*
X69055000Y-100205000D03*
X71755000Y-100205000D03*
X71755000Y-99255000D03*
X71755000Y-98305000D03*
D16*
X72288400Y-77342500D03*
X72288400Y-79167500D03*
D17*
X93014400Y-86955600D03*
X93014400Y-89255600D03*
X93014400Y-91555600D03*
D18*
X99314400Y-89255600D03*
D19*
X77155000Y-132142500D03*
X81405000Y-132142500D03*
X72905000Y-132142500D03*
D20*
X75640000Y-100650000D03*
X75640000Y-101920000D03*
X75640000Y-103190000D03*
X75640000Y-104460000D03*
D21*
X81260000Y-104460000D03*
D22*
X80750000Y-104637000D03*
D21*
X81260000Y-103190000D03*
D23*
X79000000Y-103685000D03*
D21*
X81260000Y-101920000D03*
D22*
X80750000Y-100473000D03*
D21*
X81260000Y-100650000D03*
D23*
X79000000Y-101425000D03*
D24*
X76835000Y-88113700D03*
X76835000Y-89838700D03*
D11*
X94067500Y-83505000D03*
X92242500Y-83505000D03*
D12*
X77542500Y-77825600D03*
X79267500Y-77825600D03*
D25*
X104155000Y-73417500D03*
X104155000Y-71592500D03*
D11*
X89067500Y-71255000D03*
X87242500Y-71255000D03*
D26*
X102405000Y-92367500D03*
X102405000Y-90642500D03*
D12*
X68792500Y-106755000D03*
X70517500Y-106755000D03*
D11*
X89067500Y-69255000D03*
X87242500Y-69255000D03*
D27*
X73367500Y-86255000D03*
X71642500Y-86255000D03*
D11*
X79317500Y-73755000D03*
X77492500Y-73755000D03*
D27*
X79267500Y-75755000D03*
X77542500Y-75755000D03*
D11*
X79317500Y-81755000D03*
X77492500Y-81755000D03*
D27*
X79267500Y-79857600D03*
X77542500Y-79857600D03*
D12*
X84042500Y-83921600D03*
X85767500Y-83921600D03*
D25*
X74155000Y-116417500D03*
X74155000Y-114592500D03*
D26*
X104655000Y-92367500D03*
X104655000Y-90642500D03*
D15*
X69055000Y-102732800D03*
X69055000Y-103682800D03*
X69055000Y-104632800D03*
X71755000Y-104632800D03*
X71755000Y-103682800D03*
X71755000Y-102732800D03*
D12*
X77542500Y-71856600D03*
X79267500Y-71856600D03*
D16*
X72288400Y-81342500D03*
X72288400Y-83167500D03*
D28*
X68405000Y-114505000D03*
X68405000Y-118755000D03*
X68405000Y-110255000D03*
D12*
X77542500Y-83794600D03*
X79267500Y-83794600D03*
X69042500Y-96255000D03*
X70767500Y-96255000D03*
D29*
X73781500Y-89926200D03*
X73781500Y-88976200D03*
X73781500Y-88026200D03*
X71506500Y-88026200D03*
X71506500Y-89926200D03*
M02*
