G04 #@! TF.GenerationSoftware,KiCad,Pcbnew,7.0.10*
G04 #@! TF.CreationDate,2024-04-06T15:52:41-07:00*
G04 #@! TF.ProjectId,powerAmp,706f7765-7241-46d7-902e-6b696361645f,rev?*
G04 #@! TF.SameCoordinates,Original*
G04 #@! TF.FileFunction,Soldermask,Top*
G04 #@! TF.FilePolarity,Negative*
%FSLAX46Y46*%
G04 Gerber Fmt 4.6, Leading zero omitted, Abs format (unit mm)*
G04 Created by KiCad (PCBNEW 7.0.10) date 2024-04-06 15:52:41*
%MOMM*%
%LPD*%
G01*
G04 APERTURE LIST*
G04 Aperture macros list*
%AMRoundRect*
0 Rectangle with rounded corners*
0 $1 Rounding radius*
0 $2 $3 $4 $5 $6 $7 $8 $9 X,Y pos of 4 corners*
0 Add a 4 corners polygon primitive as box body*
4,1,4,$2,$3,$4,$5,$6,$7,$8,$9,$2,$3,0*
0 Add four circle primitives for the rounded corners*
1,1,$1+$1,$2,$3*
1,1,$1+$1,$4,$5*
1,1,$1+$1,$6,$7*
1,1,$1+$1,$8,$9*
0 Add four rect primitives between the rounded corners*
20,1,$1+$1,$2,$3,$4,$5,0*
20,1,$1+$1,$4,$5,$6,$7,0*
20,1,$1+$1,$6,$7,$8,$9,0*
20,1,$1+$1,$8,$9,$2,$3,0*%
G04 Aperture macros list end*
%ADD10R,0.650000X1.560000*%
%ADD11RoundRect,0.237500X0.250000X0.237500X-0.250000X0.237500X-0.250000X-0.237500X0.250000X-0.237500X0*%
%ADD12R,1.600000X1.600000*%
%ADD13O,1.600000X1.600000*%
%ADD14RoundRect,0.237500X-0.300000X-0.237500X0.300000X-0.237500X0.300000X0.237500X-0.300000X0.237500X0*%
%ADD15RoundRect,0.150000X-0.825000X-0.150000X0.825000X-0.150000X0.825000X0.150000X-0.825000X0.150000X0*%
%ADD16RoundRect,0.237500X-0.250000X-0.237500X0.250000X-0.237500X0.250000X0.237500X-0.250000X0.237500X0*%
%ADD17R,1.700000X1.700000*%
%ADD18O,1.700000X1.700000*%
%ADD19C,1.600000*%
%ADD20R,1.560000X0.650000*%
%ADD21RoundRect,0.237500X-0.237500X0.250000X-0.237500X-0.250000X0.237500X-0.250000X0.237500X0.250000X0*%
%ADD22R,2.000000X1.500000*%
%ADD23R,2.000000X3.800000*%
%ADD24R,1.500000X5.080000*%
%ADD25R,1.270000X0.610000*%
%ADD26R,0.710000X0.610000*%
%ADD27R,0.310000X0.255000*%
%ADD28R,3.810000X1.650000*%
%ADD29RoundRect,0.237500X-0.237500X0.300000X-0.237500X-0.300000X0.237500X-0.300000X0.237500X0.300000X0*%
%ADD30RoundRect,0.237500X0.237500X-0.250000X0.237500X0.250000X-0.237500X0.250000X-0.237500X-0.250000X0*%
%ADD31RoundRect,0.237500X0.237500X-0.300000X0.237500X0.300000X-0.237500X0.300000X-0.237500X-0.300000X0*%
%ADD32RoundRect,0.237500X0.300000X0.237500X-0.300000X0.237500X-0.300000X-0.237500X0.300000X-0.237500X0*%
%ADD33C,3.000000*%
%ADD34C,2.000000*%
%ADD35R,5.080000X1.500000*%
%ADD36RoundRect,0.150000X0.512500X0.150000X-0.512500X0.150000X-0.512500X-0.150000X0.512500X-0.150000X0*%
%ADD37C,1.440000*%
G04 APERTURE END LIST*
D10*
X67655000Y-84105000D03*
X68605000Y-84105000D03*
X69555000Y-84105000D03*
X69555000Y-81405000D03*
X67655000Y-81405000D03*
D11*
X80417500Y-122455000D03*
X78592500Y-122455000D03*
D12*
X79505000Y-118365000D03*
D13*
X79505000Y-110745000D03*
D14*
X78542500Y-120655000D03*
X80267500Y-120655000D03*
D15*
X83402400Y-73695000D03*
X83402400Y-74965000D03*
X83402400Y-76235000D03*
X83402400Y-77505000D03*
X83402400Y-78775000D03*
X83402400Y-80045000D03*
X83402400Y-81315000D03*
X88352400Y-81315000D03*
X88352400Y-80045000D03*
X88352400Y-78775000D03*
X88352400Y-77505000D03*
X88352400Y-76235000D03*
X88352400Y-74965000D03*
X88352400Y-73695000D03*
D14*
X80792500Y-94755000D03*
X82517500Y-94755000D03*
D16*
X92242500Y-81255000D03*
X94067500Y-81255000D03*
D17*
X69905000Y-68455000D03*
D18*
X72445000Y-68455000D03*
D17*
X108405000Y-70730000D03*
D18*
X108405000Y-73270000D03*
D16*
X92242500Y-79005000D03*
X94067500Y-79005000D03*
X77492500Y-70005000D03*
X79317500Y-70005000D03*
D19*
X108405000Y-94505000D03*
X108405000Y-96505000D03*
D20*
X69055000Y-98305000D03*
X69055000Y-99255000D03*
X69055000Y-100205000D03*
X71755000Y-100205000D03*
X71755000Y-99255000D03*
X71755000Y-98305000D03*
D21*
X72288400Y-77342500D03*
X72288400Y-79167500D03*
D17*
X69155000Y-125505000D03*
D18*
X69155000Y-128045000D03*
D17*
X68205000Y-90630000D03*
D18*
X68205000Y-88090000D03*
D17*
X107905000Y-89280000D03*
D18*
X107905000Y-86740000D03*
D22*
X93014400Y-86955600D03*
X93014400Y-89255600D03*
X93014400Y-91555600D03*
D23*
X99314400Y-89255600D03*
D24*
X77155000Y-132142500D03*
X81405000Y-132142500D03*
X72905000Y-132142500D03*
D25*
X75640000Y-100650000D03*
X75640000Y-101920000D03*
X75640000Y-103190000D03*
X75640000Y-104460000D03*
D26*
X81260000Y-104460000D03*
D27*
X80750000Y-104637000D03*
D26*
X81260000Y-103190000D03*
D28*
X79000000Y-103685000D03*
D26*
X81260000Y-101920000D03*
D27*
X80750000Y-100473000D03*
D26*
X81260000Y-100650000D03*
D28*
X79000000Y-101425000D03*
D17*
X105880000Y-131505000D03*
D18*
X108420000Y-131505000D03*
D29*
X76835000Y-88113700D03*
X76835000Y-89838700D03*
D11*
X94067500Y-83505000D03*
X92242500Y-83505000D03*
D14*
X77542500Y-77825600D03*
X79267500Y-77825600D03*
D30*
X104155000Y-73417500D03*
X104155000Y-71592500D03*
D11*
X89067500Y-71255000D03*
X87242500Y-71255000D03*
D31*
X102405000Y-92367500D03*
X102405000Y-90642500D03*
D14*
X68792500Y-106755000D03*
X70517500Y-106755000D03*
D11*
X89067500Y-69255000D03*
X87242500Y-69255000D03*
D32*
X73367500Y-86255000D03*
X71642500Y-86255000D03*
D11*
X79317500Y-73755000D03*
X77492500Y-73755000D03*
D32*
X79267500Y-75755000D03*
X77542500Y-75755000D03*
D11*
X79317500Y-81755000D03*
X77492500Y-81755000D03*
D32*
X79267500Y-79857600D03*
X77542500Y-79857600D03*
D14*
X84042500Y-83921600D03*
X85767500Y-83921600D03*
D33*
X101405000Y-98005000D03*
X85405000Y-98005000D03*
X101405000Y-108005000D03*
X85405000Y-108005000D03*
D34*
X84734400Y-86842600D03*
X84734400Y-91922600D03*
D30*
X74155000Y-116417500D03*
X74155000Y-114592500D03*
D31*
X104655000Y-92367500D03*
X104655000Y-90642500D03*
D20*
X69055000Y-102732800D03*
X69055000Y-103682800D03*
X69055000Y-104632800D03*
X71755000Y-104632800D03*
X71755000Y-103682800D03*
X71755000Y-102732800D03*
D14*
X77542500Y-71856600D03*
X79267500Y-71856600D03*
D21*
X72288400Y-81342500D03*
X72288400Y-83167500D03*
D35*
X68405000Y-114505000D03*
X68405000Y-118755000D03*
X68405000Y-110255000D03*
D14*
X77542500Y-83794600D03*
X79267500Y-83794600D03*
D17*
X100905000Y-79730000D03*
D18*
X100905000Y-82270000D03*
D14*
X69042500Y-96255000D03*
X70767500Y-96255000D03*
D33*
X101405000Y-115755000D03*
X85405000Y-115755000D03*
X101405000Y-125755000D03*
X85405000Y-125755000D03*
D36*
X73781500Y-89926200D03*
X73781500Y-88976200D03*
X73781500Y-88026200D03*
X71506500Y-88026200D03*
X71506500Y-89926200D03*
D37*
X99205000Y-72755000D03*
X96665000Y-72755000D03*
X94125000Y-72755000D03*
G36*
X106114191Y-85023907D02*
G01*
X106150155Y-85073407D01*
X106155000Y-85104000D01*
X106155000Y-88254999D01*
X106155001Y-88255000D01*
X109556000Y-88255000D01*
X109614191Y-88273907D01*
X109650155Y-88323407D01*
X109655000Y-88354000D01*
X109655000Y-95156000D01*
X109636093Y-95214191D01*
X109586593Y-95250155D01*
X109556000Y-95255000D01*
X107004000Y-95255000D01*
X106945809Y-95236093D01*
X106909845Y-95186593D01*
X106905000Y-95156000D01*
X106905000Y-91005001D01*
X106904999Y-91005000D01*
X100155001Y-91005000D01*
X100155000Y-91005001D01*
X100155000Y-94156000D01*
X100136093Y-94214191D01*
X100086593Y-94250155D01*
X100056000Y-94255000D01*
X94254000Y-94255000D01*
X94195809Y-94236093D01*
X94159845Y-94186593D01*
X94155000Y-94156000D01*
X94155000Y-85104000D01*
X94173907Y-85045809D01*
X94223407Y-85009845D01*
X94254000Y-85005000D01*
X106056000Y-85005000D01*
X106114191Y-85023907D01*
G37*
G36*
X80548039Y-104474685D02*
G01*
X80593794Y-104527489D01*
X80605000Y-104579000D01*
X80605000Y-108531000D01*
X80585315Y-108598039D01*
X80532511Y-108643794D01*
X80481000Y-108655000D01*
X74129000Y-108655000D01*
X74061961Y-108635315D01*
X74016206Y-108582511D01*
X74005000Y-108531000D01*
X74005000Y-106279000D01*
X74024685Y-106211961D01*
X74077489Y-106166206D01*
X74129000Y-106155000D01*
X76305000Y-106155000D01*
X76305000Y-106154999D01*
X77071495Y-104526201D01*
X77117851Y-104473924D01*
X77183692Y-104455000D01*
X80481000Y-104455000D01*
X80548039Y-104474685D01*
G37*
G36*
X80448039Y-96874685D02*
G01*
X80493794Y-96927489D01*
X80505000Y-96979000D01*
X80505000Y-100531000D01*
X80485315Y-100598039D01*
X80432511Y-100643794D01*
X80381000Y-100655000D01*
X77201817Y-100655000D01*
X77134778Y-100635315D01*
X77089023Y-100582511D01*
X77081519Y-100561074D01*
X76705000Y-99055000D01*
X74629000Y-99055000D01*
X74561961Y-99035315D01*
X74516206Y-98982511D01*
X74505000Y-98931000D01*
X74505000Y-96979000D01*
X74524685Y-96911961D01*
X74577489Y-96866206D01*
X74629000Y-96855000D01*
X80381000Y-96855000D01*
X80448039Y-96874685D01*
G37*
M02*
