%TF.GenerationSoftware,KiCad,Pcbnew,7.0.10*%
%TF.CreationDate,2024-04-06T15:54:39-07:00*%
%TF.ProjectId,powerAmp,706f7765-7241-46d7-902e-6b696361645f,rev?*%
%TF.SameCoordinates,Original*%
%TF.FileFunction,Drillmap*%
%TF.FilePolarity,Positive*%
%FSLAX45Y45*%
G04 Gerber Fmt 4.5, Leading zero omitted, Abs format (unit mm)*
G04 Created by KiCad (PCBNEW 7.0.10) date 2024-04-06 15:54:39*
%MOMM*%
%LPD*%
G01*
G04 APERTURE LIST*
%ADD10C,0.100000*%
%ADD11C,0.200000*%
%ADD12C,0.120000*%
G04 APERTURE END LIST*
D10*
X6540500Y-6600500D02*
X11215500Y-6600500D01*
X11215500Y-13525500D01*
X6540500Y-13525500D01*
X6540500Y-6600500D01*
D11*
D10*
X6680500Y-7775500D02*
X6720500Y-7815500D01*
X6720500Y-7775500D02*
X6680500Y-7815500D01*
X6720500Y-9615500D02*
X6760500Y-9655500D01*
X6760500Y-9615500D02*
X6720500Y-9655500D01*
X6720500Y-9905500D02*
X6760500Y-9945500D01*
X6760500Y-9905500D02*
X6720500Y-9945500D01*
X6720500Y-10355500D02*
X6760500Y-10395500D01*
X6760500Y-10355500D02*
X6720500Y-10395500D01*
X6720500Y-10555500D02*
X6760500Y-10595500D01*
X6760500Y-10555500D02*
X6720500Y-10595500D01*
X6730500Y-7135500D02*
X6770500Y-7175500D01*
X6770500Y-7135500D02*
X6730500Y-7175500D01*
X6990500Y-8565500D02*
X7030500Y-8605500D01*
X7030500Y-8565500D02*
X6990500Y-8605500D01*
X7030500Y-7875500D02*
X7070500Y-7915500D01*
X7070500Y-7875500D02*
X7030500Y-7915500D01*
X7110500Y-8425500D02*
X7150500Y-8465500D01*
X7150500Y-8425500D02*
X7110500Y-8465500D01*
X7180500Y-10705500D02*
X7220500Y-10745500D01*
X7220500Y-10705500D02*
X7180500Y-10745500D01*
X7200500Y-9695500D02*
X7240500Y-9735500D01*
X7240500Y-9695500D02*
X7200500Y-9735500D01*
X7220500Y-11005500D02*
X7260500Y-11045500D01*
X7260500Y-11005500D02*
X7220500Y-11045500D01*
X7220500Y-11180500D02*
X7260500Y-11220500D01*
X7260500Y-11180500D02*
X7220500Y-11220500D01*
X7220500Y-11880500D02*
X7260500Y-11920500D01*
X7260500Y-11880500D02*
X7220500Y-11920500D01*
X7240500Y-10125500D02*
X7280500Y-10165500D01*
X7280500Y-10125500D02*
X7240500Y-10165500D01*
X7245500Y-11330500D02*
X7285500Y-11370500D01*
X7285500Y-11330500D02*
X7245500Y-11370500D01*
X7245500Y-11580500D02*
X7285500Y-11620500D01*
X7285500Y-11580500D02*
X7245500Y-11620500D01*
X7270500Y-9205500D02*
X7310500Y-9245500D01*
X7310500Y-9205500D02*
X7270500Y-9245500D01*
X7270500Y-12780500D02*
X7310500Y-12820500D01*
X7310500Y-12780500D02*
X7270500Y-12820500D01*
X7280500Y-7265500D02*
X7320500Y-7305500D01*
X7320500Y-7265500D02*
X7280500Y-7305500D01*
X7345500Y-8255500D02*
X7385500Y-8295500D01*
X7385500Y-8255500D02*
X7345500Y-8295500D01*
X7350500Y-9785500D02*
X7390500Y-9825500D01*
X7390500Y-9785500D02*
X7350500Y-9825500D01*
X7370500Y-10245500D02*
X7410500Y-10285500D01*
X7410500Y-10245500D02*
X7370500Y-10285500D01*
X7410500Y-9965500D02*
X7450500Y-10005500D01*
X7450500Y-9965500D02*
X7410500Y-10005500D01*
X7420500Y-9125500D02*
X7460500Y-9165500D01*
X7460500Y-9125500D02*
X7420500Y-9165500D01*
X7445500Y-8505500D02*
X7485500Y-8545500D01*
X7485500Y-8505500D02*
X7445500Y-8545500D01*
X7460500Y-10645500D02*
X7500500Y-10685500D01*
X7500500Y-10645500D02*
X7460500Y-10685500D01*
X7460500Y-10755500D02*
X7500500Y-10795500D01*
X7500500Y-10755500D02*
X7460500Y-10795500D01*
X7470500Y-7230500D02*
X7510500Y-7270500D01*
X7510500Y-7230500D02*
X7470500Y-7270500D01*
X7470500Y-7480500D02*
X7510500Y-7520500D01*
X7510500Y-7480500D02*
X7470500Y-7520500D01*
X7495500Y-13180500D02*
X7535500Y-13220500D01*
X7535500Y-13180500D02*
X7495500Y-13220500D01*
X7510500Y-9795500D02*
X7550500Y-9835500D01*
X7550500Y-9795500D02*
X7510500Y-9835500D01*
X7510500Y-10915500D02*
X7550500Y-10955500D01*
X7550500Y-10915500D02*
X7510500Y-10955500D01*
X7520500Y-11280500D02*
X7560500Y-11320500D01*
X7560500Y-11280500D02*
X7520500Y-11320500D01*
X7545500Y-11630500D02*
X7585500Y-11670500D01*
X7585500Y-11630500D02*
X7545500Y-11670500D01*
X7590500Y-9725500D02*
X7630500Y-9765500D01*
X7630500Y-9725500D02*
X7590500Y-9765500D01*
X7595500Y-7655500D02*
X7635500Y-7695500D01*
X7635500Y-7655500D02*
X7595500Y-7695500D01*
X7595500Y-7855500D02*
X7635500Y-7895500D01*
X7635500Y-7855500D02*
X7595500Y-7895500D01*
X7600500Y-10655500D02*
X7640500Y-10695500D01*
X7640500Y-10655500D02*
X7600500Y-10695500D01*
X7600500Y-10755500D02*
X7640500Y-10795500D01*
X7640500Y-10755500D02*
X7600500Y-10795500D01*
X7645500Y-8530500D02*
X7685500Y-8570500D01*
X7685500Y-8530500D02*
X7645500Y-8570500D01*
X7670500Y-9825500D02*
X7710500Y-9865500D01*
X7710500Y-9825500D02*
X7670500Y-9865500D01*
X7695500Y-12580500D02*
X7735500Y-12620500D01*
X7735500Y-12580500D02*
X7695500Y-12620500D01*
X7710500Y-9725500D02*
X7750500Y-9765500D01*
X7750500Y-9725500D02*
X7710500Y-9765500D01*
X7730500Y-10625500D02*
X7770500Y-10665500D01*
X7770500Y-10625500D02*
X7730500Y-10665500D01*
X7730500Y-10755500D02*
X7770500Y-10795500D01*
X7770500Y-10755500D02*
X7730500Y-10795500D01*
X7760500Y-9865500D02*
X7800500Y-9905500D01*
X7800500Y-9865500D02*
X7760500Y-9905500D01*
X7810500Y-9755500D02*
X7850500Y-9795500D01*
X7850500Y-9755500D02*
X7810500Y-9795500D01*
X7820500Y-8780500D02*
X7860500Y-8820500D01*
X7860500Y-8780500D02*
X7820500Y-8820500D01*
X7850500Y-10625500D02*
X7890500Y-10665500D01*
X7890500Y-10625500D02*
X7850500Y-10665500D01*
X7850500Y-10755500D02*
X7890500Y-10795500D01*
X7890500Y-10755500D02*
X7850500Y-10795500D01*
X7880500Y-9865500D02*
X7920500Y-9905500D01*
X7920500Y-9865500D02*
X7880500Y-9905500D01*
X7895500Y-13205500D02*
X7935500Y-13245500D01*
X7935500Y-13205500D02*
X7895500Y-13245500D01*
X7910500Y-9725500D02*
X7950500Y-9765500D01*
X7950500Y-9725500D02*
X7910500Y-9765500D01*
X7970500Y-9805500D02*
X8010500Y-9845500D01*
X8010500Y-9805500D02*
X7970500Y-9845500D01*
X7980500Y-9915500D02*
X8020500Y-9955500D01*
X8020500Y-9915500D02*
X7980500Y-9955500D01*
X7980500Y-10635500D02*
X8020500Y-10675500D01*
X8020500Y-10635500D02*
X7980500Y-10675500D01*
X7980500Y-10755500D02*
X8020500Y-10795500D01*
X8020500Y-10755500D02*
X7980500Y-10795500D01*
X8020500Y-12830500D02*
X8060500Y-12870500D01*
X8060500Y-12830500D02*
X8020500Y-12870500D01*
X8045500Y-7780500D02*
X8085500Y-7820500D01*
X8085500Y-7780500D02*
X8045500Y-7820500D01*
X8045500Y-12480500D02*
X8085500Y-12520500D01*
X8085500Y-12480500D02*
X8045500Y-12520500D01*
X8120500Y-11205500D02*
X8160500Y-11245500D01*
X8160500Y-11205500D02*
X8120500Y-11245500D01*
X8220500Y-8380500D02*
X8260500Y-8420500D01*
X8260500Y-8380500D02*
X8220500Y-8420500D01*
X8495500Y-10080500D02*
X8535500Y-10120500D01*
X8535500Y-10080500D02*
X8495500Y-10120500D01*
X8570500Y-7755500D02*
X8610500Y-7795500D01*
X8610500Y-7755500D02*
X8570500Y-7795500D01*
X8570500Y-8105500D02*
X8610500Y-8145500D01*
X8610500Y-8105500D02*
X8570500Y-8145500D01*
X8620500Y-11080500D02*
X8660500Y-11120500D01*
X8660500Y-11080500D02*
X8620500Y-11120500D01*
X8640500Y-10315500D02*
X8680500Y-10355500D01*
X8680500Y-10315500D02*
X8640500Y-10355500D01*
X9020500Y-7730500D02*
X9060500Y-7770500D01*
X9060500Y-7730500D02*
X9020500Y-7770500D01*
X9070500Y-6905500D02*
X9110500Y-6945500D01*
X9110500Y-6905500D02*
X9070500Y-6945500D01*
X9070500Y-7305500D02*
X9110500Y-7345500D01*
X9110500Y-7305500D02*
X9070500Y-7345500D01*
X9145500Y-11180500D02*
X9185500Y-11220500D01*
X9185500Y-11180500D02*
X9145500Y-11220500D01*
X9245500Y-7705500D02*
X9285500Y-7745500D01*
X9285500Y-7705500D02*
X9245500Y-7745500D01*
X9445500Y-9330500D02*
X9485500Y-9370500D01*
X9485500Y-9330500D02*
X9445500Y-9370500D01*
X9495500Y-8780500D02*
X9535500Y-8820500D01*
X9535500Y-8780500D02*
X9495500Y-8820500D01*
X9495500Y-9030500D02*
X9535500Y-9070500D01*
X9535500Y-9030500D02*
X9495500Y-9070500D01*
X9495500Y-9180500D02*
X9535500Y-9220500D01*
X9535500Y-9180500D02*
X9495500Y-9220500D01*
X9520500Y-8655500D02*
X9560500Y-8695500D01*
X9560500Y-8655500D02*
X9520500Y-8695500D01*
X9570500Y-8530500D02*
X9610500Y-8570500D01*
X9610500Y-8530500D02*
X9570500Y-8570500D01*
X9645500Y-8630500D02*
X9685500Y-8670500D01*
X9685500Y-8630500D02*
X9645500Y-8670500D01*
X9645500Y-8780500D02*
X9685500Y-8820500D01*
X9685500Y-8780500D02*
X9645500Y-8820500D01*
X9645500Y-9030500D02*
X9685500Y-9070500D01*
X9685500Y-9030500D02*
X9645500Y-9070500D01*
X9670500Y-9180500D02*
X9710500Y-9220500D01*
X9710500Y-9180500D02*
X9670500Y-9220500D01*
X9670500Y-9330500D02*
X9710500Y-9370500D01*
X9710500Y-9330500D02*
X9670500Y-9370500D01*
X9720500Y-7730500D02*
X9760500Y-7770500D01*
X9760500Y-7730500D02*
X9720500Y-7770500D01*
X9770500Y-8530500D02*
X9810500Y-8570500D01*
X9810500Y-8530500D02*
X9770500Y-8570500D01*
X9845500Y-8605500D02*
X9885500Y-8645500D01*
X9885500Y-8605500D02*
X9845500Y-8645500D01*
X9870500Y-9330500D02*
X9910500Y-9370500D01*
X9910500Y-9330500D02*
X9870500Y-9370500D01*
X9945500Y-8530500D02*
X9985500Y-8570500D01*
X9985500Y-8530500D02*
X9945500Y-8570500D01*
X10095500Y-9305500D02*
X10135500Y-9345500D01*
X10135500Y-9305500D02*
X10095500Y-9345500D01*
X10120500Y-8580500D02*
X10160500Y-8620500D01*
X10160500Y-8580500D02*
X10120500Y-8620500D01*
X10120500Y-8730500D02*
X10160500Y-8770500D01*
X10160500Y-8730500D02*
X10120500Y-8770500D01*
X10120500Y-8880500D02*
X10160500Y-8920500D01*
X10160500Y-8880500D02*
X10120500Y-8920500D01*
X10145500Y-11055500D02*
X10185500Y-11095500D01*
X10185500Y-11055500D02*
X10145500Y-11095500D01*
X10245500Y-8580500D02*
X10285500Y-8620500D01*
X10285500Y-8580500D02*
X10245500Y-8620500D01*
X10245500Y-8730500D02*
X10285500Y-8770500D01*
X10285500Y-8730500D02*
X10245500Y-8770500D01*
X10245500Y-8880500D02*
X10285500Y-8920500D01*
X10285500Y-8880500D02*
X10245500Y-8920500D01*
X10370500Y-11255500D02*
X10410500Y-11295500D01*
X10410500Y-11255500D02*
X10370500Y-11295500D01*
X10395500Y-7480500D02*
X10435500Y-7520500D01*
X10435500Y-7480500D02*
X10395500Y-7520500D01*
X10395500Y-7830500D02*
X10435500Y-7870500D01*
X10435500Y-7830500D02*
X10395500Y-7870500D01*
X10395500Y-8230500D02*
X10435500Y-8270500D01*
X10435500Y-8230500D02*
X10395500Y-8270500D01*
X10395500Y-8580500D02*
X10435500Y-8620500D01*
X10435500Y-8580500D02*
X10395500Y-8620500D01*
X10395500Y-8730500D02*
X10435500Y-8770500D01*
X10435500Y-8730500D02*
X10395500Y-8770500D01*
X10395500Y-8880500D02*
X10435500Y-8920500D01*
X10435500Y-8880500D02*
X10395500Y-8920500D01*
X10545500Y-8580500D02*
X10585500Y-8620500D01*
X10585500Y-8580500D02*
X10545500Y-8620500D01*
X10545500Y-8730500D02*
X10585500Y-8770500D01*
X10585500Y-8730500D02*
X10545500Y-8770500D01*
X10545500Y-8880500D02*
X10585500Y-8920500D01*
X10585500Y-8880500D02*
X10545500Y-8920500D01*
X10595500Y-9230500D02*
X10635500Y-9270500D01*
X10635500Y-9230500D02*
X10595500Y-9270500D01*
X10770500Y-9105500D02*
X10810500Y-9145500D01*
X10810500Y-9105500D02*
X10770500Y-9145500D01*
X10770500Y-9205500D02*
X10810500Y-9245500D01*
X10810500Y-9205500D02*
X10770500Y-9245500D01*
X7990500Y-11074500D02*
G75*
G03*
X7910500Y-11074500I-40000J0D01*
G01*
X7910500Y-11074500D02*
G75*
G03*
X7990500Y-11074500I40000J0D01*
G01*
X7990500Y-11836500D02*
G75*
G03*
X7910500Y-11836500I-40000J0D01*
G01*
X7910500Y-11836500D02*
G75*
G03*
X7990500Y-11836500I40000J0D01*
G01*
X9452500Y-7275500D02*
G75*
G03*
X9372500Y-7275500I-40000J0D01*
G01*
X9372500Y-7275500D02*
G75*
G03*
X9452500Y-7275500I40000J0D01*
G01*
X9706500Y-7275500D02*
G75*
G03*
X9626500Y-7275500I-40000J0D01*
G01*
X9626500Y-7275500D02*
G75*
G03*
X9706500Y-7275500I40000J0D01*
G01*
X9960500Y-7275500D02*
G75*
G03*
X9880500Y-7275500I-40000J0D01*
G01*
X9880500Y-7275500D02*
G75*
G03*
X9960500Y-7275500I40000J0D01*
G01*
X10880500Y-9450500D02*
G75*
G03*
X10800500Y-9450500I-40000J0D01*
G01*
X10800500Y-9450500D02*
G75*
G03*
X10880500Y-9450500I40000J0D01*
G01*
X10880500Y-9650500D02*
G75*
G03*
X10800500Y-9650500I-40000J0D01*
G01*
X10800500Y-9650500D02*
G75*
G03*
X10880500Y-9650500I40000J0D01*
G01*
X6820500Y-8759000D02*
X6820500Y-8859000D01*
X6770500Y-8809000D02*
X6870500Y-8809000D01*
X6820500Y-9013000D02*
X6820500Y-9113000D01*
X6770500Y-9063000D02*
X6870500Y-9063000D01*
X6915500Y-12500500D02*
X6915500Y-12600500D01*
X6865500Y-12550500D02*
X6965500Y-12550500D01*
X6915500Y-12754500D02*
X6915500Y-12854500D01*
X6865500Y-12804500D02*
X6965500Y-12804500D01*
X6990500Y-6795500D02*
X6990500Y-6895500D01*
X6940500Y-6845500D02*
X7040500Y-6845500D01*
X7244500Y-6795500D02*
X7244500Y-6895500D01*
X7194500Y-6845500D02*
X7294500Y-6845500D01*
X8473440Y-8634260D02*
X8473440Y-8734260D01*
X8423440Y-8684260D02*
X8523440Y-8684260D01*
X8473440Y-9142260D02*
X8473440Y-9242260D01*
X8423440Y-9192260D02*
X8523440Y-9192260D01*
X10090500Y-7923000D02*
X10090500Y-8023000D01*
X10040500Y-7973000D02*
X10140500Y-7973000D01*
X10090500Y-8177000D02*
X10090500Y-8277000D01*
X10040500Y-8227000D02*
X10140500Y-8227000D01*
X10588000Y-13100500D02*
X10588000Y-13200500D01*
X10538000Y-13150500D02*
X10638000Y-13150500D01*
X10790500Y-8624000D02*
X10790500Y-8724000D01*
X10740500Y-8674000D02*
X10840500Y-8674000D01*
X10790500Y-8878000D02*
X10790500Y-8978000D01*
X10740500Y-8928000D02*
X10840500Y-8928000D01*
X10840500Y-7023000D02*
X10840500Y-7123000D01*
X10790500Y-7073000D02*
X10890500Y-7073000D01*
X10840500Y-7277000D02*
X10840500Y-7377000D01*
X10790500Y-7327000D02*
X10890500Y-7327000D01*
X10842000Y-13100500D02*
X10842000Y-13200500D01*
X10792000Y-13150500D02*
X10892000Y-13150500D01*
D12*
X8582927Y-9842927D02*
X8582927Y-9758073D01*
X8498073Y-9758073D01*
X8498073Y-9842927D01*
X8582927Y-9842927D01*
X8582927Y-10842927D02*
X8582927Y-10758073D01*
X8498073Y-10758073D01*
X8498073Y-10842927D01*
X8582927Y-10842927D01*
X8582927Y-11617927D02*
X8582927Y-11533073D01*
X8498073Y-11533073D01*
X8498073Y-11617927D01*
X8582927Y-11617927D01*
X8582927Y-12617927D02*
X8582927Y-12533073D01*
X8498073Y-12533073D01*
X8498073Y-12617927D01*
X8582927Y-12617927D01*
X10182927Y-9842927D02*
X10182927Y-9758073D01*
X10098073Y-9758073D01*
X10098073Y-9842927D01*
X10182927Y-9842927D01*
X10182927Y-10842927D02*
X10182927Y-10758073D01*
X10098073Y-10758073D01*
X10098073Y-10842927D01*
X10182927Y-10842927D01*
X10182927Y-11617927D02*
X10182927Y-11533073D01*
X10098073Y-11533073D01*
X10098073Y-11617927D01*
X10182927Y-11617927D01*
X10182927Y-12617927D02*
X10182927Y-12533073D01*
X10098073Y-12533073D01*
X10098073Y-12617927D01*
X10182927Y-12617927D01*
D11*
X6796277Y-13841984D02*
X6796277Y-13641984D01*
X6796277Y-13641984D02*
X6843896Y-13641984D01*
X6843896Y-13641984D02*
X6872467Y-13651508D01*
X6872467Y-13651508D02*
X6891515Y-13670555D01*
X6891515Y-13670555D02*
X6901039Y-13689603D01*
X6901039Y-13689603D02*
X6910562Y-13727698D01*
X6910562Y-13727698D02*
X6910562Y-13756269D01*
X6910562Y-13756269D02*
X6901039Y-13794365D01*
X6901039Y-13794365D02*
X6891515Y-13813412D01*
X6891515Y-13813412D02*
X6872467Y-13832460D01*
X6872467Y-13832460D02*
X6843896Y-13841984D01*
X6843896Y-13841984D02*
X6796277Y-13841984D01*
X6996277Y-13841984D02*
X6996277Y-13708650D01*
X6996277Y-13746746D02*
X7005801Y-13727698D01*
X7005801Y-13727698D02*
X7015324Y-13718174D01*
X7015324Y-13718174D02*
X7034372Y-13708650D01*
X7034372Y-13708650D02*
X7053420Y-13708650D01*
X7120086Y-13841984D02*
X7120086Y-13708650D01*
X7120086Y-13641984D02*
X7110562Y-13651508D01*
X7110562Y-13651508D02*
X7120086Y-13661031D01*
X7120086Y-13661031D02*
X7129610Y-13651508D01*
X7129610Y-13651508D02*
X7120086Y-13641984D01*
X7120086Y-13641984D02*
X7120086Y-13661031D01*
X7243896Y-13841984D02*
X7224848Y-13832460D01*
X7224848Y-13832460D02*
X7215324Y-13813412D01*
X7215324Y-13813412D02*
X7215324Y-13641984D01*
X7348658Y-13841984D02*
X7329610Y-13832460D01*
X7329610Y-13832460D02*
X7320086Y-13813412D01*
X7320086Y-13813412D02*
X7320086Y-13641984D01*
X7577229Y-13841984D02*
X7577229Y-13641984D01*
X7577229Y-13641984D02*
X7643896Y-13784841D01*
X7643896Y-13784841D02*
X7710562Y-13641984D01*
X7710562Y-13641984D02*
X7710562Y-13841984D01*
X7891515Y-13841984D02*
X7891515Y-13737222D01*
X7891515Y-13737222D02*
X7881991Y-13718174D01*
X7881991Y-13718174D02*
X7862943Y-13708650D01*
X7862943Y-13708650D02*
X7824848Y-13708650D01*
X7824848Y-13708650D02*
X7805801Y-13718174D01*
X7891515Y-13832460D02*
X7872467Y-13841984D01*
X7872467Y-13841984D02*
X7824848Y-13841984D01*
X7824848Y-13841984D02*
X7805801Y-13832460D01*
X7805801Y-13832460D02*
X7796277Y-13813412D01*
X7796277Y-13813412D02*
X7796277Y-13794365D01*
X7796277Y-13794365D02*
X7805801Y-13775317D01*
X7805801Y-13775317D02*
X7824848Y-13765793D01*
X7824848Y-13765793D02*
X7872467Y-13765793D01*
X7872467Y-13765793D02*
X7891515Y-13756269D01*
X7986753Y-13708650D02*
X7986753Y-13908650D01*
X7986753Y-13718174D02*
X8005801Y-13708650D01*
X8005801Y-13708650D02*
X8043896Y-13708650D01*
X8043896Y-13708650D02*
X8062943Y-13718174D01*
X8062943Y-13718174D02*
X8072467Y-13727698D01*
X8072467Y-13727698D02*
X8081991Y-13746746D01*
X8081991Y-13746746D02*
X8081991Y-13803888D01*
X8081991Y-13803888D02*
X8072467Y-13822936D01*
X8072467Y-13822936D02*
X8062943Y-13832460D01*
X8062943Y-13832460D02*
X8043896Y-13841984D01*
X8043896Y-13841984D02*
X8005801Y-13841984D01*
X8005801Y-13841984D02*
X7986753Y-13832460D01*
X8167705Y-13822936D02*
X8177229Y-13832460D01*
X8177229Y-13832460D02*
X8167705Y-13841984D01*
X8167705Y-13841984D02*
X8158182Y-13832460D01*
X8158182Y-13832460D02*
X8167705Y-13822936D01*
X8167705Y-13822936D02*
X8167705Y-13841984D01*
X8167705Y-13718174D02*
X8177229Y-13727698D01*
X8177229Y-13727698D02*
X8167705Y-13737222D01*
X8167705Y-13737222D02*
X8158182Y-13727698D01*
X8158182Y-13727698D02*
X8167705Y-13718174D01*
X8167705Y-13718174D02*
X8167705Y-13737222D01*
D10*
X6495500Y-14150500D02*
X6535500Y-14190500D01*
X6535500Y-14150500D02*
X6495500Y-14190500D01*
D11*
X6834372Y-14061984D02*
X6853420Y-14061984D01*
X6853420Y-14061984D02*
X6872467Y-14071508D01*
X6872467Y-14071508D02*
X6881991Y-14081031D01*
X6881991Y-14081031D02*
X6891515Y-14100079D01*
X6891515Y-14100079D02*
X6901039Y-14138174D01*
X6901039Y-14138174D02*
X6901039Y-14185793D01*
X6901039Y-14185793D02*
X6891515Y-14223888D01*
X6891515Y-14223888D02*
X6881991Y-14242936D01*
X6881991Y-14242936D02*
X6872467Y-14252460D01*
X6872467Y-14252460D02*
X6853420Y-14261984D01*
X6853420Y-14261984D02*
X6834372Y-14261984D01*
X6834372Y-14261984D02*
X6815324Y-14252460D01*
X6815324Y-14252460D02*
X6805801Y-14242936D01*
X6805801Y-14242936D02*
X6796277Y-14223888D01*
X6796277Y-14223888D02*
X6786753Y-14185793D01*
X6786753Y-14185793D02*
X6786753Y-14138174D01*
X6786753Y-14138174D02*
X6796277Y-14100079D01*
X6796277Y-14100079D02*
X6805801Y-14081031D01*
X6805801Y-14081031D02*
X6815324Y-14071508D01*
X6815324Y-14071508D02*
X6834372Y-14061984D01*
X6986753Y-14242936D02*
X6996277Y-14252460D01*
X6996277Y-14252460D02*
X6986753Y-14261984D01*
X6986753Y-14261984D02*
X6977229Y-14252460D01*
X6977229Y-14252460D02*
X6986753Y-14242936D01*
X6986753Y-14242936D02*
X6986753Y-14261984D01*
X7167705Y-14128650D02*
X7167705Y-14261984D01*
X7120086Y-14052460D02*
X7072467Y-14195317D01*
X7072467Y-14195317D02*
X7196277Y-14195317D01*
X7310562Y-14061984D02*
X7329610Y-14061984D01*
X7329610Y-14061984D02*
X7348658Y-14071508D01*
X7348658Y-14071508D02*
X7358182Y-14081031D01*
X7358182Y-14081031D02*
X7367705Y-14100079D01*
X7367705Y-14100079D02*
X7377229Y-14138174D01*
X7377229Y-14138174D02*
X7377229Y-14185793D01*
X7377229Y-14185793D02*
X7367705Y-14223888D01*
X7367705Y-14223888D02*
X7358182Y-14242936D01*
X7358182Y-14242936D02*
X7348658Y-14252460D01*
X7348658Y-14252460D02*
X7329610Y-14261984D01*
X7329610Y-14261984D02*
X7310562Y-14261984D01*
X7310562Y-14261984D02*
X7291515Y-14252460D01*
X7291515Y-14252460D02*
X7281991Y-14242936D01*
X7281991Y-14242936D02*
X7272467Y-14223888D01*
X7272467Y-14223888D02*
X7262943Y-14185793D01*
X7262943Y-14185793D02*
X7262943Y-14138174D01*
X7262943Y-14138174D02*
X7272467Y-14100079D01*
X7272467Y-14100079D02*
X7281991Y-14081031D01*
X7281991Y-14081031D02*
X7291515Y-14071508D01*
X7291515Y-14071508D02*
X7310562Y-14061984D01*
X7501039Y-14061984D02*
X7520086Y-14061984D01*
X7520086Y-14061984D02*
X7539134Y-14071508D01*
X7539134Y-14071508D02*
X7548658Y-14081031D01*
X7548658Y-14081031D02*
X7558182Y-14100079D01*
X7558182Y-14100079D02*
X7567705Y-14138174D01*
X7567705Y-14138174D02*
X7567705Y-14185793D01*
X7567705Y-14185793D02*
X7558182Y-14223888D01*
X7558182Y-14223888D02*
X7548658Y-14242936D01*
X7548658Y-14242936D02*
X7539134Y-14252460D01*
X7539134Y-14252460D02*
X7520086Y-14261984D01*
X7520086Y-14261984D02*
X7501039Y-14261984D01*
X7501039Y-14261984D02*
X7481991Y-14252460D01*
X7481991Y-14252460D02*
X7472467Y-14242936D01*
X7472467Y-14242936D02*
X7462943Y-14223888D01*
X7462943Y-14223888D02*
X7453420Y-14185793D01*
X7453420Y-14185793D02*
X7453420Y-14138174D01*
X7453420Y-14138174D02*
X7462943Y-14100079D01*
X7462943Y-14100079D02*
X7472467Y-14081031D01*
X7472467Y-14081031D02*
X7481991Y-14071508D01*
X7481991Y-14071508D02*
X7501039Y-14061984D01*
X7653420Y-14261984D02*
X7653420Y-14128650D01*
X7653420Y-14147698D02*
X7662943Y-14138174D01*
X7662943Y-14138174D02*
X7681991Y-14128650D01*
X7681991Y-14128650D02*
X7710563Y-14128650D01*
X7710563Y-14128650D02*
X7729610Y-14138174D01*
X7729610Y-14138174D02*
X7739134Y-14157222D01*
X7739134Y-14157222D02*
X7739134Y-14261984D01*
X7739134Y-14157222D02*
X7748658Y-14138174D01*
X7748658Y-14138174D02*
X7767705Y-14128650D01*
X7767705Y-14128650D02*
X7796277Y-14128650D01*
X7796277Y-14128650D02*
X7815324Y-14138174D01*
X7815324Y-14138174D02*
X7824848Y-14157222D01*
X7824848Y-14157222D02*
X7824848Y-14261984D01*
X7920086Y-14261984D02*
X7920086Y-14128650D01*
X7920086Y-14147698D02*
X7929610Y-14138174D01*
X7929610Y-14138174D02*
X7948658Y-14128650D01*
X7948658Y-14128650D02*
X7977229Y-14128650D01*
X7977229Y-14128650D02*
X7996277Y-14138174D01*
X7996277Y-14138174D02*
X8005801Y-14157222D01*
X8005801Y-14157222D02*
X8005801Y-14261984D01*
X8005801Y-14157222D02*
X8015324Y-14138174D01*
X8015324Y-14138174D02*
X8034372Y-14128650D01*
X8034372Y-14128650D02*
X8062943Y-14128650D01*
X8062943Y-14128650D02*
X8081991Y-14138174D01*
X8081991Y-14138174D02*
X8091515Y-14157222D01*
X8091515Y-14157222D02*
X8091515Y-14261984D01*
X8481991Y-14052460D02*
X8310563Y-14309603D01*
X8739134Y-14061984D02*
X8758182Y-14061984D01*
X8758182Y-14061984D02*
X8777229Y-14071508D01*
X8777229Y-14071508D02*
X8786753Y-14081031D01*
X8786753Y-14081031D02*
X8796277Y-14100079D01*
X8796277Y-14100079D02*
X8805801Y-14138174D01*
X8805801Y-14138174D02*
X8805801Y-14185793D01*
X8805801Y-14185793D02*
X8796277Y-14223888D01*
X8796277Y-14223888D02*
X8786753Y-14242936D01*
X8786753Y-14242936D02*
X8777229Y-14252460D01*
X8777229Y-14252460D02*
X8758182Y-14261984D01*
X8758182Y-14261984D02*
X8739134Y-14261984D01*
X8739134Y-14261984D02*
X8720087Y-14252460D01*
X8720087Y-14252460D02*
X8710563Y-14242936D01*
X8710563Y-14242936D02*
X8701039Y-14223888D01*
X8701039Y-14223888D02*
X8691515Y-14185793D01*
X8691515Y-14185793D02*
X8691515Y-14138174D01*
X8691515Y-14138174D02*
X8701039Y-14100079D01*
X8701039Y-14100079D02*
X8710563Y-14081031D01*
X8710563Y-14081031D02*
X8720087Y-14071508D01*
X8720087Y-14071508D02*
X8739134Y-14061984D01*
X8891515Y-14242936D02*
X8901039Y-14252460D01*
X8901039Y-14252460D02*
X8891515Y-14261984D01*
X8891515Y-14261984D02*
X8881991Y-14252460D01*
X8881991Y-14252460D02*
X8891515Y-14242936D01*
X8891515Y-14242936D02*
X8891515Y-14261984D01*
X9024848Y-14061984D02*
X9043896Y-14061984D01*
X9043896Y-14061984D02*
X9062944Y-14071508D01*
X9062944Y-14071508D02*
X9072468Y-14081031D01*
X9072468Y-14081031D02*
X9081991Y-14100079D01*
X9081991Y-14100079D02*
X9091515Y-14138174D01*
X9091515Y-14138174D02*
X9091515Y-14185793D01*
X9091515Y-14185793D02*
X9081991Y-14223888D01*
X9081991Y-14223888D02*
X9072468Y-14242936D01*
X9072468Y-14242936D02*
X9062944Y-14252460D01*
X9062944Y-14252460D02*
X9043896Y-14261984D01*
X9043896Y-14261984D02*
X9024848Y-14261984D01*
X9024848Y-14261984D02*
X9005801Y-14252460D01*
X9005801Y-14252460D02*
X8996277Y-14242936D01*
X8996277Y-14242936D02*
X8986753Y-14223888D01*
X8986753Y-14223888D02*
X8977229Y-14185793D01*
X8977229Y-14185793D02*
X8977229Y-14138174D01*
X8977229Y-14138174D02*
X8986753Y-14100079D01*
X8986753Y-14100079D02*
X8996277Y-14081031D01*
X8996277Y-14081031D02*
X9005801Y-14071508D01*
X9005801Y-14071508D02*
X9024848Y-14061984D01*
X9281991Y-14261984D02*
X9167706Y-14261984D01*
X9224848Y-14261984D02*
X9224848Y-14061984D01*
X9224848Y-14061984D02*
X9205801Y-14090555D01*
X9205801Y-14090555D02*
X9186753Y-14109603D01*
X9186753Y-14109603D02*
X9167706Y-14119127D01*
X9462944Y-14061984D02*
X9367706Y-14061984D01*
X9367706Y-14061984D02*
X9358182Y-14157222D01*
X9358182Y-14157222D02*
X9367706Y-14147698D01*
X9367706Y-14147698D02*
X9386753Y-14138174D01*
X9386753Y-14138174D02*
X9434372Y-14138174D01*
X9434372Y-14138174D02*
X9453420Y-14147698D01*
X9453420Y-14147698D02*
X9462944Y-14157222D01*
X9462944Y-14157222D02*
X9472468Y-14176269D01*
X9472468Y-14176269D02*
X9472468Y-14223888D01*
X9472468Y-14223888D02*
X9462944Y-14242936D01*
X9462944Y-14242936D02*
X9453420Y-14252460D01*
X9453420Y-14252460D02*
X9434372Y-14261984D01*
X9434372Y-14261984D02*
X9386753Y-14261984D01*
X9386753Y-14261984D02*
X9367706Y-14252460D01*
X9367706Y-14252460D02*
X9358182Y-14242936D01*
X9539134Y-14061984D02*
X9672468Y-14061984D01*
X9672468Y-14061984D02*
X9586753Y-14261984D01*
X9739134Y-14061984D02*
X9739134Y-14100079D01*
X9815325Y-14061984D02*
X9815325Y-14100079D01*
X10110563Y-14338174D02*
X10101039Y-14328650D01*
X10101039Y-14328650D02*
X10081991Y-14300079D01*
X10081991Y-14300079D02*
X10072468Y-14281031D01*
X10072468Y-14281031D02*
X10062944Y-14252460D01*
X10062944Y-14252460D02*
X10053420Y-14204841D01*
X10053420Y-14204841D02*
X10053420Y-14166746D01*
X10053420Y-14166746D02*
X10062944Y-14119127D01*
X10062944Y-14119127D02*
X10072468Y-14090555D01*
X10072468Y-14090555D02*
X10081991Y-14071508D01*
X10081991Y-14071508D02*
X10101039Y-14042936D01*
X10101039Y-14042936D02*
X10110563Y-14033412D01*
X10291515Y-14261984D02*
X10177230Y-14261984D01*
X10234372Y-14261984D02*
X10234372Y-14061984D01*
X10234372Y-14061984D02*
X10215325Y-14090555D01*
X10215325Y-14090555D02*
X10196277Y-14109603D01*
X10196277Y-14109603D02*
X10177230Y-14119127D01*
X10481991Y-14261984D02*
X10367706Y-14261984D01*
X10424849Y-14261984D02*
X10424849Y-14061984D01*
X10424849Y-14061984D02*
X10405801Y-14090555D01*
X10405801Y-14090555D02*
X10386753Y-14109603D01*
X10386753Y-14109603D02*
X10367706Y-14119127D01*
X10605801Y-14061984D02*
X10624849Y-14061984D01*
X10624849Y-14061984D02*
X10643896Y-14071508D01*
X10643896Y-14071508D02*
X10653420Y-14081031D01*
X10653420Y-14081031D02*
X10662944Y-14100079D01*
X10662944Y-14100079D02*
X10672468Y-14138174D01*
X10672468Y-14138174D02*
X10672468Y-14185793D01*
X10672468Y-14185793D02*
X10662944Y-14223888D01*
X10662944Y-14223888D02*
X10653420Y-14242936D01*
X10653420Y-14242936D02*
X10643896Y-14252460D01*
X10643896Y-14252460D02*
X10624849Y-14261984D01*
X10624849Y-14261984D02*
X10605801Y-14261984D01*
X10605801Y-14261984D02*
X10586753Y-14252460D01*
X10586753Y-14252460D02*
X10577230Y-14242936D01*
X10577230Y-14242936D02*
X10567706Y-14223888D01*
X10567706Y-14223888D02*
X10558182Y-14185793D01*
X10558182Y-14185793D02*
X10558182Y-14138174D01*
X10558182Y-14138174D02*
X10567706Y-14100079D01*
X10567706Y-14100079D02*
X10577230Y-14081031D01*
X10577230Y-14081031D02*
X10586753Y-14071508D01*
X10586753Y-14071508D02*
X10605801Y-14061984D01*
X10910563Y-14261984D02*
X10910563Y-14061984D01*
X10996277Y-14261984D02*
X10996277Y-14157222D01*
X10996277Y-14157222D02*
X10986753Y-14138174D01*
X10986753Y-14138174D02*
X10967706Y-14128650D01*
X10967706Y-14128650D02*
X10939134Y-14128650D01*
X10939134Y-14128650D02*
X10920087Y-14138174D01*
X10920087Y-14138174D02*
X10910563Y-14147698D01*
X11120087Y-14261984D02*
X11101039Y-14252460D01*
X11101039Y-14252460D02*
X11091515Y-14242936D01*
X11091515Y-14242936D02*
X11081992Y-14223888D01*
X11081992Y-14223888D02*
X11081992Y-14166746D01*
X11081992Y-14166746D02*
X11091515Y-14147698D01*
X11091515Y-14147698D02*
X11101039Y-14138174D01*
X11101039Y-14138174D02*
X11120087Y-14128650D01*
X11120087Y-14128650D02*
X11148658Y-14128650D01*
X11148658Y-14128650D02*
X11167706Y-14138174D01*
X11167706Y-14138174D02*
X11177230Y-14147698D01*
X11177230Y-14147698D02*
X11186753Y-14166746D01*
X11186753Y-14166746D02*
X11186753Y-14223888D01*
X11186753Y-14223888D02*
X11177230Y-14242936D01*
X11177230Y-14242936D02*
X11167706Y-14252460D01*
X11167706Y-14252460D02*
X11148658Y-14261984D01*
X11148658Y-14261984D02*
X11120087Y-14261984D01*
X11301039Y-14261984D02*
X11281991Y-14252460D01*
X11281991Y-14252460D02*
X11272468Y-14233412D01*
X11272468Y-14233412D02*
X11272468Y-14061984D01*
X11453420Y-14252460D02*
X11434372Y-14261984D01*
X11434372Y-14261984D02*
X11396277Y-14261984D01*
X11396277Y-14261984D02*
X11377230Y-14252460D01*
X11377230Y-14252460D02*
X11367706Y-14233412D01*
X11367706Y-14233412D02*
X11367706Y-14157222D01*
X11367706Y-14157222D02*
X11377230Y-14138174D01*
X11377230Y-14138174D02*
X11396277Y-14128650D01*
X11396277Y-14128650D02*
X11434372Y-14128650D01*
X11434372Y-14128650D02*
X11453420Y-14138174D01*
X11453420Y-14138174D02*
X11462944Y-14157222D01*
X11462944Y-14157222D02*
X11462944Y-14176269D01*
X11462944Y-14176269D02*
X11367706Y-14195317D01*
X11539134Y-14252460D02*
X11558182Y-14261984D01*
X11558182Y-14261984D02*
X11596277Y-14261984D01*
X11596277Y-14261984D02*
X11615325Y-14252460D01*
X11615325Y-14252460D02*
X11624849Y-14233412D01*
X11624849Y-14233412D02*
X11624849Y-14223888D01*
X11624849Y-14223888D02*
X11615325Y-14204841D01*
X11615325Y-14204841D02*
X11596277Y-14195317D01*
X11596277Y-14195317D02*
X11567706Y-14195317D01*
X11567706Y-14195317D02*
X11548658Y-14185793D01*
X11548658Y-14185793D02*
X11539134Y-14166746D01*
X11539134Y-14166746D02*
X11539134Y-14157222D01*
X11539134Y-14157222D02*
X11548658Y-14138174D01*
X11548658Y-14138174D02*
X11567706Y-14128650D01*
X11567706Y-14128650D02*
X11596277Y-14128650D01*
X11596277Y-14128650D02*
X11615325Y-14138174D01*
X11691515Y-14338174D02*
X11701039Y-14328650D01*
X11701039Y-14328650D02*
X11720087Y-14300079D01*
X11720087Y-14300079D02*
X11729611Y-14281031D01*
X11729611Y-14281031D02*
X11739134Y-14252460D01*
X11739134Y-14252460D02*
X11748658Y-14204841D01*
X11748658Y-14204841D02*
X11748658Y-14166746D01*
X11748658Y-14166746D02*
X11739134Y-14119127D01*
X11739134Y-14119127D02*
X11729611Y-14090555D01*
X11729611Y-14090555D02*
X11720087Y-14071508D01*
X11720087Y-14071508D02*
X11701039Y-14042936D01*
X11701039Y-14042936D02*
X11691515Y-14033412D01*
D10*
X6535500Y-14434500D02*
G75*
G03*
X6455500Y-14434500I-40000J0D01*
G01*
X6455500Y-14434500D02*
G75*
G03*
X6535500Y-14434500I40000J0D01*
G01*
D11*
X6834372Y-14325984D02*
X6853420Y-14325984D01*
X6853420Y-14325984D02*
X6872467Y-14335508D01*
X6872467Y-14335508D02*
X6881991Y-14345031D01*
X6881991Y-14345031D02*
X6891515Y-14364079D01*
X6891515Y-14364079D02*
X6901039Y-14402174D01*
X6901039Y-14402174D02*
X6901039Y-14449793D01*
X6901039Y-14449793D02*
X6891515Y-14487888D01*
X6891515Y-14487888D02*
X6881991Y-14506936D01*
X6881991Y-14506936D02*
X6872467Y-14516460D01*
X6872467Y-14516460D02*
X6853420Y-14525984D01*
X6853420Y-14525984D02*
X6834372Y-14525984D01*
X6834372Y-14525984D02*
X6815324Y-14516460D01*
X6815324Y-14516460D02*
X6805801Y-14506936D01*
X6805801Y-14506936D02*
X6796277Y-14487888D01*
X6796277Y-14487888D02*
X6786753Y-14449793D01*
X6786753Y-14449793D02*
X6786753Y-14402174D01*
X6786753Y-14402174D02*
X6796277Y-14364079D01*
X6796277Y-14364079D02*
X6805801Y-14345031D01*
X6805801Y-14345031D02*
X6815324Y-14335508D01*
X6815324Y-14335508D02*
X6834372Y-14325984D01*
X6986753Y-14506936D02*
X6996277Y-14516460D01*
X6996277Y-14516460D02*
X6986753Y-14525984D01*
X6986753Y-14525984D02*
X6977229Y-14516460D01*
X6977229Y-14516460D02*
X6986753Y-14506936D01*
X6986753Y-14506936D02*
X6986753Y-14525984D01*
X7110562Y-14411698D02*
X7091515Y-14402174D01*
X7091515Y-14402174D02*
X7081991Y-14392650D01*
X7081991Y-14392650D02*
X7072467Y-14373603D01*
X7072467Y-14373603D02*
X7072467Y-14364079D01*
X7072467Y-14364079D02*
X7081991Y-14345031D01*
X7081991Y-14345031D02*
X7091515Y-14335508D01*
X7091515Y-14335508D02*
X7110562Y-14325984D01*
X7110562Y-14325984D02*
X7148658Y-14325984D01*
X7148658Y-14325984D02*
X7167705Y-14335508D01*
X7167705Y-14335508D02*
X7177229Y-14345031D01*
X7177229Y-14345031D02*
X7186753Y-14364079D01*
X7186753Y-14364079D02*
X7186753Y-14373603D01*
X7186753Y-14373603D02*
X7177229Y-14392650D01*
X7177229Y-14392650D02*
X7167705Y-14402174D01*
X7167705Y-14402174D02*
X7148658Y-14411698D01*
X7148658Y-14411698D02*
X7110562Y-14411698D01*
X7110562Y-14411698D02*
X7091515Y-14421222D01*
X7091515Y-14421222D02*
X7081991Y-14430746D01*
X7081991Y-14430746D02*
X7072467Y-14449793D01*
X7072467Y-14449793D02*
X7072467Y-14487888D01*
X7072467Y-14487888D02*
X7081991Y-14506936D01*
X7081991Y-14506936D02*
X7091515Y-14516460D01*
X7091515Y-14516460D02*
X7110562Y-14525984D01*
X7110562Y-14525984D02*
X7148658Y-14525984D01*
X7148658Y-14525984D02*
X7167705Y-14516460D01*
X7167705Y-14516460D02*
X7177229Y-14506936D01*
X7177229Y-14506936D02*
X7186753Y-14487888D01*
X7186753Y-14487888D02*
X7186753Y-14449793D01*
X7186753Y-14449793D02*
X7177229Y-14430746D01*
X7177229Y-14430746D02*
X7167705Y-14421222D01*
X7167705Y-14421222D02*
X7148658Y-14411698D01*
X7310562Y-14325984D02*
X7329610Y-14325984D01*
X7329610Y-14325984D02*
X7348658Y-14335508D01*
X7348658Y-14335508D02*
X7358182Y-14345031D01*
X7358182Y-14345031D02*
X7367705Y-14364079D01*
X7367705Y-14364079D02*
X7377229Y-14402174D01*
X7377229Y-14402174D02*
X7377229Y-14449793D01*
X7377229Y-14449793D02*
X7367705Y-14487888D01*
X7367705Y-14487888D02*
X7358182Y-14506936D01*
X7358182Y-14506936D02*
X7348658Y-14516460D01*
X7348658Y-14516460D02*
X7329610Y-14525984D01*
X7329610Y-14525984D02*
X7310562Y-14525984D01*
X7310562Y-14525984D02*
X7291515Y-14516460D01*
X7291515Y-14516460D02*
X7281991Y-14506936D01*
X7281991Y-14506936D02*
X7272467Y-14487888D01*
X7272467Y-14487888D02*
X7262943Y-14449793D01*
X7262943Y-14449793D02*
X7262943Y-14402174D01*
X7262943Y-14402174D02*
X7272467Y-14364079D01*
X7272467Y-14364079D02*
X7281991Y-14345031D01*
X7281991Y-14345031D02*
X7291515Y-14335508D01*
X7291515Y-14335508D02*
X7310562Y-14325984D01*
X7501039Y-14325984D02*
X7520086Y-14325984D01*
X7520086Y-14325984D02*
X7539134Y-14335508D01*
X7539134Y-14335508D02*
X7548658Y-14345031D01*
X7548658Y-14345031D02*
X7558182Y-14364079D01*
X7558182Y-14364079D02*
X7567705Y-14402174D01*
X7567705Y-14402174D02*
X7567705Y-14449793D01*
X7567705Y-14449793D02*
X7558182Y-14487888D01*
X7558182Y-14487888D02*
X7548658Y-14506936D01*
X7548658Y-14506936D02*
X7539134Y-14516460D01*
X7539134Y-14516460D02*
X7520086Y-14525984D01*
X7520086Y-14525984D02*
X7501039Y-14525984D01*
X7501039Y-14525984D02*
X7481991Y-14516460D01*
X7481991Y-14516460D02*
X7472467Y-14506936D01*
X7472467Y-14506936D02*
X7462943Y-14487888D01*
X7462943Y-14487888D02*
X7453420Y-14449793D01*
X7453420Y-14449793D02*
X7453420Y-14402174D01*
X7453420Y-14402174D02*
X7462943Y-14364079D01*
X7462943Y-14364079D02*
X7472467Y-14345031D01*
X7472467Y-14345031D02*
X7481991Y-14335508D01*
X7481991Y-14335508D02*
X7501039Y-14325984D01*
X7653420Y-14525984D02*
X7653420Y-14392650D01*
X7653420Y-14411698D02*
X7662943Y-14402174D01*
X7662943Y-14402174D02*
X7681991Y-14392650D01*
X7681991Y-14392650D02*
X7710563Y-14392650D01*
X7710563Y-14392650D02*
X7729610Y-14402174D01*
X7729610Y-14402174D02*
X7739134Y-14421222D01*
X7739134Y-14421222D02*
X7739134Y-14525984D01*
X7739134Y-14421222D02*
X7748658Y-14402174D01*
X7748658Y-14402174D02*
X7767705Y-14392650D01*
X7767705Y-14392650D02*
X7796277Y-14392650D01*
X7796277Y-14392650D02*
X7815324Y-14402174D01*
X7815324Y-14402174D02*
X7824848Y-14421222D01*
X7824848Y-14421222D02*
X7824848Y-14525984D01*
X7920086Y-14525984D02*
X7920086Y-14392650D01*
X7920086Y-14411698D02*
X7929610Y-14402174D01*
X7929610Y-14402174D02*
X7948658Y-14392650D01*
X7948658Y-14392650D02*
X7977229Y-14392650D01*
X7977229Y-14392650D02*
X7996277Y-14402174D01*
X7996277Y-14402174D02*
X8005801Y-14421222D01*
X8005801Y-14421222D02*
X8005801Y-14525984D01*
X8005801Y-14421222D02*
X8015324Y-14402174D01*
X8015324Y-14402174D02*
X8034372Y-14392650D01*
X8034372Y-14392650D02*
X8062943Y-14392650D01*
X8062943Y-14392650D02*
X8081991Y-14402174D01*
X8081991Y-14402174D02*
X8091515Y-14421222D01*
X8091515Y-14421222D02*
X8091515Y-14525984D01*
X8481991Y-14316460D02*
X8310563Y-14573603D01*
X8739134Y-14325984D02*
X8758182Y-14325984D01*
X8758182Y-14325984D02*
X8777229Y-14335508D01*
X8777229Y-14335508D02*
X8786753Y-14345031D01*
X8786753Y-14345031D02*
X8796277Y-14364079D01*
X8796277Y-14364079D02*
X8805801Y-14402174D01*
X8805801Y-14402174D02*
X8805801Y-14449793D01*
X8805801Y-14449793D02*
X8796277Y-14487888D01*
X8796277Y-14487888D02*
X8786753Y-14506936D01*
X8786753Y-14506936D02*
X8777229Y-14516460D01*
X8777229Y-14516460D02*
X8758182Y-14525984D01*
X8758182Y-14525984D02*
X8739134Y-14525984D01*
X8739134Y-14525984D02*
X8720087Y-14516460D01*
X8720087Y-14516460D02*
X8710563Y-14506936D01*
X8710563Y-14506936D02*
X8701039Y-14487888D01*
X8701039Y-14487888D02*
X8691515Y-14449793D01*
X8691515Y-14449793D02*
X8691515Y-14402174D01*
X8691515Y-14402174D02*
X8701039Y-14364079D01*
X8701039Y-14364079D02*
X8710563Y-14345031D01*
X8710563Y-14345031D02*
X8720087Y-14335508D01*
X8720087Y-14335508D02*
X8739134Y-14325984D01*
X8891515Y-14506936D02*
X8901039Y-14516460D01*
X8901039Y-14516460D02*
X8891515Y-14525984D01*
X8891515Y-14525984D02*
X8881991Y-14516460D01*
X8881991Y-14516460D02*
X8891515Y-14506936D01*
X8891515Y-14506936D02*
X8891515Y-14525984D01*
X9024848Y-14325984D02*
X9043896Y-14325984D01*
X9043896Y-14325984D02*
X9062944Y-14335508D01*
X9062944Y-14335508D02*
X9072468Y-14345031D01*
X9072468Y-14345031D02*
X9081991Y-14364079D01*
X9081991Y-14364079D02*
X9091515Y-14402174D01*
X9091515Y-14402174D02*
X9091515Y-14449793D01*
X9091515Y-14449793D02*
X9081991Y-14487888D01*
X9081991Y-14487888D02*
X9072468Y-14506936D01*
X9072468Y-14506936D02*
X9062944Y-14516460D01*
X9062944Y-14516460D02*
X9043896Y-14525984D01*
X9043896Y-14525984D02*
X9024848Y-14525984D01*
X9024848Y-14525984D02*
X9005801Y-14516460D01*
X9005801Y-14516460D02*
X8996277Y-14506936D01*
X8996277Y-14506936D02*
X8986753Y-14487888D01*
X8986753Y-14487888D02*
X8977229Y-14449793D01*
X8977229Y-14449793D02*
X8977229Y-14402174D01*
X8977229Y-14402174D02*
X8986753Y-14364079D01*
X8986753Y-14364079D02*
X8996277Y-14345031D01*
X8996277Y-14345031D02*
X9005801Y-14335508D01*
X9005801Y-14335508D02*
X9024848Y-14325984D01*
X9158182Y-14325984D02*
X9281991Y-14325984D01*
X9281991Y-14325984D02*
X9215325Y-14402174D01*
X9215325Y-14402174D02*
X9243896Y-14402174D01*
X9243896Y-14402174D02*
X9262944Y-14411698D01*
X9262944Y-14411698D02*
X9272468Y-14421222D01*
X9272468Y-14421222D02*
X9281991Y-14440269D01*
X9281991Y-14440269D02*
X9281991Y-14487888D01*
X9281991Y-14487888D02*
X9272468Y-14506936D01*
X9272468Y-14506936D02*
X9262944Y-14516460D01*
X9262944Y-14516460D02*
X9243896Y-14525984D01*
X9243896Y-14525984D02*
X9186753Y-14525984D01*
X9186753Y-14525984D02*
X9167706Y-14516460D01*
X9167706Y-14516460D02*
X9158182Y-14506936D01*
X9472468Y-14525984D02*
X9358182Y-14525984D01*
X9415325Y-14525984D02*
X9415325Y-14325984D01*
X9415325Y-14325984D02*
X9396277Y-14354555D01*
X9396277Y-14354555D02*
X9377229Y-14373603D01*
X9377229Y-14373603D02*
X9358182Y-14383127D01*
X9653420Y-14325984D02*
X9558182Y-14325984D01*
X9558182Y-14325984D02*
X9548658Y-14421222D01*
X9548658Y-14421222D02*
X9558182Y-14411698D01*
X9558182Y-14411698D02*
X9577229Y-14402174D01*
X9577229Y-14402174D02*
X9624849Y-14402174D01*
X9624849Y-14402174D02*
X9643896Y-14411698D01*
X9643896Y-14411698D02*
X9653420Y-14421222D01*
X9653420Y-14421222D02*
X9662944Y-14440269D01*
X9662944Y-14440269D02*
X9662944Y-14487888D01*
X9662944Y-14487888D02*
X9653420Y-14506936D01*
X9653420Y-14506936D02*
X9643896Y-14516460D01*
X9643896Y-14516460D02*
X9624849Y-14525984D01*
X9624849Y-14525984D02*
X9577229Y-14525984D01*
X9577229Y-14525984D02*
X9558182Y-14516460D01*
X9558182Y-14516460D02*
X9548658Y-14506936D01*
X9739134Y-14325984D02*
X9739134Y-14364079D01*
X9815325Y-14325984D02*
X9815325Y-14364079D01*
X10110563Y-14602174D02*
X10101039Y-14592650D01*
X10101039Y-14592650D02*
X10081991Y-14564079D01*
X10081991Y-14564079D02*
X10072468Y-14545031D01*
X10072468Y-14545031D02*
X10062944Y-14516460D01*
X10062944Y-14516460D02*
X10053420Y-14468841D01*
X10053420Y-14468841D02*
X10053420Y-14430746D01*
X10053420Y-14430746D02*
X10062944Y-14383127D01*
X10062944Y-14383127D02*
X10072468Y-14354555D01*
X10072468Y-14354555D02*
X10081991Y-14335508D01*
X10081991Y-14335508D02*
X10101039Y-14306936D01*
X10101039Y-14306936D02*
X10110563Y-14297412D01*
X10167706Y-14325984D02*
X10301039Y-14325984D01*
X10301039Y-14325984D02*
X10215325Y-14525984D01*
X10529611Y-14525984D02*
X10529611Y-14325984D01*
X10615325Y-14525984D02*
X10615325Y-14421222D01*
X10615325Y-14421222D02*
X10605801Y-14402174D01*
X10605801Y-14402174D02*
X10586753Y-14392650D01*
X10586753Y-14392650D02*
X10558182Y-14392650D01*
X10558182Y-14392650D02*
X10539134Y-14402174D01*
X10539134Y-14402174D02*
X10529611Y-14411698D01*
X10739134Y-14525984D02*
X10720087Y-14516460D01*
X10720087Y-14516460D02*
X10710563Y-14506936D01*
X10710563Y-14506936D02*
X10701039Y-14487888D01*
X10701039Y-14487888D02*
X10701039Y-14430746D01*
X10701039Y-14430746D02*
X10710563Y-14411698D01*
X10710563Y-14411698D02*
X10720087Y-14402174D01*
X10720087Y-14402174D02*
X10739134Y-14392650D01*
X10739134Y-14392650D02*
X10767706Y-14392650D01*
X10767706Y-14392650D02*
X10786753Y-14402174D01*
X10786753Y-14402174D02*
X10796277Y-14411698D01*
X10796277Y-14411698D02*
X10805801Y-14430746D01*
X10805801Y-14430746D02*
X10805801Y-14487888D01*
X10805801Y-14487888D02*
X10796277Y-14506936D01*
X10796277Y-14506936D02*
X10786753Y-14516460D01*
X10786753Y-14516460D02*
X10767706Y-14525984D01*
X10767706Y-14525984D02*
X10739134Y-14525984D01*
X10920087Y-14525984D02*
X10901039Y-14516460D01*
X10901039Y-14516460D02*
X10891515Y-14497412D01*
X10891515Y-14497412D02*
X10891515Y-14325984D01*
X11072468Y-14516460D02*
X11053420Y-14525984D01*
X11053420Y-14525984D02*
X11015325Y-14525984D01*
X11015325Y-14525984D02*
X10996277Y-14516460D01*
X10996277Y-14516460D02*
X10986753Y-14497412D01*
X10986753Y-14497412D02*
X10986753Y-14421222D01*
X10986753Y-14421222D02*
X10996277Y-14402174D01*
X10996277Y-14402174D02*
X11015325Y-14392650D01*
X11015325Y-14392650D02*
X11053420Y-14392650D01*
X11053420Y-14392650D02*
X11072468Y-14402174D01*
X11072468Y-14402174D02*
X11081992Y-14421222D01*
X11081992Y-14421222D02*
X11081992Y-14440269D01*
X11081992Y-14440269D02*
X10986753Y-14459317D01*
X11158182Y-14516460D02*
X11177230Y-14525984D01*
X11177230Y-14525984D02*
X11215325Y-14525984D01*
X11215325Y-14525984D02*
X11234372Y-14516460D01*
X11234372Y-14516460D02*
X11243896Y-14497412D01*
X11243896Y-14497412D02*
X11243896Y-14487888D01*
X11243896Y-14487888D02*
X11234372Y-14468841D01*
X11234372Y-14468841D02*
X11215325Y-14459317D01*
X11215325Y-14459317D02*
X11186753Y-14459317D01*
X11186753Y-14459317D02*
X11167706Y-14449793D01*
X11167706Y-14449793D02*
X11158182Y-14430746D01*
X11158182Y-14430746D02*
X11158182Y-14421222D01*
X11158182Y-14421222D02*
X11167706Y-14402174D01*
X11167706Y-14402174D02*
X11186753Y-14392650D01*
X11186753Y-14392650D02*
X11215325Y-14392650D01*
X11215325Y-14392650D02*
X11234372Y-14402174D01*
X11310563Y-14602174D02*
X11320087Y-14592650D01*
X11320087Y-14592650D02*
X11339134Y-14564079D01*
X11339134Y-14564079D02*
X11348658Y-14545031D01*
X11348658Y-14545031D02*
X11358182Y-14516460D01*
X11358182Y-14516460D02*
X11367706Y-14468841D01*
X11367706Y-14468841D02*
X11367706Y-14430746D01*
X11367706Y-14430746D02*
X11358182Y-14383127D01*
X11358182Y-14383127D02*
X11348658Y-14354555D01*
X11348658Y-14354555D02*
X11339134Y-14335508D01*
X11339134Y-14335508D02*
X11320087Y-14306936D01*
X11320087Y-14306936D02*
X11310563Y-14297412D01*
D10*
X6485500Y-14648500D02*
X6485500Y-14748500D01*
X6435500Y-14698500D02*
X6535500Y-14698500D01*
D11*
X6901039Y-14789984D02*
X6786753Y-14789984D01*
X6843896Y-14789984D02*
X6843896Y-14589984D01*
X6843896Y-14589984D02*
X6824848Y-14618555D01*
X6824848Y-14618555D02*
X6805801Y-14637603D01*
X6805801Y-14637603D02*
X6786753Y-14647127D01*
X6986753Y-14770936D02*
X6996277Y-14780460D01*
X6996277Y-14780460D02*
X6986753Y-14789984D01*
X6986753Y-14789984D02*
X6977229Y-14780460D01*
X6977229Y-14780460D02*
X6986753Y-14770936D01*
X6986753Y-14770936D02*
X6986753Y-14789984D01*
X7120086Y-14589984D02*
X7139134Y-14589984D01*
X7139134Y-14589984D02*
X7158182Y-14599508D01*
X7158182Y-14599508D02*
X7167705Y-14609031D01*
X7167705Y-14609031D02*
X7177229Y-14628079D01*
X7177229Y-14628079D02*
X7186753Y-14666174D01*
X7186753Y-14666174D02*
X7186753Y-14713793D01*
X7186753Y-14713793D02*
X7177229Y-14751888D01*
X7177229Y-14751888D02*
X7167705Y-14770936D01*
X7167705Y-14770936D02*
X7158182Y-14780460D01*
X7158182Y-14780460D02*
X7139134Y-14789984D01*
X7139134Y-14789984D02*
X7120086Y-14789984D01*
X7120086Y-14789984D02*
X7101039Y-14780460D01*
X7101039Y-14780460D02*
X7091515Y-14770936D01*
X7091515Y-14770936D02*
X7081991Y-14751888D01*
X7081991Y-14751888D02*
X7072467Y-14713793D01*
X7072467Y-14713793D02*
X7072467Y-14666174D01*
X7072467Y-14666174D02*
X7081991Y-14628079D01*
X7081991Y-14628079D02*
X7091515Y-14609031D01*
X7091515Y-14609031D02*
X7101039Y-14599508D01*
X7101039Y-14599508D02*
X7120086Y-14589984D01*
X7310562Y-14589984D02*
X7329610Y-14589984D01*
X7329610Y-14589984D02*
X7348658Y-14599508D01*
X7348658Y-14599508D02*
X7358182Y-14609031D01*
X7358182Y-14609031D02*
X7367705Y-14628079D01*
X7367705Y-14628079D02*
X7377229Y-14666174D01*
X7377229Y-14666174D02*
X7377229Y-14713793D01*
X7377229Y-14713793D02*
X7367705Y-14751888D01*
X7367705Y-14751888D02*
X7358182Y-14770936D01*
X7358182Y-14770936D02*
X7348658Y-14780460D01*
X7348658Y-14780460D02*
X7329610Y-14789984D01*
X7329610Y-14789984D02*
X7310562Y-14789984D01*
X7310562Y-14789984D02*
X7291515Y-14780460D01*
X7291515Y-14780460D02*
X7281991Y-14770936D01*
X7281991Y-14770936D02*
X7272467Y-14751888D01*
X7272467Y-14751888D02*
X7262943Y-14713793D01*
X7262943Y-14713793D02*
X7262943Y-14666174D01*
X7262943Y-14666174D02*
X7272467Y-14628079D01*
X7272467Y-14628079D02*
X7281991Y-14609031D01*
X7281991Y-14609031D02*
X7291515Y-14599508D01*
X7291515Y-14599508D02*
X7310562Y-14589984D01*
X7501039Y-14589984D02*
X7520086Y-14589984D01*
X7520086Y-14589984D02*
X7539134Y-14599508D01*
X7539134Y-14599508D02*
X7548658Y-14609031D01*
X7548658Y-14609031D02*
X7558182Y-14628079D01*
X7558182Y-14628079D02*
X7567705Y-14666174D01*
X7567705Y-14666174D02*
X7567705Y-14713793D01*
X7567705Y-14713793D02*
X7558182Y-14751888D01*
X7558182Y-14751888D02*
X7548658Y-14770936D01*
X7548658Y-14770936D02*
X7539134Y-14780460D01*
X7539134Y-14780460D02*
X7520086Y-14789984D01*
X7520086Y-14789984D02*
X7501039Y-14789984D01*
X7501039Y-14789984D02*
X7481991Y-14780460D01*
X7481991Y-14780460D02*
X7472467Y-14770936D01*
X7472467Y-14770936D02*
X7462943Y-14751888D01*
X7462943Y-14751888D02*
X7453420Y-14713793D01*
X7453420Y-14713793D02*
X7453420Y-14666174D01*
X7453420Y-14666174D02*
X7462943Y-14628079D01*
X7462943Y-14628079D02*
X7472467Y-14609031D01*
X7472467Y-14609031D02*
X7481991Y-14599508D01*
X7481991Y-14599508D02*
X7501039Y-14589984D01*
X7653420Y-14789984D02*
X7653420Y-14656650D01*
X7653420Y-14675698D02*
X7662943Y-14666174D01*
X7662943Y-14666174D02*
X7681991Y-14656650D01*
X7681991Y-14656650D02*
X7710563Y-14656650D01*
X7710563Y-14656650D02*
X7729610Y-14666174D01*
X7729610Y-14666174D02*
X7739134Y-14685222D01*
X7739134Y-14685222D02*
X7739134Y-14789984D01*
X7739134Y-14685222D02*
X7748658Y-14666174D01*
X7748658Y-14666174D02*
X7767705Y-14656650D01*
X7767705Y-14656650D02*
X7796277Y-14656650D01*
X7796277Y-14656650D02*
X7815324Y-14666174D01*
X7815324Y-14666174D02*
X7824848Y-14685222D01*
X7824848Y-14685222D02*
X7824848Y-14789984D01*
X7920086Y-14789984D02*
X7920086Y-14656650D01*
X7920086Y-14675698D02*
X7929610Y-14666174D01*
X7929610Y-14666174D02*
X7948658Y-14656650D01*
X7948658Y-14656650D02*
X7977229Y-14656650D01*
X7977229Y-14656650D02*
X7996277Y-14666174D01*
X7996277Y-14666174D02*
X8005801Y-14685222D01*
X8005801Y-14685222D02*
X8005801Y-14789984D01*
X8005801Y-14685222D02*
X8015324Y-14666174D01*
X8015324Y-14666174D02*
X8034372Y-14656650D01*
X8034372Y-14656650D02*
X8062943Y-14656650D01*
X8062943Y-14656650D02*
X8081991Y-14666174D01*
X8081991Y-14666174D02*
X8091515Y-14685222D01*
X8091515Y-14685222D02*
X8091515Y-14789984D01*
X8481991Y-14580460D02*
X8310563Y-14837603D01*
X8739134Y-14589984D02*
X8758182Y-14589984D01*
X8758182Y-14589984D02*
X8777229Y-14599508D01*
X8777229Y-14599508D02*
X8786753Y-14609031D01*
X8786753Y-14609031D02*
X8796277Y-14628079D01*
X8796277Y-14628079D02*
X8805801Y-14666174D01*
X8805801Y-14666174D02*
X8805801Y-14713793D01*
X8805801Y-14713793D02*
X8796277Y-14751888D01*
X8796277Y-14751888D02*
X8786753Y-14770936D01*
X8786753Y-14770936D02*
X8777229Y-14780460D01*
X8777229Y-14780460D02*
X8758182Y-14789984D01*
X8758182Y-14789984D02*
X8739134Y-14789984D01*
X8739134Y-14789984D02*
X8720087Y-14780460D01*
X8720087Y-14780460D02*
X8710563Y-14770936D01*
X8710563Y-14770936D02*
X8701039Y-14751888D01*
X8701039Y-14751888D02*
X8691515Y-14713793D01*
X8691515Y-14713793D02*
X8691515Y-14666174D01*
X8691515Y-14666174D02*
X8701039Y-14628079D01*
X8701039Y-14628079D02*
X8710563Y-14609031D01*
X8710563Y-14609031D02*
X8720087Y-14599508D01*
X8720087Y-14599508D02*
X8739134Y-14589984D01*
X8891515Y-14770936D02*
X8901039Y-14780460D01*
X8901039Y-14780460D02*
X8891515Y-14789984D01*
X8891515Y-14789984D02*
X8881991Y-14780460D01*
X8881991Y-14780460D02*
X8891515Y-14770936D01*
X8891515Y-14770936D02*
X8891515Y-14789984D01*
X9024848Y-14589984D02*
X9043896Y-14589984D01*
X9043896Y-14589984D02*
X9062944Y-14599508D01*
X9062944Y-14599508D02*
X9072468Y-14609031D01*
X9072468Y-14609031D02*
X9081991Y-14628079D01*
X9081991Y-14628079D02*
X9091515Y-14666174D01*
X9091515Y-14666174D02*
X9091515Y-14713793D01*
X9091515Y-14713793D02*
X9081991Y-14751888D01*
X9081991Y-14751888D02*
X9072468Y-14770936D01*
X9072468Y-14770936D02*
X9062944Y-14780460D01*
X9062944Y-14780460D02*
X9043896Y-14789984D01*
X9043896Y-14789984D02*
X9024848Y-14789984D01*
X9024848Y-14789984D02*
X9005801Y-14780460D01*
X9005801Y-14780460D02*
X8996277Y-14770936D01*
X8996277Y-14770936D02*
X8986753Y-14751888D01*
X8986753Y-14751888D02*
X8977229Y-14713793D01*
X8977229Y-14713793D02*
X8977229Y-14666174D01*
X8977229Y-14666174D02*
X8986753Y-14628079D01*
X8986753Y-14628079D02*
X8996277Y-14609031D01*
X8996277Y-14609031D02*
X9005801Y-14599508D01*
X9005801Y-14599508D02*
X9024848Y-14589984D01*
X9158182Y-14589984D02*
X9281991Y-14589984D01*
X9281991Y-14589984D02*
X9215325Y-14666174D01*
X9215325Y-14666174D02*
X9243896Y-14666174D01*
X9243896Y-14666174D02*
X9262944Y-14675698D01*
X9262944Y-14675698D02*
X9272468Y-14685222D01*
X9272468Y-14685222D02*
X9281991Y-14704269D01*
X9281991Y-14704269D02*
X9281991Y-14751888D01*
X9281991Y-14751888D02*
X9272468Y-14770936D01*
X9272468Y-14770936D02*
X9262944Y-14780460D01*
X9262944Y-14780460D02*
X9243896Y-14789984D01*
X9243896Y-14789984D02*
X9186753Y-14789984D01*
X9186753Y-14789984D02*
X9167706Y-14780460D01*
X9167706Y-14780460D02*
X9158182Y-14770936D01*
X9377229Y-14789984D02*
X9415325Y-14789984D01*
X9415325Y-14789984D02*
X9434372Y-14780460D01*
X9434372Y-14780460D02*
X9443896Y-14770936D01*
X9443896Y-14770936D02*
X9462944Y-14742365D01*
X9462944Y-14742365D02*
X9472468Y-14704269D01*
X9472468Y-14704269D02*
X9472468Y-14628079D01*
X9472468Y-14628079D02*
X9462944Y-14609031D01*
X9462944Y-14609031D02*
X9453420Y-14599508D01*
X9453420Y-14599508D02*
X9434372Y-14589984D01*
X9434372Y-14589984D02*
X9396277Y-14589984D01*
X9396277Y-14589984D02*
X9377229Y-14599508D01*
X9377229Y-14599508D02*
X9367706Y-14609031D01*
X9367706Y-14609031D02*
X9358182Y-14628079D01*
X9358182Y-14628079D02*
X9358182Y-14675698D01*
X9358182Y-14675698D02*
X9367706Y-14694746D01*
X9367706Y-14694746D02*
X9377229Y-14704269D01*
X9377229Y-14704269D02*
X9396277Y-14713793D01*
X9396277Y-14713793D02*
X9434372Y-14713793D01*
X9434372Y-14713793D02*
X9453420Y-14704269D01*
X9453420Y-14704269D02*
X9462944Y-14694746D01*
X9462944Y-14694746D02*
X9472468Y-14675698D01*
X9643896Y-14656650D02*
X9643896Y-14789984D01*
X9596277Y-14580460D02*
X9548658Y-14723317D01*
X9548658Y-14723317D02*
X9672468Y-14723317D01*
X9739134Y-14589984D02*
X9739134Y-14628079D01*
X9815325Y-14589984D02*
X9815325Y-14628079D01*
X10110563Y-14866174D02*
X10101039Y-14856650D01*
X10101039Y-14856650D02*
X10081991Y-14828079D01*
X10081991Y-14828079D02*
X10072468Y-14809031D01*
X10072468Y-14809031D02*
X10062944Y-14780460D01*
X10062944Y-14780460D02*
X10053420Y-14732841D01*
X10053420Y-14732841D02*
X10053420Y-14694746D01*
X10053420Y-14694746D02*
X10062944Y-14647127D01*
X10062944Y-14647127D02*
X10072468Y-14618555D01*
X10072468Y-14618555D02*
X10081991Y-14599508D01*
X10081991Y-14599508D02*
X10101039Y-14570936D01*
X10101039Y-14570936D02*
X10110563Y-14561412D01*
X10291515Y-14789984D02*
X10177230Y-14789984D01*
X10234372Y-14789984D02*
X10234372Y-14589984D01*
X10234372Y-14589984D02*
X10215325Y-14618555D01*
X10215325Y-14618555D02*
X10196277Y-14637603D01*
X10196277Y-14637603D02*
X10177230Y-14647127D01*
X10462944Y-14589984D02*
X10424849Y-14589984D01*
X10424849Y-14589984D02*
X10405801Y-14599508D01*
X10405801Y-14599508D02*
X10396277Y-14609031D01*
X10396277Y-14609031D02*
X10377230Y-14637603D01*
X10377230Y-14637603D02*
X10367706Y-14675698D01*
X10367706Y-14675698D02*
X10367706Y-14751888D01*
X10367706Y-14751888D02*
X10377230Y-14770936D01*
X10377230Y-14770936D02*
X10386753Y-14780460D01*
X10386753Y-14780460D02*
X10405801Y-14789984D01*
X10405801Y-14789984D02*
X10443896Y-14789984D01*
X10443896Y-14789984D02*
X10462944Y-14780460D01*
X10462944Y-14780460D02*
X10472468Y-14770936D01*
X10472468Y-14770936D02*
X10481991Y-14751888D01*
X10481991Y-14751888D02*
X10481991Y-14704269D01*
X10481991Y-14704269D02*
X10472468Y-14685222D01*
X10472468Y-14685222D02*
X10462944Y-14675698D01*
X10462944Y-14675698D02*
X10443896Y-14666174D01*
X10443896Y-14666174D02*
X10405801Y-14666174D01*
X10405801Y-14666174D02*
X10386753Y-14675698D01*
X10386753Y-14675698D02*
X10377230Y-14685222D01*
X10377230Y-14685222D02*
X10367706Y-14704269D01*
X10720087Y-14789984D02*
X10720087Y-14589984D01*
X10805801Y-14789984D02*
X10805801Y-14685222D01*
X10805801Y-14685222D02*
X10796277Y-14666174D01*
X10796277Y-14666174D02*
X10777230Y-14656650D01*
X10777230Y-14656650D02*
X10748658Y-14656650D01*
X10748658Y-14656650D02*
X10729611Y-14666174D01*
X10729611Y-14666174D02*
X10720087Y-14675698D01*
X10929611Y-14789984D02*
X10910563Y-14780460D01*
X10910563Y-14780460D02*
X10901039Y-14770936D01*
X10901039Y-14770936D02*
X10891515Y-14751888D01*
X10891515Y-14751888D02*
X10891515Y-14694746D01*
X10891515Y-14694746D02*
X10901039Y-14675698D01*
X10901039Y-14675698D02*
X10910563Y-14666174D01*
X10910563Y-14666174D02*
X10929611Y-14656650D01*
X10929611Y-14656650D02*
X10958182Y-14656650D01*
X10958182Y-14656650D02*
X10977230Y-14666174D01*
X10977230Y-14666174D02*
X10986753Y-14675698D01*
X10986753Y-14675698D02*
X10996277Y-14694746D01*
X10996277Y-14694746D02*
X10996277Y-14751888D01*
X10996277Y-14751888D02*
X10986753Y-14770936D01*
X10986753Y-14770936D02*
X10977230Y-14780460D01*
X10977230Y-14780460D02*
X10958182Y-14789984D01*
X10958182Y-14789984D02*
X10929611Y-14789984D01*
X11110563Y-14789984D02*
X11091515Y-14780460D01*
X11091515Y-14780460D02*
X11081992Y-14761412D01*
X11081992Y-14761412D02*
X11081992Y-14589984D01*
X11262944Y-14780460D02*
X11243896Y-14789984D01*
X11243896Y-14789984D02*
X11205801Y-14789984D01*
X11205801Y-14789984D02*
X11186753Y-14780460D01*
X11186753Y-14780460D02*
X11177230Y-14761412D01*
X11177230Y-14761412D02*
X11177230Y-14685222D01*
X11177230Y-14685222D02*
X11186753Y-14666174D01*
X11186753Y-14666174D02*
X11205801Y-14656650D01*
X11205801Y-14656650D02*
X11243896Y-14656650D01*
X11243896Y-14656650D02*
X11262944Y-14666174D01*
X11262944Y-14666174D02*
X11272468Y-14685222D01*
X11272468Y-14685222D02*
X11272468Y-14704269D01*
X11272468Y-14704269D02*
X11177230Y-14723317D01*
X11348658Y-14780460D02*
X11367706Y-14789984D01*
X11367706Y-14789984D02*
X11405801Y-14789984D01*
X11405801Y-14789984D02*
X11424849Y-14780460D01*
X11424849Y-14780460D02*
X11434372Y-14761412D01*
X11434372Y-14761412D02*
X11434372Y-14751888D01*
X11434372Y-14751888D02*
X11424849Y-14732841D01*
X11424849Y-14732841D02*
X11405801Y-14723317D01*
X11405801Y-14723317D02*
X11377230Y-14723317D01*
X11377230Y-14723317D02*
X11358182Y-14713793D01*
X11358182Y-14713793D02*
X11348658Y-14694746D01*
X11348658Y-14694746D02*
X11348658Y-14685222D01*
X11348658Y-14685222D02*
X11358182Y-14666174D01*
X11358182Y-14666174D02*
X11377230Y-14656650D01*
X11377230Y-14656650D02*
X11405801Y-14656650D01*
X11405801Y-14656650D02*
X11424849Y-14666174D01*
X11501039Y-14866174D02*
X11510563Y-14856650D01*
X11510563Y-14856650D02*
X11529611Y-14828079D01*
X11529611Y-14828079D02*
X11539134Y-14809031D01*
X11539134Y-14809031D02*
X11548658Y-14780460D01*
X11548658Y-14780460D02*
X11558182Y-14732841D01*
X11558182Y-14732841D02*
X11558182Y-14694746D01*
X11558182Y-14694746D02*
X11548658Y-14647127D01*
X11548658Y-14647127D02*
X11539134Y-14618555D01*
X11539134Y-14618555D02*
X11529611Y-14599508D01*
X11529611Y-14599508D02*
X11510563Y-14570936D01*
X11510563Y-14570936D02*
X11501039Y-14561412D01*
D12*
X6517927Y-15004927D02*
X6517927Y-14920073D01*
X6433073Y-14920073D01*
X6433073Y-15004927D01*
X6517927Y-15004927D01*
D11*
X6901039Y-15053984D02*
X6786753Y-15053984D01*
X6843896Y-15053984D02*
X6843896Y-14853984D01*
X6843896Y-14853984D02*
X6824848Y-14882555D01*
X6824848Y-14882555D02*
X6805801Y-14901603D01*
X6805801Y-14901603D02*
X6786753Y-14911127D01*
X6986753Y-15034936D02*
X6996277Y-15044460D01*
X6996277Y-15044460D02*
X6986753Y-15053984D01*
X6986753Y-15053984D02*
X6977229Y-15044460D01*
X6977229Y-15044460D02*
X6986753Y-15034936D01*
X6986753Y-15034936D02*
X6986753Y-15053984D01*
X7072467Y-14873031D02*
X7081991Y-14863508D01*
X7081991Y-14863508D02*
X7101039Y-14853984D01*
X7101039Y-14853984D02*
X7148658Y-14853984D01*
X7148658Y-14853984D02*
X7167705Y-14863508D01*
X7167705Y-14863508D02*
X7177229Y-14873031D01*
X7177229Y-14873031D02*
X7186753Y-14892079D01*
X7186753Y-14892079D02*
X7186753Y-14911127D01*
X7186753Y-14911127D02*
X7177229Y-14939698D01*
X7177229Y-14939698D02*
X7062943Y-15053984D01*
X7062943Y-15053984D02*
X7186753Y-15053984D01*
X7310562Y-14853984D02*
X7329610Y-14853984D01*
X7329610Y-14853984D02*
X7348658Y-14863508D01*
X7348658Y-14863508D02*
X7358182Y-14873031D01*
X7358182Y-14873031D02*
X7367705Y-14892079D01*
X7367705Y-14892079D02*
X7377229Y-14930174D01*
X7377229Y-14930174D02*
X7377229Y-14977793D01*
X7377229Y-14977793D02*
X7367705Y-15015888D01*
X7367705Y-15015888D02*
X7358182Y-15034936D01*
X7358182Y-15034936D02*
X7348658Y-15044460D01*
X7348658Y-15044460D02*
X7329610Y-15053984D01*
X7329610Y-15053984D02*
X7310562Y-15053984D01*
X7310562Y-15053984D02*
X7291515Y-15044460D01*
X7291515Y-15044460D02*
X7281991Y-15034936D01*
X7281991Y-15034936D02*
X7272467Y-15015888D01*
X7272467Y-15015888D02*
X7262943Y-14977793D01*
X7262943Y-14977793D02*
X7262943Y-14930174D01*
X7262943Y-14930174D02*
X7272467Y-14892079D01*
X7272467Y-14892079D02*
X7281991Y-14873031D01*
X7281991Y-14873031D02*
X7291515Y-14863508D01*
X7291515Y-14863508D02*
X7310562Y-14853984D01*
X7501039Y-14853984D02*
X7520086Y-14853984D01*
X7520086Y-14853984D02*
X7539134Y-14863508D01*
X7539134Y-14863508D02*
X7548658Y-14873031D01*
X7548658Y-14873031D02*
X7558182Y-14892079D01*
X7558182Y-14892079D02*
X7567705Y-14930174D01*
X7567705Y-14930174D02*
X7567705Y-14977793D01*
X7567705Y-14977793D02*
X7558182Y-15015888D01*
X7558182Y-15015888D02*
X7548658Y-15034936D01*
X7548658Y-15034936D02*
X7539134Y-15044460D01*
X7539134Y-15044460D02*
X7520086Y-15053984D01*
X7520086Y-15053984D02*
X7501039Y-15053984D01*
X7501039Y-15053984D02*
X7481991Y-15044460D01*
X7481991Y-15044460D02*
X7472467Y-15034936D01*
X7472467Y-15034936D02*
X7462943Y-15015888D01*
X7462943Y-15015888D02*
X7453420Y-14977793D01*
X7453420Y-14977793D02*
X7453420Y-14930174D01*
X7453420Y-14930174D02*
X7462943Y-14892079D01*
X7462943Y-14892079D02*
X7472467Y-14873031D01*
X7472467Y-14873031D02*
X7481991Y-14863508D01*
X7481991Y-14863508D02*
X7501039Y-14853984D01*
X7653420Y-15053984D02*
X7653420Y-14920650D01*
X7653420Y-14939698D02*
X7662943Y-14930174D01*
X7662943Y-14930174D02*
X7681991Y-14920650D01*
X7681991Y-14920650D02*
X7710563Y-14920650D01*
X7710563Y-14920650D02*
X7729610Y-14930174D01*
X7729610Y-14930174D02*
X7739134Y-14949222D01*
X7739134Y-14949222D02*
X7739134Y-15053984D01*
X7739134Y-14949222D02*
X7748658Y-14930174D01*
X7748658Y-14930174D02*
X7767705Y-14920650D01*
X7767705Y-14920650D02*
X7796277Y-14920650D01*
X7796277Y-14920650D02*
X7815324Y-14930174D01*
X7815324Y-14930174D02*
X7824848Y-14949222D01*
X7824848Y-14949222D02*
X7824848Y-15053984D01*
X7920086Y-15053984D02*
X7920086Y-14920650D01*
X7920086Y-14939698D02*
X7929610Y-14930174D01*
X7929610Y-14930174D02*
X7948658Y-14920650D01*
X7948658Y-14920650D02*
X7977229Y-14920650D01*
X7977229Y-14920650D02*
X7996277Y-14930174D01*
X7996277Y-14930174D02*
X8005801Y-14949222D01*
X8005801Y-14949222D02*
X8005801Y-15053984D01*
X8005801Y-14949222D02*
X8015324Y-14930174D01*
X8015324Y-14930174D02*
X8034372Y-14920650D01*
X8034372Y-14920650D02*
X8062943Y-14920650D01*
X8062943Y-14920650D02*
X8081991Y-14930174D01*
X8081991Y-14930174D02*
X8091515Y-14949222D01*
X8091515Y-14949222D02*
X8091515Y-15053984D01*
X8481991Y-14844460D02*
X8310563Y-15101603D01*
X8739134Y-14853984D02*
X8758182Y-14853984D01*
X8758182Y-14853984D02*
X8777229Y-14863508D01*
X8777229Y-14863508D02*
X8786753Y-14873031D01*
X8786753Y-14873031D02*
X8796277Y-14892079D01*
X8796277Y-14892079D02*
X8805801Y-14930174D01*
X8805801Y-14930174D02*
X8805801Y-14977793D01*
X8805801Y-14977793D02*
X8796277Y-15015888D01*
X8796277Y-15015888D02*
X8786753Y-15034936D01*
X8786753Y-15034936D02*
X8777229Y-15044460D01*
X8777229Y-15044460D02*
X8758182Y-15053984D01*
X8758182Y-15053984D02*
X8739134Y-15053984D01*
X8739134Y-15053984D02*
X8720087Y-15044460D01*
X8720087Y-15044460D02*
X8710563Y-15034936D01*
X8710563Y-15034936D02*
X8701039Y-15015888D01*
X8701039Y-15015888D02*
X8691515Y-14977793D01*
X8691515Y-14977793D02*
X8691515Y-14930174D01*
X8691515Y-14930174D02*
X8701039Y-14892079D01*
X8701039Y-14892079D02*
X8710563Y-14873031D01*
X8710563Y-14873031D02*
X8720087Y-14863508D01*
X8720087Y-14863508D02*
X8739134Y-14853984D01*
X8891515Y-15034936D02*
X8901039Y-15044460D01*
X8901039Y-15044460D02*
X8891515Y-15053984D01*
X8891515Y-15053984D02*
X8881991Y-15044460D01*
X8881991Y-15044460D02*
X8891515Y-15034936D01*
X8891515Y-15034936D02*
X8891515Y-15053984D01*
X9024848Y-14853984D02*
X9043896Y-14853984D01*
X9043896Y-14853984D02*
X9062944Y-14863508D01*
X9062944Y-14863508D02*
X9072468Y-14873031D01*
X9072468Y-14873031D02*
X9081991Y-14892079D01*
X9081991Y-14892079D02*
X9091515Y-14930174D01*
X9091515Y-14930174D02*
X9091515Y-14977793D01*
X9091515Y-14977793D02*
X9081991Y-15015888D01*
X9081991Y-15015888D02*
X9072468Y-15034936D01*
X9072468Y-15034936D02*
X9062944Y-15044460D01*
X9062944Y-15044460D02*
X9043896Y-15053984D01*
X9043896Y-15053984D02*
X9024848Y-15053984D01*
X9024848Y-15053984D02*
X9005801Y-15044460D01*
X9005801Y-15044460D02*
X8996277Y-15034936D01*
X8996277Y-15034936D02*
X8986753Y-15015888D01*
X8986753Y-15015888D02*
X8977229Y-14977793D01*
X8977229Y-14977793D02*
X8977229Y-14930174D01*
X8977229Y-14930174D02*
X8986753Y-14892079D01*
X8986753Y-14892079D02*
X8996277Y-14873031D01*
X8996277Y-14873031D02*
X9005801Y-14863508D01*
X9005801Y-14863508D02*
X9024848Y-14853984D01*
X9262944Y-14920650D02*
X9262944Y-15053984D01*
X9215325Y-14844460D02*
X9167706Y-14987317D01*
X9167706Y-14987317D02*
X9291515Y-14987317D01*
X9348658Y-14853984D02*
X9481991Y-14853984D01*
X9481991Y-14853984D02*
X9396277Y-15053984D01*
X9548658Y-14873031D02*
X9558182Y-14863508D01*
X9558182Y-14863508D02*
X9577229Y-14853984D01*
X9577229Y-14853984D02*
X9624849Y-14853984D01*
X9624849Y-14853984D02*
X9643896Y-14863508D01*
X9643896Y-14863508D02*
X9653420Y-14873031D01*
X9653420Y-14873031D02*
X9662944Y-14892079D01*
X9662944Y-14892079D02*
X9662944Y-14911127D01*
X9662944Y-14911127D02*
X9653420Y-14939698D01*
X9653420Y-14939698D02*
X9539134Y-15053984D01*
X9539134Y-15053984D02*
X9662944Y-15053984D01*
X9739134Y-14853984D02*
X9739134Y-14892079D01*
X9815325Y-14853984D02*
X9815325Y-14892079D01*
X10110563Y-15130174D02*
X10101039Y-15120650D01*
X10101039Y-15120650D02*
X10081991Y-15092079D01*
X10081991Y-15092079D02*
X10072468Y-15073031D01*
X10072468Y-15073031D02*
X10062944Y-15044460D01*
X10062944Y-15044460D02*
X10053420Y-14996841D01*
X10053420Y-14996841D02*
X10053420Y-14958746D01*
X10053420Y-14958746D02*
X10062944Y-14911127D01*
X10062944Y-14911127D02*
X10072468Y-14882555D01*
X10072468Y-14882555D02*
X10081991Y-14863508D01*
X10081991Y-14863508D02*
X10101039Y-14834936D01*
X10101039Y-14834936D02*
X10110563Y-14825412D01*
X10215325Y-14939698D02*
X10196277Y-14930174D01*
X10196277Y-14930174D02*
X10186753Y-14920650D01*
X10186753Y-14920650D02*
X10177230Y-14901603D01*
X10177230Y-14901603D02*
X10177230Y-14892079D01*
X10177230Y-14892079D02*
X10186753Y-14873031D01*
X10186753Y-14873031D02*
X10196277Y-14863508D01*
X10196277Y-14863508D02*
X10215325Y-14853984D01*
X10215325Y-14853984D02*
X10253420Y-14853984D01*
X10253420Y-14853984D02*
X10272468Y-14863508D01*
X10272468Y-14863508D02*
X10281991Y-14873031D01*
X10281991Y-14873031D02*
X10291515Y-14892079D01*
X10291515Y-14892079D02*
X10291515Y-14901603D01*
X10291515Y-14901603D02*
X10281991Y-14920650D01*
X10281991Y-14920650D02*
X10272468Y-14930174D01*
X10272468Y-14930174D02*
X10253420Y-14939698D01*
X10253420Y-14939698D02*
X10215325Y-14939698D01*
X10215325Y-14939698D02*
X10196277Y-14949222D01*
X10196277Y-14949222D02*
X10186753Y-14958746D01*
X10186753Y-14958746D02*
X10177230Y-14977793D01*
X10177230Y-14977793D02*
X10177230Y-15015888D01*
X10177230Y-15015888D02*
X10186753Y-15034936D01*
X10186753Y-15034936D02*
X10196277Y-15044460D01*
X10196277Y-15044460D02*
X10215325Y-15053984D01*
X10215325Y-15053984D02*
X10253420Y-15053984D01*
X10253420Y-15053984D02*
X10272468Y-15044460D01*
X10272468Y-15044460D02*
X10281991Y-15034936D01*
X10281991Y-15034936D02*
X10291515Y-15015888D01*
X10291515Y-15015888D02*
X10291515Y-14977793D01*
X10291515Y-14977793D02*
X10281991Y-14958746D01*
X10281991Y-14958746D02*
X10272468Y-14949222D01*
X10272468Y-14949222D02*
X10253420Y-14939698D01*
X10529611Y-15053984D02*
X10529611Y-14853984D01*
X10615325Y-15053984D02*
X10615325Y-14949222D01*
X10615325Y-14949222D02*
X10605801Y-14930174D01*
X10605801Y-14930174D02*
X10586753Y-14920650D01*
X10586753Y-14920650D02*
X10558182Y-14920650D01*
X10558182Y-14920650D02*
X10539134Y-14930174D01*
X10539134Y-14930174D02*
X10529611Y-14939698D01*
X10739134Y-15053984D02*
X10720087Y-15044460D01*
X10720087Y-15044460D02*
X10710563Y-15034936D01*
X10710563Y-15034936D02*
X10701039Y-15015888D01*
X10701039Y-15015888D02*
X10701039Y-14958746D01*
X10701039Y-14958746D02*
X10710563Y-14939698D01*
X10710563Y-14939698D02*
X10720087Y-14930174D01*
X10720087Y-14930174D02*
X10739134Y-14920650D01*
X10739134Y-14920650D02*
X10767706Y-14920650D01*
X10767706Y-14920650D02*
X10786753Y-14930174D01*
X10786753Y-14930174D02*
X10796277Y-14939698D01*
X10796277Y-14939698D02*
X10805801Y-14958746D01*
X10805801Y-14958746D02*
X10805801Y-15015888D01*
X10805801Y-15015888D02*
X10796277Y-15034936D01*
X10796277Y-15034936D02*
X10786753Y-15044460D01*
X10786753Y-15044460D02*
X10767706Y-15053984D01*
X10767706Y-15053984D02*
X10739134Y-15053984D01*
X10920087Y-15053984D02*
X10901039Y-15044460D01*
X10901039Y-15044460D02*
X10891515Y-15025412D01*
X10891515Y-15025412D02*
X10891515Y-14853984D01*
X11072468Y-15044460D02*
X11053420Y-15053984D01*
X11053420Y-15053984D02*
X11015325Y-15053984D01*
X11015325Y-15053984D02*
X10996277Y-15044460D01*
X10996277Y-15044460D02*
X10986753Y-15025412D01*
X10986753Y-15025412D02*
X10986753Y-14949222D01*
X10986753Y-14949222D02*
X10996277Y-14930174D01*
X10996277Y-14930174D02*
X11015325Y-14920650D01*
X11015325Y-14920650D02*
X11053420Y-14920650D01*
X11053420Y-14920650D02*
X11072468Y-14930174D01*
X11072468Y-14930174D02*
X11081992Y-14949222D01*
X11081992Y-14949222D02*
X11081992Y-14968269D01*
X11081992Y-14968269D02*
X10986753Y-14987317D01*
X11158182Y-15044460D02*
X11177230Y-15053984D01*
X11177230Y-15053984D02*
X11215325Y-15053984D01*
X11215325Y-15053984D02*
X11234372Y-15044460D01*
X11234372Y-15044460D02*
X11243896Y-15025412D01*
X11243896Y-15025412D02*
X11243896Y-15015888D01*
X11243896Y-15015888D02*
X11234372Y-14996841D01*
X11234372Y-14996841D02*
X11215325Y-14987317D01*
X11215325Y-14987317D02*
X11186753Y-14987317D01*
X11186753Y-14987317D02*
X11167706Y-14977793D01*
X11167706Y-14977793D02*
X11158182Y-14958746D01*
X11158182Y-14958746D02*
X11158182Y-14949222D01*
X11158182Y-14949222D02*
X11167706Y-14930174D01*
X11167706Y-14930174D02*
X11186753Y-14920650D01*
X11186753Y-14920650D02*
X11215325Y-14920650D01*
X11215325Y-14920650D02*
X11234372Y-14930174D01*
X11310563Y-15130174D02*
X11320087Y-15120650D01*
X11320087Y-15120650D02*
X11339134Y-15092079D01*
X11339134Y-15092079D02*
X11348658Y-15073031D01*
X11348658Y-15073031D02*
X11358182Y-15044460D01*
X11358182Y-15044460D02*
X11367706Y-14996841D01*
X11367706Y-14996841D02*
X11367706Y-14958746D01*
X11367706Y-14958746D02*
X11358182Y-14911127D01*
X11358182Y-14911127D02*
X11348658Y-14882555D01*
X11348658Y-14882555D02*
X11339134Y-14863508D01*
X11339134Y-14863508D02*
X11320087Y-14834936D01*
X11320087Y-14834936D02*
X11310563Y-14825412D01*
M02*
