M48
; DRILL file {KiCad 7.0.10} date Sat Apr  6 15:54:16 2024
; FORMAT={-:-/ absolute / metric / decimal}
; #@! TF.CreationDate,2024-04-06T15:54:16-07:00
; #@! TF.GenerationSoftware,Kicad,Pcbnew,7.0.10
; #@! TF.FileFunction,Plated,1,2,PTH
FMAT,2
METRIC
; #@! TA.AperFunction,Plated,PTH,ViaDrill
T1C0.400
; #@! TA.AperFunction,Plated,PTH,ComponentDrill
T2C0.800
; #@! TA.AperFunction,Plated,PTH,ComponentDrill
T3C1.000
; #@! TA.AperFunction,Plated,PTH,ComponentDrill
T4C1.200
%
G90
G05
T1
X67.005Y-77.955
X67.405Y-96.355
X67.405Y-99.255
X67.405Y-103.755
X67.405Y-105.755
X67.505Y-71.555
X70.105Y-85.855
X70.505Y-78.955
X71.305Y-84.455
X72.005Y-107.255
X72.205Y-97.155
X72.405Y-110.255
X72.405Y-112.005
X72.405Y-119.005
X72.605Y-101.455
X72.655Y-113.505
X72.655Y-116.005
X72.905Y-92.255
X72.905Y-128.005
X73.005Y-72.855
X73.655Y-82.755
X73.705Y-98.055
X73.905Y-102.655
X74.305Y-99.855
X74.405Y-91.455
X74.655Y-85.255
X74.805Y-106.655
X74.805Y-107.755
X74.905Y-72.505
X74.905Y-75.005
X75.155Y-132.005
X75.305Y-98.155
X75.305Y-109.355
X75.405Y-113.005
X75.655Y-116.505
X76.105Y-97.455
X76.155Y-76.755
X76.155Y-78.755
X76.205Y-106.755
X76.205Y-107.755
X76.655Y-85.505
X76.905Y-98.455
X77.155Y-126.005
X77.305Y-97.455
X77.505Y-106.455
X77.505Y-107.755
X77.805Y-98.855
X78.305Y-97.755
X78.405Y-88.005
X78.705Y-106.455
X78.705Y-107.755
X79.005Y-98.855
X79.155Y-132.255
X79.305Y-97.455
X79.905Y-98.255
X80.005Y-99.355
X80.005Y-106.555
X80.005Y-107.755
X80.405Y-128.505
X80.655Y-78.005
X80.655Y-125.005
X81.405Y-112.255
X82.405Y-84.005
X85.155Y-101.005
X85.905Y-77.755
X85.905Y-81.255
X86.405Y-111.005
X86.605Y-103.355
X90.405Y-77.505
X90.905Y-69.255
X90.905Y-73.255
X91.655Y-112.005
X92.655Y-77.255
X94.655Y-93.505
X95.155Y-88.005
X95.155Y-90.505
X95.155Y-92.005
X95.405Y-86.755
X95.905Y-85.505
X96.655Y-86.505
X96.655Y-88.005
X96.655Y-90.505
X96.905Y-92.005
X96.905Y-93.505
X97.405Y-77.505
X97.905Y-85.505
X98.655Y-86.255
X98.905Y-93.505
X99.655Y-85.505
X101.155Y-93.255
X101.405Y-86.005
X101.405Y-87.505
X101.405Y-89.005
X101.655Y-110.755
X102.655Y-86.005
X102.655Y-87.505
X102.655Y-89.005
X103.905Y-112.755
X104.155Y-75.005
X104.155Y-78.505
X104.155Y-82.505
X104.155Y-86.005
X104.155Y-87.505
X104.155Y-89.005
X105.655Y-86.005
X105.655Y-87.505
X105.655Y-89.005
X106.155Y-92.505
X107.905Y-91.255
X107.905Y-92.255
T2
X79.505Y-110.745
X79.505Y-118.365
X94.125Y-72.755
X96.665Y-72.755
X99.205Y-72.755
X108.405Y-94.505
X108.405Y-96.505
T3
X68.205Y-88.09
X68.205Y-90.63
X69.155Y-125.505
X69.155Y-128.045
X69.905Y-68.455
X72.445Y-68.455
X84.734Y-86.843
X84.734Y-91.923
X100.905Y-79.73
X100.905Y-82.27
X105.88Y-131.505
X107.905Y-86.74
X107.905Y-89.28
X108.405Y-70.73
X108.405Y-73.27
X108.42Y-131.505
T4
X85.405Y-98.005
X85.405Y-108.005
X85.405Y-115.755
X85.405Y-125.755
X101.405Y-98.005
X101.405Y-108.005
X101.405Y-115.755
X101.405Y-125.755
M30
