<?xml version="1.0" standalone="no"?>
 <!DOCTYPE svg PUBLIC "-//W3C//DTD SVG 1.1//EN" 
 "http://www.w3.org/Graphics/SVG/1.1/DTD/svg11.dtd"> 
<svg
  xmlns:svg="http://www.w3.org/2000/svg"
  xmlns="http://www.w3.org/2000/svg"
  xmlns:xlink="http://www.w3.org/1999/xlink"
  version="1.1"
  width="88.1380mm" height="80.1370mm" viewBox="0.0000 0.0000 88.1380 80.1370">
<title>SVG Image created as buttonBoard-F_Silkscreen.svg date 2025/02/10 14:46:05 </title>
  <desc>Image generated by PCBNEW </desc>
<g style="fill:#000000; fill-opacity:1.0000;stroke:#000000; stroke-opacity:1.0000;
stroke-linecap:round; stroke-linejoin:round;"
 transform="translate(0 0) scale(1 1)">
</g>
<g style="fill:#000000; fill-opacity:0.0; 
stroke:#000000; stroke-width:0.0000; stroke-opacity:1; 
stroke-linecap:round; stroke-linejoin:round;">
</g>
<g style="fill:#000000; fill-opacity:0.0; 
stroke:#000000; stroke-width:0.1500; stroke-opacity:1; 
stroke-linecap:round; stroke-linejoin:round;">
<path d="M83.0750 80.0750
L83.0750 0.0750
" />
<path d="M5.0750 80.0750
L5.0750 0.0750
" />
<path d="M0.0750 76.0750
L88.0750 76.0750
" />
<path d="M0.0750 4.0750
L88.0750 4.0750
" />
<path d="M7.0850 59.5350
L19.3650 71.8250
" />
<path d="M19.3750 59.5250
L7.0850 71.8250
" />
<path d="M37.0850 59.5350
L49.3750 71.8250
" />
<path d="M49.3750 59.5250
L37.0850 71.8150
" />
<path d="M67.0850 59.5350
L79.3750 71.8250
" />
<path d="M79.3750 59.5250
L67.0750 71.8250
" />
<path d="M67.0850 34.5350
L79.3750 46.8250
" />
<path d="M79.3750 34.5250
L67.0750 46.8250
" />
<path d="M37.0850 34.5250
L49.3750 46.8150
" />
<path d="M49.3750 34.5250
L37.0750 46.8250
" />
<path d="M7.0750 34.5250
L19.3750 46.8250
" />
<path d="M19.3750 34.5250
L7.0750 46.8250
" />
<path d="M7.0750 9.5250
L19.3750 21.8250
" />
<path d="M19.3750 9.5250
L7.0750 21.8250
" />
<path d="M37.0750 9.5250
L49.3750 21.8250
" />
<path d="M49.3750 9.5250
L37.0750 21.8250
" />
<path d="M79.3750 9.5250
L67.0750 21.8250
" />
<path d="M67.0750 9.5250
L79.3750 21.8250
" />
<circle cx="5.0750" cy="76.0750" r="2.6250" /> 
<circle cx="83.0750" cy="76.0750" r="2.6250" /> 
<circle cx="5.0750" cy="4.0750" r="2.6250" /> 
<circle cx="83.0750" cy="4.0750" r="2.6250" /> 
<text x="16.7150" y="5.3450"
textLength="25.5357" font-size="1.3333" lengthAdjust="spacingAndGlyphs"
text-anchor="start" opacity="0">Button Board for Field Radio 1.1</text>
<g class="stroked-text"><desc>Button Board for Field Radio 1.1</desc>
<path d="M17.3851 4.6910
L17.5280 4.7386
" />
<path d="M17.5280 4.7386
L17.5756 4.7862
" />
<path d="M17.5756 4.7862
L17.6232 4.8815
" />
<path d="M17.6232 4.8815
L17.6232 5.0243
" />
<path d="M17.6232 5.0243
L17.5756 5.1196
" />
<path d="M17.5756 5.1196
L17.5280 5.1672
" />
<path d="M17.5280 5.1672
L17.4327 5.2148
" />
<path d="M17.4327 5.2148
L17.0518 5.2148
" />
<path d="M17.0518 5.2148
L17.0518 4.2148
" />
<path d="M17.0518 4.2148
L17.3851 4.2148
" />
<path d="M17.3851 4.2148
L17.4803 4.2624
" />
<path d="M17.4803 4.2624
L17.5280 4.3101
" />
<path d="M17.5280 4.3101
L17.5756 4.4053
" />
<path d="M17.5756 4.4053
L17.5756 4.5005
" />
<path d="M17.5756 4.5005
L17.5280 4.5958
" />
<path d="M17.5280 4.5958
L17.4803 4.6434
" />
<path d="M17.4803 4.6434
L17.3851 4.6910
" />
<path d="M17.3851 4.6910
L17.0518 4.6910
" />
<path d="M18.4803 4.5482
L18.4803 5.2148
" />
<path d="M18.0518 4.5482
L18.0518 5.0720
" />
<path d="M18.0518 5.0720
L18.0994 5.1672
" />
<path d="M18.0994 5.1672
L18.1946 5.2148
" />
<path d="M18.1946 5.2148
L18.3375 5.2148
" />
<path d="M18.3375 5.2148
L18.4327 5.1672
" />
<path d="M18.4327 5.1672
L18.4803 5.1196
" />
<path d="M18.8137 4.5482
L19.1946 4.5482
" />
<path d="M18.9565 4.2148
L18.9565 5.0720
" />
<path d="M18.9565 5.0720
L19.0042 5.1672
" />
<path d="M19.0042 5.1672
L19.0994 5.2148
" />
<path d="M19.0994 5.2148
L19.1946 5.2148
" />
<path d="M19.3851 4.5482
L19.7661 4.5482
" />
<path d="M19.5280 4.2148
L19.5280 5.0720
" />
<path d="M19.5280 5.0720
L19.5756 5.1672
" />
<path d="M19.5756 5.1672
L19.6708 5.2148
" />
<path d="M19.6708 5.2148
L19.7661 5.2148
" />
<path d="M20.2423 5.2148
L20.1470 5.1672
" />
<path d="M20.1470 5.1672
L20.0994 5.1196
" />
<path d="M20.0994 5.1196
L20.0518 5.0243
" />
<path d="M20.0518 5.0243
L20.0518 4.7386
" />
<path d="M20.0518 4.7386
L20.0994 4.6434
" />
<path d="M20.0994 4.6434
L20.1470 4.5958
" />
<path d="M20.1470 4.5958
L20.2423 4.5482
" />
<path d="M20.2423 4.5482
L20.3851 4.5482
" />
<path d="M20.3851 4.5482
L20.4804 4.5958
" />
<path d="M20.4804 4.5958
L20.5280 4.6434
" />
<path d="M20.5280 4.6434
L20.5756 4.7386
" />
<path d="M20.5756 4.7386
L20.5756 5.0243
" />
<path d="M20.5756 5.0243
L20.5280 5.1196
" />
<path d="M20.5280 5.1196
L20.4804 5.1672
" />
<path d="M20.4804 5.1672
L20.3851 5.2148
" />
<path d="M20.3851 5.2148
L20.2423 5.2148
" />
<path d="M21.0042 4.5482
L21.0042 5.2148
" />
<path d="M21.0042 4.6434
L21.0518 4.5958
" />
<path d="M21.0518 4.5958
L21.1470 4.5482
" />
<path d="M21.1470 4.5482
L21.2899 4.5482
" />
<path d="M21.2899 4.5482
L21.3851 4.5958
" />
<path d="M21.3851 4.5958
L21.4327 4.6910
" />
<path d="M21.4327 4.6910
L21.4327 5.2148
" />
<path d="M23.0042 4.6910
L23.1470 4.7386
" />
<path d="M23.1470 4.7386
L23.1946 4.7862
" />
<path d="M23.1946 4.7862
L23.2423 4.8815
" />
<path d="M23.2423 4.8815
L23.2423 5.0243
" />
<path d="M23.2423 5.0243
L23.1946 5.1196
" />
<path d="M23.1946 5.1196
L23.1470 5.1672
" />
<path d="M23.1470 5.1672
L23.0518 5.2148
" />
<path d="M23.0518 5.2148
L22.6708 5.2148
" />
<path d="M22.6708 5.2148
L22.6708 4.2148
" />
<path d="M22.6708 4.2148
L23.0042 4.2148
" />
<path d="M23.0042 4.2148
L23.0994 4.2624
" />
<path d="M23.0994 4.2624
L23.1470 4.3101
" />
<path d="M23.1470 4.3101
L23.1946 4.4053
" />
<path d="M23.1946 4.4053
L23.1946 4.5005
" />
<path d="M23.1946 4.5005
L23.1470 4.5958
" />
<path d="M23.1470 4.5958
L23.0994 4.6434
" />
<path d="M23.0994 4.6434
L23.0042 4.6910
" />
<path d="M23.0042 4.6910
L22.6708 4.6910
" />
<path d="M23.8137 5.2148
L23.7184 5.1672
" />
<path d="M23.7184 5.1672
L23.6708 5.1196
" />
<path d="M23.6708 5.1196
L23.6232 5.0243
" />
<path d="M23.6232 5.0243
L23.6232 4.7386
" />
<path d="M23.6232 4.7386
L23.6708 4.6434
" />
<path d="M23.6708 4.6434
L23.7184 4.5958
" />
<path d="M23.7184 4.5958
L23.8137 4.5482
" />
<path d="M23.8137 4.5482
L23.9565 4.5482
" />
<path d="M23.9565 4.5482
L24.0518 4.5958
" />
<path d="M24.0518 4.5958
L24.0994 4.6434
" />
<path d="M24.0994 4.6434
L24.1470 4.7386
" />
<path d="M24.1470 4.7386
L24.1470 5.0243
" />
<path d="M24.1470 5.0243
L24.0994 5.1196
" />
<path d="M24.0994 5.1196
L24.0518 5.1672
" />
<path d="M24.0518 5.1672
L23.9565 5.2148
" />
<path d="M23.9565 5.2148
L23.8137 5.2148
" />
<path d="M25.0042 5.2148
L25.0042 4.6910
" />
<path d="M25.0042 4.6910
L24.9565 4.5958
" />
<path d="M24.9565 4.5958
L24.8613 4.5482
" />
<path d="M24.8613 4.5482
L24.6708 4.5482
" />
<path d="M24.6708 4.5482
L24.5756 4.5958
" />
<path d="M25.0042 5.1672
L24.9089 5.2148
" />
<path d="M24.9089 5.2148
L24.6708 5.2148
" />
<path d="M24.6708 5.2148
L24.5756 5.1672
" />
<path d="M24.5756 5.1672
L24.5280 5.0720
" />
<path d="M24.5280 5.0720
L24.5280 4.9767
" />
<path d="M24.5280 4.9767
L24.5756 4.8815
" />
<path d="M24.5756 4.8815
L24.6708 4.8339
" />
<path d="M24.6708 4.8339
L24.9089 4.8339
" />
<path d="M24.9089 4.8339
L25.0042 4.7862
" />
<path d="M25.4804 5.2148
L25.4804 4.5482
" />
<path d="M25.4804 4.7386
L25.5280 4.6434
" />
<path d="M25.5280 4.6434
L25.5756 4.5958
" />
<path d="M25.5756 4.5958
L25.6708 4.5482
" />
<path d="M25.6708 4.5482
L25.7661 4.5482
" />
<path d="M26.5280 5.2148
L26.5280 4.2148
" />
<path d="M26.5280 5.1672
L26.4327 5.2148
" />
<path d="M26.4327 5.2148
L26.2423 5.2148
" />
<path d="M26.2423 5.2148
L26.1470 5.1672
" />
<path d="M26.1470 5.1672
L26.0994 5.1196
" />
<path d="M26.0994 5.1196
L26.0518 5.0243
" />
<path d="M26.0518 5.0243
L26.0518 4.7386
" />
<path d="M26.0518 4.7386
L26.0994 4.6434
" />
<path d="M26.0994 4.6434
L26.1470 4.5958
" />
<path d="M26.1470 4.5958
L26.2423 4.5482
" />
<path d="M26.2423 4.5482
L26.4327 4.5482
" />
<path d="M26.4327 4.5482
L26.5280 4.5958
" />
<path d="M27.6232 4.5482
L28.0042 4.5482
" />
<path d="M27.7661 5.2148
L27.7661 4.3577
" />
<path d="M27.7661 4.3577
L27.8137 4.2624
" />
<path d="M27.8137 4.2624
L27.9089 4.2148
" />
<path d="M27.9089 4.2148
L28.0042 4.2148
" />
<path d="M28.4804 5.2148
L28.3851 5.1672
" />
<path d="M28.3851 5.1672
L28.3375 5.1196
" />
<path d="M28.3375 5.1196
L28.2899 5.0243
" />
<path d="M28.2899 5.0243
L28.2899 4.7386
" />
<path d="M28.2899 4.7386
L28.3375 4.6434
" />
<path d="M28.3375 4.6434
L28.3851 4.5958
" />
<path d="M28.3851 4.5958
L28.4804 4.5482
" />
<path d="M28.4804 4.5482
L28.6232 4.5482
" />
<path d="M28.6232 4.5482
L28.7184 4.5958
" />
<path d="M28.7184 4.5958
L28.7661 4.6434
" />
<path d="M28.7661 4.6434
L28.8137 4.7386
" />
<path d="M28.8137 4.7386
L28.8137 5.0243
" />
<path d="M28.8137 5.0243
L28.7661 5.1196
" />
<path d="M28.7661 5.1196
L28.7184 5.1672
" />
<path d="M28.7184 5.1672
L28.6232 5.2148
" />
<path d="M28.6232 5.2148
L28.4804 5.2148
" />
<path d="M29.2423 5.2148
L29.2423 4.5482
" />
<path d="M29.2423 4.7386
L29.2899 4.6434
" />
<path d="M29.2899 4.6434
L29.3375 4.5958
" />
<path d="M29.3375 4.5958
L29.4327 4.5482
" />
<path d="M29.4327 4.5482
L29.5280 4.5482
" />
<path d="M30.9565 4.6910
L30.6232 4.6910
" />
<path d="M30.6232 5.2148
L30.6232 4.2148
" />
<path d="M30.6232 4.2148
L31.0994 4.2148
" />
<path d="M31.4804 5.2148
L31.4804 4.5482
" />
<path d="M31.4804 4.2148
L31.4327 4.2624
" />
<path d="M31.4327 4.2624
L31.4804 4.3101
" />
<path d="M31.4804 4.3101
L31.5280 4.2624
" />
<path d="M31.5280 4.2624
L31.4804 4.2148
" />
<path d="M31.4804 4.2148
L31.4804 4.3101
" />
<path d="M32.3375 5.1672
L32.2423 5.2148
" />
<path d="M32.2423 5.2148
L32.0518 5.2148
" />
<path d="M32.0518 5.2148
L31.9565 5.1672
" />
<path d="M31.9565 5.1672
L31.9089 5.0720
" />
<path d="M31.9089 5.0720
L31.9089 4.6910
" />
<path d="M31.9089 4.6910
L31.9565 4.5958
" />
<path d="M31.9565 4.5958
L32.0518 4.5482
" />
<path d="M32.0518 4.5482
L32.2423 4.5482
" />
<path d="M32.2423 4.5482
L32.3375 4.5958
" />
<path d="M32.3375 4.5958
L32.3851 4.6910
" />
<path d="M32.3851 4.6910
L32.3851 4.7862
" />
<path d="M32.3851 4.7862
L31.9089 4.8815
" />
<path d="M32.9565 5.2148
L32.8613 5.1672
" />
<path d="M32.8613 5.1672
L32.8137 5.0720
" />
<path d="M32.8137 5.0720
L32.8137 4.2148
" />
<path d="M33.7661 5.2148
L33.7661 4.2148
" />
<path d="M33.7661 5.1672
L33.6708 5.2148
" />
<path d="M33.6708 5.2148
L33.4804 5.2148
" />
<path d="M33.4804 5.2148
L33.3851 5.1672
" />
<path d="M33.3851 5.1672
L33.3375 5.1196
" />
<path d="M33.3375 5.1196
L33.2899 5.0243
" />
<path d="M33.2899 5.0243
L33.2899 4.7386
" />
<path d="M33.2899 4.7386
L33.3375 4.6434
" />
<path d="M33.3375 4.6434
L33.3851 4.5958
" />
<path d="M33.3851 4.5958
L33.4804 4.5482
" />
<path d="M33.4804 4.5482
L33.6708 4.5482
" />
<path d="M33.6708 4.5482
L33.7661 4.5958
" />
<path d="M35.5756 5.2148
L35.2423 4.7386
" />
<path d="M35.0042 5.2148
L35.0042 4.2148
" />
<path d="M35.0042 4.2148
L35.3851 4.2148
" />
<path d="M35.3851 4.2148
L35.4804 4.2624
" />
<path d="M35.4804 4.2624
L35.5280 4.3101
" />
<path d="M35.5280 4.3101
L35.5756 4.4053
" />
<path d="M35.5756 4.4053
L35.5756 4.5482
" />
<path d="M35.5756 4.5482
L35.5280 4.6434
" />
<path d="M35.5280 4.6434
L35.4804 4.6910
" />
<path d="M35.4804 4.6910
L35.3851 4.7386
" />
<path d="M35.3851 4.7386
L35.0042 4.7386
" />
<path d="M36.4327 5.2148
L36.4327 4.6910
" />
<path d="M36.4327 4.6910
L36.3851 4.5958
" />
<path d="M36.3851 4.5958
L36.2899 4.5482
" />
<path d="M36.2899 4.5482
L36.0994 4.5482
" />
<path d="M36.0994 4.5482
L36.0042 4.5958
" />
<path d="M36.4327 5.1672
L36.3375 5.2148
" />
<path d="M36.3375 5.2148
L36.0994 5.2148
" />
<path d="M36.0994 5.2148
L36.0042 5.1672
" />
<path d="M36.0042 5.1672
L35.9565 5.0720
" />
<path d="M35.9565 5.0720
L35.9565 4.9767
" />
<path d="M35.9565 4.9767
L36.0042 4.8815
" />
<path d="M36.0042 4.8815
L36.0994 4.8339
" />
<path d="M36.0994 4.8339
L36.3375 4.8339
" />
<path d="M36.3375 4.8339
L36.4327 4.7862
" />
<path d="M37.3375 5.2148
L37.3375 4.2148
" />
<path d="M37.3375 5.1672
L37.2423 5.2148
" />
<path d="M37.2423 5.2148
L37.0518 5.2148
" />
<path d="M37.0518 5.2148
L36.9565 5.1672
" />
<path d="M36.9565 5.1672
L36.9089 5.1196
" />
<path d="M36.9089 5.1196
L36.8613 5.0243
" />
<path d="M36.8613 5.0243
L36.8613 4.7386
" />
<path d="M36.8613 4.7386
L36.9089 4.6434
" />
<path d="M36.9089 4.6434
L36.9565 4.5958
" />
<path d="M36.9565 4.5958
L37.0518 4.5482
" />
<path d="M37.0518 4.5482
L37.2423 4.5482
" />
<path d="M37.2423 4.5482
L37.3375 4.5958
" />
<path d="M37.8137 5.2148
L37.8137 4.5482
" />
<path d="M37.8137 4.2148
L37.7661 4.2624
" />
<path d="M37.7661 4.2624
L37.8137 4.3101
" />
<path d="M37.8137 4.3101
L37.8613 4.2624
" />
<path d="M37.8613 4.2624
L37.8137 4.2148
" />
<path d="M37.8137 4.2148
L37.8137 4.3101
" />
<path d="M38.4327 5.2148
L38.3375 5.1672
" />
<path d="M38.3375 5.1672
L38.2899 5.1196
" />
<path d="M38.2899 5.1196
L38.2423 5.0243
" />
<path d="M38.2423 5.0243
L38.2423 4.7386
" />
<path d="M38.2423 4.7386
L38.2899 4.6434
" />
<path d="M38.2899 4.6434
L38.3375 4.5958
" />
<path d="M38.3375 4.5958
L38.4327 4.5482
" />
<path d="M38.4327 4.5482
L38.5756 4.5482
" />
<path d="M38.5756 4.5482
L38.6708 4.5958
" />
<path d="M38.6708 4.5958
L38.7184 4.6434
" />
<path d="M38.7184 4.6434
L38.7661 4.7386
" />
<path d="M38.7661 4.7386
L38.7661 5.0243
" />
<path d="M38.7661 5.0243
L38.7184 5.1196
" />
<path d="M38.7184 5.1196
L38.6708 5.1672
" />
<path d="M38.6708 5.1672
L38.5756 5.2148
" />
<path d="M38.5756 5.2148
L38.4327 5.2148
" />
<path d="M40.4804 5.2148
L39.9089 5.2148
" />
<path d="M40.1946 5.2148
L40.1946 4.2148
" />
<path d="M40.1946 4.2148
L40.0994 4.3577
" />
<path d="M40.0994 4.3577
L40.0042 4.4529
" />
<path d="M40.0042 4.4529
L39.9089 4.5005
" />
<path d="M40.9089 5.1196
L40.9565 5.1672
" />
<path d="M40.9565 5.1672
L40.9089 5.2148
" />
<path d="M40.9089 5.2148
L40.8613 5.1672
" />
<path d="M40.8613 5.1672
L40.9089 5.1196
" />
<path d="M40.9089 5.1196
L40.9089 5.2148
" />
<path d="M41.9089 5.2148
L41.3375 5.2148
" />
<path d="M41.6232 5.2148
L41.6232 4.2148
" />
<path d="M41.6232 4.2148
L41.5280 4.3577
" />
<path d="M41.5280 4.3577
L41.4327 4.4529
" />
<path d="M41.4327 4.4529
L41.3375 4.5005
" />
</g><text x="16.7150" y="6.9550"
textLength="5.5833" font-size="1.3333" lengthAdjust="spacingAndGlyphs"
text-anchor="start" opacity="0">N7WMN</text>
<g class="stroked-text"><desc>N7WMN</desc>
<path d="M17.0518 6.8248
L17.0518 5.8248
" />
<path d="M17.0518 5.8248
L17.6232 6.8248
" />
<path d="M17.6232 6.8248
L17.6232 5.8248
" />
<path d="M18.0042 5.8248
L18.6708 5.8248
" />
<path d="M18.6708 5.8248
L18.2423 6.8248
" />
<path d="M18.9565 5.8248
L19.1946 6.8248
" />
<path d="M19.1946 6.8248
L19.3851 6.1105
" />
<path d="M19.3851 6.1105
L19.5756 6.8248
" />
<path d="M19.5756 6.8248
L19.8137 5.8248
" />
<path d="M20.1946 6.8248
L20.1946 5.8248
" />
<path d="M20.1946 5.8248
L20.5280 6.5391
" />
<path d="M20.5280 6.5391
L20.8613 5.8248
" />
<path d="M20.8613 5.8248
L20.8613 6.8248
" />
<path d="M21.3375 6.8248
L21.3375 5.8248
" />
<path d="M21.3375 5.8248
L21.9089 6.8248
" />
<path d="M21.9089 6.8248
L21.9089 5.8248
" />
</g><text x="16.7150" y="8.5650"
textLength="3.3929" font-size="1.3333" lengthAdjust="spacingAndGlyphs"
text-anchor="start" opacity="0">v1.0</text>
<g class="stroked-text"><desc>v1.0</desc>
<path d="M16.9565 7.7682
L17.1946 8.4348
" />
<path d="M17.1946 8.4348
L17.4327 7.7682
" />
<path d="M18.3375 8.4348
L17.7661 8.4348
" />
<path d="M18.0518 8.4348
L18.0518 7.4348
" />
<path d="M18.0518 7.4348
L17.9565 7.5777
" />
<path d="M17.9565 7.5777
L17.8613 7.6729
" />
<path d="M17.8613 7.6729
L17.7661 7.7205
" />
<path d="M18.7661 8.3396
L18.8137 8.3872
" />
<path d="M18.8137 8.3872
L18.7661 8.4348
" />
<path d="M18.7661 8.4348
L18.7184 8.3872
" />
<path d="M18.7184 8.3872
L18.7661 8.3396
" />
<path d="M18.7661 8.3396
L18.7661 8.4348
" />
<path d="M19.4327 7.4348
L19.5280 7.4348
" />
<path d="M19.5280 7.4348
L19.6232 7.4824
" />
<path d="M19.6232 7.4824
L19.6708 7.5301
" />
<path d="M19.6708 7.5301
L19.7184 7.6253
" />
<path d="M19.7184 7.6253
L19.7661 7.8158
" />
<path d="M19.7661 7.8158
L19.7661 8.0539
" />
<path d="M19.7661 8.0539
L19.7184 8.2443
" />
<path d="M19.7184 8.2443
L19.6708 8.3396
" />
<path d="M19.6708 8.3396
L19.6232 8.3872
" />
<path d="M19.6232 8.3872
L19.5280 8.4348
" />
<path d="M19.5280 8.4348
L19.4327 8.4348
" />
<path d="M19.4327 8.4348
L19.3375 8.3872
" />
<path d="M19.3375 8.3872
L19.2899 8.3396
" />
<path d="M19.2899 8.3396
L19.2423 8.2443
" />
<path d="M19.2423 8.2443
L19.1946 8.0539
" />
<path d="M19.1946 8.0539
L19.1946 7.8158
" />
<path d="M19.1946 7.8158
L19.2423 7.6253
" />
<path d="M19.2423 7.6253
L19.2899 7.5301
" />
<path d="M19.2899 7.5301
L19.3375 7.4824
" />
<path d="M19.3375 7.4824
L19.4327 7.4348
" />
</g><text x="51.2750" y="16.2250"
textLength="4.3452" font-size="1.3333" lengthAdjust="spacingAndGlyphs"
text-anchor="start" opacity="0">MODE</text>
<g class="stroked-text"><desc>MODE</desc>
<path d="M51.6118 16.0948
L51.6118 15.0948
" />
<path d="M51.6118 15.0948
L51.9451 15.8091
" />
<path d="M51.9451 15.8091
L52.2784 15.0948
" />
<path d="M52.2784 15.0948
L52.2784 16.0948
" />
<path d="M52.9451 15.0948
L53.1356 15.0948
" />
<path d="M53.1356 15.0948
L53.2308 15.1424
" />
<path d="M53.2308 15.1424
L53.3261 15.2377
" />
<path d="M53.3261 15.2377
L53.3737 15.4282
" />
<path d="M53.3737 15.4282
L53.3737 15.7615
" />
<path d="M53.3737 15.7615
L53.3261 15.9520
" />
<path d="M53.3261 15.9520
L53.2308 16.0472
" />
<path d="M53.2308 16.0472
L53.1356 16.0948
" />
<path d="M53.1356 16.0948
L52.9451 16.0948
" />
<path d="M52.9451 16.0948
L52.8499 16.0472
" />
<path d="M52.8499 16.0472
L52.7546 15.9520
" />
<path d="M52.7546 15.9520
L52.7070 15.7615
" />
<path d="M52.7070 15.7615
L52.7070 15.4282
" />
<path d="M52.7070 15.4282
L52.7546 15.2377
" />
<path d="M52.7546 15.2377
L52.8499 15.1424
" />
<path d="M52.8499 15.1424
L52.9451 15.0948
" />
<path d="M53.8023 16.0948
L53.8023 15.0948
" />
<path d="M53.8023 15.0948
L54.0403 15.0948
" />
<path d="M54.0403 15.0948
L54.1832 15.1424
" />
<path d="M54.1832 15.1424
L54.2784 15.2377
" />
<path d="M54.2784 15.2377
L54.3261 15.3329
" />
<path d="M54.3261 15.3329
L54.3737 15.5234
" />
<path d="M54.3737 15.5234
L54.3737 15.6662
" />
<path d="M54.3737 15.6662
L54.3261 15.8567
" />
<path d="M54.3261 15.8567
L54.2784 15.9520
" />
<path d="M54.2784 15.9520
L54.1832 16.0472
" />
<path d="M54.1832 16.0472
L54.0403 16.0948
" />
<path d="M54.0403 16.0948
L53.8023 16.0948
" />
<path d="M54.8023 15.5710
L55.1356 15.5710
" />
<path d="M55.2784 16.0948
L54.8023 16.0948
" />
<path d="M54.8023 16.0948
L54.8023 15.0948
" />
<path d="M54.8023 15.0948
L55.2784 15.0948
" />
</g><text x="52.1150" y="66.4750"
textLength="3.9643" font-size="1.3333" lengthAdjust="spacingAndGlyphs"
text-anchor="start" opacity="0">DIGIT</text>
<g class="stroked-text"><desc>DIGIT</desc>
<path d="M52.4518 66.3448
L52.4518 65.3448
" />
<path d="M52.4518 65.3448
L52.6899 65.3448
" />
<path d="M52.6899 65.3448
L52.8327 65.3924
" />
<path d="M52.8327 65.3924
L52.9280 65.4877
" />
<path d="M52.9280 65.4877
L52.9756 65.5829
" />
<path d="M52.9756 65.5829
L53.0232 65.7734
" />
<path d="M53.0232 65.7734
L53.0232 65.9162
" />
<path d="M53.0232 65.9162
L52.9756 66.1067
" />
<path d="M52.9756 66.1067
L52.9280 66.2020
" />
<path d="M52.9280 66.2020
L52.8327 66.2972
" />
<path d="M52.8327 66.2972
L52.6899 66.3448
" />
<path d="M52.6899 66.3448
L52.4518 66.3448
" />
<path d="M53.4518 66.3448
L53.4518 65.3448
" />
<path d="M54.4518 65.3924
L54.3565 65.3448
" />
<path d="M54.3565 65.3448
L54.2137 65.3448
" />
<path d="M54.2137 65.3448
L54.0708 65.3924
" />
<path d="M54.0708 65.3924
L53.9756 65.4877
" />
<path d="M53.9756 65.4877
L53.9280 65.5829
" />
<path d="M53.9280 65.5829
L53.8803 65.7734
" />
<path d="M53.8803 65.7734
L53.8803 65.9162
" />
<path d="M53.8803 65.9162
L53.9280 66.1067
" />
<path d="M53.9280 66.1067
L53.9756 66.2020
" />
<path d="M53.9756 66.2020
L54.0708 66.2972
" />
<path d="M54.0708 66.2972
L54.2137 66.3448
" />
<path d="M54.2137 66.3448
L54.3089 66.3448
" />
<path d="M54.3089 66.3448
L54.4518 66.2972
" />
<path d="M54.4518 66.2972
L54.4994 66.2496
" />
<path d="M54.4994 66.2496
L54.4994 65.9162
" />
<path d="M54.4994 65.9162
L54.3089 65.9162
" />
<path d="M54.9280 66.3448
L54.9280 65.3448
" />
<path d="M55.2613 65.3448
L55.8327 65.3448
" />
<path d="M55.5470 66.3448
L55.5470 65.3448
" />
</g><text x="81.3950" y="15.2850"
textLength="3.1071" font-size="1.3333" lengthAdjust="spacingAndGlyphs"
text-anchor="start" opacity="0">NOT</text>
<g class="stroked-text"><desc>NOT</desc>
<path d="M81.7318 15.1548
L81.7318 14.1548
" />
<path d="M81.7318 14.1548
L82.3032 15.1548
" />
<path d="M82.3032 15.1548
L82.3032 14.1548
" />
<path d="M82.9699 14.1548
L83.1603 14.1548
" />
<path d="M83.1603 14.1548
L83.2556 14.2024
" />
<path d="M83.2556 14.2024
L83.3508 14.2977
" />
<path d="M83.3508 14.2977
L83.3984 14.4882
" />
<path d="M83.3984 14.4882
L83.3984 14.8215
" />
<path d="M83.3984 14.8215
L83.3508 15.0120
" />
<path d="M83.3508 15.0120
L83.2556 15.1072
" />
<path d="M83.2556 15.1072
L83.1603 15.1548
" />
<path d="M83.1603 15.1548
L82.9699 15.1548
" />
<path d="M82.9699 15.1548
L82.8746 15.1072
" />
<path d="M82.8746 15.1072
L82.7794 15.0120
" />
<path d="M82.7794 15.0120
L82.7318 14.8215
" />
<path d="M82.7318 14.8215
L82.7318 14.4882
" />
<path d="M82.7318 14.4882
L82.7794 14.2977
" />
<path d="M82.7794 14.2977
L82.8746 14.2024
" />
<path d="M82.8746 14.2024
L82.9699 14.1548
" />
<path d="M83.6842 14.1548
L84.2556 14.1548
" />
<path d="M83.9699 15.1548
L83.9699 14.1548
" />
</g><text x="81.3950" y="16.8950"
textLength="4.1548" font-size="1.3333" lengthAdjust="spacingAndGlyphs"
text-anchor="start" opacity="0">USED</text>
<g class="stroked-text"><desc>USED</desc>
<path d="M81.7318 15.7648
L81.7318 16.5743
" />
<path d="M81.7318 16.5743
L81.7794 16.6696
" />
<path d="M81.7794 16.6696
L81.8270 16.7172
" />
<path d="M81.8270 16.7172
L81.9223 16.7648
" />
<path d="M81.9223 16.7648
L82.1127 16.7648
" />
<path d="M82.1127 16.7648
L82.2080 16.7172
" />
<path d="M82.2080 16.7172
L82.2556 16.6696
" />
<path d="M82.2556 16.6696
L82.3032 16.5743
" />
<path d="M82.3032 16.5743
L82.3032 15.7648
" />
<path d="M82.7318 16.7172
L82.8746 16.7648
" />
<path d="M82.8746 16.7648
L83.1127 16.7648
" />
<path d="M83.1127 16.7648
L83.2080 16.7172
" />
<path d="M83.2080 16.7172
L83.2556 16.6696
" />
<path d="M83.2556 16.6696
L83.3032 16.5743
" />
<path d="M83.3032 16.5743
L83.3032 16.4791
" />
<path d="M83.3032 16.4791
L83.2556 16.3839
" />
<path d="M83.2556 16.3839
L83.2080 16.3362
" />
<path d="M83.2080 16.3362
L83.1127 16.2886
" />
<path d="M83.1127 16.2886
L82.9223 16.2410
" />
<path d="M82.9223 16.2410
L82.8270 16.1934
" />
<path d="M82.8270 16.1934
L82.7794 16.1458
" />
<path d="M82.7794 16.1458
L82.7318 16.0505
" />
<path d="M82.7318 16.0505
L82.7318 15.9553
" />
<path d="M82.7318 15.9553
L82.7794 15.8601
" />
<path d="M82.7794 15.8601
L82.8270 15.8124
" />
<path d="M82.8270 15.8124
L82.9223 15.7648
" />
<path d="M82.9223 15.7648
L83.1603 15.7648
" />
<path d="M83.1603 15.7648
L83.3032 15.8124
" />
<path d="M83.7318 16.2410
L84.0651 16.2410
" />
<path d="M84.2080 16.7648
L83.7318 16.7648
" />
<path d="M83.7318 16.7648
L83.7318 15.7648
" />
<path d="M83.7318 15.7648
L84.2080 15.7648
" />
<path d="M84.6365 16.7648
L84.6365 15.7648
" />
<path d="M84.6365 15.7648
L84.8746 15.7648
" />
<path d="M84.8746 15.7648
L85.0175 15.8124
" />
<path d="M85.0175 15.8124
L85.1127 15.9077
" />
<path d="M85.1127 15.9077
L85.1603 16.0029
" />
<path d="M85.1603 16.0029
L85.2080 16.1934
" />
<path d="M85.2080 16.1934
L85.2080 16.3362
" />
<path d="M85.2080 16.3362
L85.1603 16.5267
" />
<path d="M85.1603 16.5267
L85.1127 16.6220
" />
<path d="M85.1127 16.6220
L85.0175 16.7172
" />
<path d="M85.0175 16.7172
L84.8746 16.7648
" />
<path d="M84.8746 16.7648
L84.6365 16.7648
" />
</g><g transform="rotate(-90.000000 29.9450 74.8050)">
<text x="29.9450" y="74.8050"
textLength="3.2976" font-size="1.3333" lengthAdjust="spacingAndGlyphs"
text-anchor="start" opacity="0">GND</text>
</g>
<g class="stroked-text"><desc>GND</desc>
<path d="M28.8624 73.9444
L28.8148 74.0396
" />
<path d="M28.8148 74.0396
L28.8148 74.1825
" />
<path d="M28.8148 74.1825
L28.8624 74.3254
" />
<path d="M28.8624 74.3254
L28.9577 74.4206
" />
<path d="M28.9577 74.4206
L29.0529 74.4682
" />
<path d="M29.0529 74.4682
L29.2434 74.5158
" />
<path d="M29.2434 74.5158
L29.3862 74.5158
" />
<path d="M29.3862 74.5158
L29.5767 74.4682
" />
<path d="M29.5767 74.4682
L29.6720 74.4206
" />
<path d="M29.6720 74.4206
L29.7672 74.3254
" />
<path d="M29.7672 74.3254
L29.8148 74.1825
" />
<path d="M29.8148 74.1825
L29.8148 74.0873
" />
<path d="M29.8148 74.0873
L29.7672 73.9444
" />
<path d="M29.7672 73.9444
L29.7196 73.8968
" />
<path d="M29.7196 73.8968
L29.3862 73.8968
" />
<path d="M29.3862 73.8968
L29.3862 74.0873
" />
<path d="M29.8148 73.4682
L28.8148 73.4682
" />
<path d="M28.8148 73.4682
L29.8148 72.8968
" />
<path d="M29.8148 72.8968
L28.8148 72.8968
" />
<path d="M29.8148 72.4206
L28.8148 72.4206
" />
<path d="M28.8148 72.4206
L28.8148 72.1825
" />
<path d="M28.8148 72.1825
L28.8624 72.0396
" />
<path d="M28.8624 72.0396
L28.9577 71.9444
" />
<path d="M28.9577 71.9444
L29.0529 71.8968
" />
<path d="M29.0529 71.8968
L29.2434 71.8492
" />
<path d="M29.2434 71.8492
L29.3862 71.8492
" />
<path d="M29.3862 71.8492
L29.5767 71.8968
" />
<path d="M29.5767 71.8968
L29.6720 71.9444
" />
<path d="M29.6720 71.9444
L29.7672 72.0396
" />
<path d="M29.7672 72.0396
L29.8148 72.1825
" />
<path d="M29.8148 72.1825
L29.8148 72.4206
" />
</g><text x="0.6450" y="32.6950"
textLength="7.6786" font-size="1.3333" lengthAdjust="spacingAndGlyphs"
text-anchor="start" opacity="0">to TX LED</text>
<g class="stroked-text"><desc>to TX LED</desc>
<path d="M0.8389 31.8982
L1.2199 31.8982
" />
<path d="M0.9818 31.5648
L0.9818 32.4220
" />
<path d="M0.9818 32.4220
L1.0294 32.5172
" />
<path d="M1.0294 32.5172
L1.1246 32.5648
" />
<path d="M1.1246 32.5648
L1.2199 32.5648
" />
<path d="M1.6961 32.5648
L1.6008 32.5172
" />
<path d="M1.6008 32.5172
L1.5532 32.4696
" />
<path d="M1.5532 32.4696
L1.5056 32.3743
" />
<path d="M1.5056 32.3743
L1.5056 32.0886
" />
<path d="M1.5056 32.0886
L1.5532 31.9934
" />
<path d="M1.5532 31.9934
L1.6008 31.9458
" />
<path d="M1.6008 31.9458
L1.6961 31.8982
" />
<path d="M1.6961 31.8982
L1.8389 31.8982
" />
<path d="M1.8389 31.8982
L1.9342 31.9458
" />
<path d="M1.9342 31.9458
L1.9818 31.9934
" />
<path d="M1.9818 31.9934
L2.0294 32.0886
" />
<path d="M2.0294 32.0886
L2.0294 32.3743
" />
<path d="M2.0294 32.3743
L1.9818 32.4696
" />
<path d="M1.9818 32.4696
L1.9342 32.5172
" />
<path d="M1.9342 32.5172
L1.8389 32.5648
" />
<path d="M1.8389 32.5648
L1.6961 32.5648
" />
<path d="M3.0770 31.5648
L3.6484 31.5648
" />
<path d="M3.3627 32.5648
L3.3627 31.5648
" />
<path d="M3.8865 31.5648
L4.5532 32.5648
" />
<path d="M4.5532 31.5648
L3.8865 32.5648
" />
<path d="M6.1723 32.5648
L5.6961 32.5648
" />
<path d="M5.6961 32.5648
L5.6961 31.5648
" />
<path d="M6.5056 32.0410
L6.8389 32.0410
" />
<path d="M6.9818 32.5648
L6.5056 32.5648
" />
<path d="M6.5056 32.5648
L6.5056 31.5648
" />
<path d="M6.5056 31.5648
L6.9818 31.5648
" />
<path d="M7.4104 32.5648
L7.4104 31.5648
" />
<path d="M7.4104 31.5648
L7.6484 31.5648
" />
<path d="M7.6484 31.5648
L7.7913 31.6124
" />
<path d="M7.7913 31.6124
L7.8865 31.7077
" />
<path d="M7.8865 31.7077
L7.9342 31.8029
" />
<path d="M7.9342 31.8029
L7.9818 31.9934
" />
<path d="M7.9818 31.9934
L7.9818 32.1362
" />
<path d="M7.9818 32.1362
L7.9342 32.3267
" />
<path d="M7.9342 32.3267
L7.8865 32.4220
" />
<path d="M7.8865 32.4220
L7.7913 32.5172
" />
<path d="M7.7913 32.5172
L7.6484 32.5648
" />
<path d="M7.6484 32.5648
L7.4104 32.5648
" />
</g><text x="80.8350" y="66.2650"
textLength="4.1548" font-size="1.3333" lengthAdjust="spacingAndGlyphs"
text-anchor="start" opacity="0">BAND</text>
<g class="stroked-text"><desc>BAND</desc>
<path d="M81.5051 65.6110
L81.6480 65.6586
" />
<path d="M81.6480 65.6586
L81.6956 65.7062
" />
<path d="M81.6956 65.7062
L81.7432 65.8015
" />
<path d="M81.7432 65.8015
L81.7432 65.9443
" />
<path d="M81.7432 65.9443
L81.6956 66.0396
" />
<path d="M81.6956 66.0396
L81.6480 66.0872
" />
<path d="M81.6480 66.0872
L81.5527 66.1348
" />
<path d="M81.5527 66.1348
L81.1718 66.1348
" />
<path d="M81.1718 66.1348
L81.1718 65.1348
" />
<path d="M81.1718 65.1348
L81.5051 65.1348
" />
<path d="M81.5051 65.1348
L81.6003 65.1824
" />
<path d="M81.6003 65.1824
L81.6480 65.2301
" />
<path d="M81.6480 65.2301
L81.6956 65.3253
" />
<path d="M81.6956 65.3253
L81.6956 65.4205
" />
<path d="M81.6956 65.4205
L81.6480 65.5158
" />
<path d="M81.6480 65.5158
L81.6003 65.5634
" />
<path d="M81.6003 65.5634
L81.5051 65.6110
" />
<path d="M81.5051 65.6110
L81.1718 65.6110
" />
<path d="M82.1242 65.8491
L82.6003 65.8491
" />
<path d="M82.0289 66.1348
L82.3623 65.1348
" />
<path d="M82.3623 65.1348
L82.6956 66.1348
" />
<path d="M83.0289 66.1348
L83.0289 65.1348
" />
<path d="M83.0289 65.1348
L83.6003 66.1348
" />
<path d="M83.6003 66.1348
L83.6003 65.1348
" />
<path d="M84.0765 66.1348
L84.0765 65.1348
" />
<path d="M84.0765 65.1348
L84.3146 65.1348
" />
<path d="M84.3146 65.1348
L84.4575 65.1824
" />
<path d="M84.4575 65.1824
L84.5527 65.2777
" />
<path d="M84.5527 65.2777
L84.6003 65.3729
" />
<path d="M84.6003 65.3729
L84.6480 65.5634
" />
<path d="M84.6480 65.5634
L84.6480 65.7062
" />
<path d="M84.6480 65.7062
L84.6003 65.8967
" />
<path d="M84.6003 65.8967
L84.5527 65.9920
" />
<path d="M84.5527 65.9920
L84.4575 66.0872
" />
<path d="M84.4575 66.0872
L84.3146 66.1348
" />
<path d="M84.3146 66.1348
L84.0765 66.1348
" />
</g><text x="20.0950" y="16.2950"
textLength="6.0595" font-size="1.3333" lengthAdjust="spacingAndGlyphs"
text-anchor="start" opacity="0">TXMODE</text>
<g class="stroked-text"><desc>TXMODE</desc>
<path d="M20.2889 15.1648
L20.8604 15.1648
" />
<path d="M20.5746 16.1648
L20.5746 15.1648
" />
<path d="M21.0984 15.1648
L21.7651 16.1648
" />
<path d="M21.7651 15.1648
L21.0984 16.1648
" />
<path d="M22.1461 16.1648
L22.1461 15.1648
" />
<path d="M22.1461 15.1648
L22.4794 15.8791
" />
<path d="M22.4794 15.8791
L22.8127 15.1648
" />
<path d="M22.8127 15.1648
L22.8127 16.1648
" />
<path d="M23.4794 15.1648
L23.6699 15.1648
" />
<path d="M23.6699 15.1648
L23.7651 15.2124
" />
<path d="M23.7651 15.2124
L23.8604 15.3077
" />
<path d="M23.8604 15.3077
L23.9080 15.4982
" />
<path d="M23.9080 15.4982
L23.9080 15.8315
" />
<path d="M23.9080 15.8315
L23.8604 16.0220
" />
<path d="M23.8604 16.0220
L23.7651 16.1172
" />
<path d="M23.7651 16.1172
L23.6699 16.1648
" />
<path d="M23.6699 16.1648
L23.4794 16.1648
" />
<path d="M23.4794 16.1648
L23.3842 16.1172
" />
<path d="M23.3842 16.1172
L23.2889 16.0220
" />
<path d="M23.2889 16.0220
L23.2413 15.8315
" />
<path d="M23.2413 15.8315
L23.2413 15.4982
" />
<path d="M23.2413 15.4982
L23.2889 15.3077
" />
<path d="M23.2889 15.3077
L23.3842 15.2124
" />
<path d="M23.3842 15.2124
L23.4794 15.1648
" />
<path d="M24.3365 16.1648
L24.3365 15.1648
" />
<path d="M24.3365 15.1648
L24.5746 15.1648
" />
<path d="M24.5746 15.1648
L24.7175 15.2124
" />
<path d="M24.7175 15.2124
L24.8127 15.3077
" />
<path d="M24.8127 15.3077
L24.8604 15.4029
" />
<path d="M24.8604 15.4029
L24.9080 15.5934
" />
<path d="M24.9080 15.5934
L24.9080 15.7362
" />
<path d="M24.9080 15.7362
L24.8604 15.9267
" />
<path d="M24.8604 15.9267
L24.8127 16.0220
" />
<path d="M24.8127 16.0220
L24.7175 16.1172
" />
<path d="M24.7175 16.1172
L24.5746 16.1648
" />
<path d="M24.5746 16.1648
L24.3365 16.1648
" />
<path d="M25.3365 15.6410
L25.6699 15.6410
" />
<path d="M25.8127 16.1648
L25.3365 16.1648
" />
<path d="M25.3365 16.1648
L25.3365 15.1648
" />
<path d="M25.3365 15.1648
L25.8127 15.1648
" />
</g><text x="20.5550" y="41.1450"
textLength="4.0119" font-size="1.3333" lengthAdjust="spacingAndGlyphs"
text-anchor="start" opacity="0">SPOT</text>
<g class="stroked-text"><desc>SPOT</desc>
<path d="M20.8442 40.9672
L20.9870 41.0148
" />
<path d="M20.9870 41.0148
L21.2251 41.0148
" />
<path d="M21.2251 41.0148
L21.3203 40.9672
" />
<path d="M21.3203 40.9672
L21.3680 40.9196
" />
<path d="M21.3680 40.9196
L21.4156 40.8243
" />
<path d="M21.4156 40.8243
L21.4156 40.7291
" />
<path d="M21.4156 40.7291
L21.3680 40.6339
" />
<path d="M21.3680 40.6339
L21.3203 40.5862
" />
<path d="M21.3203 40.5862
L21.2251 40.5386
" />
<path d="M21.2251 40.5386
L21.0346 40.4910
" />
<path d="M21.0346 40.4910
L20.9394 40.4434
" />
<path d="M20.9394 40.4434
L20.8918 40.3958
" />
<path d="M20.8918 40.3958
L20.8442 40.3005
" />
<path d="M20.8442 40.3005
L20.8442 40.2053
" />
<path d="M20.8442 40.2053
L20.8918 40.1101
" />
<path d="M20.8918 40.1101
L20.9394 40.0624
" />
<path d="M20.9394 40.0624
L21.0346 40.0148
" />
<path d="M21.0346 40.0148
L21.2727 40.0148
" />
<path d="M21.2727 40.0148
L21.4156 40.0624
" />
<path d="M21.8442 41.0148
L21.8442 40.0148
" />
<path d="M21.8442 40.0148
L22.2251 40.0148
" />
<path d="M22.2251 40.0148
L22.3203 40.0624
" />
<path d="M22.3203 40.0624
L22.3680 40.1101
" />
<path d="M22.3680 40.1101
L22.4156 40.2053
" />
<path d="M22.4156 40.2053
L22.4156 40.3482
" />
<path d="M22.4156 40.3482
L22.3680 40.4434
" />
<path d="M22.3680 40.4434
L22.3203 40.4910
" />
<path d="M22.3203 40.4910
L22.2251 40.5386
" />
<path d="M22.2251 40.5386
L21.8442 40.5386
" />
<path d="M23.0346 40.0148
L23.2251 40.0148
" />
<path d="M23.2251 40.0148
L23.3203 40.0624
" />
<path d="M23.3203 40.0624
L23.4156 40.1577
" />
<path d="M23.4156 40.1577
L23.4632 40.3482
" />
<path d="M23.4632 40.3482
L23.4632 40.6815
" />
<path d="M23.4632 40.6815
L23.4156 40.8720
" />
<path d="M23.4156 40.8720
L23.3203 40.9672
" />
<path d="M23.3203 40.9672
L23.2251 41.0148
" />
<path d="M23.2251 41.0148
L23.0346 41.0148
" />
<path d="M23.0346 41.0148
L22.9394 40.9672
" />
<path d="M22.9394 40.9672
L22.8442 40.8720
" />
<path d="M22.8442 40.8720
L22.7965 40.6815
" />
<path d="M22.7965 40.6815
L22.7965 40.3482
" />
<path d="M22.7965 40.3482
L22.8442 40.1577
" />
<path d="M22.8442 40.1577
L22.9394 40.0624
" />
<path d="M22.9394 40.0624
L23.0346 40.0148
" />
<path d="M23.7489 40.0148
L24.3203 40.0148
" />
<path d="M24.0346 41.0148
L24.0346 40.0148
" />
</g><text x="21.7050" y="66.4050"
textLength="4.1071" font-size="1.3333" lengthAdjust="spacingAndGlyphs"
text-anchor="start" opacity="0">MUTE</text>
<g class="stroked-text"><desc>MUTE</desc>
<path d="M22.0418 66.2748
L22.0418 65.2748
" />
<path d="M22.0418 65.2748
L22.3751 65.9891
" />
<path d="M22.3751 65.9891
L22.7084 65.2748
" />
<path d="M22.7084 65.2748
L22.7084 66.2748
" />
<path d="M23.1846 65.2748
L23.1846 66.0843
" />
<path d="M23.1846 66.0843
L23.2323 66.1796
" />
<path d="M23.2323 66.1796
L23.2799 66.2272
" />
<path d="M23.2799 66.2272
L23.3751 66.2748
" />
<path d="M23.3751 66.2748
L23.5656 66.2748
" />
<path d="M23.5656 66.2748
L23.6608 66.2272
" />
<path d="M23.6608 66.2272
L23.7084 66.1796
" />
<path d="M23.7084 66.1796
L23.7561 66.0843
" />
<path d="M23.7561 66.0843
L23.7561 65.2748
" />
<path d="M24.0894 65.2748
L24.6608 65.2748
" />
<path d="M24.3751 66.2748
L24.3751 65.2748
" />
<path d="M24.9942 65.7510
L25.3275 65.7510
" />
<path d="M25.4703 66.2748
L24.9942 66.2748
" />
<path d="M24.9942 66.2748
L24.9942 65.2748
" />
<path d="M24.9942 65.2748
L25.4703 65.2748
" />
</g><text x="51.7650" y="41.2850"
textLength="4.3929" font-size="1.3333" lengthAdjust="spacingAndGlyphs"
text-anchor="start" opacity="0">MENU</text>
<g class="stroked-text"><desc>MENU</desc>
<path d="M52.1018 41.1548
L52.1018 40.1548
" />
<path d="M52.1018 40.1548
L52.4351 40.8691
" />
<path d="M52.4351 40.8691
L52.7684 40.1548
" />
<path d="M52.7684 40.1548
L52.7684 41.1548
" />
<path d="M53.2446 40.6310
L53.5780 40.6310
" />
<path d="M53.7208 41.1548
L53.2446 41.1548
" />
<path d="M53.2446 41.1548
L53.2446 40.1548
" />
<path d="M53.2446 40.1548
L53.7208 40.1548
" />
<path d="M54.1494 41.1548
L54.1494 40.1548
" />
<path d="M54.1494 40.1548
L54.7208 41.1548
" />
<path d="M54.7208 41.1548
L54.7208 40.1548
" />
<path d="M55.1970 40.1548
L55.1970 40.9643
" />
<path d="M55.1970 40.9643
L55.2446 41.0596
" />
<path d="M55.2446 41.0596
L55.2923 41.1072
" />
<path d="M55.2923 41.1072
L55.3875 41.1548
" />
<path d="M55.3875 41.1548
L55.5780 41.1548
" />
<path d="M55.5780 41.1548
L55.6732 41.1072
" />
<path d="M55.6732 41.1072
L55.7208 41.0596
" />
<path d="M55.7208 41.0596
L55.7684 40.9643
" />
<path d="M55.7684 40.9643
L55.7684 40.1548
" />
</g><text x="8.4850" y="25.8350"
textLength="9.8690" font-size="1.3333" lengthAdjust="spacingAndGlyphs"
text-anchor="start" opacity="0">anode (+5V)</text>
<g class="stroked-text"><desc>anode (+5V)</desc>
<path d="M9.2503 25.7048
L9.2503 25.1810
" />
<path d="M9.2503 25.1810
L9.2027 25.0858
" />
<path d="M9.2027 25.0858
L9.1075 25.0382
" />
<path d="M9.1075 25.0382
L8.9170 25.0382
" />
<path d="M8.9170 25.0382
L8.8218 25.0858
" />
<path d="M9.2503 25.6572
L9.1551 25.7048
" />
<path d="M9.1551 25.7048
L8.9170 25.7048
" />
<path d="M8.9170 25.7048
L8.8218 25.6572
" />
<path d="M8.8218 25.6572
L8.7742 25.5620
" />
<path d="M8.7742 25.5620
L8.7742 25.4667
" />
<path d="M8.7742 25.4667
L8.8218 25.3715
" />
<path d="M8.8218 25.3715
L8.9170 25.3239
" />
<path d="M8.9170 25.3239
L9.1551 25.3239
" />
<path d="M9.1551 25.3239
L9.2503 25.2762
" />
<path d="M9.7265 25.0382
L9.7265 25.7048
" />
<path d="M9.7265 25.1334
L9.7742 25.0858
" />
<path d="M9.7742 25.0858
L9.8694 25.0382
" />
<path d="M9.8694 25.0382
L10.0123 25.0382
" />
<path d="M10.0123 25.0382
L10.1075 25.0858
" />
<path d="M10.1075 25.0858
L10.1551 25.1810
" />
<path d="M10.1551 25.1810
L10.1551 25.7048
" />
<path d="M10.7742 25.7048
L10.6789 25.6572
" />
<path d="M10.6789 25.6572
L10.6313 25.6096
" />
<path d="M10.6313 25.6096
L10.5837 25.5143
" />
<path d="M10.5837 25.5143
L10.5837 25.2286
" />
<path d="M10.5837 25.2286
L10.6313 25.1334
" />
<path d="M10.6313 25.1334
L10.6789 25.0858
" />
<path d="M10.6789 25.0858
L10.7742 25.0382
" />
<path d="M10.7742 25.0382
L10.9170 25.0382
" />
<path d="M10.9170 25.0382
L11.0123 25.0858
" />
<path d="M11.0123 25.0858
L11.0599 25.1334
" />
<path d="M11.0599 25.1334
L11.1075 25.2286
" />
<path d="M11.1075 25.2286
L11.1075 25.5143
" />
<path d="M11.1075 25.5143
L11.0599 25.6096
" />
<path d="M11.0599 25.6096
L11.0123 25.6572
" />
<path d="M11.0123 25.6572
L10.9170 25.7048
" />
<path d="M10.9170 25.7048
L10.7742 25.7048
" />
<path d="M11.9646 25.7048
L11.9646 24.7048
" />
<path d="M11.9646 25.6572
L11.8694 25.7048
" />
<path d="M11.8694 25.7048
L11.6789 25.7048
" />
<path d="M11.6789 25.7048
L11.5837 25.6572
" />
<path d="M11.5837 25.6572
L11.5361 25.6096
" />
<path d="M11.5361 25.6096
L11.4884 25.5143
" />
<path d="M11.4884 25.5143
L11.4884 25.2286
" />
<path d="M11.4884 25.2286
L11.5361 25.1334
" />
<path d="M11.5361 25.1334
L11.5837 25.0858
" />
<path d="M11.5837 25.0858
L11.6789 25.0382
" />
<path d="M11.6789 25.0382
L11.8694 25.0382
" />
<path d="M11.8694 25.0382
L11.9646 25.0858
" />
<path d="M12.8218 25.6572
L12.7265 25.7048
" />
<path d="M12.7265 25.7048
L12.5361 25.7048
" />
<path d="M12.5361 25.7048
L12.4408 25.6572
" />
<path d="M12.4408 25.6572
L12.3932 25.5620
" />
<path d="M12.3932 25.5620
L12.3932 25.1810
" />
<path d="M12.3932 25.1810
L12.4408 25.0858
" />
<path d="M12.4408 25.0858
L12.5361 25.0382
" />
<path d="M12.5361 25.0382
L12.7265 25.0382
" />
<path d="M12.7265 25.0382
L12.8218 25.0858
" />
<path d="M12.8218 25.0858
L12.8694 25.1810
" />
<path d="M12.8694 25.1810
L12.8694 25.2762
" />
<path d="M12.8694 25.2762
L12.3932 25.3715
" />
<path d="M14.3456 26.0858
L14.2980 26.0382
" />
<path d="M14.2980 26.0382
L14.2027 25.8953
" />
<path d="M14.2027 25.8953
L14.1551 25.8001
" />
<path d="M14.1551 25.8001
L14.1075 25.6572
" />
<path d="M14.1075 25.6572
L14.0599 25.4191
" />
<path d="M14.0599 25.4191
L14.0599 25.2286
" />
<path d="M14.0599 25.2286
L14.1075 24.9905
" />
<path d="M14.1075 24.9905
L14.1551 24.8477
" />
<path d="M14.1551 24.8477
L14.2027 24.7524
" />
<path d="M14.2027 24.7524
L14.2980 24.6096
" />
<path d="M14.2980 24.6096
L14.3456 24.5620
" />
<path d="M14.7265 25.3239
L15.4884 25.3239
" />
<path d="M15.1075 25.7048
L15.1075 24.9429
" />
<path d="M16.4408 24.7048
L15.9646 24.7048
" />
<path d="M15.9646 24.7048
L15.9170 25.1810
" />
<path d="M15.9170 25.1810
L15.9646 25.1334
" />
<path d="M15.9646 25.1334
L16.0599 25.0858
" />
<path d="M16.0599 25.0858
L16.2980 25.0858
" />
<path d="M16.2980 25.0858
L16.3932 25.1334
" />
<path d="M16.3932 25.1334
L16.4408 25.1810
" />
<path d="M16.4408 25.1810
L16.4884 25.2762
" />
<path d="M16.4884 25.2762
L16.4884 25.5143
" />
<path d="M16.4884 25.5143
L16.4408 25.6096
" />
<path d="M16.4408 25.6096
L16.3932 25.6572
" />
<path d="M16.3932 25.6572
L16.2980 25.7048
" />
<path d="M16.2980 25.7048
L16.0599 25.7048
" />
<path d="M16.0599 25.7048
L15.9646 25.6572
" />
<path d="M15.9646 25.6572
L15.9170 25.6096
" />
<path d="M16.7742 24.7048
L17.1075 25.7048
" />
<path d="M17.1075 25.7048
L17.4408 24.7048
" />
<path d="M17.6789 26.0858
L17.7265 26.0382
" />
<path d="M17.7265 26.0382
L17.8218 25.8953
" />
<path d="M17.8218 25.8953
L17.8694 25.8001
" />
<path d="M17.8694 25.8001
L17.9170 25.6572
" />
<path d="M17.9170 25.6572
L17.9646 25.4191
" />
<path d="M17.9646 25.4191
L17.9646 25.2286
" />
<path d="M17.9646 25.2286
L17.9170 24.9905
" />
<path d="M17.9170 24.9905
L17.8694 24.8477
" />
<path d="M17.8694 24.8477
L17.8218 24.7524
" />
<path d="M17.8218 24.7524
L17.7265 24.6096
" />
<path d="M17.7265 24.6096
L17.6789 24.5620
" />
</g><text x="8.6450" y="28.3750"
textLength="6.1548" font-size="1.3333" lengthAdjust="spacingAndGlyphs"
text-anchor="start" opacity="0">cathode</text>
<g class="stroked-text"><desc>cathode</desc>
<path d="M9.4103 28.1972
L9.3151 28.2448
" />
<path d="M9.3151 28.2448
L9.1246 28.2448
" />
<path d="M9.1246 28.2448
L9.0294 28.1972
" />
<path d="M9.0294 28.1972
L8.9818 28.1496
" />
<path d="M8.9818 28.1496
L8.9342 28.0543
" />
<path d="M8.9342 28.0543
L8.9342 27.7686
" />
<path d="M8.9342 27.7686
L8.9818 27.6734
" />
<path d="M8.9818 27.6734
L9.0294 27.6258
" />
<path d="M9.0294 27.6258
L9.1246 27.5782
" />
<path d="M9.1246 27.5782
L9.3151 27.5782
" />
<path d="M9.3151 27.5782
L9.4103 27.6258
" />
<path d="M10.2675 28.2448
L10.2675 27.7210
" />
<path d="M10.2675 27.7210
L10.2199 27.6258
" />
<path d="M10.2199 27.6258
L10.1246 27.5782
" />
<path d="M10.1246 27.5782
L9.9342 27.5782
" />
<path d="M9.9342 27.5782
L9.8389 27.6258
" />
<path d="M10.2675 28.1972
L10.1723 28.2448
" />
<path d="M10.1723 28.2448
L9.9342 28.2448
" />
<path d="M9.9342 28.2448
L9.8389 28.1972
" />
<path d="M9.8389 28.1972
L9.7913 28.1020
" />
<path d="M9.7913 28.1020
L9.7913 28.0067
" />
<path d="M9.7913 28.0067
L9.8389 27.9115
" />
<path d="M9.8389 27.9115
L9.9342 27.8639
" />
<path d="M9.9342 27.8639
L10.1723 27.8639
" />
<path d="M10.1723 27.8639
L10.2675 27.8162
" />
<path d="M10.6008 27.5782
L10.9818 27.5782
" />
<path d="M10.7437 27.2448
L10.7437 28.1020
" />
<path d="M10.7437 28.1020
L10.7913 28.1972
" />
<path d="M10.7913 28.1972
L10.8865 28.2448
" />
<path d="M10.8865 28.2448
L10.9818 28.2448
" />
<path d="M11.3151 28.2448
L11.3151 27.2448
" />
<path d="M11.7437 28.2448
L11.7437 27.7210
" />
<path d="M11.7437 27.7210
L11.6961 27.6258
" />
<path d="M11.6961 27.6258
L11.6008 27.5782
" />
<path d="M11.6008 27.5782
L11.4580 27.5782
" />
<path d="M11.4580 27.5782
L11.3627 27.6258
" />
<path d="M11.3627 27.6258
L11.3151 27.6734
" />
<path d="M12.3627 28.2448
L12.2675 28.1972
" />
<path d="M12.2675 28.1972
L12.2199 28.1496
" />
<path d="M12.2199 28.1496
L12.1723 28.0543
" />
<path d="M12.1723 28.0543
L12.1723 27.7686
" />
<path d="M12.1723 27.7686
L12.2199 27.6734
" />
<path d="M12.2199 27.6734
L12.2675 27.6258
" />
<path d="M12.2675 27.6258
L12.3627 27.5782
" />
<path d="M12.3627 27.5782
L12.5056 27.5782
" />
<path d="M12.5056 27.5782
L12.6008 27.6258
" />
<path d="M12.6008 27.6258
L12.6484 27.6734
" />
<path d="M12.6484 27.6734
L12.6961 27.7686
" />
<path d="M12.6961 27.7686
L12.6961 28.0543
" />
<path d="M12.6961 28.0543
L12.6484 28.1496
" />
<path d="M12.6484 28.1496
L12.6008 28.1972
" />
<path d="M12.6008 28.1972
L12.5056 28.2448
" />
<path d="M12.5056 28.2448
L12.3627 28.2448
" />
<path d="M13.5532 28.2448
L13.5532 27.2448
" />
<path d="M13.5532 28.1972
L13.4580 28.2448
" />
<path d="M13.4580 28.2448
L13.2675 28.2448
" />
<path d="M13.2675 28.2448
L13.1723 28.1972
" />
<path d="M13.1723 28.1972
L13.1246 28.1496
" />
<path d="M13.1246 28.1496
L13.0770 28.0543
" />
<path d="M13.0770 28.0543
L13.0770 27.7686
" />
<path d="M13.0770 27.7686
L13.1246 27.6734
" />
<path d="M13.1246 27.6734
L13.1723 27.6258
" />
<path d="M13.1723 27.6258
L13.2675 27.5782
" />
<path d="M13.2675 27.5782
L13.4580 27.5782
" />
<path d="M13.4580 27.5782
L13.5532 27.6258
" />
<path d="M14.4104 28.1972
L14.3151 28.2448
" />
<path d="M14.3151 28.2448
L14.1246 28.2448
" />
<path d="M14.1246 28.2448
L14.0294 28.1972
" />
<path d="M14.0294 28.1972
L13.9818 28.1020
" />
<path d="M13.9818 28.1020
L13.9818 27.7210
" />
<path d="M13.9818 27.7210
L14.0294 27.6258
" />
<path d="M14.0294 27.6258
L14.1246 27.5782
" />
<path d="M14.1246 27.5782
L14.3151 27.5782
" />
<path d="M14.3151 27.5782
L14.4104 27.6258
" />
<path d="M14.4104 27.6258
L14.4580 27.7210
" />
<path d="M14.4580 27.7210
L14.4580 27.8162
" />
<path d="M14.4580 27.8162
L13.9818 27.9115
" />
</g><text x="80.5650" y="41.1050"
textLength="5.0595" font-size="1.3333" lengthAdjust="spacingAndGlyphs"
text-anchor="start" opacity="0">FILTER</text>
<g class="stroked-text"><desc>FILTER</desc>
<path d="M81.2351 40.4510
L80.9018 40.4510
" />
<path d="M80.9018 40.9748
L80.9018 39.9748
" />
<path d="M80.9018 39.9748
L81.3780 39.9748
" />
<path d="M81.7589 40.9748
L81.7589 39.9748
" />
<path d="M82.7113 40.9748
L82.2351 40.9748
" />
<path d="M82.2351 40.9748
L82.2351 39.9748
" />
<path d="M82.9018 39.9748
L83.4732 39.9748
" />
<path d="M83.1875 40.9748
L83.1875 39.9748
" />
<path d="M83.8065 40.4510
L84.1399 40.4510
" />
<path d="M84.2827 40.9748
L83.8065 40.9748
" />
<path d="M83.8065 40.9748
L83.8065 39.9748
" />
<path d="M83.8065 39.9748
L84.2827 39.9748
" />
<path d="M85.2827 40.9748
L84.9494 40.4986
" />
<path d="M84.7113 40.9748
L84.7113 39.9748
" />
<path d="M84.7113 39.9748
L85.0923 39.9748
" />
<path d="M85.0923 39.9748
L85.1875 40.0224
" />
<path d="M85.1875 40.0224
L85.2351 40.0701
" />
<path d="M85.2351 40.0701
L85.2827 40.1653
" />
<path d="M85.2827 40.1653
L85.2827 40.3082
" />
<path d="M85.2827 40.3082
L85.2351 40.4034
" />
<path d="M85.2351 40.4034
L85.1875 40.4510
" />
<path d="M85.1875 40.4510
L85.0923 40.4986
" />
<path d="M85.0923 40.4986
L84.7113 40.4986
" />
</g><text x="9.0650" y="4.1150"
textLength="2.2500" font-size="1.3333" lengthAdjust="spacingAndGlyphs"
text-anchor="middle" opacity="0">H3</text>
<g class="stroked-text"><desc>H3</desc>
<path d="M8.3031 4.0698
L8.3031 3.0698
" />
<path d="M8.3031 3.5460
L8.8745 3.5460
" />
<path d="M8.8745 4.0698
L8.8745 3.0698
" />
<path d="M9.2555 3.0698
L9.8745 3.0698
" />
<path d="M9.8745 3.0698
L9.5412 3.4508
" />
<path d="M9.5412 3.4508
L9.6840 3.4508
" />
<path d="M9.6840 3.4508
L9.7793 3.4984
" />
<path d="M9.7793 3.4984
L9.8269 3.5460
" />
<path d="M9.8269 3.5460
L9.8745 3.6412
" />
<path d="M9.8745 3.6412
L9.8745 3.8793
" />
<path d="M9.8745 3.8793
L9.8269 3.9746
" />
<path d="M9.8269 3.9746
L9.7793 4.0222
" />
<path d="M9.7793 4.0222
L9.6840 4.0698
" />
<path d="M9.6840 4.0698
L9.3983 4.0698
" />
<path d="M9.3983 4.0698
L9.3031 4.0222
" />
<path d="M9.3031 4.0222
L9.2555 3.9746
" />
</g><text x="13.0550" y="34.0150"
textLength="3.2976" font-size="1.3333" lengthAdjust="spacingAndGlyphs"
text-anchor="middle" opacity="0">SW1</text>
<g class="stroked-text"><desc>SW1</desc>
<path d="M11.7217 33.9222
L11.8645 33.9698
" />
<path d="M11.8645 33.9698
L12.1026 33.9698
" />
<path d="M12.1026 33.9698
L12.1979 33.9222
" />
<path d="M12.1979 33.9222
L12.2455 33.8746
" />
<path d="M12.2455 33.8746
L12.2931 33.7793
" />
<path d="M12.2931 33.7793
L12.2931 33.6841
" />
<path d="M12.2931 33.6841
L12.2455 33.5889
" />
<path d="M12.2455 33.5889
L12.1979 33.5412
" />
<path d="M12.1979 33.5412
L12.1026 33.4936
" />
<path d="M12.1026 33.4936
L11.9121 33.4460
" />
<path d="M11.9121 33.4460
L11.8169 33.3984
" />
<path d="M11.8169 33.3984
L11.7693 33.3508
" />
<path d="M11.7693 33.3508
L11.7217 33.2555
" />
<path d="M11.7217 33.2555
L11.7217 33.1603
" />
<path d="M11.7217 33.1603
L11.7693 33.0651
" />
<path d="M11.7693 33.0651
L11.8169 33.0174
" />
<path d="M11.8169 33.0174
L11.9121 32.9698
" />
<path d="M11.9121 32.9698
L12.1502 32.9698
" />
<path d="M12.1502 32.9698
L12.2931 33.0174
" />
<path d="M12.6264 32.9698
L12.8645 33.9698
" />
<path d="M12.8645 33.9698
L13.0550 33.2555
" />
<path d="M13.0550 33.2555
L13.2455 33.9698
" />
<path d="M13.2455 33.9698
L13.4836 32.9698
" />
<path d="M14.3883 33.9698
L13.8169 33.9698
" />
<path d="M14.1026 33.9698
L14.1026 32.9698
" />
<path d="M14.1026 32.9698
L14.0074 33.1127
" />
<path d="M14.0074 33.1127
L13.9121 33.2079
" />
<path d="M13.9121 33.2079
L13.8169 33.2555
" />
</g><text x="2.4650" y="73.5550"
textLength="2.2500" font-size="1.3333" lengthAdjust="spacingAndGlyphs"
text-anchor="middle" opacity="0">H4</text>
<g class="stroked-text"><desc>H4</desc>
<path d="M1.7031 73.5098
L1.7031 72.5098
" />
<path d="M1.7031 72.9860
L2.2745 72.9860
" />
<path d="M2.2745 73.5098
L2.2745 72.5098
" />
<path d="M3.1793 72.8432
L3.1793 73.5098
" />
<path d="M2.9412 72.4622
L2.7031 73.1765
" />
<path d="M2.7031 73.1765
L3.3221 73.1765
" />
</g><text x="79.4950" y="74.3750"
textLength="2.2500" font-size="1.3333" lengthAdjust="spacingAndGlyphs"
text-anchor="middle" opacity="0">H1</text>
<g class="stroked-text"><desc>H1</desc>
<path d="M78.7331 74.3298
L78.7331 73.3298
" />
<path d="M78.7331 73.8060
L79.3045 73.8060
" />
<path d="M79.3045 74.3298
L79.3045 73.3298
" />
<path d="M80.3045 74.3298
L79.7331 74.3298
" />
<path d="M80.0188 74.3298
L80.0188 73.3298
" />
<path d="M80.0188 73.3298
L79.9236 73.4727
" />
<path d="M79.9236 73.4727
L79.8283 73.5679
" />
<path d="M79.8283 73.5679
L79.7331 73.6155
" />
</g><text x="2.3900" y="30.6550"
textLength="1.9643" font-size="1.3333" lengthAdjust="spacingAndGlyphs"
text-anchor="middle" opacity="0">J2</text>
<g class="stroked-text"><desc>J2</desc>
<path d="M2.0567 29.6098
L2.0567 30.3241
" />
<path d="M2.0567 30.3241
L2.0090 30.4670
" />
<path d="M2.0090 30.4670
L1.9138 30.5622
" />
<path d="M1.9138 30.5622
L1.7710 30.6098
" />
<path d="M1.7710 30.6098
L1.6757 30.6098
" />
<path d="M2.4852 29.7051
L2.5329 29.6574
" />
<path d="M2.5329 29.6574
L2.6281 29.6098
" />
<path d="M2.6281 29.6098
L2.8662 29.6098
" />
<path d="M2.8662 29.6098
L2.9614 29.6574
" />
<path d="M2.9614 29.6574
L3.0090 29.7051
" />
<path d="M3.0090 29.7051
L3.0567 29.8003
" />
<path d="M3.0567 29.8003
L3.0567 29.8955
" />
<path d="M3.0567 29.8955
L3.0090 30.0384
" />
<path d="M3.0090 30.0384
L2.4376 30.6098
" />
<path d="M2.4376 30.6098
L3.0567 30.6098
" />
</g><text x="79.3950" y="2.8850"
textLength="2.2500" font-size="1.3333" lengthAdjust="spacingAndGlyphs"
text-anchor="middle" opacity="0">H2</text>
<g class="stroked-text"><desc>H2</desc>
<path d="M78.6331 2.8398
L78.6331 1.8398
" />
<path d="M78.6331 2.3160
L79.2045 2.3160
" />
<path d="M79.2045 2.8398
L79.2045 1.8398
" />
<path d="M79.6331 1.9351
L79.6807 1.8874
" />
<path d="M79.6807 1.8874
L79.7760 1.8398
" />
<path d="M79.7760 1.8398
L80.0140 1.8398
" />
<path d="M80.0140 1.8398
L80.1093 1.8874
" />
<path d="M80.1093 1.8874
L80.1569 1.9351
" />
<path d="M80.1569 1.9351
L80.2045 2.0303
" />
<path d="M80.2045 2.0303
L80.2045 2.1255
" />
<path d="M80.2045 2.1255
L80.1569 2.2684
" />
<path d="M80.1569 2.2684
L79.5855 2.8398
" />
<path d="M79.5855 2.8398
L80.2045 2.8398
" />
</g><text x="43.0550" y="59.0150"
textLength="3.2976" font-size="1.3333" lengthAdjust="spacingAndGlyphs"
text-anchor="middle" opacity="0">SW3</text>
<g class="stroked-text"><desc>SW3</desc>
<path d="M41.7217 58.9222
L41.8645 58.9698
" />
<path d="M41.8645 58.9698
L42.1026 58.9698
" />
<path d="M42.1026 58.9698
L42.1979 58.9222
" />
<path d="M42.1979 58.9222
L42.2455 58.8746
" />
<path d="M42.2455 58.8746
L42.2931 58.7793
" />
<path d="M42.2931 58.7793
L42.2931 58.6841
" />
<path d="M42.2931 58.6841
L42.2455 58.5889
" />
<path d="M42.2455 58.5889
L42.1979 58.5412
" />
<path d="M42.1979 58.5412
L42.1026 58.4936
" />
<path d="M42.1026 58.4936
L41.9121 58.4460
" />
<path d="M41.9121 58.4460
L41.8169 58.3984
" />
<path d="M41.8169 58.3984
L41.7693 58.3508
" />
<path d="M41.7693 58.3508
L41.7217 58.2555
" />
<path d="M41.7217 58.2555
L41.7217 58.1603
" />
<path d="M41.7217 58.1603
L41.7693 58.0651
" />
<path d="M41.7693 58.0651
L41.8169 58.0174
" />
<path d="M41.8169 58.0174
L41.9121 57.9698
" />
<path d="M41.9121 57.9698
L42.1502 57.9698
" />
<path d="M42.1502 57.9698
L42.2931 58.0174
" />
<path d="M42.6264 57.9698
L42.8645 58.9698
" />
<path d="M42.8645 58.9698
L43.0550 58.2555
" />
<path d="M43.0550 58.2555
L43.2455 58.9698
" />
<path d="M43.2455 58.9698
L43.4836 57.9698
" />
<path d="M43.7693 57.9698
L44.3883 57.9698
" />
<path d="M44.3883 57.9698
L44.0550 58.3508
" />
<path d="M44.0550 58.3508
L44.1979 58.3508
" />
<path d="M44.1979 58.3508
L44.2931 58.3984
" />
<path d="M44.2931 58.3984
L44.3407 58.4460
" />
<path d="M44.3407 58.4460
L44.3883 58.5412
" />
<path d="M44.3883 58.5412
L44.3883 58.7793
" />
<path d="M44.3883 58.7793
L44.3407 58.8746
" />
<path d="M44.3407 58.8746
L44.2931 58.9222
" />
<path d="M44.2931 58.9222
L44.1979 58.9698
" />
<path d="M44.1979 58.9698
L43.9121 58.9698
" />
<path d="M43.9121 58.9698
L43.8169 58.9222
" />
<path d="M43.8169 58.9222
L43.7693 58.8746
" />
</g><text x="13.0550" y="59.0150"
textLength="3.2976" font-size="1.3333" lengthAdjust="spacingAndGlyphs"
text-anchor="middle" opacity="0">SW2</text>
<g class="stroked-text"><desc>SW2</desc>
<path d="M11.7217 58.9222
L11.8645 58.9698
" />
<path d="M11.8645 58.9698
L12.1026 58.9698
" />
<path d="M12.1026 58.9698
L12.1979 58.9222
" />
<path d="M12.1979 58.9222
L12.2455 58.8746
" />
<path d="M12.2455 58.8746
L12.2931 58.7793
" />
<path d="M12.2931 58.7793
L12.2931 58.6841
" />
<path d="M12.2931 58.6841
L12.2455 58.5889
" />
<path d="M12.2455 58.5889
L12.1979 58.5412
" />
<path d="M12.1979 58.5412
L12.1026 58.4936
" />
<path d="M12.1026 58.4936
L11.9121 58.4460
" />
<path d="M11.9121 58.4460
L11.8169 58.3984
" />
<path d="M11.8169 58.3984
L11.7693 58.3508
" />
<path d="M11.7693 58.3508
L11.7217 58.2555
" />
<path d="M11.7217 58.2555
L11.7217 58.1603
" />
<path d="M11.7217 58.1603
L11.7693 58.0651
" />
<path d="M11.7693 58.0651
L11.8169 58.0174
" />
<path d="M11.8169 58.0174
L11.9121 57.9698
" />
<path d="M11.9121 57.9698
L12.1502 57.9698
" />
<path d="M12.1502 57.9698
L12.2931 58.0174
" />
<path d="M12.6264 57.9698
L12.8645 58.9698
" />
<path d="M12.8645 58.9698
L13.0550 58.2555
" />
<path d="M13.0550 58.2555
L13.2455 58.9698
" />
<path d="M13.2455 58.9698
L13.4836 57.9698
" />
<path d="M13.8169 58.0651
L13.8645 58.0174
" />
<path d="M13.8645 58.0174
L13.9598 57.9698
" />
<path d="M13.9598 57.9698
L14.1979 57.9698
" />
<path d="M14.1979 57.9698
L14.2931 58.0174
" />
<path d="M14.2931 58.0174
L14.3407 58.0651
" />
<path d="M14.3407 58.0651
L14.3883 58.1603
" />
<path d="M14.3883 58.1603
L14.3883 58.2555
" />
<path d="M14.3883 58.2555
L14.3407 58.3984
" />
<path d="M14.3407 58.3984
L13.7693 58.9698
" />
<path d="M13.7693 58.9698
L14.3883 58.9698
" />
</g><text x="73.0550" y="34.0150"
textLength="3.2976" font-size="1.3333" lengthAdjust="spacingAndGlyphs"
text-anchor="middle" opacity="0">SW7</text>
<g class="stroked-text"><desc>SW7</desc>
<path d="M71.7217 33.9222
L71.8645 33.9698
" />
<path d="M71.8645 33.9698
L72.1026 33.9698
" />
<path d="M72.1026 33.9698
L72.1979 33.9222
" />
<path d="M72.1979 33.9222
L72.2455 33.8746
" />
<path d="M72.2455 33.8746
L72.2931 33.7793
" />
<path d="M72.2931 33.7793
L72.2931 33.6841
" />
<path d="M72.2931 33.6841
L72.2455 33.5889
" />
<path d="M72.2455 33.5889
L72.1979 33.5412
" />
<path d="M72.1979 33.5412
L72.1026 33.4936
" />
<path d="M72.1026 33.4936
L71.9121 33.4460
" />
<path d="M71.9121 33.4460
L71.8169 33.3984
" />
<path d="M71.8169 33.3984
L71.7693 33.3508
" />
<path d="M71.7693 33.3508
L71.7217 33.2555
" />
<path d="M71.7217 33.2555
L71.7217 33.1603
" />
<path d="M71.7217 33.1603
L71.7693 33.0651
" />
<path d="M71.7693 33.0651
L71.8169 33.0174
" />
<path d="M71.8169 33.0174
L71.9121 32.9698
" />
<path d="M71.9121 32.9698
L72.1502 32.9698
" />
<path d="M72.1502 32.9698
L72.2931 33.0174
" />
<path d="M72.6264 32.9698
L72.8645 33.9698
" />
<path d="M72.8645 33.9698
L73.0550 33.2555
" />
<path d="M73.0550 33.2555
L73.2455 33.9698
" />
<path d="M73.2455 33.9698
L73.4836 32.9698
" />
<path d="M73.7693 32.9698
L74.4360 32.9698
" />
<path d="M74.4360 32.9698
L74.0074 33.9698
" />
</g><text x="73.0550" y="59.0150"
textLength="3.2976" font-size="1.3333" lengthAdjust="spacingAndGlyphs"
text-anchor="middle" opacity="0">SW8</text>
<g class="stroked-text"><desc>SW8</desc>
<path d="M71.7217 58.9222
L71.8645 58.9698
" />
<path d="M71.8645 58.9698
L72.1026 58.9698
" />
<path d="M72.1026 58.9698
L72.1979 58.9222
" />
<path d="M72.1979 58.9222
L72.2455 58.8746
" />
<path d="M72.2455 58.8746
L72.2931 58.7793
" />
<path d="M72.2931 58.7793
L72.2931 58.6841
" />
<path d="M72.2931 58.6841
L72.2455 58.5889
" />
<path d="M72.2455 58.5889
L72.1979 58.5412
" />
<path d="M72.1979 58.5412
L72.1026 58.4936
" />
<path d="M72.1026 58.4936
L71.9121 58.4460
" />
<path d="M71.9121 58.4460
L71.8169 58.3984
" />
<path d="M71.8169 58.3984
L71.7693 58.3508
" />
<path d="M71.7693 58.3508
L71.7217 58.2555
" />
<path d="M71.7217 58.2555
L71.7217 58.1603
" />
<path d="M71.7217 58.1603
L71.7693 58.0651
" />
<path d="M71.7693 58.0651
L71.8169 58.0174
" />
<path d="M71.8169 58.0174
L71.9121 57.9698
" />
<path d="M71.9121 57.9698
L72.1502 57.9698
" />
<path d="M72.1502 57.9698
L72.2931 58.0174
" />
<path d="M72.6264 57.9698
L72.8645 58.9698
" />
<path d="M72.8645 58.9698
L73.0550 58.2555
" />
<path d="M73.0550 58.2555
L73.2455 58.9698
" />
<path d="M73.2455 58.9698
L73.4836 57.9698
" />
<path d="M74.0074 58.3984
L73.9121 58.3508
" />
<path d="M73.9121 58.3508
L73.8645 58.3032
" />
<path d="M73.8645 58.3032
L73.8169 58.2079
" />
<path d="M73.8169 58.2079
L73.8169 58.1603
" />
<path d="M73.8169 58.1603
L73.8645 58.0651
" />
<path d="M73.8645 58.0651
L73.9121 58.0174
" />
<path d="M73.9121 58.0174
L74.0074 57.9698
" />
<path d="M74.0074 57.9698
L74.1979 57.9698
" />
<path d="M74.1979 57.9698
L74.2931 58.0174
" />
<path d="M74.2931 58.0174
L74.3407 58.0651
" />
<path d="M74.3407 58.0651
L74.3883 58.1603
" />
<path d="M74.3883 58.1603
L74.3883 58.2079
" />
<path d="M74.3883 58.2079
L74.3407 58.3032
" />
<path d="M74.3407 58.3032
L74.2931 58.3508
" />
<path d="M74.2931 58.3508
L74.1979 58.3984
" />
<path d="M74.1979 58.3984
L74.0074 58.3984
" />
<path d="M74.0074 58.3984
L73.9121 58.4460
" />
<path d="M73.9121 58.4460
L73.8645 58.4936
" />
<path d="M73.8645 58.4936
L73.8169 58.5889
" />
<path d="M73.8169 58.5889
L73.8169 58.7793
" />
<path d="M73.8169 58.7793
L73.8645 58.8746
" />
<path d="M73.8645 58.8746
L73.9121 58.9222
" />
<path d="M73.9121 58.9222
L74.0074 58.9698
" />
<path d="M74.0074 58.9698
L74.1979 58.9698
" />
<path d="M74.1979 58.9698
L74.2931 58.9222
" />
<path d="M74.2931 58.9222
L74.3407 58.8746
" />
<path d="M74.3407 58.8746
L74.3883 58.7793
" />
<path d="M74.3883 58.7793
L74.3883 58.5889
" />
<path d="M74.3883 58.5889
L74.3407 58.4936
" />
<path d="M74.3407 58.4936
L74.2931 58.4460
" />
<path d="M74.2931 58.4460
L74.1979 58.3984
" />
</g><text x="13.0550" y="9.0150"
textLength="4.2500" font-size="1.3333" lengthAdjust="spacingAndGlyphs"
text-anchor="middle" opacity="0">SW10</text>
<g class="stroked-text"><desc>SW10</desc>
<path d="M11.2455 8.9222
L11.3883 8.9698
" />
<path d="M11.3883 8.9698
L11.6264 8.9698
" />
<path d="M11.6264 8.9698
L11.7217 8.9222
" />
<path d="M11.7217 8.9222
L11.7693 8.8746
" />
<path d="M11.7693 8.8746
L11.8169 8.7793
" />
<path d="M11.8169 8.7793
L11.8169 8.6841
" />
<path d="M11.8169 8.6841
L11.7693 8.5889
" />
<path d="M11.7693 8.5889
L11.7217 8.5412
" />
<path d="M11.7217 8.5412
L11.6264 8.4936
" />
<path d="M11.6264 8.4936
L11.4360 8.4460
" />
<path d="M11.4360 8.4460
L11.3407 8.3984
" />
<path d="M11.3407 8.3984
L11.2931 8.3508
" />
<path d="M11.2931 8.3508
L11.2455 8.2555
" />
<path d="M11.2455 8.2555
L11.2455 8.1603
" />
<path d="M11.2455 8.1603
L11.2931 8.0651
" />
<path d="M11.2931 8.0651
L11.3407 8.0174
" />
<path d="M11.3407 8.0174
L11.4360 7.9698
" />
<path d="M11.4360 7.9698
L11.6740 7.9698
" />
<path d="M11.6740 7.9698
L11.8169 8.0174
" />
<path d="M12.1502 7.9698
L12.3883 8.9698
" />
<path d="M12.3883 8.9698
L12.5788 8.2555
" />
<path d="M12.5788 8.2555
L12.7693 8.9698
" />
<path d="M12.7693 8.9698
L13.0074 7.9698
" />
<path d="M13.9121 8.9698
L13.3407 8.9698
" />
<path d="M13.6264 8.9698
L13.6264 7.9698
" />
<path d="M13.6264 7.9698
L13.5312 8.1127
" />
<path d="M13.5312 8.1127
L13.4360 8.2079
" />
<path d="M13.4360 8.2079
L13.3407 8.2555
" />
<path d="M14.5312 7.9698
L14.6264 7.9698
" />
<path d="M14.6264 7.9698
L14.7217 8.0174
" />
<path d="M14.7217 8.0174
L14.7693 8.0651
" />
<path d="M14.7693 8.0651
L14.8169 8.1603
" />
<path d="M14.8169 8.1603
L14.8645 8.3508
" />
<path d="M14.8645 8.3508
L14.8645 8.5889
" />
<path d="M14.8645 8.5889
L14.8169 8.7793
" />
<path d="M14.8169 8.7793
L14.7693 8.8746
" />
<path d="M14.7693 8.8746
L14.7217 8.9222
" />
<path d="M14.7217 8.9222
L14.6264 8.9698
" />
<path d="M14.6264 8.9698
L14.5312 8.9698
" />
<path d="M14.5312 8.9698
L14.4360 8.9222
" />
<path d="M14.4360 8.9222
L14.3883 8.8746
" />
<path d="M14.3883 8.8746
L14.3407 8.7793
" />
<path d="M14.3407 8.7793
L14.2931 8.5889
" />
<path d="M14.2931 8.5889
L14.2931 8.3508
" />
<path d="M14.2931 8.3508
L14.3407 8.1603
" />
<path d="M14.3407 8.1603
L14.3883 8.0651
" />
<path d="M14.3883 8.0651
L14.4360 8.0174
" />
<path d="M14.4360 8.0174
L14.5312 7.9698
" />
</g><text x="43.0550" y="34.0150"
textLength="3.2976" font-size="1.3333" lengthAdjust="spacingAndGlyphs"
text-anchor="middle" opacity="0">SW4</text>
<g class="stroked-text"><desc>SW4</desc>
<path d="M41.7217 33.9222
L41.8645 33.9698
" />
<path d="M41.8645 33.9698
L42.1026 33.9698
" />
<path d="M42.1026 33.9698
L42.1979 33.9222
" />
<path d="M42.1979 33.9222
L42.2455 33.8746
" />
<path d="M42.2455 33.8746
L42.2931 33.7793
" />
<path d="M42.2931 33.7793
L42.2931 33.6841
" />
<path d="M42.2931 33.6841
L42.2455 33.5889
" />
<path d="M42.2455 33.5889
L42.1979 33.5412
" />
<path d="M42.1979 33.5412
L42.1026 33.4936
" />
<path d="M42.1026 33.4936
L41.9121 33.4460
" />
<path d="M41.9121 33.4460
L41.8169 33.3984
" />
<path d="M41.8169 33.3984
L41.7693 33.3508
" />
<path d="M41.7693 33.3508
L41.7217 33.2555
" />
<path d="M41.7217 33.2555
L41.7217 33.1603
" />
<path d="M41.7217 33.1603
L41.7693 33.0651
" />
<path d="M41.7693 33.0651
L41.8169 33.0174
" />
<path d="M41.8169 33.0174
L41.9121 32.9698
" />
<path d="M41.9121 32.9698
L42.1502 32.9698
" />
<path d="M42.1502 32.9698
L42.2931 33.0174
" />
<path d="M42.6264 32.9698
L42.8645 33.9698
" />
<path d="M42.8645 33.9698
L43.0550 33.2555
" />
<path d="M43.0550 33.2555
L43.2455 33.9698
" />
<path d="M43.2455 33.9698
L43.4836 32.9698
" />
<path d="M44.2931 33.3032
L44.2931 33.9698
" />
<path d="M44.0550 32.9222
L43.8169 33.6365
" />
<path d="M43.8169 33.6365
L44.4360 33.6365
" />
</g><text x="73.0550" y="9.0150"
textLength="3.2976" font-size="1.3333" lengthAdjust="spacingAndGlyphs"
text-anchor="middle" opacity="0">SW6</text>
<g class="stroked-text"><desc>SW6</desc>
<path d="M71.7217 8.9222
L71.8645 8.9698
" />
<path d="M71.8645 8.9698
L72.1026 8.9698
" />
<path d="M72.1026 8.9698
L72.1979 8.9222
" />
<path d="M72.1979 8.9222
L72.2455 8.8746
" />
<path d="M72.2455 8.8746
L72.2931 8.7793
" />
<path d="M72.2931 8.7793
L72.2931 8.6841
" />
<path d="M72.2931 8.6841
L72.2455 8.5889
" />
<path d="M72.2455 8.5889
L72.1979 8.5412
" />
<path d="M72.1979 8.5412
L72.1026 8.4936
" />
<path d="M72.1026 8.4936
L71.9121 8.4460
" />
<path d="M71.9121 8.4460
L71.8169 8.3984
" />
<path d="M71.8169 8.3984
L71.7693 8.3508
" />
<path d="M71.7693 8.3508
L71.7217 8.2555
" />
<path d="M71.7217 8.2555
L71.7217 8.1603
" />
<path d="M71.7217 8.1603
L71.7693 8.0651
" />
<path d="M71.7693 8.0651
L71.8169 8.0174
" />
<path d="M71.8169 8.0174
L71.9121 7.9698
" />
<path d="M71.9121 7.9698
L72.1502 7.9698
" />
<path d="M72.1502 7.9698
L72.2931 8.0174
" />
<path d="M72.6264 7.9698
L72.8645 8.9698
" />
<path d="M72.8645 8.9698
L73.0550 8.2555
" />
<path d="M73.0550 8.2555
L73.2455 8.9698
" />
<path d="M73.2455 8.9698
L73.4836 7.9698
" />
<path d="M74.2931 7.9698
L74.1026 7.9698
" />
<path d="M74.1026 7.9698
L74.0074 8.0174
" />
<path d="M74.0074 8.0174
L73.9598 8.0651
" />
<path d="M73.9598 8.0651
L73.8645 8.2079
" />
<path d="M73.8645 8.2079
L73.8169 8.3984
" />
<path d="M73.8169 8.3984
L73.8169 8.7793
" />
<path d="M73.8169 8.7793
L73.8645 8.8746
" />
<path d="M73.8645 8.8746
L73.9121 8.9222
" />
<path d="M73.9121 8.9222
L74.0074 8.9698
" />
<path d="M74.0074 8.9698
L74.1979 8.9698
" />
<path d="M74.1979 8.9698
L74.2931 8.9222
" />
<path d="M74.2931 8.9222
L74.3407 8.8746
" />
<path d="M74.3407 8.8746
L74.3883 8.7793
" />
<path d="M74.3883 8.7793
L74.3883 8.5412
" />
<path d="M74.3883 8.5412
L74.3407 8.4460
" />
<path d="M74.3407 8.4460
L74.2931 8.3984
" />
<path d="M74.2931 8.3984
L74.1979 8.3508
" />
<path d="M74.1979 8.3508
L74.0074 8.3508
" />
<path d="M74.0074 8.3508
L73.9121 8.3984
" />
<path d="M73.9121 8.3984
L73.8645 8.4460
" />
<path d="M73.8645 8.4460
L73.8169 8.5412
" />
</g><text x="43.0550" y="9.0150"
textLength="3.2976" font-size="1.3333" lengthAdjust="spacingAndGlyphs"
text-anchor="middle" opacity="0">SW5</text>
<g class="stroked-text"><desc>SW5</desc>
<path d="M41.7217 8.9222
L41.8645 8.9698
" />
<path d="M41.8645 8.9698
L42.1026 8.9698
" />
<path d="M42.1026 8.9698
L42.1979 8.9222
" />
<path d="M42.1979 8.9222
L42.2455 8.8746
" />
<path d="M42.2455 8.8746
L42.2931 8.7793
" />
<path d="M42.2931 8.7793
L42.2931 8.6841
" />
<path d="M42.2931 8.6841
L42.2455 8.5889
" />
<path d="M42.2455 8.5889
L42.1979 8.5412
" />
<path d="M42.1979 8.5412
L42.1026 8.4936
" />
<path d="M42.1026 8.4936
L41.9121 8.4460
" />
<path d="M41.9121 8.4460
L41.8169 8.3984
" />
<path d="M41.8169 8.3984
L41.7693 8.3508
" />
<path d="M41.7693 8.3508
L41.7217 8.2555
" />
<path d="M41.7217 8.2555
L41.7217 8.1603
" />
<path d="M41.7217 8.1603
L41.7693 8.0651
" />
<path d="M41.7693 8.0651
L41.8169 8.0174
" />
<path d="M41.8169 8.0174
L41.9121 7.9698
" />
<path d="M41.9121 7.9698
L42.1502 7.9698
" />
<path d="M42.1502 7.9698
L42.2931 8.0174
" />
<path d="M42.6264 7.9698
L42.8645 8.9698
" />
<path d="M42.8645 8.9698
L43.0550 8.2555
" />
<path d="M43.0550 8.2555
L43.2455 8.9698
" />
<path d="M43.2455 8.9698
L43.4836 7.9698
" />
<path d="M44.3407 7.9698
L43.8645 7.9698
" />
<path d="M43.8645 7.9698
L43.8169 8.4460
" />
<path d="M43.8169 8.4460
L43.8645 8.3984
" />
<path d="M43.8645 8.3984
L43.9598 8.3508
" />
<path d="M43.9598 8.3508
L44.1979 8.3508
" />
<path d="M44.1979 8.3508
L44.2931 8.3984
" />
<path d="M44.2931 8.3984
L44.3407 8.4460
" />
<path d="M44.3407 8.4460
L44.3883 8.5412
" />
<path d="M44.3883 8.5412
L44.3883 8.7793
" />
<path d="M44.3883 8.7793
L44.3407 8.8746
" />
<path d="M44.3407 8.8746
L44.2931 8.9222
" />
<path d="M44.2931 8.9222
L44.1979 8.9698
" />
<path d="M44.1979 8.9698
L43.9598 8.9698
" />
<path d="M43.9598 8.9698
L43.8645 8.9222
" />
<path d="M43.8645 8.9222
L43.8169 8.8746
" />
</g><text x="60.2850" y="78.5250"
textLength="1.9643" font-size="1.3333" lengthAdjust="spacingAndGlyphs"
text-anchor="middle" opacity="0">J1</text>
<g class="stroked-text"><desc>J1</desc>
<path d="M59.9517 77.4798
L59.9517 78.1941
" />
<path d="M59.9517 78.1941
L59.9040 78.3370
" />
<path d="M59.9040 78.3370
L59.8088 78.4322
" />
<path d="M59.8088 78.4322
L59.6660 78.4798
" />
<path d="M59.6660 78.4798
L59.5707 78.4798
" />
<path d="M60.9517 78.4798
L60.3802 78.4798
" />
<path d="M60.6660 78.4798
L60.6660 77.4798
" />
<path d="M60.6660 77.4798
L60.5707 77.6227
" />
<path d="M60.5707 77.6227
L60.4755 77.7179
" />
<path d="M60.4755 77.7179
L60.3802 77.7655
" />
</g></g>
<g style="fill:#000000; fill-opacity:0.0; 
stroke:#000000; stroke-width:0.1200; stroke-opacity:1; 
stroke-linecap:round; stroke-linejoin:round;">
<path d="M7.0750 34.5250
L19.3750 34.5250
" />
<path d="M7.0750 37.2450
L7.0750 34.5250
" />
<path d="M7.0750 42.2450
L7.0750 39.1050
" />
<path d="M7.0750 46.8250
L7.0750 44.1050
" />
<path d="M19.3750 34.5250
L19.3750 37.2450
" />
<path d="M19.3750 39.1050
L19.3750 42.2450
" />
<path d="M19.3750 44.1050
L19.3750 46.8250
" />
<path d="M19.3750 46.8250
L7.0750 46.8250
" />
<circle cx="13.3250" cy="40.7150" r="4.5790" /> 
<path d="M8.0450 29.1550
L6.7750 29.1550
" />
<path d="M8.0450 27.8850
L8.0450 29.1550
" />
<path d="M5.7321 25.7250
L5.3350 25.7250
" />
<path d="M5.7321 24.9650
L5.3350 24.9650
" />
<path d="M5.6650 28.2650
L5.3350 28.2650
" />
<path d="M5.6650 27.5050
L5.3350 27.5050
" />
<path d="M5.3350 29.2150
L5.3350 24.0150
" />
<path d="M5.3350 26.6150
L2.6750 26.6150
" />
<path d="M5.3350 24.0150
L2.6750 24.0150
" />
<path d="M2.6750 29.2150
L5.3350 29.2150
" />
<path d="M2.6750 28.2650
L-3.3250 28.2650
" />
<path d="M2.6750 28.2050
L-3.3250 28.2050
" />
<path d="M2.6750 28.0850
L-3.3250 28.0850
" />
<path d="M2.6750 27.9650
L-3.3250 27.9650
" />
<path d="M2.6750 27.8450
L-3.3250 27.8450
" />
<path d="M2.6750 27.7250
L-3.3250 27.7250
" />
<path d="M2.6750 27.6050
L-3.3250 27.6050
" />
<path d="M2.6750 25.7250
L-3.3250 25.7250
" />
<path d="M2.6750 24.0150
L2.6750 29.2150
" />
<path d="M-3.3250 28.2650
L-3.3250 27.5050
" />
<path d="M-3.3250 27.5050
L2.6750 27.5050
" />
<path d="M-3.3250 25.7250
L-3.3250 24.9650
" />
<path d="M-3.3250 24.9650
L2.6750 24.9650
" />
<path d="M37.0750 59.5250
L49.3750 59.5250
" />
<path d="M37.0750 62.2450
L37.0750 59.5250
" />
<path d="M37.0750 67.2450
L37.0750 64.1050
" />
<path d="M37.0750 71.8250
L37.0750 69.1050
" />
<path d="M49.3750 59.5250
L49.3750 62.2450
" />
<path d="M49.3750 64.1050
L49.3750 67.2450
" />
<path d="M49.3750 69.1050
L49.3750 71.8250
" />
<path d="M49.3750 71.8250
L37.0750 71.8250
" />
<circle cx="43.3250" cy="65.7150" r="4.5790" /> 
<path d="M7.0750 59.5250
L19.3750 59.5250
" />
<path d="M7.0750 62.2450
L7.0750 59.5250
" />
<path d="M7.0750 67.2450
L7.0750 64.1050
" />
<path d="M7.0750 71.8250
L7.0750 69.1050
" />
<path d="M19.3750 59.5250
L19.3750 62.2450
" />
<path d="M19.3750 64.1050
L19.3750 67.2450
" />
<path d="M19.3750 69.1050
L19.3750 71.8250
" />
<path d="M19.3750 71.8250
L7.0750 71.8250
" />
<circle cx="13.3250" cy="65.7150" r="4.5790" /> 
<path d="M67.0750 34.5250
L79.3750 34.5250
" />
<path d="M67.0750 37.2450
L67.0750 34.5250
" />
<path d="M67.0750 42.2450
L67.0750 39.1050
" />
<path d="M67.0750 46.8250
L67.0750 44.1050
" />
<path d="M79.3750 34.5250
L79.3750 37.2450
" />
<path d="M79.3750 39.1050
L79.3750 42.2450
" />
<path d="M79.3750 44.1050
L79.3750 46.8250
" />
<path d="M79.3750 46.8250
L67.0750 46.8250
" />
<circle cx="73.3250" cy="40.7150" r="4.5790" /> 
<path d="M67.0750 59.5250
L79.3750 59.5250
" />
<path d="M67.0750 62.2450
L67.0750 59.5250
" />
<path d="M67.0750 67.2450
L67.0750 64.1050
" />
<path d="M67.0750 71.8250
L67.0750 69.1050
" />
<path d="M79.3750 59.5250
L79.3750 62.2450
" />
<path d="M79.3750 64.1050
L79.3750 67.2450
" />
<path d="M79.3750 69.1050
L79.3750 71.8250
" />
<path d="M79.3750 71.8250
L67.0750 71.8250
" />
<circle cx="73.3250" cy="65.7150" r="4.5790" /> 
<path d="M7.0750 9.5250
L19.3750 9.5250
" />
<path d="M7.0750 12.2450
L7.0750 9.5250
" />
<path d="M7.0750 17.2450
L7.0750 14.1050
" />
<path d="M7.0750 21.8250
L7.0750 19.1050
" />
<path d="M19.3750 9.5250
L19.3750 12.2450
" />
<path d="M19.3750 14.1050
L19.3750 17.2450
" />
<path d="M19.3750 19.1050
L19.3750 21.8250
" />
<path d="M19.3750 21.8250
L7.0750 21.8250
" />
<circle cx="13.3250" cy="15.7150" r="4.5790" /> 
<path d="M37.0750 34.5250
L49.3750 34.5250
" />
<path d="M37.0750 37.2450
L37.0750 34.5250
" />
<path d="M37.0750 42.2450
L37.0750 39.1050
" />
<path d="M37.0750 46.8250
L37.0750 44.1050
" />
<path d="M49.3750 34.5250
L49.3750 37.2450
" />
<path d="M49.3750 39.1050
L49.3750 42.2450
" />
<path d="M49.3750 44.1050
L49.3750 46.8250
" />
<path d="M49.3750 46.8250
L37.0750 46.8250
" />
<circle cx="43.3250" cy="40.7150" r="4.5790" /> 
<path d="M67.0750 9.5250
L79.3750 9.5250
" />
<path d="M67.0750 12.2450
L67.0750 9.5250
" />
<path d="M67.0750 17.2450
L67.0750 14.1050
" />
<path d="M67.0750 21.8250
L67.0750 19.1050
" />
<path d="M79.3750 9.5250
L79.3750 12.2450
" />
<path d="M79.3750 14.1050
L79.3750 17.2450
" />
<path d="M79.3750 19.1050
L79.3750 21.8250
" />
<path d="M79.3750 21.8250
L67.0750 21.8250
" />
<circle cx="73.3250" cy="15.7150" r="4.5790" /> 
<path d="M37.0750 9.5250
L49.3750 9.5250
" />
<path d="M37.0750 12.2450
L37.0750 9.5250
" />
<path d="M37.0750 17.2450
L37.0750 14.1050
" />
<path d="M37.0750 21.8250
L37.0750 19.1050
" />
<path d="M49.3750 9.5250
L49.3750 12.2450
" />
<path d="M49.3750 14.1050
L49.3750 17.2450
" />
<path d="M49.3750 19.1050
L49.3750 21.8250
" />
<path d="M49.3750 21.8250
L37.0750 21.8250
" />
<circle cx="43.3250" cy="15.7150" r="4.5790" /> 
<path d="M58.6300 74.9200
L58.6300 76.1900
" />
<path d="M57.3600 74.9200
L58.6300 74.9200
" />
<path d="M55.2000 77.2329
L55.2000 77.6300
" />
<path d="M54.4400 77.2329
L54.4400 77.6300
" />
<path d="M52.6600 77.2329
L52.6600 77.6300
" />
<path d="M51.9000 77.2329
L51.9000 77.6300
" />
<path d="M50.1200 77.2329
L50.1200 77.6300
" />
<path d="M49.3600 77.2329
L49.3600 77.6300
" />
<path d="M47.5800 77.2329
L47.5800 77.6300
" />
<path d="M46.8200 77.2329
L46.8200 77.6300
" />
<path d="M45.0400 77.2329
L45.0400 77.6300
" />
<path d="M44.2800 77.2329
L44.2800 77.6300
" />
<path d="M42.5000 77.2329
L42.5000 77.6300
" />
<path d="M41.7400 77.2329
L41.7400 77.6300
" />
<path d="M39.9600 77.2329
L39.9600 77.6300
" />
<path d="M39.2000 77.2329
L39.2000 77.6300
" />
<path d="M37.4200 77.2329
L37.4200 77.6300
" />
<path d="M36.6600 77.2329
L36.6600 77.6300
" />
<path d="M34.8800 77.2329
L34.8800 77.6300
" />
<path d="M34.1200 77.2329
L34.1200 77.6300
" />
<path d="M32.3400 77.2329
L32.3400 77.6300
" />
<path d="M31.5800 77.2329
L31.5800 77.6300
" />
<path d="M29.8000 77.2329
L29.8000 77.6300
" />
<path d="M29.0400 77.2329
L29.0400 77.6300
" />
<path d="M57.7400 77.3000
L57.7400 77.6300
" />
<path d="M56.9800 77.3000
L56.9800 77.6300
" />
<path d="M58.6900 77.6300
L28.0900 77.6300
" />
<path d="M56.0900 77.6300
L56.0900 80.2900
" />
<path d="M53.5500 77.6300
L53.5500 80.2900
" />
<path d="M51.0100 77.6300
L51.0100 80.2900
" />
<path d="M48.4700 77.6300
L48.4700 80.2900
" />
<path d="M45.9300 77.6300
L45.9300 80.2900
" />
<path d="M43.3900 77.6300
L43.3900 80.2900
" />
<path d="M40.8500 77.6300
L40.8500 80.2900
" />
<path d="M38.3100 77.6300
L38.3100 80.2900
" />
<path d="M35.7700 77.6300
L35.7700 80.2900
" />
<path d="M33.2300 77.6300
L33.2300 80.2900
" />
<path d="M30.6900 77.6300
L30.6900 80.2900
" />
<path d="M28.0900 77.6300
L28.0900 80.2900
" />
<path d="M58.6900 80.2900
L58.6900 77.6300
" />
<path d="M57.7400 80.2900
L57.7400 86.2900
" />
<path d="M57.6800 80.2900
L57.6800 86.2900
" />
<path d="M57.5600 80.2900
L57.5600 86.2900
" />
<path d="M57.4400 80.2900
L57.4400 86.2900
" />
<path d="M57.3200 80.2900
L57.3200 86.2900
" />
<path d="M57.2000 80.2900
L57.2000 86.2900
" />
<path d="M57.0800 80.2900
L57.0800 86.2900
" />
<path d="M55.2000 80.2900
L55.2000 86.2900
" />
<path d="M52.6600 80.2900
L52.6600 86.2900
" />
<path d="M50.1200 80.2900
L50.1200 86.2900
" />
<path d="M47.5800 80.2900
L47.5800 86.2900
" />
<path d="M45.0400 80.2900
L45.0400 86.2900
" />
<path d="M42.5000 80.2900
L42.5000 86.2900
" />
<path d="M39.9600 80.2900
L39.9600 86.2900
" />
<path d="M37.4200 80.2900
L37.4200 86.2900
" />
<path d="M34.8800 80.2900
L34.8800 86.2900
" />
<path d="M32.3400 80.2900
L32.3400 86.2900
" />
<path d="M29.8000 80.2900
L29.8000 86.2900
" />
<path d="M28.0900 80.2900
L58.6900 80.2900
" />
<path d="M57.7400 86.2900
L56.9800 86.2900
" />
<path d="M56.9800 86.2900
L56.9800 80.2900
" />
<path d="M55.2000 86.2900
L54.4400 86.2900
" />
<path d="M54.4400 86.2900
L54.4400 80.2900
" />
<path d="M52.6600 86.2900
L51.9000 86.2900
" />
<path d="M51.9000 86.2900
L51.9000 80.2900
" />
<path d="M50.1200 86.2900
L49.3600 86.2900
" />
<path d="M49.3600 86.2900
L49.3600 80.2900
" />
<path d="M47.5800 86.2900
L46.8200 86.2900
" />
<path d="M46.8200 86.2900
L46.8200 80.2900
" />
<path d="M45.0400 86.2900
L44.2800 86.2900
" />
<path d="M44.2800 86.2900
L44.2800 80.2900
" />
<path d="M42.5000 86.2900
L41.7400 86.2900
" />
<path d="M41.7400 86.2900
L41.7400 80.2900
" />
<path d="M39.9600 86.2900
L39.2000 86.2900
" />
<path d="M39.2000 86.2900
L39.2000 80.2900
" />
<path d="M37.4200 86.2900
L36.6600 86.2900
" />
<path d="M36.6600 86.2900
L36.6600 80.2900
" />
<path d="M34.8800 86.2900
L34.1200 86.2900
" />
<path d="M34.1200 86.2900
L34.1200 80.2900
" />
<path d="M32.3400 86.2900
L31.5800 86.2900
" />
<path d="M31.5800 86.2900
L31.5800 80.2900
" />
<path d="M29.8000 86.2900
L29.0400 86.2900
" />
<path d="M29.0400 86.2900
L29.0400 80.2900
" />
<g >
</g>
<g >
</g>
<g >
</g>
<g >
</g>
<g >
</g>
<g >
</g>
<g >
</g>
<g >
</g>
<g >
</g>
<g >
</g>
<g >
</g>
<g >
</g>
<g >
</g>
<g >
</g>
<g >
</g>
<g >
</g>
<g >
</g>
<g >
</g>
</g>
<g style="fill:#000000; fill-opacity:0.0; 
stroke:#000000; stroke-width:0.1200; stroke-opacity:1; 
stroke-linecap:round; stroke-linejoin:round;">
</g>
<g style="fill:#000000; fill-opacity:0.0; 
stroke:#000000; stroke-width:0.1000; stroke-opacity:1; 
stroke-linecap:round; stroke-linejoin:round;">
<path style="fill:#000000; fill-opacity:0.0; 
stroke:#000000; stroke-width:0.1000; stroke-opacity:1; 
stroke-linecap:round; stroke-linejoin:round;fill:none"
d="M 0.0750,0.0750
88.0750,0.0750
88.0750,80.0750
0.0750,80.0750
Z" /> 
<g >
</g>
<g >
</g>
<g >
</g>
<g >
</g>
<g >
</g>
<g >
</g>
<g >
</g>
<g >
</g>
<g >
</g>
<g >
</g>
<g >
</g>
<g >
</g>
<g >
</g>
<g >
</g>
<g >
</g>
<g >
</g>
<g >
</g>
<g >
</g>
</g> 
</svg>
