<?xml version="1.0" standalone="no"?>
 <!DOCTYPE svg PUBLIC "-//W3C//DTD SVG 1.1//EN" 
 "http://www.w3.org/Graphics/SVG/1.1/DTD/svg11.dtd"> 
<svg
  xmlns:svg="http://www.w3.org/2000/svg"
  xmlns="http://www.w3.org/2000/svg"
  xmlns:xlink="http://www.w3.org/1999/xlink"
  version="1.1"
  width="91.9226mm" height="86.7156mm" viewBox="0.0000 0.0000 91.9226 86.7156">
<title>SVG Image created as buttonBoard-F_Fab.svg date 2025/02/08 18:08:55 </title>
  <desc>Image generated by PCBNEW </desc>
<g style="fill:#000000; fill-opacity:1.0000;stroke:#000000; stroke-opacity:1.0000;
stroke-linecap:round; stroke-linejoin:round;"
 transform="translate(0 0) scale(1 1)">
</g>
<g style="fill:#000000; fill-opacity:0.0; 
stroke:#000000; stroke-width:0.0000; stroke-opacity:1; 
stroke-linecap:round; stroke-linejoin:round;">
</g>
<g style="fill:#000000; fill-opacity:1.0000; 
stroke:#000000; stroke-width:0.0212; stroke-opacity:1; 
stroke-linecap:round; stroke-linejoin:round;">
<rect x="-5.000000" y="-5.000000" width="101.925000" height="96.740000" rx="0.000000" />
</g>
<g style="fill:#FFFFFF; fill-opacity:1.0000; 
stroke:#FFFFFF; stroke-width:0.0212; stroke-opacity:1; 
stroke-linecap:round; stroke-linejoin:round;">
</g>
<g style="fill:#FFFFFF; fill-opacity:1.0000; 
stroke:#FFFFFF; stroke-width:0.1500; stroke-opacity:1; 
stroke-linecap:round; stroke-linejoin:round;">
</g>
<g style="fill:#FFFFFF; fill-opacity:0.0; 
stroke:#FFFFFF; stroke-width:0.1500; stroke-opacity:1; 
stroke-linecap:round; stroke-linejoin:round;">
<text x="8.8750" y="8.7500"
textLength="10.2976" font-size="1.3333" lengthAdjust="spacingAndGlyphs"
text-anchor="middle" opacity="0">MountingHole</text>
<g class="stroked-text"><desc>MountingHole</desc>
<path d="M4.0893 8.7048
L4.0893 7.7048
" />
<path d="M4.0893 7.7048
L4.4226 8.4191
" />
<path d="M4.4226 8.4191
L4.7560 7.7048
" />
<path d="M4.7560 7.7048
L4.7560 8.7048
" />
<path d="M5.3750 8.7048
L5.2798 8.6572
" />
<path d="M5.2798 8.6572
L5.2321 8.6096
" />
<path d="M5.2321 8.6096
L5.1845 8.5143
" />
<path d="M5.1845 8.5143
L5.1845 8.2286
" />
<path d="M5.1845 8.2286
L5.2321 8.1334
" />
<path d="M5.2321 8.1334
L5.2798 8.0858
" />
<path d="M5.2798 8.0858
L5.3750 8.0382
" />
<path d="M5.3750 8.0382
L5.5179 8.0382
" />
<path d="M5.5179 8.0382
L5.6131 8.0858
" />
<path d="M5.6131 8.0858
L5.6607 8.1334
" />
<path d="M5.6607 8.1334
L5.7083 8.2286
" />
<path d="M5.7083 8.2286
L5.7083 8.5143
" />
<path d="M5.7083 8.5143
L5.6607 8.6096
" />
<path d="M5.6607 8.6096
L5.6131 8.6572
" />
<path d="M5.6131 8.6572
L5.5179 8.7048
" />
<path d="M5.5179 8.7048
L5.3750 8.7048
" />
<path d="M6.5655 8.0382
L6.5655 8.7048
" />
<path d="M6.1369 8.0382
L6.1369 8.5620
" />
<path d="M6.1369 8.5620
L6.1845 8.6572
" />
<path d="M6.1845 8.6572
L6.2798 8.7048
" />
<path d="M6.2798 8.7048
L6.4226 8.7048
" />
<path d="M6.4226 8.7048
L6.5179 8.6572
" />
<path d="M6.5179 8.6572
L6.5655 8.6096
" />
<path d="M7.0417 8.0382
L7.0417 8.7048
" />
<path d="M7.0417 8.1334
L7.0893 8.0858
" />
<path d="M7.0893 8.0858
L7.1845 8.0382
" />
<path d="M7.1845 8.0382
L7.3274 8.0382
" />
<path d="M7.3274 8.0382
L7.4226 8.0858
" />
<path d="M7.4226 8.0858
L7.4702 8.1810
" />
<path d="M7.4702 8.1810
L7.4702 8.7048
" />
<path d="M7.8036 8.0382
L8.1845 8.0382
" />
<path d="M7.9464 7.7048
L7.9464 8.5620
" />
<path d="M7.9464 8.5620
L7.9940 8.6572
" />
<path d="M7.9940 8.6572
L8.0893 8.7048
" />
<path d="M8.0893 8.7048
L8.1845 8.7048
" />
<path d="M8.5179 8.7048
L8.5179 8.0382
" />
<path d="M8.5179 7.7048
L8.4702 7.7524
" />
<path d="M8.4702 7.7524
L8.5179 7.8001
" />
<path d="M8.5179 7.8001
L8.5655 7.7524
" />
<path d="M8.5655 7.7524
L8.5179 7.7048
" />
<path d="M8.5179 7.7048
L8.5179 7.8001
" />
<path d="M8.9940 8.0382
L8.9940 8.7048
" />
<path d="M8.9940 8.1334
L9.0417 8.0858
" />
<path d="M9.0417 8.0858
L9.1369 8.0382
" />
<path d="M9.1369 8.0382
L9.2798 8.0382
" />
<path d="M9.2798 8.0382
L9.3750 8.0858
" />
<path d="M9.3750 8.0858
L9.4226 8.1810
" />
<path d="M9.4226 8.1810
L9.4226 8.7048
" />
<path d="M10.3274 8.0382
L10.3274 8.8477
" />
<path d="M10.3274 8.8477
L10.2798 8.9429
" />
<path d="M10.2798 8.9429
L10.2321 8.9905
" />
<path d="M10.2321 8.9905
L10.1369 9.0382
" />
<path d="M10.1369 9.0382
L9.9940 9.0382
" />
<path d="M9.9940 9.0382
L9.8988 8.9905
" />
<path d="M10.3274 8.6572
L10.2321 8.7048
" />
<path d="M10.2321 8.7048
L10.0417 8.7048
" />
<path d="M10.0417 8.7048
L9.9464 8.6572
" />
<path d="M9.9464 8.6572
L9.8988 8.6096
" />
<path d="M9.8988 8.6096
L9.8512 8.5143
" />
<path d="M9.8512 8.5143
L9.8512 8.2286
" />
<path d="M9.8512 8.2286
L9.8988 8.1334
" />
<path d="M9.8988 8.1334
L9.9464 8.0858
" />
<path d="M9.9464 8.0858
L10.0417 8.0382
" />
<path d="M10.0417 8.0382
L10.2321 8.0382
" />
<path d="M10.2321 8.0382
L10.3274 8.0858
" />
<path d="M10.8036 8.7048
L10.8036 7.7048
" />
<path d="M10.8036 8.1810
L11.3750 8.1810
" />
<path d="M11.3750 8.7048
L11.3750 7.7048
" />
<path d="M11.9940 8.7048
L11.8988 8.6572
" />
<path d="M11.8988 8.6572
L11.8512 8.6096
" />
<path d="M11.8512 8.6096
L11.8036 8.5143
" />
<path d="M11.8036 8.5143
L11.8036 8.2286
" />
<path d="M11.8036 8.2286
L11.8512 8.1334
" />
<path d="M11.8512 8.1334
L11.8988 8.0858
" />
<path d="M11.8988 8.0858
L11.9940 8.0382
" />
<path d="M11.9940 8.0382
L12.1369 8.0382
" />
<path d="M12.1369 8.0382
L12.2321 8.0858
" />
<path d="M12.2321 8.0858
L12.2798 8.1334
" />
<path d="M12.2798 8.1334
L12.3274 8.2286
" />
<path d="M12.3274 8.2286
L12.3274 8.5143
" />
<path d="M12.3274 8.5143
L12.2798 8.6096
" />
<path d="M12.2798 8.6096
L12.2321 8.6572
" />
<path d="M12.2321 8.6572
L12.1369 8.7048
" />
<path d="M12.1369 8.7048
L11.9940 8.7048
" />
<path d="M12.8988 8.7048
L12.8036 8.6572
" />
<path d="M12.8036 8.6572
L12.7560 8.5620
" />
<path d="M12.7560 8.5620
L12.7560 7.7048
" />
<path d="M13.6607 8.6572
L13.5655 8.7048
" />
<path d="M13.5655 8.7048
L13.3750 8.7048
" />
<path d="M13.3750 8.7048
L13.2798 8.6572
" />
<path d="M13.2798 8.6572
L13.2321 8.5620
" />
<path d="M13.2321 8.5620
L13.2321 8.1810
" />
<path d="M13.2321 8.1810
L13.2798 8.0858
" />
<path d="M13.2798 8.0858
L13.3750 8.0382
" />
<path d="M13.3750 8.0382
L13.5655 8.0382
" />
<path d="M13.5655 8.0382
L13.6607 8.0858
" />
<path d="M13.6607 8.0858
L13.7083 8.1810
" />
<path d="M13.7083 8.1810
L13.7083 8.2762
" />
<path d="M13.7083 8.2762
L13.2321 8.3715
" />
</g><text x="8.8750" y="4.5500"
textLength="2.2500" font-size="1.3333" lengthAdjust="spacingAndGlyphs"
text-anchor="middle" opacity="0">H3</text>
<g class="stroked-text"><desc>H3</desc>
<path d="M8.1131 4.5048
L8.1131 3.5048
" />
<path d="M8.1131 3.9810
L8.6845 3.9810
" />
<path d="M8.6845 4.5048
L8.6845 3.5048
" />
<path d="M9.0655 3.5048
L9.6845 3.5048
" />
<path d="M9.6845 3.5048
L9.3512 3.8858
" />
<path d="M9.3512 3.8858
L9.4940 3.8858
" />
<path d="M9.4940 3.8858
L9.5893 3.9334
" />
<path d="M9.5893 3.9334
L9.6369 3.9810
" />
<path d="M9.6369 3.9810
L9.6845 4.0762
" />
<path d="M9.6845 4.0762
L9.6845 4.3143
" />
<path d="M9.6845 4.3143
L9.6369 4.4096
" />
<path d="M9.6369 4.4096
L9.5893 4.4572
" />
<path d="M9.5893 4.4572
L9.4940 4.5048
" />
<path d="M9.4940 4.5048
L9.2083 4.5048
" />
<path d="M9.2083 4.5048
L9.1131 4.4572
" />
<path d="M9.1131 4.4572
L9.0655 4.4096
" />
</g><text x="17.3950" y="48.5800"
textLength="4.0119" font-size="1.3333" lengthAdjust="spacingAndGlyphs"
text-anchor="middle" opacity="0">SPOT</text>
<g class="stroked-text"><desc>SPOT</desc>
<path d="M15.7045 48.4872
L15.8474 48.5348
" />
<path d="M15.8474 48.5348
L16.0855 48.5348
" />
<path d="M16.0855 48.5348
L16.1807 48.4872
" />
<path d="M16.1807 48.4872
L16.2283 48.4396
" />
<path d="M16.2283 48.4396
L16.2760 48.3443
" />
<path d="M16.2760 48.3443
L16.2760 48.2491
" />
<path d="M16.2760 48.2491
L16.2283 48.1539
" />
<path d="M16.2283 48.1539
L16.1807 48.1062
" />
<path d="M16.1807 48.1062
L16.0855 48.0586
" />
<path d="M16.0855 48.0586
L15.8950 48.0110
" />
<path d="M15.8950 48.0110
L15.7998 47.9634
" />
<path d="M15.7998 47.9634
L15.7521 47.9158
" />
<path d="M15.7521 47.9158
L15.7045 47.8205
" />
<path d="M15.7045 47.8205
L15.7045 47.7253
" />
<path d="M15.7045 47.7253
L15.7521 47.6301
" />
<path d="M15.7521 47.6301
L15.7998 47.5824
" />
<path d="M15.7998 47.5824
L15.8950 47.5348
" />
<path d="M15.8950 47.5348
L16.1331 47.5348
" />
<path d="M16.1331 47.5348
L16.2760 47.5824
" />
<path d="M16.7045 48.5348
L16.7045 47.5348
" />
<path d="M16.7045 47.5348
L17.0855 47.5348
" />
<path d="M17.0855 47.5348
L17.1807 47.5824
" />
<path d="M17.1807 47.5824
L17.2283 47.6301
" />
<path d="M17.2283 47.6301
L17.2760 47.7253
" />
<path d="M17.2760 47.7253
L17.2760 47.8682
" />
<path d="M17.2760 47.8682
L17.2283 47.9634
" />
<path d="M17.2283 47.9634
L17.1807 48.0110
" />
<path d="M17.1807 48.0110
L17.0855 48.0586
" />
<path d="M17.0855 48.0586
L16.7045 48.0586
" />
<path d="M17.8950 47.5348
L18.0855 47.5348
" />
<path d="M18.0855 47.5348
L18.1807 47.5824
" />
<path d="M18.1807 47.5824
L18.2760 47.6777
" />
<path d="M18.2760 47.6777
L18.3236 47.8682
" />
<path d="M18.3236 47.8682
L18.3236 48.2015
" />
<path d="M18.3236 48.2015
L18.2760 48.3920
" />
<path d="M18.2760 48.3920
L18.1807 48.4872
" />
<path d="M18.1807 48.4872
L18.0855 48.5348
" />
<path d="M18.0855 48.5348
L17.8950 48.5348
" />
<path d="M17.8950 48.5348
L17.7998 48.4872
" />
<path d="M17.7998 48.4872
L17.7045 48.3920
" />
<path d="M17.7045 48.3920
L17.6569 48.2015
" />
<path d="M17.6569 48.2015
L17.6569 47.8682
" />
<path d="M17.6569 47.8682
L17.7045 47.6777
" />
<path d="M17.7045 47.6777
L17.7998 47.5824
" />
<path d="M17.7998 47.5824
L17.8950 47.5348
" />
<path d="M18.6093 47.5348
L19.1807 47.5348
" />
<path d="M18.8950 48.5348
L18.8950 47.5348
" />
</g><text x="17.1250" y="41.1900"
textLength="3.2976" font-size="1.3333" lengthAdjust="spacingAndGlyphs"
text-anchor="middle" opacity="0">SW1</text>
<g class="stroked-text"><desc>SW1</desc>
<path d="M15.7917 41.0972
L15.9345 41.1448
" />
<path d="M15.9345 41.1448
L16.1726 41.1448
" />
<path d="M16.1726 41.1448
L16.2679 41.0972
" />
<path d="M16.2679 41.0972
L16.3155 41.0496
" />
<path d="M16.3155 41.0496
L16.3631 40.9543
" />
<path d="M16.3631 40.9543
L16.3631 40.8591
" />
<path d="M16.3631 40.8591
L16.3155 40.7639
" />
<path d="M16.3155 40.7639
L16.2679 40.7162
" />
<path d="M16.2679 40.7162
L16.1726 40.6686
" />
<path d="M16.1726 40.6686
L15.9821 40.6210
" />
<path d="M15.9821 40.6210
L15.8869 40.5734
" />
<path d="M15.8869 40.5734
L15.8393 40.5258
" />
<path d="M15.8393 40.5258
L15.7917 40.4305
" />
<path d="M15.7917 40.4305
L15.7917 40.3353
" />
<path d="M15.7917 40.3353
L15.8393 40.2401
" />
<path d="M15.8393 40.2401
L15.8869 40.1924
" />
<path d="M15.8869 40.1924
L15.9821 40.1448
" />
<path d="M15.9821 40.1448
L16.2202 40.1448
" />
<path d="M16.2202 40.1448
L16.3631 40.1924
" />
<path d="M16.6964 40.1448
L16.9345 41.1448
" />
<path d="M16.9345 41.1448
L17.1250 40.4305
" />
<path d="M17.1250 40.4305
L17.3155 41.1448
" />
<path d="M17.3155 41.1448
L17.5536 40.1448
" />
<path d="M18.4583 41.1448
L17.8869 41.1448
" />
<path d="M18.1726 41.1448
L18.1726 40.1448
" />
<path d="M18.1726 40.1448
L18.0774 40.2877
" />
<path d="M18.0774 40.2877
L17.9821 40.3829
" />
<path d="M17.9821 40.3829
L17.8869 40.4305
" />
</g><text x="8.8750" y="80.7500"
textLength="10.2976" font-size="1.3333" lengthAdjust="spacingAndGlyphs"
text-anchor="middle" opacity="0">MountingHole</text>
<g class="stroked-text"><desc>MountingHole</desc>
<path d="M4.0893 80.7048
L4.0893 79.7048
" />
<path d="M4.0893 79.7048
L4.4226 80.4191
" />
<path d="M4.4226 80.4191
L4.7560 79.7048
" />
<path d="M4.7560 79.7048
L4.7560 80.7048
" />
<path d="M5.3750 80.7048
L5.2798 80.6572
" />
<path d="M5.2798 80.6572
L5.2321 80.6096
" />
<path d="M5.2321 80.6096
L5.1845 80.5143
" />
<path d="M5.1845 80.5143
L5.1845 80.2286
" />
<path d="M5.1845 80.2286
L5.2321 80.1334
" />
<path d="M5.2321 80.1334
L5.2798 80.0858
" />
<path d="M5.2798 80.0858
L5.3750 80.0382
" />
<path d="M5.3750 80.0382
L5.5179 80.0382
" />
<path d="M5.5179 80.0382
L5.6131 80.0858
" />
<path d="M5.6131 80.0858
L5.6607 80.1334
" />
<path d="M5.6607 80.1334
L5.7083 80.2286
" />
<path d="M5.7083 80.2286
L5.7083 80.5143
" />
<path d="M5.7083 80.5143
L5.6607 80.6096
" />
<path d="M5.6607 80.6096
L5.6131 80.6572
" />
<path d="M5.6131 80.6572
L5.5179 80.7048
" />
<path d="M5.5179 80.7048
L5.3750 80.7048
" />
<path d="M6.5655 80.0382
L6.5655 80.7048
" />
<path d="M6.1369 80.0382
L6.1369 80.5620
" />
<path d="M6.1369 80.5620
L6.1845 80.6572
" />
<path d="M6.1845 80.6572
L6.2798 80.7048
" />
<path d="M6.2798 80.7048
L6.4226 80.7048
" />
<path d="M6.4226 80.7048
L6.5179 80.6572
" />
<path d="M6.5179 80.6572
L6.5655 80.6096
" />
<path d="M7.0417 80.0382
L7.0417 80.7048
" />
<path d="M7.0417 80.1334
L7.0893 80.0858
" />
<path d="M7.0893 80.0858
L7.1845 80.0382
" />
<path d="M7.1845 80.0382
L7.3274 80.0382
" />
<path d="M7.3274 80.0382
L7.4226 80.0858
" />
<path d="M7.4226 80.0858
L7.4702 80.1810
" />
<path d="M7.4702 80.1810
L7.4702 80.7048
" />
<path d="M7.8036 80.0382
L8.1845 80.0382
" />
<path d="M7.9464 79.7048
L7.9464 80.5620
" />
<path d="M7.9464 80.5620
L7.9940 80.6572
" />
<path d="M7.9940 80.6572
L8.0893 80.7048
" />
<path d="M8.0893 80.7048
L8.1845 80.7048
" />
<path d="M8.5179 80.7048
L8.5179 80.0382
" />
<path d="M8.5179 79.7048
L8.4702 79.7524
" />
<path d="M8.4702 79.7524
L8.5179 79.8001
" />
<path d="M8.5179 79.8001
L8.5655 79.7524
" />
<path d="M8.5655 79.7524
L8.5179 79.7048
" />
<path d="M8.5179 79.7048
L8.5179 79.8001
" />
<path d="M8.9940 80.0382
L8.9940 80.7048
" />
<path d="M8.9940 80.1334
L9.0417 80.0858
" />
<path d="M9.0417 80.0858
L9.1369 80.0382
" />
<path d="M9.1369 80.0382
L9.2798 80.0382
" />
<path d="M9.2798 80.0382
L9.3750 80.0858
" />
<path d="M9.3750 80.0858
L9.4226 80.1810
" />
<path d="M9.4226 80.1810
L9.4226 80.7048
" />
<path d="M10.3274 80.0382
L10.3274 80.8477
" />
<path d="M10.3274 80.8477
L10.2798 80.9429
" />
<path d="M10.2798 80.9429
L10.2321 80.9905
" />
<path d="M10.2321 80.9905
L10.1369 81.0382
" />
<path d="M10.1369 81.0382
L9.9940 81.0382
" />
<path d="M9.9940 81.0382
L9.8988 80.9905
" />
<path d="M10.3274 80.6572
L10.2321 80.7048
" />
<path d="M10.2321 80.7048
L10.0417 80.7048
" />
<path d="M10.0417 80.7048
L9.9464 80.6572
" />
<path d="M9.9464 80.6572
L9.8988 80.6096
" />
<path d="M9.8988 80.6096
L9.8512 80.5143
" />
<path d="M9.8512 80.5143
L9.8512 80.2286
" />
<path d="M9.8512 80.2286
L9.8988 80.1334
" />
<path d="M9.8988 80.1334
L9.9464 80.0858
" />
<path d="M9.9464 80.0858
L10.0417 80.0382
" />
<path d="M10.0417 80.0382
L10.2321 80.0382
" />
<path d="M10.2321 80.0382
L10.3274 80.0858
" />
<path d="M10.8036 80.7048
L10.8036 79.7048
" />
<path d="M10.8036 80.1810
L11.3750 80.1810
" />
<path d="M11.3750 80.7048
L11.3750 79.7048
" />
<path d="M11.9940 80.7048
L11.8988 80.6572
" />
<path d="M11.8988 80.6572
L11.8512 80.6096
" />
<path d="M11.8512 80.6096
L11.8036 80.5143
" />
<path d="M11.8036 80.5143
L11.8036 80.2286
" />
<path d="M11.8036 80.2286
L11.8512 80.1334
" />
<path d="M11.8512 80.1334
L11.8988 80.0858
" />
<path d="M11.8988 80.0858
L11.9940 80.0382
" />
<path d="M11.9940 80.0382
L12.1369 80.0382
" />
<path d="M12.1369 80.0382
L12.2321 80.0858
" />
<path d="M12.2321 80.0858
L12.2798 80.1334
" />
<path d="M12.2798 80.1334
L12.3274 80.2286
" />
<path d="M12.3274 80.2286
L12.3274 80.5143
" />
<path d="M12.3274 80.5143
L12.2798 80.6096
" />
<path d="M12.2798 80.6096
L12.2321 80.6572
" />
<path d="M12.2321 80.6572
L12.1369 80.7048
" />
<path d="M12.1369 80.7048
L11.9940 80.7048
" />
<path d="M12.8988 80.7048
L12.8036 80.6572
" />
<path d="M12.8036 80.6572
L12.7560 80.5620
" />
<path d="M12.7560 80.5620
L12.7560 79.7048
" />
<path d="M13.6607 80.6572
L13.5655 80.7048
" />
<path d="M13.5655 80.7048
L13.3750 80.7048
" />
<path d="M13.3750 80.7048
L13.2798 80.6572
" />
<path d="M13.2798 80.6572
L13.2321 80.5620
" />
<path d="M13.2321 80.5620
L13.2321 80.1810
" />
<path d="M13.2321 80.1810
L13.2798 80.0858
" />
<path d="M13.2798 80.0858
L13.3750 80.0382
" />
<path d="M13.3750 80.0382
L13.5655 80.0382
" />
<path d="M13.5655 80.0382
L13.6607 80.0858
" />
<path d="M13.6607 80.0858
L13.7083 80.1810
" />
<path d="M13.7083 80.1810
L13.7083 80.2762
" />
<path d="M13.7083 80.2762
L13.2321 80.3715
" />
</g><text x="8.8750" y="76.5500"
textLength="2.2500" font-size="1.3333" lengthAdjust="spacingAndGlyphs"
text-anchor="middle" opacity="0">H4</text>
<g class="stroked-text"><desc>H4</desc>
<path d="M8.1131 76.5048
L8.1131 75.5048
" />
<path d="M8.1131 75.9810
L8.6845 75.9810
" />
<path d="M8.6845 76.5048
L8.6845 75.5048
" />
<path d="M9.5893 75.8382
L9.5893 76.5048
" />
<path d="M9.3512 75.4572
L9.1131 76.1715
" />
<path d="M9.1131 76.1715
L9.7321 76.1715
" />
</g><text x="86.8750" y="80.7500"
textLength="10.2976" font-size="1.3333" lengthAdjust="spacingAndGlyphs"
text-anchor="middle" opacity="0">MountingHole</text>
<g class="stroked-text"><desc>MountingHole</desc>
<path d="M82.0893 80.7048
L82.0893 79.7048
" />
<path d="M82.0893 79.7048
L82.4226 80.4191
" />
<path d="M82.4226 80.4191
L82.7560 79.7048
" />
<path d="M82.7560 79.7048
L82.7560 80.7048
" />
<path d="M83.3750 80.7048
L83.2798 80.6572
" />
<path d="M83.2798 80.6572
L83.2321 80.6096
" />
<path d="M83.2321 80.6096
L83.1845 80.5143
" />
<path d="M83.1845 80.5143
L83.1845 80.2286
" />
<path d="M83.1845 80.2286
L83.2321 80.1334
" />
<path d="M83.2321 80.1334
L83.2798 80.0858
" />
<path d="M83.2798 80.0858
L83.3750 80.0382
" />
<path d="M83.3750 80.0382
L83.5179 80.0382
" />
<path d="M83.5179 80.0382
L83.6131 80.0858
" />
<path d="M83.6131 80.0858
L83.6607 80.1334
" />
<path d="M83.6607 80.1334
L83.7083 80.2286
" />
<path d="M83.7083 80.2286
L83.7083 80.5143
" />
<path d="M83.7083 80.5143
L83.6607 80.6096
" />
<path d="M83.6607 80.6096
L83.6131 80.6572
" />
<path d="M83.6131 80.6572
L83.5179 80.7048
" />
<path d="M83.5179 80.7048
L83.3750 80.7048
" />
<path d="M84.5655 80.0382
L84.5655 80.7048
" />
<path d="M84.1369 80.0382
L84.1369 80.5620
" />
<path d="M84.1369 80.5620
L84.1845 80.6572
" />
<path d="M84.1845 80.6572
L84.2798 80.7048
" />
<path d="M84.2798 80.7048
L84.4226 80.7048
" />
<path d="M84.4226 80.7048
L84.5179 80.6572
" />
<path d="M84.5179 80.6572
L84.5655 80.6096
" />
<path d="M85.0417 80.0382
L85.0417 80.7048
" />
<path d="M85.0417 80.1334
L85.0893 80.0858
" />
<path d="M85.0893 80.0858
L85.1845 80.0382
" />
<path d="M85.1845 80.0382
L85.3274 80.0382
" />
<path d="M85.3274 80.0382
L85.4226 80.0858
" />
<path d="M85.4226 80.0858
L85.4702 80.1810
" />
<path d="M85.4702 80.1810
L85.4702 80.7048
" />
<path d="M85.8036 80.0382
L86.1845 80.0382
" />
<path d="M85.9464 79.7048
L85.9464 80.5620
" />
<path d="M85.9464 80.5620
L85.9940 80.6572
" />
<path d="M85.9940 80.6572
L86.0893 80.7048
" />
<path d="M86.0893 80.7048
L86.1845 80.7048
" />
<path d="M86.5179 80.7048
L86.5179 80.0382
" />
<path d="M86.5179 79.7048
L86.4702 79.7524
" />
<path d="M86.4702 79.7524
L86.5179 79.8001
" />
<path d="M86.5179 79.8001
L86.5655 79.7524
" />
<path d="M86.5655 79.7524
L86.5179 79.7048
" />
<path d="M86.5179 79.7048
L86.5179 79.8001
" />
<path d="M86.9940 80.0382
L86.9940 80.7048
" />
<path d="M86.9940 80.1334
L87.0417 80.0858
" />
<path d="M87.0417 80.0858
L87.1369 80.0382
" />
<path d="M87.1369 80.0382
L87.2798 80.0382
" />
<path d="M87.2798 80.0382
L87.3750 80.0858
" />
<path d="M87.3750 80.0858
L87.4226 80.1810
" />
<path d="M87.4226 80.1810
L87.4226 80.7048
" />
<path d="M88.3274 80.0382
L88.3274 80.8477
" />
<path d="M88.3274 80.8477
L88.2798 80.9429
" />
<path d="M88.2798 80.9429
L88.2321 80.9905
" />
<path d="M88.2321 80.9905
L88.1369 81.0382
" />
<path d="M88.1369 81.0382
L87.9940 81.0382
" />
<path d="M87.9940 81.0382
L87.8988 80.9905
" />
<path d="M88.3274 80.6572
L88.2321 80.7048
" />
<path d="M88.2321 80.7048
L88.0417 80.7048
" />
<path d="M88.0417 80.7048
L87.9464 80.6572
" />
<path d="M87.9464 80.6572
L87.8988 80.6096
" />
<path d="M87.8988 80.6096
L87.8512 80.5143
" />
<path d="M87.8512 80.5143
L87.8512 80.2286
" />
<path d="M87.8512 80.2286
L87.8988 80.1334
" />
<path d="M87.8988 80.1334
L87.9464 80.0858
" />
<path d="M87.9464 80.0858
L88.0417 80.0382
" />
<path d="M88.0417 80.0382
L88.2321 80.0382
" />
<path d="M88.2321 80.0382
L88.3274 80.0858
" />
<path d="M88.8036 80.7048
L88.8036 79.7048
" />
<path d="M88.8036 80.1810
L89.3750 80.1810
" />
<path d="M89.3750 80.7048
L89.3750 79.7048
" />
<path d="M89.9940 80.7048
L89.8988 80.6572
" />
<path d="M89.8988 80.6572
L89.8512 80.6096
" />
<path d="M89.8512 80.6096
L89.8036 80.5143
" />
<path d="M89.8036 80.5143
L89.8036 80.2286
" />
<path d="M89.8036 80.2286
L89.8512 80.1334
" />
<path d="M89.8512 80.1334
L89.8988 80.0858
" />
<path d="M89.8988 80.0858
L89.9940 80.0382
" />
<path d="M89.9940 80.0382
L90.1369 80.0382
" />
<path d="M90.1369 80.0382
L90.2321 80.0858
" />
<path d="M90.2321 80.0858
L90.2798 80.1334
" />
<path d="M90.2798 80.1334
L90.3274 80.2286
" />
<path d="M90.3274 80.2286
L90.3274 80.5143
" />
<path d="M90.3274 80.5143
L90.2798 80.6096
" />
<path d="M90.2798 80.6096
L90.2321 80.6572
" />
<path d="M90.2321 80.6572
L90.1369 80.7048
" />
<path d="M90.1369 80.7048
L89.9940 80.7048
" />
<path d="M90.8988 80.7048
L90.8036 80.6572
" />
<path d="M90.8036 80.6572
L90.7560 80.5620
" />
<path d="M90.7560 80.5620
L90.7560 79.7048
" />
<path d="M91.6607 80.6572
L91.5655 80.7048
" />
<path d="M91.5655 80.7048
L91.3750 80.7048
" />
<path d="M91.3750 80.7048
L91.2798 80.6572
" />
<path d="M91.2798 80.6572
L91.2321 80.5620
" />
<path d="M91.2321 80.5620
L91.2321 80.1810
" />
<path d="M91.2321 80.1810
L91.2798 80.0858
" />
<path d="M91.2798 80.0858
L91.3750 80.0382
" />
<path d="M91.3750 80.0382
L91.5655 80.0382
" />
<path d="M91.5655 80.0382
L91.6607 80.0858
" />
<path d="M91.6607 80.0858
L91.7083 80.1810
" />
<path d="M91.7083 80.1810
L91.7083 80.2762
" />
<path d="M91.7083 80.2762
L91.2321 80.3715
" />
</g><text x="86.8750" y="76.5500"
textLength="2.2500" font-size="1.3333" lengthAdjust="spacingAndGlyphs"
text-anchor="middle" opacity="0">H1</text>
<g class="stroked-text"><desc>H1</desc>
<path d="M86.1131 76.5048
L86.1131 75.5048
" />
<path d="M86.1131 75.9810
L86.6845 75.9810
" />
<path d="M86.6845 76.5048
L86.6845 75.5048
" />
<path d="M87.6845 76.5048
L87.1131 76.5048
" />
<path d="M87.3988 76.5048
L87.3988 75.5048
" />
<path d="M87.3988 75.5048
L87.3036 75.6477
" />
<path d="M87.3036 75.6477
L87.2083 75.7429
" />
<path d="M87.2083 75.7429
L87.1131 75.7905
" />
</g><text x="6.1900" y="23.5500"
textLength="9.3452" font-size="1.3333" lengthAdjust="spacingAndGlyphs"
text-anchor="middle" opacity="0">Conn_01x02</text>
<g class="stroked-text"><desc>Conn_01x02</desc>
<path d="M2.4519 23.4096
L2.4043 23.4572
" />
<path d="M2.4043 23.4572
L2.2614 23.5048
" />
<path d="M2.2614 23.5048
L2.1662 23.5048
" />
<path d="M2.1662 23.5048
L2.0233 23.4572
" />
<path d="M2.0233 23.4572
L1.9281 23.3620
" />
<path d="M1.9281 23.3620
L1.8805 23.2667
" />
<path d="M1.8805 23.2667
L1.8329 23.0762
" />
<path d="M1.8329 23.0762
L1.8329 22.9334
" />
<path d="M1.8329 22.9334
L1.8805 22.7429
" />
<path d="M1.8805 22.7429
L1.9281 22.6477
" />
<path d="M1.9281 22.6477
L2.0233 22.5524
" />
<path d="M2.0233 22.5524
L2.1662 22.5048
" />
<path d="M2.1662 22.5048
L2.2614 22.5048
" />
<path d="M2.2614 22.5048
L2.4043 22.5524
" />
<path d="M2.4043 22.5524
L2.4519 22.6001
" />
<path d="M3.0233 23.5048
L2.9281 23.4572
" />
<path d="M2.9281 23.4572
L2.8805 23.4096
" />
<path d="M2.8805 23.4096
L2.8329 23.3143
" />
<path d="M2.8329 23.3143
L2.8329 23.0286
" />
<path d="M2.8329 23.0286
L2.8805 22.9334
" />
<path d="M2.8805 22.9334
L2.9281 22.8858
" />
<path d="M2.9281 22.8858
L3.0233 22.8382
" />
<path d="M3.0233 22.8382
L3.1662 22.8382
" />
<path d="M3.1662 22.8382
L3.2614 22.8858
" />
<path d="M3.2614 22.8858
L3.3090 22.9334
" />
<path d="M3.3090 22.9334
L3.3567 23.0286
" />
<path d="M3.3567 23.0286
L3.3567 23.3143
" />
<path d="M3.3567 23.3143
L3.3090 23.4096
" />
<path d="M3.3090 23.4096
L3.2614 23.4572
" />
<path d="M3.2614 23.4572
L3.1662 23.5048
" />
<path d="M3.1662 23.5048
L3.0233 23.5048
" />
<path d="M3.7852 22.8382
L3.7852 23.5048
" />
<path d="M3.7852 22.9334
L3.8329 22.8858
" />
<path d="M3.8329 22.8858
L3.9281 22.8382
" />
<path d="M3.9281 22.8382
L4.0710 22.8382
" />
<path d="M4.0710 22.8382
L4.1662 22.8858
" />
<path d="M4.1662 22.8858
L4.2138 22.9810
" />
<path d="M4.2138 22.9810
L4.2138 23.5048
" />
<path d="M4.6900 22.8382
L4.6900 23.5048
" />
<path d="M4.6900 22.9334
L4.7376 22.8858
" />
<path d="M4.7376 22.8858
L4.8329 22.8382
" />
<path d="M4.8329 22.8382
L4.9757 22.8382
" />
<path d="M4.9757 22.8382
L5.0710 22.8858
" />
<path d="M5.0710 22.8858
L5.1186 22.9810
" />
<path d="M5.1186 22.9810
L5.1186 23.5048
" />
<path d="M5.3567 23.6001
L6.1186 23.6001
" />
<path d="M6.5471 22.5048
L6.6424 22.5048
" />
<path d="M6.6424 22.5048
L6.7376 22.5524
" />
<path d="M6.7376 22.5524
L6.7852 22.6001
" />
<path d="M6.7852 22.6001
L6.8329 22.6953
" />
<path d="M6.8329 22.6953
L6.8805 22.8858
" />
<path d="M6.8805 22.8858
L6.8805 23.1239
" />
<path d="M6.8805 23.1239
L6.8329 23.3143
" />
<path d="M6.8329 23.3143
L6.7852 23.4096
" />
<path d="M6.7852 23.4096
L6.7376 23.4572
" />
<path d="M6.7376 23.4572
L6.6424 23.5048
" />
<path d="M6.6424 23.5048
L6.5471 23.5048
" />
<path d="M6.5471 23.5048
L6.4519 23.4572
" />
<path d="M6.4519 23.4572
L6.4043 23.4096
" />
<path d="M6.4043 23.4096
L6.3567 23.3143
" />
<path d="M6.3567 23.3143
L6.3090 23.1239
" />
<path d="M6.3090 23.1239
L6.3090 22.8858
" />
<path d="M6.3090 22.8858
L6.3567 22.6953
" />
<path d="M6.3567 22.6953
L6.4043 22.6001
" />
<path d="M6.4043 22.6001
L6.4519 22.5524
" />
<path d="M6.4519 22.5524
L6.5471 22.5048
" />
<path d="M7.8329 23.5048
L7.2614 23.5048
" />
<path d="M7.5471 23.5048
L7.5471 22.5048
" />
<path d="M7.5471 22.5048
L7.4519 22.6477
" />
<path d="M7.4519 22.6477
L7.3567 22.7429
" />
<path d="M7.3567 22.7429
L7.2614 22.7905
" />
<path d="M8.1662 23.5048
L8.6900 22.8382
" />
<path d="M8.1662 22.8382
L8.6900 23.5048
" />
<path d="M9.2614 22.5048
L9.3567 22.5048
" />
<path d="M9.3567 22.5048
L9.4519 22.5524
" />
<path d="M9.4519 22.5524
L9.4995 22.6001
" />
<path d="M9.4995 22.6001
L9.5471 22.6953
" />
<path d="M9.5471 22.6953
L9.5948 22.8858
" />
<path d="M9.5948 22.8858
L9.5948 23.1239
" />
<path d="M9.5948 23.1239
L9.5471 23.3143
" />
<path d="M9.5471 23.3143
L9.4995 23.4096
" />
<path d="M9.4995 23.4096
L9.4519 23.4572
" />
<path d="M9.4519 23.4572
L9.3567 23.5048
" />
<path d="M9.3567 23.5048
L9.2614 23.5048
" />
<path d="M9.2614 23.5048
L9.1662 23.4572
" />
<path d="M9.1662 23.4572
L9.1186 23.4096
" />
<path d="M9.1186 23.4096
L9.0710 23.3143
" />
<path d="M9.0710 23.3143
L9.0233 23.1239
" />
<path d="M9.0233 23.1239
L9.0233 22.8858
" />
<path d="M9.0233 22.8858
L9.0710 22.6953
" />
<path d="M9.0710 22.6953
L9.1186 22.6001
" />
<path d="M9.1186 22.6001
L9.1662 22.5524
" />
<path d="M9.1662 22.5524
L9.2614 22.5048
" />
<path d="M9.9757 22.6001
L10.0233 22.5524
" />
<path d="M10.0233 22.5524
L10.1186 22.5048
" />
<path d="M10.1186 22.5048
L10.3567 22.5048
" />
<path d="M10.3567 22.5048
L10.4519 22.5524
" />
<path d="M10.4519 22.5524
L10.4995 22.6001
" />
<path d="M10.4995 22.6001
L10.5471 22.6953
" />
<path d="M10.5471 22.6953
L10.5471 22.7905
" />
<path d="M10.5471 22.7905
L10.4995 22.9334
" />
<path d="M10.4995 22.9334
L9.9281 23.5048
" />
<path d="M9.9281 23.5048
L10.5471 23.5048
" />
</g><g transform="rotate(-90.000000 7.8050 26.5900)">
<text x="7.8050" y="27.0900"
textLength="1.9643" font-size="1.3333" lengthAdjust="spacingAndGlyphs"
text-anchor="middle" opacity="0">J2</text>
</g>
<g class="stroked-text"><desc>J2</desc>
<path d="M7.2598 26.9233
L7.9741 26.9233
" />
<path d="M7.9741 26.9233
L8.1170 26.9710
" />
<path d="M8.1170 26.9710
L8.2122 27.0662
" />
<path d="M8.2122 27.0662
L8.2598 27.2090
" />
<path d="M8.2598 27.2090
L8.2598 27.3043
" />
<path d="M7.3551 26.4948
L7.3074 26.4471
" />
<path d="M7.3074 26.4471
L7.2598 26.3519
" />
<path d="M7.2598 26.3519
L7.2598 26.1138
" />
<path d="M7.2598 26.1138
L7.3074 26.0186
" />
<path d="M7.3074 26.0186
L7.3551 25.9710
" />
<path d="M7.3551 25.9710
L7.4503 25.9233
" />
<path d="M7.4503 25.9233
L7.5455 25.9233
" />
<path d="M7.5455 25.9233
L7.6884 25.9710
" />
<path d="M7.6884 25.9710
L8.2598 26.5424
" />
<path d="M8.2598 26.5424
L8.2598 25.9233
" />
</g><text x="86.8750" y="8.7500"
textLength="10.2976" font-size="1.3333" lengthAdjust="spacingAndGlyphs"
text-anchor="middle" opacity="0">MountingHole</text>
<g class="stroked-text"><desc>MountingHole</desc>
<path d="M82.0893 8.7048
L82.0893 7.7048
" />
<path d="M82.0893 7.7048
L82.4226 8.4191
" />
<path d="M82.4226 8.4191
L82.7560 7.7048
" />
<path d="M82.7560 7.7048
L82.7560 8.7048
" />
<path d="M83.3750 8.7048
L83.2798 8.6572
" />
<path d="M83.2798 8.6572
L83.2321 8.6096
" />
<path d="M83.2321 8.6096
L83.1845 8.5143
" />
<path d="M83.1845 8.5143
L83.1845 8.2286
" />
<path d="M83.1845 8.2286
L83.2321 8.1334
" />
<path d="M83.2321 8.1334
L83.2798 8.0858
" />
<path d="M83.2798 8.0858
L83.3750 8.0382
" />
<path d="M83.3750 8.0382
L83.5179 8.0382
" />
<path d="M83.5179 8.0382
L83.6131 8.0858
" />
<path d="M83.6131 8.0858
L83.6607 8.1334
" />
<path d="M83.6607 8.1334
L83.7083 8.2286
" />
<path d="M83.7083 8.2286
L83.7083 8.5143
" />
<path d="M83.7083 8.5143
L83.6607 8.6096
" />
<path d="M83.6607 8.6096
L83.6131 8.6572
" />
<path d="M83.6131 8.6572
L83.5179 8.7048
" />
<path d="M83.5179 8.7048
L83.3750 8.7048
" />
<path d="M84.5655 8.0382
L84.5655 8.7048
" />
<path d="M84.1369 8.0382
L84.1369 8.5620
" />
<path d="M84.1369 8.5620
L84.1845 8.6572
" />
<path d="M84.1845 8.6572
L84.2798 8.7048
" />
<path d="M84.2798 8.7048
L84.4226 8.7048
" />
<path d="M84.4226 8.7048
L84.5179 8.6572
" />
<path d="M84.5179 8.6572
L84.5655 8.6096
" />
<path d="M85.0417 8.0382
L85.0417 8.7048
" />
<path d="M85.0417 8.1334
L85.0893 8.0858
" />
<path d="M85.0893 8.0858
L85.1845 8.0382
" />
<path d="M85.1845 8.0382
L85.3274 8.0382
" />
<path d="M85.3274 8.0382
L85.4226 8.0858
" />
<path d="M85.4226 8.0858
L85.4702 8.1810
" />
<path d="M85.4702 8.1810
L85.4702 8.7048
" />
<path d="M85.8036 8.0382
L86.1845 8.0382
" />
<path d="M85.9464 7.7048
L85.9464 8.5620
" />
<path d="M85.9464 8.5620
L85.9940 8.6572
" />
<path d="M85.9940 8.6572
L86.0893 8.7048
" />
<path d="M86.0893 8.7048
L86.1845 8.7048
" />
<path d="M86.5179 8.7048
L86.5179 8.0382
" />
<path d="M86.5179 7.7048
L86.4702 7.7524
" />
<path d="M86.4702 7.7524
L86.5179 7.8001
" />
<path d="M86.5179 7.8001
L86.5655 7.7524
" />
<path d="M86.5655 7.7524
L86.5179 7.7048
" />
<path d="M86.5179 7.7048
L86.5179 7.8001
" />
<path d="M86.9940 8.0382
L86.9940 8.7048
" />
<path d="M86.9940 8.1334
L87.0417 8.0858
" />
<path d="M87.0417 8.0858
L87.1369 8.0382
" />
<path d="M87.1369 8.0382
L87.2798 8.0382
" />
<path d="M87.2798 8.0382
L87.3750 8.0858
" />
<path d="M87.3750 8.0858
L87.4226 8.1810
" />
<path d="M87.4226 8.1810
L87.4226 8.7048
" />
<path d="M88.3274 8.0382
L88.3274 8.8477
" />
<path d="M88.3274 8.8477
L88.2798 8.9429
" />
<path d="M88.2798 8.9429
L88.2321 8.9905
" />
<path d="M88.2321 8.9905
L88.1369 9.0382
" />
<path d="M88.1369 9.0382
L87.9940 9.0382
" />
<path d="M87.9940 9.0382
L87.8988 8.9905
" />
<path d="M88.3274 8.6572
L88.2321 8.7048
" />
<path d="M88.2321 8.7048
L88.0417 8.7048
" />
<path d="M88.0417 8.7048
L87.9464 8.6572
" />
<path d="M87.9464 8.6572
L87.8988 8.6096
" />
<path d="M87.8988 8.6096
L87.8512 8.5143
" />
<path d="M87.8512 8.5143
L87.8512 8.2286
" />
<path d="M87.8512 8.2286
L87.8988 8.1334
" />
<path d="M87.8988 8.1334
L87.9464 8.0858
" />
<path d="M87.9464 8.0858
L88.0417 8.0382
" />
<path d="M88.0417 8.0382
L88.2321 8.0382
" />
<path d="M88.2321 8.0382
L88.3274 8.0858
" />
<path d="M88.8036 8.7048
L88.8036 7.7048
" />
<path d="M88.8036 8.1810
L89.3750 8.1810
" />
<path d="M89.3750 8.7048
L89.3750 7.7048
" />
<path d="M89.9940 8.7048
L89.8988 8.6572
" />
<path d="M89.8988 8.6572
L89.8512 8.6096
" />
<path d="M89.8512 8.6096
L89.8036 8.5143
" />
<path d="M89.8036 8.5143
L89.8036 8.2286
" />
<path d="M89.8036 8.2286
L89.8512 8.1334
" />
<path d="M89.8512 8.1334
L89.8988 8.0858
" />
<path d="M89.8988 8.0858
L89.9940 8.0382
" />
<path d="M89.9940 8.0382
L90.1369 8.0382
" />
<path d="M90.1369 8.0382
L90.2321 8.0858
" />
<path d="M90.2321 8.0858
L90.2798 8.1334
" />
<path d="M90.2798 8.1334
L90.3274 8.2286
" />
<path d="M90.3274 8.2286
L90.3274 8.5143
" />
<path d="M90.3274 8.5143
L90.2798 8.6096
" />
<path d="M90.2798 8.6096
L90.2321 8.6572
" />
<path d="M90.2321 8.6572
L90.1369 8.7048
" />
<path d="M90.1369 8.7048
L89.9940 8.7048
" />
<path d="M90.8988 8.7048
L90.8036 8.6572
" />
<path d="M90.8036 8.6572
L90.7560 8.5620
" />
<path d="M90.7560 8.5620
L90.7560 7.7048
" />
<path d="M91.6607 8.6572
L91.5655 8.7048
" />
<path d="M91.5655 8.7048
L91.3750 8.7048
" />
<path d="M91.3750 8.7048
L91.2798 8.6572
" />
<path d="M91.2798 8.6572
L91.2321 8.5620
" />
<path d="M91.2321 8.5620
L91.2321 8.1810
" />
<path d="M91.2321 8.1810
L91.2798 8.0858
" />
<path d="M91.2798 8.0858
L91.3750 8.0382
" />
<path d="M91.3750 8.0382
L91.5655 8.0382
" />
<path d="M91.5655 8.0382
L91.6607 8.0858
" />
<path d="M91.6607 8.0858
L91.7083 8.1810
" />
<path d="M91.7083 8.1810
L91.7083 8.2762
" />
<path d="M91.7083 8.2762
L91.2321 8.3715
" />
</g><text x="86.8750" y="4.5500"
textLength="2.2500" font-size="1.3333" lengthAdjust="spacingAndGlyphs"
text-anchor="middle" opacity="0">H2</text>
<g class="stroked-text"><desc>H2</desc>
<path d="M86.1131 4.5048
L86.1131 3.5048
" />
<path d="M86.1131 3.9810
L86.6845 3.9810
" />
<path d="M86.6845 4.5048
L86.6845 3.5048
" />
<path d="M87.1131 3.6001
L87.1607 3.5524
" />
<path d="M87.1607 3.5524
L87.2560 3.5048
" />
<path d="M87.2560 3.5048
L87.4940 3.5048
" />
<path d="M87.4940 3.5048
L87.5893 3.5524
" />
<path d="M87.5893 3.5524
L87.6369 3.6001
" />
<path d="M87.6369 3.6001
L87.6845 3.6953
" />
<path d="M87.6845 3.6953
L87.6845 3.7905
" />
<path d="M87.6845 3.7905
L87.6369 3.9334
" />
<path d="M87.6369 3.9334
L87.0655 4.5048
" />
<path d="M87.0655 4.5048
L87.6845 4.5048
" />
</g><text x="47.3950" y="73.5800"
textLength="3.9643" font-size="1.3333" lengthAdjust="spacingAndGlyphs"
text-anchor="middle" opacity="0">DIGIT</text>
<g class="stroked-text"><desc>DIGIT</desc>
<path d="M45.7760 73.5348
L45.7760 72.5348
" />
<path d="M45.7760 72.5348
L46.0140 72.5348
" />
<path d="M46.0140 72.5348
L46.1569 72.5824
" />
<path d="M46.1569 72.5824
L46.2521 72.6777
" />
<path d="M46.2521 72.6777
L46.2998 72.7729
" />
<path d="M46.2998 72.7729
L46.3474 72.9634
" />
<path d="M46.3474 72.9634
L46.3474 73.1062
" />
<path d="M46.3474 73.1062
L46.2998 73.2967
" />
<path d="M46.2998 73.2967
L46.2521 73.3920
" />
<path d="M46.2521 73.3920
L46.1569 73.4872
" />
<path d="M46.1569 73.4872
L46.0140 73.5348
" />
<path d="M46.0140 73.5348
L45.7760 73.5348
" />
<path d="M46.7760 73.5348
L46.7760 72.5348
" />
<path d="M47.7760 72.5824
L47.6807 72.5348
" />
<path d="M47.6807 72.5348
L47.5379 72.5348
" />
<path d="M47.5379 72.5348
L47.3950 72.5824
" />
<path d="M47.3950 72.5824
L47.2998 72.6777
" />
<path d="M47.2998 72.6777
L47.2521 72.7729
" />
<path d="M47.2521 72.7729
L47.2045 72.9634
" />
<path d="M47.2045 72.9634
L47.2045 73.1062
" />
<path d="M47.2045 73.1062
L47.2521 73.2967
" />
<path d="M47.2521 73.2967
L47.2998 73.3920
" />
<path d="M47.2998 73.3920
L47.3950 73.4872
" />
<path d="M47.3950 73.4872
L47.5379 73.5348
" />
<path d="M47.5379 73.5348
L47.6331 73.5348
" />
<path d="M47.6331 73.5348
L47.7760 73.4872
" />
<path d="M47.7760 73.4872
L47.8236 73.4396
" />
<path d="M47.8236 73.4396
L47.8236 73.1062
" />
<path d="M47.8236 73.1062
L47.6331 73.1062
" />
<path d="M48.2521 73.5348
L48.2521 72.5348
" />
<path d="M48.5855 72.5348
L49.1569 72.5348
" />
<path d="M48.8712 73.5348
L48.8712 72.5348
" />
</g><text x="47.1250" y="66.1900"
textLength="3.2976" font-size="1.3333" lengthAdjust="spacingAndGlyphs"
text-anchor="middle" opacity="0">SW3</text>
<g class="stroked-text"><desc>SW3</desc>
<path d="M45.7917 66.0972
L45.9345 66.1448
" />
<path d="M45.9345 66.1448
L46.1726 66.1448
" />
<path d="M46.1726 66.1448
L46.2679 66.0972
" />
<path d="M46.2679 66.0972
L46.3155 66.0496
" />
<path d="M46.3155 66.0496
L46.3631 65.9543
" />
<path d="M46.3631 65.9543
L46.3631 65.8591
" />
<path d="M46.3631 65.8591
L46.3155 65.7639
" />
<path d="M46.3155 65.7639
L46.2679 65.7162
" />
<path d="M46.2679 65.7162
L46.1726 65.6686
" />
<path d="M46.1726 65.6686
L45.9821 65.6210
" />
<path d="M45.9821 65.6210
L45.8869 65.5734
" />
<path d="M45.8869 65.5734
L45.8393 65.5258
" />
<path d="M45.8393 65.5258
L45.7917 65.4305
" />
<path d="M45.7917 65.4305
L45.7917 65.3353
" />
<path d="M45.7917 65.3353
L45.8393 65.2401
" />
<path d="M45.8393 65.2401
L45.8869 65.1924
" />
<path d="M45.8869 65.1924
L45.9821 65.1448
" />
<path d="M45.9821 65.1448
L46.2202 65.1448
" />
<path d="M46.2202 65.1448
L46.3631 65.1924
" />
<path d="M46.6964 65.1448
L46.9345 66.1448
" />
<path d="M46.9345 66.1448
L47.1250 65.4305
" />
<path d="M47.1250 65.4305
L47.3155 66.1448
" />
<path d="M47.3155 66.1448
L47.5536 65.1448
" />
<path d="M47.8393 65.1448
L48.4583 65.1448
" />
<path d="M48.4583 65.1448
L48.1250 65.5258
" />
<path d="M48.1250 65.5258
L48.2679 65.5258
" />
<path d="M48.2679 65.5258
L48.3631 65.5734
" />
<path d="M48.3631 65.5734
L48.4107 65.6210
" />
<path d="M48.4107 65.6210
L48.4583 65.7162
" />
<path d="M48.4583 65.7162
L48.4583 65.9543
" />
<path d="M48.4583 65.9543
L48.4107 66.0496
" />
<path d="M48.4107 66.0496
L48.3631 66.0972
" />
<path d="M48.3631 66.0972
L48.2679 66.1448
" />
<path d="M48.2679 66.1448
L47.9821 66.1448
" />
<path d="M47.9821 66.1448
L47.8869 66.0972
" />
<path d="M47.8869 66.0972
L47.8393 66.0496
" />
</g><text x="17.3950" y="73.5800"
textLength="4.1071" font-size="1.3333" lengthAdjust="spacingAndGlyphs"
text-anchor="middle" opacity="0">MUTE</text>
<g class="stroked-text"><desc>MUTE</desc>
<path d="M15.7045 73.5348
L15.7045 72.5348
" />
<path d="M15.7045 72.5348
L16.0379 73.2491
" />
<path d="M16.0379 73.2491
L16.3712 72.5348
" />
<path d="M16.3712 72.5348
L16.3712 73.5348
" />
<path d="M16.8474 72.5348
L16.8474 73.3443
" />
<path d="M16.8474 73.3443
L16.8950 73.4396
" />
<path d="M16.8950 73.4396
L16.9426 73.4872
" />
<path d="M16.9426 73.4872
L17.0379 73.5348
" />
<path d="M17.0379 73.5348
L17.2283 73.5348
" />
<path d="M17.2283 73.5348
L17.3236 73.4872
" />
<path d="M17.3236 73.4872
L17.3712 73.4396
" />
<path d="M17.3712 73.4396
L17.4188 73.3443
" />
<path d="M17.4188 73.3443
L17.4188 72.5348
" />
<path d="M17.7521 72.5348
L18.3236 72.5348
" />
<path d="M18.0379 73.5348
L18.0379 72.5348
" />
<path d="M18.6569 73.0110
L18.9902 73.0110
" />
<path d="M19.1331 73.5348
L18.6569 73.5348
" />
<path d="M18.6569 73.5348
L18.6569 72.5348
" />
<path d="M18.6569 72.5348
L19.1331 72.5348
" />
</g><text x="17.1250" y="66.1900"
textLength="3.2976" font-size="1.3333" lengthAdjust="spacingAndGlyphs"
text-anchor="middle" opacity="0">SW2</text>
<g class="stroked-text"><desc>SW2</desc>
<path d="M15.7917 66.0972
L15.9345 66.1448
" />
<path d="M15.9345 66.1448
L16.1726 66.1448
" />
<path d="M16.1726 66.1448
L16.2679 66.0972
" />
<path d="M16.2679 66.0972
L16.3155 66.0496
" />
<path d="M16.3155 66.0496
L16.3631 65.9543
" />
<path d="M16.3631 65.9543
L16.3631 65.8591
" />
<path d="M16.3631 65.8591
L16.3155 65.7639
" />
<path d="M16.3155 65.7639
L16.2679 65.7162
" />
<path d="M16.2679 65.7162
L16.1726 65.6686
" />
<path d="M16.1726 65.6686
L15.9821 65.6210
" />
<path d="M15.9821 65.6210
L15.8869 65.5734
" />
<path d="M15.8869 65.5734
L15.8393 65.5258
" />
<path d="M15.8393 65.5258
L15.7917 65.4305
" />
<path d="M15.7917 65.4305
L15.7917 65.3353
" />
<path d="M15.7917 65.3353
L15.8393 65.2401
" />
<path d="M15.8393 65.2401
L15.8869 65.1924
" />
<path d="M15.8869 65.1924
L15.9821 65.1448
" />
<path d="M15.9821 65.1448
L16.2202 65.1448
" />
<path d="M16.2202 65.1448
L16.3631 65.1924
" />
<path d="M16.6964 65.1448
L16.9345 66.1448
" />
<path d="M16.9345 66.1448
L17.1250 65.4305
" />
<path d="M17.1250 65.4305
L17.3155 66.1448
" />
<path d="M17.3155 66.1448
L17.5536 65.1448
" />
<path d="M17.8869 65.2401
L17.9345 65.1924
" />
<path d="M17.9345 65.1924
L18.0298 65.1448
" />
<path d="M18.0298 65.1448
L18.2679 65.1448
" />
<path d="M18.2679 65.1448
L18.3631 65.1924
" />
<path d="M18.3631 65.1924
L18.4107 65.2401
" />
<path d="M18.4107 65.2401
L18.4583 65.3353
" />
<path d="M18.4583 65.3353
L18.4583 65.4305
" />
<path d="M18.4583 65.4305
L18.4107 65.5734
" />
<path d="M18.4107 65.5734
L17.8393 66.1448
" />
<path d="M17.8393 66.1448
L18.4583 66.1448
" />
</g><text x="77.3950" y="48.5800"
textLength="5.0595" font-size="1.3333" lengthAdjust="spacingAndGlyphs"
text-anchor="middle" opacity="0">FILTER</text>
<g class="stroked-text"><desc>FILTER</desc>
<path d="M75.5617 48.0110
L75.2283 48.0110
" />
<path d="M75.2283 48.5348
L75.2283 47.5348
" />
<path d="M75.2283 47.5348
L75.7045 47.5348
" />
<path d="M76.0855 48.5348
L76.0855 47.5348
" />
<path d="M77.0379 48.5348
L76.5617 48.5348
" />
<path d="M76.5617 48.5348
L76.5617 47.5348
" />
<path d="M77.2283 47.5348
L77.7998 47.5348
" />
<path d="M77.5140 48.5348
L77.5140 47.5348
" />
<path d="M78.1331 48.0110
L78.4664 48.0110
" />
<path d="M78.6093 48.5348
L78.1331 48.5348
" />
<path d="M78.1331 48.5348
L78.1331 47.5348
" />
<path d="M78.1331 47.5348
L78.6093 47.5348
" />
<path d="M79.6093 48.5348
L79.2760 48.0586
" />
<path d="M79.0379 48.5348
L79.0379 47.5348
" />
<path d="M79.0379 47.5348
L79.4188 47.5348
" />
<path d="M79.4188 47.5348
L79.5140 47.5824
" />
<path d="M79.5140 47.5824
L79.5617 47.6301
" />
<path d="M79.5617 47.6301
L79.6093 47.7253
" />
<path d="M79.6093 47.7253
L79.6093 47.8682
" />
<path d="M79.6093 47.8682
L79.5617 47.9634
" />
<path d="M79.5617 47.9634
L79.5140 48.0110
" />
<path d="M79.5140 48.0110
L79.4188 48.0586
" />
<path d="M79.4188 48.0586
L79.0379 48.0586
" />
</g><text x="77.1250" y="41.1900"
textLength="3.2976" font-size="1.3333" lengthAdjust="spacingAndGlyphs"
text-anchor="middle" opacity="0">SW7</text>
<g class="stroked-text"><desc>SW7</desc>
<path d="M75.7917 41.0972
L75.9345 41.1448
" />
<path d="M75.9345 41.1448
L76.1726 41.1448
" />
<path d="M76.1726 41.1448
L76.2679 41.0972
" />
<path d="M76.2679 41.0972
L76.3155 41.0496
" />
<path d="M76.3155 41.0496
L76.3631 40.9543
" />
<path d="M76.3631 40.9543
L76.3631 40.8591
" />
<path d="M76.3631 40.8591
L76.3155 40.7639
" />
<path d="M76.3155 40.7639
L76.2679 40.7162
" />
<path d="M76.2679 40.7162
L76.1726 40.6686
" />
<path d="M76.1726 40.6686
L75.9821 40.6210
" />
<path d="M75.9821 40.6210
L75.8869 40.5734
" />
<path d="M75.8869 40.5734
L75.8393 40.5258
" />
<path d="M75.8393 40.5258
L75.7917 40.4305
" />
<path d="M75.7917 40.4305
L75.7917 40.3353
" />
<path d="M75.7917 40.3353
L75.8393 40.2401
" />
<path d="M75.8393 40.2401
L75.8869 40.1924
" />
<path d="M75.8869 40.1924
L75.9821 40.1448
" />
<path d="M75.9821 40.1448
L76.2202 40.1448
" />
<path d="M76.2202 40.1448
L76.3631 40.1924
" />
<path d="M76.6964 40.1448
L76.9345 41.1448
" />
<path d="M76.9345 41.1448
L77.1250 40.4305
" />
<path d="M77.1250 40.4305
L77.3155 41.1448
" />
<path d="M77.3155 41.1448
L77.5536 40.1448
" />
<path d="M77.8393 40.1448
L78.5060 40.1448
" />
<path d="M78.5060 40.1448
L78.0774 41.1448
" />
</g><text x="77.3950" y="73.5800"
textLength="4.1548" font-size="1.3333" lengthAdjust="spacingAndGlyphs"
text-anchor="middle" opacity="0">BAND</text>
<g class="stroked-text"><desc>BAND</desc>
<path d="M76.0140 73.0110
L76.1569 73.0586
" />
<path d="M76.1569 73.0586
L76.2045 73.1062
" />
<path d="M76.2045 73.1062
L76.2521 73.2015
" />
<path d="M76.2521 73.2015
L76.2521 73.3443
" />
<path d="M76.2521 73.3443
L76.2045 73.4396
" />
<path d="M76.2045 73.4396
L76.1569 73.4872
" />
<path d="M76.1569 73.4872
L76.0617 73.5348
" />
<path d="M76.0617 73.5348
L75.6807 73.5348
" />
<path d="M75.6807 73.5348
L75.6807 72.5348
" />
<path d="M75.6807 72.5348
L76.0140 72.5348
" />
<path d="M76.0140 72.5348
L76.1093 72.5824
" />
<path d="M76.1093 72.5824
L76.1569 72.6301
" />
<path d="M76.1569 72.6301
L76.2045 72.7253
" />
<path d="M76.2045 72.7253
L76.2045 72.8205
" />
<path d="M76.2045 72.8205
L76.1569 72.9158
" />
<path d="M76.1569 72.9158
L76.1093 72.9634
" />
<path d="M76.1093 72.9634
L76.0140 73.0110
" />
<path d="M76.0140 73.0110
L75.6807 73.0110
" />
<path d="M76.6331 73.2491
L77.1093 73.2491
" />
<path d="M76.5379 73.5348
L76.8712 72.5348
" />
<path d="M76.8712 72.5348
L77.2045 73.5348
" />
<path d="M77.5379 73.5348
L77.5379 72.5348
" />
<path d="M77.5379 72.5348
L78.1093 73.5348
" />
<path d="M78.1093 73.5348
L78.1093 72.5348
" />
<path d="M78.5855 73.5348
L78.5855 72.5348
" />
<path d="M78.5855 72.5348
L78.8236 72.5348
" />
<path d="M78.8236 72.5348
L78.9664 72.5824
" />
<path d="M78.9664 72.5824
L79.0617 72.6777
" />
<path d="M79.0617 72.6777
L79.1093 72.7729
" />
<path d="M79.1093 72.7729
L79.1569 72.9634
" />
<path d="M79.1569 72.9634
L79.1569 73.1062
" />
<path d="M79.1569 73.1062
L79.1093 73.2967
" />
<path d="M79.1093 73.2967
L79.0617 73.3920
" />
<path d="M79.0617 73.3920
L78.9664 73.4872
" />
<path d="M78.9664 73.4872
L78.8236 73.5348
" />
<path d="M78.8236 73.5348
L78.5855 73.5348
" />
</g><text x="77.1250" y="66.1900"
textLength="3.2976" font-size="1.3333" lengthAdjust="spacingAndGlyphs"
text-anchor="middle" opacity="0">SW8</text>
<g class="stroked-text"><desc>SW8</desc>
<path d="M75.7917 66.0972
L75.9345 66.1448
" />
<path d="M75.9345 66.1448
L76.1726 66.1448
" />
<path d="M76.1726 66.1448
L76.2679 66.0972
" />
<path d="M76.2679 66.0972
L76.3155 66.0496
" />
<path d="M76.3155 66.0496
L76.3631 65.9543
" />
<path d="M76.3631 65.9543
L76.3631 65.8591
" />
<path d="M76.3631 65.8591
L76.3155 65.7639
" />
<path d="M76.3155 65.7639
L76.2679 65.7162
" />
<path d="M76.2679 65.7162
L76.1726 65.6686
" />
<path d="M76.1726 65.6686
L75.9821 65.6210
" />
<path d="M75.9821 65.6210
L75.8869 65.5734
" />
<path d="M75.8869 65.5734
L75.8393 65.5258
" />
<path d="M75.8393 65.5258
L75.7917 65.4305
" />
<path d="M75.7917 65.4305
L75.7917 65.3353
" />
<path d="M75.7917 65.3353
L75.8393 65.2401
" />
<path d="M75.8393 65.2401
L75.8869 65.1924
" />
<path d="M75.8869 65.1924
L75.9821 65.1448
" />
<path d="M75.9821 65.1448
L76.2202 65.1448
" />
<path d="M76.2202 65.1448
L76.3631 65.1924
" />
<path d="M76.6964 65.1448
L76.9345 66.1448
" />
<path d="M76.9345 66.1448
L77.1250 65.4305
" />
<path d="M77.1250 65.4305
L77.3155 66.1448
" />
<path d="M77.3155 66.1448
L77.5536 65.1448
" />
<path d="M78.0774 65.5734
L77.9821 65.5258
" />
<path d="M77.9821 65.5258
L77.9345 65.4782
" />
<path d="M77.9345 65.4782
L77.8869 65.3829
" />
<path d="M77.8869 65.3829
L77.8869 65.3353
" />
<path d="M77.8869 65.3353
L77.9345 65.2401
" />
<path d="M77.9345 65.2401
L77.9821 65.1924
" />
<path d="M77.9821 65.1924
L78.0774 65.1448
" />
<path d="M78.0774 65.1448
L78.2679 65.1448
" />
<path d="M78.2679 65.1448
L78.3631 65.1924
" />
<path d="M78.3631 65.1924
L78.4107 65.2401
" />
<path d="M78.4107 65.2401
L78.4583 65.3353
" />
<path d="M78.4583 65.3353
L78.4583 65.3829
" />
<path d="M78.4583 65.3829
L78.4107 65.4782
" />
<path d="M78.4107 65.4782
L78.3631 65.5258
" />
<path d="M78.3631 65.5258
L78.2679 65.5734
" />
<path d="M78.2679 65.5734
L78.0774 65.5734
" />
<path d="M78.0774 65.5734
L77.9821 65.6210
" />
<path d="M77.9821 65.6210
L77.9345 65.6686
" />
<path d="M77.9345 65.6686
L77.8869 65.7639
" />
<path d="M77.8869 65.7639
L77.8869 65.9543
" />
<path d="M77.8869 65.9543
L77.9345 66.0496
" />
<path d="M77.9345 66.0496
L77.9821 66.0972
" />
<path d="M77.9821 66.0972
L78.0774 66.1448
" />
<path d="M78.0774 66.1448
L78.2679 66.1448
" />
<path d="M78.2679 66.1448
L78.3631 66.0972
" />
<path d="M78.3631 66.0972
L78.4107 66.0496
" />
<path d="M78.4107 66.0496
L78.4583 65.9543
" />
<path d="M78.4583 65.9543
L78.4583 65.7639
" />
<path d="M78.4583 65.7639
L78.4107 65.6686
" />
<path d="M78.4107 65.6686
L78.3631 65.6210
" />
<path d="M78.3631 65.6210
L78.2679 65.5734
" />
</g><text x="17.3950" y="23.5800"
textLength="6.0595" font-size="1.3333" lengthAdjust="spacingAndGlyphs"
text-anchor="middle" opacity="0">TXMODE</text>
<g class="stroked-text"><desc>TXMODE</desc>
<path d="M14.5855 22.5348
L15.1569 22.5348
" />
<path d="M14.8712 23.5348
L14.8712 22.5348
" />
<path d="M15.3950 22.5348
L16.0617 23.5348
" />
<path d="M16.0617 22.5348
L15.3950 23.5348
" />
<path d="M16.4426 23.5348
L16.4426 22.5348
" />
<path d="M16.4426 22.5348
L16.7760 23.2491
" />
<path d="M16.7760 23.2491
L17.1093 22.5348
" />
<path d="M17.1093 22.5348
L17.1093 23.5348
" />
<path d="M17.7760 22.5348
L17.9664 22.5348
" />
<path d="M17.9664 22.5348
L18.0617 22.5824
" />
<path d="M18.0617 22.5824
L18.1569 22.6777
" />
<path d="M18.1569 22.6777
L18.2045 22.8682
" />
<path d="M18.2045 22.8682
L18.2045 23.2015
" />
<path d="M18.2045 23.2015
L18.1569 23.3920
" />
<path d="M18.1569 23.3920
L18.0617 23.4872
" />
<path d="M18.0617 23.4872
L17.9664 23.5348
" />
<path d="M17.9664 23.5348
L17.7760 23.5348
" />
<path d="M17.7760 23.5348
L17.6807 23.4872
" />
<path d="M17.6807 23.4872
L17.5855 23.3920
" />
<path d="M17.5855 23.3920
L17.5379 23.2015
" />
<path d="M17.5379 23.2015
L17.5379 22.8682
" />
<path d="M17.5379 22.8682
L17.5855 22.6777
" />
<path d="M17.5855 22.6777
L17.6807 22.5824
" />
<path d="M17.6807 22.5824
L17.7760 22.5348
" />
<path d="M18.6331 23.5348
L18.6331 22.5348
" />
<path d="M18.6331 22.5348
L18.8712 22.5348
" />
<path d="M18.8712 22.5348
L19.0140 22.5824
" />
<path d="M19.0140 22.5824
L19.1093 22.6777
" />
<path d="M19.1093 22.6777
L19.1569 22.7729
" />
<path d="M19.1569 22.7729
L19.2045 22.9634
" />
<path d="M19.2045 22.9634
L19.2045 23.1062
" />
<path d="M19.2045 23.1062
L19.1569 23.2967
" />
<path d="M19.1569 23.2967
L19.1093 23.3920
" />
<path d="M19.1093 23.3920
L19.0140 23.4872
" />
<path d="M19.0140 23.4872
L18.8712 23.5348
" />
<path d="M18.8712 23.5348
L18.6331 23.5348
" />
<path d="M19.6331 23.0110
L19.9664 23.0110
" />
<path d="M20.1093 23.5348
L19.6331 23.5348
" />
<path d="M19.6331 23.5348
L19.6331 22.5348
" />
<path d="M19.6331 22.5348
L20.1093 22.5348
" />
</g><text x="17.1250" y="16.1900"
textLength="4.2500" font-size="1.3333" lengthAdjust="spacingAndGlyphs"
text-anchor="middle" opacity="0">SW10</text>
<g class="stroked-text"><desc>SW10</desc>
<path d="M15.3155 16.0972
L15.4583 16.1448
" />
<path d="M15.4583 16.1448
L15.6964 16.1448
" />
<path d="M15.6964 16.1448
L15.7917 16.0972
" />
<path d="M15.7917 16.0972
L15.8393 16.0496
" />
<path d="M15.8393 16.0496
L15.8869 15.9543
" />
<path d="M15.8869 15.9543
L15.8869 15.8591
" />
<path d="M15.8869 15.8591
L15.8393 15.7639
" />
<path d="M15.8393 15.7639
L15.7917 15.7162
" />
<path d="M15.7917 15.7162
L15.6964 15.6686
" />
<path d="M15.6964 15.6686
L15.5060 15.6210
" />
<path d="M15.5060 15.6210
L15.4107 15.5734
" />
<path d="M15.4107 15.5734
L15.3631 15.5258
" />
<path d="M15.3631 15.5258
L15.3155 15.4305
" />
<path d="M15.3155 15.4305
L15.3155 15.3353
" />
<path d="M15.3155 15.3353
L15.3631 15.2401
" />
<path d="M15.3631 15.2401
L15.4107 15.1924
" />
<path d="M15.4107 15.1924
L15.5060 15.1448
" />
<path d="M15.5060 15.1448
L15.7440 15.1448
" />
<path d="M15.7440 15.1448
L15.8869 15.1924
" />
<path d="M16.2202 15.1448
L16.4583 16.1448
" />
<path d="M16.4583 16.1448
L16.6488 15.4305
" />
<path d="M16.6488 15.4305
L16.8393 16.1448
" />
<path d="M16.8393 16.1448
L17.0774 15.1448
" />
<path d="M17.9821 16.1448
L17.4107 16.1448
" />
<path d="M17.6964 16.1448
L17.6964 15.1448
" />
<path d="M17.6964 15.1448
L17.6012 15.2877
" />
<path d="M17.6012 15.2877
L17.5060 15.3829
" />
<path d="M17.5060 15.3829
L17.4107 15.4305
" />
<path d="M18.6012 15.1448
L18.6964 15.1448
" />
<path d="M18.6964 15.1448
L18.7917 15.1924
" />
<path d="M18.7917 15.1924
L18.8393 15.2401
" />
<path d="M18.8393 15.2401
L18.8869 15.3353
" />
<path d="M18.8869 15.3353
L18.9345 15.5258
" />
<path d="M18.9345 15.5258
L18.9345 15.7639
" />
<path d="M18.9345 15.7639
L18.8869 15.9543
" />
<path d="M18.8869 15.9543
L18.8393 16.0496
" />
<path d="M18.8393 16.0496
L18.7917 16.0972
" />
<path d="M18.7917 16.0972
L18.6964 16.1448
" />
<path d="M18.6964 16.1448
L18.6012 16.1448
" />
<path d="M18.6012 16.1448
L18.5060 16.0972
" />
<path d="M18.5060 16.0972
L18.4583 16.0496
" />
<path d="M18.4583 16.0496
L18.4107 15.9543
" />
<path d="M18.4107 15.9543
L18.3631 15.7639
" />
<path d="M18.3631 15.7639
L18.3631 15.5258
" />
<path d="M18.3631 15.5258
L18.4107 15.3353
" />
<path d="M18.4107 15.3353
L18.4583 15.2401
" />
<path d="M18.4583 15.2401
L18.5060 15.1924
" />
<path d="M18.5060 15.1924
L18.6012 15.1448
" />
</g><text x="47.3950" y="48.5800"
textLength="4.3929" font-size="1.3333" lengthAdjust="spacingAndGlyphs"
text-anchor="middle" opacity="0">MENU</text>
<g class="stroked-text"><desc>MENU</desc>
<path d="M45.5617 48.5348
L45.5617 47.5348
" />
<path d="M45.5617 47.5348
L45.8950 48.2491
" />
<path d="M45.8950 48.2491
L46.2283 47.5348
" />
<path d="M46.2283 47.5348
L46.2283 48.5348
" />
<path d="M46.7045 48.0110
L47.0379 48.0110
" />
<path d="M47.1807 48.5348
L46.7045 48.5348
" />
<path d="M46.7045 48.5348
L46.7045 47.5348
" />
<path d="M46.7045 47.5348
L47.1807 47.5348
" />
<path d="M47.6093 48.5348
L47.6093 47.5348
" />
<path d="M47.6093 47.5348
L48.1807 48.5348
" />
<path d="M48.1807 48.5348
L48.1807 47.5348
" />
<path d="M48.6569 47.5348
L48.6569 48.3443
" />
<path d="M48.6569 48.3443
L48.7045 48.4396
" />
<path d="M48.7045 48.4396
L48.7521 48.4872
" />
<path d="M48.7521 48.4872
L48.8474 48.5348
" />
<path d="M48.8474 48.5348
L49.0379 48.5348
" />
<path d="M49.0379 48.5348
L49.1331 48.4872
" />
<path d="M49.1331 48.4872
L49.1807 48.4396
" />
<path d="M49.1807 48.4396
L49.2283 48.3443
" />
<path d="M49.2283 48.3443
L49.2283 47.5348
" />
</g><text x="47.1250" y="41.1900"
textLength="3.2976" font-size="1.3333" lengthAdjust="spacingAndGlyphs"
text-anchor="middle" opacity="0">SW4</text>
<g class="stroked-text"><desc>SW4</desc>
<path d="M45.7917 41.0972
L45.9345 41.1448
" />
<path d="M45.9345 41.1448
L46.1726 41.1448
" />
<path d="M46.1726 41.1448
L46.2679 41.0972
" />
<path d="M46.2679 41.0972
L46.3155 41.0496
" />
<path d="M46.3155 41.0496
L46.3631 40.9543
" />
<path d="M46.3631 40.9543
L46.3631 40.8591
" />
<path d="M46.3631 40.8591
L46.3155 40.7639
" />
<path d="M46.3155 40.7639
L46.2679 40.7162
" />
<path d="M46.2679 40.7162
L46.1726 40.6686
" />
<path d="M46.1726 40.6686
L45.9821 40.6210
" />
<path d="M45.9821 40.6210
L45.8869 40.5734
" />
<path d="M45.8869 40.5734
L45.8393 40.5258
" />
<path d="M45.8393 40.5258
L45.7917 40.4305
" />
<path d="M45.7917 40.4305
L45.7917 40.3353
" />
<path d="M45.7917 40.3353
L45.8393 40.2401
" />
<path d="M45.8393 40.2401
L45.8869 40.1924
" />
<path d="M45.8869 40.1924
L45.9821 40.1448
" />
<path d="M45.9821 40.1448
L46.2202 40.1448
" />
<path d="M46.2202 40.1448
L46.3631 40.1924
" />
<path d="M46.6964 40.1448
L46.9345 41.1448
" />
<path d="M46.9345 41.1448
L47.1250 40.4305
" />
<path d="M47.1250 40.4305
L47.3155 41.1448
" />
<path d="M47.3155 41.1448
L47.5536 40.1448
" />
<path d="M48.3631 40.4782
L48.3631 41.1448
" />
<path d="M48.1250 40.0972
L47.8869 40.8115
" />
<path d="M47.8869 40.8115
L48.5060 40.8115
" />
</g><text x="77.3950" y="23.5800"
textLength="7.7738" font-size="1.3333" lengthAdjust="spacingAndGlyphs"
text-anchor="middle" opacity="0">NOT_USED</text>
<g class="stroked-text"><desc>NOT_USED</desc>
<path d="M73.8712 23.5348
L73.8712 22.5348
" />
<path d="M73.8712 22.5348
L74.4426 23.5348
" />
<path d="M74.4426 23.5348
L74.4426 22.5348
" />
<path d="M75.1093 22.5348
L75.2998 22.5348
" />
<path d="M75.2998 22.5348
L75.3950 22.5824
" />
<path d="M75.3950 22.5824
L75.4902 22.6777
" />
<path d="M75.4902 22.6777
L75.5379 22.8682
" />
<path d="M75.5379 22.8682
L75.5379 23.2015
" />
<path d="M75.5379 23.2015
L75.4902 23.3920
" />
<path d="M75.4902 23.3920
L75.3950 23.4872
" />
<path d="M75.3950 23.4872
L75.2998 23.5348
" />
<path d="M75.2998 23.5348
L75.1093 23.5348
" />
<path d="M75.1093 23.5348
L75.0140 23.4872
" />
<path d="M75.0140 23.4872
L74.9188 23.3920
" />
<path d="M74.9188 23.3920
L74.8712 23.2015
" />
<path d="M74.8712 23.2015
L74.8712 22.8682
" />
<path d="M74.8712 22.8682
L74.9188 22.6777
" />
<path d="M74.9188 22.6777
L75.0140 22.5824
" />
<path d="M75.0140 22.5824
L75.1093 22.5348
" />
<path d="M75.8236 22.5348
L76.3950 22.5348
" />
<path d="M76.1093 23.5348
L76.1093 22.5348
" />
<path d="M76.4902 23.6301
L77.2521 23.6301
" />
<path d="M77.4902 22.5348
L77.4902 23.3443
" />
<path d="M77.4902 23.3443
L77.5379 23.4396
" />
<path d="M77.5379 23.4396
L77.5855 23.4872
" />
<path d="M77.5855 23.4872
L77.6807 23.5348
" />
<path d="M77.6807 23.5348
L77.8712 23.5348
" />
<path d="M77.8712 23.5348
L77.9664 23.4872
" />
<path d="M77.9664 23.4872
L78.0140 23.4396
" />
<path d="M78.0140 23.4396
L78.0617 23.3443
" />
<path d="M78.0617 23.3443
L78.0617 22.5348
" />
<path d="M78.4902 23.4872
L78.6331 23.5348
" />
<path d="M78.6331 23.5348
L78.8712 23.5348
" />
<path d="M78.8712 23.5348
L78.9664 23.4872
" />
<path d="M78.9664 23.4872
L79.0140 23.4396
" />
<path d="M79.0140 23.4396
L79.0617 23.3443
" />
<path d="M79.0617 23.3443
L79.0617 23.2491
" />
<path d="M79.0617 23.2491
L79.0140 23.1539
" />
<path d="M79.0140 23.1539
L78.9664 23.1062
" />
<path d="M78.9664 23.1062
L78.8712 23.0586
" />
<path d="M78.8712 23.0586
L78.6807 23.0110
" />
<path d="M78.6807 23.0110
L78.5855 22.9634
" />
<path d="M78.5855 22.9634
L78.5379 22.9158
" />
<path d="M78.5379 22.9158
L78.4902 22.8205
" />
<path d="M78.4902 22.8205
L78.4902 22.7253
" />
<path d="M78.4902 22.7253
L78.5379 22.6301
" />
<path d="M78.5379 22.6301
L78.5855 22.5824
" />
<path d="M78.5855 22.5824
L78.6807 22.5348
" />
<path d="M78.6807 22.5348
L78.9188 22.5348
" />
<path d="M78.9188 22.5348
L79.0617 22.5824
" />
<path d="M79.4902 23.0110
L79.8236 23.0110
" />
<path d="M79.9664 23.5348
L79.4902 23.5348
" />
<path d="M79.4902 23.5348
L79.4902 22.5348
" />
<path d="M79.4902 22.5348
L79.9664 22.5348
" />
<path d="M80.3950 23.5348
L80.3950 22.5348
" />
<path d="M80.3950 22.5348
L80.6331 22.5348
" />
<path d="M80.6331 22.5348
L80.7760 22.5824
" />
<path d="M80.7760 22.5824
L80.8712 22.6777
" />
<path d="M80.8712 22.6777
L80.9188 22.7729
" />
<path d="M80.9188 22.7729
L80.9664 22.9634
" />
<path d="M80.9664 22.9634
L80.9664 23.1062
" />
<path d="M80.9664 23.1062
L80.9188 23.2967
" />
<path d="M80.9188 23.2967
L80.8712 23.3920
" />
<path d="M80.8712 23.3920
L80.7760 23.4872
" />
<path d="M80.7760 23.4872
L80.6331 23.5348
" />
<path d="M80.6331 23.5348
L80.3950 23.5348
" />
</g><text x="77.1250" y="16.1900"
textLength="3.2976" font-size="1.3333" lengthAdjust="spacingAndGlyphs"
text-anchor="middle" opacity="0">SW6</text>
<g class="stroked-text"><desc>SW6</desc>
<path d="M75.7917 16.0972
L75.9345 16.1448
" />
<path d="M75.9345 16.1448
L76.1726 16.1448
" />
<path d="M76.1726 16.1448
L76.2679 16.0972
" />
<path d="M76.2679 16.0972
L76.3155 16.0496
" />
<path d="M76.3155 16.0496
L76.3631 15.9543
" />
<path d="M76.3631 15.9543
L76.3631 15.8591
" />
<path d="M76.3631 15.8591
L76.3155 15.7639
" />
<path d="M76.3155 15.7639
L76.2679 15.7162
" />
<path d="M76.2679 15.7162
L76.1726 15.6686
" />
<path d="M76.1726 15.6686
L75.9821 15.6210
" />
<path d="M75.9821 15.6210
L75.8869 15.5734
" />
<path d="M75.8869 15.5734
L75.8393 15.5258
" />
<path d="M75.8393 15.5258
L75.7917 15.4305
" />
<path d="M75.7917 15.4305
L75.7917 15.3353
" />
<path d="M75.7917 15.3353
L75.8393 15.2401
" />
<path d="M75.8393 15.2401
L75.8869 15.1924
" />
<path d="M75.8869 15.1924
L75.9821 15.1448
" />
<path d="M75.9821 15.1448
L76.2202 15.1448
" />
<path d="M76.2202 15.1448
L76.3631 15.1924
" />
<path d="M76.6964 15.1448
L76.9345 16.1448
" />
<path d="M76.9345 16.1448
L77.1250 15.4305
" />
<path d="M77.1250 15.4305
L77.3155 16.1448
" />
<path d="M77.3155 16.1448
L77.5536 15.1448
" />
<path d="M78.3631 15.1448
L78.1726 15.1448
" />
<path d="M78.1726 15.1448
L78.0774 15.1924
" />
<path d="M78.0774 15.1924
L78.0298 15.2401
" />
<path d="M78.0298 15.2401
L77.9345 15.3829
" />
<path d="M77.9345 15.3829
L77.8869 15.5734
" />
<path d="M77.8869 15.5734
L77.8869 15.9543
" />
<path d="M77.8869 15.9543
L77.9345 16.0496
" />
<path d="M77.9345 16.0496
L77.9821 16.0972
" />
<path d="M77.9821 16.0972
L78.0774 16.1448
" />
<path d="M78.0774 16.1448
L78.2679 16.1448
" />
<path d="M78.2679 16.1448
L78.3631 16.0972
" />
<path d="M78.3631 16.0972
L78.4107 16.0496
" />
<path d="M78.4107 16.0496
L78.4583 15.9543
" />
<path d="M78.4583 15.9543
L78.4583 15.7162
" />
<path d="M78.4583 15.7162
L78.4107 15.6210
" />
<path d="M78.4107 15.6210
L78.3631 15.5734
" />
<path d="M78.3631 15.5734
L78.2679 15.5258
" />
<path d="M78.2679 15.5258
L78.0774 15.5258
" />
<path d="M78.0774 15.5258
L77.9821 15.5734
" />
<path d="M77.9821 15.5734
L77.9345 15.6210
" />
<path d="M77.9345 15.6210
L77.8869 15.7162
" />
</g><text x="47.3950" y="23.5800"
textLength="4.3452" font-size="1.3333" lengthAdjust="spacingAndGlyphs"
text-anchor="middle" opacity="0">MODE</text>
<g class="stroked-text"><desc>MODE</desc>
<path d="M45.5855 23.5348
L45.5855 22.5348
" />
<path d="M45.5855 22.5348
L45.9188 23.2491
" />
<path d="M45.9188 23.2491
L46.2521 22.5348
" />
<path d="M46.2521 22.5348
L46.2521 23.5348
" />
<path d="M46.9188 22.5348
L47.1093 22.5348
" />
<path d="M47.1093 22.5348
L47.2045 22.5824
" />
<path d="M47.2045 22.5824
L47.2998 22.6777
" />
<path d="M47.2998 22.6777
L47.3474 22.8682
" />
<path d="M47.3474 22.8682
L47.3474 23.2015
" />
<path d="M47.3474 23.2015
L47.2998 23.3920
" />
<path d="M47.2998 23.3920
L47.2045 23.4872
" />
<path d="M47.2045 23.4872
L47.1093 23.5348
" />
<path d="M47.1093 23.5348
L46.9188 23.5348
" />
<path d="M46.9188 23.5348
L46.8236 23.4872
" />
<path d="M46.8236 23.4872
L46.7283 23.3920
" />
<path d="M46.7283 23.3920
L46.6807 23.2015
" />
<path d="M46.6807 23.2015
L46.6807 22.8682
" />
<path d="M46.6807 22.8682
L46.7283 22.6777
" />
<path d="M46.7283 22.6777
L46.8236 22.5824
" />
<path d="M46.8236 22.5824
L46.9188 22.5348
" />
<path d="M47.7760 23.5348
L47.7760 22.5348
" />
<path d="M47.7760 22.5348
L48.0140 22.5348
" />
<path d="M48.0140 22.5348
L48.1569 22.5824
" />
<path d="M48.1569 22.5824
L48.2521 22.6777
" />
<path d="M48.2521 22.6777
L48.2998 22.7729
" />
<path d="M48.2998 22.7729
L48.3474 22.9634
" />
<path d="M48.3474 22.9634
L48.3474 23.1062
" />
<path d="M48.3474 23.1062
L48.2998 23.2967
" />
<path d="M48.2998 23.2967
L48.2521 23.3920
" />
<path d="M48.2521 23.3920
L48.1569 23.4872
" />
<path d="M48.1569 23.4872
L48.0140 23.5348
" />
<path d="M48.0140 23.5348
L47.7760 23.5348
" />
<path d="M48.7760 23.0110
L49.1093 23.0110
" />
<path d="M49.2521 23.5348
L48.7760 23.5348
" />
<path d="M48.7760 23.5348
L48.7760 22.5348
" />
<path d="M48.7760 22.5348
L49.2521 22.5348
" />
</g><text x="47.1250" y="16.1900"
textLength="3.2976" font-size="1.3333" lengthAdjust="spacingAndGlyphs"
text-anchor="middle" opacity="0">SW5</text>
<g class="stroked-text"><desc>SW5</desc>
<path d="M45.7917 16.0972
L45.9345 16.1448
" />
<path d="M45.9345 16.1448
L46.1726 16.1448
" />
<path d="M46.1726 16.1448
L46.2679 16.0972
" />
<path d="M46.2679 16.0972
L46.3155 16.0496
" />
<path d="M46.3155 16.0496
L46.3631 15.9543
" />
<path d="M46.3631 15.9543
L46.3631 15.8591
" />
<path d="M46.3631 15.8591
L46.3155 15.7639
" />
<path d="M46.3155 15.7639
L46.2679 15.7162
" />
<path d="M46.2679 15.7162
L46.1726 15.6686
" />
<path d="M46.1726 15.6686
L45.9821 15.6210
" />
<path d="M45.9821 15.6210
L45.8869 15.5734
" />
<path d="M45.8869 15.5734
L45.8393 15.5258
" />
<path d="M45.8393 15.5258
L45.7917 15.4305
" />
<path d="M45.7917 15.4305
L45.7917 15.3353
" />
<path d="M45.7917 15.3353
L45.8393 15.2401
" />
<path d="M45.8393 15.2401
L45.8869 15.1924
" />
<path d="M45.8869 15.1924
L45.9821 15.1448
" />
<path d="M45.9821 15.1448
L46.2202 15.1448
" />
<path d="M46.2202 15.1448
L46.3631 15.1924
" />
<path d="M46.6964 15.1448
L46.9345 16.1448
" />
<path d="M46.9345 16.1448
L47.1250 15.4305
" />
<path d="M47.1250 15.4305
L47.3155 16.1448
" />
<path d="M47.3155 16.1448
L47.5536 15.1448
" />
<path d="M48.4107 15.1448
L47.9345 15.1448
" />
<path d="M47.9345 15.1448
L47.8869 15.6210
" />
<path d="M47.8869 15.6210
L47.9345 15.5734
" />
<path d="M47.9345 15.5734
L48.0298 15.5258
" />
<path d="M48.0298 15.5258
L48.2679 15.5258
" />
<path d="M48.2679 15.5258
L48.3631 15.5734
" />
<path d="M48.3631 15.5734
L48.4107 15.6210
" />
<path d="M48.4107 15.6210
L48.4583 15.7162
" />
<path d="M48.4583 15.7162
L48.4583 15.9543
" />
<path d="M48.4583 15.9543
L48.4107 16.0496
" />
<path d="M48.4107 16.0496
L48.3631 16.0972
" />
<path d="M48.3631 16.0972
L48.2679 16.1448
" />
<path d="M48.2679 16.1448
L48.0298 16.1448
" />
<path d="M48.0298 16.1448
L47.9345 16.0972
" />
<path d="M47.9345 16.0972
L47.8869 16.0496
" />
</g><g transform="rotate(-90.000000 30.9500 80.5500)">
<text x="30.9500" y="81.0500"
textLength="9.3452" font-size="1.3333" lengthAdjust="spacingAndGlyphs"
text-anchor="middle" opacity="0">Conn_01x12</text>
</g>
<g class="stroked-text"><desc>Conn_01x12</desc>
<path d="M31.3096 84.2881
L31.3572 84.3357
" />
<path d="M31.3572 84.3357
L31.4048 84.4786
" />
<path d="M31.4048 84.4786
L31.4048 84.5738
" />
<path d="M31.4048 84.5738
L31.3572 84.7167
" />
<path d="M31.3572 84.7167
L31.2620 84.8119
" />
<path d="M31.2620 84.8119
L31.1667 84.8595
" />
<path d="M31.1667 84.8595
L30.9762 84.9071
" />
<path d="M30.9762 84.9071
L30.8334 84.9071
" />
<path d="M30.8334 84.9071
L30.6429 84.8595
" />
<path d="M30.6429 84.8595
L30.5477 84.8119
" />
<path d="M30.5477 84.8119
L30.4524 84.7167
" />
<path d="M30.4524 84.7167
L30.4048 84.5738
" />
<path d="M30.4048 84.5738
L30.4048 84.4786
" />
<path d="M30.4048 84.4786
L30.4524 84.3357
" />
<path d="M30.4524 84.3357
L30.5001 84.2881
" />
<path d="M31.4048 83.7167
L31.3572 83.8119
" />
<path d="M31.3572 83.8119
L31.3096 83.8595
" />
<path d="M31.3096 83.8595
L31.2143 83.9071
" />
<path d="M31.2143 83.9071
L30.9286 83.9071
" />
<path d="M30.9286 83.9071
L30.8334 83.8595
" />
<path d="M30.8334 83.8595
L30.7858 83.8119
" />
<path d="M30.7858 83.8119
L30.7382 83.7167
" />
<path d="M30.7382 83.7167
L30.7382 83.5738
" />
<path d="M30.7382 83.5738
L30.7858 83.4786
" />
<path d="M30.7858 83.4786
L30.8334 83.4310
" />
<path d="M30.8334 83.4310
L30.9286 83.3833
" />
<path d="M30.9286 83.3833
L31.2143 83.3833
" />
<path d="M31.2143 83.3833
L31.3096 83.4310
" />
<path d="M31.3096 83.4310
L31.3572 83.4786
" />
<path d="M31.3572 83.4786
L31.4048 83.5738
" />
<path d="M31.4048 83.5738
L31.4048 83.7167
" />
<path d="M30.7382 82.9548
L31.4048 82.9548
" />
<path d="M30.8334 82.9548
L30.7858 82.9071
" />
<path d="M30.7858 82.9071
L30.7382 82.8119
" />
<path d="M30.7382 82.8119
L30.7382 82.6690
" />
<path d="M30.7382 82.6690
L30.7858 82.5738
" />
<path d="M30.7858 82.5738
L30.8810 82.5262
" />
<path d="M30.8810 82.5262
L31.4048 82.5262
" />
<path d="M30.7382 82.0500
L31.4048 82.0500
" />
<path d="M30.8334 82.0500
L30.7858 82.0024
" />
<path d="M30.7858 82.0024
L30.7382 81.9071
" />
<path d="M30.7382 81.9071
L30.7382 81.7643
" />
<path d="M30.7382 81.7643
L30.7858 81.6690
" />
<path d="M30.7858 81.6690
L30.8810 81.6214
" />
<path d="M30.8810 81.6214
L31.4048 81.6214
" />
<path d="M31.5001 81.3833
L31.5001 80.6214
" />
<path d="M30.4048 80.1929
L30.4048 80.0976
" />
<path d="M30.4048 80.0976
L30.4524 80.0024
" />
<path d="M30.4524 80.0024
L30.5001 79.9548
" />
<path d="M30.5001 79.9548
L30.5953 79.9071
" />
<path d="M30.5953 79.9071
L30.7858 79.8595
" />
<path d="M30.7858 79.8595
L31.0239 79.8595
" />
<path d="M31.0239 79.8595
L31.2143 79.9071
" />
<path d="M31.2143 79.9071
L31.3096 79.9548
" />
<path d="M31.3096 79.9548
L31.3572 80.0024
" />
<path d="M31.3572 80.0024
L31.4048 80.0976
" />
<path d="M31.4048 80.0976
L31.4048 80.1929
" />
<path d="M31.4048 80.1929
L31.3572 80.2881
" />
<path d="M31.3572 80.2881
L31.3096 80.3357
" />
<path d="M31.3096 80.3357
L31.2143 80.3833
" />
<path d="M31.2143 80.3833
L31.0239 80.4310
" />
<path d="M31.0239 80.4310
L30.7858 80.4310
" />
<path d="M30.7858 80.4310
L30.5953 80.3833
" />
<path d="M30.5953 80.3833
L30.5001 80.3357
" />
<path d="M30.5001 80.3357
L30.4524 80.2881
" />
<path d="M30.4524 80.2881
L30.4048 80.1929
" />
<path d="M31.4048 78.9071
L31.4048 79.4786
" />
<path d="M31.4048 79.1929
L30.4048 79.1929
" />
<path d="M30.4048 79.1929
L30.5477 79.2881
" />
<path d="M30.5477 79.2881
L30.6429 79.3833
" />
<path d="M30.6429 79.3833
L30.6905 79.4786
" />
<path d="M31.4048 78.5738
L30.7382 78.0500
" />
<path d="M30.7382 78.5738
L31.4048 78.0500
" />
<path d="M31.4048 77.1452
L31.4048 77.7167
" />
<path d="M31.4048 77.4310
L30.4048 77.4310
" />
<path d="M30.4048 77.4310
L30.5477 77.5262
" />
<path d="M30.5477 77.5262
L30.6429 77.6214
" />
<path d="M30.6429 77.6214
L30.6905 77.7167
" />
<path d="M30.5001 76.7643
L30.4524 76.7167
" />
<path d="M30.4524 76.7167
L30.4048 76.6214
" />
<path d="M30.4048 76.6214
L30.4048 76.3833
" />
<path d="M30.4048 76.3833
L30.4524 76.2881
" />
<path d="M30.4524 76.2881
L30.5001 76.2405
" />
<path d="M30.5001 76.2405
L30.5953 76.1929
" />
<path d="M30.5953 76.1929
L30.6905 76.1929
" />
<path d="M30.6905 76.1929
L30.8334 76.2405
" />
<path d="M30.8334 76.2405
L31.4048 76.8119
" />
<path d="M31.4048 76.8119
L31.4048 76.1929
" />
</g><text x="47.1900" y="79.4350"
textLength="1.9643" font-size="1.3333" lengthAdjust="spacingAndGlyphs"
text-anchor="middle" opacity="0">J1</text>
<g class="stroked-text"><desc>J1</desc>
<path d="M46.8567 78.3898
L46.8567 79.1041
" />
<path d="M46.8567 79.1041
L46.8090 79.2470
" />
<path d="M46.8090 79.2470
L46.7138 79.3422
" />
<path d="M46.7138 79.3422
L46.5710 79.3898
" />
<path d="M46.5710 79.3898
L46.4757 79.3898
" />
<path d="M47.8567 79.3898
L47.2852 79.3898
" />
<path d="M47.5710 79.3898
L47.5710 78.3898
" />
<path d="M47.5710 78.3898
L47.4757 78.5327
" />
<path d="M47.4757 78.5327
L47.3805 78.6279
" />
<path d="M47.3805 78.6279
L47.2852 78.6755
" />
</g></g>
<g style="fill:#FFFFFF; fill-opacity:0.0; 
stroke:#FFFFFF; stroke-width:0.1000; stroke-opacity:1; 
stroke-linecap:round; stroke-linejoin:round;">
<path d="M11.0250 34.6500
L11.0250 46.6500
" />
<path d="M11.0250 34.6500
L23.0250 34.6500
" />
<path d="M11.0250 46.6500
L23.0250 46.6500
" />
<path d="M23.0250 34.6500
L23.0250 46.6500
" />
<path d="M10.8950 28.1800
L10.8950 27.5400
" />
<path d="M10.8950 28.1800
L9.0750 28.1800
" />
<path d="M10.8950 27.5400
L9.0750 27.5400
" />
<path d="M10.8950 25.6400
L10.8950 25.0000
" />
<path d="M10.8950 25.6400
L9.0750 25.6400
" />
<path d="M10.8950 25.0000
L9.0750 25.0000
" />
<path d="M9.0750 28.4950
L8.4400 29.1300
" />
<path d="M9.0750 24.0500
L9.0750 28.4950
" />
<path d="M8.4400 29.1300
L6.5350 29.1300
" />
<path d="M6.5350 29.1300
L6.5350 24.0500
" />
<path d="M6.5350 28.1800
L0.5350 28.1800
" />
<path d="M6.5350 27.5400
L0.5350 27.5400
" />
<path d="M6.5350 25.6400
L0.5350 25.6400
" />
<path d="M6.5350 25.0000
L0.5350 25.0000
" />
<path d="M6.5350 24.0500
L9.0750 24.0500
" />
<path d="M0.5350 28.1800
L0.5350 27.5400
" />
<path d="M0.5350 25.6400
L0.5350 25.0000
" />
<path d="M41.0250 59.6500
L41.0250 71.6500
" />
<path d="M41.0250 59.6500
L53.0250 59.6500
" />
<path d="M41.0250 71.6500
L53.0250 71.6500
" />
<path d="M53.0250 59.6500
L53.0250 71.6500
" />
<path d="M11.0250 59.6500
L11.0250 71.6500
" />
<path d="M11.0250 59.6500
L23.0250 59.6500
" />
<path d="M11.0250 71.6500
L23.0250 71.6500
" />
<path d="M23.0250 59.6500
L23.0250 71.6500
" />
<path d="M71.0250 34.6500
L71.0250 46.6500
" />
<path d="M71.0250 34.6500
L83.0250 34.6500
" />
<path d="M71.0250 46.6500
L83.0250 46.6500
" />
<path d="M83.0250 34.6500
L83.0250 46.6500
" />
<path d="M71.0250 59.6500
L71.0250 71.6500
" />
<path d="M71.0250 59.6500
L83.0250 59.6500
" />
<path d="M71.0250 71.6500
L83.0250 71.6500
" />
<path d="M83.0250 59.6500
L83.0250 71.6500
" />
<path d="M11.0250 9.6500
L11.0250 21.6500
" />
<path d="M11.0250 9.6500
L23.0250 9.6500
" />
<path d="M11.0250 21.6500
L23.0250 21.6500
" />
<path d="M23.0250 9.6500
L23.0250 21.6500
" />
<path d="M41.0250 34.6500
L41.0250 46.6500
" />
<path d="M41.0250 34.6500
L53.0250 34.6500
" />
<path d="M41.0250 46.6500
L53.0250 46.6500
" />
<path d="M53.0250 34.6500
L53.0250 46.6500
" />
<path d="M71.0250 9.6500
L71.0250 21.6500
" />
<path d="M71.0250 9.6500
L83.0250 9.6500
" />
<path d="M71.0250 21.6500
L83.0250 21.6500
" />
<path d="M83.0250 9.6500
L83.0250 21.6500
" />
<path d="M41.0250 9.6500
L41.0250 21.6500
" />
<path d="M41.0250 9.6500
L53.0250 9.6500
" />
<path d="M41.0250 21.6500
L53.0250 21.6500
" />
<path d="M53.0250 9.6500
L53.0250 21.6500
" />
<path d="M61.4800 75.8450
L60.8400 75.8450
" />
<path d="M61.4800 75.8450
L61.4800 77.6650
" />
<path d="M60.8400 75.8450
L60.8400 77.6650
" />
<path d="M58.9400 75.8450
L58.3000 75.8450
" />
<path d="M58.9400 75.8450
L58.9400 77.6650
" />
<path d="M58.3000 75.8450
L58.3000 77.6650
" />
<path d="M56.4000 75.8450
L55.7600 75.8450
" />
<path d="M56.4000 75.8450
L56.4000 77.6650
" />
<path d="M55.7600 75.8450
L55.7600 77.6650
" />
<path d="M53.8600 75.8450
L53.2200 75.8450
" />
<path d="M53.8600 75.8450
L53.8600 77.6650
" />
<path d="M53.2200 75.8450
L53.2200 77.6650
" />
<path d="M51.3200 75.8450
L50.6800 75.8450
" />
<path d="M51.3200 75.8450
L51.3200 77.6650
" />
<path d="M50.6800 75.8450
L50.6800 77.6650
" />
<path d="M48.7800 75.8450
L48.1400 75.8450
" />
<path d="M48.7800 75.8450
L48.7800 77.6650
" />
<path d="M48.1400 75.8450
L48.1400 77.6650
" />
<path d="M46.2400 75.8450
L45.6000 75.8450
" />
<path d="M46.2400 75.8450
L46.2400 77.6650
" />
<path d="M45.6000 75.8450
L45.6000 77.6650
" />
<path d="M43.7000 75.8450
L43.0600 75.8450
" />
<path d="M43.7000 75.8450
L43.7000 77.6650
" />
<path d="M43.0600 75.8450
L43.0600 77.6650
" />
<path d="M41.1600 75.8450
L40.5200 75.8450
" />
<path d="M41.1600 75.8450
L41.1600 77.6650
" />
<path d="M40.5200 75.8450
L40.5200 77.6650
" />
<path d="M38.6200 75.8450
L37.9800 75.8450
" />
<path d="M38.6200 75.8450
L38.6200 77.6650
" />
<path d="M37.9800 75.8450
L37.9800 77.6650
" />
<path d="M36.0800 75.8450
L35.4400 75.8450
" />
<path d="M36.0800 75.8450
L36.0800 77.6650
" />
<path d="M35.4400 75.8450
L35.4400 77.6650
" />
<path d="M33.5400 75.8450
L32.9000 75.8450
" />
<path d="M33.5400 75.8450
L33.5400 77.6650
" />
<path d="M32.9000 75.8450
L32.9000 77.6650
" />
<path d="M61.7950 77.6650
L62.4300 78.3000
" />
<path d="M31.9500 77.6650
L61.7950 77.6650
" />
<path d="M62.4300 78.3000
L62.4300 80.2050
" />
<path d="M62.4300 80.2050
L31.9500 80.2050
" />
<path d="M61.4800 80.2050
L61.4800 86.2050
" />
<path d="M60.8400 80.2050
L60.8400 86.2050
" />
<path d="M58.9400 80.2050
L58.9400 86.2050
" />
<path d="M58.3000 80.2050
L58.3000 86.2050
" />
<path d="M56.4000 80.2050
L56.4000 86.2050
" />
<path d="M55.7600 80.2050
L55.7600 86.2050
" />
<path d="M53.8600 80.2050
L53.8600 86.2050
" />
<path d="M53.2200 80.2050
L53.2200 86.2050
" />
<path d="M51.3200 80.2050
L51.3200 86.2050
" />
<path d="M50.6800 80.2050
L50.6800 86.2050
" />
<path d="M48.7800 80.2050
L48.7800 86.2050
" />
<path d="M48.1400 80.2050
L48.1400 86.2050
" />
<path d="M46.2400 80.2050
L46.2400 86.2050
" />
<path d="M45.6000 80.2050
L45.6000 86.2050
" />
<path d="M43.7000 80.2050
L43.7000 86.2050
" />
<path d="M43.0600 80.2050
L43.0600 86.2050
" />
<path d="M41.1600 80.2050
L41.1600 86.2050
" />
<path d="M40.5200 80.2050
L40.5200 86.2050
" />
<path d="M38.6200 80.2050
L38.6200 86.2050
" />
<path d="M37.9800 80.2050
L37.9800 86.2050
" />
<path d="M36.0800 80.2050
L36.0800 86.2050
" />
<path d="M35.4400 80.2050
L35.4400 86.2050
" />
<path d="M33.5400 80.2050
L33.5400 86.2050
" />
<path d="M32.9000 80.2050
L32.9000 86.2050
" />
<path d="M31.9500 80.2050
L31.9500 77.6650
" />
<path d="M61.4800 86.2050
L60.8400 86.2050
" />
<path d="M58.9400 86.2050
L58.3000 86.2050
" />
<path d="M56.4000 86.2050
L55.7600 86.2050
" />
<path d="M53.8600 86.2050
L53.2200 86.2050
" />
<path d="M51.3200 86.2050
L50.6800 86.2050
" />
<path d="M48.7800 86.2050
L48.1400 86.2050
" />
<path d="M46.2400 86.2050
L45.6000 86.2050
" />
<path d="M43.7000 86.2050
L43.0600 86.2050
" />
<path d="M41.1600 86.2050
L40.5200 86.2050
" />
<path d="M38.6200 86.2050
L37.9800 86.2050
" />
<path d="M36.0800 86.2050
L35.4400 86.2050
" />
<path d="M33.5400 86.2050
L32.9000 86.2050
" />
<g >
</g>
<g >
</g>
<g >
</g>
<g >
</g>
<g >
</g>
<g >
</g>
<g >
</g>
<g >
</g>
<g >
</g>
<g >
</g>
<g >
</g>
<g >
</g>
<g >
</g>
<g >
</g>
<g >
</g>
<g >
</g>
<g >
</g>
<g >
</g>
</g>
<g style="fill:#FFFFFF; fill-opacity:0.0; 
stroke:#FFFFFF; stroke-width:0.1000; stroke-opacity:1; 
stroke-linecap:round; stroke-linejoin:round;">
<path style="fill:#FFFFFF; fill-opacity:0.0; 
stroke:#FFFFFF; stroke-width:0.1000; stroke-opacity:1; 
stroke-linecap:round; stroke-linejoin:round;fill:none"
d="M 3.8750,0.0500
91.8750,0.0500
91.8750,80.0500
3.8750,80.0500
Z" /> 
<g >
</g>
<g >
</g>
<g >
</g>
<g >
</g>
<g >
</g>
<g >
</g>
<g >
</g>
<g >
</g>
<g >
</g>
<g >
</g>
<g >
</g>
<g >
</g>
<g >
</g>
<g >
</g>
<g >
</g>
<g >
</g>
<g >
</g>
<g >
</g>
</g> 
</svg>
