<?xml version="1.0" standalone="no"?>
 <!DOCTYPE svg PUBLIC "-//W3C//DTD SVG 1.1//EN" 
 "http://www.w3.org/Graphics/SVG/1.1/DTD/svg11.dtd"> 
<svg
  xmlns:svg="http://www.w3.org/2000/svg"
  xmlns="http://www.w3.org/2000/svg"
  xmlns:xlink="http://www.w3.org/1999/xlink"
  version="1.1"
  width="91.9226mm" height="86.7156mm" viewBox="0.0000 0.0000 91.9226 86.7156">
<title>SVG Image created as buttonBoard-F_Cu.svg date 2025/02/08 18:06:26 </title>
  <desc>Image generated by PCBNEW </desc>
<g style="fill:#000000; fill-opacity:1.0000;stroke:#000000; stroke-opacity:1.0000;
stroke-linecap:round; stroke-linejoin:round;"
 transform="translate(0 0) scale(1 1)">
</g>
<g style="fill:#000000; fill-opacity:0.0; 
stroke:#000000; stroke-width:0.0000; stroke-opacity:1; 
stroke-linecap:round; stroke-linejoin:round;">
</g>
<g style="fill:#000000; fill-opacity:1.0000; 
stroke:#000000; stroke-width:0.0212; stroke-opacity:1; 
stroke-linecap:round; stroke-linejoin:round;">
<rect x="-5.000000" y="-5.000000" width="101.925000" height="96.740000" rx="0.000000" />
</g>
<g style="fill:#FFFFFF; fill-opacity:1.0000; 
stroke:#FFFFFF; stroke-width:0.0212; stroke-opacity:1; 
stroke-linecap:round; stroke-linejoin:round;">
<g >
</g>
<g >
</g>
<g style="fill:#FFFFFF; fill-opacity:1.0000; 
stroke:#FFFFFF; stroke-width:0.0212; stroke-opacity:1; 
stroke-linecap:round; stroke-linejoin:round;">
</g>
<g style="fill:#FFFFFF; fill-opacity:1.0000; 
stroke:#FFFFFF; stroke-width:1.8500; stroke-opacity:1; 
stroke-linecap:round; stroke-linejoin:round;">
</g>
<g style="fill:#FFFFFF; fill-opacity:0.0; 
stroke:#FFFFFF; stroke-width:1.8500; stroke-opacity:1; 
stroke-linecap:round; stroke-linejoin:round;">
<path d="M10.1760 38.1500
L11.3740 38.1500
" />
<path d="M22.6760 38.1500
L23.8740 38.1500
" />
<path d="M10.1760 43.1500
L11.3740 43.1500
" />
<path d="M22.6760 43.1500
L23.8740 43.1500
" />
</g>
<g >
</g>
<g >
</g>
<g >
</g>
<g style="fill:#FFFFFF; fill-opacity:0.0; 
stroke:#FFFFFF; stroke-width:1.8500; stroke-opacity:1; 
stroke-linecap:round; stroke-linejoin:round;">
</g>
<g style="fill:#FFFFFF; fill-opacity:0.0; 
stroke:#FFFFFF; stroke-width:0.0000; stroke-opacity:1; 
stroke-linecap:round; stroke-linejoin:round;">
</g>
<g style="fill:#FFFFFF; fill-opacity:1.0000; 
stroke:#FFFFFF; stroke-width:0.0000; stroke-opacity:1; 
stroke-linecap:round; stroke-linejoin:round;">
<path style="fill:#FFFFFF; fill-opacity:1.0000; 
stroke:#FFFFFF; stroke-width:0.0000; stroke-opacity:1; 
stroke-linecap:round; stroke-linejoin:round;fill-rule:evenodd;"
d="M 11.4250,27.0100
11.4250,28.7100
9.7250,28.7100
9.7250,27.0100
Z" /> 
<circle cx="10.5750" cy="25.3200" r="0.8500" /> 
</g>
<g >
</g>
<g >
</g>
<g style="fill:#FFFFFF; fill-opacity:1.0000; 
stroke:#FFFFFF; stroke-width:0.0000; stroke-opacity:1; 
stroke-linecap:round; stroke-linejoin:round;">
</g>
<g style="fill:#FFFFFF; fill-opacity:1.0000; 
stroke:#FFFFFF; stroke-width:1.8500; stroke-opacity:1; 
stroke-linecap:round; stroke-linejoin:round;">
</g>
<g style="fill:#FFFFFF; fill-opacity:0.0; 
stroke:#FFFFFF; stroke-width:1.8500; stroke-opacity:1; 
stroke-linecap:round; stroke-linejoin:round;">
<path d="M40.1760 63.1500
L41.3740 63.1500
" />
<path d="M52.6760 63.1500
L53.8740 63.1500
" />
<path d="M40.1760 68.1500
L41.3740 68.1500
" />
<path d="M52.6760 68.1500
L53.8740 68.1500
" />
</g>
<g >
</g>
<g style="fill:#FFFFFF; fill-opacity:0.0; 
stroke:#FFFFFF; stroke-width:1.8500; stroke-opacity:1; 
stroke-linecap:round; stroke-linejoin:round;">
<path d="M10.1760 63.1500
L11.3740 63.1500
" />
<path d="M22.6760 63.1500
L23.8740 63.1500
" />
<path d="M10.1760 68.1500
L11.3740 68.1500
" />
<path d="M22.6760 68.1500
L23.8740 68.1500
" />
</g>
<g >
</g>
<g style="fill:#FFFFFF; fill-opacity:0.0; 
stroke:#FFFFFF; stroke-width:1.8500; stroke-opacity:1; 
stroke-linecap:round; stroke-linejoin:round;">
<path d="M70.1760 38.1500
L71.3740 38.1500
" />
<path d="M82.6760 38.1500
L83.8740 38.1500
" />
<path d="M70.1760 43.1500
L71.3740 43.1500
" />
<path d="M82.6760 43.1500
L83.8740 43.1500
" />
</g>
<g >
</g>
<g style="fill:#FFFFFF; fill-opacity:0.0; 
stroke:#FFFFFF; stroke-width:1.8500; stroke-opacity:1; 
stroke-linecap:round; stroke-linejoin:round;">
<path d="M70.1760 63.1500
L71.3740 63.1500
" />
<path d="M82.6760 63.1500
L83.8740 63.1500
" />
<path d="M70.1760 68.1500
L71.3740 68.1500
" />
<path d="M82.6760 68.1500
L83.8740 68.1500
" />
</g>
<g >
</g>
<g style="fill:#FFFFFF; fill-opacity:0.0; 
stroke:#FFFFFF; stroke-width:1.8500; stroke-opacity:1; 
stroke-linecap:round; stroke-linejoin:round;">
<path d="M10.1760 13.1500
L11.3740 13.1500
" />
<path d="M22.6760 13.1500
L23.8740 13.1500
" />
<path d="M10.1760 18.1500
L11.3740 18.1500
" />
<path d="M22.6760 18.1500
L23.8740 18.1500
" />
</g>
<g >
</g>
<g style="fill:#FFFFFF; fill-opacity:0.0; 
stroke:#FFFFFF; stroke-width:1.8500; stroke-opacity:1; 
stroke-linecap:round; stroke-linejoin:round;">
<path d="M40.1760 38.1500
L41.3740 38.1500
" />
<path d="M52.6760 38.1500
L53.8740 38.1500
" />
<path d="M40.1760 43.1500
L41.3740 43.1500
" />
<path d="M52.6760 43.1500
L53.8740 43.1500
" />
</g>
<g >
</g>
<g style="fill:#FFFFFF; fill-opacity:0.0; 
stroke:#FFFFFF; stroke-width:1.8500; stroke-opacity:1; 
stroke-linecap:round; stroke-linejoin:round;">
<path d="M70.1760 13.1500
L71.3740 13.1500
" />
<path d="M82.6760 13.1500
L83.8740 13.1500
" />
<path d="M70.1760 18.1500
L71.3740 18.1500
" />
<path d="M82.6760 18.1500
L83.8740 18.1500
" />
</g>
<g >
</g>
<g style="fill:#FFFFFF; fill-opacity:0.0; 
stroke:#FFFFFF; stroke-width:1.8500; stroke-opacity:1; 
stroke-linecap:round; stroke-linejoin:round;">
<path d="M40.1760 13.1500
L41.3740 13.1500
" />
<path d="M52.6760 13.1500
L53.8740 13.1500
" />
<path d="M40.1760 18.1500
L41.3740 18.1500
" />
<path d="M52.6760 18.1500
L53.8740 18.1500
" />
</g>
<g >
</g>
<g style="fill:#FFFFFF; fill-opacity:0.0; 
stroke:#FFFFFF; stroke-width:1.8500; stroke-opacity:1; 
stroke-linecap:round; stroke-linejoin:round;">
</g>
<g style="fill:#FFFFFF; fill-opacity:0.0; 
stroke:#FFFFFF; stroke-width:0.0000; stroke-opacity:1; 
stroke-linecap:round; stroke-linejoin:round;">
</g>
<g style="fill:#FFFFFF; fill-opacity:1.0000; 
stroke:#FFFFFF; stroke-width:0.0000; stroke-opacity:1; 
stroke-linecap:round; stroke-linejoin:round;">
<path style="fill:#FFFFFF; fill-opacity:1.0000; 
stroke:#FFFFFF; stroke-width:0.0000; stroke-opacity:1; 
stroke-linecap:round; stroke-linejoin:round;fill-rule:evenodd;"
d="M 60.3100,75.3150
62.0100,75.3150
62.0100,77.0150
60.3100,77.0150
Z" /> 
<circle cx="58.6200" cy="76.1650" r="0.8500" /> 
<circle cx="56.0800" cy="76.1650" r="0.8500" /> 
<circle cx="53.5400" cy="76.1650" r="0.8500" /> 
<circle cx="51.0000" cy="76.1650" r="0.8500" /> 
<circle cx="48.4600" cy="76.1650" r="0.8500" /> 
<circle cx="45.9200" cy="76.1650" r="0.8500" /> 
<circle cx="43.3800" cy="76.1650" r="0.8500" /> 
<circle cx="40.8400" cy="76.1650" r="0.8500" /> 
<circle cx="38.3000" cy="76.1650" r="0.8500" /> 
<circle cx="35.7600" cy="76.1650" r="0.8500" /> 
<circle cx="33.2200" cy="76.1650" r="0.8500" /> 
</g>
<g >
</g>
<g style="fill:#FFFFFF; fill-opacity:1.0000; 
stroke:#FFFFFF; stroke-width:0.0000; stroke-opacity:1; 
stroke-linecap:round; stroke-linejoin:round;">
<circle cx="66.9150" cy="47.9800" r="0.4000" /> 
</g>
<g style="fill:#FFFFFF; fill-opacity:1.0000; 
stroke:#FFFFFF; stroke-width:0.0212; stroke-opacity:1; 
stroke-linecap:round; stroke-linejoin:round;">
</g>
<g style="fill:#FFFFFF; fill-opacity:1.0000; 
stroke:#FFFFFF; stroke-width:0.0000; stroke-opacity:1; 
stroke-linecap:round; stroke-linejoin:round;">
<circle cx="66.9550" cy="68.3400" r="0.4000" /> 
</g>
<g style="fill:#FFFFFF; fill-opacity:1.0000; 
stroke:#FFFFFF; stroke-width:0.0212; stroke-opacity:1; 
stroke-linecap:round; stroke-linejoin:round;">
</g>
<g style="fill:#FFFFFF; fill-opacity:1.0000; 
stroke:#FFFFFF; stroke-width:0.0000; stroke-opacity:1; 
stroke-linecap:round; stroke-linejoin:round;">
<circle cx="46.0550" cy="51.5200" r="0.4000" /> 
</g>
<g style="fill:#FFFFFF; fill-opacity:1.0000; 
stroke:#FFFFFF; stroke-width:0.0212; stroke-opacity:1; 
stroke-linecap:round; stroke-linejoin:round;">
</g>
<g style="fill:#FFFFFF; fill-opacity:1.0000; 
stroke:#FFFFFF; stroke-width:0.0000; stroke-opacity:1; 
stroke-linecap:round; stroke-linejoin:round;">
<circle cx="64.2550" cy="68.1300" r="0.4000" /> 
</g>
<g style="fill:#FFFFFF; fill-opacity:1.0000; 
stroke:#FFFFFF; stroke-width:0.0212; stroke-opacity:1; 
stroke-linecap:round; stroke-linejoin:round;">
</g>
<g style="fill:#FFFFFF; fill-opacity:1.0000; 
stroke:#FFFFFF; stroke-width:0.0000; stroke-opacity:1; 
stroke-linecap:round; stroke-linejoin:round;">
<circle cx="64.2550" cy="44.2500" r="0.4000" /> 
</g>
<g style="fill:#FFFFFF; fill-opacity:1.0000; 
stroke:#FFFFFF; stroke-width:0.0212; stroke-opacity:1; 
stroke-linecap:round; stroke-linejoin:round;">
</g>
<g style="fill:#FFFFFF; fill-opacity:1.0000; 
stroke:#FFFFFF; stroke-width:0.0000; stroke-opacity:1; 
stroke-linecap:round; stroke-linejoin:round;">
<circle cx="61.8250" cy="69.0800" r="0.4000" /> 
</g>
<g style="fill:#FFFFFF; fill-opacity:1.0000; 
stroke:#FFFFFF; stroke-width:0.0212; stroke-opacity:1; 
stroke-linecap:round; stroke-linejoin:round;">
</g>
<g style="fill:#FFFFFF; fill-opacity:1.0000; 
stroke:#FFFFFF; stroke-width:0.0000; stroke-opacity:1; 
stroke-linecap:round; stroke-linejoin:round;">
<circle cx="61.9150" cy="26.7900" r="0.4000" /> 
</g>
<g style="fill:#FFFFFF; fill-opacity:1.0000; 
stroke:#FFFFFF; stroke-width:0.0212; stroke-opacity:1; 
stroke-linecap:round; stroke-linejoin:round;">
</g>
<g style="fill:#FFFFFF; fill-opacity:1.0000; 
stroke:#FFFFFF; stroke-width:0.0000; stroke-opacity:1; 
stroke-linecap:round; stroke-linejoin:round;">
<circle cx="59.7150" cy="70.3500" r="0.4000" /> 
</g>
<g style="fill:#FFFFFF; fill-opacity:1.0000; 
stroke:#FFFFFF; stroke-width:0.0212; stroke-opacity:1; 
stroke-linecap:round; stroke-linejoin:round;">
</g>
<g style="fill:#FFFFFF; fill-opacity:1.0000; 
stroke:#FFFFFF; stroke-width:0.0000; stroke-opacity:1; 
stroke-linecap:round; stroke-linejoin:round;">
<circle cx="57.0350" cy="63.2400" r="0.4000" /> 
</g>
<g style="fill:#FFFFFF; fill-opacity:1.0000; 
stroke:#FFFFFF; stroke-width:0.0212; stroke-opacity:1; 
stroke-linecap:round; stroke-linejoin:round;">
</g>
<g style="fill:#FFFFFF; fill-opacity:1.0000; 
stroke:#FFFFFF; stroke-width:0.0000; stroke-opacity:1; 
stroke-linecap:round; stroke-linejoin:round;">
<circle cx="57.0350" cy="68.5900" r="0.4000" /> 
</g>
<g style="fill:#FFFFFF; fill-opacity:1.0000; 
stroke:#FFFFFF; stroke-width:0.0212; stroke-opacity:1; 
stroke-linecap:round; stroke-linejoin:round;">
</g>
<g style="fill:#FFFFFF; fill-opacity:1.0000; 
stroke:#FFFFFF; stroke-width:0.0000; stroke-opacity:1; 
stroke-linecap:round; stroke-linejoin:round;">
<circle cx="27.7650" cy="28.7900" r="0.4000" /> 
</g>
<g style="fill:#FFFFFF; fill-opacity:1.0000; 
stroke:#FFFFFF; stroke-width:0.0212; stroke-opacity:1; 
stroke-linecap:round; stroke-linejoin:round;">
</g>
<g style="fill:#FFFFFF; fill-opacity:1.0000; 
stroke:#FFFFFF; stroke-width:0.0000; stroke-opacity:1; 
stroke-linecap:round; stroke-linejoin:round;">
<circle cx="36.5350" cy="28.7700" r="0.4000" /> 
</g>
<g style="fill:#FFFFFF; fill-opacity:1.0000; 
stroke:#FFFFFF; stroke-width:0.0212; stroke-opacity:1; 
stroke-linecap:round; stroke-linejoin:round;">
</g>
<g style="fill:#FFFFFF; fill-opacity:1.0000; 
stroke:#FFFFFF; stroke-width:0.0000; stroke-opacity:1; 
stroke-linecap:round; stroke-linejoin:round;">
<circle cx="74.9850" cy="53.4000" r="0.4000" /> 
</g>
<g style="fill:#FFFFFF; fill-opacity:1.0000; 
stroke:#FFFFFF; stroke-width:0.0212; stroke-opacity:1; 
stroke-linecap:round; stroke-linejoin:round;">
</g>
<g style="fill:#FFFFFF; fill-opacity:1.0000; 
stroke:#FFFFFF; stroke-width:0.0000; stroke-opacity:1; 
stroke-linecap:round; stroke-linejoin:round;">
<circle cx="71.3250" cy="76.5500" r="0.4000" /> 
</g>
<g style="fill:#FFFFFF; fill-opacity:1.0000; 
stroke:#FFFFFF; stroke-width:0.0212; stroke-opacity:1; 
stroke-linecap:round; stroke-linejoin:round;">
</g>
<g style="fill:#FFFFFF; fill-opacity:1.0000; 
stroke:#FFFFFF; stroke-width:0.0000; stroke-opacity:1; 
stroke-linecap:round; stroke-linejoin:round;">
<circle cx="70.4950" cy="28.0100" r="0.4000" /> 
</g>
<g style="fill:#FFFFFF; fill-opacity:1.0000; 
stroke:#FFFFFF; stroke-width:0.0212; stroke-opacity:1; 
stroke-linecap:round; stroke-linejoin:round;">
</g>
<g style="fill:#FFFFFF; fill-opacity:1.0000; 
stroke:#FFFFFF; stroke-width:0.0000; stroke-opacity:1; 
stroke-linecap:round; stroke-linejoin:round;">
<circle cx="10.2750" cy="53.4000" r="0.4000" /> 
</g>
<g style="fill:#FFFFFF; fill-opacity:1.0000; 
stroke:#FFFFFF; stroke-width:0.0212; stroke-opacity:1; 
stroke-linecap:round; stroke-linejoin:round;">
</g>
<g style="fill:#FFFFFF; fill-opacity:1.0000; 
stroke:#FFFFFF; stroke-width:0.0000; stroke-opacity:1; 
stroke-linecap:round; stroke-linejoin:round;">
<circle cx="59.5150" cy="9.8300" r="0.4000" /> 
</g>
<g style="fill:#FFFFFF; fill-opacity:1.0000; 
stroke:#FFFFFF; stroke-width:0.0212; stroke-opacity:1; 
stroke-linecap:round; stroke-linejoin:round;">
</g>
<g style="fill:#FFFFFF; fill-opacity:1.0000; 
stroke:#FFFFFF; stroke-width:0.0000; stroke-opacity:1; 
stroke-linecap:round; stroke-linejoin:round;">
<circle cx="79.9450" cy="76.7800" r="0.4000" /> 
</g>
<g style="fill:#FFFFFF; fill-opacity:1.0000; 
stroke:#FFFFFF; stroke-width:0.0212; stroke-opacity:1; 
stroke-linecap:round; stroke-linejoin:round;">
</g>
<g style="fill:#FFFFFF; fill-opacity:1.0000; 
stroke:#FFFFFF; stroke-width:0.0000; stroke-opacity:1; 
stroke-linecap:round; stroke-linejoin:round;">
<circle cx="20.5450" cy="53.4000" r="0.4000" /> 
</g>
<g style="fill:#FFFFFF; fill-opacity:1.0000; 
stroke:#FFFFFF; stroke-width:0.0212; stroke-opacity:1; 
stroke-linecap:round; stroke-linejoin:round;">
</g>
<g style="fill:#FFFFFF; fill-opacity:1.0000; 
stroke:#FFFFFF; stroke-width:0.0000; stroke-opacity:1; 
stroke-linecap:round; stroke-linejoin:round;">
<circle cx="85.7350" cy="53.5200" r="0.4000" /> 
</g>
<g style="fill:#FFFFFF; fill-opacity:1.0000; 
stroke:#FFFFFF; stroke-width:0.0212; stroke-opacity:1; 
stroke-linecap:round; stroke-linejoin:round;">
</g>
<g style="fill:#FFFFFF; fill-opacity:1.0000; 
stroke:#FFFFFF; stroke-width:0.0000; stroke-opacity:1; 
stroke-linecap:round; stroke-linejoin:round;">
<circle cx="30.3450" cy="59.5400" r="0.4000" /> 
</g>
<g style="fill:#FFFFFF; fill-opacity:1.0000; 
stroke:#FFFFFF; stroke-width:0.0212; stroke-opacity:1; 
stroke-linecap:round; stroke-linejoin:round;">
</g>
<g style="fill:#FFFFFF; fill-opacity:1.0000; 
stroke:#FFFFFF; stroke-width:0.0000; stroke-opacity:1; 
stroke-linecap:round; stroke-linejoin:round;">
<circle cx="28.2250" cy="9.5900" r="0.4000" /> 
</g>
<g style="fill:#FFFFFF; fill-opacity:1.0000; 
stroke:#FFFFFF; stroke-width:0.0212; stroke-opacity:1; 
stroke-linecap:round; stroke-linejoin:round;">
</g>
<g style="fill:#FFFFFF; fill-opacity:1.0000; 
stroke:#FFFFFF; stroke-width:0.0000; stroke-opacity:1; 
stroke-linecap:round; stroke-linejoin:round;">
<circle cx="66.7150" cy="9.5900" r="0.4000" /> 
</g>
<g style="fill:#FFFFFF; fill-opacity:1.0000; 
stroke:#FFFFFF; stroke-width:0.0212; stroke-opacity:1; 
stroke-linecap:round; stroke-linejoin:round;">
</g>
<g style="fill:#FFFFFF; fill-opacity:1.0000; 
stroke:#FFFFFF; stroke-width:0.0000; stroke-opacity:1; 
stroke-linecap:round; stroke-linejoin:round;">
<circle cx="40.7850" cy="55.4900" r="0.4000" /> 
</g>
<g style="fill:#FFFFFF; fill-opacity:1.0000; 
stroke:#FFFFFF; stroke-width:0.0212; stroke-opacity:1; 
stroke-linecap:round; stroke-linejoin:round;">
</g>
<g style="fill:#FFFFFF; fill-opacity:1.0000; 
stroke:#FFFFFF; stroke-width:0.0000; stroke-opacity:1; 
stroke-linecap:round; stroke-linejoin:round;">
<circle cx="35.6650" cy="9.1200" r="0.4000" /> 
</g>
<g style="fill:#FFFFFF; fill-opacity:1.0000; 
stroke:#FFFFFF; stroke-width:0.0212; stroke-opacity:1; 
stroke-linecap:round; stroke-linejoin:round;">
</g>
<g style="fill:#FFFFFF; fill-opacity:1.0000; 
stroke:#FFFFFF; stroke-width:0.0000; stroke-opacity:1; 
stroke-linecap:round; stroke-linejoin:round;">
<circle cx="25.8550" cy="76.4300" r="0.4000" /> 
</g>
<g style="fill:#FFFFFF; fill-opacity:1.0000; 
stroke:#FFFFFF; stroke-width:0.0212; stroke-opacity:1; 
stroke-linecap:round; stroke-linejoin:round;">
</g>
<g style="fill:#FFFFFF; fill-opacity:1.0000; 
stroke:#FFFFFF; stroke-width:0.0000; stroke-opacity:1; 
stroke-linecap:round; stroke-linejoin:round;">
<circle cx="50.8950" cy="55.6500" r="0.4000" /> 
</g>
<g style="fill:#FFFFFF; fill-opacity:1.0000; 
stroke:#FFFFFF; stroke-width:0.0212; stroke-opacity:1; 
stroke-linecap:round; stroke-linejoin:round;">
</g>
<g style="fill:#FFFFFF; fill-opacity:1.0000; 
stroke:#FFFFFF; stroke-width:0.0000; stroke-opacity:1; 
stroke-linecap:round; stroke-linejoin:round;">
<circle cx="16.0550" cy="76.5500" r="0.4000" /> 
</g>
<g style="fill:#FFFFFF; fill-opacity:1.0000; 
stroke:#FFFFFF; stroke-width:0.0212; stroke-opacity:1; 
stroke-linecap:round; stroke-linejoin:round;">
</g>
<g style="fill:#FFFFFF; fill-opacity:1.0000; 
stroke:#FFFFFF; stroke-width:0.0000; stroke-opacity:1; 
stroke-linecap:round; stroke-linejoin:round;">
<circle cx="31.1750" cy="37.4600" r="0.4000" /> 
</g>
<g style="fill:#FFFFFF; fill-opacity:1.0000; 
stroke:#FFFFFF; stroke-width:0.0212; stroke-opacity:1; 
stroke-linecap:round; stroke-linejoin:round;">
</g>
<g style="fill:#FFFFFF; fill-opacity:1.0000; 
stroke:#FFFFFF; stroke-width:0.0000; stroke-opacity:1; 
stroke-linecap:round; stroke-linejoin:round;">
<circle cx="86.2050" cy="27.8900" r="0.4000" /> 
</g>
<g style="fill:#FFFFFF; fill-opacity:1.0000; 
stroke:#FFFFFF; stroke-width:0.0212; stroke-opacity:1; 
stroke-linecap:round; stroke-linejoin:round;">
</g>
<g style="fill:#FFFFFF; fill-opacity:1.0000; 
stroke:#FFFFFF; stroke-width:0.0000; stroke-opacity:1; 
stroke-linecap:round; stroke-linejoin:round;">
<circle cx="18.1850" cy="30.4900" r="0.4000" /> 
</g>
<g style="fill:#FFFFFF; fill-opacity:1.0000; 
stroke:#FFFFFF; stroke-width:0.0212; stroke-opacity:1; 
stroke-linecap:round; stroke-linejoin:round;">
</g>
<g style="fill:#FFFFFF; fill-opacity:1.0000; 
stroke:#FFFFFF; stroke-width:0.0000; stroke-opacity:1; 
stroke-linecap:round; stroke-linejoin:round;">
<circle cx="50.8950" cy="28.0100" r="0.4000" /> 
</g>
<g style="fill:#FFFFFF; fill-opacity:1.0000; 
stroke:#FFFFFF; stroke-width:0.0212; stroke-opacity:1; 
stroke-linecap:round; stroke-linejoin:round;">
</g>
<g >
</g>
<g style="fill:#FFFFFF; fill-opacity:1.0000; 
stroke:#FFFFFF; stroke-width:0.0212; stroke-opacity:1; 
stroke-linecap:round; stroke-linejoin:round;">
</g>
<g style="fill:#FFFFFF; fill-opacity:1.0000; 
stroke:#FFFFFF; stroke-width:1.0000; stroke-opacity:1; 
stroke-linecap:round; stroke-linejoin:round;">
</g>
<g style="fill:#FFFFFF; fill-opacity:0.0; 
stroke:#FFFFFF; stroke-width:1.0000; stroke-opacity:1; 
stroke-linecap:round; stroke-linejoin:round;">
<path d="M63.0100 76.1650
L66.9550 72.2200
" />
<path d="M58.0150 47.9800
L54.3950 51.6000
" />
<path d="M54.3950 51.6000
L46.1350 51.6000
" />
<path d="M61.1600 76.1650
L63.0100 76.1650
" />
<path d="M23.2750 43.1500
L10.7750 43.1500
" />
<path d="M66.9550 72.2200
L66.9550 68.3400
" />
<path d="M46.1350 51.6000
L46.0550 51.5200
" />
<path d="M66.9150 47.9800
L58.0150 47.9800
" />
<path d="M58.9950 74.0900
L62.0841 74.0900
" />
<path d="M64.1250 71.5100
L64.2450 71.3900
" />
<path d="M64.1250 72.0491
L64.1250 71.5100
" />
<path d="M53.2750 43.1500
L63.1550 43.1500
" />
<path d="M58.6200 76.1650
L58.6200 74.4650
" />
<path d="M58.6200 74.4650
L58.9950 74.0900
" />
<path d="M64.2450 71.3900
L64.2450 68.1400
" />
<path d="M64.2450 68.1400
L64.2550 68.1300
" />
<path d="M62.0841 74.0900
L64.1250 72.0491
" />
<path d="M63.1550 43.1500
L64.2550 44.2500
" />
<path d="M57.8950 72.1800
L61.7250 72.1800
" />
<path d="M56.0800 73.9950
L57.3150 72.7600
" />
<path d="M53.2750 18.1500
L40.7750 18.1500
" />
<path d="M61.9150 26.7900
L53.2750 18.1500
" />
<path d="M57.3150 72.7600
L57.8950 72.1800
" />
<path d="M61.7250 69.1800
L61.8250 69.0800
" />
<path d="M61.7250 72.1800
L61.7250 69.1800
" />
<path d="M56.0800 76.1650
L56.0800 73.9950
" />
<path d="M53.5400 76.1650
L53.5400 73.5750
" />
<path d="M53.5400 73.5750
L54.0050 73.1100
" />
<path d="M70.7750 18.1500
L83.2750 18.1500
" />
<path d="M56.7650 70.3500
L59.7150 70.3500
" />
<path d="M54.0050 73.1100
L56.7650 70.3500
" />
<path d="M55.7321 68.5900
L57.0350 68.5900
" />
<path d="M51.4850 72.4400
L51.8821 72.4400
" />
<path d="M70.7750 49.5000
L70.7750 43.1500
" />
<path d="M51.8821 72.4400
L55.7321 68.5900
" />
<path d="M83.2750 43.1500
L70.7750 43.1500
" />
<path d="M51.0000 76.1650
L51.0000 72.9250
" />
<path d="M57.0350 63.2400
L70.7750 49.5000
" />
<path d="M51.0000 72.9250
L51.4850 72.4400
" />
<path d="M48.4600 72.9650
L53.2750 68.1500
" />
<path d="M48.4600 76.1650
L48.4600 72.9650
" />
<path d="M70.7750 68.1500
L83.2750 68.1500
" />
<path d="M68.4950 65.8700
L70.7750 68.1500
" />
<path d="M52.0150 65.8700
L68.4950 65.8700
" />
<path d="M45.9200 71.9650
L52.0150 65.8700
" />
<path d="M45.9200 76.1650
L45.9200 71.9650
" />
<path d="M48.5050 45.6900
L48.5050 35.9300
" />
<path d="M44.7200 69.7050
L44.7200 65.8050
" />
<path d="M44.8550 49.3400
L48.5050 45.6900
" />
<path d="M47.4550 63.0700
L47.4550 57.3300
" />
<path d="M48.5050 35.9300
L30.7250 18.1500
" />
<path d="M40.8400 76.1650
L40.8400 73.5850
" />
<path d="M47.4550 57.3300
L44.8550 54.7300
" />
<path d="M44.7200 65.8050
L47.4550 63.0700
" />
<path d="M30.7250 18.1500
L23.2750 18.1500
" />
<path d="M40.8400 73.5850
L44.7200 69.7050
" />
<path d="M44.8550 54.7300
L44.8550 49.3400
" />
<path d="M23.2750 18.1500
L10.7750 18.1500
" />
<path d="M38.3000 76.1650
L38.3000 30.5350
" />
<path d="M38.3000 30.5350
L36.5350 28.7700
" />
<path d="M26.8350 27.8600
L10.5750 27.8600
" />
<path d="M27.7650 28.7900
L26.8350 27.8600
" />
<path d="M28.4850 25.2900
L28.4550 25.3200
" />
<path d="M35.7600 32.5650
L28.4850 25.2900
" />
<path d="M35.7600 76.1650
L35.7600 32.5650
" />
<path d="M28.4550 25.3200
L10.5750 25.3200
" />
</g>
<g >
</g>
<g style="fill:#FFFFFF; fill-opacity:0.0; 
stroke:#FFFFFF; stroke-width:1.0000; stroke-opacity:1; 
stroke-linecap:round; stroke-linejoin:round;">
<g >
</g>
<g style="fill:#FFFFFF; fill-opacity:1.0000; 
stroke:#FFFFFF; stroke-width:0.0000; stroke-opacity:1; 
stroke-linecap:round; stroke-linejoin:round;">
<path style="fill:#FFFFFF; fill-opacity:1.0000; 
stroke:#FFFFFF; stroke-width:0.0000; stroke-opacity:1; 
stroke-linecap:round; stroke-linejoin:round;fill-rule:evenodd;"
d="M 91.8081,0.0702
91.8538,0.1230
91.8650,0.1745
91.8745,76.0500
91.8745,79.9255
91.8548,79.9925
91.8020,80.0383
91.7505,80.0495
3.9995,80.0495
3.9325,80.0298
3.8867,79.9770
3.8755,79.9255
3.8755,76.1849
7.0745,76.1849
7.1147,76.4518
7.1147,76.4518
7.1943,76.7096
7.3113,76.9528
7.3113,76.9528
7.3113,76.9528
7.4334,77.1319
7.4634,77.1757
7.6469,77.3736
7.6469,77.3736
7.6469,77.3736
7.8579,77.5418
8.0916,77.6767
8.3428,77.7753
8.6059,77.8354
8.6438,77.8382
8.8076,77.8505
8.8076,77.8505
8.8076,77.8505
8.8076,77.8505
8.9424,77.8505
8.9424,77.8505
8.9424,77.8505
8.9424,77.8505
9.0873,77.8396
9.1441,77.8354
9.4072,77.7753
9.6584,77.6767
9.8921,77.5418
10.1031,77.3736
10.2866,77.1757
10.4387,76.9528
10.5557,76.7096
10.6353,76.4518
10.6408,76.4150
10.6755,76.1849
10.6755,76.1849
10.6755,75.9151
10.6755,75.9151
10.6353,75.6482
10.6353,75.6482
10.5557,75.3904
10.4387,75.1472
10.2866,74.9243
10.2559,74.8911
10.1031,74.7264
10.0625,74.6941
9.8921,74.5582
9.6584,74.4233
9.6584,74.4233
9.4072,74.3247
9.4072,74.3247
9.1441,74.2646
8.9424,74.2495
8.9424,74.2495
8.8076,74.2495
8.8076,74.2495
8.6059,74.2646
8.3428,74.3247
8.3428,74.3247
8.0916,74.4233
8.0916,74.4233
7.8579,74.5582
7.6469,74.7264
7.4634,74.9243
7.3113,75.1472
7.3113,75.1472
7.1943,75.3904
7.1147,75.6482
7.1147,75.6482
7.0745,75.9151
7.0745,76.1849
3.8755,76.1849
3.8755,68.0893
8.7466,68.0893
8.7569,68.3317
8.7569,68.3317
8.8081,68.5689
8.8081,68.5689
8.8827,68.7547
8.8985,68.7941
8.9346,68.8527
9.0258,69.0007
9.1861,69.1829
9.1861,69.1829
9.3749,69.3353
9.5867,69.4537
9.5867,69.4537
9.8155,69.5345
9.8155,69.5345
10.0547,69.5755
10.0547,69.5755
10.0547,69.5755
10.0547,69.5755
11.4346,69.5755
11.4346,69.5755
11.4346,69.5755
11.4346,69.5755
11.6158,69.5601
11.6158,69.5601
11.6158,69.5601
11.8506,69.4989
11.8506,69.4989
12.0717,69.3990
12.0717,69.3990
12.0717,69.3990
12.2728,69.2631
12.4480,69.0952
12.5922,68.9001
12.7015,68.6834
12.7725,68.4514
12.8034,68.2107
12.8031,68.2035
12.7982,68.0893
21.2466,68.0893
21.2569,68.3317
21.2569,68.3317
21.3081,68.5689
21.3081,68.5689
21.3827,68.7547
21.3985,68.7941
21.4346,68.8527
21.5258,69.0007
21.6861,69.1829
21.6861,69.1829
21.8749,69.3353
22.0867,69.4537
22.0867,69.4537
22.3155,69.5345
22.3155,69.5345
22.5547,69.5755
22.5547,69.5755
22.5547,69.5755
22.5547,69.5755
23.9346,69.5755
23.9346,69.5755
23.9346,69.5755
23.9346,69.5755
24.1158,69.5601
24.1158,69.5601
24.1158,69.5601
24.3506,69.4989
24.3506,69.4989
24.5717,69.3990
24.5717,69.3990
24.5717,69.3990
24.7728,69.2631
24.9480,69.0952
25.0922,68.9001
25.2015,68.6834
25.2725,68.4514
25.3034,68.2107
25.3031,68.2035
25.2931,67.9683
25.2931,67.9683
25.2652,67.8389
25.2419,67.7311
25.1515,67.5059
25.0242,67.2993
24.8639,67.1171
24.8639,67.1171
24.8639,67.1171
24.6751,66.9647
24.4633,66.8463
24.2345,66.7655
24.2345,66.7655
23.9953,66.7245
23.9953,66.7245
22.6154,66.7245
22.6154,66.7245
22.4342,66.7399
22.4342,66.7399
22.1994,66.8011
22.1994,66.8011
21.9783,66.9010
21.9783,66.9010
21.7772,67.0369
21.7772,67.0369
21.6020,67.2048
21.6020,67.2048
21.4578,67.3999
21.3485,67.6166
21.3485,67.6166
21.2775,67.8486
21.2466,68.0893
12.7982,68.0893
12.7931,67.9683
12.7931,67.9683
12.7652,67.8389
12.7419,67.7311
12.6515,67.5059
12.5242,67.2993
12.3639,67.1171
12.3639,67.1171
12.3639,67.1171
12.1751,66.9647
11.9633,66.8463
11.7345,66.7655
11.7345,66.7655
11.4953,66.7245
11.4953,66.7245
10.1154,66.7245
10.1154,66.7245
9.9342,66.7399
9.9342,66.7399
9.6994,66.8011
9.6994,66.8011
9.4783,66.9010
9.4783,66.9010
9.2772,67.0369
9.2772,67.0369
9.1020,67.2048
9.1020,67.2048
8.9578,67.3999
8.8485,67.6166
8.8485,67.6166
8.7775,67.8486
8.7466,68.0893
3.8755,68.0893
3.8755,62.9000
8.7714,62.9000
8.7714,62.9000
10.1743,62.9000
10.1519,62.9475
10.1211,63.1089
10.1314,63.2728
10.1728,63.4000
8.7722,63.4000
8.8085,63.5688
8.8085,63.5688
8.8990,63.7939
9.0262,64.0004
9.1864,64.1825
9.1864,64.1825
9.3751,64.3349
9.3751,64.3349
9.5869,64.4532
9.8156,64.5340
9.8156,64.5340
10.0547,64.5750
10.0547,64.5750
10.5250,64.5750
10.5250,63.7543
10.5338,63.7592
10.6929,63.8000
10.8159,63.8000
10.9379,63.7846
11.0250,63.7501
11.0250,64.5750
11.4345,64.5750
11.4345,64.5750
11.6157,64.5596
11.8504,64.4985
12.0715,64.3985
12.0715,64.3985
12.2724,64.2627
12.2725,64.2627
12.4476,64.0949
12.4476,64.0949
12.5918,63.8998
12.7010,63.6832
12.7721,63.4513
12.7786,63.4000
11.3757,63.4000
11.3981,63.3525
11.4289,63.1911
11.4186,63.0272
11.3772,62.9000
12.7778,62.9000
12.7778,62.9000
21.2714,62.9000
21.2714,62.9000
22.6743,62.9000
22.6519,62.9475
22.6211,63.1089
22.6314,63.2728
22.6728,63.4000
21.2722,63.4000
21.3085,63.5688
21.3085,63.5688
21.3990,63.7939
21.5262,64.0004
21.6864,64.1825
21.6864,64.1825
21.8751,64.3349
21.8751,64.3349
22.0869,64.4532
22.3156,64.5340
22.3156,64.5340
22.5547,64.5750
22.5547,64.5750
23.0250,64.5750
23.0250,63.7543
23.0338,63.7592
23.1929,63.8000
23.3159,63.8000
23.4379,63.7846
23.5250,63.7501
23.5250,64.5750
23.9345,64.5750
23.9345,64.5750
24.1157,64.5596
24.3504,64.4985
24.5715,64.3985
24.5715,64.3985
24.7724,64.2627
24.7725,64.2627
24.9476,64.0949
24.9476,64.0949
25.0918,63.8998
25.2010,63.6832
25.2721,63.4513
25.2786,63.4000
23.8757,63.4000
23.8981,63.3525
23.9289,63.1911
23.9186,63.0272
23.8772,62.9000
25.2778,62.9000
25.2415,62.7312
25.2415,62.7312
25.1510,62.5061
25.0238,62.2996
24.8636,62.1175
24.8636,62.1175
24.6749,61.9651
24.6748,61.9651
24.4631,61.8468
24.2344,61.7660
24.2344,61.7660
23.9953,61.7250
23.5250,61.7250
23.5250,62.5457
23.5162,62.5408
23.3571,62.5000
23.2341,62.5000
23.1121,62.5154
23.0250,62.5499
23.0250,61.7250
22.6154,61.7250
22.4343,61.7404
22.1996,61.8015
21.9785,61.9015
21.9785,61.9015
21.7775,62.0373
21.7775,62.0373
21.6024,62.2051
21.6024,62.2051
21.4582,62.4002
21.3490,62.6168
21.2779,62.8487
21.2714,62.9000
12.7778,62.9000
12.7415,62.7312
12.7415,62.7312
12.6510,62.5061
12.5238,62.2996
12.3636,62.1175
12.3636,62.1175
12.1749,61.9651
12.1748,61.9651
11.9631,61.8468
11.7344,61.7660
11.7344,61.7660
11.4953,61.7250
11.0250,61.7250
11.0250,62.5457
11.0162,62.5408
10.8571,62.5000
10.7341,62.5000
10.6121,62.5154
10.5250,62.5499
10.5250,61.7250
10.1154,61.7250
9.9343,61.7404
9.6996,61.8015
9.4785,61.9015
9.4785,61.9015
9.2775,62.0373
9.2775,62.0373
9.1024,62.2051
9.1024,62.2051
8.9582,62.4002
8.8490,62.6168
8.7779,62.8487
8.7714,62.9000
3.8755,62.9000
3.8755,43.0893
8.7466,43.0893
8.7569,43.3317
8.7569,43.3317
8.8081,43.5689
8.8081,43.5689
8.8985,43.7941
9.0258,44.0007
9.1861,44.1829
9.1861,44.1829
9.3749,44.3353
9.5867,44.4537
9.5867,44.4537
9.8155,44.5345
9.8155,44.5345
10.0547,44.5755
10.0547,44.5755
10.0547,44.5755
10.0547,44.5755
11.4346,44.5755
11.4346,44.5755
11.4346,44.5755
11.4346,44.5755
11.6158,44.5601
11.6158,44.5601
11.6158,44.5601
11.8506,44.4989
11.8506,44.4989
12.0717,44.3990
12.0717,44.3990
12.0717,44.3990
12.2728,44.2631
12.3543,44.1850
12.4163,44.1528
12.4401,44.1505
21.6025,44.1505
21.6695,44.1702
21.6818,44.1798
21.6820,44.1796
21.8749,44.3353
22.0867,44.4537
22.0867,44.4537
22.3155,44.5345
22.3155,44.5345
22.5547,44.5755
22.5547,44.5755
22.5547,44.5755
22.5547,44.5755
23.9346,44.5755
23.9346,44.5755
23.9346,44.5755
23.9346,44.5755
24.1158,44.5601
24.1158,44.5601
24.1158,44.5601
24.3506,44.4989
24.3506,44.4989
24.5717,44.3990
24.5717,44.3990
24.5717,44.3990
24.7728,44.2631
24.9480,44.0952
25.0922,43.9001
25.2015,43.6834
25.2725,43.4514
25.3034,43.2107
25.2931,42.9683
25.2419,42.7311
25.1515,42.5059
25.0242,42.2993
24.8639,42.1171
24.8639,42.1171
24.8639,42.1171
24.6751,41.9647
24.4633,41.8463
24.2345,41.7655
24.2345,41.7655
23.9953,41.7245
23.9953,41.7245
22.6154,41.7245
22.6154,41.7245
22.4342,41.7399
22.4342,41.7399
22.1994,41.8011
22.1994,41.8011
21.9783,41.9010
21.9783,41.9010
21.7772,42.0369
21.7772,42.0369
21.6957,42.1150
21.6337,42.1472
21.6099,42.1495
12.4475,42.1495
12.3805,42.1298
12.3682,42.1202
12.3680,42.1204
12.1751,41.9647
11.9633,41.8463
11.7345,41.7655
11.7345,41.7655
11.4953,41.7245
11.4953,41.7245
10.1154,41.7245
10.1154,41.7245
9.9342,41.7399
9.9342,41.7399
9.6994,41.8011
9.6994,41.8011
9.4783,41.9010
9.4783,41.9010
9.2772,42.0369
9.2772,42.0369
9.1020,42.2048
9.1020,42.2048
8.9578,42.3999
8.8485,42.6166
8.8485,42.6166
8.7775,42.8486
8.7466,43.0893
3.8755,43.0893
3.8755,37.9000
8.7714,37.9000
8.7714,37.9000
10.1743,37.9000
10.1519,37.9475
10.1211,38.1089
10.1314,38.2728
10.1728,38.4000
8.7722,38.4000
8.8085,38.5688
8.8085,38.5688
8.8990,38.7939
9.0262,39.0004
9.1864,39.1825
9.1864,39.1825
9.3751,39.3349
9.3751,39.3349
9.5869,39.4532
9.8156,39.5340
9.8156,39.5340
10.0547,39.5750
10.0547,39.5750
10.5250,39.5750
10.5250,38.7543
10.5338,38.7592
10.6929,38.8000
10.8159,38.8000
10.9379,38.7846
11.0250,38.7501
11.0250,39.5750
11.4345,39.5750
11.4345,39.5750
11.6157,39.5596
11.8504,39.4985
12.0715,39.3985
12.0715,39.3985
12.2724,39.2627
12.2725,39.2627
12.4476,39.0949
12.4476,39.0949
12.5918,38.8998
12.7010,38.6832
12.7721,38.4513
12.7786,38.4000
11.3757,38.4000
11.3981,38.3525
11.4289,38.1911
11.4186,38.0272
11.3772,37.9000
12.7778,37.9000
12.7778,37.9000
21.2714,37.9000
21.2714,37.9000
22.6743,37.9000
22.6519,37.9475
22.6211,38.1089
22.6314,38.2728
22.6728,38.4000
21.2722,38.4000
21.3085,38.5688
21.3085,38.5688
21.3990,38.7939
21.5262,39.0004
21.6864,39.1825
21.6864,39.1825
21.8751,39.3349
21.8751,39.3349
22.0869,39.4532
22.3156,39.5340
22.3156,39.5340
22.5547,39.5750
22.5547,39.5750
23.0250,39.5750
23.0250,38.7543
23.0338,38.7592
23.1929,38.8000
23.3159,38.8000
23.4379,38.7846
23.5250,38.7501
23.5250,39.5750
23.9345,39.5750
23.9345,39.5750
24.1157,39.5596
24.3504,39.4985
24.5715,39.3985
24.5715,39.3985
24.7724,39.2627
24.7725,39.2627
24.9476,39.0949
24.9476,39.0949
25.0918,38.8998
25.2010,38.6832
25.2721,38.4513
25.2786,38.4000
23.8757,38.4000
23.8981,38.3525
23.9289,38.1911
23.9186,38.0272
23.8772,37.9000
25.2778,37.9000
25.2415,37.7312
25.2415,37.7312
25.1510,37.5061
25.0238,37.2996
24.8636,37.1175
24.8636,37.1175
24.6749,36.9651
24.6748,36.9651
24.4631,36.8468
24.2344,36.7660
24.2344,36.7660
23.9953,36.7250
23.5250,36.7250
23.5250,37.5457
23.5162,37.5408
23.3571,37.5000
23.2341,37.5000
23.1121,37.5154
23.0250,37.5499
23.0250,36.7250
22.6154,36.7250
22.4343,36.7404
22.1996,36.8015
21.9785,36.9015
21.9785,36.9015
21.7775,37.0373
21.7775,37.0373
21.6024,37.2051
21.6024,37.2051
21.4582,37.4002
21.3490,37.6168
21.2779,37.8487
21.2714,37.9000
12.7778,37.9000
12.7415,37.7312
12.7415,37.7312
12.6510,37.5061
12.5238,37.2996
12.3636,37.1175
12.3636,37.1175
12.1749,36.9651
12.1748,36.9651
11.9631,36.8468
11.7344,36.7660
11.7344,36.7660
11.4953,36.7250
11.0250,36.7250
11.0250,37.5457
11.0162,37.5408
10.8571,37.5000
10.7341,37.5000
10.6121,37.5154
10.5250,37.5499
10.5250,36.7250
10.1154,36.7250
9.9343,36.7404
9.6996,36.8015
9.4785,36.9015
9.4785,36.9015
9.2775,37.0373
9.2775,37.0373
9.1024,37.2051
9.1024,37.2051
8.9582,37.4002
8.8490,37.6168
8.7779,37.8487
8.7714,37.9000
3.8755,37.9000
3.8755,18.0893
8.7466,18.0893
8.7569,18.3317
8.7569,18.3317
8.8081,18.5689
8.8081,18.5689
8.8985,18.7941
9.0258,19.0007
9.1861,19.1829
9.1861,19.1829
9.3749,19.3353
9.5867,19.4537
9.5867,19.4537
9.8155,19.5345
9.8155,19.5345
10.0547,19.5755
10.0547,19.5755
10.0547,19.5755
10.0547,19.5755
11.4346,19.5755
11.4346,19.5755
11.4346,19.5755
11.4346,19.5755
11.6158,19.5601
11.6158,19.5601
11.6158,19.5601
11.8506,19.4989
11.8506,19.4989
12.0717,19.3990
12.0717,19.3990
12.0717,19.3990
12.2728,19.2631
12.3543,19.1850
12.4163,19.1528
12.4401,19.1505
21.6025,19.1505
21.6695,19.1702
21.6818,19.1798
21.6820,19.1796
21.8749,19.3353
22.0867,19.4537
22.0867,19.4537
22.3155,19.5345
22.3155,19.5345
22.5547,19.5755
22.5547,19.5755
22.5547,19.5755
22.5547,19.5755
23.9346,19.5755
23.9346,19.5755
23.9346,19.5755
23.9346,19.5755
24.1158,19.5601
24.1158,19.5601
24.1158,19.5601
24.3506,19.4989
24.3506,19.4989
24.5717,19.3990
24.5717,19.3990
24.5717,19.3990
24.7728,19.2631
24.8543,19.1850
24.9163,19.1528
24.9401,19.1505
30.2592,19.1505
30.3263,19.1702
30.3469,19.1868
47.4682,36.3081
47.5017,36.3694
47.5045,36.3958
47.5045,45.2242
47.4848,45.2913
47.4682,45.3119
44.1576,48.6224
44.1554,48.6246
44.0919,48.6849
44.0582,48.7334
44.0526,48.7409
44.0153,48.7866
44.0153,48.7866
44.0012,48.8136
43.9931,48.8270
43.9757,48.8520
43.9524,48.9062
43.9484,48.9147
43.9211,48.9670
43.9211,48.9670
43.9127,48.9962
43.9075,49.0110
43.8955,49.0389
43.8881,49.0748
43.8859,49.0856
43.8836,49.0967
43.8813,49.1059
43.8651,49.1626
43.8628,49.1929
43.8606,49.2085
43.8545,49.2383
43.8545,49.2972
43.8541,49.3067
43.8497,49.3655
43.8535,49.3956
43.8545,49.4113
43.8545,54.7157
43.8545,54.7189
43.8522,54.8064
43.8522,54.8064
43.8626,54.8644
43.8640,54.8737
43.8699,54.9324
43.8699,54.9324
43.8790,54.9615
43.8828,54.9767
43.8881,55.0067
43.8881,55.0067
43.9100,55.0614
43.9132,55.0703
43.9308,55.1266
43.9308,55.1266
43.9308,55.1266
43.9456,55.1532
43.9523,55.1674
43.9636,55.1956
43.9636,55.1956
43.9961,55.2449
44.0010,55.2529
44.0296,55.3045
44.0296,55.3045
44.0296,55.3045
44.0494,55.3276
44.0589,55.3401
44.0756,55.3655
44.1173,55.4072
44.1237,55.4141
44.1621,55.4589
44.1621,55.4589
44.1862,55.4775
44.1980,55.4879
46.4182,57.7081
46.4517,57.7694
46.4545,57.7958
46.4545,62.6042
46.4348,62.6713
46.4182,62.6919
44.0226,65.0874
44.0204,65.0896
43.9569,65.1499
43.9232,65.1984
43.9176,65.2059
43.8803,65.2516
43.8803,65.2516
43.8662,65.2786
43.8581,65.2920
43.8407,65.3170
43.8174,65.3712
43.8134,65.3797
43.7861,65.4320
43.7861,65.4320
43.7777,65.4612
43.7725,65.4760
43.7605,65.5039
43.7486,65.5617
43.7463,65.5709
43.7301,65.6276
43.7278,65.6579
43.7256,65.6735
43.7195,65.7033
43.7195,65.7622
43.7191,65.7717
43.7147,65.8305
43.7185,65.8606
43.7195,65.8763
43.7195,69.2392
43.6998,69.3063
43.6832,69.3269
40.1426,72.8674
40.1404,72.8696
40.0769,72.9299
40.0432,72.9784
40.0376,72.9859
40.0003,73.0316
40.0003,73.0316
39.9862,73.0586
39.9781,73.0720
39.9607,73.0970
39.9374,73.1512
39.9334,73.1597
39.9061,73.2120
39.9061,73.2120
39.8977,73.2412
39.8925,73.2560
39.8805,73.2839
39.8750,73.3106
39.8690,73.3399
39.8686,73.3417
39.8663,73.3509
39.8501,73.4076
39.8478,73.4379
39.8456,73.4535
39.8446,73.4585
39.8395,73.4833
39.8395,73.5422
39.8391,73.5517
39.8347,73.6105
39.8361,73.6220
39.8382,73.6385
39.8385,73.6406
39.8395,73.6563
39.8395,75.2042
39.8198,75.2713
39.8032,75.2919
39.8015,75.2936
39.6716,75.4792
39.6170,75.5228
39.5475,75.5300
39.4851,75.4985
39.4684,75.4792
39.3385,75.2936
39.3368,75.2919
39.3363,75.2910
39.3350,75.2894
39.3353,75.2892
39.3033,75.2306
39.3005,75.2042
39.3005,69.5051
39.3202,69.4380
39.3730,69.3923
39.4421,69.3823
39.4850,69.3968
39.5867,69.4537
39.5867,69.4537
39.8155,69.5345
39.8155,69.5345
40.0547,69.5755
40.0547,69.5755
40.0547,69.5755
40.0547,69.5755
41.4346,69.5755
41.4346,69.5755
41.4346,69.5755
41.4346,69.5755
41.6158,69.5601
41.6158,69.5601
41.6158,69.5601
41.8506,69.4989
41.8506,69.4989
42.0717,69.3990
42.0717,69.3990
42.0717,69.3990
42.2728,69.2631
42.4480,69.0952
42.5922,68.9001
42.7015,68.6834
42.7725,68.4514
42.8034,68.2107
42.8031,68.2035
42.7931,67.9683
42.7931,67.9683
42.7652,67.8389
42.7419,67.7311
42.6515,67.5059
42.5242,67.2993
42.3639,67.1171
42.3639,67.1171
42.3639,67.1171
42.1751,66.9647
41.9633,66.8463
41.7345,66.7655
41.7345,66.7655
41.4953,66.7245
41.4953,66.7245
40.1154,66.7245
40.1154,66.7245
39.9342,66.7399
39.9342,66.7399
39.6994,66.8011
39.4756,66.9022
39.4064,66.9119
39.3429,66.8826
39.3054,66.8237
39.3005,66.7892
39.3005,64.5045
39.3202,64.4375
39.3730,64.3917
39.4421,64.3818
39.4850,64.3962
39.5869,64.4532
39.8156,64.5340
39.8156,64.5340
40.0547,64.5750
40.0547,64.5750
40.5250,64.5750
40.5250,63.7543
40.5338,63.7592
40.6929,63.8000
40.8159,63.8000
40.9379,63.7846
41.0250,63.7501
41.0250,64.5750
41.4345,64.5750
41.4346,64.5750
41.6157,64.5596
41.8504,64.4985
42.0715,64.3985
42.0715,64.3985
42.2724,64.2627
42.2725,64.2627
42.4476,64.0949
42.4476,64.0949
42.5918,63.8998
42.7010,63.6832
42.7721,63.4513
42.7786,63.4000
41.3757,63.4000
41.3981,63.3525
41.4289,63.1911
41.4186,63.0272
41.3772,62.9000
42.7778,62.9000
42.7415,62.7312
42.7415,62.7312
42.6510,62.5061
42.5238,62.2996
42.3636,62.1175
42.3636,62.1175
42.1749,61.9651
42.1748,61.9651
41.9631,61.8468
41.7344,61.7660
41.7344,61.7660
41.4953,61.7250
41.0250,61.7250
41.0250,62.5457
41.0162,62.5408
40.8571,62.5000
40.7341,62.5000
40.6121,62.5154
40.5250,62.5499
40.5250,61.7250
40.1154,61.7250
39.9343,61.7404
39.6996,61.8015
39.4756,61.9028
39.4064,61.9125
39.3429,61.8832
39.3054,61.8243
39.3005,61.7898
39.3005,44.5051
39.3202,44.4380
39.3730,44.3923
39.4421,44.3823
39.4850,44.3968
39.5867,44.4537
39.5867,44.4537
39.8155,44.5345
39.8155,44.5345
40.0547,44.5755
40.0547,44.5755
40.0547,44.5755
40.0547,44.5755
41.4346,44.5755
41.4346,44.5755
41.4346,44.5755
41.4346,44.5755
41.6158,44.5601
41.6158,44.5601
41.6158,44.5601
41.8506,44.4989
41.8506,44.4989
42.0717,44.3990
42.0717,44.3990
42.0717,44.3990
42.2728,44.2631
42.4480,44.0952
42.5922,43.9001
42.7015,43.6834
42.7725,43.4514
42.8034,43.2107
42.7931,42.9683
42.7419,42.7311
42.6515,42.5059
42.5242,42.2993
42.3639,42.1171
42.3639,42.1171
42.3639,42.1171
42.1751,41.9647
41.9633,41.8463
41.7345,41.7655
41.7345,41.7655
41.4953,41.7245
41.4953,41.7245
40.1154,41.7245
40.1154,41.7245
39.9342,41.7399
39.9342,41.7399
39.6994,41.8011
39.4756,41.9022
39.4064,41.9119
39.3429,41.8826
39.3054,41.8237
39.3005,41.7892
39.3005,39.5045
39.3202,39.4375
39.3730,39.3917
39.4421,39.3818
39.4850,39.3962
39.5869,39.4532
39.8156,39.5340
39.8156,39.5340
40.0547,39.5750
40.0547,39.5750
40.5250,39.5750
40.5250,38.7543
40.5338,38.7592
40.6929,38.8000
40.8159,38.8000
40.9379,38.7846
41.0250,38.7501
41.0250,39.5750
41.4345,39.5750
41.4346,39.5750
41.6157,39.5596
41.8504,39.4985
42.0715,39.3985
42.0715,39.3985
42.2724,39.2627
42.2725,39.2627
42.4476,39.0949
42.4476,39.0949
42.5918,38.8998
42.7010,38.6832
42.7721,38.4513
42.7786,38.4000
41.3757,38.4000
41.3981,38.3525
41.4289,38.1911
41.4186,38.0272
41.3772,37.9000
42.7778,37.9000
42.7415,37.7312
42.7415,37.7312
42.6510,37.5061
42.5238,37.2996
42.3636,37.1175
42.3636,37.1175
42.1749,36.9651
42.1748,36.9651
41.9631,36.8468
41.7344,36.7660
41.7344,36.7660
41.4953,36.7250
41.0250,36.7250
41.0250,37.5457
41.0162,37.5408
40.8571,37.5000
40.7341,37.5000
40.6121,37.5154
40.5250,37.5499
40.5250,36.7250
40.1154,36.7250
39.9343,36.7404
39.6996,36.8015
39.4756,36.9028
39.4064,36.9125
39.3429,36.8832
39.3054,36.8243
39.3005,36.7898
39.3005,30.5493
39.3005,30.5461
39.3028,30.4586
39.3028,30.4586
39.3028,30.4586
39.2923,30.4006
39.2910,30.3912
39.2851,30.3326
39.2760,30.3035
39.2722,30.2883
39.2669,30.2583
39.2450,30.2036
39.2418,30.1947
39.2242,30.1384
39.2242,30.1384
39.2242,30.1384
39.2094,30.1118
39.2027,30.0976
39.1914,30.0694
39.1914,30.0694
39.1589,30.0201
39.1540,30.0121
39.1254,29.9605
39.1056,29.9374
39.0961,29.9249
39.0794,29.8995
39.0377,29.8578
39.0313,29.8509
38.9929,29.8061
38.9688,29.7875
38.9570,29.7771
37.2066,28.0267
37.1241,27.9594
37.0884,27.9303
36.9080,27.8361
36.7124,27.7801
36.7124,27.7801
36.7124,27.7801
36.5095,27.7647
36.5095,27.7647
36.3077,27.7904
36.3077,27.7904
36.1151,27.8562
36.1151,27.8562
35.9398,27.9594
35.9398,27.9594
35.7888,28.0958
35.7888,28.0958
35.6684,28.2598
35.6683,28.2598
35.5834,28.4447
35.5834,28.4447
35.5374,28.6429
35.5322,28.8464
35.5681,29.0466
35.5681,29.0467
35.5765,29.0675
35.6336,29.2105
35.6436,29.2356
35.6436,29.2356
35.7556,29.4055
35.7556,29.4055
37.2632,30.9131
37.2967,30.9744
37.2995,31.0008
37.2995,75.2042
37.2798,75.2713
37.2632,75.2919
37.2615,75.2936
37.1316,75.4792
37.0770,75.5228
37.0075,75.5300
36.9451,75.4985
36.9284,75.4792
36.7985,75.2936
36.7968,75.2919
36.7963,75.2910
36.7950,75.2894
36.7953,75.2892
36.7633,75.2306
36.7605,75.2042
36.7605,32.5793
36.7605,32.5761
36.7628,32.4886
36.7628,32.4886
36.7628,32.4886
36.7523,32.4306
36.7510,32.4212
36.7451,32.3626
36.7451,32.3626
36.7451,32.3626
36.7360,32.3335
36.7322,32.3183
36.7269,32.2883
36.7050,32.2336
36.7018,32.2247
36.6842,32.1684
36.6694,32.1418
36.6627,32.1276
36.6514,32.0994
36.6514,32.0994
36.6189,32.0501
36.6140,32.0421
36.5854,31.9905
36.5656,31.9674
36.5561,31.9549
36.5394,31.9295
36.4977,31.8878
36.4913,31.8809
36.4529,31.8361
36.4288,31.8175
36.4170,31.8071
29.2126,24.6027
29.2083,24.5982
29.1592,24.5438
29.1001,24.5004
29.0952,24.4966
29.0384,24.4503
29.0241,24.4428
29.0081,24.4329
28.9952,24.4234
28.9286,24.3928
28.9230,24.3900
28.8580,24.3561
28.8516,24.3542
28.8426,24.3517
28.8249,24.3451
28.8103,24.3384
28.8103,24.3384
28.8103,24.3384
28.8103,24.3384
28.8103,24.3384
28.7389,24.3218
28.7329,24.3203
28.7069,24.3128
28.6624,24.3001
28.6563,24.2996
28.6463,24.2989
28.6277,24.2960
28.6218,24.2946
28.6120,24.2924
28.5388,24.2905
28.5326,24.2902
28.4595,24.2847
28.4595,24.2847
28.4435,24.2867
28.4247,24.2877
28.4086,24.2872
28.4086,24.2872
28.3365,24.3002
28.3303,24.3011
28.2577,24.3104
28.2577,24.3104
28.2577,24.3104
28.2505,24.3128
28.2104,24.3195
11.5358,24.3195
11.4687,24.2998
11.4481,24.2832
11.4464,24.2815
11.4464,24.2815
11.2528,24.1460
11.2528,24.1460
11.2528,24.1460
11.0387,24.0461
11.0387,24.0461
11.0387,24.0461
10.8104,23.9849
10.8104,23.9849
10.5750,23.9643
10.5750,23.9643
10.3396,23.9849
10.3396,23.9849
10.1113,24.0461
10.1113,24.0461
9.8972,24.1460
9.8972,24.1460
9.7036,24.2815
9.5365,24.4486
9.4010,24.6422
9.4010,24.6422
9.3011,24.8563
9.3011,24.8563
9.2399,25.0846
9.2399,25.0846
9.2193,25.3200
9.2193,25.3200
9.2399,25.5554
9.2399,25.5554
9.3011,25.7837
9.3011,25.7837
9.3011,25.7837
9.4010,25.9978
9.4010,25.9978
9.5365,26.1914
9.5365,26.1914
9.6584,26.3133
9.6919,26.3746
9.6869,26.4443
9.6451,26.5003
9.6141,26.5172
9.4827,26.5662
9.4827,26.5662
9.3675,26.6525
9.3675,26.6525
9.2812,26.7677
9.2812,26.7677
9.2309,26.9025
9.2245,26.9621
9.2245,26.9621
9.2245,28.7579
9.2245,28.7579
9.2309,28.8175
9.2812,28.9523
9.2812,28.9523
9.3675,29.0675
9.3675,29.0675
9.4827,29.1538
9.4827,29.1538
9.6175,29.2041
9.6175,29.2041
9.6244,29.2048
9.6771,29.2105
11.4729,29.2105
11.5325,29.2041
11.6673,29.1538
11.7825,29.0675
11.8688,28.9523
11.8730,28.9412
11.9148,28.8852
11.9803,28.8608
11.9891,28.8605
26.3692,28.8605
26.4363,28.8802
26.4569,28.8968
27.0934,29.5333
27.2116,29.6297
27.3920,29.7239
27.5876,29.7799
27.6552,29.7850
27.7905,29.7953
27.7905,29.7953
27.7905,29.7953
27.9923,29.7696
27.9923,29.7696
27.9923,29.7696
28.1849,29.7038
28.3602,29.6006
28.5112,29.4642
28.6316,29.3002
28.7166,29.1153
28.7626,28.9171
28.7678,28.7136
28.7319,28.5133
28.6564,28.3244
28.6138,28.2598
28.5444,28.1545
28.5444,28.1545
27.5526,27.1626
27.5504,27.1604
27.4901,27.0969
27.4901,27.0969
27.4901,27.0969
27.4416,27.0632
27.4341,27.0576
27.3884,27.0203
27.3884,27.0203
27.3614,27.0062
27.3480,26.9981
27.3230,26.9807
27.3230,26.9807
27.3230,26.9807
27.3230,26.9807
27.2688,26.9574
27.2603,26.9534
27.2081,26.9261
27.2080,26.9261
27.1788,26.9177
27.1640,26.9125
27.1361,26.9005
27.0783,26.8886
27.0691,26.8863
27.0124,26.8701
26.9887,26.8683
26.9821,26.8678
26.9665,26.8656
26.9367,26.8595
26.9367,26.8595
26.8778,26.8595
26.8683,26.8591
26.8656,26.8589
26.8095,26.8547
26.7793,26.8585
26.7637,26.8595
11.9891,26.8595
11.9221,26.8398
11.8763,26.7870
11.8730,26.7789
11.8688,26.7677
11.8688,26.7677
11.8688,26.7677
11.7825,26.6525
11.7825,26.6525
11.6673,26.5662
11.6673,26.5662
11.6525,26.5607
11.5966,26.5188
11.5722,26.4533
11.5870,26.3851
11.6364,26.3357
11.6959,26.3205
28.0492,26.3205
28.1163,26.3402
28.1369,26.3568
34.7232,32.9431
34.7567,33.0044
34.7595,33.0308
34.7595,75.2042
34.7398,75.2713
34.7232,75.2919
34.7215,75.2936
34.5913,75.4796
34.5367,75.5232
34.4672,75.5304
34.4048,75.4989
34.3881,75.4796
34.2581,75.2939
34.2581,75.2939
34.0911,75.1269
33.8976,74.9914
33.6835,74.8916
33.6835,74.8916
33.4700,74.8344
33.4700,75.7295
33.3623,75.6803
33.2558,75.6650
33.1842,75.6650
33.0777,75.6803
32.9700,75.7295
32.9700,74.8344
32.9700,74.8344
32.7565,74.8916
32.7565,74.8916
32.5424,74.9914
32.5424,74.9914
32.3489,75.1269
32.3489,75.1269
32.1819,75.2939
32.1819,75.2939
32.0464,75.4874
32.0464,75.4874
31.9466,75.7015
31.9466,75.7015
31.8894,75.9150
31.8894,75.9150
32.7863,75.9150
32.7605,75.9552
32.7200,76.0931
32.7200,76.2369
32.7605,76.3748
32.7863,76.4150
31.8894,76.4150
31.9466,76.6285
31.9466,76.6285
32.0464,76.8426
32.1819,77.0361
32.3489,77.2031
32.5424,77.3386
32.7565,77.4384
32.7565,77.4384
32.9700,77.4956
32.9700,76.6005
33.0777,76.6497
33.1842,76.6650
33.2558,76.6650
33.3623,76.6497
33.4700,76.6005
33.4700,77.4956
33.6835,77.4384
33.6835,77.4384
33.8976,77.3386
34.0911,77.2031
34.2581,77.0361
34.3881,76.8504
34.4427,76.8068
34.5122,76.7996
34.5745,76.8311
34.5913,76.8504
34.7215,77.0364
34.8886,77.2035
34.9854,77.2713
35.0822,77.3390
35.0822,77.3390
35.0822,77.3390
35.2963,77.4389
35.5246,77.5001
35.7010,77.5155
35.7600,77.5207
35.7600,77.5207
35.7600,77.5207
35.8190,77.5155
35.9954,77.5001
36.2237,77.4389
36.4378,77.3390
36.6314,77.2035
36.7985,77.0364
36.9284,76.8508
36.9830,76.8072
37.0525,76.8000
37.1149,76.8315
37.1316,76.8508
37.2613,77.0361
37.2615,77.0364
37.4286,77.2035
37.5254,77.2713
37.6222,77.3390
37.6222,77.3390
37.6222,77.3390
37.8363,77.4389
38.0646,77.5001
38.2410,77.5155
38.3000,77.5207
38.3000,77.5207
38.3000,77.5207
38.3590,77.5155
38.5354,77.5001
38.7637,77.4389
38.9778,77.3390
39.1714,77.2035
39.3385,77.0364
39.4684,76.8508
39.5230,76.8072
39.5925,76.8000
39.6549,76.8315
39.6716,76.8508
39.8013,77.0361
39.8015,77.0364
39.9686,77.2035
40.0654,77.2713
40.1622,77.3390
40.1622,77.3390
40.1622,77.3390
40.3763,77.4389
40.6046,77.5001
40.7810,77.5155
40.8400,77.5207
40.8400,77.5207
40.8400,77.5207
40.8990,77.5155
41.0754,77.5001
41.3037,77.4389
41.5178,77.3390
41.7114,77.2035
41.8785,77.0364
42.0084,76.8508
42.0630,76.8072
42.1325,76.8000
42.1949,76.8315
42.2116,76.8508
42.3413,77.0361
42.3415,77.0364
42.5086,77.2035
42.6054,77.2713
42.7022,77.3390
42.7022,77.3390
42.7022,77.3390
42.9163,77.4389
43.1446,77.5001
43.3210,77.5155
43.3800,77.5207
43.3800,77.5207
43.3800,77.5207
43.4390,77.5155
43.6154,77.5001
43.8437,77.4389
44.0578,77.3390
44.2514,77.2035
44.4185,77.0364
44.5484,76.8508
44.6030,76.8072
44.6725,76.8000
44.7349,76.8315
44.7516,76.8508
44.8813,77.0361
44.8815,77.0364
45.0486,77.2035
45.1454,77.2713
45.2422,77.3390
45.2422,77.3390
45.2422,77.3390
45.4563,77.4389
45.6846,77.5001
45.8610,77.5155
45.9200,77.5207
45.9200,77.5207
45.9200,77.5207
45.9790,77.5155
46.1554,77.5001
46.3837,77.4389
46.5978,77.3390
46.7914,77.2035
46.9585,77.0364
47.0884,76.8508
47.1430,76.8072
47.2125,76.8000
47.2749,76.8315
47.2916,76.8508
47.4213,77.0361
47.4215,77.0364
47.5886,77.2035
47.6854,77.2713
47.7822,77.3390
47.7822,77.3390
47.7822,77.3390
47.9963,77.4389
48.2246,77.5001
48.4010,77.5155
48.4600,77.5207
48.4600,77.5207
48.4600,77.5207
48.5190,77.5155
48.6954,77.5001
48.9237,77.4389
49.1378,77.3390
49.3314,77.2035
49.4985,77.0364
49.6284,76.8508
49.6830,76.8072
49.7525,76.8000
49.8149,76.8315
49.8316,76.8508
49.9613,77.0361
49.9615,77.0364
50.1286,77.2035
50.2254,77.2713
50.3222,77.3390
50.3222,77.3390
50.3222,77.3390
50.5363,77.4389
50.7646,77.5001
50.9410,77.5155
51.0000,77.5207
51.0000,77.5207
51.0000,77.5207
51.0590,77.5155
51.2354,77.5001
51.4637,77.4389
51.6778,77.3390
51.8714,77.2035
52.0385,77.0364
52.1684,76.8508
52.2230,76.8072
52.2925,76.8000
52.3549,76.8315
52.3716,76.8508
52.5013,77.0361
52.5015,77.0364
52.6686,77.2035
52.7654,77.2713
52.8622,77.3390
52.8622,77.3390
52.8622,77.3390
53.0763,77.4389
53.3046,77.5001
53.4810,77.5155
53.5400,77.5207
53.5400,77.5207
53.5400,77.5207
53.5990,77.5155
53.7754,77.5001
54.0037,77.4389
54.2178,77.3390
54.4114,77.2035
54.5785,77.0364
54.7084,76.8508
54.7630,76.8072
54.8325,76.8000
54.8949,76.8315
54.9116,76.8508
55.0413,77.0361
55.0415,77.0364
55.2086,77.2035
55.3054,77.2713
55.4022,77.3390
55.4022,77.3390
55.4022,77.3390
55.6163,77.4389
55.8446,77.5001
56.0210,77.5155
56.0800,77.5207
56.0800,77.5207
56.0800,77.5207
56.1390,77.5155
56.3154,77.5001
56.5437,77.4389
56.7578,77.3390
56.9514,77.2035
57.1185,77.0364
57.2484,76.8508
57.3030,76.8072
57.3725,76.8000
57.4349,76.8315
57.4516,76.8508
57.5813,77.0361
57.5815,77.0364
57.7486,77.2035
57.8454,77.2713
57.9422,77.3390
57.9422,77.3390
57.9422,77.3390
58.1563,77.4389
58.3846,77.5001
58.5610,77.5155
58.6200,77.5207
58.6200,77.5207
58.6200,77.5207
58.6790,77.5155
58.8554,77.5001
59.0837,77.4389
59.2978,77.3390
59.4914,77.2035
59.6133,77.0816
59.6746,77.0481
59.7443,77.0531
59.8003,77.0949
59.8172,77.1259
59.8662,77.2573
59.8662,77.2573
59.9525,77.3725
59.9525,77.3725
60.0677,77.4588
60.0677,77.4588
60.2025,77.5091
60.2025,77.5091
60.2094,77.5098
60.2621,77.5155
62.0579,77.5155
62.1175,77.5091
62.2523,77.4588
62.3675,77.3725
62.4538,77.2573
62.4580,77.2462
62.4998,77.1902
62.5653,77.1658
62.5741,77.1655
62.9957,77.1655
62.9989,77.1655
63.0864,77.1678
63.0864,77.1678
63.0864,77.1678
63.1444,77.1573
63.1538,77.1560
63.2124,77.1501
63.2415,77.1410
63.2567,77.1372
63.2867,77.1319
63.2867,77.1319
63.2867,77.1319
63.3414,77.1100
63.3503,77.1068
63.4066,77.0892
63.4332,77.0744
63.4474,77.0677
63.4756,77.0564
63.5249,77.0239
63.5329,77.0190
63.5845,76.9904
63.5845,76.9904
63.5845,76.9904
63.6076,76.9706
63.6201,76.9611
63.6455,76.9444
63.6872,76.9027
63.6941,76.8963
63.7389,76.8579
63.7575,76.8338
63.7679,76.8220
64.4050,76.1849
85.0745,76.1849
85.1147,76.4518
85.1147,76.4518
85.1943,76.7096
85.3113,76.9528
85.3113,76.9528
85.3113,76.9528
85.4334,77.1319
85.4634,77.1757
85.6469,77.3736
85.6469,77.3736
85.6469,77.3736
85.8579,77.5418
86.0916,77.6767
86.3428,77.7753
86.6059,77.8354
86.6438,77.8382
86.8076,77.8505
86.8076,77.8505
86.8076,77.8505
86.8076,77.8505
86.9424,77.8505
86.9424,77.8505
86.9424,77.8505
86.9424,77.8505
87.0873,77.8396
87.1441,77.8354
87.4072,77.7753
87.6584,77.6767
87.8921,77.5418
88.1031,77.3736
88.2866,77.1757
88.4387,76.9528
88.5557,76.7096
88.6353,76.4518
88.6408,76.4150
88.6755,76.1849
88.6755,76.1849
88.6755,75.9151
88.6755,75.9151
88.6353,75.6482
88.6353,75.6482
88.5557,75.3904
88.4387,75.1472
88.2866,74.9243
88.2559,74.8911
88.1031,74.7264
88.0625,74.6941
87.8921,74.5582
87.6584,74.4233
87.6584,74.4233
87.4072,74.3247
87.4072,74.3247
87.1441,74.2646
86.9424,74.2495
86.9424,74.2495
86.8076,74.2495
86.8076,74.2495
86.6059,74.2646
86.3428,74.3247
86.3428,74.3247
86.0916,74.4233
86.0916,74.4233
85.8579,74.5582
85.6469,74.7264
85.4634,74.9243
85.3113,75.1472
85.3113,75.1472
85.1943,75.3904
85.1147,75.6482
85.1147,75.6482
85.0745,75.9151
85.0745,76.1849
64.4050,76.1849
67.6524,72.9375
67.6546,72.9354
67.7181,72.8751
67.7518,72.8266
67.7574,72.8191
67.7947,72.7734
67.8088,72.7464
67.8169,72.7330
67.8343,72.7080
67.8576,72.6538
67.8616,72.6453
67.8665,72.6360
67.8889,72.5930
67.8973,72.5638
67.9025,72.5490
67.9145,72.5211
67.9233,72.4786
67.9264,72.4633
67.9286,72.4542
67.9449,72.3974
67.9472,72.3671
67.9494,72.3515
67.9555,72.3217
67.9555,72.2628
67.9559,72.2533
67.9603,72.1945
67.9595,72.1883
67.9565,72.1643
67.9555,72.1487
67.9555,68.2893
67.9401,68.1376
67.8792,67.9434
67.8792,67.9434
67.8792,67.9434
67.7804,67.7655
67.7804,67.7655
67.7804,67.7655
67.6479,67.6111
67.6479,67.6111
67.4870,67.4866
67.4870,67.4866
67.4870,67.4866
67.3043,67.3969
67.1073,67.3459
67.1073,67.3459
66.9718,67.3391
66.9041,67.3356
66.9041,67.3356
66.9041,67.3356
66.7029,67.3664
66.7029,67.3664
66.5121,67.4371
66.5121,67.4371
66.3394,67.5447
66.3394,67.5447
66.1919,67.6849
66.1919,67.6849
66.0757,67.8519
65.9955,68.0389
65.9545,68.2383
65.9545,71.7542
65.9348,71.8213
65.9182,71.8419
65.2927,72.4673
65.2314,72.5008
65.1617,72.4958
65.1058,72.4540
65.0814,72.3885
65.0836,72.3547
65.0860,72.3431
65.0964,72.2923
65.0987,72.2832
65.1149,72.2265
65.1172,72.1961
65.1194,72.1806
65.1255,72.1508
65.1255,72.0918
65.1259,72.0824
65.1303,72.0236
65.1265,71.9934
65.1255,71.9777
65.1255,71.9007
65.1355,71.8518
65.1476,71.8238
65.1516,71.8154
65.1789,71.7630
65.1873,71.7338
65.1925,71.7190
65.2045,71.6911
65.2164,71.6333
65.2186,71.6242
65.2349,71.5674
65.2372,71.5371
65.2394,71.5215
65.2455,71.4917
65.2455,71.4328
65.2459,71.4233
65.2503,71.3645
65.2501,71.3629
65.2465,71.3343
65.2455,71.3187
65.2455,68.3041
65.2459,68.2947
65.2603,68.1045
65.2603,68.1045
65.2346,67.9027
65.2346,67.9027
65.2346,67.9027
65.1688,67.7101
65.1665,67.7062
65.0656,67.5348
65.0656,67.5348
65.0656,67.5348
64.9292,67.3838
64.7652,67.2634
64.7652,67.2633
64.5803,67.1784
64.5803,67.1784
64.3821,67.1324
64.1786,67.1272
63.9784,67.1631
63.9783,67.1631
63.7894,67.2386
63.7894,67.2386
63.6195,67.3506
63.5476,67.4225
63.5454,67.4246
63.4819,67.4849
63.4819,67.4849
63.4482,67.5334
63.4426,67.5409
63.4053,67.5866
63.4053,67.5866
63.3912,67.6136
63.3831,67.6270
63.3657,67.6520
63.3424,67.7062
63.3384,67.7147
63.3111,67.7670
63.3111,67.7670
63.3027,67.7962
63.2975,67.8110
63.2855,67.8389
63.2736,67.8967
63.2713,67.9059
63.2551,67.9626
63.2528,67.9929
63.2506,68.0085
63.2445,68.0383
63.2445,68.0972
63.2441,68.1067
63.2397,68.1655
63.2435,68.1956
63.2445,68.2113
63.2445,70.9993
63.2344,71.0482
63.2224,71.0762
63.2184,71.0847
63.1911,71.1370
63.1827,71.1662
63.1775,71.1810
63.1655,71.2089
63.1536,71.2667
63.1513,71.2759
63.1351,71.3326
63.1328,71.3629
63.1306,71.3785
63.1245,71.4083
63.1245,71.4672
63.1241,71.4767
63.1197,71.5355
63.1235,71.5656
63.1245,71.5813
63.1245,71.5833
63.1048,71.6503
63.0882,71.6710
62.9372,71.8220
62.8759,71.8554
62.8062,71.8505
62.7502,71.8086
62.7258,71.7431
62.7255,71.7343
62.7255,69.5474
62.7396,69.4900
62.7589,69.4530
62.8149,69.2574
62.8303,69.0545
62.8303,69.0545
62.8046,68.8527
62.8046,68.8527
62.8046,68.8527
62.7388,68.6601
62.7350,68.6536
62.6356,68.4848
62.6356,68.4848
62.6356,68.4848
62.4992,68.3338
62.4540,68.3006
62.3352,68.2134
62.3352,68.2133
62.1503,68.1284
62.1503,68.1284
61.9521,68.0824
61.7486,68.0772
61.7486,68.0772
61.5483,68.1131
61.5483,68.1131
61.3594,68.1886
61.3594,68.1886
61.1895,68.3006
61.1895,68.3006
61.0276,68.4625
61.0254,68.4646
60.9619,68.5249
60.9282,68.5734
60.9226,68.5809
60.8853,68.6266
60.8853,68.6266
60.8712,68.6536
60.8631,68.6670
60.8457,68.6920
60.8224,68.7462
60.8184,68.7547
60.7911,68.8070
60.7911,68.8070
60.7827,68.8362
60.7775,68.8510
60.7655,68.8789
60.7536,68.9367
60.7513,68.9459
60.7351,69.0026
60.7328,69.0329
60.7306,69.0485
60.7245,69.0783
60.7245,69.1372
60.7241,69.1467
60.7197,69.2055
60.7235,69.2356
60.7245,69.2513
60.7245,69.6494
60.7048,69.7164
60.6520,69.7622
60.5829,69.7721
60.5193,69.7431
60.5106,69.7348
60.3701,69.5869
60.3701,69.5869
60.3701,69.5869
60.2436,69.4989
60.2030,69.4707
60.0161,69.3905
59.8167,69.3495
57.9651,69.3495
57.8981,69.3298
57.8523,69.2770
57.8424,69.2079
57.8671,69.1496
57.8884,69.1220
57.8884,69.1220
57.8884,69.1220
57.9781,68.9393
58.0291,68.7423
58.0394,68.5391
58.0086,68.3379
57.9379,68.1471
57.8303,67.9744
57.6901,67.8269
57.5916,67.7584
57.5230,67.7107
57.3361,67.6305
57.1367,67.5895
55.7463,67.5895
55.7432,67.5895
55.6557,67.5872
55.6557,67.5872
55.5977,67.5976
55.5884,67.5990
55.5297,67.6049
55.5297,67.6049
55.5006,67.6140
55.4854,67.6178
55.4554,67.6231
55.4007,67.6450
55.3918,67.6482
55.3386,67.6649
55.2687,67.6662
55.2092,67.6295
55.1864,67.5928
55.1640,67.5372
55.1515,67.5059
55.0242,67.2993
54.8639,67.1171
54.8315,67.0910
54.7917,67.0335
54.7893,66.9637
54.8250,66.9037
54.8875,66.8724
54.9094,66.8705
68.0292,66.8705
68.0963,66.8902
68.1169,66.9068
68.7907,67.5806
68.8242,67.6419
68.8216,67.7046
68.7775,67.8486
68.7466,68.0893
68.7569,68.3317
68.7569,68.3317
68.8081,68.5689
68.8081,68.5689
68.8827,68.7547
68.8985,68.7941
68.9346,68.8527
69.0258,69.0007
69.1861,69.1829
69.1861,69.1829
69.3749,69.3353
69.5867,69.4537
69.5867,69.4537
69.8155,69.5345
69.8155,69.5345
70.0547,69.5755
70.0547,69.5755
70.0547,69.5755
70.0547,69.5755
71.4346,69.5755
71.4346,69.5755
71.4346,69.5755
71.4346,69.5755
71.6158,69.5601
71.6158,69.5601
71.6158,69.5601
71.8506,69.4989
71.8506,69.4989
72.0717,69.3990
72.0717,69.3990
72.0717,69.3990
72.2728,69.2631
72.3543,69.1850
72.4163,69.1528
72.4401,69.1505
81.6025,69.1505
81.6695,69.1702
81.6818,69.1798
81.6820,69.1796
81.8749,69.3353
82.0867,69.4537
82.0867,69.4537
82.3155,69.5345
82.3155,69.5345
82.5547,69.5755
82.5547,69.5755
82.5547,69.5755
82.5547,69.5755
83.9346,69.5755
83.9346,69.5755
83.9346,69.5755
83.9346,69.5755
84.1158,69.5601
84.1158,69.5601
84.1158,69.5601
84.3506,69.4989
84.3506,69.4989
84.5717,69.3990
84.5717,69.3990
84.5717,69.3990
84.7728,69.2631
84.9480,69.0952
85.0922,68.9001
85.2015,68.6834
85.2725,68.4514
85.3034,68.2107
85.3031,68.2035
85.2931,67.9683
85.2931,67.9683
85.2652,67.8389
85.2419,67.7311
85.1515,67.5059
85.0242,67.2993
84.8639,67.1171
84.8639,67.1171
84.8639,67.1171
84.6751,66.9647
84.4633,66.8463
84.2345,66.7655
84.2345,66.7655
83.9953,66.7245
83.9953,66.7245
82.6154,66.7245
82.6154,66.7245
82.4342,66.7399
82.4342,66.7399
82.1994,66.8011
82.1994,66.8011
81.9783,66.9010
81.9783,66.9010
81.7772,67.0369
81.7772,67.0369
81.6957,67.1150
81.6337,67.1472
81.6099,67.1495
72.4475,67.1495
72.3805,67.1298
72.3682,67.1202
72.3680,67.1204
72.1751,66.9647
71.9633,66.8463
71.7345,66.7655
71.7345,66.7655
71.4953,66.7245
71.4953,66.7245
70.8158,66.7245
70.7487,66.7048
70.7281,66.6882
69.2126,65.1726
69.2104,65.1704
69.1501,65.1069
69.1501,65.1069
69.1501,65.1069
69.1016,65.0732
69.0941,65.0676
69.0484,65.0303
69.0484,65.0303
69.0214,65.0162
69.0080,65.0081
68.9830,64.9907
68.9830,64.9907
68.9830,64.9907
68.9830,64.9907
68.9288,64.9674
68.9203,64.9634
68.8681,64.9361
68.8680,64.9361
68.8388,64.9277
68.8240,64.9225
68.7961,64.9105
68.7383,64.8986
68.7291,64.8963
68.6724,64.8801
68.6487,64.8783
68.6421,64.8778
68.6265,64.8756
68.5967,64.8695
68.5967,64.8695
68.5378,64.8695
68.5283,64.8691
68.5256,64.8689
68.4695,64.8647
68.4393,64.8685
68.4237,64.8695
52.0293,64.8695
52.0261,64.8695
51.9386,64.8672
51.9386,64.8672
51.8806,64.8776
51.8713,64.8790
51.8126,64.8849
51.8126,64.8849
51.7835,64.8940
51.7683,64.8978
51.7383,64.9031
51.6836,64.9250
51.6747,64.9282
51.6184,64.9458
51.6184,64.9458
51.5918,64.9606
51.5776,64.9673
51.5494,64.9786
51.5001,65.0111
51.4921,65.0160
51.4405,65.0446
51.4405,65.0446
51.4174,65.0644
51.4049,65.0739
51.3795,65.0906
51.3795,65.0906
51.3378,65.1323
51.3309,65.1387
51.2861,65.1771
51.2861,65.1771
51.2675,65.2012
51.2571,65.2130
45.2226,71.2474
45.2204,71.2496
45.1569,71.3099
45.1232,71.3584
45.1176,71.3659
45.0803,71.4116
45.0803,71.4116
45.0662,71.4386
45.0581,71.4520
45.0407,71.4770
45.0174,71.5312
45.0134,71.5397
44.9861,71.5920
44.9861,71.5920
44.9777,71.6212
44.9725,71.6360
44.9605,71.6639
44.9549,71.6911
44.9491,71.7190
44.9486,71.7217
44.9463,71.7309
44.9301,71.7876
44.9301,71.7876
44.9280,71.8153
44.9278,71.8179
44.9256,71.8335
44.9195,71.8633
44.9195,71.9222
44.9191,71.9317
44.9147,71.9905
44.9185,72.0206
44.9195,72.0363
44.9195,75.2042
44.8998,75.2713
44.8832,75.2919
44.8815,75.2936
44.7516,75.4792
44.6970,75.5228
44.6275,75.5300
44.5651,75.4985
44.5484,75.4792
44.4185,75.2936
44.2514,75.1265
44.2514,75.1265
44.0578,74.9910
44.0578,74.9910
44.0578,74.9910
43.8437,74.8911
43.8437,74.8911
43.8437,74.8911
43.6154,74.8299
43.6154,74.8299
43.3800,74.8093
43.3800,74.8093
43.1446,74.8299
43.1446,74.8299
42.9163,74.8911
42.9163,74.8911
42.7022,74.9910
42.7022,74.9910
42.5086,75.1265
42.3415,75.2936
42.2116,75.4792
42.1570,75.5228
42.0875,75.5300
42.0251,75.4985
42.0084,75.4792
41.8785,75.2936
41.8768,75.2919
41.8763,75.2910
41.8750,75.2894
41.8753,75.2892
41.8433,75.2306
41.8405,75.2042
41.8405,74.0508
41.8602,73.9837
41.8768,73.9631
45.4174,70.4225
45.4196,70.4204
45.4831,70.3601
45.5168,70.3116
45.5224,70.3041
45.5597,70.2584
45.5738,70.2314
45.5819,70.2180
45.5993,70.1930
45.6226,70.1388
45.6266,70.1304
45.6539,70.0780
45.6623,70.0488
45.6675,70.0340
45.6795,70.0061
45.6914,69.9483
45.6936,69.9392
45.7099,69.8824
45.7122,69.8521
45.7144,69.8365
45.7205,69.8067
45.7205,69.7478
45.7209,69.7383
45.7253,69.6795
45.7215,69.6493
45.7205,69.6337
45.7205,66.2708
45.7402,66.2037
45.7568,66.1831
48.1524,63.7875
48.1546,63.7854
48.2181,63.7251
48.2518,63.6766
48.2574,63.6691
48.2947,63.6234
48.3088,63.5964
48.3169,63.5830
48.3343,63.5581
48.3343,63.5580
48.3576,63.5038
48.3616,63.4954
48.3889,63.4430
48.3973,63.4138
48.4025,63.3990
48.4145,63.3711
48.4145,63.3711
48.4264,63.3132
48.4286,63.3042
48.4449,63.2474
48.4472,63.2171
48.4494,63.2015
48.4555,63.1717
48.4555,63.1128
48.4559,63.1033
48.4603,63.0445
48.4565,63.0143
48.4555,62.9987
48.4555,62.9000
51.2714,62.9000
51.2714,62.9000
52.6743,62.9000
52.6519,62.9475
52.6211,63.1089
52.6314,63.2728
52.6728,63.4000
51.2722,63.4000
51.3085,63.5688
51.3085,63.5688
51.3990,63.7939
51.5262,64.0004
51.6864,64.1825
51.6864,64.1825
51.8751,64.3349
51.8751,64.3349
52.0869,64.4532
52.3156,64.5340
52.3156,64.5340
52.5547,64.5750
52.5547,64.5750
53.0250,64.5750
53.0250,63.7543
53.0338,63.7592
53.1929,63.8000
53.3159,63.8000
53.4379,63.7846
53.5250,63.7501
53.5250,64.5750
53.9345,64.5750
53.9345,64.5750
54.1157,64.5596
54.3504,64.4985
54.5715,64.3985
54.5715,64.3985
54.7724,64.2627
54.7725,64.2627
54.9476,64.0949
54.9476,64.0949
55.0918,63.8998
55.2010,63.6832
55.2721,63.4513
55.2786,63.4000
53.8757,63.4000
53.8981,63.3525
53.9147,63.2655
56.0297,63.2655
56.0554,63.4673
56.0554,63.4673
56.1212,63.6599
56.1212,63.6599
56.2244,63.8352
56.2244,63.8352
56.3608,63.9862
56.5248,64.1066
56.5248,64.1067
56.6899,64.1825
56.7097,64.1916
56.7755,64.2069
56.9079,64.2376
57.1114,64.2428
57.1114,64.2428
57.1114,64.2428
57.2909,64.2106
57.3116,64.2069
57.3116,64.2069
57.3117,64.2069
57.5006,64.1314
57.5560,64.0949
57.6705,64.0194
57.6705,64.0194
58.7899,62.9000
68.7714,62.9000
68.7714,62.9000
70.1743,62.9000
70.1519,62.9475
70.1211,63.1089
70.1314,63.2728
70.1728,63.4000
68.7722,63.4000
68.8085,63.5688
68.8085,63.5688
68.8990,63.7939
69.0262,64.0004
69.1864,64.1825
69.1864,64.1825
69.3751,64.3349
69.3751,64.3349
69.5869,64.4532
69.8156,64.5340
69.8156,64.5340
70.0547,64.5750
70.0547,64.5750
70.5250,64.5750
70.5250,63.7543
70.5338,63.7592
70.6929,63.8000
70.8159,63.8000
70.9379,63.7846
71.0250,63.7501
71.0250,64.5750
71.4345,64.5750
71.4346,64.5750
71.6157,64.5596
71.8504,64.4985
72.0715,64.3985
72.0715,64.3985
72.2724,64.2627
72.2725,64.2627
72.4476,64.0949
72.4476,64.0949
72.5918,63.8998
72.7010,63.6832
72.7721,63.4513
72.7786,63.4000
71.3757,63.4000
71.3981,63.3525
71.4289,63.1911
71.4186,63.0272
71.3772,62.9000
72.7778,62.9000
72.7778,62.9000
81.2714,62.9000
81.2714,62.9000
82.6743,62.9000
82.6519,62.9475
82.6211,63.1089
82.6314,63.2728
82.6728,63.4000
81.2722,63.4000
81.3085,63.5688
81.3085,63.5688
81.3990,63.7939
81.5262,64.0004
81.6864,64.1825
81.6864,64.1825
81.8751,64.3349
81.8751,64.3349
82.0869,64.4532
82.3156,64.5340
82.3156,64.5340
82.5547,64.5750
82.5547,64.5750
83.0250,64.5750
83.0250,63.7543
83.0338,63.7592
83.1929,63.8000
83.3159,63.8000
83.4379,63.7846
83.5250,63.7501
83.5250,64.5750
83.9345,64.5750
83.9346,64.5750
84.1157,64.5596
84.3504,64.4985
84.5715,64.3985
84.5715,64.3985
84.7724,64.2627
84.7725,64.2627
84.9476,64.0949
84.9476,64.0949
85.0918,63.8998
85.2010,63.6832
85.2721,63.4513
85.2786,63.4000
83.8757,63.4000
83.8981,63.3525
83.9289,63.1911
83.9186,63.0272
83.8772,62.9000
85.2778,62.9000
85.2415,62.7312
85.2415,62.7312
85.1510,62.5061
85.0238,62.2996
84.8636,62.1175
84.8636,62.1175
84.6749,61.9651
84.6748,61.9651
84.4631,61.8468
84.2344,61.7660
84.2344,61.7660
83.9953,61.7250
83.5250,61.7250
83.5250,62.5457
83.5162,62.5408
83.3571,62.5000
83.2341,62.5000
83.1121,62.5154
83.0250,62.5499
83.0250,61.7250
82.6154,61.7250
82.4343,61.7404
82.1996,61.8015
81.9785,61.9015
81.9785,61.9015
81.7775,62.0373
81.7775,62.0373
81.6024,62.2051
81.6024,62.2051
81.4582,62.4002
81.3490,62.6168
81.2779,62.8487
81.2714,62.9000
72.7778,62.9000
72.7415,62.7312
72.7415,62.7312
72.6510,62.5061
72.5238,62.2996
72.3636,62.1175
72.3636,62.1175
72.1749,61.9651
72.1748,61.9651
71.9631,61.8468
71.7344,61.7660
71.7344,61.7660
71.4953,61.7250
71.0250,61.7250
71.0250,62.5457
71.0162,62.5408
70.8571,62.5000
70.7341,62.5000
70.6121,62.5154
70.5250,62.5499
70.5250,61.7250
70.1154,61.7250
69.9343,61.7404
69.6996,61.8015
69.4785,61.9015
69.4785,61.9015
69.2775,62.0373
69.2775,62.0373
69.1024,62.2051
69.1024,62.2051
68.9582,62.4002
68.8490,62.6168
68.7779,62.8487
68.7714,62.9000
58.7899,62.9000
71.4724,50.2175
71.4746,50.2154
71.5381,50.1551
71.5717,50.1066
71.5774,50.0991
71.6147,50.0534
71.6288,50.0264
71.6369,50.0130
71.6543,49.9880
71.6776,49.9338
71.6816,49.9254
71.7089,49.8730
71.7173,49.8438
71.7225,49.8290
71.7345,49.8011
71.7464,49.7432
71.7486,49.7342
71.7649,49.6774
71.7672,49.6471
71.7694,49.6315
71.7755,49.6017
71.7755,49.5428
71.7759,49.5333
71.7803,49.4745
71.7765,49.4443
71.7755,49.4287
71.7755,44.6129
71.7952,44.5459
71.8480,44.5001
71.8484,44.4999
71.8506,44.4989
71.8506,44.4989
72.0717,44.3990
72.2728,44.2631
72.3543,44.1850
72.4163,44.1528
72.4401,44.1505
81.6025,44.1505
81.6695,44.1702
81.6818,44.1798
81.6820,44.1796
81.8749,44.3353
82.0867,44.4537
82.0867,44.4537
82.3155,44.5345
82.3155,44.5345
82.5547,44.5755
82.5547,44.5755
82.5547,44.5755
82.5547,44.5755
83.9346,44.5755
83.9346,44.5755
83.9346,44.5755
83.9346,44.5755
84.1158,44.5601
84.1158,44.5601
84.1158,44.5601
84.3506,44.4989
84.3506,44.4989
84.5717,44.3990
84.5717,44.3990
84.5717,44.3990
84.7728,44.2631
84.9480,44.0952
85.0922,43.9001
85.2015,43.6834
85.2725,43.4514
85.3034,43.2107
85.2931,42.9683
85.2419,42.7311
85.1515,42.5059
85.0242,42.2993
84.8639,42.1171
84.8639,42.1171
84.8639,42.1171
84.6751,41.9647
84.4633,41.8463
84.2345,41.7655
84.2345,41.7655
83.9953,41.7245
83.9953,41.7245
82.6154,41.7245
82.6154,41.7245
82.4342,41.7399
82.4342,41.7399
82.1994,41.8011
82.1994,41.8011
81.9783,41.9010
81.9783,41.9010
81.7772,42.0369
81.7772,42.0369
81.6957,42.1150
81.6337,42.1472
81.6099,42.1495
72.4475,42.1495
72.3805,42.1298
72.3682,42.1202
72.3680,42.1204
72.1751,41.9647
71.9633,41.8463
71.7345,41.7655
71.7345,41.7655
71.4953,41.7245
71.4953,41.7245
70.1154,41.7245
70.1154,41.7245
69.9342,41.7399
69.9342,41.7399
69.6994,41.8011
69.6994,41.8011
69.4783,41.9010
69.4783,41.9010
69.2772,42.0369
69.2772,42.0369
69.1020,42.2048
69.1020,42.2048
68.9578,42.3999
68.8485,42.6166
68.8485,42.6166
68.7775,42.8486
68.7466,43.0893
68.7569,43.3317
68.7569,43.3317
68.8081,43.5689
68.8081,43.5689
68.8985,43.7941
69.0258,44.0007
69.1861,44.1829
69.1861,44.1829
69.3749,44.3353
69.5867,44.4537
69.6377,44.4717
69.6918,44.4908
69.7485,44.5317
69.7740,44.5967
69.7745,44.6077
69.7745,49.0342
69.7548,49.1013
69.7382,49.1219
56.2917,62.5684
56.2069,62.6724
56.1953,62.6866
56.1106,62.8487
56.1011,62.8670
56.0451,63.0626
56.0297,63.2655
56.0297,63.2655
53.9147,63.2655
53.9289,63.1911
53.9186,63.0272
53.8772,62.9000
55.2778,62.9000
55.2415,62.7312
55.2415,62.7312
55.1510,62.5061
55.0238,62.2996
54.8636,62.1175
54.8636,62.1175
54.6749,61.9651
54.6748,61.9651
54.4631,61.8468
54.2344,61.7660
54.2344,61.7660
53.9953,61.7250
53.5250,61.7250
53.5250,62.5457
53.5162,62.5408
53.3571,62.5000
53.2341,62.5000
53.1121,62.5154
53.0250,62.5499
53.0250,61.7250
52.6154,61.7250
52.4343,61.7404
52.1996,61.8015
51.9785,61.9015
51.9785,61.9015
51.7775,62.0373
51.7775,62.0373
51.6024,62.2051
51.6024,62.2051
51.4582,62.4002
51.3490,62.6168
51.2779,62.8487
51.2714,62.9000
48.4555,62.9000
48.4555,57.3442
48.4555,57.3411
48.4556,57.3395
48.4578,57.2536
48.4473,57.1956
48.4460,57.1863
48.4401,57.1276
48.4401,57.1276
48.4310,57.0985
48.4272,57.0833
48.4219,57.0533
48.4219,57.0533
48.4000,56.9986
48.3968,56.9897
48.3792,56.9334
48.3792,56.9334
48.3792,56.9334
48.3644,56.9068
48.3577,56.8926
48.3464,56.8644
48.3464,56.8644
48.3139,56.8151
48.3090,56.8071
48.2804,56.7555
48.2606,56.7324
48.2511,56.7199
48.2344,56.6945
48.1927,56.6528
48.1863,56.6459
48.1479,56.6011
48.1238,56.5825
48.1120,56.5721
45.8918,54.3519
45.8583,54.2906
45.8555,54.2642
45.8555,52.7160
45.8752,52.6490
45.9280,52.6032
45.9971,52.5933
46.0044,52.5946
46.0254,52.5989
46.0333,52.6005
46.0333,52.6005
46.0922,52.6005
46.1017,52.6009
46.1100,52.6015
46.1605,52.6053
46.1605,52.6053
46.1605,52.6053
46.1907,52.6015
46.2063,52.6005
54.3807,52.6005
54.3839,52.6005
54.4714,52.6028
54.4714,52.6028
54.4714,52.6028
54.5294,52.5923
54.5388,52.5910
54.5974,52.5851
54.6265,52.5760
54.6417,52.5722
54.6717,52.5669
54.6717,52.5669
54.6717,52.5669
54.7264,52.5450
54.7353,52.5418
54.7916,52.5242
54.8182,52.5094
54.8324,52.5027
54.8606,52.4914
54.9099,52.4589
54.9179,52.4540
54.9695,52.4254
54.9695,52.4254
54.9695,52.4254
54.9926,52.4056
55.0051,52.3961
55.0305,52.3794
55.0722,52.3377
55.0791,52.3313
55.1239,52.2929
55.1425,52.2688
55.1529,52.2570
58.3931,49.0168
58.4544,48.9833
58.4808,48.9805
66.9657,48.9805
67.1174,48.9651
67.3116,48.9042
67.3116,48.9042
67.3116,48.9042
67.4895,48.8054
67.6439,48.6729
67.7684,48.5120
67.8581,48.3293
67.9091,48.1323
67.9194,47.9291
67.8886,47.7279
67.8179,47.5371
67.7103,47.3644
67.5701,47.2169
67.4716,47.1484
67.4030,47.1007
67.2161,47.0205
67.0167,46.9795
58.0293,46.9795
58.0261,46.9795
58.0249,46.9794
57.9386,46.9772
57.9386,46.9772
57.8806,46.9876
57.8713,46.9890
57.8126,46.9949
57.8126,46.9949
57.7835,47.0040
57.7683,47.0078
57.7383,47.0131
57.7383,47.0131
57.6836,47.0350
57.6747,47.0382
57.6184,47.0558
57.6184,47.0558
57.5918,47.0706
57.5776,47.0773
57.5494,47.0886
57.5494,47.0886
57.5001,47.1211
57.4921,47.1260
57.4405,47.1546
57.4174,47.1744
57.4049,47.1839
57.3795,47.2006
57.3795,47.2006
57.3378,47.2423
57.3309,47.2487
57.2861,47.2871
57.2675,47.3112
57.2571,47.3230
54.0169,50.5632
53.9556,50.5967
53.9292,50.5995
46.4842,50.5995
46.4343,50.5873
46.4339,50.5884
46.4281,50.5861
46.4241,50.5850
46.2324,50.5301
46.2324,50.5301
46.2324,50.5301
46.0726,50.5179
46.0295,50.5147
46.0295,50.5147
46.0295,50.5147
45.9952,50.5190
45.9262,50.5080
45.8741,50.4614
45.8555,50.3960
45.8555,49.8058
45.8752,49.7387
45.8918,49.7181
49.2024,46.4075
49.2046,46.4054
49.2681,46.3451
49.3018,46.2966
49.3074,46.2891
49.3447,46.2434
49.3588,46.2164
49.3669,46.2030
49.3843,46.1780
49.4076,46.1238
49.4116,46.1153
49.4389,46.0630
49.4473,46.0338
49.4525,46.0190
49.4645,45.9911
49.4764,45.9333
49.4786,45.9242
49.4949,45.8674
49.4972,45.8371
49.4994,45.8215
49.5055,45.7917
49.5055,45.7328
49.5059,45.7233
49.5103,45.6645
49.5065,45.6343
49.5055,45.6187
49.5055,43.0893
51.2466,43.0893
51.2569,43.3317
51.2569,43.3317
51.3081,43.5689
51.3081,43.5689
51.3985,43.7941
51.5258,44.0007
51.6861,44.1829
51.6861,44.1829
51.8749,44.3353
52.0867,44.4537
52.0867,44.4537
52.3155,44.5345
52.3155,44.5345
52.5547,44.5755
52.5547,44.5755
52.5547,44.5755
52.5547,44.5755
53.9346,44.5755
53.9346,44.5755
53.9346,44.5755
53.9346,44.5755
54.1158,44.5601
54.1158,44.5601
54.1158,44.5601
54.3506,44.4989
54.3506,44.4989
54.5717,44.3990
54.5717,44.3990
54.5717,44.3990
54.7728,44.2631
54.8543,44.1850
54.9163,44.1528
54.9401,44.1505
62.6892,44.1505
62.7563,44.1702
62.7769,44.1868
63.1868,44.5967
63.5834,44.9933
63.7016,45.0897
63.8820,45.1839
64.0776,45.2399
64.1452,45.2450
64.2805,45.2553
64.2805,45.2553
64.2805,45.2553
64.4823,45.2296
64.4823,45.2296
64.4823,45.2296
64.6749,45.1638
64.8502,45.0606
65.0012,44.9242
65.1216,44.7602
65.2066,44.5753
65.2526,44.3771
65.2578,44.1736
65.2219,43.9733
65.1464,43.7844
65.1464,43.7844
65.1464,43.7844
65.0344,43.6145
65.0344,43.6145
63.8726,42.4526
63.8704,42.4504
63.8101,42.3869
63.8101,42.3869
63.8101,42.3869
63.7616,42.3532
63.7541,42.3476
63.7084,42.3103
63.7084,42.3103
63.6814,42.2962
63.6680,42.2881
63.6430,42.2707
63.6430,42.2707
63.6430,42.2707
63.6430,42.2707
63.5888,42.2474
63.5803,42.2434
63.5281,42.2161
63.5280,42.2161
63.4988,42.2077
63.4840,42.2025
63.4561,42.1905
63.3983,42.1786
63.3891,42.1763
63.3324,42.1601
63.3087,42.1583
63.3021,42.1578
63.2865,42.1556
63.2567,42.1495
63.2567,42.1495
63.1978,42.1495
63.1883,42.1491
63.1856,42.1489
63.1295,42.1447
63.0993,42.1485
63.0837,42.1495
54.9475,42.1495
54.8805,42.1298
54.8682,42.1202
54.8680,42.1204
54.6751,41.9647
54.4633,41.8463
54.2345,41.7655
54.2345,41.7655
53.9953,41.7245
53.9953,41.7245
52.6154,41.7245
52.6154,41.7245
52.4342,41.7399
52.4342,41.7399
52.1994,41.8011
52.1994,41.8011
51.9783,41.9010
51.9783,41.9010
51.7772,42.0369
51.7772,42.0369
51.6020,42.2048
51.6020,42.2048
51.4578,42.3999
51.3485,42.6166
51.3485,42.6166
51.2775,42.8486
51.2466,43.0893
49.5055,43.0893
49.5055,37.9000
51.2714,37.9000
51.2714,37.9000
52.6743,37.9000
52.6519,37.9475
52.6211,38.1089
52.6314,38.2728
52.6728,38.4000
51.2722,38.4000
51.3085,38.5688
51.3085,38.5688
51.3990,38.7939
51.5262,39.0004
51.6864,39.1825
51.6864,39.1825
51.8751,39.3349
51.8751,39.3349
52.0869,39.4532
52.3156,39.5340
52.3156,39.5340
52.5547,39.5750
52.5547,39.5750
53.0250,39.5750
53.0250,38.7543
53.0338,38.7592
53.1929,38.8000
53.3159,38.8000
53.4379,38.7846
53.5250,38.7501
53.5250,39.5750
53.9345,39.5750
53.9345,39.5750
54.1157,39.5596
54.3504,39.4985
54.5715,39.3985
54.5715,39.3985
54.7724,39.2627
54.7725,39.2627
54.9476,39.0949
54.9476,39.0949
55.0918,38.8998
55.2010,38.6832
55.2721,38.4513
55.2786,38.4000
53.8757,38.4000
53.8981,38.3525
53.9289,38.1911
53.9186,38.0272
53.8772,37.9000
55.2778,37.9000
55.2778,37.9000
68.7714,37.9000
68.7714,37.9000
70.1743,37.9000
70.1519,37.9475
70.1211,38.1089
70.1314,38.2728
70.1728,38.4000
68.7722,38.4000
68.8085,38.5688
68.8085,38.5688
68.8990,38.7939
69.0262,39.0004
69.1864,39.1825
69.1864,39.1825
69.3751,39.3349
69.3751,39.3349
69.5869,39.4532
69.8156,39.5340
69.8156,39.5340
70.0547,39.5750
70.0547,39.5750
70.5250,39.5750
70.5250,38.7543
70.5338,38.7592
70.6929,38.8000
70.8159,38.8000
70.9379,38.7846
71.0250,38.7501
71.0250,39.5750
71.4345,39.5750
71.4346,39.5750
71.6157,39.5596
71.8504,39.4985
72.0715,39.3985
72.0715,39.3985
72.2724,39.2627
72.2725,39.2627
72.4476,39.0949
72.4476,39.0949
72.5918,38.8998
72.7010,38.6832
72.7721,38.4513
72.7786,38.4000
71.3757,38.4000
71.3981,38.3525
71.4289,38.1911
71.4186,38.0272
71.3772,37.9000
72.7778,37.9000
72.7778,37.9000
81.2714,37.9000
81.2714,37.9000
82.6743,37.9000
82.6519,37.9475
82.6211,38.1089
82.6314,38.2728
82.6728,38.4000
81.2722,38.4000
81.3085,38.5688
81.3085,38.5688
81.3990,38.7939
81.5262,39.0004
81.6864,39.1825
81.6864,39.1825
81.8751,39.3349
81.8751,39.3349
82.0869,39.4532
82.3156,39.5340
82.3156,39.5340
82.5547,39.5750
82.5547,39.5750
83.0250,39.5750
83.0250,38.7543
83.0338,38.7592
83.1929,38.8000
83.3159,38.8000
83.4379,38.7846
83.5250,38.7501
83.5250,39.5750
83.9345,39.5750
83.9346,39.5750
84.1157,39.5596
84.3504,39.4985
84.5715,39.3985
84.5715,39.3985
84.7724,39.2627
84.7725,39.2627
84.9476,39.0949
84.9476,39.0949
85.0918,38.8998
85.2010,38.6832
85.2721,38.4513
85.2786,38.4000
83.8757,38.4000
83.8981,38.3525
83.9289,38.1911
83.9186,38.0272
83.8772,37.9000
85.2778,37.9000
85.2415,37.7312
85.2415,37.7312
85.1510,37.5061
85.0238,37.2996
84.8636,37.1175
84.8636,37.1175
84.6749,36.9651
84.6748,36.9651
84.4631,36.8468
84.2344,36.7660
84.2344,36.7660
83.9953,36.7250
83.5250,36.7250
83.5250,37.5457
83.5162,37.5408
83.3571,37.5000
83.2341,37.5000
83.1121,37.5154
83.0250,37.5499
83.0250,36.7250
82.6154,36.7250
82.4343,36.7404
82.1996,36.8015
81.9785,36.9015
81.9785,36.9015
81.7775,37.0373
81.7775,37.0373
81.6024,37.2051
81.6024,37.2051
81.4582,37.4002
81.3490,37.6168
81.2779,37.8487
81.2714,37.9000
72.7778,37.9000
72.7415,37.7312
72.7415,37.7312
72.6510,37.5061
72.5238,37.2996
72.3636,37.1175
72.3636,37.1175
72.1749,36.9651
72.1748,36.9651
71.9631,36.8468
71.7344,36.7660
71.7344,36.7660
71.4953,36.7250
71.0250,36.7250
71.0250,37.5457
71.0162,37.5408
70.8571,37.5000
70.7341,37.5000
70.6121,37.5154
70.5250,37.5499
70.5250,36.7250
70.1154,36.7250
69.9343,36.7404
69.6996,36.8015
69.4785,36.9015
69.4785,36.9015
69.2775,37.0373
69.2775,37.0373
69.1024,37.2051
69.1024,37.2051
68.9582,37.4002
68.8490,37.6168
68.7779,37.8487
68.7714,37.9000
55.2778,37.9000
55.2415,37.7312
55.2415,37.7312
55.1510,37.5061
55.0238,37.2996
54.8636,37.1175
54.8636,37.1175
54.6749,36.9651
54.6748,36.9651
54.4631,36.8468
54.2344,36.7660
54.2344,36.7660
53.9953,36.7250
53.5250,36.7250
53.5250,37.5457
53.5162,37.5408
53.3571,37.5000
53.2341,37.5000
53.1121,37.5154
53.0250,37.5499
53.0250,36.7250
52.6154,36.7250
52.4343,36.7404
52.1996,36.8015
51.9785,36.9015
51.9785,36.9015
51.7775,37.0373
51.7775,37.0373
51.6024,37.2051
51.6024,37.2051
51.4582,37.4002
51.3490,37.6168
51.2779,37.8487
51.2714,37.9000
49.5055,37.9000
49.5055,35.9443
49.5055,35.9411
49.5078,35.8536
49.5078,35.8536
49.5078,35.8536
49.4973,35.7956
49.4960,35.7862
49.4901,35.7276
49.4810,35.6985
49.4772,35.6833
49.4719,35.6533
49.4500,35.5986
49.4468,35.5897
49.4292,35.5334
49.4292,35.5334
49.4292,35.5334
49.4144,35.5068
49.4077,35.4926
49.3964,35.4644
49.3964,35.4644
49.3639,35.4151
49.3590,35.4071
49.3304,35.3555
49.3106,35.3324
49.3011,35.3199
49.2844,35.2945
49.2427,35.2528
49.2363,35.2459
49.1979,35.2011
49.1738,35.1825
49.1620,35.1721
32.0792,18.0893
38.7466,18.0893
38.7569,18.3317
38.7569,18.3317
38.8081,18.5689
38.8081,18.5689
38.8985,18.7941
39.0258,19.0007
39.1861,19.1829
39.1861,19.1829
39.3749,19.3353
39.5867,19.4537
39.5867,19.4537
39.8155,19.5345
39.8155,19.5345
40.0547,19.5755
40.0547,19.5755
40.0547,19.5755
40.0547,19.5755
41.4346,19.5755
41.4346,19.5755
41.4346,19.5755
41.4346,19.5755
41.6158,19.5601
41.6158,19.5601
41.6158,19.5601
41.8506,19.4989
41.8506,19.4989
42.0717,19.3990
42.0717,19.3990
42.0717,19.3990
42.2728,19.2631
42.3543,19.1850
42.4163,19.1528
42.4401,19.1505
51.6025,19.1505
51.6695,19.1702
51.6818,19.1798
51.6820,19.1796
51.8749,19.3353
52.0867,19.4537
52.0867,19.4537
52.3155,19.5345
52.3155,19.5345
52.5547,19.5755
52.5547,19.5755
52.5547,19.5755
53.2342,19.5755
53.3013,19.5952
53.3219,19.6118
61.2434,27.5333
61.3616,27.6297
61.5420,27.7239
61.7376,27.7799
61.9261,27.7942
61.9405,27.7953
61.9405,27.7953
62.1423,27.7696
62.1423,27.7696
62.1423,27.7696
62.3349,27.7038
62.5102,27.6006
62.6612,27.4642
62.7816,27.3002
62.8666,27.1153
62.9021,26.9621
62.9126,26.9171
62.9146,26.8398
62.9178,26.7136
62.8819,26.5133
62.8064,26.3244
62.8064,26.3244
62.8064,26.3244
62.6944,26.1545
62.6944,26.1545
55.2593,18.7194
55.2258,18.6581
55.2284,18.5954
55.2725,18.4514
55.3034,18.2107
55.2982,18.0893
68.7466,18.0893
68.7569,18.3317
68.7569,18.3317
68.8081,18.5689
68.8081,18.5689
68.8985,18.7941
69.0258,19.0007
69.1861,19.1829
69.1861,19.1829
69.3749,19.3353
69.5867,19.4537
69.5867,19.4537
69.8155,19.5345
69.8155,19.5345
70.0547,19.5755
70.0547,19.5755
70.0547,19.5755
70.0547,19.5755
71.4346,19.5755
71.4346,19.5755
71.4346,19.5755
71.4346,19.5755
71.6158,19.5601
71.6158,19.5601
71.6158,19.5601
71.8506,19.4989
71.8506,19.4989
72.0717,19.3990
72.0717,19.3990
72.0717,19.3990
72.2728,19.2631
72.3543,19.1850
72.4163,19.1528
72.4401,19.1505
81.6025,19.1505
81.6695,19.1702
81.6818,19.1798
81.6820,19.1796
81.8749,19.3353
82.0867,19.4537
82.0867,19.4537
82.3155,19.5345
82.3155,19.5345
82.5547,19.5755
82.5547,19.5755
82.5547,19.5755
82.5547,19.5755
83.9346,19.5755
83.9346,19.5755
83.9346,19.5755
83.9346,19.5755
84.1158,19.5601
84.1158,19.5601
84.1158,19.5601
84.3506,19.4989
84.3506,19.4989
84.5717,19.3990
84.5717,19.3990
84.5717,19.3990
84.7728,19.2631
84.9480,19.0952
85.0922,18.9001
85.2015,18.6834
85.2725,18.4514
85.3034,18.2107
85.2931,17.9683
85.2419,17.7311
85.1515,17.5059
85.0242,17.2993
84.8639,17.1171
84.8639,17.1171
84.8639,17.1171
84.6751,16.9647
84.4633,16.8463
84.2345,16.7655
84.2345,16.7655
83.9953,16.7245
83.9953,16.7245
82.6154,16.7245
82.6154,16.7245
82.4342,16.7399
82.4342,16.7399
82.1994,16.8011
82.1994,16.8011
81.9783,16.9010
81.9783,16.9010
81.7772,17.0369
81.7772,17.0369
81.6957,17.1150
81.6337,17.1472
81.6099,17.1495
72.4475,17.1495
72.3805,17.1298
72.3682,17.1202
72.3680,17.1204
72.1751,16.9647
71.9633,16.8463
71.7345,16.7655
71.7345,16.7655
71.4953,16.7245
71.4953,16.7245
70.1154,16.7245
70.1154,16.7245
69.9342,16.7399
69.9342,16.7399
69.6994,16.8011
69.6994,16.8011
69.4783,16.9010
69.4783,16.9010
69.2772,17.0369
69.2772,17.0369
69.1020,17.2048
69.1020,17.2048
68.9578,17.3999
68.8485,17.6166
68.8485,17.6166
68.7775,17.8486
68.7466,18.0893
55.2982,18.0893
55.2931,17.9683
55.2419,17.7311
55.1515,17.5059
55.0242,17.2993
54.8639,17.1171
54.8639,17.1171
54.8639,17.1171
54.6751,16.9647
54.4633,16.8463
54.2345,16.7655
54.2345,16.7655
53.9953,16.7245
53.9953,16.7245
52.6154,16.7245
52.6154,16.7245
52.4342,16.7399
52.4342,16.7399
52.1994,16.8011
52.1994,16.8011
51.9783,16.9010
51.9783,16.9010
51.7772,17.0369
51.7772,17.0369
51.6957,17.1150
51.6337,17.1472
51.6099,17.1495
42.4475,17.1495
42.3805,17.1298
42.3682,17.1202
42.3680,17.1204
42.1751,16.9647
41.9633,16.8463
41.7345,16.7655
41.7345,16.7655
41.4953,16.7245
41.4953,16.7245
40.1154,16.7245
40.1154,16.7245
39.9342,16.7399
39.9342,16.7399
39.6994,16.8011
39.6994,16.8011
39.4783,16.9010
39.4783,16.9010
39.2772,17.0369
39.2772,17.0369
39.1020,17.2048
39.1020,17.2048
38.9578,17.3999
38.8485,17.6166
38.8485,17.6166
38.7775,17.8486
38.7466,18.0893
32.0792,18.0893
31.4426,17.4526
31.4404,17.4504
31.3801,17.3869
31.3801,17.3869
31.3801,17.3869
31.3316,17.3532
31.3241,17.3476
31.2784,17.3103
31.2784,17.3103
31.2514,17.2962
31.2380,17.2881
31.2130,17.2707
31.2130,17.2707
31.2130,17.2707
31.2130,17.2707
31.1588,17.2474
31.1503,17.2434
31.0981,17.2161
31.0980,17.2161
31.0688,17.2077
31.0540,17.2025
31.0261,17.1905
30.9683,17.1786
30.9591,17.1763
30.9024,17.1601
30.8787,17.1583
30.8721,17.1578
30.8565,17.1556
30.8267,17.1495
30.8267,17.1495
30.7678,17.1495
30.7583,17.1491
30.7556,17.1489
30.6995,17.1447
30.6693,17.1485
30.6537,17.1495
24.9475,17.1495
24.8805,17.1298
24.8682,17.1202
24.8680,17.1204
24.6751,16.9647
24.4633,16.8463
24.2345,16.7655
24.2345,16.7655
23.9953,16.7245
23.9953,16.7245
22.6154,16.7245
22.6154,16.7245
22.4342,16.7399
22.4342,16.7399
22.1994,16.8011
22.1994,16.8011
21.9783,16.9010
21.9783,16.9010
21.7772,17.0369
21.7772,17.0369
21.6957,17.1150
21.6337,17.1472
21.6099,17.1495
12.4475,17.1495
12.3805,17.1298
12.3682,17.1202
12.3680,17.1204
12.1751,16.9647
11.9633,16.8463
11.7345,16.7655
11.7345,16.7655
11.4953,16.7245
11.4953,16.7245
10.1154,16.7245
10.1154,16.7245
9.9342,16.7399
9.9342,16.7399
9.6994,16.8011
9.6994,16.8011
9.4783,16.9010
9.4783,16.9010
9.2772,17.0369
9.2772,17.0369
9.1020,17.2048
9.1020,17.2048
8.9578,17.3999
8.8485,17.6166
8.8485,17.6166
8.7775,17.8486
8.7466,18.0893
3.8755,18.0893
3.8755,12.9000
8.7714,12.9000
8.7714,12.9000
10.1743,12.9000
10.1519,12.9475
10.1211,13.1089
10.1314,13.2728
10.1728,13.4000
8.7722,13.4000
8.8085,13.5688
8.8085,13.5688
8.8990,13.7939
9.0262,14.0004
9.1864,14.1825
9.1864,14.1825
9.3751,14.3349
9.3751,14.3349
9.5869,14.4532
9.8156,14.5340
9.8156,14.5340
10.0547,14.5750
10.0547,14.5750
10.5250,14.5750
10.5250,13.7543
10.5338,13.7592
10.6929,13.8000
10.8159,13.8000
10.9379,13.7846
11.0250,13.7501
11.0250,14.5750
11.4345,14.5750
11.4345,14.5750
11.6157,14.5596
11.8504,14.4985
12.0715,14.3985
12.0715,14.3985
12.2724,14.2627
12.2725,14.2627
12.4476,14.0949
12.4476,14.0949
12.5918,13.8998
12.7010,13.6832
12.7721,13.4513
12.7786,13.4000
11.3757,13.4000
11.3981,13.3525
11.4289,13.1911
11.4186,13.0272
11.3772,12.9000
12.7778,12.9000
12.7778,12.9000
21.2714,12.9000
21.2714,12.9000
22.6743,12.9000
22.6519,12.9475
22.6211,13.1089
22.6314,13.2728
22.6728,13.4000
21.2722,13.4000
21.3085,13.5688
21.3085,13.5688
21.3990,13.7939
21.5262,14.0004
21.6864,14.1825
21.6864,14.1825
21.8751,14.3349
21.8751,14.3349
22.0869,14.4532
22.3156,14.5340
22.3156,14.5340
22.5547,14.5750
22.5547,14.5750
23.0250,14.5750
23.0250,13.7543
23.0338,13.7592
23.1929,13.8000
23.3159,13.8000
23.4379,13.7846
23.5250,13.7501
23.5250,14.5750
23.9345,14.5750
23.9345,14.5750
24.1157,14.5596
24.3504,14.4985
24.5715,14.3985
24.5715,14.3985
24.7724,14.2627
24.7725,14.2627
24.9476,14.0949
24.9476,14.0949
25.0918,13.8998
25.2010,13.6832
25.2721,13.4513
25.2786,13.4000
23.8757,13.4000
23.8981,13.3525
23.9289,13.1911
23.9186,13.0272
23.8772,12.9000
25.2778,12.9000
25.2778,12.9000
38.7714,12.9000
38.7714,12.9000
40.1743,12.9000
40.1519,12.9475
40.1211,13.1089
40.1314,13.2728
40.1728,13.4000
38.7722,13.4000
38.8085,13.5688
38.8085,13.5688
38.8990,13.7939
39.0262,14.0004
39.1864,14.1825
39.1864,14.1825
39.3751,14.3349
39.3751,14.3349
39.5869,14.4532
39.8156,14.5340
39.8156,14.5340
40.0547,14.5750
40.0547,14.5750
40.5250,14.5750
40.5250,13.7543
40.5338,13.7592
40.6929,13.8000
40.8159,13.8000
40.9379,13.7846
41.0250,13.7501
41.0250,14.5750
41.4345,14.5750
41.4346,14.5750
41.6157,14.5596
41.8504,14.4985
42.0715,14.3985
42.0715,14.3985
42.2724,14.2627
42.2725,14.2627
42.4476,14.0949
42.4476,14.0949
42.5918,13.8998
42.7010,13.6832
42.7721,13.4513
42.7786,13.4000
41.3757,13.4000
41.3981,13.3525
41.4289,13.1911
41.4186,13.0272
41.3772,12.9000
42.7778,12.9000
42.7778,12.9000
51.2714,12.9000
51.2714,12.9000
52.6743,12.9000
52.6519,12.9475
52.6211,13.1089
52.6314,13.2728
52.6728,13.4000
51.2722,13.4000
51.3085,13.5688
51.3085,13.5688
51.3990,13.7939
51.5262,14.0004
51.6864,14.1825
51.6864,14.1825
51.8751,14.3349
51.8751,14.3349
52.0869,14.4532
52.3156,14.5340
52.3156,14.5340
52.5547,14.5750
52.5547,14.5750
53.0250,14.5750
53.0250,13.7543
53.0338,13.7592
53.1929,13.8000
53.3159,13.8000
53.4379,13.7846
53.5250,13.7501
53.5250,14.5750
53.9345,14.5750
53.9345,14.5750
54.1157,14.5596
54.3504,14.4985
54.5715,14.3985
54.5715,14.3985
54.7724,14.2627
54.7725,14.2627
54.9476,14.0949
54.9476,14.0949
55.0918,13.8998
55.2010,13.6832
55.2721,13.4513
55.2786,13.4000
53.8757,13.4000
53.8981,13.3525
53.9289,13.1911
53.9186,13.0272
53.8772,12.9000
55.2778,12.9000
55.2778,12.9000
68.7714,12.9000
68.7714,12.9000
70.1743,12.9000
70.1519,12.9475
70.1211,13.1089
70.1314,13.2728
70.1728,13.4000
68.7722,13.4000
68.8085,13.5688
68.8085,13.5688
68.8990,13.7939
69.0262,14.0004
69.1864,14.1825
69.1864,14.1825
69.3751,14.3349
69.3751,14.3349
69.5869,14.4532
69.8156,14.5340
69.8156,14.5340
70.0547,14.5750
70.0547,14.5750
70.5250,14.5750
70.5250,13.7543
70.5338,13.7592
70.6929,13.8000
70.8159,13.8000
70.9379,13.7846
71.0250,13.7501
71.0250,14.5750
71.4345,14.5750
71.4346,14.5750
71.6157,14.5596
71.8504,14.4985
72.0715,14.3985
72.0715,14.3985
72.2724,14.2627
72.2725,14.2627
72.4476,14.0949
72.4476,14.0949
72.5918,13.8998
72.7010,13.6832
72.7721,13.4513
72.7786,13.4000
71.3757,13.4000
71.3981,13.3525
71.4289,13.1911
71.4186,13.0272
71.3772,12.9000
72.7778,12.9000
72.7778,12.9000
81.2714,12.9000
81.2714,12.9000
82.6743,12.9000
82.6519,12.9475
82.6211,13.1089
82.6314,13.2728
82.6728,13.4000
81.2722,13.4000
81.3085,13.5688
81.3085,13.5688
81.3990,13.7939
81.5262,14.0004
81.6864,14.1825
81.6864,14.1825
81.8751,14.3349
81.8751,14.3349
82.0869,14.4532
82.3156,14.5340
82.3156,14.5340
82.5547,14.5750
82.5547,14.5750
83.0250,14.5750
83.0250,13.7543
83.0338,13.7592
83.1929,13.8000
83.3159,13.8000
83.4379,13.7846
83.5250,13.7501
83.5250,14.5750
83.9345,14.5750
83.9346,14.5750
84.1157,14.5596
84.3504,14.4985
84.5715,14.3985
84.5715,14.3985
84.7724,14.2627
84.7725,14.2627
84.9476,14.0949
84.9476,14.0949
85.0918,13.8998
85.2010,13.6832
85.2721,13.4513
85.2786,13.4000
83.8757,13.4000
83.8981,13.3525
83.9289,13.1911
83.9186,13.0272
83.8772,12.9000
85.2778,12.9000
85.2415,12.7312
85.2415,12.7312
85.1510,12.5061
85.0238,12.2996
84.8636,12.1175
84.8636,12.1175
84.6749,11.9651
84.6748,11.9651
84.4631,11.8468
84.2344,11.7660
84.2344,11.7660
83.9953,11.7250
83.5250,11.7250
83.5250,12.5457
83.5162,12.5408
83.3571,12.5000
83.2341,12.5000
83.1121,12.5154
83.0250,12.5499
83.0250,11.7250
82.6154,11.7250
82.4343,11.7404
82.1996,11.8015
81.9785,11.9015
81.9785,11.9015
81.7775,12.0373
81.7775,12.0373
81.6024,12.2051
81.6024,12.2051
81.4582,12.4002
81.3490,12.6168
81.2779,12.8487
81.2714,12.9000
72.7778,12.9000
72.7415,12.7312
72.7415,12.7312
72.6510,12.5061
72.5238,12.2996
72.3636,12.1175
72.3636,12.1175
72.1749,11.9651
72.1748,11.9651
71.9631,11.8468
71.7344,11.7660
71.7344,11.7660
71.4953,11.7250
71.0250,11.7250
71.0250,12.5457
71.0162,12.5408
70.8571,12.5000
70.7341,12.5000
70.6121,12.5154
70.5250,12.5499
70.5250,11.7250
70.1154,11.7250
69.9343,11.7404
69.6996,11.8015
69.4785,11.9015
69.4785,11.9015
69.2775,12.0373
69.2775,12.0373
69.1024,12.2051
69.1024,12.2051
68.9582,12.4002
68.8490,12.6168
68.7779,12.8487
68.7714,12.9000
55.2778,12.9000
55.2415,12.7312
55.2415,12.7312
55.1510,12.5061
55.0238,12.2996
54.8636,12.1175
54.8636,12.1175
54.6749,11.9651
54.6748,11.9651
54.4631,11.8468
54.2344,11.7660
54.2344,11.7660
53.9953,11.7250
53.5250,11.7250
53.5250,12.5457
53.5162,12.5408
53.3571,12.5000
53.2341,12.5000
53.1121,12.5154
53.0250,12.5499
53.0250,11.7250
52.6154,11.7250
52.4343,11.7404
52.1996,11.8015
51.9785,11.9015
51.9785,11.9015
51.7775,12.0373
51.7775,12.0373
51.6024,12.2051
51.6024,12.2051
51.4582,12.4002
51.3490,12.6168
51.2779,12.8487
51.2714,12.9000
42.7778,12.9000
42.7415,12.7312
42.7415,12.7312
42.6510,12.5061
42.5238,12.2996
42.3636,12.1175
42.3636,12.1175
42.1749,11.9651
42.1748,11.9651
41.9631,11.8468
41.7344,11.7660
41.7344,11.7660
41.4953,11.7250
41.0250,11.7250
41.0250,12.5457
41.0162,12.5408
40.8571,12.5000
40.7341,12.5000
40.6121,12.5154
40.5250,12.5499
40.5250,11.7250
40.1154,11.7250
39.9343,11.7404
39.6996,11.8015
39.4785,11.9015
39.4785,11.9015
39.2775,12.0373
39.2775,12.0373
39.1024,12.2051
39.1024,12.2051
38.9582,12.4002
38.8490,12.6168
38.7779,12.8487
38.7714,12.9000
25.2778,12.9000
25.2415,12.7312
25.2415,12.7312
25.1510,12.5061
25.0238,12.2996
24.8636,12.1175
24.8636,12.1175
24.6749,11.9651
24.6748,11.9651
24.4631,11.8468
24.2344,11.7660
24.2344,11.7660
23.9953,11.7250
23.5250,11.7250
23.5250,12.5457
23.5162,12.5408
23.3571,12.5000
23.2341,12.5000
23.1121,12.5154
23.0250,12.5499
23.0250,11.7250
22.6154,11.7250
22.4343,11.7404
22.1996,11.8015
21.9785,11.9015
21.9785,11.9015
21.7775,12.0373
21.7775,12.0373
21.6024,12.2051
21.6024,12.2051
21.4582,12.4002
21.3490,12.6168
21.2779,12.8487
21.2714,12.9000
12.7778,12.9000
12.7415,12.7312
12.7415,12.7312
12.6510,12.5061
12.5238,12.2996
12.3636,12.1175
12.3636,12.1175
12.1749,11.9651
12.1748,11.9651
11.9631,11.8468
11.7344,11.7660
11.7344,11.7660
11.4953,11.7250
11.0250,11.7250
11.0250,12.5457
11.0162,12.5408
10.8571,12.5000
10.7341,12.5000
10.6121,12.5154
10.5250,12.5499
10.5250,11.7250
10.1154,11.7250
9.9343,11.7404
9.6996,11.8015
9.4785,11.9015
9.4785,11.9015
9.2775,12.0373
9.2775,12.0373
9.1024,12.2051
9.1024,12.2051
8.9582,12.4002
8.8490,12.6168
8.7779,12.8487
8.7714,12.9000
3.8755,12.9000
3.8755,4.1849
7.0745,4.1849
7.1147,4.4518
7.1147,4.4518
7.1943,4.7096
7.3113,4.9528
7.4634,5.1757
7.6469,5.3736
7.6469,5.3736
7.6469,5.3736
7.8579,5.5418
8.0916,5.6767
8.3428,5.7753
8.6059,5.8354
8.6438,5.8382
8.8076,5.8505
8.8076,5.8505
8.8076,5.8505
8.8076,5.8505
8.9424,5.8505
8.9424,5.8505
8.9424,5.8505
8.9424,5.8505
9.0873,5.8396
9.1441,5.8354
9.4072,5.7753
9.6584,5.6767
9.8921,5.5418
10.1031,5.3736
10.2866,5.1757
10.4387,4.9528
10.5557,4.7096
10.6353,4.4518
10.6755,4.1849
85.0745,4.1849
85.1147,4.4518
85.1147,4.4518
85.1943,4.7096
85.3113,4.9528
85.4634,5.1757
85.6469,5.3736
85.6469,5.3736
85.6469,5.3736
85.8579,5.5418
86.0916,5.6767
86.3428,5.7753
86.6059,5.8354
86.6438,5.8382
86.8076,5.8505
86.8076,5.8505
86.8076,5.8505
86.8076,5.8505
86.9424,5.8505
86.9424,5.8505
86.9424,5.8505
86.9424,5.8505
87.0873,5.8396
87.1441,5.8354
87.4072,5.7753
87.6584,5.6767
87.8921,5.5418
88.1031,5.3736
88.2866,5.1757
88.4387,4.9528
88.5557,4.7096
88.6353,4.4518
88.6755,4.1849
88.6755,3.9151
88.6353,3.6482
88.5557,3.3904
88.4387,3.1472
88.2866,2.9243
88.2764,2.9132
88.1031,2.7264
88.0625,2.6941
87.8921,2.5582
87.6584,2.4233
87.6584,2.4233
87.4072,2.3247
87.4072,2.3247
87.1441,2.2646
86.9424,2.2495
86.9424,2.2495
86.8076,2.2495
86.8076,2.2495
86.6059,2.2646
86.3428,2.3247
86.3428,2.3247
86.0916,2.4233
86.0916,2.4233
85.8579,2.5582
85.6469,2.7264
85.4634,2.9243
85.3113,3.1472
85.3113,3.1472
85.1943,3.3904
85.1147,3.6482
85.1147,3.6482
85.0745,3.9151
85.0745,4.1849
10.6755,4.1849
10.6755,4.1849
10.6755,3.9151
10.6353,3.6482
10.5557,3.3904
10.4387,3.1472
10.2866,2.9243
10.2764,2.9132
10.1031,2.7264
10.0625,2.6941
9.8921,2.5582
9.6584,2.4233
9.6584,2.4233
9.4072,2.3247
9.4072,2.3247
9.1441,2.2646
8.9424,2.2495
8.9424,2.2495
8.8076,2.2495
8.8076,2.2495
8.6059,2.2646
8.3428,2.3247
8.3428,2.3247
8.0916,2.4233
8.0916,2.4233
7.8579,2.5582
7.6469,2.7264
7.4634,2.9243
7.3113,3.1472
7.3113,3.1472
7.1943,3.3904
7.1147,3.6482
7.1147,3.6482
7.0745,3.9151
7.0745,4.1849
3.8755,4.1849
3.8755,0.1745
3.8952,0.1075
3.9480,0.0617
3.9995,0.0505
91.7410,0.0505
Z" /> 
</g>
</g>
</g>
<g style="fill:#FFFFFF; fill-opacity:1.0000; 
stroke:#FFFFFF; stroke-width:0.0000; stroke-opacity:1; 
stroke-linecap:round; stroke-linejoin:round;">
</g>
<g style="fill:#FFFFFF; fill-opacity:0.0; 
stroke:#FFFFFF; stroke-width:0.1000; stroke-opacity:1; 
stroke-linecap:round; stroke-linejoin:round;">
<path style="fill:#FFFFFF; fill-opacity:0.0; 
stroke:#FFFFFF; stroke-width:0.1000; stroke-opacity:1; 
stroke-linecap:round; stroke-linejoin:round;fill:none"
d="M 3.8750,0.0500
91.8750,0.0500
91.8750,80.0500
3.8750,80.0500
Z" /> 
<g >
</g>
<g >
</g>
<g >
</g>
<g >
</g>
<g >
</g>
<g >
</g>
<g >
</g>
<g >
</g>
<g >
</g>
<g >
</g>
<g >
</g>
<g >
</g>
<g >
</g>
<g >
</g>
<g >
</g>
<g >
</g>
<g >
</g>
<g >
</g>
</g> 
</svg>
