M48
; DRILL file {KiCad (6.0.2)} date Tue Dec 27 17:29:03 2022
; FORMAT={-:-/ absolute / inch / decimal}
; #@! TF.CreationDate,2022-12-27T17:29:03-08:00
; #@! TF.GenerationSoftware,Kicad,Pcbnew,(6.0.2)
; #@! TF.FileFunction,Plated,1,2,PTH
FMAT,2
INCH
; #@! TA.AperFunction,Plated,PTH,ViaDrill
T1C0.0157
; #@! TA.AperFunction,Plated,PTH,ComponentDrill
T2C0.0240
; #@! TA.AperFunction,Plated,PTH,ComponentDrill
T3C0.0276
; #@! TA.AperFunction,Plated,PTH,ComponentDrill
T4C0.0394
; #@! TA.AperFunction,Plated,PTH,ComponentDrill
T5C0.0400
%
G90
G05
T1
X4.5998Y-4.6994
X4.6341Y-4.3159
X4.8711Y-4.1336
X4.9782Y-3.7675
X5.04Y-4.3203
X5.0896Y-4.8494
X5.1648Y-4.4836
X5.2357Y-4.2368
X5.2754Y-4.1061
X5.2872Y-3.9325
X5.3699Y-4.4486
X5.3857Y-4.2459
X5.4207Y-4.1348
X5.5121Y-4.8569
X5.5369Y-4.4998
X5.5376Y-4.5836
X5.5396Y-4.334
X5.5396Y-4.4199
X5.5628Y-4.0163
X5.631Y-4.2507
X5.6359Y-4.3378
X5.6428Y-4.0222
X5.6506Y-3.7785
X5.6526Y-4.5927
X5.6772Y-4.2403
X5.6861Y-4.0065
X5.6872Y-4.0545
X5.7245Y-4.2492
X5.7264Y-4.4982
X5.7388Y-4.0258
X5.7432Y-3.8785
X5.7546Y-4.6305
X5.7695Y-3.999
X5.7928Y-3.7116
X5.8624Y-3.6163
X5.8687Y-4.0608
X5.888Y-3.8439
X5.9038Y-3.9809
X5.9424Y-3.7336
X5.9705Y-4.4726
X5.9794Y-4.1057
X5.9912Y-4.314
X6.0121Y-3.9718
X6.0254Y-4.0356
X6.0613Y-4.1325
X6.0695Y-3.5785
X6.0762Y-3.9864
X6.1184Y-3.9683
X6.1195Y-3.7581
X6.1231Y-4.1392
X6.1467Y-4.2159
X6.1896Y-4.0006
X6.1935Y-4.4238
X6.2085Y-3.786
X6.2306Y-4.1321
X6.2778Y-3.9254
X6.2782Y-4.0045
X6.3479Y-4.5667
X6.3585Y-4.4163
X6.3837Y-3.8746
X6.4361Y-3.6069
X6.4451Y-3.8423
T2
X5.2268Y-3.7374
X5.3268Y-3.7374
X5.4268Y-3.7374
X5.7189Y-4.6882
X5.8189Y-4.6882
X5.9189Y-4.6882
X6.5059Y-4.2693
X6.5059Y-4.3693
X6.5059Y-4.4693
T3
X5.7245Y-3.5614
X5.7245Y-3.6614
X6.3684Y-4.6951
X6.4684Y-4.6951
T4
X5.1817Y-3.973
X5.1817Y-4.173
X5.4817Y-3.923
X5.4817Y-4.073
X5.4817Y-4.223
T5
X4.579Y-3.5966
X4.5888Y-4.8466
X4.679Y-3.5966
X4.6888Y-4.8466
X4.9028Y-3.5996
X5.0028Y-3.5996
X5.264Y-4.6754
X5.364Y-4.6754
X5.4351Y-3.5661
X5.5351Y-3.5661
X5.8095Y-4.8673
X5.9095Y-4.8673
X6.0095Y-4.8673
X6.1514Y-4.8663
X6.2514Y-4.8663
X6.3514Y-4.8663
X6.5335Y-3.9953
X6.5335Y-4.0953
X6.5865Y-4.7691
X6.5865Y-4.8691
T0
M30
