%TF.GenerationSoftware,KiCad,Pcbnew,(6.0.2)*%
%TF.CreationDate,2022-12-27T17:28:47-08:00*%
%TF.ProjectId,qsd_revB,7173645f-7265-4764-922e-6b696361645f,rev?*%
%TF.SameCoordinates,Original*%
%TF.FileFunction,Soldermask,Top*%
%TF.FilePolarity,Negative*%
%FSLAX46Y46*%
G04 Gerber Fmt 4.6, Leading zero omitted, Abs format (unit mm)*
G04 Created by KiCad (PCBNEW (6.0.2)) date 2022-12-27 17:28:47*
%MOMM*%
%LPD*%
G01*
G04 APERTURE LIST*
G04 Aperture macros list*
%AMRoundRect*
0 Rectangle with rounded corners*
0 $1 Rounding radius*
0 $2 $3 $4 $5 $6 $7 $8 $9 X,Y pos of 4 corners*
0 Add a 4 corners polygon primitive as box body*
4,1,4,$2,$3,$4,$5,$6,$7,$8,$9,$2,$3,0*
0 Add four circle primitives for the rounded corners*
1,1,$1+$1,$2,$3*
1,1,$1+$1,$4,$5*
1,1,$1+$1,$6,$7*
1,1,$1+$1,$8,$9*
0 Add four rect primitives between the rounded corners*
20,1,$1+$1,$2,$3,$4,$5,0*
20,1,$1+$1,$4,$5,$6,$7,0*
20,1,$1+$1,$6,$7,$8,$9,0*
20,1,$1+$1,$8,$9,$2,$3,0*%
G04 Aperture macros list end*
%ADD10RoundRect,0.237500X-0.300000X-0.237500X0.300000X-0.237500X0.300000X0.237500X-0.300000X0.237500X0*%
%ADD11RoundRect,0.237500X0.300000X0.237500X-0.300000X0.237500X-0.300000X-0.237500X0.300000X-0.237500X0*%
%ADD12RoundRect,0.237500X-0.237500X0.300000X-0.237500X-0.300000X0.237500X-0.300000X0.237500X0.300000X0*%
%ADD13RoundRect,0.063500X-0.300000X0.600000X-0.300000X-0.600000X0.300000X-0.600000X0.300000X0.600000X0*%
%ADD14C,2.006600*%
%ADD15R,1.270000X3.600000*%
%ADD16R,1.350000X4.200000*%
%ADD17RoundRect,0.150000X-0.150000X0.825000X-0.150000X-0.825000X0.150000X-0.825000X0.150000X0.825000X0*%
%ADD18RoundRect,0.237500X0.250000X0.237500X-0.250000X0.237500X-0.250000X-0.237500X0.250000X-0.237500X0*%
%ADD19RoundRect,0.237500X0.237500X-0.250000X0.237500X0.250000X-0.237500X0.250000X-0.237500X-0.250000X0*%
%ADD20RoundRect,0.237500X-0.237500X0.250000X-0.237500X-0.250000X0.237500X-0.250000X0.237500X0.250000X0*%
%ADD21RoundRect,0.237500X-0.250000X-0.237500X0.250000X-0.237500X0.250000X0.237500X-0.250000X0.237500X0*%
%ADD22RoundRect,0.150000X-0.150000X0.587500X-0.150000X-0.587500X0.150000X-0.587500X0.150000X0.587500X0*%
%ADD23RoundRect,0.237500X0.237500X-0.300000X0.237500X0.300000X-0.237500X0.300000X-0.237500X-0.300000X0*%
%ADD24R,4.200000X1.350000*%
%ADD25R,3.600000X1.270000*%
%ADD26RoundRect,0.063500X-0.600000X-0.300000X0.600000X-0.300000X0.600000X0.300000X-0.600000X0.300000X0*%
%ADD27C,1.041400*%
%ADD28RoundRect,0.063500X-0.500000X0.125000X-0.500000X-0.125000X0.500000X-0.125000X0.500000X0.125000X0*%
%ADD29RoundRect,0.063500X0.500000X-0.125000X0.500000X0.125000X-0.500000X0.125000X-0.500000X-0.125000X0*%
%ADD30RoundRect,0.063500X0.175000X-0.450000X0.175000X0.450000X-0.175000X0.450000X-0.175000X-0.450000X0*%
%ADD31RoundRect,0.063500X-0.175000X0.450000X-0.175000X-0.450000X0.175000X-0.450000X0.175000X0.450000X0*%
%ADD32C,1.627000*%
%ADD33RoundRect,0.063500X-0.300000X-0.600000X0.300000X-0.600000X0.300000X0.600000X-0.300000X0.600000X0*%
%ADD34C,1.778000*%
%ADD35RoundRect,0.063500X0.825500X0.825500X-0.825500X0.825500X-0.825500X-0.825500X0.825500X-0.825500X0*%
%ADD36RoundRect,0.063500X-0.825500X0.825500X-0.825500X-0.825500X0.825500X-0.825500X0.825500X0.825500X0*%
%ADD37RoundRect,0.063500X-0.425000X-0.150000X0.425000X-0.150000X0.425000X0.150000X-0.425000X0.150000X0*%
G04 APERTURE END LIST*
D10*
%TO.C,C11*%
X153038600Y-107204600D03*
X154763600Y-107204600D03*
%TD*%
D11*
%TO.C,C4*%
X153868600Y-94744600D03*
X152143600Y-94744600D03*
%TD*%
D12*
%TO.C,C1*%
X162576100Y-101467100D03*
X162576100Y-103192100D03*
%TD*%
D13*
%TO.C,IC2*%
X150126100Y-96074600D03*
X148226100Y-96074600D03*
X148226100Y-93574600D03*
X149176100Y-93574600D03*
X150126100Y-93574600D03*
%TD*%
D14*
%TO.C,JP5*%
X140591100Y-90579600D03*
X138051100Y-90579600D03*
%TD*%
D15*
%TO.C,J3*%
X158826100Y-90954600D03*
D16*
X156001100Y-91154600D03*
X161651100Y-91154600D03*
%TD*%
D17*
%TO.C,U1*%
X157456100Y-109729600D03*
X156186100Y-109729600D03*
X154916100Y-109729600D03*
X153646100Y-109729600D03*
X153646100Y-114679600D03*
X154916100Y-114679600D03*
X156186100Y-114679600D03*
X157456100Y-114679600D03*
%TD*%
D18*
%TO.C,R31*%
X156463600Y-117204600D03*
X154638600Y-117204600D03*
%TD*%
%TO.C,R28*%
X161738600Y-107054600D03*
X159913600Y-107054600D03*
%TD*%
%TO.C,R27*%
X146388600Y-115379600D03*
X148213600Y-115379600D03*
%TD*%
%TO.C,R26*%
X148213600Y-113304600D03*
X146388600Y-113304600D03*
%TD*%
%TO.C,R19*%
X148213600Y-111229600D03*
X146388600Y-111229600D03*
%TD*%
%TO.C,R18*%
X148263600Y-109104600D03*
X146438600Y-109104600D03*
%TD*%
%TO.C,R10*%
X136313600Y-114379600D03*
X134488600Y-114379600D03*
%TD*%
%TO.C,R8*%
X133238600Y-110129600D03*
X131413600Y-110129600D03*
%TD*%
D19*
%TO.C,R7*%
X128726100Y-106604600D03*
X128726100Y-104779600D03*
%TD*%
%TO.C,R6*%
X128726100Y-102879600D03*
X128726100Y-101054600D03*
%TD*%
D20*
%TO.C,R5*%
X122101100Y-97192100D03*
X122101100Y-99017100D03*
%TD*%
D18*
%TO.C,R4*%
X156463600Y-121029600D03*
X154638600Y-121029600D03*
%TD*%
D19*
%TO.C,R2*%
X141626100Y-119904600D03*
X141626100Y-118079600D03*
%TD*%
D21*
%TO.C,R1*%
X160063600Y-96134600D03*
X161888600Y-96134600D03*
%TD*%
D22*
%TO.C,Q1*%
X126076100Y-101317100D03*
X124176100Y-101317100D03*
X125126100Y-103192100D03*
%TD*%
D11*
%TO.C,C21*%
X161738600Y-109229600D03*
X160013600Y-109229600D03*
%TD*%
%TO.C,C20*%
X161388600Y-114679600D03*
X159663600Y-114679600D03*
%TD*%
%TO.C,C18*%
X156438600Y-119054600D03*
X154713600Y-119054600D03*
%TD*%
%TO.C,C16*%
X126313600Y-97229600D03*
X124588600Y-97229600D03*
%TD*%
D10*
%TO.C,C15*%
X143938600Y-115404600D03*
X142213600Y-115404600D03*
%TD*%
%TO.C,C14*%
X143863600Y-113354600D03*
X142138600Y-113354600D03*
%TD*%
%TO.C,C13*%
X142163600Y-111204600D03*
X143888600Y-111204600D03*
%TD*%
%TO.C,C12*%
X143876100Y-109104600D03*
X142151100Y-109104600D03*
%TD*%
%TO.C,C10*%
X149563600Y-105979600D03*
X151288600Y-105979600D03*
%TD*%
D23*
%TO.C,C6*%
X142101100Y-95967100D03*
X142101100Y-94242100D03*
%TD*%
D11*
%TO.C,C5*%
X156163600Y-97204600D03*
X154438600Y-97204600D03*
%TD*%
%TO.C,C3*%
X122001100Y-101129600D03*
X120276100Y-101129600D03*
%TD*%
%TO.C,C2*%
X160738600Y-98404600D03*
X159013600Y-98404600D03*
%TD*%
D24*
%TO.C,J2*%
X116163600Y-98304600D03*
X116163600Y-103954600D03*
D25*
X115963600Y-101129600D03*
%TD*%
D24*
%TO.C,J1*%
X166888600Y-97429600D03*
X166888600Y-91779600D03*
D25*
X167088600Y-94604600D03*
%TD*%
D14*
%TO.C,JP7*%
X127071100Y-91429600D03*
X124531100Y-91429600D03*
%TD*%
D26*
%TO.C,IC6*%
X150226100Y-89954600D03*
X150226100Y-90904600D03*
X150226100Y-91854600D03*
X152726100Y-91854600D03*
X152726100Y-89954600D03*
%TD*%
D27*
%TO.C,R3*%
X150341100Y-119079600D03*
X147801100Y-119079600D03*
X145261100Y-119079600D03*
%TD*%
D28*
%TO.C,IC4*%
X150588000Y-104229600D03*
X150588000Y-103729600D03*
X150588000Y-103229600D03*
X150588000Y-102729600D03*
X150588000Y-102229600D03*
D29*
X154814200Y-102229600D03*
X154814200Y-102729600D03*
X154814200Y-103229600D03*
X154814200Y-103729600D03*
X154814200Y-104229600D03*
%TD*%
D30*
%TO.C,IC5*%
X147701100Y-105979600D03*
X147051100Y-105979600D03*
X146401100Y-105979600D03*
X145751100Y-105979600D03*
X145101100Y-105979600D03*
X144451100Y-105979600D03*
X143801100Y-105979600D03*
X143151100Y-105979600D03*
D31*
X143151100Y-100229600D03*
X143801100Y-100229600D03*
X144451100Y-100229600D03*
X145101100Y-100229600D03*
X145751100Y-100229600D03*
X146401100Y-100229600D03*
X147051100Y-100229600D03*
X147701100Y-100229600D03*
%TD*%
D32*
%TO.C,T1*%
X139236100Y-103454600D03*
X139236100Y-107264600D03*
X139236100Y-99644600D03*
X131616100Y-105994600D03*
X131616100Y-100914600D03*
%TD*%
D33*
%TO.C,IC1*%
X160426100Y-103085600D03*
X159476100Y-103085600D03*
X158526100Y-103085600D03*
X160426100Y-100473600D03*
X158526100Y-100473600D03*
%TD*%
D34*
%TO.C,C19*%
X164296100Y-119254600D03*
D35*
X161756100Y-119254600D03*
%TD*%
D34*
%TO.C,C7*%
X145401100Y-90459600D03*
D36*
X145401100Y-92999600D03*
%TD*%
D14*
%TO.C,JP8*%
X152641100Y-123629600D03*
X150101100Y-123629600D03*
X147561100Y-123629600D03*
%TD*%
%TO.C,JP4*%
X165951100Y-104019600D03*
X165951100Y-101479600D03*
%TD*%
%TO.C,JP6*%
X133706100Y-118754600D03*
X136246100Y-118754600D03*
%TD*%
%TO.C,JP1*%
X118846100Y-91354600D03*
X116306100Y-91354600D03*
%TD*%
%TO.C,JP2*%
X116556100Y-123104600D03*
X119096100Y-123104600D03*
%TD*%
%TO.C,JP3*%
X167296100Y-121134600D03*
X167296100Y-123674600D03*
%TD*%
D37*
%TO.C,IC3*%
X154426100Y-98579600D03*
X154426100Y-99079600D03*
X154426100Y-99579600D03*
X154426100Y-100079600D03*
X151276100Y-100079600D03*
X151276100Y-99579600D03*
X151276100Y-99079600D03*
X151276100Y-98579600D03*
%TD*%
D27*
%TO.C,R9*%
X132761100Y-94929600D03*
X135301100Y-94929600D03*
X137841100Y-94929600D03*
%TD*%
%TO.C,R32*%
X165251100Y-108439600D03*
X165251100Y-110979600D03*
X165251100Y-113519600D03*
%TD*%
D14*
%TO.C,JP9*%
X156246100Y-123604600D03*
X158786100Y-123604600D03*
X161326100Y-123604600D03*
%TD*%
M02*
