M48
; DRILL file {KiCad 7.0.10} date Sun Nov 24 13:25:56 2024
; FORMAT={-:-/ absolute / metric / decimal}
; #@! TF.CreationDate,2024-11-24T13:25:56-08:00
; #@! TF.GenerationSoftware,Kicad,Pcbnew,7.0.10
; #@! TF.FileFunction,Plated,1,2,PTH
FMAT,2
METRIC
; #@! TA.AperFunction,Plated,PTH,ViaDrill
T1C0.400
; #@! TA.AperFunction,Plated,PTH,ComponentDrill
T2C0.800
; #@! TA.AperFunction,Plated,PTH,ComponentDrill
T3C1.000
; #@! TA.AperFunction,Plated,PTH,ComponentDrill
T4C1.200
%
G90
G05
T1
X90.64Y-122.55
X90.96Y-132.36
X96.55Y-115.41
X98.07Y-126.3
X98.07Y-132.3
X102.37Y-110.27
X103.22Y-126.99
X103.6Y-115.07
X105.72Y-127.6
X105.74Y-122.1
X107.07Y-116.2
X107.52Y-133.53
X110.32Y-120.07
X111.14Y-132.72
X117.28Y-110.38
X120.14Y-126.8
X123.23Y-119.84
X132.24Y-110.23
X134.35Y-133.52
T2
X113.965Y-117.83
X116.465Y-117.83
T3
X93.98Y-125.78
X93.98Y-128.32
X94.06Y-117.025
X94.06Y-119.565
T4
X113.64Y-123.8
X113.64Y-129.8
X126.64Y-123.8
X126.64Y-129.8
X132.51Y-117.59
X132.51Y-130.59
X138.51Y-117.59
X138.51Y-130.59
M30
