G04 #@! TF.GenerationSoftware,KiCad,Pcbnew,7.0.10*
G04 #@! TF.CreationDate,2024-11-24T13:25:20-08:00*
G04 #@! TF.ProjectId,LoopAntennaPreamp,4c6f6f70-416e-4746-956e-6e6150726561,rev?*
G04 #@! TF.SameCoordinates,Original*
G04 #@! TF.FileFunction,Legend,Top*
G04 #@! TF.FilePolarity,Positive*
%FSLAX46Y46*%
G04 Gerber Fmt 4.6, Leading zero omitted, Abs format (unit mm)*
G04 Created by KiCad (PCBNEW 7.0.10) date 2024-11-24 13:25:20*
%MOMM*%
%LPD*%
G01*
G04 APERTURE LIST*
G04 Aperture macros list*
%AMRoundRect*
0 Rectangle with rounded corners*
0 $1 Rounding radius*
0 $2 $3 $4 $5 $6 $7 $8 $9 X,Y pos of 4 corners*
0 Add a 4 corners polygon primitive as box body*
4,1,4,$2,$3,$4,$5,$6,$7,$8,$9,$2,$3,0*
0 Add four circle primitives for the rounded corners*
1,1,$1+$1,$2,$3*
1,1,$1+$1,$4,$5*
1,1,$1+$1,$6,$7*
1,1,$1+$1,$8,$9*
0 Add four rect primitives between the rounded corners*
20,1,$1+$1,$2,$3,$4,$5,0*
20,1,$1+$1,$4,$5,$6,$7,0*
20,1,$1+$1,$6,$7,$8,$9,0*
20,1,$1+$1,$8,$9,$2,$3,0*%
G04 Aperture macros list end*
%ADD10C,0.150000*%
%ADD11C,0.120000*%
%ADD12C,3.000000*%
%ADD13RoundRect,0.237500X-0.250000X-0.237500X0.250000X-0.237500X0.250000X0.237500X-0.250000X0.237500X0*%
%ADD14RoundRect,0.237500X0.237500X-0.250000X0.237500X0.250000X-0.237500X0.250000X-0.237500X-0.250000X0*%
%ADD15R,1.900000X0.800000*%
%ADD16R,5.080000X1.500000*%
%ADD17R,1.700000X1.700000*%
%ADD18O,1.700000X1.700000*%
%ADD19C,3.200000*%
%ADD20R,1.600000X1.600000*%
%ADD21C,1.600000*%
%ADD22RoundRect,0.237500X-0.237500X0.300000X-0.237500X-0.300000X0.237500X-0.300000X0.237500X0.300000X0*%
%ADD23RoundRect,0.237500X-0.300000X-0.237500X0.300000X-0.237500X0.300000X0.237500X-0.300000X0.237500X0*%
%ADD24RoundRect,0.237500X0.300000X0.237500X-0.300000X0.237500X-0.300000X-0.237500X0.300000X-0.237500X0*%
G04 APERTURE END LIST*
D10*
X107212969Y-109039819D02*
X106736779Y-109039819D01*
X106736779Y-109039819D02*
X106736779Y-108039819D01*
X107689160Y-109039819D02*
X107593922Y-108992200D01*
X107593922Y-108992200D02*
X107546303Y-108944580D01*
X107546303Y-108944580D02*
X107498684Y-108849342D01*
X107498684Y-108849342D02*
X107498684Y-108563628D01*
X107498684Y-108563628D02*
X107546303Y-108468390D01*
X107546303Y-108468390D02*
X107593922Y-108420771D01*
X107593922Y-108420771D02*
X107689160Y-108373152D01*
X107689160Y-108373152D02*
X107832017Y-108373152D01*
X107832017Y-108373152D02*
X107927255Y-108420771D01*
X107927255Y-108420771D02*
X107974874Y-108468390D01*
X107974874Y-108468390D02*
X108022493Y-108563628D01*
X108022493Y-108563628D02*
X108022493Y-108849342D01*
X108022493Y-108849342D02*
X107974874Y-108944580D01*
X107974874Y-108944580D02*
X107927255Y-108992200D01*
X107927255Y-108992200D02*
X107832017Y-109039819D01*
X107832017Y-109039819D02*
X107689160Y-109039819D01*
X108593922Y-109039819D02*
X108498684Y-108992200D01*
X108498684Y-108992200D02*
X108451065Y-108944580D01*
X108451065Y-108944580D02*
X108403446Y-108849342D01*
X108403446Y-108849342D02*
X108403446Y-108563628D01*
X108403446Y-108563628D02*
X108451065Y-108468390D01*
X108451065Y-108468390D02*
X108498684Y-108420771D01*
X108498684Y-108420771D02*
X108593922Y-108373152D01*
X108593922Y-108373152D02*
X108736779Y-108373152D01*
X108736779Y-108373152D02*
X108832017Y-108420771D01*
X108832017Y-108420771D02*
X108879636Y-108468390D01*
X108879636Y-108468390D02*
X108927255Y-108563628D01*
X108927255Y-108563628D02*
X108927255Y-108849342D01*
X108927255Y-108849342D02*
X108879636Y-108944580D01*
X108879636Y-108944580D02*
X108832017Y-108992200D01*
X108832017Y-108992200D02*
X108736779Y-109039819D01*
X108736779Y-109039819D02*
X108593922Y-109039819D01*
X109355827Y-108373152D02*
X109355827Y-109373152D01*
X109355827Y-108420771D02*
X109451065Y-108373152D01*
X109451065Y-108373152D02*
X109641541Y-108373152D01*
X109641541Y-108373152D02*
X109736779Y-108420771D01*
X109736779Y-108420771D02*
X109784398Y-108468390D01*
X109784398Y-108468390D02*
X109832017Y-108563628D01*
X109832017Y-108563628D02*
X109832017Y-108849342D01*
X109832017Y-108849342D02*
X109784398Y-108944580D01*
X109784398Y-108944580D02*
X109736779Y-108992200D01*
X109736779Y-108992200D02*
X109641541Y-109039819D01*
X109641541Y-109039819D02*
X109451065Y-109039819D01*
X109451065Y-109039819D02*
X109355827Y-108992200D01*
X110974875Y-108754104D02*
X111451065Y-108754104D01*
X110879637Y-109039819D02*
X111212970Y-108039819D01*
X111212970Y-108039819D02*
X111546303Y-109039819D01*
X111879637Y-108373152D02*
X111879637Y-109039819D01*
X111879637Y-108468390D02*
X111927256Y-108420771D01*
X111927256Y-108420771D02*
X112022494Y-108373152D01*
X112022494Y-108373152D02*
X112165351Y-108373152D01*
X112165351Y-108373152D02*
X112260589Y-108420771D01*
X112260589Y-108420771D02*
X112308208Y-108516009D01*
X112308208Y-108516009D02*
X112308208Y-109039819D01*
X112641542Y-108373152D02*
X113022494Y-108373152D01*
X112784399Y-108039819D02*
X112784399Y-108896961D01*
X112784399Y-108896961D02*
X112832018Y-108992200D01*
X112832018Y-108992200D02*
X112927256Y-109039819D01*
X112927256Y-109039819D02*
X113022494Y-109039819D01*
X113736780Y-108992200D02*
X113641542Y-109039819D01*
X113641542Y-109039819D02*
X113451066Y-109039819D01*
X113451066Y-109039819D02*
X113355828Y-108992200D01*
X113355828Y-108992200D02*
X113308209Y-108896961D01*
X113308209Y-108896961D02*
X113308209Y-108516009D01*
X113308209Y-108516009D02*
X113355828Y-108420771D01*
X113355828Y-108420771D02*
X113451066Y-108373152D01*
X113451066Y-108373152D02*
X113641542Y-108373152D01*
X113641542Y-108373152D02*
X113736780Y-108420771D01*
X113736780Y-108420771D02*
X113784399Y-108516009D01*
X113784399Y-108516009D02*
X113784399Y-108611247D01*
X113784399Y-108611247D02*
X113308209Y-108706485D01*
X114212971Y-108373152D02*
X114212971Y-109039819D01*
X114212971Y-108468390D02*
X114260590Y-108420771D01*
X114260590Y-108420771D02*
X114355828Y-108373152D01*
X114355828Y-108373152D02*
X114498685Y-108373152D01*
X114498685Y-108373152D02*
X114593923Y-108420771D01*
X114593923Y-108420771D02*
X114641542Y-108516009D01*
X114641542Y-108516009D02*
X114641542Y-109039819D01*
X115117733Y-108373152D02*
X115117733Y-109039819D01*
X115117733Y-108468390D02*
X115165352Y-108420771D01*
X115165352Y-108420771D02*
X115260590Y-108373152D01*
X115260590Y-108373152D02*
X115403447Y-108373152D01*
X115403447Y-108373152D02*
X115498685Y-108420771D01*
X115498685Y-108420771D02*
X115546304Y-108516009D01*
X115546304Y-108516009D02*
X115546304Y-109039819D01*
X116451066Y-109039819D02*
X116451066Y-108516009D01*
X116451066Y-108516009D02*
X116403447Y-108420771D01*
X116403447Y-108420771D02*
X116308209Y-108373152D01*
X116308209Y-108373152D02*
X116117733Y-108373152D01*
X116117733Y-108373152D02*
X116022495Y-108420771D01*
X116451066Y-108992200D02*
X116355828Y-109039819D01*
X116355828Y-109039819D02*
X116117733Y-109039819D01*
X116117733Y-109039819D02*
X116022495Y-108992200D01*
X116022495Y-108992200D02*
X115974876Y-108896961D01*
X115974876Y-108896961D02*
X115974876Y-108801723D01*
X115974876Y-108801723D02*
X116022495Y-108706485D01*
X116022495Y-108706485D02*
X116117733Y-108658866D01*
X116117733Y-108658866D02*
X116355828Y-108658866D01*
X116355828Y-108658866D02*
X116451066Y-108611247D01*
X117689162Y-109039819D02*
X117689162Y-108039819D01*
X117689162Y-108039819D02*
X118070114Y-108039819D01*
X118070114Y-108039819D02*
X118165352Y-108087438D01*
X118165352Y-108087438D02*
X118212971Y-108135057D01*
X118212971Y-108135057D02*
X118260590Y-108230295D01*
X118260590Y-108230295D02*
X118260590Y-108373152D01*
X118260590Y-108373152D02*
X118212971Y-108468390D01*
X118212971Y-108468390D02*
X118165352Y-108516009D01*
X118165352Y-108516009D02*
X118070114Y-108563628D01*
X118070114Y-108563628D02*
X117689162Y-108563628D01*
X118689162Y-109039819D02*
X118689162Y-108373152D01*
X118689162Y-108563628D02*
X118736781Y-108468390D01*
X118736781Y-108468390D02*
X118784400Y-108420771D01*
X118784400Y-108420771D02*
X118879638Y-108373152D01*
X118879638Y-108373152D02*
X118974876Y-108373152D01*
X119689162Y-108992200D02*
X119593924Y-109039819D01*
X119593924Y-109039819D02*
X119403448Y-109039819D01*
X119403448Y-109039819D02*
X119308210Y-108992200D01*
X119308210Y-108992200D02*
X119260591Y-108896961D01*
X119260591Y-108896961D02*
X119260591Y-108516009D01*
X119260591Y-108516009D02*
X119308210Y-108420771D01*
X119308210Y-108420771D02*
X119403448Y-108373152D01*
X119403448Y-108373152D02*
X119593924Y-108373152D01*
X119593924Y-108373152D02*
X119689162Y-108420771D01*
X119689162Y-108420771D02*
X119736781Y-108516009D01*
X119736781Y-108516009D02*
X119736781Y-108611247D01*
X119736781Y-108611247D02*
X119260591Y-108706485D01*
X120593924Y-109039819D02*
X120593924Y-108516009D01*
X120593924Y-108516009D02*
X120546305Y-108420771D01*
X120546305Y-108420771D02*
X120451067Y-108373152D01*
X120451067Y-108373152D02*
X120260591Y-108373152D01*
X120260591Y-108373152D02*
X120165353Y-108420771D01*
X120593924Y-108992200D02*
X120498686Y-109039819D01*
X120498686Y-109039819D02*
X120260591Y-109039819D01*
X120260591Y-109039819D02*
X120165353Y-108992200D01*
X120165353Y-108992200D02*
X120117734Y-108896961D01*
X120117734Y-108896961D02*
X120117734Y-108801723D01*
X120117734Y-108801723D02*
X120165353Y-108706485D01*
X120165353Y-108706485D02*
X120260591Y-108658866D01*
X120260591Y-108658866D02*
X120498686Y-108658866D01*
X120498686Y-108658866D02*
X120593924Y-108611247D01*
X121070115Y-109039819D02*
X121070115Y-108373152D01*
X121070115Y-108468390D02*
X121117734Y-108420771D01*
X121117734Y-108420771D02*
X121212972Y-108373152D01*
X121212972Y-108373152D02*
X121355829Y-108373152D01*
X121355829Y-108373152D02*
X121451067Y-108420771D01*
X121451067Y-108420771D02*
X121498686Y-108516009D01*
X121498686Y-108516009D02*
X121498686Y-109039819D01*
X121498686Y-108516009D02*
X121546305Y-108420771D01*
X121546305Y-108420771D02*
X121641543Y-108373152D01*
X121641543Y-108373152D02*
X121784400Y-108373152D01*
X121784400Y-108373152D02*
X121879639Y-108420771D01*
X121879639Y-108420771D02*
X121927258Y-108516009D01*
X121927258Y-108516009D02*
X121927258Y-109039819D01*
X122403448Y-108373152D02*
X122403448Y-109373152D01*
X122403448Y-108420771D02*
X122498686Y-108373152D01*
X122498686Y-108373152D02*
X122689162Y-108373152D01*
X122689162Y-108373152D02*
X122784400Y-108420771D01*
X122784400Y-108420771D02*
X122832019Y-108468390D01*
X122832019Y-108468390D02*
X122879638Y-108563628D01*
X122879638Y-108563628D02*
X122879638Y-108849342D01*
X122879638Y-108849342D02*
X122832019Y-108944580D01*
X122832019Y-108944580D02*
X122784400Y-108992200D01*
X122784400Y-108992200D02*
X122689162Y-109039819D01*
X122689162Y-109039819D02*
X122498686Y-109039819D01*
X122498686Y-109039819D02*
X122403448Y-108992200D01*
X106736779Y-110649819D02*
X106736779Y-109649819D01*
X106736779Y-109649819D02*
X107308207Y-110649819D01*
X107308207Y-110649819D02*
X107308207Y-109649819D01*
X107689160Y-109649819D02*
X108355826Y-109649819D01*
X108355826Y-109649819D02*
X107927255Y-110649819D01*
X108641541Y-109649819D02*
X108879636Y-110649819D01*
X108879636Y-110649819D02*
X109070112Y-109935533D01*
X109070112Y-109935533D02*
X109260588Y-110649819D01*
X109260588Y-110649819D02*
X109498684Y-109649819D01*
X109879636Y-110649819D02*
X109879636Y-109649819D01*
X109879636Y-109649819D02*
X110212969Y-110364104D01*
X110212969Y-110364104D02*
X110546302Y-109649819D01*
X110546302Y-109649819D02*
X110546302Y-110649819D01*
X111022493Y-110649819D02*
X111022493Y-109649819D01*
X111022493Y-109649819D02*
X111593921Y-110649819D01*
X111593921Y-110649819D02*
X111593921Y-109649819D01*
X106689160Y-111355057D02*
X106736779Y-111307438D01*
X106736779Y-111307438D02*
X106832017Y-111259819D01*
X106832017Y-111259819D02*
X107070112Y-111259819D01*
X107070112Y-111259819D02*
X107165350Y-111307438D01*
X107165350Y-111307438D02*
X107212969Y-111355057D01*
X107212969Y-111355057D02*
X107260588Y-111450295D01*
X107260588Y-111450295D02*
X107260588Y-111545533D01*
X107260588Y-111545533D02*
X107212969Y-111688390D01*
X107212969Y-111688390D02*
X106641541Y-112259819D01*
X106641541Y-112259819D02*
X107260588Y-112259819D01*
X108117731Y-111593152D02*
X108117731Y-112259819D01*
X107879636Y-111212200D02*
X107641541Y-111926485D01*
X107641541Y-111926485D02*
X108260588Y-111926485D01*
X108641541Y-111878866D02*
X109403446Y-111878866D01*
X109879636Y-112259819D02*
X109879636Y-111259819D01*
X109879636Y-111259819D02*
X110451064Y-112259819D01*
X110451064Y-112259819D02*
X110451064Y-111259819D01*
X111070112Y-112259819D02*
X110974874Y-112212200D01*
X110974874Y-112212200D02*
X110927255Y-112164580D01*
X110927255Y-112164580D02*
X110879636Y-112069342D01*
X110879636Y-112069342D02*
X110879636Y-111783628D01*
X110879636Y-111783628D02*
X110927255Y-111688390D01*
X110927255Y-111688390D02*
X110974874Y-111640771D01*
X110974874Y-111640771D02*
X111070112Y-111593152D01*
X111070112Y-111593152D02*
X111212969Y-111593152D01*
X111212969Y-111593152D02*
X111308207Y-111640771D01*
X111308207Y-111640771D02*
X111355826Y-111688390D01*
X111355826Y-111688390D02*
X111403445Y-111783628D01*
X111403445Y-111783628D02*
X111403445Y-112069342D01*
X111403445Y-112069342D02*
X111355826Y-112164580D01*
X111355826Y-112164580D02*
X111308207Y-112212200D01*
X111308207Y-112212200D02*
X111212969Y-112259819D01*
X111212969Y-112259819D02*
X111070112Y-112259819D01*
X111736779Y-111593152D02*
X111974874Y-112259819D01*
X111974874Y-112259819D02*
X112212969Y-111593152D01*
X112974874Y-112212200D02*
X112879636Y-112259819D01*
X112879636Y-112259819D02*
X112689160Y-112259819D01*
X112689160Y-112259819D02*
X112593922Y-112212200D01*
X112593922Y-112212200D02*
X112546303Y-112116961D01*
X112546303Y-112116961D02*
X112546303Y-111736009D01*
X112546303Y-111736009D02*
X112593922Y-111640771D01*
X112593922Y-111640771D02*
X112689160Y-111593152D01*
X112689160Y-111593152D02*
X112879636Y-111593152D01*
X112879636Y-111593152D02*
X112974874Y-111640771D01*
X112974874Y-111640771D02*
X113022493Y-111736009D01*
X113022493Y-111736009D02*
X113022493Y-111831247D01*
X113022493Y-111831247D02*
X112546303Y-111926485D01*
X113451065Y-112259819D02*
X113451065Y-111593152D01*
X113451065Y-111688390D02*
X113498684Y-111640771D01*
X113498684Y-111640771D02*
X113593922Y-111593152D01*
X113593922Y-111593152D02*
X113736779Y-111593152D01*
X113736779Y-111593152D02*
X113832017Y-111640771D01*
X113832017Y-111640771D02*
X113879636Y-111736009D01*
X113879636Y-111736009D02*
X113879636Y-112259819D01*
X113879636Y-111736009D02*
X113927255Y-111640771D01*
X113927255Y-111640771D02*
X114022493Y-111593152D01*
X114022493Y-111593152D02*
X114165350Y-111593152D01*
X114165350Y-111593152D02*
X114260589Y-111640771D01*
X114260589Y-111640771D02*
X114308208Y-111736009D01*
X114308208Y-111736009D02*
X114308208Y-112259819D01*
X114784398Y-112259819D02*
X114784398Y-111259819D01*
X114784398Y-111640771D02*
X114879636Y-111593152D01*
X114879636Y-111593152D02*
X115070112Y-111593152D01*
X115070112Y-111593152D02*
X115165350Y-111640771D01*
X115165350Y-111640771D02*
X115212969Y-111688390D01*
X115212969Y-111688390D02*
X115260588Y-111783628D01*
X115260588Y-111783628D02*
X115260588Y-112069342D01*
X115260588Y-112069342D02*
X115212969Y-112164580D01*
X115212969Y-112164580D02*
X115165350Y-112212200D01*
X115165350Y-112212200D02*
X115070112Y-112259819D01*
X115070112Y-112259819D02*
X114879636Y-112259819D01*
X114879636Y-112259819D02*
X114784398Y-112212200D01*
X116070112Y-112212200D02*
X115974874Y-112259819D01*
X115974874Y-112259819D02*
X115784398Y-112259819D01*
X115784398Y-112259819D02*
X115689160Y-112212200D01*
X115689160Y-112212200D02*
X115641541Y-112116961D01*
X115641541Y-112116961D02*
X115641541Y-111736009D01*
X115641541Y-111736009D02*
X115689160Y-111640771D01*
X115689160Y-111640771D02*
X115784398Y-111593152D01*
X115784398Y-111593152D02*
X115974874Y-111593152D01*
X115974874Y-111593152D02*
X116070112Y-111640771D01*
X116070112Y-111640771D02*
X116117731Y-111736009D01*
X116117731Y-111736009D02*
X116117731Y-111831247D01*
X116117731Y-111831247D02*
X115641541Y-111926485D01*
X116546303Y-112259819D02*
X116546303Y-111593152D01*
X116546303Y-111783628D02*
X116593922Y-111688390D01*
X116593922Y-111688390D02*
X116641541Y-111640771D01*
X116641541Y-111640771D02*
X116736779Y-111593152D01*
X116736779Y-111593152D02*
X116832017Y-111593152D01*
X117165351Y-111878866D02*
X117927256Y-111878866D01*
X118355827Y-111355057D02*
X118403446Y-111307438D01*
X118403446Y-111307438D02*
X118498684Y-111259819D01*
X118498684Y-111259819D02*
X118736779Y-111259819D01*
X118736779Y-111259819D02*
X118832017Y-111307438D01*
X118832017Y-111307438D02*
X118879636Y-111355057D01*
X118879636Y-111355057D02*
X118927255Y-111450295D01*
X118927255Y-111450295D02*
X118927255Y-111545533D01*
X118927255Y-111545533D02*
X118879636Y-111688390D01*
X118879636Y-111688390D02*
X118308208Y-112259819D01*
X118308208Y-112259819D02*
X118927255Y-112259819D01*
X119546303Y-111259819D02*
X119641541Y-111259819D01*
X119641541Y-111259819D02*
X119736779Y-111307438D01*
X119736779Y-111307438D02*
X119784398Y-111355057D01*
X119784398Y-111355057D02*
X119832017Y-111450295D01*
X119832017Y-111450295D02*
X119879636Y-111640771D01*
X119879636Y-111640771D02*
X119879636Y-111878866D01*
X119879636Y-111878866D02*
X119832017Y-112069342D01*
X119832017Y-112069342D02*
X119784398Y-112164580D01*
X119784398Y-112164580D02*
X119736779Y-112212200D01*
X119736779Y-112212200D02*
X119641541Y-112259819D01*
X119641541Y-112259819D02*
X119546303Y-112259819D01*
X119546303Y-112259819D02*
X119451065Y-112212200D01*
X119451065Y-112212200D02*
X119403446Y-112164580D01*
X119403446Y-112164580D02*
X119355827Y-112069342D01*
X119355827Y-112069342D02*
X119308208Y-111878866D01*
X119308208Y-111878866D02*
X119308208Y-111640771D01*
X119308208Y-111640771D02*
X119355827Y-111450295D01*
X119355827Y-111450295D02*
X119403446Y-111355057D01*
X119403446Y-111355057D02*
X119451065Y-111307438D01*
X119451065Y-111307438D02*
X119546303Y-111259819D01*
X120260589Y-111355057D02*
X120308208Y-111307438D01*
X120308208Y-111307438D02*
X120403446Y-111259819D01*
X120403446Y-111259819D02*
X120641541Y-111259819D01*
X120641541Y-111259819D02*
X120736779Y-111307438D01*
X120736779Y-111307438D02*
X120784398Y-111355057D01*
X120784398Y-111355057D02*
X120832017Y-111450295D01*
X120832017Y-111450295D02*
X120832017Y-111545533D01*
X120832017Y-111545533D02*
X120784398Y-111688390D01*
X120784398Y-111688390D02*
X120212970Y-112259819D01*
X120212970Y-112259819D02*
X120832017Y-112259819D01*
X121689160Y-111593152D02*
X121689160Y-112259819D01*
X121451065Y-111212200D02*
X121212970Y-111926485D01*
X121212970Y-111926485D02*
X121832017Y-111926485D01*
X90979819Y-127797030D02*
X90979819Y-128273220D01*
X90979819Y-128273220D02*
X89979819Y-128273220D01*
X89979819Y-127273220D02*
X89979819Y-127082744D01*
X89979819Y-127082744D02*
X90027438Y-126987506D01*
X90027438Y-126987506D02*
X90122676Y-126892268D01*
X90122676Y-126892268D02*
X90313152Y-126844649D01*
X90313152Y-126844649D02*
X90646485Y-126844649D01*
X90646485Y-126844649D02*
X90836961Y-126892268D01*
X90836961Y-126892268D02*
X90932200Y-126987506D01*
X90932200Y-126987506D02*
X90979819Y-127082744D01*
X90979819Y-127082744D02*
X90979819Y-127273220D01*
X90979819Y-127273220D02*
X90932200Y-127368458D01*
X90932200Y-127368458D02*
X90836961Y-127463696D01*
X90836961Y-127463696D02*
X90646485Y-127511315D01*
X90646485Y-127511315D02*
X90313152Y-127511315D01*
X90313152Y-127511315D02*
X90122676Y-127463696D01*
X90122676Y-127463696D02*
X90027438Y-127368458D01*
X90027438Y-127368458D02*
X89979819Y-127273220D01*
X89979819Y-126225601D02*
X89979819Y-126035125D01*
X89979819Y-126035125D02*
X90027438Y-125939887D01*
X90027438Y-125939887D02*
X90122676Y-125844649D01*
X90122676Y-125844649D02*
X90313152Y-125797030D01*
X90313152Y-125797030D02*
X90646485Y-125797030D01*
X90646485Y-125797030D02*
X90836961Y-125844649D01*
X90836961Y-125844649D02*
X90932200Y-125939887D01*
X90932200Y-125939887D02*
X90979819Y-126035125D01*
X90979819Y-126035125D02*
X90979819Y-126225601D01*
X90979819Y-126225601D02*
X90932200Y-126320839D01*
X90932200Y-126320839D02*
X90836961Y-126416077D01*
X90836961Y-126416077D02*
X90646485Y-126463696D01*
X90646485Y-126463696D02*
X90313152Y-126463696D01*
X90313152Y-126463696D02*
X90122676Y-126416077D01*
X90122676Y-126416077D02*
X90027438Y-126320839D01*
X90027438Y-126320839D02*
X89979819Y-126225601D01*
X90979819Y-125368458D02*
X89979819Y-125368458D01*
X89979819Y-125368458D02*
X89979819Y-124987506D01*
X89979819Y-124987506D02*
X90027438Y-124892268D01*
X90027438Y-124892268D02*
X90075057Y-124844649D01*
X90075057Y-124844649D02*
X90170295Y-124797030D01*
X90170295Y-124797030D02*
X90313152Y-124797030D01*
X90313152Y-124797030D02*
X90408390Y-124844649D01*
X90408390Y-124844649D02*
X90456009Y-124892268D01*
X90456009Y-124892268D02*
X90503628Y-124987506D01*
X90503628Y-124987506D02*
X90503628Y-125368458D01*
X88236779Y-119748866D02*
X88998684Y-119748866D01*
X88617731Y-120129819D02*
X88617731Y-119367914D01*
X89998683Y-120129819D02*
X89427255Y-120129819D01*
X89712969Y-120129819D02*
X89712969Y-119129819D01*
X89712969Y-119129819D02*
X89617731Y-119272676D01*
X89617731Y-119272676D02*
X89522493Y-119367914D01*
X89522493Y-119367914D02*
X89427255Y-119415533D01*
X90379636Y-119225057D02*
X90427255Y-119177438D01*
X90427255Y-119177438D02*
X90522493Y-119129819D01*
X90522493Y-119129819D02*
X90760588Y-119129819D01*
X90760588Y-119129819D02*
X90855826Y-119177438D01*
X90855826Y-119177438D02*
X90903445Y-119225057D01*
X90903445Y-119225057D02*
X90951064Y-119320295D01*
X90951064Y-119320295D02*
X90951064Y-119415533D01*
X90951064Y-119415533D02*
X90903445Y-119558390D01*
X90903445Y-119558390D02*
X90332017Y-120129819D01*
X90332017Y-120129819D02*
X90951064Y-120129819D01*
X91236779Y-119129819D02*
X91570112Y-120129819D01*
X91570112Y-120129819D02*
X91903445Y-119129819D01*
X89340588Y-116347438D02*
X89245350Y-116299819D01*
X89245350Y-116299819D02*
X89102493Y-116299819D01*
X89102493Y-116299819D02*
X88959636Y-116347438D01*
X88959636Y-116347438D02*
X88864398Y-116442676D01*
X88864398Y-116442676D02*
X88816779Y-116537914D01*
X88816779Y-116537914D02*
X88769160Y-116728390D01*
X88769160Y-116728390D02*
X88769160Y-116871247D01*
X88769160Y-116871247D02*
X88816779Y-117061723D01*
X88816779Y-117061723D02*
X88864398Y-117156961D01*
X88864398Y-117156961D02*
X88959636Y-117252200D01*
X88959636Y-117252200D02*
X89102493Y-117299819D01*
X89102493Y-117299819D02*
X89197731Y-117299819D01*
X89197731Y-117299819D02*
X89340588Y-117252200D01*
X89340588Y-117252200D02*
X89388207Y-117204580D01*
X89388207Y-117204580D02*
X89388207Y-116871247D01*
X89388207Y-116871247D02*
X89197731Y-116871247D01*
X89816779Y-117299819D02*
X89816779Y-116299819D01*
X89816779Y-116299819D02*
X90388207Y-117299819D01*
X90388207Y-117299819D02*
X90388207Y-116299819D01*
X90864398Y-117299819D02*
X90864398Y-116299819D01*
X90864398Y-116299819D02*
X91102493Y-116299819D01*
X91102493Y-116299819D02*
X91245350Y-116347438D01*
X91245350Y-116347438D02*
X91340588Y-116442676D01*
X91340588Y-116442676D02*
X91388207Y-116537914D01*
X91388207Y-116537914D02*
X91435826Y-116728390D01*
X91435826Y-116728390D02*
X91435826Y-116871247D01*
X91435826Y-116871247D02*
X91388207Y-117061723D01*
X91388207Y-117061723D02*
X91340588Y-117156961D01*
X91340588Y-117156961D02*
X91245350Y-117252200D01*
X91245350Y-117252200D02*
X91102493Y-117299819D01*
X91102493Y-117299819D02*
X90864398Y-117299819D01*
X134418095Y-114344819D02*
X134989523Y-114344819D01*
X134703809Y-115344819D02*
X134703809Y-114344819D01*
X135894285Y-115344819D02*
X135560952Y-114868628D01*
X135322857Y-115344819D02*
X135322857Y-114344819D01*
X135322857Y-114344819D02*
X135703809Y-114344819D01*
X135703809Y-114344819D02*
X135799047Y-114392438D01*
X135799047Y-114392438D02*
X135846666Y-114440057D01*
X135846666Y-114440057D02*
X135894285Y-114535295D01*
X135894285Y-114535295D02*
X135894285Y-114678152D01*
X135894285Y-114678152D02*
X135846666Y-114773390D01*
X135846666Y-114773390D02*
X135799047Y-114821009D01*
X135799047Y-114821009D02*
X135703809Y-114868628D01*
X135703809Y-114868628D02*
X135322857Y-114868628D01*
X136275238Y-114440057D02*
X136322857Y-114392438D01*
X136322857Y-114392438D02*
X136418095Y-114344819D01*
X136418095Y-114344819D02*
X136656190Y-114344819D01*
X136656190Y-114344819D02*
X136751428Y-114392438D01*
X136751428Y-114392438D02*
X136799047Y-114440057D01*
X136799047Y-114440057D02*
X136846666Y-114535295D01*
X136846666Y-114535295D02*
X136846666Y-114630533D01*
X136846666Y-114630533D02*
X136799047Y-114773390D01*
X136799047Y-114773390D02*
X136227619Y-115344819D01*
X136227619Y-115344819D02*
X136846666Y-115344819D01*
X125448095Y-119574819D02*
X126019523Y-119574819D01*
X125733809Y-120574819D02*
X125733809Y-119574819D01*
X126924285Y-120574819D02*
X126590952Y-120098628D01*
X126352857Y-120574819D02*
X126352857Y-119574819D01*
X126352857Y-119574819D02*
X126733809Y-119574819D01*
X126733809Y-119574819D02*
X126829047Y-119622438D01*
X126829047Y-119622438D02*
X126876666Y-119670057D01*
X126876666Y-119670057D02*
X126924285Y-119765295D01*
X126924285Y-119765295D02*
X126924285Y-119908152D01*
X126924285Y-119908152D02*
X126876666Y-120003390D01*
X126876666Y-120003390D02*
X126829047Y-120051009D01*
X126829047Y-120051009D02*
X126733809Y-120098628D01*
X126733809Y-120098628D02*
X126352857Y-120098628D01*
X127876666Y-120574819D02*
X127305238Y-120574819D01*
X127590952Y-120574819D02*
X127590952Y-119574819D01*
X127590952Y-119574819D02*
X127495714Y-119717676D01*
X127495714Y-119717676D02*
X127400476Y-119812914D01*
X127400476Y-119812914D02*
X127305238Y-119860533D01*
X99813333Y-122344819D02*
X99480000Y-121868628D01*
X99241905Y-122344819D02*
X99241905Y-121344819D01*
X99241905Y-121344819D02*
X99622857Y-121344819D01*
X99622857Y-121344819D02*
X99718095Y-121392438D01*
X99718095Y-121392438D02*
X99765714Y-121440057D01*
X99765714Y-121440057D02*
X99813333Y-121535295D01*
X99813333Y-121535295D02*
X99813333Y-121678152D01*
X99813333Y-121678152D02*
X99765714Y-121773390D01*
X99765714Y-121773390D02*
X99718095Y-121821009D01*
X99718095Y-121821009D02*
X99622857Y-121868628D01*
X99622857Y-121868628D02*
X99241905Y-121868628D01*
X100670476Y-121344819D02*
X100480000Y-121344819D01*
X100480000Y-121344819D02*
X100384762Y-121392438D01*
X100384762Y-121392438D02*
X100337143Y-121440057D01*
X100337143Y-121440057D02*
X100241905Y-121582914D01*
X100241905Y-121582914D02*
X100194286Y-121773390D01*
X100194286Y-121773390D02*
X100194286Y-122154342D01*
X100194286Y-122154342D02*
X100241905Y-122249580D01*
X100241905Y-122249580D02*
X100289524Y-122297200D01*
X100289524Y-122297200D02*
X100384762Y-122344819D01*
X100384762Y-122344819D02*
X100575238Y-122344819D01*
X100575238Y-122344819D02*
X100670476Y-122297200D01*
X100670476Y-122297200D02*
X100718095Y-122249580D01*
X100718095Y-122249580D02*
X100765714Y-122154342D01*
X100765714Y-122154342D02*
X100765714Y-121916247D01*
X100765714Y-121916247D02*
X100718095Y-121821009D01*
X100718095Y-121821009D02*
X100670476Y-121773390D01*
X100670476Y-121773390D02*
X100575238Y-121725771D01*
X100575238Y-121725771D02*
X100384762Y-121725771D01*
X100384762Y-121725771D02*
X100289524Y-121773390D01*
X100289524Y-121773390D02*
X100241905Y-121821009D01*
X100241905Y-121821009D02*
X100194286Y-121916247D01*
X99683333Y-129054819D02*
X99350000Y-128578628D01*
X99111905Y-129054819D02*
X99111905Y-128054819D01*
X99111905Y-128054819D02*
X99492857Y-128054819D01*
X99492857Y-128054819D02*
X99588095Y-128102438D01*
X99588095Y-128102438D02*
X99635714Y-128150057D01*
X99635714Y-128150057D02*
X99683333Y-128245295D01*
X99683333Y-128245295D02*
X99683333Y-128388152D01*
X99683333Y-128388152D02*
X99635714Y-128483390D01*
X99635714Y-128483390D02*
X99588095Y-128531009D01*
X99588095Y-128531009D02*
X99492857Y-128578628D01*
X99492857Y-128578628D02*
X99111905Y-128578628D01*
X100588095Y-128054819D02*
X100111905Y-128054819D01*
X100111905Y-128054819D02*
X100064286Y-128531009D01*
X100064286Y-128531009D02*
X100111905Y-128483390D01*
X100111905Y-128483390D02*
X100207143Y-128435771D01*
X100207143Y-128435771D02*
X100445238Y-128435771D01*
X100445238Y-128435771D02*
X100540476Y-128483390D01*
X100540476Y-128483390D02*
X100588095Y-128531009D01*
X100588095Y-128531009D02*
X100635714Y-128626247D01*
X100635714Y-128626247D02*
X100635714Y-128864342D01*
X100635714Y-128864342D02*
X100588095Y-128959580D01*
X100588095Y-128959580D02*
X100540476Y-129007200D01*
X100540476Y-129007200D02*
X100445238Y-129054819D01*
X100445238Y-129054819D02*
X100207143Y-129054819D01*
X100207143Y-129054819D02*
X100111905Y-129007200D01*
X100111905Y-129007200D02*
X100064286Y-128959580D01*
X102263333Y-116564819D02*
X101930000Y-116088628D01*
X101691905Y-116564819D02*
X101691905Y-115564819D01*
X101691905Y-115564819D02*
X102072857Y-115564819D01*
X102072857Y-115564819D02*
X102168095Y-115612438D01*
X102168095Y-115612438D02*
X102215714Y-115660057D01*
X102215714Y-115660057D02*
X102263333Y-115755295D01*
X102263333Y-115755295D02*
X102263333Y-115898152D01*
X102263333Y-115898152D02*
X102215714Y-115993390D01*
X102215714Y-115993390D02*
X102168095Y-116041009D01*
X102168095Y-116041009D02*
X102072857Y-116088628D01*
X102072857Y-116088628D02*
X101691905Y-116088628D01*
X103120476Y-115898152D02*
X103120476Y-116564819D01*
X102882381Y-115517200D02*
X102644286Y-116231485D01*
X102644286Y-116231485D02*
X103263333Y-116231485D01*
X97863333Y-118904819D02*
X97530000Y-118428628D01*
X97291905Y-118904819D02*
X97291905Y-117904819D01*
X97291905Y-117904819D02*
X97672857Y-117904819D01*
X97672857Y-117904819D02*
X97768095Y-117952438D01*
X97768095Y-117952438D02*
X97815714Y-118000057D01*
X97815714Y-118000057D02*
X97863333Y-118095295D01*
X97863333Y-118095295D02*
X97863333Y-118238152D01*
X97863333Y-118238152D02*
X97815714Y-118333390D01*
X97815714Y-118333390D02*
X97768095Y-118381009D01*
X97768095Y-118381009D02*
X97672857Y-118428628D01*
X97672857Y-118428628D02*
X97291905Y-118428628D01*
X98196667Y-117904819D02*
X98815714Y-117904819D01*
X98815714Y-117904819D02*
X98482381Y-118285771D01*
X98482381Y-118285771D02*
X98625238Y-118285771D01*
X98625238Y-118285771D02*
X98720476Y-118333390D01*
X98720476Y-118333390D02*
X98768095Y-118381009D01*
X98768095Y-118381009D02*
X98815714Y-118476247D01*
X98815714Y-118476247D02*
X98815714Y-118714342D01*
X98815714Y-118714342D02*
X98768095Y-118809580D01*
X98768095Y-118809580D02*
X98720476Y-118857200D01*
X98720476Y-118857200D02*
X98625238Y-118904819D01*
X98625238Y-118904819D02*
X98339524Y-118904819D01*
X98339524Y-118904819D02*
X98244286Y-118857200D01*
X98244286Y-118857200D02*
X98196667Y-118809580D01*
X98333333Y-133944819D02*
X98000000Y-133468628D01*
X97761905Y-133944819D02*
X97761905Y-132944819D01*
X97761905Y-132944819D02*
X98142857Y-132944819D01*
X98142857Y-132944819D02*
X98238095Y-132992438D01*
X98238095Y-132992438D02*
X98285714Y-133040057D01*
X98285714Y-133040057D02*
X98333333Y-133135295D01*
X98333333Y-133135295D02*
X98333333Y-133278152D01*
X98333333Y-133278152D02*
X98285714Y-133373390D01*
X98285714Y-133373390D02*
X98238095Y-133421009D01*
X98238095Y-133421009D02*
X98142857Y-133468628D01*
X98142857Y-133468628D02*
X97761905Y-133468628D01*
X98714286Y-133040057D02*
X98761905Y-132992438D01*
X98761905Y-132992438D02*
X98857143Y-132944819D01*
X98857143Y-132944819D02*
X99095238Y-132944819D01*
X99095238Y-132944819D02*
X99190476Y-132992438D01*
X99190476Y-132992438D02*
X99238095Y-133040057D01*
X99238095Y-133040057D02*
X99285714Y-133135295D01*
X99285714Y-133135295D02*
X99285714Y-133230533D01*
X99285714Y-133230533D02*
X99238095Y-133373390D01*
X99238095Y-133373390D02*
X98666667Y-133944819D01*
X98666667Y-133944819D02*
X99285714Y-133944819D01*
X99233333Y-127734819D02*
X98900000Y-127258628D01*
X98661905Y-127734819D02*
X98661905Y-126734819D01*
X98661905Y-126734819D02*
X99042857Y-126734819D01*
X99042857Y-126734819D02*
X99138095Y-126782438D01*
X99138095Y-126782438D02*
X99185714Y-126830057D01*
X99185714Y-126830057D02*
X99233333Y-126925295D01*
X99233333Y-126925295D02*
X99233333Y-127068152D01*
X99233333Y-127068152D02*
X99185714Y-127163390D01*
X99185714Y-127163390D02*
X99138095Y-127211009D01*
X99138095Y-127211009D02*
X99042857Y-127258628D01*
X99042857Y-127258628D02*
X98661905Y-127258628D01*
X100185714Y-127734819D02*
X99614286Y-127734819D01*
X99900000Y-127734819D02*
X99900000Y-126734819D01*
X99900000Y-126734819D02*
X99804762Y-126877676D01*
X99804762Y-126877676D02*
X99709524Y-126972914D01*
X99709524Y-126972914D02*
X99614286Y-127020533D01*
X108544761Y-116670057D02*
X108449523Y-116622438D01*
X108449523Y-116622438D02*
X108354285Y-116527200D01*
X108354285Y-116527200D02*
X108211428Y-116384342D01*
X108211428Y-116384342D02*
X108116190Y-116336723D01*
X108116190Y-116336723D02*
X108020952Y-116336723D01*
X108068571Y-116574819D02*
X107973333Y-116527200D01*
X107973333Y-116527200D02*
X107878095Y-116431961D01*
X107878095Y-116431961D02*
X107830476Y-116241485D01*
X107830476Y-116241485D02*
X107830476Y-115908152D01*
X107830476Y-115908152D02*
X107878095Y-115717676D01*
X107878095Y-115717676D02*
X107973333Y-115622438D01*
X107973333Y-115622438D02*
X108068571Y-115574819D01*
X108068571Y-115574819D02*
X108259047Y-115574819D01*
X108259047Y-115574819D02*
X108354285Y-115622438D01*
X108354285Y-115622438D02*
X108449523Y-115717676D01*
X108449523Y-115717676D02*
X108497142Y-115908152D01*
X108497142Y-115908152D02*
X108497142Y-116241485D01*
X108497142Y-116241485D02*
X108449523Y-116431961D01*
X108449523Y-116431961D02*
X108354285Y-116527200D01*
X108354285Y-116527200D02*
X108259047Y-116574819D01*
X108259047Y-116574819D02*
X108068571Y-116574819D01*
X108830476Y-115574819D02*
X109449523Y-115574819D01*
X109449523Y-115574819D02*
X109116190Y-115955771D01*
X109116190Y-115955771D02*
X109259047Y-115955771D01*
X109259047Y-115955771D02*
X109354285Y-116003390D01*
X109354285Y-116003390D02*
X109401904Y-116051009D01*
X109401904Y-116051009D02*
X109449523Y-116146247D01*
X109449523Y-116146247D02*
X109449523Y-116384342D01*
X109449523Y-116384342D02*
X109401904Y-116479580D01*
X109401904Y-116479580D02*
X109354285Y-116527200D01*
X109354285Y-116527200D02*
X109259047Y-116574819D01*
X109259047Y-116574819D02*
X108973333Y-116574819D01*
X108973333Y-116574819D02*
X108878095Y-116527200D01*
X108878095Y-116527200D02*
X108830476Y-116479580D01*
X107944761Y-122950057D02*
X107849523Y-122902438D01*
X107849523Y-122902438D02*
X107754285Y-122807200D01*
X107754285Y-122807200D02*
X107611428Y-122664342D01*
X107611428Y-122664342D02*
X107516190Y-122616723D01*
X107516190Y-122616723D02*
X107420952Y-122616723D01*
X107468571Y-122854819D02*
X107373333Y-122807200D01*
X107373333Y-122807200D02*
X107278095Y-122711961D01*
X107278095Y-122711961D02*
X107230476Y-122521485D01*
X107230476Y-122521485D02*
X107230476Y-122188152D01*
X107230476Y-122188152D02*
X107278095Y-121997676D01*
X107278095Y-121997676D02*
X107373333Y-121902438D01*
X107373333Y-121902438D02*
X107468571Y-121854819D01*
X107468571Y-121854819D02*
X107659047Y-121854819D01*
X107659047Y-121854819D02*
X107754285Y-121902438D01*
X107754285Y-121902438D02*
X107849523Y-121997676D01*
X107849523Y-121997676D02*
X107897142Y-122188152D01*
X107897142Y-122188152D02*
X107897142Y-122521485D01*
X107897142Y-122521485D02*
X107849523Y-122711961D01*
X107849523Y-122711961D02*
X107754285Y-122807200D01*
X107754285Y-122807200D02*
X107659047Y-122854819D01*
X107659047Y-122854819D02*
X107468571Y-122854819D01*
X108278095Y-121950057D02*
X108325714Y-121902438D01*
X108325714Y-121902438D02*
X108420952Y-121854819D01*
X108420952Y-121854819D02*
X108659047Y-121854819D01*
X108659047Y-121854819D02*
X108754285Y-121902438D01*
X108754285Y-121902438D02*
X108801904Y-121950057D01*
X108801904Y-121950057D02*
X108849523Y-122045295D01*
X108849523Y-122045295D02*
X108849523Y-122140533D01*
X108849523Y-122140533D02*
X108801904Y-122283390D01*
X108801904Y-122283390D02*
X108230476Y-122854819D01*
X108230476Y-122854819D02*
X108849523Y-122854819D01*
X108364761Y-128930057D02*
X108269523Y-128882438D01*
X108269523Y-128882438D02*
X108174285Y-128787200D01*
X108174285Y-128787200D02*
X108031428Y-128644342D01*
X108031428Y-128644342D02*
X107936190Y-128596723D01*
X107936190Y-128596723D02*
X107840952Y-128596723D01*
X107888571Y-128834819D02*
X107793333Y-128787200D01*
X107793333Y-128787200D02*
X107698095Y-128691961D01*
X107698095Y-128691961D02*
X107650476Y-128501485D01*
X107650476Y-128501485D02*
X107650476Y-128168152D01*
X107650476Y-128168152D02*
X107698095Y-127977676D01*
X107698095Y-127977676D02*
X107793333Y-127882438D01*
X107793333Y-127882438D02*
X107888571Y-127834819D01*
X107888571Y-127834819D02*
X108079047Y-127834819D01*
X108079047Y-127834819D02*
X108174285Y-127882438D01*
X108174285Y-127882438D02*
X108269523Y-127977676D01*
X108269523Y-127977676D02*
X108317142Y-128168152D01*
X108317142Y-128168152D02*
X108317142Y-128501485D01*
X108317142Y-128501485D02*
X108269523Y-128691961D01*
X108269523Y-128691961D02*
X108174285Y-128787200D01*
X108174285Y-128787200D02*
X108079047Y-128834819D01*
X108079047Y-128834819D02*
X107888571Y-128834819D01*
X109269523Y-128834819D02*
X108698095Y-128834819D01*
X108983809Y-128834819D02*
X108983809Y-127834819D01*
X108983809Y-127834819D02*
X108888571Y-127977676D01*
X108888571Y-127977676D02*
X108793333Y-128072914D01*
X108793333Y-128072914D02*
X108698095Y-128120533D01*
X145029166Y-129694819D02*
X145029166Y-130409104D01*
X145029166Y-130409104D02*
X144981547Y-130551961D01*
X144981547Y-130551961D02*
X144886309Y-130647200D01*
X144886309Y-130647200D02*
X144743452Y-130694819D01*
X144743452Y-130694819D02*
X144648214Y-130694819D01*
X145410119Y-129694819D02*
X146029166Y-129694819D01*
X146029166Y-129694819D02*
X145695833Y-130075771D01*
X145695833Y-130075771D02*
X145838690Y-130075771D01*
X145838690Y-130075771D02*
X145933928Y-130123390D01*
X145933928Y-130123390D02*
X145981547Y-130171009D01*
X145981547Y-130171009D02*
X146029166Y-130266247D01*
X146029166Y-130266247D02*
X146029166Y-130504342D01*
X146029166Y-130504342D02*
X145981547Y-130599580D01*
X145981547Y-130599580D02*
X145933928Y-130647200D01*
X145933928Y-130647200D02*
X145838690Y-130694819D01*
X145838690Y-130694819D02*
X145552976Y-130694819D01*
X145552976Y-130694819D02*
X145457738Y-130647200D01*
X145457738Y-130647200D02*
X145410119Y-130599580D01*
X93726666Y-113764819D02*
X93726666Y-114479104D01*
X93726666Y-114479104D02*
X93679047Y-114621961D01*
X93679047Y-114621961D02*
X93583809Y-114717200D01*
X93583809Y-114717200D02*
X93440952Y-114764819D01*
X93440952Y-114764819D02*
X93345714Y-114764819D01*
X94155238Y-113860057D02*
X94202857Y-113812438D01*
X94202857Y-113812438D02*
X94298095Y-113764819D01*
X94298095Y-113764819D02*
X94536190Y-113764819D01*
X94536190Y-113764819D02*
X94631428Y-113812438D01*
X94631428Y-113812438D02*
X94679047Y-113860057D01*
X94679047Y-113860057D02*
X94726666Y-113955295D01*
X94726666Y-113955295D02*
X94726666Y-114050533D01*
X94726666Y-114050533D02*
X94679047Y-114193390D01*
X94679047Y-114193390D02*
X94107619Y-114764819D01*
X94107619Y-114764819D02*
X94726666Y-114764819D01*
X93796666Y-130794819D02*
X93796666Y-131509104D01*
X93796666Y-131509104D02*
X93749047Y-131651961D01*
X93749047Y-131651961D02*
X93653809Y-131747200D01*
X93653809Y-131747200D02*
X93510952Y-131794819D01*
X93510952Y-131794819D02*
X93415714Y-131794819D01*
X94796666Y-131794819D02*
X94225238Y-131794819D01*
X94510952Y-131794819D02*
X94510952Y-130794819D01*
X94510952Y-130794819D02*
X94415714Y-130937676D01*
X94415714Y-130937676D02*
X94320476Y-131032914D01*
X94320476Y-131032914D02*
X94225238Y-131080533D01*
X141088095Y-110394819D02*
X141088095Y-109394819D01*
X141088095Y-109871009D02*
X141659523Y-109871009D01*
X141659523Y-110394819D02*
X141659523Y-109394819D01*
X142088095Y-109490057D02*
X142135714Y-109442438D01*
X142135714Y-109442438D02*
X142230952Y-109394819D01*
X142230952Y-109394819D02*
X142469047Y-109394819D01*
X142469047Y-109394819D02*
X142564285Y-109442438D01*
X142564285Y-109442438D02*
X142611904Y-109490057D01*
X142611904Y-109490057D02*
X142659523Y-109585295D01*
X142659523Y-109585295D02*
X142659523Y-109680533D01*
X142659523Y-109680533D02*
X142611904Y-109823390D01*
X142611904Y-109823390D02*
X142040476Y-110394819D01*
X142040476Y-110394819D02*
X142659523Y-110394819D01*
X95378095Y-110514819D02*
X95378095Y-109514819D01*
X95378095Y-109991009D02*
X95949523Y-109991009D01*
X95949523Y-110514819D02*
X95949523Y-109514819D01*
X96949523Y-110514819D02*
X96378095Y-110514819D01*
X96663809Y-110514819D02*
X96663809Y-109514819D01*
X96663809Y-109514819D02*
X96568571Y-109657676D01*
X96568571Y-109657676D02*
X96473333Y-109752914D01*
X96473333Y-109752914D02*
X96378095Y-109800533D01*
X115048221Y-114439580D02*
X115000602Y-114487200D01*
X115000602Y-114487200D02*
X114857745Y-114534819D01*
X114857745Y-114534819D02*
X114762507Y-114534819D01*
X114762507Y-114534819D02*
X114619650Y-114487200D01*
X114619650Y-114487200D02*
X114524412Y-114391961D01*
X114524412Y-114391961D02*
X114476793Y-114296723D01*
X114476793Y-114296723D02*
X114429174Y-114106247D01*
X114429174Y-114106247D02*
X114429174Y-113963390D01*
X114429174Y-113963390D02*
X114476793Y-113772914D01*
X114476793Y-113772914D02*
X114524412Y-113677676D01*
X114524412Y-113677676D02*
X114619650Y-113582438D01*
X114619650Y-113582438D02*
X114762507Y-113534819D01*
X114762507Y-113534819D02*
X114857745Y-113534819D01*
X114857745Y-113534819D02*
X115000602Y-113582438D01*
X115000602Y-113582438D02*
X115048221Y-113630057D01*
X115905364Y-113534819D02*
X115714888Y-113534819D01*
X115714888Y-113534819D02*
X115619650Y-113582438D01*
X115619650Y-113582438D02*
X115572031Y-113630057D01*
X115572031Y-113630057D02*
X115476793Y-113772914D01*
X115476793Y-113772914D02*
X115429174Y-113963390D01*
X115429174Y-113963390D02*
X115429174Y-114344342D01*
X115429174Y-114344342D02*
X115476793Y-114439580D01*
X115476793Y-114439580D02*
X115524412Y-114487200D01*
X115524412Y-114487200D02*
X115619650Y-114534819D01*
X115619650Y-114534819D02*
X115810126Y-114534819D01*
X115810126Y-114534819D02*
X115905364Y-114487200D01*
X115905364Y-114487200D02*
X115952983Y-114439580D01*
X115952983Y-114439580D02*
X116000602Y-114344342D01*
X116000602Y-114344342D02*
X116000602Y-114106247D01*
X116000602Y-114106247D02*
X115952983Y-114011009D01*
X115952983Y-114011009D02*
X115905364Y-113963390D01*
X115905364Y-113963390D02*
X115810126Y-113915771D01*
X115810126Y-113915771D02*
X115619650Y-113915771D01*
X115619650Y-113915771D02*
X115524412Y-113963390D01*
X115524412Y-113963390D02*
X115476793Y-114011009D01*
X115476793Y-114011009D02*
X115429174Y-114106247D01*
X142543333Y-117139580D02*
X142495714Y-117187200D01*
X142495714Y-117187200D02*
X142352857Y-117234819D01*
X142352857Y-117234819D02*
X142257619Y-117234819D01*
X142257619Y-117234819D02*
X142114762Y-117187200D01*
X142114762Y-117187200D02*
X142019524Y-117091961D01*
X142019524Y-117091961D02*
X141971905Y-116996723D01*
X141971905Y-116996723D02*
X141924286Y-116806247D01*
X141924286Y-116806247D02*
X141924286Y-116663390D01*
X141924286Y-116663390D02*
X141971905Y-116472914D01*
X141971905Y-116472914D02*
X142019524Y-116377676D01*
X142019524Y-116377676D02*
X142114762Y-116282438D01*
X142114762Y-116282438D02*
X142257619Y-116234819D01*
X142257619Y-116234819D02*
X142352857Y-116234819D01*
X142352857Y-116234819D02*
X142495714Y-116282438D01*
X142495714Y-116282438D02*
X142543333Y-116330057D01*
X143448095Y-116234819D02*
X142971905Y-116234819D01*
X142971905Y-116234819D02*
X142924286Y-116711009D01*
X142924286Y-116711009D02*
X142971905Y-116663390D01*
X142971905Y-116663390D02*
X143067143Y-116615771D01*
X143067143Y-116615771D02*
X143305238Y-116615771D01*
X143305238Y-116615771D02*
X143400476Y-116663390D01*
X143400476Y-116663390D02*
X143448095Y-116711009D01*
X143448095Y-116711009D02*
X143495714Y-116806247D01*
X143495714Y-116806247D02*
X143495714Y-117044342D01*
X143495714Y-117044342D02*
X143448095Y-117139580D01*
X143448095Y-117139580D02*
X143400476Y-117187200D01*
X143400476Y-117187200D02*
X143305238Y-117234819D01*
X143305238Y-117234819D02*
X143067143Y-117234819D01*
X143067143Y-117234819D02*
X142971905Y-117187200D01*
X142971905Y-117187200D02*
X142924286Y-117139580D01*
X104273333Y-116669580D02*
X104225714Y-116717200D01*
X104225714Y-116717200D02*
X104082857Y-116764819D01*
X104082857Y-116764819D02*
X103987619Y-116764819D01*
X103987619Y-116764819D02*
X103844762Y-116717200D01*
X103844762Y-116717200D02*
X103749524Y-116621961D01*
X103749524Y-116621961D02*
X103701905Y-116526723D01*
X103701905Y-116526723D02*
X103654286Y-116336247D01*
X103654286Y-116336247D02*
X103654286Y-116193390D01*
X103654286Y-116193390D02*
X103701905Y-116002914D01*
X103701905Y-116002914D02*
X103749524Y-115907676D01*
X103749524Y-115907676D02*
X103844762Y-115812438D01*
X103844762Y-115812438D02*
X103987619Y-115764819D01*
X103987619Y-115764819D02*
X104082857Y-115764819D01*
X104082857Y-115764819D02*
X104225714Y-115812438D01*
X104225714Y-115812438D02*
X104273333Y-115860057D01*
X105130476Y-116098152D02*
X105130476Y-116764819D01*
X104892381Y-115717200D02*
X104654286Y-116431485D01*
X104654286Y-116431485D02*
X105273333Y-116431485D01*
X97913333Y-115829580D02*
X97865714Y-115877200D01*
X97865714Y-115877200D02*
X97722857Y-115924819D01*
X97722857Y-115924819D02*
X97627619Y-115924819D01*
X97627619Y-115924819D02*
X97484762Y-115877200D01*
X97484762Y-115877200D02*
X97389524Y-115781961D01*
X97389524Y-115781961D02*
X97341905Y-115686723D01*
X97341905Y-115686723D02*
X97294286Y-115496247D01*
X97294286Y-115496247D02*
X97294286Y-115353390D01*
X97294286Y-115353390D02*
X97341905Y-115162914D01*
X97341905Y-115162914D02*
X97389524Y-115067676D01*
X97389524Y-115067676D02*
X97484762Y-114972438D01*
X97484762Y-114972438D02*
X97627619Y-114924819D01*
X97627619Y-114924819D02*
X97722857Y-114924819D01*
X97722857Y-114924819D02*
X97865714Y-114972438D01*
X97865714Y-114972438D02*
X97913333Y-115020057D01*
X98246667Y-114924819D02*
X98865714Y-114924819D01*
X98865714Y-114924819D02*
X98532381Y-115305771D01*
X98532381Y-115305771D02*
X98675238Y-115305771D01*
X98675238Y-115305771D02*
X98770476Y-115353390D01*
X98770476Y-115353390D02*
X98818095Y-115401009D01*
X98818095Y-115401009D02*
X98865714Y-115496247D01*
X98865714Y-115496247D02*
X98865714Y-115734342D01*
X98865714Y-115734342D02*
X98818095Y-115829580D01*
X98818095Y-115829580D02*
X98770476Y-115877200D01*
X98770476Y-115877200D02*
X98675238Y-115924819D01*
X98675238Y-115924819D02*
X98389524Y-115924819D01*
X98389524Y-115924819D02*
X98294286Y-115877200D01*
X98294286Y-115877200D02*
X98246667Y-115829580D01*
X98013333Y-130769580D02*
X97965714Y-130817200D01*
X97965714Y-130817200D02*
X97822857Y-130864819D01*
X97822857Y-130864819D02*
X97727619Y-130864819D01*
X97727619Y-130864819D02*
X97584762Y-130817200D01*
X97584762Y-130817200D02*
X97489524Y-130721961D01*
X97489524Y-130721961D02*
X97441905Y-130626723D01*
X97441905Y-130626723D02*
X97394286Y-130436247D01*
X97394286Y-130436247D02*
X97394286Y-130293390D01*
X97394286Y-130293390D02*
X97441905Y-130102914D01*
X97441905Y-130102914D02*
X97489524Y-130007676D01*
X97489524Y-130007676D02*
X97584762Y-129912438D01*
X97584762Y-129912438D02*
X97727619Y-129864819D01*
X97727619Y-129864819D02*
X97822857Y-129864819D01*
X97822857Y-129864819D02*
X97965714Y-129912438D01*
X97965714Y-129912438D02*
X98013333Y-129960057D01*
X98394286Y-129960057D02*
X98441905Y-129912438D01*
X98441905Y-129912438D02*
X98537143Y-129864819D01*
X98537143Y-129864819D02*
X98775238Y-129864819D01*
X98775238Y-129864819D02*
X98870476Y-129912438D01*
X98870476Y-129912438D02*
X98918095Y-129960057D01*
X98918095Y-129960057D02*
X98965714Y-130055295D01*
X98965714Y-130055295D02*
X98965714Y-130150533D01*
X98965714Y-130150533D02*
X98918095Y-130293390D01*
X98918095Y-130293390D02*
X98346667Y-130864819D01*
X98346667Y-130864819D02*
X98965714Y-130864819D01*
X98043333Y-124479580D02*
X97995714Y-124527200D01*
X97995714Y-124527200D02*
X97852857Y-124574819D01*
X97852857Y-124574819D02*
X97757619Y-124574819D01*
X97757619Y-124574819D02*
X97614762Y-124527200D01*
X97614762Y-124527200D02*
X97519524Y-124431961D01*
X97519524Y-124431961D02*
X97471905Y-124336723D01*
X97471905Y-124336723D02*
X97424286Y-124146247D01*
X97424286Y-124146247D02*
X97424286Y-124003390D01*
X97424286Y-124003390D02*
X97471905Y-123812914D01*
X97471905Y-123812914D02*
X97519524Y-123717676D01*
X97519524Y-123717676D02*
X97614762Y-123622438D01*
X97614762Y-123622438D02*
X97757619Y-123574819D01*
X97757619Y-123574819D02*
X97852857Y-123574819D01*
X97852857Y-123574819D02*
X97995714Y-123622438D01*
X97995714Y-123622438D02*
X98043333Y-123670057D01*
X98995714Y-124574819D02*
X98424286Y-124574819D01*
X98710000Y-124574819D02*
X98710000Y-123574819D01*
X98710000Y-123574819D02*
X98614762Y-123717676D01*
X98614762Y-123717676D02*
X98519524Y-123812914D01*
X98519524Y-123812914D02*
X98424286Y-123860533D01*
D11*
X137512498Y-124090000D02*
G75*
G03*
X133507502Y-124090000I-2002498J0D01*
G01*
X133507502Y-124090000D02*
G75*
G03*
X137512498Y-124090000I2002498J0D01*
G01*
X140913702Y-124090000D02*
G75*
G03*
X130106298Y-124090000I-5403702J0D01*
G01*
X130106298Y-124090000D02*
G75*
G03*
X140913702Y-124090000I5403702J0D01*
G01*
X122142498Y-126800000D02*
G75*
G03*
X118137502Y-126800000I-2002498J0D01*
G01*
X118137502Y-126800000D02*
G75*
G03*
X122142498Y-126800000I2002498J0D01*
G01*
X125543702Y-126800000D02*
G75*
G03*
X114736298Y-126800000I-5403702J0D01*
G01*
X114736298Y-126800000D02*
G75*
G03*
X125543702Y-126800000I5403702J0D01*
G01*
X102615276Y-121337500D02*
X103124724Y-121337500D01*
X102615276Y-122382500D02*
X103124724Y-122382500D01*
X102655276Y-128007500D02*
X103164724Y-128007500D01*
X102655276Y-129052500D02*
X103164724Y-129052500D01*
X102007500Y-118864724D02*
X102007500Y-118355276D01*
X103052500Y-118864724D02*
X103052500Y-118355276D01*
X97775276Y-119357500D02*
X98284724Y-119357500D01*
X97775276Y-120402500D02*
X98284724Y-120402500D01*
X100875276Y-131877500D02*
X101384724Y-131877500D01*
X100875276Y-132922500D02*
X101384724Y-132922500D01*
X100875276Y-125407500D02*
X101384724Y-125407500D01*
X100875276Y-126452500D02*
X101384724Y-126452500D01*
X109400000Y-117040000D02*
X106240000Y-117040000D01*
X109400000Y-120200000D02*
X107940000Y-120200000D01*
X109400000Y-120200000D02*
X109400000Y-119270000D01*
X109400000Y-117040000D02*
X109400000Y-117970000D01*
X107350000Y-123400000D02*
X107350000Y-124330000D01*
X107350000Y-126560000D02*
X107350000Y-125630000D01*
X107350000Y-126560000D02*
X105890000Y-126560000D01*
X107350000Y-123400000D02*
X104190000Y-123400000D01*
X107400000Y-129830000D02*
X107400000Y-130760000D01*
X107400000Y-132990000D02*
X107400000Y-132060000D01*
X107400000Y-132990000D02*
X105940000Y-132990000D01*
X107400000Y-129830000D02*
X104240000Y-129830000D01*
X144620000Y-123450000D02*
X144120000Y-123200000D01*
X144120000Y-123200000D02*
X144120000Y-123700000D01*
X144120000Y-123700000D02*
X144620000Y-123450000D01*
X95390000Y-119565000D02*
X95390000Y-120895000D01*
X95390000Y-115695000D02*
X92730000Y-115695000D01*
X95390000Y-118295000D02*
X95390000Y-115695000D01*
X95390000Y-118295000D02*
X92730000Y-118295000D01*
X95390000Y-120895000D02*
X94060000Y-120895000D01*
X92730000Y-118295000D02*
X92730000Y-115695000D01*
X92650000Y-125780000D02*
X92650000Y-124450000D01*
X92650000Y-129650000D02*
X95310000Y-129650000D01*
X92650000Y-127050000D02*
X92650000Y-129650000D01*
X92650000Y-127050000D02*
X95310000Y-127050000D01*
X92650000Y-124450000D02*
X93980000Y-124450000D01*
X95310000Y-127050000D02*
X95310000Y-129650000D01*
X116295888Y-118870000D02*
X116295888Y-120178000D01*
X117175888Y-116131000D02*
X117175888Y-116790000D01*
X117455888Y-116511000D02*
X117455888Y-116790000D01*
X117415888Y-116447000D02*
X117415888Y-116790000D01*
X115694888Y-118870000D02*
X115694888Y-120366000D01*
X116495888Y-115583000D02*
X116495888Y-116790000D01*
X115214888Y-115250000D02*
X115214888Y-120410000D01*
X116375888Y-118870000D02*
X116375888Y-120140000D01*
X117055888Y-118870000D02*
X117055888Y-119656000D01*
X116655888Y-118870000D02*
X116655888Y-119979000D01*
X115935888Y-118870000D02*
X115935888Y-120310000D01*
X116695888Y-118870000D02*
X116695888Y-119952000D01*
X117375888Y-116387000D02*
X117375888Y-116790000D01*
X115294888Y-115251000D02*
X115294888Y-120409000D01*
X116815888Y-115795000D02*
X116815888Y-116790000D01*
X117775888Y-117312000D02*
X117775888Y-118348000D01*
X116015888Y-115375000D02*
X116015888Y-116790000D01*
X116535888Y-115606000D02*
X116535888Y-116790000D01*
X116335888Y-118870000D02*
X116335888Y-120159000D01*
X117135888Y-118870000D02*
X117135888Y-119573000D01*
X116855888Y-118870000D02*
X116855888Y-119834000D01*
X117455888Y-118870000D02*
X117455888Y-119149000D01*
X117495888Y-118870000D02*
X117495888Y-119081000D01*
X117015888Y-118870000D02*
X117015888Y-119694000D01*
X115774888Y-118870000D02*
X115774888Y-120350000D01*
X115694888Y-115294000D02*
X115694888Y-116790000D01*
X115935888Y-115350000D02*
X115935888Y-116790000D01*
X116135888Y-115416000D02*
X116135888Y-116790000D01*
X115894888Y-118870000D02*
X115894888Y-120321000D01*
X117735888Y-117153000D02*
X117735888Y-118507000D01*
X116615888Y-115655000D02*
X116615888Y-116790000D01*
X115975888Y-118870000D02*
X115975888Y-120298000D01*
X117095888Y-116045000D02*
X117095888Y-116790000D01*
X117375888Y-118870000D02*
X117375888Y-119273000D01*
X116935888Y-115893000D02*
X116935888Y-116790000D01*
X116655888Y-115681000D02*
X116655888Y-116790000D01*
X116335888Y-115501000D02*
X116335888Y-116790000D01*
X115574888Y-118870000D02*
X115574888Y-120386000D01*
X117415888Y-118870000D02*
X117415888Y-119213000D01*
X115814888Y-115319000D02*
X115814888Y-116790000D01*
X117575888Y-116732000D02*
X117575888Y-118928000D01*
X117135888Y-116087000D02*
X117135888Y-116790000D01*
X115454888Y-118870000D02*
X115454888Y-120399000D01*
X115734888Y-118870000D02*
X115734888Y-120358000D01*
X115654888Y-115287000D02*
X115654888Y-116790000D01*
X115374888Y-115254000D02*
X115374888Y-120406000D01*
X116735888Y-115735000D02*
X116735888Y-116790000D01*
X116455888Y-118870000D02*
X116455888Y-120098000D01*
X116215888Y-115448000D02*
X116215888Y-116790000D01*
X115854888Y-118870000D02*
X115854888Y-120331000D01*
X115734888Y-115302000D02*
X115734888Y-116790000D01*
X115254888Y-115250000D02*
X115254888Y-120410000D01*
X116255888Y-115465000D02*
X116255888Y-116790000D01*
X117215888Y-118870000D02*
X117215888Y-119483000D01*
X115854888Y-115329000D02*
X115854888Y-116790000D01*
X115534888Y-115269000D02*
X115534888Y-116790000D01*
X116575888Y-115630000D02*
X116575888Y-116790000D01*
X116815888Y-118870000D02*
X116815888Y-119865000D01*
X117055888Y-116004000D02*
X117055888Y-116790000D01*
X115614888Y-118870000D02*
X115614888Y-120380000D01*
X116055888Y-115388000D02*
X116055888Y-116790000D01*
X115774888Y-115310000D02*
X115774888Y-116790000D01*
X115614888Y-115280000D02*
X115614888Y-116790000D01*
X116615888Y-118870000D02*
X116615888Y-120005000D01*
X116175888Y-118870000D02*
X116175888Y-120228000D01*
X115334888Y-115252000D02*
X115334888Y-120408000D01*
X115414888Y-115257000D02*
X115414888Y-120403000D01*
X115454888Y-115261000D02*
X115454888Y-116790000D01*
X115814888Y-118870000D02*
X115814888Y-120341000D01*
X117095888Y-118870000D02*
X117095888Y-119615000D01*
X116415888Y-115540000D02*
X116415888Y-116790000D01*
X116775888Y-115765000D02*
X116775888Y-116790000D01*
X116255888Y-118870000D02*
X116255888Y-120195000D01*
X117215888Y-116177000D02*
X117215888Y-116790000D01*
X115574888Y-115274000D02*
X115574888Y-116790000D01*
X116935888Y-118870000D02*
X116935888Y-119767000D01*
X116055888Y-118870000D02*
X116055888Y-120272000D01*
X116775888Y-118870000D02*
X116775888Y-119895000D01*
X116495888Y-118870000D02*
X116495888Y-120077000D01*
X116975888Y-118870000D02*
X116975888Y-119731000D01*
X116015888Y-118870000D02*
X116015888Y-120285000D01*
X116535888Y-118870000D02*
X116535888Y-120054000D01*
X116175888Y-115432000D02*
X116175888Y-116790000D01*
X112410113Y-116355000D02*
X112910113Y-116355000D01*
X117255888Y-118870000D02*
X117255888Y-119435000D01*
X117695888Y-117025000D02*
X117695888Y-118635000D01*
X117495888Y-116579000D02*
X117495888Y-116790000D01*
X116095888Y-118870000D02*
X116095888Y-120258000D01*
X115494888Y-118870000D02*
X115494888Y-120395000D01*
X117815888Y-117546000D02*
X117815888Y-118114000D01*
X116095888Y-115402000D02*
X116095888Y-116790000D01*
X117615888Y-116819000D02*
X117615888Y-118841000D01*
X116215888Y-118870000D02*
X116215888Y-120212000D01*
X116855888Y-115826000D02*
X116855888Y-116790000D01*
X117335888Y-116330000D02*
X117335888Y-116790000D01*
X117535888Y-116652000D02*
X117535888Y-119008000D01*
X116695888Y-115708000D02*
X116695888Y-116790000D01*
X116575888Y-118870000D02*
X116575888Y-120030000D01*
X116135888Y-118870000D02*
X116135888Y-120244000D01*
X112660113Y-116105000D02*
X112660113Y-116605000D01*
X116295888Y-115482000D02*
X116295888Y-116790000D01*
X116895888Y-115859000D02*
X116895888Y-116790000D01*
X115894888Y-115339000D02*
X115894888Y-116790000D01*
X116735888Y-118870000D02*
X116735888Y-119925000D01*
X115534888Y-118870000D02*
X115534888Y-120391000D01*
X116415888Y-118870000D02*
X116415888Y-120120000D01*
X116455888Y-115562000D02*
X116455888Y-116790000D01*
X117295888Y-116276000D02*
X117295888Y-116790000D01*
X116375888Y-115520000D02*
X116375888Y-116790000D01*
X117295888Y-118870000D02*
X117295888Y-119384000D01*
X117655888Y-116915000D02*
X117655888Y-118745000D01*
X116895888Y-118870000D02*
X116895888Y-119801000D01*
X115494888Y-115265000D02*
X115494888Y-116790000D01*
X117335888Y-118870000D02*
X117335888Y-119330000D01*
X116975888Y-115929000D02*
X116975888Y-116790000D01*
X115654888Y-118870000D02*
X115654888Y-120373000D01*
X117255888Y-116225000D02*
X117255888Y-116790000D01*
X115975888Y-115362000D02*
X115975888Y-116790000D01*
X117175888Y-118870000D02*
X117175888Y-119529000D01*
X117015888Y-115966000D02*
X117015888Y-116790000D01*
X117834888Y-117830000D02*
G75*
G03*
X112594888Y-117830000I-2620000J0D01*
G01*
X112594888Y-117830000D02*
G75*
G03*
X117834888Y-117830000I2620000J0D01*
G01*
X143220000Y-119623733D02*
X143220000Y-119916267D01*
X142200000Y-119623733D02*
X142200000Y-119916267D01*
X105060000Y-118453733D02*
X105060000Y-118746267D01*
X104040000Y-118453733D02*
X104040000Y-118746267D01*
X97933733Y-117410000D02*
X98226267Y-117410000D01*
X97933733Y-116390000D02*
X98226267Y-116390000D01*
X101276267Y-131020000D02*
X100983733Y-131020000D01*
X101276267Y-130000000D02*
X100983733Y-130000000D01*
X100953733Y-123540000D02*
X101246267Y-123540000D01*
X100953733Y-124560000D02*
X101246267Y-124560000D01*
%LPC*%
D12*
X138510000Y-130590000D03*
X138510000Y-117590000D03*
X132510000Y-130590000D03*
X132510000Y-117590000D03*
X126640000Y-123800000D03*
X113640000Y-123800000D03*
X126640000Y-129800000D03*
X113640000Y-129800000D03*
D13*
X101957500Y-121860000D03*
X103782500Y-121860000D03*
X101997500Y-128530000D03*
X103822500Y-128530000D03*
D14*
X102530000Y-119522500D03*
X102530000Y-117697500D03*
D13*
X97117500Y-119880000D03*
X98942500Y-119880000D03*
X100217500Y-132400000D03*
X102042500Y-132400000D03*
X100217500Y-125930000D03*
X102042500Y-125930000D03*
D15*
X107140000Y-117670000D03*
X107140000Y-119570000D03*
X110140000Y-118620000D03*
X108090000Y-124980000D03*
X105090000Y-125930000D03*
X105090000Y-124030000D03*
X108140000Y-131410000D03*
X105140000Y-132360000D03*
X105140000Y-130460000D03*
D16*
X147830000Y-123450000D03*
X147830000Y-127700000D03*
X147830000Y-119200000D03*
D17*
X94060000Y-119565000D03*
D18*
X94060000Y-117025000D03*
D17*
X93980000Y-125780000D03*
D18*
X93980000Y-128320000D03*
D19*
X146590000Y-109780000D03*
X91590000Y-109780000D03*
D20*
X113964888Y-117830000D03*
D21*
X116464888Y-117830000D03*
D22*
X142710000Y-118907500D03*
X142710000Y-120632500D03*
X104550000Y-117737500D03*
X104550000Y-119462500D03*
D23*
X98942500Y-116900000D03*
X97217500Y-116900000D03*
D24*
X101992500Y-130510000D03*
X100267500Y-130510000D03*
D23*
X100237500Y-124050000D03*
X101962500Y-124050000D03*
%LPD*%
M02*
