%TF.GenerationSoftware,KiCad,Pcbnew,(6.0.2)*%
%TF.CreationDate,2022-03-23T19:52:23-07:00*%
%TF.ProjectId,main,6d61696e-2e6b-4696-9361-645f70636258,rev?*%
%TF.SameCoordinates,Original*%
%TF.FileFunction,Legend,Bot*%
%TF.FilePolarity,Positive*%
%FSLAX46Y46*%
G04 Gerber Fmt 4.6, Leading zero omitted, Abs format (unit mm)*
G04 Created by KiCad (PCBNEW (6.0.2)) date 2022-03-23 19:52:23*
%MOMM*%
%LPD*%
G01*
G04 APERTURE LIST*
%ADD10C,0.150000*%
%ADD11C,0.120000*%
G04 APERTURE END LIST*
D10*
%TO.C,R7*%
X148104880Y-140803333D02*
X147628690Y-140470000D01*
X148104880Y-140231904D02*
X147104880Y-140231904D01*
X147104880Y-140612857D01*
X147152500Y-140708095D01*
X147200119Y-140755714D01*
X147295357Y-140803333D01*
X147438214Y-140803333D01*
X147533452Y-140755714D01*
X147581071Y-140708095D01*
X147628690Y-140612857D01*
X147628690Y-140231904D01*
X147104880Y-141136666D02*
X147104880Y-141803333D01*
X148104880Y-141374761D01*
%TO.C,R9*%
X113560880Y-140803333D02*
X113084690Y-140470000D01*
X113560880Y-140231904D02*
X112560880Y-140231904D01*
X112560880Y-140612857D01*
X112608500Y-140708095D01*
X112656119Y-140755714D01*
X112751357Y-140803333D01*
X112894214Y-140803333D01*
X112989452Y-140755714D01*
X113037071Y-140708095D01*
X113084690Y-140612857D01*
X113084690Y-140231904D01*
X113560880Y-141279523D02*
X113560880Y-141470000D01*
X113513261Y-141565238D01*
X113465642Y-141612857D01*
X113322785Y-141708095D01*
X113132309Y-141755714D01*
X112751357Y-141755714D01*
X112656119Y-141708095D01*
X112608500Y-141660476D01*
X112560880Y-141565238D01*
X112560880Y-141374761D01*
X112608500Y-141279523D01*
X112656119Y-141231904D01*
X112751357Y-141184285D01*
X112989452Y-141184285D01*
X113084690Y-141231904D01*
X113132309Y-141279523D01*
X113179928Y-141374761D01*
X113179928Y-141565238D01*
X113132309Y-141660476D01*
X113084690Y-141708095D01*
X112989452Y-141755714D01*
%TO.C,R36*%
X177091778Y-107790079D02*
X176615588Y-107456746D01*
X177091778Y-107218651D02*
X176091778Y-107218651D01*
X176091778Y-107599603D01*
X176139398Y-107694841D01*
X176187017Y-107742460D01*
X176282255Y-107790079D01*
X176425112Y-107790079D01*
X176520350Y-107742460D01*
X176567969Y-107694841D01*
X176615588Y-107599603D01*
X176615588Y-107218651D01*
X176091778Y-108123413D02*
X176091778Y-108742460D01*
X176472731Y-108409127D01*
X176472731Y-108551984D01*
X176520350Y-108647222D01*
X176567969Y-108694841D01*
X176663207Y-108742460D01*
X176901302Y-108742460D01*
X176996540Y-108694841D01*
X177044159Y-108647222D01*
X177091778Y-108551984D01*
X177091778Y-108266270D01*
X177044159Y-108171032D01*
X176996540Y-108123413D01*
X176091778Y-109599603D02*
X176091778Y-109409127D01*
X176139398Y-109313889D01*
X176187017Y-109266270D01*
X176329874Y-109171032D01*
X176520350Y-109123413D01*
X176901302Y-109123413D01*
X176996540Y-109171032D01*
X177044159Y-109218651D01*
X177091778Y-109313889D01*
X177091778Y-109504365D01*
X177044159Y-109599603D01*
X176996540Y-109647222D01*
X176901302Y-109694841D01*
X176663207Y-109694841D01*
X176567969Y-109647222D01*
X176520350Y-109599603D01*
X176472731Y-109504365D01*
X176472731Y-109313889D01*
X176520350Y-109218651D01*
X176567969Y-109171032D01*
X176663207Y-109123413D01*
%TO.C,R28*%
X196407350Y-139832239D02*
X195931160Y-139498906D01*
X196407350Y-139260811D02*
X195407350Y-139260811D01*
X195407350Y-139641763D01*
X195454970Y-139737001D01*
X195502589Y-139784620D01*
X195597827Y-139832239D01*
X195740684Y-139832239D01*
X195835922Y-139784620D01*
X195883541Y-139737001D01*
X195931160Y-139641763D01*
X195931160Y-139260811D01*
X195502589Y-140213192D02*
X195454970Y-140260811D01*
X195407350Y-140356049D01*
X195407350Y-140594144D01*
X195454970Y-140689382D01*
X195502589Y-140737001D01*
X195597827Y-140784620D01*
X195693065Y-140784620D01*
X195835922Y-140737001D01*
X196407350Y-140165573D01*
X196407350Y-140784620D01*
X195835922Y-141356049D02*
X195788303Y-141260811D01*
X195740684Y-141213192D01*
X195645446Y-141165573D01*
X195597827Y-141165573D01*
X195502589Y-141213192D01*
X195454970Y-141260811D01*
X195407350Y-141356049D01*
X195407350Y-141546525D01*
X195454970Y-141641763D01*
X195502589Y-141689382D01*
X195597827Y-141737001D01*
X195645446Y-141737001D01*
X195740684Y-141689382D01*
X195788303Y-141641763D01*
X195835922Y-141546525D01*
X195835922Y-141356049D01*
X195883541Y-141260811D01*
X195931160Y-141213192D01*
X196026398Y-141165573D01*
X196216874Y-141165573D01*
X196312112Y-141213192D01*
X196359731Y-141260811D01*
X196407350Y-141356049D01*
X196407350Y-141546525D01*
X196359731Y-141641763D01*
X196312112Y-141689382D01*
X196216874Y-141737001D01*
X196026398Y-141737001D01*
X195931160Y-141689382D01*
X195883541Y-141641763D01*
X195835922Y-141546525D01*
%TO.C,R46*%
X124981099Y-109029944D02*
X124504909Y-108696611D01*
X124981099Y-108458516D02*
X123981099Y-108458516D01*
X123981099Y-108839468D01*
X124028719Y-108934706D01*
X124076338Y-108982325D01*
X124171576Y-109029944D01*
X124314433Y-109029944D01*
X124409671Y-108982325D01*
X124457290Y-108934706D01*
X124504909Y-108839468D01*
X124504909Y-108458516D01*
X124314433Y-109887087D02*
X124981099Y-109887087D01*
X123933480Y-109648992D02*
X124647766Y-109410897D01*
X124647766Y-110029944D01*
X123981099Y-110839468D02*
X123981099Y-110648992D01*
X124028719Y-110553754D01*
X124076338Y-110506135D01*
X124219195Y-110410897D01*
X124409671Y-110363278D01*
X124790623Y-110363278D01*
X124885861Y-110410897D01*
X124933480Y-110458516D01*
X124981099Y-110553754D01*
X124981099Y-110744230D01*
X124933480Y-110839468D01*
X124885861Y-110887087D01*
X124790623Y-110934706D01*
X124552528Y-110934706D01*
X124457290Y-110887087D01*
X124409671Y-110839468D01*
X124362052Y-110744230D01*
X124362052Y-110553754D01*
X124409671Y-110458516D01*
X124457290Y-110410897D01*
X124552528Y-110363278D01*
%TO.C,R30*%
X198885192Y-139884369D02*
X198409002Y-139551036D01*
X198885192Y-139312941D02*
X197885192Y-139312941D01*
X197885192Y-139693893D01*
X197932812Y-139789131D01*
X197980431Y-139836750D01*
X198075669Y-139884369D01*
X198218526Y-139884369D01*
X198313764Y-139836750D01*
X198361383Y-139789131D01*
X198409002Y-139693893D01*
X198409002Y-139312941D01*
X197885192Y-140217703D02*
X197885192Y-140836750D01*
X198266145Y-140503417D01*
X198266145Y-140646274D01*
X198313764Y-140741512D01*
X198361383Y-140789131D01*
X198456621Y-140836750D01*
X198694716Y-140836750D01*
X198789954Y-140789131D01*
X198837573Y-140741512D01*
X198885192Y-140646274D01*
X198885192Y-140360560D01*
X198837573Y-140265322D01*
X198789954Y-140217703D01*
X197885192Y-141455798D02*
X197885192Y-141551036D01*
X197932812Y-141646274D01*
X197980431Y-141693893D01*
X198075669Y-141741512D01*
X198266145Y-141789131D01*
X198504240Y-141789131D01*
X198694716Y-141741512D01*
X198789954Y-141693893D01*
X198837573Y-141646274D01*
X198885192Y-141551036D01*
X198885192Y-141455798D01*
X198837573Y-141360560D01*
X198789954Y-141312941D01*
X198694716Y-141265322D01*
X198504240Y-141217703D01*
X198266145Y-141217703D01*
X198075669Y-141265322D01*
X197980431Y-141312941D01*
X197932812Y-141360560D01*
X197885192Y-141455798D01*
%TO.C,R44*%
X171991341Y-107779816D02*
X171515151Y-107446483D01*
X171991341Y-107208388D02*
X170991341Y-107208388D01*
X170991341Y-107589340D01*
X171038961Y-107684578D01*
X171086580Y-107732197D01*
X171181818Y-107779816D01*
X171324675Y-107779816D01*
X171419913Y-107732197D01*
X171467532Y-107684578D01*
X171515151Y-107589340D01*
X171515151Y-107208388D01*
X171324675Y-108636959D02*
X171991341Y-108636959D01*
X170943722Y-108398864D02*
X171658008Y-108160769D01*
X171658008Y-108779816D01*
X171324675Y-109589340D02*
X171991341Y-109589340D01*
X170943722Y-109351245D02*
X171658008Y-109113150D01*
X171658008Y-109732197D01*
%TO.C,R48*%
X107256695Y-109016449D02*
X106780505Y-108683116D01*
X107256695Y-108445021D02*
X106256695Y-108445021D01*
X106256695Y-108825973D01*
X106304315Y-108921211D01*
X106351934Y-108968830D01*
X106447172Y-109016449D01*
X106590029Y-109016449D01*
X106685267Y-108968830D01*
X106732886Y-108921211D01*
X106780505Y-108825973D01*
X106780505Y-108445021D01*
X106590029Y-109873592D02*
X107256695Y-109873592D01*
X106209076Y-109635497D02*
X106923362Y-109397402D01*
X106923362Y-110016449D01*
X106685267Y-110540259D02*
X106637648Y-110445021D01*
X106590029Y-110397402D01*
X106494791Y-110349783D01*
X106447172Y-110349783D01*
X106351934Y-110397402D01*
X106304315Y-110445021D01*
X106256695Y-110540259D01*
X106256695Y-110730735D01*
X106304315Y-110825973D01*
X106351934Y-110873592D01*
X106447172Y-110921211D01*
X106494791Y-110921211D01*
X106590029Y-110873592D01*
X106637648Y-110825973D01*
X106685267Y-110730735D01*
X106685267Y-110540259D01*
X106732886Y-110445021D01*
X106780505Y-110397402D01*
X106875743Y-110349783D01*
X107066219Y-110349783D01*
X107161457Y-110397402D01*
X107209076Y-110445021D01*
X107256695Y-110540259D01*
X107256695Y-110730735D01*
X107209076Y-110825973D01*
X107161457Y-110873592D01*
X107066219Y-110921211D01*
X106875743Y-110921211D01*
X106780505Y-110873592D01*
X106732886Y-110825973D01*
X106685267Y-110730735D01*
%TO.C,R11*%
X116341755Y-139924111D02*
X115865565Y-139590778D01*
X116341755Y-139352683D02*
X115341755Y-139352683D01*
X115341755Y-139733635D01*
X115389375Y-139828873D01*
X115436994Y-139876492D01*
X115532232Y-139924111D01*
X115675089Y-139924111D01*
X115770327Y-139876492D01*
X115817946Y-139828873D01*
X115865565Y-139733635D01*
X115865565Y-139352683D01*
X116341755Y-140876492D02*
X116341755Y-140305064D01*
X116341755Y-140590778D02*
X115341755Y-140590778D01*
X115484613Y-140495540D01*
X115579851Y-140400302D01*
X115627470Y-140305064D01*
X116341755Y-141828873D02*
X116341755Y-141257445D01*
X116341755Y-141543159D02*
X115341755Y-141543159D01*
X115484613Y-141447921D01*
X115579851Y-141352683D01*
X115627470Y-141257445D01*
%TO.C,R13*%
X150709695Y-139757882D02*
X150233505Y-139424549D01*
X150709695Y-139186454D02*
X149709695Y-139186454D01*
X149709695Y-139567406D01*
X149757315Y-139662644D01*
X149804934Y-139710263D01*
X149900172Y-139757882D01*
X150043029Y-139757882D01*
X150138267Y-139710263D01*
X150185886Y-139662644D01*
X150233505Y-139567406D01*
X150233505Y-139186454D01*
X150709695Y-140710263D02*
X150709695Y-140138835D01*
X150709695Y-140424549D02*
X149709695Y-140424549D01*
X149852553Y-140329311D01*
X149947791Y-140234073D01*
X149995410Y-140138835D01*
X149709695Y-141043597D02*
X149709695Y-141662644D01*
X150090648Y-141329311D01*
X150090648Y-141472168D01*
X150138267Y-141567406D01*
X150185886Y-141615025D01*
X150281124Y-141662644D01*
X150519219Y-141662644D01*
X150614457Y-141615025D01*
X150662076Y-141567406D01*
X150709695Y-141472168D01*
X150709695Y-141186454D01*
X150662076Y-141091216D01*
X150614457Y-141043597D01*
%TO.C,R45*%
X142768031Y-108960854D02*
X142291841Y-108627521D01*
X142768031Y-108389426D02*
X141768031Y-108389426D01*
X141768031Y-108770378D01*
X141815651Y-108865616D01*
X141863270Y-108913235D01*
X141958508Y-108960854D01*
X142101365Y-108960854D01*
X142196603Y-108913235D01*
X142244222Y-108865616D01*
X142291841Y-108770378D01*
X142291841Y-108389426D01*
X142101365Y-109817997D02*
X142768031Y-109817997D01*
X141720412Y-109579902D02*
X142434698Y-109341807D01*
X142434698Y-109960854D01*
X141768031Y-110817997D02*
X141768031Y-110341807D01*
X142244222Y-110294188D01*
X142196603Y-110341807D01*
X142148984Y-110437045D01*
X142148984Y-110675140D01*
X142196603Y-110770378D01*
X142244222Y-110817997D01*
X142339460Y-110865616D01*
X142577555Y-110865616D01*
X142672793Y-110817997D01*
X142720412Y-110770378D01*
X142768031Y-110675140D01*
X142768031Y-110437045D01*
X142720412Y-110341807D01*
X142672793Y-110294188D01*
%TO.C,R27*%
X201453629Y-139823490D02*
X200977439Y-139490157D01*
X201453629Y-139252062D02*
X200453629Y-139252062D01*
X200453629Y-139633014D01*
X200501249Y-139728252D01*
X200548868Y-139775871D01*
X200644106Y-139823490D01*
X200786963Y-139823490D01*
X200882201Y-139775871D01*
X200929820Y-139728252D01*
X200977439Y-139633014D01*
X200977439Y-139252062D01*
X200548868Y-140204443D02*
X200501249Y-140252062D01*
X200453629Y-140347300D01*
X200453629Y-140585395D01*
X200501249Y-140680633D01*
X200548868Y-140728252D01*
X200644106Y-140775871D01*
X200739344Y-140775871D01*
X200882201Y-140728252D01*
X201453629Y-140156824D01*
X201453629Y-140775871D01*
X200453629Y-141109205D02*
X200453629Y-141775871D01*
X201453629Y-141347300D01*
%TO.C,R12*%
X130324880Y-139819142D02*
X129848690Y-139485809D01*
X130324880Y-139247714D02*
X129324880Y-139247714D01*
X129324880Y-139628666D01*
X129372500Y-139723904D01*
X129420119Y-139771523D01*
X129515357Y-139819142D01*
X129658214Y-139819142D01*
X129753452Y-139771523D01*
X129801071Y-139723904D01*
X129848690Y-139628666D01*
X129848690Y-139247714D01*
X130324880Y-140771523D02*
X130324880Y-140200095D01*
X130324880Y-140485809D02*
X129324880Y-140485809D01*
X129467738Y-140390571D01*
X129562976Y-140295333D01*
X129610595Y-140200095D01*
X129420119Y-141152476D02*
X129372500Y-141200095D01*
X129324880Y-141295333D01*
X129324880Y-141533428D01*
X129372500Y-141628666D01*
X129420119Y-141676285D01*
X129515357Y-141723904D01*
X129610595Y-141723904D01*
X129753452Y-141676285D01*
X130324880Y-141104857D01*
X130324880Y-141723904D01*
%TO.C,R47*%
X116101128Y-109108322D02*
X115624938Y-108774989D01*
X116101128Y-108536894D02*
X115101128Y-108536894D01*
X115101128Y-108917846D01*
X115148748Y-109013084D01*
X115196367Y-109060703D01*
X115291605Y-109108322D01*
X115434462Y-109108322D01*
X115529700Y-109060703D01*
X115577319Y-109013084D01*
X115624938Y-108917846D01*
X115624938Y-108536894D01*
X115434462Y-109965465D02*
X116101128Y-109965465D01*
X115053509Y-109727370D02*
X115767795Y-109489275D01*
X115767795Y-110108322D01*
X115101128Y-110394037D02*
X115101128Y-111060703D01*
X116101128Y-110632132D01*
%TO.C,R8*%
X111020880Y-140803333D02*
X110544690Y-140470000D01*
X111020880Y-140231904D02*
X110020880Y-140231904D01*
X110020880Y-140612857D01*
X110068500Y-140708095D01*
X110116119Y-140755714D01*
X110211357Y-140803333D01*
X110354214Y-140803333D01*
X110449452Y-140755714D01*
X110497071Y-140708095D01*
X110544690Y-140612857D01*
X110544690Y-140231904D01*
X110449452Y-141374761D02*
X110401833Y-141279523D01*
X110354214Y-141231904D01*
X110258976Y-141184285D01*
X110211357Y-141184285D01*
X110116119Y-141231904D01*
X110068500Y-141279523D01*
X110020880Y-141374761D01*
X110020880Y-141565238D01*
X110068500Y-141660476D01*
X110116119Y-141708095D01*
X110211357Y-141755714D01*
X110258976Y-141755714D01*
X110354214Y-141708095D01*
X110401833Y-141660476D01*
X110449452Y-141565238D01*
X110449452Y-141374761D01*
X110497071Y-141279523D01*
X110544690Y-141231904D01*
X110639928Y-141184285D01*
X110830404Y-141184285D01*
X110925642Y-141231904D01*
X110973261Y-141279523D01*
X111020880Y-141374761D01*
X111020880Y-141565238D01*
X110973261Y-141660476D01*
X110925642Y-141708095D01*
X110830404Y-141755714D01*
X110639928Y-141755714D01*
X110544690Y-141708095D01*
X110497071Y-141660476D01*
X110449452Y-141565238D01*
%TO.C,R42*%
X174533513Y-107680826D02*
X174057323Y-107347493D01*
X174533513Y-107109398D02*
X173533513Y-107109398D01*
X173533513Y-107490350D01*
X173581133Y-107585588D01*
X173628752Y-107633207D01*
X173723990Y-107680826D01*
X173866847Y-107680826D01*
X173962085Y-107633207D01*
X174009704Y-107585588D01*
X174057323Y-107490350D01*
X174057323Y-107109398D01*
X173866847Y-108537969D02*
X174533513Y-108537969D01*
X173485894Y-108299874D02*
X174200180Y-108061779D01*
X174200180Y-108680826D01*
X173628752Y-109014160D02*
X173581133Y-109061779D01*
X173533513Y-109157017D01*
X173533513Y-109395112D01*
X173581133Y-109490350D01*
X173628752Y-109537969D01*
X173723990Y-109585588D01*
X173819228Y-109585588D01*
X173962085Y-109537969D01*
X174533513Y-108966541D01*
X174533513Y-109585588D01*
%TO.C,R43*%
X133861810Y-109152433D02*
X133385620Y-108819100D01*
X133861810Y-108581005D02*
X132861810Y-108581005D01*
X132861810Y-108961957D01*
X132909430Y-109057195D01*
X132957049Y-109104814D01*
X133052287Y-109152433D01*
X133195144Y-109152433D01*
X133290382Y-109104814D01*
X133338001Y-109057195D01*
X133385620Y-108961957D01*
X133385620Y-108581005D01*
X133195144Y-110009576D02*
X133861810Y-110009576D01*
X132814191Y-109771481D02*
X133528477Y-109533386D01*
X133528477Y-110152433D01*
X132861810Y-110438148D02*
X132861810Y-111057195D01*
X133242763Y-110723862D01*
X133242763Y-110866719D01*
X133290382Y-110961957D01*
X133338001Y-111009576D01*
X133433239Y-111057195D01*
X133671334Y-111057195D01*
X133766572Y-111009576D01*
X133814191Y-110961957D01*
X133861810Y-110866719D01*
X133861810Y-110581005D01*
X133814191Y-110485767D01*
X133766572Y-110438148D01*
%TO.C,R14*%
X132737880Y-139819142D02*
X132261690Y-139485809D01*
X132737880Y-139247714D02*
X131737880Y-139247714D01*
X131737880Y-139628666D01*
X131785500Y-139723904D01*
X131833119Y-139771523D01*
X131928357Y-139819142D01*
X132071214Y-139819142D01*
X132166452Y-139771523D01*
X132214071Y-139723904D01*
X132261690Y-139628666D01*
X132261690Y-139247714D01*
X132737880Y-140771523D02*
X132737880Y-140200095D01*
X132737880Y-140485809D02*
X131737880Y-140485809D01*
X131880738Y-140390571D01*
X131975976Y-140295333D01*
X132023595Y-140200095D01*
X132071214Y-141628666D02*
X132737880Y-141628666D01*
X131690261Y-141390571D02*
X132404547Y-141152476D01*
X132404547Y-141771523D01*
%TO.C,R10*%
X135384823Y-139789029D02*
X134908633Y-139455696D01*
X135384823Y-139217601D02*
X134384823Y-139217601D01*
X134384823Y-139598553D01*
X134432443Y-139693791D01*
X134480062Y-139741410D01*
X134575300Y-139789029D01*
X134718157Y-139789029D01*
X134813395Y-139741410D01*
X134861014Y-139693791D01*
X134908633Y-139598553D01*
X134908633Y-139217601D01*
X135384823Y-140741410D02*
X135384823Y-140169982D01*
X135384823Y-140455696D02*
X134384823Y-140455696D01*
X134527681Y-140360458D01*
X134622919Y-140265220D01*
X134670538Y-140169982D01*
X134384823Y-141360458D02*
X134384823Y-141455696D01*
X134432443Y-141550934D01*
X134480062Y-141598553D01*
X134575300Y-141646172D01*
X134765776Y-141693791D01*
X135003871Y-141693791D01*
X135194347Y-141646172D01*
X135289585Y-141598553D01*
X135337204Y-141550934D01*
X135384823Y-141455696D01*
X135384823Y-141360458D01*
X135337204Y-141265220D01*
X135289585Y-141217601D01*
X135194347Y-141169982D01*
X135003871Y-141122363D01*
X134765776Y-141122363D01*
X134575300Y-141169982D01*
X134480062Y-141217601D01*
X134432443Y-141265220D01*
X134384823Y-141360458D01*
D11*
%TO.C,R7*%
X148175000Y-143272742D02*
X148175000Y-143747258D01*
X147130000Y-143272742D02*
X147130000Y-143747258D01*
%TO.C,R9*%
X113885000Y-143272742D02*
X113885000Y-143747258D01*
X112840000Y-143272742D02*
X112840000Y-143747258D01*
%TO.C,R36*%
X177052500Y-105172742D02*
X177052500Y-105647258D01*
X176007500Y-105172742D02*
X176007500Y-105647258D01*
%TO.C,R28*%
X195390000Y-143272742D02*
X195390000Y-143747258D01*
X196435000Y-143272742D02*
X196435000Y-143747258D01*
%TO.C,R46*%
X123937500Y-106442742D02*
X123937500Y-106917258D01*
X124982500Y-106442742D02*
X124982500Y-106917258D01*
%TO.C,R30*%
X197930000Y-143272742D02*
X197930000Y-143747258D01*
X198975000Y-143272742D02*
X198975000Y-143747258D01*
%TO.C,R44*%
X171972500Y-105172742D02*
X171972500Y-105647258D01*
X170927500Y-105172742D02*
X170927500Y-105647258D01*
%TO.C,R48*%
X106157500Y-106442742D02*
X106157500Y-106917258D01*
X107202500Y-106442742D02*
X107202500Y-106917258D01*
%TO.C,R11*%
X115380000Y-143272742D02*
X115380000Y-143747258D01*
X116425000Y-143272742D02*
X116425000Y-143747258D01*
%TO.C,R13*%
X150715000Y-143272742D02*
X150715000Y-143747258D01*
X149670000Y-143272742D02*
X149670000Y-143747258D01*
%TO.C,R45*%
X142762500Y-106442742D02*
X142762500Y-106917258D01*
X141717500Y-106442742D02*
X141717500Y-106917258D01*
%TO.C,R27*%
X200470000Y-143272742D02*
X200470000Y-143747258D01*
X201515000Y-143272742D02*
X201515000Y-143747258D01*
%TO.C,R12*%
X130395000Y-143272742D02*
X130395000Y-143747258D01*
X129350000Y-143272742D02*
X129350000Y-143747258D01*
%TO.C,R47*%
X116092500Y-106442742D02*
X116092500Y-106917258D01*
X115047500Y-106442742D02*
X115047500Y-106917258D01*
%TO.C,R8*%
X111345000Y-143272742D02*
X111345000Y-143747258D01*
X110300000Y-143272742D02*
X110300000Y-143747258D01*
%TO.C,R42*%
X174512500Y-105172742D02*
X174512500Y-105647258D01*
X173467500Y-105172742D02*
X173467500Y-105647258D01*
%TO.C,R43*%
X133872500Y-106442742D02*
X133872500Y-106917258D01*
X132827500Y-106442742D02*
X132827500Y-106917258D01*
%TO.C,R14*%
X132935000Y-143272742D02*
X132935000Y-143747258D01*
X131890000Y-143272742D02*
X131890000Y-143747258D01*
%TO.C,R10*%
X135475000Y-143272742D02*
X135475000Y-143747258D01*
X134430000Y-143272742D02*
X134430000Y-143747258D01*
%TD*%
M02*
