M48
; DRILL file {KiCad (6.0.2)} date Wed Mar 23 19:52:39 2022
; FORMAT={-:-/ absolute / inch / decimal}
; #@! TF.CreationDate,2022-03-23T19:52:39-07:00
; #@! TF.GenerationSoftware,Kicad,Pcbnew,(6.0.2)
; #@! TF.FileFunction,Plated,1,2,PTH
FMAT,2
INCH
; #@! TA.AperFunction,Plated,PTH,ViaDrill
T1C0.0200
; #@! TA.AperFunction,Plated,PTH,ComponentDrill
T2C0.0236
; #@! TA.AperFunction,Plated,PTH,ComponentDrill
T3C0.0315
; #@! TA.AperFunction,Plated,PTH,ComponentDrill
T4C0.0335
; #@! TA.AperFunction,Plated,PTH,ComponentDrill
T5C0.0394
%
G90
G05
T1
X4.21Y-5.17
X4.3Y-4.36
X4.31Y-5.5
X4.3317Y-5.1378
X4.34Y-4.88
X4.34Y-5.35
X4.46Y-5.39
X4.46Y-5.48
X4.53Y-4.48
X4.56Y-4.57
X4.6004Y-5.0364
X4.6309Y-4.4685
X4.66Y-5.325
X4.66Y-5.48
X4.72Y-4.87
X4.73Y-5.685
X4.8Y-4.65
X4.875Y-5.1388
X4.935Y-5.68
X5.0354Y-5.2323
X5.065Y-5.49
X5.08Y-5.41
X5.0925Y-4.4783
X5.14Y-5.17
X5.15Y-5.48
X5.19Y-4.65
X5.2Y-5.15
X5.23Y-5.08
X5.24Y-4.76
X5.27Y-5.28
X5.28Y-4.77
X5.3Y-5.49
X5.32Y-4.5
X5.35Y-4.36
X5.35Y-4.84
X5.42Y-4.66
X5.49Y-5.69
X5.5Y-4.57
X5.51Y-4.53
X5.5344Y-5.3425
X5.54Y-4.43
X5.5659Y-5.0955
X5.57Y-4.41
X5.64Y-4.37
X5.64Y-5.71
X5.71Y-4.8
X5.7136Y-5.2746
X5.75Y-4.8
X5.79Y-4.8
X5.825Y-5.115
X5.83Y-4.8
X5.87Y-4.7965
X5.915Y-5.125
X5.9201Y-5.0
X5.93Y-4.63
X5.94Y-4.17
X5.96Y-4.6
X5.98Y-4.2
X5.99Y-4.56
X6.0Y-4.32
X6.0Y-4.91
X6.015Y-4.845
X6.03Y-4.765
X6.035Y-4.94
X6.0405Y-4.8705
X6.045Y-4.365
X6.06Y-5.62
X6.08Y-5.34
X6.085Y-5.175
X6.0896Y-4.9596
X6.1Y-5.695
X6.115Y-5.41
X6.13Y-4.56
X6.135Y-4.775
X6.15Y-5.3
X6.18Y-4.745
X6.19Y-4.59
X6.2Y-5.44
X6.25Y-5.29
X6.27Y-5.54
X6.33Y-4.72
X6.36Y-4.82
X6.4Y-4.69
X6.4Y-5.38
X6.43Y-5.49
X6.44Y-4.65
X6.49Y-5.33
X6.5Y-4.46
X6.52Y-4.23
X6.56Y-4.73
X6.56Y-5.19
X6.59Y-4.12
X6.69Y-4.24
X6.71Y-4.49
X6.71Y-4.69
X6.74Y-5.31
X6.81Y-5.1993
X6.86Y-5.167
X6.89Y-4.46
X6.97Y-5.14
X7.03Y-4.43
X7.0396Y-4.6892
X7.07Y-5.15
X7.1112Y-4.185
X7.16Y-5.05
X7.16Y-5.11
X7.17Y-4.24
X7.21Y-4.99
X7.22Y-4.3
X7.2488Y-5.1298
X7.25Y-5.35
X7.26Y-4.95
X7.28Y-4.27
X7.33Y-4.94
X7.35Y-5.62
X7.38Y-4.91
X7.39Y-4.42
X7.39Y-4.68
X7.39Y-5.4
X7.4035Y-4.189
X7.43Y-4.86
X7.44Y-4.78
X7.44Y-5.34
X7.48Y-5.15
X7.5236Y-5.2323
X7.55Y-4.22
X7.56Y-5.75
X7.563Y-4.4803
X7.615Y-5.74
X7.62Y-5.45
X7.64Y-4.365
X7.69Y-4.75
X7.705Y-4.415
X7.7146Y-5.2579
X7.755Y-5.1
X7.78Y-4.13
X7.82Y-4.92
X7.86Y-4.525
X7.885Y-5.38
X7.92Y-4.63
X7.95Y-4.135
X7.96Y-4.86
X8.015Y-5.74
X8.07Y-4.63
X8.155Y-5.05
X8.165Y-4.87
X8.17Y-4.92
X8.17Y-5.48
X8.2254Y-4.1998
X8.48Y-5.135
T3
X5.38Y-5.04
X5.4587Y-5.04
X6.3681Y-5.55
X6.3681Y-5.6287
X6.6481Y-5.465
X6.6481Y-5.565
X6.6481Y-5.665
X8.05Y-5.15
X8.05Y-5.2287
T4
X8.3924Y-4.7516
X8.3924Y-4.9484
T5
X4.1Y-4.45
X4.1Y-4.55
X4.1Y-4.65
X4.1Y-4.75
X4.1Y-4.96
X4.1Y-5.06
X4.1Y-5.35
X4.1Y-5.45
X4.1Y-5.7
X4.1Y-5.8
X4.2Y-4.0
X4.2996Y-5.85
X4.3Y-4.0
X4.3996Y-5.85
X4.4996Y-5.85
X4.55Y-4.0
X4.5996Y-5.85
X4.65Y-4.0
X4.9Y-4.0
X5.0Y-4.0
X5.03Y-4.7096
X5.03Y-4.8096
X5.03Y-4.9096
X5.03Y-5.0096
X5.0496Y-5.85
X5.1496Y-5.85
X5.2496Y-5.85
X5.25Y-4.0
X5.3496Y-5.85
X5.35Y-4.0
X5.6Y-4.0
X5.7Y-4.0
X5.7494Y-5.85
X5.8494Y-5.85
X5.9494Y-5.85
X5.95Y-4.0
X6.05Y-4.0
X6.15Y-4.0
X6.25Y-4.0
X6.2633Y-5.85
X6.35Y-4.0
X6.3633Y-5.85
X6.45Y-4.0
X6.4633Y-5.85
X6.55Y-4.0
X6.5633Y-5.85
X6.65Y-4.0
X6.6633Y-5.85
X6.75Y-4.0
X6.7633Y-5.85
X6.85Y-4.0
X6.8633Y-5.85
X6.95Y-4.0
X6.9633Y-5.85
X7.05Y-4.0
X7.0633Y-5.85
X7.15Y-4.0
X7.1633Y-5.85
X7.25Y-4.0
X7.2633Y-5.85
X7.35Y-4.0
X7.3633Y-5.85
X7.45Y-4.0
X7.55Y-4.0
X7.65Y-4.0
X7.7131Y-5.85
X7.8131Y-5.85
X7.9Y-4.0
X7.9131Y-5.85
X8.0Y-4.0
X8.0131Y-5.85
X8.1131Y-5.85
X8.2131Y-5.85
X8.3Y-4.0
X8.4Y-4.0
X8.4Y-4.2504
X8.4Y-4.3504
X8.4Y-4.4504
X8.4Y-4.5504
X8.45Y-5.75
X8.45Y-5.85
T2
G00X8.4849Y-4.7122
M15
G01X8.5125Y-4.7122
M16
G05
G00X8.5125Y-4.9878
M15
G01X8.4849Y-4.9878
M16
G05
T0
M30
