%TF.GenerationSoftware,KiCad,Pcbnew,(6.0.2)*%
%TF.CreationDate,2022-03-23T19:52:23-07:00*%
%TF.ProjectId,main,6d61696e-2e6b-4696-9361-645f70636258,rev?*%
%TF.SameCoordinates,Original*%
%TF.FileFunction,Soldermask,Top*%
%TF.FilePolarity,Negative*%
%FSLAX46Y46*%
G04 Gerber Fmt 4.6, Leading zero omitted, Abs format (unit mm)*
G04 Created by KiCad (PCBNEW (6.0.2)) date 2022-03-23 19:52:23*
%MOMM*%
%LPD*%
G01*
G04 APERTURE LIST*
G04 Aperture macros list*
%AMRoundRect*
0 Rectangle with rounded corners*
0 $1 Rounding radius*
0 $2 $3 $4 $5 $6 $7 $8 $9 X,Y pos of 4 corners*
0 Add a 4 corners polygon primitive as box body*
4,1,4,$2,$3,$4,$5,$6,$7,$8,$9,$2,$3,0*
0 Add four circle primitives for the rounded corners*
1,1,$1+$1,$2,$3*
1,1,$1+$1,$4,$5*
1,1,$1+$1,$6,$7*
1,1,$1+$1,$8,$9*
0 Add four rect primitives between the rounded corners*
20,1,$1+$1,$2,$3,$4,$5,0*
20,1,$1+$1,$4,$5,$6,$7,0*
20,1,$1+$1,$6,$7,$8,$9,0*
20,1,$1+$1,$8,$9,$2,$3,0*%
G04 Aperture macros list end*
%ADD10RoundRect,0.250800X-0.200000X-0.275000X0.200000X-0.275000X0.200000X0.275000X-0.200000X0.275000X0*%
%ADD11RoundRect,0.275800X-0.250000X0.225000X-0.250000X-0.225000X0.250000X-0.225000X0.250000X0.225000X0*%
%ADD12RoundRect,0.050800X0.550000X-0.300000X0.550000X0.300000X-0.550000X0.300000X-0.550000X-0.300000X0*%
%ADD13RoundRect,0.050800X-0.850000X-0.850000X0.850000X-0.850000X0.850000X0.850000X-0.850000X0.850000X0*%
%ADD14O,1.801600X1.801600*%
%ADD15RoundRect,0.050800X0.850000X-0.850000X0.850000X0.850000X-0.850000X0.850000X-0.850000X-0.850000X0*%
%ADD16RoundRect,0.275800X0.225000X0.250000X-0.225000X0.250000X-0.225000X-0.250000X0.225000X-0.250000X0*%
%ADD17RoundRect,0.275800X0.250000X-0.225000X0.250000X0.225000X-0.250000X0.225000X-0.250000X-0.225000X0*%
%ADD18RoundRect,0.250800X-0.275000X0.200000X-0.275000X-0.200000X0.275000X-0.200000X0.275000X0.200000X0*%
%ADD19RoundRect,0.050800X-0.850000X0.850000X-0.850000X-0.850000X0.850000X-0.850000X0.850000X0.850000X0*%
%ADD20RoundRect,0.250800X0.275000X-0.200000X0.275000X0.200000X-0.275000X0.200000X-0.275000X-0.200000X0*%
%ADD21RoundRect,0.050800X0.800000X-0.800000X0.800000X0.800000X-0.800000X0.800000X-0.800000X-0.800000X0*%
%ADD22C,1.701600*%
%ADD23RoundRect,0.275800X-0.225000X-0.250000X0.225000X-0.250000X0.225000X0.250000X-0.225000X0.250000X0*%
%ADD24RoundRect,0.050800X0.850000X0.850000X-0.850000X0.850000X-0.850000X-0.850000X0.850000X-0.850000X0*%
%ADD25RoundRect,0.200800X0.512500X0.150000X-0.512500X0.150000X-0.512500X-0.150000X0.512500X-0.150000X0*%
%ADD26RoundRect,0.125800X0.075000X-0.662500X0.075000X0.662500X-0.075000X0.662500X-0.075000X-0.662500X0*%
%ADD27RoundRect,0.125800X0.662500X-0.075000X0.662500X0.075000X-0.662500X0.075000X-0.662500X-0.075000X0*%
%ADD28RoundRect,0.250800X0.200000X0.275000X-0.200000X0.275000X-0.200000X-0.275000X0.200000X-0.275000X0*%
%ADD29RoundRect,0.050800X-0.800000X-0.800000X0.800000X-0.800000X0.800000X0.800000X-0.800000X0.800000X0*%
%ADD30RoundRect,0.200800X-0.150000X0.587500X-0.150000X-0.587500X0.150000X-0.587500X0.150000X0.587500X0*%
%ADD31RoundRect,0.050800X-0.800000X0.800000X-0.800000X-0.800000X0.800000X-0.800000X0.800000X0.800000X0*%
%ADD32RoundRect,0.050800X0.675000X-0.200000X0.675000X0.200000X-0.675000X0.200000X-0.675000X-0.200000X0*%
%ADD33C,1.551600*%
%ADD34RoundRect,0.050800X0.950000X-0.600000X0.950000X0.600000X-0.950000X0.600000X-0.950000X-0.600000X0*%
%ADD35O,2.001600X1.301600*%
%ADD36RoundRect,0.050800X0.950000X-0.750000X0.950000X0.750000X-0.950000X0.750000X-0.950000X-0.750000X0*%
%ADD37C,1.541600*%
%ADD38RoundRect,0.050800X-0.600000X-0.200000X0.600000X-0.200000X0.600000X0.200000X-0.600000X0.200000X0*%
G04 APERTURE END LIST*
D10*
%TO.C,R24*%
X206185000Y-107950000D03*
X207835000Y-107950000D03*
%TD*%
D11*
%TO.C,C11*%
X124079000Y-118605000D03*
X124079000Y-120155000D03*
%TD*%
D10*
%TO.C,R4*%
X208725000Y-125730000D03*
X210375000Y-125730000D03*
%TD*%
D12*
%TO.C,Y1*%
X146050000Y-126430000D03*
X146050000Y-125030000D03*
%TD*%
D13*
%TO.C,J19*%
X104140000Y-144780000D03*
D14*
X104140000Y-147320000D03*
%TD*%
D15*
%TO.C,J8*%
X195912500Y-148590000D03*
D14*
X198452500Y-148590000D03*
X200992500Y-148590000D03*
X203532500Y-148590000D03*
X206072500Y-148590000D03*
X208612500Y-148590000D03*
%TD*%
D15*
%TO.C,J18*%
X124460000Y-101600000D03*
D14*
X127000000Y-101600000D03*
%TD*%
D16*
%TO.C,C31*%
X174003000Y-107950000D03*
X172453000Y-107950000D03*
%TD*%
D17*
%TO.C,C26*%
X198452500Y-137935000D03*
X198452500Y-136385000D03*
%TD*%
D18*
%TO.C,R2*%
X184482500Y-143955000D03*
X184482500Y-145605000D03*
%TD*%
D16*
%TO.C,C19*%
X113297000Y-140970000D03*
X111747000Y-140970000D03*
%TD*%
D19*
%TO.C,J5*%
X135880000Y-148590000D03*
D14*
X133340000Y-148590000D03*
X130800000Y-148590000D03*
X128260000Y-148590000D03*
%TD*%
D16*
%TO.C,C4*%
X210325000Y-128270000D03*
X208775000Y-128270000D03*
%TD*%
D19*
%TO.C,J4*%
X116830000Y-148590000D03*
D14*
X114290000Y-148590000D03*
X111750000Y-148590000D03*
X109210000Y-148590000D03*
%TD*%
D11*
%TO.C,C17*%
X118442500Y-142735000D03*
X118442500Y-144285000D03*
%TD*%
D20*
%TO.C,R29*%
X200992500Y-144335000D03*
X200992500Y-142685000D03*
%TD*%
D16*
%TO.C,C24*%
X202705000Y-115570000D03*
X201155000Y-115570000D03*
%TD*%
D18*
%TO.C,R6*%
X123952000Y-124778000D03*
X123952000Y-126428000D03*
%TD*%
D11*
%TO.C,C21*%
X145112500Y-142735000D03*
X145112500Y-144285000D03*
%TD*%
D21*
%TO.C,C1*%
X161749500Y-142970000D03*
D22*
X161749500Y-140970000D03*
%TD*%
D11*
%TO.C,C37*%
X109220000Y-105905000D03*
X109220000Y-107455000D03*
%TD*%
D17*
%TO.C,C30*%
X179070000Y-106185000D03*
X179070000Y-104635000D03*
%TD*%
D13*
%TO.C,J21*%
X214630000Y-146050000D03*
D14*
X214630000Y-148590000D03*
%TD*%
D20*
%TO.C,R38*%
X115570000Y-107505000D03*
X115570000Y-105855000D03*
%TD*%
D16*
%TO.C,C22*%
X203675000Y-106800000D03*
X202125000Y-106800000D03*
%TD*%
D20*
%TO.C,R41*%
X133350000Y-107505000D03*
X133350000Y-105855000D03*
%TD*%
D23*
%TO.C,C2*%
X157164500Y-144780000D03*
X158714500Y-144780000D03*
%TD*%
D24*
%TO.C,J11*%
X104140000Y-128524000D03*
D14*
X104140000Y-125984000D03*
%TD*%
D24*
%TO.C,J3*%
X127762000Y-127244000D03*
D14*
X127762000Y-124704000D03*
X127762000Y-122164000D03*
X127762000Y-119624000D03*
%TD*%
D15*
%TO.C,J14*%
X106680000Y-101600000D03*
D14*
X109220000Y-101600000D03*
%TD*%
D23*
%TO.C,C8*%
X203187000Y-119380000D03*
X204737000Y-119380000D03*
%TD*%
D20*
%TO.C,R40*%
X142240000Y-107505000D03*
X142240000Y-105855000D03*
%TD*%
D25*
%TO.C,U2*%
X203067500Y-112710000D03*
X203067500Y-111760000D03*
X203067500Y-110810000D03*
X200792500Y-110810000D03*
X200792500Y-112710000D03*
%TD*%
D20*
%TO.C,R31*%
X198452500Y-144335000D03*
X198452500Y-142685000D03*
%TD*%
D18*
%TO.C,R15*%
X147652500Y-142685000D03*
X147652500Y-144335000D03*
%TD*%
D26*
%TO.C,U$1*%
X152190000Y-127352500D03*
X152690000Y-127352500D03*
X153190000Y-127352500D03*
X153690000Y-127352500D03*
X154190000Y-127352500D03*
X154690000Y-127352500D03*
X155190000Y-127352500D03*
X155690000Y-127352500D03*
X156190000Y-127352500D03*
X156690000Y-127352500D03*
X157190000Y-127352500D03*
X157690000Y-127352500D03*
D27*
X159102500Y-125940000D03*
X159102500Y-125440000D03*
X159102500Y-124940000D03*
X159102500Y-124440000D03*
X159102500Y-123940000D03*
X159102500Y-123440000D03*
X159102500Y-122940000D03*
X159102500Y-122440000D03*
X159102500Y-121940000D03*
X159102500Y-121440000D03*
X159102500Y-120940000D03*
X159102500Y-120440000D03*
D26*
X157690000Y-119027500D03*
X157190000Y-119027500D03*
X156690000Y-119027500D03*
X156190000Y-119027500D03*
X155690000Y-119027500D03*
X155190000Y-119027500D03*
X154690000Y-119027500D03*
X154190000Y-119027500D03*
X153690000Y-119027500D03*
X153190000Y-119027500D03*
X152690000Y-119027500D03*
X152190000Y-119027500D03*
D27*
X150777500Y-120440000D03*
X150777500Y-120940000D03*
X150777500Y-121440000D03*
X150777500Y-121940000D03*
X150777500Y-122440000D03*
X150777500Y-122940000D03*
X150777500Y-123440000D03*
X150777500Y-123940000D03*
X150777500Y-124440000D03*
X150777500Y-124940000D03*
X150777500Y-125440000D03*
X150777500Y-125940000D03*
%TD*%
D28*
%TO.C,FB1*%
X210375000Y-130810000D03*
X208725000Y-130810000D03*
%TD*%
D15*
%TO.C,J17*%
X133350000Y-101600000D03*
D14*
X135890000Y-101600000D03*
%TD*%
D20*
%TO.C,R32*%
X195912500Y-144335000D03*
X195912500Y-142685000D03*
%TD*%
D23*
%TO.C,C12*%
X142550000Y-126675000D03*
X144100000Y-126675000D03*
%TD*%
D19*
%TO.C,J6*%
X151115000Y-148590000D03*
D14*
X148575000Y-148590000D03*
X146035000Y-148590000D03*
%TD*%
D17*
%TO.C,C32*%
X168910000Y-106185000D03*
X168910000Y-104635000D03*
%TD*%
D20*
%TO.C,R39*%
X124460000Y-107505000D03*
X124460000Y-105855000D03*
%TD*%
D15*
%TO.C,J12*%
X200660000Y-101600000D03*
D14*
X203200000Y-101600000D03*
%TD*%
D29*
%TO.C,C9*%
X136652000Y-128016000D03*
D22*
X138652000Y-128016000D03*
%TD*%
D18*
%TO.C,R18*%
X134952500Y-142685000D03*
X134952500Y-144335000D03*
%TD*%
D17*
%TO.C,C23*%
X207900000Y-110725000D03*
X207900000Y-112275000D03*
%TD*%
D30*
%TO.C,Q1*%
X210500000Y-141302500D03*
X208600000Y-141302500D03*
X209550000Y-143177500D03*
%TD*%
D11*
%TO.C,C33*%
X135890000Y-105905000D03*
X135890000Y-107455000D03*
%TD*%
D28*
%TO.C,R23*%
X207835000Y-105410000D03*
X206185000Y-105410000D03*
%TD*%
D10*
%TO.C,R5*%
X208725000Y-123190000D03*
X210375000Y-123190000D03*
%TD*%
D31*
%TO.C,C6*%
X204470000Y-130810000D03*
D22*
X204470000Y-132810000D03*
%TD*%
D11*
%TO.C,C15*%
X152732500Y-142735000D03*
X152732500Y-144285000D03*
%TD*%
%TO.C,C16*%
X127332500Y-142735000D03*
X127332500Y-144285000D03*
%TD*%
D18*
%TO.C,R16*%
X110822500Y-142685000D03*
X110822500Y-144335000D03*
%TD*%
D20*
%TO.C,R3*%
X109728000Y-117411000D03*
X109728000Y-115761000D03*
%TD*%
D16*
%TO.C,C5*%
X210325000Y-120650000D03*
X208775000Y-120650000D03*
%TD*%
D18*
%TO.C,R26*%
X206072500Y-142685000D03*
X206072500Y-144335000D03*
%TD*%
D16*
%TO.C,C25*%
X197625000Y-110490000D03*
X196075000Y-110490000D03*
%TD*%
D10*
%TO.C,R25*%
X209057500Y-138430000D03*
X210707500Y-138430000D03*
%TD*%
D20*
%TO.C,R37*%
X106680000Y-107505000D03*
X106680000Y-105855000D03*
%TD*%
%TO.C,R33*%
X173990000Y-106235000D03*
X173990000Y-104585000D03*
%TD*%
%TO.C,R34*%
X176530000Y-106235000D03*
X176530000Y-104585000D03*
%TD*%
D16*
%TO.C,C7*%
X200165000Y-129540000D03*
X198615000Y-129540000D03*
%TD*%
D19*
%TO.C,J9*%
X194310000Y-101600000D03*
D14*
X191770000Y-101600000D03*
X189230000Y-101600000D03*
X186690000Y-101600000D03*
X184150000Y-101600000D03*
X181610000Y-101600000D03*
X179070000Y-101600000D03*
X176530000Y-101600000D03*
X173990000Y-101600000D03*
X171450000Y-101600000D03*
X168910000Y-101600000D03*
X166370000Y-101600000D03*
X163830000Y-101600000D03*
X161290000Y-101600000D03*
X158750000Y-101600000D03*
X156210000Y-101600000D03*
X153670000Y-101600000D03*
X151130000Y-101600000D03*
%TD*%
D11*
%TO.C,C36*%
X118110000Y-105905000D03*
X118110000Y-107455000D03*
%TD*%
%TO.C,C34*%
X144780000Y-105905000D03*
X144780000Y-107455000D03*
%TD*%
%TO.C,C18*%
X137492500Y-142735000D03*
X137492500Y-144285000D03*
%TD*%
D13*
%TO.C,J7*%
X213360000Y-107960000D03*
D14*
X213360000Y-110500000D03*
X213360000Y-113040000D03*
X213360000Y-115580000D03*
%TD*%
D32*
%TO.C,J1*%
X213167500Y-124490000D03*
X213167500Y-123840000D03*
X213167500Y-123190000D03*
X213167500Y-122540000D03*
X213167500Y-121890000D03*
D33*
X213167500Y-120690000D03*
D34*
X215867500Y-120290000D03*
D35*
X215867500Y-126690000D03*
X215867500Y-119690000D03*
D33*
X213167500Y-125690000D03*
D36*
X215867500Y-124190000D03*
D34*
X215867500Y-126090000D03*
D36*
X215867500Y-122190000D03*
%TD*%
D18*
%TO.C,R19*%
X115902500Y-142685000D03*
X115902500Y-144335000D03*
%TD*%
D23*
%TO.C,C13*%
X142575000Y-125050000D03*
X144125000Y-125050000D03*
%TD*%
D16*
%TO.C,C14*%
X132347000Y-140716000D03*
X130797000Y-140716000D03*
%TD*%
D20*
%TO.C,R35*%
X171450000Y-106235000D03*
X171450000Y-104585000D03*
%TD*%
D11*
%TO.C,C27*%
X193372500Y-142735000D03*
X193372500Y-144285000D03*
%TD*%
D13*
%TO.C,J10*%
X104140000Y-135890000D03*
D14*
X104140000Y-138430000D03*
%TD*%
D18*
%TO.C,R21*%
X150192500Y-142685000D03*
X150192500Y-144335000D03*
%TD*%
D15*
%TO.C,J15*%
X115570000Y-101600000D03*
D14*
X118110000Y-101600000D03*
%TD*%
D11*
%TO.C,C29*%
X203532500Y-142735000D03*
X203532500Y-144285000D03*
%TD*%
D15*
%TO.C,J20*%
X210820000Y-101600000D03*
D14*
X213360000Y-101600000D03*
%TD*%
D11*
%TO.C,C3*%
X213360000Y-128765000D03*
X213360000Y-130315000D03*
%TD*%
%TO.C,C35*%
X127000000Y-105905000D03*
X127000000Y-107455000D03*
%TD*%
D18*
%TO.C,R22*%
X132412500Y-142685000D03*
X132412500Y-144335000D03*
%TD*%
%TO.C,R20*%
X129872500Y-142685000D03*
X129872500Y-144335000D03*
%TD*%
D11*
%TO.C,C28*%
X198120000Y-113525000D03*
X198120000Y-115075000D03*
%TD*%
D37*
%TO.C,RV1*%
X168861500Y-138811000D03*
X168861500Y-141351000D03*
X168861500Y-143891000D03*
%TD*%
D23*
%TO.C,C10*%
X149085000Y-128778000D03*
X150635000Y-128778000D03*
%TD*%
D19*
%TO.C,J2*%
X187027500Y-148590000D03*
D14*
X184487500Y-148590000D03*
X181947500Y-148590000D03*
X179407500Y-148590000D03*
X176867500Y-148590000D03*
X174327500Y-148590000D03*
X171787500Y-148590000D03*
X169247500Y-148590000D03*
X166707500Y-148590000D03*
X164167500Y-148590000D03*
X161627500Y-148590000D03*
X159087500Y-148590000D03*
%TD*%
D20*
%TO.C,R1*%
X112268000Y-117411000D03*
X112268000Y-115761000D03*
%TD*%
D24*
%TO.C,J13*%
X104140000Y-120650000D03*
D14*
X104140000Y-118110000D03*
X104140000Y-115570000D03*
X104140000Y-113030000D03*
%TD*%
D18*
%TO.C,R17*%
X113362500Y-142685000D03*
X113362500Y-144335000D03*
%TD*%
D15*
%TO.C,J16*%
X142240000Y-101600000D03*
D14*
X144780000Y-101600000D03*
%TD*%
D11*
%TO.C,C20*%
X108282500Y-142735000D03*
X108282500Y-144285000D03*
%TD*%
D38*
%TO.C,U1*%
X200600000Y-122237500D03*
X200600000Y-122872500D03*
X200600000Y-123507500D03*
X200600000Y-124142500D03*
X200600000Y-124777500D03*
X200600000Y-125412500D03*
X200600000Y-126047500D03*
X200600000Y-126682500D03*
X205800000Y-126682500D03*
X205800000Y-126047500D03*
X205800000Y-125412500D03*
X205800000Y-124777500D03*
X205800000Y-124142500D03*
X205800000Y-123507500D03*
X205800000Y-122872500D03*
X205800000Y-122237500D03*
%TD*%
G36*
X152892463Y-126691696D02*
G01*
X152912978Y-126722401D01*
X152949486Y-126729664D01*
X152980620Y-126708861D01*
X152987352Y-126692611D01*
X152988939Y-126691393D01*
X152990787Y-126692159D01*
X152991200Y-126693376D01*
X152991200Y-128012193D01*
X152990200Y-128013925D01*
X152988200Y-128013925D01*
X152987537Y-128013304D01*
X152967022Y-127982599D01*
X152930514Y-127975336D01*
X152899380Y-127996139D01*
X152892648Y-128012389D01*
X152891061Y-128013607D01*
X152889213Y-128012841D01*
X152888800Y-128011624D01*
X152888800Y-126692807D01*
X152889800Y-126691075D01*
X152891800Y-126691075D01*
X152892463Y-126691696D01*
G37*
G36*
X156892463Y-126691696D02*
G01*
X156912978Y-126722401D01*
X156949486Y-126729664D01*
X156980620Y-126708861D01*
X156987352Y-126692611D01*
X156988939Y-126691393D01*
X156990787Y-126692159D01*
X156991200Y-126693376D01*
X156991200Y-128012193D01*
X156990200Y-128013925D01*
X156988200Y-128013925D01*
X156987537Y-128013304D01*
X156967022Y-127982599D01*
X156930514Y-127975336D01*
X156899380Y-127996139D01*
X156892648Y-128012389D01*
X156891061Y-128013607D01*
X156889213Y-128012841D01*
X156888800Y-128011624D01*
X156888800Y-126692807D01*
X156889800Y-126691075D01*
X156891800Y-126691075D01*
X156892463Y-126691696D01*
G37*
G36*
X154392463Y-126691696D02*
G01*
X154412978Y-126722401D01*
X154449486Y-126729664D01*
X154480620Y-126708861D01*
X154487352Y-126692611D01*
X154488939Y-126691393D01*
X154490787Y-126692159D01*
X154491200Y-126693376D01*
X154491200Y-128012193D01*
X154490200Y-128013925D01*
X154488200Y-128013925D01*
X154487537Y-128013304D01*
X154467022Y-127982599D01*
X154430514Y-127975336D01*
X154399380Y-127996139D01*
X154392648Y-128012389D01*
X154391061Y-128013607D01*
X154389213Y-128012841D01*
X154388800Y-128011624D01*
X154388800Y-126692807D01*
X154389800Y-126691075D01*
X154391800Y-126691075D01*
X154392463Y-126691696D01*
G37*
G36*
X157392463Y-126691696D02*
G01*
X157412978Y-126722401D01*
X157449486Y-126729664D01*
X157480620Y-126708861D01*
X157487352Y-126692611D01*
X157488939Y-126691393D01*
X157490787Y-126692159D01*
X157491200Y-126693376D01*
X157491200Y-128012193D01*
X157490200Y-128013925D01*
X157488200Y-128013925D01*
X157487537Y-128013304D01*
X157467022Y-127982599D01*
X157430514Y-127975336D01*
X157399380Y-127996139D01*
X157392648Y-128012389D01*
X157391061Y-128013607D01*
X157389213Y-128012841D01*
X157388800Y-128011624D01*
X157388800Y-126692807D01*
X157389800Y-126691075D01*
X157391800Y-126691075D01*
X157392463Y-126691696D01*
G37*
G36*
X154892463Y-126691696D02*
G01*
X154912978Y-126722401D01*
X154949486Y-126729664D01*
X154980620Y-126708861D01*
X154987352Y-126692611D01*
X154988939Y-126691393D01*
X154990787Y-126692159D01*
X154991200Y-126693376D01*
X154991200Y-128012193D01*
X154990200Y-128013925D01*
X154988200Y-128013925D01*
X154987537Y-128013304D01*
X154967022Y-127982599D01*
X154930514Y-127975336D01*
X154899380Y-127996139D01*
X154892648Y-128012389D01*
X154891061Y-128013607D01*
X154889213Y-128012841D01*
X154888800Y-128011624D01*
X154888800Y-126692807D01*
X154889800Y-126691075D01*
X154891800Y-126691075D01*
X154892463Y-126691696D01*
G37*
G36*
X153892463Y-126691696D02*
G01*
X153912978Y-126722401D01*
X153949486Y-126729664D01*
X153980620Y-126708861D01*
X153987352Y-126692611D01*
X153988939Y-126691393D01*
X153990787Y-126692159D01*
X153991200Y-126693376D01*
X153991200Y-128012193D01*
X153990200Y-128013925D01*
X153988200Y-128013925D01*
X153987537Y-128013304D01*
X153967022Y-127982599D01*
X153930514Y-127975336D01*
X153899380Y-127996139D01*
X153892648Y-128012389D01*
X153891061Y-128013607D01*
X153889213Y-128012841D01*
X153888800Y-128011624D01*
X153888800Y-126692807D01*
X153889800Y-126691075D01*
X153891800Y-126691075D01*
X153892463Y-126691696D01*
G37*
G36*
X153392463Y-126691696D02*
G01*
X153412978Y-126722401D01*
X153449486Y-126729664D01*
X153480620Y-126708861D01*
X153487352Y-126692611D01*
X153488939Y-126691393D01*
X153490787Y-126692159D01*
X153491200Y-126693376D01*
X153491200Y-128012193D01*
X153490200Y-128013925D01*
X153488200Y-128013925D01*
X153487537Y-128013304D01*
X153467022Y-127982599D01*
X153430514Y-127975336D01*
X153399380Y-127996139D01*
X153392648Y-128012389D01*
X153391061Y-128013607D01*
X153389213Y-128012841D01*
X153388800Y-128011624D01*
X153388800Y-126692807D01*
X153389800Y-126691075D01*
X153391800Y-126691075D01*
X153392463Y-126691696D01*
G37*
G36*
X156392463Y-126691696D02*
G01*
X156412978Y-126722401D01*
X156449486Y-126729664D01*
X156480620Y-126708861D01*
X156487352Y-126692611D01*
X156488939Y-126691393D01*
X156490787Y-126692159D01*
X156491200Y-126693376D01*
X156491200Y-128012193D01*
X156490200Y-128013925D01*
X156488200Y-128013925D01*
X156487537Y-128013304D01*
X156467022Y-127982599D01*
X156430514Y-127975336D01*
X156399380Y-127996139D01*
X156392648Y-128012389D01*
X156391061Y-128013607D01*
X156389213Y-128012841D01*
X156388800Y-128011624D01*
X156388800Y-126692807D01*
X156389800Y-126691075D01*
X156391800Y-126691075D01*
X156392463Y-126691696D01*
G37*
G36*
X155892463Y-126691696D02*
G01*
X155912978Y-126722401D01*
X155949486Y-126729664D01*
X155980620Y-126708861D01*
X155987352Y-126692611D01*
X155988939Y-126691393D01*
X155990787Y-126692159D01*
X155991200Y-126693376D01*
X155991200Y-128012193D01*
X155990200Y-128013925D01*
X155988200Y-128013925D01*
X155987537Y-128013304D01*
X155967022Y-127982599D01*
X155930514Y-127975336D01*
X155899380Y-127996139D01*
X155892648Y-128012389D01*
X155891061Y-128013607D01*
X155889213Y-128012841D01*
X155888800Y-128011624D01*
X155888800Y-126692807D01*
X155889800Y-126691075D01*
X155891800Y-126691075D01*
X155892463Y-126691696D01*
G37*
G36*
X155392463Y-126691696D02*
G01*
X155412978Y-126722401D01*
X155449486Y-126729664D01*
X155480620Y-126708861D01*
X155487352Y-126692611D01*
X155488939Y-126691393D01*
X155490787Y-126692159D01*
X155491200Y-126693376D01*
X155491200Y-128012193D01*
X155490200Y-128013925D01*
X155488200Y-128013925D01*
X155487537Y-128013304D01*
X155467022Y-127982599D01*
X155430514Y-127975336D01*
X155399380Y-127996139D01*
X155392648Y-128012389D01*
X155391061Y-128013607D01*
X155389213Y-128012841D01*
X155388800Y-128011624D01*
X155388800Y-126692807D01*
X155389800Y-126691075D01*
X155391800Y-126691075D01*
X155392463Y-126691696D01*
G37*
G36*
X152392463Y-126691696D02*
G01*
X152412978Y-126722401D01*
X152449486Y-126729664D01*
X152480620Y-126708861D01*
X152487352Y-126692611D01*
X152488939Y-126691393D01*
X152490787Y-126692159D01*
X152491200Y-126693376D01*
X152491200Y-128012193D01*
X152490200Y-128013925D01*
X152488200Y-128013925D01*
X152487537Y-128013304D01*
X152467022Y-127982599D01*
X152430514Y-127975336D01*
X152399380Y-127996139D01*
X152392648Y-128012389D01*
X152391061Y-128013607D01*
X152389213Y-128012841D01*
X152388800Y-128011624D01*
X152388800Y-126692807D01*
X152389800Y-126691075D01*
X152391800Y-126691075D01*
X152392463Y-126691696D01*
G37*
G36*
X159763925Y-125639800D02*
G01*
X159763925Y-125641800D01*
X159763304Y-125642463D01*
X159732599Y-125662978D01*
X159725336Y-125699486D01*
X159746139Y-125730620D01*
X159762389Y-125737352D01*
X159763607Y-125738939D01*
X159762841Y-125740787D01*
X159761624Y-125741200D01*
X158442807Y-125741200D01*
X158441075Y-125740200D01*
X158441075Y-125738200D01*
X158441696Y-125737537D01*
X158472401Y-125717022D01*
X158479664Y-125680514D01*
X158458861Y-125649380D01*
X158442611Y-125642648D01*
X158441393Y-125641061D01*
X158442159Y-125639213D01*
X158443376Y-125638800D01*
X159762193Y-125638800D01*
X159763925Y-125639800D01*
G37*
G36*
X151438925Y-125639800D02*
G01*
X151438925Y-125641800D01*
X151438304Y-125642463D01*
X151407599Y-125662978D01*
X151400336Y-125699486D01*
X151421139Y-125730620D01*
X151437389Y-125737352D01*
X151438607Y-125738939D01*
X151437841Y-125740787D01*
X151436624Y-125741200D01*
X150117807Y-125741200D01*
X150116075Y-125740200D01*
X150116075Y-125738200D01*
X150116696Y-125737537D01*
X150147401Y-125717022D01*
X150154664Y-125680514D01*
X150133861Y-125649380D01*
X150117611Y-125642648D01*
X150116393Y-125641061D01*
X150117159Y-125639213D01*
X150118376Y-125638800D01*
X151437193Y-125638800D01*
X151438925Y-125639800D01*
G37*
G36*
X159763925Y-125139800D02*
G01*
X159763925Y-125141800D01*
X159763304Y-125142463D01*
X159732599Y-125162978D01*
X159725336Y-125199486D01*
X159746139Y-125230620D01*
X159762389Y-125237352D01*
X159763607Y-125238939D01*
X159762841Y-125240787D01*
X159761624Y-125241200D01*
X158442807Y-125241200D01*
X158441075Y-125240200D01*
X158441075Y-125238200D01*
X158441696Y-125237537D01*
X158472401Y-125217022D01*
X158479664Y-125180514D01*
X158458861Y-125149380D01*
X158442611Y-125142648D01*
X158441393Y-125141061D01*
X158442159Y-125139213D01*
X158443376Y-125138800D01*
X159762193Y-125138800D01*
X159763925Y-125139800D01*
G37*
G36*
X151438925Y-125139800D02*
G01*
X151438925Y-125141800D01*
X151438304Y-125142463D01*
X151407599Y-125162978D01*
X151400336Y-125199486D01*
X151421139Y-125230620D01*
X151437389Y-125237352D01*
X151438607Y-125238939D01*
X151437841Y-125240787D01*
X151436624Y-125241200D01*
X150117807Y-125241200D01*
X150116075Y-125240200D01*
X150116075Y-125238200D01*
X150116696Y-125237537D01*
X150147401Y-125217022D01*
X150154664Y-125180514D01*
X150133861Y-125149380D01*
X150117611Y-125142648D01*
X150116393Y-125141061D01*
X150117159Y-125139213D01*
X150118376Y-125138800D01*
X151437193Y-125138800D01*
X151438925Y-125139800D01*
G37*
G36*
X159763925Y-124639800D02*
G01*
X159763925Y-124641800D01*
X159763304Y-124642463D01*
X159732599Y-124662978D01*
X159725336Y-124699486D01*
X159746139Y-124730620D01*
X159762389Y-124737352D01*
X159763607Y-124738939D01*
X159762841Y-124740787D01*
X159761624Y-124741200D01*
X158442807Y-124741200D01*
X158441075Y-124740200D01*
X158441075Y-124738200D01*
X158441696Y-124737537D01*
X158472401Y-124717022D01*
X158479664Y-124680514D01*
X158458861Y-124649380D01*
X158442611Y-124642648D01*
X158441393Y-124641061D01*
X158442159Y-124639213D01*
X158443376Y-124638800D01*
X159762193Y-124638800D01*
X159763925Y-124639800D01*
G37*
G36*
X151438925Y-124639800D02*
G01*
X151438925Y-124641800D01*
X151438304Y-124642463D01*
X151407599Y-124662978D01*
X151400336Y-124699486D01*
X151421139Y-124730620D01*
X151437389Y-124737352D01*
X151438607Y-124738939D01*
X151437841Y-124740787D01*
X151436624Y-124741200D01*
X150117807Y-124741200D01*
X150116075Y-124740200D01*
X150116075Y-124738200D01*
X150116696Y-124737537D01*
X150147401Y-124717022D01*
X150154664Y-124680514D01*
X150133861Y-124649380D01*
X150117611Y-124642648D01*
X150116393Y-124641061D01*
X150117159Y-124639213D01*
X150118376Y-124638800D01*
X151437193Y-124638800D01*
X151438925Y-124639800D01*
G37*
G36*
X151438925Y-124139800D02*
G01*
X151438925Y-124141800D01*
X151438304Y-124142463D01*
X151407599Y-124162978D01*
X151400336Y-124199486D01*
X151421139Y-124230620D01*
X151437389Y-124237352D01*
X151438607Y-124238939D01*
X151437841Y-124240787D01*
X151436624Y-124241200D01*
X150117807Y-124241200D01*
X150116075Y-124240200D01*
X150116075Y-124238200D01*
X150116696Y-124237537D01*
X150147401Y-124217022D01*
X150154664Y-124180514D01*
X150133861Y-124149380D01*
X150117611Y-124142648D01*
X150116393Y-124141061D01*
X150117159Y-124139213D01*
X150118376Y-124138800D01*
X151437193Y-124138800D01*
X151438925Y-124139800D01*
G37*
G36*
X159763925Y-124139800D02*
G01*
X159763925Y-124141800D01*
X159763304Y-124142463D01*
X159732599Y-124162978D01*
X159725336Y-124199486D01*
X159746139Y-124230620D01*
X159762389Y-124237352D01*
X159763607Y-124238939D01*
X159762841Y-124240787D01*
X159761624Y-124241200D01*
X158442807Y-124241200D01*
X158441075Y-124240200D01*
X158441075Y-124238200D01*
X158441696Y-124237537D01*
X158472401Y-124217022D01*
X158479664Y-124180514D01*
X158458861Y-124149380D01*
X158442611Y-124142648D01*
X158441393Y-124141061D01*
X158442159Y-124139213D01*
X158443376Y-124138800D01*
X159762193Y-124138800D01*
X159763925Y-124139800D01*
G37*
G36*
X159763925Y-123639800D02*
G01*
X159763925Y-123641800D01*
X159763304Y-123642463D01*
X159732599Y-123662978D01*
X159725336Y-123699486D01*
X159746139Y-123730620D01*
X159762389Y-123737352D01*
X159763607Y-123738939D01*
X159762841Y-123740787D01*
X159761624Y-123741200D01*
X158442807Y-123741200D01*
X158441075Y-123740200D01*
X158441075Y-123738200D01*
X158441696Y-123737537D01*
X158472401Y-123717022D01*
X158479664Y-123680514D01*
X158458861Y-123649380D01*
X158442611Y-123642648D01*
X158441393Y-123641061D01*
X158442159Y-123639213D01*
X158443376Y-123638800D01*
X159762193Y-123638800D01*
X159763925Y-123639800D01*
G37*
G36*
X151438925Y-123639800D02*
G01*
X151438925Y-123641800D01*
X151438304Y-123642463D01*
X151407599Y-123662978D01*
X151400336Y-123699486D01*
X151421139Y-123730620D01*
X151437389Y-123737352D01*
X151438607Y-123738939D01*
X151437841Y-123740787D01*
X151436624Y-123741200D01*
X150117807Y-123741200D01*
X150116075Y-123740200D01*
X150116075Y-123738200D01*
X150116696Y-123737537D01*
X150147401Y-123717022D01*
X150154664Y-123680514D01*
X150133861Y-123649380D01*
X150117611Y-123642648D01*
X150116393Y-123641061D01*
X150117159Y-123639213D01*
X150118376Y-123638800D01*
X151437193Y-123638800D01*
X151438925Y-123639800D01*
G37*
G36*
X159763925Y-123139800D02*
G01*
X159763925Y-123141800D01*
X159763304Y-123142463D01*
X159732599Y-123162978D01*
X159725336Y-123199486D01*
X159746139Y-123230620D01*
X159762389Y-123237352D01*
X159763607Y-123238939D01*
X159762841Y-123240787D01*
X159761624Y-123241200D01*
X158442807Y-123241200D01*
X158441075Y-123240200D01*
X158441075Y-123238200D01*
X158441696Y-123237537D01*
X158472401Y-123217022D01*
X158479664Y-123180514D01*
X158458861Y-123149380D01*
X158442611Y-123142648D01*
X158441393Y-123141061D01*
X158442159Y-123139213D01*
X158443376Y-123138800D01*
X159762193Y-123138800D01*
X159763925Y-123139800D01*
G37*
G36*
X151438925Y-123139800D02*
G01*
X151438925Y-123141800D01*
X151438304Y-123142463D01*
X151407599Y-123162978D01*
X151400336Y-123199486D01*
X151421139Y-123230620D01*
X151437389Y-123237352D01*
X151438607Y-123238939D01*
X151437841Y-123240787D01*
X151436624Y-123241200D01*
X150117807Y-123241200D01*
X150116075Y-123240200D01*
X150116075Y-123238200D01*
X150116696Y-123237537D01*
X150147401Y-123217022D01*
X150154664Y-123180514D01*
X150133861Y-123149380D01*
X150117611Y-123142648D01*
X150116393Y-123141061D01*
X150117159Y-123139213D01*
X150118376Y-123138800D01*
X151437193Y-123138800D01*
X151438925Y-123139800D01*
G37*
G36*
X159763925Y-122639800D02*
G01*
X159763925Y-122641800D01*
X159763304Y-122642463D01*
X159732599Y-122662978D01*
X159725336Y-122699486D01*
X159746139Y-122730620D01*
X159762389Y-122737352D01*
X159763607Y-122738939D01*
X159762841Y-122740787D01*
X159761624Y-122741200D01*
X158442807Y-122741200D01*
X158441075Y-122740200D01*
X158441075Y-122738200D01*
X158441696Y-122737537D01*
X158472401Y-122717022D01*
X158479664Y-122680514D01*
X158458861Y-122649380D01*
X158442611Y-122642648D01*
X158441393Y-122641061D01*
X158442159Y-122639213D01*
X158443376Y-122638800D01*
X159762193Y-122638800D01*
X159763925Y-122639800D01*
G37*
G36*
X151438925Y-122639800D02*
G01*
X151438925Y-122641800D01*
X151438304Y-122642463D01*
X151407599Y-122662978D01*
X151400336Y-122699486D01*
X151421139Y-122730620D01*
X151437389Y-122737352D01*
X151438607Y-122738939D01*
X151437841Y-122740787D01*
X151436624Y-122741200D01*
X150117807Y-122741200D01*
X150116075Y-122740200D01*
X150116075Y-122738200D01*
X150116696Y-122737537D01*
X150147401Y-122717022D01*
X150154664Y-122680514D01*
X150133861Y-122649380D01*
X150117611Y-122642648D01*
X150116393Y-122641061D01*
X150117159Y-122639213D01*
X150118376Y-122638800D01*
X151437193Y-122638800D01*
X151438925Y-122639800D01*
G37*
G36*
X159763925Y-122139800D02*
G01*
X159763925Y-122141800D01*
X159763304Y-122142463D01*
X159732599Y-122162978D01*
X159725336Y-122199486D01*
X159746139Y-122230620D01*
X159762389Y-122237352D01*
X159763607Y-122238939D01*
X159762841Y-122240787D01*
X159761624Y-122241200D01*
X158442807Y-122241200D01*
X158441075Y-122240200D01*
X158441075Y-122238200D01*
X158441696Y-122237537D01*
X158472401Y-122217022D01*
X158479664Y-122180514D01*
X158458861Y-122149380D01*
X158442611Y-122142648D01*
X158441393Y-122141061D01*
X158442159Y-122139213D01*
X158443376Y-122138800D01*
X159762193Y-122138800D01*
X159763925Y-122139800D01*
G37*
G36*
X151438925Y-122139800D02*
G01*
X151438925Y-122141800D01*
X151438304Y-122142463D01*
X151407599Y-122162978D01*
X151400336Y-122199486D01*
X151421139Y-122230620D01*
X151437389Y-122237352D01*
X151438607Y-122238939D01*
X151437841Y-122240787D01*
X151436624Y-122241200D01*
X150117807Y-122241200D01*
X150116075Y-122240200D01*
X150116075Y-122238200D01*
X150116696Y-122237537D01*
X150147401Y-122217022D01*
X150154664Y-122180514D01*
X150133861Y-122149380D01*
X150117611Y-122142648D01*
X150116393Y-122141061D01*
X150117159Y-122139213D01*
X150118376Y-122138800D01*
X151437193Y-122138800D01*
X151438925Y-122139800D01*
G37*
G36*
X159763925Y-121639800D02*
G01*
X159763925Y-121641800D01*
X159763304Y-121642463D01*
X159732599Y-121662978D01*
X159725336Y-121699486D01*
X159746139Y-121730620D01*
X159762389Y-121737352D01*
X159763607Y-121738939D01*
X159762841Y-121740787D01*
X159761624Y-121741200D01*
X158442807Y-121741200D01*
X158441075Y-121740200D01*
X158441075Y-121738200D01*
X158441696Y-121737537D01*
X158472401Y-121717022D01*
X158479664Y-121680514D01*
X158458861Y-121649380D01*
X158442611Y-121642648D01*
X158441393Y-121641061D01*
X158442159Y-121639213D01*
X158443376Y-121638800D01*
X159762193Y-121638800D01*
X159763925Y-121639800D01*
G37*
G36*
X151438925Y-121639800D02*
G01*
X151438925Y-121641800D01*
X151438304Y-121642463D01*
X151407599Y-121662978D01*
X151400336Y-121699486D01*
X151421139Y-121730620D01*
X151437389Y-121737352D01*
X151438607Y-121738939D01*
X151437841Y-121740787D01*
X151436624Y-121741200D01*
X150117807Y-121741200D01*
X150116075Y-121740200D01*
X150116075Y-121738200D01*
X150116696Y-121737537D01*
X150147401Y-121717022D01*
X150154664Y-121680514D01*
X150133861Y-121649380D01*
X150117611Y-121642648D01*
X150116393Y-121641061D01*
X150117159Y-121639213D01*
X150118376Y-121638800D01*
X151437193Y-121638800D01*
X151438925Y-121639800D01*
G37*
G36*
X159763925Y-121139800D02*
G01*
X159763925Y-121141800D01*
X159763304Y-121142463D01*
X159732599Y-121162978D01*
X159725336Y-121199486D01*
X159746139Y-121230620D01*
X159762389Y-121237352D01*
X159763607Y-121238939D01*
X159762841Y-121240787D01*
X159761624Y-121241200D01*
X158442807Y-121241200D01*
X158441075Y-121240200D01*
X158441075Y-121238200D01*
X158441696Y-121237537D01*
X158472401Y-121217022D01*
X158479664Y-121180514D01*
X158458861Y-121149380D01*
X158442611Y-121142648D01*
X158441393Y-121141061D01*
X158442159Y-121139213D01*
X158443376Y-121138800D01*
X159762193Y-121138800D01*
X159763925Y-121139800D01*
G37*
G36*
X151438925Y-121139800D02*
G01*
X151438925Y-121141800D01*
X151438304Y-121142463D01*
X151407599Y-121162978D01*
X151400336Y-121199486D01*
X151421139Y-121230620D01*
X151437389Y-121237352D01*
X151438607Y-121238939D01*
X151437841Y-121240787D01*
X151436624Y-121241200D01*
X150117807Y-121241200D01*
X150116075Y-121240200D01*
X150116075Y-121238200D01*
X150116696Y-121237537D01*
X150147401Y-121217022D01*
X150154664Y-121180514D01*
X150133861Y-121149380D01*
X150117611Y-121142648D01*
X150116393Y-121141061D01*
X150117159Y-121139213D01*
X150118376Y-121138800D01*
X151437193Y-121138800D01*
X151438925Y-121139800D01*
G37*
G36*
X159763925Y-120639800D02*
G01*
X159763925Y-120641800D01*
X159763304Y-120642463D01*
X159732599Y-120662978D01*
X159725336Y-120699486D01*
X159746139Y-120730620D01*
X159762389Y-120737352D01*
X159763607Y-120738939D01*
X159762841Y-120740787D01*
X159761624Y-120741200D01*
X158442807Y-120741200D01*
X158441075Y-120740200D01*
X158441075Y-120738200D01*
X158441696Y-120737537D01*
X158472401Y-120717022D01*
X158479664Y-120680514D01*
X158458861Y-120649380D01*
X158442611Y-120642648D01*
X158441393Y-120641061D01*
X158442159Y-120639213D01*
X158443376Y-120638800D01*
X159762193Y-120638800D01*
X159763925Y-120639800D01*
G37*
G36*
X151438925Y-120639800D02*
G01*
X151438925Y-120641800D01*
X151438304Y-120642463D01*
X151407599Y-120662978D01*
X151400336Y-120699486D01*
X151421139Y-120730620D01*
X151437389Y-120737352D01*
X151438607Y-120738939D01*
X151437841Y-120740787D01*
X151436624Y-120741200D01*
X150117807Y-120741200D01*
X150116075Y-120740200D01*
X150116075Y-120738200D01*
X150116696Y-120737537D01*
X150147401Y-120717022D01*
X150154664Y-120680514D01*
X150133861Y-120649380D01*
X150117611Y-120642648D01*
X150116393Y-120641061D01*
X150117159Y-120639213D01*
X150118376Y-120638800D01*
X151437193Y-120638800D01*
X151438925Y-120639800D01*
G37*
G36*
X156392463Y-118366696D02*
G01*
X156412978Y-118397401D01*
X156449486Y-118404664D01*
X156480620Y-118383861D01*
X156487352Y-118367611D01*
X156488939Y-118366393D01*
X156490787Y-118367159D01*
X156491200Y-118368376D01*
X156491200Y-119687193D01*
X156490200Y-119688925D01*
X156488200Y-119688925D01*
X156487537Y-119688304D01*
X156467022Y-119657599D01*
X156430514Y-119650336D01*
X156399380Y-119671139D01*
X156392648Y-119687389D01*
X156391061Y-119688607D01*
X156389213Y-119687841D01*
X156388800Y-119686624D01*
X156388800Y-118367807D01*
X156389800Y-118366075D01*
X156391800Y-118366075D01*
X156392463Y-118366696D01*
G37*
G36*
X157392463Y-118366696D02*
G01*
X157412978Y-118397401D01*
X157449486Y-118404664D01*
X157480620Y-118383861D01*
X157487352Y-118367611D01*
X157488939Y-118366393D01*
X157490787Y-118367159D01*
X157491200Y-118368376D01*
X157491200Y-119687193D01*
X157490200Y-119688925D01*
X157488200Y-119688925D01*
X157487537Y-119688304D01*
X157467022Y-119657599D01*
X157430514Y-119650336D01*
X157399380Y-119671139D01*
X157392648Y-119687389D01*
X157391061Y-119688607D01*
X157389213Y-119687841D01*
X157388800Y-119686624D01*
X157388800Y-118367807D01*
X157389800Y-118366075D01*
X157391800Y-118366075D01*
X157392463Y-118366696D01*
G37*
G36*
X155892463Y-118366696D02*
G01*
X155912978Y-118397401D01*
X155949486Y-118404664D01*
X155980620Y-118383861D01*
X155987352Y-118367611D01*
X155988939Y-118366393D01*
X155990787Y-118367159D01*
X155991200Y-118368376D01*
X155991200Y-119687193D01*
X155990200Y-119688925D01*
X155988200Y-119688925D01*
X155987537Y-119688304D01*
X155967022Y-119657599D01*
X155930514Y-119650336D01*
X155899380Y-119671139D01*
X155892648Y-119687389D01*
X155891061Y-119688607D01*
X155889213Y-119687841D01*
X155888800Y-119686624D01*
X155888800Y-118367807D01*
X155889800Y-118366075D01*
X155891800Y-118366075D01*
X155892463Y-118366696D01*
G37*
G36*
X153892463Y-118366696D02*
G01*
X153912978Y-118397401D01*
X153949486Y-118404664D01*
X153980620Y-118383861D01*
X153987352Y-118367611D01*
X153988939Y-118366393D01*
X153990787Y-118367159D01*
X153991200Y-118368376D01*
X153991200Y-119687193D01*
X153990200Y-119688925D01*
X153988200Y-119688925D01*
X153987537Y-119688304D01*
X153967022Y-119657599D01*
X153930514Y-119650336D01*
X153899380Y-119671139D01*
X153892648Y-119687389D01*
X153891061Y-119688607D01*
X153889213Y-119687841D01*
X153888800Y-119686624D01*
X153888800Y-118367807D01*
X153889800Y-118366075D01*
X153891800Y-118366075D01*
X153892463Y-118366696D01*
G37*
G36*
X153392463Y-118366696D02*
G01*
X153412978Y-118397401D01*
X153449486Y-118404664D01*
X153480620Y-118383861D01*
X153487352Y-118367611D01*
X153488939Y-118366393D01*
X153490787Y-118367159D01*
X153491200Y-118368376D01*
X153491200Y-119687193D01*
X153490200Y-119688925D01*
X153488200Y-119688925D01*
X153487537Y-119688304D01*
X153467022Y-119657599D01*
X153430514Y-119650336D01*
X153399380Y-119671139D01*
X153392648Y-119687389D01*
X153391061Y-119688607D01*
X153389213Y-119687841D01*
X153388800Y-119686624D01*
X153388800Y-118367807D01*
X153389800Y-118366075D01*
X153391800Y-118366075D01*
X153392463Y-118366696D01*
G37*
G36*
X154892463Y-118366696D02*
G01*
X154912978Y-118397401D01*
X154949486Y-118404664D01*
X154980620Y-118383861D01*
X154987352Y-118367611D01*
X154988939Y-118366393D01*
X154990787Y-118367159D01*
X154991200Y-118368376D01*
X154991200Y-119687193D01*
X154990200Y-119688925D01*
X154988200Y-119688925D01*
X154987537Y-119688304D01*
X154967022Y-119657599D01*
X154930514Y-119650336D01*
X154899380Y-119671139D01*
X154892648Y-119687389D01*
X154891061Y-119688607D01*
X154889213Y-119687841D01*
X154888800Y-119686624D01*
X154888800Y-118367807D01*
X154889800Y-118366075D01*
X154891800Y-118366075D01*
X154892463Y-118366696D01*
G37*
G36*
X156892463Y-118366696D02*
G01*
X156912978Y-118397401D01*
X156949486Y-118404664D01*
X156980620Y-118383861D01*
X156987352Y-118367611D01*
X156988939Y-118366393D01*
X156990787Y-118367159D01*
X156991200Y-118368376D01*
X156991200Y-119687193D01*
X156990200Y-119688925D01*
X156988200Y-119688925D01*
X156987537Y-119688304D01*
X156967022Y-119657599D01*
X156930514Y-119650336D01*
X156899380Y-119671139D01*
X156892648Y-119687389D01*
X156891061Y-119688607D01*
X156889213Y-119687841D01*
X156888800Y-119686624D01*
X156888800Y-118367807D01*
X156889800Y-118366075D01*
X156891800Y-118366075D01*
X156892463Y-118366696D01*
G37*
G36*
X152892463Y-118366696D02*
G01*
X152912978Y-118397401D01*
X152949486Y-118404664D01*
X152980620Y-118383861D01*
X152987352Y-118367611D01*
X152988939Y-118366393D01*
X152990787Y-118367159D01*
X152991200Y-118368376D01*
X152991200Y-119687193D01*
X152990200Y-119688925D01*
X152988200Y-119688925D01*
X152987537Y-119688304D01*
X152967022Y-119657599D01*
X152930514Y-119650336D01*
X152899380Y-119671139D01*
X152892648Y-119687389D01*
X152891061Y-119688607D01*
X152889213Y-119687841D01*
X152888800Y-119686624D01*
X152888800Y-118367807D01*
X152889800Y-118366075D01*
X152891800Y-118366075D01*
X152892463Y-118366696D01*
G37*
G36*
X154392463Y-118366696D02*
G01*
X154412978Y-118397401D01*
X154449486Y-118404664D01*
X154480620Y-118383861D01*
X154487352Y-118367611D01*
X154488939Y-118366393D01*
X154490787Y-118367159D01*
X154491200Y-118368376D01*
X154491200Y-119687193D01*
X154490200Y-119688925D01*
X154488200Y-119688925D01*
X154487537Y-119688304D01*
X154467022Y-119657599D01*
X154430514Y-119650336D01*
X154399380Y-119671139D01*
X154392648Y-119687389D01*
X154391061Y-119688607D01*
X154389213Y-119687841D01*
X154388800Y-119686624D01*
X154388800Y-118367807D01*
X154389800Y-118366075D01*
X154391800Y-118366075D01*
X154392463Y-118366696D01*
G37*
G36*
X155392463Y-118366696D02*
G01*
X155412978Y-118397401D01*
X155449486Y-118404664D01*
X155480620Y-118383861D01*
X155487352Y-118367611D01*
X155488939Y-118366393D01*
X155490787Y-118367159D01*
X155491200Y-118368376D01*
X155491200Y-119687193D01*
X155490200Y-119688925D01*
X155488200Y-119688925D01*
X155487537Y-119688304D01*
X155467022Y-119657599D01*
X155430514Y-119650336D01*
X155399380Y-119671139D01*
X155392648Y-119687389D01*
X155391061Y-119688607D01*
X155389213Y-119687841D01*
X155388800Y-119686624D01*
X155388800Y-118367807D01*
X155389800Y-118366075D01*
X155391800Y-118366075D01*
X155392463Y-118366696D01*
G37*
G36*
X152392463Y-118366696D02*
G01*
X152412978Y-118397401D01*
X152449486Y-118404664D01*
X152480620Y-118383861D01*
X152487352Y-118367611D01*
X152488939Y-118366393D01*
X152490787Y-118367159D01*
X152491200Y-118368376D01*
X152491200Y-119687193D01*
X152490200Y-119688925D01*
X152488200Y-119688925D01*
X152487537Y-119688304D01*
X152467022Y-119657599D01*
X152430514Y-119650336D01*
X152399380Y-119671139D01*
X152392648Y-119687389D01*
X152391061Y-119688607D01*
X152389213Y-119687841D01*
X152388800Y-119686624D01*
X152388800Y-118367807D01*
X152389800Y-118366075D01*
X152391800Y-118366075D01*
X152392463Y-118366696D01*
G37*
M02*
