%TF.GenerationSoftware,KiCad,Pcbnew,(6.0.2)*%
%TF.CreationDate,2022-03-23T19:52:23-07:00*%
%TF.ProjectId,main,6d61696e-2e6b-4696-9361-645f70636258,rev?*%
%TF.SameCoordinates,Original*%
%TF.FileFunction,Paste,Top*%
%TF.FilePolarity,Positive*%
%FSLAX46Y46*%
G04 Gerber Fmt 4.6, Leading zero omitted, Abs format (unit mm)*
G04 Created by KiCad (PCBNEW (6.0.2)) date 2022-03-23 19:52:23*
%MOMM*%
%LPD*%
G01*
G04 APERTURE LIST*
G04 Aperture macros list*
%AMRoundRect*
0 Rectangle with rounded corners*
0 $1 Rounding radius*
0 $2 $3 $4 $5 $6 $7 $8 $9 X,Y pos of 4 corners*
0 Add a 4 corners polygon primitive as box body*
4,1,4,$2,$3,$4,$5,$6,$7,$8,$9,$2,$3,0*
0 Add four circle primitives for the rounded corners*
1,1,$1+$1,$2,$3*
1,1,$1+$1,$4,$5*
1,1,$1+$1,$6,$7*
1,1,$1+$1,$8,$9*
0 Add four rect primitives between the rounded corners*
20,1,$1+$1,$2,$3,$4,$5,0*
20,1,$1+$1,$4,$5,$6,$7,0*
20,1,$1+$1,$6,$7,$8,$9,0*
20,1,$1+$1,$8,$9,$2,$3,0*%
G04 Aperture macros list end*
%ADD10RoundRect,0.200000X-0.200000X-0.275000X0.200000X-0.275000X0.200000X0.275000X-0.200000X0.275000X0*%
%ADD11RoundRect,0.225000X-0.250000X0.225000X-0.250000X-0.225000X0.250000X-0.225000X0.250000X0.225000X0*%
%ADD12R,1.100000X0.600000*%
%ADD13RoundRect,0.225000X0.225000X0.250000X-0.225000X0.250000X-0.225000X-0.250000X0.225000X-0.250000X0*%
%ADD14RoundRect,0.225000X0.250000X-0.225000X0.250000X0.225000X-0.250000X0.225000X-0.250000X-0.225000X0*%
%ADD15RoundRect,0.200000X-0.275000X0.200000X-0.275000X-0.200000X0.275000X-0.200000X0.275000X0.200000X0*%
%ADD16RoundRect,0.200000X0.275000X-0.200000X0.275000X0.200000X-0.275000X0.200000X-0.275000X-0.200000X0*%
%ADD17RoundRect,0.225000X-0.225000X-0.250000X0.225000X-0.250000X0.225000X0.250000X-0.225000X0.250000X0*%
%ADD18RoundRect,0.150000X0.512500X0.150000X-0.512500X0.150000X-0.512500X-0.150000X0.512500X-0.150000X0*%
%ADD19RoundRect,0.075000X0.075000X-0.662500X0.075000X0.662500X-0.075000X0.662500X-0.075000X-0.662500X0*%
%ADD20RoundRect,0.075000X0.662500X-0.075000X0.662500X0.075000X-0.662500X0.075000X-0.662500X-0.075000X0*%
%ADD21RoundRect,0.200000X0.200000X0.275000X-0.200000X0.275000X-0.200000X-0.275000X0.200000X-0.275000X0*%
%ADD22RoundRect,0.150000X-0.150000X0.587500X-0.150000X-0.587500X0.150000X-0.587500X0.150000X0.587500X0*%
%ADD23R,1.350000X0.400000*%
%ADD24R,1.900000X1.500000*%
%ADD25R,1.200000X0.400000*%
G04 APERTURE END LIST*
D10*
%TO.C,R24*%
X206185000Y-107950000D03*
X207835000Y-107950000D03*
%TD*%
D11*
%TO.C,C11*%
X124079000Y-118605000D03*
X124079000Y-120155000D03*
%TD*%
D10*
%TO.C,R4*%
X208725000Y-125730000D03*
X210375000Y-125730000D03*
%TD*%
D12*
%TO.C,Y1*%
X146050000Y-126430000D03*
X146050000Y-125030000D03*
%TD*%
D13*
%TO.C,C31*%
X174003000Y-107950000D03*
X172453000Y-107950000D03*
%TD*%
D14*
%TO.C,C26*%
X198452500Y-137935000D03*
X198452500Y-136385000D03*
%TD*%
D15*
%TO.C,R2*%
X184482500Y-143955000D03*
X184482500Y-145605000D03*
%TD*%
D13*
%TO.C,C19*%
X113297000Y-140970000D03*
X111747000Y-140970000D03*
%TD*%
%TO.C,C4*%
X210325000Y-128270000D03*
X208775000Y-128270000D03*
%TD*%
D11*
%TO.C,C17*%
X118442500Y-142735000D03*
X118442500Y-144285000D03*
%TD*%
D16*
%TO.C,R29*%
X200992500Y-144335000D03*
X200992500Y-142685000D03*
%TD*%
D13*
%TO.C,C24*%
X202705000Y-115570000D03*
X201155000Y-115570000D03*
%TD*%
D15*
%TO.C,R6*%
X123952000Y-124778000D03*
X123952000Y-126428000D03*
%TD*%
D11*
%TO.C,C21*%
X145112500Y-142735000D03*
X145112500Y-144285000D03*
%TD*%
%TO.C,C37*%
X109220000Y-105905000D03*
X109220000Y-107455000D03*
%TD*%
D14*
%TO.C,C30*%
X179070000Y-106185000D03*
X179070000Y-104635000D03*
%TD*%
D16*
%TO.C,R38*%
X115570000Y-107505000D03*
X115570000Y-105855000D03*
%TD*%
D13*
%TO.C,C22*%
X203675000Y-106800000D03*
X202125000Y-106800000D03*
%TD*%
D16*
%TO.C,R41*%
X133350000Y-107505000D03*
X133350000Y-105855000D03*
%TD*%
D17*
%TO.C,C2*%
X157164500Y-144780000D03*
X158714500Y-144780000D03*
%TD*%
%TO.C,C8*%
X203187000Y-119380000D03*
X204737000Y-119380000D03*
%TD*%
D16*
%TO.C,R40*%
X142240000Y-107505000D03*
X142240000Y-105855000D03*
%TD*%
D18*
%TO.C,U2*%
X203067500Y-112710000D03*
X203067500Y-111760000D03*
X203067500Y-110810000D03*
X200792500Y-110810000D03*
X200792500Y-112710000D03*
%TD*%
D16*
%TO.C,R31*%
X198452500Y-144335000D03*
X198452500Y-142685000D03*
%TD*%
D15*
%TO.C,R15*%
X147652500Y-142685000D03*
X147652500Y-144335000D03*
%TD*%
D19*
%TO.C,U$1*%
X152190000Y-127352500D03*
X152690000Y-127352500D03*
X153190000Y-127352500D03*
X153690000Y-127352500D03*
X154190000Y-127352500D03*
X154690000Y-127352500D03*
X155190000Y-127352500D03*
X155690000Y-127352500D03*
X156190000Y-127352500D03*
X156690000Y-127352500D03*
X157190000Y-127352500D03*
X157690000Y-127352500D03*
D20*
X159102500Y-125940000D03*
X159102500Y-125440000D03*
X159102500Y-124940000D03*
X159102500Y-124440000D03*
X159102500Y-123940000D03*
X159102500Y-123440000D03*
X159102500Y-122940000D03*
X159102500Y-122440000D03*
X159102500Y-121940000D03*
X159102500Y-121440000D03*
X159102500Y-120940000D03*
X159102500Y-120440000D03*
D19*
X157690000Y-119027500D03*
X157190000Y-119027500D03*
X156690000Y-119027500D03*
X156190000Y-119027500D03*
X155690000Y-119027500D03*
X155190000Y-119027500D03*
X154690000Y-119027500D03*
X154190000Y-119027500D03*
X153690000Y-119027500D03*
X153190000Y-119027500D03*
X152690000Y-119027500D03*
X152190000Y-119027500D03*
D20*
X150777500Y-120440000D03*
X150777500Y-120940000D03*
X150777500Y-121440000D03*
X150777500Y-121940000D03*
X150777500Y-122440000D03*
X150777500Y-122940000D03*
X150777500Y-123440000D03*
X150777500Y-123940000D03*
X150777500Y-124440000D03*
X150777500Y-124940000D03*
X150777500Y-125440000D03*
X150777500Y-125940000D03*
%TD*%
D21*
%TO.C,FB1*%
X210375000Y-130810000D03*
X208725000Y-130810000D03*
%TD*%
D16*
%TO.C,R32*%
X195912500Y-144335000D03*
X195912500Y-142685000D03*
%TD*%
D17*
%TO.C,C12*%
X142550000Y-126675000D03*
X144100000Y-126675000D03*
%TD*%
D14*
%TO.C,C32*%
X168910000Y-106185000D03*
X168910000Y-104635000D03*
%TD*%
D16*
%TO.C,R39*%
X124460000Y-107505000D03*
X124460000Y-105855000D03*
%TD*%
D15*
%TO.C,R18*%
X134952500Y-142685000D03*
X134952500Y-144335000D03*
%TD*%
D14*
%TO.C,C23*%
X207900000Y-110725000D03*
X207900000Y-112275000D03*
%TD*%
D22*
%TO.C,Q1*%
X210500000Y-141302500D03*
X208600000Y-141302500D03*
X209550000Y-143177500D03*
%TD*%
D11*
%TO.C,C33*%
X135890000Y-105905000D03*
X135890000Y-107455000D03*
%TD*%
D21*
%TO.C,R23*%
X207835000Y-105410000D03*
X206185000Y-105410000D03*
%TD*%
D10*
%TO.C,R5*%
X208725000Y-123190000D03*
X210375000Y-123190000D03*
%TD*%
D11*
%TO.C,C15*%
X152732500Y-142735000D03*
X152732500Y-144285000D03*
%TD*%
%TO.C,C16*%
X127332500Y-142735000D03*
X127332500Y-144285000D03*
%TD*%
D15*
%TO.C,R16*%
X110822500Y-142685000D03*
X110822500Y-144335000D03*
%TD*%
D16*
%TO.C,R3*%
X109728000Y-117411000D03*
X109728000Y-115761000D03*
%TD*%
D13*
%TO.C,C5*%
X210325000Y-120650000D03*
X208775000Y-120650000D03*
%TD*%
D15*
%TO.C,R26*%
X206072500Y-142685000D03*
X206072500Y-144335000D03*
%TD*%
D13*
%TO.C,C25*%
X197625000Y-110490000D03*
X196075000Y-110490000D03*
%TD*%
D10*
%TO.C,R25*%
X209057500Y-138430000D03*
X210707500Y-138430000D03*
%TD*%
D16*
%TO.C,R37*%
X106680000Y-107505000D03*
X106680000Y-105855000D03*
%TD*%
%TO.C,R33*%
X173990000Y-106235000D03*
X173990000Y-104585000D03*
%TD*%
%TO.C,R34*%
X176530000Y-106235000D03*
X176530000Y-104585000D03*
%TD*%
D13*
%TO.C,C7*%
X200165000Y-129540000D03*
X198615000Y-129540000D03*
%TD*%
D11*
%TO.C,C36*%
X118110000Y-105905000D03*
X118110000Y-107455000D03*
%TD*%
%TO.C,C34*%
X144780000Y-105905000D03*
X144780000Y-107455000D03*
%TD*%
%TO.C,C18*%
X137492500Y-142735000D03*
X137492500Y-144285000D03*
%TD*%
D23*
%TO.C,J1*%
X213167500Y-124490000D03*
X213167500Y-123840000D03*
X213167500Y-123190000D03*
X213167500Y-122540000D03*
X213167500Y-121890000D03*
D24*
X215867500Y-124190000D03*
X215867500Y-122190000D03*
%TD*%
D15*
%TO.C,R19*%
X115902500Y-142685000D03*
X115902500Y-144335000D03*
%TD*%
D17*
%TO.C,C13*%
X142575000Y-125050000D03*
X144125000Y-125050000D03*
%TD*%
D13*
%TO.C,C14*%
X132347000Y-140716000D03*
X130797000Y-140716000D03*
%TD*%
D16*
%TO.C,R35*%
X171450000Y-106235000D03*
X171450000Y-104585000D03*
%TD*%
D11*
%TO.C,C27*%
X193372500Y-142735000D03*
X193372500Y-144285000D03*
%TD*%
D15*
%TO.C,R21*%
X150192500Y-142685000D03*
X150192500Y-144335000D03*
%TD*%
D11*
%TO.C,C29*%
X203532500Y-142735000D03*
X203532500Y-144285000D03*
%TD*%
%TO.C,C3*%
X213360000Y-128765000D03*
X213360000Y-130315000D03*
%TD*%
%TO.C,C35*%
X127000000Y-105905000D03*
X127000000Y-107455000D03*
%TD*%
D15*
%TO.C,R22*%
X132412500Y-142685000D03*
X132412500Y-144335000D03*
%TD*%
%TO.C,R20*%
X129872500Y-142685000D03*
X129872500Y-144335000D03*
%TD*%
D11*
%TO.C,C28*%
X198120000Y-113525000D03*
X198120000Y-115075000D03*
%TD*%
D17*
%TO.C,C10*%
X149085000Y-128778000D03*
X150635000Y-128778000D03*
%TD*%
D16*
%TO.C,R1*%
X112268000Y-117411000D03*
X112268000Y-115761000D03*
%TD*%
D15*
%TO.C,R17*%
X113362500Y-142685000D03*
X113362500Y-144335000D03*
%TD*%
D11*
%TO.C,C20*%
X108282500Y-142735000D03*
X108282500Y-144285000D03*
%TD*%
D25*
%TO.C,U1*%
X200600000Y-122237500D03*
X200600000Y-122872500D03*
X200600000Y-123507500D03*
X200600000Y-124142500D03*
X200600000Y-124777500D03*
X200600000Y-125412500D03*
X200600000Y-126047500D03*
X200600000Y-126682500D03*
X205800000Y-126682500D03*
X205800000Y-126047500D03*
X205800000Y-125412500D03*
X205800000Y-124777500D03*
X205800000Y-124142500D03*
X205800000Y-123507500D03*
X205800000Y-122872500D03*
X205800000Y-122237500D03*
%TD*%
M02*
