G04 #@! TF.GenerationSoftware,KiCad,Pcbnew,7.0.10*
G04 #@! TF.CreationDate,2024-11-23T11:02:06-08:00*
G04 #@! TF.ProjectId,fieldRadio,6669656c-6452-4616-9469-6f2e6b696361,rev?*
G04 #@! TF.SameCoordinates,Original*
G04 #@! TF.FileFunction,Soldermask,Bot*
G04 #@! TF.FilePolarity,Negative*
%FSLAX46Y46*%
G04 Gerber Fmt 4.6, Leading zero omitted, Abs format (unit mm)*
G04 Created by KiCad (PCBNEW 7.0.10) date 2024-11-23 11:02:06*
%MOMM*%
%LPD*%
G01*
G04 APERTURE LIST*
G04 Aperture macros list*
%AMRoundRect*
0 Rectangle with rounded corners*
0 $1 Rounding radius*
0 $2 $3 $4 $5 $6 $7 $8 $9 X,Y pos of 4 corners*
0 Add a 4 corners polygon primitive as box body*
4,1,4,$2,$3,$4,$5,$6,$7,$8,$9,$2,$3,0*
0 Add four circle primitives for the rounded corners*
1,1,$1+$1,$2,$3*
1,1,$1+$1,$4,$5*
1,1,$1+$1,$6,$7*
1,1,$1+$1,$8,$9*
0 Add four rect primitives between the rounded corners*
20,1,$1+$1,$2,$3,$4,$5,0*
20,1,$1+$1,$4,$5,$6,$7,0*
20,1,$1+$1,$6,$7,$8,$9,0*
20,1,$1+$1,$8,$9,$2,$3,0*%
G04 Aperture macros list end*
%ADD10R,2.200000X2.200000*%
%ADD11O,2.200000X2.200000*%
%ADD12C,1.600000*%
%ADD13C,1.550000*%
%ADD14R,1.905000X2.000000*%
%ADD15O,1.905000X2.000000*%
%ADD16R,1.600000X1.600000*%
%ADD17C,2.600000*%
%ADD18R,1.700000X1.700000*%
%ADD19O,1.700000X1.700000*%
%ADD20C,3.000000*%
%ADD21R,1.350000X1.350000*%
%ADD22O,1.350000X1.350000*%
%ADD23O,1.600000X1.600000*%
%ADD24R,2.000000X1.905000*%
%ADD25O,2.000000X1.905000*%
%ADD26C,1.440000*%
%ADD27R,2.400000X1.600000*%
%ADD28O,2.400000X1.600000*%
%ADD29RoundRect,0.249999X-1.025001X1.025001X-1.025001X-1.025001X1.025001X-1.025001X1.025001X1.025001X0*%
%ADD30C,2.550000*%
%ADD31C,2.090000*%
%ADD32C,1.509000*%
%ADD33R,2.600000X2.600000*%
%ADD34C,1.627000*%
%ADD35RoundRect,0.250000X0.650000X-0.412500X0.650000X0.412500X-0.650000X0.412500X-0.650000X-0.412500X0*%
%ADD36RoundRect,0.237500X0.237500X-0.250000X0.237500X0.250000X-0.237500X0.250000X-0.237500X-0.250000X0*%
%ADD37RoundRect,0.250000X-0.412500X-0.650000X0.412500X-0.650000X0.412500X0.650000X-0.412500X0.650000X0*%
%ADD38RoundRect,0.237500X-0.300000X-0.237500X0.300000X-0.237500X0.300000X0.237500X-0.300000X0.237500X0*%
%ADD39RoundRect,0.250000X0.475000X-0.337500X0.475000X0.337500X-0.475000X0.337500X-0.475000X-0.337500X0*%
%ADD40RoundRect,0.237500X0.300000X0.237500X-0.300000X0.237500X-0.300000X-0.237500X0.300000X-0.237500X0*%
%ADD41RoundRect,0.200000X-0.200000X-0.275000X0.200000X-0.275000X0.200000X0.275000X-0.200000X0.275000X0*%
%ADD42RoundRect,0.237500X0.250000X0.237500X-0.250000X0.237500X-0.250000X-0.237500X0.250000X-0.237500X0*%
%ADD43RoundRect,0.200000X0.275000X-0.200000X0.275000X0.200000X-0.275000X0.200000X-0.275000X-0.200000X0*%
%ADD44RoundRect,0.237500X-0.237500X0.250000X-0.237500X-0.250000X0.237500X-0.250000X0.237500X0.250000X0*%
%ADD45RoundRect,0.237500X0.237500X-0.300000X0.237500X0.300000X-0.237500X0.300000X-0.237500X-0.300000X0*%
%ADD46RoundRect,0.150000X-0.512500X-0.150000X0.512500X-0.150000X0.512500X0.150000X-0.512500X0.150000X0*%
%ADD47RoundRect,0.237500X-0.237500X0.300000X-0.237500X-0.300000X0.237500X-0.300000X0.237500X0.300000X0*%
%ADD48RoundRect,0.150000X0.512500X0.150000X-0.512500X0.150000X-0.512500X-0.150000X0.512500X-0.150000X0*%
%ADD49RoundRect,0.200000X-0.275000X0.200000X-0.275000X-0.200000X0.275000X-0.200000X0.275000X0.200000X0*%
G04 APERTURE END LIST*
D10*
X162830000Y-209557635D03*
D11*
X152670000Y-209557635D03*
D12*
X104640000Y-170420000D03*
X109640000Y-170420000D03*
D13*
X92875000Y-191807635D03*
X92875000Y-196807635D03*
X125575000Y-200600000D03*
X125575000Y-205600000D03*
D14*
X82725000Y-91750000D03*
D15*
X85265000Y-91750000D03*
X87805000Y-91750000D03*
D16*
X185065112Y-209240000D03*
D12*
X183065112Y-209240000D03*
D16*
X220820000Y-178404888D03*
D12*
X220820000Y-180904888D03*
D16*
X168902380Y-119780000D03*
D12*
X166402380Y-119780000D03*
D10*
X124555000Y-209357635D03*
D11*
X114395000Y-209357635D03*
D17*
X139850000Y-196982635D03*
X139850000Y-191382635D03*
D18*
X223480000Y-215055000D03*
D19*
X223480000Y-217595000D03*
D12*
X112770000Y-146890000D03*
X117770000Y-146890000D03*
D18*
X90770000Y-139480000D03*
D19*
X90770000Y-136940000D03*
D13*
X125425000Y-197057635D03*
X125425000Y-192057635D03*
D12*
X123940000Y-88890000D03*
X128940000Y-88890000D03*
D17*
X154225000Y-200432635D03*
X154225000Y-206032635D03*
D20*
X162250000Y-75475000D03*
X178480000Y-75475000D03*
X162250000Y-88175000D03*
X178480000Y-88175000D03*
X120545000Y-114510000D03*
X104545000Y-114510000D03*
X120545000Y-124510000D03*
X104545000Y-124510000D03*
D17*
X139850000Y-200432635D03*
X139850000Y-206032635D03*
D21*
X196500000Y-191720000D03*
D22*
X196500000Y-189720000D03*
D13*
X163450000Y-200632635D03*
X163450000Y-205632635D03*
X116390000Y-173880000D03*
X116390000Y-168880000D03*
D12*
X127520000Y-147375000D03*
X132520000Y-147375000D03*
D16*
X191050000Y-102942379D03*
D12*
X191050000Y-100442379D03*
D16*
X188967621Y-108840000D03*
D12*
X191467621Y-108840000D03*
D17*
X135050000Y-159770000D03*
X140650000Y-159770000D03*
D12*
X157220000Y-142625000D03*
X157220000Y-147625000D03*
D17*
X101975000Y-197007635D03*
X101975000Y-191407635D03*
D10*
X145890000Y-93325000D03*
D11*
X156050000Y-93325000D03*
D13*
X130270000Y-176775000D03*
X130270000Y-171775000D03*
D17*
X102125000Y-200407635D03*
X102125000Y-206007635D03*
D10*
X141200000Y-131675000D03*
D11*
X131040000Y-131675000D03*
D17*
X135310000Y-121420000D03*
X140910000Y-121420000D03*
D16*
X97175000Y-93386395D03*
D12*
X97175000Y-90886395D03*
D16*
X154420000Y-144025000D03*
D23*
X154420000Y-136405000D03*
D20*
X207755000Y-75465000D03*
X223985000Y-75465000D03*
X207755000Y-88165000D03*
X223985000Y-88165000D03*
D16*
X163180000Y-109282379D03*
D12*
X163180000Y-106782379D03*
D17*
X144890000Y-83840000D03*
X150490000Y-83840000D03*
D13*
X100830000Y-174400000D03*
X100830000Y-169400000D03*
X155180000Y-121640000D03*
X155180000Y-116640000D03*
D10*
X141770000Y-74725000D03*
D11*
X131610000Y-74725000D03*
D17*
X145440000Y-102640000D03*
X151040000Y-102640000D03*
D16*
X104860000Y-173450000D03*
D23*
X112480000Y-173450000D03*
D13*
X155640000Y-103740000D03*
X155640000Y-98740000D03*
X130300000Y-197007635D03*
X130300000Y-192007635D03*
D24*
X171050000Y-139870000D03*
D25*
X171050000Y-142410000D03*
X171050000Y-144950000D03*
D26*
X79070000Y-216270000D03*
X79070000Y-218810000D03*
X79070000Y-221350000D03*
D10*
X162980000Y-187732635D03*
D11*
X152820000Y-187732635D03*
D17*
X154200000Y-196982635D03*
X154200000Y-191382635D03*
X145270000Y-159820000D03*
X150870000Y-159820000D03*
D27*
X178920000Y-106680000D03*
D28*
X178920000Y-104140000D03*
X178920000Y-101600000D03*
X178920000Y-99060000D03*
X168760000Y-99060000D03*
X168760000Y-101600000D03*
X168760000Y-104140000D03*
X168760000Y-106680000D03*
D10*
X92845000Y-187957635D03*
D11*
X103005000Y-187957635D03*
D29*
X97250000Y-99975000D03*
D30*
X97250000Y-104775000D03*
X97250000Y-109575000D03*
D17*
X145290000Y-141040000D03*
X150890000Y-141040000D03*
D16*
X189340000Y-151550000D03*
D12*
X189340000Y-149050000D03*
D17*
X135620000Y-83920000D03*
X141220000Y-83920000D03*
D12*
X121050000Y-168930000D03*
X121050000Y-173930000D03*
D10*
X131445000Y-209357635D03*
D11*
X141605000Y-209357635D03*
D16*
X162830000Y-102410000D03*
D12*
X162830000Y-99910000D03*
D13*
X131370000Y-166175000D03*
X131370000Y-161175000D03*
D10*
X106850000Y-155360000D03*
D11*
X117010000Y-155360000D03*
D10*
X141500000Y-111925000D03*
D11*
X131340000Y-111925000D03*
D13*
X108900000Y-213107635D03*
X108900000Y-208107635D03*
X116380000Y-158812365D03*
X116380000Y-163812365D03*
D16*
X85500000Y-216544887D03*
D12*
X85500000Y-218544887D03*
D10*
X141450000Y-93325000D03*
D11*
X131290000Y-93325000D03*
D18*
X192720000Y-224980000D03*
D19*
X190180000Y-224980000D03*
X187640000Y-224980000D03*
X185100000Y-224980000D03*
X182560000Y-224980000D03*
X180020000Y-224980000D03*
X177480000Y-224980000D03*
X174940000Y-224980000D03*
X172400000Y-224980000D03*
X169860000Y-224980000D03*
X167320000Y-224980000D03*
D16*
X129400000Y-136720000D03*
D23*
X129400000Y-144340000D03*
D18*
X167440000Y-179670000D03*
D19*
X167440000Y-182210000D03*
D18*
X215920000Y-224390000D03*
D19*
X213380000Y-224390000D03*
X210840000Y-224390000D03*
X208300000Y-224390000D03*
D10*
X146070000Y-74775000D03*
D11*
X156230000Y-74775000D03*
D13*
X130400000Y-200500000D03*
X130400000Y-205500000D03*
D16*
X215995000Y-174297387D03*
D12*
X215995000Y-176797387D03*
D18*
X184180000Y-98980000D03*
D19*
X184180000Y-101520000D03*
X184180000Y-104060000D03*
D12*
X121550000Y-178960000D03*
D23*
X111390000Y-178960000D03*
D16*
X164595000Y-142310000D03*
D12*
X164595000Y-139810000D03*
D10*
X145560000Y-150425000D03*
D11*
X155720000Y-150425000D03*
D18*
X175850000Y-211320000D03*
D19*
X175850000Y-208780000D03*
X175850000Y-206240000D03*
X175850000Y-203700000D03*
D13*
X109200000Y-183657635D03*
X109200000Y-188657635D03*
X105130000Y-163550000D03*
X105130000Y-158550000D03*
D17*
X145160000Y-121425000D03*
X150760000Y-121425000D03*
D16*
X174960000Y-120057620D03*
D12*
X174960000Y-122557620D03*
D17*
X135630000Y-141140000D03*
X141230000Y-141140000D03*
D31*
X106170000Y-79420000D03*
X116330000Y-79420000D03*
D32*
X111250000Y-84500000D03*
X108710000Y-84500000D03*
D26*
X80470000Y-138725000D03*
X83010000Y-138725000D03*
X85550000Y-138725000D03*
D10*
X125325000Y-187957635D03*
D11*
X115165000Y-187957635D03*
D17*
X135860000Y-102640000D03*
X141460000Y-102640000D03*
D26*
X219150000Y-160607500D03*
X219150000Y-158067500D03*
X219150000Y-155527500D03*
D13*
X159430000Y-139660000D03*
X159430000Y-134660000D03*
D10*
X92945000Y-209457635D03*
D11*
X103105000Y-209457635D03*
D17*
X116175000Y-197007635D03*
X116175000Y-191407635D03*
D12*
X120720000Y-145590000D03*
X120720000Y-150590000D03*
D16*
X160640000Y-162032380D03*
D12*
X160640000Y-159532380D03*
D10*
X145720000Y-111975000D03*
D11*
X155880000Y-111975000D03*
D10*
X130645000Y-187757635D03*
D11*
X140805000Y-187757635D03*
D10*
X120930000Y-165570000D03*
D11*
X120930000Y-155410000D03*
D21*
X199790000Y-191720000D03*
D22*
X199790000Y-189720000D03*
D16*
X162630000Y-115080000D03*
D12*
X160130000Y-115080000D03*
D13*
X93000000Y-200275000D03*
X93000000Y-205275000D03*
D12*
X80020000Y-197210000D03*
D23*
X80020000Y-187050000D03*
D12*
X109180000Y-167530000D03*
X109180000Y-162530000D03*
X98330000Y-159220000D03*
D23*
X88170000Y-159220000D03*
D10*
X145640000Y-131775000D03*
D11*
X155800000Y-131775000D03*
D20*
X184015000Y-83255000D03*
X200245000Y-83255000D03*
X184015000Y-76905000D03*
X200245000Y-76905000D03*
X184015000Y-89605000D03*
X200245000Y-89605000D03*
D13*
X154740000Y-159475000D03*
X154740000Y-154475000D03*
D18*
X219425000Y-198240000D03*
D19*
X221965000Y-198240000D03*
D12*
X143210000Y-178180000D03*
D23*
X133050000Y-178180000D03*
D18*
X171210000Y-186040000D03*
D19*
X173750000Y-186040000D03*
X176290000Y-186040000D03*
X178830000Y-186040000D03*
X181370000Y-186040000D03*
X183910000Y-186040000D03*
D16*
X126100000Y-144050000D03*
D23*
X126100000Y-136430000D03*
D33*
X87250000Y-86280000D03*
D17*
X87250000Y-80280000D03*
X82550000Y-83280000D03*
D19*
X132430000Y-224380000D03*
X129890000Y-224380000D03*
X127350000Y-224380000D03*
X124810000Y-224380000D03*
X122270000Y-224380000D03*
X119730000Y-224380000D03*
X117190000Y-224380000D03*
X114650000Y-224380000D03*
X112110000Y-224380000D03*
X109570000Y-224380000D03*
X107030000Y-224380000D03*
X104490000Y-224380000D03*
X101950000Y-224380000D03*
X99410000Y-224380000D03*
X96870000Y-224380000D03*
X94330000Y-224380000D03*
X91790000Y-224380000D03*
D18*
X89250000Y-224380000D03*
D12*
X143240000Y-170630000D03*
D23*
X133080000Y-170630000D03*
D20*
X120470000Y-131610000D03*
X104470000Y-131610000D03*
X120470000Y-141610000D03*
X104470000Y-141610000D03*
D12*
X79950000Y-200380000D03*
D23*
X79950000Y-210540000D03*
D34*
X160610000Y-168000000D03*
X160610000Y-173080000D03*
X168230000Y-166730000D03*
X168230000Y-170540000D03*
X168230000Y-174350000D03*
D17*
X116125000Y-200457635D03*
X116125000Y-206057635D03*
D13*
X155170000Y-84375000D03*
X155170000Y-79375000D03*
D16*
X112350000Y-169660000D03*
D23*
X112350000Y-162040000D03*
D13*
X163250000Y-197057635D03*
X163250000Y-192057635D03*
D10*
X141120000Y-150475000D03*
D11*
X130960000Y-150475000D03*
D18*
X219425000Y-202900000D03*
D19*
X221965000Y-202900000D03*
D10*
X106840000Y-150750000D03*
D11*
X117000000Y-150750000D03*
D16*
X184380000Y-120600000D03*
D12*
X184380000Y-123100000D03*
D35*
X143000000Y-157182500D03*
X143000000Y-154057500D03*
D36*
X152400000Y-138372500D03*
X152400000Y-136547500D03*
D37*
X146597500Y-163100000D03*
X149722500Y-163100000D03*
D38*
X218057500Y-167137442D03*
X219782500Y-167137442D03*
D39*
X157550000Y-204145135D03*
X157550000Y-202070135D03*
D40*
X174132500Y-99180000D03*
X172407500Y-99180000D03*
D41*
X171345000Y-211550000D03*
X172995000Y-211550000D03*
D38*
X208822500Y-128320000D03*
X210547500Y-128320000D03*
D42*
X153332500Y-92710000D03*
X151507500Y-92710000D03*
D43*
X214125000Y-218140000D03*
X214125000Y-216490000D03*
D44*
X176120000Y-99167500D03*
X176120000Y-100992500D03*
D39*
X119425000Y-195345135D03*
X119425000Y-193270135D03*
D37*
X137247500Y-99000000D03*
X140372500Y-99000000D03*
D45*
X173870000Y-142372500D03*
X173870000Y-140647500D03*
D36*
X165350000Y-199695135D03*
X165350000Y-197870135D03*
D43*
X147415000Y-210560000D03*
X147415000Y-208910000D03*
D36*
X208970000Y-169265000D03*
X208970000Y-167440000D03*
D45*
X176190000Y-171592500D03*
X176190000Y-169867500D03*
D46*
X151952500Y-134950000D03*
X151952500Y-133050000D03*
X154227500Y-134000000D03*
D37*
X136407500Y-163110000D03*
X139532500Y-163110000D03*
D36*
X152420000Y-100062500D03*
X152420000Y-98237500D03*
X152140000Y-81002500D03*
X152140000Y-79177500D03*
D42*
X152932500Y-74125000D03*
X151107500Y-74125000D03*
D45*
X183890000Y-157022500D03*
X183890000Y-155297500D03*
D36*
X164445000Y-172092500D03*
X164445000Y-170267500D03*
D37*
X136917500Y-80750000D03*
X140042500Y-80750000D03*
D35*
X148070000Y-157932500D03*
X148070000Y-154807500D03*
D40*
X181002500Y-173610000D03*
X179277500Y-173610000D03*
D39*
X98775000Y-195395135D03*
X98775000Y-193320135D03*
D45*
X182480000Y-122542500D03*
X182480000Y-120817500D03*
X183850000Y-163292500D03*
X183850000Y-161567500D03*
X166145000Y-172017500D03*
X166145000Y-170292500D03*
D37*
X136557500Y-117940000D03*
X139682500Y-117940000D03*
D39*
X143425000Y-199695135D03*
X143425000Y-197620135D03*
D37*
X136747500Y-144620000D03*
X139872500Y-144620000D03*
D43*
X215800000Y-218165000D03*
X215800000Y-216515000D03*
D42*
X91337500Y-198632635D03*
X89512500Y-198632635D03*
D35*
X148370000Y-81542500D03*
X148370000Y-78417500D03*
D39*
X136700000Y-204395135D03*
X136700000Y-202320135D03*
D40*
X173632500Y-104130000D03*
X171907500Y-104130000D03*
D37*
X146027500Y-86840000D03*
X149152500Y-86840000D03*
D46*
X89362500Y-195332635D03*
X89362500Y-193432635D03*
X91637500Y-194382635D03*
D38*
X210932500Y-162402500D03*
X212657500Y-162402500D03*
D42*
X152402500Y-149775000D03*
X150577500Y-149775000D03*
D37*
X136967500Y-137510000D03*
X140092500Y-137510000D03*
D39*
X157475000Y-195245135D03*
X157475000Y-193170135D03*
D45*
X168930000Y-123592500D03*
X168930000Y-121867500D03*
D38*
X86887500Y-147385000D03*
X88612500Y-147385000D03*
D39*
X113075000Y-199695135D03*
X113075000Y-197620135D03*
D35*
X143230000Y-138432500D03*
X143230000Y-135307500D03*
D42*
X175757500Y-106430000D03*
X173932500Y-106430000D03*
D38*
X196557500Y-162127500D03*
X198282500Y-162127500D03*
D37*
X136827500Y-86960000D03*
X139952500Y-86960000D03*
D46*
X152192500Y-77650000D03*
X152192500Y-75750000D03*
X154467500Y-76700000D03*
D47*
X212510000Y-216447500D03*
X212510000Y-218172500D03*
D37*
X146387500Y-124820000D03*
X149512500Y-124820000D03*
D39*
X151200000Y-199895135D03*
X151200000Y-197820135D03*
D44*
X87575000Y-193570135D03*
X87575000Y-195395135D03*
X162820000Y-170317500D03*
X162820000Y-172142500D03*
D35*
X148170000Y-100687500D03*
X148170000Y-97562500D03*
D40*
X164242500Y-113030000D03*
X162517500Y-113030000D03*
D37*
X136857500Y-124930000D03*
X139982500Y-124930000D03*
D46*
X89262500Y-203632635D03*
X89262500Y-201732635D03*
X91537500Y-202682635D03*
D37*
X146607500Y-105990000D03*
X149732500Y-105990000D03*
D38*
X171367500Y-203690000D03*
X173092500Y-203690000D03*
D44*
X157250000Y-197820135D03*
X157250000Y-199645135D03*
X87225000Y-201820135D03*
X87225000Y-203645135D03*
D36*
X136350000Y-199745135D03*
X136350000Y-197920135D03*
D46*
X159137500Y-199657635D03*
X159137500Y-197757635D03*
X161412500Y-198707635D03*
D35*
X143060000Y-81512500D03*
X143060000Y-78387500D03*
D36*
X151800000Y-157252500D03*
X151800000Y-155427500D03*
D44*
X119775000Y-197920135D03*
X119775000Y-199745135D03*
D48*
X134437500Y-197932635D03*
X134437500Y-199832635D03*
X132162500Y-198882635D03*
D39*
X98775000Y-199545135D03*
X98775000Y-197470135D03*
D38*
X208822500Y-142520000D03*
X210547500Y-142520000D03*
D39*
X98825000Y-203795135D03*
X98825000Y-201720135D03*
D49*
X145790000Y-208885000D03*
X145790000Y-210535000D03*
D46*
X151832500Y-153610000D03*
X151832500Y-151710000D03*
X154107500Y-152660000D03*
D35*
X148200000Y-119302500D03*
X148200000Y-116177500D03*
D39*
X135925000Y-194995135D03*
X135925000Y-192920135D03*
D36*
X128675000Y-199920135D03*
X128675000Y-198095135D03*
D46*
X151462500Y-115140000D03*
X151462500Y-113240000D03*
X153737500Y-114190000D03*
X121812500Y-199732635D03*
X121812500Y-197832635D03*
X124087500Y-198782635D03*
D37*
X136407500Y-156220000D03*
X139532500Y-156220000D03*
D47*
X177320000Y-173397500D03*
X177320000Y-175122500D03*
D39*
X119375000Y-204245135D03*
X119375000Y-202170135D03*
D36*
X127100000Y-199845135D03*
X127100000Y-198020135D03*
D35*
X148220000Y-139337500D03*
X148220000Y-136212500D03*
D38*
X208672500Y-114320000D03*
X210397500Y-114320000D03*
X171317500Y-101810000D03*
X173042500Y-101810000D03*
D35*
X143000000Y-118792500D03*
X143000000Y-115667500D03*
D42*
X153312500Y-130730000D03*
X151487500Y-130730000D03*
D46*
X152602500Y-96600000D03*
X152602500Y-94700000D03*
X154877500Y-95650000D03*
D47*
X173870000Y-144922500D03*
X173870000Y-146647500D03*
D44*
X167330000Y-121877500D03*
X167330000Y-123702500D03*
D36*
X152060000Y-118852500D03*
X152060000Y-117027500D03*
D37*
X146647500Y-144630000D03*
X149772500Y-144630000D03*
D38*
X203657500Y-162277500D03*
X205382500Y-162277500D03*
D37*
X137327500Y-106110000D03*
X140452500Y-106110000D03*
D42*
X152872500Y-111440000D03*
X151047500Y-111440000D03*
D47*
X149090000Y-208847500D03*
X149090000Y-210572500D03*
D35*
X143420000Y-99982500D03*
X143420000Y-96857500D03*
G36*
X231193039Y-72019685D02*
G01*
X231238794Y-72072489D01*
X231250000Y-72124000D01*
X231250000Y-230866412D01*
X231230315Y-230933451D01*
X231177511Y-230979206D01*
X231126413Y-230990411D01*
X228374413Y-230999585D01*
X228307309Y-230980124D01*
X228261378Y-230927473D01*
X228250000Y-230875586D01*
X228250000Y-72124000D01*
X228269685Y-72056961D01*
X228322489Y-72011206D01*
X228374000Y-72000000D01*
X231126000Y-72000000D01*
X231193039Y-72019685D01*
G37*
G36*
X75193039Y-72019685D02*
G01*
X75238794Y-72072489D01*
X75250000Y-72124000D01*
X75250000Y-230876000D01*
X75230315Y-230943039D01*
X75177511Y-230988794D01*
X75126000Y-231000000D01*
X72374000Y-231000000D01*
X72306961Y-230980315D01*
X72261206Y-230927511D01*
X72250000Y-230876000D01*
X72250000Y-72124000D01*
X72269685Y-72056961D01*
X72322489Y-72011206D01*
X72374000Y-72000000D01*
X75126000Y-72000000D01*
X75193039Y-72019685D01*
G37*
M02*
