M48
; DRILL file {KiCad 7.0.10} date Sat Jan 18 09:13:34 2025
; FORMAT={-:-/ absolute / metric / decimal}
; #@! TF.CreationDate,2025-01-18T09:13:34-08:00
; #@! TF.GenerationSoftware,Kicad,Pcbnew,7.0.10
; #@! TF.FileFunction,Plated,1,2,PTH
FMAT,2
METRIC
; #@! TA.AperFunction,Plated,PTH,ViaDrill
T1C0.400
; #@! TA.AperFunction,Plated,PTH,ComponentDrill
T2C1.000
; #@! TA.AperFunction,Plated,PTH,ComponentDrill
T3C1.300
%
G90
G05
T1
X122.4Y-93.35
X128.18Y-116.5
X130.31Y-70.44
X132.67Y-93.35
X137.98Y-116.38
X139.89Y-68.74
X140.35Y-49.54
X142.47Y-99.49
X143.3Y-77.41
X147.79Y-49.07
X148.66Y-68.72
X152.91Y-95.44
X158.18Y-91.47
X163.02Y-67.96
X163.02Y-95.6
X169.16Y-103.19
X169.16Y-108.54
X171.64Y-49.78
X171.84Y-110.3
X173.95Y-109.03
X174.04Y-66.74
X176.38Y-84.2
X176.38Y-108.08
X178.84Y-49.54
X179.04Y-87.93
X179.08Y-108.29
X182.62Y-67.96
X183.45Y-116.5
X187.11Y-93.35
X192.07Y-116.73
X197.86Y-93.47
X198.33Y-67.84
T2
X122.7Y-65.27
X122.7Y-67.81
X145.345Y-116.115
X147.885Y-116.115
X150.425Y-116.115
X152.965Y-116.115
X155.505Y-116.115
X158.045Y-116.115
X160.585Y-116.115
X163.125Y-116.115
X165.665Y-116.115
X168.205Y-116.115
X170.745Y-116.115
X173.285Y-116.115
T3
X122.9Y-53.1
X122.9Y-58.1
X122.9Y-78.1
X122.9Y-83.1
X122.9Y-103.1
X122.9Y-108.1
X135.4Y-53.1
X135.4Y-58.1
X135.4Y-78.1
X135.4Y-83.1
X135.4Y-103.1
X135.4Y-108.1
X152.9Y-53.1
X152.9Y-58.1
X152.9Y-78.1
X152.9Y-83.1
X152.9Y-103.1
X152.9Y-108.1
X165.4Y-53.1
X165.4Y-58.1
X165.4Y-78.1
X165.4Y-83.1
X165.4Y-103.1
X165.4Y-108.1
X182.9Y-53.1
X182.9Y-58.1
X182.9Y-78.1
X182.9Y-83.1
X182.9Y-103.1
X182.9Y-108.1
X195.4Y-53.1
X195.4Y-58.1
X195.4Y-78.1
X195.4Y-83.1
X195.4Y-103.1
X195.4Y-108.1
M30
