G04 #@! TF.GenerationSoftware,KiCad,Pcbnew,7.0.10*
G04 #@! TF.CreationDate,2025-01-18T09:13:02-08:00*
G04 #@! TF.ProjectId,buttonBoard,62757474-6f6e-4426-9f61-72642e6b6963,rev?*
G04 #@! TF.SameCoordinates,Original*
G04 #@! TF.FileFunction,Legend,Top*
G04 #@! TF.FilePolarity,Positive*
%FSLAX46Y46*%
G04 Gerber Fmt 4.6, Leading zero omitted, Abs format (unit mm)*
G04 Created by KiCad (PCBNEW 7.0.10) date 2025-01-18 09:13:02*
%MOMM*%
%LPD*%
G01*
G04 APERTURE LIST*
%ADD10C,0.150000*%
%ADD11C,0.120000*%
%ADD12C,3.200000*%
%ADD13O,3.048000X1.850000*%
%ADD14R,1.700000X1.700000*%
%ADD15O,1.700000X1.700000*%
G04 APERTURE END LIST*
D10*
X123625000Y-116000000D02*
G75*
G03*
X118375000Y-116000000I-2625000J0D01*
G01*
X118375000Y-116000000D02*
G75*
G03*
X123625000Y-116000000I2625000J0D01*
G01*
X201625000Y-116000000D02*
G75*
G03*
X196375000Y-116000000I-2625000J0D01*
G01*
X196375000Y-116000000D02*
G75*
G03*
X201625000Y-116000000I2625000J0D01*
G01*
X123625000Y-44000000D02*
G75*
G03*
X118375000Y-44000000I-2625000J0D01*
G01*
X118375000Y-44000000D02*
G75*
G03*
X123625000Y-44000000I2625000J0D01*
G01*
X201625000Y-44000000D02*
G75*
G03*
X196375000Y-44000000I-2625000J0D01*
G01*
X196375000Y-44000000D02*
G75*
G03*
X201625000Y-44000000I2625000J0D01*
G01*
X133310112Y-44616009D02*
X133452969Y-44663628D01*
X133452969Y-44663628D02*
X133500588Y-44711247D01*
X133500588Y-44711247D02*
X133548207Y-44806485D01*
X133548207Y-44806485D02*
X133548207Y-44949342D01*
X133548207Y-44949342D02*
X133500588Y-45044580D01*
X133500588Y-45044580D02*
X133452969Y-45092200D01*
X133452969Y-45092200D02*
X133357731Y-45139819D01*
X133357731Y-45139819D02*
X132976779Y-45139819D01*
X132976779Y-45139819D02*
X132976779Y-44139819D01*
X132976779Y-44139819D02*
X133310112Y-44139819D01*
X133310112Y-44139819D02*
X133405350Y-44187438D01*
X133405350Y-44187438D02*
X133452969Y-44235057D01*
X133452969Y-44235057D02*
X133500588Y-44330295D01*
X133500588Y-44330295D02*
X133500588Y-44425533D01*
X133500588Y-44425533D02*
X133452969Y-44520771D01*
X133452969Y-44520771D02*
X133405350Y-44568390D01*
X133405350Y-44568390D02*
X133310112Y-44616009D01*
X133310112Y-44616009D02*
X132976779Y-44616009D01*
X134405350Y-44473152D02*
X134405350Y-45139819D01*
X133976779Y-44473152D02*
X133976779Y-44996961D01*
X133976779Y-44996961D02*
X134024398Y-45092200D01*
X134024398Y-45092200D02*
X134119636Y-45139819D01*
X134119636Y-45139819D02*
X134262493Y-45139819D01*
X134262493Y-45139819D02*
X134357731Y-45092200D01*
X134357731Y-45092200D02*
X134405350Y-45044580D01*
X134738684Y-44473152D02*
X135119636Y-44473152D01*
X134881541Y-44139819D02*
X134881541Y-44996961D01*
X134881541Y-44996961D02*
X134929160Y-45092200D01*
X134929160Y-45092200D02*
X135024398Y-45139819D01*
X135024398Y-45139819D02*
X135119636Y-45139819D01*
X135310113Y-44473152D02*
X135691065Y-44473152D01*
X135452970Y-44139819D02*
X135452970Y-44996961D01*
X135452970Y-44996961D02*
X135500589Y-45092200D01*
X135500589Y-45092200D02*
X135595827Y-45139819D01*
X135595827Y-45139819D02*
X135691065Y-45139819D01*
X136167256Y-45139819D02*
X136072018Y-45092200D01*
X136072018Y-45092200D02*
X136024399Y-45044580D01*
X136024399Y-45044580D02*
X135976780Y-44949342D01*
X135976780Y-44949342D02*
X135976780Y-44663628D01*
X135976780Y-44663628D02*
X136024399Y-44568390D01*
X136024399Y-44568390D02*
X136072018Y-44520771D01*
X136072018Y-44520771D02*
X136167256Y-44473152D01*
X136167256Y-44473152D02*
X136310113Y-44473152D01*
X136310113Y-44473152D02*
X136405351Y-44520771D01*
X136405351Y-44520771D02*
X136452970Y-44568390D01*
X136452970Y-44568390D02*
X136500589Y-44663628D01*
X136500589Y-44663628D02*
X136500589Y-44949342D01*
X136500589Y-44949342D02*
X136452970Y-45044580D01*
X136452970Y-45044580D02*
X136405351Y-45092200D01*
X136405351Y-45092200D02*
X136310113Y-45139819D01*
X136310113Y-45139819D02*
X136167256Y-45139819D01*
X136929161Y-44473152D02*
X136929161Y-45139819D01*
X136929161Y-44568390D02*
X136976780Y-44520771D01*
X136976780Y-44520771D02*
X137072018Y-44473152D01*
X137072018Y-44473152D02*
X137214875Y-44473152D01*
X137214875Y-44473152D02*
X137310113Y-44520771D01*
X137310113Y-44520771D02*
X137357732Y-44616009D01*
X137357732Y-44616009D02*
X137357732Y-45139819D01*
X138929161Y-44616009D02*
X139072018Y-44663628D01*
X139072018Y-44663628D02*
X139119637Y-44711247D01*
X139119637Y-44711247D02*
X139167256Y-44806485D01*
X139167256Y-44806485D02*
X139167256Y-44949342D01*
X139167256Y-44949342D02*
X139119637Y-45044580D01*
X139119637Y-45044580D02*
X139072018Y-45092200D01*
X139072018Y-45092200D02*
X138976780Y-45139819D01*
X138976780Y-45139819D02*
X138595828Y-45139819D01*
X138595828Y-45139819D02*
X138595828Y-44139819D01*
X138595828Y-44139819D02*
X138929161Y-44139819D01*
X138929161Y-44139819D02*
X139024399Y-44187438D01*
X139024399Y-44187438D02*
X139072018Y-44235057D01*
X139072018Y-44235057D02*
X139119637Y-44330295D01*
X139119637Y-44330295D02*
X139119637Y-44425533D01*
X139119637Y-44425533D02*
X139072018Y-44520771D01*
X139072018Y-44520771D02*
X139024399Y-44568390D01*
X139024399Y-44568390D02*
X138929161Y-44616009D01*
X138929161Y-44616009D02*
X138595828Y-44616009D01*
X139738685Y-45139819D02*
X139643447Y-45092200D01*
X139643447Y-45092200D02*
X139595828Y-45044580D01*
X139595828Y-45044580D02*
X139548209Y-44949342D01*
X139548209Y-44949342D02*
X139548209Y-44663628D01*
X139548209Y-44663628D02*
X139595828Y-44568390D01*
X139595828Y-44568390D02*
X139643447Y-44520771D01*
X139643447Y-44520771D02*
X139738685Y-44473152D01*
X139738685Y-44473152D02*
X139881542Y-44473152D01*
X139881542Y-44473152D02*
X139976780Y-44520771D01*
X139976780Y-44520771D02*
X140024399Y-44568390D01*
X140024399Y-44568390D02*
X140072018Y-44663628D01*
X140072018Y-44663628D02*
X140072018Y-44949342D01*
X140072018Y-44949342D02*
X140024399Y-45044580D01*
X140024399Y-45044580D02*
X139976780Y-45092200D01*
X139976780Y-45092200D02*
X139881542Y-45139819D01*
X139881542Y-45139819D02*
X139738685Y-45139819D01*
X140929161Y-45139819D02*
X140929161Y-44616009D01*
X140929161Y-44616009D02*
X140881542Y-44520771D01*
X140881542Y-44520771D02*
X140786304Y-44473152D01*
X140786304Y-44473152D02*
X140595828Y-44473152D01*
X140595828Y-44473152D02*
X140500590Y-44520771D01*
X140929161Y-45092200D02*
X140833923Y-45139819D01*
X140833923Y-45139819D02*
X140595828Y-45139819D01*
X140595828Y-45139819D02*
X140500590Y-45092200D01*
X140500590Y-45092200D02*
X140452971Y-44996961D01*
X140452971Y-44996961D02*
X140452971Y-44901723D01*
X140452971Y-44901723D02*
X140500590Y-44806485D01*
X140500590Y-44806485D02*
X140595828Y-44758866D01*
X140595828Y-44758866D02*
X140833923Y-44758866D01*
X140833923Y-44758866D02*
X140929161Y-44711247D01*
X141405352Y-45139819D02*
X141405352Y-44473152D01*
X141405352Y-44663628D02*
X141452971Y-44568390D01*
X141452971Y-44568390D02*
X141500590Y-44520771D01*
X141500590Y-44520771D02*
X141595828Y-44473152D01*
X141595828Y-44473152D02*
X141691066Y-44473152D01*
X142452971Y-45139819D02*
X142452971Y-44139819D01*
X142452971Y-45092200D02*
X142357733Y-45139819D01*
X142357733Y-45139819D02*
X142167257Y-45139819D01*
X142167257Y-45139819D02*
X142072019Y-45092200D01*
X142072019Y-45092200D02*
X142024400Y-45044580D01*
X142024400Y-45044580D02*
X141976781Y-44949342D01*
X141976781Y-44949342D02*
X141976781Y-44663628D01*
X141976781Y-44663628D02*
X142024400Y-44568390D01*
X142024400Y-44568390D02*
X142072019Y-44520771D01*
X142072019Y-44520771D02*
X142167257Y-44473152D01*
X142167257Y-44473152D02*
X142357733Y-44473152D01*
X142357733Y-44473152D02*
X142452971Y-44520771D01*
X143548210Y-44473152D02*
X143929162Y-44473152D01*
X143691067Y-45139819D02*
X143691067Y-44282676D01*
X143691067Y-44282676D02*
X143738686Y-44187438D01*
X143738686Y-44187438D02*
X143833924Y-44139819D01*
X143833924Y-44139819D02*
X143929162Y-44139819D01*
X144405353Y-45139819D02*
X144310115Y-45092200D01*
X144310115Y-45092200D02*
X144262496Y-45044580D01*
X144262496Y-45044580D02*
X144214877Y-44949342D01*
X144214877Y-44949342D02*
X144214877Y-44663628D01*
X144214877Y-44663628D02*
X144262496Y-44568390D01*
X144262496Y-44568390D02*
X144310115Y-44520771D01*
X144310115Y-44520771D02*
X144405353Y-44473152D01*
X144405353Y-44473152D02*
X144548210Y-44473152D01*
X144548210Y-44473152D02*
X144643448Y-44520771D01*
X144643448Y-44520771D02*
X144691067Y-44568390D01*
X144691067Y-44568390D02*
X144738686Y-44663628D01*
X144738686Y-44663628D02*
X144738686Y-44949342D01*
X144738686Y-44949342D02*
X144691067Y-45044580D01*
X144691067Y-45044580D02*
X144643448Y-45092200D01*
X144643448Y-45092200D02*
X144548210Y-45139819D01*
X144548210Y-45139819D02*
X144405353Y-45139819D01*
X145167258Y-45139819D02*
X145167258Y-44473152D01*
X145167258Y-44663628D02*
X145214877Y-44568390D01*
X145214877Y-44568390D02*
X145262496Y-44520771D01*
X145262496Y-44520771D02*
X145357734Y-44473152D01*
X145357734Y-44473152D02*
X145452972Y-44473152D01*
X146881544Y-44616009D02*
X146548211Y-44616009D01*
X146548211Y-45139819D02*
X146548211Y-44139819D01*
X146548211Y-44139819D02*
X147024401Y-44139819D01*
X147405354Y-45139819D02*
X147405354Y-44473152D01*
X147405354Y-44139819D02*
X147357735Y-44187438D01*
X147357735Y-44187438D02*
X147405354Y-44235057D01*
X147405354Y-44235057D02*
X147452973Y-44187438D01*
X147452973Y-44187438D02*
X147405354Y-44139819D01*
X147405354Y-44139819D02*
X147405354Y-44235057D01*
X148262496Y-45092200D02*
X148167258Y-45139819D01*
X148167258Y-45139819D02*
X147976782Y-45139819D01*
X147976782Y-45139819D02*
X147881544Y-45092200D01*
X147881544Y-45092200D02*
X147833925Y-44996961D01*
X147833925Y-44996961D02*
X147833925Y-44616009D01*
X147833925Y-44616009D02*
X147881544Y-44520771D01*
X147881544Y-44520771D02*
X147976782Y-44473152D01*
X147976782Y-44473152D02*
X148167258Y-44473152D01*
X148167258Y-44473152D02*
X148262496Y-44520771D01*
X148262496Y-44520771D02*
X148310115Y-44616009D01*
X148310115Y-44616009D02*
X148310115Y-44711247D01*
X148310115Y-44711247D02*
X147833925Y-44806485D01*
X148881544Y-45139819D02*
X148786306Y-45092200D01*
X148786306Y-45092200D02*
X148738687Y-44996961D01*
X148738687Y-44996961D02*
X148738687Y-44139819D01*
X149691068Y-45139819D02*
X149691068Y-44139819D01*
X149691068Y-45092200D02*
X149595830Y-45139819D01*
X149595830Y-45139819D02*
X149405354Y-45139819D01*
X149405354Y-45139819D02*
X149310116Y-45092200D01*
X149310116Y-45092200D02*
X149262497Y-45044580D01*
X149262497Y-45044580D02*
X149214878Y-44949342D01*
X149214878Y-44949342D02*
X149214878Y-44663628D01*
X149214878Y-44663628D02*
X149262497Y-44568390D01*
X149262497Y-44568390D02*
X149310116Y-44520771D01*
X149310116Y-44520771D02*
X149405354Y-44473152D01*
X149405354Y-44473152D02*
X149595830Y-44473152D01*
X149595830Y-44473152D02*
X149691068Y-44520771D01*
X151500592Y-45139819D02*
X151167259Y-44663628D01*
X150929164Y-45139819D02*
X150929164Y-44139819D01*
X150929164Y-44139819D02*
X151310116Y-44139819D01*
X151310116Y-44139819D02*
X151405354Y-44187438D01*
X151405354Y-44187438D02*
X151452973Y-44235057D01*
X151452973Y-44235057D02*
X151500592Y-44330295D01*
X151500592Y-44330295D02*
X151500592Y-44473152D01*
X151500592Y-44473152D02*
X151452973Y-44568390D01*
X151452973Y-44568390D02*
X151405354Y-44616009D01*
X151405354Y-44616009D02*
X151310116Y-44663628D01*
X151310116Y-44663628D02*
X150929164Y-44663628D01*
X152357735Y-45139819D02*
X152357735Y-44616009D01*
X152357735Y-44616009D02*
X152310116Y-44520771D01*
X152310116Y-44520771D02*
X152214878Y-44473152D01*
X152214878Y-44473152D02*
X152024402Y-44473152D01*
X152024402Y-44473152D02*
X151929164Y-44520771D01*
X152357735Y-45092200D02*
X152262497Y-45139819D01*
X152262497Y-45139819D02*
X152024402Y-45139819D01*
X152024402Y-45139819D02*
X151929164Y-45092200D01*
X151929164Y-45092200D02*
X151881545Y-44996961D01*
X151881545Y-44996961D02*
X151881545Y-44901723D01*
X151881545Y-44901723D02*
X151929164Y-44806485D01*
X151929164Y-44806485D02*
X152024402Y-44758866D01*
X152024402Y-44758866D02*
X152262497Y-44758866D01*
X152262497Y-44758866D02*
X152357735Y-44711247D01*
X153262497Y-45139819D02*
X153262497Y-44139819D01*
X153262497Y-45092200D02*
X153167259Y-45139819D01*
X153167259Y-45139819D02*
X152976783Y-45139819D01*
X152976783Y-45139819D02*
X152881545Y-45092200D01*
X152881545Y-45092200D02*
X152833926Y-45044580D01*
X152833926Y-45044580D02*
X152786307Y-44949342D01*
X152786307Y-44949342D02*
X152786307Y-44663628D01*
X152786307Y-44663628D02*
X152833926Y-44568390D01*
X152833926Y-44568390D02*
X152881545Y-44520771D01*
X152881545Y-44520771D02*
X152976783Y-44473152D01*
X152976783Y-44473152D02*
X153167259Y-44473152D01*
X153167259Y-44473152D02*
X153262497Y-44520771D01*
X153738688Y-45139819D02*
X153738688Y-44473152D01*
X153738688Y-44139819D02*
X153691069Y-44187438D01*
X153691069Y-44187438D02*
X153738688Y-44235057D01*
X153738688Y-44235057D02*
X153786307Y-44187438D01*
X153786307Y-44187438D02*
X153738688Y-44139819D01*
X153738688Y-44139819D02*
X153738688Y-44235057D01*
X154357735Y-45139819D02*
X154262497Y-45092200D01*
X154262497Y-45092200D02*
X154214878Y-45044580D01*
X154214878Y-45044580D02*
X154167259Y-44949342D01*
X154167259Y-44949342D02*
X154167259Y-44663628D01*
X154167259Y-44663628D02*
X154214878Y-44568390D01*
X154214878Y-44568390D02*
X154262497Y-44520771D01*
X154262497Y-44520771D02*
X154357735Y-44473152D01*
X154357735Y-44473152D02*
X154500592Y-44473152D01*
X154500592Y-44473152D02*
X154595830Y-44520771D01*
X154595830Y-44520771D02*
X154643449Y-44568390D01*
X154643449Y-44568390D02*
X154691068Y-44663628D01*
X154691068Y-44663628D02*
X154691068Y-44949342D01*
X154691068Y-44949342D02*
X154643449Y-45044580D01*
X154643449Y-45044580D02*
X154595830Y-45092200D01*
X154595830Y-45092200D02*
X154500592Y-45139819D01*
X154500592Y-45139819D02*
X154357735Y-45139819D01*
X156405354Y-45139819D02*
X155833926Y-45139819D01*
X156119640Y-45139819D02*
X156119640Y-44139819D01*
X156119640Y-44139819D02*
X156024402Y-44282676D01*
X156024402Y-44282676D02*
X155929164Y-44377914D01*
X155929164Y-44377914D02*
X155833926Y-44425533D01*
X156833926Y-45044580D02*
X156881545Y-45092200D01*
X156881545Y-45092200D02*
X156833926Y-45139819D01*
X156833926Y-45139819D02*
X156786307Y-45092200D01*
X156786307Y-45092200D02*
X156833926Y-45044580D01*
X156833926Y-45044580D02*
X156833926Y-45139819D01*
X157833925Y-45139819D02*
X157262497Y-45139819D01*
X157548211Y-45139819D02*
X157548211Y-44139819D01*
X157548211Y-44139819D02*
X157452973Y-44282676D01*
X157452973Y-44282676D02*
X157357735Y-44377914D01*
X157357735Y-44377914D02*
X157262497Y-44425533D01*
X132976779Y-46749819D02*
X132976779Y-45749819D01*
X132976779Y-45749819D02*
X133548207Y-46749819D01*
X133548207Y-46749819D02*
X133548207Y-45749819D01*
X133929160Y-45749819D02*
X134595826Y-45749819D01*
X134595826Y-45749819D02*
X134167255Y-46749819D01*
X134881541Y-45749819D02*
X135119636Y-46749819D01*
X135119636Y-46749819D02*
X135310112Y-46035533D01*
X135310112Y-46035533D02*
X135500588Y-46749819D01*
X135500588Y-46749819D02*
X135738684Y-45749819D01*
X136119636Y-46749819D02*
X136119636Y-45749819D01*
X136119636Y-45749819D02*
X136452969Y-46464104D01*
X136452969Y-46464104D02*
X136786302Y-45749819D01*
X136786302Y-45749819D02*
X136786302Y-46749819D01*
X137262493Y-46749819D02*
X137262493Y-45749819D01*
X137262493Y-45749819D02*
X137833921Y-46749819D01*
X137833921Y-46749819D02*
X137833921Y-45749819D01*
X132881541Y-47693152D02*
X133119636Y-48359819D01*
X133119636Y-48359819D02*
X133357731Y-47693152D01*
X134262493Y-48359819D02*
X133691065Y-48359819D01*
X133976779Y-48359819D02*
X133976779Y-47359819D01*
X133976779Y-47359819D02*
X133881541Y-47502676D01*
X133881541Y-47502676D02*
X133786303Y-47597914D01*
X133786303Y-47597914D02*
X133691065Y-47645533D01*
X134691065Y-48264580D02*
X134738684Y-48312200D01*
X134738684Y-48312200D02*
X134691065Y-48359819D01*
X134691065Y-48359819D02*
X134643446Y-48312200D01*
X134643446Y-48312200D02*
X134691065Y-48264580D01*
X134691065Y-48264580D02*
X134691065Y-48359819D01*
X135357731Y-47359819D02*
X135452969Y-47359819D01*
X135452969Y-47359819D02*
X135548207Y-47407438D01*
X135548207Y-47407438D02*
X135595826Y-47455057D01*
X135595826Y-47455057D02*
X135643445Y-47550295D01*
X135643445Y-47550295D02*
X135691064Y-47740771D01*
X135691064Y-47740771D02*
X135691064Y-47978866D01*
X135691064Y-47978866D02*
X135643445Y-48169342D01*
X135643445Y-48169342D02*
X135595826Y-48264580D01*
X135595826Y-48264580D02*
X135548207Y-48312200D01*
X135548207Y-48312200D02*
X135452969Y-48359819D01*
X135452969Y-48359819D02*
X135357731Y-48359819D01*
X135357731Y-48359819D02*
X135262493Y-48312200D01*
X135262493Y-48312200D02*
X135214874Y-48264580D01*
X135214874Y-48264580D02*
X135167255Y-48169342D01*
X135167255Y-48169342D02*
X135119636Y-47978866D01*
X135119636Y-47978866D02*
X135119636Y-47740771D01*
X135119636Y-47740771D02*
X135167255Y-47550295D01*
X135167255Y-47550295D02*
X135214874Y-47455057D01*
X135214874Y-47455057D02*
X135262493Y-47407438D01*
X135262493Y-47407438D02*
X135357731Y-47359819D01*
X167536779Y-56019819D02*
X167536779Y-55019819D01*
X167536779Y-55019819D02*
X167870112Y-55734104D01*
X167870112Y-55734104D02*
X168203445Y-55019819D01*
X168203445Y-55019819D02*
X168203445Y-56019819D01*
X168870112Y-55019819D02*
X169060588Y-55019819D01*
X169060588Y-55019819D02*
X169155826Y-55067438D01*
X169155826Y-55067438D02*
X169251064Y-55162676D01*
X169251064Y-55162676D02*
X169298683Y-55353152D01*
X169298683Y-55353152D02*
X169298683Y-55686485D01*
X169298683Y-55686485D02*
X169251064Y-55876961D01*
X169251064Y-55876961D02*
X169155826Y-55972200D01*
X169155826Y-55972200D02*
X169060588Y-56019819D01*
X169060588Y-56019819D02*
X168870112Y-56019819D01*
X168870112Y-56019819D02*
X168774874Y-55972200D01*
X168774874Y-55972200D02*
X168679636Y-55876961D01*
X168679636Y-55876961D02*
X168632017Y-55686485D01*
X168632017Y-55686485D02*
X168632017Y-55353152D01*
X168632017Y-55353152D02*
X168679636Y-55162676D01*
X168679636Y-55162676D02*
X168774874Y-55067438D01*
X168774874Y-55067438D02*
X168870112Y-55019819D01*
X169727255Y-56019819D02*
X169727255Y-55019819D01*
X169727255Y-55019819D02*
X169965350Y-55019819D01*
X169965350Y-55019819D02*
X170108207Y-55067438D01*
X170108207Y-55067438D02*
X170203445Y-55162676D01*
X170203445Y-55162676D02*
X170251064Y-55257914D01*
X170251064Y-55257914D02*
X170298683Y-55448390D01*
X170298683Y-55448390D02*
X170298683Y-55591247D01*
X170298683Y-55591247D02*
X170251064Y-55781723D01*
X170251064Y-55781723D02*
X170203445Y-55876961D01*
X170203445Y-55876961D02*
X170108207Y-55972200D01*
X170108207Y-55972200D02*
X169965350Y-56019819D01*
X169965350Y-56019819D02*
X169727255Y-56019819D01*
X170727255Y-55496009D02*
X171060588Y-55496009D01*
X171203445Y-56019819D02*
X170727255Y-56019819D01*
X170727255Y-56019819D02*
X170727255Y-55019819D01*
X170727255Y-55019819D02*
X171203445Y-55019819D01*
X168376779Y-106269819D02*
X168376779Y-105269819D01*
X168376779Y-105269819D02*
X168614874Y-105269819D01*
X168614874Y-105269819D02*
X168757731Y-105317438D01*
X168757731Y-105317438D02*
X168852969Y-105412676D01*
X168852969Y-105412676D02*
X168900588Y-105507914D01*
X168900588Y-105507914D02*
X168948207Y-105698390D01*
X168948207Y-105698390D02*
X168948207Y-105841247D01*
X168948207Y-105841247D02*
X168900588Y-106031723D01*
X168900588Y-106031723D02*
X168852969Y-106126961D01*
X168852969Y-106126961D02*
X168757731Y-106222200D01*
X168757731Y-106222200D02*
X168614874Y-106269819D01*
X168614874Y-106269819D02*
X168376779Y-106269819D01*
X169376779Y-106269819D02*
X169376779Y-105269819D01*
X170376778Y-105317438D02*
X170281540Y-105269819D01*
X170281540Y-105269819D02*
X170138683Y-105269819D01*
X170138683Y-105269819D02*
X169995826Y-105317438D01*
X169995826Y-105317438D02*
X169900588Y-105412676D01*
X169900588Y-105412676D02*
X169852969Y-105507914D01*
X169852969Y-105507914D02*
X169805350Y-105698390D01*
X169805350Y-105698390D02*
X169805350Y-105841247D01*
X169805350Y-105841247D02*
X169852969Y-106031723D01*
X169852969Y-106031723D02*
X169900588Y-106126961D01*
X169900588Y-106126961D02*
X169995826Y-106222200D01*
X169995826Y-106222200D02*
X170138683Y-106269819D01*
X170138683Y-106269819D02*
X170233921Y-106269819D01*
X170233921Y-106269819D02*
X170376778Y-106222200D01*
X170376778Y-106222200D02*
X170424397Y-106174580D01*
X170424397Y-106174580D02*
X170424397Y-105841247D01*
X170424397Y-105841247D02*
X170233921Y-105841247D01*
X170852969Y-106269819D02*
X170852969Y-105269819D01*
X171186302Y-105269819D02*
X171757730Y-105269819D01*
X171472016Y-106269819D02*
X171472016Y-105269819D01*
X197656779Y-55079819D02*
X197656779Y-54079819D01*
X197656779Y-54079819D02*
X198228207Y-55079819D01*
X198228207Y-55079819D02*
X198228207Y-54079819D01*
X198894874Y-54079819D02*
X199085350Y-54079819D01*
X199085350Y-54079819D02*
X199180588Y-54127438D01*
X199180588Y-54127438D02*
X199275826Y-54222676D01*
X199275826Y-54222676D02*
X199323445Y-54413152D01*
X199323445Y-54413152D02*
X199323445Y-54746485D01*
X199323445Y-54746485D02*
X199275826Y-54936961D01*
X199275826Y-54936961D02*
X199180588Y-55032200D01*
X199180588Y-55032200D02*
X199085350Y-55079819D01*
X199085350Y-55079819D02*
X198894874Y-55079819D01*
X198894874Y-55079819D02*
X198799636Y-55032200D01*
X198799636Y-55032200D02*
X198704398Y-54936961D01*
X198704398Y-54936961D02*
X198656779Y-54746485D01*
X198656779Y-54746485D02*
X198656779Y-54413152D01*
X198656779Y-54413152D02*
X198704398Y-54222676D01*
X198704398Y-54222676D02*
X198799636Y-54127438D01*
X198799636Y-54127438D02*
X198894874Y-54079819D01*
X199609160Y-54079819D02*
X200180588Y-54079819D01*
X199894874Y-55079819D02*
X199894874Y-54079819D01*
X197656779Y-55689819D02*
X197656779Y-56499342D01*
X197656779Y-56499342D02*
X197704398Y-56594580D01*
X197704398Y-56594580D02*
X197752017Y-56642200D01*
X197752017Y-56642200D02*
X197847255Y-56689819D01*
X197847255Y-56689819D02*
X198037731Y-56689819D01*
X198037731Y-56689819D02*
X198132969Y-56642200D01*
X198132969Y-56642200D02*
X198180588Y-56594580D01*
X198180588Y-56594580D02*
X198228207Y-56499342D01*
X198228207Y-56499342D02*
X198228207Y-55689819D01*
X198656779Y-56642200D02*
X198799636Y-56689819D01*
X198799636Y-56689819D02*
X199037731Y-56689819D01*
X199037731Y-56689819D02*
X199132969Y-56642200D01*
X199132969Y-56642200D02*
X199180588Y-56594580D01*
X199180588Y-56594580D02*
X199228207Y-56499342D01*
X199228207Y-56499342D02*
X199228207Y-56404104D01*
X199228207Y-56404104D02*
X199180588Y-56308866D01*
X199180588Y-56308866D02*
X199132969Y-56261247D01*
X199132969Y-56261247D02*
X199037731Y-56213628D01*
X199037731Y-56213628D02*
X198847255Y-56166009D01*
X198847255Y-56166009D02*
X198752017Y-56118390D01*
X198752017Y-56118390D02*
X198704398Y-56070771D01*
X198704398Y-56070771D02*
X198656779Y-55975533D01*
X198656779Y-55975533D02*
X198656779Y-55880295D01*
X198656779Y-55880295D02*
X198704398Y-55785057D01*
X198704398Y-55785057D02*
X198752017Y-55737438D01*
X198752017Y-55737438D02*
X198847255Y-55689819D01*
X198847255Y-55689819D02*
X199085350Y-55689819D01*
X199085350Y-55689819D02*
X199228207Y-55737438D01*
X199656779Y-56166009D02*
X199990112Y-56166009D01*
X200132969Y-56689819D02*
X199656779Y-56689819D01*
X199656779Y-56689819D02*
X199656779Y-55689819D01*
X199656779Y-55689819D02*
X200132969Y-55689819D01*
X200561541Y-56689819D02*
X200561541Y-55689819D01*
X200561541Y-55689819D02*
X200799636Y-55689819D01*
X200799636Y-55689819D02*
X200942493Y-55737438D01*
X200942493Y-55737438D02*
X201037731Y-55832676D01*
X201037731Y-55832676D02*
X201085350Y-55927914D01*
X201085350Y-55927914D02*
X201132969Y-56118390D01*
X201132969Y-56118390D02*
X201132969Y-56261247D01*
X201132969Y-56261247D02*
X201085350Y-56451723D01*
X201085350Y-56451723D02*
X201037731Y-56546961D01*
X201037731Y-56546961D02*
X200942493Y-56642200D01*
X200942493Y-56642200D02*
X200799636Y-56689819D01*
X200799636Y-56689819D02*
X200561541Y-56689819D01*
X144787438Y-113869411D02*
X144739819Y-113964649D01*
X144739819Y-113964649D02*
X144739819Y-114107506D01*
X144739819Y-114107506D02*
X144787438Y-114250363D01*
X144787438Y-114250363D02*
X144882676Y-114345601D01*
X144882676Y-114345601D02*
X144977914Y-114393220D01*
X144977914Y-114393220D02*
X145168390Y-114440839D01*
X145168390Y-114440839D02*
X145311247Y-114440839D01*
X145311247Y-114440839D02*
X145501723Y-114393220D01*
X145501723Y-114393220D02*
X145596961Y-114345601D01*
X145596961Y-114345601D02*
X145692200Y-114250363D01*
X145692200Y-114250363D02*
X145739819Y-114107506D01*
X145739819Y-114107506D02*
X145739819Y-114012268D01*
X145739819Y-114012268D02*
X145692200Y-113869411D01*
X145692200Y-113869411D02*
X145644580Y-113821792D01*
X145644580Y-113821792D02*
X145311247Y-113821792D01*
X145311247Y-113821792D02*
X145311247Y-114012268D01*
X145739819Y-113393220D02*
X144739819Y-113393220D01*
X144739819Y-113393220D02*
X145739819Y-112821792D01*
X145739819Y-112821792D02*
X144739819Y-112821792D01*
X145739819Y-112345601D02*
X144739819Y-112345601D01*
X144739819Y-112345601D02*
X144739819Y-112107506D01*
X144739819Y-112107506D02*
X144787438Y-111964649D01*
X144787438Y-111964649D02*
X144882676Y-111869411D01*
X144882676Y-111869411D02*
X144977914Y-111821792D01*
X144977914Y-111821792D02*
X145168390Y-111774173D01*
X145168390Y-111774173D02*
X145311247Y-111774173D01*
X145311247Y-111774173D02*
X145501723Y-111821792D01*
X145501723Y-111821792D02*
X145596961Y-111869411D01*
X145596961Y-111869411D02*
X145692200Y-111964649D01*
X145692200Y-111964649D02*
X145739819Y-112107506D01*
X145739819Y-112107506D02*
X145739819Y-112345601D01*
X116763922Y-71823152D02*
X117144874Y-71823152D01*
X116906779Y-71489819D02*
X116906779Y-72346961D01*
X116906779Y-72346961D02*
X116954398Y-72442200D01*
X116954398Y-72442200D02*
X117049636Y-72489819D01*
X117049636Y-72489819D02*
X117144874Y-72489819D01*
X117621065Y-72489819D02*
X117525827Y-72442200D01*
X117525827Y-72442200D02*
X117478208Y-72394580D01*
X117478208Y-72394580D02*
X117430589Y-72299342D01*
X117430589Y-72299342D02*
X117430589Y-72013628D01*
X117430589Y-72013628D02*
X117478208Y-71918390D01*
X117478208Y-71918390D02*
X117525827Y-71870771D01*
X117525827Y-71870771D02*
X117621065Y-71823152D01*
X117621065Y-71823152D02*
X117763922Y-71823152D01*
X117763922Y-71823152D02*
X117859160Y-71870771D01*
X117859160Y-71870771D02*
X117906779Y-71918390D01*
X117906779Y-71918390D02*
X117954398Y-72013628D01*
X117954398Y-72013628D02*
X117954398Y-72299342D01*
X117954398Y-72299342D02*
X117906779Y-72394580D01*
X117906779Y-72394580D02*
X117859160Y-72442200D01*
X117859160Y-72442200D02*
X117763922Y-72489819D01*
X117763922Y-72489819D02*
X117621065Y-72489819D01*
X119002018Y-71489819D02*
X119573446Y-71489819D01*
X119287732Y-72489819D02*
X119287732Y-71489819D01*
X119811542Y-71489819D02*
X120478208Y-72489819D01*
X120478208Y-71489819D02*
X119811542Y-72489819D01*
X122097256Y-72489819D02*
X121621066Y-72489819D01*
X121621066Y-72489819D02*
X121621066Y-71489819D01*
X122430590Y-71966009D02*
X122763923Y-71966009D01*
X122906780Y-72489819D02*
X122430590Y-72489819D01*
X122430590Y-72489819D02*
X122430590Y-71489819D01*
X122430590Y-71489819D02*
X122906780Y-71489819D01*
X123335352Y-72489819D02*
X123335352Y-71489819D01*
X123335352Y-71489819D02*
X123573447Y-71489819D01*
X123573447Y-71489819D02*
X123716304Y-71537438D01*
X123716304Y-71537438D02*
X123811542Y-71632676D01*
X123811542Y-71632676D02*
X123859161Y-71727914D01*
X123859161Y-71727914D02*
X123906780Y-71918390D01*
X123906780Y-71918390D02*
X123906780Y-72061247D01*
X123906780Y-72061247D02*
X123859161Y-72251723D01*
X123859161Y-72251723D02*
X123811542Y-72346961D01*
X123811542Y-72346961D02*
X123716304Y-72442200D01*
X123716304Y-72442200D02*
X123573447Y-72489819D01*
X123573447Y-72489819D02*
X123335352Y-72489819D01*
X197430112Y-105536009D02*
X197572969Y-105583628D01*
X197572969Y-105583628D02*
X197620588Y-105631247D01*
X197620588Y-105631247D02*
X197668207Y-105726485D01*
X197668207Y-105726485D02*
X197668207Y-105869342D01*
X197668207Y-105869342D02*
X197620588Y-105964580D01*
X197620588Y-105964580D02*
X197572969Y-106012200D01*
X197572969Y-106012200D02*
X197477731Y-106059819D01*
X197477731Y-106059819D02*
X197096779Y-106059819D01*
X197096779Y-106059819D02*
X197096779Y-105059819D01*
X197096779Y-105059819D02*
X197430112Y-105059819D01*
X197430112Y-105059819D02*
X197525350Y-105107438D01*
X197525350Y-105107438D02*
X197572969Y-105155057D01*
X197572969Y-105155057D02*
X197620588Y-105250295D01*
X197620588Y-105250295D02*
X197620588Y-105345533D01*
X197620588Y-105345533D02*
X197572969Y-105440771D01*
X197572969Y-105440771D02*
X197525350Y-105488390D01*
X197525350Y-105488390D02*
X197430112Y-105536009D01*
X197430112Y-105536009D02*
X197096779Y-105536009D01*
X198049160Y-105774104D02*
X198525350Y-105774104D01*
X197953922Y-106059819D02*
X198287255Y-105059819D01*
X198287255Y-105059819D02*
X198620588Y-106059819D01*
X198953922Y-106059819D02*
X198953922Y-105059819D01*
X198953922Y-105059819D02*
X199525350Y-106059819D01*
X199525350Y-106059819D02*
X199525350Y-105059819D01*
X200001541Y-106059819D02*
X200001541Y-105059819D01*
X200001541Y-105059819D02*
X200239636Y-105059819D01*
X200239636Y-105059819D02*
X200382493Y-105107438D01*
X200382493Y-105107438D02*
X200477731Y-105202676D01*
X200477731Y-105202676D02*
X200525350Y-105297914D01*
X200525350Y-105297914D02*
X200572969Y-105488390D01*
X200572969Y-105488390D02*
X200572969Y-105631247D01*
X200572969Y-105631247D02*
X200525350Y-105821723D01*
X200525350Y-105821723D02*
X200477731Y-105916961D01*
X200477731Y-105916961D02*
X200382493Y-106012200D01*
X200382493Y-106012200D02*
X200239636Y-106059819D01*
X200239636Y-106059819D02*
X200001541Y-106059819D01*
X136213922Y-55089819D02*
X136785350Y-55089819D01*
X136499636Y-56089819D02*
X136499636Y-55089819D01*
X137023446Y-55089819D02*
X137690112Y-56089819D01*
X137690112Y-55089819D02*
X137023446Y-56089819D01*
X138071065Y-56089819D02*
X138071065Y-55089819D01*
X138071065Y-55089819D02*
X138404398Y-55804104D01*
X138404398Y-55804104D02*
X138737731Y-55089819D01*
X138737731Y-55089819D02*
X138737731Y-56089819D01*
X139404398Y-55089819D02*
X139594874Y-55089819D01*
X139594874Y-55089819D02*
X139690112Y-55137438D01*
X139690112Y-55137438D02*
X139785350Y-55232676D01*
X139785350Y-55232676D02*
X139832969Y-55423152D01*
X139832969Y-55423152D02*
X139832969Y-55756485D01*
X139832969Y-55756485D02*
X139785350Y-55946961D01*
X139785350Y-55946961D02*
X139690112Y-56042200D01*
X139690112Y-56042200D02*
X139594874Y-56089819D01*
X139594874Y-56089819D02*
X139404398Y-56089819D01*
X139404398Y-56089819D02*
X139309160Y-56042200D01*
X139309160Y-56042200D02*
X139213922Y-55946961D01*
X139213922Y-55946961D02*
X139166303Y-55756485D01*
X139166303Y-55756485D02*
X139166303Y-55423152D01*
X139166303Y-55423152D02*
X139213922Y-55232676D01*
X139213922Y-55232676D02*
X139309160Y-55137438D01*
X139309160Y-55137438D02*
X139404398Y-55089819D01*
X140261541Y-56089819D02*
X140261541Y-55089819D01*
X140261541Y-55089819D02*
X140499636Y-55089819D01*
X140499636Y-55089819D02*
X140642493Y-55137438D01*
X140642493Y-55137438D02*
X140737731Y-55232676D01*
X140737731Y-55232676D02*
X140785350Y-55327914D01*
X140785350Y-55327914D02*
X140832969Y-55518390D01*
X140832969Y-55518390D02*
X140832969Y-55661247D01*
X140832969Y-55661247D02*
X140785350Y-55851723D01*
X140785350Y-55851723D02*
X140737731Y-55946961D01*
X140737731Y-55946961D02*
X140642493Y-56042200D01*
X140642493Y-56042200D02*
X140499636Y-56089819D01*
X140499636Y-56089819D02*
X140261541Y-56089819D01*
X141261541Y-55566009D02*
X141594874Y-55566009D01*
X141737731Y-56089819D02*
X141261541Y-56089819D01*
X141261541Y-56089819D02*
X141261541Y-55089819D01*
X141261541Y-55089819D02*
X141737731Y-55089819D01*
X136769160Y-80892200D02*
X136912017Y-80939819D01*
X136912017Y-80939819D02*
X137150112Y-80939819D01*
X137150112Y-80939819D02*
X137245350Y-80892200D01*
X137245350Y-80892200D02*
X137292969Y-80844580D01*
X137292969Y-80844580D02*
X137340588Y-80749342D01*
X137340588Y-80749342D02*
X137340588Y-80654104D01*
X137340588Y-80654104D02*
X137292969Y-80558866D01*
X137292969Y-80558866D02*
X137245350Y-80511247D01*
X137245350Y-80511247D02*
X137150112Y-80463628D01*
X137150112Y-80463628D02*
X136959636Y-80416009D01*
X136959636Y-80416009D02*
X136864398Y-80368390D01*
X136864398Y-80368390D02*
X136816779Y-80320771D01*
X136816779Y-80320771D02*
X136769160Y-80225533D01*
X136769160Y-80225533D02*
X136769160Y-80130295D01*
X136769160Y-80130295D02*
X136816779Y-80035057D01*
X136816779Y-80035057D02*
X136864398Y-79987438D01*
X136864398Y-79987438D02*
X136959636Y-79939819D01*
X136959636Y-79939819D02*
X137197731Y-79939819D01*
X137197731Y-79939819D02*
X137340588Y-79987438D01*
X137769160Y-80939819D02*
X137769160Y-79939819D01*
X137769160Y-79939819D02*
X138150112Y-79939819D01*
X138150112Y-79939819D02*
X138245350Y-79987438D01*
X138245350Y-79987438D02*
X138292969Y-80035057D01*
X138292969Y-80035057D02*
X138340588Y-80130295D01*
X138340588Y-80130295D02*
X138340588Y-80273152D01*
X138340588Y-80273152D02*
X138292969Y-80368390D01*
X138292969Y-80368390D02*
X138245350Y-80416009D01*
X138245350Y-80416009D02*
X138150112Y-80463628D01*
X138150112Y-80463628D02*
X137769160Y-80463628D01*
X138959636Y-79939819D02*
X139150112Y-79939819D01*
X139150112Y-79939819D02*
X139245350Y-79987438D01*
X139245350Y-79987438D02*
X139340588Y-80082676D01*
X139340588Y-80082676D02*
X139388207Y-80273152D01*
X139388207Y-80273152D02*
X139388207Y-80606485D01*
X139388207Y-80606485D02*
X139340588Y-80796961D01*
X139340588Y-80796961D02*
X139245350Y-80892200D01*
X139245350Y-80892200D02*
X139150112Y-80939819D01*
X139150112Y-80939819D02*
X138959636Y-80939819D01*
X138959636Y-80939819D02*
X138864398Y-80892200D01*
X138864398Y-80892200D02*
X138769160Y-80796961D01*
X138769160Y-80796961D02*
X138721541Y-80606485D01*
X138721541Y-80606485D02*
X138721541Y-80273152D01*
X138721541Y-80273152D02*
X138769160Y-80082676D01*
X138769160Y-80082676D02*
X138864398Y-79987438D01*
X138864398Y-79987438D02*
X138959636Y-79939819D01*
X139673922Y-79939819D02*
X140245350Y-79939819D01*
X139959636Y-80939819D02*
X139959636Y-79939819D01*
X137966779Y-106199819D02*
X137966779Y-105199819D01*
X137966779Y-105199819D02*
X138300112Y-105914104D01*
X138300112Y-105914104D02*
X138633445Y-105199819D01*
X138633445Y-105199819D02*
X138633445Y-106199819D01*
X139109636Y-105199819D02*
X139109636Y-106009342D01*
X139109636Y-106009342D02*
X139157255Y-106104580D01*
X139157255Y-106104580D02*
X139204874Y-106152200D01*
X139204874Y-106152200D02*
X139300112Y-106199819D01*
X139300112Y-106199819D02*
X139490588Y-106199819D01*
X139490588Y-106199819D02*
X139585826Y-106152200D01*
X139585826Y-106152200D02*
X139633445Y-106104580D01*
X139633445Y-106104580D02*
X139681064Y-106009342D01*
X139681064Y-106009342D02*
X139681064Y-105199819D01*
X140014398Y-105199819D02*
X140585826Y-105199819D01*
X140300112Y-106199819D02*
X140300112Y-105199819D01*
X140919160Y-105676009D02*
X141252493Y-105676009D01*
X141395350Y-106199819D02*
X140919160Y-106199819D01*
X140919160Y-106199819D02*
X140919160Y-105199819D01*
X140919160Y-105199819D02*
X141395350Y-105199819D01*
X168026779Y-81079819D02*
X168026779Y-80079819D01*
X168026779Y-80079819D02*
X168360112Y-80794104D01*
X168360112Y-80794104D02*
X168693445Y-80079819D01*
X168693445Y-80079819D02*
X168693445Y-81079819D01*
X169169636Y-80556009D02*
X169502969Y-80556009D01*
X169645826Y-81079819D02*
X169169636Y-81079819D01*
X169169636Y-81079819D02*
X169169636Y-80079819D01*
X169169636Y-80079819D02*
X169645826Y-80079819D01*
X170074398Y-81079819D02*
X170074398Y-80079819D01*
X170074398Y-80079819D02*
X170645826Y-81079819D01*
X170645826Y-81079819D02*
X170645826Y-80079819D01*
X171122017Y-80079819D02*
X171122017Y-80889342D01*
X171122017Y-80889342D02*
X171169636Y-80984580D01*
X171169636Y-80984580D02*
X171217255Y-81032200D01*
X171217255Y-81032200D02*
X171312493Y-81079819D01*
X171312493Y-81079819D02*
X171502969Y-81079819D01*
X171502969Y-81079819D02*
X171598207Y-81032200D01*
X171598207Y-81032200D02*
X171645826Y-80984580D01*
X171645826Y-80984580D02*
X171693445Y-80889342D01*
X171693445Y-80889342D02*
X171693445Y-80079819D01*
X125175350Y-65629819D02*
X125175350Y-65106009D01*
X125175350Y-65106009D02*
X125127731Y-65010771D01*
X125127731Y-65010771D02*
X125032493Y-64963152D01*
X125032493Y-64963152D02*
X124842017Y-64963152D01*
X124842017Y-64963152D02*
X124746779Y-65010771D01*
X125175350Y-65582200D02*
X125080112Y-65629819D01*
X125080112Y-65629819D02*
X124842017Y-65629819D01*
X124842017Y-65629819D02*
X124746779Y-65582200D01*
X124746779Y-65582200D02*
X124699160Y-65486961D01*
X124699160Y-65486961D02*
X124699160Y-65391723D01*
X124699160Y-65391723D02*
X124746779Y-65296485D01*
X124746779Y-65296485D02*
X124842017Y-65248866D01*
X124842017Y-65248866D02*
X125080112Y-65248866D01*
X125080112Y-65248866D02*
X125175350Y-65201247D01*
X125651541Y-64963152D02*
X125651541Y-65629819D01*
X125651541Y-65058390D02*
X125699160Y-65010771D01*
X125699160Y-65010771D02*
X125794398Y-64963152D01*
X125794398Y-64963152D02*
X125937255Y-64963152D01*
X125937255Y-64963152D02*
X126032493Y-65010771D01*
X126032493Y-65010771D02*
X126080112Y-65106009D01*
X126080112Y-65106009D02*
X126080112Y-65629819D01*
X126699160Y-65629819D02*
X126603922Y-65582200D01*
X126603922Y-65582200D02*
X126556303Y-65534580D01*
X126556303Y-65534580D02*
X126508684Y-65439342D01*
X126508684Y-65439342D02*
X126508684Y-65153628D01*
X126508684Y-65153628D02*
X126556303Y-65058390D01*
X126556303Y-65058390D02*
X126603922Y-65010771D01*
X126603922Y-65010771D02*
X126699160Y-64963152D01*
X126699160Y-64963152D02*
X126842017Y-64963152D01*
X126842017Y-64963152D02*
X126937255Y-65010771D01*
X126937255Y-65010771D02*
X126984874Y-65058390D01*
X126984874Y-65058390D02*
X127032493Y-65153628D01*
X127032493Y-65153628D02*
X127032493Y-65439342D01*
X127032493Y-65439342D02*
X126984874Y-65534580D01*
X126984874Y-65534580D02*
X126937255Y-65582200D01*
X126937255Y-65582200D02*
X126842017Y-65629819D01*
X126842017Y-65629819D02*
X126699160Y-65629819D01*
X127889636Y-65629819D02*
X127889636Y-64629819D01*
X127889636Y-65582200D02*
X127794398Y-65629819D01*
X127794398Y-65629819D02*
X127603922Y-65629819D01*
X127603922Y-65629819D02*
X127508684Y-65582200D01*
X127508684Y-65582200D02*
X127461065Y-65534580D01*
X127461065Y-65534580D02*
X127413446Y-65439342D01*
X127413446Y-65439342D02*
X127413446Y-65153628D01*
X127413446Y-65153628D02*
X127461065Y-65058390D01*
X127461065Y-65058390D02*
X127508684Y-65010771D01*
X127508684Y-65010771D02*
X127603922Y-64963152D01*
X127603922Y-64963152D02*
X127794398Y-64963152D01*
X127794398Y-64963152D02*
X127889636Y-65010771D01*
X128746779Y-65582200D02*
X128651541Y-65629819D01*
X128651541Y-65629819D02*
X128461065Y-65629819D01*
X128461065Y-65629819D02*
X128365827Y-65582200D01*
X128365827Y-65582200D02*
X128318208Y-65486961D01*
X128318208Y-65486961D02*
X128318208Y-65106009D01*
X128318208Y-65106009D02*
X128365827Y-65010771D01*
X128365827Y-65010771D02*
X128461065Y-64963152D01*
X128461065Y-64963152D02*
X128651541Y-64963152D01*
X128651541Y-64963152D02*
X128746779Y-65010771D01*
X128746779Y-65010771D02*
X128794398Y-65106009D01*
X128794398Y-65106009D02*
X128794398Y-65201247D01*
X128794398Y-65201247D02*
X128318208Y-65296485D01*
X130270589Y-66010771D02*
X130222970Y-65963152D01*
X130222970Y-65963152D02*
X130127732Y-65820295D01*
X130127732Y-65820295D02*
X130080113Y-65725057D01*
X130080113Y-65725057D02*
X130032494Y-65582200D01*
X130032494Y-65582200D02*
X129984875Y-65344104D01*
X129984875Y-65344104D02*
X129984875Y-65153628D01*
X129984875Y-65153628D02*
X130032494Y-64915533D01*
X130032494Y-64915533D02*
X130080113Y-64772676D01*
X130080113Y-64772676D02*
X130127732Y-64677438D01*
X130127732Y-64677438D02*
X130222970Y-64534580D01*
X130222970Y-64534580D02*
X130270589Y-64486961D01*
X130651542Y-65248866D02*
X131413447Y-65248866D01*
X131032494Y-65629819D02*
X131032494Y-64867914D01*
X132365827Y-64629819D02*
X131889637Y-64629819D01*
X131889637Y-64629819D02*
X131842018Y-65106009D01*
X131842018Y-65106009D02*
X131889637Y-65058390D01*
X131889637Y-65058390D02*
X131984875Y-65010771D01*
X131984875Y-65010771D02*
X132222970Y-65010771D01*
X132222970Y-65010771D02*
X132318208Y-65058390D01*
X132318208Y-65058390D02*
X132365827Y-65106009D01*
X132365827Y-65106009D02*
X132413446Y-65201247D01*
X132413446Y-65201247D02*
X132413446Y-65439342D01*
X132413446Y-65439342D02*
X132365827Y-65534580D01*
X132365827Y-65534580D02*
X132318208Y-65582200D01*
X132318208Y-65582200D02*
X132222970Y-65629819D01*
X132222970Y-65629819D02*
X131984875Y-65629819D01*
X131984875Y-65629819D02*
X131889637Y-65582200D01*
X131889637Y-65582200D02*
X131842018Y-65534580D01*
X132699161Y-64629819D02*
X133032494Y-65629819D01*
X133032494Y-65629819D02*
X133365827Y-64629819D01*
X133603923Y-66010771D02*
X133651542Y-65963152D01*
X133651542Y-65963152D02*
X133746780Y-65820295D01*
X133746780Y-65820295D02*
X133794399Y-65725057D01*
X133794399Y-65725057D02*
X133842018Y-65582200D01*
X133842018Y-65582200D02*
X133889637Y-65344104D01*
X133889637Y-65344104D02*
X133889637Y-65153628D01*
X133889637Y-65153628D02*
X133842018Y-64915533D01*
X133842018Y-64915533D02*
X133794399Y-64772676D01*
X133794399Y-64772676D02*
X133746780Y-64677438D01*
X133746780Y-64677438D02*
X133651542Y-64534580D01*
X133651542Y-64534580D02*
X133603923Y-64486961D01*
X125335350Y-68122200D02*
X125240112Y-68169819D01*
X125240112Y-68169819D02*
X125049636Y-68169819D01*
X125049636Y-68169819D02*
X124954398Y-68122200D01*
X124954398Y-68122200D02*
X124906779Y-68074580D01*
X124906779Y-68074580D02*
X124859160Y-67979342D01*
X124859160Y-67979342D02*
X124859160Y-67693628D01*
X124859160Y-67693628D02*
X124906779Y-67598390D01*
X124906779Y-67598390D02*
X124954398Y-67550771D01*
X124954398Y-67550771D02*
X125049636Y-67503152D01*
X125049636Y-67503152D02*
X125240112Y-67503152D01*
X125240112Y-67503152D02*
X125335350Y-67550771D01*
X126192493Y-68169819D02*
X126192493Y-67646009D01*
X126192493Y-67646009D02*
X126144874Y-67550771D01*
X126144874Y-67550771D02*
X126049636Y-67503152D01*
X126049636Y-67503152D02*
X125859160Y-67503152D01*
X125859160Y-67503152D02*
X125763922Y-67550771D01*
X126192493Y-68122200D02*
X126097255Y-68169819D01*
X126097255Y-68169819D02*
X125859160Y-68169819D01*
X125859160Y-68169819D02*
X125763922Y-68122200D01*
X125763922Y-68122200D02*
X125716303Y-68026961D01*
X125716303Y-68026961D02*
X125716303Y-67931723D01*
X125716303Y-67931723D02*
X125763922Y-67836485D01*
X125763922Y-67836485D02*
X125859160Y-67788866D01*
X125859160Y-67788866D02*
X126097255Y-67788866D01*
X126097255Y-67788866D02*
X126192493Y-67741247D01*
X126525827Y-67503152D02*
X126906779Y-67503152D01*
X126668684Y-67169819D02*
X126668684Y-68026961D01*
X126668684Y-68026961D02*
X126716303Y-68122200D01*
X126716303Y-68122200D02*
X126811541Y-68169819D01*
X126811541Y-68169819D02*
X126906779Y-68169819D01*
X127240113Y-68169819D02*
X127240113Y-67169819D01*
X127668684Y-68169819D02*
X127668684Y-67646009D01*
X127668684Y-67646009D02*
X127621065Y-67550771D01*
X127621065Y-67550771D02*
X127525827Y-67503152D01*
X127525827Y-67503152D02*
X127382970Y-67503152D01*
X127382970Y-67503152D02*
X127287732Y-67550771D01*
X127287732Y-67550771D02*
X127240113Y-67598390D01*
X128287732Y-68169819D02*
X128192494Y-68122200D01*
X128192494Y-68122200D02*
X128144875Y-68074580D01*
X128144875Y-68074580D02*
X128097256Y-67979342D01*
X128097256Y-67979342D02*
X128097256Y-67693628D01*
X128097256Y-67693628D02*
X128144875Y-67598390D01*
X128144875Y-67598390D02*
X128192494Y-67550771D01*
X128192494Y-67550771D02*
X128287732Y-67503152D01*
X128287732Y-67503152D02*
X128430589Y-67503152D01*
X128430589Y-67503152D02*
X128525827Y-67550771D01*
X128525827Y-67550771D02*
X128573446Y-67598390D01*
X128573446Y-67598390D02*
X128621065Y-67693628D01*
X128621065Y-67693628D02*
X128621065Y-67979342D01*
X128621065Y-67979342D02*
X128573446Y-68074580D01*
X128573446Y-68074580D02*
X128525827Y-68122200D01*
X128525827Y-68122200D02*
X128430589Y-68169819D01*
X128430589Y-68169819D02*
X128287732Y-68169819D01*
X129478208Y-68169819D02*
X129478208Y-67169819D01*
X129478208Y-68122200D02*
X129382970Y-68169819D01*
X129382970Y-68169819D02*
X129192494Y-68169819D01*
X129192494Y-68169819D02*
X129097256Y-68122200D01*
X129097256Y-68122200D02*
X129049637Y-68074580D01*
X129049637Y-68074580D02*
X129002018Y-67979342D01*
X129002018Y-67979342D02*
X129002018Y-67693628D01*
X129002018Y-67693628D02*
X129049637Y-67598390D01*
X129049637Y-67598390D02*
X129097256Y-67550771D01*
X129097256Y-67550771D02*
X129192494Y-67503152D01*
X129192494Y-67503152D02*
X129382970Y-67503152D01*
X129382970Y-67503152D02*
X129478208Y-67550771D01*
X130335351Y-68122200D02*
X130240113Y-68169819D01*
X130240113Y-68169819D02*
X130049637Y-68169819D01*
X130049637Y-68169819D02*
X129954399Y-68122200D01*
X129954399Y-68122200D02*
X129906780Y-68026961D01*
X129906780Y-68026961D02*
X129906780Y-67646009D01*
X129906780Y-67646009D02*
X129954399Y-67550771D01*
X129954399Y-67550771D02*
X130049637Y-67503152D01*
X130049637Y-67503152D02*
X130240113Y-67503152D01*
X130240113Y-67503152D02*
X130335351Y-67550771D01*
X130335351Y-67550771D02*
X130382970Y-67646009D01*
X130382970Y-67646009D02*
X130382970Y-67741247D01*
X130382970Y-67741247D02*
X129906780Y-67836485D01*
X197160112Y-80376009D02*
X196826779Y-80376009D01*
X196826779Y-80899819D02*
X196826779Y-79899819D01*
X196826779Y-79899819D02*
X197302969Y-79899819D01*
X197683922Y-80899819D02*
X197683922Y-79899819D01*
X198636302Y-80899819D02*
X198160112Y-80899819D01*
X198160112Y-80899819D02*
X198160112Y-79899819D01*
X198826779Y-79899819D02*
X199398207Y-79899819D01*
X199112493Y-80899819D02*
X199112493Y-79899819D01*
X199731541Y-80376009D02*
X200064874Y-80376009D01*
X200207731Y-80899819D02*
X199731541Y-80899819D01*
X199731541Y-80899819D02*
X199731541Y-79899819D01*
X199731541Y-79899819D02*
X200207731Y-79899819D01*
X201207731Y-80899819D02*
X200874398Y-80423628D01*
X200636303Y-80899819D02*
X200636303Y-79899819D01*
X200636303Y-79899819D02*
X201017255Y-79899819D01*
X201017255Y-79899819D02*
X201112493Y-79947438D01*
X201112493Y-79947438D02*
X201160112Y-79995057D01*
X201160112Y-79995057D02*
X201207731Y-80090295D01*
X201207731Y-80090295D02*
X201207731Y-80233152D01*
X201207731Y-80233152D02*
X201160112Y-80328390D01*
X201160112Y-80328390D02*
X201112493Y-80376009D01*
X201112493Y-80376009D02*
X201017255Y-80423628D01*
X201017255Y-80423628D02*
X200636303Y-80423628D01*
X124228095Y-43994819D02*
X124228095Y-42994819D01*
X124228095Y-43471009D02*
X124799523Y-43471009D01*
X124799523Y-43994819D02*
X124799523Y-42994819D01*
X125180476Y-42994819D02*
X125799523Y-42994819D01*
X125799523Y-42994819D02*
X125466190Y-43375771D01*
X125466190Y-43375771D02*
X125609047Y-43375771D01*
X125609047Y-43375771D02*
X125704285Y-43423390D01*
X125704285Y-43423390D02*
X125751904Y-43471009D01*
X125751904Y-43471009D02*
X125799523Y-43566247D01*
X125799523Y-43566247D02*
X125799523Y-43804342D01*
X125799523Y-43804342D02*
X125751904Y-43899580D01*
X125751904Y-43899580D02*
X125704285Y-43947200D01*
X125704285Y-43947200D02*
X125609047Y-43994819D01*
X125609047Y-43994819D02*
X125323333Y-43994819D01*
X125323333Y-43994819D02*
X125228095Y-43947200D01*
X125228095Y-43947200D02*
X125180476Y-43899580D01*
X127646667Y-73847200D02*
X127789524Y-73894819D01*
X127789524Y-73894819D02*
X128027619Y-73894819D01*
X128027619Y-73894819D02*
X128122857Y-73847200D01*
X128122857Y-73847200D02*
X128170476Y-73799580D01*
X128170476Y-73799580D02*
X128218095Y-73704342D01*
X128218095Y-73704342D02*
X128218095Y-73609104D01*
X128218095Y-73609104D02*
X128170476Y-73513866D01*
X128170476Y-73513866D02*
X128122857Y-73466247D01*
X128122857Y-73466247D02*
X128027619Y-73418628D01*
X128027619Y-73418628D02*
X127837143Y-73371009D01*
X127837143Y-73371009D02*
X127741905Y-73323390D01*
X127741905Y-73323390D02*
X127694286Y-73275771D01*
X127694286Y-73275771D02*
X127646667Y-73180533D01*
X127646667Y-73180533D02*
X127646667Y-73085295D01*
X127646667Y-73085295D02*
X127694286Y-72990057D01*
X127694286Y-72990057D02*
X127741905Y-72942438D01*
X127741905Y-72942438D02*
X127837143Y-72894819D01*
X127837143Y-72894819D02*
X128075238Y-72894819D01*
X128075238Y-72894819D02*
X128218095Y-72942438D01*
X128551429Y-72894819D02*
X128789524Y-73894819D01*
X128789524Y-73894819D02*
X128980000Y-73180533D01*
X128980000Y-73180533D02*
X129170476Y-73894819D01*
X129170476Y-73894819D02*
X129408572Y-72894819D01*
X130313333Y-73894819D02*
X129741905Y-73894819D01*
X130027619Y-73894819D02*
X130027619Y-72894819D01*
X130027619Y-72894819D02*
X129932381Y-73037676D01*
X129932381Y-73037676D02*
X129837143Y-73132914D01*
X129837143Y-73132914D02*
X129741905Y-73180533D01*
X117628095Y-113434819D02*
X117628095Y-112434819D01*
X117628095Y-112911009D02*
X118199523Y-112911009D01*
X118199523Y-113434819D02*
X118199523Y-112434819D01*
X119104285Y-112768152D02*
X119104285Y-113434819D01*
X118866190Y-112387200D02*
X118628095Y-113101485D01*
X118628095Y-113101485D02*
X119247142Y-113101485D01*
X194658095Y-114254819D02*
X194658095Y-113254819D01*
X194658095Y-113731009D02*
X195229523Y-113731009D01*
X195229523Y-114254819D02*
X195229523Y-113254819D01*
X196229523Y-114254819D02*
X195658095Y-114254819D01*
X195943809Y-114254819D02*
X195943809Y-113254819D01*
X195943809Y-113254819D02*
X195848571Y-113397676D01*
X195848571Y-113397676D02*
X195753333Y-113492914D01*
X195753333Y-113492914D02*
X195658095Y-113540533D01*
X117981666Y-69534819D02*
X117981666Y-70249104D01*
X117981666Y-70249104D02*
X117934047Y-70391961D01*
X117934047Y-70391961D02*
X117838809Y-70487200D01*
X117838809Y-70487200D02*
X117695952Y-70534819D01*
X117695952Y-70534819D02*
X117600714Y-70534819D01*
X118410238Y-69630057D02*
X118457857Y-69582438D01*
X118457857Y-69582438D02*
X118553095Y-69534819D01*
X118553095Y-69534819D02*
X118791190Y-69534819D01*
X118791190Y-69534819D02*
X118886428Y-69582438D01*
X118886428Y-69582438D02*
X118934047Y-69630057D01*
X118934047Y-69630057D02*
X118981666Y-69725295D01*
X118981666Y-69725295D02*
X118981666Y-69820533D01*
X118981666Y-69820533D02*
X118934047Y-69963390D01*
X118934047Y-69963390D02*
X118362619Y-70534819D01*
X118362619Y-70534819D02*
X118981666Y-70534819D01*
X194558095Y-42764819D02*
X194558095Y-41764819D01*
X194558095Y-42241009D02*
X195129523Y-42241009D01*
X195129523Y-42764819D02*
X195129523Y-41764819D01*
X195558095Y-41860057D02*
X195605714Y-41812438D01*
X195605714Y-41812438D02*
X195700952Y-41764819D01*
X195700952Y-41764819D02*
X195939047Y-41764819D01*
X195939047Y-41764819D02*
X196034285Y-41812438D01*
X196034285Y-41812438D02*
X196081904Y-41860057D01*
X196081904Y-41860057D02*
X196129523Y-41955295D01*
X196129523Y-41955295D02*
X196129523Y-42050533D01*
X196129523Y-42050533D02*
X196081904Y-42193390D01*
X196081904Y-42193390D02*
X195510476Y-42764819D01*
X195510476Y-42764819D02*
X196129523Y-42764819D01*
X157646667Y-98847200D02*
X157789524Y-98894819D01*
X157789524Y-98894819D02*
X158027619Y-98894819D01*
X158027619Y-98894819D02*
X158122857Y-98847200D01*
X158122857Y-98847200D02*
X158170476Y-98799580D01*
X158170476Y-98799580D02*
X158218095Y-98704342D01*
X158218095Y-98704342D02*
X158218095Y-98609104D01*
X158218095Y-98609104D02*
X158170476Y-98513866D01*
X158170476Y-98513866D02*
X158122857Y-98466247D01*
X158122857Y-98466247D02*
X158027619Y-98418628D01*
X158027619Y-98418628D02*
X157837143Y-98371009D01*
X157837143Y-98371009D02*
X157741905Y-98323390D01*
X157741905Y-98323390D02*
X157694286Y-98275771D01*
X157694286Y-98275771D02*
X157646667Y-98180533D01*
X157646667Y-98180533D02*
X157646667Y-98085295D01*
X157646667Y-98085295D02*
X157694286Y-97990057D01*
X157694286Y-97990057D02*
X157741905Y-97942438D01*
X157741905Y-97942438D02*
X157837143Y-97894819D01*
X157837143Y-97894819D02*
X158075238Y-97894819D01*
X158075238Y-97894819D02*
X158218095Y-97942438D01*
X158551429Y-97894819D02*
X158789524Y-98894819D01*
X158789524Y-98894819D02*
X158980000Y-98180533D01*
X158980000Y-98180533D02*
X159170476Y-98894819D01*
X159170476Y-98894819D02*
X159408572Y-97894819D01*
X159694286Y-97894819D02*
X160313333Y-97894819D01*
X160313333Y-97894819D02*
X159980000Y-98275771D01*
X159980000Y-98275771D02*
X160122857Y-98275771D01*
X160122857Y-98275771D02*
X160218095Y-98323390D01*
X160218095Y-98323390D02*
X160265714Y-98371009D01*
X160265714Y-98371009D02*
X160313333Y-98466247D01*
X160313333Y-98466247D02*
X160313333Y-98704342D01*
X160313333Y-98704342D02*
X160265714Y-98799580D01*
X160265714Y-98799580D02*
X160218095Y-98847200D01*
X160218095Y-98847200D02*
X160122857Y-98894819D01*
X160122857Y-98894819D02*
X159837143Y-98894819D01*
X159837143Y-98894819D02*
X159741905Y-98847200D01*
X159741905Y-98847200D02*
X159694286Y-98799580D01*
X127646667Y-98847200D02*
X127789524Y-98894819D01*
X127789524Y-98894819D02*
X128027619Y-98894819D01*
X128027619Y-98894819D02*
X128122857Y-98847200D01*
X128122857Y-98847200D02*
X128170476Y-98799580D01*
X128170476Y-98799580D02*
X128218095Y-98704342D01*
X128218095Y-98704342D02*
X128218095Y-98609104D01*
X128218095Y-98609104D02*
X128170476Y-98513866D01*
X128170476Y-98513866D02*
X128122857Y-98466247D01*
X128122857Y-98466247D02*
X128027619Y-98418628D01*
X128027619Y-98418628D02*
X127837143Y-98371009D01*
X127837143Y-98371009D02*
X127741905Y-98323390D01*
X127741905Y-98323390D02*
X127694286Y-98275771D01*
X127694286Y-98275771D02*
X127646667Y-98180533D01*
X127646667Y-98180533D02*
X127646667Y-98085295D01*
X127646667Y-98085295D02*
X127694286Y-97990057D01*
X127694286Y-97990057D02*
X127741905Y-97942438D01*
X127741905Y-97942438D02*
X127837143Y-97894819D01*
X127837143Y-97894819D02*
X128075238Y-97894819D01*
X128075238Y-97894819D02*
X128218095Y-97942438D01*
X128551429Y-97894819D02*
X128789524Y-98894819D01*
X128789524Y-98894819D02*
X128980000Y-98180533D01*
X128980000Y-98180533D02*
X129170476Y-98894819D01*
X129170476Y-98894819D02*
X129408572Y-97894819D01*
X129741905Y-97990057D02*
X129789524Y-97942438D01*
X129789524Y-97942438D02*
X129884762Y-97894819D01*
X129884762Y-97894819D02*
X130122857Y-97894819D01*
X130122857Y-97894819D02*
X130218095Y-97942438D01*
X130218095Y-97942438D02*
X130265714Y-97990057D01*
X130265714Y-97990057D02*
X130313333Y-98085295D01*
X130313333Y-98085295D02*
X130313333Y-98180533D01*
X130313333Y-98180533D02*
X130265714Y-98323390D01*
X130265714Y-98323390D02*
X129694286Y-98894819D01*
X129694286Y-98894819D02*
X130313333Y-98894819D01*
X187646667Y-73847200D02*
X187789524Y-73894819D01*
X187789524Y-73894819D02*
X188027619Y-73894819D01*
X188027619Y-73894819D02*
X188122857Y-73847200D01*
X188122857Y-73847200D02*
X188170476Y-73799580D01*
X188170476Y-73799580D02*
X188218095Y-73704342D01*
X188218095Y-73704342D02*
X188218095Y-73609104D01*
X188218095Y-73609104D02*
X188170476Y-73513866D01*
X188170476Y-73513866D02*
X188122857Y-73466247D01*
X188122857Y-73466247D02*
X188027619Y-73418628D01*
X188027619Y-73418628D02*
X187837143Y-73371009D01*
X187837143Y-73371009D02*
X187741905Y-73323390D01*
X187741905Y-73323390D02*
X187694286Y-73275771D01*
X187694286Y-73275771D02*
X187646667Y-73180533D01*
X187646667Y-73180533D02*
X187646667Y-73085295D01*
X187646667Y-73085295D02*
X187694286Y-72990057D01*
X187694286Y-72990057D02*
X187741905Y-72942438D01*
X187741905Y-72942438D02*
X187837143Y-72894819D01*
X187837143Y-72894819D02*
X188075238Y-72894819D01*
X188075238Y-72894819D02*
X188218095Y-72942438D01*
X188551429Y-72894819D02*
X188789524Y-73894819D01*
X188789524Y-73894819D02*
X188980000Y-73180533D01*
X188980000Y-73180533D02*
X189170476Y-73894819D01*
X189170476Y-73894819D02*
X189408572Y-72894819D01*
X189694286Y-72894819D02*
X190360952Y-72894819D01*
X190360952Y-72894819D02*
X189932381Y-73894819D01*
X187646667Y-98847200D02*
X187789524Y-98894819D01*
X187789524Y-98894819D02*
X188027619Y-98894819D01*
X188027619Y-98894819D02*
X188122857Y-98847200D01*
X188122857Y-98847200D02*
X188170476Y-98799580D01*
X188170476Y-98799580D02*
X188218095Y-98704342D01*
X188218095Y-98704342D02*
X188218095Y-98609104D01*
X188218095Y-98609104D02*
X188170476Y-98513866D01*
X188170476Y-98513866D02*
X188122857Y-98466247D01*
X188122857Y-98466247D02*
X188027619Y-98418628D01*
X188027619Y-98418628D02*
X187837143Y-98371009D01*
X187837143Y-98371009D02*
X187741905Y-98323390D01*
X187741905Y-98323390D02*
X187694286Y-98275771D01*
X187694286Y-98275771D02*
X187646667Y-98180533D01*
X187646667Y-98180533D02*
X187646667Y-98085295D01*
X187646667Y-98085295D02*
X187694286Y-97990057D01*
X187694286Y-97990057D02*
X187741905Y-97942438D01*
X187741905Y-97942438D02*
X187837143Y-97894819D01*
X187837143Y-97894819D02*
X188075238Y-97894819D01*
X188075238Y-97894819D02*
X188218095Y-97942438D01*
X188551429Y-97894819D02*
X188789524Y-98894819D01*
X188789524Y-98894819D02*
X188980000Y-98180533D01*
X188980000Y-98180533D02*
X189170476Y-98894819D01*
X189170476Y-98894819D02*
X189408572Y-97894819D01*
X189932381Y-98323390D02*
X189837143Y-98275771D01*
X189837143Y-98275771D02*
X189789524Y-98228152D01*
X189789524Y-98228152D02*
X189741905Y-98132914D01*
X189741905Y-98132914D02*
X189741905Y-98085295D01*
X189741905Y-98085295D02*
X189789524Y-97990057D01*
X189789524Y-97990057D02*
X189837143Y-97942438D01*
X189837143Y-97942438D02*
X189932381Y-97894819D01*
X189932381Y-97894819D02*
X190122857Y-97894819D01*
X190122857Y-97894819D02*
X190218095Y-97942438D01*
X190218095Y-97942438D02*
X190265714Y-97990057D01*
X190265714Y-97990057D02*
X190313333Y-98085295D01*
X190313333Y-98085295D02*
X190313333Y-98132914D01*
X190313333Y-98132914D02*
X190265714Y-98228152D01*
X190265714Y-98228152D02*
X190218095Y-98275771D01*
X190218095Y-98275771D02*
X190122857Y-98323390D01*
X190122857Y-98323390D02*
X189932381Y-98323390D01*
X189932381Y-98323390D02*
X189837143Y-98371009D01*
X189837143Y-98371009D02*
X189789524Y-98418628D01*
X189789524Y-98418628D02*
X189741905Y-98513866D01*
X189741905Y-98513866D02*
X189741905Y-98704342D01*
X189741905Y-98704342D02*
X189789524Y-98799580D01*
X189789524Y-98799580D02*
X189837143Y-98847200D01*
X189837143Y-98847200D02*
X189932381Y-98894819D01*
X189932381Y-98894819D02*
X190122857Y-98894819D01*
X190122857Y-98894819D02*
X190218095Y-98847200D01*
X190218095Y-98847200D02*
X190265714Y-98799580D01*
X190265714Y-98799580D02*
X190313333Y-98704342D01*
X190313333Y-98704342D02*
X190313333Y-98513866D01*
X190313333Y-98513866D02*
X190265714Y-98418628D01*
X190265714Y-98418628D02*
X190218095Y-98371009D01*
X190218095Y-98371009D02*
X190122857Y-98323390D01*
X127170476Y-48847200D02*
X127313333Y-48894819D01*
X127313333Y-48894819D02*
X127551428Y-48894819D01*
X127551428Y-48894819D02*
X127646666Y-48847200D01*
X127646666Y-48847200D02*
X127694285Y-48799580D01*
X127694285Y-48799580D02*
X127741904Y-48704342D01*
X127741904Y-48704342D02*
X127741904Y-48609104D01*
X127741904Y-48609104D02*
X127694285Y-48513866D01*
X127694285Y-48513866D02*
X127646666Y-48466247D01*
X127646666Y-48466247D02*
X127551428Y-48418628D01*
X127551428Y-48418628D02*
X127360952Y-48371009D01*
X127360952Y-48371009D02*
X127265714Y-48323390D01*
X127265714Y-48323390D02*
X127218095Y-48275771D01*
X127218095Y-48275771D02*
X127170476Y-48180533D01*
X127170476Y-48180533D02*
X127170476Y-48085295D01*
X127170476Y-48085295D02*
X127218095Y-47990057D01*
X127218095Y-47990057D02*
X127265714Y-47942438D01*
X127265714Y-47942438D02*
X127360952Y-47894819D01*
X127360952Y-47894819D02*
X127599047Y-47894819D01*
X127599047Y-47894819D02*
X127741904Y-47942438D01*
X128075238Y-47894819D02*
X128313333Y-48894819D01*
X128313333Y-48894819D02*
X128503809Y-48180533D01*
X128503809Y-48180533D02*
X128694285Y-48894819D01*
X128694285Y-48894819D02*
X128932381Y-47894819D01*
X129837142Y-48894819D02*
X129265714Y-48894819D01*
X129551428Y-48894819D02*
X129551428Y-47894819D01*
X129551428Y-47894819D02*
X129456190Y-48037676D01*
X129456190Y-48037676D02*
X129360952Y-48132914D01*
X129360952Y-48132914D02*
X129265714Y-48180533D01*
X130456190Y-47894819D02*
X130551428Y-47894819D01*
X130551428Y-47894819D02*
X130646666Y-47942438D01*
X130646666Y-47942438D02*
X130694285Y-47990057D01*
X130694285Y-47990057D02*
X130741904Y-48085295D01*
X130741904Y-48085295D02*
X130789523Y-48275771D01*
X130789523Y-48275771D02*
X130789523Y-48513866D01*
X130789523Y-48513866D02*
X130741904Y-48704342D01*
X130741904Y-48704342D02*
X130694285Y-48799580D01*
X130694285Y-48799580D02*
X130646666Y-48847200D01*
X130646666Y-48847200D02*
X130551428Y-48894819D01*
X130551428Y-48894819D02*
X130456190Y-48894819D01*
X130456190Y-48894819D02*
X130360952Y-48847200D01*
X130360952Y-48847200D02*
X130313333Y-48799580D01*
X130313333Y-48799580D02*
X130265714Y-48704342D01*
X130265714Y-48704342D02*
X130218095Y-48513866D01*
X130218095Y-48513866D02*
X130218095Y-48275771D01*
X130218095Y-48275771D02*
X130265714Y-48085295D01*
X130265714Y-48085295D02*
X130313333Y-47990057D01*
X130313333Y-47990057D02*
X130360952Y-47942438D01*
X130360952Y-47942438D02*
X130456190Y-47894819D01*
X157646667Y-73847200D02*
X157789524Y-73894819D01*
X157789524Y-73894819D02*
X158027619Y-73894819D01*
X158027619Y-73894819D02*
X158122857Y-73847200D01*
X158122857Y-73847200D02*
X158170476Y-73799580D01*
X158170476Y-73799580D02*
X158218095Y-73704342D01*
X158218095Y-73704342D02*
X158218095Y-73609104D01*
X158218095Y-73609104D02*
X158170476Y-73513866D01*
X158170476Y-73513866D02*
X158122857Y-73466247D01*
X158122857Y-73466247D02*
X158027619Y-73418628D01*
X158027619Y-73418628D02*
X157837143Y-73371009D01*
X157837143Y-73371009D02*
X157741905Y-73323390D01*
X157741905Y-73323390D02*
X157694286Y-73275771D01*
X157694286Y-73275771D02*
X157646667Y-73180533D01*
X157646667Y-73180533D02*
X157646667Y-73085295D01*
X157646667Y-73085295D02*
X157694286Y-72990057D01*
X157694286Y-72990057D02*
X157741905Y-72942438D01*
X157741905Y-72942438D02*
X157837143Y-72894819D01*
X157837143Y-72894819D02*
X158075238Y-72894819D01*
X158075238Y-72894819D02*
X158218095Y-72942438D01*
X158551429Y-72894819D02*
X158789524Y-73894819D01*
X158789524Y-73894819D02*
X158980000Y-73180533D01*
X158980000Y-73180533D02*
X159170476Y-73894819D01*
X159170476Y-73894819D02*
X159408572Y-72894819D01*
X160218095Y-73228152D02*
X160218095Y-73894819D01*
X159980000Y-72847200D02*
X159741905Y-73561485D01*
X159741905Y-73561485D02*
X160360952Y-73561485D01*
X187646667Y-48847200D02*
X187789524Y-48894819D01*
X187789524Y-48894819D02*
X188027619Y-48894819D01*
X188027619Y-48894819D02*
X188122857Y-48847200D01*
X188122857Y-48847200D02*
X188170476Y-48799580D01*
X188170476Y-48799580D02*
X188218095Y-48704342D01*
X188218095Y-48704342D02*
X188218095Y-48609104D01*
X188218095Y-48609104D02*
X188170476Y-48513866D01*
X188170476Y-48513866D02*
X188122857Y-48466247D01*
X188122857Y-48466247D02*
X188027619Y-48418628D01*
X188027619Y-48418628D02*
X187837143Y-48371009D01*
X187837143Y-48371009D02*
X187741905Y-48323390D01*
X187741905Y-48323390D02*
X187694286Y-48275771D01*
X187694286Y-48275771D02*
X187646667Y-48180533D01*
X187646667Y-48180533D02*
X187646667Y-48085295D01*
X187646667Y-48085295D02*
X187694286Y-47990057D01*
X187694286Y-47990057D02*
X187741905Y-47942438D01*
X187741905Y-47942438D02*
X187837143Y-47894819D01*
X187837143Y-47894819D02*
X188075238Y-47894819D01*
X188075238Y-47894819D02*
X188218095Y-47942438D01*
X188551429Y-47894819D02*
X188789524Y-48894819D01*
X188789524Y-48894819D02*
X188980000Y-48180533D01*
X188980000Y-48180533D02*
X189170476Y-48894819D01*
X189170476Y-48894819D02*
X189408572Y-47894819D01*
X190218095Y-47894819D02*
X190027619Y-47894819D01*
X190027619Y-47894819D02*
X189932381Y-47942438D01*
X189932381Y-47942438D02*
X189884762Y-47990057D01*
X189884762Y-47990057D02*
X189789524Y-48132914D01*
X189789524Y-48132914D02*
X189741905Y-48323390D01*
X189741905Y-48323390D02*
X189741905Y-48704342D01*
X189741905Y-48704342D02*
X189789524Y-48799580D01*
X189789524Y-48799580D02*
X189837143Y-48847200D01*
X189837143Y-48847200D02*
X189932381Y-48894819D01*
X189932381Y-48894819D02*
X190122857Y-48894819D01*
X190122857Y-48894819D02*
X190218095Y-48847200D01*
X190218095Y-48847200D02*
X190265714Y-48799580D01*
X190265714Y-48799580D02*
X190313333Y-48704342D01*
X190313333Y-48704342D02*
X190313333Y-48466247D01*
X190313333Y-48466247D02*
X190265714Y-48371009D01*
X190265714Y-48371009D02*
X190218095Y-48323390D01*
X190218095Y-48323390D02*
X190122857Y-48275771D01*
X190122857Y-48275771D02*
X189932381Y-48275771D01*
X189932381Y-48275771D02*
X189837143Y-48323390D01*
X189837143Y-48323390D02*
X189789524Y-48371009D01*
X189789524Y-48371009D02*
X189741905Y-48466247D01*
X157646667Y-48847200D02*
X157789524Y-48894819D01*
X157789524Y-48894819D02*
X158027619Y-48894819D01*
X158027619Y-48894819D02*
X158122857Y-48847200D01*
X158122857Y-48847200D02*
X158170476Y-48799580D01*
X158170476Y-48799580D02*
X158218095Y-48704342D01*
X158218095Y-48704342D02*
X158218095Y-48609104D01*
X158218095Y-48609104D02*
X158170476Y-48513866D01*
X158170476Y-48513866D02*
X158122857Y-48466247D01*
X158122857Y-48466247D02*
X158027619Y-48418628D01*
X158027619Y-48418628D02*
X157837143Y-48371009D01*
X157837143Y-48371009D02*
X157741905Y-48323390D01*
X157741905Y-48323390D02*
X157694286Y-48275771D01*
X157694286Y-48275771D02*
X157646667Y-48180533D01*
X157646667Y-48180533D02*
X157646667Y-48085295D01*
X157646667Y-48085295D02*
X157694286Y-47990057D01*
X157694286Y-47990057D02*
X157741905Y-47942438D01*
X157741905Y-47942438D02*
X157837143Y-47894819D01*
X157837143Y-47894819D02*
X158075238Y-47894819D01*
X158075238Y-47894819D02*
X158218095Y-47942438D01*
X158551429Y-47894819D02*
X158789524Y-48894819D01*
X158789524Y-48894819D02*
X158980000Y-48180533D01*
X158980000Y-48180533D02*
X159170476Y-48894819D01*
X159170476Y-48894819D02*
X159408572Y-47894819D01*
X160265714Y-47894819D02*
X159789524Y-47894819D01*
X159789524Y-47894819D02*
X159741905Y-48371009D01*
X159741905Y-48371009D02*
X159789524Y-48323390D01*
X159789524Y-48323390D02*
X159884762Y-48275771D01*
X159884762Y-48275771D02*
X160122857Y-48275771D01*
X160122857Y-48275771D02*
X160218095Y-48323390D01*
X160218095Y-48323390D02*
X160265714Y-48371009D01*
X160265714Y-48371009D02*
X160313333Y-48466247D01*
X160313333Y-48466247D02*
X160313333Y-48704342D01*
X160313333Y-48704342D02*
X160265714Y-48799580D01*
X160265714Y-48799580D02*
X160218095Y-48847200D01*
X160218095Y-48847200D02*
X160122857Y-48894819D01*
X160122857Y-48894819D02*
X159884762Y-48894819D01*
X159884762Y-48894819D02*
X159789524Y-48847200D01*
X159789524Y-48847200D02*
X159741905Y-48799580D01*
X175876666Y-117404819D02*
X175876666Y-118119104D01*
X175876666Y-118119104D02*
X175829047Y-118261961D01*
X175829047Y-118261961D02*
X175733809Y-118357200D01*
X175733809Y-118357200D02*
X175590952Y-118404819D01*
X175590952Y-118404819D02*
X175495714Y-118404819D01*
X176876666Y-118404819D02*
X176305238Y-118404819D01*
X176590952Y-118404819D02*
X176590952Y-117404819D01*
X176590952Y-117404819D02*
X176495714Y-117547676D01*
X176495714Y-117547676D02*
X176400476Y-117642914D01*
X176400476Y-117642914D02*
X176305238Y-117690533D01*
D11*
X123000000Y-74450000D02*
X135300000Y-74450000D01*
X123000000Y-77170000D02*
X123000000Y-74450000D01*
X123000000Y-82170000D02*
X123000000Y-79030000D01*
X123000000Y-86750000D02*
X123000000Y-84030000D01*
X135300000Y-74450000D02*
X135300000Y-77170000D01*
X135300000Y-79030000D02*
X135300000Y-82170000D01*
X135300000Y-84030000D02*
X135300000Y-86750000D01*
X135300000Y-86750000D02*
X123000000Y-86750000D01*
X133829050Y-80640000D02*
G75*
G03*
X124670950Y-80640000I-4579050J0D01*
G01*
X124670950Y-80640000D02*
G75*
G03*
X133829050Y-80640000I4579050J0D01*
G01*
X123970000Y-69080000D02*
X122700000Y-69080000D01*
X123970000Y-67810000D02*
X123970000Y-69080000D01*
X121657071Y-65650000D02*
X121260000Y-65650000D01*
X121657071Y-64890000D02*
X121260000Y-64890000D01*
X121590000Y-68190000D02*
X121260000Y-68190000D01*
X121590000Y-67430000D02*
X121260000Y-67430000D01*
X121260000Y-69140000D02*
X121260000Y-63940000D01*
X121260000Y-66540000D02*
X118600000Y-66540000D01*
X121260000Y-63940000D02*
X118600000Y-63940000D01*
X118600000Y-69140000D02*
X121260000Y-69140000D01*
X118600000Y-68190000D02*
X112600000Y-68190000D01*
X118600000Y-68130000D02*
X112600000Y-68130000D01*
X118600000Y-68010000D02*
X112600000Y-68010000D01*
X118600000Y-67890000D02*
X112600000Y-67890000D01*
X118600000Y-67770000D02*
X112600000Y-67770000D01*
X118600000Y-67650000D02*
X112600000Y-67650000D01*
X118600000Y-67530000D02*
X112600000Y-67530000D01*
X118600000Y-65650000D02*
X112600000Y-65650000D01*
X118600000Y-63940000D02*
X118600000Y-69140000D01*
X112600000Y-68190000D02*
X112600000Y-67430000D01*
X112600000Y-67430000D02*
X118600000Y-67430000D01*
X112600000Y-65650000D02*
X112600000Y-64890000D01*
X112600000Y-64890000D02*
X118600000Y-64890000D01*
X153000000Y-99450000D02*
X165300000Y-99450000D01*
X153000000Y-102170000D02*
X153000000Y-99450000D01*
X153000000Y-107170000D02*
X153000000Y-104030000D01*
X153000000Y-111750000D02*
X153000000Y-109030000D01*
X165300000Y-99450000D02*
X165300000Y-102170000D01*
X165300000Y-104030000D02*
X165300000Y-107170000D01*
X165300000Y-109030000D02*
X165300000Y-111750000D01*
X165300000Y-111750000D02*
X153000000Y-111750000D01*
X163829050Y-105640000D02*
G75*
G03*
X154670950Y-105640000I-4579050J0D01*
G01*
X154670950Y-105640000D02*
G75*
G03*
X163829050Y-105640000I4579050J0D01*
G01*
X123000000Y-99450000D02*
X135300000Y-99450000D01*
X123000000Y-102170000D02*
X123000000Y-99450000D01*
X123000000Y-107170000D02*
X123000000Y-104030000D01*
X123000000Y-111750000D02*
X123000000Y-109030000D01*
X135300000Y-99450000D02*
X135300000Y-102170000D01*
X135300000Y-104030000D02*
X135300000Y-107170000D01*
X135300000Y-109030000D02*
X135300000Y-111750000D01*
X135300000Y-111750000D02*
X123000000Y-111750000D01*
X133829050Y-105640000D02*
G75*
G03*
X124670950Y-105640000I-4579050J0D01*
G01*
X124670950Y-105640000D02*
G75*
G03*
X133829050Y-105640000I4579050J0D01*
G01*
X183000000Y-74450000D02*
X195300000Y-74450000D01*
X183000000Y-77170000D02*
X183000000Y-74450000D01*
X183000000Y-82170000D02*
X183000000Y-79030000D01*
X183000000Y-86750000D02*
X183000000Y-84030000D01*
X195300000Y-74450000D02*
X195300000Y-77170000D01*
X195300000Y-79030000D02*
X195300000Y-82170000D01*
X195300000Y-84030000D02*
X195300000Y-86750000D01*
X195300000Y-86750000D02*
X183000000Y-86750000D01*
X193829050Y-80640000D02*
G75*
G03*
X184670950Y-80640000I-4579050J0D01*
G01*
X184670950Y-80640000D02*
G75*
G03*
X193829050Y-80640000I4579050J0D01*
G01*
X183000000Y-99450000D02*
X195300000Y-99450000D01*
X183000000Y-102170000D02*
X183000000Y-99450000D01*
X183000000Y-107170000D02*
X183000000Y-104030000D01*
X183000000Y-111750000D02*
X183000000Y-109030000D01*
X195300000Y-99450000D02*
X195300000Y-102170000D01*
X195300000Y-104030000D02*
X195300000Y-107170000D01*
X195300000Y-109030000D02*
X195300000Y-111750000D01*
X195300000Y-111750000D02*
X183000000Y-111750000D01*
X193829050Y-105640000D02*
G75*
G03*
X184670950Y-105640000I-4579050J0D01*
G01*
X184670950Y-105640000D02*
G75*
G03*
X193829050Y-105640000I4579050J0D01*
G01*
X123000000Y-49450000D02*
X135300000Y-49450000D01*
X123000000Y-52170000D02*
X123000000Y-49450000D01*
X123000000Y-57170000D02*
X123000000Y-54030000D01*
X123000000Y-61750000D02*
X123000000Y-59030000D01*
X135300000Y-49450000D02*
X135300000Y-52170000D01*
X135300000Y-54030000D02*
X135300000Y-57170000D01*
X135300000Y-59030000D02*
X135300000Y-61750000D01*
X135300000Y-61750000D02*
X123000000Y-61750000D01*
X133829050Y-55640000D02*
G75*
G03*
X124670950Y-55640000I-4579050J0D01*
G01*
X124670950Y-55640000D02*
G75*
G03*
X133829050Y-55640000I4579050J0D01*
G01*
X153000000Y-74450000D02*
X165300000Y-74450000D01*
X153000000Y-77170000D02*
X153000000Y-74450000D01*
X153000000Y-82170000D02*
X153000000Y-79030000D01*
X153000000Y-86750000D02*
X153000000Y-84030000D01*
X165300000Y-74450000D02*
X165300000Y-77170000D01*
X165300000Y-79030000D02*
X165300000Y-82170000D01*
X165300000Y-84030000D02*
X165300000Y-86750000D01*
X165300000Y-86750000D02*
X153000000Y-86750000D01*
X163829050Y-80640000D02*
G75*
G03*
X154670950Y-80640000I-4579050J0D01*
G01*
X154670950Y-80640000D02*
G75*
G03*
X163829050Y-80640000I4579050J0D01*
G01*
X183000000Y-49450000D02*
X195300000Y-49450000D01*
X183000000Y-52170000D02*
X183000000Y-49450000D01*
X183000000Y-57170000D02*
X183000000Y-54030000D01*
X183000000Y-61750000D02*
X183000000Y-59030000D01*
X195300000Y-49450000D02*
X195300000Y-52170000D01*
X195300000Y-54030000D02*
X195300000Y-57170000D01*
X195300000Y-59030000D02*
X195300000Y-61750000D01*
X195300000Y-61750000D02*
X183000000Y-61750000D01*
X193829050Y-55640000D02*
G75*
G03*
X184670950Y-55640000I-4579050J0D01*
G01*
X184670950Y-55640000D02*
G75*
G03*
X193829050Y-55640000I4579050J0D01*
G01*
X153000000Y-49450000D02*
X165300000Y-49450000D01*
X153000000Y-52170000D02*
X153000000Y-49450000D01*
X153000000Y-57170000D02*
X153000000Y-54030000D01*
X153000000Y-61750000D02*
X153000000Y-59030000D01*
X165300000Y-49450000D02*
X165300000Y-52170000D01*
X165300000Y-54030000D02*
X165300000Y-57170000D01*
X165300000Y-59030000D02*
X165300000Y-61750000D01*
X165300000Y-61750000D02*
X153000000Y-61750000D01*
X163829050Y-55640000D02*
G75*
G03*
X154670950Y-55640000I-4579050J0D01*
G01*
X154670950Y-55640000D02*
G75*
G03*
X163829050Y-55640000I4579050J0D01*
G01*
X174555000Y-114845000D02*
X174555000Y-116115000D01*
X173285000Y-114845000D02*
X174555000Y-114845000D01*
X171125000Y-117157929D02*
X171125000Y-117555000D01*
X170365000Y-117157929D02*
X170365000Y-117555000D01*
X168585000Y-117157929D02*
X168585000Y-117555000D01*
X167825000Y-117157929D02*
X167825000Y-117555000D01*
X166045000Y-117157929D02*
X166045000Y-117555000D01*
X165285000Y-117157929D02*
X165285000Y-117555000D01*
X163505000Y-117157929D02*
X163505000Y-117555000D01*
X162745000Y-117157929D02*
X162745000Y-117555000D01*
X160965000Y-117157929D02*
X160965000Y-117555000D01*
X160205000Y-117157929D02*
X160205000Y-117555000D01*
X158425000Y-117157929D02*
X158425000Y-117555000D01*
X157665000Y-117157929D02*
X157665000Y-117555000D01*
X155885000Y-117157929D02*
X155885000Y-117555000D01*
X155125000Y-117157929D02*
X155125000Y-117555000D01*
X153345000Y-117157929D02*
X153345000Y-117555000D01*
X152585000Y-117157929D02*
X152585000Y-117555000D01*
X150805000Y-117157929D02*
X150805000Y-117555000D01*
X150045000Y-117157929D02*
X150045000Y-117555000D01*
X148265000Y-117157929D02*
X148265000Y-117555000D01*
X147505000Y-117157929D02*
X147505000Y-117555000D01*
X145725000Y-117157929D02*
X145725000Y-117555000D01*
X144965000Y-117157929D02*
X144965000Y-117555000D01*
X173665000Y-117225000D02*
X173665000Y-117555000D01*
X172905000Y-117225000D02*
X172905000Y-117555000D01*
X174615000Y-117555000D02*
X144015000Y-117555000D01*
X172015000Y-117555000D02*
X172015000Y-120215000D01*
X169475000Y-117555000D02*
X169475000Y-120215000D01*
X166935000Y-117555000D02*
X166935000Y-120215000D01*
X164395000Y-117555000D02*
X164395000Y-120215000D01*
X161855000Y-117555000D02*
X161855000Y-120215000D01*
X159315000Y-117555000D02*
X159315000Y-120215000D01*
X156775000Y-117555000D02*
X156775000Y-120215000D01*
X154235000Y-117555000D02*
X154235000Y-120215000D01*
X151695000Y-117555000D02*
X151695000Y-120215000D01*
X149155000Y-117555000D02*
X149155000Y-120215000D01*
X146615000Y-117555000D02*
X146615000Y-120215000D01*
X144015000Y-117555000D02*
X144015000Y-120215000D01*
X174615000Y-120215000D02*
X174615000Y-117555000D01*
X173665000Y-120215000D02*
X173665000Y-126215000D01*
X173605000Y-120215000D02*
X173605000Y-126215000D01*
X173485000Y-120215000D02*
X173485000Y-126215000D01*
X173365000Y-120215000D02*
X173365000Y-126215000D01*
X173245000Y-120215000D02*
X173245000Y-126215000D01*
X173125000Y-120215000D02*
X173125000Y-126215000D01*
X173005000Y-120215000D02*
X173005000Y-126215000D01*
X171125000Y-120215000D02*
X171125000Y-126215000D01*
X168585000Y-120215000D02*
X168585000Y-126215000D01*
X166045000Y-120215000D02*
X166045000Y-126215000D01*
X163505000Y-120215000D02*
X163505000Y-126215000D01*
X160965000Y-120215000D02*
X160965000Y-126215000D01*
X158425000Y-120215000D02*
X158425000Y-126215000D01*
X155885000Y-120215000D02*
X155885000Y-126215000D01*
X153345000Y-120215000D02*
X153345000Y-126215000D01*
X150805000Y-120215000D02*
X150805000Y-126215000D01*
X148265000Y-120215000D02*
X148265000Y-126215000D01*
X145725000Y-120215000D02*
X145725000Y-126215000D01*
X144015000Y-120215000D02*
X174615000Y-120215000D01*
X173665000Y-126215000D02*
X172905000Y-126215000D01*
X172905000Y-126215000D02*
X172905000Y-120215000D01*
X171125000Y-126215000D02*
X170365000Y-126215000D01*
X170365000Y-126215000D02*
X170365000Y-120215000D01*
X168585000Y-126215000D02*
X167825000Y-126215000D01*
X167825000Y-126215000D02*
X167825000Y-120215000D01*
X166045000Y-126215000D02*
X165285000Y-126215000D01*
X165285000Y-126215000D02*
X165285000Y-120215000D01*
X163505000Y-126215000D02*
X162745000Y-126215000D01*
X162745000Y-126215000D02*
X162745000Y-120215000D01*
X160965000Y-126215000D02*
X160205000Y-126215000D01*
X160205000Y-126215000D02*
X160205000Y-120215000D01*
X158425000Y-126215000D02*
X157665000Y-126215000D01*
X157665000Y-126215000D02*
X157665000Y-120215000D01*
X155885000Y-126215000D02*
X155125000Y-126215000D01*
X155125000Y-126215000D02*
X155125000Y-120215000D01*
X153345000Y-126215000D02*
X152585000Y-126215000D01*
X152585000Y-126215000D02*
X152585000Y-120215000D01*
X150805000Y-126215000D02*
X150045000Y-126215000D01*
X150045000Y-126215000D02*
X150045000Y-120215000D01*
X148265000Y-126215000D02*
X147505000Y-126215000D01*
X147505000Y-126215000D02*
X147505000Y-120215000D01*
X145725000Y-126215000D02*
X144965000Y-126215000D01*
X144965000Y-126215000D02*
X144965000Y-120215000D01*
%LPC*%
D12*
X121000000Y-44000000D03*
D13*
X122900000Y-78100000D03*
X135400000Y-78100000D03*
X122900000Y-83100000D03*
X135400000Y-83100000D03*
D12*
X121000000Y-116000000D03*
X199000000Y-116000000D03*
D14*
X122700000Y-67810000D03*
D15*
X122700000Y-65270000D03*
D12*
X199000000Y-44000000D03*
D13*
X152900000Y-103100000D03*
X165400000Y-103100000D03*
X152900000Y-108100000D03*
X165400000Y-108100000D03*
X122900000Y-103100000D03*
X135400000Y-103100000D03*
X122900000Y-108100000D03*
X135400000Y-108100000D03*
X182900000Y-78100000D03*
X195400000Y-78100000D03*
X182900000Y-83100000D03*
X195400000Y-83100000D03*
X182900000Y-103100000D03*
X195400000Y-103100000D03*
X182900000Y-108100000D03*
X195400000Y-108100000D03*
X122900000Y-53100000D03*
X135400000Y-53100000D03*
X122900000Y-58100000D03*
X135400000Y-58100000D03*
X152900000Y-78100000D03*
X165400000Y-78100000D03*
X152900000Y-83100000D03*
X165400000Y-83100000D03*
X182900000Y-53100000D03*
X195400000Y-53100000D03*
X182900000Y-58100000D03*
X195400000Y-58100000D03*
X152900000Y-53100000D03*
X165400000Y-53100000D03*
X152900000Y-58100000D03*
X165400000Y-58100000D03*
D14*
X173285000Y-116115000D03*
D15*
X170745000Y-116115000D03*
X168205000Y-116115000D03*
X165665000Y-116115000D03*
X163125000Y-116115000D03*
X160585000Y-116115000D03*
X158045000Y-116115000D03*
X155505000Y-116115000D03*
X152965000Y-116115000D03*
X150425000Y-116115000D03*
X147885000Y-116115000D03*
X145345000Y-116115000D03*
%LPD*%
M02*
