G04 #@! TF.GenerationSoftware,KiCad,Pcbnew,7.0.10*
G04 #@! TF.CreationDate,2025-01-18T09:13:02-08:00*
G04 #@! TF.ProjectId,buttonBoard,62757474-6f6e-4426-9f61-72642e6b6963,rev?*
G04 #@! TF.SameCoordinates,Original*
G04 #@! TF.FileFunction,Copper,L1,Top*
G04 #@! TF.FilePolarity,Positive*
%FSLAX46Y46*%
G04 Gerber Fmt 4.6, Leading zero omitted, Abs format (unit mm)*
G04 Created by KiCad (PCBNEW 7.0.10) date 2025-01-18 09:13:02*
%MOMM*%
%LPD*%
G01*
G04 APERTURE LIST*
G04 #@! TA.AperFunction,ComponentPad*
%ADD10O,3.048000X1.850000*%
G04 #@! TD*
G04 #@! TA.AperFunction,ComponentPad*
%ADD11R,1.700000X1.700000*%
G04 #@! TD*
G04 #@! TA.AperFunction,ComponentPad*
%ADD12O,1.700000X1.700000*%
G04 #@! TD*
G04 #@! TA.AperFunction,ViaPad*
%ADD13C,0.800000*%
G04 #@! TD*
G04 #@! TA.AperFunction,Conductor*
%ADD14C,1.000000*%
G04 #@! TD*
G04 APERTURE END LIST*
D10*
X122900000Y-78100000D03*
X135400000Y-78100000D03*
X122900000Y-83100000D03*
X135400000Y-83100000D03*
D11*
X122700000Y-67810000D03*
D12*
X122700000Y-65270000D03*
D10*
X152900000Y-103100000D03*
X165400000Y-103100000D03*
X152900000Y-108100000D03*
X165400000Y-108100000D03*
X122900000Y-103100000D03*
X135400000Y-103100000D03*
X122900000Y-108100000D03*
X135400000Y-108100000D03*
X182900000Y-78100000D03*
X195400000Y-78100000D03*
X182900000Y-83100000D03*
X195400000Y-83100000D03*
X182900000Y-103100000D03*
X195400000Y-103100000D03*
X182900000Y-108100000D03*
X195400000Y-108100000D03*
X122900000Y-53100000D03*
X135400000Y-53100000D03*
X122900000Y-58100000D03*
X135400000Y-58100000D03*
X152900000Y-78100000D03*
X165400000Y-78100000D03*
X152900000Y-83100000D03*
X165400000Y-83100000D03*
X182900000Y-53100000D03*
X195400000Y-53100000D03*
X182900000Y-58100000D03*
X195400000Y-58100000D03*
X152900000Y-53100000D03*
X165400000Y-53100000D03*
X152900000Y-58100000D03*
X165400000Y-58100000D03*
D11*
X173285000Y-116115000D03*
D12*
X170745000Y-116115000D03*
X168205000Y-116115000D03*
X165665000Y-116115000D03*
X163125000Y-116115000D03*
X160585000Y-116115000D03*
X158045000Y-116115000D03*
X155505000Y-116115000D03*
X152965000Y-116115000D03*
X150425000Y-116115000D03*
X147885000Y-116115000D03*
X145345000Y-116115000D03*
D13*
X179040000Y-87930000D03*
X179080000Y-108290000D03*
X158180000Y-91470000D03*
X176380000Y-108080000D03*
X176380000Y-84200000D03*
X173950000Y-109030000D03*
X174040000Y-66740000D03*
X171840000Y-110300000D03*
X169160000Y-103190000D03*
X169160000Y-108540000D03*
X139890000Y-68740000D03*
X148660000Y-68720000D03*
X187110000Y-93350000D03*
X183450000Y-116500000D03*
X182620000Y-67960000D03*
X122400000Y-93350000D03*
X171640000Y-49780000D03*
X192070000Y-116730000D03*
X132670000Y-93350000D03*
X197860000Y-93470000D03*
X142470000Y-99490000D03*
X140350000Y-49540000D03*
X178840000Y-49540000D03*
X152910000Y-95440000D03*
X147790000Y-49070000D03*
X137980000Y-116380000D03*
X163020000Y-95600000D03*
X128180000Y-116500000D03*
X143300000Y-77410000D03*
X198330000Y-67840000D03*
X130310000Y-70440000D03*
X163020000Y-67960000D03*
D14*
X175135000Y-116115000D02*
X179080000Y-112170000D01*
X170140000Y-87930000D02*
X166520000Y-91550000D01*
X166520000Y-91550000D02*
X158260000Y-91550000D01*
X173285000Y-116115000D02*
X175135000Y-116115000D01*
X135400000Y-83100000D02*
X122900000Y-83100000D01*
X179080000Y-112170000D02*
X179080000Y-108290000D01*
X158260000Y-91550000D02*
X158180000Y-91470000D01*
X179040000Y-87930000D02*
X170140000Y-87930000D01*
X171120000Y-114040000D02*
X174209056Y-114040000D01*
X176250000Y-111460000D02*
X176370000Y-111340000D01*
X176250000Y-111999056D02*
X176250000Y-111460000D01*
X165400000Y-83100000D02*
X175280000Y-83100000D01*
X170745000Y-116115000D02*
X170745000Y-114415000D01*
X170745000Y-114415000D02*
X171120000Y-114040000D01*
X176370000Y-111340000D02*
X176370000Y-108090000D01*
X176370000Y-108090000D02*
X176380000Y-108080000D01*
X174209056Y-114040000D02*
X176250000Y-111999056D01*
X175280000Y-83100000D02*
X176380000Y-84200000D01*
X170020000Y-112130000D02*
X173850000Y-112130000D01*
X168205000Y-113945000D02*
X169440000Y-112710000D01*
X165400000Y-58100000D02*
X152900000Y-58100000D01*
X174040000Y-66740000D02*
X165400000Y-58100000D01*
X169440000Y-112710000D02*
X170020000Y-112130000D01*
X173850000Y-109130000D02*
X173950000Y-109030000D01*
X173850000Y-112130000D02*
X173850000Y-109130000D01*
X168205000Y-116115000D02*
X168205000Y-113945000D01*
X165665000Y-116115000D02*
X165665000Y-113525000D01*
X165665000Y-113525000D02*
X166130000Y-113060000D01*
X182900000Y-58100000D02*
X195400000Y-58100000D01*
X168890000Y-110300000D02*
X171840000Y-110300000D01*
X166130000Y-113060000D02*
X168890000Y-110300000D01*
X167857097Y-108540000D02*
X169160000Y-108540000D01*
X163610000Y-112390000D02*
X164007097Y-112390000D01*
X182900000Y-89450000D02*
X182900000Y-83100000D01*
X164007097Y-112390000D02*
X167857097Y-108540000D01*
X195400000Y-83100000D02*
X182900000Y-83100000D01*
X163125000Y-116115000D02*
X163125000Y-112875000D01*
X169160000Y-103190000D02*
X182900000Y-89450000D01*
X163125000Y-112875000D02*
X163610000Y-112390000D01*
X160585000Y-112915000D02*
X165400000Y-108100000D01*
X160585000Y-116115000D02*
X160585000Y-112915000D01*
X182900000Y-108100000D02*
X195400000Y-108100000D01*
X180620000Y-105820000D02*
X182900000Y-108100000D01*
X164140000Y-105820000D02*
X180620000Y-105820000D01*
X158045000Y-111915000D02*
X164140000Y-105820000D01*
X158045000Y-116115000D02*
X158045000Y-111915000D01*
X160630000Y-85640000D02*
X160630000Y-75880000D01*
X156845000Y-109655000D02*
X156845000Y-105755000D01*
X156980000Y-89290000D02*
X160630000Y-85640000D01*
X159580000Y-103020000D02*
X159580000Y-97280000D01*
X160630000Y-75880000D02*
X142850000Y-58100000D01*
X152965000Y-116115000D02*
X152965000Y-113535000D01*
X159580000Y-97280000D02*
X156980000Y-94680000D01*
X156845000Y-105755000D02*
X159580000Y-103020000D01*
X142850000Y-58100000D02*
X135400000Y-58100000D01*
X152965000Y-113535000D02*
X156845000Y-109655000D01*
X156980000Y-94680000D02*
X156980000Y-89290000D01*
X135400000Y-58100000D02*
X122900000Y-58100000D01*
X150425000Y-116115000D02*
X150425000Y-70485000D01*
X150425000Y-70485000D02*
X148660000Y-68720000D01*
X138960000Y-67810000D02*
X122700000Y-67810000D01*
X139890000Y-68740000D02*
X138960000Y-67810000D01*
X140610000Y-65240000D02*
X140580000Y-65270000D01*
X147885000Y-72515000D02*
X140610000Y-65240000D01*
X147885000Y-116115000D02*
X147885000Y-72515000D01*
X140580000Y-65270000D02*
X122700000Y-65270000D01*
G04 #@! TA.AperFunction,Conductor*
G36*
X203933054Y-40020185D02*
G01*
X203978809Y-40072989D01*
X203990015Y-40124484D01*
X203999500Y-116000000D01*
X203999500Y-119875500D01*
X203979815Y-119942539D01*
X203927011Y-119988294D01*
X203875500Y-119999500D01*
X116124500Y-119999500D01*
X116057461Y-119979815D01*
X116011706Y-119927011D01*
X116000500Y-119875500D01*
X116000500Y-116134936D01*
X119199500Y-116134936D01*
X119239718Y-116401767D01*
X119239720Y-116401773D01*
X119319262Y-116659641D01*
X119436346Y-116902769D01*
X119436348Y-116902771D01*
X119436349Y-116902774D01*
X119558446Y-117081858D01*
X119588365Y-117125741D01*
X119771910Y-117323557D01*
X119771914Y-117323560D01*
X119771915Y-117323561D01*
X119982898Y-117491815D01*
X120216602Y-117626743D01*
X120467805Y-117725334D01*
X120730897Y-117785383D01*
X120768757Y-117788220D01*
X120932602Y-117800499D01*
X120932621Y-117800499D01*
X120932624Y-117800500D01*
X120932626Y-117800500D01*
X121067374Y-117800500D01*
X121067376Y-117800500D01*
X121067378Y-117800499D01*
X121067397Y-117800499D01*
X121212312Y-117789638D01*
X121269103Y-117785383D01*
X121532195Y-117725334D01*
X121783398Y-117626743D01*
X122017102Y-117491815D01*
X122228085Y-117323561D01*
X122411635Y-117125741D01*
X122563651Y-116902775D01*
X122680738Y-116659641D01*
X122760280Y-116401772D01*
X122765823Y-116365000D01*
X122800499Y-116134936D01*
X122800500Y-116134927D01*
X122800500Y-115865072D01*
X122800499Y-115865063D01*
X122760281Y-115598232D01*
X122760279Y-115598226D01*
X122680738Y-115340359D01*
X122563651Y-115097226D01*
X122411635Y-114874259D01*
X122380865Y-114841097D01*
X122228089Y-114676442D01*
X122187509Y-114644080D01*
X122017102Y-114508185D01*
X121783398Y-114373257D01*
X121783396Y-114373256D01*
X121532195Y-114274666D01*
X121532188Y-114274664D01*
X121269100Y-114214616D01*
X121067397Y-114199500D01*
X121067376Y-114199500D01*
X120932624Y-114199500D01*
X120932602Y-114199500D01*
X120730899Y-114214616D01*
X120467811Y-114274664D01*
X120467804Y-114274666D01*
X120216603Y-114373256D01*
X120216599Y-114373258D01*
X119982898Y-114508185D01*
X119771910Y-114676442D01*
X119588365Y-114874258D01*
X119436345Y-115097231D01*
X119436344Y-115097232D01*
X119319263Y-115340355D01*
X119239720Y-115598226D01*
X119239718Y-115598232D01*
X119199500Y-115865063D01*
X119199500Y-116134936D01*
X116000500Y-116134936D01*
X116000500Y-108039281D01*
X120871635Y-108039281D01*
X120881933Y-108281713D01*
X120881933Y-108281719D01*
X120933056Y-108518929D01*
X120933057Y-108518932D01*
X121007694Y-108704672D01*
X121023532Y-108744086D01*
X121059604Y-108802670D01*
X121150757Y-108950713D01*
X121311075Y-109132869D01*
X121311079Y-109132873D01*
X121499870Y-109285311D01*
X121711709Y-109403652D01*
X121711712Y-109403653D01*
X121940507Y-109484491D01*
X121940513Y-109484492D01*
X122179662Y-109525499D01*
X122179670Y-109525499D01*
X122179672Y-109525500D01*
X122179673Y-109525500D01*
X123559553Y-109525500D01*
X123559554Y-109525500D01*
X123559555Y-109525499D01*
X123559572Y-109525499D01*
X123740775Y-109510076D01*
X123740775Y-109510075D01*
X123740782Y-109510075D01*
X123975608Y-109448931D01*
X123975611Y-109448930D01*
X124196713Y-109348986D01*
X124196716Y-109348983D01*
X124196723Y-109348981D01*
X124397765Y-109213100D01*
X124572952Y-109045197D01*
X124717244Y-108850102D01*
X124826488Y-108633429D01*
X124897543Y-108401409D01*
X124928365Y-108160719D01*
X124928056Y-108153456D01*
X124923206Y-108039281D01*
X133371635Y-108039281D01*
X133381933Y-108281713D01*
X133381933Y-108281719D01*
X133433056Y-108518929D01*
X133433057Y-108518932D01*
X133507694Y-108704672D01*
X133523532Y-108744086D01*
X133559604Y-108802670D01*
X133650757Y-108950713D01*
X133811075Y-109132869D01*
X133811079Y-109132873D01*
X133999870Y-109285311D01*
X134211709Y-109403652D01*
X134211712Y-109403653D01*
X134440507Y-109484491D01*
X134440513Y-109484492D01*
X134679662Y-109525499D01*
X134679670Y-109525499D01*
X134679672Y-109525500D01*
X134679673Y-109525500D01*
X136059553Y-109525500D01*
X136059554Y-109525500D01*
X136059555Y-109525499D01*
X136059572Y-109525499D01*
X136240775Y-109510076D01*
X136240775Y-109510075D01*
X136240782Y-109510075D01*
X136475608Y-109448931D01*
X136475611Y-109448930D01*
X136696713Y-109348986D01*
X136696716Y-109348983D01*
X136696723Y-109348981D01*
X136897765Y-109213100D01*
X137072952Y-109045197D01*
X137217244Y-108850102D01*
X137326488Y-108633429D01*
X137397543Y-108401409D01*
X137428365Y-108160719D01*
X137428056Y-108153456D01*
X137418066Y-107918284D01*
X137418066Y-107918280D01*
X137390192Y-107788943D01*
X137366944Y-107681072D01*
X137276468Y-107455914D01*
X137149242Y-107249286D01*
X136988925Y-107067131D01*
X136988924Y-107067130D01*
X136988920Y-107067126D01*
X136800129Y-106914688D01*
X136588290Y-106796347D01*
X136359500Y-106715511D01*
X136359486Y-106715507D01*
X136120337Y-106674500D01*
X136120328Y-106674500D01*
X134740446Y-106674500D01*
X134740427Y-106674500D01*
X134559224Y-106689923D01*
X134559222Y-106689924D01*
X134324391Y-106751068D01*
X134324388Y-106751069D01*
X134103286Y-106851013D01*
X134103274Y-106851020D01*
X133902234Y-106986900D01*
X133902232Y-106986902D01*
X133727047Y-107154803D01*
X133727046Y-107154804D01*
X133582758Y-107349893D01*
X133473515Y-107566565D01*
X133473512Y-107566571D01*
X133402456Y-107798594D01*
X133371635Y-108039281D01*
X124923206Y-108039281D01*
X124918066Y-107918284D01*
X124918066Y-107918280D01*
X124890192Y-107788943D01*
X124866944Y-107681072D01*
X124776468Y-107455914D01*
X124649242Y-107249286D01*
X124488925Y-107067131D01*
X124488924Y-107067130D01*
X124488920Y-107067126D01*
X124300129Y-106914688D01*
X124088290Y-106796347D01*
X123859500Y-106715511D01*
X123859486Y-106715507D01*
X123620337Y-106674500D01*
X123620328Y-106674500D01*
X122240446Y-106674500D01*
X122240427Y-106674500D01*
X122059224Y-106689923D01*
X122059222Y-106689924D01*
X121824391Y-106751068D01*
X121824388Y-106751069D01*
X121603286Y-106851013D01*
X121603274Y-106851020D01*
X121402234Y-106986900D01*
X121402232Y-106986902D01*
X121227047Y-107154803D01*
X121227046Y-107154804D01*
X121082758Y-107349893D01*
X120973515Y-107566565D01*
X120973512Y-107566571D01*
X120902456Y-107798594D01*
X120871635Y-108039281D01*
X116000500Y-108039281D01*
X116000500Y-102849999D01*
X120896377Y-102849999D01*
X120896378Y-102850000D01*
X122299272Y-102850000D01*
X122276900Y-102897543D01*
X122246127Y-103058862D01*
X122256439Y-103222766D01*
X122297780Y-103350000D01*
X120897161Y-103350000D01*
X120933536Y-103518782D01*
X120933537Y-103518785D01*
X121023978Y-103743856D01*
X121151161Y-103950415D01*
X121311422Y-104132507D01*
X121311426Y-104132511D01*
X121500144Y-104284890D01*
X121500150Y-104284894D01*
X121711917Y-104403194D01*
X121940629Y-104484003D01*
X121940637Y-104484005D01*
X122179706Y-104524999D01*
X122179715Y-104525000D01*
X122650000Y-104525000D01*
X122650000Y-103704310D01*
X122658817Y-103709158D01*
X122817886Y-103750000D01*
X122940894Y-103750000D01*
X123062933Y-103734583D01*
X123150000Y-103700110D01*
X123150000Y-104525000D01*
X123559533Y-104525000D01*
X123559550Y-104524999D01*
X123740692Y-104509582D01*
X123975440Y-104448458D01*
X124196472Y-104348546D01*
X124196480Y-104348541D01*
X124397450Y-104212708D01*
X124397453Y-104212706D01*
X124572575Y-104044864D01*
X124572576Y-104044863D01*
X124716813Y-103849843D01*
X124826021Y-103633242D01*
X124897053Y-103401299D01*
X124903622Y-103350000D01*
X123500728Y-103350000D01*
X123523100Y-103302457D01*
X123553873Y-103141138D01*
X123543561Y-102977234D01*
X123502220Y-102850000D01*
X124902839Y-102850000D01*
X124902839Y-102849999D01*
X133396377Y-102849999D01*
X133396378Y-102850000D01*
X134799272Y-102850000D01*
X134776900Y-102897543D01*
X134746127Y-103058862D01*
X134756439Y-103222766D01*
X134797780Y-103350000D01*
X133397161Y-103350000D01*
X133433536Y-103518782D01*
X133433537Y-103518785D01*
X133523978Y-103743856D01*
X133651161Y-103950415D01*
X133811422Y-104132507D01*
X133811426Y-104132511D01*
X134000144Y-104284890D01*
X134000150Y-104284894D01*
X134211917Y-104403194D01*
X134440629Y-104484003D01*
X134440637Y-104484005D01*
X134679706Y-104524999D01*
X134679715Y-104525000D01*
X135150000Y-104525000D01*
X135150000Y-103704310D01*
X135158817Y-103709158D01*
X135317886Y-103750000D01*
X135440894Y-103750000D01*
X135562933Y-103734583D01*
X135650000Y-103700110D01*
X135650000Y-104525000D01*
X136059533Y-104525000D01*
X136059550Y-104524999D01*
X136240692Y-104509582D01*
X136475440Y-104448458D01*
X136696472Y-104348546D01*
X136696480Y-104348541D01*
X136897450Y-104212708D01*
X136897453Y-104212706D01*
X137072575Y-104044864D01*
X137072576Y-104044863D01*
X137216813Y-103849843D01*
X137326021Y-103633242D01*
X137397053Y-103401299D01*
X137403622Y-103350000D01*
X136000728Y-103350000D01*
X136023100Y-103302457D01*
X136053873Y-103141138D01*
X136043561Y-102977234D01*
X136002220Y-102850000D01*
X137402839Y-102850000D01*
X137366463Y-102681217D01*
X137366462Y-102681214D01*
X137276021Y-102456143D01*
X137148838Y-102249584D01*
X136988577Y-102067492D01*
X136988573Y-102067488D01*
X136799855Y-101915109D01*
X136799849Y-101915105D01*
X136588082Y-101796805D01*
X136359370Y-101715996D01*
X136359362Y-101715994D01*
X136120293Y-101675000D01*
X135650000Y-101675000D01*
X135650000Y-102495689D01*
X135641183Y-102490842D01*
X135482114Y-102450000D01*
X135359106Y-102450000D01*
X135237067Y-102465417D01*
X135150000Y-102499889D01*
X135150000Y-101675000D01*
X134740449Y-101675000D01*
X134559307Y-101690417D01*
X134324559Y-101751541D01*
X134103527Y-101851453D01*
X134103519Y-101851458D01*
X133902549Y-101987291D01*
X133902546Y-101987293D01*
X133727424Y-102155135D01*
X133727423Y-102155136D01*
X133583186Y-102350156D01*
X133473978Y-102566757D01*
X133402946Y-102798700D01*
X133396377Y-102849999D01*
X124902839Y-102849999D01*
X124866463Y-102681217D01*
X124866462Y-102681214D01*
X124776021Y-102456143D01*
X124648838Y-102249584D01*
X124488577Y-102067492D01*
X124488573Y-102067488D01*
X124299855Y-101915109D01*
X124299849Y-101915105D01*
X124088082Y-101796805D01*
X123859370Y-101715996D01*
X123859362Y-101715994D01*
X123620293Y-101675000D01*
X123150000Y-101675000D01*
X123150000Y-102495689D01*
X123141183Y-102490842D01*
X122982114Y-102450000D01*
X122859106Y-102450000D01*
X122737067Y-102465417D01*
X122650000Y-102499889D01*
X122650000Y-101675000D01*
X122240449Y-101675000D01*
X122059307Y-101690417D01*
X121824559Y-101751541D01*
X121603527Y-101851453D01*
X121603519Y-101851458D01*
X121402549Y-101987291D01*
X121402546Y-101987293D01*
X121227424Y-102155135D01*
X121227423Y-102155136D01*
X121083186Y-102350156D01*
X120973978Y-102566757D01*
X120902946Y-102798700D01*
X120896377Y-102849999D01*
X116000500Y-102849999D01*
X116000500Y-83039281D01*
X120871635Y-83039281D01*
X120881933Y-83281715D01*
X120881933Y-83281719D01*
X120933056Y-83518929D01*
X120933057Y-83518932D01*
X121023530Y-83744082D01*
X121150757Y-83950713D01*
X121311075Y-84132869D01*
X121311079Y-84132873D01*
X121499870Y-84285311D01*
X121711709Y-84403652D01*
X121711712Y-84403653D01*
X121940507Y-84484491D01*
X121940513Y-84484492D01*
X122179662Y-84525499D01*
X122179670Y-84525499D01*
X122179672Y-84525500D01*
X122179673Y-84525500D01*
X123559553Y-84525500D01*
X123559554Y-84525500D01*
X123559555Y-84525499D01*
X123559572Y-84525499D01*
X123740775Y-84510076D01*
X123740775Y-84510075D01*
X123740782Y-84510075D01*
X123975608Y-84448931D01*
X123975611Y-84448930D01*
X124196713Y-84348986D01*
X124196716Y-84348983D01*
X124196723Y-84348981D01*
X124397765Y-84213100D01*
X124479277Y-84134976D01*
X124541297Y-84102802D01*
X124565077Y-84100500D01*
X133727474Y-84100500D01*
X133794513Y-84120185D01*
X133806753Y-84129835D01*
X133806976Y-84129560D01*
X133999870Y-84285311D01*
X134211709Y-84403652D01*
X134211712Y-84403653D01*
X134440507Y-84484491D01*
X134440513Y-84484492D01*
X134679662Y-84525499D01*
X134679670Y-84525499D01*
X134679672Y-84525500D01*
X134679673Y-84525500D01*
X136059553Y-84525500D01*
X136059554Y-84525500D01*
X136059555Y-84525499D01*
X136059572Y-84525499D01*
X136240775Y-84510076D01*
X136240775Y-84510075D01*
X136240782Y-84510075D01*
X136475608Y-84448931D01*
X136475611Y-84448930D01*
X136696713Y-84348986D01*
X136696716Y-84348983D01*
X136696723Y-84348981D01*
X136897765Y-84213100D01*
X137072952Y-84045197D01*
X137217244Y-83850102D01*
X137326488Y-83633429D01*
X137397543Y-83401409D01*
X137428365Y-83160719D01*
X137418066Y-82918281D01*
X137366944Y-82681072D01*
X137276468Y-82455914D01*
X137149242Y-82249286D01*
X136988925Y-82067131D01*
X136988924Y-82067130D01*
X136988920Y-82067126D01*
X136800129Y-81914688D01*
X136588290Y-81796347D01*
X136359500Y-81715511D01*
X136359486Y-81715507D01*
X136120337Y-81674500D01*
X136120328Y-81674500D01*
X134740446Y-81674500D01*
X134740427Y-81674500D01*
X134559224Y-81689923D01*
X134559222Y-81689924D01*
X134324391Y-81751068D01*
X134324388Y-81751069D01*
X134103286Y-81851013D01*
X134103274Y-81851020D01*
X133902245Y-81986892D01*
X133902235Y-81986900D01*
X133820723Y-82065023D01*
X133758703Y-82097198D01*
X133734923Y-82099500D01*
X124572526Y-82099500D01*
X124505487Y-82079815D01*
X124493246Y-82070164D01*
X124493024Y-82070440D01*
X124300129Y-81914688D01*
X124088290Y-81796347D01*
X123859500Y-81715511D01*
X123859486Y-81715507D01*
X123620337Y-81674500D01*
X123620328Y-81674500D01*
X122240446Y-81674500D01*
X122240427Y-81674500D01*
X122059224Y-81689923D01*
X122059222Y-81689924D01*
X121824391Y-81751068D01*
X121824388Y-81751069D01*
X121603286Y-81851013D01*
X121603274Y-81851020D01*
X121402234Y-81986900D01*
X121402232Y-81986902D01*
X121227047Y-82154803D01*
X121227046Y-82154804D01*
X121082758Y-82349893D01*
X120973515Y-82566565D01*
X120973512Y-82566571D01*
X120902456Y-82798594D01*
X120871635Y-83039281D01*
X116000500Y-83039281D01*
X116000500Y-77849999D01*
X120896377Y-77849999D01*
X120896378Y-77850000D01*
X122299272Y-77850000D01*
X122276900Y-77897543D01*
X122246127Y-78058862D01*
X122256439Y-78222766D01*
X122297780Y-78350000D01*
X120897161Y-78350000D01*
X120933536Y-78518782D01*
X120933537Y-78518785D01*
X121023978Y-78743856D01*
X121151161Y-78950415D01*
X121311422Y-79132507D01*
X121311426Y-79132511D01*
X121500144Y-79284890D01*
X121500150Y-79284894D01*
X121711917Y-79403194D01*
X121940629Y-79484003D01*
X121940637Y-79484005D01*
X122179706Y-79524999D01*
X122179715Y-79525000D01*
X122650000Y-79525000D01*
X122650000Y-78704310D01*
X122658817Y-78709158D01*
X122817886Y-78750000D01*
X122940894Y-78750000D01*
X123062933Y-78734583D01*
X123150000Y-78700110D01*
X123150000Y-79525000D01*
X123559533Y-79525000D01*
X123559550Y-79524999D01*
X123740692Y-79509582D01*
X123975440Y-79448458D01*
X124196472Y-79348546D01*
X124196480Y-79348541D01*
X124397450Y-79212708D01*
X124397453Y-79212706D01*
X124572575Y-79044864D01*
X124572576Y-79044863D01*
X124716813Y-78849843D01*
X124826021Y-78633242D01*
X124897053Y-78401299D01*
X124903622Y-78350000D01*
X123500728Y-78350000D01*
X123523100Y-78302457D01*
X123553873Y-78141138D01*
X123543561Y-77977234D01*
X123502220Y-77850000D01*
X124902839Y-77850000D01*
X124902839Y-77849999D01*
X133396377Y-77849999D01*
X133396378Y-77850000D01*
X134799272Y-77850000D01*
X134776900Y-77897543D01*
X134746127Y-78058862D01*
X134756439Y-78222766D01*
X134797780Y-78350000D01*
X133397161Y-78350000D01*
X133433536Y-78518782D01*
X133433537Y-78518785D01*
X133523978Y-78743856D01*
X133651161Y-78950415D01*
X133811422Y-79132507D01*
X133811426Y-79132511D01*
X134000144Y-79284890D01*
X134000150Y-79284894D01*
X134211917Y-79403194D01*
X134440629Y-79484003D01*
X134440637Y-79484005D01*
X134679706Y-79524999D01*
X134679715Y-79525000D01*
X135150000Y-79525000D01*
X135150000Y-78704310D01*
X135158817Y-78709158D01*
X135317886Y-78750000D01*
X135440894Y-78750000D01*
X135562933Y-78734583D01*
X135650000Y-78700110D01*
X135650000Y-79525000D01*
X136059533Y-79525000D01*
X136059550Y-79524999D01*
X136240692Y-79509582D01*
X136475440Y-79448458D01*
X136696472Y-79348546D01*
X136696480Y-79348541D01*
X136897450Y-79212708D01*
X136897453Y-79212706D01*
X137072575Y-79044864D01*
X137072576Y-79044863D01*
X137216813Y-78849843D01*
X137326021Y-78633242D01*
X137397053Y-78401299D01*
X137403622Y-78350000D01*
X136000728Y-78350000D01*
X136023100Y-78302457D01*
X136053873Y-78141138D01*
X136043561Y-77977234D01*
X136002220Y-77850000D01*
X137402839Y-77850000D01*
X137366463Y-77681217D01*
X137366462Y-77681214D01*
X137276021Y-77456143D01*
X137148838Y-77249584D01*
X136988577Y-77067492D01*
X136988573Y-77067488D01*
X136799855Y-76915109D01*
X136799849Y-76915105D01*
X136588082Y-76796805D01*
X136359370Y-76715996D01*
X136359362Y-76715994D01*
X136120293Y-76675000D01*
X135650000Y-76675000D01*
X135650000Y-77495689D01*
X135641183Y-77490842D01*
X135482114Y-77450000D01*
X135359106Y-77450000D01*
X135237067Y-77465417D01*
X135150000Y-77499889D01*
X135150000Y-76675000D01*
X134740449Y-76675000D01*
X134559307Y-76690417D01*
X134324559Y-76751541D01*
X134103527Y-76851453D01*
X134103519Y-76851458D01*
X133902549Y-76987291D01*
X133902546Y-76987293D01*
X133727424Y-77155135D01*
X133727423Y-77155136D01*
X133583186Y-77350156D01*
X133473978Y-77566757D01*
X133402946Y-77798700D01*
X133396377Y-77849999D01*
X124902839Y-77849999D01*
X124866463Y-77681217D01*
X124866462Y-77681214D01*
X124776021Y-77456143D01*
X124648838Y-77249584D01*
X124488577Y-77067492D01*
X124488573Y-77067488D01*
X124299855Y-76915109D01*
X124299849Y-76915105D01*
X124088082Y-76796805D01*
X123859370Y-76715996D01*
X123859362Y-76715994D01*
X123620293Y-76675000D01*
X123150000Y-76675000D01*
X123150000Y-77495689D01*
X123141183Y-77490842D01*
X122982114Y-77450000D01*
X122859106Y-77450000D01*
X122737067Y-77465417D01*
X122650000Y-77499889D01*
X122650000Y-76675000D01*
X122240449Y-76675000D01*
X122059307Y-76690417D01*
X121824559Y-76751541D01*
X121603527Y-76851453D01*
X121603519Y-76851458D01*
X121402549Y-76987291D01*
X121402546Y-76987293D01*
X121227424Y-77155135D01*
X121227423Y-77155136D01*
X121083186Y-77350156D01*
X120973978Y-77566757D01*
X120902946Y-77798700D01*
X120896377Y-77849999D01*
X116000500Y-77849999D01*
X116000500Y-58039281D01*
X120871635Y-58039281D01*
X120881933Y-58281715D01*
X120881933Y-58281719D01*
X120933056Y-58518929D01*
X120933057Y-58518932D01*
X121023530Y-58744082D01*
X121150757Y-58950713D01*
X121311075Y-59132869D01*
X121311079Y-59132873D01*
X121499870Y-59285311D01*
X121711709Y-59403652D01*
X121711712Y-59403653D01*
X121940507Y-59484491D01*
X121940513Y-59484492D01*
X122179662Y-59525499D01*
X122179670Y-59525499D01*
X122179672Y-59525500D01*
X122179673Y-59525500D01*
X123559553Y-59525500D01*
X123559554Y-59525500D01*
X123559555Y-59525499D01*
X123559572Y-59525499D01*
X123740775Y-59510076D01*
X123740775Y-59510075D01*
X123740782Y-59510075D01*
X123975608Y-59448931D01*
X123975611Y-59448930D01*
X124196713Y-59348986D01*
X124196716Y-59348983D01*
X124196723Y-59348981D01*
X124397765Y-59213100D01*
X124479277Y-59134976D01*
X124541297Y-59102802D01*
X124565077Y-59100500D01*
X133727474Y-59100500D01*
X133794513Y-59120185D01*
X133806753Y-59129835D01*
X133806976Y-59129560D01*
X133999870Y-59285311D01*
X134211709Y-59403652D01*
X134211712Y-59403653D01*
X134440507Y-59484491D01*
X134440513Y-59484492D01*
X134679662Y-59525499D01*
X134679670Y-59525499D01*
X134679672Y-59525500D01*
X134679673Y-59525500D01*
X136059553Y-59525500D01*
X136059554Y-59525500D01*
X136059555Y-59525499D01*
X136059572Y-59525499D01*
X136240775Y-59510076D01*
X136240775Y-59510075D01*
X136240782Y-59510075D01*
X136475608Y-59448931D01*
X136475611Y-59448930D01*
X136696713Y-59348986D01*
X136696716Y-59348983D01*
X136696723Y-59348981D01*
X136897765Y-59213100D01*
X136979277Y-59134976D01*
X137041297Y-59102802D01*
X137065077Y-59100500D01*
X142384217Y-59100500D01*
X142451256Y-59120185D01*
X142471898Y-59136819D01*
X159593181Y-76258101D01*
X159626666Y-76319424D01*
X159629500Y-76345782D01*
X159629500Y-85174217D01*
X159609815Y-85241256D01*
X159593181Y-85261898D01*
X156282646Y-88572432D01*
X156280399Y-88574624D01*
X156216946Y-88634942D01*
X156183245Y-88683361D01*
X156177574Y-88690882D01*
X156140302Y-88736592D01*
X156140298Y-88736598D01*
X156126209Y-88763568D01*
X156118082Y-88776983D01*
X156100702Y-88801955D01*
X156077438Y-88856165D01*
X156073398Y-88864672D01*
X156046090Y-88916951D01*
X156046090Y-88916952D01*
X156037720Y-88946201D01*
X156032459Y-88960979D01*
X156020459Y-88988943D01*
X156013093Y-89024787D01*
X156010876Y-89035579D01*
X156008588Y-89046711D01*
X156006342Y-89055860D01*
X155990113Y-89112577D01*
X155987802Y-89142926D01*
X155985622Y-89158466D01*
X155979500Y-89188258D01*
X155979500Y-89247240D01*
X155979142Y-89256656D01*
X155974662Y-89315474D01*
X155978506Y-89345649D01*
X155979500Y-89361317D01*
X155979500Y-94665721D01*
X155979460Y-94668861D01*
X155977243Y-94756362D01*
X155977243Y-94756371D01*
X155987648Y-94814420D01*
X155988956Y-94823748D01*
X155994925Y-94882430D01*
X155994927Y-94882444D01*
X156004033Y-94911468D01*
X156007772Y-94926701D01*
X156013142Y-94956653D01*
X156013142Y-94956655D01*
X156035020Y-95011424D01*
X156038177Y-95020292D01*
X156055841Y-95076588D01*
X156055842Y-95076589D01*
X156055844Y-95076595D01*
X156070603Y-95103185D01*
X156077336Y-95117361D01*
X156088622Y-95145614D01*
X156088627Y-95145624D01*
X156121080Y-95194866D01*
X156125962Y-95202923D01*
X156154588Y-95254498D01*
X156154589Y-95254500D01*
X156154591Y-95254502D01*
X156174410Y-95277588D01*
X156183855Y-95290115D01*
X156200599Y-95315521D01*
X156242299Y-95357220D01*
X156248704Y-95364131D01*
X156287131Y-95408892D01*
X156287134Y-95408895D01*
X156311187Y-95427513D01*
X156322968Y-95437889D01*
X158543181Y-97658102D01*
X158576666Y-97719425D01*
X158579500Y-97745783D01*
X158579500Y-102554217D01*
X158559815Y-102621256D01*
X158543181Y-102641898D01*
X156147646Y-105037432D01*
X156145399Y-105039624D01*
X156081946Y-105099942D01*
X156048245Y-105148361D01*
X156042574Y-105155882D01*
X156005302Y-105201592D01*
X156005298Y-105201598D01*
X155991209Y-105228568D01*
X155983082Y-105241983D01*
X155965702Y-105266955D01*
X155942438Y-105321165D01*
X155938398Y-105329672D01*
X155911090Y-105381951D01*
X155911090Y-105381952D01*
X155902720Y-105411201D01*
X155897459Y-105425979D01*
X155885459Y-105453943D01*
X155873588Y-105511711D01*
X155871342Y-105520860D01*
X155855113Y-105577577D01*
X155852802Y-105607926D01*
X155850622Y-105623466D01*
X155844500Y-105653258D01*
X155844500Y-105712240D01*
X155844142Y-105721656D01*
X155839662Y-105780474D01*
X155843506Y-105810649D01*
X155844500Y-105826317D01*
X155844500Y-109189217D01*
X155824815Y-109256256D01*
X155808181Y-109276898D01*
X152267646Y-112817432D01*
X152265399Y-112819624D01*
X152201946Y-112879942D01*
X152168245Y-112928361D01*
X152162574Y-112935882D01*
X152125302Y-112981592D01*
X152125298Y-112981598D01*
X152111209Y-113008568D01*
X152103082Y-113021983D01*
X152085702Y-113046955D01*
X152062438Y-113101165D01*
X152058398Y-113109672D01*
X152031090Y-113161951D01*
X152031090Y-113161952D01*
X152022720Y-113191201D01*
X152017459Y-113205979D01*
X152005459Y-113233943D01*
X151999982Y-113260598D01*
X151993952Y-113289941D01*
X151993588Y-113291711D01*
X151991342Y-113300860D01*
X151975113Y-113357577D01*
X151972802Y-113387926D01*
X151970622Y-113403465D01*
X151969586Y-113408506D01*
X151964500Y-113433258D01*
X151964500Y-113492240D01*
X151964142Y-113501656D01*
X151959662Y-113560474D01*
X151961124Y-113571951D01*
X151963226Y-113588456D01*
X151963506Y-113590649D01*
X151964500Y-113606317D01*
X151964500Y-115154241D01*
X151944815Y-115221280D01*
X151928181Y-115241922D01*
X151926505Y-115243597D01*
X151796575Y-115429158D01*
X151741998Y-115472783D01*
X151672500Y-115479977D01*
X151610145Y-115448454D01*
X151593425Y-115429158D01*
X151463494Y-115243597D01*
X151461819Y-115241922D01*
X151461315Y-115241000D01*
X151460014Y-115239449D01*
X151460325Y-115239187D01*
X151428334Y-115180599D01*
X151425500Y-115154241D01*
X151425500Y-109455073D01*
X151445185Y-109388034D01*
X151497989Y-109342279D01*
X151567147Y-109332335D01*
X151609974Y-109346819D01*
X151711709Y-109403652D01*
X151711712Y-109403653D01*
X151940507Y-109484491D01*
X151940513Y-109484492D01*
X152179662Y-109525499D01*
X152179670Y-109525499D01*
X152179672Y-109525500D01*
X152179673Y-109525500D01*
X153559553Y-109525500D01*
X153559554Y-109525500D01*
X153559555Y-109525499D01*
X153559572Y-109525499D01*
X153740775Y-109510076D01*
X153740775Y-109510075D01*
X153740782Y-109510075D01*
X153975608Y-109448931D01*
X153975611Y-109448930D01*
X154196713Y-109348986D01*
X154196716Y-109348983D01*
X154196723Y-109348981D01*
X154397765Y-109213100D01*
X154572952Y-109045197D01*
X154717244Y-108850102D01*
X154826488Y-108633429D01*
X154897543Y-108401409D01*
X154928365Y-108160719D01*
X154928056Y-108153456D01*
X154918066Y-107918284D01*
X154918066Y-107918280D01*
X154890192Y-107788943D01*
X154866944Y-107681072D01*
X154776468Y-107455914D01*
X154649242Y-107249286D01*
X154488925Y-107067131D01*
X154488924Y-107067130D01*
X154488920Y-107067126D01*
X154300129Y-106914688D01*
X154088290Y-106796347D01*
X153859500Y-106715511D01*
X153859486Y-106715507D01*
X153620337Y-106674500D01*
X153620328Y-106674500D01*
X152240446Y-106674500D01*
X152240427Y-106674500D01*
X152059224Y-106689923D01*
X152059222Y-106689924D01*
X151824395Y-106751067D01*
X151600575Y-106852240D01*
X151531379Y-106861916D01*
X151467936Y-106832646D01*
X151430389Y-106773722D01*
X151425500Y-106739247D01*
X151425500Y-104454499D01*
X151445185Y-104387460D01*
X151497989Y-104341705D01*
X151567147Y-104331761D01*
X151609974Y-104346245D01*
X151711917Y-104403194D01*
X151940629Y-104484003D01*
X151940637Y-104484005D01*
X152179706Y-104524999D01*
X152179715Y-104525000D01*
X152650000Y-104525000D01*
X152650000Y-103704310D01*
X152658817Y-103709158D01*
X152817886Y-103750000D01*
X152940894Y-103750000D01*
X153062933Y-103734583D01*
X153150000Y-103700110D01*
X153150000Y-104525000D01*
X153559533Y-104525000D01*
X153559550Y-104524999D01*
X153740692Y-104509582D01*
X153975440Y-104448458D01*
X154196472Y-104348546D01*
X154196480Y-104348541D01*
X154397450Y-104212708D01*
X154397453Y-104212706D01*
X154572575Y-104044864D01*
X154572576Y-104044863D01*
X154716813Y-103849843D01*
X154826021Y-103633242D01*
X154897053Y-103401299D01*
X154903622Y-103350000D01*
X153500728Y-103350000D01*
X153523100Y-103302457D01*
X153553873Y-103141138D01*
X153543561Y-102977234D01*
X153502220Y-102850000D01*
X154902839Y-102850000D01*
X154866463Y-102681217D01*
X154866462Y-102681214D01*
X154776021Y-102456143D01*
X154648838Y-102249584D01*
X154488577Y-102067492D01*
X154488573Y-102067488D01*
X154299855Y-101915109D01*
X154299849Y-101915105D01*
X154088082Y-101796805D01*
X153859370Y-101715996D01*
X153859362Y-101715994D01*
X153620293Y-101675000D01*
X153150000Y-101675000D01*
X153150000Y-102495689D01*
X153141183Y-102490842D01*
X152982114Y-102450000D01*
X152859106Y-102450000D01*
X152737067Y-102465417D01*
X152650000Y-102499889D01*
X152650000Y-101675000D01*
X152240449Y-101675000D01*
X152059307Y-101690417D01*
X151824562Y-101751540D01*
X151600575Y-101852788D01*
X151531379Y-101862464D01*
X151467936Y-101833193D01*
X151430389Y-101774270D01*
X151425500Y-101739795D01*
X151425500Y-84455073D01*
X151445185Y-84388034D01*
X151497989Y-84342279D01*
X151567147Y-84332335D01*
X151609974Y-84346819D01*
X151711709Y-84403652D01*
X151711712Y-84403653D01*
X151940507Y-84484491D01*
X151940513Y-84484492D01*
X152179662Y-84525499D01*
X152179670Y-84525499D01*
X152179672Y-84525500D01*
X152179673Y-84525500D01*
X153559553Y-84525500D01*
X153559554Y-84525500D01*
X153559555Y-84525499D01*
X153559572Y-84525499D01*
X153740775Y-84510076D01*
X153740775Y-84510075D01*
X153740782Y-84510075D01*
X153975608Y-84448931D01*
X153975611Y-84448930D01*
X154196713Y-84348986D01*
X154196716Y-84348983D01*
X154196723Y-84348981D01*
X154397765Y-84213100D01*
X154572952Y-84045197D01*
X154717244Y-83850102D01*
X154826488Y-83633429D01*
X154897543Y-83401409D01*
X154928365Y-83160719D01*
X154918066Y-82918281D01*
X154866944Y-82681072D01*
X154776468Y-82455914D01*
X154649242Y-82249286D01*
X154488925Y-82067131D01*
X154488924Y-82067130D01*
X154488920Y-82067126D01*
X154300129Y-81914688D01*
X154088290Y-81796347D01*
X153859500Y-81715511D01*
X153859486Y-81715507D01*
X153620337Y-81674500D01*
X153620328Y-81674500D01*
X152240446Y-81674500D01*
X152240427Y-81674500D01*
X152059224Y-81689923D01*
X152059222Y-81689924D01*
X151824395Y-81751067D01*
X151600575Y-81852240D01*
X151531379Y-81861916D01*
X151467936Y-81832646D01*
X151430389Y-81773722D01*
X151425500Y-81739247D01*
X151425500Y-79454499D01*
X151445185Y-79387460D01*
X151497989Y-79341705D01*
X151567147Y-79331761D01*
X151609974Y-79346245D01*
X151711917Y-79403194D01*
X151940629Y-79484003D01*
X151940637Y-79484005D01*
X152179706Y-79524999D01*
X152179715Y-79525000D01*
X152650000Y-79525000D01*
X152650000Y-78704310D01*
X152658817Y-78709158D01*
X152817886Y-78750000D01*
X152940894Y-78750000D01*
X153062933Y-78734583D01*
X153150000Y-78700110D01*
X153150000Y-79525000D01*
X153559533Y-79525000D01*
X153559550Y-79524999D01*
X153740692Y-79509582D01*
X153975440Y-79448458D01*
X154196472Y-79348546D01*
X154196480Y-79348541D01*
X154397450Y-79212708D01*
X154397453Y-79212706D01*
X154572575Y-79044864D01*
X154572576Y-79044863D01*
X154716813Y-78849843D01*
X154826021Y-78633242D01*
X154897053Y-78401299D01*
X154903622Y-78350000D01*
X153500728Y-78350000D01*
X153523100Y-78302457D01*
X153553873Y-78141138D01*
X153543561Y-77977234D01*
X153502220Y-77850000D01*
X154902839Y-77850000D01*
X154866463Y-77681217D01*
X154866462Y-77681214D01*
X154776021Y-77456143D01*
X154648838Y-77249584D01*
X154488577Y-77067492D01*
X154488573Y-77067488D01*
X154299855Y-76915109D01*
X154299849Y-76915105D01*
X154088082Y-76796805D01*
X153859370Y-76715996D01*
X153859362Y-76715994D01*
X153620293Y-76675000D01*
X153150000Y-76675000D01*
X153150000Y-77495689D01*
X153141183Y-77490842D01*
X152982114Y-77450000D01*
X152859106Y-77450000D01*
X152737067Y-77465417D01*
X152650000Y-77499889D01*
X152650000Y-76675000D01*
X152240449Y-76675000D01*
X152059307Y-76690417D01*
X151824562Y-76751540D01*
X151600575Y-76852788D01*
X151531379Y-76862464D01*
X151467936Y-76833193D01*
X151430389Y-76774270D01*
X151425500Y-76739795D01*
X151425500Y-70499277D01*
X151425540Y-70496135D01*
X151427757Y-70408641D01*
X151427756Y-70408640D01*
X151427757Y-70408637D01*
X151417349Y-70350573D01*
X151416041Y-70341242D01*
X151410074Y-70282562D01*
X151400963Y-70253524D01*
X151397226Y-70238301D01*
X151391858Y-70208347D01*
X151369974Y-70153562D01*
X151366822Y-70144709D01*
X151349159Y-70088412D01*
X151349158Y-70088411D01*
X151349157Y-70088406D01*
X151334396Y-70061814D01*
X151327659Y-70047629D01*
X151316378Y-70019385D01*
X151316375Y-70019380D01*
X151283918Y-69970131D01*
X151279036Y-69962074D01*
X151250409Y-69910498D01*
X151230588Y-69887410D01*
X151221144Y-69874885D01*
X151204402Y-69849481D01*
X151162692Y-69807771D01*
X151156300Y-69800875D01*
X151117866Y-69756105D01*
X151093804Y-69737479D01*
X151082026Y-69727105D01*
X149331582Y-67976662D01*
X149249105Y-67909410D01*
X149213407Y-67880302D01*
X149033049Y-67786091D01*
X148837418Y-67730113D01*
X148837417Y-67730112D01*
X148837416Y-67730112D01*
X148634525Y-67714662D01*
X148634522Y-67714662D01*
X148432678Y-67740368D01*
X148432670Y-67740370D01*
X148240129Y-67806183D01*
X148240117Y-67806189D01*
X148064778Y-67909406D01*
X148064771Y-67909411D01*
X147913787Y-68045820D01*
X147913787Y-68045821D01*
X147793353Y-68209828D01*
X147793349Y-68209835D01*
X147708397Y-68394725D01*
X147708393Y-68394737D01*
X147662396Y-68592945D01*
X147657242Y-68796358D01*
X147693140Y-68996648D01*
X147693142Y-68996654D01*
X147701488Y-69017547D01*
X147758589Y-69160498D01*
X147768623Y-69185616D01*
X147768629Y-69185628D01*
X147880596Y-69355517D01*
X147880599Y-69355521D01*
X149388181Y-70863101D01*
X149421666Y-70924424D01*
X149424500Y-70950782D01*
X149424500Y-115154241D01*
X149404815Y-115221280D01*
X149388181Y-115241922D01*
X149386505Y-115243597D01*
X149256575Y-115429158D01*
X149201998Y-115472783D01*
X149132500Y-115479977D01*
X149070145Y-115448454D01*
X149053425Y-115429158D01*
X148923494Y-115243597D01*
X148921819Y-115241922D01*
X148921315Y-115241000D01*
X148920014Y-115239449D01*
X148920325Y-115239187D01*
X148888334Y-115180599D01*
X148885500Y-115154241D01*
X148885500Y-72529277D01*
X148885540Y-72526135D01*
X148887757Y-72438641D01*
X148887756Y-72438640D01*
X148887757Y-72438637D01*
X148877350Y-72380574D01*
X148876041Y-72371242D01*
X148870074Y-72312566D01*
X148870074Y-72312564D01*
X148870074Y-72312562D01*
X148860962Y-72283524D01*
X148857225Y-72268295D01*
X148851858Y-72238348D01*
X148829972Y-72183556D01*
X148826824Y-72174714D01*
X148809159Y-72118412D01*
X148794398Y-72091817D01*
X148787663Y-72077635D01*
X148776379Y-72049384D01*
X148776377Y-72049380D01*
X148743915Y-72000127D01*
X148739040Y-71992082D01*
X148710409Y-71940498D01*
X148690590Y-71917412D01*
X148681145Y-71904884D01*
X148664404Y-71879484D01*
X148622699Y-71837779D01*
X148616306Y-71830882D01*
X148577866Y-71786105D01*
X148553800Y-71767476D01*
X148542022Y-71757102D01*
X141337624Y-64552704D01*
X141333296Y-64548151D01*
X141284181Y-64493788D01*
X141225137Y-64450431D01*
X141220171Y-64446586D01*
X141163409Y-64400303D01*
X141149127Y-64392843D01*
X141133143Y-64382880D01*
X141120167Y-64373351D01*
X141053617Y-64342773D01*
X141047978Y-64340007D01*
X140983049Y-64306091D01*
X140976597Y-64304244D01*
X140967556Y-64301657D01*
X140949909Y-64295121D01*
X140935273Y-64288397D01*
X140935270Y-64288396D01*
X140935268Y-64288395D01*
X140935264Y-64288394D01*
X140935261Y-64288393D01*
X140863931Y-64271840D01*
X140857859Y-64270268D01*
X140831887Y-64262837D01*
X140787420Y-64250113D01*
X140781286Y-64249645D01*
X140771343Y-64248888D01*
X140752742Y-64246038D01*
X140746756Y-64244649D01*
X140737050Y-64242397D01*
X140663837Y-64240542D01*
X140657566Y-64240224D01*
X140584520Y-64234662D01*
X140584517Y-64234663D01*
X140568531Y-64236698D01*
X140549738Y-64237651D01*
X140533642Y-64237243D01*
X140533630Y-64237244D01*
X140461543Y-64250164D01*
X140455336Y-64251115D01*
X140382676Y-64260369D01*
X140382673Y-64260369D01*
X140382672Y-64260370D01*
X140375452Y-64262837D01*
X140335354Y-64269500D01*
X123660758Y-64269500D01*
X123593719Y-64249815D01*
X123573077Y-64233181D01*
X123571402Y-64231506D01*
X123571395Y-64231501D01*
X123377834Y-64095967D01*
X123377830Y-64095965D01*
X123377828Y-64095964D01*
X123163663Y-63996097D01*
X123163659Y-63996096D01*
X123163655Y-63996094D01*
X122935413Y-63934938D01*
X122935403Y-63934936D01*
X122700001Y-63914341D01*
X122699999Y-63914341D01*
X122464596Y-63934936D01*
X122464586Y-63934938D01*
X122236344Y-63996094D01*
X122236335Y-63996098D01*
X122022171Y-64095964D01*
X122022169Y-64095965D01*
X121828597Y-64231505D01*
X121661505Y-64398597D01*
X121525965Y-64592169D01*
X121525964Y-64592171D01*
X121426098Y-64806335D01*
X121426094Y-64806344D01*
X121364938Y-65034586D01*
X121364936Y-65034596D01*
X121344341Y-65269999D01*
X121344341Y-65270000D01*
X121364936Y-65505403D01*
X121364938Y-65505413D01*
X121426094Y-65733655D01*
X121426096Y-65733659D01*
X121426097Y-65733663D01*
X121525965Y-65947830D01*
X121525967Y-65947834D01*
X121661501Y-66141395D01*
X121661506Y-66141402D01*
X121783430Y-66263326D01*
X121816915Y-66324649D01*
X121811931Y-66394341D01*
X121770059Y-66450274D01*
X121739083Y-66467189D01*
X121607669Y-66516203D01*
X121607664Y-66516206D01*
X121492455Y-66602452D01*
X121492452Y-66602455D01*
X121406206Y-66717664D01*
X121406202Y-66717671D01*
X121355908Y-66852517D01*
X121349501Y-66912116D01*
X121349500Y-66912135D01*
X121349500Y-68707870D01*
X121349501Y-68707876D01*
X121355908Y-68767483D01*
X121406202Y-68902328D01*
X121406206Y-68902335D01*
X121492452Y-69017544D01*
X121492455Y-69017547D01*
X121607664Y-69103793D01*
X121607671Y-69103797D01*
X121742517Y-69154091D01*
X121742516Y-69154091D01*
X121749444Y-69154835D01*
X121802127Y-69160500D01*
X123597872Y-69160499D01*
X123657483Y-69154091D01*
X123792331Y-69103796D01*
X123907546Y-69017546D01*
X123993796Y-68902331D01*
X123997960Y-68891165D01*
X124039829Y-68835234D01*
X124105293Y-68810816D01*
X124114141Y-68810500D01*
X138494217Y-68810500D01*
X138561256Y-68830185D01*
X138581898Y-68846819D01*
X139218420Y-69483341D01*
X139336593Y-69579698D01*
X139516951Y-69673909D01*
X139712582Y-69729887D01*
X139780213Y-69735037D01*
X139915475Y-69745337D01*
X139915477Y-69745337D01*
X139915478Y-69745337D01*
X140117321Y-69719631D01*
X140117321Y-69719630D01*
X140117328Y-69719630D01*
X140309873Y-69653816D01*
X140485227Y-69550591D01*
X140636214Y-69414179D01*
X140756649Y-69250167D01*
X140841605Y-69065269D01*
X140887603Y-68867054D01*
X140892757Y-68663637D01*
X140856858Y-68463348D01*
X140781378Y-68274383D01*
X140738832Y-68209828D01*
X140669402Y-68104481D01*
X140669401Y-68104480D01*
X139677567Y-67112647D01*
X139675374Y-67110398D01*
X139615061Y-67046949D01*
X139615060Y-67046948D01*
X139615059Y-67046947D01*
X139566640Y-67013246D01*
X139559120Y-67007575D01*
X139513413Y-66970305D01*
X139513406Y-66970301D01*
X139486441Y-66956216D01*
X139473026Y-66948089D01*
X139448049Y-66930705D01*
X139448046Y-66930703D01*
X139448045Y-66930703D01*
X139448041Y-66930701D01*
X139393845Y-66907443D01*
X139385336Y-66903402D01*
X139333057Y-66876094D01*
X139333046Y-66876090D01*
X139303806Y-66867723D01*
X139289021Y-66862459D01*
X139261058Y-66850459D01*
X139203273Y-66838583D01*
X139194127Y-66836338D01*
X139137423Y-66820113D01*
X139113699Y-66818306D01*
X139107072Y-66817801D01*
X139091533Y-66815622D01*
X139061742Y-66809500D01*
X139061741Y-66809500D01*
X139002759Y-66809500D01*
X138993344Y-66809142D01*
X138990643Y-66808936D01*
X138934524Y-66804662D01*
X138904349Y-66808506D01*
X138888682Y-66809500D01*
X124114141Y-66809500D01*
X124047102Y-66789815D01*
X124001347Y-66737011D01*
X123997969Y-66728859D01*
X123993796Y-66717669D01*
X123993793Y-66717665D01*
X123993793Y-66717664D01*
X123907547Y-66602455D01*
X123907544Y-66602452D01*
X123792335Y-66516206D01*
X123792328Y-66516202D01*
X123777527Y-66510682D01*
X123721593Y-66468811D01*
X123697176Y-66403346D01*
X123712028Y-66335073D01*
X123761433Y-66285668D01*
X123820860Y-66270500D01*
X140174217Y-66270500D01*
X140241256Y-66290185D01*
X140261898Y-66306819D01*
X146848181Y-72893102D01*
X146881666Y-72954425D01*
X146884500Y-72980783D01*
X146884500Y-115154241D01*
X146864815Y-115221280D01*
X146848181Y-115241922D01*
X146846508Y-115243594D01*
X146716269Y-115429595D01*
X146661692Y-115473219D01*
X146592193Y-115480412D01*
X146529839Y-115448890D01*
X146513119Y-115429594D01*
X146383113Y-115243926D01*
X146383108Y-115243920D01*
X146216082Y-115076894D01*
X146022578Y-114941399D01*
X145808492Y-114841570D01*
X145808486Y-114841567D01*
X145595000Y-114784364D01*
X145595000Y-115679498D01*
X145487315Y-115630320D01*
X145380763Y-115615000D01*
X145309237Y-115615000D01*
X145202685Y-115630320D01*
X145095000Y-115679498D01*
X145095000Y-114784364D01*
X145094999Y-114784364D01*
X144881513Y-114841567D01*
X144881507Y-114841570D01*
X144667422Y-114941399D01*
X144667420Y-114941400D01*
X144473926Y-115076886D01*
X144473920Y-115076891D01*
X144306891Y-115243920D01*
X144306886Y-115243926D01*
X144171400Y-115437420D01*
X144171399Y-115437422D01*
X144071570Y-115651507D01*
X144071567Y-115651513D01*
X144014364Y-115864999D01*
X144014364Y-115865000D01*
X144911314Y-115865000D01*
X144885507Y-115905156D01*
X144845000Y-116043111D01*
X144845000Y-116186889D01*
X144885507Y-116324844D01*
X144911314Y-116365000D01*
X144014364Y-116365000D01*
X144071567Y-116578486D01*
X144071570Y-116578492D01*
X144171399Y-116792578D01*
X144306894Y-116986082D01*
X144473917Y-117153105D01*
X144667421Y-117288600D01*
X144881507Y-117388429D01*
X144881516Y-117388433D01*
X145095000Y-117445634D01*
X145095000Y-116550501D01*
X145202685Y-116599680D01*
X145309237Y-116615000D01*
X145380763Y-116615000D01*
X145487315Y-116599680D01*
X145595000Y-116550501D01*
X145595000Y-117445633D01*
X145808483Y-117388433D01*
X145808492Y-117388429D01*
X146022578Y-117288600D01*
X146216082Y-117153105D01*
X146383105Y-116986082D01*
X146513119Y-116800405D01*
X146567696Y-116756781D01*
X146637195Y-116749588D01*
X146699549Y-116781110D01*
X146716269Y-116800405D01*
X146846505Y-116986401D01*
X147013599Y-117153495D01*
X147110384Y-117221265D01*
X147207165Y-117289032D01*
X147207167Y-117289033D01*
X147207170Y-117289035D01*
X147421337Y-117388903D01*
X147649592Y-117450063D01*
X147826034Y-117465500D01*
X147884999Y-117470659D01*
X147885000Y-117470659D01*
X147885001Y-117470659D01*
X147943966Y-117465500D01*
X148120408Y-117450063D01*
X148348663Y-117388903D01*
X148562830Y-117289035D01*
X148756401Y-117153495D01*
X148923495Y-116986401D01*
X149053425Y-116800842D01*
X149108002Y-116757217D01*
X149177500Y-116750023D01*
X149239855Y-116781546D01*
X149256575Y-116800842D01*
X149386281Y-116986082D01*
X149386505Y-116986401D01*
X149553599Y-117153495D01*
X149650384Y-117221265D01*
X149747165Y-117289032D01*
X149747167Y-117289033D01*
X149747170Y-117289035D01*
X149961337Y-117388903D01*
X150189592Y-117450063D01*
X150366034Y-117465500D01*
X150424999Y-117470659D01*
X150425000Y-117470659D01*
X150425001Y-117470659D01*
X150483966Y-117465500D01*
X150660408Y-117450063D01*
X150888663Y-117388903D01*
X151102830Y-117289035D01*
X151296401Y-117153495D01*
X151463495Y-116986401D01*
X151593425Y-116800842D01*
X151648002Y-116757217D01*
X151717500Y-116750023D01*
X151779855Y-116781546D01*
X151796575Y-116800842D01*
X151926281Y-116986082D01*
X151926505Y-116986401D01*
X152093599Y-117153495D01*
X152190384Y-117221265D01*
X152287165Y-117289032D01*
X152287167Y-117289033D01*
X152287170Y-117289035D01*
X152501337Y-117388903D01*
X152729592Y-117450063D01*
X152906034Y-117465500D01*
X152964999Y-117470659D01*
X152965000Y-117470659D01*
X152965001Y-117470659D01*
X153023966Y-117465500D01*
X153200408Y-117450063D01*
X153428663Y-117388903D01*
X153642830Y-117289035D01*
X153836401Y-117153495D01*
X154003495Y-116986401D01*
X154133425Y-116800842D01*
X154188002Y-116757217D01*
X154257500Y-116750023D01*
X154319855Y-116781546D01*
X154336575Y-116800842D01*
X154466281Y-116986082D01*
X154466505Y-116986401D01*
X154633599Y-117153495D01*
X154730384Y-117221265D01*
X154827165Y-117289032D01*
X154827167Y-117289033D01*
X154827170Y-117289035D01*
X155041337Y-117388903D01*
X155269592Y-117450063D01*
X155446034Y-117465500D01*
X155504999Y-117470659D01*
X155505000Y-117470659D01*
X155505001Y-117470659D01*
X155563966Y-117465500D01*
X155740408Y-117450063D01*
X155968663Y-117388903D01*
X156182830Y-117289035D01*
X156376401Y-117153495D01*
X156543495Y-116986401D01*
X156673425Y-116800842D01*
X156728002Y-116757217D01*
X156797500Y-116750023D01*
X156859855Y-116781546D01*
X156876575Y-116800842D01*
X157006281Y-116986082D01*
X157006505Y-116986401D01*
X157173599Y-117153495D01*
X157270384Y-117221265D01*
X157367165Y-117289032D01*
X157367167Y-117289033D01*
X157367170Y-117289035D01*
X157581337Y-117388903D01*
X157809592Y-117450063D01*
X157986034Y-117465500D01*
X158044999Y-117470659D01*
X158045000Y-117470659D01*
X158045001Y-117470659D01*
X158103966Y-117465500D01*
X158280408Y-117450063D01*
X158508663Y-117388903D01*
X158722830Y-117289035D01*
X158916401Y-117153495D01*
X159083495Y-116986401D01*
X159213425Y-116800842D01*
X159268002Y-116757217D01*
X159337500Y-116750023D01*
X159399855Y-116781546D01*
X159416575Y-116800842D01*
X159546281Y-116986082D01*
X159546505Y-116986401D01*
X159713599Y-117153495D01*
X159810384Y-117221265D01*
X159907165Y-117289032D01*
X159907167Y-117289033D01*
X159907170Y-117289035D01*
X160121337Y-117388903D01*
X160349592Y-117450063D01*
X160526034Y-117465500D01*
X160584999Y-117470659D01*
X160585000Y-117470659D01*
X160585001Y-117470659D01*
X160643966Y-117465500D01*
X160820408Y-117450063D01*
X161048663Y-117388903D01*
X161262830Y-117289035D01*
X161456401Y-117153495D01*
X161623495Y-116986401D01*
X161753425Y-116800842D01*
X161808002Y-116757217D01*
X161877500Y-116750023D01*
X161939855Y-116781546D01*
X161956575Y-116800842D01*
X162086281Y-116986082D01*
X162086505Y-116986401D01*
X162253599Y-117153495D01*
X162350384Y-117221265D01*
X162447165Y-117289032D01*
X162447167Y-117289033D01*
X162447170Y-117289035D01*
X162661337Y-117388903D01*
X162889592Y-117450063D01*
X163066034Y-117465500D01*
X163124999Y-117470659D01*
X163125000Y-117470659D01*
X163125001Y-117470659D01*
X163183966Y-117465500D01*
X163360408Y-117450063D01*
X163588663Y-117388903D01*
X163802830Y-117289035D01*
X163996401Y-117153495D01*
X164163495Y-116986401D01*
X164293425Y-116800842D01*
X164348002Y-116757217D01*
X164417500Y-116750023D01*
X164479855Y-116781546D01*
X164496575Y-116800842D01*
X164626281Y-116986082D01*
X164626505Y-116986401D01*
X164793599Y-117153495D01*
X164890384Y-117221265D01*
X164987165Y-117289032D01*
X164987167Y-117289033D01*
X164987170Y-117289035D01*
X165201337Y-117388903D01*
X165429592Y-117450063D01*
X165606034Y-117465500D01*
X165664999Y-117470659D01*
X165665000Y-117470659D01*
X165665001Y-117470659D01*
X165723966Y-117465500D01*
X165900408Y-117450063D01*
X166128663Y-117388903D01*
X166342830Y-117289035D01*
X166536401Y-117153495D01*
X166703495Y-116986401D01*
X166833425Y-116800842D01*
X166888002Y-116757217D01*
X166957500Y-116750023D01*
X167019855Y-116781546D01*
X167036575Y-116800842D01*
X167166281Y-116986082D01*
X167166505Y-116986401D01*
X167333599Y-117153495D01*
X167430384Y-117221265D01*
X167527165Y-117289032D01*
X167527167Y-117289033D01*
X167527170Y-117289035D01*
X167741337Y-117388903D01*
X167969592Y-117450063D01*
X168146034Y-117465500D01*
X168204999Y-117470659D01*
X168205000Y-117470659D01*
X168205001Y-117470659D01*
X168263966Y-117465500D01*
X168440408Y-117450063D01*
X168668663Y-117388903D01*
X168882830Y-117289035D01*
X169076401Y-117153495D01*
X169243495Y-116986401D01*
X169373425Y-116800842D01*
X169428002Y-116757217D01*
X169497500Y-116750023D01*
X169559855Y-116781546D01*
X169576575Y-116800842D01*
X169706281Y-116986082D01*
X169706505Y-116986401D01*
X169873599Y-117153495D01*
X169970384Y-117221265D01*
X170067165Y-117289032D01*
X170067167Y-117289033D01*
X170067170Y-117289035D01*
X170281337Y-117388903D01*
X170509592Y-117450063D01*
X170686034Y-117465500D01*
X170744999Y-117470659D01*
X170745000Y-117470659D01*
X170745001Y-117470659D01*
X170803966Y-117465500D01*
X170980408Y-117450063D01*
X171208663Y-117388903D01*
X171422830Y-117289035D01*
X171616401Y-117153495D01*
X171738329Y-117031566D01*
X171799648Y-116998084D01*
X171869340Y-117003068D01*
X171925274Y-117044939D01*
X171942189Y-117075917D01*
X171991202Y-117207328D01*
X171991206Y-117207335D01*
X172077452Y-117322544D01*
X172077455Y-117322547D01*
X172192664Y-117408793D01*
X172192671Y-117408797D01*
X172327517Y-117459091D01*
X172327516Y-117459091D01*
X172334444Y-117459835D01*
X172387127Y-117465500D01*
X174182872Y-117465499D01*
X174242483Y-117459091D01*
X174377331Y-117408796D01*
X174492546Y-117322546D01*
X174578796Y-117207331D01*
X174582960Y-117196165D01*
X174624829Y-117140234D01*
X174690293Y-117115816D01*
X174699141Y-117115500D01*
X175120721Y-117115500D01*
X175123863Y-117115540D01*
X175211358Y-117117757D01*
X175211358Y-117117756D01*
X175211363Y-117117757D01*
X175269425Y-117107349D01*
X175278754Y-117106041D01*
X175337438Y-117100074D01*
X175366471Y-117090964D01*
X175381700Y-117087226D01*
X175411653Y-117081858D01*
X175411657Y-117081856D01*
X175411659Y-117081856D01*
X175466423Y-117059980D01*
X175475292Y-117056821D01*
X175531588Y-117039159D01*
X175558200Y-117024387D01*
X175572362Y-117017662D01*
X175600617Y-117006377D01*
X175649879Y-116973909D01*
X175657910Y-116969043D01*
X175709502Y-116940409D01*
X175709509Y-116940402D01*
X175709512Y-116940401D01*
X175732583Y-116920594D01*
X175745125Y-116911137D01*
X175770519Y-116894402D01*
X175812237Y-116852682D01*
X175819122Y-116846301D01*
X175863895Y-116807866D01*
X175882520Y-116783802D01*
X175892880Y-116772039D01*
X176529983Y-116134936D01*
X197199500Y-116134936D01*
X197239718Y-116401767D01*
X197239720Y-116401773D01*
X197319262Y-116659641D01*
X197436346Y-116902769D01*
X197436348Y-116902771D01*
X197436349Y-116902774D01*
X197558446Y-117081858D01*
X197588365Y-117125741D01*
X197771910Y-117323557D01*
X197771914Y-117323560D01*
X197771915Y-117323561D01*
X197982898Y-117491815D01*
X198216602Y-117626743D01*
X198467805Y-117725334D01*
X198730897Y-117785383D01*
X198768757Y-117788220D01*
X198932602Y-117800499D01*
X198932621Y-117800499D01*
X198932624Y-117800500D01*
X198932626Y-117800500D01*
X199067374Y-117800500D01*
X199067376Y-117800500D01*
X199067378Y-117800499D01*
X199067397Y-117800499D01*
X199212312Y-117789638D01*
X199269103Y-117785383D01*
X199532195Y-117725334D01*
X199783398Y-117626743D01*
X200017102Y-117491815D01*
X200228085Y-117323561D01*
X200411635Y-117125741D01*
X200563651Y-116902775D01*
X200680738Y-116659641D01*
X200760280Y-116401772D01*
X200765823Y-116365000D01*
X200800499Y-116134936D01*
X200800500Y-116134927D01*
X200800500Y-115865072D01*
X200800499Y-115865063D01*
X200760281Y-115598232D01*
X200760279Y-115598226D01*
X200680738Y-115340359D01*
X200563651Y-115097226D01*
X200411635Y-114874259D01*
X200380865Y-114841097D01*
X200228089Y-114676442D01*
X200187509Y-114644080D01*
X200017102Y-114508185D01*
X199783398Y-114373257D01*
X199783396Y-114373256D01*
X199532195Y-114274666D01*
X199532188Y-114274664D01*
X199269100Y-114214616D01*
X199067397Y-114199500D01*
X199067376Y-114199500D01*
X198932624Y-114199500D01*
X198932602Y-114199500D01*
X198730899Y-114214616D01*
X198467811Y-114274664D01*
X198467804Y-114274666D01*
X198216603Y-114373256D01*
X198216599Y-114373258D01*
X197982898Y-114508185D01*
X197771910Y-114676442D01*
X197588365Y-114874258D01*
X197436345Y-115097231D01*
X197436344Y-115097232D01*
X197319263Y-115340355D01*
X197239720Y-115598226D01*
X197239718Y-115598232D01*
X197199500Y-115865063D01*
X197199500Y-116134936D01*
X176529983Y-116134936D01*
X179777409Y-112887510D01*
X179779578Y-112885395D01*
X179843053Y-112825059D01*
X179876756Y-112776635D01*
X179882405Y-112769142D01*
X179919698Y-112723407D01*
X179933790Y-112696427D01*
X179941910Y-112683025D01*
X179959295Y-112658049D01*
X179982560Y-112603832D01*
X179986595Y-112595338D01*
X179991484Y-112585979D01*
X180013910Y-112543049D01*
X180022278Y-112513802D01*
X180027547Y-112499002D01*
X180039540Y-112471058D01*
X180048272Y-112428565D01*
X180051415Y-112413265D01*
X180053647Y-112404171D01*
X180069887Y-112347418D01*
X180072197Y-112317077D01*
X180074376Y-112301535D01*
X180080500Y-112271741D01*
X180080500Y-112212758D01*
X180080858Y-112203342D01*
X180085337Y-112144526D01*
X180084543Y-112138293D01*
X180081493Y-112114338D01*
X180080500Y-112098674D01*
X180080500Y-108239256D01*
X180065074Y-108087560D01*
X180004162Y-107893420D01*
X180004160Y-107893416D01*
X180004159Y-107893412D01*
X179905409Y-107715498D01*
X179905408Y-107715497D01*
X179905407Y-107715495D01*
X179772867Y-107561106D01*
X179772865Y-107561104D01*
X179611962Y-107436554D01*
X179611959Y-107436553D01*
X179611958Y-107436552D01*
X179429271Y-107346940D01*
X179232285Y-107295937D01*
X179232287Y-107295937D01*
X179096804Y-107289066D01*
X179029064Y-107285631D01*
X179029063Y-107285631D01*
X179029061Y-107285631D01*
X178827936Y-107316442D01*
X178827924Y-107316445D01*
X178637118Y-107387111D01*
X178637111Y-107387115D01*
X178464432Y-107494745D01*
X178464427Y-107494749D01*
X178316949Y-107634938D01*
X178316948Y-107634940D01*
X178200705Y-107801949D01*
X178120459Y-107988943D01*
X178079500Y-108188258D01*
X178079500Y-111704218D01*
X178059815Y-111771257D01*
X178043181Y-111791899D01*
X177417741Y-112417338D01*
X177356418Y-112450823D01*
X177286726Y-112445839D01*
X177230793Y-112403967D01*
X177206376Y-112338503D01*
X177208598Y-112304698D01*
X177210981Y-112293101D01*
X177221417Y-112242314D01*
X177223657Y-112233189D01*
X177239887Y-112176474D01*
X177242197Y-112146133D01*
X177244376Y-112130591D01*
X177250500Y-112100797D01*
X177250500Y-112041814D01*
X177250858Y-112032398D01*
X177255337Y-111973582D01*
X177251493Y-111943394D01*
X177250500Y-111927730D01*
X177250500Y-111850722D01*
X177260548Y-111801825D01*
X177272563Y-111773825D01*
X177276582Y-111765361D01*
X177303909Y-111713049D01*
X177312278Y-111683797D01*
X177317538Y-111669023D01*
X177329540Y-111641058D01*
X177341415Y-111583268D01*
X177343649Y-111574162D01*
X177359887Y-111517418D01*
X177362197Y-111487077D01*
X177364376Y-111471535D01*
X177370500Y-111441741D01*
X177370500Y-111382758D01*
X177370858Y-111373342D01*
X177375337Y-111314526D01*
X177375133Y-111312926D01*
X177371493Y-111284338D01*
X177370500Y-111268674D01*
X177370500Y-108254070D01*
X177370858Y-108244654D01*
X177385337Y-108054524D01*
X177385337Y-108054523D01*
X177359631Y-107852678D01*
X177359630Y-107852676D01*
X177359630Y-107852672D01*
X177293816Y-107660128D01*
X177291483Y-107656165D01*
X177190593Y-107484778D01*
X177190592Y-107484777D01*
X177190590Y-107484773D01*
X177054179Y-107333787D01*
X176890171Y-107213353D01*
X176890164Y-107213349D01*
X176705274Y-107128397D01*
X176705261Y-107128392D01*
X176507054Y-107082397D01*
X176303642Y-107077242D01*
X176103351Y-107113140D01*
X176103345Y-107113142D01*
X175914383Y-107188623D01*
X175914371Y-107188629D01*
X175744485Y-107300594D01*
X175672617Y-107372460D01*
X175670370Y-107374650D01*
X175606950Y-107434936D01*
X175606949Y-107434937D01*
X175573245Y-107483361D01*
X175567574Y-107490882D01*
X175530302Y-107536592D01*
X175530298Y-107536598D01*
X175516209Y-107563568D01*
X175508082Y-107576983D01*
X175490702Y-107601955D01*
X175467438Y-107656165D01*
X175463398Y-107664672D01*
X175436090Y-107716951D01*
X175436090Y-107716952D01*
X175427720Y-107746201D01*
X175422459Y-107760979D01*
X175410459Y-107788943D01*
X175398588Y-107846711D01*
X175396342Y-107855860D01*
X175380113Y-107912577D01*
X175377802Y-107942926D01*
X175375622Y-107958466D01*
X175369500Y-107988258D01*
X175369500Y-108047240D01*
X175369142Y-108056656D01*
X175364662Y-108115474D01*
X175368506Y-108145649D01*
X175369500Y-108161317D01*
X175369500Y-110949275D01*
X175359450Y-110998177D01*
X175347441Y-111026160D01*
X175343401Y-111034667D01*
X175316090Y-111086952D01*
X175307720Y-111116201D01*
X175302459Y-111130979D01*
X175290459Y-111158943D01*
X175278588Y-111216711D01*
X175276342Y-111225860D01*
X175260113Y-111282577D01*
X175257802Y-111312926D01*
X175255622Y-111328466D01*
X175249500Y-111358258D01*
X175249500Y-111417240D01*
X175249142Y-111426656D01*
X175244662Y-111485474D01*
X175248506Y-111515649D01*
X175249500Y-111531317D01*
X175249500Y-111533274D01*
X175229815Y-111600313D01*
X175213181Y-111620955D01*
X175062181Y-111771955D01*
X175000858Y-111805440D01*
X174931166Y-111800456D01*
X174875233Y-111758584D01*
X174850816Y-111693120D01*
X174850500Y-111684274D01*
X174850500Y-109497442D01*
X174864590Y-109440032D01*
X174883909Y-109403049D01*
X174939886Y-109207418D01*
X174955337Y-109004524D01*
X174955337Y-109004523D01*
X174929631Y-108802678D01*
X174929630Y-108802676D01*
X174929630Y-108802672D01*
X174863816Y-108610128D01*
X174859954Y-108603568D01*
X174760593Y-108434778D01*
X174760592Y-108434777D01*
X174760590Y-108434773D01*
X174624179Y-108283787D01*
X174578982Y-108250598D01*
X174460171Y-108163353D01*
X174460164Y-108163349D01*
X174275274Y-108078397D01*
X174275261Y-108078392D01*
X174077053Y-108032397D01*
X173873638Y-108027244D01*
X173873635Y-108027244D01*
X173673350Y-108063140D01*
X173673345Y-108063142D01*
X173484383Y-108138623D01*
X173484371Y-108138629D01*
X173314485Y-108250594D01*
X173314480Y-108250598D01*
X173152620Y-108412456D01*
X173150374Y-108414647D01*
X173086948Y-108474940D01*
X173053245Y-108523361D01*
X173047574Y-108530882D01*
X173010302Y-108576592D01*
X173010298Y-108576598D01*
X172996209Y-108603568D01*
X172988082Y-108616983D01*
X172970702Y-108641955D01*
X172947438Y-108696165D01*
X172943398Y-108704672D01*
X172916090Y-108756951D01*
X172916090Y-108756952D01*
X172907720Y-108786201D01*
X172902459Y-108800979D01*
X172890459Y-108828943D01*
X172878588Y-108886711D01*
X172876342Y-108895860D01*
X172860113Y-108952577D01*
X172857802Y-108982926D01*
X172855622Y-108998466D01*
X172849500Y-109028258D01*
X172849500Y-109087240D01*
X172849142Y-109096656D01*
X172844662Y-109155474D01*
X172848506Y-109185649D01*
X172849500Y-109201317D01*
X172849500Y-109599390D01*
X172829815Y-109666429D01*
X172777011Y-109712184D01*
X172707853Y-109722128D01*
X172644297Y-109693103D01*
X172635626Y-109684822D01*
X172495061Y-109536949D01*
X172495060Y-109536948D01*
X172495059Y-109536947D01*
X172368603Y-109448931D01*
X172328050Y-109420705D01*
X172141056Y-109340459D01*
X171941741Y-109299500D01*
X170090108Y-109299500D01*
X170023069Y-109279815D01*
X169977314Y-109227011D01*
X169967370Y-109157853D01*
X169992053Y-109099598D01*
X170013444Y-109071963D01*
X170013443Y-109071963D01*
X170013448Y-109071958D01*
X170103060Y-108889271D01*
X170154063Y-108692285D01*
X170164369Y-108489064D01*
X170133556Y-108287929D01*
X170062886Y-108097113D01*
X169955252Y-107924429D01*
X169815059Y-107776947D01*
X169716587Y-107708409D01*
X169648050Y-107660705D01*
X169461056Y-107580459D01*
X169261741Y-107539500D01*
X167871335Y-107539500D01*
X167868195Y-107539460D01*
X167780734Y-107537244D01*
X167780722Y-107537245D01*
X167722686Y-107547646D01*
X167713362Y-107548954D01*
X167654660Y-107554925D01*
X167654651Y-107554927D01*
X167625625Y-107564034D01*
X167610385Y-107567775D01*
X167580446Y-107573141D01*
X167525664Y-107595022D01*
X167516794Y-107598179D01*
X167463565Y-107614881D01*
X167393707Y-107616170D01*
X167334242Y-107579487D01*
X167311383Y-107542803D01*
X167289050Y-107487226D01*
X167276468Y-107455914D01*
X167149242Y-107249286D01*
X166988925Y-107067131D01*
X166956533Y-107040976D01*
X166916741Y-106983545D01*
X166914315Y-106913717D01*
X166950025Y-106853663D01*
X167012535Y-106822449D01*
X167034433Y-106820500D01*
X180154217Y-106820500D01*
X180221256Y-106840185D01*
X180241898Y-106856819D01*
X180915673Y-107530594D01*
X180949158Y-107591917D01*
X180946557Y-107654584D01*
X180902456Y-107798592D01*
X180871635Y-108039281D01*
X180881933Y-108281713D01*
X180881933Y-108281719D01*
X180933056Y-108518929D01*
X180933057Y-108518932D01*
X181007694Y-108704672D01*
X181023532Y-108744086D01*
X181059604Y-108802670D01*
X181150757Y-108950713D01*
X181311075Y-109132869D01*
X181311079Y-109132873D01*
X181499870Y-109285311D01*
X181711709Y-109403652D01*
X181711712Y-109403653D01*
X181940507Y-109484491D01*
X181940513Y-109484492D01*
X182179662Y-109525499D01*
X182179670Y-109525499D01*
X182179672Y-109525500D01*
X182179673Y-109525500D01*
X183559553Y-109525500D01*
X183559554Y-109525500D01*
X183559555Y-109525499D01*
X183559572Y-109525499D01*
X183740775Y-109510076D01*
X183740775Y-109510075D01*
X183740782Y-109510075D01*
X183975608Y-109448931D01*
X183975611Y-109448930D01*
X184196713Y-109348986D01*
X184196716Y-109348983D01*
X184196723Y-109348981D01*
X184397765Y-109213100D01*
X184479277Y-109134976D01*
X184541297Y-109102802D01*
X184565077Y-109100500D01*
X193727474Y-109100500D01*
X193794513Y-109120185D01*
X193806753Y-109129835D01*
X193806976Y-109129560D01*
X193999870Y-109285311D01*
X194211709Y-109403652D01*
X194211712Y-109403653D01*
X194440507Y-109484491D01*
X194440513Y-109484492D01*
X194679662Y-109525499D01*
X194679670Y-109525499D01*
X194679672Y-109525500D01*
X194679673Y-109525500D01*
X196059553Y-109525500D01*
X196059554Y-109525500D01*
X196059555Y-109525499D01*
X196059572Y-109525499D01*
X196240775Y-109510076D01*
X196240775Y-109510075D01*
X196240782Y-109510075D01*
X196475608Y-109448931D01*
X196475611Y-109448930D01*
X196696713Y-109348986D01*
X196696716Y-109348983D01*
X196696723Y-109348981D01*
X196897765Y-109213100D01*
X197072952Y-109045197D01*
X197217244Y-108850102D01*
X197326488Y-108633429D01*
X197397543Y-108401409D01*
X197428365Y-108160719D01*
X197428056Y-108153456D01*
X197418066Y-107918284D01*
X197418066Y-107918280D01*
X197390192Y-107788943D01*
X197366944Y-107681072D01*
X197276468Y-107455914D01*
X197149242Y-107249286D01*
X196988925Y-107067131D01*
X196988924Y-107067130D01*
X196988920Y-107067126D01*
X196800129Y-106914688D01*
X196588290Y-106796347D01*
X196359500Y-106715511D01*
X196359486Y-106715507D01*
X196120337Y-106674500D01*
X196120328Y-106674500D01*
X194740446Y-106674500D01*
X194740427Y-106674500D01*
X194559224Y-106689923D01*
X194559222Y-106689924D01*
X194324391Y-106751068D01*
X194324388Y-106751069D01*
X194103286Y-106851013D01*
X194103274Y-106851020D01*
X193902245Y-106986892D01*
X193902235Y-106986900D01*
X193820723Y-107065023D01*
X193758703Y-107097198D01*
X193734923Y-107099500D01*
X184572526Y-107099500D01*
X184505487Y-107079815D01*
X184493246Y-107070164D01*
X184493024Y-107070440D01*
X184300129Y-106914688D01*
X184088290Y-106796347D01*
X183859500Y-106715511D01*
X183859486Y-106715507D01*
X183620337Y-106674500D01*
X183620328Y-106674500D01*
X182940783Y-106674500D01*
X182873744Y-106654815D01*
X182853102Y-106638181D01*
X181337566Y-105122646D01*
X181335373Y-105120397D01*
X181275061Y-105056949D01*
X181275060Y-105056948D01*
X181275059Y-105056947D01*
X181226640Y-105023246D01*
X181219120Y-105017575D01*
X181173413Y-104980305D01*
X181173406Y-104980301D01*
X181146441Y-104966216D01*
X181133026Y-104958089D01*
X181108049Y-104940705D01*
X181108046Y-104940703D01*
X181108045Y-104940703D01*
X181108041Y-104940701D01*
X181053845Y-104917443D01*
X181045336Y-104913402D01*
X180993057Y-104886094D01*
X180993046Y-104886090D01*
X180963806Y-104877723D01*
X180949021Y-104872459D01*
X180921058Y-104860459D01*
X180863273Y-104848583D01*
X180854127Y-104846338D01*
X180797423Y-104830113D01*
X180773699Y-104828306D01*
X180767072Y-104827801D01*
X180751533Y-104825622D01*
X180721742Y-104819500D01*
X180721741Y-104819500D01*
X180662759Y-104819500D01*
X180653344Y-104819142D01*
X180650643Y-104818936D01*
X180594524Y-104814662D01*
X180564349Y-104818506D01*
X180548682Y-104819500D01*
X164154278Y-104819500D01*
X164151138Y-104819460D01*
X164063637Y-104817243D01*
X164063628Y-104817243D01*
X164005579Y-104827648D01*
X163996252Y-104828956D01*
X163937564Y-104834925D01*
X163937554Y-104834927D01*
X163908528Y-104844034D01*
X163893288Y-104847775D01*
X163863350Y-104853141D01*
X163808570Y-104875021D01*
X163799702Y-104878178D01*
X163743414Y-104895840D01*
X163743413Y-104895840D01*
X163716818Y-104910601D01*
X163702648Y-104917330D01*
X163674384Y-104928621D01*
X163625121Y-104961087D01*
X163617066Y-104965967D01*
X163565502Y-104994588D01*
X163565499Y-104994590D01*
X163542405Y-105014414D01*
X163529883Y-105023855D01*
X163504482Y-105040598D01*
X163504475Y-105040603D01*
X163462781Y-105082297D01*
X163455874Y-105088698D01*
X163411106Y-105127132D01*
X163411105Y-105127133D01*
X163392480Y-105151194D01*
X163382107Y-105162971D01*
X157347646Y-111197432D01*
X157345399Y-111199624D01*
X157281946Y-111259942D01*
X157248245Y-111308361D01*
X157242574Y-111315882D01*
X157205302Y-111361592D01*
X157205298Y-111361598D01*
X157191209Y-111388568D01*
X157183082Y-111401983D01*
X157165702Y-111426955D01*
X157142438Y-111481165D01*
X157138398Y-111489672D01*
X157111090Y-111541951D01*
X157111090Y-111541952D01*
X157102720Y-111571201D01*
X157097459Y-111585979D01*
X157085459Y-111613943D01*
X157079888Y-111641055D01*
X157074142Y-111669016D01*
X157073588Y-111671711D01*
X157071342Y-111680860D01*
X157055113Y-111737577D01*
X157055113Y-111737582D01*
X157053000Y-111765331D01*
X157052802Y-111767926D01*
X157050622Y-111783466D01*
X157044500Y-111813258D01*
X157044500Y-111872240D01*
X157044142Y-111881656D01*
X157039662Y-111940474D01*
X157043506Y-111970649D01*
X157044500Y-111986317D01*
X157044500Y-115154241D01*
X157024815Y-115221280D01*
X157008181Y-115241922D01*
X157006505Y-115243597D01*
X156876575Y-115429158D01*
X156821998Y-115472783D01*
X156752500Y-115479977D01*
X156690145Y-115448454D01*
X156673425Y-115429158D01*
X156543494Y-115243597D01*
X156376402Y-115076506D01*
X156376395Y-115076501D01*
X156182834Y-114940967D01*
X156182830Y-114940965D01*
X156182828Y-114940964D01*
X155968663Y-114841097D01*
X155968659Y-114841096D01*
X155968655Y-114841094D01*
X155740413Y-114779938D01*
X155740403Y-114779936D01*
X155505001Y-114759341D01*
X155504999Y-114759341D01*
X155269596Y-114779936D01*
X155269586Y-114779938D01*
X155041344Y-114841094D01*
X155041335Y-114841098D01*
X154827171Y-114940964D01*
X154827169Y-114940965D01*
X154633597Y-115076505D01*
X154466505Y-115243597D01*
X154336575Y-115429158D01*
X154281998Y-115472783D01*
X154212500Y-115479977D01*
X154150145Y-115448454D01*
X154133425Y-115429158D01*
X154003494Y-115243597D01*
X154001819Y-115241922D01*
X154001315Y-115241000D01*
X154000014Y-115239449D01*
X154000325Y-115239187D01*
X153968334Y-115180599D01*
X153965500Y-115154241D01*
X153965500Y-114000782D01*
X153985185Y-113933743D01*
X154001814Y-113913106D01*
X157542409Y-110372510D01*
X157544578Y-110370395D01*
X157608053Y-110310059D01*
X157641756Y-110261635D01*
X157647405Y-110254142D01*
X157684698Y-110208407D01*
X157698788Y-110181430D01*
X157706909Y-110168026D01*
X157724295Y-110143049D01*
X157747563Y-110088825D01*
X157751582Y-110080361D01*
X157778909Y-110028049D01*
X157787278Y-109998797D01*
X157792538Y-109984023D01*
X157804540Y-109956058D01*
X157816415Y-109898268D01*
X157818649Y-109889162D01*
X157834887Y-109832418D01*
X157837197Y-109802077D01*
X157839376Y-109786535D01*
X157845500Y-109756741D01*
X157845500Y-109697758D01*
X157845858Y-109688342D01*
X157850337Y-109629526D01*
X157846493Y-109599338D01*
X157845500Y-109583674D01*
X157845500Y-106220781D01*
X157865185Y-106153742D01*
X157881814Y-106133105D01*
X160277389Y-103737529D01*
X160279558Y-103735414D01*
X160343053Y-103675059D01*
X160376752Y-103626641D01*
X160382428Y-103619113D01*
X160419698Y-103573407D01*
X160433782Y-103546444D01*
X160441919Y-103533013D01*
X160459292Y-103508053D01*
X160459295Y-103508049D01*
X160482563Y-103453825D01*
X160486582Y-103445361D01*
X160513909Y-103393049D01*
X160522275Y-103363808D01*
X160527544Y-103349009D01*
X160539538Y-103321062D01*
X160539540Y-103321058D01*
X160551421Y-103263238D01*
X160553650Y-103254155D01*
X160569886Y-103197418D01*
X160572196Y-103167080D01*
X160574376Y-103151540D01*
X160580500Y-103121743D01*
X160580500Y-103062754D01*
X160580858Y-103053339D01*
X160585337Y-102994524D01*
X160581493Y-102964339D01*
X160580500Y-102948675D01*
X160580500Y-102849999D01*
X163396377Y-102849999D01*
X163396378Y-102850000D01*
X164799272Y-102850000D01*
X164776900Y-102897543D01*
X164746127Y-103058862D01*
X164756439Y-103222766D01*
X164797780Y-103350000D01*
X163397161Y-103350000D01*
X163433536Y-103518782D01*
X163433537Y-103518785D01*
X163523978Y-103743856D01*
X163651161Y-103950415D01*
X163811422Y-104132507D01*
X163811426Y-104132511D01*
X164000144Y-104284890D01*
X164000150Y-104284894D01*
X164211917Y-104403194D01*
X164440629Y-104484003D01*
X164440637Y-104484005D01*
X164679706Y-104524999D01*
X164679715Y-104525000D01*
X165150000Y-104525000D01*
X165150000Y-103704310D01*
X165158817Y-103709158D01*
X165317886Y-103750000D01*
X165440894Y-103750000D01*
X165562933Y-103734583D01*
X165650000Y-103700110D01*
X165650000Y-104525000D01*
X166059533Y-104525000D01*
X166059550Y-104524999D01*
X166240692Y-104509582D01*
X166475440Y-104448458D01*
X166696472Y-104348546D01*
X166696480Y-104348541D01*
X166897450Y-104212708D01*
X166897453Y-104212706D01*
X167072575Y-104044864D01*
X167072576Y-104044863D01*
X167216813Y-103849843D01*
X167326021Y-103633242D01*
X167397053Y-103401299D01*
X167403622Y-103350000D01*
X166000728Y-103350000D01*
X166023100Y-103302457D01*
X166039692Y-103215477D01*
X168154662Y-103215477D01*
X168180368Y-103417321D01*
X168180370Y-103417329D01*
X168246183Y-103609870D01*
X168246189Y-103609882D01*
X168349406Y-103785221D01*
X168349411Y-103785228D01*
X168485820Y-103936212D01*
X168649828Y-104056646D01*
X168649835Y-104056650D01*
X168814939Y-104132511D01*
X168834732Y-104141605D01*
X168900456Y-104156857D01*
X169032945Y-104187603D01*
X169236358Y-104192757D01*
X169236358Y-104192756D01*
X169236363Y-104192757D01*
X169415853Y-104160586D01*
X169436648Y-104156859D01*
X169436648Y-104156858D01*
X169436653Y-104156858D01*
X169625617Y-104081377D01*
X169681021Y-104044863D01*
X169795517Y-103969403D01*
X169795519Y-103969402D01*
X170914922Y-102849999D01*
X180896377Y-102849999D01*
X180896378Y-102850000D01*
X182299272Y-102850000D01*
X182276900Y-102897543D01*
X182246127Y-103058862D01*
X182256439Y-103222766D01*
X182297780Y-103350000D01*
X180897161Y-103350000D01*
X180933536Y-103518782D01*
X180933537Y-103518785D01*
X181023978Y-103743856D01*
X181151161Y-103950415D01*
X181311422Y-104132507D01*
X181311426Y-104132511D01*
X181500144Y-104284890D01*
X181500150Y-104284894D01*
X181711917Y-104403194D01*
X181940629Y-104484003D01*
X181940637Y-104484005D01*
X182179706Y-104524999D01*
X182179715Y-104525000D01*
X182650000Y-104525000D01*
X182650000Y-103704310D01*
X182658817Y-103709158D01*
X182817886Y-103750000D01*
X182940894Y-103750000D01*
X183062933Y-103734583D01*
X183150000Y-103700110D01*
X183150000Y-104525000D01*
X183559533Y-104525000D01*
X183559550Y-104524999D01*
X183740692Y-104509582D01*
X183975440Y-104448458D01*
X184196472Y-104348546D01*
X184196480Y-104348541D01*
X184397450Y-104212708D01*
X184397453Y-104212706D01*
X184572575Y-104044864D01*
X184572576Y-104044863D01*
X184716813Y-103849843D01*
X184826021Y-103633242D01*
X184897053Y-103401299D01*
X184903622Y-103350000D01*
X183500728Y-103350000D01*
X183523100Y-103302457D01*
X183553873Y-103141138D01*
X183543561Y-102977234D01*
X183502220Y-102850000D01*
X184902839Y-102850000D01*
X184902839Y-102849999D01*
X193396377Y-102849999D01*
X193396378Y-102850000D01*
X194799272Y-102850000D01*
X194776900Y-102897543D01*
X194746127Y-103058862D01*
X194756439Y-103222766D01*
X194797780Y-103350000D01*
X193397161Y-103350000D01*
X193433536Y-103518782D01*
X193433537Y-103518785D01*
X193523978Y-103743856D01*
X193651161Y-103950415D01*
X193811422Y-104132507D01*
X193811426Y-104132511D01*
X194000144Y-104284890D01*
X194000150Y-104284894D01*
X194211917Y-104403194D01*
X194440629Y-104484003D01*
X194440637Y-104484005D01*
X194679706Y-104524999D01*
X194679715Y-104525000D01*
X195150000Y-104525000D01*
X195150000Y-103704310D01*
X195158817Y-103709158D01*
X195317886Y-103750000D01*
X195440894Y-103750000D01*
X195562933Y-103734583D01*
X195650000Y-103700110D01*
X195650000Y-104525000D01*
X196059533Y-104525000D01*
X196059550Y-104524999D01*
X196240692Y-104509582D01*
X196475440Y-104448458D01*
X196696472Y-104348546D01*
X196696480Y-104348541D01*
X196897450Y-104212708D01*
X196897453Y-104212706D01*
X197072575Y-104044864D01*
X197072576Y-104044863D01*
X197216813Y-103849843D01*
X197326021Y-103633242D01*
X197397053Y-103401299D01*
X197403622Y-103350000D01*
X196000728Y-103350000D01*
X196023100Y-103302457D01*
X196053873Y-103141138D01*
X196043561Y-102977234D01*
X196002220Y-102850000D01*
X197402839Y-102850000D01*
X197366463Y-102681217D01*
X197366462Y-102681214D01*
X197276021Y-102456143D01*
X197148838Y-102249584D01*
X196988577Y-102067492D01*
X196988573Y-102067488D01*
X196799855Y-101915109D01*
X196799849Y-101915105D01*
X196588082Y-101796805D01*
X196359370Y-101715996D01*
X196359362Y-101715994D01*
X196120293Y-101675000D01*
X195650000Y-101675000D01*
X195650000Y-102495689D01*
X195641183Y-102490842D01*
X195482114Y-102450000D01*
X195359106Y-102450000D01*
X195237067Y-102465417D01*
X195150000Y-102499889D01*
X195150000Y-101675000D01*
X194740449Y-101675000D01*
X194559307Y-101690417D01*
X194324559Y-101751541D01*
X194103527Y-101851453D01*
X194103519Y-101851458D01*
X193902549Y-101987291D01*
X193902546Y-101987293D01*
X193727424Y-102155135D01*
X193727423Y-102155136D01*
X193583186Y-102350156D01*
X193473978Y-102566757D01*
X193402946Y-102798700D01*
X193396377Y-102849999D01*
X184902839Y-102849999D01*
X184866463Y-102681217D01*
X184866462Y-102681214D01*
X184776021Y-102456143D01*
X184648838Y-102249584D01*
X184488577Y-102067492D01*
X184488573Y-102067488D01*
X184299855Y-101915109D01*
X184299849Y-101915105D01*
X184088082Y-101796805D01*
X183859370Y-101715996D01*
X183859362Y-101715994D01*
X183620293Y-101675000D01*
X183150000Y-101675000D01*
X183150000Y-102495689D01*
X183141183Y-102490842D01*
X182982114Y-102450000D01*
X182859106Y-102450000D01*
X182737067Y-102465417D01*
X182650000Y-102499889D01*
X182650000Y-101675000D01*
X182240449Y-101675000D01*
X182059307Y-101690417D01*
X181824559Y-101751541D01*
X181603527Y-101851453D01*
X181603519Y-101851458D01*
X181402549Y-101987291D01*
X181402546Y-101987293D01*
X181227424Y-102155135D01*
X181227423Y-102155136D01*
X181083186Y-102350156D01*
X180973978Y-102566757D01*
X180902946Y-102798700D01*
X180896377Y-102849999D01*
X170914922Y-102849999D01*
X183597409Y-90167510D01*
X183599578Y-90165395D01*
X183663053Y-90105059D01*
X183696750Y-90056644D01*
X183702417Y-90049126D01*
X183739698Y-90003407D01*
X183753788Y-89976430D01*
X183761909Y-89963026D01*
X183779295Y-89938049D01*
X183802563Y-89883825D01*
X183806582Y-89875361D01*
X183833909Y-89823049D01*
X183842275Y-89793808D01*
X183847544Y-89779009D01*
X183859540Y-89751058D01*
X183871421Y-89693238D01*
X183873650Y-89684155D01*
X183889886Y-89627418D01*
X183892196Y-89597080D01*
X183894376Y-89581540D01*
X183900500Y-89551743D01*
X183900500Y-89492754D01*
X183900858Y-89483339D01*
X183905337Y-89424524D01*
X183901493Y-89394339D01*
X183900500Y-89378675D01*
X183900500Y-84562910D01*
X183920185Y-84495871D01*
X183972989Y-84450116D01*
X183973425Y-84449917D01*
X183975603Y-84448932D01*
X183975608Y-84448931D01*
X184196723Y-84348981D01*
X184397765Y-84213100D01*
X184479277Y-84134976D01*
X184541297Y-84102802D01*
X184565077Y-84100500D01*
X193727474Y-84100500D01*
X193794513Y-84120185D01*
X193806753Y-84129835D01*
X193806976Y-84129560D01*
X193999870Y-84285311D01*
X194211709Y-84403652D01*
X194211712Y-84403653D01*
X194440507Y-84484491D01*
X194440513Y-84484492D01*
X194679662Y-84525499D01*
X194679670Y-84525499D01*
X194679672Y-84525500D01*
X194679673Y-84525500D01*
X196059553Y-84525500D01*
X196059554Y-84525500D01*
X196059555Y-84525499D01*
X196059572Y-84525499D01*
X196240775Y-84510076D01*
X196240775Y-84510075D01*
X196240782Y-84510075D01*
X196475608Y-84448931D01*
X196475611Y-84448930D01*
X196696713Y-84348986D01*
X196696716Y-84348983D01*
X196696723Y-84348981D01*
X196897765Y-84213100D01*
X197072952Y-84045197D01*
X197217244Y-83850102D01*
X197326488Y-83633429D01*
X197397543Y-83401409D01*
X197428365Y-83160719D01*
X197418066Y-82918281D01*
X197366944Y-82681072D01*
X197276468Y-82455914D01*
X197149242Y-82249286D01*
X196988925Y-82067131D01*
X196988924Y-82067130D01*
X196988920Y-82067126D01*
X196800129Y-81914688D01*
X196588290Y-81796347D01*
X196359500Y-81715511D01*
X196359486Y-81715507D01*
X196120337Y-81674500D01*
X196120328Y-81674500D01*
X194740446Y-81674500D01*
X194740427Y-81674500D01*
X194559224Y-81689923D01*
X194559222Y-81689924D01*
X194324391Y-81751068D01*
X194324388Y-81751069D01*
X194103286Y-81851013D01*
X194103274Y-81851020D01*
X193902245Y-81986892D01*
X193902235Y-81986900D01*
X193820723Y-82065023D01*
X193758703Y-82097198D01*
X193734923Y-82099500D01*
X184572526Y-82099500D01*
X184505487Y-82079815D01*
X184493246Y-82070164D01*
X184493024Y-82070440D01*
X184300129Y-81914688D01*
X184088290Y-81796347D01*
X183859500Y-81715511D01*
X183859486Y-81715507D01*
X183620337Y-81674500D01*
X183620328Y-81674500D01*
X182240446Y-81674500D01*
X182240427Y-81674500D01*
X182059224Y-81689923D01*
X182059222Y-81689924D01*
X181824391Y-81751068D01*
X181824388Y-81751069D01*
X181603286Y-81851013D01*
X181603274Y-81851020D01*
X181402234Y-81986900D01*
X181402232Y-81986902D01*
X181227047Y-82154803D01*
X181227046Y-82154804D01*
X181082758Y-82349893D01*
X180973515Y-82566565D01*
X180973512Y-82566571D01*
X180902456Y-82798594D01*
X180871635Y-83039281D01*
X180881933Y-83281715D01*
X180881933Y-83281719D01*
X180933056Y-83518929D01*
X180933057Y-83518932D01*
X181023530Y-83744082D01*
X181150757Y-83950713D01*
X181311075Y-84132869D01*
X181311079Y-84132873D01*
X181499870Y-84285311D01*
X181711711Y-84403653D01*
X181762670Y-84421657D01*
X181816809Y-84440785D01*
X181873461Y-84481678D01*
X181899012Y-84546708D01*
X181899500Y-84557702D01*
X181899500Y-88984217D01*
X181879815Y-89051256D01*
X181863181Y-89071898D01*
X168416662Y-102518417D01*
X168331871Y-102622405D01*
X168320302Y-102636593D01*
X168235625Y-102798700D01*
X168226090Y-102816953D01*
X168170112Y-103012584D01*
X168154662Y-103215474D01*
X168154662Y-103215477D01*
X166039692Y-103215477D01*
X166053873Y-103141138D01*
X166043561Y-102977234D01*
X166002220Y-102850000D01*
X167402839Y-102850000D01*
X167366463Y-102681217D01*
X167366462Y-102681214D01*
X167276021Y-102456143D01*
X167148838Y-102249584D01*
X166988577Y-102067492D01*
X166988573Y-102067488D01*
X166799855Y-101915109D01*
X166799849Y-101915105D01*
X166588082Y-101796805D01*
X166359370Y-101715996D01*
X166359362Y-101715994D01*
X166120293Y-101675000D01*
X165650000Y-101675000D01*
X165650000Y-102495689D01*
X165641183Y-102490842D01*
X165482114Y-102450000D01*
X165359106Y-102450000D01*
X165237067Y-102465417D01*
X165150000Y-102499889D01*
X165150000Y-101675000D01*
X164740449Y-101675000D01*
X164559307Y-101690417D01*
X164324559Y-101751541D01*
X164103527Y-101851453D01*
X164103519Y-101851458D01*
X163902549Y-101987291D01*
X163902546Y-101987293D01*
X163727424Y-102155135D01*
X163727423Y-102155136D01*
X163583186Y-102350156D01*
X163473978Y-102566757D01*
X163402946Y-102798700D01*
X163396377Y-102849999D01*
X160580500Y-102849999D01*
X160580500Y-97294237D01*
X160580540Y-97291097D01*
X160580579Y-97289520D01*
X160582756Y-97203637D01*
X160572349Y-97145572D01*
X160571042Y-97136253D01*
X160565074Y-97077566D01*
X160565074Y-97077562D01*
X160555965Y-97048532D01*
X160552224Y-97033287D01*
X160546858Y-97003349D01*
X160546858Y-97003347D01*
X160524974Y-96948562D01*
X160521822Y-96939709D01*
X160504159Y-96883412D01*
X160504158Y-96883411D01*
X160504157Y-96883406D01*
X160489396Y-96856814D01*
X160482659Y-96842629D01*
X160471378Y-96814385D01*
X160471375Y-96814380D01*
X160438918Y-96765131D01*
X160434036Y-96757074D01*
X160405409Y-96705498D01*
X160385588Y-96682410D01*
X160376144Y-96669885D01*
X160359402Y-96644481D01*
X160317692Y-96602771D01*
X160311300Y-96595875D01*
X160272866Y-96551105D01*
X160248804Y-96532479D01*
X160237026Y-96522105D01*
X158016819Y-94301898D01*
X157983334Y-94240575D01*
X157980500Y-94214217D01*
X157980500Y-92666043D01*
X158000185Y-92599004D01*
X158052989Y-92553249D01*
X158122147Y-92543305D01*
X158129447Y-92544578D01*
X158150442Y-92548893D01*
X158158258Y-92550500D01*
X158158259Y-92550500D01*
X158217241Y-92550500D01*
X158226655Y-92550857D01*
X158235009Y-92551494D01*
X158285475Y-92555337D01*
X158285475Y-92555336D01*
X158285476Y-92555337D01*
X158315651Y-92551493D01*
X158331318Y-92550500D01*
X166505721Y-92550500D01*
X166508863Y-92550540D01*
X166596358Y-92552757D01*
X166596358Y-92552756D01*
X166596363Y-92552757D01*
X166654425Y-92542349D01*
X166663754Y-92541041D01*
X166722438Y-92535074D01*
X166751471Y-92525964D01*
X166766700Y-92522226D01*
X166796653Y-92516858D01*
X166796657Y-92516856D01*
X166796659Y-92516856D01*
X166851423Y-92494980D01*
X166860292Y-92491821D01*
X166916588Y-92474159D01*
X166943200Y-92459387D01*
X166957362Y-92452662D01*
X166985617Y-92441377D01*
X167034879Y-92408909D01*
X167042910Y-92404043D01*
X167094502Y-92375409D01*
X167094509Y-92375402D01*
X167094512Y-92375401D01*
X167117583Y-92355594D01*
X167130125Y-92346137D01*
X167155519Y-92329402D01*
X167197226Y-92287694D01*
X167204138Y-92281288D01*
X167248895Y-92242866D01*
X167267524Y-92218798D01*
X167277884Y-92207035D01*
X170518101Y-88966819D01*
X170579424Y-88933334D01*
X170605782Y-88930500D01*
X179090743Y-88930500D01*
X179242439Y-88915074D01*
X179436579Y-88854162D01*
X179436580Y-88854161D01*
X179436588Y-88854159D01*
X179614502Y-88755409D01*
X179768895Y-88622866D01*
X179893448Y-88461958D01*
X179983060Y-88279271D01*
X180034063Y-88082285D01*
X180044369Y-87879064D01*
X180013556Y-87677929D01*
X179942886Y-87487113D01*
X179835252Y-87314429D01*
X179695059Y-87166947D01*
X179596587Y-87098409D01*
X179528050Y-87050705D01*
X179341056Y-86970459D01*
X179141741Y-86929500D01*
X170154262Y-86929500D01*
X170151121Y-86929460D01*
X170149900Y-86929429D01*
X170063639Y-86927242D01*
X170063635Y-86927242D01*
X170005578Y-86937648D01*
X169996252Y-86938956D01*
X169937564Y-86944925D01*
X169937562Y-86944926D01*
X169908526Y-86954035D01*
X169893290Y-86957774D01*
X169863350Y-86963141D01*
X169863349Y-86963141D01*
X169808567Y-86985022D01*
X169799698Y-86988179D01*
X169743414Y-87005840D01*
X169743410Y-87005842D01*
X169716811Y-87020605D01*
X169702638Y-87027336D01*
X169674382Y-87038623D01*
X169674378Y-87038625D01*
X169625122Y-87071086D01*
X169617069Y-87075965D01*
X169565501Y-87104588D01*
X169542413Y-87124408D01*
X169529887Y-87133852D01*
X169504485Y-87150594D01*
X169504478Y-87150600D01*
X169462774Y-87192303D01*
X169455869Y-87198703D01*
X169411102Y-87237136D01*
X169392480Y-87261193D01*
X169382108Y-87272969D01*
X166141899Y-90513181D01*
X166080576Y-90546666D01*
X166054218Y-90549500D01*
X158609154Y-90549500D01*
X158559344Y-90537274D01*
X158558886Y-90538422D01*
X158553056Y-90536093D01*
X158549097Y-90534960D01*
X158357418Y-90480113D01*
X158357417Y-90480112D01*
X158357416Y-90480112D01*
X158197591Y-90467942D01*
X158154524Y-90464663D01*
X158154522Y-90464663D01*
X158154521Y-90464663D01*
X158120162Y-90469038D01*
X158051173Y-90457978D01*
X157999115Y-90411376D01*
X157980500Y-90346031D01*
X157980500Y-89755782D01*
X158000185Y-89688743D01*
X158016814Y-89668106D01*
X161327409Y-86357510D01*
X161329578Y-86355395D01*
X161393053Y-86295059D01*
X161426756Y-86246635D01*
X161432405Y-86239142D01*
X161469698Y-86193407D01*
X161483790Y-86166427D01*
X161491910Y-86153025D01*
X161509295Y-86128049D01*
X161532560Y-86073832D01*
X161536595Y-86065338D01*
X161563910Y-86013049D01*
X161572278Y-85983802D01*
X161577547Y-85969002D01*
X161589540Y-85941058D01*
X161601415Y-85883265D01*
X161603647Y-85874171D01*
X161619887Y-85817418D01*
X161622197Y-85787077D01*
X161624376Y-85771535D01*
X161630500Y-85741741D01*
X161630500Y-85682758D01*
X161630858Y-85673342D01*
X161635337Y-85614526D01*
X161631493Y-85584338D01*
X161630500Y-85568674D01*
X161630500Y-83039281D01*
X163371635Y-83039281D01*
X163381933Y-83281715D01*
X163381933Y-83281719D01*
X163433056Y-83518929D01*
X163433057Y-83518932D01*
X163523530Y-83744082D01*
X163650757Y-83950713D01*
X163811075Y-84132869D01*
X163811079Y-84132873D01*
X163999870Y-84285311D01*
X164211709Y-84403652D01*
X164211712Y-84403653D01*
X164440507Y-84484491D01*
X164440513Y-84484492D01*
X164679662Y-84525499D01*
X164679670Y-84525499D01*
X164679672Y-84525500D01*
X164679673Y-84525500D01*
X166059553Y-84525500D01*
X166059554Y-84525500D01*
X166059555Y-84525499D01*
X166059572Y-84525499D01*
X166240775Y-84510076D01*
X166240775Y-84510075D01*
X166240782Y-84510075D01*
X166475608Y-84448931D01*
X166475611Y-84448930D01*
X166696713Y-84348986D01*
X166696716Y-84348983D01*
X166696723Y-84348981D01*
X166897765Y-84213100D01*
X166979277Y-84134976D01*
X167041297Y-84102802D01*
X167065077Y-84100500D01*
X174814217Y-84100500D01*
X174881256Y-84120185D01*
X174901898Y-84136819D01*
X175311788Y-84546708D01*
X175708420Y-84943340D01*
X175826593Y-85039698D01*
X176006951Y-85133909D01*
X176202582Y-85189887D01*
X176270213Y-85195037D01*
X176405474Y-85205337D01*
X176405476Y-85205337D01*
X176405477Y-85205337D01*
X176607321Y-85179631D01*
X176607321Y-85179630D01*
X176607328Y-85179630D01*
X176799872Y-85113816D01*
X176975227Y-85010591D01*
X177126213Y-84874179D01*
X177246649Y-84710167D01*
X177331605Y-84525268D01*
X177377603Y-84327054D01*
X177382757Y-84123637D01*
X177346858Y-83923347D01*
X177271377Y-83734383D01*
X177271372Y-83734376D01*
X177271370Y-83734371D01*
X177159403Y-83564482D01*
X177159400Y-83564478D01*
X175997566Y-82402646D01*
X175995373Y-82400397D01*
X175935061Y-82336949D01*
X175935060Y-82336948D01*
X175935059Y-82336947D01*
X175886640Y-82303246D01*
X175879120Y-82297575D01*
X175833413Y-82260305D01*
X175833406Y-82260301D01*
X175806441Y-82246216D01*
X175793026Y-82238089D01*
X175768049Y-82220705D01*
X175768046Y-82220703D01*
X175768045Y-82220703D01*
X175768041Y-82220701D01*
X175713845Y-82197443D01*
X175705336Y-82193402D01*
X175653057Y-82166094D01*
X175653046Y-82166090D01*
X175623806Y-82157723D01*
X175609021Y-82152459D01*
X175581058Y-82140459D01*
X175523273Y-82128583D01*
X175514127Y-82126338D01*
X175457423Y-82110113D01*
X175433699Y-82108306D01*
X175427072Y-82107801D01*
X175411533Y-82105622D01*
X175381742Y-82099500D01*
X175381741Y-82099500D01*
X175322759Y-82099500D01*
X175313344Y-82099142D01*
X175310643Y-82098936D01*
X175254524Y-82094662D01*
X175224349Y-82098506D01*
X175208682Y-82099500D01*
X167072526Y-82099500D01*
X167005487Y-82079815D01*
X166993246Y-82070164D01*
X166993024Y-82070440D01*
X166800129Y-81914688D01*
X166588290Y-81796347D01*
X166359500Y-81715511D01*
X166359486Y-81715507D01*
X166120337Y-81674500D01*
X166120328Y-81674500D01*
X164740446Y-81674500D01*
X164740427Y-81674500D01*
X164559224Y-81689923D01*
X164559222Y-81689924D01*
X164324391Y-81751068D01*
X164324388Y-81751069D01*
X164103286Y-81851013D01*
X164103274Y-81851020D01*
X163902234Y-81986900D01*
X163902232Y-81986902D01*
X163727047Y-82154803D01*
X163727046Y-82154804D01*
X163582758Y-82349893D01*
X163473515Y-82566565D01*
X163473512Y-82566571D01*
X163402456Y-82798594D01*
X163371635Y-83039281D01*
X161630500Y-83039281D01*
X161630500Y-77849999D01*
X163396377Y-77849999D01*
X163396378Y-77850000D01*
X164799272Y-77850000D01*
X164776900Y-77897543D01*
X164746127Y-78058862D01*
X164756439Y-78222766D01*
X164797780Y-78350000D01*
X163397161Y-78350000D01*
X163433536Y-78518782D01*
X163433537Y-78518785D01*
X163523978Y-78743856D01*
X163651161Y-78950415D01*
X163811422Y-79132507D01*
X163811426Y-79132511D01*
X164000144Y-79284890D01*
X164000150Y-79284894D01*
X164211917Y-79403194D01*
X164440629Y-79484003D01*
X164440637Y-79484005D01*
X164679706Y-79524999D01*
X164679715Y-79525000D01*
X165150000Y-79525000D01*
X165150000Y-78704310D01*
X165158817Y-78709158D01*
X165317886Y-78750000D01*
X165440894Y-78750000D01*
X165562933Y-78734583D01*
X165650000Y-78700110D01*
X165650000Y-79525000D01*
X166059533Y-79525000D01*
X166059550Y-79524999D01*
X166240692Y-79509582D01*
X166475440Y-79448458D01*
X166696472Y-79348546D01*
X166696480Y-79348541D01*
X166897450Y-79212708D01*
X166897453Y-79212706D01*
X167072575Y-79044864D01*
X167072576Y-79044863D01*
X167216813Y-78849843D01*
X167326021Y-78633242D01*
X167397053Y-78401299D01*
X167403622Y-78350000D01*
X166000728Y-78350000D01*
X166023100Y-78302457D01*
X166053873Y-78141138D01*
X166043561Y-77977234D01*
X166002220Y-77850000D01*
X167402839Y-77850000D01*
X167402839Y-77849999D01*
X180896377Y-77849999D01*
X180896378Y-77850000D01*
X182299272Y-77850000D01*
X182276900Y-77897543D01*
X182246127Y-78058862D01*
X182256439Y-78222766D01*
X182297780Y-78350000D01*
X180897161Y-78350000D01*
X180933536Y-78518782D01*
X180933537Y-78518785D01*
X181023978Y-78743856D01*
X181151161Y-78950415D01*
X181311422Y-79132507D01*
X181311426Y-79132511D01*
X181500144Y-79284890D01*
X181500150Y-79284894D01*
X181711917Y-79403194D01*
X181940629Y-79484003D01*
X181940637Y-79484005D01*
X182179706Y-79524999D01*
X182179715Y-79525000D01*
X182650000Y-79525000D01*
X182650000Y-78704310D01*
X182658817Y-78709158D01*
X182817886Y-78750000D01*
X182940894Y-78750000D01*
X183062933Y-78734583D01*
X183150000Y-78700110D01*
X183150000Y-79525000D01*
X183559533Y-79525000D01*
X183559550Y-79524999D01*
X183740692Y-79509582D01*
X183975440Y-79448458D01*
X184196472Y-79348546D01*
X184196480Y-79348541D01*
X184397450Y-79212708D01*
X184397453Y-79212706D01*
X184572575Y-79044864D01*
X184572576Y-79044863D01*
X184716813Y-78849843D01*
X184826021Y-78633242D01*
X184897053Y-78401299D01*
X184903622Y-78350000D01*
X183500728Y-78350000D01*
X183523100Y-78302457D01*
X183553873Y-78141138D01*
X183543561Y-77977234D01*
X183502220Y-77850000D01*
X184902839Y-77850000D01*
X184902839Y-77849999D01*
X193396377Y-77849999D01*
X193396378Y-77850000D01*
X194799272Y-77850000D01*
X194776900Y-77897543D01*
X194746127Y-78058862D01*
X194756439Y-78222766D01*
X194797780Y-78350000D01*
X193397161Y-78350000D01*
X193433536Y-78518782D01*
X193433537Y-78518785D01*
X193523978Y-78743856D01*
X193651161Y-78950415D01*
X193811422Y-79132507D01*
X193811426Y-79132511D01*
X194000144Y-79284890D01*
X194000150Y-79284894D01*
X194211917Y-79403194D01*
X194440629Y-79484003D01*
X194440637Y-79484005D01*
X194679706Y-79524999D01*
X194679715Y-79525000D01*
X195150000Y-79525000D01*
X195150000Y-78704310D01*
X195158817Y-78709158D01*
X195317886Y-78750000D01*
X195440894Y-78750000D01*
X195562933Y-78734583D01*
X195650000Y-78700110D01*
X195650000Y-79525000D01*
X196059533Y-79525000D01*
X196059550Y-79524999D01*
X196240692Y-79509582D01*
X196475440Y-79448458D01*
X196696472Y-79348546D01*
X196696480Y-79348541D01*
X196897450Y-79212708D01*
X196897453Y-79212706D01*
X197072575Y-79044864D01*
X197072576Y-79044863D01*
X197216813Y-78849843D01*
X197326021Y-78633242D01*
X197397053Y-78401299D01*
X197403622Y-78350000D01*
X196000728Y-78350000D01*
X196023100Y-78302457D01*
X196053873Y-78141138D01*
X196043561Y-77977234D01*
X196002220Y-77850000D01*
X197402839Y-77850000D01*
X197366463Y-77681217D01*
X197366462Y-77681214D01*
X197276021Y-77456143D01*
X197148838Y-77249584D01*
X196988577Y-77067492D01*
X196988573Y-77067488D01*
X196799855Y-76915109D01*
X196799849Y-76915105D01*
X196588082Y-76796805D01*
X196359370Y-76715996D01*
X196359362Y-76715994D01*
X196120293Y-76675000D01*
X195650000Y-76675000D01*
X195650000Y-77495689D01*
X195641183Y-77490842D01*
X195482114Y-77450000D01*
X195359106Y-77450000D01*
X195237067Y-77465417D01*
X195150000Y-77499889D01*
X195150000Y-76675000D01*
X194740449Y-76675000D01*
X194559307Y-76690417D01*
X194324559Y-76751541D01*
X194103527Y-76851453D01*
X194103519Y-76851458D01*
X193902549Y-76987291D01*
X193902546Y-76987293D01*
X193727424Y-77155135D01*
X193727423Y-77155136D01*
X193583186Y-77350156D01*
X193473978Y-77566757D01*
X193402946Y-77798700D01*
X193396377Y-77849999D01*
X184902839Y-77849999D01*
X184866463Y-77681217D01*
X184866462Y-77681214D01*
X184776021Y-77456143D01*
X184648838Y-77249584D01*
X184488577Y-77067492D01*
X184488573Y-77067488D01*
X184299855Y-76915109D01*
X184299849Y-76915105D01*
X184088082Y-76796805D01*
X183859370Y-76715996D01*
X183859362Y-76715994D01*
X183620293Y-76675000D01*
X183150000Y-76675000D01*
X183150000Y-77495689D01*
X183141183Y-77490842D01*
X182982114Y-77450000D01*
X182859106Y-77450000D01*
X182737067Y-77465417D01*
X182650000Y-77499889D01*
X182650000Y-76675000D01*
X182240449Y-76675000D01*
X182059307Y-76690417D01*
X181824559Y-76751541D01*
X181603527Y-76851453D01*
X181603519Y-76851458D01*
X181402549Y-76987291D01*
X181402546Y-76987293D01*
X181227424Y-77155135D01*
X181227423Y-77155136D01*
X181083186Y-77350156D01*
X180973978Y-77566757D01*
X180902946Y-77798700D01*
X180896377Y-77849999D01*
X167402839Y-77849999D01*
X167366463Y-77681217D01*
X167366462Y-77681214D01*
X167276021Y-77456143D01*
X167148838Y-77249584D01*
X166988577Y-77067492D01*
X166988573Y-77067488D01*
X166799855Y-76915109D01*
X166799849Y-76915105D01*
X166588082Y-76796805D01*
X166359370Y-76715996D01*
X166359362Y-76715994D01*
X166120293Y-76675000D01*
X165650000Y-76675000D01*
X165650000Y-77495689D01*
X165641183Y-77490842D01*
X165482114Y-77450000D01*
X165359106Y-77450000D01*
X165237067Y-77465417D01*
X165150000Y-77499889D01*
X165150000Y-76675000D01*
X164740449Y-76675000D01*
X164559307Y-76690417D01*
X164324559Y-76751541D01*
X164103527Y-76851453D01*
X164103519Y-76851458D01*
X163902549Y-76987291D01*
X163902546Y-76987293D01*
X163727424Y-77155135D01*
X163727423Y-77155136D01*
X163583186Y-77350156D01*
X163473978Y-77566757D01*
X163402946Y-77798700D01*
X163396377Y-77849999D01*
X161630500Y-77849999D01*
X161630500Y-75894261D01*
X161630540Y-75891119D01*
X161632757Y-75803641D01*
X161632756Y-75803640D01*
X161632757Y-75803637D01*
X161622349Y-75745573D01*
X161621041Y-75736242D01*
X161615074Y-75677562D01*
X161605963Y-75648524D01*
X161602226Y-75633301D01*
X161596858Y-75603347D01*
X161574974Y-75548562D01*
X161571822Y-75539709D01*
X161554159Y-75483412D01*
X161554158Y-75483411D01*
X161554157Y-75483406D01*
X161539396Y-75456814D01*
X161532659Y-75442629D01*
X161521378Y-75414385D01*
X161521375Y-75414380D01*
X161488918Y-75365131D01*
X161484036Y-75357074D01*
X161455409Y-75305498D01*
X161435588Y-75282410D01*
X161426144Y-75269885D01*
X161409402Y-75244481D01*
X161367692Y-75202771D01*
X161361300Y-75195875D01*
X161322866Y-75151105D01*
X161298804Y-75132479D01*
X161287026Y-75122105D01*
X144204201Y-58039281D01*
X150871635Y-58039281D01*
X150881933Y-58281715D01*
X150881933Y-58281719D01*
X150933056Y-58518929D01*
X150933057Y-58518932D01*
X151023530Y-58744082D01*
X151150757Y-58950713D01*
X151311075Y-59132869D01*
X151311079Y-59132873D01*
X151499870Y-59285311D01*
X151711709Y-59403652D01*
X151711712Y-59403653D01*
X151940507Y-59484491D01*
X151940513Y-59484492D01*
X152179662Y-59525499D01*
X152179670Y-59525499D01*
X152179672Y-59525500D01*
X152179673Y-59525500D01*
X153559553Y-59525500D01*
X153559554Y-59525500D01*
X153559555Y-59525499D01*
X153559572Y-59525499D01*
X153740775Y-59510076D01*
X153740775Y-59510075D01*
X153740782Y-59510075D01*
X153975608Y-59448931D01*
X153975611Y-59448930D01*
X154196713Y-59348986D01*
X154196716Y-59348983D01*
X154196723Y-59348981D01*
X154397765Y-59213100D01*
X154479277Y-59134976D01*
X154541297Y-59102802D01*
X154565077Y-59100500D01*
X163727474Y-59100500D01*
X163794513Y-59120185D01*
X163806753Y-59129835D01*
X163806976Y-59129560D01*
X163999870Y-59285311D01*
X164211709Y-59403652D01*
X164211712Y-59403653D01*
X164440507Y-59484491D01*
X164440513Y-59484492D01*
X164679662Y-59525499D01*
X164679670Y-59525499D01*
X164679672Y-59525500D01*
X165359217Y-59525500D01*
X165426256Y-59545185D01*
X165446898Y-59561819D01*
X173368420Y-67483340D01*
X173486593Y-67579698D01*
X173666951Y-67673909D01*
X173862582Y-67729886D01*
X174051117Y-67744243D01*
X174065475Y-67745337D01*
X174065476Y-67745337D01*
X174267321Y-67719631D01*
X174267321Y-67719630D01*
X174267328Y-67719630D01*
X174459872Y-67653816D01*
X174635227Y-67550590D01*
X174786213Y-67414179D01*
X174906649Y-67250167D01*
X174991605Y-67065268D01*
X175027143Y-66912127D01*
X175037602Y-66867054D01*
X175039559Y-66789815D01*
X175042756Y-66663637D01*
X175006858Y-66463347D01*
X174931377Y-66274383D01*
X174931372Y-66274376D01*
X174931370Y-66274371D01*
X174819403Y-66104482D01*
X174819400Y-66104478D01*
X167384325Y-58669405D01*
X167350840Y-58608082D01*
X167353440Y-58545417D01*
X167397543Y-58401409D01*
X167428365Y-58160719D01*
X167423206Y-58039281D01*
X180871635Y-58039281D01*
X180881933Y-58281715D01*
X180881933Y-58281719D01*
X180933056Y-58518929D01*
X180933057Y-58518932D01*
X181023530Y-58744082D01*
X181150757Y-58950713D01*
X181311075Y-59132869D01*
X181311079Y-59132873D01*
X181499870Y-59285311D01*
X181711709Y-59403652D01*
X181711712Y-59403653D01*
X181940507Y-59484491D01*
X181940513Y-59484492D01*
X182179662Y-59525499D01*
X182179670Y-59525499D01*
X182179672Y-59525500D01*
X182179673Y-59525500D01*
X183559553Y-59525500D01*
X183559554Y-59525500D01*
X183559555Y-59525499D01*
X183559572Y-59525499D01*
X183740775Y-59510076D01*
X183740775Y-59510075D01*
X183740782Y-59510075D01*
X183975608Y-59448931D01*
X183975611Y-59448930D01*
X184196713Y-59348986D01*
X184196716Y-59348983D01*
X184196723Y-59348981D01*
X184397765Y-59213100D01*
X184479277Y-59134976D01*
X184541297Y-59102802D01*
X184565077Y-59100500D01*
X193727474Y-59100500D01*
X193794513Y-59120185D01*
X193806753Y-59129835D01*
X193806976Y-59129560D01*
X193999870Y-59285311D01*
X194211709Y-59403652D01*
X194211712Y-59403653D01*
X194440507Y-59484491D01*
X194440513Y-59484492D01*
X194679662Y-59525499D01*
X194679670Y-59525499D01*
X194679672Y-59525500D01*
X194679673Y-59525500D01*
X196059553Y-59525500D01*
X196059554Y-59525500D01*
X196059555Y-59525499D01*
X196059572Y-59525499D01*
X196240775Y-59510076D01*
X196240775Y-59510075D01*
X196240782Y-59510075D01*
X196475608Y-59448931D01*
X196475611Y-59448930D01*
X196696713Y-59348986D01*
X196696716Y-59348983D01*
X196696723Y-59348981D01*
X196897765Y-59213100D01*
X197072952Y-59045197D01*
X197217244Y-58850102D01*
X197326488Y-58633429D01*
X197397543Y-58401409D01*
X197428365Y-58160719D01*
X197418066Y-57918281D01*
X197366944Y-57681072D01*
X197276468Y-57455914D01*
X197149242Y-57249286D01*
X196988925Y-57067131D01*
X196988924Y-57067130D01*
X196988920Y-57067126D01*
X196800129Y-56914688D01*
X196588290Y-56796347D01*
X196359500Y-56715511D01*
X196359486Y-56715507D01*
X196120337Y-56674500D01*
X196120328Y-56674500D01*
X194740446Y-56674500D01*
X194740427Y-56674500D01*
X194559224Y-56689923D01*
X194559222Y-56689924D01*
X194324391Y-56751068D01*
X194324388Y-56751069D01*
X194103286Y-56851013D01*
X194103274Y-56851020D01*
X193902245Y-56986892D01*
X193902235Y-56986900D01*
X193820723Y-57065023D01*
X193758703Y-57097198D01*
X193734923Y-57099500D01*
X184572526Y-57099500D01*
X184505487Y-57079815D01*
X184493246Y-57070164D01*
X184493024Y-57070440D01*
X184300129Y-56914688D01*
X184088290Y-56796347D01*
X183859500Y-56715511D01*
X183859486Y-56715507D01*
X183620337Y-56674500D01*
X183620328Y-56674500D01*
X182240446Y-56674500D01*
X182240427Y-56674500D01*
X182059224Y-56689923D01*
X182059222Y-56689924D01*
X181824391Y-56751068D01*
X181824388Y-56751069D01*
X181603286Y-56851013D01*
X181603274Y-56851020D01*
X181402234Y-56986900D01*
X181402232Y-56986902D01*
X181227047Y-57154803D01*
X181227046Y-57154804D01*
X181082758Y-57349893D01*
X180973515Y-57566565D01*
X180973512Y-57566571D01*
X180902456Y-57798594D01*
X180871635Y-58039281D01*
X167423206Y-58039281D01*
X167418066Y-57918281D01*
X167366944Y-57681072D01*
X167276468Y-57455914D01*
X167149242Y-57249286D01*
X166988925Y-57067131D01*
X166988924Y-57067130D01*
X166988920Y-57067126D01*
X166800129Y-56914688D01*
X166588290Y-56796347D01*
X166359500Y-56715511D01*
X166359486Y-56715507D01*
X166120337Y-56674500D01*
X166120328Y-56674500D01*
X164740446Y-56674500D01*
X164740427Y-56674500D01*
X164559224Y-56689923D01*
X164559222Y-56689924D01*
X164324391Y-56751068D01*
X164324388Y-56751069D01*
X164103286Y-56851013D01*
X164103274Y-56851020D01*
X163902245Y-56986892D01*
X163902235Y-56986900D01*
X163820723Y-57065023D01*
X163758703Y-57097198D01*
X163734923Y-57099500D01*
X154572526Y-57099500D01*
X154505487Y-57079815D01*
X154493246Y-57070164D01*
X154493024Y-57070440D01*
X154300129Y-56914688D01*
X154088290Y-56796347D01*
X153859500Y-56715511D01*
X153859486Y-56715507D01*
X153620337Y-56674500D01*
X153620328Y-56674500D01*
X152240446Y-56674500D01*
X152240427Y-56674500D01*
X152059224Y-56689923D01*
X152059222Y-56689924D01*
X151824391Y-56751068D01*
X151824388Y-56751069D01*
X151603286Y-56851013D01*
X151603274Y-56851020D01*
X151402234Y-56986900D01*
X151402232Y-56986902D01*
X151227047Y-57154803D01*
X151227046Y-57154804D01*
X151082758Y-57349893D01*
X150973515Y-57566565D01*
X150973512Y-57566571D01*
X150902456Y-57798594D01*
X150871635Y-58039281D01*
X144204201Y-58039281D01*
X143567567Y-57402647D01*
X143565374Y-57400398D01*
X143505061Y-57336949D01*
X143505060Y-57336948D01*
X143505059Y-57336947D01*
X143456640Y-57303246D01*
X143449120Y-57297575D01*
X143403413Y-57260305D01*
X143403406Y-57260301D01*
X143376441Y-57246216D01*
X143363026Y-57238089D01*
X143338049Y-57220705D01*
X143338046Y-57220703D01*
X143338045Y-57220703D01*
X143338041Y-57220701D01*
X143283845Y-57197443D01*
X143275336Y-57193402D01*
X143223057Y-57166094D01*
X143223046Y-57166090D01*
X143193806Y-57157723D01*
X143179021Y-57152459D01*
X143151058Y-57140459D01*
X143093273Y-57128583D01*
X143084127Y-57126338D01*
X143027423Y-57110113D01*
X143003699Y-57108306D01*
X142997072Y-57107801D01*
X142981533Y-57105622D01*
X142951742Y-57099500D01*
X142951741Y-57099500D01*
X142892759Y-57099500D01*
X142883344Y-57099142D01*
X142880643Y-57098936D01*
X142824524Y-57094662D01*
X142794349Y-57098506D01*
X142778682Y-57099500D01*
X137072526Y-57099500D01*
X137005487Y-57079815D01*
X136993246Y-57070164D01*
X136993024Y-57070440D01*
X136800129Y-56914688D01*
X136588290Y-56796347D01*
X136359500Y-56715511D01*
X136359486Y-56715507D01*
X136120337Y-56674500D01*
X136120328Y-56674500D01*
X134740446Y-56674500D01*
X134740427Y-56674500D01*
X134559224Y-56689923D01*
X134559222Y-56689924D01*
X134324391Y-56751068D01*
X134324388Y-56751069D01*
X134103286Y-56851013D01*
X134103274Y-56851020D01*
X133902245Y-56986892D01*
X133902235Y-56986900D01*
X133820723Y-57065023D01*
X133758703Y-57097198D01*
X133734923Y-57099500D01*
X124572526Y-57099500D01*
X124505487Y-57079815D01*
X124493246Y-57070164D01*
X124493024Y-57070440D01*
X124300129Y-56914688D01*
X124088290Y-56796347D01*
X123859500Y-56715511D01*
X123859486Y-56715507D01*
X123620337Y-56674500D01*
X123620328Y-56674500D01*
X122240446Y-56674500D01*
X122240427Y-56674500D01*
X122059224Y-56689923D01*
X122059222Y-56689924D01*
X121824391Y-56751068D01*
X121824388Y-56751069D01*
X121603286Y-56851013D01*
X121603274Y-56851020D01*
X121402234Y-56986900D01*
X121402232Y-56986902D01*
X121227047Y-57154803D01*
X121227046Y-57154804D01*
X121082758Y-57349893D01*
X120973515Y-57566565D01*
X120973512Y-57566571D01*
X120902456Y-57798594D01*
X120871635Y-58039281D01*
X116000500Y-58039281D01*
X116000500Y-52849999D01*
X120896377Y-52849999D01*
X120896378Y-52850000D01*
X122299272Y-52850000D01*
X122276900Y-52897543D01*
X122246127Y-53058862D01*
X122256439Y-53222766D01*
X122297780Y-53350000D01*
X120897161Y-53350000D01*
X120933536Y-53518782D01*
X120933537Y-53518785D01*
X121023978Y-53743856D01*
X121151161Y-53950415D01*
X121311422Y-54132507D01*
X121311426Y-54132511D01*
X121500144Y-54284890D01*
X121500150Y-54284894D01*
X121711917Y-54403194D01*
X121940629Y-54484003D01*
X121940637Y-54484005D01*
X122179706Y-54524999D01*
X122179715Y-54525000D01*
X122650000Y-54525000D01*
X122650000Y-53704310D01*
X122658817Y-53709158D01*
X122817886Y-53750000D01*
X122940894Y-53750000D01*
X123062933Y-53734583D01*
X123150000Y-53700110D01*
X123150000Y-54525000D01*
X123559533Y-54525000D01*
X123559550Y-54524999D01*
X123740692Y-54509582D01*
X123975440Y-54448458D01*
X124196472Y-54348546D01*
X124196480Y-54348541D01*
X124397450Y-54212708D01*
X124397453Y-54212706D01*
X124572575Y-54044864D01*
X124572576Y-54044863D01*
X124716813Y-53849843D01*
X124826021Y-53633242D01*
X124897053Y-53401299D01*
X124903622Y-53350000D01*
X123500728Y-53350000D01*
X123523100Y-53302457D01*
X123553873Y-53141138D01*
X123543561Y-52977234D01*
X123502220Y-52850000D01*
X124902839Y-52850000D01*
X124902839Y-52849999D01*
X133396377Y-52849999D01*
X133396378Y-52850000D01*
X134799272Y-52850000D01*
X134776900Y-52897543D01*
X134746127Y-53058862D01*
X134756439Y-53222766D01*
X134797780Y-53350000D01*
X133397161Y-53350000D01*
X133433536Y-53518782D01*
X133433537Y-53518785D01*
X133523978Y-53743856D01*
X133651161Y-53950415D01*
X133811422Y-54132507D01*
X133811426Y-54132511D01*
X134000144Y-54284890D01*
X134000150Y-54284894D01*
X134211917Y-54403194D01*
X134440629Y-54484003D01*
X134440637Y-54484005D01*
X134679706Y-54524999D01*
X134679715Y-54525000D01*
X135150000Y-54525000D01*
X135150000Y-53704310D01*
X135158817Y-53709158D01*
X135317886Y-53750000D01*
X135440894Y-53750000D01*
X135562933Y-53734583D01*
X135650000Y-53700110D01*
X135650000Y-54525000D01*
X136059533Y-54525000D01*
X136059550Y-54524999D01*
X136240692Y-54509582D01*
X136475440Y-54448458D01*
X136696472Y-54348546D01*
X136696480Y-54348541D01*
X136897450Y-54212708D01*
X136897453Y-54212706D01*
X137072575Y-54044864D01*
X137072576Y-54044863D01*
X137216813Y-53849843D01*
X137326021Y-53633242D01*
X137397053Y-53401299D01*
X137403622Y-53350000D01*
X136000728Y-53350000D01*
X136023100Y-53302457D01*
X136053873Y-53141138D01*
X136043561Y-52977234D01*
X136002220Y-52850000D01*
X137402839Y-52850000D01*
X137402839Y-52849999D01*
X150896377Y-52849999D01*
X150896378Y-52850000D01*
X152299272Y-52850000D01*
X152276900Y-52897543D01*
X152246127Y-53058862D01*
X152256439Y-53222766D01*
X152297780Y-53350000D01*
X150897161Y-53350000D01*
X150933536Y-53518782D01*
X150933537Y-53518785D01*
X151023978Y-53743856D01*
X151151161Y-53950415D01*
X151311422Y-54132507D01*
X151311426Y-54132511D01*
X151500144Y-54284890D01*
X151500150Y-54284894D01*
X151711917Y-54403194D01*
X151940629Y-54484003D01*
X151940637Y-54484005D01*
X152179706Y-54524999D01*
X152179715Y-54525000D01*
X152650000Y-54525000D01*
X152650000Y-53704310D01*
X152658817Y-53709158D01*
X152817886Y-53750000D01*
X152940894Y-53750000D01*
X153062933Y-53734583D01*
X153150000Y-53700110D01*
X153150000Y-54525000D01*
X153559533Y-54525000D01*
X153559550Y-54524999D01*
X153740692Y-54509582D01*
X153975440Y-54448458D01*
X154196472Y-54348546D01*
X154196480Y-54348541D01*
X154397450Y-54212708D01*
X154397453Y-54212706D01*
X154572575Y-54044864D01*
X154572576Y-54044863D01*
X154716813Y-53849843D01*
X154826021Y-53633242D01*
X154897053Y-53401299D01*
X154903622Y-53350000D01*
X153500728Y-53350000D01*
X153523100Y-53302457D01*
X153553873Y-53141138D01*
X153543561Y-52977234D01*
X153502220Y-52850000D01*
X154902839Y-52850000D01*
X154902839Y-52849999D01*
X163396377Y-52849999D01*
X163396378Y-52850000D01*
X164799272Y-52850000D01*
X164776900Y-52897543D01*
X164746127Y-53058862D01*
X164756439Y-53222766D01*
X164797780Y-53350000D01*
X163397161Y-53350000D01*
X163433536Y-53518782D01*
X163433537Y-53518785D01*
X163523978Y-53743856D01*
X163651161Y-53950415D01*
X163811422Y-54132507D01*
X163811426Y-54132511D01*
X164000144Y-54284890D01*
X164000150Y-54284894D01*
X164211917Y-54403194D01*
X164440629Y-54484003D01*
X164440637Y-54484005D01*
X164679706Y-54524999D01*
X164679715Y-54525000D01*
X165150000Y-54525000D01*
X165150000Y-53704310D01*
X165158817Y-53709158D01*
X165317886Y-53750000D01*
X165440894Y-53750000D01*
X165562933Y-53734583D01*
X165650000Y-53700110D01*
X165650000Y-54525000D01*
X166059533Y-54525000D01*
X166059550Y-54524999D01*
X166240692Y-54509582D01*
X166475440Y-54448458D01*
X166696472Y-54348546D01*
X166696480Y-54348541D01*
X166897450Y-54212708D01*
X166897453Y-54212706D01*
X167072575Y-54044864D01*
X167072576Y-54044863D01*
X167216813Y-53849843D01*
X167326021Y-53633242D01*
X167397053Y-53401299D01*
X167403622Y-53350000D01*
X166000728Y-53350000D01*
X166023100Y-53302457D01*
X166053873Y-53141138D01*
X166043561Y-52977234D01*
X166002220Y-52850000D01*
X167402839Y-52850000D01*
X167402839Y-52849999D01*
X180896377Y-52849999D01*
X180896378Y-52850000D01*
X182299272Y-52850000D01*
X182276900Y-52897543D01*
X182246127Y-53058862D01*
X182256439Y-53222766D01*
X182297780Y-53350000D01*
X180897161Y-53350000D01*
X180933536Y-53518782D01*
X180933537Y-53518785D01*
X181023978Y-53743856D01*
X181151161Y-53950415D01*
X181311422Y-54132507D01*
X181311426Y-54132511D01*
X181500144Y-54284890D01*
X181500150Y-54284894D01*
X181711917Y-54403194D01*
X181940629Y-54484003D01*
X181940637Y-54484005D01*
X182179706Y-54524999D01*
X182179715Y-54525000D01*
X182650000Y-54525000D01*
X182650000Y-53704310D01*
X182658817Y-53709158D01*
X182817886Y-53750000D01*
X182940894Y-53750000D01*
X183062933Y-53734583D01*
X183150000Y-53700110D01*
X183150000Y-54525000D01*
X183559533Y-54525000D01*
X183559550Y-54524999D01*
X183740692Y-54509582D01*
X183975440Y-54448458D01*
X184196472Y-54348546D01*
X184196480Y-54348541D01*
X184397450Y-54212708D01*
X184397453Y-54212706D01*
X184572575Y-54044864D01*
X184572576Y-54044863D01*
X184716813Y-53849843D01*
X184826021Y-53633242D01*
X184897053Y-53401299D01*
X184903622Y-53350000D01*
X183500728Y-53350000D01*
X183523100Y-53302457D01*
X183553873Y-53141138D01*
X183543561Y-52977234D01*
X183502220Y-52850000D01*
X184902839Y-52850000D01*
X184902839Y-52849999D01*
X193396377Y-52849999D01*
X193396378Y-52850000D01*
X194799272Y-52850000D01*
X194776900Y-52897543D01*
X194746127Y-53058862D01*
X194756439Y-53222766D01*
X194797780Y-53350000D01*
X193397161Y-53350000D01*
X193433536Y-53518782D01*
X193433537Y-53518785D01*
X193523978Y-53743856D01*
X193651161Y-53950415D01*
X193811422Y-54132507D01*
X193811426Y-54132511D01*
X194000144Y-54284890D01*
X194000150Y-54284894D01*
X194211917Y-54403194D01*
X194440629Y-54484003D01*
X194440637Y-54484005D01*
X194679706Y-54524999D01*
X194679715Y-54525000D01*
X195150000Y-54525000D01*
X195150000Y-53704310D01*
X195158817Y-53709158D01*
X195317886Y-53750000D01*
X195440894Y-53750000D01*
X195562933Y-53734583D01*
X195650000Y-53700110D01*
X195650000Y-54525000D01*
X196059533Y-54525000D01*
X196059550Y-54524999D01*
X196240692Y-54509582D01*
X196475440Y-54448458D01*
X196696472Y-54348546D01*
X196696480Y-54348541D01*
X196897450Y-54212708D01*
X196897453Y-54212706D01*
X197072575Y-54044864D01*
X197072576Y-54044863D01*
X197216813Y-53849843D01*
X197326021Y-53633242D01*
X197397053Y-53401299D01*
X197403622Y-53350000D01*
X196000728Y-53350000D01*
X196023100Y-53302457D01*
X196053873Y-53141138D01*
X196043561Y-52977234D01*
X196002220Y-52850000D01*
X197402839Y-52850000D01*
X197366463Y-52681217D01*
X197366462Y-52681214D01*
X197276021Y-52456143D01*
X197148838Y-52249584D01*
X196988577Y-52067492D01*
X196988573Y-52067488D01*
X196799855Y-51915109D01*
X196799849Y-51915105D01*
X196588082Y-51796805D01*
X196359370Y-51715996D01*
X196359362Y-51715994D01*
X196120293Y-51675000D01*
X195650000Y-51675000D01*
X195650000Y-52495689D01*
X195641183Y-52490842D01*
X195482114Y-52450000D01*
X195359106Y-52450000D01*
X195237067Y-52465417D01*
X195150000Y-52499889D01*
X195150000Y-51675000D01*
X194740449Y-51675000D01*
X194559307Y-51690417D01*
X194324559Y-51751541D01*
X194103527Y-51851453D01*
X194103519Y-51851458D01*
X193902549Y-51987291D01*
X193902546Y-51987293D01*
X193727424Y-52155135D01*
X193727423Y-52155136D01*
X193583186Y-52350156D01*
X193473978Y-52566757D01*
X193402946Y-52798700D01*
X193396377Y-52849999D01*
X184902839Y-52849999D01*
X184866463Y-52681217D01*
X184866462Y-52681214D01*
X184776021Y-52456143D01*
X184648838Y-52249584D01*
X184488577Y-52067492D01*
X184488573Y-52067488D01*
X184299855Y-51915109D01*
X184299849Y-51915105D01*
X184088082Y-51796805D01*
X183859370Y-51715996D01*
X183859362Y-51715994D01*
X183620293Y-51675000D01*
X183150000Y-51675000D01*
X183150000Y-52495689D01*
X183141183Y-52490842D01*
X182982114Y-52450000D01*
X182859106Y-52450000D01*
X182737067Y-52465417D01*
X182650000Y-52499889D01*
X182650000Y-51675000D01*
X182240449Y-51675000D01*
X182059307Y-51690417D01*
X181824559Y-51751541D01*
X181603527Y-51851453D01*
X181603519Y-51851458D01*
X181402549Y-51987291D01*
X181402546Y-51987293D01*
X181227424Y-52155135D01*
X181227423Y-52155136D01*
X181083186Y-52350156D01*
X180973978Y-52566757D01*
X180902946Y-52798700D01*
X180896377Y-52849999D01*
X167402839Y-52849999D01*
X167366463Y-52681217D01*
X167366462Y-52681214D01*
X167276021Y-52456143D01*
X167148838Y-52249584D01*
X166988577Y-52067492D01*
X166988573Y-52067488D01*
X166799855Y-51915109D01*
X166799849Y-51915105D01*
X166588082Y-51796805D01*
X166359370Y-51715996D01*
X166359362Y-51715994D01*
X166120293Y-51675000D01*
X165650000Y-51675000D01*
X165650000Y-52495689D01*
X165641183Y-52490842D01*
X165482114Y-52450000D01*
X165359106Y-52450000D01*
X165237067Y-52465417D01*
X165150000Y-52499889D01*
X165150000Y-51675000D01*
X164740449Y-51675000D01*
X164559307Y-51690417D01*
X164324559Y-51751541D01*
X164103527Y-51851453D01*
X164103519Y-51851458D01*
X163902549Y-51987291D01*
X163902546Y-51987293D01*
X163727424Y-52155135D01*
X163727423Y-52155136D01*
X163583186Y-52350156D01*
X163473978Y-52566757D01*
X163402946Y-52798700D01*
X163396377Y-52849999D01*
X154902839Y-52849999D01*
X154866463Y-52681217D01*
X154866462Y-52681214D01*
X154776021Y-52456143D01*
X154648838Y-52249584D01*
X154488577Y-52067492D01*
X154488573Y-52067488D01*
X154299855Y-51915109D01*
X154299849Y-51915105D01*
X154088082Y-51796805D01*
X153859370Y-51715996D01*
X153859362Y-51715994D01*
X153620293Y-51675000D01*
X153150000Y-51675000D01*
X153150000Y-52495689D01*
X153141183Y-52490842D01*
X152982114Y-52450000D01*
X152859106Y-52450000D01*
X152737067Y-52465417D01*
X152650000Y-52499889D01*
X152650000Y-51675000D01*
X152240449Y-51675000D01*
X152059307Y-51690417D01*
X151824559Y-51751541D01*
X151603527Y-51851453D01*
X151603519Y-51851458D01*
X151402549Y-51987291D01*
X151402546Y-51987293D01*
X151227424Y-52155135D01*
X151227423Y-52155136D01*
X151083186Y-52350156D01*
X150973978Y-52566757D01*
X150902946Y-52798700D01*
X150896377Y-52849999D01*
X137402839Y-52849999D01*
X137366463Y-52681217D01*
X137366462Y-52681214D01*
X137276021Y-52456143D01*
X137148838Y-52249584D01*
X136988577Y-52067492D01*
X136988573Y-52067488D01*
X136799855Y-51915109D01*
X136799849Y-51915105D01*
X136588082Y-51796805D01*
X136359370Y-51715996D01*
X136359362Y-51715994D01*
X136120293Y-51675000D01*
X135650000Y-51675000D01*
X135650000Y-52495689D01*
X135641183Y-52490842D01*
X135482114Y-52450000D01*
X135359106Y-52450000D01*
X135237067Y-52465417D01*
X135150000Y-52499889D01*
X135150000Y-51675000D01*
X134740449Y-51675000D01*
X134559307Y-51690417D01*
X134324559Y-51751541D01*
X134103527Y-51851453D01*
X134103519Y-51851458D01*
X133902549Y-51987291D01*
X133902546Y-51987293D01*
X133727424Y-52155135D01*
X133727423Y-52155136D01*
X133583186Y-52350156D01*
X133473978Y-52566757D01*
X133402946Y-52798700D01*
X133396377Y-52849999D01*
X124902839Y-52849999D01*
X124866463Y-52681217D01*
X124866462Y-52681214D01*
X124776021Y-52456143D01*
X124648838Y-52249584D01*
X124488577Y-52067492D01*
X124488573Y-52067488D01*
X124299855Y-51915109D01*
X124299849Y-51915105D01*
X124088082Y-51796805D01*
X123859370Y-51715996D01*
X123859362Y-51715994D01*
X123620293Y-51675000D01*
X123150000Y-51675000D01*
X123150000Y-52495689D01*
X123141183Y-52490842D01*
X122982114Y-52450000D01*
X122859106Y-52450000D01*
X122737067Y-52465417D01*
X122650000Y-52499889D01*
X122650000Y-51675000D01*
X122240449Y-51675000D01*
X122059307Y-51690417D01*
X121824559Y-51751541D01*
X121603527Y-51851453D01*
X121603519Y-51851458D01*
X121402549Y-51987291D01*
X121402546Y-51987293D01*
X121227424Y-52155135D01*
X121227423Y-52155136D01*
X121083186Y-52350156D01*
X120973978Y-52566757D01*
X120902946Y-52798700D01*
X120896377Y-52849999D01*
X116000500Y-52849999D01*
X116000500Y-44134936D01*
X119199500Y-44134936D01*
X119239718Y-44401767D01*
X119239720Y-44401773D01*
X119319262Y-44659641D01*
X119436346Y-44902769D01*
X119588365Y-45125741D01*
X119771910Y-45323557D01*
X119771914Y-45323560D01*
X119771915Y-45323561D01*
X119982898Y-45491815D01*
X120216602Y-45626743D01*
X120467805Y-45725334D01*
X120730897Y-45785383D01*
X120768757Y-45788220D01*
X120932602Y-45800499D01*
X120932621Y-45800499D01*
X120932624Y-45800500D01*
X120932626Y-45800500D01*
X121067374Y-45800500D01*
X121067376Y-45800500D01*
X121067378Y-45800499D01*
X121067397Y-45800499D01*
X121212312Y-45789638D01*
X121269103Y-45785383D01*
X121532195Y-45725334D01*
X121783398Y-45626743D01*
X122017102Y-45491815D01*
X122228085Y-45323561D01*
X122411635Y-45125741D01*
X122563651Y-44902775D01*
X122680738Y-44659641D01*
X122760280Y-44401772D01*
X122800499Y-44134936D01*
X197199500Y-44134936D01*
X197239718Y-44401767D01*
X197239720Y-44401773D01*
X197319262Y-44659641D01*
X197436346Y-44902769D01*
X197588365Y-45125741D01*
X197771910Y-45323557D01*
X197771914Y-45323560D01*
X197771915Y-45323561D01*
X197982898Y-45491815D01*
X198216602Y-45626743D01*
X198467805Y-45725334D01*
X198730897Y-45785383D01*
X198768757Y-45788220D01*
X198932602Y-45800499D01*
X198932621Y-45800499D01*
X198932624Y-45800500D01*
X198932626Y-45800500D01*
X199067374Y-45800500D01*
X199067376Y-45800500D01*
X199067378Y-45800499D01*
X199067397Y-45800499D01*
X199212312Y-45789638D01*
X199269103Y-45785383D01*
X199532195Y-45725334D01*
X199783398Y-45626743D01*
X200017102Y-45491815D01*
X200228085Y-45323561D01*
X200411635Y-45125741D01*
X200563651Y-44902775D01*
X200680738Y-44659641D01*
X200760280Y-44401772D01*
X200800500Y-44134929D01*
X200800500Y-43865071D01*
X200760280Y-43598228D01*
X200680738Y-43340359D01*
X200563651Y-43097226D01*
X200411635Y-42874259D01*
X200401358Y-42863183D01*
X200228089Y-42676442D01*
X200187509Y-42644080D01*
X200017102Y-42508185D01*
X199783398Y-42373257D01*
X199783396Y-42373256D01*
X199532195Y-42274666D01*
X199532188Y-42274664D01*
X199269100Y-42214616D01*
X199067397Y-42199500D01*
X199067376Y-42199500D01*
X198932624Y-42199500D01*
X198932602Y-42199500D01*
X198730899Y-42214616D01*
X198467811Y-42274664D01*
X198467804Y-42274666D01*
X198216603Y-42373256D01*
X198216599Y-42373258D01*
X197982898Y-42508185D01*
X197771910Y-42676442D01*
X197588365Y-42874258D01*
X197436345Y-43097231D01*
X197436344Y-43097232D01*
X197319263Y-43340355D01*
X197239720Y-43598226D01*
X197239718Y-43598232D01*
X197199500Y-43865063D01*
X197199500Y-44134936D01*
X122800499Y-44134936D01*
X122800500Y-44134929D01*
X122800500Y-43865071D01*
X122760280Y-43598228D01*
X122680738Y-43340359D01*
X122563651Y-43097226D01*
X122411635Y-42874259D01*
X122401358Y-42863183D01*
X122228089Y-42676442D01*
X122187509Y-42644080D01*
X122017102Y-42508185D01*
X121783398Y-42373257D01*
X121783396Y-42373256D01*
X121532195Y-42274666D01*
X121532188Y-42274664D01*
X121269100Y-42214616D01*
X121067397Y-42199500D01*
X121067376Y-42199500D01*
X120932624Y-42199500D01*
X120932602Y-42199500D01*
X120730899Y-42214616D01*
X120467811Y-42274664D01*
X120467804Y-42274666D01*
X120216603Y-42373256D01*
X120216599Y-42373258D01*
X119982898Y-42508185D01*
X119771910Y-42676442D01*
X119588365Y-42874258D01*
X119436345Y-43097231D01*
X119436344Y-43097232D01*
X119319263Y-43340355D01*
X119239720Y-43598226D01*
X119239718Y-43598232D01*
X119199500Y-43865063D01*
X119199500Y-44134936D01*
X116000500Y-44134936D01*
X116000500Y-40124500D01*
X116020185Y-40057461D01*
X116072989Y-40011706D01*
X116124500Y-40000500D01*
X203866015Y-40000500D01*
X203933054Y-40020185D01*
G37*
G04 #@! TD.AperFunction*
M02*
