M48
; DRILL file {KiCad 7.0.10} date Mon Apr 22 16:50:51 2024
; FORMAT={-:-/ absolute / metric / decimal}
; #@! TF.CreationDate,2024-04-22T16:50:51-07:00
; #@! TF.GenerationSoftware,Kicad,Pcbnew,7.0.10
; #@! TF.FileFunction,Plated,1,2,PTH
FMAT,2
METRIC
; #@! TA.AperFunction,Plated,PTH,ViaDrill
T1C0.400
; #@! TA.AperFunction,Plated,PTH,ComponentDrill
T2C0.700
; #@! TA.AperFunction,Plated,PTH,ComponentDrill
T3C1.000
; #@! TA.AperFunction,Plated,PTH,ComponentDrill
T4C1.016
%
G90
G05
T1
X116.836Y-119.365
X117.706Y-109.625
X120.076Y-94.805
X123.726Y-104.995
X123.776Y-116.105
X126.446Y-95.695
X126.476Y-105.005
X129.276Y-123.175
X131.186Y-113.885
X132.176Y-96.305
X132.986Y-107.615
X133.996Y-104.295
X134.296Y-99.885
X136.796Y-107.845
X137.676Y-115.705
X138.576Y-90.905
X140.006Y-123.365
X141.296Y-102.015
X141.476Y-108.905
X141.676Y-112.405
X143.326Y-102.165
X143.476Y-119.805
X144.176Y-114.505
X144.201Y-107.705
X144.426Y-101.765
X144.456Y-102.985
X145.176Y-97.205
X145.376Y-119.905
X145.401Y-107.93
X145.766Y-102.255
X145.876Y-98.515
X146.476Y-108.305
X146.546Y-101.575
X146.776Y-114.005
X147.136Y-94.275
X148.376Y-111.405
X148.376Y-117.505
X148.476Y-105.005
X148.576Y-92.105
X148.676Y-101.105
X148.976Y-108.405
X149.066Y-103.145
X149.956Y-101.115
X149.976Y-114.605
X150.976Y-97.405
X151.876Y-104.285
X152.706Y-100.885
X153.046Y-102.505
X153.976Y-114.405
X154.336Y-101.255
X155.176Y-109.805
X155.376Y-92.305
X155.406Y-100.795
X155.436Y-95.455
X155.526Y-105.135
X156.176Y-108.005
X156.276Y-116.105
X157.216Y-101.615
X157.376Y-94.905
X157.696Y-96.165
X158.256Y-104.955
X159.076Y-108.505
X159.456Y-99.705
X159.466Y-101.715
X159.476Y-97.305
X159.576Y-113.605
X160.076Y-119.705
X161.876Y-119.605
X163.276Y-113.905
X163.476Y-91.615
X163.706Y-97.595
X168.376Y-108.105
T2
X126.476Y-108.835
X126.476Y-111.375
X135.376Y-92.535
X135.376Y-95.075
T3
X131.616Y-100.915
X131.616Y-105.995
X139.236Y-99.645
X139.236Y-103.455
X139.236Y-107.265
T4
X116.306Y-91.355
X116.556Y-123.105
X118.846Y-91.355
X119.096Y-123.105
X124.531Y-91.43
X127.071Y-91.43
X150.006Y-90.605
X152.546Y-90.605
X155.236Y-123.005
X157.776Y-123.005
X158.606Y-90.705
X161.146Y-90.705
X164.306Y-122.905
X165.951Y-101.48
X165.951Y-104.02
X166.776Y-111.565
X166.776Y-114.105
X166.776Y-116.645
X166.846Y-122.905
M30
