%TF.GenerationSoftware,KiCad,Pcbnew,7.0.10*%
%TF.CreationDate,2024-04-22T16:50:56-07:00*%
%TF.ProjectId,qsd_revC,7173645f-7265-4764-932e-6b696361645f,rev?*%
%TF.SameCoordinates,Original*%
%TF.FileFunction,Drillmap*%
%TF.FilePolarity,Positive*%
%FSLAX45Y45*%
G04 Gerber Fmt 4.5, Leading zero omitted, Abs format (unit mm)*
G04 Created by KiCad (PCBNEW 7.0.10) date 2024-04-22 16:50:56*
%MOMM*%
%LPD*%
G01*
G04 APERTURE LIST*
%ADD10C,0.050000*%
%ADD11C,0.200000*%
G04 APERTURE END LIST*
D10*
X16947610Y-8858060D02*
X11357610Y-8857860D01*
X11357610Y-8857860D02*
X11357610Y-12570460D01*
X11357610Y-12570460D02*
X16950110Y-12570460D01*
X16950110Y-12570460D02*
X16947610Y-8858060D01*
D11*
X11615887Y-12884444D02*
X11615887Y-12684444D01*
X11615887Y-12684444D02*
X11663506Y-12684444D01*
X11663506Y-12684444D02*
X11692077Y-12693968D01*
X11692077Y-12693968D02*
X11711125Y-12713015D01*
X11711125Y-12713015D02*
X11720649Y-12732063D01*
X11720649Y-12732063D02*
X11730172Y-12770158D01*
X11730172Y-12770158D02*
X11730172Y-12798729D01*
X11730172Y-12798729D02*
X11720649Y-12836825D01*
X11720649Y-12836825D02*
X11711125Y-12855872D01*
X11711125Y-12855872D02*
X11692077Y-12874920D01*
X11692077Y-12874920D02*
X11663506Y-12884444D01*
X11663506Y-12884444D02*
X11615887Y-12884444D01*
X11815887Y-12884444D02*
X11815887Y-12751110D01*
X11815887Y-12789206D02*
X11825411Y-12770158D01*
X11825411Y-12770158D02*
X11834934Y-12760634D01*
X11834934Y-12760634D02*
X11853982Y-12751110D01*
X11853982Y-12751110D02*
X11873030Y-12751110D01*
X11939696Y-12884444D02*
X11939696Y-12751110D01*
X11939696Y-12684444D02*
X11930172Y-12693968D01*
X11930172Y-12693968D02*
X11939696Y-12703491D01*
X11939696Y-12703491D02*
X11949220Y-12693968D01*
X11949220Y-12693968D02*
X11939696Y-12684444D01*
X11939696Y-12684444D02*
X11939696Y-12703491D01*
X12063506Y-12884444D02*
X12044458Y-12874920D01*
X12044458Y-12874920D02*
X12034934Y-12855872D01*
X12034934Y-12855872D02*
X12034934Y-12684444D01*
X12168268Y-12884444D02*
X12149220Y-12874920D01*
X12149220Y-12874920D02*
X12139696Y-12855872D01*
X12139696Y-12855872D02*
X12139696Y-12684444D01*
X12396839Y-12884444D02*
X12396839Y-12684444D01*
X12396839Y-12684444D02*
X12463506Y-12827301D01*
X12463506Y-12827301D02*
X12530172Y-12684444D01*
X12530172Y-12684444D02*
X12530172Y-12884444D01*
X12711125Y-12884444D02*
X12711125Y-12779682D01*
X12711125Y-12779682D02*
X12701601Y-12760634D01*
X12701601Y-12760634D02*
X12682553Y-12751110D01*
X12682553Y-12751110D02*
X12644458Y-12751110D01*
X12644458Y-12751110D02*
X12625411Y-12760634D01*
X12711125Y-12874920D02*
X12692077Y-12884444D01*
X12692077Y-12884444D02*
X12644458Y-12884444D01*
X12644458Y-12884444D02*
X12625411Y-12874920D01*
X12625411Y-12874920D02*
X12615887Y-12855872D01*
X12615887Y-12855872D02*
X12615887Y-12836825D01*
X12615887Y-12836825D02*
X12625411Y-12817777D01*
X12625411Y-12817777D02*
X12644458Y-12808253D01*
X12644458Y-12808253D02*
X12692077Y-12808253D01*
X12692077Y-12808253D02*
X12711125Y-12798729D01*
X12806363Y-12751110D02*
X12806363Y-12951110D01*
X12806363Y-12760634D02*
X12825411Y-12751110D01*
X12825411Y-12751110D02*
X12863506Y-12751110D01*
X12863506Y-12751110D02*
X12882553Y-12760634D01*
X12882553Y-12760634D02*
X12892077Y-12770158D01*
X12892077Y-12770158D02*
X12901601Y-12789206D01*
X12901601Y-12789206D02*
X12901601Y-12846348D01*
X12901601Y-12846348D02*
X12892077Y-12865396D01*
X12892077Y-12865396D02*
X12882553Y-12874920D01*
X12882553Y-12874920D02*
X12863506Y-12884444D01*
X12863506Y-12884444D02*
X12825411Y-12884444D01*
X12825411Y-12884444D02*
X12806363Y-12874920D01*
X12987315Y-12865396D02*
X12996839Y-12874920D01*
X12996839Y-12874920D02*
X12987315Y-12884444D01*
X12987315Y-12884444D02*
X12977792Y-12874920D01*
X12977792Y-12874920D02*
X12987315Y-12865396D01*
X12987315Y-12865396D02*
X12987315Y-12884444D01*
X12987315Y-12760634D02*
X12996839Y-12770158D01*
X12996839Y-12770158D02*
X12987315Y-12779682D01*
X12987315Y-12779682D02*
X12977792Y-12770158D01*
X12977792Y-12770158D02*
X12987315Y-12760634D01*
X12987315Y-12760634D02*
X12987315Y-12779682D01*
M02*
