G04 #@! TF.GenerationSoftware,KiCad,Pcbnew,7.0.10*
G04 #@! TF.CreationDate,2024-04-22T16:50:03-07:00*
G04 #@! TF.ProjectId,qsd_revC,7173645f-7265-4764-932e-6b696361645f,rev?*
G04 #@! TF.SameCoordinates,Original*
G04 #@! TF.FileFunction,Soldermask,Top*
G04 #@! TF.FilePolarity,Negative*
%FSLAX46Y46*%
G04 Gerber Fmt 4.6, Leading zero omitted, Abs format (unit mm)*
G04 Created by KiCad (PCBNEW 7.0.10) date 2024-04-22 16:50:03*
%MOMM*%
%LPD*%
G01*
G04 APERTURE LIST*
G04 Aperture macros list*
%AMRoundRect*
0 Rectangle with rounded corners*
0 $1 Rounding radius*
0 $2 $3 $4 $5 $6 $7 $8 $9 X,Y pos of 4 corners*
0 Add a 4 corners polygon primitive as box body*
4,1,4,$2,$3,$4,$5,$6,$7,$8,$9,$2,$3,0*
0 Add four circle primitives for the rounded corners*
1,1,$1+$1,$2,$3*
1,1,$1+$1,$4,$5*
1,1,$1+$1,$6,$7*
1,1,$1+$1,$8,$9*
0 Add four rect primitives between the rounded corners*
20,1,$1+$1,$2,$3,$4,$5,0*
20,1,$1+$1,$4,$5,$6,$7,0*
20,1,$1+$1,$6,$7,$8,$9,0*
20,1,$1+$1,$8,$9,$2,$3,0*%
G04 Aperture macros list end*
%ADD10RoundRect,0.237500X0.300000X0.237500X-0.300000X0.237500X-0.300000X-0.237500X0.300000X-0.237500X0*%
%ADD11RoundRect,0.237500X-0.237500X0.300000X-0.237500X-0.300000X0.237500X-0.300000X0.237500X0.300000X0*%
%ADD12RoundRect,0.237500X0.237500X-0.300000X0.237500X0.300000X-0.237500X0.300000X-0.237500X-0.300000X0*%
%ADD13RoundRect,0.063500X-0.600000X-0.300000X0.600000X-0.300000X0.600000X0.300000X-0.600000X0.300000X0*%
%ADD14C,2.006600*%
%ADD15RoundRect,0.237500X-0.250000X-0.237500X0.250000X-0.237500X0.250000X0.237500X-0.250000X0.237500X0*%
%ADD16RoundRect,0.063500X-0.425000X-0.150000X0.425000X-0.150000X0.425000X0.150000X-0.425000X0.150000X0*%
%ADD17RoundRect,0.237500X0.250000X0.237500X-0.250000X0.237500X-0.250000X-0.237500X0.250000X-0.237500X0*%
%ADD18RoundRect,0.237500X-0.300000X-0.237500X0.300000X-0.237500X0.300000X0.237500X-0.300000X0.237500X0*%
%ADD19RoundRect,0.237500X-0.237500X0.250000X-0.237500X-0.250000X0.237500X-0.250000X0.237500X0.250000X0*%
%ADD20R,3.600000X1.270000*%
%ADD21R,4.200000X1.350000*%
%ADD22RoundRect,0.237500X0.237500X-0.250000X0.237500X0.250000X-0.237500X0.250000X-0.237500X-0.250000X0*%
%ADD23RoundRect,0.150000X-0.150000X0.587500X-0.150000X-0.587500X0.150000X-0.587500X0.150000X0.587500X0*%
%ADD24RoundRect,0.063500X0.825500X-0.825500X0.825500X0.825500X-0.825500X0.825500X-0.825500X-0.825500X0*%
%ADD25C,1.778000*%
%ADD26R,1.528000X0.650000*%
%ADD27C,1.627000*%
%ADD28RoundRect,0.063500X-0.300000X-0.600000X0.300000X-0.600000X0.300000X0.600000X-0.300000X0.600000X0*%
%ADD29RoundRect,0.063500X-0.175000X0.450000X-0.175000X-0.450000X0.175000X-0.450000X0.175000X0.450000X0*%
%ADD30RoundRect,0.063500X0.175000X-0.450000X0.175000X0.450000X-0.175000X0.450000X-0.175000X-0.450000X0*%
%ADD31RoundRect,0.063500X0.500000X-0.125000X0.500000X0.125000X-0.500000X0.125000X-0.500000X-0.125000X0*%
%ADD32RoundRect,0.063500X-0.500000X0.125000X-0.500000X-0.125000X0.500000X-0.125000X0.500000X0.125000X0*%
%ADD33RoundRect,0.063500X-0.825500X0.825500X-0.825500X-0.825500X0.825500X-0.825500X0.825500X0.825500X0*%
G04 APERTURE END LIST*
D10*
X161938600Y-115604600D03*
X160213600Y-115604600D03*
D11*
X162576100Y-101467100D03*
X162576100Y-103192100D03*
D12*
X147376100Y-118367100D03*
X147376100Y-116642100D03*
D10*
X161938600Y-118304600D03*
X160213600Y-118304600D03*
D11*
X147276100Y-110642100D03*
X147276100Y-112367100D03*
D13*
X147226100Y-96354600D03*
X147226100Y-97304600D03*
X147226100Y-98254600D03*
X149726100Y-98254600D03*
X149726100Y-96354600D03*
D14*
X158606100Y-90704600D03*
X161146100Y-90704600D03*
D15*
X160063600Y-96134600D03*
X161888600Y-96134600D03*
D16*
X151276100Y-98579600D03*
X151276100Y-99079600D03*
X151276100Y-99579600D03*
X151276100Y-100079600D03*
X154426100Y-100079600D03*
X154426100Y-99579600D03*
X154426100Y-99079600D03*
X154426100Y-98579600D03*
D17*
X133238600Y-110129600D03*
X131413600Y-110129600D03*
D18*
X160013600Y-112004600D03*
X161738600Y-112004600D03*
D14*
X157776100Y-123004600D03*
X155236100Y-123004600D03*
D19*
X149376100Y-110392100D03*
X149376100Y-112217100D03*
D10*
X161738600Y-109404600D03*
X160013600Y-109404600D03*
D20*
X167088600Y-94604600D03*
D21*
X166888600Y-97429600D03*
X166888600Y-91779600D03*
D10*
X156163600Y-97204600D03*
X154438600Y-97204600D03*
D14*
X119096100Y-123104600D03*
X116556100Y-123104600D03*
D19*
X145176100Y-110592100D03*
X145176100Y-112417100D03*
D10*
X167038600Y-107404600D03*
X165313600Y-107404600D03*
X160738600Y-98404600D03*
X159013600Y-98404600D03*
D22*
X143376100Y-118417100D03*
X143376100Y-116592100D03*
D19*
X122101100Y-97192100D03*
X122101100Y-99017100D03*
X145376100Y-116592100D03*
X145376100Y-118417100D03*
D22*
X128726100Y-106604600D03*
X128726100Y-104779600D03*
X128726100Y-102879600D03*
X128726100Y-101054600D03*
D14*
X166846100Y-122904600D03*
X164306100Y-122904600D03*
X166776100Y-111564600D03*
X166776100Y-114104600D03*
X166776100Y-116644600D03*
D23*
X126076100Y-101317100D03*
X124176100Y-101317100D03*
X125126100Y-103192100D03*
D24*
X126476100Y-108834600D03*
D25*
X126476100Y-111374600D03*
D10*
X126313600Y-97229600D03*
X124588600Y-97229600D03*
D26*
X152465100Y-109399600D03*
X152465100Y-110669600D03*
X152465100Y-111939600D03*
X152465100Y-113209600D03*
X157887100Y-113209600D03*
X157887100Y-111939600D03*
X157887100Y-110669600D03*
X157887100Y-109399600D03*
D14*
X116306100Y-91354600D03*
X118846100Y-91354600D03*
X152546100Y-90604600D03*
X150006100Y-90604600D03*
D27*
X131616100Y-100914600D03*
X131616100Y-105994600D03*
X139236100Y-99644600D03*
X139236100Y-103454600D03*
X139236100Y-107264600D03*
D28*
X158526100Y-103085600D03*
X159476100Y-103085600D03*
X160426100Y-103085600D03*
X160426100Y-100473600D03*
X158526100Y-100473600D03*
D20*
X115963600Y-101129600D03*
D21*
X116163600Y-98304600D03*
X116163600Y-103954600D03*
D17*
X158188600Y-93604600D03*
X156363600Y-93604600D03*
D18*
X149563600Y-105979600D03*
X151288600Y-105979600D03*
D29*
X147701100Y-100229600D03*
X147051100Y-100229600D03*
X146401100Y-100229600D03*
X145751100Y-100229600D03*
X145101100Y-100229600D03*
X144451100Y-100229600D03*
X143801100Y-100229600D03*
X143151100Y-100229600D03*
D30*
X143151100Y-105979600D03*
X143801100Y-105979600D03*
X144451100Y-105979600D03*
X145101100Y-105979600D03*
X145751100Y-105979600D03*
X146401100Y-105979600D03*
X147051100Y-105979600D03*
X147701100Y-105979600D03*
D10*
X122001100Y-101129600D03*
X120276100Y-101129600D03*
D26*
X152465100Y-115699600D03*
X152465100Y-116969600D03*
X152465100Y-118239600D03*
X152465100Y-119509600D03*
X157887100Y-119509600D03*
X157887100Y-118239600D03*
X157887100Y-116969600D03*
X157887100Y-115699600D03*
D22*
X143176100Y-112417100D03*
X143176100Y-110592100D03*
D31*
X154814200Y-104229600D03*
X154814200Y-103729600D03*
X154814200Y-103229600D03*
X154814200Y-102729600D03*
X154814200Y-102229600D03*
D32*
X150588000Y-102229600D03*
X150588000Y-102729600D03*
X150588000Y-103229600D03*
X150588000Y-103729600D03*
X150588000Y-104229600D03*
D10*
X153868600Y-94744600D03*
X152143600Y-94744600D03*
D18*
X153038600Y-107204600D03*
X154763600Y-107204600D03*
D14*
X165951100Y-101479600D03*
X165951100Y-104019600D03*
D10*
X139938600Y-96604600D03*
X138213600Y-96604600D03*
D14*
X127071100Y-91429600D03*
X124531100Y-91429600D03*
D15*
X131363600Y-112004600D03*
X133188600Y-112004600D03*
D19*
X149376100Y-116592100D03*
X149376100Y-118417100D03*
D33*
X135376100Y-95074600D03*
D25*
X135376100Y-92534600D03*
M02*
