M48
; DRILL file {KiCad (6.0.2)} date Mon Nov 21 15:37:28 2022
; FORMAT={-:-/ absolute / inch / decimal}
; #@! TF.CreationDate,2022-11-21T15:37:28-08:00
; #@! TF.GenerationSoftware,Kicad,Pcbnew,(6.0.2)
; #@! TF.FileFunction,Plated,1,2,PTH
FMAT,2
INCH
; #@! TA.AperFunction,Plated,PTH,ViaDrill
T1C0.0157
; #@! TA.AperFunction,Plated,PTH,ComponentDrill
T2C0.0276
; #@! TA.AperFunction,Plated,PTH,ComponentDrill
T3C0.0394
; #@! TA.AperFunction,Plated,PTH,ComponentDrill
T4C0.0433
; #@! TA.AperFunction,Plated,PTH,ComponentDrill
T5C0.0512
%
G90
G05
T1
X0.0886Y3.2264
X0.0984Y2.2402
X0.1319Y3.8445
X0.2106Y1.1791
X0.2205Y0.5965
X0.374Y4.187
X0.4587Y3.8996
X0.4803Y0.8425
X0.5256Y1.878
X0.563Y2.9311
X0.5827Y2.2185
X0.5945Y3.2224
X0.6063Y1.1732
X0.6831Y0.2953
X0.689Y2.3543
X0.6988Y1.3051
X0.7106Y3.3524
X0.7146Y4.1969
X0.7185Y0.8642
X0.752Y3.935
X0.7913Y1.8799
X0.8209Y2.9449
X1.0984Y0.2224
X1.1772Y4.315
X1.2067Y1.1516
X1.2146Y3.1949
X1.2146Y2.1969
X1.498Y0.1339
X1.6102Y4.1437
T2
X0.8324Y2.8133
X0.8324Y2.5133
X0.8324Y0.768
X0.8324Y0.468
X0.8501Y3.8153
X0.8501Y3.5153
X0.8501Y1.7877
X0.8501Y1.4877
X1.1324Y2.8133
X1.1324Y2.5133
X1.1324Y0.768
X1.1324Y0.468
X1.1501Y3.8153
X1.1501Y3.5153
X1.1501Y1.7877
X1.1501Y1.4877
X1.3324Y2.8133
X1.3324Y2.5133
X1.3324Y0.768
X1.3324Y0.468
X1.3501Y3.8153
X1.3501Y3.5153
X1.3501Y1.7877
X1.3501Y1.4877
X1.5324Y2.8133
X1.5324Y2.5133
X1.5324Y0.768
X1.5324Y0.468
X1.5501Y3.8153
X1.5501Y3.5153
X1.5501Y1.7877
X1.5501Y1.4877
T3
X0.124Y4.2431
X0.124Y4.1431
X0.1417Y0.253
X0.1417Y0.153
X0.1732Y1.9421
X0.1732Y1.8421
X0.1732Y1.7421
X0.1732Y1.6421
X0.1732Y1.5421
X0.1732Y1.4421
X0.1831Y0.9715
X0.1831Y0.8715
X0.9039Y0.1181
X1.0039Y0.1181
X1.6657Y4.2953
X1.7657Y4.2953
X2.1614Y4.2776
X2.249Y0.0925
X2.2614Y4.2776
X2.349Y0.0925
T4
X0.5768Y3.8413
X0.5768Y3.5413
X0.5827Y0.7602
X0.5827Y0.4602
X0.5866Y2.8075
X0.5866Y2.5075
X0.5906Y1.7819
X0.5906Y1.4819
T5
X2.0827Y1.998
X2.0827Y1.7776
X2.0906Y3.0217
X2.0906Y2.8012
X2.0906Y2.4764
X2.0906Y2.2559
X2.0925Y4.0138
X2.0925Y3.7933
X2.0925Y3.5059
X2.0925Y3.2854
X2.0965Y1.4665
X2.0965Y1.2461
X2.0965Y0.9882
X2.0965Y0.7677
X2.1043Y0.4567
X2.1043Y0.2362
T0
M30
