%TF.GenerationSoftware,KiCad,Pcbnew,(6.0.2)*%
%TF.CreationDate,2022-11-21T15:37:21-08:00*%
%TF.ProjectId,preselector,70726573-656c-4656-9374-6f722e6b6963,rev?*%
%TF.SameCoordinates,PX5028050PY8f935f0*%
%TF.FileFunction,Legend,Top*%
%TF.FilePolarity,Positive*%
%FSLAX46Y46*%
G04 Gerber Fmt 4.6, Leading zero omitted, Abs format (unit mm)*
G04 Created by KiCad (PCBNEW (6.0.2)) date 2022-11-21 15:37:21*
%MOMM*%
%LPD*%
G01*
G04 APERTURE LIST*
%ADD10C,0.150000*%
%ADD11C,0.120000*%
G04 APERTURE END LIST*
D10*
X55088095Y106250000D02*
X54992857Y106297620D01*
X54850000Y106297620D01*
X54707142Y106250000D01*
X54611904Y106154762D01*
X54564285Y106059524D01*
X54516666Y105869048D01*
X54516666Y105726191D01*
X54564285Y105535715D01*
X54611904Y105440477D01*
X54707142Y105345239D01*
X54850000Y105297620D01*
X54945238Y105297620D01*
X55088095Y105345239D01*
X55135714Y105392858D01*
X55135714Y105726191D01*
X54945238Y105726191D01*
X55564285Y105297620D02*
X55564285Y106297620D01*
X56135714Y105297620D01*
X56135714Y106297620D01*
X56611904Y105297620D02*
X56611904Y106297620D01*
X56850000Y106297620D01*
X56992857Y106250000D01*
X57088095Y106154762D01*
X57135714Y106059524D01*
X57183333Y105869048D01*
X57183333Y105726191D01*
X57135714Y105535715D01*
X57088095Y105440477D01*
X56992857Y105345239D01*
X56850000Y105297620D01*
X56611904Y105297620D01*
X7388095Y25000000D02*
X7292857Y25047620D01*
X7150000Y25047620D01*
X7007142Y25000000D01*
X6911904Y24904762D01*
X6864285Y24809524D01*
X6816666Y24619048D01*
X6816666Y24476191D01*
X6864285Y24285715D01*
X6911904Y24190477D01*
X7007142Y24095239D01*
X7150000Y24047620D01*
X7245238Y24047620D01*
X7388095Y24095239D01*
X7435714Y24142858D01*
X7435714Y24476191D01*
X7245238Y24476191D01*
X7864285Y24047620D02*
X7864285Y25047620D01*
X8435714Y24047620D01*
X8435714Y25047620D01*
X8911904Y24047620D02*
X8911904Y25047620D01*
X9150000Y25047620D01*
X9292857Y25000000D01*
X9388095Y24904762D01*
X9435714Y24809524D01*
X9483333Y24619048D01*
X9483333Y24476191D01*
X9435714Y24285715D01*
X9388095Y24190477D01*
X9292857Y24095239D01*
X9150000Y24047620D01*
X8911904Y24047620D01*
X6869047Y47197620D02*
X7488095Y47197620D01*
X7154761Y46816667D01*
X7297619Y46816667D01*
X7392857Y46769048D01*
X7440476Y46721429D01*
X7488095Y46626191D01*
X7488095Y46388096D01*
X7440476Y46292858D01*
X7392857Y46245239D01*
X7297619Y46197620D01*
X7011904Y46197620D01*
X6916666Y46245239D01*
X6869047Y46292858D01*
X8107142Y47197620D02*
X8202380Y47197620D01*
X8297619Y47150000D01*
X8345238Y47102381D01*
X8392857Y47007143D01*
X8440476Y46816667D01*
X8440476Y46578572D01*
X8392857Y46388096D01*
X8345238Y46292858D01*
X8297619Y46245239D01*
X8202380Y46197620D01*
X8107142Y46197620D01*
X8011904Y46245239D01*
X7964285Y46292858D01*
X7916666Y46388096D01*
X7869047Y46578572D01*
X7869047Y46816667D01*
X7916666Y47007143D01*
X7964285Y47102381D01*
X8011904Y47150000D01*
X8107142Y47197620D01*
X8869047Y46197620D02*
X8869047Y47197620D01*
X9202380Y46483334D01*
X9535714Y47197620D01*
X9535714Y46197620D01*
X18288095Y3450000D02*
X18192857Y3497620D01*
X18050000Y3497620D01*
X17907142Y3450000D01*
X17811904Y3354762D01*
X17764285Y3259524D01*
X17716666Y3069048D01*
X17716666Y2926191D01*
X17764285Y2735715D01*
X17811904Y2640477D01*
X17907142Y2545239D01*
X18050000Y2497620D01*
X18145238Y2497620D01*
X18288095Y2545239D01*
X18335714Y2592858D01*
X18335714Y2926191D01*
X18145238Y2926191D01*
X18764285Y2497620D02*
X18764285Y3497620D01*
X19335714Y2497620D01*
X19335714Y3497620D01*
X19811904Y2497620D02*
X19811904Y3497620D01*
X20050000Y3497620D01*
X20192857Y3450000D01*
X20288095Y3354762D01*
X20335714Y3259524D01*
X20383333Y3069048D01*
X20383333Y2926191D01*
X20335714Y2735715D01*
X20288095Y2640477D01*
X20192857Y2545239D01*
X20050000Y2497620D01*
X19811904Y2497620D01*
X7588095Y41347620D02*
X7016666Y41347620D01*
X7302380Y41347620D02*
X7302380Y42347620D01*
X7207142Y42204762D01*
X7111904Y42109524D01*
X7016666Y42061905D01*
X7921428Y42347620D02*
X8588095Y42347620D01*
X8159523Y41347620D01*
X8969047Y41347620D02*
X8969047Y42347620D01*
X9302380Y41633334D01*
X9635714Y42347620D01*
X9635714Y41347620D01*
X7288095Y36800000D02*
X7192857Y36847620D01*
X7050000Y36847620D01*
X6907142Y36800000D01*
X6811904Y36704762D01*
X6764285Y36609524D01*
X6716666Y36419048D01*
X6716666Y36276191D01*
X6764285Y36085715D01*
X6811904Y35990477D01*
X6907142Y35895239D01*
X7050000Y35847620D01*
X7145238Y35847620D01*
X7288095Y35895239D01*
X7335714Y35942858D01*
X7335714Y36276191D01*
X7145238Y36276191D01*
X7764285Y35847620D02*
X7764285Y36847620D01*
X8335714Y35847620D01*
X8335714Y36847620D01*
X8811904Y35847620D02*
X8811904Y36847620D01*
X9050000Y36847620D01*
X9192857Y36800000D01*
X9288095Y36704762D01*
X9335714Y36609524D01*
X9383333Y36419048D01*
X9383333Y36276191D01*
X9335714Y36085715D01*
X9288095Y35990477D01*
X9192857Y35895239D01*
X9050000Y35847620D01*
X8811904Y35847620D01*
X42119047Y92197620D02*
X42738095Y92197620D01*
X42404761Y91816667D01*
X42547619Y91816667D01*
X42642857Y91769048D01*
X42690476Y91721429D01*
X42738095Y91626191D01*
X42738095Y91388096D01*
X42690476Y91292858D01*
X42642857Y91245239D01*
X42547619Y91197620D01*
X42261904Y91197620D01*
X42166666Y91245239D01*
X42119047Y91292858D01*
X43357142Y92197620D02*
X43452380Y92197620D01*
X43547619Y92150000D01*
X43595238Y92102381D01*
X43642857Y92007143D01*
X43690476Y91816667D01*
X43690476Y91578572D01*
X43642857Y91388096D01*
X43595238Y91292858D01*
X43547619Y91245239D01*
X43452380Y91197620D01*
X43357142Y91197620D01*
X43261904Y91245239D01*
X43214285Y91292858D01*
X43166666Y91388096D01*
X43119047Y91578572D01*
X43119047Y91816667D01*
X43166666Y92007143D01*
X43214285Y92102381D01*
X43261904Y92150000D01*
X43357142Y92197620D01*
X44119047Y91197620D02*
X44119047Y92197620D01*
X44452380Y91483334D01*
X44785714Y92197620D01*
X44785714Y91197620D01*
X6988095Y5450000D02*
X6892857Y5497620D01*
X6750000Y5497620D01*
X6607142Y5450000D01*
X6511904Y5354762D01*
X6464285Y5259524D01*
X6416666Y5069048D01*
X6416666Y4926191D01*
X6464285Y4735715D01*
X6511904Y4640477D01*
X6607142Y4545239D01*
X6750000Y4497620D01*
X6845238Y4497620D01*
X6988095Y4545239D01*
X7035714Y4592858D01*
X7035714Y4926191D01*
X6845238Y4926191D01*
X7464285Y4497620D02*
X7464285Y5497620D01*
X8035714Y4497620D01*
X8035714Y5497620D01*
X8511904Y4497620D02*
X8511904Y5497620D01*
X8750000Y5497620D01*
X8892857Y5450000D01*
X8988095Y5354762D01*
X9035714Y5259524D01*
X9083333Y5069048D01*
X9083333Y4926191D01*
X9035714Y4735715D01*
X8988095Y4640477D01*
X8892857Y4545239D01*
X8750000Y4497620D01*
X8511904Y4497620D01*
X2538095Y102400000D02*
X2442857Y102447620D01*
X2300000Y102447620D01*
X2157142Y102400000D01*
X2061904Y102304762D01*
X2014285Y102209524D01*
X1966666Y102019048D01*
X1966666Y101876191D01*
X2014285Y101685715D01*
X2061904Y101590477D01*
X2157142Y101495239D01*
X2300000Y101447620D01*
X2395238Y101447620D01*
X2538095Y101495239D01*
X2585714Y101542858D01*
X2585714Y101876191D01*
X2395238Y101876191D01*
X3014285Y101447620D02*
X3014285Y102447620D01*
X3585714Y101447620D01*
X3585714Y102447620D01*
X4061904Y101447620D02*
X4061904Y102447620D01*
X4300000Y102447620D01*
X4442857Y102400000D01*
X4538095Y102304762D01*
X4585714Y102209524D01*
X4633333Y102019048D01*
X4633333Y101876191D01*
X4585714Y101685715D01*
X4538095Y101590477D01*
X4442857Y101495239D01*
X4300000Y101447620D01*
X4061904Y101447620D01*
X42642857Y93914286D02*
X42642857Y93247620D01*
X42404761Y94295239D02*
X42166666Y93580953D01*
X42785714Y93580953D01*
X43357142Y94247620D02*
X43452380Y94247620D01*
X43547619Y94200000D01*
X43595238Y94152381D01*
X43642857Y94057143D01*
X43690476Y93866667D01*
X43690476Y93628572D01*
X43642857Y93438096D01*
X43595238Y93342858D01*
X43547619Y93295239D01*
X43452380Y93247620D01*
X43357142Y93247620D01*
X43261904Y93295239D01*
X43214285Y93342858D01*
X43166666Y93438096D01*
X43119047Y93628572D01*
X43119047Y93866667D01*
X43166666Y94057143D01*
X43214285Y94152381D01*
X43261904Y94200000D01*
X43357142Y94247620D01*
X44119047Y93247620D02*
X44119047Y94247620D01*
X44452380Y93533334D01*
X44785714Y94247620D01*
X44785714Y93247620D01*
X7392857Y49514286D02*
X7392857Y48847620D01*
X7154761Y49895239D02*
X6916666Y49180953D01*
X7535714Y49180953D01*
X8107142Y49847620D02*
X8202380Y49847620D01*
X8297619Y49800000D01*
X8345238Y49752381D01*
X8392857Y49657143D01*
X8440476Y49466667D01*
X8440476Y49228572D01*
X8392857Y49038096D01*
X8345238Y48942858D01*
X8297619Y48895239D01*
X8202380Y48847620D01*
X8107142Y48847620D01*
X8011904Y48895239D01*
X7964285Y48942858D01*
X7916666Y49038096D01*
X7869047Y49228572D01*
X7869047Y49466667D01*
X7916666Y49657143D01*
X7964285Y49752381D01*
X8011904Y49800000D01*
X8107142Y49847620D01*
X8869047Y48847620D02*
X8869047Y49847620D01*
X9202380Y49133334D01*
X9535714Y49847620D01*
X9535714Y48847620D01*
X7588095Y38547620D02*
X7016666Y38547620D01*
X7302380Y38547620D02*
X7302380Y39547620D01*
X7207142Y39404762D01*
X7111904Y39309524D01*
X7016666Y39261905D01*
X8492857Y39547620D02*
X8016666Y39547620D01*
X7969047Y39071429D01*
X8016666Y39119048D01*
X8111904Y39166667D01*
X8350000Y39166667D01*
X8445238Y39119048D01*
X8492857Y39071429D01*
X8540476Y38976191D01*
X8540476Y38738096D01*
X8492857Y38642858D01*
X8445238Y38595239D01*
X8350000Y38547620D01*
X8111904Y38547620D01*
X8016666Y38595239D01*
X7969047Y38642858D01*
X8969047Y38547620D02*
X8969047Y39547620D01*
X9302380Y38833334D01*
X9635714Y39547620D01*
X9635714Y38547620D01*
X37826190Y5664286D02*
X38207142Y5664286D01*
X37969047Y5997620D02*
X37969047Y5140477D01*
X38016666Y5045239D01*
X38111904Y4997620D01*
X38207142Y4997620D01*
X38683333Y4997620D02*
X38588095Y5045239D01*
X38540476Y5092858D01*
X38492857Y5188096D01*
X38492857Y5473810D01*
X38540476Y5569048D01*
X38588095Y5616667D01*
X38683333Y5664286D01*
X38826190Y5664286D01*
X38921428Y5616667D01*
X38969047Y5569048D01*
X39016666Y5473810D01*
X39016666Y5188096D01*
X38969047Y5092858D01*
X38921428Y5045239D01*
X38826190Y4997620D01*
X38683333Y4997620D01*
X40873809Y4902381D02*
X40778571Y4950000D01*
X40683333Y5045239D01*
X40540476Y5188096D01*
X40445238Y5235715D01*
X40350000Y5235715D01*
X40397619Y4997620D02*
X40302380Y5045239D01*
X40207142Y5140477D01*
X40159523Y5330953D01*
X40159523Y5664286D01*
X40207142Y5854762D01*
X40302380Y5950000D01*
X40397619Y5997620D01*
X40588095Y5997620D01*
X40683333Y5950000D01*
X40778571Y5854762D01*
X40826190Y5664286D01*
X40826190Y5330953D01*
X40778571Y5140477D01*
X40683333Y5045239D01*
X40588095Y4997620D01*
X40397619Y4997620D01*
X41207142Y5045239D02*
X41350000Y4997620D01*
X41588095Y4997620D01*
X41683333Y5045239D01*
X41730952Y5092858D01*
X41778571Y5188096D01*
X41778571Y5283334D01*
X41730952Y5378572D01*
X41683333Y5426191D01*
X41588095Y5473810D01*
X41397619Y5521429D01*
X41302380Y5569048D01*
X41254761Y5616667D01*
X41207142Y5711905D01*
X41207142Y5807143D01*
X41254761Y5902381D01*
X41302380Y5950000D01*
X41397619Y5997620D01*
X41635714Y5997620D01*
X41778571Y5950000D01*
X42207142Y4997620D02*
X42207142Y5997620D01*
X42445238Y5997620D01*
X42588095Y5950000D01*
X42683333Y5854762D01*
X42730952Y5759524D01*
X42778571Y5569048D01*
X42778571Y5426191D01*
X42730952Y5235715D01*
X42683333Y5140477D01*
X42588095Y5045239D01*
X42445238Y4997620D01*
X42207142Y4997620D01*
X43238095Y41197620D02*
X42666666Y41197620D01*
X42952380Y41197620D02*
X42952380Y42197620D01*
X42857142Y42054762D01*
X42761904Y41959524D01*
X42666666Y41911905D01*
X43571428Y42197620D02*
X44238095Y42197620D01*
X43809523Y41197620D01*
X44619047Y41197620D02*
X44619047Y42197620D01*
X44952380Y41483334D01*
X45285714Y42197620D01*
X45285714Y41197620D01*
X42838095Y14397620D02*
X42266666Y14397620D01*
X42552380Y14397620D02*
X42552380Y15397620D01*
X42457142Y15254762D01*
X42361904Y15159524D01*
X42266666Y15111905D01*
X43742857Y15397620D02*
X43266666Y15397620D01*
X43219047Y14921429D01*
X43266666Y14969048D01*
X43361904Y15016667D01*
X43600000Y15016667D01*
X43695238Y14969048D01*
X43742857Y14921429D01*
X43790476Y14826191D01*
X43790476Y14588096D01*
X43742857Y14492858D01*
X43695238Y14445239D01*
X43600000Y14397620D01*
X43361904Y14397620D01*
X43266666Y14445239D01*
X43219047Y14492858D01*
X44219047Y14397620D02*
X44219047Y15397620D01*
X44552380Y14683334D01*
X44885714Y15397620D01*
X44885714Y14397620D01*
X6664285Y20997620D02*
X6997619Y19997620D01*
X7330952Y20997620D01*
X7664285Y19997620D02*
X7664285Y20997620D01*
X7902380Y20997620D01*
X8045238Y20950000D01*
X8140476Y20854762D01*
X8188095Y20759524D01*
X8235714Y20569048D01*
X8235714Y20426191D01*
X8188095Y20235715D01*
X8140476Y20140477D01*
X8045238Y20045239D01*
X7902380Y19997620D01*
X7664285Y19997620D01*
X8664285Y19997620D02*
X8664285Y20997620D01*
X8902380Y20997620D01*
X9045238Y20950000D01*
X9140476Y20854762D01*
X9188095Y20759524D01*
X9235714Y20569048D01*
X9235714Y20426191D01*
X9188095Y20235715D01*
X9140476Y20140477D01*
X9045238Y20045239D01*
X8902380Y19997620D01*
X8664285Y19997620D01*
X10188095Y19997620D02*
X9616666Y19997620D01*
X9902380Y19997620D02*
X9902380Y20997620D01*
X9807142Y20854762D01*
X9711904Y20759524D01*
X9616666Y20711905D01*
X10569047Y20902381D02*
X10616666Y20950000D01*
X10711904Y20997620D01*
X10950000Y20997620D01*
X11045238Y20950000D01*
X11092857Y20902381D01*
X11140476Y20807143D01*
X11140476Y20711905D01*
X11092857Y20569048D01*
X10521428Y19997620D01*
X11140476Y19997620D01*
X47538095Y109450000D02*
X47442857Y109497620D01*
X47300000Y109497620D01*
X47157142Y109450000D01*
X47061904Y109354762D01*
X47014285Y109259524D01*
X46966666Y109069048D01*
X46966666Y108926191D01*
X47014285Y108735715D01*
X47061904Y108640477D01*
X47157142Y108545239D01*
X47300000Y108497620D01*
X47395238Y108497620D01*
X47538095Y108545239D01*
X47585714Y108592858D01*
X47585714Y108926191D01*
X47395238Y108926191D01*
X48014285Y108497620D02*
X48014285Y109497620D01*
X48585714Y108497620D01*
X48585714Y109497620D01*
X49061904Y108497620D02*
X49061904Y109497620D01*
X49300000Y109497620D01*
X49442857Y109450000D01*
X49538095Y109354762D01*
X49585714Y109259524D01*
X49633333Y109069048D01*
X49633333Y108926191D01*
X49585714Y108735715D01*
X49538095Y108640477D01*
X49442857Y108545239D01*
X49300000Y108497620D01*
X49061904Y108497620D01*
X7016666Y44702381D02*
X7064285Y44750000D01*
X7159523Y44797620D01*
X7397619Y44797620D01*
X7492857Y44750000D01*
X7540476Y44702381D01*
X7588095Y44607143D01*
X7588095Y44511905D01*
X7540476Y44369048D01*
X6969047Y43797620D01*
X7588095Y43797620D01*
X8207142Y44797620D02*
X8302380Y44797620D01*
X8397619Y44750000D01*
X8445238Y44702381D01*
X8492857Y44607143D01*
X8540476Y44416667D01*
X8540476Y44178572D01*
X8492857Y43988096D01*
X8445238Y43892858D01*
X8397619Y43845239D01*
X8302380Y43797620D01*
X8207142Y43797620D01*
X8111904Y43845239D01*
X8064285Y43892858D01*
X8016666Y43988096D01*
X7969047Y44178572D01*
X7969047Y44416667D01*
X8016666Y44607143D01*
X8064285Y44702381D01*
X8111904Y44750000D01*
X8207142Y44797620D01*
X8969047Y43797620D02*
X8969047Y44797620D01*
X9302380Y44083334D01*
X9635714Y44797620D01*
X9635714Y43797620D01*
X49988095Y2550000D02*
X49892857Y2597620D01*
X49750000Y2597620D01*
X49607142Y2550000D01*
X49511904Y2454762D01*
X49464285Y2359524D01*
X49416666Y2169048D01*
X49416666Y2026191D01*
X49464285Y1835715D01*
X49511904Y1740477D01*
X49607142Y1645239D01*
X49750000Y1597620D01*
X49845238Y1597620D01*
X49988095Y1645239D01*
X50035714Y1692858D01*
X50035714Y2026191D01*
X49845238Y2026191D01*
X50464285Y1597620D02*
X50464285Y2597620D01*
X51035714Y1597620D01*
X51035714Y2597620D01*
X51511904Y1597620D02*
X51511904Y2597620D01*
X51750000Y2597620D01*
X51892857Y2550000D01*
X51988095Y2454762D01*
X52035714Y2359524D01*
X52083333Y2169048D01*
X52083333Y2026191D01*
X52035714Y1835715D01*
X51988095Y1740477D01*
X51892857Y1645239D01*
X51750000Y1597620D01*
X51511904Y1597620D01*
X21500000Y32407620D02*
X21500000Y33407620D01*
X21880952Y33407620D01*
X21976190Y33360000D01*
X22023809Y33312381D01*
X22071428Y33217143D01*
X22071428Y33074286D01*
X22023809Y32979048D01*
X21976190Y32931429D01*
X21880952Y32883810D01*
X21500000Y32883810D01*
X22500000Y32407620D02*
X22500000Y33074286D01*
X22500000Y32883810D02*
X22547619Y32979048D01*
X22595238Y33026667D01*
X22690476Y33074286D01*
X22785714Y33074286D01*
X23500000Y32455239D02*
X23404761Y32407620D01*
X23214285Y32407620D01*
X23119047Y32455239D01*
X23071428Y32550477D01*
X23071428Y32931429D01*
X23119047Y33026667D01*
X23214285Y33074286D01*
X23404761Y33074286D01*
X23500000Y33026667D01*
X23547619Y32931429D01*
X23547619Y32836191D01*
X23071428Y32740953D01*
X23928571Y32455239D02*
X24023809Y32407620D01*
X24214285Y32407620D01*
X24309523Y32455239D01*
X24357142Y32550477D01*
X24357142Y32598096D01*
X24309523Y32693334D01*
X24214285Y32740953D01*
X24071428Y32740953D01*
X23976190Y32788572D01*
X23928571Y32883810D01*
X23928571Y32931429D01*
X23976190Y33026667D01*
X24071428Y33074286D01*
X24214285Y33074286D01*
X24309523Y33026667D01*
X25166666Y32455239D02*
X25071428Y32407620D01*
X24880952Y32407620D01*
X24785714Y32455239D01*
X24738095Y32550477D01*
X24738095Y32931429D01*
X24785714Y33026667D01*
X24880952Y33074286D01*
X25071428Y33074286D01*
X25166666Y33026667D01*
X25214285Y32931429D01*
X25214285Y32836191D01*
X24738095Y32740953D01*
X25785714Y32407620D02*
X25690476Y32455239D01*
X25642857Y32550477D01*
X25642857Y33407620D01*
X26547619Y32455239D02*
X26452380Y32407620D01*
X26261904Y32407620D01*
X26166666Y32455239D01*
X26119047Y32550477D01*
X26119047Y32931429D01*
X26166666Y33026667D01*
X26261904Y33074286D01*
X26452380Y33074286D01*
X26547619Y33026667D01*
X26595238Y32931429D01*
X26595238Y32836191D01*
X26119047Y32740953D01*
X27452380Y32455239D02*
X27357142Y32407620D01*
X27166666Y32407620D01*
X27071428Y32455239D01*
X27023809Y32502858D01*
X26976190Y32598096D01*
X26976190Y32883810D01*
X27023809Y32979048D01*
X27071428Y33026667D01*
X27166666Y33074286D01*
X27357142Y33074286D01*
X27452380Y33026667D01*
X27738095Y33074286D02*
X28119047Y33074286D01*
X27880952Y33407620D02*
X27880952Y32550477D01*
X27928571Y32455239D01*
X28023809Y32407620D01*
X28119047Y32407620D01*
X28595238Y32407620D02*
X28500000Y32455239D01*
X28452380Y32502858D01*
X28404761Y32598096D01*
X28404761Y32883810D01*
X28452380Y32979048D01*
X28500000Y33026667D01*
X28595238Y33074286D01*
X28738095Y33074286D01*
X28833333Y33026667D01*
X28880952Y32979048D01*
X28928571Y32883810D01*
X28928571Y32598096D01*
X28880952Y32502858D01*
X28833333Y32455239D01*
X28738095Y32407620D01*
X28595238Y32407620D01*
X29357142Y32407620D02*
X29357142Y33074286D01*
X29357142Y32883810D02*
X29404761Y32979048D01*
X29452380Y33026667D01*
X29547619Y33074286D01*
X29642857Y33074286D01*
X23071428Y30797620D02*
X23071428Y31797620D01*
X23642857Y30797620D01*
X23642857Y31797620D01*
X24023809Y31797620D02*
X24690476Y31797620D01*
X24261904Y30797620D01*
X24976190Y31797620D02*
X25214285Y30797620D01*
X25404761Y31511905D01*
X25595238Y30797620D01*
X25833333Y31797620D01*
X26214285Y30797620D02*
X26214285Y31797620D01*
X26547619Y31083334D01*
X26880952Y31797620D01*
X26880952Y30797620D01*
X27357142Y30797620D02*
X27357142Y31797620D01*
X27928571Y30797620D01*
X27928571Y31797620D01*
X23952380Y29187620D02*
X23619047Y29663810D01*
X23380952Y29187620D02*
X23380952Y30187620D01*
X23761904Y30187620D01*
X23857142Y30140000D01*
X23904761Y30092381D01*
X23952380Y29997143D01*
X23952380Y29854286D01*
X23904761Y29759048D01*
X23857142Y29711429D01*
X23761904Y29663810D01*
X23380952Y29663810D01*
X24761904Y29235239D02*
X24666666Y29187620D01*
X24476190Y29187620D01*
X24380952Y29235239D01*
X24333333Y29330477D01*
X24333333Y29711429D01*
X24380952Y29806667D01*
X24476190Y29854286D01*
X24666666Y29854286D01*
X24761904Y29806667D01*
X24809523Y29711429D01*
X24809523Y29616191D01*
X24333333Y29520953D01*
X25142857Y29854286D02*
X25380952Y29187620D01*
X25619047Y29854286D01*
X26000000Y29282858D02*
X26047619Y29235239D01*
X26000000Y29187620D01*
X25952380Y29235239D01*
X26000000Y29282858D01*
X26000000Y29187620D01*
X27190476Y29473334D02*
X27666666Y29473334D01*
X27095238Y29187620D02*
X27428571Y30187620D01*
X27761904Y29187620D01*
X42016666Y67902381D02*
X42064285Y67950000D01*
X42159523Y67997620D01*
X42397619Y67997620D01*
X42492857Y67950000D01*
X42540476Y67902381D01*
X42588095Y67807143D01*
X42588095Y67711905D01*
X42540476Y67569048D01*
X41969047Y66997620D01*
X42588095Y66997620D01*
X43207142Y67997620D02*
X43302380Y67997620D01*
X43397619Y67950000D01*
X43445238Y67902381D01*
X43492857Y67807143D01*
X43540476Y67616667D01*
X43540476Y67378572D01*
X43492857Y67188096D01*
X43445238Y67092858D01*
X43397619Y67045239D01*
X43302380Y66997620D01*
X43207142Y66997620D01*
X43111904Y67045239D01*
X43064285Y67092858D01*
X43016666Y67188096D01*
X42969047Y67378572D01*
X42969047Y67616667D01*
X43016666Y67807143D01*
X43064285Y67902381D01*
X43111904Y67950000D01*
X43207142Y67997620D01*
X43969047Y66997620D02*
X43969047Y67997620D01*
X44302380Y67283334D01*
X44635714Y67997620D01*
X44635714Y66997620D01*
X35635714Y104364286D02*
X36016666Y104364286D01*
X35778571Y104697620D02*
X35778571Y103840477D01*
X35826190Y103745239D01*
X35921428Y103697620D01*
X36016666Y103697620D01*
X36492857Y103697620D02*
X36397619Y103745239D01*
X36350000Y103792858D01*
X36302380Y103888096D01*
X36302380Y104173810D01*
X36350000Y104269048D01*
X36397619Y104316667D01*
X36492857Y104364286D01*
X36635714Y104364286D01*
X36730952Y104316667D01*
X36778571Y104269048D01*
X36826190Y104173810D01*
X36826190Y103888096D01*
X36778571Y103792858D01*
X36730952Y103745239D01*
X36635714Y103697620D01*
X36492857Y103697620D01*
X37873809Y104697620D02*
X38445238Y104697620D01*
X38159523Y103697620D02*
X38159523Y104697620D01*
X39492857Y104745239D02*
X38635714Y103459524D01*
X40397619Y103697620D02*
X40064285Y104173810D01*
X39826190Y103697620D02*
X39826190Y104697620D01*
X40207142Y104697620D01*
X40302380Y104650000D01*
X40350000Y104602381D01*
X40397619Y104507143D01*
X40397619Y104364286D01*
X40350000Y104269048D01*
X40302380Y104221429D01*
X40207142Y104173810D01*
X39826190Y104173810D01*
X41540476Y103745239D02*
X41683333Y103697620D01*
X41921428Y103697620D01*
X42016666Y103745239D01*
X42064285Y103792858D01*
X42111904Y103888096D01*
X42111904Y103983334D01*
X42064285Y104078572D01*
X42016666Y104126191D01*
X41921428Y104173810D01*
X41730952Y104221429D01*
X41635714Y104269048D01*
X41588095Y104316667D01*
X41540476Y104411905D01*
X41540476Y104507143D01*
X41588095Y104602381D01*
X41635714Y104650000D01*
X41730952Y104697620D01*
X41969047Y104697620D01*
X42111904Y104650000D01*
X42445238Y104364286D02*
X42635714Y103697620D01*
X42826190Y104173810D01*
X43016666Y103697620D01*
X43207142Y104364286D01*
X43588095Y103697620D02*
X43588095Y104364286D01*
X43588095Y104697620D02*
X43540476Y104650000D01*
X43588095Y104602381D01*
X43635714Y104650000D01*
X43588095Y104697620D01*
X43588095Y104602381D01*
X43921428Y104364286D02*
X44302380Y104364286D01*
X44064285Y104697620D02*
X44064285Y103840477D01*
X44111904Y103745239D01*
X44207142Y103697620D01*
X44302380Y103697620D01*
X45064285Y103745239D02*
X44969047Y103697620D01*
X44778571Y103697620D01*
X44683333Y103745239D01*
X44635714Y103792858D01*
X44588095Y103888096D01*
X44588095Y104173810D01*
X44635714Y104269048D01*
X44683333Y104316667D01*
X44778571Y104364286D01*
X44969047Y104364286D01*
X45064285Y104316667D01*
X45492857Y103697620D02*
X45492857Y104697620D01*
X45921428Y103697620D02*
X45921428Y104221429D01*
X45873809Y104316667D01*
X45778571Y104364286D01*
X45635714Y104364286D01*
X45540476Y104316667D01*
X45492857Y104269048D01*
%TO.C,J3*%
X3266666Y9302620D02*
X3266666Y8588334D01*
X3219047Y8445477D01*
X3123809Y8350239D01*
X2980952Y8302620D01*
X2885714Y8302620D01*
X3647619Y9302620D02*
X4266666Y9302620D01*
X3933333Y8921667D01*
X4076190Y8921667D01*
X4171428Y8874048D01*
X4219047Y8826429D01*
X4266666Y8731191D01*
X4266666Y8493096D01*
X4219047Y8397858D01*
X4171428Y8350239D01*
X4076190Y8302620D01*
X3790476Y8302620D01*
X3695238Y8350239D01*
X3647619Y8397858D01*
%TO.C,J9*%
X22616666Y6597620D02*
X22616666Y5883334D01*
X22569047Y5740477D01*
X22473809Y5645239D01*
X22330952Y5597620D01*
X22235714Y5597620D01*
X23140476Y5597620D02*
X23330952Y5597620D01*
X23426190Y5645239D01*
X23473809Y5692858D01*
X23569047Y5835715D01*
X23616666Y6026191D01*
X23616666Y6407143D01*
X23569047Y6502381D01*
X23521428Y6550000D01*
X23426190Y6597620D01*
X23235714Y6597620D01*
X23140476Y6550000D01*
X23092857Y6502381D01*
X23045238Y6407143D01*
X23045238Y6169048D01*
X23092857Y6073810D01*
X23140476Y6026191D01*
X23235714Y5978572D01*
X23426190Y5978572D01*
X23521428Y6026191D01*
X23569047Y6073810D01*
X23616666Y6169048D01*
%TO.C,C7*%
X43383333Y100192858D02*
X43335714Y100145239D01*
X43192857Y100097620D01*
X43097619Y100097620D01*
X42954761Y100145239D01*
X42859523Y100240477D01*
X42811904Y100335715D01*
X42764285Y100526191D01*
X42764285Y100669048D01*
X42811904Y100859524D01*
X42859523Y100954762D01*
X42954761Y101050000D01*
X43097619Y101097620D01*
X43192857Y101097620D01*
X43335714Y101050000D01*
X43383333Y101002381D01*
X43716666Y101097620D02*
X44383333Y101097620D01*
X43954761Y100097620D01*
%TO.C,C1*%
X14783333Y86222858D02*
X14735714Y86175239D01*
X14592857Y86127620D01*
X14497619Y86127620D01*
X14354761Y86175239D01*
X14259523Y86270477D01*
X14211904Y86365715D01*
X14164285Y86556191D01*
X14164285Y86699048D01*
X14211904Y86889524D01*
X14259523Y86984762D01*
X14354761Y87080000D01*
X14497619Y87127620D01*
X14592857Y87127620D01*
X14735714Y87080000D01*
X14783333Y87032381D01*
X15735714Y86127620D02*
X15164285Y86127620D01*
X15450000Y86127620D02*
X15450000Y87127620D01*
X15354761Y86984762D01*
X15259523Y86889524D01*
X15164285Y86841905D01*
%TO.C,L6*%
X58933333Y39247620D02*
X58457142Y39247620D01*
X58457142Y40247620D01*
X59695238Y40247620D02*
X59504761Y40247620D01*
X59409523Y40200000D01*
X59361904Y40152381D01*
X59266666Y40009524D01*
X59219047Y39819048D01*
X59219047Y39438096D01*
X59266666Y39342858D01*
X59314285Y39295239D01*
X59409523Y39247620D01*
X59600000Y39247620D01*
X59695238Y39295239D01*
X59742857Y39342858D01*
X59790476Y39438096D01*
X59790476Y39676191D01*
X59742857Y39771429D01*
X59695238Y39819048D01*
X59600000Y39866667D01*
X59409523Y39866667D01*
X59314285Y39819048D01*
X59266666Y39771429D01*
X59219047Y39676191D01*
%TO.C,R5*%
X11383333Y100097620D02*
X11050000Y100573810D01*
X10811904Y100097620D02*
X10811904Y101097620D01*
X11192857Y101097620D01*
X11288095Y101050000D01*
X11335714Y101002381D01*
X11383333Y100907143D01*
X11383333Y100764286D01*
X11335714Y100669048D01*
X11288095Y100621429D01*
X11192857Y100573810D01*
X10811904Y100573810D01*
X12288095Y101097620D02*
X11811904Y101097620D01*
X11764285Y100621429D01*
X11811904Y100669048D01*
X11907142Y100716667D01*
X12145238Y100716667D01*
X12240476Y100669048D01*
X12288095Y100621429D01*
X12335714Y100526191D01*
X12335714Y100288096D01*
X12288095Y100192858D01*
X12240476Y100145239D01*
X12145238Y100097620D01*
X11907142Y100097620D01*
X11811904Y100145239D01*
X11764285Y100192858D01*
%TO.C,C5*%
X48383333Y92592858D02*
X48335714Y92545239D01*
X48192857Y92497620D01*
X48097619Y92497620D01*
X47954761Y92545239D01*
X47859523Y92640477D01*
X47811904Y92735715D01*
X47764285Y92926191D01*
X47764285Y93069048D01*
X47811904Y93259524D01*
X47859523Y93354762D01*
X47954761Y93450000D01*
X48097619Y93497620D01*
X48192857Y93497620D01*
X48335714Y93450000D01*
X48383333Y93402381D01*
X49288095Y93497620D02*
X48811904Y93497620D01*
X48764285Y93021429D01*
X48811904Y93069048D01*
X48907142Y93116667D01*
X49145238Y93116667D01*
X49240476Y93069048D01*
X49288095Y93021429D01*
X49335714Y92926191D01*
X49335714Y92688096D01*
X49288095Y92592858D01*
X49240476Y92545239D01*
X49145238Y92497620D01*
X48907142Y92497620D01*
X48811904Y92545239D01*
X48764285Y92592858D01*
%TO.C,J2*%
X53166666Y2697620D02*
X53166666Y1983334D01*
X53119047Y1840477D01*
X53023809Y1745239D01*
X52880952Y1697620D01*
X52785714Y1697620D01*
X53595238Y2602381D02*
X53642857Y2650000D01*
X53738095Y2697620D01*
X53976190Y2697620D01*
X54071428Y2650000D01*
X54119047Y2602381D01*
X54166666Y2507143D01*
X54166666Y2411905D01*
X54119047Y2269048D01*
X53547619Y1697620D01*
X54166666Y1697620D01*
%TO.C,R9*%
X11583333Y48797620D02*
X11250000Y49273810D01*
X11011904Y48797620D02*
X11011904Y49797620D01*
X11392857Y49797620D01*
X11488095Y49750000D01*
X11535714Y49702381D01*
X11583333Y49607143D01*
X11583333Y49464286D01*
X11535714Y49369048D01*
X11488095Y49321429D01*
X11392857Y49273810D01*
X11011904Y49273810D01*
X12059523Y48797620D02*
X12250000Y48797620D01*
X12345238Y48845239D01*
X12392857Y48892858D01*
X12488095Y49035715D01*
X12535714Y49226191D01*
X12535714Y49607143D01*
X12488095Y49702381D01*
X12440476Y49750000D01*
X12345238Y49797620D01*
X12154761Y49797620D01*
X12059523Y49750000D01*
X12011904Y49702381D01*
X11964285Y49607143D01*
X11964285Y49369048D01*
X12011904Y49273810D01*
X12059523Y49226191D01*
X12154761Y49178572D01*
X12345238Y49178572D01*
X12440476Y49226191D01*
X12488095Y49273810D01*
X12535714Y49369048D01*
%TO.C,C13*%
X43057142Y33680358D02*
X43009523Y33632739D01*
X42866666Y33585120D01*
X42771428Y33585120D01*
X42628571Y33632739D01*
X42533333Y33727977D01*
X42485714Y33823215D01*
X42438095Y34013691D01*
X42438095Y34156548D01*
X42485714Y34347024D01*
X42533333Y34442262D01*
X42628571Y34537500D01*
X42771428Y34585120D01*
X42866666Y34585120D01*
X43009523Y34537500D01*
X43057142Y34489881D01*
X44009523Y33585120D02*
X43438095Y33585120D01*
X43723809Y33585120D02*
X43723809Y34585120D01*
X43628571Y34442262D01*
X43533333Y34347024D01*
X43438095Y34299405D01*
X44342857Y34585120D02*
X44961904Y34585120D01*
X44628571Y34204167D01*
X44771428Y34204167D01*
X44866666Y34156548D01*
X44914285Y34108929D01*
X44961904Y34013691D01*
X44961904Y33775596D01*
X44914285Y33680358D01*
X44866666Y33632739D01*
X44771428Y33585120D01*
X44485714Y33585120D01*
X44390476Y33632739D01*
X44342857Y33680358D01*
%TO.C,C4*%
X43233333Y59242858D02*
X43185714Y59195239D01*
X43042857Y59147620D01*
X42947619Y59147620D01*
X42804761Y59195239D01*
X42709523Y59290477D01*
X42661904Y59385715D01*
X42614285Y59576191D01*
X42614285Y59719048D01*
X42661904Y59909524D01*
X42709523Y60004762D01*
X42804761Y60100000D01*
X42947619Y60147620D01*
X43042857Y60147620D01*
X43185714Y60100000D01*
X43233333Y60052381D01*
X44090476Y59814286D02*
X44090476Y59147620D01*
X43852380Y60195239D02*
X43614285Y59480953D01*
X44233333Y59480953D01*
%TO.C,Q3*%
X25704761Y76902381D02*
X25609523Y76950000D01*
X25514285Y77045239D01*
X25371428Y77188096D01*
X25276190Y77235715D01*
X25180952Y77235715D01*
X25228571Y76997620D02*
X25133333Y77045239D01*
X25038095Y77140477D01*
X24990476Y77330953D01*
X24990476Y77664286D01*
X25038095Y77854762D01*
X25133333Y77950000D01*
X25228571Y77997620D01*
X25419047Y77997620D01*
X25514285Y77950000D01*
X25609523Y77854762D01*
X25657142Y77664286D01*
X25657142Y77330953D01*
X25609523Y77140477D01*
X25514285Y77045239D01*
X25419047Y76997620D01*
X25228571Y76997620D01*
X25990476Y77997620D02*
X26609523Y77997620D01*
X26276190Y77616667D01*
X26419047Y77616667D01*
X26514285Y77569048D01*
X26561904Y77521429D01*
X26609523Y77426191D01*
X26609523Y77188096D01*
X26561904Y77092858D01*
X26514285Y77045239D01*
X26419047Y76997620D01*
X26133333Y76997620D01*
X26038095Y77045239D01*
X25990476Y77092858D01*
%TO.C,L7*%
X59383333Y27247620D02*
X58907142Y27247620D01*
X58907142Y28247620D01*
X59621428Y28247620D02*
X60288095Y28247620D01*
X59859523Y27247620D01*
%TO.C,J6*%
X4316666Y27552620D02*
X4316666Y26838334D01*
X4269047Y26695477D01*
X4173809Y26600239D01*
X4030952Y26552620D01*
X3935714Y26552620D01*
X5221428Y27552620D02*
X5030952Y27552620D01*
X4935714Y27505000D01*
X4888095Y27457381D01*
X4792857Y27314524D01*
X4745238Y27124048D01*
X4745238Y26743096D01*
X4792857Y26647858D01*
X4840476Y26600239D01*
X4935714Y26552620D01*
X5126190Y26552620D01*
X5221428Y26600239D01*
X5269047Y26647858D01*
X5316666Y26743096D01*
X5316666Y26981191D01*
X5269047Y27076429D01*
X5221428Y27124048D01*
X5126190Y27171667D01*
X4935714Y27171667D01*
X4840476Y27124048D01*
X4792857Y27076429D01*
X4745238Y26981191D01*
%TO.C,L3*%
X58733333Y103897620D02*
X58257142Y103897620D01*
X58257142Y104897620D01*
X58971428Y104897620D02*
X59590476Y104897620D01*
X59257142Y104516667D01*
X59400000Y104516667D01*
X59495238Y104469048D01*
X59542857Y104421429D01*
X59590476Y104326191D01*
X59590476Y104088096D01*
X59542857Y103992858D01*
X59495238Y103945239D01*
X59400000Y103897620D01*
X59114285Y103897620D01*
X59019047Y103945239D01*
X58971428Y103992858D01*
%TO.C,L2*%
X59083333Y65197620D02*
X58607142Y65197620D01*
X58607142Y66197620D01*
X59369047Y66102381D02*
X59416666Y66150000D01*
X59511904Y66197620D01*
X59750000Y66197620D01*
X59845238Y66150000D01*
X59892857Y66102381D01*
X59940476Y66007143D01*
X59940476Y65911905D01*
X59892857Y65769048D01*
X59321428Y65197620D01*
X59940476Y65197620D01*
%TO.C,C17*%
X42907142Y48592858D02*
X42859523Y48545239D01*
X42716666Y48497620D01*
X42621428Y48497620D01*
X42478571Y48545239D01*
X42383333Y48640477D01*
X42335714Y48735715D01*
X42288095Y48926191D01*
X42288095Y49069048D01*
X42335714Y49259524D01*
X42383333Y49354762D01*
X42478571Y49450000D01*
X42621428Y49497620D01*
X42716666Y49497620D01*
X42859523Y49450000D01*
X42907142Y49402381D01*
X43859523Y48497620D02*
X43288095Y48497620D01*
X43573809Y48497620D02*
X43573809Y49497620D01*
X43478571Y49354762D01*
X43383333Y49259524D01*
X43288095Y49211905D01*
X44192857Y49497620D02*
X44859523Y49497620D01*
X44430952Y48497620D01*
%TO.C,R7*%
X11495833Y52097620D02*
X11162500Y52573810D01*
X10924404Y52097620D02*
X10924404Y53097620D01*
X11305357Y53097620D01*
X11400595Y53050000D01*
X11448214Y53002381D01*
X11495833Y52907143D01*
X11495833Y52764286D01*
X11448214Y52669048D01*
X11400595Y52621429D01*
X11305357Y52573810D01*
X10924404Y52573810D01*
X11829166Y53097620D02*
X12495833Y53097620D01*
X12067261Y52097620D01*
%TO.C,J5*%
X2816666Y110652620D02*
X2816666Y109938334D01*
X2769047Y109795477D01*
X2673809Y109700239D01*
X2530952Y109652620D01*
X2435714Y109652620D01*
X3769047Y110652620D02*
X3292857Y110652620D01*
X3245238Y110176429D01*
X3292857Y110224048D01*
X3388095Y110271667D01*
X3626190Y110271667D01*
X3721428Y110224048D01*
X3769047Y110176429D01*
X3816666Y110081191D01*
X3816666Y109843096D01*
X3769047Y109747858D01*
X3721428Y109700239D01*
X3626190Y109652620D01*
X3388095Y109652620D01*
X3292857Y109700239D01*
X3245238Y109747858D01*
%TO.C,C15*%
X48557142Y40842858D02*
X48509523Y40795239D01*
X48366666Y40747620D01*
X48271428Y40747620D01*
X48128571Y40795239D01*
X48033333Y40890477D01*
X47985714Y40985715D01*
X47938095Y41176191D01*
X47938095Y41319048D01*
X47985714Y41509524D01*
X48033333Y41604762D01*
X48128571Y41700000D01*
X48271428Y41747620D01*
X48366666Y41747620D01*
X48509523Y41700000D01*
X48557142Y41652381D01*
X49509523Y40747620D02*
X48938095Y40747620D01*
X49223809Y40747620D02*
X49223809Y41747620D01*
X49128571Y41604762D01*
X49033333Y41509524D01*
X48938095Y41461905D01*
X50414285Y41747620D02*
X49938095Y41747620D01*
X49890476Y41271429D01*
X49938095Y41319048D01*
X50033333Y41366667D01*
X50271428Y41366667D01*
X50366666Y41319048D01*
X50414285Y41271429D01*
X50461904Y41176191D01*
X50461904Y40938096D01*
X50414285Y40842858D01*
X50366666Y40795239D01*
X50271428Y40747620D01*
X50033333Y40747620D01*
X49938095Y40795239D01*
X49890476Y40842858D01*
%TO.C,L5*%
X59583333Y13947620D02*
X59107142Y13947620D01*
X59107142Y14947620D01*
X60392857Y14947620D02*
X59916666Y14947620D01*
X59869047Y14471429D01*
X59916666Y14519048D01*
X60011904Y14566667D01*
X60250000Y14566667D01*
X60345238Y14519048D01*
X60392857Y14471429D01*
X60440476Y14376191D01*
X60440476Y14138096D01*
X60392857Y14042858D01*
X60345238Y13995239D01*
X60250000Y13947620D01*
X60011904Y13947620D01*
X59916666Y13995239D01*
X59869047Y14042858D01*
%TO.C,Q5*%
X24804761Y23752381D02*
X24709523Y23800000D01*
X24614285Y23895239D01*
X24471428Y24038096D01*
X24376190Y24085715D01*
X24280952Y24085715D01*
X24328571Y23847620D02*
X24233333Y23895239D01*
X24138095Y23990477D01*
X24090476Y24180953D01*
X24090476Y24514286D01*
X24138095Y24704762D01*
X24233333Y24800000D01*
X24328571Y24847620D01*
X24519047Y24847620D01*
X24614285Y24800000D01*
X24709523Y24704762D01*
X24757142Y24514286D01*
X24757142Y24180953D01*
X24709523Y23990477D01*
X24614285Y23895239D01*
X24519047Y23847620D01*
X24328571Y23847620D01*
X25661904Y24847620D02*
X25185714Y24847620D01*
X25138095Y24371429D01*
X25185714Y24419048D01*
X25280952Y24466667D01*
X25519047Y24466667D01*
X25614285Y24419048D01*
X25661904Y24371429D01*
X25709523Y24276191D01*
X25709523Y24038096D01*
X25661904Y23942858D01*
X25614285Y23895239D01*
X25519047Y23847620D01*
X25280952Y23847620D01*
X25185714Y23895239D01*
X25138095Y23942858D01*
%TO.C,J7*%
X32366666Y6647620D02*
X32366666Y5933334D01*
X32319047Y5790477D01*
X32223809Y5695239D01*
X32080952Y5647620D01*
X31985714Y5647620D01*
X32747619Y6647620D02*
X33414285Y6647620D01*
X32985714Y5647620D01*
%TO.C,J10*%
X44275476Y106597620D02*
X44275476Y105883334D01*
X44227857Y105740477D01*
X44132619Y105645239D01*
X43989761Y105597620D01*
X43894523Y105597620D01*
X45275476Y105597620D02*
X44704047Y105597620D01*
X44989761Y105597620D02*
X44989761Y106597620D01*
X44894523Y106454762D01*
X44799285Y106359524D01*
X44704047Y106311905D01*
X45894523Y106597620D02*
X45989761Y106597620D01*
X46085000Y106550000D01*
X46132619Y106502381D01*
X46180238Y106407143D01*
X46227857Y106216667D01*
X46227857Y105978572D01*
X46180238Y105788096D01*
X46132619Y105692858D01*
X46085000Y105645239D01*
X45989761Y105597620D01*
X45894523Y105597620D01*
X45799285Y105645239D01*
X45751666Y105692858D01*
X45704047Y105788096D01*
X45656428Y105978572D01*
X45656428Y106216667D01*
X45704047Y106407143D01*
X45751666Y106502381D01*
X45799285Y106550000D01*
X45894523Y106597620D01*
%TO.C,D4*%
X10711904Y15747620D02*
X10711904Y16747620D01*
X10950000Y16747620D01*
X11092857Y16700000D01*
X11188095Y16604762D01*
X11235714Y16509524D01*
X11283333Y16319048D01*
X11283333Y16176191D01*
X11235714Y15985715D01*
X11188095Y15890477D01*
X11092857Y15795239D01*
X10950000Y15747620D01*
X10711904Y15747620D01*
X12140476Y16414286D02*
X12140476Y15747620D01*
X11902380Y16795239D02*
X11664285Y16080953D01*
X12283333Y16080953D01*
X11638095Y11047620D02*
X11638095Y12047620D01*
X12209523Y11047620D02*
X11780952Y11619048D01*
X12209523Y12047620D02*
X11638095Y11476191D01*
%TO.C,K3*%
X23011904Y47447620D02*
X23011904Y48447620D01*
X23583333Y47447620D02*
X23154761Y48019048D01*
X23583333Y48447620D02*
X23011904Y47876191D01*
X23916666Y48447620D02*
X24535714Y48447620D01*
X24202380Y48066667D01*
X24345238Y48066667D01*
X24440476Y48019048D01*
X24488095Y47971429D01*
X24535714Y47876191D01*
X24535714Y47638096D01*
X24488095Y47542858D01*
X24440476Y47495239D01*
X24345238Y47447620D01*
X24059523Y47447620D01*
X23964285Y47495239D01*
X23916666Y47542858D01*
%TO.C,R2*%
X11383333Y105897620D02*
X11050000Y106373810D01*
X10811904Y105897620D02*
X10811904Y106897620D01*
X11192857Y106897620D01*
X11288095Y106850000D01*
X11335714Y106802381D01*
X11383333Y106707143D01*
X11383333Y106564286D01*
X11335714Y106469048D01*
X11288095Y106421429D01*
X11192857Y106373810D01*
X10811904Y106373810D01*
X11764285Y106802381D02*
X11811904Y106850000D01*
X11907142Y106897620D01*
X12145238Y106897620D01*
X12240476Y106850000D01*
X12288095Y106802381D01*
X12335714Y106707143D01*
X12335714Y106611905D01*
X12288095Y106469048D01*
X11716666Y105897620D01*
X12335714Y105897620D01*
%TO.C,L1*%
X58883333Y91347620D02*
X58407142Y91347620D01*
X58407142Y92347620D01*
X59740476Y91347620D02*
X59169047Y91347620D01*
X59454761Y91347620D02*
X59454761Y92347620D01*
X59359523Y92204762D01*
X59264285Y92109524D01*
X59169047Y92061905D01*
%TO.C,D1*%
X10811904Y93897620D02*
X10811904Y94897620D01*
X11050000Y94897620D01*
X11192857Y94850000D01*
X11288095Y94754762D01*
X11335714Y94659524D01*
X11383333Y94469048D01*
X11383333Y94326191D01*
X11335714Y94135715D01*
X11288095Y94040477D01*
X11192857Y93945239D01*
X11050000Y93897620D01*
X10811904Y93897620D01*
X12335714Y93897620D02*
X11764285Y93897620D01*
X12050000Y93897620D02*
X12050000Y94897620D01*
X11954761Y94754762D01*
X11859523Y94659524D01*
X11764285Y94611905D01*
X11488095Y89297620D02*
X11488095Y90297620D01*
X12059523Y89297620D02*
X11630952Y89869048D01*
X12059523Y90297620D02*
X11488095Y89726191D01*
%TO.C,C14*%
X48894642Y15342858D02*
X48847023Y15295239D01*
X48704166Y15247620D01*
X48608928Y15247620D01*
X48466071Y15295239D01*
X48370833Y15390477D01*
X48323214Y15485715D01*
X48275595Y15676191D01*
X48275595Y15819048D01*
X48323214Y16009524D01*
X48370833Y16104762D01*
X48466071Y16200000D01*
X48608928Y16247620D01*
X48704166Y16247620D01*
X48847023Y16200000D01*
X48894642Y16152381D01*
X49847023Y15247620D02*
X49275595Y15247620D01*
X49561309Y15247620D02*
X49561309Y16247620D01*
X49466071Y16104762D01*
X49370833Y16009524D01*
X49275595Y15961905D01*
X50704166Y15914286D02*
X50704166Y15247620D01*
X50466071Y16295239D02*
X50227976Y15580953D01*
X50847023Y15580953D01*
%TO.C,C11*%
X14119642Y8522858D02*
X14072023Y8475239D01*
X13929166Y8427620D01*
X13833928Y8427620D01*
X13691071Y8475239D01*
X13595833Y8570477D01*
X13548214Y8665715D01*
X13500595Y8856191D01*
X13500595Y8999048D01*
X13548214Y9189524D01*
X13595833Y9284762D01*
X13691071Y9380000D01*
X13833928Y9427620D01*
X13929166Y9427620D01*
X14072023Y9380000D01*
X14119642Y9332381D01*
X15072023Y8427620D02*
X14500595Y8427620D01*
X14786309Y8427620D02*
X14786309Y9427620D01*
X14691071Y9284762D01*
X14595833Y9189524D01*
X14500595Y9141905D01*
X16024404Y8427620D02*
X15452976Y8427620D01*
X15738690Y8427620D02*
X15738690Y9427620D01*
X15643452Y9284762D01*
X15548214Y9189524D01*
X15452976Y9141905D01*
%TO.C,C3*%
X43733333Y84442858D02*
X43685714Y84395239D01*
X43542857Y84347620D01*
X43447619Y84347620D01*
X43304761Y84395239D01*
X43209523Y84490477D01*
X43161904Y84585715D01*
X43114285Y84776191D01*
X43114285Y84919048D01*
X43161904Y85109524D01*
X43209523Y85204762D01*
X43304761Y85300000D01*
X43447619Y85347620D01*
X43542857Y85347620D01*
X43685714Y85300000D01*
X43733333Y85252381D01*
X44066666Y85347620D02*
X44685714Y85347620D01*
X44352380Y84966667D01*
X44495238Y84966667D01*
X44590476Y84919048D01*
X44638095Y84871429D01*
X44685714Y84776191D01*
X44685714Y84538096D01*
X44638095Y84442858D01*
X44590476Y84395239D01*
X44495238Y84347620D01*
X44209523Y84347620D01*
X44114285Y84395239D01*
X44066666Y84442858D01*
%TO.C,R3*%
X11183333Y102997620D02*
X10850000Y103473810D01*
X10611904Y102997620D02*
X10611904Y103997620D01*
X10992857Y103997620D01*
X11088095Y103950000D01*
X11135714Y103902381D01*
X11183333Y103807143D01*
X11183333Y103664286D01*
X11135714Y103569048D01*
X11088095Y103521429D01*
X10992857Y103473810D01*
X10611904Y103473810D01*
X11516666Y103997620D02*
X12135714Y103997620D01*
X11802380Y103616667D01*
X11945238Y103616667D01*
X12040476Y103569048D01*
X12088095Y103521429D01*
X12135714Y103426191D01*
X12135714Y103188096D01*
X12088095Y103092858D01*
X12040476Y103045239D01*
X11945238Y102997620D01*
X11659523Y102997620D01*
X11564285Y103045239D01*
X11516666Y103092858D01*
%TO.C,C10*%
X14157142Y34122858D02*
X14109523Y34075239D01*
X13966666Y34027620D01*
X13871428Y34027620D01*
X13728571Y34075239D01*
X13633333Y34170477D01*
X13585714Y34265715D01*
X13538095Y34456191D01*
X13538095Y34599048D01*
X13585714Y34789524D01*
X13633333Y34884762D01*
X13728571Y34980000D01*
X13871428Y35027620D01*
X13966666Y35027620D01*
X14109523Y34980000D01*
X14157142Y34932381D01*
X15109523Y34027620D02*
X14538095Y34027620D01*
X14823809Y34027620D02*
X14823809Y35027620D01*
X14728571Y34884762D01*
X14633333Y34789524D01*
X14538095Y34741905D01*
X15728571Y35027620D02*
X15823809Y35027620D01*
X15919047Y34980000D01*
X15966666Y34932381D01*
X16014285Y34837143D01*
X16061904Y34646667D01*
X16061904Y34408572D01*
X16014285Y34218096D01*
X15966666Y34122858D01*
X15919047Y34075239D01*
X15823809Y34027620D01*
X15728571Y34027620D01*
X15633333Y34075239D01*
X15585714Y34122858D01*
X15538095Y34218096D01*
X15490476Y34408572D01*
X15490476Y34646667D01*
X15538095Y34837143D01*
X15585714Y34932381D01*
X15633333Y34980000D01*
X15728571Y35027620D01*
%TO.C,J8*%
X29616666Y108347620D02*
X29616666Y107633334D01*
X29569047Y107490477D01*
X29473809Y107395239D01*
X29330952Y107347620D01*
X29235714Y107347620D01*
X30235714Y107919048D02*
X30140476Y107966667D01*
X30092857Y108014286D01*
X30045238Y108109524D01*
X30045238Y108157143D01*
X30092857Y108252381D01*
X30140476Y108300000D01*
X30235714Y108347620D01*
X30426190Y108347620D01*
X30521428Y108300000D01*
X30569047Y108252381D01*
X30616666Y108157143D01*
X30616666Y108109524D01*
X30569047Y108014286D01*
X30521428Y107966667D01*
X30426190Y107919048D01*
X30235714Y107919048D01*
X30140476Y107871429D01*
X30092857Y107823810D01*
X30045238Y107728572D01*
X30045238Y107538096D01*
X30092857Y107442858D01*
X30140476Y107395239D01*
X30235714Y107347620D01*
X30426190Y107347620D01*
X30521428Y107395239D01*
X30569047Y107442858D01*
X30616666Y107538096D01*
X30616666Y107728572D01*
X30569047Y107823810D01*
X30521428Y107871429D01*
X30426190Y107919048D01*
%TO.C,C6*%
X47783333Y66842858D02*
X47735714Y66795239D01*
X47592857Y66747620D01*
X47497619Y66747620D01*
X47354761Y66795239D01*
X47259523Y66890477D01*
X47211904Y66985715D01*
X47164285Y67176191D01*
X47164285Y67319048D01*
X47211904Y67509524D01*
X47259523Y67604762D01*
X47354761Y67700000D01*
X47497619Y67747620D01*
X47592857Y67747620D01*
X47735714Y67700000D01*
X47783333Y67652381D01*
X48640476Y67747620D02*
X48450000Y67747620D01*
X48354761Y67700000D01*
X48307142Y67652381D01*
X48211904Y67509524D01*
X48164285Y67319048D01*
X48164285Y66938096D01*
X48211904Y66842858D01*
X48259523Y66795239D01*
X48354761Y66747620D01*
X48545238Y66747620D01*
X48640476Y66795239D01*
X48688095Y66842858D01*
X48735714Y66938096D01*
X48735714Y67176191D01*
X48688095Y67271429D01*
X48640476Y67319048D01*
X48545238Y67366667D01*
X48354761Y67366667D01*
X48259523Y67319048D01*
X48211904Y67271429D01*
X48164285Y67176191D01*
%TO.C,J1*%
X4066666Y52207620D02*
X4066666Y51493334D01*
X4019047Y51350477D01*
X3923809Y51255239D01*
X3780952Y51207620D01*
X3685714Y51207620D01*
X5066666Y51207620D02*
X4495238Y51207620D01*
X4780952Y51207620D02*
X4780952Y52207620D01*
X4685714Y52064762D01*
X4590476Y51969524D01*
X4495238Y51921905D01*
%TO.C,D3*%
X11511904Y42697620D02*
X11511904Y43697620D01*
X11750000Y43697620D01*
X11892857Y43650000D01*
X11988095Y43554762D01*
X12035714Y43459524D01*
X12083333Y43269048D01*
X12083333Y43126191D01*
X12035714Y42935715D01*
X11988095Y42840477D01*
X11892857Y42745239D01*
X11750000Y42697620D01*
X11511904Y42697620D01*
X12416666Y43697620D02*
X13035714Y43697620D01*
X12702380Y43316667D01*
X12845238Y43316667D01*
X12940476Y43269048D01*
X12988095Y43221429D01*
X13035714Y43126191D01*
X13035714Y42888096D01*
X12988095Y42792858D01*
X12940476Y42745239D01*
X12845238Y42697620D01*
X12559523Y42697620D01*
X12464285Y42745239D01*
X12416666Y42792858D01*
X11488095Y36897620D02*
X11488095Y37897620D01*
X12059523Y36897620D02*
X11630952Y37469048D01*
X12059523Y37897620D02*
X11488095Y37326191D01*
%TO.C,C12*%
X42857142Y7592858D02*
X42809523Y7545239D01*
X42666666Y7497620D01*
X42571428Y7497620D01*
X42428571Y7545239D01*
X42333333Y7640477D01*
X42285714Y7735715D01*
X42238095Y7926191D01*
X42238095Y8069048D01*
X42285714Y8259524D01*
X42333333Y8354762D01*
X42428571Y8450000D01*
X42571428Y8497620D01*
X42666666Y8497620D01*
X42809523Y8450000D01*
X42857142Y8402381D01*
X43809523Y7497620D02*
X43238095Y7497620D01*
X43523809Y7497620D02*
X43523809Y8497620D01*
X43428571Y8354762D01*
X43333333Y8259524D01*
X43238095Y8211905D01*
X44190476Y8402381D02*
X44238095Y8450000D01*
X44333333Y8497620D01*
X44571428Y8497620D01*
X44666666Y8450000D01*
X44714285Y8402381D01*
X44761904Y8307143D01*
X44761904Y8211905D01*
X44714285Y8069048D01*
X44142857Y7497620D01*
X44761904Y7497620D01*
%TO.C,L8*%
X58583333Y53097620D02*
X58107142Y53097620D01*
X58107142Y54097620D01*
X59059523Y53669048D02*
X58964285Y53716667D01*
X58916666Y53764286D01*
X58869047Y53859524D01*
X58869047Y53907143D01*
X58916666Y54002381D01*
X58964285Y54050000D01*
X59059523Y54097620D01*
X59250000Y54097620D01*
X59345238Y54050000D01*
X59392857Y54002381D01*
X59440476Y53907143D01*
X59440476Y53859524D01*
X59392857Y53764286D01*
X59345238Y53716667D01*
X59250000Y53669048D01*
X59059523Y53669048D01*
X58964285Y53621429D01*
X58916666Y53573810D01*
X58869047Y53478572D01*
X58869047Y53288096D01*
X58916666Y53192858D01*
X58964285Y53145239D01*
X59059523Y53097620D01*
X59250000Y53097620D01*
X59345238Y53145239D01*
X59392857Y53192858D01*
X59440476Y53288096D01*
X59440476Y53478572D01*
X59392857Y53573810D01*
X59345238Y53621429D01*
X59250000Y53669048D01*
%TO.C,K4*%
X23511904Y21397620D02*
X23511904Y22397620D01*
X24083333Y21397620D02*
X23654761Y21969048D01*
X24083333Y22397620D02*
X23511904Y21826191D01*
X24940476Y22064286D02*
X24940476Y21397620D01*
X24702380Y22445239D02*
X24464285Y21730953D01*
X25083333Y21730953D01*
%TO.C,C9*%
X4483333Y18172858D02*
X4435714Y18125239D01*
X4292857Y18077620D01*
X4197619Y18077620D01*
X4054761Y18125239D01*
X3959523Y18220477D01*
X3911904Y18315715D01*
X3864285Y18506191D01*
X3864285Y18649048D01*
X3911904Y18839524D01*
X3959523Y18934762D01*
X4054761Y19030000D01*
X4197619Y19077620D01*
X4292857Y19077620D01*
X4435714Y19030000D01*
X4483333Y18982381D01*
X4959523Y18077620D02*
X5150000Y18077620D01*
X5245238Y18125239D01*
X5292857Y18172858D01*
X5388095Y18315715D01*
X5435714Y18506191D01*
X5435714Y18887143D01*
X5388095Y18982381D01*
X5340476Y19030000D01*
X5245238Y19077620D01*
X5054761Y19077620D01*
X4959523Y19030000D01*
X4911904Y18982381D01*
X4864285Y18887143D01*
X4864285Y18649048D01*
X4911904Y18553810D01*
X4959523Y18506191D01*
X5054761Y18458572D01*
X5245238Y18458572D01*
X5340476Y18506191D01*
X5388095Y18553810D01*
X5435714Y18649048D01*
%TO.C,Q4*%
X25704761Y50002381D02*
X25609523Y50050000D01*
X25514285Y50145239D01*
X25371428Y50288096D01*
X25276190Y50335715D01*
X25180952Y50335715D01*
X25228571Y50097620D02*
X25133333Y50145239D01*
X25038095Y50240477D01*
X24990476Y50430953D01*
X24990476Y50764286D01*
X25038095Y50954762D01*
X25133333Y51050000D01*
X25228571Y51097620D01*
X25419047Y51097620D01*
X25514285Y51050000D01*
X25609523Y50954762D01*
X25657142Y50764286D01*
X25657142Y50430953D01*
X25609523Y50240477D01*
X25514285Y50145239D01*
X25419047Y50097620D01*
X25228571Y50097620D01*
X26514285Y50764286D02*
X26514285Y50097620D01*
X26276190Y51145239D02*
X26038095Y50430953D01*
X26657142Y50430953D01*
%TO.C,K1*%
X22411904Y99097620D02*
X22411904Y100097620D01*
X22983333Y99097620D02*
X22554761Y99669048D01*
X22983333Y100097620D02*
X22411904Y99526191D01*
X23935714Y99097620D02*
X23364285Y99097620D01*
X23650000Y99097620D02*
X23650000Y100097620D01*
X23554761Y99954762D01*
X23459523Y99859524D01*
X23364285Y99811905D01*
%TO.C,L4*%
X58783333Y79147620D02*
X58307142Y79147620D01*
X58307142Y80147620D01*
X59545238Y79814286D02*
X59545238Y79147620D01*
X59307142Y80195239D02*
X59069047Y79480953D01*
X59688095Y79480953D01*
%TO.C,J4*%
X51066666Y109247620D02*
X51066666Y108533334D01*
X51019047Y108390477D01*
X50923809Y108295239D01*
X50780952Y108247620D01*
X50685714Y108247620D01*
X51971428Y108914286D02*
X51971428Y108247620D01*
X51733333Y109295239D02*
X51495238Y108580953D01*
X52114285Y108580953D01*
%TO.C,C2*%
X14633333Y60822858D02*
X14585714Y60775239D01*
X14442857Y60727620D01*
X14347619Y60727620D01*
X14204761Y60775239D01*
X14109523Y60870477D01*
X14061904Y60965715D01*
X14014285Y61156191D01*
X14014285Y61299048D01*
X14061904Y61489524D01*
X14109523Y61584762D01*
X14204761Y61680000D01*
X14347619Y61727620D01*
X14442857Y61727620D01*
X14585714Y61680000D01*
X14633333Y61632381D01*
X15014285Y61632381D02*
X15061904Y61680000D01*
X15157142Y61727620D01*
X15395238Y61727620D01*
X15490476Y61680000D01*
X15538095Y61632381D01*
X15585714Y61537143D01*
X15585714Y61441905D01*
X15538095Y61299048D01*
X14966666Y60727620D01*
X15585714Y60727620D01*
%TO.C,Q1*%
X24454761Y107502381D02*
X24359523Y107550000D01*
X24264285Y107645239D01*
X24121428Y107788096D01*
X24026190Y107835715D01*
X23930952Y107835715D01*
X23978571Y107597620D02*
X23883333Y107645239D01*
X23788095Y107740477D01*
X23740476Y107930953D01*
X23740476Y108264286D01*
X23788095Y108454762D01*
X23883333Y108550000D01*
X23978571Y108597620D01*
X24169047Y108597620D01*
X24264285Y108550000D01*
X24359523Y108454762D01*
X24407142Y108264286D01*
X24407142Y107930953D01*
X24359523Y107740477D01*
X24264285Y107645239D01*
X24169047Y107597620D01*
X23978571Y107597620D01*
X25359523Y107597620D02*
X24788095Y107597620D01*
X25073809Y107597620D02*
X25073809Y108597620D01*
X24978571Y108454762D01*
X24883333Y108359524D01*
X24788095Y108311905D01*
%TO.C,K2*%
X22511904Y73497620D02*
X22511904Y74497620D01*
X23083333Y73497620D02*
X22654761Y74069048D01*
X23083333Y74497620D02*
X22511904Y73926191D01*
X23464285Y74402381D02*
X23511904Y74450000D01*
X23607142Y74497620D01*
X23845238Y74497620D01*
X23940476Y74450000D01*
X23988095Y74402381D01*
X24035714Y74307143D01*
X24035714Y74211905D01*
X23988095Y74069048D01*
X23416666Y73497620D01*
X24035714Y73497620D01*
%TO.C,R6*%
X12183333Y75997620D02*
X11850000Y76473810D01*
X11611904Y75997620D02*
X11611904Y76997620D01*
X11992857Y76997620D01*
X12088095Y76950000D01*
X12135714Y76902381D01*
X12183333Y76807143D01*
X12183333Y76664286D01*
X12135714Y76569048D01*
X12088095Y76521429D01*
X11992857Y76473810D01*
X11611904Y76473810D01*
X13040476Y76997620D02*
X12850000Y76997620D01*
X12754761Y76950000D01*
X12707142Y76902381D01*
X12611904Y76759524D01*
X12564285Y76569048D01*
X12564285Y76188096D01*
X12611904Y76092858D01*
X12659523Y76045239D01*
X12754761Y75997620D01*
X12945238Y75997620D01*
X13040476Y76045239D01*
X13088095Y76092858D01*
X13135714Y76188096D01*
X13135714Y76426191D01*
X13088095Y76521429D01*
X13040476Y76569048D01*
X12945238Y76616667D01*
X12754761Y76616667D01*
X12659523Y76569048D01*
X12611904Y76521429D01*
X12564285Y76426191D01*
%TO.C,R8*%
X11483333Y24897620D02*
X11150000Y25373810D01*
X10911904Y24897620D02*
X10911904Y25897620D01*
X11292857Y25897620D01*
X11388095Y25850000D01*
X11435714Y25802381D01*
X11483333Y25707143D01*
X11483333Y25564286D01*
X11435714Y25469048D01*
X11388095Y25421429D01*
X11292857Y25373810D01*
X10911904Y25373810D01*
X12054761Y25469048D02*
X11959523Y25516667D01*
X11911904Y25564286D01*
X11864285Y25659524D01*
X11864285Y25707143D01*
X11911904Y25802381D01*
X11959523Y25850000D01*
X12054761Y25897620D01*
X12245238Y25897620D01*
X12340476Y25850000D01*
X12388095Y25802381D01*
X12435714Y25707143D01*
X12435714Y25659524D01*
X12388095Y25564286D01*
X12340476Y25516667D01*
X12245238Y25469048D01*
X12054761Y25469048D01*
X11959523Y25421429D01*
X11911904Y25373810D01*
X11864285Y25278572D01*
X11864285Y25088096D01*
X11911904Y24992858D01*
X11959523Y24945239D01*
X12054761Y24897620D01*
X12245238Y24897620D01*
X12340476Y24945239D01*
X12388095Y24992858D01*
X12435714Y25088096D01*
X12435714Y25278572D01*
X12388095Y25373810D01*
X12340476Y25421429D01*
X12245238Y25469048D01*
%TO.C,R1*%
X11383333Y108497620D02*
X11050000Y108973810D01*
X10811904Y108497620D02*
X10811904Y109497620D01*
X11192857Y109497620D01*
X11288095Y109450000D01*
X11335714Y109402381D01*
X11383333Y109307143D01*
X11383333Y109164286D01*
X11335714Y109069048D01*
X11288095Y109021429D01*
X11192857Y108973810D01*
X10811904Y108973810D01*
X12335714Y108497620D02*
X11764285Y108497620D01*
X12050000Y108497620D02*
X12050000Y109497620D01*
X11954761Y109354762D01*
X11859523Y109259524D01*
X11764285Y109211905D01*
%TO.C,C8*%
X43133333Y74292858D02*
X43085714Y74245239D01*
X42942857Y74197620D01*
X42847619Y74197620D01*
X42704761Y74245239D01*
X42609523Y74340477D01*
X42561904Y74435715D01*
X42514285Y74626191D01*
X42514285Y74769048D01*
X42561904Y74959524D01*
X42609523Y75054762D01*
X42704761Y75150000D01*
X42847619Y75197620D01*
X42942857Y75197620D01*
X43085714Y75150000D01*
X43133333Y75102381D01*
X43704761Y74769048D02*
X43609523Y74816667D01*
X43561904Y74864286D01*
X43514285Y74959524D01*
X43514285Y75007143D01*
X43561904Y75102381D01*
X43609523Y75150000D01*
X43704761Y75197620D01*
X43895238Y75197620D01*
X43990476Y75150000D01*
X44038095Y75102381D01*
X44085714Y75007143D01*
X44085714Y74959524D01*
X44038095Y74864286D01*
X43990476Y74816667D01*
X43895238Y74769048D01*
X43704761Y74769048D01*
X43609523Y74721429D01*
X43561904Y74673810D01*
X43514285Y74578572D01*
X43514285Y74388096D01*
X43561904Y74292858D01*
X43609523Y74245239D01*
X43704761Y74197620D01*
X43895238Y74197620D01*
X43990476Y74245239D01*
X44038095Y74292858D01*
X44085714Y74388096D01*
X44085714Y74578572D01*
X44038095Y74673810D01*
X43990476Y74721429D01*
X43895238Y74769048D01*
%TO.C,Q2*%
X24304761Y102102381D02*
X24209523Y102150000D01*
X24114285Y102245239D01*
X23971428Y102388096D01*
X23876190Y102435715D01*
X23780952Y102435715D01*
X23828571Y102197620D02*
X23733333Y102245239D01*
X23638095Y102340477D01*
X23590476Y102530953D01*
X23590476Y102864286D01*
X23638095Y103054762D01*
X23733333Y103150000D01*
X23828571Y103197620D01*
X24019047Y103197620D01*
X24114285Y103150000D01*
X24209523Y103054762D01*
X24257142Y102864286D01*
X24257142Y102530953D01*
X24209523Y102340477D01*
X24114285Y102245239D01*
X24019047Y102197620D01*
X23828571Y102197620D01*
X24638095Y103102381D02*
X24685714Y103150000D01*
X24780952Y103197620D01*
X25019047Y103197620D01*
X25114285Y103150000D01*
X25161904Y103102381D01*
X25209523Y103007143D01*
X25209523Y102911905D01*
X25161904Y102769048D01*
X24590476Y102197620D01*
X25209523Y102197620D01*
%TO.C,C16*%
X42607142Y22542858D02*
X42559523Y22495239D01*
X42416666Y22447620D01*
X42321428Y22447620D01*
X42178571Y22495239D01*
X42083333Y22590477D01*
X42035714Y22685715D01*
X41988095Y22876191D01*
X41988095Y23019048D01*
X42035714Y23209524D01*
X42083333Y23304762D01*
X42178571Y23400000D01*
X42321428Y23447620D01*
X42416666Y23447620D01*
X42559523Y23400000D01*
X42607142Y23352381D01*
X43559523Y22447620D02*
X42988095Y22447620D01*
X43273809Y22447620D02*
X43273809Y23447620D01*
X43178571Y23304762D01*
X43083333Y23209524D01*
X42988095Y23161905D01*
X44416666Y23447620D02*
X44226190Y23447620D01*
X44130952Y23400000D01*
X44083333Y23352381D01*
X43988095Y23209524D01*
X43940476Y23019048D01*
X43940476Y22638096D01*
X43988095Y22542858D01*
X44035714Y22495239D01*
X44130952Y22447620D01*
X44321428Y22447620D01*
X44416666Y22495239D01*
X44464285Y22542858D01*
X44511904Y22638096D01*
X44511904Y22876191D01*
X44464285Y22971429D01*
X44416666Y23019048D01*
X44321428Y23066667D01*
X44130952Y23066667D01*
X44035714Y23019048D01*
X43988095Y22971429D01*
X43940476Y22876191D01*
%TO.C,R10*%
X10719642Y22307620D02*
X10386309Y22783810D01*
X10148214Y22307620D02*
X10148214Y23307620D01*
X10529166Y23307620D01*
X10624404Y23260000D01*
X10672023Y23212381D01*
X10719642Y23117143D01*
X10719642Y22974286D01*
X10672023Y22879048D01*
X10624404Y22831429D01*
X10529166Y22783810D01*
X10148214Y22783810D01*
X11672023Y22307620D02*
X11100595Y22307620D01*
X11386309Y22307620D02*
X11386309Y23307620D01*
X11291071Y23164762D01*
X11195833Y23069524D01*
X11100595Y23021905D01*
X12291071Y23307620D02*
X12386309Y23307620D01*
X12481547Y23260000D01*
X12529166Y23212381D01*
X12576785Y23117143D01*
X12624404Y22926667D01*
X12624404Y22688572D01*
X12576785Y22498096D01*
X12529166Y22402858D01*
X12481547Y22355239D01*
X12386309Y22307620D01*
X12291071Y22307620D01*
X12195833Y22355239D01*
X12148214Y22402858D01*
X12100595Y22498096D01*
X12052976Y22688572D01*
X12052976Y22926667D01*
X12100595Y23117143D01*
X12148214Y23212381D01*
X12195833Y23260000D01*
X12291071Y23307620D01*
%TO.C,D2*%
X10661904Y66947620D02*
X10661904Y67947620D01*
X10900000Y67947620D01*
X11042857Y67900000D01*
X11138095Y67804762D01*
X11185714Y67709524D01*
X11233333Y67519048D01*
X11233333Y67376191D01*
X11185714Y67185715D01*
X11138095Y67090477D01*
X11042857Y66995239D01*
X10900000Y66947620D01*
X10661904Y66947620D01*
X11614285Y67852381D02*
X11661904Y67900000D01*
X11757142Y67947620D01*
X11995238Y67947620D01*
X12090476Y67900000D01*
X12138095Y67852381D01*
X12185714Y67757143D01*
X12185714Y67661905D01*
X12138095Y67519048D01*
X11566666Y66947620D01*
X12185714Y66947620D01*
X11638095Y63147620D02*
X11638095Y64147620D01*
X12209523Y63147620D02*
X11780952Y63719048D01*
X12209523Y64147620D02*
X11638095Y63576191D01*
%TO.C,R4*%
X12183333Y78097620D02*
X11850000Y78573810D01*
X11611904Y78097620D02*
X11611904Y79097620D01*
X11992857Y79097620D01*
X12088095Y79050000D01*
X12135714Y79002381D01*
X12183333Y78907143D01*
X12183333Y78764286D01*
X12135714Y78669048D01*
X12088095Y78621429D01*
X11992857Y78573810D01*
X11611904Y78573810D01*
X13040476Y78764286D02*
X13040476Y78097620D01*
X12802380Y79145239D02*
X12564285Y78430953D01*
X13183333Y78430953D01*
D11*
%TO.C,J3*%
X2270000Y2555000D02*
X4930000Y2555000D01*
X2270000Y7755000D02*
X3600000Y7755000D01*
X2270000Y5155000D02*
X4930000Y5155000D01*
X4930000Y5155000D02*
X4930000Y2555000D01*
X2270000Y5155000D02*
X2270000Y2555000D01*
X2270000Y6425000D02*
X2270000Y7755000D01*
%TO.C,J9*%
X21630000Y4330000D02*
X21630000Y1670000D01*
X24230000Y4330000D02*
X24230000Y1670000D01*
X26830000Y4330000D02*
X26830000Y3000000D01*
X25500000Y4330000D02*
X26830000Y4330000D01*
X24230000Y4330000D02*
X21630000Y4330000D01*
X24230000Y1670000D02*
X21630000Y1670000D01*
%TO.C,C7*%
X44385000Y97611252D02*
X44385000Y97088748D01*
X42915000Y97611252D02*
X42915000Y97088748D01*
%TO.C,C1*%
X14803733Y84640000D02*
X15096267Y84640000D01*
X14803733Y85660000D02*
X15096267Y85660000D01*
%TO.C,L6*%
X46630000Y37820000D02*
X46630000Y31080000D01*
X54728000Y31080000D02*
X59870000Y31080000D01*
X46630000Y37820000D02*
X51772000Y37820000D01*
X54728000Y37820000D02*
X59870000Y37820000D01*
X46630000Y31080000D02*
X51772000Y31080000D01*
X59870000Y37820000D02*
X59870000Y31080000D01*
%TO.C,R5*%
X14904724Y100127500D02*
X14395276Y100127500D01*
X14904724Y101172500D02*
X14395276Y101172500D01*
%TO.C,C5*%
X51838748Y92165000D02*
X52361252Y92165000D01*
X51838748Y93635000D02*
X52361252Y93635000D01*
%TO.C,J2*%
X58395000Y1020000D02*
X60995000Y1020000D01*
X60995000Y1020000D02*
X60995000Y3680000D01*
X58395000Y1020000D02*
X58395000Y3680000D01*
X55795000Y1020000D02*
X55795000Y2350000D01*
X58395000Y3680000D02*
X60995000Y3680000D01*
X57125000Y1020000D02*
X55795000Y1020000D01*
%TO.C,R9*%
X15104724Y48777500D02*
X14595276Y48777500D01*
X15104724Y49822500D02*
X14595276Y49822500D01*
%TO.C,C13*%
X43015000Y37361252D02*
X43015000Y36838748D01*
X44485000Y37361252D02*
X44485000Y36838748D01*
%TO.C,C4*%
X42615000Y63061252D02*
X42615000Y62538748D01*
X44085000Y63061252D02*
X44085000Y62538748D01*
%TO.C,Q3*%
X22100000Y76040000D02*
X22750000Y76040000D01*
X22100000Y79160000D02*
X20425000Y79160000D01*
X22100000Y79160000D02*
X22750000Y79160000D01*
X22100000Y76040000D02*
X21450000Y76040000D01*
%TO.C,L7*%
X59870000Y18930000D02*
X59870000Y25670000D01*
X59870000Y25670000D02*
X54728000Y25670000D01*
X46630000Y18930000D02*
X46630000Y25670000D01*
X59870000Y18930000D02*
X54728000Y18930000D01*
X51772000Y25670000D02*
X46630000Y25670000D01*
X51772000Y18930000D02*
X46630000Y18930000D01*
%TO.C,J6*%
X5980000Y23405000D02*
X5980000Y20805000D01*
X3320000Y26005000D02*
X4650000Y26005000D01*
X3320000Y20805000D02*
X5980000Y20805000D01*
X3320000Y23405000D02*
X3320000Y20805000D01*
X3320000Y23405000D02*
X5980000Y23405000D01*
X3320000Y24675000D02*
X3320000Y26005000D01*
%TO.C,L3*%
X51672000Y102520000D02*
X46530000Y102520000D01*
X59770000Y95780000D02*
X59770000Y102520000D01*
X59770000Y102520000D02*
X54628000Y102520000D01*
X51672000Y95780000D02*
X46530000Y95780000D01*
X59770000Y95780000D02*
X54628000Y95780000D01*
X46530000Y95780000D02*
X46530000Y102520000D01*
%TO.C,L2*%
X59720000Y63470000D02*
X59720000Y56730000D01*
X54578000Y63470000D02*
X59720000Y63470000D01*
X46480000Y56730000D02*
X51622000Y56730000D01*
X54578000Y56730000D02*
X59720000Y56730000D01*
X46480000Y63470000D02*
X46480000Y56730000D01*
X46480000Y63470000D02*
X51622000Y63470000D01*
%TO.C,C17*%
X44385000Y46261252D02*
X44385000Y45738748D01*
X42915000Y46261252D02*
X42915000Y45738748D01*
%TO.C,R7*%
X15117224Y53122500D02*
X14607776Y53122500D01*
X15117224Y52077500D02*
X14607776Y52077500D01*
%TO.C,J5*%
X1820000Y109105000D02*
X3150000Y109105000D01*
X4480000Y106505000D02*
X4480000Y103905000D01*
X1820000Y106505000D02*
X4480000Y106505000D01*
X1820000Y107775000D02*
X1820000Y109105000D01*
X1820000Y103905000D02*
X4480000Y103905000D01*
X1820000Y106505000D02*
X1820000Y103905000D01*
%TO.C,C15*%
X52538748Y42085000D02*
X53061252Y42085000D01*
X52538748Y40615000D02*
X53061252Y40615000D01*
%TO.C,L5*%
X60070000Y12170000D02*
X60070000Y5430000D01*
X54928000Y5430000D02*
X60070000Y5430000D01*
X54928000Y12170000D02*
X60070000Y12170000D01*
X46830000Y5430000D02*
X51972000Y5430000D01*
X46830000Y12170000D02*
X51972000Y12170000D01*
X46830000Y12170000D02*
X46830000Y5430000D01*
%TO.C,Q5*%
X21350000Y22940000D02*
X22000000Y22940000D01*
X21350000Y26060000D02*
X19675000Y26060000D01*
X21350000Y26060000D02*
X22000000Y26060000D01*
X21350000Y22940000D02*
X20700000Y22940000D01*
%TO.C,J7*%
X32950000Y5360000D02*
X32450000Y5360000D01*
X33540000Y600000D02*
X34650000Y600000D01*
X32450000Y5360000D02*
X32700000Y4860000D01*
X30750000Y4310000D02*
X31860000Y4310000D01*
X33540000Y4310000D02*
X34650000Y4310000D01*
X30750000Y600000D02*
X31860000Y600000D01*
X32700000Y4860000D02*
X32950000Y5360000D01*
%TO.C,J10*%
X46180000Y107770000D02*
X46180000Y110430000D01*
X43580000Y107770000D02*
X43580000Y110430000D01*
X42310000Y107770000D02*
X40980000Y107770000D01*
X43580000Y107770000D02*
X46180000Y107770000D01*
X40980000Y107770000D02*
X40980000Y109100000D01*
X43580000Y110430000D02*
X46180000Y110430000D01*
%TO.C,D4*%
X13330000Y13560000D02*
X16270000Y13560000D01*
X13460000Y12780000D02*
X13330000Y12780000D01*
X13330000Y13800000D02*
X16270000Y13800000D01*
X13330000Y13680000D02*
X16270000Y13680000D01*
X16270000Y12780000D02*
X16270000Y18220000D01*
X13330000Y18220000D02*
X13460000Y18220000D01*
X13330000Y12780000D02*
X13330000Y18220000D01*
X16270000Y18220000D02*
X16140000Y18220000D01*
X16140000Y12780000D02*
X16270000Y12780000D01*
%TO.C,K3*%
X40782500Y36407500D02*
X40782500Y46787500D01*
X20192500Y46787500D02*
X20192500Y36407500D01*
X22602500Y41257500D02*
X22602500Y41957500D01*
X21252500Y43087500D02*
X20192500Y43087500D01*
X40782500Y46787500D02*
X20192500Y46787500D01*
X22032500Y41257500D02*
X22032500Y40157500D01*
X20192500Y40087500D02*
X21232500Y40087500D01*
X22602500Y41957500D02*
X21402500Y41957500D01*
X20192500Y36407500D02*
X40782500Y36407500D01*
X20042500Y36247500D02*
X20042500Y37457500D01*
X22202500Y41257500D02*
X21802500Y41957500D01*
X21342500Y36247500D02*
X20042500Y36247500D01*
X21402500Y41957500D02*
X21402500Y41257500D01*
X22032500Y41957500D02*
X22032500Y43057500D01*
X21252500Y40087500D02*
X21252500Y43087500D01*
X21402500Y41257500D02*
X22602500Y41257500D01*
%TO.C,R2*%
X14904724Y105727500D02*
X14395276Y105727500D01*
X14904724Y106772500D02*
X14395276Y106772500D01*
%TO.C,L1*%
X54628000Y89620000D02*
X59770000Y89620000D01*
X54628000Y82880000D02*
X59770000Y82880000D01*
X46530000Y89620000D02*
X46530000Y82880000D01*
X46530000Y89620000D02*
X51672000Y89620000D01*
X59770000Y89620000D02*
X59770000Y82880000D01*
X46530000Y82880000D02*
X51672000Y82880000D01*
%TO.C,D1*%
X13180000Y91940000D02*
X16120000Y91940000D01*
X13310000Y91040000D02*
X13180000Y91040000D01*
X13180000Y91820000D02*
X16120000Y91820000D01*
X13180000Y96480000D02*
X13310000Y96480000D01*
X13180000Y92060000D02*
X16120000Y92060000D01*
X16120000Y96480000D02*
X15990000Y96480000D01*
X16120000Y91040000D02*
X16120000Y96480000D01*
X13180000Y91040000D02*
X13180000Y96480000D01*
X15990000Y91040000D02*
X16120000Y91040000D01*
%TO.C,C14*%
X53076248Y14865000D02*
X53598752Y14865000D01*
X53076248Y16335000D02*
X53598752Y16335000D01*
%TO.C,C11*%
X14616233Y7960000D02*
X14908767Y7960000D01*
X14616233Y6940000D02*
X14908767Y6940000D01*
%TO.C,C3*%
X43015000Y88211252D02*
X43015000Y87688748D01*
X44485000Y88211252D02*
X44485000Y87688748D01*
%TO.C,R3*%
X14804724Y103027500D02*
X14295276Y103027500D01*
X14804724Y104072500D02*
X14295276Y104072500D01*
%TO.C,C10*%
X14653733Y32540000D02*
X14946267Y32540000D01*
X14653733Y33560000D02*
X14946267Y33560000D01*
%TO.C,J8*%
X37450000Y107977500D02*
X36340000Y107977500D01*
X35250000Y106927500D02*
X35750000Y106927500D01*
X35500000Y107427500D02*
X35250000Y106927500D01*
X34660000Y107977500D02*
X33550000Y107977500D01*
X37450000Y111687500D02*
X36340000Y111687500D01*
X34660000Y111687500D02*
X33550000Y111687500D01*
X35750000Y106927500D02*
X35500000Y107427500D01*
%TO.C,C6*%
X51288748Y67985000D02*
X51811252Y67985000D01*
X51288748Y66515000D02*
X51811252Y66515000D01*
%TO.C,J1*%
X3070000Y48060000D02*
X5730000Y48060000D01*
X3070000Y50660000D02*
X4400000Y50660000D01*
X3070000Y35300000D02*
X5730000Y35300000D01*
X3070000Y49330000D02*
X3070000Y50660000D01*
X3070000Y48060000D02*
X3070000Y35300000D01*
X5730000Y48060000D02*
X5730000Y35300000D01*
%TO.C,D3*%
X13660000Y38730000D02*
X13530000Y38730000D01*
X13530000Y39510000D02*
X16470000Y39510000D01*
X13530000Y44170000D02*
X13660000Y44170000D01*
X13530000Y39750000D02*
X16470000Y39750000D01*
X16470000Y38730000D02*
X16470000Y44170000D01*
X16470000Y44170000D02*
X16340000Y44170000D01*
X13530000Y38730000D02*
X13530000Y44170000D01*
X13530000Y39630000D02*
X16470000Y39630000D01*
X16340000Y38730000D02*
X16470000Y38730000D01*
%TO.C,C12*%
X42815000Y11261252D02*
X42815000Y10738748D01*
X44285000Y11261252D02*
X44285000Y10738748D01*
%TO.C,L8*%
X46280000Y44580000D02*
X46280000Y51320000D01*
X51422000Y51320000D02*
X46280000Y51320000D01*
X59520000Y51320000D02*
X54378000Y51320000D01*
X59520000Y44580000D02*
X54378000Y44580000D01*
X51422000Y44580000D02*
X46280000Y44580000D01*
X59520000Y44580000D02*
X59520000Y51320000D01*
%TO.C,K4*%
X20802500Y17187500D02*
X19742500Y17187500D01*
X20952500Y15357500D02*
X22152500Y15357500D01*
X40332500Y10507500D02*
X40332500Y20887500D01*
X19742500Y14187500D02*
X20782500Y14187500D01*
X21582500Y15357500D02*
X21582500Y14257500D01*
X40332500Y20887500D02*
X19742500Y20887500D01*
X19742500Y10507500D02*
X40332500Y10507500D01*
X21752500Y15357500D02*
X21352500Y16057500D01*
X22152500Y16057500D02*
X20952500Y16057500D01*
X21582500Y16057500D02*
X21582500Y17157500D01*
X20892500Y10347500D02*
X19592500Y10347500D01*
X19742500Y20887500D02*
X19742500Y10507500D01*
X19592500Y10347500D02*
X19592500Y11557500D01*
X22152500Y15357500D02*
X22152500Y16057500D01*
X20802500Y14187500D02*
X20802500Y17187500D01*
X20952500Y16057500D02*
X20952500Y15357500D01*
%TO.C,C9*%
X4503733Y17610000D02*
X4796267Y17610000D01*
X4503733Y16590000D02*
X4796267Y16590000D01*
%TO.C,Q4*%
X22050000Y49190000D02*
X21400000Y49190000D01*
X22050000Y52310000D02*
X20375000Y52310000D01*
X22050000Y52310000D02*
X22700000Y52310000D01*
X22050000Y49190000D02*
X22700000Y49190000D01*
%TO.C,K1*%
X22602500Y92757500D02*
X22602500Y93457500D01*
X22602500Y93457500D02*
X21402500Y93457500D01*
X21402500Y93457500D02*
X21402500Y92757500D01*
X40782500Y87907500D02*
X40782500Y98287500D01*
X40782500Y98287500D02*
X20192500Y98287500D01*
X21252500Y91587500D02*
X21252500Y94587500D01*
X22202500Y92757500D02*
X21802500Y93457500D01*
X20192500Y87907500D02*
X40782500Y87907500D01*
X22032500Y93457500D02*
X22032500Y94557500D01*
X20192500Y98287500D02*
X20192500Y87907500D01*
X21342500Y87747500D02*
X20042500Y87747500D01*
X21402500Y92757500D02*
X22602500Y92757500D01*
X20192500Y91587500D02*
X21232500Y91587500D01*
X21252500Y94587500D02*
X20192500Y94587500D01*
X22032500Y92757500D02*
X22032500Y91657500D01*
X20042500Y87747500D02*
X20042500Y88957500D01*
%TO.C,L4*%
X59720000Y70580000D02*
X59720000Y77320000D01*
X51622000Y77320000D02*
X46480000Y77320000D01*
X59720000Y70580000D02*
X54578000Y70580000D01*
X59720000Y77320000D02*
X54578000Y77320000D01*
X51622000Y70580000D02*
X46480000Y70580000D01*
X46480000Y70580000D02*
X46480000Y77320000D01*
%TO.C,J4*%
X56170000Y107320000D02*
X58770000Y107320000D01*
X56170000Y109980000D02*
X58770000Y109980000D01*
X54900000Y107320000D02*
X53570000Y107320000D01*
X58770000Y107320000D02*
X58770000Y109980000D01*
X56170000Y107320000D02*
X56170000Y109980000D01*
X53570000Y107320000D02*
X53570000Y108650000D01*
%TO.C,C2*%
X14653733Y59240000D02*
X14946267Y59240000D01*
X14653733Y60260000D02*
X14946267Y60260000D01*
%TO.C,Q1*%
X21150000Y109510000D02*
X21800000Y109510000D01*
X21150000Y106390000D02*
X21800000Y106390000D01*
X21150000Y109510000D02*
X19475000Y109510000D01*
X21150000Y106390000D02*
X20500000Y106390000D01*
%TO.C,K2*%
X22152500Y67307500D02*
X22152500Y68007500D01*
X40332500Y72837500D02*
X19742500Y72837500D01*
X21752500Y67307500D02*
X21352500Y68007500D01*
X21582500Y68007500D02*
X21582500Y69107500D01*
X19592500Y62297500D02*
X19592500Y63507500D01*
X19742500Y66137500D02*
X20782500Y66137500D01*
X19742500Y72837500D02*
X19742500Y62457500D01*
X21582500Y67307500D02*
X21582500Y66207500D01*
X20892500Y62297500D02*
X19592500Y62297500D01*
X22152500Y68007500D02*
X20952500Y68007500D01*
X20952500Y68007500D02*
X20952500Y67307500D01*
X20802500Y66137500D02*
X20802500Y69137500D01*
X40332500Y62457500D02*
X40332500Y72837500D01*
X20802500Y69137500D02*
X19742500Y69137500D01*
X19742500Y62457500D02*
X40332500Y62457500D01*
X20952500Y67307500D02*
X22152500Y67307500D01*
%TO.C,R6*%
X15554724Y75977500D02*
X15045276Y75977500D01*
X15554724Y77022500D02*
X15045276Y77022500D01*
%TO.C,R8*%
X15154724Y26022500D02*
X14645276Y26022500D01*
X15154724Y24977500D02*
X14645276Y24977500D01*
%TO.C,R1*%
X14904724Y108527500D02*
X14395276Y108527500D01*
X14904724Y109572500D02*
X14395276Y109572500D01*
%TO.C,C8*%
X42515000Y71861252D02*
X42515000Y71338748D01*
X43985000Y71861252D02*
X43985000Y71338748D01*
%TO.C,Q2*%
X21250000Y104010000D02*
X19575000Y104010000D01*
X21250000Y100890000D02*
X20600000Y100890000D01*
X21250000Y100890000D02*
X21900000Y100890000D01*
X21250000Y104010000D02*
X21900000Y104010000D01*
%TO.C,C16*%
X44235000Y20123752D02*
X44235000Y19601248D01*
X42765000Y20123752D02*
X42765000Y19601248D01*
%TO.C,R10*%
X15204724Y23222500D02*
X14695276Y23222500D01*
X15204724Y22177500D02*
X14695276Y22177500D01*
%TO.C,D2*%
X13430000Y65560000D02*
X16370000Y65560000D01*
X16370000Y64780000D02*
X16370000Y70220000D01*
X13430000Y65800000D02*
X16370000Y65800000D01*
X16370000Y70220000D02*
X16240000Y70220000D01*
X13430000Y64780000D02*
X13430000Y70220000D01*
X16240000Y64780000D02*
X16370000Y64780000D01*
X13430000Y65680000D02*
X16370000Y65680000D01*
X13430000Y70220000D02*
X13560000Y70220000D01*
X13560000Y64780000D02*
X13430000Y64780000D01*
%TO.C,R4*%
X15504724Y79322500D02*
X14995276Y79322500D01*
X15504724Y78277500D02*
X14995276Y78277500D01*
%TD*%
M02*
