%TF.GenerationSoftware,KiCad,Pcbnew,(6.0.2)*%
%TF.CreationDate,2022-11-21T15:37:21-08:00*%
%TF.ProjectId,preselector,70726573-656c-4656-9374-6f722e6b6963,rev?*%
%TF.SameCoordinates,PX5028050PY8f935f0*%
%TF.FileFunction,Paste,Top*%
%TF.FilePolarity,Positive*%
%FSLAX46Y46*%
G04 Gerber Fmt 4.6, Leading zero omitted, Abs format (unit mm)*
G04 Created by KiCad (PCBNEW (6.0.2)) date 2022-11-21 15:37:21*
%MOMM*%
%LPD*%
G01*
G04 APERTURE LIST*
G04 Aperture macros list*
%AMRoundRect*
0 Rectangle with rounded corners*
0 $1 Rounding radius*
0 $2 $3 $4 $5 $6 $7 $8 $9 X,Y pos of 4 corners*
0 Add a 4 corners polygon primitive as box body*
4,1,4,$2,$3,$4,$5,$6,$7,$8,$9,$2,$3,0*
0 Add four circle primitives for the rounded corners*
1,1,$1+$1,$2,$3*
1,1,$1+$1,$4,$5*
1,1,$1+$1,$6,$7*
1,1,$1+$1,$8,$9*
0 Add four rect primitives between the rounded corners*
20,1,$1+$1,$2,$3,$4,$5,0*
20,1,$1+$1,$4,$5,$6,$7,0*
20,1,$1+$1,$6,$7,$8,$9,0*
20,1,$1+$1,$8,$9,$2,$3,0*%
G04 Aperture macros list end*
%ADD10RoundRect,0.250000X-0.475000X0.337500X-0.475000X-0.337500X0.475000X-0.337500X0.475000X0.337500X0*%
%ADD11RoundRect,0.237500X-0.300000X-0.237500X0.300000X-0.237500X0.300000X0.237500X-0.300000X0.237500X0*%
%ADD12RoundRect,0.237500X0.250000X0.237500X-0.250000X0.237500X-0.250000X-0.237500X0.250000X-0.237500X0*%
%ADD13RoundRect,0.250000X-0.337500X-0.475000X0.337500X-0.475000X0.337500X0.475000X-0.337500X0.475000X0*%
%ADD14RoundRect,0.150000X-0.587500X-0.150000X0.587500X-0.150000X0.587500X0.150000X-0.587500X0.150000X0*%
%ADD15R,1.270000X3.600000*%
%ADD16R,1.350000X4.200000*%
G04 APERTURE END LIST*
D10*
%TO.C,C7*%
X43650000Y98387500D03*
X43650000Y96312500D03*
%TD*%
D11*
%TO.C,C1*%
X14087500Y85150000D03*
X15812500Y85150000D03*
%TD*%
D12*
%TO.C,R5*%
X15562500Y100650000D03*
X13737500Y100650000D03*
%TD*%
D13*
%TO.C,C5*%
X51062500Y92900000D03*
X53137500Y92900000D03*
%TD*%
D12*
%TO.C,R9*%
X15762500Y49300000D03*
X13937500Y49300000D03*
%TD*%
D10*
%TO.C,C13*%
X43750000Y38137500D03*
X43750000Y36062500D03*
%TD*%
%TO.C,C4*%
X43350000Y63837500D03*
X43350000Y61762500D03*
%TD*%
D14*
%TO.C,Q3*%
X21162500Y78550000D03*
X21162500Y76650000D03*
X23037500Y77600000D03*
%TD*%
D10*
%TO.C,C17*%
X43650000Y47037500D03*
X43650000Y44962500D03*
%TD*%
D12*
%TO.C,R7*%
X15775000Y52600000D03*
X13950000Y52600000D03*
%TD*%
D13*
%TO.C,C15*%
X51762500Y41350000D03*
X53837500Y41350000D03*
%TD*%
D14*
%TO.C,Q5*%
X20412500Y25450000D03*
X20412500Y23550000D03*
X22287500Y24500000D03*
%TD*%
D15*
%TO.C,J7*%
X32700000Y2400000D03*
D16*
X35525000Y2600000D03*
X29875000Y2600000D03*
%TD*%
D12*
%TO.C,R2*%
X15562500Y106250000D03*
X13737500Y106250000D03*
%TD*%
D13*
%TO.C,C14*%
X52300000Y15600000D03*
X54375000Y15600000D03*
%TD*%
D11*
%TO.C,C11*%
X13900000Y7450000D03*
X15625000Y7450000D03*
%TD*%
D10*
%TO.C,C3*%
X43750000Y88987500D03*
X43750000Y86912500D03*
%TD*%
D12*
%TO.C,R3*%
X15462500Y103550000D03*
X13637500Y103550000D03*
%TD*%
D11*
%TO.C,C10*%
X13937500Y33050000D03*
X15662500Y33050000D03*
%TD*%
D15*
%TO.C,J8*%
X35500000Y109887500D03*
D16*
X38325000Y109687500D03*
X32675000Y109687500D03*
%TD*%
D13*
%TO.C,C6*%
X50512500Y67250000D03*
X52587500Y67250000D03*
%TD*%
D10*
%TO.C,C12*%
X43550000Y12037500D03*
X43550000Y9962500D03*
%TD*%
D11*
%TO.C,C9*%
X3787500Y17100000D03*
X5512500Y17100000D03*
%TD*%
D14*
%TO.C,Q4*%
X21112500Y51700000D03*
X21112500Y49800000D03*
X22987500Y50750000D03*
%TD*%
D11*
%TO.C,C2*%
X13937500Y59750000D03*
X15662500Y59750000D03*
%TD*%
D14*
%TO.C,Q1*%
X20212500Y108900000D03*
X20212500Y107000000D03*
X22087500Y107950000D03*
%TD*%
D12*
%TO.C,R6*%
X16212500Y76500000D03*
X14387500Y76500000D03*
%TD*%
%TO.C,R8*%
X15812500Y25500000D03*
X13987500Y25500000D03*
%TD*%
%TO.C,R1*%
X15562500Y109050000D03*
X13737500Y109050000D03*
%TD*%
D10*
%TO.C,C8*%
X43250000Y72637500D03*
X43250000Y70562500D03*
%TD*%
D14*
%TO.C,Q2*%
X20312500Y103400000D03*
X20312500Y101500000D03*
X22187500Y102450000D03*
%TD*%
D10*
%TO.C,C16*%
X43500000Y20900000D03*
X43500000Y18825000D03*
%TD*%
D12*
%TO.C,R10*%
X15862500Y22700000D03*
X14037500Y22700000D03*
%TD*%
%TO.C,R4*%
X16162500Y78800000D03*
X14337500Y78800000D03*
%TD*%
M02*
