%TF.GenerationSoftware,KiCad,Pcbnew,(6.0.2)*%
%TF.CreationDate,2022-11-21T15:37:21-08:00*%
%TF.ProjectId,preselector,70726573-656c-4656-9374-6f722e6b6963,rev?*%
%TF.SameCoordinates,PX5028050PY8f935f0*%
%TF.FileFunction,Soldermask,Top*%
%TF.FilePolarity,Negative*%
%FSLAX46Y46*%
G04 Gerber Fmt 4.6, Leading zero omitted, Abs format (unit mm)*
G04 Created by KiCad (PCBNEW (6.0.2)) date 2022-11-21 15:37:21*
%MOMM*%
%LPD*%
G01*
G04 APERTURE LIST*
G04 Aperture macros list*
%AMRoundRect*
0 Rectangle with rounded corners*
0 $1 Rounding radius*
0 $2 $3 $4 $5 $6 $7 $8 $9 X,Y pos of 4 corners*
0 Add a 4 corners polygon primitive as box body*
4,1,4,$2,$3,$4,$5,$6,$7,$8,$9,$2,$3,0*
0 Add four circle primitives for the rounded corners*
1,1,$1+$1,$2,$3*
1,1,$1+$1,$4,$5*
1,1,$1+$1,$6,$7*
1,1,$1+$1,$8,$9*
0 Add four rect primitives between the rounded corners*
20,1,$1+$1,$2,$3,$4,$5,0*
20,1,$1+$1,$4,$5,$6,$7,0*
20,1,$1+$1,$6,$7,$8,$9,0*
20,1,$1+$1,$8,$9,$2,$3,0*%
G04 Aperture macros list end*
%ADD10R,1.700000X1.700000*%
%ADD11O,1.700000X1.700000*%
%ADD12RoundRect,0.250000X-0.475000X0.337500X-0.475000X-0.337500X0.475000X-0.337500X0.475000X0.337500X0*%
%ADD13RoundRect,0.237500X-0.300000X-0.237500X0.300000X-0.237500X0.300000X0.237500X-0.300000X0.237500X0*%
%ADD14C,2.600000*%
%ADD15RoundRect,0.237500X0.250000X0.237500X-0.250000X0.237500X-0.250000X-0.237500X0.250000X-0.237500X0*%
%ADD16RoundRect,0.250000X-0.337500X-0.475000X0.337500X-0.475000X0.337500X0.475000X-0.337500X0.475000X0*%
%ADD17RoundRect,0.150000X-0.587500X-0.150000X0.587500X-0.150000X0.587500X0.150000X-0.587500X0.150000X0*%
%ADD18R,1.270000X3.600000*%
%ADD19R,1.350000X4.200000*%
%ADD20R,2.200000X2.200000*%
%ADD21O,2.200000X2.200000*%
%ADD22R,1.400000X1.400000*%
%ADD23C,1.400000*%
G04 APERTURE END LIST*
D10*
%TO.C,J3*%
X3600000Y6425000D03*
D11*
X3600000Y3885000D03*
%TD*%
D10*
%TO.C,J9*%
X25500000Y3000000D03*
D11*
X22960000Y3000000D03*
%TD*%
D12*
%TO.C,C7*%
X43650000Y98387500D03*
X43650000Y96312500D03*
%TD*%
D13*
%TO.C,C1*%
X14087500Y85150000D03*
X15812500Y85150000D03*
%TD*%
D14*
%TO.C,L6*%
X53250000Y37250000D03*
X53250000Y31650000D03*
%TD*%
D15*
%TO.C,R5*%
X15562500Y100650000D03*
X13737500Y100650000D03*
%TD*%
D16*
%TO.C,C5*%
X51062500Y92900000D03*
X53137500Y92900000D03*
%TD*%
D10*
%TO.C,J2*%
X57125000Y2350000D03*
D11*
X59665000Y2350000D03*
%TD*%
D15*
%TO.C,R9*%
X15762500Y49300000D03*
X13937500Y49300000D03*
%TD*%
D12*
%TO.C,C13*%
X43750000Y38137500D03*
X43750000Y36062500D03*
%TD*%
%TO.C,C4*%
X43350000Y63837500D03*
X43350000Y61762500D03*
%TD*%
D17*
%TO.C,Q3*%
X21162500Y78550000D03*
X21162500Y76650000D03*
X23037500Y77600000D03*
%TD*%
D14*
%TO.C,L7*%
X53250000Y19500000D03*
X53250000Y25100000D03*
%TD*%
D10*
%TO.C,J6*%
X4650000Y24675000D03*
D11*
X4650000Y22135000D03*
%TD*%
D14*
%TO.C,L3*%
X53150000Y96350000D03*
X53150000Y101950000D03*
%TD*%
%TO.C,L2*%
X53100000Y62900000D03*
X53100000Y57300000D03*
%TD*%
D12*
%TO.C,C17*%
X43650000Y47037500D03*
X43650000Y44962500D03*
%TD*%
D15*
%TO.C,R7*%
X15775000Y52600000D03*
X13950000Y52600000D03*
%TD*%
D10*
%TO.C,J5*%
X3150000Y107775000D03*
D11*
X3150000Y105235000D03*
%TD*%
D16*
%TO.C,C15*%
X51762500Y41350000D03*
X53837500Y41350000D03*
%TD*%
D14*
%TO.C,L5*%
X53450000Y11600000D03*
X53450000Y6000000D03*
%TD*%
D17*
%TO.C,Q5*%
X20412500Y25450000D03*
X20412500Y23550000D03*
X22287500Y24500000D03*
%TD*%
D18*
%TO.C,J7*%
X32700000Y2400000D03*
D19*
X35525000Y2600000D03*
X29875000Y2600000D03*
%TD*%
D10*
%TO.C,J10*%
X42310000Y109100000D03*
D11*
X44850000Y109100000D03*
%TD*%
D20*
%TO.C,D4*%
X14800000Y11690000D03*
D21*
X14800000Y19310000D03*
%TD*%
D22*
%TO.C,K3*%
X21592500Y37787500D03*
D23*
X29212500Y37787500D03*
X34292500Y37787500D03*
X39372500Y37787500D03*
X39372500Y45407500D03*
X34292500Y45407500D03*
X29212500Y45407500D03*
X21592500Y45407500D03*
%TD*%
D15*
%TO.C,R2*%
X15562500Y106250000D03*
X13737500Y106250000D03*
%TD*%
D14*
%TO.C,L1*%
X53150000Y89050000D03*
X53150000Y83450000D03*
%TD*%
D20*
%TO.C,D1*%
X14650000Y89950000D03*
D21*
X14650000Y97570000D03*
%TD*%
D16*
%TO.C,C14*%
X52300000Y15600000D03*
X54375000Y15600000D03*
%TD*%
D13*
%TO.C,C11*%
X13900000Y7450000D03*
X15625000Y7450000D03*
%TD*%
D12*
%TO.C,C3*%
X43750000Y88987500D03*
X43750000Y86912500D03*
%TD*%
D15*
%TO.C,R3*%
X15462500Y103550000D03*
X13637500Y103550000D03*
%TD*%
D13*
%TO.C,C10*%
X13937500Y33050000D03*
X15662500Y33050000D03*
%TD*%
D18*
%TO.C,J8*%
X35500000Y109887500D03*
D19*
X38325000Y109687500D03*
X32675000Y109687500D03*
%TD*%
D16*
%TO.C,C6*%
X50512500Y67250000D03*
X52587500Y67250000D03*
%TD*%
D10*
%TO.C,J1*%
X4400000Y49330000D03*
D11*
X4400000Y46790000D03*
X4400000Y44250000D03*
X4400000Y41710000D03*
X4400000Y39170000D03*
X4400000Y36630000D03*
%TD*%
D20*
%TO.C,D3*%
X15000000Y37640000D03*
D21*
X15000000Y45260000D03*
%TD*%
D12*
%TO.C,C12*%
X43550000Y12037500D03*
X43550000Y9962500D03*
%TD*%
D14*
%TO.C,L8*%
X52900000Y45150000D03*
X52900000Y50750000D03*
%TD*%
D22*
%TO.C,K4*%
X21142500Y11887500D03*
D23*
X28762500Y11887500D03*
X33842500Y11887500D03*
X38922500Y11887500D03*
X38922500Y19507500D03*
X33842500Y19507500D03*
X28762500Y19507500D03*
X21142500Y19507500D03*
%TD*%
D13*
%TO.C,C9*%
X3787500Y17100000D03*
X5512500Y17100000D03*
%TD*%
D17*
%TO.C,Q4*%
X21112500Y51700000D03*
X21112500Y49800000D03*
X22987500Y50750000D03*
%TD*%
D22*
%TO.C,K1*%
X21592500Y89287500D03*
D23*
X29212500Y89287500D03*
X34292500Y89287500D03*
X39372500Y89287500D03*
X39372500Y96907500D03*
X34292500Y96907500D03*
X29212500Y96907500D03*
X21592500Y96907500D03*
%TD*%
D14*
%TO.C,L4*%
X53100000Y71150000D03*
X53100000Y76750000D03*
%TD*%
D10*
%TO.C,J4*%
X54900000Y108650000D03*
D11*
X57440000Y108650000D03*
%TD*%
D13*
%TO.C,C2*%
X13937500Y59750000D03*
X15662500Y59750000D03*
%TD*%
D17*
%TO.C,Q1*%
X20212500Y108900000D03*
X20212500Y107000000D03*
X22087500Y107950000D03*
%TD*%
D22*
%TO.C,K2*%
X21142500Y63837500D03*
D23*
X28762500Y63837500D03*
X33842500Y63837500D03*
X38922500Y63837500D03*
X38922500Y71457500D03*
X33842500Y71457500D03*
X28762500Y71457500D03*
X21142500Y71457500D03*
%TD*%
D15*
%TO.C,R6*%
X16212500Y76500000D03*
X14387500Y76500000D03*
%TD*%
%TO.C,R8*%
X15812500Y25500000D03*
X13987500Y25500000D03*
%TD*%
%TO.C,R1*%
X15562500Y109050000D03*
X13737500Y109050000D03*
%TD*%
D12*
%TO.C,C8*%
X43250000Y72637500D03*
X43250000Y70562500D03*
%TD*%
D17*
%TO.C,Q2*%
X20312500Y103400000D03*
X20312500Y101500000D03*
X22187500Y102450000D03*
%TD*%
D12*
%TO.C,C16*%
X43500000Y20900000D03*
X43500000Y18825000D03*
%TD*%
D15*
%TO.C,R10*%
X15862500Y22700000D03*
X14037500Y22700000D03*
%TD*%
D20*
%TO.C,D2*%
X14900000Y63690000D03*
D21*
X14900000Y71310000D03*
%TD*%
D15*
%TO.C,R4*%
X16162500Y78800000D03*
X14337500Y78800000D03*
%TD*%
M02*
