%TF.GenerationSoftware,KiCad,Pcbnew,(6.0.2)*%
%TF.CreationDate,2022-11-21T15:37:21-08:00*%
%TF.ProjectId,preselector,70726573-656c-4656-9374-6f722e6b6963,rev?*%
%TF.SameCoordinates,PX5028050PY8f935f0*%
%TF.FileFunction,Copper,L2,Bot*%
%TF.FilePolarity,Positive*%
%FSLAX46Y46*%
G04 Gerber Fmt 4.6, Leading zero omitted, Abs format (unit mm)*
G04 Created by KiCad (PCBNEW (6.0.2)) date 2022-11-21 15:37:21*
%MOMM*%
%LPD*%
G01*
G04 APERTURE LIST*
%TA.AperFunction,ComponentPad*%
%ADD10R,1.700000X1.700000*%
%TD*%
%TA.AperFunction,ComponentPad*%
%ADD11O,1.700000X1.700000*%
%TD*%
%TA.AperFunction,ComponentPad*%
%ADD12C,2.600000*%
%TD*%
%TA.AperFunction,SMDPad,CuDef*%
%ADD13R,1.350000X4.200000*%
%TD*%
%TA.AperFunction,ComponentPad*%
%ADD14R,2.200000X2.200000*%
%TD*%
%TA.AperFunction,ComponentPad*%
%ADD15O,2.200000X2.200000*%
%TD*%
%TA.AperFunction,ComponentPad*%
%ADD16R,1.400000X1.400000*%
%TD*%
%TA.AperFunction,ComponentPad*%
%ADD17C,1.400000*%
%TD*%
%TA.AperFunction,ViaPad*%
%ADD18C,0.800000*%
%TD*%
%TA.AperFunction,Conductor*%
%ADD19C,0.609600*%
%TD*%
G04 APERTURE END LIST*
D10*
%TO.P,J3,1,Pin_1*%
%TO.N,GND*%
X3600000Y6425000D03*
D11*
%TO.P,J3,2,Pin_2*%
X3600000Y3885000D03*
%TD*%
D10*
%TO.P,J9,1,Pin_1*%
%TO.N,Net-(J7-Pad1)*%
X25500000Y3000000D03*
D11*
%TO.P,J9,2,Pin_2*%
%TO.N,GND*%
X22960000Y3000000D03*
%TD*%
D12*
%TO.P,L6,1,1*%
%TO.N,Net-(C13-Pad1)*%
X53250000Y37250000D03*
%TO.P,L6,2,2*%
%TO.N,GND*%
X53250000Y31650000D03*
%TD*%
D10*
%TO.P,J2,1,Pin_1*%
%TO.N,GND*%
X57125000Y2350000D03*
D11*
%TO.P,J2,2,Pin_2*%
X59665000Y2350000D03*
%TD*%
D12*
%TO.P,L7,1,1*%
%TO.N,Net-(C14-Pad1)*%
X53250000Y19500000D03*
%TO.P,L7,2,2*%
%TO.N,GND*%
X53250000Y25100000D03*
%TD*%
D10*
%TO.P,J6,1,Pin_1*%
%TO.N,GND*%
X4650000Y24675000D03*
D11*
%TO.P,J6,2,Pin_2*%
%TO.N,/VDD12*%
X4650000Y22135000D03*
%TD*%
D12*
%TO.P,L3,1,1*%
%TO.N,Net-(C5-Pad1)*%
X53150000Y96350000D03*
%TO.P,L3,2,2*%
%TO.N,GND*%
X53150000Y101950000D03*
%TD*%
%TO.P,L2,1,1*%
%TO.N,Net-(C4-Pad1)*%
X53100000Y62900000D03*
%TO.P,L2,2,2*%
%TO.N,GND*%
X53100000Y57300000D03*
%TD*%
D10*
%TO.P,J5,1,Pin_1*%
%TO.N,GND*%
X3150000Y107775000D03*
D11*
%TO.P,J5,2,Pin_2*%
X3150000Y105235000D03*
%TD*%
D12*
%TO.P,L5,1,1*%
%TO.N,Net-(C12-Pad1)*%
X53450000Y11600000D03*
%TO.P,L5,2,2*%
%TO.N,GND*%
X53450000Y6000000D03*
%TD*%
D13*
%TO.P,J7,2,Ext*%
%TO.N,GND*%
X35525000Y2600000D03*
X29875000Y2600000D03*
%TD*%
D10*
%TO.P,J10,1,Pin_1*%
%TO.N,Net-(J8-Pad1)*%
X42310000Y109100000D03*
D11*
%TO.P,J10,2,Pin_2*%
%TO.N,GND*%
X44850000Y109100000D03*
%TD*%
D14*
%TO.P,D4,1,K*%
%TO.N,/VDD12*%
X14800000Y11690000D03*
D15*
%TO.P,D4,2,A*%
%TO.N,Net-(D4-Pad2)*%
X14800000Y19310000D03*
%TD*%
D16*
%TO.P,K3,1*%
%TO.N,/VDD12*%
X21592500Y37787500D03*
D17*
%TO.P,K3,4*%
%TO.N,Net-(C13-Pad2)*%
X29212500Y37787500D03*
%TO.P,K3,6*%
%TO.N,GND*%
X34292500Y37787500D03*
%TO.P,K3,8*%
%TO.N,Net-(J7-Pad1)*%
X39372500Y37787500D03*
%TO.P,K3,9*%
%TO.N,Net-(J8-Pad1)*%
X39372500Y45407500D03*
%TO.P,K3,11*%
%TO.N,GND*%
X34292500Y45407500D03*
%TO.P,K3,13*%
%TO.N,Net-(C17-Pad1)*%
X29212500Y45407500D03*
%TO.P,K3,16*%
%TO.N,Net-(D3-Pad2)*%
X21592500Y45407500D03*
%TD*%
D12*
%TO.P,L1,1,1*%
%TO.N,Net-(C3-Pad1)*%
X53150000Y89050000D03*
%TO.P,L1,2,2*%
%TO.N,GND*%
X53150000Y83450000D03*
%TD*%
D14*
%TO.P,D1,1,K*%
%TO.N,/VDD12*%
X14650000Y89950000D03*
D15*
%TO.P,D1,2,A*%
%TO.N,Net-(D1-Pad2)*%
X14650000Y97570000D03*
%TD*%
D13*
%TO.P,J8,2,Ext*%
%TO.N,GND*%
X38325000Y109687500D03*
X32675000Y109687500D03*
%TD*%
D10*
%TO.P,J1,1,Pin_1*%
%TO.N,/40M*%
X4400000Y49330000D03*
D11*
%TO.P,J1,2,Pin_2*%
%TO.N,/30M*%
X4400000Y46790000D03*
%TO.P,J1,3,Pin_3*%
%TO.N,/20M*%
X4400000Y44250000D03*
%TO.P,J1,4,Pin_4*%
%TO.N,/17M*%
X4400000Y41710000D03*
%TO.P,J1,5,Pin_5*%
%TO.N,/15M*%
X4400000Y39170000D03*
%TO.P,J1,6,Pin_6*%
%TO.N,GND*%
X4400000Y36630000D03*
%TD*%
D14*
%TO.P,D3,1,K*%
%TO.N,/VDD12*%
X15000000Y37640000D03*
D15*
%TO.P,D3,2,A*%
%TO.N,Net-(D3-Pad2)*%
X15000000Y45260000D03*
%TD*%
D12*
%TO.P,L8,1,1*%
%TO.N,Net-(C15-Pad1)*%
X52900000Y45150000D03*
%TO.P,L8,2,2*%
%TO.N,GND*%
X52900000Y50750000D03*
%TD*%
D16*
%TO.P,K4,1*%
%TO.N,/VDD12*%
X21142500Y11887500D03*
D17*
%TO.P,K4,4*%
%TO.N,Net-(C12-Pad2)*%
X28762500Y11887500D03*
%TO.P,K4,6*%
%TO.N,GND*%
X33842500Y11887500D03*
%TO.P,K4,8*%
%TO.N,Net-(J7-Pad1)*%
X38922500Y11887500D03*
%TO.P,K4,9*%
%TO.N,Net-(J8-Pad1)*%
X38922500Y19507500D03*
%TO.P,K4,11*%
%TO.N,GND*%
X33842500Y19507500D03*
%TO.P,K4,13*%
%TO.N,Net-(C16-Pad1)*%
X28762500Y19507500D03*
%TO.P,K4,16*%
%TO.N,Net-(D4-Pad2)*%
X21142500Y19507500D03*
%TD*%
D16*
%TO.P,K1,1*%
%TO.N,/VDD12*%
X21592500Y89287500D03*
D17*
%TO.P,K1,4*%
%TO.N,Net-(C3-Pad2)*%
X29212500Y89287500D03*
%TO.P,K1,6*%
%TO.N,GND*%
X34292500Y89287500D03*
%TO.P,K1,8*%
%TO.N,Net-(J7-Pad1)*%
X39372500Y89287500D03*
%TO.P,K1,9*%
%TO.N,Net-(J8-Pad1)*%
X39372500Y96907500D03*
%TO.P,K1,11*%
%TO.N,GND*%
X34292500Y96907500D03*
%TO.P,K1,13*%
%TO.N,Net-(C7-Pad1)*%
X29212500Y96907500D03*
%TO.P,K1,16*%
%TO.N,Net-(D1-Pad2)*%
X21592500Y96907500D03*
%TD*%
D12*
%TO.P,L4,1,1*%
%TO.N,Net-(C6-Pad1)*%
X53100000Y71150000D03*
%TO.P,L4,2,2*%
%TO.N,GND*%
X53100000Y76750000D03*
%TD*%
D10*
%TO.P,J4,1,Pin_1*%
%TO.N,GND*%
X54900000Y108650000D03*
D11*
%TO.P,J4,2,Pin_2*%
X57440000Y108650000D03*
%TD*%
D16*
%TO.P,K2,1*%
%TO.N,/VDD12*%
X21142500Y63837500D03*
D17*
%TO.P,K2,4*%
%TO.N,Net-(C4-Pad2)*%
X28762500Y63837500D03*
%TO.P,K2,6*%
%TO.N,GND*%
X33842500Y63837500D03*
%TO.P,K2,8*%
%TO.N,Net-(J7-Pad1)*%
X38922500Y63837500D03*
%TO.P,K2,9*%
%TO.N,Net-(J8-Pad1)*%
X38922500Y71457500D03*
%TO.P,K2,11*%
%TO.N,GND*%
X33842500Y71457500D03*
%TO.P,K2,13*%
%TO.N,Net-(C8-Pad1)*%
X28762500Y71457500D03*
%TO.P,K2,16*%
%TO.N,Net-(D2-Pad2)*%
X21142500Y71457500D03*
%TD*%
D14*
%TO.P,D2,1,K*%
%TO.N,/VDD12*%
X14900000Y63690000D03*
D15*
%TO.P,D2,2,A*%
%TO.N,Net-(D2-Pad2)*%
X14900000Y71310000D03*
%TD*%
D18*
%TO.N,GND*%
X9500000Y106350000D03*
X14800000Y56350000D03*
X17350000Y7500000D03*
X20100000Y47750000D03*
X19100000Y99950000D03*
X38050000Y3400000D03*
X13350000Y47700000D03*
X20850000Y74800000D03*
X30850000Y81150000D03*
X30650000Y29250000D03*
X17750000Y33150000D03*
X2500000Y56900000D03*
X5600000Y15150000D03*
X17500000Y59800000D03*
X40900000Y105250000D03*
X5350000Y29950000D03*
X30850000Y55800000D03*
X15100000Y81850000D03*
X14300000Y74450000D03*
X12200000Y21400000D03*
X18249999Y21950003D03*
X11650000Y99050000D03*
X29900000Y109600000D03*
X18150000Y106600000D03*
X18050000Y85150000D03*
X3350000Y97650000D03*
X2250000Y81950000D03*
X15400000Y29800000D03*
X27900000Y5650000D03*
%TD*%
D19*
%TO.N,/VDD12*%
X12210000Y11690000D02*
X14800000Y11690000D01*
X4650000Y22135000D02*
X8135000Y22135000D01*
X13240000Y63690000D02*
X14900000Y63690000D01*
X10900000Y61350000D02*
X13240000Y63690000D01*
X12240000Y37640000D02*
X15000000Y37640000D01*
X8135000Y22135000D02*
X8135000Y15765000D01*
X10900000Y38980000D02*
X10900000Y61350000D01*
X12240000Y37640000D02*
X10900000Y38980000D01*
X8135000Y22135000D02*
X10200000Y24200000D01*
X10150000Y35550000D02*
X12240000Y37640000D01*
X10900000Y86200000D02*
X14650000Y89950000D01*
X8135000Y15765000D02*
X12210000Y11690000D01*
X10150000Y24250000D02*
X10150000Y35550000D01*
X10200000Y24200000D02*
X10150000Y24250000D01*
X10900000Y61350000D02*
X10900000Y86200000D01*
%TO.N,Net-(J7-Pad1)*%
X40950000Y63750000D02*
X42700000Y62000000D01*
X43100000Y34060000D02*
X43100000Y16065000D01*
X42700000Y41115000D02*
X39372500Y37787500D01*
X40950000Y63750000D02*
X40862500Y63837500D01*
X42700000Y62000000D02*
X42700000Y41115000D01*
X39372500Y89287500D02*
X41212500Y89287500D01*
X42550000Y87950000D02*
X42550000Y65350000D01*
X42550000Y65350000D02*
X40950000Y63750000D01*
X40862500Y63837500D02*
X38922500Y63837500D01*
X39372500Y37787500D02*
X43100000Y34060000D01*
X41212500Y89287500D02*
X42550000Y87950000D01*
X43100000Y16065000D02*
X38922500Y11887500D01*
%TO.N,Net-(J8-Pad1)*%
X38922500Y71457500D02*
X37457500Y71457500D01*
X37642500Y71457500D02*
X38922500Y71457500D01*
X37457500Y71457500D02*
X36700000Y70700000D01*
X36650000Y72450000D02*
X37642500Y71457500D01*
X39372500Y96907500D02*
X37757500Y96907500D01*
X37050000Y43085000D02*
X37050000Y21380000D01*
X36650000Y95800000D02*
X36650000Y72450000D01*
X37757500Y96907500D02*
X36650000Y95800000D01*
X36700000Y48080000D02*
X39372500Y45407500D01*
X36700000Y70700000D02*
X36700000Y48080000D01*
X39372500Y45407500D02*
X37050000Y43085000D01*
X37050000Y21380000D02*
X38922500Y19507500D01*
%TD*%
%TA.AperFunction,Conductor*%
%TO.N,GND*%
G36*
X31434121Y111721998D02*
G01*
X31480614Y111668342D01*
X31492000Y111616000D01*
X31492000Y109959615D01*
X31496475Y109944376D01*
X31497865Y109943171D01*
X31505548Y109941500D01*
X33839884Y109941500D01*
X33855123Y109945975D01*
X33856328Y109947365D01*
X33857999Y109955048D01*
X33857999Y111616000D01*
X33878001Y111684121D01*
X33931657Y111730614D01*
X33983999Y111742000D01*
X37016000Y111742000D01*
X37084121Y111721998D01*
X37130614Y111668342D01*
X37142000Y111616000D01*
X37142000Y109959615D01*
X37146475Y109944376D01*
X37147865Y109943171D01*
X37155548Y109941500D01*
X39489884Y109941500D01*
X39505123Y109945975D01*
X39506328Y109947365D01*
X39507999Y109955048D01*
X39507999Y111616000D01*
X39528001Y111684121D01*
X39581657Y111730614D01*
X39633999Y111742000D01*
X61816000Y111742000D01*
X61884121Y111721998D01*
X61930614Y111668342D01*
X61942000Y111616000D01*
X61942000Y634000D01*
X61921998Y565879D01*
X61868342Y519386D01*
X61816000Y508000D01*
X36834000Y508000D01*
X36765879Y528002D01*
X36719386Y581658D01*
X36708000Y634000D01*
X36708000Y1455331D01*
X55767001Y1455331D01*
X55767371Y1448510D01*
X55772895Y1397648D01*
X55776521Y1382396D01*
X55821676Y1261946D01*
X55830214Y1246351D01*
X55906715Y1144276D01*
X55919276Y1131715D01*
X56021351Y1055214D01*
X56036946Y1046676D01*
X56157394Y1001522D01*
X56172649Y997895D01*
X56223514Y992369D01*
X56230328Y992000D01*
X56852885Y992000D01*
X56868124Y996475D01*
X56869329Y997865D01*
X56871000Y1005548D01*
X56871000Y1010116D01*
X57379000Y1010116D01*
X57383475Y994877D01*
X57384865Y993672D01*
X57392548Y992001D01*
X58019669Y992001D01*
X58026490Y992371D01*
X58077352Y997895D01*
X58092604Y1001521D01*
X58213054Y1046676D01*
X58228649Y1055214D01*
X58330724Y1131715D01*
X58343285Y1144276D01*
X58419786Y1246351D01*
X58428325Y1261948D01*
X58469425Y1371582D01*
X58512066Y1428347D01*
X58578628Y1453047D01*
X58647977Y1437840D01*
X58682645Y1409850D01*
X58708219Y1380326D01*
X58715580Y1373117D01*
X58879434Y1237084D01*
X58887881Y1231169D01*
X59071756Y1123721D01*
X59081042Y1119271D01*
X59280001Y1043297D01*
X59289899Y1040421D01*
X59393250Y1019394D01*
X59407299Y1020590D01*
X59411000Y1030935D01*
X59411000Y1031483D01*
X59919000Y1031483D01*
X59923064Y1017641D01*
X59936478Y1015607D01*
X59943184Y1016466D01*
X59953262Y1018608D01*
X60157255Y1079809D01*
X60166842Y1083567D01*
X60358095Y1177261D01*
X60366945Y1182536D01*
X60540328Y1306208D01*
X60548200Y1312861D01*
X60699052Y1463188D01*
X60705730Y1471035D01*
X60830003Y1643980D01*
X60835313Y1652817D01*
X60929670Y1843733D01*
X60933469Y1853328D01*
X60995377Y2057090D01*
X60997555Y2067163D01*
X60998986Y2078038D01*
X60996775Y2092222D01*
X60983617Y2096000D01*
X59937115Y2096000D01*
X59921876Y2091525D01*
X59920671Y2090135D01*
X59919000Y2082452D01*
X59919000Y1031483D01*
X59411000Y1031483D01*
X59411000Y2077885D01*
X59406525Y2093124D01*
X59405135Y2094329D01*
X59397452Y2096000D01*
X57397115Y2096000D01*
X57381876Y2091525D01*
X57380671Y2090135D01*
X57379000Y2082452D01*
X57379000Y1010116D01*
X56871000Y1010116D01*
X56871000Y2077885D01*
X56866525Y2093124D01*
X56865135Y2094329D01*
X56857452Y2096000D01*
X55785116Y2096000D01*
X55769877Y2091525D01*
X55768672Y2090135D01*
X55767001Y2082452D01*
X55767001Y1455331D01*
X36708000Y1455331D01*
X36708000Y2327885D01*
X36703525Y2343124D01*
X36702135Y2344329D01*
X36694452Y2346000D01*
X34360116Y2346000D01*
X34344877Y2341525D01*
X34343672Y2340135D01*
X34342001Y2332452D01*
X34342001Y634000D01*
X34321999Y565879D01*
X34268343Y519386D01*
X34216001Y508000D01*
X31184000Y508000D01*
X31115879Y528002D01*
X31069386Y581658D01*
X31058000Y634000D01*
X31058000Y2327885D01*
X31053525Y2343124D01*
X31052135Y2344329D01*
X31044452Y2346000D01*
X28710116Y2346000D01*
X28694877Y2341525D01*
X28693672Y2340135D01*
X28692001Y2332452D01*
X28692001Y634000D01*
X28671999Y565879D01*
X28618343Y519386D01*
X28566001Y508000D01*
X634000Y508000D01*
X565879Y528002D01*
X519386Y581658D01*
X508000Y634000D01*
X508000Y3617034D01*
X2268257Y3617034D01*
X2298565Y3482554D01*
X2301645Y3472725D01*
X2381770Y3275397D01*
X2386413Y3266206D01*
X2497694Y3084612D01*
X2503777Y3076301D01*
X2643213Y2915333D01*
X2650580Y2908117D01*
X2814434Y2772084D01*
X2822881Y2766169D01*
X3006756Y2658721D01*
X3016042Y2654271D01*
X3215001Y2578297D01*
X3224899Y2575421D01*
X3328250Y2554394D01*
X3342299Y2555590D01*
X3346000Y2565935D01*
X3346000Y2566483D01*
X3854000Y2566483D01*
X3858064Y2552641D01*
X3871478Y2550607D01*
X3878184Y2551466D01*
X3888262Y2553608D01*
X4092255Y2614809D01*
X4101842Y2618567D01*
X4293095Y2712261D01*
X4301945Y2717536D01*
X4322271Y2732034D01*
X21628257Y2732034D01*
X21658565Y2597554D01*
X21661645Y2587725D01*
X21741770Y2390397D01*
X21746413Y2381206D01*
X21857694Y2199612D01*
X21863777Y2191301D01*
X22003213Y2030333D01*
X22010580Y2023117D01*
X22174434Y1887084D01*
X22182881Y1881169D01*
X22366756Y1773721D01*
X22376042Y1769271D01*
X22575001Y1693297D01*
X22584899Y1690421D01*
X22688250Y1669394D01*
X22702299Y1670590D01*
X22706000Y1680935D01*
X22706000Y1681483D01*
X23214000Y1681483D01*
X23218064Y1667641D01*
X23231478Y1665607D01*
X23238184Y1666466D01*
X23248262Y1668608D01*
X23452255Y1729809D01*
X23461842Y1733567D01*
X23653095Y1827261D01*
X23661945Y1832536D01*
X23835328Y1956208D01*
X23843193Y1962855D01*
X23947897Y2067195D01*
X24010268Y2101111D01*
X24081075Y2095923D01*
X24137837Y2053277D01*
X24154819Y2022174D01*
X24199385Y1903295D01*
X24286739Y1786739D01*
X24403295Y1699385D01*
X24539684Y1648255D01*
X24601866Y1641500D01*
X26398134Y1641500D01*
X26460316Y1648255D01*
X26596705Y1699385D01*
X26713261Y1786739D01*
X26800615Y1903295D01*
X26851745Y2039684D01*
X26858500Y2101866D01*
X26858500Y2622115D01*
X55767000Y2622115D01*
X55771475Y2606876D01*
X55772865Y2605671D01*
X55780548Y2604000D01*
X56852885Y2604000D01*
X56868124Y2608475D01*
X56869329Y2609865D01*
X56871000Y2617548D01*
X56871000Y2622115D01*
X57379000Y2622115D01*
X57383475Y2606876D01*
X57384865Y2605671D01*
X57392548Y2604000D01*
X59392885Y2604000D01*
X59408124Y2608475D01*
X59409329Y2609865D01*
X59411000Y2617548D01*
X59411000Y2622115D01*
X59919000Y2622115D01*
X59923475Y2606876D01*
X59924865Y2605671D01*
X59932548Y2604000D01*
X60983344Y2604000D01*
X60996875Y2607973D01*
X60998180Y2617053D01*
X60956214Y2784125D01*
X60952894Y2793876D01*
X60867972Y2989186D01*
X60863105Y2998261D01*
X60747426Y3177074D01*
X60741136Y3185243D01*
X60597806Y3342760D01*
X60590273Y3349785D01*
X60423139Y3481778D01*
X60414552Y3487483D01*
X60228117Y3590401D01*
X60218705Y3594631D01*
X60017959Y3665720D01*
X60007988Y3668354D01*
X59936837Y3681028D01*
X59923540Y3679568D01*
X59919000Y3665011D01*
X59919000Y2622115D01*
X59411000Y2622115D01*
X59411000Y3666898D01*
X59407082Y3680242D01*
X59392806Y3682229D01*
X59354324Y3676340D01*
X59344288Y3673949D01*
X59141868Y3607788D01*
X59132359Y3603791D01*
X58943463Y3505458D01*
X58934738Y3499964D01*
X58764433Y3372095D01*
X58756726Y3365252D01*
X58679094Y3284015D01*
X58617570Y3248585D01*
X58546657Y3252042D01*
X58488871Y3293288D01*
X58470018Y3326836D01*
X58428324Y3438054D01*
X58419786Y3453649D01*
X58343285Y3555724D01*
X58330724Y3568285D01*
X58228649Y3644786D01*
X58213054Y3653324D01*
X58092606Y3698478D01*
X58077351Y3702105D01*
X58026486Y3707631D01*
X58019672Y3708000D01*
X57397115Y3708000D01*
X57381876Y3703525D01*
X57380671Y3702135D01*
X57379000Y3694452D01*
X57379000Y2622115D01*
X56871000Y2622115D01*
X56871000Y3689884D01*
X56866525Y3705123D01*
X56865135Y3706328D01*
X56857452Y3707999D01*
X56230331Y3707999D01*
X56223510Y3707629D01*
X56172648Y3702105D01*
X56157396Y3698479D01*
X56036946Y3653324D01*
X56021351Y3644786D01*
X55919276Y3568285D01*
X55906715Y3555724D01*
X55830214Y3453649D01*
X55821676Y3438054D01*
X55776522Y3317606D01*
X55772895Y3302351D01*
X55767369Y3251486D01*
X55767000Y3244672D01*
X55767000Y2622115D01*
X26858500Y2622115D01*
X26858500Y2872115D01*
X28692000Y2872115D01*
X28696475Y2856876D01*
X28697865Y2855671D01*
X28705548Y2854000D01*
X29602885Y2854000D01*
X29618124Y2858475D01*
X29619329Y2859865D01*
X29621000Y2867548D01*
X29621000Y2872115D01*
X30129000Y2872115D01*
X30133475Y2856876D01*
X30134865Y2855671D01*
X30142548Y2854000D01*
X31039884Y2854000D01*
X31055123Y2858475D01*
X31056328Y2859865D01*
X31057999Y2867548D01*
X31057999Y2872115D01*
X34342000Y2872115D01*
X34346475Y2856876D01*
X34347865Y2855671D01*
X34355548Y2854000D01*
X35252885Y2854000D01*
X35268124Y2858475D01*
X35269329Y2859865D01*
X35271000Y2867548D01*
X35271000Y2872115D01*
X35779000Y2872115D01*
X35783475Y2856876D01*
X35784865Y2855671D01*
X35792548Y2854000D01*
X36689884Y2854000D01*
X36705123Y2858475D01*
X36706328Y2859865D01*
X36707999Y2867548D01*
X36707999Y4555094D01*
X52369839Y4555094D01*
X52378553Y4543573D01*
X52485452Y4465191D01*
X52493351Y4460255D01*
X52722905Y4339481D01*
X52731454Y4335764D01*
X52976327Y4250251D01*
X52985336Y4247837D01*
X53240166Y4199456D01*
X53249423Y4198402D01*
X53508607Y4188217D01*
X53517921Y4188543D01*
X53775753Y4216780D01*
X53784930Y4218481D01*
X54035758Y4284519D01*
X54044574Y4287555D01*
X54282880Y4389938D01*
X54291167Y4394252D01*
X54511718Y4530734D01*
X54519268Y4536220D01*
X54524559Y4540699D01*
X54532997Y4553503D01*
X54526935Y4563855D01*
X53462812Y5627978D01*
X53448868Y5635592D01*
X53447035Y5635461D01*
X53440420Y5631210D01*
X52376497Y4567287D01*
X52369839Y4555094D01*
X36707999Y4555094D01*
X36707999Y4744669D01*
X36707629Y4751490D01*
X36702105Y4802352D01*
X36698479Y4817604D01*
X36653324Y4938054D01*
X36644786Y4953649D01*
X36568285Y5055724D01*
X36555724Y5068285D01*
X36453649Y5144786D01*
X36438054Y5153324D01*
X36317606Y5198478D01*
X36302351Y5202105D01*
X36251486Y5207631D01*
X36244672Y5208000D01*
X35797115Y5208000D01*
X35781876Y5203525D01*
X35780671Y5202135D01*
X35779000Y5194452D01*
X35779000Y2872115D01*
X35271000Y2872115D01*
X35271000Y5189884D01*
X35266525Y5205123D01*
X35265135Y5206328D01*
X35257452Y5207999D01*
X34805331Y5207999D01*
X34798510Y5207629D01*
X34747648Y5202105D01*
X34732396Y5198479D01*
X34611946Y5153324D01*
X34596351Y5144786D01*
X34494276Y5068285D01*
X34481715Y5055724D01*
X34405214Y4953649D01*
X34396676Y4938054D01*
X34351522Y4817606D01*
X34347895Y4802351D01*
X34342369Y4751486D01*
X34342000Y4744672D01*
X34342000Y2872115D01*
X31057999Y2872115D01*
X31057999Y4744669D01*
X31057629Y4751490D01*
X31052105Y4802352D01*
X31048479Y4817604D01*
X31003324Y4938054D01*
X30994786Y4953649D01*
X30918285Y5055724D01*
X30905724Y5068285D01*
X30803649Y5144786D01*
X30788054Y5153324D01*
X30667606Y5198478D01*
X30652351Y5202105D01*
X30601486Y5207631D01*
X30594672Y5208000D01*
X30147115Y5208000D01*
X30131876Y5203525D01*
X30130671Y5202135D01*
X30129000Y5194452D01*
X30129000Y2872115D01*
X29621000Y2872115D01*
X29621000Y5189884D01*
X29616525Y5205123D01*
X29615135Y5206328D01*
X29607452Y5207999D01*
X29155331Y5207999D01*
X29148510Y5207629D01*
X29097648Y5202105D01*
X29082396Y5198479D01*
X28961946Y5153324D01*
X28946351Y5144786D01*
X28844276Y5068285D01*
X28831715Y5055724D01*
X28755214Y4953649D01*
X28746676Y4938054D01*
X28701522Y4817606D01*
X28697895Y4802351D01*
X28692369Y4751486D01*
X28692000Y4744672D01*
X28692000Y2872115D01*
X26858500Y2872115D01*
X26858500Y3898134D01*
X26851745Y3960316D01*
X26800615Y4096705D01*
X26713261Y4213261D01*
X26596705Y4300615D01*
X26460316Y4351745D01*
X26398134Y4358500D01*
X24601866Y4358500D01*
X24539684Y4351745D01*
X24403295Y4300615D01*
X24286739Y4213261D01*
X24199385Y4096705D01*
X24196233Y4088297D01*
X24196232Y4088295D01*
X24154722Y3977567D01*
X24112081Y3920802D01*
X24045519Y3896102D01*
X23976170Y3911309D01*
X23943546Y3936996D01*
X23892799Y3992766D01*
X23885273Y3999785D01*
X23718139Y4131778D01*
X23709552Y4137483D01*
X23523117Y4240401D01*
X23513705Y4244631D01*
X23312959Y4315720D01*
X23302988Y4318354D01*
X23231837Y4331028D01*
X23218540Y4329568D01*
X23214000Y4315011D01*
X23214000Y1681483D01*
X22706000Y1681483D01*
X22706000Y2727885D01*
X22701525Y2743124D01*
X22700135Y2744329D01*
X22692452Y2746000D01*
X21643225Y2746000D01*
X21629694Y2742027D01*
X21628257Y2732034D01*
X4322271Y2732034D01*
X4475328Y2841208D01*
X4483200Y2847861D01*
X4634052Y2998188D01*
X4640730Y3006035D01*
X4765003Y3178980D01*
X4770313Y3187817D01*
X4808863Y3265817D01*
X21624389Y3265817D01*
X21625912Y3257393D01*
X21638292Y3254000D01*
X22687885Y3254000D01*
X22703124Y3258475D01*
X22704329Y3259865D01*
X22706000Y3267548D01*
X22706000Y4316898D01*
X22702082Y4330242D01*
X22687806Y4332229D01*
X22649324Y4326340D01*
X22639288Y4323949D01*
X22436868Y4257788D01*
X22427359Y4253791D01*
X22238463Y4155458D01*
X22229738Y4149964D01*
X22059433Y4022095D01*
X22051726Y4015252D01*
X21904590Y3861283D01*
X21898104Y3853273D01*
X21778098Y3677351D01*
X21773000Y3668377D01*
X21683338Y3475217D01*
X21679775Y3465530D01*
X21624389Y3265817D01*
X4808863Y3265817D01*
X4864670Y3378733D01*
X4868469Y3388328D01*
X4930377Y3592090D01*
X4932555Y3602163D01*
X4933986Y3613038D01*
X4931775Y3627222D01*
X4918617Y3631000D01*
X3872115Y3631000D01*
X3856876Y3626525D01*
X3855671Y3625135D01*
X3854000Y3617452D01*
X3854000Y2566483D01*
X3346000Y2566483D01*
X3346000Y3612885D01*
X3341525Y3628124D01*
X3340135Y3629329D01*
X3332452Y3631000D01*
X2283225Y3631000D01*
X2269694Y3627027D01*
X2268257Y3617034D01*
X508000Y3617034D01*
X508000Y5530331D01*
X2242001Y5530331D01*
X2242371Y5523510D01*
X2247895Y5472648D01*
X2251521Y5457396D01*
X2296676Y5336946D01*
X2305214Y5321351D01*
X2381715Y5219276D01*
X2394276Y5206715D01*
X2496351Y5130214D01*
X2511946Y5121676D01*
X2621337Y5080667D01*
X2678101Y5038025D01*
X2702801Y4971464D01*
X2687594Y4902115D01*
X2668201Y4875634D01*
X2544590Y4746283D01*
X2538104Y4738273D01*
X2418098Y4562351D01*
X2413000Y4553377D01*
X2323338Y4360217D01*
X2319775Y4350530D01*
X2264389Y4150817D01*
X2265912Y4142393D01*
X2278292Y4139000D01*
X3327885Y4139000D01*
X3343124Y4143475D01*
X3344329Y4144865D01*
X3346000Y4152548D01*
X3346000Y4157115D01*
X3854000Y4157115D01*
X3858475Y4141876D01*
X3859865Y4140671D01*
X3867548Y4139000D01*
X4918344Y4139000D01*
X4931875Y4142973D01*
X4933180Y4152053D01*
X4891214Y4319125D01*
X4887894Y4328876D01*
X4802972Y4524186D01*
X4798105Y4533261D01*
X4682426Y4712074D01*
X4676136Y4720243D01*
X4531931Y4878721D01*
X4500879Y4942567D01*
X4509273Y5013066D01*
X4554450Y5067834D01*
X4580894Y5081503D01*
X4688054Y5121676D01*
X4703649Y5130214D01*
X4805724Y5206715D01*
X4818285Y5219276D01*
X4894786Y5321351D01*
X4903324Y5336946D01*
X4948478Y5457394D01*
X4952105Y5472649D01*
X4957631Y5523514D01*
X4958000Y5530328D01*
X4958000Y6042789D01*
X51637775Y6042789D01*
X51650220Y5783712D01*
X51651356Y5774457D01*
X51701961Y5520055D01*
X51704449Y5511083D01*
X51792095Y5266967D01*
X51795895Y5258432D01*
X51918658Y5029958D01*
X51923666Y5022096D01*
X51993720Y4928284D01*
X52004979Y4919835D01*
X52017397Y4926607D01*
X53077978Y5987188D01*
X53084356Y5998868D01*
X53814408Y5998868D01*
X53814539Y5997035D01*
X53818790Y5990420D01*
X54886094Y4923116D01*
X54898474Y4916356D01*
X54906815Y4922600D01*
X55040832Y5130952D01*
X55045275Y5139136D01*
X55151807Y5375630D01*
X55154997Y5384395D01*
X55225402Y5634028D01*
X55227262Y5643170D01*
X55260187Y5901981D01*
X55260668Y5908267D01*
X55262987Y5996840D01*
X55262836Y6003149D01*
X55243501Y6263337D01*
X55242125Y6272543D01*
X55184878Y6525533D01*
X55182154Y6534444D01*
X55088143Y6776194D01*
X55084132Y6784603D01*
X54955422Y7009798D01*
X54950211Y7017524D01*
X54906996Y7072342D01*
X54895071Y7080813D01*
X54883537Y7074327D01*
X53822022Y6012812D01*
X53814408Y5998868D01*
X53084356Y5998868D01*
X53085592Y6001132D01*
X53085461Y6002965D01*
X53081210Y6009580D01*
X52015816Y7074974D01*
X52002507Y7082242D01*
X51992472Y7075122D01*
X51976937Y7056444D01*
X51971531Y7048865D01*
X51836965Y6827109D01*
X51832736Y6818808D01*
X51732432Y6579611D01*
X51729471Y6570761D01*
X51665628Y6319375D01*
X51664006Y6310178D01*
X51638020Y6052115D01*
X51637775Y6042789D01*
X4958000Y6042789D01*
X4958000Y6152885D01*
X4953525Y6168124D01*
X4952135Y6169329D01*
X4944452Y6171000D01*
X3872115Y6171000D01*
X3856876Y6166525D01*
X3855671Y6165135D01*
X3854000Y6157452D01*
X3854000Y4157115D01*
X3346000Y4157115D01*
X3346000Y6152885D01*
X3341525Y6168124D01*
X3340135Y6169329D01*
X3332452Y6171000D01*
X2260116Y6171000D01*
X2244877Y6166525D01*
X2243672Y6165135D01*
X2242001Y6157452D01*
X2242001Y5530331D01*
X508000Y5530331D01*
X508000Y6697115D01*
X2242000Y6697115D01*
X2246475Y6681876D01*
X2247865Y6680671D01*
X2255548Y6679000D01*
X3327885Y6679000D01*
X3343124Y6683475D01*
X3344329Y6684865D01*
X3346000Y6692548D01*
X3346000Y6697115D01*
X3854000Y6697115D01*
X3858475Y6681876D01*
X3859865Y6680671D01*
X3867548Y6679000D01*
X4939884Y6679000D01*
X4955123Y6683475D01*
X4956328Y6684865D01*
X4957999Y6692548D01*
X4957999Y7319669D01*
X4957629Y7326490D01*
X4952105Y7377352D01*
X4948479Y7392604D01*
X4927970Y7447311D01*
X52367102Y7447311D01*
X52371675Y7437535D01*
X53437188Y6372022D01*
X53451132Y6364408D01*
X53452965Y6364539D01*
X53459580Y6368790D01*
X54524349Y7433559D01*
X54530733Y7445249D01*
X54521321Y7457359D01*
X54374045Y7559529D01*
X54366010Y7564262D01*
X54133376Y7678984D01*
X54124743Y7682472D01*
X53877703Y7761550D01*
X53868643Y7763726D01*
X53612630Y7805420D01*
X53603343Y7806232D01*
X53343992Y7809627D01*
X53334681Y7809057D01*
X53077682Y7774081D01*
X53068546Y7772140D01*
X52819543Y7699561D01*
X52810800Y7696293D01*
X52575252Y7587704D01*
X52567097Y7583184D01*
X52376240Y7458053D01*
X52367102Y7447311D01*
X4927970Y7447311D01*
X4903324Y7513054D01*
X4894786Y7528649D01*
X4818285Y7630724D01*
X4805724Y7643285D01*
X4703649Y7719786D01*
X4688054Y7728324D01*
X4567606Y7773478D01*
X4552351Y7777105D01*
X4501486Y7782631D01*
X4494672Y7783000D01*
X3872115Y7783000D01*
X3856876Y7778525D01*
X3855671Y7777135D01*
X3854000Y7769452D01*
X3854000Y6697115D01*
X3346000Y6697115D01*
X3346000Y7764884D01*
X3341525Y7780123D01*
X3340135Y7781328D01*
X3332452Y7782999D01*
X2705331Y7782999D01*
X2698510Y7782629D01*
X2647648Y7777105D01*
X2632396Y7773479D01*
X2511946Y7728324D01*
X2496351Y7719786D01*
X2394276Y7643285D01*
X2381715Y7630724D01*
X2305214Y7528649D01*
X2296676Y7513054D01*
X2251522Y7392606D01*
X2247895Y7377351D01*
X2242369Y7326486D01*
X2242000Y7319672D01*
X2242000Y6697115D01*
X508000Y6697115D01*
X508000Y22168305D01*
X3287251Y22168305D01*
X3300110Y21945285D01*
X3301247Y21940239D01*
X3301248Y21940233D01*
X3324959Y21835025D01*
X3349222Y21727361D01*
X3433266Y21520384D01*
X3435965Y21515980D01*
X3514045Y21388565D01*
X3549987Y21329912D01*
X3696250Y21161062D01*
X3868126Y21018368D01*
X4061000Y20905662D01*
X4269692Y20825970D01*
X4274760Y20824939D01*
X4274763Y20824938D01*
X4323173Y20815089D01*
X4488597Y20781433D01*
X4493772Y20781243D01*
X4493774Y20781243D01*
X4706673Y20773436D01*
X4706677Y20773436D01*
X4711837Y20773247D01*
X4716957Y20773903D01*
X4716959Y20773903D01*
X4928288Y20800975D01*
X4928289Y20800975D01*
X4933416Y20801632D01*
X4938366Y20803117D01*
X5142429Y20864339D01*
X5142434Y20864341D01*
X5147384Y20865826D01*
X5347994Y20964104D01*
X5529860Y21093827D01*
X5688096Y21251511D01*
X5700827Y21269228D01*
X5756822Y21312875D01*
X5803148Y21321700D01*
X7195700Y21321700D01*
X7263821Y21301698D01*
X7310314Y21248042D01*
X7321700Y21195700D01*
X7321700Y15774217D01*
X7321693Y15772897D01*
X7320744Y15682291D01*
X7325720Y15659279D01*
X7329967Y15639635D01*
X7332028Y15627051D01*
X7335650Y15594760D01*
X7336893Y15583675D01*
X7339208Y15577028D01*
X7348002Y15551774D01*
X7352164Y15536964D01*
X7359302Y15503949D01*
X7362280Y15497562D01*
X7362281Y15497560D01*
X7377752Y15464381D01*
X7382547Y15452573D01*
X7396899Y15411361D01*
X7400632Y15405387D01*
X7414797Y15382718D01*
X7422133Y15369208D01*
X7436415Y15338581D01*
X7455796Y15313595D01*
X7463169Y15304090D01*
X7470462Y15293636D01*
X7493589Y15256624D01*
X7498554Y15251625D01*
X7498555Y15251623D01*
X7522356Y15227656D01*
X7522953Y15227018D01*
X7523473Y15226347D01*
X7549731Y15200089D01*
X7622159Y15127154D01*
X7623200Y15126494D01*
X7624435Y15125385D01*
X11628289Y11121531D01*
X11629218Y11120594D01*
X11645636Y11103829D01*
X11692718Y11055750D01*
X11698636Y11051936D01*
X11698641Y11051932D01*
X11729407Y11032105D01*
X11739760Y11024666D01*
X11773869Y10997437D01*
X11780209Y10994372D01*
X11780214Y10994369D01*
X11804279Y10982735D01*
X11817692Y10975208D01*
X11840164Y10960726D01*
X11840171Y10960723D01*
X11846090Y10956908D01*
X11887111Y10941977D01*
X11898851Y10937018D01*
X11931801Y10921089D01*
X11931803Y10921088D01*
X11938144Y10918023D01*
X11971064Y10910423D01*
X11985799Y10906057D01*
X12010928Y10896911D01*
X12010934Y10896909D01*
X12017549Y10894502D01*
X12041919Y10891424D01*
X12060859Y10889031D01*
X12073400Y10886797D01*
X12115930Y10876978D01*
X12122976Y10876953D01*
X12122979Y10876953D01*
X12156739Y10876835D01*
X12157632Y10876806D01*
X12158470Y10876700D01*
X12195533Y10876700D01*
X12195972Y10876699D01*
X12294859Y10876354D01*
X12294864Y10876354D01*
X12298392Y10876342D01*
X12299595Y10876611D01*
X12301240Y10876700D01*
X13065500Y10876700D01*
X13133621Y10856698D01*
X13180114Y10803042D01*
X13191500Y10750700D01*
X13191500Y10541866D01*
X13198255Y10479684D01*
X13249385Y10343295D01*
X13336739Y10226739D01*
X13453295Y10139385D01*
X13589684Y10088255D01*
X13651866Y10081500D01*
X15948134Y10081500D01*
X16010316Y10088255D01*
X16146705Y10139385D01*
X16263261Y10226739D01*
X16350615Y10343295D01*
X16401745Y10479684D01*
X16408500Y10541866D01*
X16408500Y11139366D01*
X19934000Y11139366D01*
X19940755Y11077184D01*
X19991885Y10940795D01*
X20079239Y10824239D01*
X20195795Y10736885D01*
X20332184Y10685755D01*
X20394366Y10679000D01*
X21890634Y10679000D01*
X21952816Y10685755D01*
X22089205Y10736885D01*
X22205761Y10824239D01*
X22293115Y10940795D01*
X22344245Y11077184D01*
X22351000Y11139366D01*
X22351000Y11887500D01*
X27549384Y11887500D01*
X27567814Y11676845D01*
X27569238Y11671532D01*
X27569238Y11671530D01*
X27614676Y11501955D01*
X27622544Y11472590D01*
X27624866Y11467609D01*
X27624867Y11467608D01*
X27668333Y11374396D01*
X27711911Y11280942D01*
X27833199Y11107724D01*
X27982724Y10958199D01*
X28155942Y10836911D01*
X28160920Y10834590D01*
X28160923Y10834588D01*
X28228574Y10803042D01*
X28347590Y10747544D01*
X28352898Y10746122D01*
X28352900Y10746121D01*
X28546530Y10694238D01*
X28546532Y10694238D01*
X28551845Y10692814D01*
X28762500Y10674384D01*
X28973155Y10692814D01*
X28978468Y10694238D01*
X28978470Y10694238D01*
X29172100Y10746121D01*
X29172102Y10746122D01*
X29177410Y10747544D01*
X29296426Y10803042D01*
X29364077Y10834588D01*
X29364080Y10834590D01*
X29369058Y10836911D01*
X29420940Y10873239D01*
X33192794Y10873239D01*
X33202090Y10861224D01*
X33231689Y10840499D01*
X33241177Y10835021D01*
X33422777Y10750341D01*
X33433071Y10746593D01*
X33626622Y10694731D01*
X33637409Y10692829D01*
X33837025Y10675365D01*
X33847975Y10675365D01*
X34047591Y10692829D01*
X34058378Y10694731D01*
X34251929Y10746593D01*
X34262223Y10750341D01*
X34443823Y10835021D01*
X34453311Y10840499D01*
X34483748Y10861811D01*
X34492123Y10872288D01*
X34485054Y10885736D01*
X33855312Y11515478D01*
X33841368Y11523092D01*
X33839535Y11522961D01*
X33832920Y11518710D01*
X33199224Y10885014D01*
X33192794Y10873239D01*
X29420940Y10873239D01*
X29542276Y10958199D01*
X29691801Y11107724D01*
X29813089Y11280942D01*
X29856668Y11374396D01*
X29900133Y11467608D01*
X29900134Y11467609D01*
X29902456Y11472590D01*
X29910325Y11501955D01*
X29955762Y11671530D01*
X29955762Y11671532D01*
X29957186Y11676845D01*
X29975137Y11882025D01*
X32630365Y11882025D01*
X32647829Y11682409D01*
X32649731Y11671622D01*
X32701593Y11478071D01*
X32705341Y11467777D01*
X32790021Y11286177D01*
X32795499Y11276689D01*
X32816811Y11246252D01*
X32827288Y11237877D01*
X32840736Y11244946D01*
X33470478Y11874688D01*
X33476856Y11886368D01*
X34206908Y11886368D01*
X34207039Y11884535D01*
X34211290Y11877920D01*
X34844986Y11244224D01*
X34856761Y11237794D01*
X34868776Y11247090D01*
X34889501Y11276689D01*
X34894979Y11286177D01*
X34979659Y11467777D01*
X34983407Y11478071D01*
X35035269Y11671622D01*
X35037171Y11682409D01*
X35054635Y11882025D01*
X35054635Y11892975D01*
X35037171Y12092591D01*
X35035269Y12103378D01*
X34983407Y12296929D01*
X34979659Y12307223D01*
X34894979Y12488823D01*
X34889501Y12498311D01*
X34868189Y12528748D01*
X34857712Y12537123D01*
X34844264Y12530054D01*
X34214522Y11900312D01*
X34206908Y11886368D01*
X33476856Y11886368D01*
X33478092Y11888632D01*
X33477961Y11890465D01*
X33473710Y11897080D01*
X32840014Y12530776D01*
X32828239Y12537206D01*
X32816224Y12527910D01*
X32795499Y12498311D01*
X32790021Y12488823D01*
X32705341Y12307223D01*
X32701593Y12296929D01*
X32649731Y12103378D01*
X32647829Y12092591D01*
X32630365Y11892975D01*
X32630365Y11882025D01*
X29975137Y11882025D01*
X29975616Y11887500D01*
X29957186Y12098155D01*
X29902456Y12302410D01*
X29813089Y12494058D01*
X29691801Y12667276D01*
X29542276Y12816801D01*
X29419582Y12902712D01*
X33192877Y12902712D01*
X33199946Y12889264D01*
X33829688Y12259522D01*
X33843632Y12251908D01*
X33845465Y12252039D01*
X33852080Y12256290D01*
X34485776Y12889986D01*
X34492206Y12901761D01*
X34482910Y12913776D01*
X34453311Y12934501D01*
X34443823Y12939979D01*
X34262223Y13024659D01*
X34251929Y13028407D01*
X34058378Y13080269D01*
X34047591Y13082171D01*
X33847975Y13099635D01*
X33837025Y13099635D01*
X33637409Y13082171D01*
X33626622Y13080269D01*
X33433071Y13028407D01*
X33422777Y13024659D01*
X33241177Y12939979D01*
X33231689Y12934501D01*
X33201252Y12913189D01*
X33192877Y12902712D01*
X29419582Y12902712D01*
X29369058Y12938089D01*
X29364080Y12940410D01*
X29364077Y12940412D01*
X29182392Y13025133D01*
X29182391Y13025134D01*
X29177410Y13027456D01*
X29172102Y13028878D01*
X29172100Y13028879D01*
X28978470Y13080762D01*
X28978468Y13080762D01*
X28973155Y13082186D01*
X28762500Y13100616D01*
X28551845Y13082186D01*
X28546532Y13080762D01*
X28546530Y13080762D01*
X28352900Y13028879D01*
X28352898Y13028878D01*
X28347590Y13027456D01*
X28342609Y13025134D01*
X28342608Y13025133D01*
X28160923Y12940412D01*
X28160920Y12940410D01*
X28155942Y12938089D01*
X27982724Y12816801D01*
X27833199Y12667276D01*
X27711911Y12494058D01*
X27622544Y12302410D01*
X27567814Y12098155D01*
X27549384Y11887500D01*
X22351000Y11887500D01*
X22351000Y12635634D01*
X22344245Y12697816D01*
X22293115Y12834205D01*
X22205761Y12950761D01*
X22089205Y13038115D01*
X21952816Y13089245D01*
X21890634Y13096000D01*
X20394366Y13096000D01*
X20332184Y13089245D01*
X20195795Y13038115D01*
X20079239Y12950761D01*
X19991885Y12834205D01*
X19940755Y12697816D01*
X19934000Y12635634D01*
X19934000Y11139366D01*
X16408500Y11139366D01*
X16408500Y12838134D01*
X16401745Y12900316D01*
X16350615Y13036705D01*
X16263261Y13153261D01*
X16146705Y13240615D01*
X16010316Y13291745D01*
X15948134Y13298500D01*
X13651866Y13298500D01*
X13589684Y13291745D01*
X13453295Y13240615D01*
X13336739Y13153261D01*
X13249385Y13036705D01*
X13198255Y12900316D01*
X13191500Y12838134D01*
X13191500Y12629300D01*
X13171498Y12561179D01*
X13117842Y12514686D01*
X13065500Y12503300D01*
X12599070Y12503300D01*
X12530949Y12523302D01*
X12509975Y12540205D01*
X8985205Y16064975D01*
X8951179Y16127287D01*
X8948300Y16154070D01*
X8948300Y19310000D01*
X13186526Y19310000D01*
X13206391Y19057597D01*
X13265495Y18811409D01*
X13362384Y18577498D01*
X13494672Y18361624D01*
X13659102Y18169102D01*
X13851624Y18004672D01*
X14067498Y17872384D01*
X14072068Y17870491D01*
X14072072Y17870489D01*
X14296836Y17777389D01*
X14301409Y17775495D01*
X14386032Y17755179D01*
X14542784Y17717546D01*
X14542790Y17717545D01*
X14547597Y17716391D01*
X14800000Y17696526D01*
X15052403Y17716391D01*
X15057210Y17717545D01*
X15057216Y17717546D01*
X15213968Y17755179D01*
X15298591Y17775495D01*
X15303164Y17777389D01*
X15527928Y17870489D01*
X15527932Y17870491D01*
X15532502Y17872384D01*
X15748376Y18004672D01*
X15940898Y18169102D01*
X16105328Y18361624D01*
X16237616Y18577498D01*
X16334505Y18811409D01*
X16393609Y19057597D01*
X16413474Y19310000D01*
X16397930Y19507500D01*
X19929384Y19507500D01*
X19947814Y19296845D01*
X19949238Y19291532D01*
X19949238Y19291530D01*
X19991468Y19133928D01*
X20002544Y19092590D01*
X20004866Y19087609D01*
X20004867Y19087608D01*
X20018862Y19057597D01*
X20091911Y18900942D01*
X20213199Y18727724D01*
X20362724Y18578199D01*
X20535942Y18456911D01*
X20540920Y18454590D01*
X20540923Y18454588D01*
X20721592Y18370341D01*
X20727590Y18367544D01*
X20732898Y18366122D01*
X20732900Y18366121D01*
X20926530Y18314238D01*
X20926532Y18314238D01*
X20931845Y18312814D01*
X21142500Y18294384D01*
X21353155Y18312814D01*
X21358468Y18314238D01*
X21358470Y18314238D01*
X21552100Y18366121D01*
X21552102Y18366122D01*
X21557410Y18367544D01*
X21563408Y18370341D01*
X21744077Y18454588D01*
X21744080Y18454590D01*
X21749058Y18456911D01*
X21922276Y18578199D01*
X22071801Y18727724D01*
X22193089Y18900942D01*
X22266139Y19057597D01*
X22280133Y19087608D01*
X22280134Y19087609D01*
X22282456Y19092590D01*
X22293533Y19133928D01*
X22335762Y19291530D01*
X22335762Y19291532D01*
X22337186Y19296845D01*
X22355616Y19507500D01*
X27549384Y19507500D01*
X27567814Y19296845D01*
X27569238Y19291532D01*
X27569238Y19291530D01*
X27611468Y19133928D01*
X27622544Y19092590D01*
X27624866Y19087609D01*
X27624867Y19087608D01*
X27638862Y19057597D01*
X27711911Y18900942D01*
X27833199Y18727724D01*
X27982724Y18578199D01*
X28155942Y18456911D01*
X28160920Y18454590D01*
X28160923Y18454588D01*
X28341592Y18370341D01*
X28347590Y18367544D01*
X28352898Y18366122D01*
X28352900Y18366121D01*
X28546530Y18314238D01*
X28546532Y18314238D01*
X28551845Y18312814D01*
X28762500Y18294384D01*
X28973155Y18312814D01*
X28978468Y18314238D01*
X28978470Y18314238D01*
X29172100Y18366121D01*
X29172102Y18366122D01*
X29177410Y18367544D01*
X29183408Y18370341D01*
X29364077Y18454588D01*
X29364080Y18454590D01*
X29369058Y18456911D01*
X29420940Y18493239D01*
X33192794Y18493239D01*
X33202090Y18481224D01*
X33231689Y18460499D01*
X33241177Y18455021D01*
X33422777Y18370341D01*
X33433071Y18366593D01*
X33626622Y18314731D01*
X33637409Y18312829D01*
X33837025Y18295365D01*
X33847975Y18295365D01*
X34047591Y18312829D01*
X34058378Y18314731D01*
X34251929Y18366593D01*
X34262223Y18370341D01*
X34443823Y18455021D01*
X34453311Y18460499D01*
X34483748Y18481811D01*
X34492123Y18492288D01*
X34485054Y18505736D01*
X33855312Y19135478D01*
X33841368Y19143092D01*
X33839535Y19142961D01*
X33832920Y19138710D01*
X33199224Y18505014D01*
X33192794Y18493239D01*
X29420940Y18493239D01*
X29542276Y18578199D01*
X29691801Y18727724D01*
X29813089Y18900942D01*
X29886139Y19057597D01*
X29900133Y19087608D01*
X29900134Y19087609D01*
X29902456Y19092590D01*
X29913533Y19133928D01*
X29955762Y19291530D01*
X29955762Y19291532D01*
X29957186Y19296845D01*
X29975137Y19502025D01*
X32630365Y19502025D01*
X32647829Y19302409D01*
X32649731Y19291622D01*
X32701593Y19098071D01*
X32705341Y19087777D01*
X32790021Y18906177D01*
X32795499Y18896689D01*
X32816811Y18866252D01*
X32827288Y18857877D01*
X32840736Y18864946D01*
X33470478Y19494688D01*
X33476856Y19506368D01*
X34206908Y19506368D01*
X34207039Y19504535D01*
X34211290Y19497920D01*
X34844986Y18864224D01*
X34856761Y18857794D01*
X34868776Y18867090D01*
X34889501Y18896689D01*
X34894979Y18906177D01*
X34979659Y19087777D01*
X34983407Y19098071D01*
X35035269Y19291622D01*
X35037171Y19302409D01*
X35054635Y19502025D01*
X35054635Y19512975D01*
X35037171Y19712591D01*
X35035269Y19723378D01*
X34983407Y19916929D01*
X34979659Y19927223D01*
X34894979Y20108823D01*
X34889501Y20118311D01*
X34868189Y20148748D01*
X34857712Y20157123D01*
X34844264Y20150054D01*
X34214522Y19520312D01*
X34206908Y19506368D01*
X33476856Y19506368D01*
X33478092Y19508632D01*
X33477961Y19510465D01*
X33473710Y19517080D01*
X32840014Y20150776D01*
X32828239Y20157206D01*
X32816224Y20147910D01*
X32795499Y20118311D01*
X32790021Y20108823D01*
X32705341Y19927223D01*
X32701593Y19916929D01*
X32649731Y19723378D01*
X32647829Y19712591D01*
X32630365Y19512975D01*
X32630365Y19502025D01*
X29975137Y19502025D01*
X29975616Y19507500D01*
X29957186Y19718155D01*
X29955762Y19723470D01*
X29903879Y19917100D01*
X29903878Y19917102D01*
X29902456Y19922410D01*
X29900133Y19927392D01*
X29815412Y20109077D01*
X29815410Y20109080D01*
X29813089Y20114058D01*
X29691801Y20287276D01*
X29542276Y20436801D01*
X29419582Y20522712D01*
X33192877Y20522712D01*
X33199946Y20509264D01*
X33829688Y19879522D01*
X33843632Y19871908D01*
X33845465Y19872039D01*
X33852080Y19876290D01*
X34485776Y20509986D01*
X34492206Y20521761D01*
X34482910Y20533776D01*
X34453311Y20554501D01*
X34443823Y20559979D01*
X34262223Y20644659D01*
X34251929Y20648407D01*
X34058378Y20700269D01*
X34047591Y20702171D01*
X33847975Y20719635D01*
X33837025Y20719635D01*
X33637409Y20702171D01*
X33626622Y20700269D01*
X33433071Y20648407D01*
X33422777Y20644659D01*
X33241177Y20559979D01*
X33231689Y20554501D01*
X33201252Y20533189D01*
X33192877Y20522712D01*
X29419582Y20522712D01*
X29369058Y20558089D01*
X29364080Y20560410D01*
X29364077Y20560412D01*
X29182392Y20645133D01*
X29182391Y20645134D01*
X29177410Y20647456D01*
X29172102Y20648878D01*
X29172100Y20648879D01*
X28978470Y20700762D01*
X28978468Y20700762D01*
X28973155Y20702186D01*
X28762500Y20720616D01*
X28551845Y20702186D01*
X28546532Y20700762D01*
X28546530Y20700762D01*
X28352900Y20648879D01*
X28352898Y20648878D01*
X28347590Y20647456D01*
X28342609Y20645134D01*
X28342608Y20645133D01*
X28160923Y20560412D01*
X28160920Y20560410D01*
X28155942Y20558089D01*
X27982724Y20436801D01*
X27833199Y20287276D01*
X27711911Y20114058D01*
X27709590Y20109080D01*
X27709588Y20109077D01*
X27624867Y19927392D01*
X27622544Y19922410D01*
X27621122Y19917102D01*
X27621121Y19917100D01*
X27569238Y19723470D01*
X27567814Y19718155D01*
X27549384Y19507500D01*
X22355616Y19507500D01*
X22337186Y19718155D01*
X22335762Y19723470D01*
X22283879Y19917100D01*
X22283878Y19917102D01*
X22282456Y19922410D01*
X22280133Y19927392D01*
X22195412Y20109077D01*
X22195410Y20109080D01*
X22193089Y20114058D01*
X22071801Y20287276D01*
X21922276Y20436801D01*
X21749058Y20558089D01*
X21744080Y20560410D01*
X21744077Y20560412D01*
X21562392Y20645133D01*
X21562391Y20645134D01*
X21557410Y20647456D01*
X21552102Y20648878D01*
X21552100Y20648879D01*
X21358470Y20700762D01*
X21358468Y20700762D01*
X21353155Y20702186D01*
X21142500Y20720616D01*
X20931845Y20702186D01*
X20926532Y20700762D01*
X20926530Y20700762D01*
X20732900Y20648879D01*
X20732898Y20648878D01*
X20727590Y20647456D01*
X20722609Y20645134D01*
X20722608Y20645133D01*
X20540923Y20560412D01*
X20540920Y20560410D01*
X20535942Y20558089D01*
X20362724Y20436801D01*
X20213199Y20287276D01*
X20091911Y20114058D01*
X20089590Y20109080D01*
X20089588Y20109077D01*
X20004867Y19927392D01*
X20002544Y19922410D01*
X20001122Y19917102D01*
X20001121Y19917100D01*
X19949238Y19723470D01*
X19947814Y19718155D01*
X19929384Y19507500D01*
X16397930Y19507500D01*
X16393609Y19562403D01*
X16382936Y19606862D01*
X16344235Y19768063D01*
X16334505Y19808591D01*
X16330002Y19819462D01*
X16239511Y20037928D01*
X16239509Y20037932D01*
X16237616Y20042502D01*
X16105328Y20258376D01*
X15940898Y20450898D01*
X15748376Y20615328D01*
X15532502Y20747616D01*
X15527932Y20749509D01*
X15527928Y20749511D01*
X15303164Y20842611D01*
X15303162Y20842612D01*
X15298591Y20844505D01*
X15200289Y20868105D01*
X15057216Y20902454D01*
X15057210Y20902455D01*
X15052403Y20903609D01*
X14800000Y20923474D01*
X14547597Y20903609D01*
X14542790Y20902455D01*
X14542784Y20902454D01*
X14399711Y20868105D01*
X14301409Y20844505D01*
X14296838Y20842612D01*
X14296836Y20842611D01*
X14072072Y20749511D01*
X14072068Y20749509D01*
X14067498Y20747616D01*
X13851624Y20615328D01*
X13659102Y20450898D01*
X13494672Y20258376D01*
X13362384Y20042502D01*
X13360491Y20037932D01*
X13360489Y20037928D01*
X13269998Y19819462D01*
X13265495Y19808591D01*
X13255765Y19768063D01*
X13217065Y19606862D01*
X13206391Y19562403D01*
X13186526Y19310000D01*
X8948300Y19310000D01*
X8948300Y21745930D01*
X8968302Y21814051D01*
X8985205Y21835025D01*
X10735353Y23585173D01*
X10746528Y23595095D01*
X10769133Y23612884D01*
X10769136Y23612887D01*
X10774674Y23617245D01*
X10793667Y23640699D01*
X10804105Y23653588D01*
X10806031Y23655851D01*
X10807530Y23657350D01*
X10809723Y23660097D01*
X10809731Y23660106D01*
X10833643Y23690059D01*
X10834193Y23690743D01*
X10885444Y23754033D01*
X10889502Y23759044D01*
X10890773Y23761626D01*
X10892563Y23763869D01*
X10930873Y23843116D01*
X10931190Y23843766D01*
X10967210Y23916968D01*
X10967211Y23916971D01*
X10970060Y23922761D01*
X10970726Y23925556D01*
X10971977Y23928144D01*
X10991759Y24013829D01*
X10991960Y24014685D01*
X11010846Y24093960D01*
X11010846Y24093962D01*
X11012346Y24100257D01*
X11012376Y24103132D01*
X11013022Y24105930D01*
X11013330Y24193967D01*
X11013335Y24194725D01*
X11014188Y24276244D01*
X11014256Y24282709D01*
X11013649Y24285517D01*
X11013659Y24288392D01*
X10994473Y24374224D01*
X10994308Y24374972D01*
X10977066Y24454724D01*
X10977066Y24454725D01*
X10975698Y24461051D01*
X10974482Y24463658D01*
X10973856Y24466460D01*
X10971080Y24472306D01*
X10970927Y24472761D01*
X10970445Y24473954D01*
X10970159Y24474785D01*
X10963300Y24515789D01*
X10963300Y35160930D01*
X10983302Y35229051D01*
X11000205Y35250025D01*
X12539975Y36789795D01*
X12602287Y36823821D01*
X12629070Y36826700D01*
X13265500Y36826700D01*
X13333621Y36806698D01*
X13380114Y36753042D01*
X13391500Y36700700D01*
X13391500Y36491866D01*
X13398255Y36429684D01*
X13449385Y36293295D01*
X13536739Y36176739D01*
X13653295Y36089385D01*
X13789684Y36038255D01*
X13851866Y36031500D01*
X16148134Y36031500D01*
X16210316Y36038255D01*
X16346705Y36089385D01*
X16463261Y36176739D01*
X16550615Y36293295D01*
X16601745Y36429684D01*
X16608500Y36491866D01*
X16608500Y37039366D01*
X20384000Y37039366D01*
X20390755Y36977184D01*
X20441885Y36840795D01*
X20529239Y36724239D01*
X20645795Y36636885D01*
X20782184Y36585755D01*
X20844366Y36579000D01*
X22340634Y36579000D01*
X22402816Y36585755D01*
X22539205Y36636885D01*
X22655761Y36724239D01*
X22743115Y36840795D01*
X22794245Y36977184D01*
X22801000Y37039366D01*
X22801000Y37787500D01*
X27999384Y37787500D01*
X28017814Y37576845D01*
X28019238Y37571532D01*
X28019238Y37571530D01*
X28049907Y37457074D01*
X28072544Y37372590D01*
X28074866Y37367609D01*
X28074867Y37367608D01*
X28129709Y37250000D01*
X28161911Y37180942D01*
X28283199Y37007724D01*
X28432724Y36858199D01*
X28605942Y36736911D01*
X28610920Y36734590D01*
X28610923Y36734588D01*
X28791592Y36650341D01*
X28797590Y36647544D01*
X28802898Y36646122D01*
X28802900Y36646121D01*
X28996530Y36594238D01*
X28996532Y36594238D01*
X29001845Y36592814D01*
X29212500Y36574384D01*
X29423155Y36592814D01*
X29428468Y36594238D01*
X29428470Y36594238D01*
X29622100Y36646121D01*
X29622102Y36646122D01*
X29627410Y36647544D01*
X29633408Y36650341D01*
X29814077Y36734588D01*
X29814080Y36734590D01*
X29819058Y36736911D01*
X29870940Y36773239D01*
X33642794Y36773239D01*
X33652090Y36761224D01*
X33681689Y36740499D01*
X33691177Y36735021D01*
X33872777Y36650341D01*
X33883071Y36646593D01*
X34076622Y36594731D01*
X34087409Y36592829D01*
X34287025Y36575365D01*
X34297975Y36575365D01*
X34497591Y36592829D01*
X34508378Y36594731D01*
X34701929Y36646593D01*
X34712223Y36650341D01*
X34893823Y36735021D01*
X34903311Y36740499D01*
X34933748Y36761811D01*
X34942123Y36772288D01*
X34935054Y36785736D01*
X34305312Y37415478D01*
X34291368Y37423092D01*
X34289535Y37422961D01*
X34282920Y37418710D01*
X33649224Y36785014D01*
X33642794Y36773239D01*
X29870940Y36773239D01*
X29992276Y36858199D01*
X30141801Y37007724D01*
X30263089Y37180942D01*
X30295292Y37250000D01*
X30350133Y37367608D01*
X30350134Y37367609D01*
X30352456Y37372590D01*
X30375094Y37457074D01*
X30405762Y37571530D01*
X30405762Y37571532D01*
X30407186Y37576845D01*
X30425137Y37782025D01*
X33080365Y37782025D01*
X33097829Y37582409D01*
X33099731Y37571622D01*
X33151593Y37378071D01*
X33155341Y37367777D01*
X33240021Y37186177D01*
X33245499Y37176689D01*
X33266811Y37146252D01*
X33277288Y37137877D01*
X33290736Y37144946D01*
X33920478Y37774688D01*
X33926856Y37786368D01*
X34656908Y37786368D01*
X34657039Y37784535D01*
X34661290Y37777920D01*
X35294986Y37144224D01*
X35306761Y37137794D01*
X35318776Y37147090D01*
X35339501Y37176689D01*
X35344979Y37186177D01*
X35429659Y37367777D01*
X35433407Y37378071D01*
X35485269Y37571622D01*
X35487171Y37582409D01*
X35504635Y37782025D01*
X35504635Y37792975D01*
X35487171Y37992591D01*
X35485269Y38003378D01*
X35433407Y38196929D01*
X35429659Y38207223D01*
X35344979Y38388823D01*
X35339501Y38398311D01*
X35318189Y38428748D01*
X35307712Y38437123D01*
X35294264Y38430054D01*
X34664522Y37800312D01*
X34656908Y37786368D01*
X33926856Y37786368D01*
X33928092Y37788632D01*
X33927961Y37790465D01*
X33923710Y37797080D01*
X33290014Y38430776D01*
X33278239Y38437206D01*
X33266224Y38427910D01*
X33245499Y38398311D01*
X33240021Y38388823D01*
X33155341Y38207223D01*
X33151593Y38196929D01*
X33099731Y38003378D01*
X33097829Y37992591D01*
X33080365Y37792975D01*
X33080365Y37782025D01*
X30425137Y37782025D01*
X30425616Y37787500D01*
X30407186Y37998155D01*
X30398449Y38030762D01*
X30353879Y38197100D01*
X30353878Y38197102D01*
X30352456Y38202410D01*
X30287703Y38341273D01*
X30265412Y38389077D01*
X30265410Y38389080D01*
X30263089Y38394058D01*
X30141801Y38567276D01*
X29992276Y38716801D01*
X29869582Y38802712D01*
X33642877Y38802712D01*
X33649946Y38789264D01*
X34279688Y38159522D01*
X34293632Y38151908D01*
X34295465Y38152039D01*
X34302080Y38156290D01*
X34935776Y38789986D01*
X34942206Y38801761D01*
X34932910Y38813776D01*
X34903311Y38834501D01*
X34893823Y38839979D01*
X34712223Y38924659D01*
X34701929Y38928407D01*
X34508378Y38980269D01*
X34497591Y38982171D01*
X34297975Y38999635D01*
X34287025Y38999635D01*
X34087409Y38982171D01*
X34076622Y38980269D01*
X33883071Y38928407D01*
X33872777Y38924659D01*
X33691177Y38839979D01*
X33681689Y38834501D01*
X33651252Y38813189D01*
X33642877Y38802712D01*
X29869582Y38802712D01*
X29819058Y38838089D01*
X29814080Y38840410D01*
X29814077Y38840412D01*
X29632392Y38925133D01*
X29632391Y38925134D01*
X29627410Y38927456D01*
X29622102Y38928878D01*
X29622100Y38928879D01*
X29428470Y38980762D01*
X29428468Y38980762D01*
X29423155Y38982186D01*
X29212500Y39000616D01*
X29001845Y38982186D01*
X28996532Y38980762D01*
X28996530Y38980762D01*
X28802900Y38928879D01*
X28802898Y38928878D01*
X28797590Y38927456D01*
X28792609Y38925134D01*
X28792608Y38925133D01*
X28610923Y38840412D01*
X28610920Y38840410D01*
X28605942Y38838089D01*
X28432724Y38716801D01*
X28283199Y38567276D01*
X28161911Y38394058D01*
X28159590Y38389080D01*
X28159588Y38389077D01*
X28137297Y38341273D01*
X28072544Y38202410D01*
X28071122Y38197102D01*
X28071121Y38197100D01*
X28026551Y38030762D01*
X28017814Y37998155D01*
X27999384Y37787500D01*
X22801000Y37787500D01*
X22801000Y38535634D01*
X22794245Y38597816D01*
X22743115Y38734205D01*
X22655761Y38850761D01*
X22539205Y38938115D01*
X22402816Y38989245D01*
X22340634Y38996000D01*
X20844366Y38996000D01*
X20782184Y38989245D01*
X20645795Y38938115D01*
X20529239Y38850761D01*
X20441885Y38734205D01*
X20390755Y38597816D01*
X20384000Y38535634D01*
X20384000Y37039366D01*
X16608500Y37039366D01*
X16608500Y38788134D01*
X16601745Y38850316D01*
X16550615Y38986705D01*
X16463261Y39103261D01*
X16346705Y39190615D01*
X16210316Y39241745D01*
X16148134Y39248500D01*
X13851866Y39248500D01*
X13789684Y39241745D01*
X13653295Y39190615D01*
X13536739Y39103261D01*
X13449385Y38986705D01*
X13398255Y38850316D01*
X13391500Y38788134D01*
X13391500Y38579300D01*
X13371498Y38511179D01*
X13317842Y38464686D01*
X13265500Y38453300D01*
X12629070Y38453300D01*
X12560949Y38473302D01*
X12539975Y38490205D01*
X11750205Y39279975D01*
X11716179Y39342287D01*
X11713300Y39369070D01*
X11713300Y45260000D01*
X13386526Y45260000D01*
X13406391Y45007597D01*
X13407545Y45002790D01*
X13407546Y45002784D01*
X13434765Y44889410D01*
X13465495Y44761409D01*
X13467388Y44756838D01*
X13467389Y44756836D01*
X13559598Y44534225D01*
X13562384Y44527498D01*
X13694672Y44311624D01*
X13859102Y44119102D01*
X14051624Y43954672D01*
X14267498Y43822384D01*
X14272068Y43820491D01*
X14272072Y43820489D01*
X14496836Y43727389D01*
X14501409Y43725495D01*
X14586032Y43705179D01*
X14742784Y43667546D01*
X14742790Y43667545D01*
X14747597Y43666391D01*
X15000000Y43646526D01*
X15252403Y43666391D01*
X15257210Y43667545D01*
X15257216Y43667546D01*
X15413968Y43705179D01*
X15498591Y43725495D01*
X15503164Y43727389D01*
X15727928Y43820489D01*
X15727932Y43820491D01*
X15732502Y43822384D01*
X15948376Y43954672D01*
X16140898Y44119102D01*
X16305328Y44311624D01*
X16437616Y44527498D01*
X16440403Y44534225D01*
X16532611Y44756836D01*
X16532612Y44756838D01*
X16534505Y44761409D01*
X16565235Y44889410D01*
X16592454Y45002784D01*
X16592455Y45002790D01*
X16593609Y45007597D01*
X16613474Y45260000D01*
X16601865Y45407500D01*
X20379384Y45407500D01*
X20397814Y45196845D01*
X20399238Y45191532D01*
X20399238Y45191530D01*
X20449813Y45002784D01*
X20452544Y44992590D01*
X20454866Y44987609D01*
X20454867Y44987608D01*
X20500658Y44889410D01*
X20541911Y44800942D01*
X20663199Y44627724D01*
X20812724Y44478199D01*
X20985942Y44356911D01*
X20990920Y44354590D01*
X20990923Y44354588D01*
X21171592Y44270341D01*
X21177590Y44267544D01*
X21182898Y44266122D01*
X21182900Y44266121D01*
X21376530Y44214238D01*
X21376532Y44214238D01*
X21381845Y44212814D01*
X21592500Y44194384D01*
X21803155Y44212814D01*
X21808468Y44214238D01*
X21808470Y44214238D01*
X22002100Y44266121D01*
X22002102Y44266122D01*
X22007410Y44267544D01*
X22013408Y44270341D01*
X22194077Y44354588D01*
X22194080Y44354590D01*
X22199058Y44356911D01*
X22372276Y44478199D01*
X22521801Y44627724D01*
X22643089Y44800942D01*
X22684343Y44889410D01*
X22730133Y44987608D01*
X22730134Y44987609D01*
X22732456Y44992590D01*
X22735188Y45002784D01*
X22785762Y45191530D01*
X22785762Y45191532D01*
X22787186Y45196845D01*
X22805616Y45407500D01*
X27999384Y45407500D01*
X28017814Y45196845D01*
X28019238Y45191532D01*
X28019238Y45191530D01*
X28069813Y45002784D01*
X28072544Y44992590D01*
X28074866Y44987609D01*
X28074867Y44987608D01*
X28120658Y44889410D01*
X28161911Y44800942D01*
X28283199Y44627724D01*
X28432724Y44478199D01*
X28605942Y44356911D01*
X28610920Y44354590D01*
X28610923Y44354588D01*
X28791592Y44270341D01*
X28797590Y44267544D01*
X28802898Y44266122D01*
X28802900Y44266121D01*
X28996530Y44214238D01*
X28996532Y44214238D01*
X29001845Y44212814D01*
X29212500Y44194384D01*
X29423155Y44212814D01*
X29428468Y44214238D01*
X29428470Y44214238D01*
X29622100Y44266121D01*
X29622102Y44266122D01*
X29627410Y44267544D01*
X29633408Y44270341D01*
X29814077Y44354588D01*
X29814080Y44354590D01*
X29819058Y44356911D01*
X29870940Y44393239D01*
X33642794Y44393239D01*
X33652090Y44381224D01*
X33681689Y44360499D01*
X33691177Y44355021D01*
X33872777Y44270341D01*
X33883071Y44266593D01*
X34076622Y44214731D01*
X34087409Y44212829D01*
X34287025Y44195365D01*
X34297975Y44195365D01*
X34497591Y44212829D01*
X34508378Y44214731D01*
X34701929Y44266593D01*
X34712223Y44270341D01*
X34893823Y44355021D01*
X34903311Y44360499D01*
X34933748Y44381811D01*
X34942123Y44392288D01*
X34935054Y44405736D01*
X34305312Y45035478D01*
X34291368Y45043092D01*
X34289535Y45042961D01*
X34282920Y45038710D01*
X33649224Y44405014D01*
X33642794Y44393239D01*
X29870940Y44393239D01*
X29992276Y44478199D01*
X30141801Y44627724D01*
X30263089Y44800942D01*
X30304343Y44889410D01*
X30350133Y44987608D01*
X30350134Y44987609D01*
X30352456Y44992590D01*
X30355188Y45002784D01*
X30405762Y45191530D01*
X30405762Y45191532D01*
X30407186Y45196845D01*
X30425137Y45402025D01*
X33080365Y45402025D01*
X33097829Y45202409D01*
X33099731Y45191622D01*
X33151593Y44998071D01*
X33155341Y44987777D01*
X33240021Y44806177D01*
X33245499Y44796689D01*
X33266811Y44766252D01*
X33277288Y44757877D01*
X33290736Y44764946D01*
X33920478Y45394688D01*
X33926856Y45406368D01*
X34656908Y45406368D01*
X34657039Y45404535D01*
X34661290Y45397920D01*
X35294986Y44764224D01*
X35306761Y44757794D01*
X35318776Y44767090D01*
X35339501Y44796689D01*
X35344979Y44806177D01*
X35429659Y44987777D01*
X35433407Y44998071D01*
X35485269Y45191622D01*
X35487171Y45202409D01*
X35504635Y45402025D01*
X35504635Y45412975D01*
X35487171Y45612591D01*
X35485269Y45623378D01*
X35433407Y45816929D01*
X35429659Y45827223D01*
X35344979Y46008823D01*
X35339501Y46018311D01*
X35318189Y46048748D01*
X35307712Y46057123D01*
X35294264Y46050054D01*
X34664522Y45420312D01*
X34656908Y45406368D01*
X33926856Y45406368D01*
X33928092Y45408632D01*
X33927961Y45410465D01*
X33923710Y45417080D01*
X33290014Y46050776D01*
X33278239Y46057206D01*
X33266224Y46047910D01*
X33245499Y46018311D01*
X33240021Y46008823D01*
X33155341Y45827223D01*
X33151593Y45816929D01*
X33099731Y45623378D01*
X33097829Y45612591D01*
X33080365Y45412975D01*
X33080365Y45402025D01*
X30425137Y45402025D01*
X30425616Y45407500D01*
X30407186Y45618155D01*
X30389383Y45684598D01*
X30353879Y45817100D01*
X30353878Y45817102D01*
X30352456Y45822410D01*
X30284088Y45969026D01*
X30265412Y46009077D01*
X30265410Y46009080D01*
X30263089Y46014058D01*
X30141801Y46187276D01*
X29992276Y46336801D01*
X29869582Y46422712D01*
X33642877Y46422712D01*
X33649946Y46409264D01*
X34279688Y45779522D01*
X34293632Y45771908D01*
X34295465Y45772039D01*
X34302080Y45776290D01*
X34935776Y46409986D01*
X34942206Y46421761D01*
X34932910Y46433776D01*
X34903311Y46454501D01*
X34893823Y46459979D01*
X34712223Y46544659D01*
X34701929Y46548407D01*
X34508378Y46600269D01*
X34497591Y46602171D01*
X34297975Y46619635D01*
X34287025Y46619635D01*
X34087409Y46602171D01*
X34076622Y46600269D01*
X33883071Y46548407D01*
X33872777Y46544659D01*
X33691177Y46459979D01*
X33681689Y46454501D01*
X33651252Y46433189D01*
X33642877Y46422712D01*
X29869582Y46422712D01*
X29819058Y46458089D01*
X29814080Y46460410D01*
X29814077Y46460412D01*
X29632392Y46545133D01*
X29632391Y46545134D01*
X29627410Y46547456D01*
X29622102Y46548878D01*
X29622100Y46548879D01*
X29428470Y46600762D01*
X29428468Y46600762D01*
X29423155Y46602186D01*
X29212500Y46620616D01*
X29001845Y46602186D01*
X28996532Y46600762D01*
X28996530Y46600762D01*
X28802900Y46548879D01*
X28802898Y46548878D01*
X28797590Y46547456D01*
X28792609Y46545134D01*
X28792608Y46545133D01*
X28610923Y46460412D01*
X28610920Y46460410D01*
X28605942Y46458089D01*
X28432724Y46336801D01*
X28283199Y46187276D01*
X28161911Y46014058D01*
X28159590Y46009080D01*
X28159588Y46009077D01*
X28140912Y45969026D01*
X28072544Y45822410D01*
X28071122Y45817102D01*
X28071121Y45817100D01*
X28035617Y45684598D01*
X28017814Y45618155D01*
X27999384Y45407500D01*
X22805616Y45407500D01*
X22787186Y45618155D01*
X22769383Y45684598D01*
X22733879Y45817100D01*
X22733878Y45817102D01*
X22732456Y45822410D01*
X22664088Y45969026D01*
X22645412Y46009077D01*
X22645410Y46009080D01*
X22643089Y46014058D01*
X22521801Y46187276D01*
X22372276Y46336801D01*
X22199058Y46458089D01*
X22194080Y46460410D01*
X22194077Y46460412D01*
X22012392Y46545133D01*
X22012391Y46545134D01*
X22007410Y46547456D01*
X22002102Y46548878D01*
X22002100Y46548879D01*
X21808470Y46600762D01*
X21808468Y46600762D01*
X21803155Y46602186D01*
X21592500Y46620616D01*
X21381845Y46602186D01*
X21376532Y46600762D01*
X21376530Y46600762D01*
X21182900Y46548879D01*
X21182898Y46548878D01*
X21177590Y46547456D01*
X21172609Y46545134D01*
X21172608Y46545133D01*
X20990923Y46460412D01*
X20990920Y46460410D01*
X20985942Y46458089D01*
X20812724Y46336801D01*
X20663199Y46187276D01*
X20541911Y46014058D01*
X20539590Y46009080D01*
X20539588Y46009077D01*
X20520912Y45969026D01*
X20452544Y45822410D01*
X20451122Y45817102D01*
X20451121Y45817100D01*
X20415617Y45684598D01*
X20397814Y45618155D01*
X20379384Y45407500D01*
X16601865Y45407500D01*
X16593609Y45512403D01*
X16573904Y45594484D01*
X16535660Y45753779D01*
X16534505Y45758591D01*
X16525835Y45779522D01*
X16439511Y45987928D01*
X16439509Y45987932D01*
X16437616Y45992502D01*
X16305328Y46208376D01*
X16140898Y46400898D01*
X15948376Y46565328D01*
X15732502Y46697616D01*
X15727932Y46699509D01*
X15727928Y46699511D01*
X15503164Y46792611D01*
X15503162Y46792612D01*
X15498591Y46794505D01*
X15400106Y46818149D01*
X15257216Y46852454D01*
X15257210Y46852455D01*
X15252403Y46853609D01*
X15000000Y46873474D01*
X14747597Y46853609D01*
X14742790Y46852455D01*
X14742784Y46852454D01*
X14599894Y46818149D01*
X14501409Y46794505D01*
X14496838Y46792612D01*
X14496836Y46792611D01*
X14272072Y46699511D01*
X14272068Y46699509D01*
X14267498Y46697616D01*
X14051624Y46565328D01*
X13859102Y46400898D01*
X13694672Y46208376D01*
X13562384Y45992502D01*
X13560491Y45987932D01*
X13560489Y45987928D01*
X13474165Y45779522D01*
X13465495Y45758591D01*
X13464340Y45753779D01*
X13426097Y45594484D01*
X13406391Y45512403D01*
X13386526Y45260000D01*
X11713300Y45260000D01*
X11713300Y60960930D01*
X11733302Y61029051D01*
X11750205Y61050025D01*
X13127593Y62427413D01*
X13189905Y62461439D01*
X13260720Y62456374D01*
X13317556Y62413827D01*
X13334670Y62382547D01*
X13349385Y62343295D01*
X13436739Y62226739D01*
X13553295Y62139385D01*
X13689684Y62088255D01*
X13751866Y62081500D01*
X16048134Y62081500D01*
X16110316Y62088255D01*
X16246705Y62139385D01*
X16363261Y62226739D01*
X16450615Y62343295D01*
X16501745Y62479684D01*
X16508500Y62541866D01*
X16508500Y63089366D01*
X19934000Y63089366D01*
X19940755Y63027184D01*
X19991885Y62890795D01*
X20079239Y62774239D01*
X20195795Y62686885D01*
X20332184Y62635755D01*
X20394366Y62629000D01*
X21890634Y62629000D01*
X21952816Y62635755D01*
X22089205Y62686885D01*
X22205761Y62774239D01*
X22293115Y62890795D01*
X22344245Y63027184D01*
X22351000Y63089366D01*
X22351000Y63837500D01*
X27549384Y63837500D01*
X27567814Y63626845D01*
X27569238Y63621532D01*
X27569238Y63621530D01*
X27603263Y63494549D01*
X27622544Y63422590D01*
X27711911Y63230942D01*
X27833199Y63057724D01*
X27982724Y62908199D01*
X28155942Y62786911D01*
X28160920Y62784590D01*
X28160923Y62784588D01*
X28341592Y62700341D01*
X28347590Y62697544D01*
X28352898Y62696122D01*
X28352900Y62696121D01*
X28546530Y62644238D01*
X28546532Y62644238D01*
X28551845Y62642814D01*
X28762500Y62624384D01*
X28973155Y62642814D01*
X28978468Y62644238D01*
X28978470Y62644238D01*
X29172100Y62696121D01*
X29172102Y62696122D01*
X29177410Y62697544D01*
X29183408Y62700341D01*
X29364077Y62784588D01*
X29364080Y62784590D01*
X29369058Y62786911D01*
X29420940Y62823239D01*
X33192794Y62823239D01*
X33202090Y62811224D01*
X33231689Y62790499D01*
X33241177Y62785021D01*
X33422777Y62700341D01*
X33433071Y62696593D01*
X33626622Y62644731D01*
X33637409Y62642829D01*
X33837025Y62625365D01*
X33847975Y62625365D01*
X34047591Y62642829D01*
X34058378Y62644731D01*
X34251929Y62696593D01*
X34262223Y62700341D01*
X34443823Y62785021D01*
X34453311Y62790499D01*
X34483748Y62811811D01*
X34492123Y62822288D01*
X34485054Y62835736D01*
X33855312Y63465478D01*
X33841368Y63473092D01*
X33839535Y63472961D01*
X33832920Y63468710D01*
X33199224Y62835014D01*
X33192794Y62823239D01*
X29420940Y62823239D01*
X29542276Y62908199D01*
X29691801Y63057724D01*
X29813089Y63230942D01*
X29902456Y63422590D01*
X29921738Y63494549D01*
X29955762Y63621530D01*
X29955762Y63621532D01*
X29957186Y63626845D01*
X29975137Y63832025D01*
X32630365Y63832025D01*
X32647829Y63632409D01*
X32649731Y63621622D01*
X32701593Y63428071D01*
X32705341Y63417777D01*
X32790021Y63236177D01*
X32795499Y63226689D01*
X32816811Y63196252D01*
X32827288Y63187877D01*
X32840736Y63194946D01*
X33470478Y63824688D01*
X33476856Y63836368D01*
X34206908Y63836368D01*
X34207039Y63834535D01*
X34211290Y63827920D01*
X34844986Y63194224D01*
X34856761Y63187794D01*
X34868776Y63197090D01*
X34889501Y63226689D01*
X34894979Y63236177D01*
X34979659Y63417777D01*
X34983407Y63428071D01*
X35035269Y63621622D01*
X35037171Y63632409D01*
X35054635Y63832025D01*
X35054635Y63842975D01*
X35037171Y64042591D01*
X35035269Y64053378D01*
X34983407Y64246929D01*
X34979659Y64257223D01*
X34894979Y64438823D01*
X34889501Y64448311D01*
X34868189Y64478748D01*
X34857712Y64487123D01*
X34844264Y64480054D01*
X34214522Y63850312D01*
X34206908Y63836368D01*
X33476856Y63836368D01*
X33478092Y63838632D01*
X33477961Y63840465D01*
X33473710Y63847080D01*
X32840014Y64480776D01*
X32828239Y64487206D01*
X32816224Y64477910D01*
X32795499Y64448311D01*
X32790021Y64438823D01*
X32705341Y64257223D01*
X32701593Y64246929D01*
X32649731Y64053378D01*
X32647829Y64042591D01*
X32630365Y63842975D01*
X32630365Y63832025D01*
X29975137Y63832025D01*
X29975616Y63837500D01*
X29957186Y64048155D01*
X29940237Y64111410D01*
X29903879Y64247100D01*
X29903878Y64247102D01*
X29902456Y64252410D01*
X29891797Y64275269D01*
X29815412Y64439077D01*
X29815410Y64439080D01*
X29813089Y64444058D01*
X29691801Y64617276D01*
X29542276Y64766801D01*
X29419582Y64852712D01*
X33192877Y64852712D01*
X33199946Y64839264D01*
X33829688Y64209522D01*
X33843632Y64201908D01*
X33845465Y64202039D01*
X33852080Y64206290D01*
X34485776Y64839986D01*
X34492206Y64851761D01*
X34482910Y64863776D01*
X34453311Y64884501D01*
X34443823Y64889979D01*
X34262223Y64974659D01*
X34251929Y64978407D01*
X34058378Y65030269D01*
X34047591Y65032171D01*
X33847975Y65049635D01*
X33837025Y65049635D01*
X33637409Y65032171D01*
X33626622Y65030269D01*
X33433071Y64978407D01*
X33422777Y64974659D01*
X33241177Y64889979D01*
X33231689Y64884501D01*
X33201252Y64863189D01*
X33192877Y64852712D01*
X29419582Y64852712D01*
X29369058Y64888089D01*
X29364080Y64890410D01*
X29364077Y64890412D01*
X29182392Y64975133D01*
X29182391Y64975134D01*
X29177410Y64977456D01*
X29172102Y64978878D01*
X29172100Y64978879D01*
X28978470Y65030762D01*
X28978468Y65030762D01*
X28973155Y65032186D01*
X28762500Y65050616D01*
X28551845Y65032186D01*
X28546532Y65030762D01*
X28546530Y65030762D01*
X28352900Y64978879D01*
X28352898Y64978878D01*
X28347590Y64977456D01*
X28342609Y64975134D01*
X28342608Y64975133D01*
X28160923Y64890412D01*
X28160920Y64890410D01*
X28155942Y64888089D01*
X27982724Y64766801D01*
X27833199Y64617276D01*
X27711911Y64444058D01*
X27709590Y64439080D01*
X27709588Y64439077D01*
X27633203Y64275269D01*
X27622544Y64252410D01*
X27621122Y64247102D01*
X27621121Y64247100D01*
X27584763Y64111410D01*
X27567814Y64048155D01*
X27549384Y63837500D01*
X22351000Y63837500D01*
X22351000Y64585634D01*
X22344245Y64647816D01*
X22293115Y64784205D01*
X22205761Y64900761D01*
X22089205Y64988115D01*
X21952816Y65039245D01*
X21890634Y65046000D01*
X20394366Y65046000D01*
X20332184Y65039245D01*
X20195795Y64988115D01*
X20079239Y64900761D01*
X19991885Y64784205D01*
X19940755Y64647816D01*
X19934000Y64585634D01*
X19934000Y63089366D01*
X16508500Y63089366D01*
X16508500Y64838134D01*
X16501745Y64900316D01*
X16450615Y65036705D01*
X16363261Y65153261D01*
X16246705Y65240615D01*
X16110316Y65291745D01*
X16048134Y65298500D01*
X13751866Y65298500D01*
X13689684Y65291745D01*
X13553295Y65240615D01*
X13436739Y65153261D01*
X13349385Y65036705D01*
X13298255Y64900316D01*
X13291500Y64838134D01*
X13291500Y64630177D01*
X13271498Y64562056D01*
X13217842Y64515563D01*
X13171265Y64505686D01*
X13171345Y64504894D01*
X13164337Y64504182D01*
X13157291Y64504256D01*
X13150405Y64502767D01*
X13150403Y64502767D01*
X13131670Y64498716D01*
X13114630Y64495032D01*
X13102051Y64492972D01*
X13065671Y64488892D01*
X13065668Y64488891D01*
X13058675Y64488107D01*
X13029393Y64477910D01*
X13026774Y64476998D01*
X13011964Y64472836D01*
X12985839Y64467188D01*
X12985836Y64467187D01*
X12978949Y64465698D01*
X12972562Y64462720D01*
X12972560Y64462719D01*
X12939390Y64447251D01*
X12927581Y64442455D01*
X12886361Y64428101D01*
X12880386Y64424367D01*
X12880381Y64424365D01*
X12857720Y64410205D01*
X12844201Y64402864D01*
X12819963Y64391562D01*
X12819959Y64391560D01*
X12813582Y64388586D01*
X12808023Y64384274D01*
X12808015Y64384269D01*
X12779092Y64361833D01*
X12768634Y64354537D01*
X12738466Y64335686D01*
X12731624Y64331411D01*
X12726624Y64326445D01*
X12726622Y64326444D01*
X12702656Y64302644D01*
X12702018Y64302047D01*
X12701347Y64301527D01*
X12675089Y64275269D01*
X12608882Y64209522D01*
X12602154Y64202841D01*
X12601494Y64201800D01*
X12600385Y64200565D01*
X11928395Y63528575D01*
X11866083Y63494549D01*
X11795268Y63499614D01*
X11738432Y63542161D01*
X11713621Y63608681D01*
X11713300Y63617670D01*
X11713300Y71310000D01*
X13286526Y71310000D01*
X13306391Y71057597D01*
X13307545Y71052790D01*
X13307546Y71052784D01*
X13336679Y70931436D01*
X13365495Y70811409D01*
X13367388Y70806838D01*
X13367389Y70806836D01*
X13450042Y70607295D01*
X13462384Y70577498D01*
X13594672Y70361624D01*
X13759102Y70169102D01*
X13951624Y70004672D01*
X14167498Y69872384D01*
X14172068Y69870491D01*
X14172072Y69870489D01*
X14396836Y69777389D01*
X14401409Y69775495D01*
X14486032Y69755179D01*
X14642784Y69717546D01*
X14642790Y69717545D01*
X14647597Y69716391D01*
X14900000Y69696526D01*
X15152403Y69716391D01*
X15157210Y69717545D01*
X15157216Y69717546D01*
X15313968Y69755179D01*
X15398591Y69775495D01*
X15403164Y69777389D01*
X15627928Y69870489D01*
X15627932Y69870491D01*
X15632502Y69872384D01*
X15848376Y70004672D01*
X16040898Y70169102D01*
X16205328Y70361624D01*
X16337616Y70577498D01*
X16349959Y70607295D01*
X16432611Y70806836D01*
X16432612Y70806838D01*
X16434505Y70811409D01*
X16463321Y70931436D01*
X16492454Y71052784D01*
X16492455Y71052790D01*
X16493609Y71057597D01*
X16513474Y71310000D01*
X16501865Y71457500D01*
X19929384Y71457500D01*
X19947814Y71246845D01*
X19949238Y71241532D01*
X19949238Y71241530D01*
X20000035Y71051955D01*
X20002544Y71042590D01*
X20004866Y71037609D01*
X20004867Y71037608D01*
X20069468Y70899072D01*
X20091911Y70850942D01*
X20213199Y70677724D01*
X20362724Y70528199D01*
X20535942Y70406911D01*
X20540920Y70404590D01*
X20540923Y70404588D01*
X20624023Y70365838D01*
X20727590Y70317544D01*
X20732898Y70316122D01*
X20732900Y70316121D01*
X20926530Y70264238D01*
X20926532Y70264238D01*
X20931845Y70262814D01*
X21142500Y70244384D01*
X21353155Y70262814D01*
X21358468Y70264238D01*
X21358470Y70264238D01*
X21552100Y70316121D01*
X21552102Y70316122D01*
X21557410Y70317544D01*
X21660977Y70365838D01*
X21744077Y70404588D01*
X21744080Y70404590D01*
X21749058Y70406911D01*
X21922276Y70528199D01*
X22071801Y70677724D01*
X22193089Y70850942D01*
X22215533Y70899072D01*
X22280133Y71037608D01*
X22280134Y71037609D01*
X22282456Y71042590D01*
X22284966Y71051955D01*
X22335762Y71241530D01*
X22335762Y71241532D01*
X22337186Y71246845D01*
X22355616Y71457500D01*
X27549384Y71457500D01*
X27567814Y71246845D01*
X27569238Y71241532D01*
X27569238Y71241530D01*
X27620035Y71051955D01*
X27622544Y71042590D01*
X27624866Y71037609D01*
X27624867Y71037608D01*
X27689468Y70899072D01*
X27711911Y70850942D01*
X27833199Y70677724D01*
X27982724Y70528199D01*
X28155942Y70406911D01*
X28160920Y70404590D01*
X28160923Y70404588D01*
X28244023Y70365838D01*
X28347590Y70317544D01*
X28352898Y70316122D01*
X28352900Y70316121D01*
X28546530Y70264238D01*
X28546532Y70264238D01*
X28551845Y70262814D01*
X28762500Y70244384D01*
X28973155Y70262814D01*
X28978468Y70264238D01*
X28978470Y70264238D01*
X29172100Y70316121D01*
X29172102Y70316122D01*
X29177410Y70317544D01*
X29280977Y70365838D01*
X29364077Y70404588D01*
X29364080Y70404590D01*
X29369058Y70406911D01*
X29420940Y70443239D01*
X33192794Y70443239D01*
X33202090Y70431224D01*
X33231689Y70410499D01*
X33241177Y70405021D01*
X33422777Y70320341D01*
X33433071Y70316593D01*
X33626622Y70264731D01*
X33637409Y70262829D01*
X33837025Y70245365D01*
X33847975Y70245365D01*
X34047591Y70262829D01*
X34058378Y70264731D01*
X34251929Y70316593D01*
X34262223Y70320341D01*
X34443823Y70405021D01*
X34453311Y70410499D01*
X34483748Y70431811D01*
X34492123Y70442288D01*
X34485054Y70455736D01*
X33855312Y71085478D01*
X33841368Y71093092D01*
X33839535Y71092961D01*
X33832920Y71088710D01*
X33199224Y70455014D01*
X33192794Y70443239D01*
X29420940Y70443239D01*
X29542276Y70528199D01*
X29691801Y70677724D01*
X29813089Y70850942D01*
X29835533Y70899072D01*
X29900133Y71037608D01*
X29900134Y71037609D01*
X29902456Y71042590D01*
X29904966Y71051955D01*
X29955762Y71241530D01*
X29955762Y71241532D01*
X29957186Y71246845D01*
X29975137Y71452025D01*
X32630365Y71452025D01*
X32647829Y71252409D01*
X32649731Y71241622D01*
X32701593Y71048071D01*
X32705341Y71037777D01*
X32790021Y70856177D01*
X32795499Y70846689D01*
X32816811Y70816252D01*
X32827288Y70807877D01*
X32840736Y70814946D01*
X33470478Y71444688D01*
X33476856Y71456368D01*
X34206908Y71456368D01*
X34207039Y71454535D01*
X34211290Y71447920D01*
X34844986Y70814224D01*
X34856761Y70807794D01*
X34868776Y70817090D01*
X34889501Y70846689D01*
X34894979Y70856177D01*
X34979659Y71037777D01*
X34983407Y71048071D01*
X35035269Y71241622D01*
X35037171Y71252409D01*
X35054635Y71452025D01*
X35054635Y71462975D01*
X35037171Y71662591D01*
X35035269Y71673378D01*
X34983407Y71866929D01*
X34979659Y71877223D01*
X34894979Y72058823D01*
X34889501Y72068311D01*
X34868189Y72098748D01*
X34857712Y72107123D01*
X34844264Y72100054D01*
X34214522Y71470312D01*
X34206908Y71456368D01*
X33476856Y71456368D01*
X33478092Y71458632D01*
X33477961Y71460465D01*
X33473710Y71467080D01*
X32840014Y72100776D01*
X32828239Y72107206D01*
X32816224Y72097910D01*
X32795499Y72068311D01*
X32790021Y72058823D01*
X32705341Y71877223D01*
X32701593Y71866929D01*
X32649731Y71673378D01*
X32647829Y71662591D01*
X32630365Y71462975D01*
X32630365Y71452025D01*
X29975137Y71452025D01*
X29975616Y71457500D01*
X29957186Y71668155D01*
X29902456Y71872410D01*
X29896544Y71885089D01*
X29815412Y72059077D01*
X29815410Y72059080D01*
X29813089Y72064058D01*
X29691801Y72237276D01*
X29542276Y72386801D01*
X29419582Y72472712D01*
X33192877Y72472712D01*
X33199946Y72459264D01*
X33829688Y71829522D01*
X33843632Y71821908D01*
X33845465Y71822039D01*
X33852080Y71826290D01*
X34393081Y72367291D01*
X35835744Y72367291D01*
X35837233Y72360404D01*
X35844967Y72324635D01*
X35847028Y72312051D01*
X35851893Y72268675D01*
X35856947Y72254162D01*
X35863002Y72236774D01*
X35867164Y72221964D01*
X35874302Y72188949D01*
X35877280Y72182562D01*
X35877281Y72182560D01*
X35892752Y72149381D01*
X35897547Y72137573D01*
X35911899Y72096361D01*
X35915632Y72090387D01*
X35929797Y72067718D01*
X35937133Y72054208D01*
X35951415Y72023581D01*
X35970796Y71998595D01*
X35978169Y71989090D01*
X35985462Y71978636D01*
X36008589Y71941624D01*
X36013554Y71936625D01*
X36013555Y71936623D01*
X36037356Y71912656D01*
X36037953Y71912018D01*
X36038473Y71911347D01*
X36064731Y71885089D01*
X36127473Y71821908D01*
X36137159Y71812154D01*
X36138200Y71811494D01*
X36139435Y71810385D01*
X36310725Y71639095D01*
X36344751Y71576783D01*
X36339686Y71505968D01*
X36310725Y71460905D01*
X36131531Y71281711D01*
X36130594Y71280782D01*
X36065750Y71217282D01*
X36061936Y71211364D01*
X36061932Y71211359D01*
X36042105Y71180593D01*
X36034666Y71170240D01*
X36007437Y71136131D01*
X36004372Y71129791D01*
X36004369Y71129786D01*
X35992735Y71105721D01*
X35985208Y71092308D01*
X35970726Y71069836D01*
X35970723Y71069829D01*
X35966908Y71063910D01*
X35964498Y71057290D01*
X35964498Y71057289D01*
X35951979Y71022893D01*
X35947019Y71011152D01*
X35928023Y70971856D01*
X35920423Y70938936D01*
X35916057Y70924201D01*
X35906911Y70899072D01*
X35906909Y70899066D01*
X35904502Y70892451D01*
X35903620Y70885468D01*
X35899031Y70849141D01*
X35896797Y70836600D01*
X35886978Y70794070D01*
X35886953Y70787024D01*
X35886953Y70787021D01*
X35886835Y70753259D01*
X35886805Y70752366D01*
X35886700Y70751530D01*
X35886700Y70714594D01*
X35886699Y70714154D01*
X35886445Y70641321D01*
X35886341Y70611608D01*
X35886611Y70610402D01*
X35886700Y70608753D01*
X35886700Y48089217D01*
X35886693Y48087897D01*
X35885744Y47997291D01*
X35887233Y47990404D01*
X35894967Y47954635D01*
X35897028Y47942051D01*
X35899742Y47917857D01*
X35901893Y47898675D01*
X35904208Y47892028D01*
X35913002Y47866774D01*
X35917164Y47851964D01*
X35924302Y47818949D01*
X35927280Y47812562D01*
X35927281Y47812560D01*
X35942752Y47779381D01*
X35947547Y47767573D01*
X35961899Y47726361D01*
X35965632Y47720387D01*
X35979797Y47697718D01*
X35987133Y47684208D01*
X36001415Y47653581D01*
X36009166Y47643589D01*
X36028169Y47619090D01*
X36035462Y47608636D01*
X36058589Y47571624D01*
X36063554Y47566625D01*
X36063555Y47566623D01*
X36087356Y47542656D01*
X36087953Y47542018D01*
X36088473Y47541347D01*
X36114731Y47515089D01*
X36187159Y47442154D01*
X36188200Y47441494D01*
X36189435Y47440385D01*
X38122958Y45506862D01*
X38156984Y45444550D01*
X38159863Y45417767D01*
X38159863Y45412975D01*
X38159384Y45407500D01*
X38159863Y45402025D01*
X38159863Y45397233D01*
X38139861Y45329112D01*
X38122958Y45308138D01*
X36481531Y43666711D01*
X36480594Y43665782D01*
X36423455Y43609827D01*
X36415750Y43602282D01*
X36411936Y43596364D01*
X36411932Y43596359D01*
X36392105Y43565593D01*
X36384666Y43555240D01*
X36357437Y43521131D01*
X36354372Y43514791D01*
X36354369Y43514786D01*
X36342735Y43490721D01*
X36335208Y43477308D01*
X36320726Y43454836D01*
X36320723Y43454829D01*
X36316908Y43448910D01*
X36314498Y43442290D01*
X36314498Y43442289D01*
X36301979Y43407893D01*
X36297018Y43396149D01*
X36282829Y43366797D01*
X36278023Y43356856D01*
X36270423Y43323936D01*
X36266057Y43309201D01*
X36256911Y43284072D01*
X36256909Y43284066D01*
X36254502Y43277451D01*
X36253620Y43270468D01*
X36249031Y43234141D01*
X36246797Y43221600D01*
X36236978Y43179070D01*
X36236953Y43172024D01*
X36236953Y43172021D01*
X36236835Y43138259D01*
X36236805Y43137366D01*
X36236700Y43136530D01*
X36236700Y43099594D01*
X36236699Y43099154D01*
X36236489Y43038886D01*
X36236341Y42996608D01*
X36236611Y42995402D01*
X36236700Y42993753D01*
X36236700Y21389217D01*
X36236693Y21387897D01*
X36235744Y21297291D01*
X36243367Y21262037D01*
X36244967Y21254635D01*
X36247028Y21242051D01*
X36251893Y21198675D01*
X36257869Y21181514D01*
X36263002Y21166774D01*
X36267164Y21151964D01*
X36274302Y21118949D01*
X36277280Y21112562D01*
X36277281Y21112560D01*
X36292752Y21079381D01*
X36297547Y21067573D01*
X36311899Y21026361D01*
X36315632Y21020387D01*
X36329797Y20997718D01*
X36337133Y20984208D01*
X36351415Y20953581D01*
X36360888Y20941369D01*
X36378169Y20919090D01*
X36385462Y20908636D01*
X36408589Y20871624D01*
X36413554Y20866625D01*
X36413555Y20866623D01*
X36437356Y20842656D01*
X36437953Y20842018D01*
X36438473Y20841347D01*
X36464731Y20815089D01*
X36523198Y20756213D01*
X36537159Y20742154D01*
X36538200Y20741494D01*
X36539435Y20740385D01*
X37672958Y19606862D01*
X37706984Y19544550D01*
X37709863Y19517767D01*
X37709863Y19512975D01*
X37709384Y19507500D01*
X37727814Y19296845D01*
X37729238Y19291532D01*
X37729238Y19291530D01*
X37771468Y19133928D01*
X37782544Y19092590D01*
X37784866Y19087609D01*
X37784867Y19087608D01*
X37798862Y19057597D01*
X37871911Y18900942D01*
X37993199Y18727724D01*
X38142724Y18578199D01*
X38315942Y18456911D01*
X38320920Y18454590D01*
X38320923Y18454588D01*
X38501592Y18370341D01*
X38507590Y18367544D01*
X38512898Y18366122D01*
X38512900Y18366121D01*
X38706530Y18314238D01*
X38706532Y18314238D01*
X38711845Y18312814D01*
X38922500Y18294384D01*
X39133155Y18312814D01*
X39138468Y18314238D01*
X39138470Y18314238D01*
X39332100Y18366121D01*
X39332102Y18366122D01*
X39337410Y18367544D01*
X39343408Y18370341D01*
X39524077Y18454588D01*
X39524080Y18454590D01*
X39529058Y18456911D01*
X39702276Y18578199D01*
X39851801Y18727724D01*
X39973089Y18900942D01*
X40046139Y19057597D01*
X40060133Y19087608D01*
X40060134Y19087609D01*
X40062456Y19092590D01*
X40073533Y19133928D01*
X40115762Y19291530D01*
X40115762Y19291532D01*
X40117186Y19296845D01*
X40135616Y19507500D01*
X40117186Y19718155D01*
X40115762Y19723470D01*
X40063879Y19917100D01*
X40063878Y19917102D01*
X40062456Y19922410D01*
X40060133Y19927392D01*
X39975412Y20109077D01*
X39975410Y20109080D01*
X39973089Y20114058D01*
X39851801Y20287276D01*
X39702276Y20436801D01*
X39529058Y20558089D01*
X39524080Y20560410D01*
X39524077Y20560412D01*
X39342392Y20645133D01*
X39342391Y20645134D01*
X39337410Y20647456D01*
X39332102Y20648878D01*
X39332100Y20648879D01*
X39138470Y20700762D01*
X39138468Y20700762D01*
X39133155Y20702186D01*
X38922500Y20720616D01*
X38917025Y20720137D01*
X38912233Y20720137D01*
X38844112Y20740139D01*
X38823138Y20757042D01*
X37900205Y21679975D01*
X37866179Y21742287D01*
X37863300Y21769070D01*
X37863300Y42695930D01*
X37883302Y42764051D01*
X37900205Y42785025D01*
X39273138Y44157958D01*
X39335450Y44191984D01*
X39362233Y44194863D01*
X39367025Y44194863D01*
X39372500Y44194384D01*
X39583155Y44212814D01*
X39588468Y44214238D01*
X39588470Y44214238D01*
X39782100Y44266121D01*
X39782102Y44266122D01*
X39787410Y44267544D01*
X39793408Y44270341D01*
X39974077Y44354588D01*
X39974080Y44354590D01*
X39979058Y44356911D01*
X40152276Y44478199D01*
X40301801Y44627724D01*
X40423089Y44800942D01*
X40464343Y44889410D01*
X40510133Y44987608D01*
X40510134Y44987609D01*
X40512456Y44992590D01*
X40515188Y45002784D01*
X40565762Y45191530D01*
X40565762Y45191532D01*
X40567186Y45196845D01*
X40585616Y45407500D01*
X40567186Y45618155D01*
X40549383Y45684598D01*
X40513879Y45817100D01*
X40513878Y45817102D01*
X40512456Y45822410D01*
X40444088Y45969026D01*
X40425412Y46009077D01*
X40425410Y46009080D01*
X40423089Y46014058D01*
X40301801Y46187276D01*
X40152276Y46336801D01*
X39979058Y46458089D01*
X39974080Y46460410D01*
X39974077Y46460412D01*
X39792392Y46545133D01*
X39792391Y46545134D01*
X39787410Y46547456D01*
X39782102Y46548878D01*
X39782100Y46548879D01*
X39588470Y46600762D01*
X39588468Y46600762D01*
X39583155Y46602186D01*
X39372500Y46620616D01*
X39367025Y46620137D01*
X39362233Y46620137D01*
X39294112Y46640139D01*
X39273138Y46657042D01*
X37550205Y48379975D01*
X37516179Y48442287D01*
X37513300Y48469070D01*
X37513300Y63470356D01*
X37533302Y63538477D01*
X37586958Y63584970D01*
X37657232Y63595074D01*
X37721812Y63565580D01*
X37761007Y63502967D01*
X37782544Y63422590D01*
X37871911Y63230942D01*
X37993199Y63057724D01*
X38142724Y62908199D01*
X38315942Y62786911D01*
X38320920Y62784590D01*
X38320923Y62784588D01*
X38501592Y62700341D01*
X38507590Y62697544D01*
X38512898Y62696122D01*
X38512900Y62696121D01*
X38706530Y62644238D01*
X38706532Y62644238D01*
X38711845Y62642814D01*
X38922500Y62624384D01*
X39133155Y62642814D01*
X39138468Y62644238D01*
X39138470Y62644238D01*
X39332100Y62696121D01*
X39332102Y62696122D01*
X39337410Y62697544D01*
X39343408Y62700341D01*
X39524077Y62784588D01*
X39524080Y62784590D01*
X39529058Y62786911D01*
X39702276Y62908199D01*
X39781372Y62987295D01*
X39843684Y63021321D01*
X39870467Y63024200D01*
X40473430Y63024200D01*
X40541551Y63004198D01*
X40562525Y62987295D01*
X41849795Y61700025D01*
X41883821Y61637713D01*
X41886700Y61610930D01*
X41886700Y41504069D01*
X41866698Y41435948D01*
X41849795Y41414974D01*
X39471862Y39037042D01*
X39409550Y39003016D01*
X39382767Y39000137D01*
X39377975Y39000137D01*
X39372500Y39000616D01*
X39161845Y38982186D01*
X39156532Y38980762D01*
X39156530Y38980762D01*
X38962900Y38928879D01*
X38962898Y38928878D01*
X38957590Y38927456D01*
X38952609Y38925134D01*
X38952608Y38925133D01*
X38770923Y38840412D01*
X38770920Y38840410D01*
X38765942Y38838089D01*
X38592724Y38716801D01*
X38443199Y38567276D01*
X38321911Y38394058D01*
X38319590Y38389080D01*
X38319588Y38389077D01*
X38297297Y38341273D01*
X38232544Y38202410D01*
X38231122Y38197102D01*
X38231121Y38197100D01*
X38186551Y38030762D01*
X38177814Y37998155D01*
X38159384Y37787500D01*
X38177814Y37576845D01*
X38179238Y37571532D01*
X38179238Y37571530D01*
X38209907Y37457074D01*
X38232544Y37372590D01*
X38234866Y37367609D01*
X38234867Y37367608D01*
X38289709Y37250000D01*
X38321911Y37180942D01*
X38443199Y37007724D01*
X38592724Y36858199D01*
X38765942Y36736911D01*
X38770920Y36734590D01*
X38770923Y36734588D01*
X38951592Y36650341D01*
X38957590Y36647544D01*
X38962898Y36646122D01*
X38962900Y36646121D01*
X39156530Y36594238D01*
X39156532Y36594238D01*
X39161845Y36592814D01*
X39361287Y36575365D01*
X39367025Y36574863D01*
X39372500Y36574384D01*
X39377975Y36574863D01*
X39382767Y36574863D01*
X39450888Y36554861D01*
X39471862Y36537958D01*
X42249795Y33760025D01*
X42283821Y33697713D01*
X42286700Y33670930D01*
X42286700Y16454070D01*
X42266698Y16385949D01*
X42249795Y16364975D01*
X39021862Y13137042D01*
X38959550Y13103016D01*
X38932767Y13100137D01*
X38927975Y13100137D01*
X38922500Y13100616D01*
X38711845Y13082186D01*
X38706532Y13080762D01*
X38706530Y13080762D01*
X38512900Y13028879D01*
X38512898Y13028878D01*
X38507590Y13027456D01*
X38502609Y13025134D01*
X38502608Y13025133D01*
X38320923Y12940412D01*
X38320920Y12940410D01*
X38315942Y12938089D01*
X38142724Y12816801D01*
X37993199Y12667276D01*
X37871911Y12494058D01*
X37782544Y12302410D01*
X37727814Y12098155D01*
X37709384Y11887500D01*
X37727814Y11676845D01*
X37729238Y11671532D01*
X37729238Y11671530D01*
X37774676Y11501955D01*
X37782544Y11472590D01*
X37784866Y11467609D01*
X37784867Y11467608D01*
X37828333Y11374396D01*
X37871911Y11280942D01*
X37993199Y11107724D01*
X38142724Y10958199D01*
X38315942Y10836911D01*
X38320920Y10834590D01*
X38320923Y10834588D01*
X38388574Y10803042D01*
X38507590Y10747544D01*
X38512898Y10746122D01*
X38512900Y10746121D01*
X38706530Y10694238D01*
X38706532Y10694238D01*
X38711845Y10692814D01*
X38922500Y10674384D01*
X39133155Y10692814D01*
X39138468Y10694238D01*
X39138470Y10694238D01*
X39332100Y10746121D01*
X39332102Y10746122D01*
X39337410Y10747544D01*
X39456426Y10803042D01*
X39524077Y10834588D01*
X39524080Y10834590D01*
X39529058Y10836911D01*
X39702276Y10958199D01*
X39851801Y11107724D01*
X39973089Y11280942D01*
X40016668Y11374396D01*
X40060133Y11467608D01*
X40060134Y11467609D01*
X40062456Y11472590D01*
X40070325Y11501955D01*
X40109316Y11647474D01*
X51637050Y11647474D01*
X51649947Y11378981D01*
X51702388Y11115344D01*
X51793220Y10862354D01*
X51795432Y10858238D01*
X51795433Y10858235D01*
X51808139Y10834588D01*
X51920450Y10625569D01*
X51923241Y10621832D01*
X51923245Y10621825D01*
X52035720Y10471204D01*
X52081281Y10410190D01*
X52084590Y10406910D01*
X52084595Y10406904D01*
X52259097Y10233919D01*
X52272180Y10220950D01*
X52275942Y10218192D01*
X52275945Y10218189D01*
X52388299Y10135808D01*
X52488954Y10062005D01*
X52493089Y10059829D01*
X52493093Y10059827D01*
X52722698Y9939025D01*
X52726840Y9936846D01*
X52980613Y9848225D01*
X52985206Y9847353D01*
X53240109Y9798958D01*
X53240112Y9798958D01*
X53244698Y9798087D01*
X53372370Y9793071D01*
X53508625Y9787717D01*
X53508630Y9787717D01*
X53513293Y9787534D01*
X53617607Y9798958D01*
X53775844Y9816287D01*
X53775850Y9816288D01*
X53780497Y9816797D01*
X53785021Y9817988D01*
X54035918Y9884044D01*
X54035920Y9884045D01*
X54040441Y9885235D01*
X54044738Y9887081D01*
X54283120Y9989498D01*
X54283122Y9989499D01*
X54287414Y9991343D01*
X54448505Y10091029D01*
X54512017Y10130331D01*
X54512021Y10130334D01*
X54515990Y10132790D01*
X54721149Y10306470D01*
X54898382Y10508566D01*
X54917617Y10538469D01*
X55041269Y10730709D01*
X55043797Y10734639D01*
X55154199Y10979722D01*
X55177060Y11060782D01*
X55225893Y11233928D01*
X55225894Y11233931D01*
X55227163Y11238432D01*
X55245043Y11378981D01*
X55260688Y11501955D01*
X55260688Y11501959D01*
X55261086Y11505085D01*
X55261558Y11523092D01*
X55263488Y11596840D01*
X55263571Y11600000D01*
X55258255Y11671530D01*
X55243996Y11863410D01*
X55243996Y11863413D01*
X55243650Y11868063D01*
X55238013Y11892975D01*
X55185361Y12125669D01*
X55185360Y12125674D01*
X55184327Y12130237D01*
X55086902Y12380762D01*
X54953518Y12614136D01*
X54936571Y12635634D01*
X54796821Y12812906D01*
X54787105Y12825231D01*
X54591317Y13009409D01*
X54407336Y13137042D01*
X54374299Y13159961D01*
X54374296Y13159963D01*
X54370457Y13162626D01*
X54366264Y13164694D01*
X54133564Y13279449D01*
X54133561Y13279450D01*
X54129376Y13281514D01*
X54106081Y13288971D01*
X54027621Y13314086D01*
X53873370Y13363462D01*
X53868763Y13364212D01*
X53868760Y13364213D01*
X53612674Y13405919D01*
X53612675Y13405919D01*
X53608063Y13406670D01*
X53477719Y13408376D01*
X53343961Y13410127D01*
X53343958Y13410127D01*
X53339284Y13410188D01*
X53072937Y13373940D01*
X52814874Y13298722D01*
X52570763Y13186185D01*
X52566854Y13183622D01*
X52349881Y13041369D01*
X52349876Y13041365D01*
X52345968Y13038803D01*
X52145426Y12859812D01*
X51973544Y12653146D01*
X51971121Y12649153D01*
X51877007Y12494058D01*
X51834096Y12423344D01*
X51832287Y12419030D01*
X51832285Y12419026D01*
X51783384Y12302410D01*
X51730148Y12175455D01*
X51663981Y11914923D01*
X51637050Y11647474D01*
X40109316Y11647474D01*
X40115762Y11671530D01*
X40115762Y11671532D01*
X40117186Y11676845D01*
X40135616Y11887500D01*
X40135137Y11892975D01*
X40135137Y11897767D01*
X40155139Y11965888D01*
X40172042Y11986862D01*
X43668469Y15483289D01*
X43669406Y15484218D01*
X43729218Y15542790D01*
X43729219Y15542791D01*
X43734250Y15547718D01*
X43738064Y15553636D01*
X43738068Y15553641D01*
X43757895Y15584407D01*
X43765334Y15594760D01*
X43788170Y15623366D01*
X43792563Y15628869D01*
X43795628Y15635209D01*
X43795631Y15635214D01*
X43807265Y15659279D01*
X43814792Y15672692D01*
X43829274Y15695164D01*
X43829277Y15695171D01*
X43833092Y15701090D01*
X43848023Y15742111D01*
X43852982Y15753851D01*
X43868911Y15786801D01*
X43868912Y15786803D01*
X43871977Y15793144D01*
X43879577Y15826064D01*
X43883943Y15840799D01*
X43893089Y15865928D01*
X43893091Y15865934D01*
X43895498Y15872549D01*
X43900969Y15915859D01*
X43903203Y15928400D01*
X43913022Y15970930D01*
X43913165Y16011739D01*
X43913194Y16012632D01*
X43913300Y16013470D01*
X43913300Y16050685D01*
X43913350Y16064975D01*
X43913646Y16149859D01*
X43913646Y16149864D01*
X43913658Y16153392D01*
X43913389Y16154595D01*
X43913300Y16156240D01*
X43913300Y19547474D01*
X51437050Y19547474D01*
X51437274Y19542808D01*
X51437274Y19542803D01*
X51443738Y19408242D01*
X51449947Y19278981D01*
X51502388Y19015344D01*
X51593220Y18762354D01*
X51720450Y18525569D01*
X51723241Y18521832D01*
X51723245Y18521825D01*
X51773454Y18454588D01*
X51881281Y18310190D01*
X51884590Y18306910D01*
X51884595Y18306904D01*
X52019817Y18172858D01*
X52072180Y18120950D01*
X52075942Y18118192D01*
X52075945Y18118189D01*
X52188299Y18035808D01*
X52288954Y17962005D01*
X52293089Y17959829D01*
X52293093Y17959827D01*
X52522698Y17839025D01*
X52526840Y17836846D01*
X52780613Y17748225D01*
X52785206Y17747353D01*
X53040109Y17698958D01*
X53040112Y17698958D01*
X53044698Y17698087D01*
X53172370Y17693071D01*
X53308625Y17687717D01*
X53308630Y17687717D01*
X53313293Y17687534D01*
X53417607Y17698958D01*
X53575844Y17716287D01*
X53575850Y17716288D01*
X53580497Y17716797D01*
X53585021Y17717988D01*
X53835918Y17784044D01*
X53835920Y17784045D01*
X53840441Y17785235D01*
X53844738Y17787081D01*
X54083120Y17889498D01*
X54083122Y17889499D01*
X54087414Y17891343D01*
X54206071Y17964770D01*
X54312017Y18030331D01*
X54312021Y18030334D01*
X54315990Y18032790D01*
X54521149Y18206470D01*
X54698382Y18408566D01*
X54727985Y18454588D01*
X54841269Y18630709D01*
X54843797Y18634639D01*
X54954199Y18879722D01*
X54960184Y18900942D01*
X55025893Y19133928D01*
X55025894Y19133931D01*
X55027163Y19138432D01*
X55045043Y19278981D01*
X55060688Y19401955D01*
X55060688Y19401959D01*
X55061086Y19405085D01*
X55063571Y19500000D01*
X55043650Y19768063D01*
X55042619Y19772621D01*
X54985361Y20025669D01*
X54985360Y20025674D01*
X54984327Y20030237D01*
X54886902Y20280762D01*
X54753518Y20514136D01*
X54746758Y20522712D01*
X54671710Y20617910D01*
X54587105Y20725231D01*
X54391317Y20909409D01*
X54229490Y21021673D01*
X54174299Y21059961D01*
X54174296Y21059963D01*
X54170457Y21062626D01*
X54148202Y21073601D01*
X53933564Y21179449D01*
X53933561Y21179450D01*
X53929376Y21181514D01*
X53896531Y21192028D01*
X53720455Y21248390D01*
X53673370Y21263462D01*
X53668763Y21264212D01*
X53668760Y21264213D01*
X53412674Y21305919D01*
X53412675Y21305919D01*
X53408063Y21306670D01*
X53277719Y21308376D01*
X53143961Y21310127D01*
X53143958Y21310127D01*
X53139284Y21310188D01*
X52872937Y21273940D01*
X52868451Y21272632D01*
X52868449Y21272632D01*
X52839565Y21264213D01*
X52614874Y21198722D01*
X52610621Y21196762D01*
X52610620Y21196761D01*
X52580634Y21182937D01*
X52370763Y21086185D01*
X52366854Y21083622D01*
X52149881Y20941369D01*
X52149876Y20941365D01*
X52145968Y20938803D01*
X52066758Y20868105D01*
X51960479Y20773247D01*
X51945426Y20759812D01*
X51773544Y20553146D01*
X51634096Y20323344D01*
X51632287Y20319030D01*
X51632285Y20319026D01*
X51544247Y20109077D01*
X51530148Y20075455D01*
X51463981Y19814923D01*
X51437050Y19547474D01*
X43913300Y19547474D01*
X43913300Y23655094D01*
X52169839Y23655094D01*
X52178553Y23643573D01*
X52285452Y23565191D01*
X52293351Y23560255D01*
X52522905Y23439481D01*
X52531454Y23435764D01*
X52776327Y23350251D01*
X52785336Y23347837D01*
X53040166Y23299456D01*
X53049423Y23298402D01*
X53308607Y23288217D01*
X53317921Y23288543D01*
X53575753Y23316780D01*
X53584930Y23318481D01*
X53835758Y23384519D01*
X53844574Y23387555D01*
X54082880Y23489938D01*
X54091167Y23494252D01*
X54311718Y23630734D01*
X54319268Y23636220D01*
X54324559Y23640699D01*
X54332997Y23653503D01*
X54326935Y23663855D01*
X53262812Y24727978D01*
X53248868Y24735592D01*
X53247035Y24735461D01*
X53240420Y24731210D01*
X52176497Y23667287D01*
X52169839Y23655094D01*
X43913300Y23655094D01*
X43913300Y25142789D01*
X51437775Y25142789D01*
X51450220Y24883712D01*
X51451356Y24874457D01*
X51501961Y24620055D01*
X51504449Y24611083D01*
X51592095Y24366967D01*
X51595895Y24358432D01*
X51718658Y24129958D01*
X51723666Y24122096D01*
X51793720Y24028284D01*
X51804979Y24019835D01*
X51817397Y24026607D01*
X52877978Y25087188D01*
X52884356Y25098868D01*
X53614408Y25098868D01*
X53614539Y25097035D01*
X53618790Y25090420D01*
X54686094Y24023116D01*
X54698474Y24016356D01*
X54706815Y24022600D01*
X54840832Y24230952D01*
X54845275Y24239136D01*
X54951807Y24475630D01*
X54954997Y24484395D01*
X55025402Y24734028D01*
X55027262Y24743170D01*
X55060187Y25001981D01*
X55060668Y25008267D01*
X55062987Y25096840D01*
X55062836Y25103149D01*
X55043501Y25363337D01*
X55042125Y25372543D01*
X54984878Y25625533D01*
X54982154Y25634444D01*
X54888143Y25876194D01*
X54884132Y25884603D01*
X54755422Y26109798D01*
X54750211Y26117524D01*
X54706996Y26172342D01*
X54695071Y26180813D01*
X54683537Y26174327D01*
X53622022Y25112812D01*
X53614408Y25098868D01*
X52884356Y25098868D01*
X52885592Y25101132D01*
X52885461Y25102965D01*
X52881210Y25109580D01*
X51815816Y26174974D01*
X51802507Y26182242D01*
X51792472Y26175122D01*
X51776937Y26156444D01*
X51771531Y26148865D01*
X51636965Y25927109D01*
X51632736Y25918808D01*
X51532432Y25679611D01*
X51529471Y25670761D01*
X51465628Y25419375D01*
X51464006Y25410178D01*
X51438020Y25152115D01*
X51437775Y25142789D01*
X43913300Y25142789D01*
X43913300Y26547311D01*
X52167102Y26547311D01*
X52171675Y26537535D01*
X53237188Y25472022D01*
X53251132Y25464408D01*
X53252965Y25464539D01*
X53259580Y25468790D01*
X54324349Y26533559D01*
X54330733Y26545249D01*
X54321321Y26557359D01*
X54174045Y26659529D01*
X54166010Y26664262D01*
X53933376Y26778984D01*
X53924743Y26782472D01*
X53677703Y26861550D01*
X53668643Y26863726D01*
X53412630Y26905420D01*
X53403343Y26906232D01*
X53143992Y26909627D01*
X53134681Y26909057D01*
X52877682Y26874081D01*
X52868546Y26872140D01*
X52619543Y26799561D01*
X52610800Y26796293D01*
X52375252Y26687704D01*
X52367097Y26683184D01*
X52176240Y26558053D01*
X52167102Y26547311D01*
X43913300Y26547311D01*
X43913300Y30205094D01*
X52169839Y30205094D01*
X52178553Y30193573D01*
X52285452Y30115191D01*
X52293351Y30110255D01*
X52522905Y29989481D01*
X52531454Y29985764D01*
X52776327Y29900251D01*
X52785336Y29897837D01*
X53040166Y29849456D01*
X53049423Y29848402D01*
X53308607Y29838217D01*
X53317921Y29838543D01*
X53575753Y29866780D01*
X53584930Y29868481D01*
X53835758Y29934519D01*
X53844574Y29937555D01*
X54082880Y30039938D01*
X54091167Y30044252D01*
X54311718Y30180734D01*
X54319268Y30186220D01*
X54324559Y30190699D01*
X54332997Y30203503D01*
X54326935Y30213855D01*
X53262812Y31277978D01*
X53248868Y31285592D01*
X53247035Y31285461D01*
X53240420Y31281210D01*
X52176497Y30217287D01*
X52169839Y30205094D01*
X43913300Y30205094D01*
X43913300Y31692789D01*
X51437775Y31692789D01*
X51450220Y31433712D01*
X51451356Y31424457D01*
X51501961Y31170055D01*
X51504449Y31161083D01*
X51592095Y30916967D01*
X51595895Y30908432D01*
X51718658Y30679958D01*
X51723666Y30672096D01*
X51793720Y30578284D01*
X51804979Y30569835D01*
X51817397Y30576607D01*
X52877978Y31637188D01*
X52884356Y31648868D01*
X53614408Y31648868D01*
X53614539Y31647035D01*
X53618790Y31640420D01*
X54686094Y30573116D01*
X54698474Y30566356D01*
X54706815Y30572600D01*
X54840832Y30780952D01*
X54845275Y30789136D01*
X54951807Y31025630D01*
X54954997Y31034395D01*
X55025402Y31284028D01*
X55027262Y31293170D01*
X55060187Y31551981D01*
X55060668Y31558267D01*
X55062987Y31646840D01*
X55062836Y31653149D01*
X55043501Y31913337D01*
X55042125Y31922543D01*
X54984878Y32175533D01*
X54982154Y32184444D01*
X54888143Y32426194D01*
X54884132Y32434603D01*
X54755422Y32659798D01*
X54750211Y32667524D01*
X54706996Y32722342D01*
X54695071Y32730813D01*
X54683537Y32724327D01*
X53622022Y31662812D01*
X53614408Y31648868D01*
X52884356Y31648868D01*
X52885592Y31651132D01*
X52885461Y31652965D01*
X52881210Y31659580D01*
X51815816Y32724974D01*
X51802507Y32732242D01*
X51792472Y32725122D01*
X51776937Y32706444D01*
X51771531Y32698865D01*
X51636965Y32477109D01*
X51632736Y32468808D01*
X51532432Y32229611D01*
X51529471Y32220761D01*
X51465628Y31969375D01*
X51464006Y31960178D01*
X51438020Y31702115D01*
X51437775Y31692789D01*
X43913300Y31692789D01*
X43913300Y33097311D01*
X52167102Y33097311D01*
X52171675Y33087535D01*
X53237188Y32022022D01*
X53251132Y32014408D01*
X53252965Y32014539D01*
X53259580Y32018790D01*
X54324349Y33083559D01*
X54330733Y33095249D01*
X54321321Y33107359D01*
X54174045Y33209529D01*
X54166010Y33214262D01*
X53933376Y33328984D01*
X53924743Y33332472D01*
X53677703Y33411550D01*
X53668643Y33413726D01*
X53412630Y33455420D01*
X53403343Y33456232D01*
X53143992Y33459627D01*
X53134681Y33459057D01*
X52877682Y33424081D01*
X52868546Y33422140D01*
X52619543Y33349561D01*
X52610800Y33346293D01*
X52375252Y33237704D01*
X52367097Y33233184D01*
X52176240Y33108053D01*
X52167102Y33097311D01*
X43913300Y33097311D01*
X43913300Y34050783D01*
X43913307Y34052103D01*
X43914182Y34135662D01*
X43914256Y34142709D01*
X43905032Y34185370D01*
X43902972Y34197949D01*
X43898892Y34234329D01*
X43898891Y34234332D01*
X43898107Y34241325D01*
X43886998Y34273226D01*
X43882836Y34288036D01*
X43877187Y34314162D01*
X43875698Y34321051D01*
X43872719Y34327440D01*
X43857248Y34360619D01*
X43852452Y34372429D01*
X43840416Y34406990D01*
X43838101Y34413639D01*
X43820202Y34442283D01*
X43812867Y34455792D01*
X43798585Y34486419D01*
X43771831Y34520910D01*
X43764537Y34531366D01*
X43745145Y34562400D01*
X43741411Y34568376D01*
X43712644Y34597344D01*
X43712047Y34597982D01*
X43711527Y34598653D01*
X43685269Y34624911D01*
X43612841Y34697846D01*
X43611800Y34698506D01*
X43610565Y34699615D01*
X41012706Y37297474D01*
X51437050Y37297474D01*
X51449947Y37028981D01*
X51502388Y36765344D01*
X51593220Y36512354D01*
X51595432Y36508238D01*
X51595433Y36508235D01*
X51676220Y36357885D01*
X51720450Y36275569D01*
X51723241Y36271832D01*
X51723245Y36271825D01*
X51756304Y36227554D01*
X51881281Y36060190D01*
X51884590Y36056910D01*
X51884595Y36056904D01*
X52018685Y35923980D01*
X52072180Y35870950D01*
X52075942Y35868192D01*
X52075945Y35868189D01*
X52188299Y35785808D01*
X52288954Y35712005D01*
X52293089Y35709829D01*
X52293093Y35709827D01*
X52515407Y35592861D01*
X52526840Y35586846D01*
X52780613Y35498225D01*
X52785206Y35497353D01*
X53040109Y35448958D01*
X53040112Y35448958D01*
X53044698Y35448087D01*
X53172370Y35443071D01*
X53308625Y35437717D01*
X53308630Y35437717D01*
X53313293Y35437534D01*
X53417607Y35448958D01*
X53575844Y35466287D01*
X53575850Y35466288D01*
X53580497Y35466797D01*
X53585021Y35467988D01*
X53835918Y35534044D01*
X53835920Y35534045D01*
X53840441Y35535235D01*
X53907752Y35564154D01*
X54083120Y35639498D01*
X54083122Y35639499D01*
X54087414Y35641343D01*
X54206071Y35714770D01*
X54312017Y35780331D01*
X54312021Y35780334D01*
X54315990Y35782790D01*
X54521149Y35956470D01*
X54698382Y36158566D01*
X54710072Y36176739D01*
X54841269Y36380709D01*
X54843797Y36384639D01*
X54954199Y36629722D01*
X54959225Y36647544D01*
X55025893Y36883928D01*
X55025894Y36883931D01*
X55027163Y36888432D01*
X55045043Y37028981D01*
X55060688Y37151955D01*
X55060688Y37151959D01*
X55061086Y37155085D01*
X55061894Y37185923D01*
X55063488Y37246840D01*
X55063571Y37250000D01*
X55051033Y37418710D01*
X55043996Y37513408D01*
X55043996Y37513409D01*
X55043650Y37518063D01*
X55031531Y37571622D01*
X54985361Y37775669D01*
X54985360Y37775674D01*
X54984327Y37780237D01*
X54886902Y38030762D01*
X54753518Y38264136D01*
X54732571Y38290708D01*
X54651096Y38394058D01*
X54587105Y38475231D01*
X54391317Y38659409D01*
X54234751Y38768024D01*
X54174299Y38809961D01*
X54174296Y38809963D01*
X54170457Y38812626D01*
X54166264Y38814694D01*
X53933564Y38929449D01*
X53933561Y38929450D01*
X53929376Y38931514D01*
X53908755Y38938115D01*
X53827621Y38964086D01*
X53673370Y39013462D01*
X53668763Y39014212D01*
X53668760Y39014213D01*
X53412674Y39055919D01*
X53412675Y39055919D01*
X53408063Y39056670D01*
X53277719Y39058376D01*
X53143961Y39060127D01*
X53143958Y39060127D01*
X53139284Y39060188D01*
X52872937Y39023940D01*
X52614874Y38948722D01*
X52610621Y38946762D01*
X52610620Y38946761D01*
X52577547Y38931514D01*
X52370763Y38836185D01*
X52366854Y38833622D01*
X52149881Y38691369D01*
X52149876Y38691365D01*
X52145968Y38688803D01*
X52122872Y38668189D01*
X51970529Y38532217D01*
X51945426Y38509812D01*
X51773544Y38303146D01*
X51634096Y38073344D01*
X51632287Y38069030D01*
X51632285Y38069026D01*
X51556713Y37888805D01*
X51530148Y37825455D01*
X51463981Y37564923D01*
X51437050Y37297474D01*
X41012706Y37297474D01*
X40622042Y37688138D01*
X40588016Y37750450D01*
X40585137Y37777233D01*
X40585137Y37782025D01*
X40585616Y37787500D01*
X40585137Y37792975D01*
X40585137Y37797767D01*
X40605139Y37865888D01*
X40622042Y37886862D01*
X43268469Y40533289D01*
X43269406Y40534218D01*
X43329218Y40592790D01*
X43329219Y40592791D01*
X43334250Y40597718D01*
X43357899Y40634414D01*
X43365329Y40644754D01*
X43392563Y40678870D01*
X43395632Y40685218D01*
X43407266Y40709282D01*
X43414792Y40722694D01*
X43423407Y40736062D01*
X43433092Y40751090D01*
X43448025Y40792119D01*
X43452980Y40803849D01*
X43462172Y40822863D01*
X43471977Y40843145D01*
X43479575Y40876056D01*
X43483945Y40890806D01*
X43493086Y40915922D01*
X43493086Y40915923D01*
X43495498Y40922549D01*
X43500969Y40965859D01*
X43503203Y40978400D01*
X43513022Y41020930D01*
X43513165Y41061741D01*
X43513195Y41062634D01*
X43513300Y41063470D01*
X43513300Y41100560D01*
X43513659Y41203392D01*
X43513389Y41204598D01*
X43513300Y41206247D01*
X43513300Y45197474D01*
X51087050Y45197474D01*
X51087274Y45192808D01*
X51087274Y45192803D01*
X51093738Y45058242D01*
X51099947Y44928981D01*
X51152388Y44665344D01*
X51243220Y44412354D01*
X51245432Y44408238D01*
X51245433Y44408235D01*
X51321030Y44267544D01*
X51370450Y44175569D01*
X51373241Y44171832D01*
X51373245Y44171825D01*
X51457820Y44058566D01*
X51531281Y43960190D01*
X51534590Y43956910D01*
X51534595Y43956904D01*
X51718863Y43774238D01*
X51722180Y43770950D01*
X51725942Y43768192D01*
X51725945Y43768189D01*
X51864344Y43666711D01*
X51938954Y43612005D01*
X51943089Y43609829D01*
X51943093Y43609827D01*
X52172698Y43489025D01*
X52176840Y43486846D01*
X52204153Y43477308D01*
X52420101Y43401896D01*
X52430613Y43398225D01*
X52435206Y43397353D01*
X52690109Y43348958D01*
X52690112Y43348958D01*
X52694698Y43348087D01*
X52822370Y43343071D01*
X52958625Y43337717D01*
X52958630Y43337717D01*
X52963293Y43337534D01*
X53067607Y43348958D01*
X53225844Y43366287D01*
X53225850Y43366288D01*
X53230497Y43366797D01*
X53341983Y43396149D01*
X53485918Y43434044D01*
X53485920Y43434045D01*
X53490441Y43435235D01*
X53512965Y43444912D01*
X53733120Y43539498D01*
X53733122Y43539499D01*
X53737414Y43541343D01*
X53889383Y43635384D01*
X53962017Y43680331D01*
X53962021Y43680334D01*
X53965990Y43682790D01*
X54171149Y43856470D01*
X54348382Y44058566D01*
X54493797Y44284639D01*
X54604199Y44529722D01*
X54641209Y44660949D01*
X54675893Y44783928D01*
X54675894Y44783931D01*
X54677163Y44788432D01*
X54690009Y44889410D01*
X54710688Y45051955D01*
X54710688Y45051959D01*
X54711086Y45055085D01*
X54711784Y45081723D01*
X54713488Y45146840D01*
X54713571Y45150000D01*
X54709697Y45202128D01*
X54693996Y45413408D01*
X54693996Y45413409D01*
X54693650Y45418063D01*
X54687657Y45444550D01*
X54635361Y45675669D01*
X54635360Y45675674D01*
X54634327Y45680237D01*
X54536902Y45930762D01*
X54403518Y46164136D01*
X54382206Y46191171D01*
X54305723Y46288189D01*
X54237105Y46375231D01*
X54041317Y46559409D01*
X53884751Y46668024D01*
X53824299Y46709961D01*
X53824296Y46709963D01*
X53820457Y46712626D01*
X53816264Y46714694D01*
X53583564Y46829449D01*
X53583561Y46829450D01*
X53579376Y46831514D01*
X53531745Y46846761D01*
X53448293Y46873474D01*
X53323370Y46913462D01*
X53318763Y46914212D01*
X53318760Y46914213D01*
X53062674Y46955919D01*
X53062675Y46955919D01*
X53058063Y46956670D01*
X52927719Y46958376D01*
X52793961Y46960127D01*
X52793958Y46960127D01*
X52789284Y46960188D01*
X52522937Y46923940D01*
X52264874Y46848722D01*
X52020763Y46736185D01*
X52001278Y46723410D01*
X51799881Y46591369D01*
X51799876Y46591365D01*
X51795968Y46588803D01*
X51769667Y46565328D01*
X51608814Y46421761D01*
X51595426Y46409812D01*
X51423544Y46203146D01*
X51421121Y46199153D01*
X51329853Y46048748D01*
X51284096Y45973344D01*
X51282287Y45969030D01*
X51282285Y45969026D01*
X51222823Y45827223D01*
X51180148Y45725455D01*
X51113981Y45464923D01*
X51087050Y45197474D01*
X43513300Y45197474D01*
X43513300Y49305094D01*
X51819839Y49305094D01*
X51828553Y49293573D01*
X51935452Y49215191D01*
X51943351Y49210255D01*
X52172905Y49089481D01*
X52181454Y49085764D01*
X52426327Y49000251D01*
X52435336Y48997837D01*
X52690166Y48949456D01*
X52699423Y48948402D01*
X52958607Y48938217D01*
X52967921Y48938543D01*
X53225753Y48966780D01*
X53234930Y48968481D01*
X53485758Y49034519D01*
X53494574Y49037555D01*
X53732880Y49139938D01*
X53741167Y49144252D01*
X53961718Y49280734D01*
X53969268Y49286220D01*
X53974559Y49290699D01*
X53982997Y49303503D01*
X53976935Y49313855D01*
X52912812Y50377978D01*
X52898868Y50385592D01*
X52897035Y50385461D01*
X52890420Y50381210D01*
X51826497Y49317287D01*
X51819839Y49305094D01*
X43513300Y49305094D01*
X43513300Y50792789D01*
X51087775Y50792789D01*
X51100220Y50533712D01*
X51101356Y50524457D01*
X51151961Y50270055D01*
X51154449Y50261083D01*
X51242095Y50016967D01*
X51245895Y50008432D01*
X51368658Y49779958D01*
X51373666Y49772096D01*
X51443720Y49678284D01*
X51454979Y49669835D01*
X51467397Y49676607D01*
X52527978Y50737188D01*
X52534356Y50748868D01*
X53264408Y50748868D01*
X53264539Y50747035D01*
X53268790Y50740420D01*
X54336094Y49673116D01*
X54348474Y49666356D01*
X54356815Y49672600D01*
X54490832Y49880952D01*
X54495275Y49889136D01*
X54601807Y50125630D01*
X54604997Y50134395D01*
X54675402Y50384028D01*
X54677262Y50393170D01*
X54710187Y50651981D01*
X54710668Y50658267D01*
X54712987Y50746840D01*
X54712836Y50753149D01*
X54693501Y51013337D01*
X54692125Y51022543D01*
X54634878Y51275533D01*
X54632154Y51284444D01*
X54538143Y51526194D01*
X54534132Y51534603D01*
X54405422Y51759798D01*
X54400211Y51767524D01*
X54356996Y51822342D01*
X54345071Y51830813D01*
X54333537Y51824327D01*
X53272022Y50762812D01*
X53264408Y50748868D01*
X52534356Y50748868D01*
X52535592Y50751132D01*
X52535461Y50752965D01*
X52531210Y50759580D01*
X51465816Y51824974D01*
X51452507Y51832242D01*
X51442472Y51825122D01*
X51426937Y51806444D01*
X51421531Y51798865D01*
X51286965Y51577109D01*
X51282736Y51568808D01*
X51182432Y51329611D01*
X51179471Y51320761D01*
X51115628Y51069375D01*
X51114006Y51060178D01*
X51088020Y50802115D01*
X51087775Y50792789D01*
X43513300Y50792789D01*
X43513300Y52197311D01*
X51817102Y52197311D01*
X51821675Y52187535D01*
X52887188Y51122022D01*
X52901132Y51114408D01*
X52902965Y51114539D01*
X52909580Y51118790D01*
X53974349Y52183559D01*
X53980733Y52195249D01*
X53971321Y52207359D01*
X53824045Y52309529D01*
X53816010Y52314262D01*
X53583376Y52428984D01*
X53574743Y52432472D01*
X53327703Y52511550D01*
X53318643Y52513726D01*
X53062630Y52555420D01*
X53053343Y52556232D01*
X52793992Y52559627D01*
X52784681Y52559057D01*
X52527682Y52524081D01*
X52518546Y52522140D01*
X52269543Y52449561D01*
X52260800Y52446293D01*
X52025252Y52337704D01*
X52017097Y52333184D01*
X51826240Y52208053D01*
X51817102Y52197311D01*
X43513300Y52197311D01*
X43513300Y55855094D01*
X52019839Y55855094D01*
X52028553Y55843573D01*
X52135452Y55765191D01*
X52143351Y55760255D01*
X52372905Y55639481D01*
X52381454Y55635764D01*
X52626327Y55550251D01*
X52635336Y55547837D01*
X52890166Y55499456D01*
X52899423Y55498402D01*
X53158607Y55488217D01*
X53167921Y55488543D01*
X53425753Y55516780D01*
X53434930Y55518481D01*
X53685758Y55584519D01*
X53694574Y55587555D01*
X53932880Y55689938D01*
X53941167Y55694252D01*
X54161718Y55830734D01*
X54169268Y55836220D01*
X54174559Y55840699D01*
X54182997Y55853503D01*
X54176935Y55863855D01*
X53112812Y56927978D01*
X53098868Y56935592D01*
X53097035Y56935461D01*
X53090420Y56931210D01*
X52026497Y55867287D01*
X52019839Y55855094D01*
X43513300Y55855094D01*
X43513300Y57342789D01*
X51287775Y57342789D01*
X51300220Y57083712D01*
X51301356Y57074457D01*
X51351961Y56820055D01*
X51354449Y56811083D01*
X51442095Y56566967D01*
X51445895Y56558432D01*
X51568658Y56329958D01*
X51573666Y56322096D01*
X51643720Y56228284D01*
X51654979Y56219835D01*
X51667397Y56226607D01*
X52727978Y57287188D01*
X52734356Y57298868D01*
X53464408Y57298868D01*
X53464539Y57297035D01*
X53468790Y57290420D01*
X54536094Y56223116D01*
X54548474Y56216356D01*
X54556815Y56222600D01*
X54690832Y56430952D01*
X54695275Y56439136D01*
X54801807Y56675630D01*
X54804997Y56684395D01*
X54875402Y56934028D01*
X54877262Y56943170D01*
X54910187Y57201981D01*
X54910668Y57208267D01*
X54912987Y57296840D01*
X54912836Y57303149D01*
X54893501Y57563337D01*
X54892125Y57572543D01*
X54834878Y57825533D01*
X54832154Y57834444D01*
X54738143Y58076194D01*
X54734132Y58084603D01*
X54605422Y58309798D01*
X54600211Y58317524D01*
X54556996Y58372342D01*
X54545071Y58380813D01*
X54533537Y58374327D01*
X53472022Y57312812D01*
X53464408Y57298868D01*
X52734356Y57298868D01*
X52735592Y57301132D01*
X52735461Y57302965D01*
X52731210Y57309580D01*
X51665816Y58374974D01*
X51652507Y58382242D01*
X51642472Y58375122D01*
X51626937Y58356444D01*
X51621531Y58348865D01*
X51486965Y58127109D01*
X51482736Y58118808D01*
X51382432Y57879611D01*
X51379471Y57870761D01*
X51315628Y57619375D01*
X51314006Y57610178D01*
X51288020Y57352115D01*
X51287775Y57342789D01*
X43513300Y57342789D01*
X43513300Y58747311D01*
X52017102Y58747311D01*
X52021675Y58737535D01*
X53087188Y57672022D01*
X53101132Y57664408D01*
X53102965Y57664539D01*
X53109580Y57668790D01*
X54174349Y58733559D01*
X54180733Y58745249D01*
X54171321Y58757359D01*
X54024045Y58859529D01*
X54016010Y58864262D01*
X53783376Y58978984D01*
X53774743Y58982472D01*
X53527703Y59061550D01*
X53518643Y59063726D01*
X53262630Y59105420D01*
X53253343Y59106232D01*
X52993992Y59109627D01*
X52984681Y59109057D01*
X52727682Y59074081D01*
X52718546Y59072140D01*
X52469543Y58999561D01*
X52460800Y58996293D01*
X52225252Y58887704D01*
X52217097Y58883184D01*
X52026240Y58758053D01*
X52017102Y58747311D01*
X43513300Y58747311D01*
X43513300Y61990737D01*
X43513307Y61992056D01*
X43514182Y62075661D01*
X43514256Y62082709D01*
X43505032Y62125370D01*
X43502972Y62137949D01*
X43498892Y62174329D01*
X43498891Y62174332D01*
X43498107Y62181325D01*
X43486998Y62213226D01*
X43482836Y62228036D01*
X43477188Y62254161D01*
X43477187Y62254164D01*
X43475698Y62261051D01*
X43466992Y62279722D01*
X43457251Y62300610D01*
X43452453Y62312424D01*
X43440417Y62346988D01*
X43438101Y62353639D01*
X43434367Y62359614D01*
X43434365Y62359619D01*
X43420205Y62382280D01*
X43412864Y62395799D01*
X43401562Y62420037D01*
X43401560Y62420041D01*
X43398586Y62426418D01*
X43394274Y62431977D01*
X43394269Y62431985D01*
X43371833Y62460908D01*
X43364537Y62471366D01*
X43345146Y62502399D01*
X43345145Y62502401D01*
X43341411Y62508376D01*
X43312644Y62537344D01*
X43312047Y62537982D01*
X43311527Y62538653D01*
X43285269Y62564911D01*
X43259044Y62591320D01*
X43215335Y62635335D01*
X43215331Y62635339D01*
X43212841Y62637846D01*
X43211800Y62638506D01*
X43210565Y62639615D01*
X42902706Y62947474D01*
X51287050Y62947474D01*
X51287274Y62942808D01*
X51287274Y62942803D01*
X51290118Y62883609D01*
X51299947Y62678981D01*
X51352388Y62415344D01*
X51443220Y62162354D01*
X51445432Y62158238D01*
X51445433Y62158235D01*
X51482314Y62089597D01*
X51570450Y61925569D01*
X51573241Y61921832D01*
X51573245Y61921825D01*
X51654887Y61812494D01*
X51731281Y61710190D01*
X51734590Y61706910D01*
X51734595Y61706904D01*
X51918863Y61524238D01*
X51922180Y61520950D01*
X51925942Y61518192D01*
X51925945Y61518189D01*
X52038299Y61435808D01*
X52138954Y61362005D01*
X52143089Y61359829D01*
X52143093Y61359827D01*
X52332828Y61260002D01*
X52376840Y61236846D01*
X52630613Y61148225D01*
X52635206Y61147353D01*
X52890109Y61098958D01*
X52890112Y61098958D01*
X52894698Y61098087D01*
X53022370Y61093071D01*
X53158625Y61087717D01*
X53158630Y61087717D01*
X53163293Y61087534D01*
X53267607Y61098958D01*
X53425844Y61116287D01*
X53425850Y61116288D01*
X53430497Y61116797D01*
X53435021Y61117988D01*
X53685918Y61184044D01*
X53685920Y61184045D01*
X53690441Y61185235D01*
X53694738Y61187081D01*
X53933120Y61289498D01*
X53933122Y61289499D01*
X53937414Y61291343D01*
X54056071Y61364770D01*
X54162017Y61430331D01*
X54162021Y61430334D01*
X54165990Y61432790D01*
X54371149Y61606470D01*
X54548382Y61808566D01*
X54693797Y62034639D01*
X54804199Y62279722D01*
X54820102Y62336109D01*
X54875893Y62533928D01*
X54875894Y62533931D01*
X54877163Y62538432D01*
X54895043Y62678981D01*
X54910688Y62801955D01*
X54910688Y62801959D01*
X54911086Y62805085D01*
X54911537Y62822288D01*
X54913488Y62896840D01*
X54913571Y62900000D01*
X54901850Y63057724D01*
X54893996Y63163408D01*
X54893996Y63163409D01*
X54893650Y63168063D01*
X54892619Y63172621D01*
X54835361Y63425669D01*
X54835360Y63425674D01*
X54834327Y63430237D01*
X54736902Y63680762D01*
X54603518Y63914136D01*
X54437105Y64125231D01*
X54241317Y64309409D01*
X54049536Y64442453D01*
X54024299Y64459961D01*
X54024296Y64459963D01*
X54020457Y64462626D01*
X54014228Y64465698D01*
X53783564Y64579449D01*
X53783561Y64579450D01*
X53779376Y64581514D01*
X53766506Y64585634D01*
X53655487Y64621171D01*
X53523370Y64663462D01*
X53518763Y64664212D01*
X53518760Y64664213D01*
X53262674Y64705919D01*
X53262675Y64705919D01*
X53258063Y64706670D01*
X53127719Y64708376D01*
X52993961Y64710127D01*
X52993958Y64710127D01*
X52989284Y64710188D01*
X52722937Y64673940D01*
X52464874Y64598722D01*
X52460621Y64596762D01*
X52460620Y64596761D01*
X52436484Y64585634D01*
X52220763Y64486185D01*
X52191788Y64467188D01*
X51999881Y64341369D01*
X51999876Y64341365D01*
X51995968Y64338803D01*
X51795426Y64159812D01*
X51623544Y63953146D01*
X51484096Y63723344D01*
X51482287Y63719030D01*
X51482285Y63719026D01*
X51441402Y63621530D01*
X51380148Y63475455D01*
X51313981Y63214923D01*
X51287050Y62947474D01*
X42902706Y62947474D01*
X42189275Y63660905D01*
X42155249Y63723217D01*
X42160314Y63794032D01*
X42189275Y63839095D01*
X43118469Y64768289D01*
X43119406Y64769218D01*
X43179218Y64827790D01*
X43179219Y64827791D01*
X43184250Y64832718D01*
X43188064Y64838636D01*
X43188068Y64838641D01*
X43207895Y64869407D01*
X43215334Y64879760D01*
X43226367Y64893581D01*
X43242563Y64913869D01*
X43257264Y64944280D01*
X43264787Y64957687D01*
X43283092Y64986090D01*
X43298027Y65027124D01*
X43302975Y65038837D01*
X43321977Y65078145D01*
X43329575Y65111056D01*
X43333945Y65125806D01*
X43343086Y65150922D01*
X43343086Y65150923D01*
X43345498Y65157549D01*
X43350969Y65200859D01*
X43353203Y65213400D01*
X43363022Y65255930D01*
X43363138Y65288971D01*
X43363165Y65296741D01*
X43363195Y65297634D01*
X43363300Y65298470D01*
X43363300Y65335560D01*
X43363659Y65438392D01*
X43363389Y65439598D01*
X43363300Y65441247D01*
X43363300Y71197474D01*
X51287050Y71197474D01*
X51287274Y71192808D01*
X51287274Y71192803D01*
X51292064Y71093092D01*
X51299947Y70928981D01*
X51352388Y70665344D01*
X51443220Y70412354D01*
X51445432Y70408238D01*
X51445433Y70408235D01*
X51494928Y70316121D01*
X51570450Y70175569D01*
X51573241Y70171832D01*
X51573245Y70171825D01*
X51654887Y70062494D01*
X51731281Y69960190D01*
X51734590Y69956910D01*
X51734595Y69956904D01*
X51917595Y69775495D01*
X51922180Y69770950D01*
X51925942Y69768192D01*
X51925945Y69768189D01*
X52038299Y69685808D01*
X52138954Y69612005D01*
X52143089Y69609829D01*
X52143093Y69609827D01*
X52372698Y69489025D01*
X52376840Y69486846D01*
X52630613Y69398225D01*
X52635206Y69397353D01*
X52890109Y69348958D01*
X52890112Y69348958D01*
X52894698Y69348087D01*
X53022370Y69343071D01*
X53158625Y69337717D01*
X53158630Y69337717D01*
X53163293Y69337534D01*
X53267607Y69348958D01*
X53425844Y69366287D01*
X53425850Y69366288D01*
X53430497Y69366797D01*
X53435021Y69367988D01*
X53685918Y69434044D01*
X53685920Y69434045D01*
X53690441Y69435235D01*
X53694738Y69437081D01*
X53933120Y69539498D01*
X53933122Y69539499D01*
X53937414Y69541343D01*
X54056071Y69614770D01*
X54162017Y69680331D01*
X54162021Y69680334D01*
X54165990Y69682790D01*
X54371149Y69856470D01*
X54548382Y70058566D01*
X54693797Y70284639D01*
X54804199Y70529722D01*
X54841209Y70660949D01*
X54875893Y70783928D01*
X54875894Y70783931D01*
X54877163Y70788432D01*
X54895356Y70931436D01*
X54910688Y71051955D01*
X54910688Y71051959D01*
X54911086Y71055085D01*
X54913571Y71150000D01*
X54911696Y71175229D01*
X54893996Y71413408D01*
X54893996Y71413409D01*
X54893650Y71418063D01*
X54892619Y71422621D01*
X54835361Y71675669D01*
X54835360Y71675674D01*
X54834327Y71680237D01*
X54736902Y71930762D01*
X54603518Y72164136D01*
X54578527Y72195838D01*
X54526262Y72262135D01*
X54437105Y72375231D01*
X54241317Y72559409D01*
X54020457Y72712626D01*
X54016264Y72714694D01*
X53783564Y72829449D01*
X53783561Y72829450D01*
X53779376Y72831514D01*
X53731745Y72846761D01*
X53677621Y72864086D01*
X53523370Y72913462D01*
X53518763Y72914212D01*
X53518760Y72914213D01*
X53262674Y72955919D01*
X53262675Y72955919D01*
X53258063Y72956670D01*
X53127719Y72958376D01*
X52993961Y72960127D01*
X52993958Y72960127D01*
X52989284Y72960188D01*
X52722937Y72923940D01*
X52464874Y72848722D01*
X52460621Y72846762D01*
X52460620Y72846761D01*
X52451618Y72842611D01*
X52220763Y72736185D01*
X52216854Y72733622D01*
X51999881Y72591369D01*
X51999876Y72591365D01*
X51995968Y72588803D01*
X51992476Y72585686D01*
X51837251Y72447142D01*
X51795426Y72409812D01*
X51623544Y72203146D01*
X51484096Y71973344D01*
X51482287Y71969030D01*
X51482285Y71969026D01*
X51457396Y71909672D01*
X51380148Y71725455D01*
X51313981Y71464923D01*
X51287050Y71197474D01*
X43363300Y71197474D01*
X43363300Y75305094D01*
X52019839Y75305094D01*
X52028553Y75293573D01*
X52135452Y75215191D01*
X52143351Y75210255D01*
X52372905Y75089481D01*
X52381454Y75085764D01*
X52626327Y75000251D01*
X52635336Y74997837D01*
X52890166Y74949456D01*
X52899423Y74948402D01*
X53158607Y74938217D01*
X53167921Y74938543D01*
X53425753Y74966780D01*
X53434930Y74968481D01*
X53685758Y75034519D01*
X53694574Y75037555D01*
X53932880Y75139938D01*
X53941167Y75144252D01*
X54161718Y75280734D01*
X54169268Y75286220D01*
X54174559Y75290699D01*
X54182997Y75303503D01*
X54176935Y75313855D01*
X53112812Y76377978D01*
X53098868Y76385592D01*
X53097035Y76385461D01*
X53090420Y76381210D01*
X52026497Y75317287D01*
X52019839Y75305094D01*
X43363300Y75305094D01*
X43363300Y76792789D01*
X51287775Y76792789D01*
X51300220Y76533712D01*
X51301356Y76524457D01*
X51351961Y76270055D01*
X51354449Y76261083D01*
X51442095Y76016967D01*
X51445895Y76008432D01*
X51568658Y75779958D01*
X51573666Y75772096D01*
X51643720Y75678284D01*
X51654979Y75669835D01*
X51667397Y75676607D01*
X52727978Y76737188D01*
X52734356Y76748868D01*
X53464408Y76748868D01*
X53464539Y76747035D01*
X53468790Y76740420D01*
X54536094Y75673116D01*
X54548474Y75666356D01*
X54556815Y75672600D01*
X54690832Y75880952D01*
X54695275Y75889136D01*
X54801807Y76125630D01*
X54804997Y76134395D01*
X54875402Y76384028D01*
X54877262Y76393170D01*
X54910187Y76651981D01*
X54910668Y76658267D01*
X54912987Y76746840D01*
X54912836Y76753149D01*
X54893501Y77013337D01*
X54892125Y77022543D01*
X54834878Y77275533D01*
X54832154Y77284444D01*
X54738143Y77526194D01*
X54734132Y77534603D01*
X54605422Y77759798D01*
X54600211Y77767524D01*
X54556996Y77822342D01*
X54545071Y77830813D01*
X54533537Y77824327D01*
X53472022Y76762812D01*
X53464408Y76748868D01*
X52734356Y76748868D01*
X52735592Y76751132D01*
X52735461Y76752965D01*
X52731210Y76759580D01*
X51665816Y77824974D01*
X51652507Y77832242D01*
X51642472Y77825122D01*
X51626937Y77806444D01*
X51621531Y77798865D01*
X51486965Y77577109D01*
X51482736Y77568808D01*
X51382432Y77329611D01*
X51379471Y77320761D01*
X51315628Y77069375D01*
X51314006Y77060178D01*
X51288020Y76802115D01*
X51287775Y76792789D01*
X43363300Y76792789D01*
X43363300Y78197311D01*
X52017102Y78197311D01*
X52021675Y78187535D01*
X53087188Y77122022D01*
X53101132Y77114408D01*
X53102965Y77114539D01*
X53109580Y77118790D01*
X54174349Y78183559D01*
X54180733Y78195249D01*
X54171321Y78207359D01*
X54024045Y78309529D01*
X54016010Y78314262D01*
X53783376Y78428984D01*
X53774743Y78432472D01*
X53527703Y78511550D01*
X53518643Y78513726D01*
X53262630Y78555420D01*
X53253343Y78556232D01*
X52993992Y78559627D01*
X52984681Y78559057D01*
X52727682Y78524081D01*
X52718546Y78522140D01*
X52469543Y78449561D01*
X52460800Y78446293D01*
X52225252Y78337704D01*
X52217097Y78333184D01*
X52026240Y78208053D01*
X52017102Y78197311D01*
X43363300Y78197311D01*
X43363300Y82005094D01*
X52069839Y82005094D01*
X52078553Y81993573D01*
X52185452Y81915191D01*
X52193351Y81910255D01*
X52422905Y81789481D01*
X52431454Y81785764D01*
X52676327Y81700251D01*
X52685336Y81697837D01*
X52940166Y81649456D01*
X52949423Y81648402D01*
X53208607Y81638217D01*
X53217921Y81638543D01*
X53475753Y81666780D01*
X53484930Y81668481D01*
X53735758Y81734519D01*
X53744574Y81737555D01*
X53982880Y81839938D01*
X53991167Y81844252D01*
X54211718Y81980734D01*
X54219268Y81986220D01*
X54224559Y81990699D01*
X54232997Y82003503D01*
X54226935Y82013855D01*
X53162812Y83077978D01*
X53148868Y83085592D01*
X53147035Y83085461D01*
X53140420Y83081210D01*
X52076497Y82017287D01*
X52069839Y82005094D01*
X43363300Y82005094D01*
X43363300Y83492789D01*
X51337775Y83492789D01*
X51350220Y83233712D01*
X51351356Y83224457D01*
X51401961Y82970055D01*
X51404449Y82961083D01*
X51492095Y82716967D01*
X51495895Y82708432D01*
X51618658Y82479958D01*
X51623666Y82472096D01*
X51693720Y82378284D01*
X51704979Y82369835D01*
X51717397Y82376607D01*
X52777978Y83437188D01*
X52784356Y83448868D01*
X53514408Y83448868D01*
X53514539Y83447035D01*
X53518790Y83440420D01*
X54586094Y82373116D01*
X54598474Y82366356D01*
X54606815Y82372600D01*
X54740832Y82580952D01*
X54745275Y82589136D01*
X54851807Y82825630D01*
X54854997Y82834395D01*
X54925402Y83084028D01*
X54927262Y83093170D01*
X54960187Y83351981D01*
X54960668Y83358267D01*
X54962987Y83446840D01*
X54962836Y83453149D01*
X54943501Y83713337D01*
X54942125Y83722543D01*
X54884878Y83975533D01*
X54882154Y83984444D01*
X54788143Y84226194D01*
X54784132Y84234603D01*
X54655422Y84459798D01*
X54650211Y84467524D01*
X54606996Y84522342D01*
X54595071Y84530813D01*
X54583537Y84524327D01*
X53522022Y83462812D01*
X53514408Y83448868D01*
X52784356Y83448868D01*
X52785592Y83451132D01*
X52785461Y83452965D01*
X52781210Y83459580D01*
X51715816Y84524974D01*
X51702507Y84532242D01*
X51692472Y84525122D01*
X51676937Y84506444D01*
X51671531Y84498865D01*
X51536965Y84277109D01*
X51532736Y84268808D01*
X51432432Y84029611D01*
X51429471Y84020761D01*
X51365628Y83769375D01*
X51364006Y83760178D01*
X51338020Y83502115D01*
X51337775Y83492789D01*
X43363300Y83492789D01*
X43363300Y84897311D01*
X52067102Y84897311D01*
X52071675Y84887535D01*
X53137188Y83822022D01*
X53151132Y83814408D01*
X53152965Y83814539D01*
X53159580Y83818790D01*
X54224349Y84883559D01*
X54230733Y84895249D01*
X54221321Y84907359D01*
X54074045Y85009529D01*
X54066010Y85014262D01*
X53833376Y85128984D01*
X53824743Y85132472D01*
X53577703Y85211550D01*
X53568643Y85213726D01*
X53312630Y85255420D01*
X53303343Y85256232D01*
X53043992Y85259627D01*
X53034681Y85259057D01*
X52777682Y85224081D01*
X52768546Y85222140D01*
X52519543Y85149561D01*
X52510800Y85146293D01*
X52275252Y85037704D01*
X52267097Y85033184D01*
X52076240Y84908053D01*
X52067102Y84897311D01*
X43363300Y84897311D01*
X43363300Y87940737D01*
X43363307Y87942056D01*
X43364182Y88025661D01*
X43364256Y88032709D01*
X43355032Y88075370D01*
X43352972Y88087949D01*
X43348892Y88124329D01*
X43348891Y88124332D01*
X43348107Y88131325D01*
X43336998Y88163226D01*
X43332836Y88178036D01*
X43327188Y88204161D01*
X43327187Y88204164D01*
X43325698Y88211051D01*
X43322058Y88218858D01*
X43307251Y88250610D01*
X43302453Y88262424D01*
X43290417Y88296988D01*
X43288101Y88303639D01*
X43284367Y88309614D01*
X43284365Y88309619D01*
X43270205Y88332280D01*
X43262864Y88345799D01*
X43251563Y88370034D01*
X43251563Y88370035D01*
X43248586Y88376418D01*
X43221835Y88410905D01*
X43214542Y88421360D01*
X43195146Y88452399D01*
X43195145Y88452400D01*
X43191411Y88458376D01*
X43186447Y88463375D01*
X43162636Y88487353D01*
X43162045Y88487984D01*
X43161527Y88488652D01*
X43135409Y88514770D01*
X43062841Y88587846D01*
X43061798Y88588508D01*
X43060560Y88589619D01*
X42552705Y89097474D01*
X51337050Y89097474D01*
X51337274Y89092808D01*
X51337274Y89092803D01*
X51338296Y89071530D01*
X51349947Y88828981D01*
X51402388Y88565344D01*
X51493220Y88312354D01*
X51495432Y88308238D01*
X51495433Y88308235D01*
X51559555Y88188900D01*
X51620450Y88075569D01*
X51623241Y88071832D01*
X51623245Y88071825D01*
X51657718Y88025661D01*
X51781281Y87860190D01*
X51784590Y87856910D01*
X51784595Y87856904D01*
X51968863Y87674238D01*
X51972180Y87670950D01*
X51975942Y87668192D01*
X51975945Y87668189D01*
X52185183Y87514770D01*
X52188954Y87512005D01*
X52193089Y87509829D01*
X52193093Y87509827D01*
X52422698Y87389025D01*
X52426840Y87386846D01*
X52680613Y87298225D01*
X52685206Y87297353D01*
X52940109Y87248958D01*
X52940112Y87248958D01*
X52944698Y87248087D01*
X53072370Y87243071D01*
X53208625Y87237717D01*
X53208630Y87237717D01*
X53213293Y87237534D01*
X53317607Y87248958D01*
X53475844Y87266287D01*
X53475850Y87266288D01*
X53480497Y87266797D01*
X53485021Y87267988D01*
X53735918Y87334044D01*
X53735920Y87334045D01*
X53740441Y87335235D01*
X53744738Y87337081D01*
X53983120Y87439498D01*
X53983122Y87439499D01*
X53987414Y87441343D01*
X54180665Y87560930D01*
X54212017Y87580331D01*
X54212021Y87580334D01*
X54215990Y87582790D01*
X54421149Y87756470D01*
X54598382Y87958566D01*
X54646073Y88032709D01*
X54730024Y88163226D01*
X54743797Y88184639D01*
X54854199Y88429722D01*
X54870819Y88488652D01*
X54925893Y88683928D01*
X54925894Y88683931D01*
X54927163Y88688432D01*
X54945043Y88828981D01*
X54960688Y88951955D01*
X54960688Y88951959D01*
X54961086Y88955085D01*
X54963571Y89050000D01*
X54943650Y89318063D01*
X54902900Y89498155D01*
X54885361Y89575669D01*
X54885360Y89575674D01*
X54884327Y89580237D01*
X54786902Y89830762D01*
X54653518Y90064136D01*
X54649835Y90068809D01*
X54587416Y90147986D01*
X54487105Y90275231D01*
X54291317Y90459409D01*
X54070457Y90612626D01*
X54066264Y90614694D01*
X53833564Y90729449D01*
X53833561Y90729450D01*
X53829376Y90731514D01*
X53781745Y90746761D01*
X53727621Y90764086D01*
X53573370Y90813462D01*
X53568763Y90814212D01*
X53568760Y90814213D01*
X53312674Y90855919D01*
X53312675Y90855919D01*
X53308063Y90856670D01*
X53177719Y90858376D01*
X53043961Y90860127D01*
X53043958Y90860127D01*
X53039284Y90860188D01*
X52772937Y90823940D01*
X52514874Y90748722D01*
X52270763Y90636185D01*
X52266854Y90633622D01*
X52049881Y90491369D01*
X52049876Y90491365D01*
X52045968Y90488803D01*
X52016024Y90462077D01*
X51849210Y90313189D01*
X51845426Y90309812D01*
X51673544Y90103146D01*
X51665123Y90089268D01*
X51560416Y89916717D01*
X51534096Y89873344D01*
X51430148Y89625455D01*
X51363981Y89364923D01*
X51337050Y89097474D01*
X42552705Y89097474D01*
X41794165Y89856015D01*
X41793237Y89856952D01*
X41734711Y89916717D01*
X41734709Y89916718D01*
X41729782Y89921750D01*
X41723863Y89925564D01*
X41723860Y89925567D01*
X41693093Y89945395D01*
X41682740Y89952834D01*
X41654134Y89975670D01*
X41648631Y89980063D01*
X41642291Y89983128D01*
X41642286Y89983131D01*
X41618221Y89994765D01*
X41604808Y90002292D01*
X41582336Y90016774D01*
X41582329Y90016777D01*
X41576410Y90020592D01*
X41535389Y90035523D01*
X41523649Y90040482D01*
X41490699Y90056411D01*
X41490697Y90056412D01*
X41484356Y90059477D01*
X41451436Y90067077D01*
X41436701Y90071443D01*
X41411572Y90080589D01*
X41411566Y90080591D01*
X41404951Y90082998D01*
X41380581Y90086076D01*
X41361641Y90088469D01*
X41349100Y90090703D01*
X41306570Y90100522D01*
X41299524Y90100547D01*
X41299521Y90100547D01*
X41265759Y90100665D01*
X41264866Y90100695D01*
X41264030Y90100800D01*
X41227094Y90100800D01*
X41226654Y90100801D01*
X41127654Y90101147D01*
X41127647Y90101147D01*
X41124108Y90101159D01*
X41122902Y90100889D01*
X41121253Y90100800D01*
X40320467Y90100800D01*
X40252346Y90120802D01*
X40231372Y90137705D01*
X40152276Y90216801D01*
X39979058Y90338089D01*
X39974080Y90340410D01*
X39974077Y90340412D01*
X39792392Y90425133D01*
X39792391Y90425134D01*
X39787410Y90427456D01*
X39782102Y90428878D01*
X39782100Y90428879D01*
X39588470Y90480762D01*
X39588468Y90480762D01*
X39583155Y90482186D01*
X39372500Y90500616D01*
X39161845Y90482186D01*
X39156532Y90480762D01*
X39156530Y90480762D01*
X38962900Y90428879D01*
X38962898Y90428878D01*
X38957590Y90427456D01*
X38952609Y90425134D01*
X38952608Y90425133D01*
X38770923Y90340412D01*
X38770920Y90340410D01*
X38765942Y90338089D01*
X38592724Y90216801D01*
X38443199Y90067276D01*
X38321911Y89894058D01*
X38319590Y89889080D01*
X38319588Y89889077D01*
X38290365Y89826408D01*
X38232544Y89702410D01*
X38231122Y89697102D01*
X38231121Y89697100D01*
X38200976Y89584598D01*
X38177814Y89498155D01*
X38159384Y89287500D01*
X38177814Y89076845D01*
X38179238Y89071532D01*
X38179238Y89071530D01*
X38210440Y88955085D01*
X38232544Y88872590D01*
X38234866Y88867609D01*
X38234867Y88867608D01*
X38316256Y88693070D01*
X38321911Y88680942D01*
X38443199Y88507724D01*
X38592724Y88358199D01*
X38765942Y88236911D01*
X38770920Y88234590D01*
X38770923Y88234588D01*
X38951592Y88150341D01*
X38957590Y88147544D01*
X38962898Y88146122D01*
X38962900Y88146121D01*
X39156530Y88094238D01*
X39156532Y88094238D01*
X39161845Y88092814D01*
X39372500Y88074384D01*
X39583155Y88092814D01*
X39588468Y88094238D01*
X39588470Y88094238D01*
X39782100Y88146121D01*
X39782102Y88146122D01*
X39787410Y88147544D01*
X39793408Y88150341D01*
X39974077Y88234588D01*
X39974080Y88234590D01*
X39979058Y88236911D01*
X40152276Y88358199D01*
X40231372Y88437295D01*
X40293684Y88471321D01*
X40320467Y88474200D01*
X40823430Y88474200D01*
X40891551Y88454198D01*
X40912525Y88437295D01*
X41699795Y87650025D01*
X41733821Y87587713D01*
X41736700Y87560930D01*
X41736700Y65739070D01*
X41716698Y65670949D01*
X41699795Y65649975D01*
X40737525Y64687705D01*
X40675213Y64653679D01*
X40648430Y64650800D01*
X39870467Y64650800D01*
X39802346Y64670802D01*
X39781372Y64687705D01*
X39702276Y64766801D01*
X39529058Y64888089D01*
X39524080Y64890410D01*
X39524077Y64890412D01*
X39342392Y64975133D01*
X39342391Y64975134D01*
X39337410Y64977456D01*
X39332102Y64978878D01*
X39332100Y64978879D01*
X39138470Y65030762D01*
X39138468Y65030762D01*
X39133155Y65032186D01*
X38922500Y65050616D01*
X38711845Y65032186D01*
X38706532Y65030762D01*
X38706530Y65030762D01*
X38512900Y64978879D01*
X38512898Y64978878D01*
X38507590Y64977456D01*
X38502609Y64975134D01*
X38502608Y64975133D01*
X38320923Y64890412D01*
X38320920Y64890410D01*
X38315942Y64888089D01*
X38142724Y64766801D01*
X37993199Y64617276D01*
X37871911Y64444058D01*
X37869590Y64439080D01*
X37869588Y64439077D01*
X37793203Y64275269D01*
X37782544Y64252410D01*
X37781122Y64247102D01*
X37781121Y64247100D01*
X37761007Y64172033D01*
X37724055Y64111410D01*
X37660195Y64080389D01*
X37589700Y64088817D01*
X37534953Y64134020D01*
X37513300Y64204644D01*
X37513300Y70310930D01*
X37533302Y70379051D01*
X37550205Y70400025D01*
X37757475Y70607295D01*
X37819787Y70641321D01*
X37846570Y70644200D01*
X37974533Y70644200D01*
X38042654Y70624198D01*
X38063628Y70607295D01*
X38142724Y70528199D01*
X38315942Y70406911D01*
X38320920Y70404590D01*
X38320923Y70404588D01*
X38404023Y70365838D01*
X38507590Y70317544D01*
X38512898Y70316122D01*
X38512900Y70316121D01*
X38706530Y70264238D01*
X38706532Y70264238D01*
X38711845Y70262814D01*
X38922500Y70244384D01*
X39133155Y70262814D01*
X39138468Y70264238D01*
X39138470Y70264238D01*
X39332100Y70316121D01*
X39332102Y70316122D01*
X39337410Y70317544D01*
X39440977Y70365838D01*
X39524077Y70404588D01*
X39524080Y70404590D01*
X39529058Y70406911D01*
X39702276Y70528199D01*
X39851801Y70677724D01*
X39973089Y70850942D01*
X39995533Y70899072D01*
X40060133Y71037608D01*
X40060134Y71037609D01*
X40062456Y71042590D01*
X40064966Y71051955D01*
X40115762Y71241530D01*
X40115762Y71241532D01*
X40117186Y71246845D01*
X40135616Y71457500D01*
X40117186Y71668155D01*
X40062456Y71872410D01*
X40056544Y71885089D01*
X39975412Y72059077D01*
X39975410Y72059080D01*
X39973089Y72064058D01*
X39851801Y72237276D01*
X39702276Y72386801D01*
X39529058Y72508089D01*
X39524080Y72510410D01*
X39524077Y72510412D01*
X39342392Y72595133D01*
X39342391Y72595134D01*
X39337410Y72597456D01*
X39332102Y72598878D01*
X39332100Y72598879D01*
X39138470Y72650762D01*
X39138468Y72650762D01*
X39133155Y72652186D01*
X38922500Y72670616D01*
X38711845Y72652186D01*
X38706532Y72650762D01*
X38706530Y72650762D01*
X38512900Y72598879D01*
X38512898Y72598878D01*
X38507590Y72597456D01*
X38502609Y72595134D01*
X38502608Y72595133D01*
X38320923Y72510412D01*
X38320920Y72510410D01*
X38315942Y72508089D01*
X38142724Y72386801D01*
X38092144Y72336221D01*
X38029836Y72302198D01*
X37959021Y72307262D01*
X37913957Y72336223D01*
X37500205Y72749975D01*
X37466179Y72812287D01*
X37463300Y72839070D01*
X37463300Y95410930D01*
X37483302Y95479051D01*
X37500205Y95500025D01*
X38057475Y96057295D01*
X38119787Y96091321D01*
X38146570Y96094200D01*
X38424533Y96094200D01*
X38492654Y96074198D01*
X38513628Y96057295D01*
X38592724Y95978199D01*
X38765942Y95856911D01*
X38770920Y95854590D01*
X38770923Y95854588D01*
X38951592Y95770341D01*
X38957590Y95767544D01*
X38962898Y95766122D01*
X38962900Y95766121D01*
X39156530Y95714238D01*
X39156532Y95714238D01*
X39161845Y95712814D01*
X39372500Y95694384D01*
X39583155Y95712814D01*
X39588468Y95714238D01*
X39588470Y95714238D01*
X39782100Y95766121D01*
X39782102Y95766122D01*
X39787410Y95767544D01*
X39793408Y95770341D01*
X39974077Y95854588D01*
X39974080Y95854590D01*
X39979058Y95856911D01*
X40152276Y95978199D01*
X40301801Y96127724D01*
X40423089Y96300942D01*
X40430709Y96317282D01*
X40468103Y96397474D01*
X51337050Y96397474D01*
X51337274Y96392808D01*
X51337274Y96392803D01*
X51341687Y96300942D01*
X51349947Y96128981D01*
X51402388Y95865344D01*
X51493220Y95612354D01*
X51620450Y95375569D01*
X51623241Y95371832D01*
X51623245Y95371825D01*
X51704887Y95262494D01*
X51781281Y95160190D01*
X51784590Y95156910D01*
X51784595Y95156904D01*
X51968863Y94974238D01*
X51972180Y94970950D01*
X51975942Y94968192D01*
X51975945Y94968189D01*
X52088299Y94885808D01*
X52188954Y94812005D01*
X52193089Y94809829D01*
X52193093Y94809827D01*
X52422698Y94689025D01*
X52426840Y94686846D01*
X52680613Y94598225D01*
X52685206Y94597353D01*
X52940109Y94548958D01*
X52940112Y94548958D01*
X52944698Y94548087D01*
X53072370Y94543071D01*
X53208625Y94537717D01*
X53208630Y94537717D01*
X53213293Y94537534D01*
X53317607Y94548958D01*
X53475844Y94566287D01*
X53475850Y94566288D01*
X53480497Y94566797D01*
X53485021Y94567988D01*
X53735918Y94634044D01*
X53735920Y94634045D01*
X53740441Y94635235D01*
X53744738Y94637081D01*
X53983120Y94739498D01*
X53983122Y94739499D01*
X53987414Y94741343D01*
X54106071Y94814770D01*
X54212017Y94880331D01*
X54212021Y94880334D01*
X54215990Y94882790D01*
X54421149Y95056470D01*
X54598382Y95258566D01*
X54743797Y95484639D01*
X54854199Y95729722D01*
X54878092Y95814440D01*
X54925893Y95983928D01*
X54925894Y95983931D01*
X54927163Y95988432D01*
X54945235Y96130489D01*
X54960688Y96251955D01*
X54960688Y96251959D01*
X54961086Y96255085D01*
X54961270Y96262090D01*
X54963488Y96346840D01*
X54963571Y96350000D01*
X54953332Y96487777D01*
X54943996Y96613408D01*
X54943996Y96613409D01*
X54943650Y96618063D01*
X54932020Y96669462D01*
X54885361Y96875669D01*
X54885360Y96875674D01*
X54884327Y96880237D01*
X54786902Y97130762D01*
X54653518Y97364136D01*
X54487105Y97575231D01*
X54291317Y97759409D01*
X54134751Y97868024D01*
X54074299Y97909961D01*
X54074296Y97909963D01*
X54070457Y97912626D01*
X54066264Y97914694D01*
X53833564Y98029449D01*
X53833561Y98029450D01*
X53829376Y98031514D01*
X53781745Y98046761D01*
X53699261Y98073164D01*
X53573370Y98113462D01*
X53568763Y98114212D01*
X53568760Y98114213D01*
X53312674Y98155919D01*
X53312675Y98155919D01*
X53308063Y98156670D01*
X53177719Y98158376D01*
X53043961Y98160127D01*
X53043958Y98160127D01*
X53039284Y98160188D01*
X52772937Y98123940D01*
X52768451Y98122632D01*
X52768449Y98122632D01*
X52759889Y98120137D01*
X52514874Y98048722D01*
X52510621Y98046762D01*
X52510620Y98046761D01*
X52480634Y98032937D01*
X52270763Y97936185D01*
X52250213Y97922712D01*
X52049881Y97791369D01*
X52049876Y97791365D01*
X52045968Y97788803D01*
X51952755Y97705607D01*
X51860897Y97623620D01*
X51845426Y97609812D01*
X51673544Y97403146D01*
X51534096Y97173344D01*
X51532287Y97169030D01*
X51532285Y97169026D01*
X51510953Y97118155D01*
X51430148Y96925455D01*
X51363981Y96664923D01*
X51337050Y96397474D01*
X40468103Y96397474D01*
X40510133Y96487608D01*
X40510134Y96487609D01*
X40512456Y96492590D01*
X40546024Y96617865D01*
X40565762Y96691530D01*
X40565762Y96691532D01*
X40567186Y96696845D01*
X40585616Y96907500D01*
X40567186Y97118155D01*
X40563808Y97130762D01*
X40513879Y97317100D01*
X40513878Y97317102D01*
X40512456Y97322410D01*
X40465625Y97422839D01*
X40425412Y97509077D01*
X40425410Y97509080D01*
X40423089Y97514058D01*
X40301801Y97687276D01*
X40152276Y97836801D01*
X39979058Y97958089D01*
X39974080Y97960410D01*
X39974077Y97960412D01*
X39792392Y98045133D01*
X39792391Y98045134D01*
X39787410Y98047456D01*
X39782102Y98048878D01*
X39782100Y98048879D01*
X39588470Y98100762D01*
X39588468Y98100762D01*
X39583155Y98102186D01*
X39372500Y98120616D01*
X39161845Y98102186D01*
X39156532Y98100762D01*
X39156530Y98100762D01*
X38962900Y98048879D01*
X38962898Y98048878D01*
X38957590Y98047456D01*
X38952609Y98045134D01*
X38952608Y98045133D01*
X38770923Y97960412D01*
X38770920Y97960410D01*
X38765942Y97958089D01*
X38592724Y97836801D01*
X38513628Y97757705D01*
X38451316Y97723679D01*
X38424533Y97720800D01*
X37766763Y97720800D01*
X37765444Y97720807D01*
X37674791Y97721756D01*
X37667905Y97720267D01*
X37667903Y97720267D01*
X37649170Y97716216D01*
X37632130Y97712532D01*
X37619551Y97710472D01*
X37583171Y97706392D01*
X37583168Y97706391D01*
X37576175Y97705607D01*
X37544274Y97694498D01*
X37529464Y97690336D01*
X37503339Y97684688D01*
X37503336Y97684687D01*
X37496449Y97683198D01*
X37490062Y97680220D01*
X37490060Y97680219D01*
X37456890Y97664751D01*
X37445081Y97659955D01*
X37403861Y97645601D01*
X37397886Y97641867D01*
X37397881Y97641865D01*
X37375220Y97627705D01*
X37361701Y97620364D01*
X37331082Y97606086D01*
X37325517Y97601769D01*
X37296595Y97579335D01*
X37286140Y97572042D01*
X37255101Y97552646D01*
X37249124Y97548911D01*
X37244126Y97543948D01*
X37244125Y97543947D01*
X37220147Y97520136D01*
X37219516Y97519545D01*
X37218848Y97519027D01*
X37192729Y97492908D01*
X37119654Y97420341D01*
X37118992Y97419298D01*
X37117881Y97418060D01*
X36081485Y96381665D01*
X36080548Y96380737D01*
X36045934Y96346840D01*
X36015750Y96317282D01*
X36011936Y96311363D01*
X36011933Y96311360D01*
X35992105Y96280593D01*
X35984666Y96270240D01*
X35972568Y96255085D01*
X35957437Y96236131D01*
X35954372Y96229791D01*
X35954369Y96229786D01*
X35942735Y96205721D01*
X35935208Y96192308D01*
X35920726Y96169836D01*
X35920723Y96169829D01*
X35916908Y96163910D01*
X35902320Y96123829D01*
X35901979Y96122893D01*
X35897019Y96111152D01*
X35878023Y96071856D01*
X35870423Y96038936D01*
X35866057Y96024201D01*
X35856911Y95999072D01*
X35856909Y95999066D01*
X35854502Y95992451D01*
X35853620Y95985468D01*
X35849031Y95949141D01*
X35846797Y95936600D01*
X35836978Y95894070D01*
X35836953Y95887024D01*
X35836953Y95887021D01*
X35836835Y95853259D01*
X35836805Y95852366D01*
X35836700Y95851530D01*
X35836700Y95814440D01*
X35836341Y95711608D01*
X35836611Y95710402D01*
X35836700Y95708753D01*
X35836700Y72459217D01*
X35836693Y72457897D01*
X35835744Y72367291D01*
X34393081Y72367291D01*
X34485776Y72459986D01*
X34492206Y72471761D01*
X34482910Y72483776D01*
X34453311Y72504501D01*
X34443823Y72509979D01*
X34262223Y72594659D01*
X34251929Y72598407D01*
X34058378Y72650269D01*
X34047591Y72652171D01*
X33847975Y72669635D01*
X33837025Y72669635D01*
X33637409Y72652171D01*
X33626622Y72650269D01*
X33433071Y72598407D01*
X33422777Y72594659D01*
X33241177Y72509979D01*
X33231689Y72504501D01*
X33201252Y72483189D01*
X33192877Y72472712D01*
X29419582Y72472712D01*
X29369058Y72508089D01*
X29364080Y72510410D01*
X29364077Y72510412D01*
X29182392Y72595133D01*
X29182391Y72595134D01*
X29177410Y72597456D01*
X29172102Y72598878D01*
X29172100Y72598879D01*
X28978470Y72650762D01*
X28978468Y72650762D01*
X28973155Y72652186D01*
X28762500Y72670616D01*
X28551845Y72652186D01*
X28546532Y72650762D01*
X28546530Y72650762D01*
X28352900Y72598879D01*
X28352898Y72598878D01*
X28347590Y72597456D01*
X28342609Y72595134D01*
X28342608Y72595133D01*
X28160923Y72510412D01*
X28160920Y72510410D01*
X28155942Y72508089D01*
X27982724Y72386801D01*
X27833199Y72237276D01*
X27711911Y72064058D01*
X27709590Y72059080D01*
X27709588Y72059077D01*
X27628456Y71885089D01*
X27622544Y71872410D01*
X27567814Y71668155D01*
X27549384Y71457500D01*
X22355616Y71457500D01*
X22337186Y71668155D01*
X22282456Y71872410D01*
X22276544Y71885089D01*
X22195412Y72059077D01*
X22195410Y72059080D01*
X22193089Y72064058D01*
X22071801Y72237276D01*
X21922276Y72386801D01*
X21749058Y72508089D01*
X21744080Y72510410D01*
X21744077Y72510412D01*
X21562392Y72595133D01*
X21562391Y72595134D01*
X21557410Y72597456D01*
X21552102Y72598878D01*
X21552100Y72598879D01*
X21358470Y72650762D01*
X21358468Y72650762D01*
X21353155Y72652186D01*
X21142500Y72670616D01*
X20931845Y72652186D01*
X20926532Y72650762D01*
X20926530Y72650762D01*
X20732900Y72598879D01*
X20732898Y72598878D01*
X20727590Y72597456D01*
X20722609Y72595134D01*
X20722608Y72595133D01*
X20540923Y72510412D01*
X20540920Y72510410D01*
X20535942Y72508089D01*
X20362724Y72386801D01*
X20213199Y72237276D01*
X20091911Y72064058D01*
X20089590Y72059080D01*
X20089588Y72059077D01*
X20008456Y71885089D01*
X20002544Y71872410D01*
X19947814Y71668155D01*
X19929384Y71457500D01*
X16501865Y71457500D01*
X16493609Y71562403D01*
X16468221Y71668155D01*
X16435660Y71803779D01*
X16434505Y71808591D01*
X16410270Y71867100D01*
X16339511Y72037928D01*
X16339509Y72037932D01*
X16337616Y72042502D01*
X16205328Y72258376D01*
X16040898Y72450898D01*
X15848376Y72615328D01*
X15632502Y72747616D01*
X15627932Y72749509D01*
X15627928Y72749511D01*
X15403164Y72842611D01*
X15403162Y72842612D01*
X15398591Y72844505D01*
X15313968Y72864821D01*
X15157216Y72902454D01*
X15157210Y72902455D01*
X15152403Y72903609D01*
X14900000Y72923474D01*
X14647597Y72903609D01*
X14642790Y72902455D01*
X14642784Y72902454D01*
X14486032Y72864821D01*
X14401409Y72844505D01*
X14396838Y72842612D01*
X14396836Y72842611D01*
X14172072Y72749511D01*
X14172068Y72749509D01*
X14167498Y72747616D01*
X13951624Y72615328D01*
X13759102Y72450898D01*
X13594672Y72258376D01*
X13462384Y72042502D01*
X13460491Y72037932D01*
X13460489Y72037928D01*
X13389730Y71867100D01*
X13365495Y71808591D01*
X13364340Y71803779D01*
X13331780Y71668155D01*
X13306391Y71562403D01*
X13286526Y71310000D01*
X11713300Y71310000D01*
X11713300Y85810930D01*
X11733302Y85879051D01*
X11750205Y85900025D01*
X14154775Y88304595D01*
X14217087Y88338621D01*
X14243870Y88341500D01*
X15798134Y88341500D01*
X15860316Y88348255D01*
X15996705Y88399385D01*
X16113261Y88486739D01*
X16152703Y88539366D01*
X20384000Y88539366D01*
X20390755Y88477184D01*
X20441885Y88340795D01*
X20529239Y88224239D01*
X20645795Y88136885D01*
X20782184Y88085755D01*
X20844366Y88079000D01*
X22340634Y88079000D01*
X22402816Y88085755D01*
X22539205Y88136885D01*
X22655761Y88224239D01*
X22743115Y88340795D01*
X22794245Y88477184D01*
X22801000Y88539366D01*
X22801000Y89287500D01*
X27999384Y89287500D01*
X28017814Y89076845D01*
X28019238Y89071532D01*
X28019238Y89071530D01*
X28050440Y88955085D01*
X28072544Y88872590D01*
X28074866Y88867609D01*
X28074867Y88867608D01*
X28156256Y88693070D01*
X28161911Y88680942D01*
X28283199Y88507724D01*
X28432724Y88358199D01*
X28605942Y88236911D01*
X28610920Y88234590D01*
X28610923Y88234588D01*
X28791592Y88150341D01*
X28797590Y88147544D01*
X28802898Y88146122D01*
X28802900Y88146121D01*
X28996530Y88094238D01*
X28996532Y88094238D01*
X29001845Y88092814D01*
X29212500Y88074384D01*
X29423155Y88092814D01*
X29428468Y88094238D01*
X29428470Y88094238D01*
X29622100Y88146121D01*
X29622102Y88146122D01*
X29627410Y88147544D01*
X29633408Y88150341D01*
X29814077Y88234588D01*
X29814080Y88234590D01*
X29819058Y88236911D01*
X29870940Y88273239D01*
X33642794Y88273239D01*
X33652090Y88261224D01*
X33681689Y88240499D01*
X33691177Y88235021D01*
X33872777Y88150341D01*
X33883071Y88146593D01*
X34076622Y88094731D01*
X34087409Y88092829D01*
X34287025Y88075365D01*
X34297975Y88075365D01*
X34497591Y88092829D01*
X34508378Y88094731D01*
X34701929Y88146593D01*
X34712223Y88150341D01*
X34893823Y88235021D01*
X34903311Y88240499D01*
X34933748Y88261811D01*
X34942123Y88272288D01*
X34935054Y88285736D01*
X34305312Y88915478D01*
X34291368Y88923092D01*
X34289535Y88922961D01*
X34282920Y88918710D01*
X33649224Y88285014D01*
X33642794Y88273239D01*
X29870940Y88273239D01*
X29992276Y88358199D01*
X30141801Y88507724D01*
X30263089Y88680942D01*
X30268745Y88693070D01*
X30350133Y88867608D01*
X30350134Y88867609D01*
X30352456Y88872590D01*
X30374561Y88955085D01*
X30405762Y89071530D01*
X30405762Y89071532D01*
X30407186Y89076845D01*
X30425137Y89282025D01*
X33080365Y89282025D01*
X33097829Y89082409D01*
X33099731Y89071622D01*
X33151593Y88878071D01*
X33155341Y88867777D01*
X33240021Y88686177D01*
X33245499Y88676689D01*
X33266811Y88646252D01*
X33277288Y88637877D01*
X33290736Y88644946D01*
X33920478Y89274688D01*
X33926856Y89286368D01*
X34656908Y89286368D01*
X34657039Y89284535D01*
X34661290Y89277920D01*
X35294986Y88644224D01*
X35306761Y88637794D01*
X35318776Y88647090D01*
X35339501Y88676689D01*
X35344979Y88686177D01*
X35429659Y88867777D01*
X35433407Y88878071D01*
X35485269Y89071622D01*
X35487171Y89082409D01*
X35504635Y89282025D01*
X35504635Y89292975D01*
X35487171Y89492591D01*
X35485269Y89503378D01*
X35433407Y89696929D01*
X35429659Y89707223D01*
X35344979Y89888823D01*
X35339501Y89898311D01*
X35318189Y89928748D01*
X35307712Y89937123D01*
X35294264Y89930054D01*
X34664522Y89300312D01*
X34656908Y89286368D01*
X33926856Y89286368D01*
X33928092Y89288632D01*
X33927961Y89290465D01*
X33923710Y89297080D01*
X33290014Y89930776D01*
X33278239Y89937206D01*
X33266224Y89927910D01*
X33245499Y89898311D01*
X33240021Y89888823D01*
X33155341Y89707223D01*
X33151593Y89696929D01*
X33099731Y89503378D01*
X33097829Y89492591D01*
X33080365Y89292975D01*
X33080365Y89282025D01*
X30425137Y89282025D01*
X30425616Y89287500D01*
X30407186Y89498155D01*
X30384024Y89584598D01*
X30353879Y89697100D01*
X30353878Y89697102D01*
X30352456Y89702410D01*
X30294635Y89826408D01*
X30265412Y89889077D01*
X30265410Y89889080D01*
X30263089Y89894058D01*
X30141801Y90067276D01*
X29992276Y90216801D01*
X29869582Y90302712D01*
X33642877Y90302712D01*
X33649946Y90289264D01*
X34279688Y89659522D01*
X34293632Y89651908D01*
X34295465Y89652039D01*
X34302080Y89656290D01*
X34935776Y90289986D01*
X34942206Y90301761D01*
X34932910Y90313776D01*
X34903311Y90334501D01*
X34893823Y90339979D01*
X34712223Y90424659D01*
X34701929Y90428407D01*
X34508378Y90480269D01*
X34497591Y90482171D01*
X34297975Y90499635D01*
X34287025Y90499635D01*
X34087409Y90482171D01*
X34076622Y90480269D01*
X33883071Y90428407D01*
X33872777Y90424659D01*
X33691177Y90339979D01*
X33681689Y90334501D01*
X33651252Y90313189D01*
X33642877Y90302712D01*
X29869582Y90302712D01*
X29819058Y90338089D01*
X29814080Y90340410D01*
X29814077Y90340412D01*
X29632392Y90425133D01*
X29632391Y90425134D01*
X29627410Y90427456D01*
X29622102Y90428878D01*
X29622100Y90428879D01*
X29428470Y90480762D01*
X29428468Y90480762D01*
X29423155Y90482186D01*
X29212500Y90500616D01*
X29001845Y90482186D01*
X28996532Y90480762D01*
X28996530Y90480762D01*
X28802900Y90428879D01*
X28802898Y90428878D01*
X28797590Y90427456D01*
X28792609Y90425134D01*
X28792608Y90425133D01*
X28610923Y90340412D01*
X28610920Y90340410D01*
X28605942Y90338089D01*
X28432724Y90216801D01*
X28283199Y90067276D01*
X28161911Y89894058D01*
X28159590Y89889080D01*
X28159588Y89889077D01*
X28130365Y89826408D01*
X28072544Y89702410D01*
X28071122Y89697102D01*
X28071121Y89697100D01*
X28040976Y89584598D01*
X28017814Y89498155D01*
X27999384Y89287500D01*
X22801000Y89287500D01*
X22801000Y90035634D01*
X22794245Y90097816D01*
X22743115Y90234205D01*
X22655761Y90350761D01*
X22539205Y90438115D01*
X22402816Y90489245D01*
X22340634Y90496000D01*
X20844366Y90496000D01*
X20782184Y90489245D01*
X20645795Y90438115D01*
X20529239Y90350761D01*
X20441885Y90234205D01*
X20390755Y90097816D01*
X20384000Y90035634D01*
X20384000Y88539366D01*
X16152703Y88539366D01*
X16200615Y88603295D01*
X16251745Y88739684D01*
X16258500Y88801866D01*
X16258500Y91098134D01*
X16251745Y91160316D01*
X16200615Y91296705D01*
X16113261Y91413261D01*
X15996705Y91500615D01*
X15860316Y91551745D01*
X15798134Y91558500D01*
X13501866Y91558500D01*
X13439684Y91551745D01*
X13303295Y91500615D01*
X13186739Y91413261D01*
X13099385Y91296705D01*
X13048255Y91160316D01*
X13041500Y91098134D01*
X13041500Y89543870D01*
X13021498Y89475749D01*
X13004595Y89454775D01*
X10331531Y86781711D01*
X10330594Y86780782D01*
X10265750Y86717282D01*
X10261936Y86711364D01*
X10261932Y86711359D01*
X10242105Y86680593D01*
X10234666Y86670240D01*
X10207437Y86636131D01*
X10204372Y86629791D01*
X10204369Y86629786D01*
X10192735Y86605721D01*
X10185208Y86592308D01*
X10170726Y86569836D01*
X10170723Y86569829D01*
X10166908Y86563910D01*
X10164498Y86557290D01*
X10164498Y86557289D01*
X10151979Y86522893D01*
X10147019Y86511152D01*
X10128023Y86471856D01*
X10120423Y86438936D01*
X10116057Y86424201D01*
X10106911Y86399072D01*
X10106909Y86399066D01*
X10104502Y86392451D01*
X10103620Y86385468D01*
X10099031Y86349141D01*
X10096797Y86336600D01*
X10086978Y86294070D01*
X10086953Y86287024D01*
X10086953Y86287021D01*
X10086835Y86253259D01*
X10086805Y86252366D01*
X10086700Y86251530D01*
X10086700Y86214440D01*
X10086341Y86111608D01*
X10086611Y86110402D01*
X10086700Y86108753D01*
X10086700Y61364440D01*
X10086341Y61261608D01*
X10086611Y61260402D01*
X10086700Y61258753D01*
X10086700Y38989217D01*
X10086693Y38987897D01*
X10085744Y38897291D01*
X10087233Y38890404D01*
X10094967Y38854635D01*
X10097028Y38842051D01*
X10101893Y38798675D01*
X10104208Y38792028D01*
X10113002Y38766774D01*
X10117164Y38751964D01*
X10124302Y38718949D01*
X10127280Y38712562D01*
X10127281Y38712560D01*
X10142752Y38679381D01*
X10147547Y38667573D01*
X10161899Y38626361D01*
X10165632Y38620387D01*
X10179797Y38597718D01*
X10187133Y38584208D01*
X10201415Y38553581D01*
X10217987Y38532217D01*
X10228169Y38519090D01*
X10235462Y38508636D01*
X10258589Y38471624D01*
X10263554Y38466625D01*
X10263555Y38466623D01*
X10287356Y38442656D01*
X10287953Y38442018D01*
X10288473Y38441347D01*
X10314731Y38415089D01*
X10360191Y38369311D01*
X10387159Y38342154D01*
X10388200Y38341494D01*
X10389435Y38340385D01*
X11000725Y37729095D01*
X11034751Y37666783D01*
X11029686Y37595968D01*
X11000725Y37550905D01*
X9581531Y36131711D01*
X9580594Y36130782D01*
X9515750Y36067282D01*
X9511936Y36061364D01*
X9511932Y36061359D01*
X9492105Y36030593D01*
X9484666Y36020240D01*
X9457437Y35986131D01*
X9454372Y35979791D01*
X9454369Y35979786D01*
X9442735Y35955721D01*
X9435208Y35942308D01*
X9420726Y35919836D01*
X9420723Y35919829D01*
X9416908Y35913910D01*
X9402469Y35874238D01*
X9401979Y35872893D01*
X9397019Y35861152D01*
X9378023Y35821856D01*
X9370423Y35788936D01*
X9366057Y35774201D01*
X9356911Y35749072D01*
X9356909Y35749066D01*
X9354502Y35742451D01*
X9353620Y35735468D01*
X9349031Y35699141D01*
X9346797Y35686600D01*
X9336978Y35644070D01*
X9336953Y35637024D01*
X9336953Y35637021D01*
X9336835Y35603259D01*
X9336805Y35602366D01*
X9336700Y35601530D01*
X9336700Y35564594D01*
X9336699Y35564154D01*
X9336535Y35517084D01*
X9336341Y35461608D01*
X9336611Y35460402D01*
X9336700Y35458753D01*
X9336700Y24539070D01*
X9316698Y24470949D01*
X9299795Y24449975D01*
X7835025Y22985205D01*
X7772713Y22951179D01*
X7745930Y22948300D01*
X5802483Y22948300D01*
X5734362Y22968302D01*
X5709289Y22989501D01*
X5582435Y23128912D01*
X5551383Y23192757D01*
X5559779Y23263256D01*
X5604955Y23318024D01*
X5631400Y23331693D01*
X5738052Y23371675D01*
X5753649Y23380214D01*
X5855724Y23456715D01*
X5868285Y23469276D01*
X5944786Y23571351D01*
X5953324Y23586946D01*
X5998478Y23707394D01*
X6002105Y23722649D01*
X6007631Y23773514D01*
X6008000Y23780328D01*
X6008000Y24402885D01*
X6003525Y24418124D01*
X6002135Y24419329D01*
X5994452Y24421000D01*
X3310116Y24421000D01*
X3294877Y24416525D01*
X3293672Y24415135D01*
X3292001Y24407452D01*
X3292001Y23780331D01*
X3292371Y23773510D01*
X3297895Y23722648D01*
X3301521Y23707396D01*
X3346676Y23586946D01*
X3355214Y23571351D01*
X3431715Y23469276D01*
X3444276Y23456715D01*
X3546351Y23380214D01*
X3561946Y23371676D01*
X3670827Y23330858D01*
X3727591Y23288216D01*
X3752291Y23221655D01*
X3737083Y23152306D01*
X3717691Y23125825D01*
X3594200Y22996599D01*
X3590629Y22992862D01*
X3464743Y22808320D01*
X3370688Y22605695D01*
X3310989Y22390430D01*
X3287251Y22168305D01*
X508000Y22168305D01*
X508000Y24947115D01*
X3292000Y24947115D01*
X3296475Y24931876D01*
X3297865Y24930671D01*
X3305548Y24929000D01*
X4377885Y24929000D01*
X4393124Y24933475D01*
X4394329Y24934865D01*
X4396000Y24942548D01*
X4396000Y24947115D01*
X4904000Y24947115D01*
X4908475Y24931876D01*
X4909865Y24930671D01*
X4917548Y24929000D01*
X5989884Y24929000D01*
X6005123Y24933475D01*
X6006328Y24934865D01*
X6007999Y24942548D01*
X6007999Y25569669D01*
X6007629Y25576490D01*
X6002105Y25627352D01*
X5998479Y25642604D01*
X5953324Y25763054D01*
X5944786Y25778649D01*
X5868285Y25880724D01*
X5855724Y25893285D01*
X5753649Y25969786D01*
X5738054Y25978324D01*
X5617606Y26023478D01*
X5602351Y26027105D01*
X5551486Y26032631D01*
X5544672Y26033000D01*
X4922115Y26033000D01*
X4906876Y26028525D01*
X4905671Y26027135D01*
X4904000Y26019452D01*
X4904000Y24947115D01*
X4396000Y24947115D01*
X4396000Y26014884D01*
X4391525Y26030123D01*
X4390135Y26031328D01*
X4382452Y26032999D01*
X3755331Y26032999D01*
X3748510Y26032629D01*
X3697648Y26027105D01*
X3682396Y26023479D01*
X3561946Y25978324D01*
X3546351Y25969786D01*
X3444276Y25893285D01*
X3431715Y25880724D01*
X3355214Y25778649D01*
X3346676Y25763054D01*
X3301522Y25642606D01*
X3297895Y25627351D01*
X3292369Y25576486D01*
X3292000Y25569672D01*
X3292000Y24947115D01*
X508000Y24947115D01*
X508000Y36362034D01*
X3068257Y36362034D01*
X3098565Y36227554D01*
X3101645Y36217725D01*
X3181770Y36020397D01*
X3186413Y36011206D01*
X3297694Y35829612D01*
X3303777Y35821301D01*
X3443213Y35660333D01*
X3450580Y35653117D01*
X3614434Y35517084D01*
X3622881Y35511169D01*
X3806756Y35403721D01*
X3816042Y35399271D01*
X4015001Y35323297D01*
X4024899Y35320421D01*
X4128250Y35299394D01*
X4142299Y35300590D01*
X4146000Y35310935D01*
X4146000Y35311483D01*
X4654000Y35311483D01*
X4658064Y35297641D01*
X4671478Y35295607D01*
X4678184Y35296466D01*
X4688262Y35298608D01*
X4892255Y35359809D01*
X4901842Y35363567D01*
X5093095Y35457261D01*
X5101945Y35462536D01*
X5275328Y35586208D01*
X5283200Y35592861D01*
X5434052Y35743188D01*
X5440730Y35751035D01*
X5565003Y35923980D01*
X5570313Y35932817D01*
X5664670Y36123733D01*
X5668469Y36133328D01*
X5730377Y36337090D01*
X5732555Y36347163D01*
X5733986Y36358038D01*
X5731775Y36372222D01*
X5718617Y36376000D01*
X4672115Y36376000D01*
X4656876Y36371525D01*
X4655671Y36370135D01*
X4654000Y36362452D01*
X4654000Y35311483D01*
X4146000Y35311483D01*
X4146000Y36357885D01*
X4141525Y36373124D01*
X4140135Y36374329D01*
X4132452Y36376000D01*
X3083225Y36376000D01*
X3069694Y36372027D01*
X3068257Y36362034D01*
X508000Y36362034D01*
X508000Y39203305D01*
X3037251Y39203305D01*
X3037548Y39198152D01*
X3037548Y39198149D01*
X3043011Y39103410D01*
X3050110Y38980285D01*
X3051247Y38975239D01*
X3051248Y38975233D01*
X3068814Y38897291D01*
X3099222Y38762361D01*
X3156871Y38620387D01*
X3176856Y38571171D01*
X3183266Y38555384D01*
X3211914Y38508634D01*
X3285179Y38389077D01*
X3299987Y38364912D01*
X3446250Y38196062D01*
X3618126Y38053368D01*
X3649866Y38034821D01*
X3691955Y38010226D01*
X3740679Y37958588D01*
X3753750Y37888805D01*
X3727019Y37823033D01*
X3686562Y37789673D01*
X3678457Y37785454D01*
X3669738Y37779964D01*
X3499433Y37652095D01*
X3491726Y37645252D01*
X3344590Y37491283D01*
X3338104Y37483273D01*
X3218098Y37307351D01*
X3213000Y37298377D01*
X3123338Y37105217D01*
X3119775Y37095530D01*
X3064389Y36895817D01*
X3065912Y36887393D01*
X3078292Y36884000D01*
X5718344Y36884000D01*
X5731875Y36887973D01*
X5733180Y36897053D01*
X5691214Y37064125D01*
X5687894Y37073876D01*
X5602972Y37269186D01*
X5598105Y37278261D01*
X5482426Y37457074D01*
X5476136Y37465243D01*
X5332806Y37622760D01*
X5325273Y37629785D01*
X5158139Y37761778D01*
X5149556Y37767480D01*
X5112602Y37787880D01*
X5062631Y37838313D01*
X5047859Y37907755D01*
X5072975Y37974161D01*
X5100327Y38000768D01*
X5148068Y38034821D01*
X5279860Y38128827D01*
X5310663Y38159522D01*
X5415643Y38264136D01*
X5438096Y38286511D01*
X5450050Y38303146D01*
X5565435Y38463723D01*
X5568453Y38467923D01*
X5571112Y38473302D01*
X5665136Y38663547D01*
X5665137Y38663549D01*
X5667430Y38668189D01*
X5710504Y38809961D01*
X5730865Y38876977D01*
X5730865Y38876979D01*
X5732370Y38881931D01*
X5761529Y39103410D01*
X5763156Y39170000D01*
X5744852Y39392639D01*
X5690431Y39609298D01*
X5601354Y39814160D01*
X5480014Y40001723D01*
X5329670Y40166949D01*
X5325619Y40170148D01*
X5325615Y40170152D01*
X5158414Y40302200D01*
X5158410Y40302202D01*
X5154359Y40305402D01*
X5113053Y40328204D01*
X5063084Y40378636D01*
X5048312Y40448079D01*
X5073428Y40514484D01*
X5100780Y40541091D01*
X5144603Y40572350D01*
X5279860Y40668827D01*
X5296309Y40685218D01*
X5369055Y40757711D01*
X5438096Y40826511D01*
X5473698Y40876056D01*
X5565435Y41003723D01*
X5568453Y41007923D01*
X5574882Y41020930D01*
X5665136Y41203547D01*
X5665137Y41203549D01*
X5667430Y41208189D01*
X5732370Y41421931D01*
X5761529Y41643410D01*
X5763156Y41710000D01*
X5744852Y41932639D01*
X5690431Y42149298D01*
X5601354Y42354160D01*
X5480014Y42541723D01*
X5329670Y42706949D01*
X5325619Y42710148D01*
X5325615Y42710152D01*
X5158414Y42842200D01*
X5158410Y42842202D01*
X5154359Y42845402D01*
X5113053Y42868204D01*
X5063084Y42918636D01*
X5048312Y42988079D01*
X5073428Y43054484D01*
X5100780Y43081091D01*
X5144603Y43112350D01*
X5279860Y43208827D01*
X5298915Y43227815D01*
X5395387Y43323951D01*
X5438096Y43366511D01*
X5497594Y43449311D01*
X5565435Y43543723D01*
X5568453Y43547923D01*
X5572070Y43555240D01*
X5665136Y43743547D01*
X5665137Y43743549D01*
X5667430Y43748189D01*
X5732370Y43961931D01*
X5761529Y44183410D01*
X5761611Y44186760D01*
X5763074Y44246635D01*
X5763074Y44246639D01*
X5763156Y44250000D01*
X5744852Y44472639D01*
X5690431Y44689298D01*
X5601354Y44894160D01*
X5540900Y44987608D01*
X5482822Y45077383D01*
X5482820Y45077386D01*
X5480014Y45081723D01*
X5329670Y45246949D01*
X5325619Y45250148D01*
X5325615Y45250152D01*
X5158414Y45382200D01*
X5158410Y45382202D01*
X5154359Y45385402D01*
X5113053Y45408204D01*
X5063084Y45458636D01*
X5048312Y45528079D01*
X5073428Y45594484D01*
X5100780Y45621091D01*
X5144603Y45652350D01*
X5279860Y45748827D01*
X5284830Y45753779D01*
X5434435Y45902863D01*
X5438096Y45906511D01*
X5452394Y45926408D01*
X5565435Y46083723D01*
X5568453Y46087923D01*
X5625400Y46203146D01*
X5665136Y46283547D01*
X5665137Y46283549D01*
X5667430Y46288189D01*
X5732370Y46501931D01*
X5761529Y46723410D01*
X5763156Y46790000D01*
X5744852Y47012639D01*
X5690431Y47229298D01*
X5601354Y47434160D01*
X5512425Y47571624D01*
X5482822Y47617383D01*
X5482820Y47617386D01*
X5480014Y47621723D01*
X5476532Y47625550D01*
X5332798Y47783512D01*
X5301746Y47847358D01*
X5310141Y47917857D01*
X5355317Y47972625D01*
X5381761Y47986294D01*
X5488297Y48026233D01*
X5496705Y48029385D01*
X5613261Y48116739D01*
X5700615Y48233295D01*
X5751745Y48369684D01*
X5758500Y48431866D01*
X5758500Y50228134D01*
X5751745Y50290316D01*
X5700615Y50426705D01*
X5613261Y50543261D01*
X5496705Y50630615D01*
X5360316Y50681745D01*
X5298134Y50688500D01*
X3501866Y50688500D01*
X3439684Y50681745D01*
X3303295Y50630615D01*
X3186739Y50543261D01*
X3099385Y50426705D01*
X3048255Y50290316D01*
X3041500Y50228134D01*
X3041500Y48431866D01*
X3048255Y48369684D01*
X3099385Y48233295D01*
X3186739Y48116739D01*
X3303295Y48029385D01*
X3311704Y48026233D01*
X3311705Y48026232D01*
X3420451Y47985465D01*
X3477216Y47942824D01*
X3501916Y47876262D01*
X3486709Y47806913D01*
X3467316Y47780432D01*
X3382027Y47691182D01*
X3340629Y47647862D01*
X3337715Y47643590D01*
X3337714Y47643589D01*
X3268862Y47542656D01*
X3214743Y47463320D01*
X3120688Y47260695D01*
X3060989Y47045430D01*
X3037251Y46823305D01*
X3037548Y46818152D01*
X3037548Y46818149D01*
X3043786Y46709961D01*
X3050110Y46600285D01*
X3051247Y46595239D01*
X3051248Y46595233D01*
X3062539Y46545133D01*
X3099222Y46382361D01*
X3137461Y46288189D01*
X3176856Y46191171D01*
X3183266Y46175384D01*
X3234019Y46092562D01*
X3285179Y46009077D01*
X3299987Y45984912D01*
X3446250Y45816062D01*
X3618126Y45673368D01*
X3688595Y45632189D01*
X3691445Y45630524D01*
X3740169Y45578886D01*
X3753240Y45509103D01*
X3726509Y45443331D01*
X3686055Y45409973D01*
X3673607Y45403493D01*
X3669474Y45400390D01*
X3669471Y45400388D01*
X3499100Y45272470D01*
X3494965Y45269365D01*
X3340629Y45107862D01*
X3337715Y45103590D01*
X3337714Y45103589D01*
X3293457Y45038710D01*
X3214743Y44923320D01*
X3199003Y44889410D01*
X3137909Y44757794D01*
X3120688Y44720695D01*
X3060989Y44505430D01*
X3037251Y44283305D01*
X3037548Y44278152D01*
X3037548Y44278149D01*
X3043463Y44175569D01*
X3050110Y44060285D01*
X3051247Y44055239D01*
X3051248Y44055233D01*
X3051289Y44055053D01*
X3099222Y43842361D01*
X3137461Y43748189D01*
X3170546Y43666711D01*
X3183266Y43635384D01*
X3226034Y43565593D01*
X3293906Y43454836D01*
X3299987Y43444912D01*
X3303367Y43441010D01*
X3309401Y43434044D01*
X3446250Y43276062D01*
X3618126Y43133368D01*
X3688595Y43092189D01*
X3691445Y43090524D01*
X3740169Y43038886D01*
X3753240Y42969103D01*
X3726509Y42903331D01*
X3686055Y42869973D01*
X3673607Y42863493D01*
X3669474Y42860390D01*
X3669471Y42860388D01*
X3645247Y42842200D01*
X3494965Y42729365D01*
X3340629Y42567862D01*
X3214743Y42383320D01*
X3120688Y42180695D01*
X3060989Y41965430D01*
X3037251Y41743305D01*
X3037548Y41738152D01*
X3037548Y41738149D01*
X3043011Y41643410D01*
X3050110Y41520285D01*
X3051247Y41515239D01*
X3051248Y41515233D01*
X3053764Y41504069D01*
X3099222Y41302361D01*
X3183266Y41095384D01*
X3224572Y41027979D01*
X3284896Y40929539D01*
X3299987Y40904912D01*
X3446250Y40736062D01*
X3618126Y40593368D01*
X3688595Y40552189D01*
X3691445Y40550524D01*
X3740169Y40498886D01*
X3753240Y40429103D01*
X3726509Y40363331D01*
X3686055Y40329973D01*
X3673607Y40323493D01*
X3669474Y40320390D01*
X3669471Y40320388D01*
X3645247Y40302200D01*
X3494965Y40189365D01*
X3340629Y40027862D01*
X3214743Y39843320D01*
X3120688Y39640695D01*
X3060989Y39425430D01*
X3037251Y39203305D01*
X508000Y39203305D01*
X508000Y97570000D01*
X13036526Y97570000D01*
X13056391Y97317597D01*
X13057545Y97312790D01*
X13057546Y97312784D01*
X13067328Y97272039D01*
X13115495Y97071409D01*
X13117388Y97066838D01*
X13117389Y97066836D01*
X13192875Y96884598D01*
X13212384Y96837498D01*
X13344672Y96621624D01*
X13509102Y96429102D01*
X13701624Y96264672D01*
X13917498Y96132384D01*
X13922068Y96130491D01*
X13922072Y96130489D01*
X14080182Y96064998D01*
X14151409Y96035495D01*
X14236032Y96015179D01*
X14392784Y95977546D01*
X14392790Y95977545D01*
X14397597Y95976391D01*
X14650000Y95956526D01*
X14902403Y95976391D01*
X14907210Y95977545D01*
X14907216Y95977546D01*
X15063968Y96015179D01*
X15148591Y96035495D01*
X15219818Y96064998D01*
X15377928Y96130489D01*
X15377932Y96130491D01*
X15382502Y96132384D01*
X15598376Y96264672D01*
X15790898Y96429102D01*
X15955328Y96621624D01*
X16087616Y96837498D01*
X16107126Y96884598D01*
X16116612Y96907500D01*
X20379384Y96907500D01*
X20397814Y96696845D01*
X20399238Y96691532D01*
X20399238Y96691530D01*
X20418977Y96617865D01*
X20452544Y96492590D01*
X20454866Y96487609D01*
X20454867Y96487608D01*
X20534292Y96317282D01*
X20541911Y96300942D01*
X20663199Y96127724D01*
X20812724Y95978199D01*
X20985942Y95856911D01*
X20990920Y95854590D01*
X20990923Y95854588D01*
X21171592Y95770341D01*
X21177590Y95767544D01*
X21182898Y95766122D01*
X21182900Y95766121D01*
X21376530Y95714238D01*
X21376532Y95714238D01*
X21381845Y95712814D01*
X21592500Y95694384D01*
X21803155Y95712814D01*
X21808468Y95714238D01*
X21808470Y95714238D01*
X22002100Y95766121D01*
X22002102Y95766122D01*
X22007410Y95767544D01*
X22013408Y95770341D01*
X22194077Y95854588D01*
X22194080Y95854590D01*
X22199058Y95856911D01*
X22372276Y95978199D01*
X22521801Y96127724D01*
X22643089Y96300942D01*
X22650709Y96317282D01*
X22730133Y96487608D01*
X22730134Y96487609D01*
X22732456Y96492590D01*
X22766024Y96617865D01*
X22785762Y96691530D01*
X22785762Y96691532D01*
X22787186Y96696845D01*
X22805616Y96907500D01*
X27999384Y96907500D01*
X28017814Y96696845D01*
X28019238Y96691532D01*
X28019238Y96691530D01*
X28038977Y96617865D01*
X28072544Y96492590D01*
X28074866Y96487609D01*
X28074867Y96487608D01*
X28154292Y96317282D01*
X28161911Y96300942D01*
X28283199Y96127724D01*
X28432724Y95978199D01*
X28605942Y95856911D01*
X28610920Y95854590D01*
X28610923Y95854588D01*
X28791592Y95770341D01*
X28797590Y95767544D01*
X28802898Y95766122D01*
X28802900Y95766121D01*
X28996530Y95714238D01*
X28996532Y95714238D01*
X29001845Y95712814D01*
X29212500Y95694384D01*
X29423155Y95712814D01*
X29428468Y95714238D01*
X29428470Y95714238D01*
X29622100Y95766121D01*
X29622102Y95766122D01*
X29627410Y95767544D01*
X29633408Y95770341D01*
X29814077Y95854588D01*
X29814080Y95854590D01*
X29819058Y95856911D01*
X29870940Y95893239D01*
X33642794Y95893239D01*
X33652090Y95881224D01*
X33681689Y95860499D01*
X33691177Y95855021D01*
X33872777Y95770341D01*
X33883071Y95766593D01*
X34076622Y95714731D01*
X34087409Y95712829D01*
X34287025Y95695365D01*
X34297975Y95695365D01*
X34497591Y95712829D01*
X34508378Y95714731D01*
X34701929Y95766593D01*
X34712223Y95770341D01*
X34893823Y95855021D01*
X34903311Y95860499D01*
X34933748Y95881811D01*
X34942123Y95892288D01*
X34935054Y95905736D01*
X34305312Y96535478D01*
X34291368Y96543092D01*
X34289535Y96542961D01*
X34282920Y96538710D01*
X33649224Y95905014D01*
X33642794Y95893239D01*
X29870940Y95893239D01*
X29992276Y95978199D01*
X30141801Y96127724D01*
X30263089Y96300942D01*
X30270709Y96317282D01*
X30350133Y96487608D01*
X30350134Y96487609D01*
X30352456Y96492590D01*
X30386024Y96617865D01*
X30405762Y96691530D01*
X30405762Y96691532D01*
X30407186Y96696845D01*
X30425137Y96902025D01*
X33080365Y96902025D01*
X33097829Y96702409D01*
X33099731Y96691622D01*
X33151593Y96498071D01*
X33155341Y96487777D01*
X33240021Y96306177D01*
X33245499Y96296689D01*
X33266811Y96266252D01*
X33277288Y96257877D01*
X33290736Y96264946D01*
X33920478Y96894688D01*
X33926856Y96906368D01*
X34656908Y96906368D01*
X34657039Y96904535D01*
X34661290Y96897920D01*
X35294986Y96264224D01*
X35306761Y96257794D01*
X35318776Y96267090D01*
X35339501Y96296689D01*
X35344979Y96306177D01*
X35429659Y96487777D01*
X35433407Y96498071D01*
X35485269Y96691622D01*
X35487171Y96702409D01*
X35504635Y96902025D01*
X35504635Y96912975D01*
X35487171Y97112591D01*
X35485269Y97123378D01*
X35433407Y97316929D01*
X35429659Y97327223D01*
X35344979Y97508823D01*
X35339501Y97518311D01*
X35318189Y97548748D01*
X35307712Y97557123D01*
X35294264Y97550054D01*
X34664522Y96920312D01*
X34656908Y96906368D01*
X33926856Y96906368D01*
X33928092Y96908632D01*
X33927961Y96910465D01*
X33923710Y96917080D01*
X33290014Y97550776D01*
X33278239Y97557206D01*
X33266224Y97547910D01*
X33245499Y97518311D01*
X33240021Y97508823D01*
X33155341Y97327223D01*
X33151593Y97316929D01*
X33099731Y97123378D01*
X33097829Y97112591D01*
X33080365Y96912975D01*
X33080365Y96902025D01*
X30425137Y96902025D01*
X30425616Y96907500D01*
X30407186Y97118155D01*
X30403808Y97130762D01*
X30353879Y97317100D01*
X30353878Y97317102D01*
X30352456Y97322410D01*
X30305625Y97422839D01*
X30265412Y97509077D01*
X30265410Y97509080D01*
X30263089Y97514058D01*
X30141801Y97687276D01*
X29992276Y97836801D01*
X29869582Y97922712D01*
X33642877Y97922712D01*
X33649946Y97909264D01*
X34279688Y97279522D01*
X34293632Y97271908D01*
X34295465Y97272039D01*
X34302080Y97276290D01*
X34935776Y97909986D01*
X34942206Y97921761D01*
X34932910Y97933776D01*
X34903311Y97954501D01*
X34893823Y97959979D01*
X34712223Y98044659D01*
X34701929Y98048407D01*
X34508378Y98100269D01*
X34497591Y98102171D01*
X34297975Y98119635D01*
X34287025Y98119635D01*
X34087409Y98102171D01*
X34076622Y98100269D01*
X33883071Y98048407D01*
X33872777Y98044659D01*
X33691177Y97959979D01*
X33681689Y97954501D01*
X33651252Y97933189D01*
X33642877Y97922712D01*
X29869582Y97922712D01*
X29819058Y97958089D01*
X29814080Y97960410D01*
X29814077Y97960412D01*
X29632392Y98045133D01*
X29632391Y98045134D01*
X29627410Y98047456D01*
X29622102Y98048878D01*
X29622100Y98048879D01*
X29428470Y98100762D01*
X29428468Y98100762D01*
X29423155Y98102186D01*
X29212500Y98120616D01*
X29001845Y98102186D01*
X28996532Y98100762D01*
X28996530Y98100762D01*
X28802900Y98048879D01*
X28802898Y98048878D01*
X28797590Y98047456D01*
X28792609Y98045134D01*
X28792608Y98045133D01*
X28610923Y97960412D01*
X28610920Y97960410D01*
X28605942Y97958089D01*
X28432724Y97836801D01*
X28283199Y97687276D01*
X28161911Y97514058D01*
X28159590Y97509080D01*
X28159588Y97509077D01*
X28119375Y97422839D01*
X28072544Y97322410D01*
X28071122Y97317102D01*
X28071121Y97317100D01*
X28021192Y97130762D01*
X28017814Y97118155D01*
X27999384Y96907500D01*
X22805616Y96907500D01*
X22787186Y97118155D01*
X22783808Y97130762D01*
X22733879Y97317100D01*
X22733878Y97317102D01*
X22732456Y97322410D01*
X22685625Y97422839D01*
X22645412Y97509077D01*
X22645410Y97509080D01*
X22643089Y97514058D01*
X22521801Y97687276D01*
X22372276Y97836801D01*
X22199058Y97958089D01*
X22194080Y97960410D01*
X22194077Y97960412D01*
X22012392Y98045133D01*
X22012391Y98045134D01*
X22007410Y98047456D01*
X22002102Y98048878D01*
X22002100Y98048879D01*
X21808470Y98100762D01*
X21808468Y98100762D01*
X21803155Y98102186D01*
X21592500Y98120616D01*
X21381845Y98102186D01*
X21376532Y98100762D01*
X21376530Y98100762D01*
X21182900Y98048879D01*
X21182898Y98048878D01*
X21177590Y98047456D01*
X21172609Y98045134D01*
X21172608Y98045133D01*
X20990923Y97960412D01*
X20990920Y97960410D01*
X20985942Y97958089D01*
X20812724Y97836801D01*
X20663199Y97687276D01*
X20541911Y97514058D01*
X20539590Y97509080D01*
X20539588Y97509077D01*
X20499375Y97422839D01*
X20452544Y97322410D01*
X20451122Y97317102D01*
X20451121Y97317100D01*
X20401192Y97130762D01*
X20397814Y97118155D01*
X20379384Y96907500D01*
X16116612Y96907500D01*
X16182611Y97066836D01*
X16182612Y97066838D01*
X16184505Y97071409D01*
X16232672Y97272039D01*
X16242454Y97312784D01*
X16242455Y97312790D01*
X16243609Y97317597D01*
X16263474Y97570000D01*
X16243609Y97822403D01*
X16241088Y97832906D01*
X16193065Y98032937D01*
X16184505Y98068591D01*
X16171384Y98100269D01*
X16089511Y98297928D01*
X16089509Y98297932D01*
X16087616Y98302502D01*
X15955328Y98518376D01*
X15790898Y98710898D01*
X15598376Y98875328D01*
X15382502Y99007616D01*
X15377932Y99009509D01*
X15377928Y99009511D01*
X15153164Y99102611D01*
X15153162Y99102612D01*
X15148591Y99104505D01*
X15063968Y99124821D01*
X14907216Y99162454D01*
X14907210Y99162455D01*
X14902403Y99163609D01*
X14650000Y99183474D01*
X14397597Y99163609D01*
X14392790Y99162455D01*
X14392784Y99162454D01*
X14236032Y99124821D01*
X14151409Y99104505D01*
X14146838Y99102612D01*
X14146836Y99102611D01*
X13922072Y99009511D01*
X13922068Y99009509D01*
X13917498Y99007616D01*
X13701624Y98875328D01*
X13509102Y98710898D01*
X13344672Y98518376D01*
X13212384Y98302502D01*
X13210491Y98297932D01*
X13210489Y98297928D01*
X13128616Y98100269D01*
X13115495Y98068591D01*
X13106935Y98032937D01*
X13058913Y97832906D01*
X13056391Y97822403D01*
X13036526Y97570000D01*
X508000Y97570000D01*
X508000Y100505094D01*
X52069839Y100505094D01*
X52078553Y100493573D01*
X52185452Y100415191D01*
X52193351Y100410255D01*
X52422905Y100289481D01*
X52431454Y100285764D01*
X52676327Y100200251D01*
X52685336Y100197837D01*
X52940166Y100149456D01*
X52949423Y100148402D01*
X53208607Y100138217D01*
X53217921Y100138543D01*
X53475753Y100166780D01*
X53484930Y100168481D01*
X53735758Y100234519D01*
X53744574Y100237555D01*
X53982880Y100339938D01*
X53991167Y100344252D01*
X54211718Y100480734D01*
X54219268Y100486220D01*
X54224559Y100490699D01*
X54232997Y100503503D01*
X54226935Y100513855D01*
X53162812Y101577978D01*
X53148868Y101585592D01*
X53147035Y101585461D01*
X53140420Y101581210D01*
X52076497Y100517287D01*
X52069839Y100505094D01*
X508000Y100505094D01*
X508000Y101992789D01*
X51337775Y101992789D01*
X51350220Y101733712D01*
X51351356Y101724457D01*
X51401961Y101470055D01*
X51404449Y101461083D01*
X51492095Y101216967D01*
X51495895Y101208432D01*
X51618658Y100979958D01*
X51623666Y100972096D01*
X51693720Y100878284D01*
X51704979Y100869835D01*
X51717397Y100876607D01*
X52777978Y101937188D01*
X52784356Y101948868D01*
X53514408Y101948868D01*
X53514539Y101947035D01*
X53518790Y101940420D01*
X54586094Y100873116D01*
X54598474Y100866356D01*
X54606815Y100872600D01*
X54740832Y101080952D01*
X54745275Y101089136D01*
X54851807Y101325630D01*
X54854997Y101334395D01*
X54925402Y101584028D01*
X54927262Y101593170D01*
X54960187Y101851981D01*
X54960668Y101858267D01*
X54962987Y101946840D01*
X54962836Y101953149D01*
X54943501Y102213337D01*
X54942125Y102222543D01*
X54884878Y102475533D01*
X54882154Y102484444D01*
X54788143Y102726194D01*
X54784132Y102734603D01*
X54655422Y102959798D01*
X54650211Y102967524D01*
X54606996Y103022342D01*
X54595071Y103030813D01*
X54583537Y103024327D01*
X53522022Y101962812D01*
X53514408Y101948868D01*
X52784356Y101948868D01*
X52785592Y101951132D01*
X52785461Y101952965D01*
X52781210Y101959580D01*
X51715816Y103024974D01*
X51702507Y103032242D01*
X51692472Y103025122D01*
X51676937Y103006444D01*
X51671531Y102998865D01*
X51536965Y102777109D01*
X51532736Y102768808D01*
X51432432Y102529611D01*
X51429471Y102520761D01*
X51365628Y102269375D01*
X51364006Y102260178D01*
X51338020Y102002115D01*
X51337775Y101992789D01*
X508000Y101992789D01*
X508000Y103397311D01*
X52067102Y103397311D01*
X52071675Y103387535D01*
X53137188Y102322022D01*
X53151132Y102314408D01*
X53152965Y102314539D01*
X53159580Y102318790D01*
X54224349Y103383559D01*
X54230733Y103395249D01*
X54221321Y103407359D01*
X54074045Y103509529D01*
X54066010Y103514262D01*
X53833376Y103628984D01*
X53824743Y103632472D01*
X53577703Y103711550D01*
X53568643Y103713726D01*
X53312630Y103755420D01*
X53303343Y103756232D01*
X53043992Y103759627D01*
X53034681Y103759057D01*
X52777682Y103724081D01*
X52768546Y103722140D01*
X52519543Y103649561D01*
X52510800Y103646293D01*
X52275252Y103537704D01*
X52267097Y103533184D01*
X52076240Y103408053D01*
X52067102Y103397311D01*
X508000Y103397311D01*
X508000Y104967034D01*
X1818257Y104967034D01*
X1848565Y104832554D01*
X1851645Y104822725D01*
X1931770Y104625397D01*
X1936413Y104616206D01*
X2047694Y104434612D01*
X2053777Y104426301D01*
X2193213Y104265333D01*
X2200580Y104258117D01*
X2364434Y104122084D01*
X2372881Y104116169D01*
X2556756Y104008721D01*
X2566042Y104004271D01*
X2765001Y103928297D01*
X2774899Y103925421D01*
X2878250Y103904394D01*
X2892299Y103905590D01*
X2896000Y103915935D01*
X2896000Y103916483D01*
X3404000Y103916483D01*
X3408064Y103902641D01*
X3421478Y103900607D01*
X3428184Y103901466D01*
X3438262Y103903608D01*
X3642255Y103964809D01*
X3651842Y103968567D01*
X3843095Y104062261D01*
X3851945Y104067536D01*
X4025328Y104191208D01*
X4033200Y104197861D01*
X4184052Y104348188D01*
X4190730Y104356035D01*
X4315003Y104528980D01*
X4320313Y104537817D01*
X4414670Y104728733D01*
X4418469Y104738328D01*
X4480377Y104942090D01*
X4482555Y104952163D01*
X4483986Y104963038D01*
X4481775Y104977222D01*
X4468617Y104981000D01*
X3422115Y104981000D01*
X3406876Y104976525D01*
X3405671Y104975135D01*
X3404000Y104967452D01*
X3404000Y103916483D01*
X2896000Y103916483D01*
X2896000Y104962885D01*
X2891525Y104978124D01*
X2890135Y104979329D01*
X2882452Y104981000D01*
X1833225Y104981000D01*
X1819694Y104977027D01*
X1818257Y104967034D01*
X508000Y104967034D01*
X508000Y106880331D01*
X1792001Y106880331D01*
X1792371Y106873510D01*
X1797895Y106822648D01*
X1801521Y106807396D01*
X1846676Y106686946D01*
X1855214Y106671351D01*
X1931715Y106569276D01*
X1944276Y106556715D01*
X2046351Y106480214D01*
X2061946Y106471676D01*
X2171337Y106430667D01*
X2228101Y106388025D01*
X2252801Y106321464D01*
X2237594Y106252115D01*
X2218201Y106225634D01*
X2094590Y106096283D01*
X2088104Y106088273D01*
X1968098Y105912351D01*
X1963000Y105903377D01*
X1873338Y105710217D01*
X1869775Y105700530D01*
X1814389Y105500817D01*
X1815912Y105492393D01*
X1828292Y105489000D01*
X2877885Y105489000D01*
X2893124Y105493475D01*
X2894329Y105494865D01*
X2896000Y105502548D01*
X2896000Y105507115D01*
X3404000Y105507115D01*
X3408475Y105491876D01*
X3409865Y105490671D01*
X3417548Y105489000D01*
X4468344Y105489000D01*
X4481875Y105492973D01*
X4483180Y105502053D01*
X4441214Y105669125D01*
X4437894Y105678876D01*
X4352972Y105874186D01*
X4348105Y105883261D01*
X4232426Y106062074D01*
X4226136Y106070243D01*
X4081931Y106228721D01*
X4050879Y106292567D01*
X4059273Y106363066D01*
X4104450Y106417834D01*
X4130894Y106431503D01*
X4238054Y106471676D01*
X4253649Y106480214D01*
X4355724Y106556715D01*
X4368285Y106569276D01*
X4444786Y106671351D01*
X4453324Y106686946D01*
X4498478Y106807394D01*
X4502105Y106822649D01*
X4507631Y106873514D01*
X4508000Y106880328D01*
X4508000Y107502885D01*
X4503525Y107518124D01*
X4502135Y107519329D01*
X4494452Y107521000D01*
X3422115Y107521000D01*
X3406876Y107516525D01*
X3405671Y107515135D01*
X3404000Y107507452D01*
X3404000Y105507115D01*
X2896000Y105507115D01*
X2896000Y107502885D01*
X2891525Y107518124D01*
X2890135Y107519329D01*
X2882452Y107521000D01*
X1810116Y107521000D01*
X1794877Y107516525D01*
X1793672Y107515135D01*
X1792001Y107507452D01*
X1792001Y106880331D01*
X508000Y106880331D01*
X508000Y107542831D01*
X31492001Y107542831D01*
X31492371Y107536010D01*
X31497895Y107485148D01*
X31501521Y107469896D01*
X31546676Y107349446D01*
X31555214Y107333851D01*
X31631715Y107231776D01*
X31644276Y107219215D01*
X31746351Y107142714D01*
X31761946Y107134176D01*
X31882394Y107089022D01*
X31897649Y107085395D01*
X31948514Y107079869D01*
X31955328Y107079500D01*
X32402885Y107079500D01*
X32418124Y107083975D01*
X32419329Y107085365D01*
X32421000Y107093048D01*
X32421000Y107097616D01*
X32929000Y107097616D01*
X32933475Y107082377D01*
X32934865Y107081172D01*
X32942548Y107079501D01*
X33394669Y107079501D01*
X33401490Y107079871D01*
X33452352Y107085395D01*
X33467604Y107089021D01*
X33588054Y107134176D01*
X33603649Y107142714D01*
X33705724Y107219215D01*
X33718285Y107231776D01*
X33794786Y107333851D01*
X33803324Y107349446D01*
X33848478Y107469894D01*
X33852105Y107485149D01*
X33857631Y107536014D01*
X33858000Y107542828D01*
X33858000Y107542831D01*
X37142001Y107542831D01*
X37142371Y107536010D01*
X37147895Y107485148D01*
X37151521Y107469896D01*
X37196676Y107349446D01*
X37205214Y107333851D01*
X37281715Y107231776D01*
X37294276Y107219215D01*
X37396351Y107142714D01*
X37411946Y107134176D01*
X37532394Y107089022D01*
X37547649Y107085395D01*
X37598514Y107079869D01*
X37605328Y107079500D01*
X38052885Y107079500D01*
X38068124Y107083975D01*
X38069329Y107085365D01*
X38071000Y107093048D01*
X38071000Y107097616D01*
X38579000Y107097616D01*
X38583475Y107082377D01*
X38584865Y107081172D01*
X38592548Y107079501D01*
X39044669Y107079501D01*
X39051490Y107079871D01*
X39102352Y107085395D01*
X39117604Y107089021D01*
X39238054Y107134176D01*
X39253649Y107142714D01*
X39355724Y107219215D01*
X39368285Y107231776D01*
X39444786Y107333851D01*
X39453324Y107349446D01*
X39498478Y107469894D01*
X39502105Y107485149D01*
X39507631Y107536014D01*
X39508000Y107542828D01*
X39508000Y108201866D01*
X40951500Y108201866D01*
X40958255Y108139684D01*
X41009385Y108003295D01*
X41096739Y107886739D01*
X41213295Y107799385D01*
X41349684Y107748255D01*
X41411866Y107741500D01*
X43208134Y107741500D01*
X43270316Y107748255D01*
X43289191Y107755331D01*
X53542001Y107755331D01*
X53542371Y107748510D01*
X53547895Y107697648D01*
X53551521Y107682396D01*
X53596676Y107561946D01*
X53605214Y107546351D01*
X53681715Y107444276D01*
X53694276Y107431715D01*
X53796351Y107355214D01*
X53811946Y107346676D01*
X53932394Y107301522D01*
X53947649Y107297895D01*
X53998514Y107292369D01*
X54005328Y107292000D01*
X54627885Y107292000D01*
X54643124Y107296475D01*
X54644329Y107297865D01*
X54646000Y107305548D01*
X54646000Y107310116D01*
X55154000Y107310116D01*
X55158475Y107294877D01*
X55159865Y107293672D01*
X55167548Y107292001D01*
X55794669Y107292001D01*
X55801490Y107292371D01*
X55852352Y107297895D01*
X55867604Y107301521D01*
X55988054Y107346676D01*
X56003649Y107355214D01*
X56105724Y107431715D01*
X56118285Y107444276D01*
X56194786Y107546351D01*
X56203325Y107561948D01*
X56244425Y107671582D01*
X56287066Y107728347D01*
X56353628Y107753047D01*
X56422977Y107737840D01*
X56457645Y107709850D01*
X56483219Y107680326D01*
X56490580Y107673117D01*
X56654434Y107537084D01*
X56662881Y107531169D01*
X56846756Y107423721D01*
X56856042Y107419271D01*
X57055001Y107343297D01*
X57064899Y107340421D01*
X57168250Y107319394D01*
X57182299Y107320590D01*
X57186000Y107330935D01*
X57186000Y107331483D01*
X57694000Y107331483D01*
X57698064Y107317641D01*
X57711478Y107315607D01*
X57718184Y107316466D01*
X57728262Y107318608D01*
X57932255Y107379809D01*
X57941842Y107383567D01*
X58133095Y107477261D01*
X58141945Y107482536D01*
X58315328Y107606208D01*
X58323200Y107612861D01*
X58474052Y107763188D01*
X58480730Y107771035D01*
X58605003Y107943980D01*
X58610313Y107952817D01*
X58704670Y108143733D01*
X58708469Y108153328D01*
X58770377Y108357090D01*
X58772555Y108367163D01*
X58773986Y108378038D01*
X58771775Y108392222D01*
X58758617Y108396000D01*
X57712115Y108396000D01*
X57696876Y108391525D01*
X57695671Y108390135D01*
X57694000Y108382452D01*
X57694000Y107331483D01*
X57186000Y107331483D01*
X57186000Y108377885D01*
X57181525Y108393124D01*
X57180135Y108394329D01*
X57172452Y108396000D01*
X55172115Y108396000D01*
X55156876Y108391525D01*
X55155671Y108390135D01*
X55154000Y108382452D01*
X55154000Y107310116D01*
X54646000Y107310116D01*
X54646000Y108377885D01*
X54641525Y108393124D01*
X54640135Y108394329D01*
X54632452Y108396000D01*
X53560116Y108396000D01*
X53544877Y108391525D01*
X53543672Y108390135D01*
X53542001Y108382452D01*
X53542001Y107755331D01*
X43289191Y107755331D01*
X43406705Y107799385D01*
X43523261Y107886739D01*
X43610615Y108003295D01*
X43654798Y108121152D01*
X43697440Y108177916D01*
X43764001Y108202616D01*
X43833350Y108187408D01*
X43868017Y108159420D01*
X43893218Y108130327D01*
X43900580Y108123117D01*
X44064434Y107987084D01*
X44072881Y107981169D01*
X44256756Y107873721D01*
X44266042Y107869271D01*
X44465001Y107793297D01*
X44474899Y107790421D01*
X44578250Y107769394D01*
X44592299Y107770590D01*
X44596000Y107780935D01*
X44596000Y107781483D01*
X45104000Y107781483D01*
X45108064Y107767641D01*
X45121478Y107765607D01*
X45128184Y107766466D01*
X45138262Y107768608D01*
X45342255Y107829809D01*
X45351842Y107833567D01*
X45543095Y107927261D01*
X45551945Y107932536D01*
X45725328Y108056208D01*
X45733200Y108062861D01*
X45884052Y108213188D01*
X45890730Y108221035D01*
X46015003Y108393980D01*
X46020313Y108402817D01*
X46114670Y108593733D01*
X46118469Y108603328D01*
X46180377Y108807090D01*
X46182555Y108817163D01*
X46183986Y108828038D01*
X46181775Y108842222D01*
X46168617Y108846000D01*
X45122115Y108846000D01*
X45106876Y108841525D01*
X45105671Y108840135D01*
X45104000Y108832452D01*
X45104000Y107781483D01*
X44596000Y107781483D01*
X44596000Y108922115D01*
X53542000Y108922115D01*
X53546475Y108906876D01*
X53547865Y108905671D01*
X53555548Y108904000D01*
X54627885Y108904000D01*
X54643124Y108908475D01*
X54644329Y108909865D01*
X54646000Y108917548D01*
X54646000Y108922115D01*
X55154000Y108922115D01*
X55158475Y108906876D01*
X55159865Y108905671D01*
X55167548Y108904000D01*
X57167885Y108904000D01*
X57183124Y108908475D01*
X57184329Y108909865D01*
X57186000Y108917548D01*
X57186000Y108922115D01*
X57694000Y108922115D01*
X57698475Y108906876D01*
X57699865Y108905671D01*
X57707548Y108904000D01*
X58758344Y108904000D01*
X58771875Y108907973D01*
X58773180Y108917053D01*
X58731214Y109084125D01*
X58727894Y109093876D01*
X58642972Y109289186D01*
X58638105Y109298261D01*
X58522426Y109477074D01*
X58516136Y109485243D01*
X58372806Y109642760D01*
X58365273Y109649785D01*
X58198139Y109781778D01*
X58189552Y109787483D01*
X58003117Y109890401D01*
X57993705Y109894631D01*
X57792959Y109965720D01*
X57782988Y109968354D01*
X57711837Y109981028D01*
X57698540Y109979568D01*
X57694000Y109965011D01*
X57694000Y108922115D01*
X57186000Y108922115D01*
X57186000Y109966898D01*
X57182082Y109980242D01*
X57167806Y109982229D01*
X57129324Y109976340D01*
X57119288Y109973949D01*
X56916868Y109907788D01*
X56907359Y109903791D01*
X56718463Y109805458D01*
X56709738Y109799964D01*
X56539433Y109672095D01*
X56531726Y109665252D01*
X56454094Y109584015D01*
X56392570Y109548585D01*
X56321657Y109552042D01*
X56263871Y109593288D01*
X56245018Y109626836D01*
X56203324Y109738054D01*
X56194786Y109753649D01*
X56118285Y109855724D01*
X56105724Y109868285D01*
X56003649Y109944786D01*
X55988054Y109953324D01*
X55867606Y109998478D01*
X55852351Y110002105D01*
X55801486Y110007631D01*
X55794672Y110008000D01*
X55172115Y110008000D01*
X55156876Y110003525D01*
X55155671Y110002135D01*
X55154000Y109994452D01*
X55154000Y108922115D01*
X54646000Y108922115D01*
X54646000Y109989884D01*
X54641525Y110005123D01*
X54640135Y110006328D01*
X54632452Y110007999D01*
X54005331Y110007999D01*
X53998510Y110007629D01*
X53947648Y110002105D01*
X53932396Y109998479D01*
X53811946Y109953324D01*
X53796351Y109944786D01*
X53694276Y109868285D01*
X53681715Y109855724D01*
X53605214Y109753649D01*
X53596676Y109738054D01*
X53551522Y109617606D01*
X53547895Y109602351D01*
X53542369Y109551486D01*
X53542000Y109544672D01*
X53542000Y108922115D01*
X44596000Y108922115D01*
X44596000Y109372115D01*
X45104000Y109372115D01*
X45108475Y109356876D01*
X45109865Y109355671D01*
X45117548Y109354000D01*
X46168344Y109354000D01*
X46181875Y109357973D01*
X46183180Y109367053D01*
X46141214Y109534125D01*
X46137894Y109543876D01*
X46052972Y109739186D01*
X46048105Y109748261D01*
X45932426Y109927074D01*
X45926136Y109935243D01*
X45782806Y110092760D01*
X45775273Y110099785D01*
X45608139Y110231778D01*
X45599552Y110237483D01*
X45413117Y110340401D01*
X45403705Y110344631D01*
X45202959Y110415720D01*
X45192988Y110418354D01*
X45121837Y110431028D01*
X45108540Y110429568D01*
X45104000Y110415011D01*
X45104000Y109372115D01*
X44596000Y109372115D01*
X44596000Y110416898D01*
X44592082Y110430242D01*
X44577806Y110432229D01*
X44539324Y110426340D01*
X44529288Y110423949D01*
X44326868Y110357788D01*
X44317359Y110353791D01*
X44128463Y110255458D01*
X44119738Y110249964D01*
X43949433Y110122095D01*
X43941726Y110115252D01*
X43864478Y110034416D01*
X43802954Y109998986D01*
X43732042Y110002443D01*
X43674255Y110043689D01*
X43655402Y110077237D01*
X43613767Y110188297D01*
X43610615Y110196705D01*
X43523261Y110313261D01*
X43406705Y110400615D01*
X43270316Y110451745D01*
X43208134Y110458500D01*
X41411866Y110458500D01*
X41349684Y110451745D01*
X41213295Y110400615D01*
X41096739Y110313261D01*
X41009385Y110196705D01*
X40958255Y110060316D01*
X40951500Y109998134D01*
X40951500Y108201866D01*
X39508000Y108201866D01*
X39508000Y109415385D01*
X39503525Y109430624D01*
X39502135Y109431829D01*
X39494452Y109433500D01*
X38597115Y109433500D01*
X38581876Y109429025D01*
X38580671Y109427635D01*
X38579000Y109419952D01*
X38579000Y107097616D01*
X38071000Y107097616D01*
X38071000Y109415385D01*
X38066525Y109430624D01*
X38065135Y109431829D01*
X38057452Y109433500D01*
X37160116Y109433500D01*
X37144877Y109429025D01*
X37143672Y109427635D01*
X37142001Y109419952D01*
X37142001Y107542831D01*
X33858000Y107542831D01*
X33858000Y109415385D01*
X33853525Y109430624D01*
X33852135Y109431829D01*
X33844452Y109433500D01*
X32947115Y109433500D01*
X32931876Y109429025D01*
X32930671Y109427635D01*
X32929000Y109419952D01*
X32929000Y107097616D01*
X32421000Y107097616D01*
X32421000Y109415385D01*
X32416525Y109430624D01*
X32415135Y109431829D01*
X32407452Y109433500D01*
X31510116Y109433500D01*
X31494877Y109429025D01*
X31493672Y109427635D01*
X31492001Y109419952D01*
X31492001Y107542831D01*
X508000Y107542831D01*
X508000Y108047115D01*
X1792000Y108047115D01*
X1796475Y108031876D01*
X1797865Y108030671D01*
X1805548Y108029000D01*
X2877885Y108029000D01*
X2893124Y108033475D01*
X2894329Y108034865D01*
X2896000Y108042548D01*
X2896000Y108047115D01*
X3404000Y108047115D01*
X3408475Y108031876D01*
X3409865Y108030671D01*
X3417548Y108029000D01*
X4489884Y108029000D01*
X4505123Y108033475D01*
X4506328Y108034865D01*
X4507999Y108042548D01*
X4507999Y108669669D01*
X4507629Y108676490D01*
X4502105Y108727352D01*
X4498479Y108742604D01*
X4453324Y108863054D01*
X4444786Y108878649D01*
X4368285Y108980724D01*
X4355724Y108993285D01*
X4253649Y109069786D01*
X4238054Y109078324D01*
X4117606Y109123478D01*
X4102351Y109127105D01*
X4051486Y109132631D01*
X4044672Y109133000D01*
X3422115Y109133000D01*
X3406876Y109128525D01*
X3405671Y109127135D01*
X3404000Y109119452D01*
X3404000Y108047115D01*
X2896000Y108047115D01*
X2896000Y109114884D01*
X2891525Y109130123D01*
X2890135Y109131328D01*
X2882452Y109132999D01*
X2255331Y109132999D01*
X2248510Y109132629D01*
X2197648Y109127105D01*
X2182396Y109123479D01*
X2061946Y109078324D01*
X2046351Y109069786D01*
X1944276Y108993285D01*
X1931715Y108980724D01*
X1855214Y108878649D01*
X1846676Y108863054D01*
X1801522Y108742606D01*
X1797895Y108727351D01*
X1792369Y108676486D01*
X1792000Y108669672D01*
X1792000Y108047115D01*
X508000Y108047115D01*
X508000Y111616000D01*
X528002Y111684121D01*
X581658Y111730614D01*
X634000Y111742000D01*
X31366000Y111742000D01*
X31434121Y111721998D01*
G37*
%TD.AperFunction*%
%TD*%
M02*
