M48
; DRILL file {KiCad (6.0.10)} date Sat Jan 14 17:08:27 2023
; FORMAT={-:-/ absolute / inch / decimal}
; #@! TF.CreationDate,2023-01-14T17:08:27-08:00
; #@! TF.GenerationSoftware,Kicad,Pcbnew,(6.0.10)
; #@! TF.FileFunction,Plated,1,2,PTH
FMAT,2
INCH
; #@! TA.AperFunction,Plated,PTH,ComponentDrill
T1C0.0315
; #@! TA.AperFunction,Plated,PTH,ComponentDrill
T2C0.0433
; #@! TA.AperFunction,Plated,PTH,ViaDrill
T3C0.0500
; #@! TA.AperFunction,Plated,PTH,ComponentDrill
T4C0.0610
%
G90
G05
T1
X1.2165Y0.2047
X1.315Y0.2047
X1.4031Y0.9606
X1.5015Y0.9606
T2
X0.4512Y0.9843
X0.5512Y0.9843
X0.6512Y0.9843
X1.3567Y0.6299
X1.4567Y0.6299
X1.5567Y0.6299
T3
X0.1614Y0.7953
X0.9252Y0.1181
X0.9843Y1.1654
X1.7323Y1.1535
X1.9646Y0.5748
T4
X0.4803Y1.3228
X0.6063Y0.3543
X0.6693Y1.3228
X0.7953Y0.3543
X0.9843Y0.3543
X1.3386Y1.3228
X1.5276Y1.3228
X1.5669Y0.378
X1.5669Y0.189
T0
M30
