%TF.GenerationSoftware,KiCad,Pcbnew,(6.0.10)*%
%TF.CreationDate,2023-01-14T17:08:10-08:00*%
%TF.ProjectId,power,706f7765-722e-46b6-9963-61645f706362,rev?*%
%TF.SameCoordinates,PX62fdcc0PY7270e00*%
%TF.FileFunction,Legend,Top*%
%TF.FilePolarity,Positive*%
%FSLAX46Y46*%
G04 Gerber Fmt 4.6, Leading zero omitted, Abs format (unit mm)*
G04 Created by KiCad (PCBNEW (6.0.10)) date 2023-01-14 17:08:10*
%MOMM*%
%LPD*%
G01*
G04 APERTURE LIST*
%ADD10C,0.150000*%
%ADD11C,0.120000*%
G04 APERTURE END LIST*
D10*
X32976190Y13047620D02*
X32976190Y14047620D01*
X33452380Y13047620D02*
X33452380Y14047620D01*
X34023809Y13047620D01*
X34023809Y14047620D01*
X35900000Y14047620D02*
X36090476Y14047620D01*
X36185714Y14000000D01*
X36280952Y13904762D01*
X36328571Y13714286D01*
X36328571Y13380953D01*
X36280952Y13190477D01*
X36185714Y13095239D01*
X36090476Y13047620D01*
X35900000Y13047620D01*
X35804761Y13095239D01*
X35709523Y13190477D01*
X35661904Y13380953D01*
X35661904Y13714286D01*
X35709523Y13904762D01*
X35804761Y14000000D01*
X35900000Y14047620D01*
X36757142Y14047620D02*
X36757142Y13238096D01*
X36804761Y13142858D01*
X36852380Y13095239D01*
X36947619Y13047620D01*
X37138095Y13047620D01*
X37233333Y13095239D01*
X37280952Y13142858D01*
X37328571Y13238096D01*
X37328571Y14047620D01*
X37661904Y14047620D02*
X38233333Y14047620D01*
X37947619Y13047620D02*
X37947619Y14047620D01*
X39638095Y14000000D02*
X39542857Y14047620D01*
X39400000Y14047620D01*
X39257142Y14000000D01*
X39161904Y13904762D01*
X39114285Y13809524D01*
X39066666Y13619048D01*
X39066666Y13476191D01*
X39114285Y13285715D01*
X39161904Y13190477D01*
X39257142Y13095239D01*
X39400000Y13047620D01*
X39495238Y13047620D01*
X39638095Y13095239D01*
X39685714Y13142858D01*
X39685714Y13476191D01*
X39495238Y13476191D01*
X40114285Y13047620D02*
X40114285Y14047620D01*
X40685714Y13047620D01*
X40685714Y14047620D01*
X41161904Y13047620D02*
X41161904Y14047620D01*
X41400000Y14047620D01*
X41542857Y14000000D01*
X41638095Y13904762D01*
X41685714Y13809524D01*
X41733333Y13619048D01*
X41733333Y13476191D01*
X41685714Y13285715D01*
X41638095Y13190477D01*
X41542857Y13095239D01*
X41400000Y13047620D01*
X41161904Y13047620D01*
X16214285Y22195239D02*
X16357142Y22147620D01*
X16595238Y22147620D01*
X16690476Y22195239D01*
X16738095Y22242858D01*
X16785714Y22338096D01*
X16785714Y22433334D01*
X16738095Y22528572D01*
X16690476Y22576191D01*
X16595238Y22623810D01*
X16404761Y22671429D01*
X16309523Y22719048D01*
X16261904Y22766667D01*
X16214285Y22861905D01*
X16214285Y22957143D01*
X16261904Y23052381D01*
X16309523Y23100000D01*
X16404761Y23147620D01*
X16642857Y23147620D01*
X16785714Y23100000D01*
X13738095Y22247620D02*
X13738095Y23247620D01*
X13976190Y23247620D01*
X14119047Y23200000D01*
X14214285Y23104762D01*
X14261904Y23009524D01*
X14309523Y22819048D01*
X14309523Y22676191D01*
X14261904Y22485715D01*
X14214285Y22390477D01*
X14119047Y22295239D01*
X13976190Y22247620D01*
X13738095Y22247620D01*
X11661904Y23100000D02*
X11566666Y23147620D01*
X11423809Y23147620D01*
X11280952Y23100000D01*
X11185714Y23004762D01*
X11138095Y22909524D01*
X11090476Y22719048D01*
X11090476Y22576191D01*
X11138095Y22385715D01*
X11185714Y22290477D01*
X11280952Y22195239D01*
X11423809Y22147620D01*
X11519047Y22147620D01*
X11661904Y22195239D01*
X11709523Y22242858D01*
X11709523Y22576191D01*
X11519047Y22576191D01*
X46371428Y23557620D02*
X46371428Y24557620D01*
X46942857Y23557620D01*
X46942857Y24557620D01*
X47323809Y24557620D02*
X47990476Y24557620D01*
X47561904Y23557620D01*
X48276190Y24557620D02*
X48514285Y23557620D01*
X48704761Y24271905D01*
X48895238Y23557620D01*
X49133333Y24557620D01*
X49514285Y23557620D02*
X49514285Y24557620D01*
X49847619Y23843334D01*
X50180952Y24557620D01*
X50180952Y23557620D01*
X50657142Y23557620D02*
X50657142Y24557620D01*
X51228571Y23557620D01*
X51228571Y24557620D01*
X44276190Y21947620D02*
X44276190Y22947620D01*
X44657142Y22947620D01*
X44752380Y22900000D01*
X44800000Y22852381D01*
X44847619Y22757143D01*
X44847619Y22614286D01*
X44800000Y22519048D01*
X44752380Y22471429D01*
X44657142Y22423810D01*
X44276190Y22423810D01*
X45419047Y21947620D02*
X45323809Y21995239D01*
X45276190Y22042858D01*
X45228571Y22138096D01*
X45228571Y22423810D01*
X45276190Y22519048D01*
X45323809Y22566667D01*
X45419047Y22614286D01*
X45561904Y22614286D01*
X45657142Y22566667D01*
X45704761Y22519048D01*
X45752380Y22423810D01*
X45752380Y22138096D01*
X45704761Y22042858D01*
X45657142Y21995239D01*
X45561904Y21947620D01*
X45419047Y21947620D01*
X46085714Y22614286D02*
X46276190Y21947620D01*
X46466666Y22423810D01*
X46657142Y21947620D01*
X46847619Y22614286D01*
X47609523Y21995239D02*
X47514285Y21947620D01*
X47323809Y21947620D01*
X47228571Y21995239D01*
X47180952Y22090477D01*
X47180952Y22471429D01*
X47228571Y22566667D01*
X47323809Y22614286D01*
X47514285Y22614286D01*
X47609523Y22566667D01*
X47657142Y22471429D01*
X47657142Y22376191D01*
X47180952Y22280953D01*
X48085714Y21947620D02*
X48085714Y22614286D01*
X48085714Y22423810D02*
X48133333Y22519048D01*
X48180952Y22566667D01*
X48276190Y22614286D01*
X48371428Y22614286D01*
X49800000Y22471429D02*
X49942857Y22423810D01*
X49990476Y22376191D01*
X50038095Y22280953D01*
X50038095Y22138096D01*
X49990476Y22042858D01*
X49942857Y21995239D01*
X49847619Y21947620D01*
X49466666Y21947620D01*
X49466666Y22947620D01*
X49800000Y22947620D01*
X49895238Y22900000D01*
X49942857Y22852381D01*
X49990476Y22757143D01*
X49990476Y22661905D01*
X49942857Y22566667D01*
X49895238Y22519048D01*
X49800000Y22471429D01*
X49466666Y22471429D01*
X50609523Y21947620D02*
X50514285Y21995239D01*
X50466666Y22042858D01*
X50419047Y22138096D01*
X50419047Y22423810D01*
X50466666Y22519048D01*
X50514285Y22566667D01*
X50609523Y22614286D01*
X50752380Y22614286D01*
X50847619Y22566667D01*
X50895238Y22519048D01*
X50942857Y22423810D01*
X50942857Y22138096D01*
X50895238Y22042858D01*
X50847619Y21995239D01*
X50752380Y21947620D01*
X50609523Y21947620D01*
X51800000Y21947620D02*
X51800000Y22471429D01*
X51752380Y22566667D01*
X51657142Y22614286D01*
X51466666Y22614286D01*
X51371428Y22566667D01*
X51800000Y21995239D02*
X51704761Y21947620D01*
X51466666Y21947620D01*
X51371428Y21995239D01*
X51323809Y22090477D01*
X51323809Y22185715D01*
X51371428Y22280953D01*
X51466666Y22328572D01*
X51704761Y22328572D01*
X51800000Y22376191D01*
X52276190Y21947620D02*
X52276190Y22614286D01*
X52276190Y22423810D02*
X52323809Y22519048D01*
X52371428Y22566667D01*
X52466666Y22614286D01*
X52561904Y22614286D01*
X53323809Y21947620D02*
X53323809Y22947620D01*
X53323809Y21995239D02*
X53228571Y21947620D01*
X53038095Y21947620D01*
X52942857Y21995239D01*
X52895238Y22042858D01*
X52847619Y22138096D01*
X52847619Y22423810D01*
X52895238Y22519048D01*
X52942857Y22566667D01*
X53038095Y22614286D01*
X53228571Y22614286D01*
X53323809Y22566667D01*
X47252380Y20337620D02*
X46919047Y20813810D01*
X46680952Y20337620D02*
X46680952Y21337620D01*
X47061904Y21337620D01*
X47157142Y21290000D01*
X47204761Y21242381D01*
X47252380Y21147143D01*
X47252380Y21004286D01*
X47204761Y20909048D01*
X47157142Y20861429D01*
X47061904Y20813810D01*
X46680952Y20813810D01*
X48061904Y20385239D02*
X47966666Y20337620D01*
X47776190Y20337620D01*
X47680952Y20385239D01*
X47633333Y20480477D01*
X47633333Y20861429D01*
X47680952Y20956667D01*
X47776190Y21004286D01*
X47966666Y21004286D01*
X48061904Y20956667D01*
X48109523Y20861429D01*
X48109523Y20766191D01*
X47633333Y20670953D01*
X48442857Y21004286D02*
X48680952Y20337620D01*
X48919047Y21004286D01*
X49300000Y20432858D02*
X49347619Y20385239D01*
X49300000Y20337620D01*
X49252380Y20385239D01*
X49300000Y20432858D01*
X49300000Y20337620D01*
X50490476Y20623334D02*
X50966666Y20623334D01*
X50395238Y20337620D02*
X50728571Y21337620D01*
X51061904Y20337620D01*
X18680952Y6419286D02*
X19061904Y6419286D01*
X18823809Y5752620D02*
X18823809Y6609762D01*
X18871428Y6705000D01*
X18966666Y6752620D01*
X19061904Y6752620D01*
X19395238Y5752620D02*
X19395238Y6419286D01*
X19395238Y6228810D02*
X19442857Y6324048D01*
X19490476Y6371667D01*
X19585714Y6419286D01*
X19680952Y6419286D01*
X20157142Y5752620D02*
X20061904Y5800239D01*
X20014285Y5847858D01*
X19966666Y5943096D01*
X19966666Y6228810D01*
X20014285Y6324048D01*
X20061904Y6371667D01*
X20157142Y6419286D01*
X20300000Y6419286D01*
X20395238Y6371667D01*
X20442857Y6324048D01*
X20490476Y6228810D01*
X20490476Y5943096D01*
X20442857Y5847858D01*
X20395238Y5800239D01*
X20300000Y5752620D01*
X20157142Y5752620D01*
X20919047Y5752620D02*
X20919047Y6419286D01*
X20919047Y6324048D02*
X20966666Y6371667D01*
X21061904Y6419286D01*
X21204761Y6419286D01*
X21300000Y6371667D01*
X21347619Y6276429D01*
X21347619Y5752620D01*
X21347619Y6276429D02*
X21395238Y6371667D01*
X21490476Y6419286D01*
X21633333Y6419286D01*
X21728571Y6371667D01*
X21776190Y6276429D01*
X21776190Y5752620D01*
X19442857Y4190239D02*
X19585714Y4142620D01*
X19823809Y4142620D01*
X19919047Y4190239D01*
X19966666Y4237858D01*
X20014285Y4333096D01*
X20014285Y4428334D01*
X19966666Y4523572D01*
X19919047Y4571191D01*
X19823809Y4618810D01*
X19633333Y4666429D01*
X19538095Y4714048D01*
X19490476Y4761667D01*
X19442857Y4856905D01*
X19442857Y4952143D01*
X19490476Y5047381D01*
X19538095Y5095000D01*
X19633333Y5142620D01*
X19871428Y5142620D01*
X20014285Y5095000D01*
X20347619Y5142620D02*
X20585714Y4142620D01*
X20776190Y4856905D01*
X20966666Y4142620D01*
X21204761Y5142620D01*
X14657142Y6619286D02*
X15038095Y6619286D01*
X14800000Y6952620D02*
X14800000Y6095477D01*
X14847619Y6000239D01*
X14942857Y5952620D01*
X15038095Y5952620D01*
X15514285Y5952620D02*
X15419047Y6000239D01*
X15371428Y6047858D01*
X15323809Y6143096D01*
X15323809Y6428810D01*
X15371428Y6524048D01*
X15419047Y6571667D01*
X15514285Y6619286D01*
X15657142Y6619286D01*
X15752380Y6571667D01*
X15800000Y6524048D01*
X15847619Y6428810D01*
X15847619Y6143096D01*
X15800000Y6047858D01*
X15752380Y6000239D01*
X15657142Y5952620D01*
X15514285Y5952620D01*
X14442857Y4390239D02*
X14585714Y4342620D01*
X14823809Y4342620D01*
X14919047Y4390239D01*
X14966666Y4437858D01*
X15014285Y4533096D01*
X15014285Y4628334D01*
X14966666Y4723572D01*
X14919047Y4771191D01*
X14823809Y4818810D01*
X14633333Y4866429D01*
X14538095Y4914048D01*
X14490476Y4961667D01*
X14442857Y5056905D01*
X14442857Y5152143D01*
X14490476Y5247381D01*
X14538095Y5295000D01*
X14633333Y5342620D01*
X14871428Y5342620D01*
X15014285Y5295000D01*
X15347619Y5342620D02*
X15585714Y4342620D01*
X15776190Y5056905D01*
X15966666Y4342620D01*
X16204761Y5342620D01*
X24238095Y12200000D02*
X24142857Y12247620D01*
X24000000Y12247620D01*
X23857142Y12200000D01*
X23761904Y12104762D01*
X23714285Y12009524D01*
X23666666Y11819048D01*
X23666666Y11676191D01*
X23714285Y11485715D01*
X23761904Y11390477D01*
X23857142Y11295239D01*
X24000000Y11247620D01*
X24095238Y11247620D01*
X24238095Y11295239D01*
X24285714Y11342858D01*
X24285714Y11676191D01*
X24095238Y11676191D01*
X24714285Y11247620D02*
X24714285Y12247620D01*
X25285714Y11247620D01*
X25285714Y12247620D01*
X25761904Y11247620D02*
X25761904Y12247620D01*
X26000000Y12247620D01*
X26142857Y12200000D01*
X26238095Y12104762D01*
X26285714Y12009524D01*
X26333333Y11819048D01*
X26333333Y11676191D01*
X26285714Y11485715D01*
X26238095Y11390477D01*
X26142857Y11295239D01*
X26000000Y11247620D01*
X25761904Y11247620D01*
X43000000Y10333572D02*
X43761904Y10333572D01*
X43380952Y9952620D02*
X43380952Y10714524D01*
X44714285Y10952620D02*
X44238095Y10952620D01*
X44190476Y10476429D01*
X44238095Y10524048D01*
X44333333Y10571667D01*
X44571428Y10571667D01*
X44666666Y10524048D01*
X44714285Y10476429D01*
X44761904Y10381191D01*
X44761904Y10143096D01*
X44714285Y10047858D01*
X44666666Y10000239D01*
X44571428Y9952620D01*
X44333333Y9952620D01*
X44238095Y10000239D01*
X44190476Y10047858D01*
X45190476Y10047858D02*
X45238095Y10000239D01*
X45190476Y9952620D01*
X45142857Y10000239D01*
X45190476Y10047858D01*
X45190476Y9952620D01*
X45857142Y10952620D02*
X45952380Y10952620D01*
X46047619Y10905000D01*
X46095238Y10857381D01*
X46142857Y10762143D01*
X46190476Y10571667D01*
X46190476Y10333572D01*
X46142857Y10143096D01*
X46095238Y10047858D01*
X46047619Y10000239D01*
X45952380Y9952620D01*
X45857142Y9952620D01*
X45761904Y10000239D01*
X45714285Y10047858D01*
X45666666Y10143096D01*
X45619047Y10333572D01*
X45619047Y10571667D01*
X45666666Y10762143D01*
X45714285Y10857381D01*
X45761904Y10905000D01*
X45857142Y10952620D01*
X46476190Y10952620D02*
X46809523Y9952620D01*
X47142857Y10952620D01*
X42976190Y9342620D02*
X43166666Y9342620D01*
X43261904Y9295000D01*
X43357142Y9199762D01*
X43404761Y9009286D01*
X43404761Y8675953D01*
X43357142Y8485477D01*
X43261904Y8390239D01*
X43166666Y8342620D01*
X42976190Y8342620D01*
X42880952Y8390239D01*
X42785714Y8485477D01*
X42738095Y8675953D01*
X42738095Y9009286D01*
X42785714Y9199762D01*
X42880952Y9295000D01*
X42976190Y9342620D01*
X44261904Y9009286D02*
X44261904Y8342620D01*
X43833333Y9009286D02*
X43833333Y8485477D01*
X43880952Y8390239D01*
X43976190Y8342620D01*
X44119047Y8342620D01*
X44214285Y8390239D01*
X44261904Y8437858D01*
X44595238Y9009286D02*
X44976190Y9009286D01*
X44738095Y9342620D02*
X44738095Y8485477D01*
X44785714Y8390239D01*
X44880952Y8342620D01*
X44976190Y8342620D01*
X45309523Y9009286D02*
X45309523Y8009286D01*
X45309523Y8961667D02*
X45404761Y9009286D01*
X45595238Y9009286D01*
X45690476Y8961667D01*
X45738095Y8914048D01*
X45785714Y8818810D01*
X45785714Y8533096D01*
X45738095Y8437858D01*
X45690476Y8390239D01*
X45595238Y8342620D01*
X45404761Y8342620D01*
X45309523Y8390239D01*
X46642857Y9009286D02*
X46642857Y8342620D01*
X46214285Y9009286D02*
X46214285Y8485477D01*
X46261904Y8390239D01*
X46357142Y8342620D01*
X46500000Y8342620D01*
X46595238Y8390239D01*
X46642857Y8437858D01*
X46976190Y9009286D02*
X47357142Y9009286D01*
X47119047Y9342620D02*
X47119047Y8485477D01*
X47166666Y8390239D01*
X47261904Y8342620D01*
X47357142Y8342620D01*
X43038095Y5100000D02*
X42942857Y5147620D01*
X42800000Y5147620D01*
X42657142Y5100000D01*
X42561904Y5004762D01*
X42514285Y4909524D01*
X42466666Y4719048D01*
X42466666Y4576191D01*
X42514285Y4385715D01*
X42561904Y4290477D01*
X42657142Y4195239D01*
X42800000Y4147620D01*
X42895238Y4147620D01*
X43038095Y4195239D01*
X43085714Y4242858D01*
X43085714Y4576191D01*
X42895238Y4576191D01*
X43514285Y4147620D02*
X43514285Y5147620D01*
X44085714Y4147620D01*
X44085714Y5147620D01*
X44561904Y4147620D02*
X44561904Y5147620D01*
X44800000Y5147620D01*
X44942857Y5100000D01*
X45038095Y5004762D01*
X45085714Y4909524D01*
X45133333Y4719048D01*
X45133333Y4576191D01*
X45085714Y4385715D01*
X45038095Y4290477D01*
X44942857Y4195239D01*
X44800000Y4147620D01*
X44561904Y4147620D01*
X31323809Y38333572D02*
X32085714Y38333572D01*
X31704761Y37952620D02*
X31704761Y38714524D01*
X33085714Y37952620D02*
X32514285Y37952620D01*
X32800000Y37952620D02*
X32800000Y38952620D01*
X32704761Y38809762D01*
X32609523Y38714524D01*
X32514285Y38666905D01*
X33419047Y38952620D02*
X34038095Y38952620D01*
X33704761Y38571667D01*
X33847619Y38571667D01*
X33942857Y38524048D01*
X33990476Y38476429D01*
X34038095Y38381191D01*
X34038095Y38143096D01*
X33990476Y38047858D01*
X33942857Y38000239D01*
X33847619Y37952620D01*
X33561904Y37952620D01*
X33466666Y38000239D01*
X33419047Y38047858D01*
X34466666Y38047858D02*
X34514285Y38000239D01*
X34466666Y37952620D01*
X34419047Y38000239D01*
X34466666Y38047858D01*
X34466666Y37952620D01*
X34847619Y38952620D02*
X35514285Y38952620D01*
X35085714Y37952620D01*
X35752380Y38952620D02*
X36085714Y37952620D01*
X36419047Y38952620D01*
X31776190Y37342620D02*
X31966666Y37342620D01*
X32061904Y37295000D01*
X32157142Y37199762D01*
X32204761Y37009286D01*
X32204761Y36675953D01*
X32157142Y36485477D01*
X32061904Y36390239D01*
X31966666Y36342620D01*
X31776190Y36342620D01*
X31680952Y36390239D01*
X31585714Y36485477D01*
X31538095Y36675953D01*
X31538095Y37009286D01*
X31585714Y37199762D01*
X31680952Y37295000D01*
X31776190Y37342620D01*
X33061904Y37009286D02*
X33061904Y36342620D01*
X32633333Y37009286D02*
X32633333Y36485477D01*
X32680952Y36390239D01*
X32776190Y36342620D01*
X32919047Y36342620D01*
X33014285Y36390239D01*
X33061904Y36437858D01*
X33395238Y37009286D02*
X33776190Y37009286D01*
X33538095Y37342620D02*
X33538095Y36485477D01*
X33585714Y36390239D01*
X33680952Y36342620D01*
X33776190Y36342620D01*
X34109523Y37009286D02*
X34109523Y36009286D01*
X34109523Y36961667D02*
X34204761Y37009286D01*
X34395238Y37009286D01*
X34490476Y36961667D01*
X34538095Y36914048D01*
X34585714Y36818810D01*
X34585714Y36533096D01*
X34538095Y36437858D01*
X34490476Y36390239D01*
X34395238Y36342620D01*
X34204761Y36342620D01*
X34109523Y36390239D01*
X35442857Y37009286D02*
X35442857Y36342620D01*
X35014285Y37009286D02*
X35014285Y36485477D01*
X35061904Y36390239D01*
X35157142Y36342620D01*
X35300000Y36342620D01*
X35395238Y36390239D01*
X35442857Y36437858D01*
X35776190Y37009286D02*
X36157142Y37009286D01*
X35919047Y37342620D02*
X35919047Y36485477D01*
X35966666Y36390239D01*
X36061904Y36342620D01*
X36157142Y36342620D01*
X38438095Y37500000D02*
X38342857Y37547620D01*
X38200000Y37547620D01*
X38057142Y37500000D01*
X37961904Y37404762D01*
X37914285Y37309524D01*
X37866666Y37119048D01*
X37866666Y36976191D01*
X37914285Y36785715D01*
X37961904Y36690477D01*
X38057142Y36595239D01*
X38200000Y36547620D01*
X38295238Y36547620D01*
X38438095Y36595239D01*
X38485714Y36642858D01*
X38485714Y36976191D01*
X38295238Y36976191D01*
X38914285Y36547620D02*
X38914285Y37547620D01*
X39485714Y36547620D01*
X39485714Y37547620D01*
X39961904Y36547620D02*
X39961904Y37547620D01*
X40200000Y37547620D01*
X40342857Y37500000D01*
X40438095Y37404762D01*
X40485714Y37309524D01*
X40533333Y37119048D01*
X40533333Y36976191D01*
X40485714Y36785715D01*
X40438095Y36690477D01*
X40342857Y36595239D01*
X40200000Y36547620D01*
X39961904Y36547620D01*
X11238095Y37300000D02*
X11142857Y37347620D01*
X11000000Y37347620D01*
X10857142Y37300000D01*
X10761904Y37204762D01*
X10714285Y37109524D01*
X10666666Y36919048D01*
X10666666Y36776191D01*
X10714285Y36585715D01*
X10761904Y36490477D01*
X10857142Y36395239D01*
X11000000Y36347620D01*
X11095238Y36347620D01*
X11238095Y36395239D01*
X11285714Y36442858D01*
X11285714Y36776191D01*
X11095238Y36776191D01*
X11714285Y36347620D02*
X11714285Y37347620D01*
X12285714Y36347620D01*
X12285714Y37347620D01*
X12761904Y36347620D02*
X12761904Y37347620D01*
X13000000Y37347620D01*
X13142857Y37300000D01*
X13238095Y37204762D01*
X13285714Y37109524D01*
X13333333Y36919048D01*
X13333333Y36776191D01*
X13285714Y36585715D01*
X13238095Y36490477D01*
X13142857Y36395239D01*
X13000000Y36347620D01*
X12761904Y36347620D01*
X14523809Y38133572D02*
X15285714Y38133572D01*
X14904761Y37752620D02*
X14904761Y38514524D01*
X16285714Y37752620D02*
X15714285Y37752620D01*
X16000000Y37752620D02*
X16000000Y38752620D01*
X15904761Y38609762D01*
X15809523Y38514524D01*
X15714285Y38466905D01*
X16619047Y38752620D02*
X17238095Y38752620D01*
X16904761Y38371667D01*
X17047619Y38371667D01*
X17142857Y38324048D01*
X17190476Y38276429D01*
X17238095Y38181191D01*
X17238095Y37943096D01*
X17190476Y37847858D01*
X17142857Y37800239D01*
X17047619Y37752620D01*
X16761904Y37752620D01*
X16666666Y37800239D01*
X16619047Y37847858D01*
X17666666Y37847858D02*
X17714285Y37800239D01*
X17666666Y37752620D01*
X17619047Y37800239D01*
X17666666Y37847858D01*
X17666666Y37752620D01*
X18047619Y38752620D02*
X18714285Y38752620D01*
X18285714Y37752620D01*
X18952380Y38752620D02*
X19285714Y37752620D01*
X19619047Y38752620D01*
X15357142Y36142620D02*
X15357142Y37142620D01*
X15833333Y36809286D02*
X15833333Y36142620D01*
X15833333Y36714048D02*
X15880952Y36761667D01*
X15976190Y36809286D01*
X16119047Y36809286D01*
X16214285Y36761667D01*
X16261904Y36666429D01*
X16261904Y36142620D01*
X16738095Y36809286D02*
X16738095Y35809286D01*
X16738095Y36761667D02*
X16833333Y36809286D01*
X17023809Y36809286D01*
X17119047Y36761667D01*
X17166666Y36714048D01*
X17214285Y36618810D01*
X17214285Y36333096D01*
X17166666Y36237858D01*
X17119047Y36190239D01*
X17023809Y36142620D01*
X16833333Y36142620D01*
X16738095Y36190239D01*
X18071428Y36809286D02*
X18071428Y36142620D01*
X17642857Y36809286D02*
X17642857Y36285477D01*
X17690476Y36190239D01*
X17785714Y36142620D01*
X17928571Y36142620D01*
X18023809Y36190239D01*
X18071428Y36237858D01*
X18404761Y36809286D02*
X18785714Y36809286D01*
X18547619Y37142620D02*
X18547619Y36285477D01*
X18595238Y36190239D01*
X18690476Y36142620D01*
X18785714Y36142620D01*
%TO.C,REF2*%
X50752380Y38347620D02*
X50419047Y38823810D01*
X50180952Y38347620D02*
X50180952Y39347620D01*
X50561904Y39347620D01*
X50657142Y39300000D01*
X50704761Y39252381D01*
X50752380Y39157143D01*
X50752380Y39014286D01*
X50704761Y38919048D01*
X50657142Y38871429D01*
X50561904Y38823810D01*
X50180952Y38823810D01*
X51180952Y38871429D02*
X51514285Y38871429D01*
X51657142Y38347620D02*
X51180952Y38347620D01*
X51180952Y39347620D01*
X51657142Y39347620D01*
X52419047Y38871429D02*
X52085714Y38871429D01*
X52085714Y38347620D02*
X52085714Y39347620D01*
X52561904Y39347620D01*
X52895238Y39252381D02*
X52942857Y39300000D01*
X53038095Y39347620D01*
X53276190Y39347620D01*
X53371428Y39300000D01*
X53419047Y39252381D01*
X53466666Y39157143D01*
X53466666Y39061905D01*
X53419047Y38919048D01*
X52847619Y38347620D01*
X53466666Y38347620D01*
%TO.C,REF4*%
X50752380Y8547620D02*
X50419047Y9023810D01*
X50180952Y8547620D02*
X50180952Y9547620D01*
X50561904Y9547620D01*
X50657142Y9500000D01*
X50704761Y9452381D01*
X50752380Y9357143D01*
X50752380Y9214286D01*
X50704761Y9119048D01*
X50657142Y9071429D01*
X50561904Y9023810D01*
X50180952Y9023810D01*
X51180952Y9071429D02*
X51514285Y9071429D01*
X51657142Y8547620D02*
X51180952Y8547620D01*
X51180952Y9547620D01*
X51657142Y9547620D01*
X52419047Y9071429D02*
X52085714Y9071429D01*
X52085714Y8547620D02*
X52085714Y9547620D01*
X52561904Y9547620D01*
X53371428Y9214286D02*
X53371428Y8547620D01*
X53133333Y9595239D02*
X52895238Y8880953D01*
X53514285Y8880953D01*
%TO.C,REF3*%
X4152380Y8547620D02*
X3819047Y9023810D01*
X3580952Y8547620D02*
X3580952Y9547620D01*
X3961904Y9547620D01*
X4057142Y9500000D01*
X4104761Y9452381D01*
X4152380Y9357143D01*
X4152380Y9214286D01*
X4104761Y9119048D01*
X4057142Y9071429D01*
X3961904Y9023810D01*
X3580952Y9023810D01*
X4580952Y9071429D02*
X4914285Y9071429D01*
X5057142Y8547620D02*
X4580952Y8547620D01*
X4580952Y9547620D01*
X5057142Y9547620D01*
X5819047Y9071429D02*
X5485714Y9071429D01*
X5485714Y8547620D02*
X5485714Y9547620D01*
X5961904Y9547620D01*
X6247619Y9547620D02*
X6866666Y9547620D01*
X6533333Y9166667D01*
X6676190Y9166667D01*
X6771428Y9119048D01*
X6819047Y9071429D01*
X6866666Y8976191D01*
X6866666Y8738096D01*
X6819047Y8642858D01*
X6771428Y8595239D01*
X6676190Y8547620D01*
X6390476Y8547620D01*
X6295238Y8595239D01*
X6247619Y8642858D01*
%TO.C,REF1*%
X4152380Y38347620D02*
X3819047Y38823810D01*
X3580952Y38347620D02*
X3580952Y39347620D01*
X3961904Y39347620D01*
X4057142Y39300000D01*
X4104761Y39252381D01*
X4152380Y39157143D01*
X4152380Y39014286D01*
X4104761Y38919048D01*
X4057142Y38871429D01*
X3961904Y38823810D01*
X3580952Y38823810D01*
X4580952Y38871429D02*
X4914285Y38871429D01*
X5057142Y38347620D02*
X4580952Y38347620D01*
X4580952Y39347620D01*
X5057142Y39347620D01*
X5819047Y38871429D02*
X5485714Y38871429D01*
X5485714Y38347620D02*
X5485714Y39347620D01*
X5961904Y39347620D01*
X6866666Y38347620D02*
X6295238Y38347620D01*
X6580952Y38347620D02*
X6580952Y39347620D01*
X6485714Y39204762D01*
X6390476Y39109524D01*
X6295238Y39061905D01*
%TO.C,J4*%
X39466666Y2347620D02*
X39466666Y1633334D01*
X39419047Y1490477D01*
X39323809Y1395239D01*
X39180952Y1347620D01*
X39085714Y1347620D01*
X40371428Y2014286D02*
X40371428Y1347620D01*
X40133333Y2395239D02*
X39895238Y1680953D01*
X40514285Y1680953D01*
%TO.C,J3*%
X42266666Y34347620D02*
X42266666Y33633334D01*
X42219047Y33490477D01*
X42123809Y33395239D01*
X41980952Y33347620D01*
X41885714Y33347620D01*
X42647619Y34347620D02*
X43266666Y34347620D01*
X42933333Y33966667D01*
X43076190Y33966667D01*
X43171428Y33919048D01*
X43219047Y33871429D01*
X43266666Y33776191D01*
X43266666Y33538096D01*
X43219047Y33442858D01*
X43171428Y33395239D01*
X43076190Y33347620D01*
X42790476Y33347620D01*
X42695238Y33395239D01*
X42647619Y33442858D01*
%TO.C,J2*%
X27452380Y8866667D02*
X28166666Y8866667D01*
X28309523Y8819048D01*
X28404761Y8723810D01*
X28452380Y8580953D01*
X28452380Y8485715D01*
X27547619Y9295239D02*
X27500000Y9342858D01*
X27452380Y9438096D01*
X27452380Y9676191D01*
X27500000Y9771429D01*
X27547619Y9819048D01*
X27642857Y9866667D01*
X27738095Y9866667D01*
X27880952Y9819048D01*
X28452380Y9247620D01*
X28452380Y9866667D01*
%TO.C,J1*%
X19866666Y34147620D02*
X19866666Y33433334D01*
X19819047Y33290477D01*
X19723809Y33195239D01*
X19580952Y33147620D01*
X19485714Y33147620D01*
X20866666Y33147620D02*
X20295238Y33147620D01*
X20580952Y33147620D02*
X20580952Y34147620D01*
X20485714Y34004762D01*
X20390476Y33909524D01*
X20295238Y33861905D01*
%TO.C,C4*%
X30433333Y10242858D02*
X30385714Y10195239D01*
X30242857Y10147620D01*
X30147619Y10147620D01*
X30004761Y10195239D01*
X29909523Y10290477D01*
X29861904Y10385715D01*
X29814285Y10576191D01*
X29814285Y10719048D01*
X29861904Y10909524D01*
X29909523Y11004762D01*
X30004761Y11100000D01*
X30147619Y11147620D01*
X30242857Y11147620D01*
X30385714Y11100000D01*
X30433333Y11052381D01*
X31290476Y10814286D02*
X31290476Y10147620D01*
X31052380Y11195239D02*
X30814285Y10480953D01*
X31433333Y10480953D01*
%TO.C,C3*%
X26433333Y3842858D02*
X26385714Y3795239D01*
X26242857Y3747620D01*
X26147619Y3747620D01*
X26004761Y3795239D01*
X25909523Y3890477D01*
X25861904Y3985715D01*
X25814285Y4176191D01*
X25814285Y4319048D01*
X25861904Y4509524D01*
X25909523Y4604762D01*
X26004761Y4700000D01*
X26147619Y4747620D01*
X26242857Y4747620D01*
X26385714Y4700000D01*
X26433333Y4652381D01*
X26766666Y4747620D02*
X27385714Y4747620D01*
X27052380Y4366667D01*
X27195238Y4366667D01*
X27290476Y4319048D01*
X27338095Y4271429D01*
X27385714Y4176191D01*
X27385714Y3938096D01*
X27338095Y3842858D01*
X27290476Y3795239D01*
X27195238Y3747620D01*
X26909523Y3747620D01*
X26814285Y3795239D01*
X26766666Y3842858D01*
%TO.C,Q1*%
X7404761Y25152381D02*
X7309523Y25200000D01*
X7214285Y25295239D01*
X7071428Y25438096D01*
X6976190Y25485715D01*
X6880952Y25485715D01*
X6928571Y25247620D02*
X6833333Y25295239D01*
X6738095Y25390477D01*
X6690476Y25580953D01*
X6690476Y25914286D01*
X6738095Y26104762D01*
X6833333Y26200000D01*
X6928571Y26247620D01*
X7119047Y26247620D01*
X7214285Y26200000D01*
X7309523Y26104762D01*
X7357142Y25914286D01*
X7357142Y25580953D01*
X7309523Y25390477D01*
X7214285Y25295239D01*
X7119047Y25247620D01*
X6928571Y25247620D01*
X8309523Y25247620D02*
X7738095Y25247620D01*
X8023809Y25247620D02*
X8023809Y26247620D01*
X7928571Y26104762D01*
X7833333Y26009524D01*
X7738095Y25961905D01*
%TO.C,U1*%
X42838095Y16447620D02*
X42838095Y15638096D01*
X42885714Y15542858D01*
X42933333Y15495239D01*
X43028571Y15447620D01*
X43219047Y15447620D01*
X43314285Y15495239D01*
X43361904Y15542858D01*
X43409523Y15638096D01*
X43409523Y16447620D01*
X44409523Y15447620D02*
X43838095Y15447620D01*
X44123809Y15447620D02*
X44123809Y16447620D01*
X44028571Y16304762D01*
X43933333Y16209524D01*
X43838095Y16161905D01*
%TO.C,C1*%
X36721939Y29042858D02*
X36674320Y28995239D01*
X36531463Y28947620D01*
X36436225Y28947620D01*
X36293367Y28995239D01*
X36198129Y29090477D01*
X36150510Y29185715D01*
X36102891Y29376191D01*
X36102891Y29519048D01*
X36150510Y29709524D01*
X36198129Y29804762D01*
X36293367Y29900000D01*
X36436225Y29947620D01*
X36531463Y29947620D01*
X36674320Y29900000D01*
X36721939Y29852381D01*
X37674320Y28947620D02*
X37102891Y28947620D01*
X37388606Y28947620D02*
X37388606Y29947620D01*
X37293367Y29804762D01*
X37198129Y29709524D01*
X37102891Y29661905D01*
%TO.C,C2*%
X38833333Y18842858D02*
X38785714Y18795239D01*
X38642857Y18747620D01*
X38547619Y18747620D01*
X38404761Y18795239D01*
X38309523Y18890477D01*
X38261904Y18985715D01*
X38214285Y19176191D01*
X38214285Y19319048D01*
X38261904Y19509524D01*
X38309523Y19604762D01*
X38404761Y19700000D01*
X38547619Y19747620D01*
X38642857Y19747620D01*
X38785714Y19700000D01*
X38833333Y19652381D01*
X39214285Y19652381D02*
X39261904Y19700000D01*
X39357142Y19747620D01*
X39595238Y19747620D01*
X39690476Y19700000D01*
X39738095Y19652381D01*
X39785714Y19557143D01*
X39785714Y19461905D01*
X39738095Y19319048D01*
X39166666Y18747620D01*
X39785714Y18747620D01*
%TO.C,F1*%
X8666666Y17871429D02*
X8333333Y17871429D01*
X8333333Y17347620D02*
X8333333Y18347620D01*
X8809523Y18347620D01*
X9714285Y17347620D02*
X9142857Y17347620D01*
X9428571Y17347620D02*
X9428571Y18347620D01*
X9333333Y18204762D01*
X9238095Y18109524D01*
X9142857Y18061905D01*
D11*
%TO.C,C4*%
X34146267Y11110000D02*
X33853733Y11110000D01*
X34146267Y10090000D02*
X33853733Y10090000D01*
%TO.C,C3*%
X36020000Y5200000D02*
G75*
G03*
X36020000Y5200000I-3870000J0D01*
G01*
X31309000Y1462000D02*
X31309000Y4160000D01*
X31029000Y1535000D02*
X31029000Y4160000D01*
X30549000Y6240000D02*
X30549000Y8684000D01*
X30509000Y6240000D02*
X30509000Y8666000D01*
X30509000Y1734000D02*
X30509000Y4160000D01*
X29589000Y2337000D02*
X29589000Y8063000D01*
X31990000Y1373000D02*
X31990000Y9027000D01*
X28629000Y3631000D02*
X28629000Y6769000D01*
X31269000Y1471000D02*
X31269000Y4160000D01*
X30589000Y6240000D02*
X30589000Y8702000D01*
X31470000Y6240000D02*
X31470000Y8970000D01*
X30349000Y6240000D02*
X30349000Y8586000D01*
X31590000Y6240000D02*
X31590000Y8990000D01*
X30829000Y1602000D02*
X30829000Y4160000D01*
X30269000Y1857000D02*
X30269000Y4160000D01*
X30949000Y1560000D02*
X30949000Y4160000D01*
X29549000Y2373000D02*
X29549000Y8027000D01*
X30309000Y1835000D02*
X30309000Y4160000D01*
X28389000Y4323000D02*
X28389000Y6077000D01*
X31229000Y6240000D02*
X31229000Y8920000D01*
X30189000Y6240000D02*
X30189000Y8497000D01*
X31309000Y6240000D02*
X31309000Y8938000D01*
X31470000Y1430000D02*
X31470000Y4160000D01*
X31670000Y6240000D02*
X31670000Y9001000D01*
X30949000Y6240000D02*
X30949000Y8840000D01*
X28749000Y3391000D02*
X28749000Y7009000D01*
X35917211Y2650000D02*
X35917211Y3400000D01*
X31510000Y1423000D02*
X31510000Y4160000D01*
X29349000Y2568000D02*
X29349000Y7832000D01*
X29869000Y2112000D02*
X29869000Y4160000D01*
X30669000Y6240000D02*
X30669000Y8736000D01*
X30749000Y6240000D02*
X30749000Y8768000D01*
X31910000Y6240000D02*
X31910000Y9023000D01*
X31189000Y6240000D02*
X31189000Y8910000D01*
X31590000Y1410000D02*
X31590000Y4160000D01*
X30629000Y1680000D02*
X30629000Y4160000D01*
X28789000Y3319000D02*
X28789000Y7081000D01*
X31510000Y6240000D02*
X31510000Y8977000D01*
X30349000Y1814000D02*
X30349000Y4160000D01*
X29989000Y6240000D02*
X29989000Y8372000D01*
X28989000Y3005000D02*
X28989000Y7395000D01*
X30149000Y1926000D02*
X30149000Y4160000D01*
X30909000Y6240000D02*
X30909000Y8826000D01*
X30389000Y1793000D02*
X30389000Y4160000D01*
X31069000Y6240000D02*
X31069000Y8877000D01*
X30789000Y1616000D02*
X30789000Y4160000D01*
X30469000Y1753000D02*
X30469000Y4160000D01*
X31870000Y6240000D02*
X31870000Y9020000D01*
X29469000Y2448000D02*
X29469000Y7952000D01*
X29309000Y2611000D02*
X29309000Y7789000D01*
X31790000Y6240000D02*
X31790000Y9014000D01*
X29949000Y6240000D02*
X29949000Y8344000D01*
X31349000Y6240000D02*
X31349000Y8947000D01*
X31269000Y6240000D02*
X31269000Y8929000D01*
X31429000Y1437000D02*
X31429000Y4160000D01*
X28829000Y3251000D02*
X28829000Y7149000D01*
X31109000Y6240000D02*
X31109000Y8888000D01*
X31670000Y1399000D02*
X31670000Y4160000D01*
X30309000Y6240000D02*
X30309000Y8565000D01*
X28669000Y3546000D02*
X28669000Y6854000D01*
X28949000Y3063000D02*
X28949000Y7337000D01*
X30389000Y6240000D02*
X30389000Y8607000D01*
X30709000Y6240000D02*
X30709000Y8753000D01*
X29149000Y2795000D02*
X29149000Y7605000D01*
X30149000Y6240000D02*
X30149000Y8474000D01*
X29909000Y2084000D02*
X29909000Y4160000D01*
X31189000Y1490000D02*
X31189000Y4160000D01*
X29269000Y2654000D02*
X29269000Y7746000D01*
X30429000Y6240000D02*
X30429000Y8627000D01*
X31950000Y1375000D02*
X31950000Y9025000D01*
X31830000Y6240000D02*
X31830000Y9017000D01*
X31710000Y1395000D02*
X31710000Y4160000D01*
X30029000Y6240000D02*
X30029000Y8398000D01*
X29669000Y2269000D02*
X29669000Y8131000D01*
X28709000Y3467000D02*
X28709000Y6933000D01*
X30909000Y1574000D02*
X30909000Y4160000D01*
X30829000Y6240000D02*
X30829000Y8798000D01*
X30229000Y1879000D02*
X30229000Y4160000D01*
X28469000Y4042000D02*
X28469000Y6358000D01*
X30029000Y2002000D02*
X30029000Y4160000D01*
X29989000Y2028000D02*
X29989000Y4160000D01*
X29029000Y2950000D02*
X29029000Y7450000D01*
X29109000Y2845000D02*
X29109000Y7555000D01*
X29909000Y6240000D02*
X29909000Y8316000D01*
X31229000Y1480000D02*
X31229000Y4160000D01*
X29709000Y2236000D02*
X29709000Y8164000D01*
X31069000Y1523000D02*
X31069000Y4160000D01*
X29789000Y2172000D02*
X29789000Y8228000D01*
X29869000Y6240000D02*
X29869000Y8288000D01*
X31550000Y1416000D02*
X31550000Y4160000D01*
X30429000Y1773000D02*
X30429000Y4160000D01*
X30789000Y6240000D02*
X30789000Y8784000D01*
X30069000Y6240000D02*
X30069000Y8424000D01*
X32030000Y1371000D02*
X32030000Y9029000D01*
X30989000Y1547000D02*
X30989000Y4160000D01*
X30749000Y1632000D02*
X30749000Y4160000D01*
X28429000Y4172000D02*
X28429000Y6228000D01*
X30549000Y1716000D02*
X30549000Y4160000D01*
X30069000Y1976000D02*
X30069000Y4160000D01*
X30109000Y6240000D02*
X30109000Y8449000D01*
X30189000Y1903000D02*
X30189000Y4160000D01*
X28589000Y3722000D02*
X28589000Y6678000D01*
X30109000Y1951000D02*
X30109000Y4160000D01*
X31109000Y1512000D02*
X31109000Y4160000D01*
X30869000Y1587000D02*
X30869000Y4160000D01*
X31029000Y6240000D02*
X31029000Y8865000D01*
X31830000Y1383000D02*
X31830000Y4160000D01*
X31550000Y6240000D02*
X31550000Y8984000D01*
X31790000Y1386000D02*
X31790000Y4160000D01*
X30589000Y1698000D02*
X30589000Y4160000D01*
X30269000Y6240000D02*
X30269000Y8543000D01*
X31630000Y6240000D02*
X31630000Y8995000D01*
X29949000Y2056000D02*
X29949000Y4160000D01*
X31710000Y6240000D02*
X31710000Y9005000D01*
X28349000Y4507000D02*
X28349000Y5893000D01*
X29509000Y2410000D02*
X29509000Y7990000D01*
X28869000Y3186000D02*
X28869000Y7214000D01*
X31429000Y6240000D02*
X31429000Y8963000D01*
X30989000Y6240000D02*
X30989000Y8853000D01*
X32150000Y1370000D02*
X32150000Y9030000D01*
X31389000Y1445000D02*
X31389000Y4160000D01*
X31349000Y1453000D02*
X31349000Y4160000D01*
X28509000Y3925000D02*
X28509000Y6475000D01*
X31910000Y1377000D02*
X31910000Y4160000D01*
X29389000Y2527000D02*
X29389000Y7873000D01*
X29829000Y2142000D02*
X29829000Y8258000D01*
X29229000Y2700000D02*
X29229000Y7700000D01*
X30669000Y1664000D02*
X30669000Y4160000D01*
X36292211Y3025000D02*
X35542211Y3025000D01*
X31870000Y1380000D02*
X31870000Y4160000D01*
X31750000Y1390000D02*
X31750000Y4160000D01*
X29189000Y2746000D02*
X29189000Y7654000D01*
X30629000Y6240000D02*
X30629000Y8720000D01*
X28309000Y4759000D02*
X28309000Y5641000D01*
X32110000Y1370000D02*
X32110000Y9030000D01*
X30229000Y6240000D02*
X30229000Y8521000D01*
X30709000Y1647000D02*
X30709000Y4160000D01*
X29629000Y2302000D02*
X29629000Y8098000D01*
X31149000Y6240000D02*
X31149000Y8899000D01*
X29429000Y2487000D02*
X29429000Y7913000D01*
X31630000Y1405000D02*
X31630000Y4160000D01*
X28549000Y3819000D02*
X28549000Y6581000D01*
X29069000Y2896000D02*
X29069000Y7504000D01*
X30469000Y6240000D02*
X30469000Y8647000D01*
X32070000Y1370000D02*
X32070000Y9030000D01*
X31149000Y1501000D02*
X31149000Y4160000D01*
X29749000Y2204000D02*
X29749000Y8196000D01*
X31750000Y6240000D02*
X31750000Y9010000D01*
X31389000Y6240000D02*
X31389000Y8955000D01*
X30869000Y6240000D02*
X30869000Y8813000D01*
X28909000Y3123000D02*
X28909000Y7277000D01*
%TO.C,Q1*%
X15851000Y28270000D02*
X15851000Y26760000D01*
X8880000Y28270000D02*
X8880000Y23629000D01*
X19120000Y28270000D02*
X19120000Y23629000D01*
X8880000Y28270000D02*
X19120000Y28270000D01*
X8880000Y26760000D02*
X19120000Y26760000D01*
X8880000Y23629000D02*
X19120000Y23629000D01*
X12150000Y28270000D02*
X12150000Y26760000D01*
%TO.C,U1*%
X38850000Y12730000D02*
X38850000Y14240000D01*
X42120000Y12730000D02*
X42120000Y17371000D01*
X42120000Y17371000D02*
X31880000Y17371000D01*
X35149000Y12730000D02*
X35149000Y14240000D01*
X42120000Y14240000D02*
X31880000Y14240000D01*
X42120000Y12730000D02*
X31880000Y12730000D01*
X31880000Y12730000D02*
X31880000Y17371000D01*
%TO.C,C1*%
X40758606Y24400000D02*
G75*
G03*
X40758606Y24400000I-3870000J0D01*
G01*
X38969606Y27624000D02*
X38969606Y25440000D01*
X40449606Y25878000D02*
X40449606Y22922000D01*
X37689606Y23360000D02*
X37689606Y20653000D01*
X38289606Y23360000D02*
X38289606Y20832000D01*
X38049606Y28053000D02*
X38049606Y25440000D01*
X37408606Y23360000D02*
X37408606Y20605000D01*
X40249606Y26281000D02*
X40249606Y22519000D01*
X37448606Y28190000D02*
X37448606Y25440000D01*
X40609606Y25428000D02*
X40609606Y23372000D01*
X38329606Y27953000D02*
X38329606Y25440000D01*
X37288606Y28210000D02*
X37288606Y25440000D01*
X38729606Y27765000D02*
X38729606Y25440000D01*
X37528606Y28177000D02*
X37528606Y25440000D01*
X38089606Y28040000D02*
X38089606Y25440000D01*
X40569606Y25558000D02*
X40569606Y23242000D01*
X39169606Y23360000D02*
X39169606Y21312000D01*
X40089606Y26537000D02*
X40089606Y22263000D01*
X37168606Y28220000D02*
X37168606Y25440000D01*
X38769606Y23360000D02*
X38769606Y21057000D01*
X38329606Y23360000D02*
X38329606Y20847000D01*
X40009606Y26650000D02*
X40009606Y22150000D01*
X39289606Y27396000D02*
X39289606Y21404000D01*
X38929606Y23360000D02*
X38929606Y21151000D01*
X37128606Y28223000D02*
X37128606Y25440000D01*
X37008606Y28229000D02*
X37008606Y20571000D01*
X40209606Y26349000D02*
X40209606Y22451000D01*
X39849606Y26854000D02*
X39849606Y21946000D01*
X32746395Y26575000D02*
X33496395Y26575000D01*
X38689606Y23360000D02*
X38689606Y21014000D01*
X37328606Y23360000D02*
X37328606Y20595000D01*
X40289606Y26209000D02*
X40289606Y22591000D01*
X37248606Y23360000D02*
X37248606Y20586000D01*
X39169606Y27488000D02*
X39169606Y25440000D01*
X37488606Y23360000D02*
X37488606Y20616000D01*
X39129606Y27516000D02*
X39129606Y25440000D01*
X37368606Y28201000D02*
X37368606Y25440000D01*
X36888606Y28230000D02*
X36888606Y20570000D01*
X37929606Y23360000D02*
X37929606Y20712000D01*
X38409606Y23360000D02*
X38409606Y20880000D01*
X37969606Y23360000D02*
X37969606Y20723000D01*
X40049606Y26595000D02*
X40049606Y22205000D01*
X38009606Y23360000D02*
X38009606Y20735000D01*
X38929606Y27649000D02*
X38929606Y25440000D01*
X39569606Y27152000D02*
X39569606Y21648000D01*
X37528606Y23360000D02*
X37528606Y20623000D01*
X38849606Y23360000D02*
X38849606Y21103000D01*
X40649606Y25277000D02*
X40649606Y23523000D01*
X40329606Y26133000D02*
X40329606Y22667000D01*
X37048606Y28227000D02*
X37048606Y20573000D01*
X38809606Y27721000D02*
X38809606Y25440000D01*
X39009606Y27598000D02*
X39009606Y25440000D01*
X39929606Y26755000D02*
X39929606Y22045000D01*
X40169606Y26414000D02*
X40169606Y22386000D01*
X38569606Y27847000D02*
X38569606Y25440000D01*
X38009606Y28065000D02*
X38009606Y25440000D01*
X38209606Y27998000D02*
X38209606Y25440000D01*
X39489606Y27227000D02*
X39489606Y21573000D01*
X37088606Y28225000D02*
X37088606Y20575000D01*
X37368606Y23360000D02*
X37368606Y20599000D01*
X37769606Y28129000D02*
X37769606Y25440000D01*
X37729606Y23360000D02*
X37729606Y20662000D01*
X38969606Y23360000D02*
X38969606Y21176000D01*
X39009606Y23360000D02*
X39009606Y21202000D01*
X37889606Y28099000D02*
X37889606Y25440000D01*
X38169606Y23360000D02*
X38169606Y20787000D01*
X38449606Y23360000D02*
X38449606Y20898000D01*
X37248606Y28214000D02*
X37248606Y25440000D01*
X37609606Y23360000D02*
X37609606Y20637000D01*
X38049606Y23360000D02*
X38049606Y20747000D01*
X37769606Y23360000D02*
X37769606Y20671000D01*
X39729606Y26989000D02*
X39729606Y21811000D01*
X39329606Y27364000D02*
X39329606Y21436000D01*
X39689606Y27032000D02*
X39689606Y21768000D01*
X37609606Y28163000D02*
X37609606Y25440000D01*
X38489606Y23360000D02*
X38489606Y20916000D01*
X38649606Y23360000D02*
X38649606Y20993000D01*
X37168606Y23360000D02*
X37168606Y20580000D01*
X37689606Y28147000D02*
X37689606Y25440000D01*
X38889606Y27674000D02*
X38889606Y25440000D01*
X39529606Y27190000D02*
X39529606Y21610000D01*
X38129606Y23360000D02*
X38129606Y20774000D01*
X37488606Y28184000D02*
X37488606Y25440000D01*
X38529606Y23360000D02*
X38529606Y20934000D01*
X38409606Y27920000D02*
X38409606Y25440000D01*
X38369606Y23360000D02*
X38369606Y20864000D01*
X39089606Y27544000D02*
X39089606Y25440000D01*
X38169606Y28013000D02*
X38169606Y25440000D01*
X38369606Y27936000D02*
X38369606Y25440000D01*
X40369606Y26054000D02*
X40369606Y22746000D01*
X38249606Y27984000D02*
X38249606Y25440000D01*
X39969606Y26704000D02*
X39969606Y22096000D01*
X40489606Y25781000D02*
X40489606Y23019000D01*
X33121395Y26950000D02*
X33121395Y26200000D01*
X37929606Y28088000D02*
X37929606Y25440000D01*
X38089606Y23360000D02*
X38089606Y20760000D01*
X37809606Y28120000D02*
X37809606Y25440000D01*
X39369606Y27331000D02*
X39369606Y21469000D01*
X38249606Y23360000D02*
X38249606Y20816000D01*
X39409606Y27298000D02*
X39409606Y21502000D01*
X39129606Y23360000D02*
X39129606Y21284000D01*
X37288606Y23360000D02*
X37288606Y20590000D01*
X39609606Y27113000D02*
X39609606Y21687000D01*
X40729606Y24841000D02*
X40729606Y23959000D01*
X37208606Y28217000D02*
X37208606Y25440000D01*
X38609606Y23360000D02*
X38609606Y20973000D01*
X39049606Y23360000D02*
X39049606Y21228000D01*
X38609606Y27827000D02*
X38609606Y25440000D01*
X37969606Y28077000D02*
X37969606Y25440000D01*
X37809606Y23360000D02*
X37809606Y20680000D01*
X39649606Y27073000D02*
X39649606Y21727000D01*
X40129606Y26477000D02*
X40129606Y22323000D01*
X38889606Y23360000D02*
X38889606Y21126000D01*
X39449606Y27263000D02*
X39449606Y21537000D01*
X37448606Y23360000D02*
X37448606Y20610000D01*
X37849606Y23360000D02*
X37849606Y20690000D01*
X39889606Y26805000D02*
X39889606Y21995000D01*
X37649606Y23360000D02*
X37649606Y20645000D01*
X37568606Y23360000D02*
X37568606Y20630000D01*
X38849606Y27697000D02*
X38849606Y25440000D01*
X38529606Y27866000D02*
X38529606Y25440000D01*
X38769606Y27743000D02*
X38769606Y25440000D01*
X38209606Y23360000D02*
X38209606Y20802000D01*
X39049606Y27572000D02*
X39049606Y25440000D01*
X39769606Y26946000D02*
X39769606Y21854000D01*
X37408606Y28195000D02*
X37408606Y25440000D01*
X39809606Y26900000D02*
X39809606Y21900000D01*
X37649606Y28155000D02*
X37649606Y25440000D01*
X38729606Y23360000D02*
X38729606Y21035000D01*
X38449606Y27902000D02*
X38449606Y25440000D01*
X37889606Y23360000D02*
X37889606Y20701000D01*
X39209606Y27458000D02*
X39209606Y21342000D01*
X40409606Y25969000D02*
X40409606Y22831000D01*
X38809606Y23360000D02*
X38809606Y21079000D01*
X37729606Y28138000D02*
X37729606Y25440000D01*
X38689606Y27786000D02*
X38689606Y25440000D01*
X36968606Y28230000D02*
X36968606Y20570000D01*
X37849606Y28110000D02*
X37849606Y25440000D01*
X37328606Y28205000D02*
X37328606Y25440000D01*
X37128606Y23360000D02*
X37128606Y20577000D01*
X37568606Y28170000D02*
X37568606Y25440000D01*
X40689606Y25093000D02*
X40689606Y23707000D01*
X37208606Y23360000D02*
X37208606Y20583000D01*
X38129606Y28026000D02*
X38129606Y25440000D01*
X39089606Y23360000D02*
X39089606Y21256000D01*
X38489606Y27884000D02*
X38489606Y25440000D01*
X36928606Y28230000D02*
X36928606Y20570000D01*
X38289606Y27968000D02*
X38289606Y25440000D01*
X38649606Y27807000D02*
X38649606Y25440000D01*
X40529606Y25675000D02*
X40529606Y23125000D01*
X39249606Y27428000D02*
X39249606Y21372000D01*
X38569606Y23360000D02*
X38569606Y20953000D01*
%TO.C,C2*%
X36053733Y18690000D02*
X36346267Y18690000D01*
X36053733Y19710000D02*
X36346267Y19710000D01*
%TO.C,F1*%
X11330000Y18803752D02*
X11330000Y14396248D01*
X16670000Y18803752D02*
X16670000Y14396248D01*
%TD*%
M02*
