%TF.GenerationSoftware,KiCad,Pcbnew,(6.0.10)*%
%TF.CreationDate,2023-01-14T17:08:10-08:00*%
%TF.ProjectId,power,706f7765-722e-46b6-9963-61645f706362,rev?*%
%TF.SameCoordinates,PX62fdcc0PY7270e00*%
%TF.FileFunction,Soldermask,Top*%
%TF.FilePolarity,Negative*%
%FSLAX46Y46*%
G04 Gerber Fmt 4.6, Leading zero omitted, Abs format (unit mm)*
G04 Created by KiCad (PCBNEW (6.0.10)) date 2023-01-14 17:08:10*
%MOMM*%
%LPD*%
G01*
G04 APERTURE LIST*
G04 Aperture macros list*
%AMRoundRect*
0 Rectangle with rounded corners*
0 $1 Rounding radius*
0 $2 $3 $4 $5 $6 $7 $8 $9 X,Y pos of 4 corners*
0 Add a 4 corners polygon primitive as box body*
4,1,4,$2,$3,$4,$5,$6,$7,$8,$9,$2,$3,0*
0 Add four circle primitives for the rounded corners*
1,1,$1+$1,$2,$3*
1,1,$1+$1,$4,$5*
1,1,$1+$1,$6,$7*
1,1,$1+$1,$8,$9*
0 Add four rect primitives between the rounded corners*
20,1,$1+$1,$2,$3,$4,$5,0*
20,1,$1+$1,$4,$5,$6,$7,0*
20,1,$1+$1,$6,$7,$8,$9,0*
20,1,$1+$1,$8,$9,$2,$3,0*%
G04 Aperture macros list end*
%ADD10C,3.301600*%
%ADD11C,2.651600*%
%ADD12RoundRect,0.300799X-1.025001X1.025001X-1.025001X-1.025001X1.025001X-1.025001X1.025001X1.025001X0*%
%ADD13RoundRect,0.300799X-1.025001X-1.025001X1.025001X-1.025001X1.025001X1.025001X-1.025001X1.025001X0*%
%ADD14RoundRect,0.300799X1.025001X1.025001X-1.025001X1.025001X-1.025001X-1.025001X1.025001X-1.025001X0*%
%ADD15RoundRect,0.288300X0.300000X0.237500X-0.300000X0.237500X-0.300000X-0.237500X0.300000X-0.237500X0*%
%ADD16C,1.701600*%
%ADD17RoundRect,0.050800X0.800000X0.800000X-0.800000X0.800000X-0.800000X-0.800000X0.800000X-0.800000X0*%
%ADD18O,2.006600X2.101600*%
%ADD19RoundRect,0.050800X-0.952500X-1.000000X0.952500X-1.000000X0.952500X1.000000X-0.952500X1.000000X0*%
%ADD20RoundRect,0.050800X0.952500X1.000000X-0.952500X1.000000X-0.952500X-1.000000X0.952500X-1.000000X0*%
%ADD21RoundRect,0.050800X-0.800000X-0.800000X0.800000X-0.800000X0.800000X0.800000X-0.800000X0.800000X0*%
%ADD22RoundRect,0.288300X-0.300000X-0.237500X0.300000X-0.237500X0.300000X0.237500X-0.300000X0.237500X0*%
%ADD23RoundRect,0.300801X-2.474999X0.799999X-2.474999X-0.799999X2.474999X-0.799999X2.474999X0.799999X0*%
G04 APERTURE END LIST*
D10*
%TO.C,REF2*%
X51800000Y34600000D03*
%TD*%
%TO.C,REF4*%
X51800000Y4800000D03*
%TD*%
%TO.C,REF3*%
X5200000Y4800000D03*
%TD*%
%TO.C,REF1*%
X5200000Y34600000D03*
%TD*%
D11*
%TO.C,J4*%
X39800000Y4800000D03*
D12*
X39800000Y9600000D03*
%TD*%
D11*
%TO.C,J3*%
X38800000Y33600000D03*
D13*
X34000000Y33600000D03*
%TD*%
D11*
%TO.C,J2*%
X25000000Y9000000D03*
X20200000Y9000000D03*
D13*
X15400000Y9000000D03*
%TD*%
D11*
%TO.C,J1*%
X12200000Y33600000D03*
D14*
X17000000Y33600000D03*
%TD*%
D15*
%TO.C,C4*%
X33137500Y10600000D03*
X34862500Y10600000D03*
%TD*%
D16*
%TO.C,C3*%
X30900000Y5200000D03*
D17*
X33400000Y5200000D03*
%TD*%
D18*
%TO.C,Q1*%
X16540000Y25000000D03*
X14000000Y25000000D03*
D19*
X11460000Y25000000D03*
%TD*%
D18*
%TO.C,U1*%
X34460000Y16000000D03*
X37000000Y16000000D03*
D20*
X39540000Y16000000D03*
%TD*%
D16*
%TO.C,C1*%
X38138606Y24400000D03*
D21*
X35638606Y24400000D03*
%TD*%
D22*
%TO.C,C2*%
X37062500Y19200000D03*
X35337500Y19200000D03*
%TD*%
D23*
%TO.C,F1*%
X14000000Y13125000D03*
X14000000Y20075000D03*
%TD*%
G36*
X16473033Y12025201D02*
G01*
X16473033Y12023201D01*
X16471584Y12022221D01*
X16471577Y12022220D01*
X16471294Y12022200D01*
X11528687Y12022200D01*
X11526955Y12023200D01*
X11526955Y12025200D01*
X11528687Y12026200D01*
X16471301Y12026201D01*
X16473033Y12025201D01*
G37*
G36*
X16473045Y14226800D02*
G01*
X16473045Y14224800D01*
X16471313Y14223800D01*
X11528699Y14223799D01*
X11526967Y14224799D01*
X11526967Y14226799D01*
X11528416Y14227779D01*
X11528423Y14227780D01*
X11528706Y14227800D01*
X16471313Y14227800D01*
X16473045Y14226800D01*
G37*
G36*
X16473033Y18975201D02*
G01*
X16473033Y18973201D01*
X16471584Y18972221D01*
X16471577Y18972220D01*
X16471294Y18972200D01*
X11528687Y18972200D01*
X11526955Y18973200D01*
X11526955Y18975200D01*
X11528687Y18976200D01*
X16471301Y18976201D01*
X16473033Y18975201D01*
G37*
G36*
X16473045Y21176800D02*
G01*
X16473045Y21174800D01*
X16471313Y21173800D01*
X11528699Y21173799D01*
X11526967Y21174799D01*
X11526967Y21176799D01*
X11528416Y21177779D01*
X11528423Y21177780D01*
X11528706Y21177800D01*
X16471313Y21177800D01*
X16473045Y21176800D01*
G37*
M02*
