%TF.GenerationSoftware,KiCad,Pcbnew,(6.0.10)*%
%TF.CreationDate,2023-01-14T17:08:10-08:00*%
%TF.ProjectId,power,706f7765-722e-46b6-9963-61645f706362,rev?*%
%TF.SameCoordinates,PX62fdcc0PY7270e00*%
%TF.FileFunction,Copper,L1,Top*%
%TF.FilePolarity,Positive*%
%FSLAX46Y46*%
G04 Gerber Fmt 4.6, Leading zero omitted, Abs format (unit mm)*
G04 Created by KiCad (PCBNEW (6.0.10)) date 2023-01-14 17:08:10*
%MOMM*%
%LPD*%
G01*
G04 APERTURE LIST*
G04 Aperture macros list*
%AMRoundRect*
0 Rectangle with rounded corners*
0 $1 Rounding radius*
0 $2 $3 $4 $5 $6 $7 $8 $9 X,Y pos of 4 corners*
0 Add a 4 corners polygon primitive as box body*
4,1,4,$2,$3,$4,$5,$6,$7,$8,$9,$2,$3,0*
0 Add four circle primitives for the rounded corners*
1,1,$1+$1,$2,$3*
1,1,$1+$1,$4,$5*
1,1,$1+$1,$6,$7*
1,1,$1+$1,$8,$9*
0 Add four rect primitives between the rounded corners*
20,1,$1+$1,$2,$3,$4,$5,0*
20,1,$1+$1,$4,$5,$6,$7,0*
20,1,$1+$1,$6,$7,$8,$9,0*
20,1,$1+$1,$8,$9,$2,$3,0*%
G04 Aperture macros list end*
%TA.AperFunction,ComponentPad*%
%ADD10C,2.550000*%
%TD*%
%TA.AperFunction,ComponentPad*%
%ADD11RoundRect,0.249999X-1.025001X1.025001X-1.025001X-1.025001X1.025001X-1.025001X1.025001X1.025001X0*%
%TD*%
%TA.AperFunction,ComponentPad*%
%ADD12RoundRect,0.249999X-1.025001X-1.025001X1.025001X-1.025001X1.025001X1.025001X-1.025001X1.025001X0*%
%TD*%
%TA.AperFunction,ComponentPad*%
%ADD13RoundRect,0.249999X1.025001X1.025001X-1.025001X1.025001X-1.025001X-1.025001X1.025001X-1.025001X0*%
%TD*%
%TA.AperFunction,SMDPad,CuDef*%
%ADD14RoundRect,0.237500X0.300000X0.237500X-0.300000X0.237500X-0.300000X-0.237500X0.300000X-0.237500X0*%
%TD*%
%TA.AperFunction,ComponentPad*%
%ADD15C,1.600000*%
%TD*%
%TA.AperFunction,ComponentPad*%
%ADD16R,1.600000X1.600000*%
%TD*%
%TA.AperFunction,ComponentPad*%
%ADD17O,1.905000X2.000000*%
%TD*%
%TA.AperFunction,ComponentPad*%
%ADD18R,1.905000X2.000000*%
%TD*%
%TA.AperFunction,SMDPad,CuDef*%
%ADD19RoundRect,0.237500X-0.300000X-0.237500X0.300000X-0.237500X0.300000X0.237500X-0.300000X0.237500X0*%
%TD*%
%TA.AperFunction,SMDPad,CuDef*%
%ADD20RoundRect,0.250001X-2.474999X0.799999X-2.474999X-0.799999X2.474999X-0.799999X2.474999X0.799999X0*%
%TD*%
%TA.AperFunction,ViaPad*%
%ADD21C,1.905000*%
%TD*%
%TA.AperFunction,Conductor*%
%ADD22C,1.270000*%
%TD*%
G04 APERTURE END LIST*
D10*
%TO.P,J4,2,Pin_2*%
%TO.N,GND*%
X39800000Y4800000D03*
D11*
%TO.P,J4,1,Pin_1*%
%TO.N,/V5.0*%
X39800000Y9600000D03*
%TD*%
D10*
%TO.P,J3,2,Pin_2*%
%TO.N,GND*%
X38800000Y33600000D03*
D12*
%TO.P,J3,1,Pin_1*%
%TO.N,/V13.7_SW*%
X34000000Y33600000D03*
%TD*%
D10*
%TO.P,J2,3,Pin_3*%
%TO.N,GND*%
X25000000Y9000000D03*
%TO.P,J2,2,Pin_2*%
%TO.N,/V13.7_SW*%
X20200000Y9000000D03*
D12*
%TO.P,J2,1,Pin_1*%
%TO.N,/V13.7_PRO*%
X15400000Y9000000D03*
%TD*%
D10*
%TO.P,J1,2,Pin_2*%
%TO.N,GND*%
X12200000Y33600000D03*
D13*
%TO.P,J1,1,Pin_1*%
%TO.N,/V13.7_IN*%
X17000000Y33600000D03*
%TD*%
D14*
%TO.P,C4,2*%
%TO.N,GND*%
X33137500Y10600000D03*
%TO.P,C4,1*%
%TO.N,/V5.0*%
X34862500Y10600000D03*
%TD*%
D15*
%TO.P,C3,2*%
%TO.N,GND*%
X30900000Y5200000D03*
D16*
%TO.P,C3,1*%
%TO.N,/V5.0*%
X33400000Y5200000D03*
%TD*%
D17*
%TO.P,Q1,3,S*%
%TO.N,Net-(F1-Pad1)*%
X16540000Y25000000D03*
%TO.P,Q1,2,D*%
%TO.N,/V13.7_IN*%
X14000000Y25000000D03*
D18*
%TO.P,Q1,1,G*%
%TO.N,GND*%
X11460000Y25000000D03*
%TD*%
D17*
%TO.P,U1,3,VI*%
%TO.N,/V13.7_SW*%
X34460000Y16000000D03*
%TO.P,U1,2,VO*%
%TO.N,/V5.0*%
X37000000Y16000000D03*
D18*
%TO.P,U1,1,GND*%
%TO.N,GND*%
X39540000Y16000000D03*
%TD*%
D15*
%TO.P,C1,2*%
%TO.N,GND*%
X38138606Y24400000D03*
D16*
%TO.P,C1,1*%
%TO.N,/V13.7_SW*%
X35638606Y24400000D03*
%TD*%
D19*
%TO.P,C2,2*%
%TO.N,GND*%
X37062500Y19200000D03*
%TO.P,C2,1*%
%TO.N,/V13.7_SW*%
X35337500Y19200000D03*
%TD*%
D20*
%TO.P,F1,2*%
%TO.N,/V13.7_PRO*%
X14000000Y13125000D03*
%TO.P,F1,1*%
%TO.N,Net-(F1-Pad1)*%
X14000000Y20075000D03*
%TD*%
D21*
%TO.N,GND*%
X25000000Y29600000D03*
X4100000Y20200000D03*
X23500000Y3000000D03*
X49900000Y14600000D03*
X44000000Y29300000D03*
%TD*%
D22*
%TO.N,/V13.7_PRO*%
X14000000Y10400000D02*
X15400000Y9000000D01*
X14000000Y13125000D02*
X14000000Y10400000D01*
%TO.N,Net-(F1-Pad1)*%
X16540000Y25000000D02*
X16540000Y22615000D01*
X16540000Y22615000D02*
X14000000Y20075000D01*
%TO.N,/V5.0*%
X37000000Y12400000D02*
X39800000Y9600000D01*
X37000000Y16000000D02*
X37000000Y12400000D01*
X38800000Y10600000D02*
X39800000Y9600000D01*
X34862500Y10600000D02*
X38800000Y10600000D01*
%TO.N,/V13.7_IN*%
X17000000Y30800000D02*
X17000000Y33600000D01*
X14000000Y27800000D02*
X17000000Y30800000D01*
X14000000Y25000000D02*
X14000000Y27800000D01*
%TD*%
%TA.AperFunction,Conductor*%
%TO.N,/V5.0*%
G36*
X37196121Y16233998D02*
G01*
X37242614Y16180342D01*
X37254000Y16128000D01*
X37254000Y14531904D01*
X37257918Y14518560D01*
X37272194Y14516573D01*
X37334515Y14526110D01*
X37344543Y14528499D01*
X37562988Y14599898D01*
X37572497Y14603895D01*
X37776344Y14710011D01*
X37785069Y14715505D01*
X37968852Y14853493D01*
X37976558Y14860335D01*
X37982905Y14866977D01*
X38044428Y14902408D01*
X38115341Y14898952D01*
X38173128Y14857707D01*
X38199442Y14791767D01*
X38200000Y14779927D01*
X38200000Y14600000D01*
X41280142Y14600000D01*
X41348263Y14579998D01*
X41394756Y14526342D01*
X41405985Y14480292D01*
X41566720Y11265600D01*
X41550144Y11196566D01*
X41498878Y11147451D01*
X41429196Y11133851D01*
X41363223Y11160082D01*
X41351859Y11170135D01*
X41303168Y11218742D01*
X41291761Y11227750D01*
X41153758Y11312816D01*
X41140577Y11318963D01*
X40986291Y11370138D01*
X40972915Y11373005D01*
X40878563Y11382672D01*
X40872146Y11383000D01*
X40072115Y11383000D01*
X40056876Y11378525D01*
X40055671Y11377135D01*
X40054000Y11369452D01*
X40054000Y7835115D01*
X40058475Y7819876D01*
X40059865Y7818671D01*
X40067548Y7817000D01*
X40872098Y7817000D01*
X40878613Y7817337D01*
X40974205Y7827256D01*
X40987604Y7830150D01*
X41141785Y7881588D01*
X41154964Y7887762D01*
X41292810Y7973063D01*
X41304209Y7982099D01*
X41418738Y8096828D01*
X41427750Y8108239D01*
X41489470Y8208367D01*
X41542242Y8255860D01*
X41612314Y8267284D01*
X41677438Y8239010D01*
X41716937Y8180016D01*
X41722573Y8148544D01*
X41738507Y7829862D01*
X41793385Y6732292D01*
X41776809Y6663257D01*
X41725542Y6614143D01*
X41667542Y6600000D01*
X37800000Y6600000D01*
X37502081Y6368285D01*
X34911357Y4353278D01*
X34845305Y4327244D01*
X34775665Y4341054D01*
X34724545Y4390321D01*
X34708000Y4452736D01*
X34708000Y4927885D01*
X34703525Y4943124D01*
X34702135Y4944329D01*
X34694452Y4946000D01*
X33272000Y4946000D01*
X33203879Y4966002D01*
X33157386Y5019658D01*
X33146000Y5072000D01*
X33146000Y5472115D01*
X33654000Y5472115D01*
X33658475Y5456876D01*
X33659865Y5455671D01*
X33667548Y5454000D01*
X34689884Y5454000D01*
X34705123Y5458475D01*
X34706328Y5459865D01*
X34707999Y5467548D01*
X34707999Y6044669D01*
X34707629Y6051490D01*
X34702105Y6102352D01*
X34698479Y6117604D01*
X34653324Y6238054D01*
X34644786Y6253649D01*
X34568285Y6355724D01*
X34555724Y6368285D01*
X34453649Y6444786D01*
X34438054Y6453324D01*
X34317606Y6498478D01*
X34302351Y6502105D01*
X34251486Y6507631D01*
X34244672Y6508000D01*
X33672115Y6508000D01*
X33656876Y6503525D01*
X33655671Y6502135D01*
X33654000Y6494452D01*
X33654000Y5472115D01*
X33146000Y5472115D01*
X33146000Y6489884D01*
X33141525Y6505123D01*
X33140135Y6506328D01*
X33129119Y6508724D01*
X33066807Y6542749D01*
X33032782Y6605061D01*
X33032880Y6659077D01*
X33446560Y8527902D01*
X38017000Y8527902D01*
X38017337Y8521387D01*
X38027256Y8425795D01*
X38030150Y8412396D01*
X38081588Y8258215D01*
X38087762Y8245036D01*
X38173063Y8107190D01*
X38182099Y8095791D01*
X38296828Y7981262D01*
X38308239Y7972250D01*
X38446242Y7887184D01*
X38459423Y7881037D01*
X38613709Y7829862D01*
X38627085Y7826995D01*
X38721437Y7817328D01*
X38727853Y7817000D01*
X39527885Y7817000D01*
X39543124Y7821475D01*
X39544329Y7822865D01*
X39546000Y7830548D01*
X39546000Y9327885D01*
X39541525Y9343124D01*
X39540135Y9344329D01*
X39532452Y9346000D01*
X38035115Y9346000D01*
X38019876Y9341525D01*
X38018671Y9340135D01*
X38017000Y9332452D01*
X38017000Y8527902D01*
X33446560Y8527902D01*
X33741683Y9861138D01*
X33775935Y9923326D01*
X33838371Y9957123D01*
X33909168Y9951800D01*
X33965848Y9909047D01*
X33969458Y9903729D01*
X33979460Y9891110D01*
X34092129Y9778637D01*
X34103540Y9769625D01*
X34239063Y9686088D01*
X34252241Y9679944D01*
X34403766Y9629685D01*
X34417132Y9626819D01*
X34509770Y9617328D01*
X34516185Y9617000D01*
X34590385Y9617000D01*
X34605624Y9621475D01*
X34606829Y9622865D01*
X34608500Y9630548D01*
X34608500Y9635115D01*
X35116500Y9635115D01*
X35120975Y9619876D01*
X35122365Y9618671D01*
X35130048Y9617000D01*
X35208766Y9617000D01*
X35215282Y9617337D01*
X35309132Y9627075D01*
X35322528Y9629968D01*
X35473953Y9680488D01*
X35487115Y9686653D01*
X35622492Y9770426D01*
X35633890Y9779460D01*
X35726384Y9872115D01*
X38017000Y9872115D01*
X38021475Y9856876D01*
X38022865Y9855671D01*
X38030548Y9854000D01*
X39527885Y9854000D01*
X39543124Y9858475D01*
X39544329Y9859865D01*
X39546000Y9867548D01*
X39546000Y11364885D01*
X39541525Y11380124D01*
X39540135Y11381329D01*
X39532452Y11383000D01*
X38727902Y11383000D01*
X38721387Y11382663D01*
X38625795Y11372744D01*
X38612396Y11369850D01*
X38458215Y11318412D01*
X38445036Y11312238D01*
X38307190Y11226937D01*
X38295791Y11217901D01*
X38181262Y11103172D01*
X38172250Y11091761D01*
X38087184Y10953758D01*
X38081037Y10940577D01*
X38029862Y10786291D01*
X38026995Y10772915D01*
X38017328Y10678563D01*
X38017000Y10672146D01*
X38017000Y9872115D01*
X35726384Y9872115D01*
X35746363Y9892129D01*
X35755375Y9903540D01*
X35838912Y10039063D01*
X35845056Y10052241D01*
X35895315Y10203766D01*
X35898181Y10217132D01*
X35907672Y10309770D01*
X35908000Y10316185D01*
X35908000Y10327885D01*
X35903525Y10343124D01*
X35902135Y10344329D01*
X35894452Y10346000D01*
X35134615Y10346000D01*
X35119376Y10341525D01*
X35118171Y10340135D01*
X35116500Y10332452D01*
X35116500Y9635115D01*
X34608500Y9635115D01*
X34608500Y10872115D01*
X35116500Y10872115D01*
X35120975Y10856876D01*
X35122365Y10855671D01*
X35130048Y10854000D01*
X35889885Y10854000D01*
X35905124Y10858475D01*
X35906329Y10859865D01*
X35908000Y10867548D01*
X35908000Y10883766D01*
X35907663Y10890282D01*
X35897925Y10984132D01*
X35895032Y10997528D01*
X35844512Y11148953D01*
X35838347Y11162115D01*
X35754574Y11297492D01*
X35745540Y11308890D01*
X35632871Y11421363D01*
X35621460Y11430375D01*
X35485937Y11513912D01*
X35472759Y11520056D01*
X35321234Y11570315D01*
X35307868Y11573181D01*
X35215230Y11582672D01*
X35208815Y11583000D01*
X35134615Y11583000D01*
X35119376Y11578525D01*
X35118171Y11577135D01*
X35116500Y11569452D01*
X35116500Y10872115D01*
X34608500Y10872115D01*
X34608500Y11564885D01*
X34604025Y11580124D01*
X34602635Y11581329D01*
X34594952Y11583000D01*
X34516234Y11583000D01*
X34509718Y11582663D01*
X34415868Y11572925D01*
X34402466Y11570030D01*
X34308397Y11538646D01*
X34237447Y11536061D01*
X34176363Y11572244D01*
X34144538Y11635708D01*
X34145498Y11685401D01*
X34212796Y11989425D01*
X34217055Y12004279D01*
X35304189Y15072088D01*
X35329758Y15114801D01*
X35421525Y15215652D01*
X35421527Y15215655D01*
X35425298Y15219799D01*
X35475855Y15300393D01*
X35528994Y15347467D01*
X35599154Y15358340D01*
X35664053Y15329557D01*
X35698138Y15283677D01*
X35706382Y15264717D01*
X35711251Y15255636D01*
X35836085Y15062673D01*
X35842378Y15054502D01*
X35997050Y14884520D01*
X36004583Y14877494D01*
X36184944Y14735055D01*
X36193531Y14729350D01*
X36394722Y14618286D01*
X36404134Y14614056D01*
X36620768Y14537341D01*
X36630739Y14534707D01*
X36728163Y14517353D01*
X36741460Y14518813D01*
X36746000Y14533370D01*
X36746000Y16128000D01*
X36766002Y16196121D01*
X36819658Y16242614D01*
X36872000Y16254000D01*
X37128000Y16254000D01*
X37196121Y16233998D01*
G37*
%TD.AperFunction*%
%TD*%
%TA.AperFunction,Conductor*%
%TO.N,/V13.7_SW*%
G36*
X36940359Y35779998D02*
G01*
X36986852Y35726342D01*
X36998226Y35672251D01*
X36944762Y31822865D01*
X36860604Y25763492D01*
X36839658Y25695656D01*
X36785362Y25649913D01*
X36714954Y25640786D01*
X36685338Y25650892D01*
X36685068Y25650172D01*
X36556212Y25698478D01*
X36540957Y25702105D01*
X36490092Y25707631D01*
X36483278Y25708000D01*
X35910721Y25708000D01*
X35895482Y25703525D01*
X35894277Y25702135D01*
X35892606Y25694452D01*
X35892606Y23110116D01*
X35897081Y23094877D01*
X35898471Y23093672D01*
X35906154Y23092001D01*
X36483275Y23092001D01*
X36490096Y23092371D01*
X36540958Y23097895D01*
X36556212Y23101522D01*
X36652252Y23137525D01*
X36723059Y23142708D01*
X36785428Y23108787D01*
X36819557Y23046532D01*
X36822469Y23017793D01*
X36800267Y21419229D01*
X36794007Y21381722D01*
X36352567Y20035391D01*
X36312337Y19976893D01*
X36246867Y19949431D01*
X36176942Y19961725D01*
X36143821Y19985476D01*
X36107876Y20021359D01*
X36096460Y20030375D01*
X35960937Y20113912D01*
X35947759Y20120056D01*
X35796234Y20170315D01*
X35782868Y20173181D01*
X35690230Y20182672D01*
X35683815Y20183000D01*
X35609615Y20183000D01*
X35594376Y20178525D01*
X35593171Y20177135D01*
X35591500Y20169452D01*
X35591500Y18235115D01*
X35595975Y18219876D01*
X35597365Y18218671D01*
X35609819Y18215962D01*
X35672132Y18181937D01*
X35706157Y18119625D01*
X35702765Y18053584D01*
X35510794Y17468096D01*
X35465506Y17329975D01*
X35425276Y17271477D01*
X35359806Y17244015D01*
X35289882Y17256309D01*
X35276050Y17264284D01*
X35266465Y17270652D01*
X35065278Y17381714D01*
X35055866Y17385944D01*
X34839232Y17462659D01*
X34829261Y17465293D01*
X34731837Y17482647D01*
X34718540Y17481187D01*
X34714000Y17466630D01*
X34714000Y15872000D01*
X34693998Y15803879D01*
X34640342Y15757386D01*
X34588000Y15746000D01*
X33029588Y15746000D01*
X33014859Y15741675D01*
X33012798Y15729889D01*
X33013751Y15718296D01*
X33015433Y15708134D01*
X33071422Y15485229D01*
X33074741Y15475481D01*
X33166385Y15264711D01*
X33171251Y15255636D01*
X33296085Y15062673D01*
X33302378Y15054502D01*
X33457050Y14884520D01*
X33464583Y14877494D01*
X33644944Y14735055D01*
X33653531Y14729350D01*
X33854722Y14618286D01*
X33864134Y14614056D01*
X34080768Y14537341D01*
X34090739Y14534707D01*
X34125614Y14528495D01*
X34189172Y14496857D01*
X34225535Y14435879D01*
X34223158Y14364923D01*
X34196564Y14319487D01*
X26667258Y6073658D01*
X26637473Y6041039D01*
X26576769Y6004222D01*
X26544427Y6000000D01*
X18127585Y6000000D01*
X18059464Y6020002D01*
X18012971Y6073658D01*
X18001595Y6127575D01*
X18019663Y7572980D01*
X19137725Y7572980D01*
X19146438Y7561460D01*
X19248737Y7486452D01*
X19256636Y7481516D01*
X19482902Y7362472D01*
X19491451Y7358755D01*
X19732816Y7274467D01*
X19741825Y7272053D01*
X19993004Y7224365D01*
X20002261Y7223311D01*
X20257732Y7213272D01*
X20267046Y7213598D01*
X20521184Y7241430D01*
X20530361Y7243131D01*
X20777593Y7308222D01*
X20786413Y7311259D01*
X21021313Y7412180D01*
X21029585Y7416487D01*
X21246982Y7551016D01*
X21254529Y7556500D01*
X21256820Y7558439D01*
X21265257Y7571242D01*
X21259193Y7581597D01*
X20212812Y8627978D01*
X20198868Y8635592D01*
X20197035Y8635461D01*
X20190420Y8631210D01*
X19144383Y7585173D01*
X19137725Y7572980D01*
X18019663Y7572980D01*
X18038027Y9042132D01*
X18412837Y9042132D01*
X18425103Y8786768D01*
X18426239Y8777513D01*
X18476117Y8526763D01*
X18478609Y8517777D01*
X18565000Y8277159D01*
X18568797Y8268631D01*
X18689802Y8043428D01*
X18694813Y8035562D01*
X18761583Y7946147D01*
X18772841Y7937698D01*
X18785260Y7944470D01*
X19827978Y8987188D01*
X19834356Y8998868D01*
X20564408Y8998868D01*
X20564539Y8997035D01*
X20568790Y8990420D01*
X21618004Y7941206D01*
X21630384Y7934446D01*
X21638725Y7940690D01*
X21768800Y8142914D01*
X21773243Y8151098D01*
X21878249Y8384204D01*
X21881439Y8392969D01*
X21950835Y8639026D01*
X21952695Y8648168D01*
X21985152Y8903293D01*
X21985633Y8909580D01*
X21987917Y8996840D01*
X21987841Y9000000D01*
X23465770Y9000000D01*
X23484659Y8759994D01*
X23485813Y8755187D01*
X23485814Y8755181D01*
X23511506Y8648168D01*
X23540861Y8525897D01*
X23542754Y8521326D01*
X23542755Y8521324D01*
X23599552Y8384204D01*
X23632991Y8303474D01*
X23758782Y8098202D01*
X23915136Y7915136D01*
X24098202Y7758782D01*
X24303474Y7632991D01*
X24308044Y7631098D01*
X24308048Y7631096D01*
X24501380Y7551016D01*
X24525897Y7540861D01*
X24607936Y7521165D01*
X24755181Y7485814D01*
X24755187Y7485813D01*
X24759994Y7484659D01*
X25000000Y7465770D01*
X25240006Y7484659D01*
X25244813Y7485813D01*
X25244819Y7485814D01*
X25392064Y7521165D01*
X25474103Y7540861D01*
X25498620Y7551016D01*
X25691952Y7631096D01*
X25691956Y7631098D01*
X25696526Y7632991D01*
X25901798Y7758782D01*
X26084864Y7915136D01*
X26241218Y8098202D01*
X26367009Y8303474D01*
X26400449Y8384204D01*
X26457245Y8521324D01*
X26457246Y8521326D01*
X26459139Y8525897D01*
X26488494Y8648168D01*
X26514186Y8755181D01*
X26514187Y8755187D01*
X26515341Y8759994D01*
X26534230Y9000000D01*
X26515341Y9240006D01*
X26514187Y9244813D01*
X26514186Y9244819D01*
X26460294Y9469291D01*
X26459139Y9474103D01*
X26437181Y9527115D01*
X26368904Y9691952D01*
X26368902Y9691956D01*
X26367009Y9696526D01*
X26241218Y9901798D01*
X26084864Y10084864D01*
X25901798Y10241218D01*
X25696526Y10367009D01*
X25691956Y10368902D01*
X25691952Y10368904D01*
X25478676Y10457245D01*
X25478674Y10457246D01*
X25474103Y10459139D01*
X25392064Y10478835D01*
X25244819Y10514186D01*
X25244813Y10514187D01*
X25240006Y10515341D01*
X25000000Y10534230D01*
X24759994Y10515341D01*
X24755187Y10514187D01*
X24755181Y10514186D01*
X24607936Y10478835D01*
X24525897Y10459139D01*
X24521326Y10457246D01*
X24521324Y10457245D01*
X24308048Y10368904D01*
X24308044Y10368902D01*
X24303474Y10367009D01*
X24098202Y10241218D01*
X23915136Y10084864D01*
X23758782Y9901798D01*
X23632991Y9696526D01*
X23631098Y9691956D01*
X23631096Y9691952D01*
X23562819Y9527115D01*
X23540861Y9474103D01*
X23539706Y9469291D01*
X23485814Y9244819D01*
X23485813Y9244813D01*
X23484659Y9240006D01*
X23465770Y9000000D01*
X21987841Y9000000D01*
X21987766Y9003149D01*
X21968706Y9259631D01*
X21967329Y9268837D01*
X21910904Y9518204D01*
X21908180Y9527115D01*
X21815515Y9765400D01*
X21811504Y9773810D01*
X21684638Y9995779D01*
X21679427Y10003505D01*
X21639194Y10054540D01*
X21627268Y10063012D01*
X21615736Y10056526D01*
X20572022Y9012812D01*
X20564408Y8998868D01*
X19834356Y8998868D01*
X19835592Y9001132D01*
X19835461Y9002965D01*
X19831210Y9009580D01*
X18783568Y10057222D01*
X18770259Y10064489D01*
X18760224Y10057370D01*
X18747347Y10041887D01*
X18741936Y10034301D01*
X18609308Y9815736D01*
X18605070Y9807419D01*
X18506206Y9571656D01*
X18503245Y9562806D01*
X18440317Y9315022D01*
X18438695Y9305825D01*
X18413082Y9051458D01*
X18412837Y9042132D01*
X18038027Y9042132D01*
X18055366Y10429254D01*
X19135159Y10429254D01*
X19139732Y10419478D01*
X20187188Y9372022D01*
X20201132Y9364408D01*
X20202965Y9364539D01*
X20209580Y9368790D01*
X21256384Y10415594D01*
X21262768Y10427284D01*
X21253357Y10439394D01*
X21111315Y10537932D01*
X21103288Y10542660D01*
X20873985Y10655740D01*
X20865352Y10659228D01*
X20621851Y10737172D01*
X20612790Y10739348D01*
X20360445Y10780445D01*
X20351158Y10781257D01*
X20095522Y10784604D01*
X20086211Y10784034D01*
X19832885Y10749558D01*
X19823766Y10747620D01*
X19578328Y10676081D01*
X19569575Y10672809D01*
X19337406Y10565777D01*
X19329251Y10561257D01*
X19144297Y10439996D01*
X19135159Y10429254D01*
X18055366Y10429254D01*
X18128400Y16272013D01*
X33015099Y16272013D01*
X33017747Y16257392D01*
X33030124Y16254000D01*
X34187885Y16254000D01*
X34203124Y16258475D01*
X34204329Y16259865D01*
X34206000Y16267548D01*
X34206000Y17468096D01*
X34202082Y17481440D01*
X34187806Y17483427D01*
X34125485Y17473890D01*
X34115457Y17471501D01*
X33897012Y17400102D01*
X33887503Y17396105D01*
X33683656Y17289989D01*
X33674931Y17284495D01*
X33491148Y17146507D01*
X33483441Y17139664D01*
X33324661Y16973509D01*
X33318174Y16965499D01*
X33188670Y16775653D01*
X33183571Y16766679D01*
X33086813Y16558231D01*
X33083250Y16548544D01*
X33021835Y16327092D01*
X33019904Y16316970D01*
X33015099Y16272013D01*
X18128400Y16272013D01*
X18161453Y18916234D01*
X34292000Y18916234D01*
X34292337Y18909718D01*
X34302075Y18815868D01*
X34304968Y18802472D01*
X34355488Y18651047D01*
X34361653Y18637885D01*
X34445426Y18502508D01*
X34454460Y18491110D01*
X34567129Y18378637D01*
X34578540Y18369625D01*
X34714063Y18286088D01*
X34727241Y18279944D01*
X34878766Y18229685D01*
X34892132Y18226819D01*
X34984770Y18217328D01*
X34991185Y18217000D01*
X35065385Y18217000D01*
X35080624Y18221475D01*
X35081829Y18222865D01*
X35083500Y18230548D01*
X35083500Y18927885D01*
X35079025Y18943124D01*
X35077635Y18944329D01*
X35069952Y18946000D01*
X34310115Y18946000D01*
X34294876Y18941525D01*
X34293671Y18940135D01*
X34292000Y18932452D01*
X34292000Y18916234D01*
X18161453Y18916234D01*
X18168402Y19472115D01*
X34292000Y19472115D01*
X34296475Y19456876D01*
X34297865Y19455671D01*
X34305548Y19454000D01*
X35065385Y19454000D01*
X35080624Y19458475D01*
X35081829Y19459865D01*
X35083500Y19467548D01*
X35083500Y20164885D01*
X35079025Y20180124D01*
X35077635Y20181329D01*
X35069952Y20183000D01*
X34991234Y20183000D01*
X34984718Y20182663D01*
X34890868Y20172925D01*
X34877472Y20170032D01*
X34726047Y20119512D01*
X34712885Y20113347D01*
X34577508Y20029574D01*
X34566110Y20020540D01*
X34453637Y19907871D01*
X34444625Y19896460D01*
X34361088Y19760937D01*
X34354944Y19747759D01*
X34304685Y19596234D01*
X34301819Y19582868D01*
X34292328Y19490230D01*
X34292000Y19483815D01*
X34292000Y19472115D01*
X18168402Y19472115D01*
X18198445Y21875575D01*
X18219297Y21943440D01*
X18273529Y21989259D01*
X18324435Y22000000D01*
X29800000Y22000000D01*
X29801043Y22010279D01*
X29957788Y23555331D01*
X34330607Y23555331D01*
X34330977Y23548510D01*
X34336501Y23497648D01*
X34340127Y23482396D01*
X34385282Y23361946D01*
X34393820Y23346351D01*
X34470321Y23244276D01*
X34482882Y23231715D01*
X34584957Y23155214D01*
X34600552Y23146676D01*
X34721000Y23101522D01*
X34736255Y23097895D01*
X34787120Y23092369D01*
X34793934Y23092000D01*
X35366491Y23092000D01*
X35381730Y23096475D01*
X35382935Y23097865D01*
X35384606Y23105548D01*
X35384606Y24127885D01*
X35380131Y24143124D01*
X35378741Y24144329D01*
X35371058Y24146000D01*
X34348722Y24146000D01*
X34333483Y24141525D01*
X34332278Y24140135D01*
X34330607Y24132452D01*
X34330607Y23555331D01*
X29957788Y23555331D01*
X30071085Y24672115D01*
X34330606Y24672115D01*
X34335081Y24656876D01*
X34336471Y24655671D01*
X34344154Y24654000D01*
X35366491Y24654000D01*
X35381730Y24658475D01*
X35382935Y24659865D01*
X35384606Y24667548D01*
X35384606Y25689884D01*
X35380131Y25705123D01*
X35378741Y25706328D01*
X35371058Y25707999D01*
X34793937Y25707999D01*
X34787116Y25707629D01*
X34736254Y25702105D01*
X34721002Y25698479D01*
X34600552Y25653324D01*
X34584957Y25644786D01*
X34482882Y25568285D01*
X34470321Y25555724D01*
X34393820Y25453649D01*
X34385282Y25438054D01*
X34340128Y25317606D01*
X34336501Y25302351D01*
X34330975Y25251486D01*
X34330606Y25244672D01*
X34330606Y24672115D01*
X30071085Y24672115D01*
X30868049Y32527902D01*
X32217000Y32527902D01*
X32217337Y32521387D01*
X32227256Y32425795D01*
X32230150Y32412396D01*
X32281588Y32258215D01*
X32287762Y32245036D01*
X32373063Y32107190D01*
X32382099Y32095791D01*
X32496828Y31981262D01*
X32508239Y31972250D01*
X32646242Y31887184D01*
X32659423Y31881037D01*
X32813709Y31829862D01*
X32827085Y31826995D01*
X32921437Y31817328D01*
X32927853Y31817000D01*
X33727885Y31817000D01*
X33743124Y31821475D01*
X33744329Y31822865D01*
X33746000Y31830548D01*
X33746000Y31835115D01*
X34254000Y31835115D01*
X34258475Y31819876D01*
X34259865Y31818671D01*
X34267548Y31817000D01*
X35072098Y31817000D01*
X35078613Y31817337D01*
X35174205Y31827256D01*
X35187604Y31830150D01*
X35341785Y31881588D01*
X35354964Y31887762D01*
X35492810Y31973063D01*
X35504209Y31982099D01*
X35618738Y32096828D01*
X35627750Y32108239D01*
X35712816Y32246242D01*
X35718963Y32259423D01*
X35770138Y32413709D01*
X35773005Y32427085D01*
X35782672Y32521437D01*
X35783000Y32527853D01*
X35783000Y33327885D01*
X35778525Y33343124D01*
X35777135Y33344329D01*
X35769452Y33346000D01*
X34272115Y33346000D01*
X34256876Y33341525D01*
X34255671Y33340135D01*
X34254000Y33332452D01*
X34254000Y31835115D01*
X33746000Y31835115D01*
X33746000Y33327885D01*
X33741525Y33343124D01*
X33740135Y33344329D01*
X33732452Y33346000D01*
X32235115Y33346000D01*
X32219876Y33341525D01*
X32218671Y33340135D01*
X32217000Y33332452D01*
X32217000Y32527902D01*
X30868049Y32527902D01*
X31004418Y33872115D01*
X32217000Y33872115D01*
X32221475Y33856876D01*
X32222865Y33855671D01*
X32230548Y33854000D01*
X33727885Y33854000D01*
X33743124Y33858475D01*
X33744329Y33859865D01*
X33746000Y33867548D01*
X33746000Y33872115D01*
X34254000Y33872115D01*
X34258475Y33856876D01*
X34259865Y33855671D01*
X34267548Y33854000D01*
X35764885Y33854000D01*
X35780124Y33858475D01*
X35781329Y33859865D01*
X35783000Y33867548D01*
X35783000Y34672098D01*
X35782663Y34678613D01*
X35772744Y34774205D01*
X35769850Y34787604D01*
X35718412Y34941785D01*
X35712238Y34954964D01*
X35626937Y35092810D01*
X35617901Y35104209D01*
X35503172Y35218738D01*
X35491761Y35227750D01*
X35353758Y35312816D01*
X35340577Y35318963D01*
X35186291Y35370138D01*
X35172915Y35373005D01*
X35078563Y35382672D01*
X35072146Y35383000D01*
X34272115Y35383000D01*
X34256876Y35378525D01*
X34255671Y35377135D01*
X34254000Y35369452D01*
X34254000Y33872115D01*
X33746000Y33872115D01*
X33746000Y35364885D01*
X33741525Y35380124D01*
X33740135Y35381329D01*
X33732452Y35383000D01*
X32927902Y35383000D01*
X32921387Y35382663D01*
X32825795Y35372744D01*
X32812396Y35369850D01*
X32658215Y35318412D01*
X32645036Y35312238D01*
X32507190Y35226937D01*
X32495791Y35217901D01*
X32381262Y35103172D01*
X32372250Y35091761D01*
X32287184Y34953758D01*
X32281037Y34940577D01*
X32229862Y34786291D01*
X32226995Y34772915D01*
X32217328Y34678563D01*
X32217000Y34672146D01*
X32217000Y33872115D01*
X31004418Y33872115D01*
X31188508Y35686717D01*
X31215284Y35752471D01*
X31273358Y35793311D01*
X31313865Y35800000D01*
X36872238Y35800000D01*
X36940359Y35779998D01*
G37*
%TD.AperFunction*%
%TD*%
%TA.AperFunction,Conductor*%
%TO.N,GND*%
G36*
X57087621Y40325498D02*
G01*
X57134114Y40271842D01*
X57145500Y40219500D01*
X57145500Y380500D01*
X57125498Y312379D01*
X57071842Y265886D01*
X57019500Y254500D01*
X380500Y254500D01*
X312379Y274502D01*
X265886Y328158D01*
X254500Y380500D01*
X254500Y4757814D01*
X3341018Y4757814D01*
X3366579Y4489900D01*
X3367664Y4485466D01*
X3367665Y4485460D01*
X3410762Y4309338D01*
X3430547Y4228482D01*
X3531583Y3979037D01*
X3667569Y3746790D01*
X3835658Y3536605D01*
X4032327Y3352887D01*
X4253457Y3199484D01*
X4494416Y3079609D01*
X4498750Y3078188D01*
X4498753Y3078187D01*
X4745823Y2997193D01*
X4745829Y2997192D01*
X4750156Y2995773D01*
X4754647Y2994993D01*
X4754648Y2994993D01*
X5011538Y2950389D01*
X5011546Y2950388D01*
X5015319Y2949733D01*
X5019156Y2949542D01*
X5098777Y2945578D01*
X5098785Y2945578D01*
X5100348Y2945500D01*
X5268374Y2945500D01*
X5270642Y2945665D01*
X5270654Y2945665D01*
X5401457Y2955156D01*
X5468425Y2960015D01*
X5472880Y2960999D01*
X5472883Y2960999D01*
X5726770Y3017053D01*
X5726772Y3017054D01*
X5731226Y3018037D01*
X5982900Y3113387D01*
X6218172Y3244069D01*
X6371991Y3361460D01*
X6387086Y3372980D01*
X38737725Y3372980D01*
X38746438Y3361460D01*
X38848737Y3286452D01*
X38856636Y3281516D01*
X39082902Y3162472D01*
X39091451Y3158755D01*
X39332816Y3074467D01*
X39341825Y3072053D01*
X39593004Y3024365D01*
X39602261Y3023311D01*
X39857732Y3013272D01*
X39867046Y3013598D01*
X40121184Y3041430D01*
X40130361Y3043131D01*
X40377593Y3108222D01*
X40386413Y3111259D01*
X40621313Y3212180D01*
X40629585Y3216487D01*
X40846982Y3351016D01*
X40854529Y3356500D01*
X40856820Y3358439D01*
X40865257Y3371242D01*
X40859193Y3381597D01*
X39812812Y4427978D01*
X39798868Y4435592D01*
X39797035Y4435461D01*
X39790420Y4431210D01*
X38744383Y3385173D01*
X38737725Y3372980D01*
X6387086Y3372980D01*
X6428491Y3404579D01*
X6428495Y3404583D01*
X6432116Y3407346D01*
X6620249Y3599797D01*
X6722802Y3740690D01*
X6775942Y3813696D01*
X6775947Y3813703D01*
X6778630Y3817390D01*
X6903941Y4055567D01*
X6924554Y4113938D01*
X30178493Y4113938D01*
X30187789Y4101923D01*
X30238994Y4066069D01*
X30248489Y4060586D01*
X30445947Y3968510D01*
X30456239Y3964764D01*
X30666688Y3908375D01*
X30677481Y3906472D01*
X30894525Y3887483D01*
X30905475Y3887483D01*
X31122519Y3906472D01*
X31133312Y3908375D01*
X31343761Y3964764D01*
X31354053Y3968510D01*
X31551511Y4060586D01*
X31561006Y4066069D01*
X31613048Y4102509D01*
X31621424Y4112988D01*
X31614356Y4126434D01*
X30912812Y4827978D01*
X30898868Y4835592D01*
X30897035Y4835461D01*
X30890420Y4831210D01*
X30184923Y4125713D01*
X30178493Y4113938D01*
X6924554Y4113938D01*
X6993557Y4309338D01*
X7028165Y4484923D01*
X7044720Y4568917D01*
X7044721Y4568923D01*
X7045601Y4573389D01*
X7048745Y4636545D01*
X7058755Y4837617D01*
X7058755Y4837623D01*
X7058982Y4842186D01*
X7033421Y5110100D01*
X7012763Y5194525D01*
X29587483Y5194525D01*
X29606472Y4977481D01*
X29608375Y4966688D01*
X29664764Y4756239D01*
X29668510Y4745947D01*
X29760586Y4548489D01*
X29766069Y4538994D01*
X29802509Y4486952D01*
X29812988Y4478576D01*
X29826434Y4485644D01*
X30527978Y5187188D01*
X30535592Y5201132D01*
X30535461Y5202965D01*
X30531210Y5209580D01*
X29825713Y5915077D01*
X29813938Y5921507D01*
X29801923Y5912211D01*
X29766069Y5861006D01*
X29760586Y5851511D01*
X29668510Y5654053D01*
X29664764Y5643761D01*
X29608375Y5433312D01*
X29606472Y5422519D01*
X29587483Y5205475D01*
X29587483Y5194525D01*
X7012763Y5194525D01*
X7012149Y5197035D01*
X6970539Y5367080D01*
X6969453Y5371518D01*
X6868417Y5620963D01*
X6732431Y5853210D01*
X6564342Y6063395D01*
X6492165Y6130819D01*
X17742115Y6130819D01*
X17747685Y6074002D01*
X17748400Y6070611D01*
X17748402Y6070601D01*
X17758010Y6025067D01*
X17759061Y6020085D01*
X17766751Y5991709D01*
X17816854Y5903722D01*
X17820906Y5899046D01*
X17860623Y5853210D01*
X17863347Y5850066D01*
X17896636Y5817944D01*
X17986355Y5771013D01*
X17992291Y5769270D01*
X18050153Y5752280D01*
X18050157Y5752279D01*
X18054476Y5751011D01*
X18058924Y5750371D01*
X18058931Y5750370D01*
X18123137Y5741139D01*
X18123144Y5741139D01*
X18127585Y5740500D01*
X26544427Y5740500D01*
X26567724Y5742014D01*
X26575989Y5742551D01*
X26575993Y5742551D01*
X26578018Y5742683D01*
X26580023Y5742945D01*
X26580036Y5742946D01*
X26595864Y5745013D01*
X26610360Y5746905D01*
X26616533Y5749071D01*
X26616536Y5749072D01*
X26687229Y5773880D01*
X26711340Y5782341D01*
X26772044Y5819158D01*
X26829104Y5866060D01*
X26859224Y5899046D01*
X27213478Y6287012D01*
X30178576Y6287012D01*
X30185644Y6273566D01*
X30887188Y5572022D01*
X30901132Y5564408D01*
X30902965Y5564539D01*
X30909580Y5568790D01*
X31615077Y6274287D01*
X31621507Y6286062D01*
X31612211Y6298077D01*
X31561006Y6333931D01*
X31551511Y6339414D01*
X31354053Y6431490D01*
X31343761Y6435236D01*
X31133312Y6491625D01*
X31122519Y6493528D01*
X30905475Y6512517D01*
X30894525Y6512517D01*
X30677481Y6493528D01*
X30666688Y6491625D01*
X30456239Y6435236D01*
X30445947Y6431490D01*
X30248489Y6339414D01*
X30238994Y6333931D01*
X30186952Y6297491D01*
X30178576Y6287012D01*
X27213478Y6287012D01*
X30892580Y10316234D01*
X32092000Y10316234D01*
X32092337Y10309718D01*
X32102075Y10215868D01*
X32104968Y10202472D01*
X32155488Y10051047D01*
X32161653Y10037885D01*
X32245426Y9902508D01*
X32254460Y9891110D01*
X32367129Y9778637D01*
X32378540Y9769625D01*
X32514063Y9686088D01*
X32527241Y9679944D01*
X32678766Y9629685D01*
X32692132Y9626819D01*
X32784770Y9617328D01*
X32791185Y9617000D01*
X32865385Y9617000D01*
X32880624Y9621475D01*
X32881829Y9622865D01*
X32883500Y9630548D01*
X32883500Y10327885D01*
X32879025Y10343124D01*
X32877635Y10344329D01*
X32869952Y10346000D01*
X32110115Y10346000D01*
X32094876Y10341525D01*
X32093671Y10340135D01*
X32092000Y10332452D01*
X32092000Y10316234D01*
X30892580Y10316234D01*
X31400158Y10872115D01*
X32092000Y10872115D01*
X32096475Y10856876D01*
X32097865Y10855671D01*
X32105548Y10854000D01*
X32865385Y10854000D01*
X32880624Y10858475D01*
X32881829Y10859865D01*
X32883500Y10867548D01*
X32883500Y11564885D01*
X32879025Y11580124D01*
X32877635Y11581329D01*
X32869952Y11583000D01*
X32791234Y11583000D01*
X32784718Y11582663D01*
X32690868Y11572925D01*
X32677472Y11570032D01*
X32526047Y11519512D01*
X32512885Y11513347D01*
X32377508Y11429574D01*
X32366110Y11420540D01*
X32253637Y11307871D01*
X32244625Y11296460D01*
X32161088Y11160937D01*
X32154944Y11147759D01*
X32104685Y10996234D01*
X32101819Y10982868D01*
X32092328Y10890230D01*
X32092000Y10883815D01*
X32092000Y10872115D01*
X31400158Y10872115D01*
X34385962Y14142062D01*
X34385966Y14142067D01*
X34388195Y14144508D01*
X34420522Y14188403D01*
X34447116Y14233839D01*
X34447844Y14235244D01*
X34447853Y14235261D01*
X34455847Y14250698D01*
X34459445Y14257645D01*
X34482513Y14356235D01*
X34484743Y14422798D01*
X34484796Y14424379D01*
X34484796Y14424383D01*
X34484890Y14427191D01*
X34482311Y14473379D01*
X34476311Y14490269D01*
X34450488Y14562952D01*
X34450487Y14562954D01*
X34448414Y14568789D01*
X34447666Y14570043D01*
X34437034Y14638572D01*
X34465806Y14703478D01*
X34525101Y14742524D01*
X34546806Y14747117D01*
X34706395Y14766429D01*
X34706396Y14766429D01*
X34711964Y14767103D01*
X34717323Y14768752D01*
X34717880Y14768870D01*
X34788670Y14763466D01*
X34845302Y14720648D01*
X34869794Y14654010D01*
X34862837Y14603537D01*
X34661170Y14034447D01*
X33972459Y12090956D01*
X33967606Y12075802D01*
X33963347Y12060948D01*
X33959429Y12045510D01*
X33892131Y11741486D01*
X33886046Y11690413D01*
X33885986Y11687284D01*
X33885985Y11687276D01*
X33885199Y11646570D01*
X33863885Y11578849D01*
X33809342Y11533401D01*
X33738886Y11524656D01*
X33719556Y11529411D01*
X33596234Y11570315D01*
X33582868Y11573181D01*
X33490230Y11582672D01*
X33483815Y11583000D01*
X33409615Y11583000D01*
X33394376Y11578525D01*
X33393171Y11577135D01*
X33391500Y11569452D01*
X33391500Y9635117D01*
X33401967Y9599470D01*
X33404093Y9536740D01*
X33295325Y9045376D01*
X33193193Y8583987D01*
X33183027Y8538061D01*
X32785181Y6740767D01*
X32779513Y6715162D01*
X32773380Y6659548D01*
X32773282Y6605532D01*
X32774769Y6577321D01*
X32777133Y6569773D01*
X32777133Y6569770D01*
X32797748Y6503934D01*
X32805024Y6480696D01*
X32826765Y6440881D01*
X32841855Y6371510D01*
X32817044Y6304990D01*
X32760208Y6262443D01*
X32716176Y6254499D01*
X32574934Y6254499D01*
X32539182Y6247388D01*
X32512874Y6242156D01*
X32512872Y6242155D01*
X32500699Y6239734D01*
X32490379Y6232839D01*
X32490378Y6232838D01*
X32470384Y6219478D01*
X32416516Y6183484D01*
X32360266Y6099301D01*
X32345500Y6025067D01*
X32345500Y5763456D01*
X32325498Y5695335D01*
X32271842Y5648842D01*
X32201568Y5638738D01*
X32136988Y5668232D01*
X32105305Y5710206D01*
X32039414Y5851511D01*
X32033931Y5861006D01*
X31997491Y5913048D01*
X31987012Y5921424D01*
X31973566Y5914356D01*
X31272022Y5212812D01*
X31264408Y5198868D01*
X31264539Y5197035D01*
X31268790Y5190420D01*
X31974287Y4484923D01*
X31986062Y4478493D01*
X31998077Y4487789D01*
X32033931Y4538994D01*
X32039414Y4548489D01*
X32105306Y4689795D01*
X32152224Y4743080D01*
X32220501Y4762541D01*
X32288461Y4741999D01*
X32334526Y4687976D01*
X32345501Y4636546D01*
X32345501Y4374934D01*
X32352612Y4339182D01*
X32355666Y4323829D01*
X32360266Y4300699D01*
X32416516Y4216516D01*
X32500699Y4160266D01*
X32574933Y4145500D01*
X33399866Y4145500D01*
X34225066Y4145501D01*
X34268828Y4154205D01*
X34287126Y4157844D01*
X34287128Y4157845D01*
X34299301Y4160266D01*
X34309621Y4167161D01*
X34309622Y4167162D01*
X34383484Y4216516D01*
X34385524Y4213463D01*
X34429076Y4237245D01*
X34499891Y4232180D01*
X34543026Y4201974D01*
X34544469Y4203472D01*
X34593564Y4156156D01*
X34593571Y4156150D01*
X34595589Y4154205D01*
X34631621Y4125204D01*
X34639944Y4121762D01*
X34639946Y4121761D01*
X34663904Y4111854D01*
X34725188Y4086511D01*
X34794828Y4072701D01*
X34840829Y4067783D01*
X34940461Y4085820D01*
X35006513Y4111854D01*
X35056234Y4140206D01*
X35066761Y4146209D01*
X35066762Y4146210D01*
X35070675Y4148441D01*
X35078086Y4154205D01*
X35962564Y4842132D01*
X38012837Y4842132D01*
X38025103Y4586768D01*
X38026239Y4577513D01*
X38076117Y4326763D01*
X38078609Y4317777D01*
X38165000Y4077159D01*
X38168797Y4068631D01*
X38289802Y3843428D01*
X38294813Y3835562D01*
X38361583Y3746147D01*
X38372841Y3737698D01*
X38385260Y3744470D01*
X39427978Y4787188D01*
X39434356Y4798868D01*
X40164408Y4798868D01*
X40164539Y4797035D01*
X40168790Y4790420D01*
X41218004Y3741206D01*
X41230384Y3734446D01*
X41238725Y3740690D01*
X41368800Y3942914D01*
X41373243Y3951098D01*
X41478249Y4184204D01*
X41481439Y4192969D01*
X41550835Y4439026D01*
X41552695Y4448168D01*
X41585152Y4703293D01*
X41585633Y4709580D01*
X41586896Y4757814D01*
X49941018Y4757814D01*
X49966579Y4489900D01*
X49967664Y4485466D01*
X49967665Y4485460D01*
X50010762Y4309338D01*
X50030547Y4228482D01*
X50131583Y3979037D01*
X50267569Y3746790D01*
X50435658Y3536605D01*
X50632327Y3352887D01*
X50853457Y3199484D01*
X51094416Y3079609D01*
X51098750Y3078188D01*
X51098753Y3078187D01*
X51345823Y2997193D01*
X51345829Y2997192D01*
X51350156Y2995773D01*
X51354647Y2994993D01*
X51354648Y2994993D01*
X51611538Y2950389D01*
X51611546Y2950388D01*
X51615319Y2949733D01*
X51619156Y2949542D01*
X51698777Y2945578D01*
X51698785Y2945578D01*
X51700348Y2945500D01*
X51868374Y2945500D01*
X51870642Y2945665D01*
X51870654Y2945665D01*
X52001457Y2955156D01*
X52068425Y2960015D01*
X52072880Y2960999D01*
X52072883Y2960999D01*
X52326770Y3017053D01*
X52326772Y3017054D01*
X52331226Y3018037D01*
X52582900Y3113387D01*
X52818172Y3244069D01*
X52971991Y3361460D01*
X53028491Y3404579D01*
X53028495Y3404583D01*
X53032116Y3407346D01*
X53220249Y3599797D01*
X53322802Y3740690D01*
X53375942Y3813696D01*
X53375947Y3813703D01*
X53378630Y3817390D01*
X53503941Y4055567D01*
X53593557Y4309338D01*
X53628165Y4484923D01*
X53644720Y4568917D01*
X53644721Y4568923D01*
X53645601Y4573389D01*
X53648745Y4636545D01*
X53658755Y4837617D01*
X53658755Y4837623D01*
X53658982Y4842186D01*
X53633421Y5110100D01*
X53612149Y5197035D01*
X53570539Y5367080D01*
X53569453Y5371518D01*
X53468417Y5620963D01*
X53332431Y5853210D01*
X53164342Y6063395D01*
X52967673Y6247113D01*
X52746543Y6400516D01*
X52505584Y6520391D01*
X52501250Y6521812D01*
X52501247Y6521813D01*
X52254177Y6602807D01*
X52254171Y6602808D01*
X52249844Y6604227D01*
X52242328Y6605532D01*
X51988462Y6649611D01*
X51988454Y6649612D01*
X51984681Y6650267D01*
X51974718Y6650763D01*
X51901223Y6654422D01*
X51901215Y6654422D01*
X51899652Y6654500D01*
X51731626Y6654500D01*
X51729358Y6654335D01*
X51729346Y6654335D01*
X51598543Y6644844D01*
X51531575Y6639985D01*
X51527120Y6639001D01*
X51527117Y6639001D01*
X51273230Y6582947D01*
X51273228Y6582946D01*
X51268774Y6581963D01*
X51017100Y6486613D01*
X51013114Y6484399D01*
X51013112Y6484398D01*
X50791928Y6361541D01*
X50781828Y6355931D01*
X50778196Y6353159D01*
X50571509Y6195421D01*
X50571505Y6195417D01*
X50567884Y6192654D01*
X50379751Y6000203D01*
X50368521Y5984774D01*
X50224058Y5786304D01*
X50224053Y5786297D01*
X50221370Y5782610D01*
X50096059Y5544433D01*
X50006443Y5290662D01*
X49983059Y5172022D01*
X49962722Y5068837D01*
X49954399Y5026611D01*
X49954172Y5022058D01*
X49954172Y5022055D01*
X49942961Y4796840D01*
X49941018Y4757814D01*
X41586896Y4757814D01*
X41587917Y4796840D01*
X41587766Y4803149D01*
X41568706Y5059631D01*
X41567329Y5068837D01*
X41510904Y5318204D01*
X41508180Y5327115D01*
X41415515Y5565400D01*
X41411504Y5573810D01*
X41284638Y5795779D01*
X41279427Y5803505D01*
X41239194Y5854540D01*
X41227268Y5863012D01*
X41215736Y5856526D01*
X40172022Y4812812D01*
X40164408Y4798868D01*
X39434356Y4798868D01*
X39435592Y4801132D01*
X39435461Y4802965D01*
X39431210Y4809580D01*
X38383568Y5857222D01*
X38370259Y5864489D01*
X38360224Y5857370D01*
X38347347Y5841887D01*
X38341936Y5834301D01*
X38209308Y5615736D01*
X38205070Y5607419D01*
X38106206Y5371656D01*
X38103245Y5362806D01*
X38040317Y5115022D01*
X38038695Y5105825D01*
X38013082Y4851458D01*
X38012837Y4842132D01*
X35962564Y4842132D01*
X37854912Y6313958D01*
X37920964Y6339992D01*
X37932269Y6340500D01*
X38605070Y6340500D01*
X38673191Y6320498D01*
X38719684Y6266842D01*
X38720662Y6260247D01*
X38739732Y6219478D01*
X39787188Y5172022D01*
X39801132Y5164408D01*
X39802965Y5164539D01*
X39809580Y5168790D01*
X40856384Y6215594D01*
X40875542Y6250678D01*
X40880808Y6274885D01*
X40931010Y6325087D01*
X40991396Y6340500D01*
X41667542Y6340500D01*
X41671286Y6340950D01*
X41671288Y6340950D01*
X41687639Y6342915D01*
X41729018Y6347887D01*
X41732673Y6348778D01*
X41732677Y6348779D01*
X41762006Y6355931D01*
X41787018Y6362030D01*
X41819685Y6372322D01*
X41905059Y6426756D01*
X41956326Y6475870D01*
X41960539Y6480696D01*
X41980820Y6503934D01*
X41986744Y6510721D01*
X41991203Y6520391D01*
X42026546Y6597050D01*
X42026546Y6597051D01*
X42029137Y6602670D01*
X42045713Y6671705D01*
X42052561Y6745251D01*
X41981749Y8161503D01*
X41978009Y8194288D01*
X41972373Y8225760D01*
X41932567Y8324390D01*
X41928950Y8329792D01*
X41928948Y8329796D01*
X41894628Y8381054D01*
X41893068Y8383384D01*
X41864007Y8419377D01*
X41780782Y8477044D01*
X41715658Y8505318D01*
X41671749Y8519886D01*
X41662747Y8520199D01*
X41662746Y8520199D01*
X41576749Y8523188D01*
X41576747Y8523188D01*
X41570558Y8523403D01*
X41500486Y8511979D01*
X41497757Y8511280D01*
X41497754Y8511279D01*
X41486782Y8508467D01*
X41415828Y8510930D01*
X41357470Y8551364D01*
X41330235Y8616929D01*
X41329500Y8630522D01*
X41329499Y10669338D01*
X41329499Y10672756D01*
X41322798Y10734449D01*
X41324787Y10734665D01*
X41327944Y10795035D01*
X41369394Y10852675D01*
X41435427Y10878756D01*
X41447269Y10879271D01*
X41461025Y10879221D01*
X41472717Y10879179D01*
X41472719Y10879179D01*
X41478905Y10879157D01*
X41548587Y10892757D01*
X41593025Y10905632D01*
X41627740Y10927767D01*
X41673179Y10956739D01*
X41673183Y10956742D01*
X41678399Y10960068D01*
X41729665Y11009183D01*
X41760079Y11044029D01*
X41802472Y11135979D01*
X41819048Y11205013D01*
X41825896Y11278559D01*
X41665161Y14493251D01*
X41658098Y14541768D01*
X41646869Y14587818D01*
X41640976Y14608291D01*
X41590873Y14696278D01*
X41544380Y14749934D01*
X41511091Y14782056D01*
X41421372Y14828987D01*
X41415436Y14830730D01*
X41357574Y14847720D01*
X41357570Y14847721D01*
X41353251Y14848989D01*
X41348803Y14849629D01*
X41348796Y14849630D01*
X41284590Y14858861D01*
X41284583Y14858861D01*
X41280142Y14859500D01*
X41126500Y14859500D01*
X41058379Y14879502D01*
X41011886Y14933158D01*
X41000500Y14985500D01*
X41000500Y15727885D01*
X40996025Y15743124D01*
X40994635Y15744329D01*
X40986952Y15746000D01*
X39412000Y15746000D01*
X39343879Y15766002D01*
X39297386Y15819658D01*
X39286000Y15872000D01*
X39286000Y16272115D01*
X39794000Y16272115D01*
X39798475Y16256876D01*
X39799865Y16255671D01*
X39807548Y16254000D01*
X40982384Y16254000D01*
X40997623Y16258475D01*
X40998828Y16259865D01*
X41000499Y16267548D01*
X41000499Y17044669D01*
X41000129Y17051490D01*
X40994605Y17102352D01*
X40990979Y17117604D01*
X40945824Y17238054D01*
X40937286Y17253649D01*
X40860785Y17355724D01*
X40848224Y17368285D01*
X40746149Y17444786D01*
X40730554Y17453324D01*
X40610106Y17498478D01*
X40594851Y17502105D01*
X40543986Y17507631D01*
X40537172Y17508000D01*
X39812115Y17508000D01*
X39796876Y17503525D01*
X39795671Y17502135D01*
X39794000Y17494452D01*
X39794000Y16272115D01*
X39286000Y16272115D01*
X39286000Y17489884D01*
X39281525Y17505123D01*
X39280135Y17506328D01*
X39272452Y17507999D01*
X38558437Y17507999D01*
X38490316Y17528001D01*
X38443823Y17581657D01*
X38436927Y17600663D01*
X38436921Y17600686D01*
X38436919Y17600690D01*
X38434834Y17608291D01*
X38384731Y17696278D01*
X38338238Y17749934D01*
X38304949Y17782056D01*
X38215230Y17828987D01*
X38209294Y17830730D01*
X38151432Y17847720D01*
X38151428Y17847721D01*
X38147109Y17848989D01*
X38142661Y17849629D01*
X38142654Y17849630D01*
X38078448Y17858861D01*
X38078441Y17858861D01*
X38074000Y17859500D01*
X37698819Y17859500D01*
X37696050Y17859255D01*
X37696041Y17859255D01*
X37656092Y17855726D01*
X37656088Y17855725D01*
X37653332Y17855482D01*
X37609843Y17847739D01*
X37608820Y17847520D01*
X37608814Y17847519D01*
X37604999Y17846703D01*
X37592312Y17843989D01*
X37500775Y17800711D01*
X37443745Y17758427D01*
X37409189Y17727673D01*
X37355582Y17641777D01*
X37353394Y17635992D01*
X37332784Y17581501D01*
X37330465Y17575371D01*
X37318021Y17530817D01*
X37318140Y17521807D01*
X37318140Y17521804D01*
X37319280Y17435761D01*
X37319362Y17429574D01*
X37326596Y17395569D01*
X37321204Y17324777D01*
X37278396Y17268139D01*
X37211762Y17243635D01*
X37184948Y17244705D01*
X37182495Y17245067D01*
X37177035Y17246378D01*
X37069485Y17252579D01*
X36967541Y17258458D01*
X36967538Y17258458D01*
X36961934Y17258781D01*
X36748036Y17232897D01*
X36645070Y17201220D01*
X36547465Y17171193D01*
X36547461Y17171191D01*
X36542103Y17169543D01*
X36537123Y17166973D01*
X36537119Y17166971D01*
X36497855Y17146705D01*
X36350643Y17070723D01*
X36179708Y16939561D01*
X36128857Y16883676D01*
X36093522Y16844843D01*
X36034702Y16780201D01*
X36031721Y16775450D01*
X36031721Y16775449D01*
X35958880Y16659330D01*
X35920208Y16597682D01*
X35918114Y16592472D01*
X35846061Y16413235D01*
X35802095Y16357490D01*
X35734970Y16334365D01*
X35665998Y16351202D01*
X35617078Y16402654D01*
X35607620Y16426983D01*
X35597352Y16464516D01*
X35595872Y16469927D01*
X35537422Y16592472D01*
X35505532Y16659330D01*
X35505531Y16659332D01*
X35503115Y16664397D01*
X35397020Y16812044D01*
X35373512Y16879034D01*
X35389954Y16948101D01*
X35441126Y16997314D01*
X35458129Y17004296D01*
X35460183Y17004714D01*
X35525653Y17032176D01*
X35566546Y17053800D01*
X35573000Y17060084D01*
X35573002Y17060085D01*
X35634658Y17120113D01*
X35634659Y17120114D01*
X35639093Y17124431D01*
X35642600Y17129530D01*
X35676777Y17179226D01*
X35676781Y17179232D01*
X35679323Y17182929D01*
X35704391Y17233571D01*
X35710091Y17245085D01*
X35710093Y17245089D01*
X35712090Y17249124D01*
X35715151Y17258458D01*
X35948043Y17968749D01*
X35948044Y17968753D01*
X35949349Y17972733D01*
X35961923Y18040273D01*
X35965315Y18106314D01*
X35964170Y18147365D01*
X35933915Y18243990D01*
X35910928Y18286088D01*
X35901243Y18303825D01*
X35901238Y18303833D01*
X35899890Y18306302D01*
X35874189Y18344766D01*
X35876708Y18346449D01*
X35852624Y18396779D01*
X35851000Y18416943D01*
X35851000Y18444594D01*
X35871002Y18512715D01*
X35901436Y18545421D01*
X35956835Y18586939D01*
X36023342Y18611786D01*
X36092724Y18596732D01*
X36139544Y18552414D01*
X36170427Y18502508D01*
X36179460Y18491110D01*
X36292129Y18378637D01*
X36303540Y18369625D01*
X36439063Y18286088D01*
X36452241Y18279944D01*
X36603766Y18229685D01*
X36617132Y18226819D01*
X36709770Y18217328D01*
X36716185Y18217000D01*
X36790385Y18217000D01*
X36805624Y18221475D01*
X36806829Y18222865D01*
X36808500Y18230548D01*
X36808500Y18235115D01*
X37316500Y18235115D01*
X37320975Y18219876D01*
X37322365Y18218671D01*
X37330048Y18217000D01*
X37408766Y18217000D01*
X37415282Y18217337D01*
X37509132Y18227075D01*
X37522528Y18229968D01*
X37673953Y18280488D01*
X37687115Y18286653D01*
X37822492Y18370426D01*
X37833890Y18379460D01*
X37946363Y18492129D01*
X37955375Y18503540D01*
X38038912Y18639063D01*
X38045056Y18652241D01*
X38095315Y18803766D01*
X38098181Y18817132D01*
X38107672Y18909770D01*
X38108000Y18916185D01*
X38108000Y18927885D01*
X38103525Y18943124D01*
X38102135Y18944329D01*
X38094452Y18946000D01*
X37334615Y18946000D01*
X37319376Y18941525D01*
X37318171Y18940135D01*
X37316500Y18932452D01*
X37316500Y18235115D01*
X36808500Y18235115D01*
X36808500Y19472115D01*
X37316500Y19472115D01*
X37320975Y19456876D01*
X37322365Y19455671D01*
X37330048Y19454000D01*
X38089885Y19454000D01*
X38105124Y19458475D01*
X38106329Y19459865D01*
X38108000Y19467548D01*
X38108000Y19483766D01*
X38107663Y19490282D01*
X38097925Y19584132D01*
X38095032Y19597528D01*
X38044512Y19748953D01*
X38038347Y19762115D01*
X37954574Y19897492D01*
X37945540Y19908890D01*
X37832871Y20021363D01*
X37821460Y20030375D01*
X37685937Y20113912D01*
X37672759Y20120056D01*
X37521234Y20170315D01*
X37507868Y20173181D01*
X37415230Y20182672D01*
X37408815Y20183000D01*
X37334615Y20183000D01*
X37319376Y20178525D01*
X37318171Y20177135D01*
X37316500Y20169452D01*
X37316500Y19472115D01*
X36808500Y19472115D01*
X36808500Y20164885D01*
X36804025Y20180124D01*
X36786309Y20195475D01*
X36756251Y20211887D01*
X36722224Y20274199D01*
X36725616Y20340242D01*
X37039840Y21298583D01*
X37039841Y21298588D01*
X37040590Y21300871D01*
X37041165Y21303209D01*
X37049397Y21336686D01*
X37049399Y21336698D01*
X37049966Y21339002D01*
X37050358Y21341348D01*
X37055836Y21374169D01*
X37055838Y21374183D01*
X37056226Y21376509D01*
X37059742Y21415625D01*
X37081944Y23014189D01*
X37080647Y23043953D01*
X37077735Y23072692D01*
X37047107Y23171278D01*
X37012978Y23233533D01*
X37001483Y23250674D01*
X36992233Y23264467D01*
X36992232Y23264468D01*
X36987213Y23271952D01*
X36950526Y23302509D01*
X36936804Y23313938D01*
X37417099Y23313938D01*
X37426395Y23301923D01*
X37477600Y23266069D01*
X37487095Y23260586D01*
X37684553Y23168510D01*
X37694845Y23164764D01*
X37905294Y23108375D01*
X37916087Y23106472D01*
X38133131Y23087483D01*
X38144081Y23087483D01*
X38361125Y23106472D01*
X38371918Y23108375D01*
X38582367Y23164764D01*
X38592659Y23168510D01*
X38790117Y23260586D01*
X38799612Y23266069D01*
X38851654Y23302509D01*
X38860030Y23312988D01*
X38852962Y23326434D01*
X38151418Y24027978D01*
X38137474Y24035592D01*
X38135641Y24035461D01*
X38129026Y24031210D01*
X37423529Y23325713D01*
X37417099Y23313938D01*
X36936804Y23313938D01*
X36914170Y23332790D01*
X36914169Y23332791D01*
X36909413Y23336752D01*
X36847044Y23370673D01*
X36819029Y23382812D01*
X36812870Y23385481D01*
X36812868Y23385481D01*
X36804598Y23389065D01*
X36795653Y23390173D01*
X36795647Y23390175D01*
X36794235Y23390350D01*
X36792929Y23390916D01*
X36786959Y23392543D01*
X36787193Y23393401D01*
X36729091Y23418578D01*
X36689550Y23477544D01*
X36686152Y23539975D01*
X36689184Y23555214D01*
X36693106Y23574933D01*
X36693106Y23836544D01*
X36713108Y23904665D01*
X36766764Y23951158D01*
X36837038Y23961262D01*
X36901618Y23931768D01*
X36933301Y23889794D01*
X36999192Y23748489D01*
X37004675Y23738994D01*
X37041115Y23686952D01*
X37051594Y23678576D01*
X37065040Y23685644D01*
X37766584Y24387188D01*
X37772962Y24398868D01*
X38503014Y24398868D01*
X38503145Y24397035D01*
X38507396Y24390420D01*
X39212893Y23684923D01*
X39224668Y23678493D01*
X39236683Y23687789D01*
X39272537Y23738994D01*
X39278020Y23748489D01*
X39370096Y23945947D01*
X39373842Y23956239D01*
X39430231Y24166688D01*
X39432134Y24177481D01*
X39451123Y24394525D01*
X39451123Y24405475D01*
X39432134Y24622519D01*
X39430231Y24633312D01*
X39373842Y24843761D01*
X39370096Y24854053D01*
X39278020Y25051511D01*
X39272537Y25061006D01*
X39236097Y25113048D01*
X39225618Y25121424D01*
X39212172Y25114356D01*
X38510628Y24412812D01*
X38503014Y24398868D01*
X37772962Y24398868D01*
X37774198Y24401132D01*
X37774067Y24402965D01*
X37769816Y24409580D01*
X37064319Y25115077D01*
X37052544Y25121507D01*
X37040529Y25112211D01*
X37004675Y25061006D01*
X36999192Y25051511D01*
X36933300Y24910205D01*
X36886382Y24856920D01*
X36818105Y24837459D01*
X36750145Y24858001D01*
X36704080Y24912024D01*
X36693105Y24963455D01*
X36693105Y25225066D01*
X36690079Y25240279D01*
X36696409Y25310991D01*
X36739965Y25367057D01*
X36797462Y25389810D01*
X36815932Y25392204D01*
X36815939Y25392205D01*
X36818722Y25392566D01*
X36821464Y25393174D01*
X36821476Y25393176D01*
X36855085Y25400627D01*
X36855087Y25400628D01*
X36863884Y25402578D01*
X36952558Y25451455D01*
X36994763Y25487012D01*
X37417182Y25487012D01*
X37424250Y25473566D01*
X38125794Y24772022D01*
X38139738Y24764408D01*
X38141571Y24764539D01*
X38148186Y24768790D01*
X38853683Y25474287D01*
X38860113Y25486062D01*
X38850817Y25498077D01*
X38799612Y25533931D01*
X38790117Y25539414D01*
X38592659Y25631490D01*
X38582367Y25635236D01*
X38371918Y25691625D01*
X38361125Y25693528D01*
X38144081Y25712517D01*
X38133131Y25712517D01*
X37916087Y25693528D01*
X37905294Y25691625D01*
X37694845Y25635236D01*
X37684553Y25631490D01*
X37487095Y25539414D01*
X37477600Y25533931D01*
X37425558Y25497491D01*
X37417182Y25487012D01*
X36994763Y25487012D01*
X37006854Y25497198D01*
X37017141Y25507566D01*
X37033088Y25523640D01*
X37033090Y25523642D01*
X37039435Y25530038D01*
X37087607Y25619096D01*
X37103004Y25668959D01*
X37107223Y25682624D01*
X37107224Y25682627D01*
X37108553Y25686932D01*
X37109295Y25691625D01*
X37119375Y25755435D01*
X37120079Y25759888D01*
X37120142Y25764392D01*
X37209151Y32172980D01*
X37737725Y32172980D01*
X37746438Y32161460D01*
X37848737Y32086452D01*
X37856636Y32081516D01*
X38082902Y31962472D01*
X38091451Y31958755D01*
X38332816Y31874467D01*
X38341825Y31872053D01*
X38593004Y31824365D01*
X38602261Y31823311D01*
X38857732Y31813272D01*
X38867046Y31813598D01*
X39121184Y31841430D01*
X39130361Y31843131D01*
X39377593Y31908222D01*
X39386413Y31911259D01*
X39621313Y32012180D01*
X39629585Y32016487D01*
X39846982Y32151016D01*
X39854529Y32156500D01*
X39856820Y32158439D01*
X39865257Y32171242D01*
X39859193Y32181597D01*
X38812812Y33227978D01*
X38798868Y33235592D01*
X38797035Y33235461D01*
X38790420Y33231210D01*
X37744383Y32185173D01*
X37737725Y32172980D01*
X37209151Y32172980D01*
X37212507Y32414634D01*
X37233453Y32482470D01*
X37287749Y32528213D01*
X37347633Y32538552D01*
X37371257Y32536834D01*
X37385260Y32544470D01*
X38427978Y33587188D01*
X38434356Y33598868D01*
X39164408Y33598868D01*
X39164539Y33597035D01*
X39168790Y33590420D01*
X40218004Y32541206D01*
X40230384Y32534446D01*
X40238725Y32540690D01*
X40368800Y32742914D01*
X40373243Y32751098D01*
X40478249Y32984204D01*
X40481439Y32992969D01*
X40550835Y33239026D01*
X40552695Y33248168D01*
X40585152Y33503293D01*
X40585633Y33509580D01*
X40587917Y33596840D01*
X40587766Y33603149D01*
X40568706Y33859631D01*
X40567329Y33868837D01*
X40510904Y34118204D01*
X40508180Y34127115D01*
X40415515Y34365400D01*
X40411504Y34373810D01*
X40306337Y34557814D01*
X49941018Y34557814D01*
X49966579Y34289900D01*
X50030547Y34028482D01*
X50131583Y33779037D01*
X50267569Y33546790D01*
X50435658Y33336605D01*
X50632327Y33152887D01*
X50853457Y32999484D01*
X51094416Y32879609D01*
X51098750Y32878188D01*
X51098753Y32878187D01*
X51345823Y32797193D01*
X51345829Y32797192D01*
X51350156Y32795773D01*
X51354647Y32794993D01*
X51354648Y32794993D01*
X51611538Y32750389D01*
X51611546Y32750388D01*
X51615319Y32749733D01*
X51619156Y32749542D01*
X51698777Y32745578D01*
X51698785Y32745578D01*
X51700348Y32745500D01*
X51868374Y32745500D01*
X51870642Y32745665D01*
X51870654Y32745665D01*
X52001457Y32755156D01*
X52068425Y32760015D01*
X52072880Y32760999D01*
X52072883Y32760999D01*
X52326770Y32817053D01*
X52326772Y32817054D01*
X52331226Y32818037D01*
X52582900Y32913387D01*
X52818172Y33044069D01*
X52964842Y33156004D01*
X53028491Y33204579D01*
X53028495Y33204583D01*
X53032116Y33207346D01*
X53220249Y33399797D01*
X53246149Y33435379D01*
X53375942Y33613696D01*
X53375947Y33613703D01*
X53378630Y33617390D01*
X53503941Y33855567D01*
X53593557Y34109338D01*
X53618688Y34236844D01*
X53644720Y34368917D01*
X53644721Y34368923D01*
X53645601Y34373389D01*
X53654782Y34557814D01*
X53658755Y34637617D01*
X53658755Y34637623D01*
X53658982Y34642186D01*
X53633421Y34910100D01*
X53614995Y34985404D01*
X53570539Y35167080D01*
X53569453Y35171518D01*
X53468417Y35420963D01*
X53332431Y35653210D01*
X53179372Y35844601D01*
X53167194Y35859829D01*
X53167193Y35859831D01*
X53164342Y35863395D01*
X52967673Y36047113D01*
X52746543Y36200516D01*
X52505584Y36320391D01*
X52501250Y36321812D01*
X52501247Y36321813D01*
X52254177Y36402807D01*
X52254171Y36402808D01*
X52249844Y36404227D01*
X52245352Y36405007D01*
X51988462Y36449611D01*
X51988454Y36449612D01*
X51984681Y36450267D01*
X51974718Y36450763D01*
X51901223Y36454422D01*
X51901215Y36454422D01*
X51899652Y36454500D01*
X51731626Y36454500D01*
X51729358Y36454335D01*
X51729346Y36454335D01*
X51598543Y36444844D01*
X51531575Y36439985D01*
X51527120Y36439001D01*
X51527117Y36439001D01*
X51273230Y36382947D01*
X51273228Y36382946D01*
X51268774Y36381963D01*
X51017100Y36286613D01*
X50781828Y36155931D01*
X50778196Y36153159D01*
X50571509Y35995421D01*
X50571505Y35995417D01*
X50567884Y35992654D01*
X50564699Y35989396D01*
X50564698Y35989395D01*
X50524047Y35947811D01*
X50379751Y35800203D01*
X50377066Y35796514D01*
X50224058Y35586304D01*
X50224053Y35586297D01*
X50221370Y35582610D01*
X50096059Y35344433D01*
X50070766Y35272809D01*
X50016813Y35120026D01*
X50006443Y35090662D01*
X49981312Y34963156D01*
X49962905Y34869765D01*
X49954399Y34826611D01*
X49954172Y34822058D01*
X49954172Y34822055D01*
X49943293Y34603505D01*
X49941018Y34557814D01*
X40306337Y34557814D01*
X40284638Y34595779D01*
X40279427Y34603505D01*
X40239194Y34654540D01*
X40227268Y34663012D01*
X40215736Y34656526D01*
X39172022Y33612812D01*
X39164408Y33598868D01*
X38434356Y33598868D01*
X38435592Y33601132D01*
X38435461Y33602965D01*
X38431210Y33609580D01*
X37383568Y34657222D01*
X37360039Y34670071D01*
X37311141Y34680708D01*
X37260940Y34730911D01*
X37245540Y34793045D01*
X37248821Y35029254D01*
X37735159Y35029254D01*
X37739732Y35019478D01*
X38787188Y33972022D01*
X38801132Y33964408D01*
X38802965Y33964539D01*
X38809580Y33968790D01*
X39856384Y35015594D01*
X39862768Y35027284D01*
X39853357Y35039394D01*
X39711315Y35137932D01*
X39703288Y35142660D01*
X39473985Y35255740D01*
X39465352Y35259228D01*
X39221851Y35337172D01*
X39212790Y35339348D01*
X38960445Y35380445D01*
X38951158Y35381257D01*
X38695522Y35384604D01*
X38686211Y35384034D01*
X38432885Y35349558D01*
X38423766Y35347620D01*
X38178328Y35276081D01*
X38169575Y35272809D01*
X37937406Y35165777D01*
X37929251Y35161257D01*
X37744297Y35039996D01*
X37735159Y35029254D01*
X37248821Y35029254D01*
X37257653Y35665170D01*
X37257653Y35665175D01*
X37257701Y35668647D01*
X37252173Y35725650D01*
X37240799Y35779741D01*
X37233072Y35808291D01*
X37182969Y35896278D01*
X37136476Y35949934D01*
X37103187Y35982056D01*
X37013468Y36028987D01*
X37007532Y36030730D01*
X36949670Y36047720D01*
X36949666Y36047721D01*
X36945347Y36048989D01*
X36940899Y36049629D01*
X36940892Y36049630D01*
X36876686Y36058861D01*
X36876679Y36058861D01*
X36872238Y36059500D01*
X31313865Y36059500D01*
X31271586Y36056033D01*
X31231079Y36049344D01*
X31216677Y36046545D01*
X31210202Y36043680D01*
X31210198Y36043679D01*
X31129744Y36008083D01*
X31129741Y36008081D01*
X31124083Y36005578D01*
X31119021Y36002018D01*
X31119019Y36002017D01*
X31068309Y35966356D01*
X31068301Y35966350D01*
X31066009Y35964738D01*
X31063875Y35962933D01*
X31063865Y35962925D01*
X31037572Y35940682D01*
X31037570Y35940680D01*
X31030694Y35934863D01*
X31025735Y35927344D01*
X31025734Y35927343D01*
X31001698Y35890899D01*
X30974947Y35850340D01*
X30948171Y35784586D01*
X30947085Y35780222D01*
X30947083Y35780216D01*
X30932643Y35722193D01*
X30930333Y35712909D01*
X30823822Y34663012D01*
X30768074Y34113500D01*
X30746243Y33898307D01*
X30609874Y32554094D01*
X30609873Y32554094D01*
X30609874Y32554090D01*
X30608247Y32538061D01*
X29834741Y24913500D01*
X29812910Y24698307D01*
X29699613Y23581523D01*
X29698035Y23565968D01*
X29582058Y22422767D01*
X29576987Y22372783D01*
X29550211Y22307029D01*
X29492137Y22266189D01*
X29451630Y22259500D01*
X18324435Y22259500D01*
X18270861Y22253910D01*
X18219955Y22243169D01*
X18218395Y22242757D01*
X18218392Y22242756D01*
X18202190Y22238474D01*
X18202189Y22238474D01*
X18194661Y22236484D01*
X18187845Y22232715D01*
X18187846Y22232715D01*
X18111470Y22190478D01*
X18111467Y22190476D01*
X18106055Y22187483D01*
X18051823Y22141664D01*
X18019291Y22108782D01*
X17971242Y22019657D01*
X17969426Y22013746D01*
X17969425Y22013744D01*
X17965974Y22002513D01*
X17950390Y21951792D01*
X17938965Y21878819D01*
X17926972Y20919338D01*
X17911899Y19713500D01*
X17908922Y19475359D01*
X17901973Y18919478D01*
X17899061Y18686500D01*
X17871898Y16513500D01*
X17868920Y16275257D01*
X17795886Y10432498D01*
X17795198Y10377456D01*
X17778547Y9045376D01*
X17778547Y9045374D01*
X17778480Y9039995D01*
X17778480Y9039989D01*
X17760750Y7621569D01*
X17760183Y7576224D01*
X17742888Y6192654D01*
X17742115Y6130819D01*
X6492165Y6130819D01*
X6367673Y6247113D01*
X6146543Y6400516D01*
X5905584Y6520391D01*
X5901250Y6521812D01*
X5901247Y6521813D01*
X5654177Y6602807D01*
X5654171Y6602808D01*
X5649844Y6604227D01*
X5642328Y6605532D01*
X5388462Y6649611D01*
X5388454Y6649612D01*
X5384681Y6650267D01*
X5374718Y6650763D01*
X5301223Y6654422D01*
X5301215Y6654422D01*
X5299652Y6654500D01*
X5131626Y6654500D01*
X5129358Y6654335D01*
X5129346Y6654335D01*
X4998543Y6644844D01*
X4931575Y6639985D01*
X4927120Y6639001D01*
X4927117Y6639001D01*
X4673230Y6582947D01*
X4673228Y6582946D01*
X4668774Y6581963D01*
X4417100Y6486613D01*
X4413114Y6484399D01*
X4413112Y6484398D01*
X4191928Y6361541D01*
X4181828Y6355931D01*
X4178196Y6353159D01*
X3971509Y6195421D01*
X3971505Y6195417D01*
X3967884Y6192654D01*
X3779751Y6000203D01*
X3768521Y5984774D01*
X3624058Y5786304D01*
X3624053Y5786297D01*
X3621370Y5782610D01*
X3496059Y5544433D01*
X3406443Y5290662D01*
X3383059Y5172022D01*
X3362722Y5068837D01*
X3354399Y5026611D01*
X3354172Y5022058D01*
X3354172Y5022055D01*
X3342961Y4796840D01*
X3341018Y4757814D01*
X254500Y4757814D01*
X254500Y13972755D01*
X11020500Y13972755D01*
X11020501Y12277246D01*
X11027202Y12215553D01*
X11077929Y12080236D01*
X11083309Y12073057D01*
X11083311Y12073054D01*
X11104670Y12044555D01*
X11164596Y11964596D01*
X11171776Y11959215D01*
X11273054Y11883311D01*
X11273057Y11883309D01*
X11280236Y11877929D01*
X11288639Y11874779D01*
X11408158Y11829974D01*
X11408159Y11829974D01*
X11415553Y11827202D01*
X11423403Y11826349D01*
X11423404Y11826349D01*
X11473839Y11820870D01*
X11477245Y11820500D01*
X12984500Y11820500D01*
X13052621Y11800498D01*
X13099114Y11746842D01*
X13110500Y11694500D01*
X13110500Y10479925D01*
X13108949Y10460215D01*
X13106826Y10446810D01*
X13107171Y10440222D01*
X13107171Y10440218D01*
X13110327Y10380001D01*
X13110500Y10373407D01*
X13110500Y10353380D01*
X13110844Y10350109D01*
X13110844Y10350105D01*
X13112593Y10333461D01*
X13113110Y10326887D01*
X13116104Y10269765D01*
X13116611Y10260085D01*
X13118320Y10253708D01*
X13118320Y10253707D01*
X13120124Y10246977D01*
X13123728Y10227530D01*
X13125145Y10214044D01*
X13127187Y10207760D01*
X13145818Y10150418D01*
X13147691Y10144094D01*
X13165006Y10079476D01*
X13171167Y10067384D01*
X13178730Y10049125D01*
X13182925Y10036215D01*
X13211725Y9986332D01*
X13216376Y9978276D01*
X13219523Y9972480D01*
X13249893Y9912875D01*
X13254050Y9907742D01*
X13258432Y9902330D01*
X13269625Y9886045D01*
X13273116Y9879998D01*
X13273119Y9879995D01*
X13276415Y9874285D01*
X13280827Y9869385D01*
X13280830Y9869381D01*
X13321175Y9824575D01*
X13325463Y9819554D01*
X13338063Y9803994D01*
X13352210Y9789847D01*
X13356751Y9785063D01*
X13401530Y9735331D01*
X13412518Y9727348D01*
X13427546Y9714511D01*
X13833595Y9308462D01*
X13867621Y9246150D01*
X13870500Y9219367D01*
X13870501Y8551364D01*
X13870501Y7927244D01*
X13877202Y7865551D01*
X13927929Y7730235D01*
X13933309Y7723056D01*
X13933311Y7723053D01*
X14009214Y7621777D01*
X14014596Y7614596D01*
X14021777Y7609214D01*
X14123053Y7533311D01*
X14123056Y7533309D01*
X14130235Y7527929D01*
X14219953Y7494296D01*
X14258156Y7479974D01*
X14258158Y7479974D01*
X14265551Y7477202D01*
X14273401Y7476349D01*
X14273402Y7476349D01*
X14323837Y7470870D01*
X14327243Y7470500D01*
X15399843Y7470500D01*
X16472756Y7470501D01*
X16476150Y7470870D01*
X16476156Y7470870D01*
X16526591Y7476348D01*
X16526595Y7476349D01*
X16534449Y7477202D01*
X16669765Y7527929D01*
X16676944Y7533309D01*
X16676947Y7533311D01*
X16778223Y7609214D01*
X16785404Y7614596D01*
X16790786Y7621777D01*
X16866689Y7723053D01*
X16866691Y7723056D01*
X16872071Y7730235D01*
X16922798Y7865551D01*
X16929500Y7927243D01*
X16929499Y10072756D01*
X16928076Y10085859D01*
X16923652Y10126591D01*
X16923651Y10126595D01*
X16922798Y10134449D01*
X16872071Y10269765D01*
X16866691Y10276944D01*
X16866689Y10276947D01*
X16790786Y10378223D01*
X16785404Y10385404D01*
X16722567Y10432498D01*
X16676947Y10466689D01*
X16676944Y10466691D01*
X16669765Y10472071D01*
X16577898Y10506510D01*
X16541844Y10520026D01*
X16541842Y10520026D01*
X16534449Y10522798D01*
X16526599Y10523651D01*
X16526598Y10523651D01*
X16476154Y10529131D01*
X16476153Y10529131D01*
X16472757Y10529500D01*
X16390150Y10529500D01*
X15180634Y10529499D01*
X15112513Y10549501D01*
X15091539Y10566404D01*
X14926405Y10731538D01*
X14892379Y10793850D01*
X14889500Y10820633D01*
X14889500Y11694501D01*
X14909502Y11762622D01*
X14963158Y11809115D01*
X15015500Y11820501D01*
X16522754Y11820501D01*
X16526148Y11820870D01*
X16526154Y11820870D01*
X16576589Y11826348D01*
X16576593Y11826349D01*
X16584447Y11827202D01*
X16719764Y11877929D01*
X16726943Y11883309D01*
X16726946Y11883311D01*
X16828224Y11959215D01*
X16835404Y11964596D01*
X16895330Y12044555D01*
X16916689Y12073054D01*
X16916691Y12073057D01*
X16922071Y12080236D01*
X16972798Y12215553D01*
X16979500Y12277245D01*
X16979499Y13972754D01*
X16972798Y14034447D01*
X16922071Y14169764D01*
X16916691Y14176943D01*
X16916689Y14176946D01*
X16840785Y14278224D01*
X16835404Y14285404D01*
X16748939Y14350206D01*
X16726946Y14366689D01*
X16726943Y14366691D01*
X16719764Y14372071D01*
X16678442Y14387562D01*
X16591842Y14420026D01*
X16591841Y14420026D01*
X16584447Y14422798D01*
X16576597Y14423651D01*
X16576596Y14423651D01*
X16526152Y14429131D01*
X16526151Y14429131D01*
X16522755Y14429500D01*
X14000370Y14429500D01*
X11477246Y14429499D01*
X11473852Y14429130D01*
X11473846Y14429130D01*
X11423411Y14423652D01*
X11423407Y14423651D01*
X11415553Y14422798D01*
X11280236Y14372071D01*
X11273057Y14366691D01*
X11273054Y14366689D01*
X11251061Y14350206D01*
X11164596Y14285404D01*
X11159215Y14278224D01*
X11083311Y14176946D01*
X11083309Y14176943D01*
X11077929Y14169764D01*
X11027202Y14034447D01*
X11020500Y13972755D01*
X254500Y13972755D01*
X254500Y20922755D01*
X11020500Y20922755D01*
X11020501Y19227246D01*
X11027202Y19165553D01*
X11077929Y19030236D01*
X11083309Y19023057D01*
X11083311Y19023054D01*
X11144414Y18941525D01*
X11164596Y18914596D01*
X11171776Y18909215D01*
X11273054Y18833311D01*
X11273057Y18833309D01*
X11280236Y18827929D01*
X11288639Y18824779D01*
X11408158Y18779974D01*
X11408159Y18779974D01*
X11415553Y18777202D01*
X11423403Y18776349D01*
X11423404Y18776349D01*
X11473839Y18770870D01*
X11477245Y18770500D01*
X13999630Y18770500D01*
X16522754Y18770501D01*
X16526148Y18770870D01*
X16526154Y18770870D01*
X16576589Y18776348D01*
X16576593Y18776349D01*
X16584447Y18777202D01*
X16719764Y18827929D01*
X16726943Y18833309D01*
X16726946Y18833311D01*
X16828224Y18909215D01*
X16835404Y18914596D01*
X16855586Y18941525D01*
X16916689Y19023054D01*
X16916691Y19023057D01*
X16922071Y19030236D01*
X16972798Y19165553D01*
X16979500Y19227245D01*
X16979499Y20922754D01*
X16972798Y20984447D01*
X16922071Y21119764D01*
X16916691Y21126943D01*
X16916689Y21126946D01*
X16840785Y21228224D01*
X16835404Y21235404D01*
X16719764Y21322071D01*
X16720652Y21323256D01*
X16677371Y21366636D01*
X16662358Y21436027D01*
X16687245Y21502519D01*
X16698932Y21515990D01*
X17112451Y21929509D01*
X17127485Y21942350D01*
X17133131Y21946452D01*
X17138470Y21950331D01*
X17183258Y22000073D01*
X17187799Y22004857D01*
X17201936Y22018994D01*
X17214529Y22034546D01*
X17218807Y22039555D01*
X17259166Y22084377D01*
X17259167Y22084378D01*
X17263585Y22089285D01*
X17270374Y22101044D01*
X17281567Y22117329D01*
X17285948Y22122740D01*
X17285949Y22122741D01*
X17290106Y22127875D01*
X17297132Y22141664D01*
X17320478Y22187481D01*
X17323624Y22193276D01*
X17352191Y22242756D01*
X17357075Y22251215D01*
X17359117Y22257499D01*
X17359119Y22257504D01*
X17361269Y22264121D01*
X17368834Y22282385D01*
X17371996Y22288590D01*
X17371998Y22288595D01*
X17374994Y22294475D01*
X17392313Y22359111D01*
X17394180Y22365412D01*
X17414855Y22429044D01*
X17415545Y22435609D01*
X17415547Y22435618D01*
X17416275Y22442543D01*
X17419876Y22461976D01*
X17421679Y22468706D01*
X17423388Y22475084D01*
X17426889Y22541881D01*
X17427406Y22548455D01*
X17429156Y22565108D01*
X17429500Y22568380D01*
X17429500Y22588413D01*
X17429673Y22595007D01*
X17432829Y22655217D01*
X17432829Y22655222D01*
X17433174Y22661809D01*
X17431051Y22675214D01*
X17429500Y22694924D01*
X17429500Y24087751D01*
X17449502Y24155872D01*
X17462306Y24172550D01*
X17501521Y24215647D01*
X17501526Y24215654D01*
X17505298Y24219799D01*
X17610301Y24387188D01*
X17616809Y24397562D01*
X17616811Y24397566D01*
X17619792Y24402318D01*
X17700155Y24602228D01*
X17743848Y24813210D01*
X17745246Y24837459D01*
X17746895Y24866055D01*
X17746895Y24866059D01*
X17747000Y24867878D01*
X17747000Y25102168D01*
X17745282Y25121424D01*
X17736584Y25218878D01*
X17732726Y25262105D01*
X17722551Y25299301D01*
X17691381Y25413235D01*
X17675872Y25469927D01*
X17663727Y25495391D01*
X17585532Y25659330D01*
X17585531Y25659332D01*
X17583115Y25664397D01*
X17566922Y25686932D01*
X17460663Y25834807D01*
X17460661Y25834809D01*
X17457386Y25839367D01*
X17302660Y25989307D01*
X17204304Y26055399D01*
X17128488Y26106346D01*
X17128487Y26106346D01*
X17123827Y26109478D01*
X16926540Y26196081D01*
X16759418Y26236203D01*
X16722492Y26245068D01*
X16722491Y26245068D01*
X16717035Y26246378D01*
X16633078Y26251219D01*
X16507541Y26258458D01*
X16507538Y26258458D01*
X16501934Y26258781D01*
X16288036Y26232897D01*
X16185069Y26201220D01*
X16087465Y26171193D01*
X16087461Y26171191D01*
X16082103Y26169543D01*
X16077123Y26166973D01*
X16077119Y26166971D01*
X15981477Y26117606D01*
X15890643Y26070723D01*
X15719708Y25939561D01*
X15699878Y25917768D01*
X15629006Y25839880D01*
X15574702Y25780201D01*
X15571721Y25775450D01*
X15571721Y25775449D01*
X15481416Y25631490D01*
X15460208Y25597682D01*
X15415719Y25487012D01*
X15386061Y25413235D01*
X15342095Y25357490D01*
X15274970Y25334365D01*
X15205998Y25351202D01*
X15157078Y25402654D01*
X15147620Y25426983D01*
X15137352Y25464516D01*
X15135872Y25469927D01*
X15123727Y25495391D01*
X15045532Y25659330D01*
X15045531Y25659332D01*
X15043115Y25664397D01*
X15023722Y25691386D01*
X14920662Y25834808D01*
X14917386Y25839367D01*
X14918100Y25839880D01*
X14890749Y25900074D01*
X14889500Y25917768D01*
X14889500Y27379367D01*
X14909502Y27447488D01*
X14926405Y27468462D01*
X17572454Y30114511D01*
X17587482Y30127348D01*
X17598470Y30135331D01*
X17643249Y30185063D01*
X17647790Y30189847D01*
X17661937Y30203994D01*
X17674537Y30219554D01*
X17678825Y30224575D01*
X17719170Y30269381D01*
X17719173Y30269385D01*
X17723585Y30274285D01*
X17726881Y30279995D01*
X17726884Y30279998D01*
X17730375Y30286045D01*
X17741568Y30302330D01*
X17745950Y30307742D01*
X17750107Y30312875D01*
X17780477Y30372480D01*
X17783624Y30378276D01*
X17786943Y30384025D01*
X17817075Y30436215D01*
X17821270Y30449125D01*
X17828833Y30467384D01*
X17834994Y30479476D01*
X17852309Y30544094D01*
X17854182Y30550418D01*
X17872813Y30607760D01*
X17874855Y30614044D01*
X17876272Y30627530D01*
X17879876Y30646977D01*
X17881680Y30653707D01*
X17881680Y30653708D01*
X17883389Y30660085D01*
X17886890Y30726887D01*
X17887407Y30733461D01*
X17889156Y30750105D01*
X17889156Y30750109D01*
X17889500Y30753380D01*
X17889500Y30773407D01*
X17889673Y30780001D01*
X17892829Y30840218D01*
X17892829Y30840222D01*
X17893174Y30846810D01*
X17891051Y30860215D01*
X17889500Y30879925D01*
X17889500Y31944501D01*
X17909502Y32012622D01*
X17963158Y32059115D01*
X18015500Y32070501D01*
X18072756Y32070501D01*
X18076150Y32070870D01*
X18076156Y32070870D01*
X18126591Y32076348D01*
X18126595Y32076349D01*
X18134449Y32077202D01*
X18269765Y32127929D01*
X18276944Y32133309D01*
X18276947Y32133311D01*
X18378223Y32209214D01*
X18385404Y32214596D01*
X18390786Y32221777D01*
X18466689Y32323053D01*
X18466691Y32323056D01*
X18472071Y32330235D01*
X18522798Y32465551D01*
X18529500Y32527243D01*
X18529499Y34672756D01*
X18529130Y34676156D01*
X18523652Y34726591D01*
X18523651Y34726595D01*
X18522798Y34734449D01*
X18472071Y34869765D01*
X18466691Y34876944D01*
X18466689Y34876947D01*
X18390786Y34978223D01*
X18385404Y34985404D01*
X18345122Y35015594D01*
X18276947Y35066689D01*
X18276944Y35066691D01*
X18269765Y35072071D01*
X18180047Y35105704D01*
X18141844Y35120026D01*
X18141842Y35120026D01*
X18134449Y35122798D01*
X18126599Y35123651D01*
X18126598Y35123651D01*
X18076154Y35129131D01*
X18076153Y35129131D01*
X18072757Y35129500D01*
X17000157Y35129500D01*
X15927244Y35129499D01*
X15923850Y35129130D01*
X15923844Y35129130D01*
X15873409Y35123652D01*
X15873405Y35123651D01*
X15865551Y35122798D01*
X15730235Y35072071D01*
X15723056Y35066691D01*
X15723053Y35066689D01*
X15654878Y35015594D01*
X15614596Y34985404D01*
X15609214Y34978223D01*
X15533311Y34876947D01*
X15533309Y34876944D01*
X15527929Y34869765D01*
X15477202Y34734449D01*
X15470500Y34672757D01*
X15470501Y32527244D01*
X15477202Y32465551D01*
X15527929Y32330235D01*
X15533309Y32323056D01*
X15533311Y32323053D01*
X15609214Y32221777D01*
X15614596Y32214596D01*
X15621777Y32209214D01*
X15723053Y32133311D01*
X15723056Y32133309D01*
X15730235Y32127929D01*
X15819953Y32094296D01*
X15858156Y32079974D01*
X15858158Y32079974D01*
X15865551Y32077202D01*
X15873401Y32076349D01*
X15873402Y32076349D01*
X15923837Y32070870D01*
X15927243Y32070500D01*
X15984500Y32070500D01*
X16052621Y32050498D01*
X16099114Y31996842D01*
X16110500Y31944500D01*
X16110500Y31220633D01*
X16090498Y31152512D01*
X16073595Y31131538D01*
X13427546Y28485489D01*
X13412518Y28472652D01*
X13401530Y28464669D01*
X13397117Y28459767D01*
X13397115Y28459766D01*
X13356751Y28414937D01*
X13352210Y28410153D01*
X13338063Y28396006D01*
X13335986Y28393441D01*
X13325463Y28380446D01*
X13321175Y28375425D01*
X13280830Y28330619D01*
X13280827Y28330615D01*
X13276415Y28325715D01*
X13273119Y28320005D01*
X13273116Y28320002D01*
X13269625Y28313955D01*
X13258432Y28297670D01*
X13249893Y28287125D01*
X13219523Y28227520D01*
X13216376Y28221724D01*
X13182925Y28163785D01*
X13180884Y28157503D01*
X13178731Y28150877D01*
X13171167Y28132616D01*
X13165006Y28120524D01*
X13163296Y28114141D01*
X13147691Y28055906D01*
X13145818Y28049582D01*
X13125145Y27985956D01*
X13124455Y27979389D01*
X13124454Y27979385D01*
X13123728Y27972471D01*
X13120125Y27953028D01*
X13116611Y27939915D01*
X13116265Y27933318D01*
X13116265Y27933316D01*
X13113110Y27873113D01*
X13112593Y27866539D01*
X13110500Y27846620D01*
X13110500Y27826593D01*
X13110327Y27819999D01*
X13106826Y27753190D01*
X13107858Y27746675D01*
X13107858Y27746673D01*
X13108949Y27739786D01*
X13110500Y27720075D01*
X13110500Y26280433D01*
X13090498Y26212312D01*
X13036842Y26165819D01*
X12966568Y26155715D01*
X12901988Y26185209D01*
X12870548Y26230409D01*
X12870134Y26230182D01*
X12868019Y26234045D01*
X12866518Y26236203D01*
X12865824Y26238054D01*
X12857286Y26253649D01*
X12780785Y26355724D01*
X12768224Y26368285D01*
X12666149Y26444786D01*
X12650554Y26453324D01*
X12530106Y26498478D01*
X12514851Y26502105D01*
X12463986Y26507631D01*
X12457172Y26508000D01*
X11732115Y26508000D01*
X11716876Y26503525D01*
X11715671Y26502135D01*
X11714000Y26494452D01*
X11714000Y23510116D01*
X11718475Y23494877D01*
X11719865Y23493672D01*
X11727548Y23492001D01*
X12457169Y23492001D01*
X12463990Y23492371D01*
X12514852Y23497895D01*
X12530104Y23501521D01*
X12650554Y23546676D01*
X12666149Y23555214D01*
X12768224Y23631715D01*
X12780785Y23644276D01*
X12857286Y23746351D01*
X12865824Y23761946D01*
X12910978Y23882394D01*
X12914605Y23897649D01*
X12920131Y23948514D01*
X12920500Y23955328D01*
X12920500Y24020173D01*
X12940502Y24088294D01*
X12994158Y24134787D01*
X13064432Y24144891D01*
X13134185Y24110657D01*
X13163518Y24082232D01*
X13237340Y24010693D01*
X13242005Y24007559D01*
X13242004Y24007559D01*
X13353421Y23932690D01*
X13416173Y23890522D01*
X13613460Y23803919D01*
X13759939Y23768753D01*
X13788293Y23761946D01*
X13822965Y23753622D01*
X13906922Y23748781D01*
X14032459Y23741542D01*
X14032462Y23741542D01*
X14038066Y23741219D01*
X14251964Y23767103D01*
X14371635Y23803919D01*
X14452535Y23828807D01*
X14452539Y23828809D01*
X14457897Y23830457D01*
X14462877Y23833027D01*
X14462881Y23833029D01*
X14644374Y23926705D01*
X14644375Y23926705D01*
X14649357Y23929277D01*
X14820292Y24060439D01*
X14907129Y24155872D01*
X14961525Y24215652D01*
X14961527Y24215655D01*
X14965298Y24219799D01*
X15037942Y24335603D01*
X15076809Y24397562D01*
X15076811Y24397566D01*
X15079792Y24402318D01*
X15153939Y24586765D01*
X15197905Y24642510D01*
X15265030Y24665635D01*
X15334002Y24648798D01*
X15382922Y24597346D01*
X15392379Y24573019D01*
X15404128Y24530073D01*
X15406540Y24525015D01*
X15406542Y24525011D01*
X15468781Y24394525D01*
X15496885Y24335603D01*
X15622614Y24160633D01*
X15621900Y24160120D01*
X15649251Y24099926D01*
X15650500Y24082232D01*
X15650500Y23035632D01*
X15630498Y22967511D01*
X15613595Y22946537D01*
X14083462Y21416405D01*
X14021150Y21382379D01*
X13994367Y21379500D01*
X11635171Y21379499D01*
X11477246Y21379499D01*
X11473852Y21379130D01*
X11473846Y21379130D01*
X11423411Y21373652D01*
X11423407Y21373651D01*
X11415553Y21372798D01*
X11280236Y21322071D01*
X11273057Y21316691D01*
X11273054Y21316689D01*
X11185023Y21250713D01*
X11164596Y21235404D01*
X11159215Y21228224D01*
X11083311Y21126946D01*
X11083309Y21126943D01*
X11077929Y21119764D01*
X11027202Y20984447D01*
X11020500Y20922755D01*
X254500Y20922755D01*
X254500Y23955331D01*
X9999501Y23955331D01*
X9999871Y23948510D01*
X10005395Y23897648D01*
X10009021Y23882396D01*
X10054176Y23761946D01*
X10062714Y23746351D01*
X10139215Y23644276D01*
X10151776Y23631715D01*
X10253851Y23555214D01*
X10269446Y23546676D01*
X10389894Y23501522D01*
X10405149Y23497895D01*
X10456014Y23492369D01*
X10462828Y23492000D01*
X11187885Y23492000D01*
X11203124Y23496475D01*
X11204329Y23497865D01*
X11206000Y23505548D01*
X11206000Y24727885D01*
X11201525Y24743124D01*
X11200135Y24744329D01*
X11192452Y24746000D01*
X10017616Y24746000D01*
X10002377Y24741525D01*
X10001172Y24740135D01*
X9999501Y24732452D01*
X9999501Y23955331D01*
X254500Y23955331D01*
X254500Y25272115D01*
X9999500Y25272115D01*
X10003975Y25256876D01*
X10005365Y25255671D01*
X10013048Y25254000D01*
X11187885Y25254000D01*
X11203124Y25258475D01*
X11204329Y25259865D01*
X11206000Y25267548D01*
X11206000Y26489884D01*
X11201525Y26505123D01*
X11200135Y26506328D01*
X11192452Y26507999D01*
X10462831Y26507999D01*
X10456010Y26507629D01*
X10405148Y26502105D01*
X10389896Y26498479D01*
X10269446Y26453324D01*
X10253851Y26444786D01*
X10151776Y26368285D01*
X10139215Y26355724D01*
X10062714Y26253649D01*
X10054176Y26238054D01*
X10009022Y26117606D01*
X10005395Y26102351D01*
X9999869Y26051486D01*
X9999500Y26044672D01*
X9999500Y25272115D01*
X254500Y25272115D01*
X254500Y32172980D01*
X11137725Y32172980D01*
X11146438Y32161460D01*
X11248737Y32086452D01*
X11256636Y32081516D01*
X11482902Y31962472D01*
X11491451Y31958755D01*
X11732816Y31874467D01*
X11741825Y31872053D01*
X11993004Y31824365D01*
X12002261Y31823311D01*
X12257732Y31813272D01*
X12267046Y31813598D01*
X12521184Y31841430D01*
X12530361Y31843131D01*
X12777593Y31908222D01*
X12786413Y31911259D01*
X13021313Y32012180D01*
X13029585Y32016487D01*
X13246982Y32151016D01*
X13254529Y32156500D01*
X13256820Y32158439D01*
X13265257Y32171242D01*
X13259193Y32181597D01*
X12212812Y33227978D01*
X12198868Y33235592D01*
X12197035Y33235461D01*
X12190420Y33231210D01*
X11144383Y32185173D01*
X11137725Y32172980D01*
X254500Y32172980D01*
X254500Y34557814D01*
X3341018Y34557814D01*
X3366579Y34289900D01*
X3430547Y34028482D01*
X3531583Y33779037D01*
X3667569Y33546790D01*
X3835658Y33336605D01*
X4032327Y33152887D01*
X4253457Y32999484D01*
X4494416Y32879609D01*
X4498750Y32878188D01*
X4498753Y32878187D01*
X4745823Y32797193D01*
X4745829Y32797192D01*
X4750156Y32795773D01*
X4754647Y32794993D01*
X4754648Y32794993D01*
X5011538Y32750389D01*
X5011546Y32750388D01*
X5015319Y32749733D01*
X5019156Y32749542D01*
X5098777Y32745578D01*
X5098785Y32745578D01*
X5100348Y32745500D01*
X5268374Y32745500D01*
X5270642Y32745665D01*
X5270654Y32745665D01*
X5401457Y32755156D01*
X5468425Y32760015D01*
X5472880Y32760999D01*
X5472883Y32760999D01*
X5726770Y32817053D01*
X5726772Y32817054D01*
X5731226Y32818037D01*
X5982900Y32913387D01*
X6218172Y33044069D01*
X6364842Y33156004D01*
X6428491Y33204579D01*
X6428495Y33204583D01*
X6432116Y33207346D01*
X6620249Y33399797D01*
X6646149Y33435379D01*
X6775942Y33613696D01*
X6775947Y33613703D01*
X6778630Y33617390D01*
X6791647Y33642132D01*
X10412837Y33642132D01*
X10425103Y33386768D01*
X10426239Y33377513D01*
X10476117Y33126763D01*
X10478609Y33117777D01*
X10565000Y32877159D01*
X10568797Y32868631D01*
X10689802Y32643428D01*
X10694813Y32635562D01*
X10761583Y32546147D01*
X10772841Y32537698D01*
X10785260Y32544470D01*
X11827978Y33587188D01*
X11834356Y33598868D01*
X12564408Y33598868D01*
X12564539Y33597035D01*
X12568790Y33590420D01*
X13618004Y32541206D01*
X13630384Y32534446D01*
X13638725Y32540690D01*
X13768800Y32742914D01*
X13773243Y32751098D01*
X13878249Y32984204D01*
X13881439Y32992969D01*
X13950835Y33239026D01*
X13952695Y33248168D01*
X13985152Y33503293D01*
X13985633Y33509580D01*
X13987917Y33596840D01*
X13987766Y33603149D01*
X13968706Y33859631D01*
X13967329Y33868837D01*
X13910904Y34118204D01*
X13908180Y34127115D01*
X13815515Y34365400D01*
X13811504Y34373810D01*
X13684638Y34595779D01*
X13679427Y34603505D01*
X13639194Y34654540D01*
X13627268Y34663012D01*
X13615736Y34656526D01*
X12572022Y33612812D01*
X12564408Y33598868D01*
X11834356Y33598868D01*
X11835592Y33601132D01*
X11835461Y33602965D01*
X11831210Y33609580D01*
X10783568Y34657222D01*
X10770259Y34664489D01*
X10760224Y34657370D01*
X10747347Y34641887D01*
X10741936Y34634301D01*
X10609308Y34415736D01*
X10605070Y34407419D01*
X10506206Y34171656D01*
X10503245Y34162806D01*
X10440317Y33915022D01*
X10438695Y33905825D01*
X10413082Y33651458D01*
X10412837Y33642132D01*
X6791647Y33642132D01*
X6903941Y33855567D01*
X6993557Y34109338D01*
X7018688Y34236844D01*
X7044720Y34368917D01*
X7044721Y34368923D01*
X7045601Y34373389D01*
X7054782Y34557814D01*
X7058755Y34637617D01*
X7058755Y34637623D01*
X7058982Y34642186D01*
X7033421Y34910100D01*
X7014995Y34985404D01*
X7004265Y35029254D01*
X11135159Y35029254D01*
X11139732Y35019478D01*
X12187188Y33972022D01*
X12201132Y33964408D01*
X12202965Y33964539D01*
X12209580Y33968790D01*
X13256384Y35015594D01*
X13262768Y35027284D01*
X13253357Y35039394D01*
X13111315Y35137932D01*
X13103288Y35142660D01*
X12873985Y35255740D01*
X12865352Y35259228D01*
X12621851Y35337172D01*
X12612790Y35339348D01*
X12360445Y35380445D01*
X12351158Y35381257D01*
X12095522Y35384604D01*
X12086211Y35384034D01*
X11832885Y35349558D01*
X11823766Y35347620D01*
X11578328Y35276081D01*
X11569575Y35272809D01*
X11337406Y35165777D01*
X11329251Y35161257D01*
X11144297Y35039996D01*
X11135159Y35029254D01*
X7004265Y35029254D01*
X6970539Y35167080D01*
X6969453Y35171518D01*
X6868417Y35420963D01*
X6732431Y35653210D01*
X6579372Y35844601D01*
X6567194Y35859829D01*
X6567193Y35859831D01*
X6564342Y35863395D01*
X6367673Y36047113D01*
X6146543Y36200516D01*
X5905584Y36320391D01*
X5901250Y36321812D01*
X5901247Y36321813D01*
X5654177Y36402807D01*
X5654171Y36402808D01*
X5649844Y36404227D01*
X5645352Y36405007D01*
X5388462Y36449611D01*
X5388454Y36449612D01*
X5384681Y36450267D01*
X5374718Y36450763D01*
X5301223Y36454422D01*
X5301215Y36454422D01*
X5299652Y36454500D01*
X5131626Y36454500D01*
X5129358Y36454335D01*
X5129346Y36454335D01*
X4998543Y36444844D01*
X4931575Y36439985D01*
X4927120Y36439001D01*
X4927117Y36439001D01*
X4673230Y36382947D01*
X4673228Y36382946D01*
X4668774Y36381963D01*
X4417100Y36286613D01*
X4181828Y36155931D01*
X4178196Y36153159D01*
X3971509Y35995421D01*
X3971505Y35995417D01*
X3967884Y35992654D01*
X3964699Y35989396D01*
X3964698Y35989395D01*
X3924047Y35947811D01*
X3779751Y35800203D01*
X3777066Y35796514D01*
X3624058Y35586304D01*
X3624053Y35586297D01*
X3621370Y35582610D01*
X3496059Y35344433D01*
X3470766Y35272809D01*
X3416813Y35120026D01*
X3406443Y35090662D01*
X3381312Y34963156D01*
X3362905Y34869765D01*
X3354399Y34826611D01*
X3354172Y34822058D01*
X3354172Y34822055D01*
X3343293Y34603505D01*
X3341018Y34557814D01*
X254500Y34557814D01*
X254500Y40219500D01*
X274502Y40287621D01*
X328158Y40334114D01*
X380500Y40345500D01*
X57019500Y40345500D01*
X57087621Y40325498D01*
G37*
%TD.AperFunction*%
%TD*%
M02*
