G04 #@! TF.GenerationSoftware,KiCad,Pcbnew,7.0.10*
G04 #@! TF.CreationDate,2024-03-26T16:12:50-07:00*
G04 #@! TF.ProjectId,optLowPass,6f70744c-6f77-4506-9173-732e6b696361,rev?*
G04 #@! TF.SameCoordinates,Original*
G04 #@! TF.FileFunction,Soldermask,Top*
G04 #@! TF.FilePolarity,Negative*
%FSLAX46Y46*%
G04 Gerber Fmt 4.6, Leading zero omitted, Abs format (unit mm)*
G04 Created by KiCad (PCBNEW 7.0.10) date 2024-03-26 16:12:50*
%MOMM*%
%LPD*%
G01*
G04 APERTURE LIST*
G04 Aperture macros list*
%AMRoundRect*
0 Rectangle with rounded corners*
0 $1 Rounding radius*
0 $2 $3 $4 $5 $6 $7 $8 $9 X,Y pos of 4 corners*
0 Add a 4 corners polygon primitive as box body*
4,1,4,$2,$3,$4,$5,$6,$7,$8,$9,$2,$3,0*
0 Add four circle primitives for the rounded corners*
1,1,$1+$1,$2,$3*
1,1,$1+$1,$4,$5*
1,1,$1+$1,$6,$7*
1,1,$1+$1,$8,$9*
0 Add four rect primitives between the rounded corners*
20,1,$1+$1,$2,$3,$4,$5,0*
20,1,$1+$1,$4,$5,$6,$7,0*
20,1,$1+$1,$6,$7,$8,$9,0*
20,1,$1+$1,$8,$9,$2,$3,0*%
G04 Aperture macros list end*
%ADD10C,1.600000*%
%ADD11R,2.200000X2.200000*%
%ADD12O,2.200000X2.200000*%
%ADD13RoundRect,0.150000X-0.587500X-0.150000X0.587500X-0.150000X0.587500X0.150000X-0.587500X0.150000X0*%
%ADD14RoundRect,0.237500X0.250000X0.237500X-0.250000X0.237500X-0.250000X-0.237500X0.250000X-0.237500X0*%
%ADD15R,1.700000X1.700000*%
%ADD16O,1.700000X1.700000*%
%ADD17R,1.400000X1.400000*%
%ADD18C,1.400000*%
%ADD19C,2.600000*%
%ADD20RoundRect,0.237500X0.300000X0.237500X-0.300000X0.237500X-0.300000X-0.237500X0.300000X-0.237500X0*%
%ADD21R,1.270000X3.600000*%
%ADD22R,1.350000X4.200000*%
G04 APERTURE END LIST*
D10*
X127350000Y-131250000D03*
X127350000Y-136250000D03*
X135350000Y-131750000D03*
X135350000Y-136750000D03*
X127350000Y-140000000D03*
X127350000Y-145000000D03*
X135600000Y-142250000D03*
X135600000Y-147250000D03*
X113850000Y-149500000D03*
X108850000Y-149500000D03*
X127350000Y-109500000D03*
X127350000Y-114500000D03*
X135600000Y-110500000D03*
X135600000Y-115500000D03*
X127100000Y-119000000D03*
X127100000Y-124000000D03*
X135600000Y-121000000D03*
X135600000Y-126000000D03*
X114350000Y-128500000D03*
X109350000Y-128500000D03*
X127100000Y-89500000D03*
X127100000Y-94500000D03*
X135600000Y-89500000D03*
X135600000Y-94500000D03*
X127350000Y-97500000D03*
X127350000Y-102500000D03*
X135600000Y-100000000D03*
X135600000Y-105000000D03*
X114350000Y-107500000D03*
X109350000Y-107500000D03*
X127100000Y-67750000D03*
X127100000Y-72750000D03*
X135350000Y-68250000D03*
X135350000Y-73250000D03*
X127100000Y-76750000D03*
X127100000Y-81750000D03*
X135350000Y-78750000D03*
X135350000Y-83750000D03*
X114100000Y-87250000D03*
X109100000Y-87250000D03*
X127100000Y-45250000D03*
X127100000Y-50250000D03*
X135350000Y-46500000D03*
X135350000Y-51500000D03*
X127100000Y-54500000D03*
X127100000Y-59500000D03*
X135350000Y-57250000D03*
X135350000Y-62250000D03*
X132795000Y-142250000D03*
X132795000Y-147250000D03*
X133045000Y-121000000D03*
X133045000Y-126000000D03*
X129905000Y-131250000D03*
X129905000Y-136250000D03*
X129905000Y-109500000D03*
X129905000Y-114500000D03*
X132795000Y-131750000D03*
X132795000Y-136750000D03*
X133045000Y-110500000D03*
X133045000Y-115500000D03*
X129905000Y-140000000D03*
X129905000Y-145000000D03*
X129850000Y-119000000D03*
X129850000Y-124000000D03*
X113900000Y-146800000D03*
X108900000Y-146800000D03*
X114350000Y-125750000D03*
X109350000Y-125750000D03*
X133045000Y-100000000D03*
X133045000Y-105000000D03*
X132795000Y-78750000D03*
X132795000Y-83750000D03*
X132795000Y-57250000D03*
X132795000Y-62250000D03*
X129905000Y-89500000D03*
X129905000Y-94500000D03*
X129905000Y-67750000D03*
X129905000Y-72750000D03*
X129600000Y-45250000D03*
X129600000Y-50250000D03*
X133045000Y-89500000D03*
X133045000Y-94500000D03*
X132795000Y-68250000D03*
X132795000Y-73250000D03*
X132795000Y-46500000D03*
X132795000Y-51500000D03*
X129850000Y-97500000D03*
X129850000Y-102500000D03*
X129850000Y-76750000D03*
X129850000Y-81750000D03*
X129655000Y-54500000D03*
X129655000Y-59500000D03*
X114350000Y-104750000D03*
X109350000Y-104750000D03*
X114100000Y-84500000D03*
X109100000Y-84500000D03*
X114350000Y-64250000D03*
X109350000Y-64250000D03*
X114350000Y-61700000D03*
X109350000Y-61700000D03*
D11*
X91037500Y-143410000D03*
D12*
X91037500Y-135790000D03*
D13*
X94525000Y-45350000D03*
X94525000Y-47250000D03*
X96400000Y-46300000D03*
D14*
X91325000Y-68000000D03*
X89500000Y-68000000D03*
X91612500Y-44900000D03*
X89787500Y-44900000D03*
D13*
X95325000Y-88250000D03*
X95325000Y-90150000D03*
X97200000Y-89200000D03*
D14*
X91312500Y-70300000D03*
X89487500Y-70300000D03*
D15*
X82700000Y-44025000D03*
D16*
X82700000Y-46565000D03*
D17*
X95942500Y-80762500D03*
D18*
X103562500Y-80762500D03*
X108642500Y-80762500D03*
X113722500Y-80762500D03*
X113722500Y-73142500D03*
X108642500Y-73142500D03*
X103562500Y-73142500D03*
X95942500Y-73142500D03*
D19*
X124062500Y-99600000D03*
X124062500Y-105200000D03*
D11*
X90400000Y-58410000D03*
D12*
X90400000Y-50790000D03*
D15*
X82100000Y-135400000D03*
D16*
X82100000Y-137940000D03*
D20*
X83062500Y-141900000D03*
X81337500Y-141900000D03*
D17*
X96142500Y-121962500D03*
D18*
X103762500Y-121962500D03*
X108842500Y-121962500D03*
X113922500Y-121962500D03*
X113922500Y-114342500D03*
X108842500Y-114342500D03*
X103762500Y-114342500D03*
X96142500Y-114342500D03*
D19*
X123850000Y-131450000D03*
X123850000Y-137050000D03*
D13*
X95325000Y-109150000D03*
X95325000Y-111050000D03*
X97200000Y-110100000D03*
D14*
X91175000Y-88300000D03*
X89350000Y-88300000D03*
D17*
X96062500Y-101020000D03*
D18*
X103682500Y-101020000D03*
X108762500Y-101020000D03*
X113842500Y-101020000D03*
X113842500Y-93400000D03*
X108762500Y-93400000D03*
X103682500Y-93400000D03*
X96062500Y-93400000D03*
D20*
X91937500Y-146300000D03*
X90212500Y-146300000D03*
D17*
X96142500Y-58262500D03*
D18*
X103762500Y-58262500D03*
X108842500Y-58262500D03*
X113922500Y-58262500D03*
X113922500Y-50642500D03*
X108842500Y-50642500D03*
X103762500Y-50642500D03*
X96142500Y-50642500D03*
D13*
X94600000Y-130050000D03*
X94600000Y-131950000D03*
X96475000Y-131000000D03*
D14*
X91175000Y-90500000D03*
X89350000Y-90500000D03*
D17*
X96080000Y-142962500D03*
D18*
X103700000Y-142962500D03*
X108780000Y-142962500D03*
X113860000Y-142962500D03*
X113860000Y-135342500D03*
X108780000Y-135342500D03*
X103700000Y-135342500D03*
X96080000Y-135342500D03*
D19*
X123850000Y-46200000D03*
X123850000Y-51800000D03*
D21*
X103100000Y-150700000D03*
D22*
X105925000Y-150500000D03*
X100275000Y-150500000D03*
D20*
X91262500Y-61400000D03*
X89537500Y-61400000D03*
D19*
X123937500Y-147400000D03*
X123937500Y-141800000D03*
D14*
X91812500Y-111300000D03*
X89987500Y-111300000D03*
D11*
X90900000Y-122110000D03*
D12*
X90900000Y-114490000D03*
D19*
X124000000Y-78600000D03*
X124000000Y-84200000D03*
D15*
X128825000Y-150750000D03*
D16*
X131365000Y-150750000D03*
D14*
X91512500Y-47500000D03*
X89687500Y-47500000D03*
D19*
X123800000Y-56700000D03*
X123800000Y-62300000D03*
X124100000Y-89200000D03*
X124100000Y-94800000D03*
D14*
X91450000Y-130100000D03*
X89625000Y-130100000D03*
X91812500Y-108900000D03*
X89987500Y-108900000D03*
D20*
X91225000Y-103900000D03*
X89500000Y-103900000D03*
D19*
X124100000Y-67950000D03*
X124100000Y-73550000D03*
D21*
X103600000Y-42300000D03*
D22*
X100775000Y-42500000D03*
X106425000Y-42500000D03*
D19*
X124100000Y-110450000D03*
X124100000Y-116050000D03*
D11*
X90362500Y-101010000D03*
D12*
X90362500Y-93390000D03*
D20*
X91662500Y-125100000D03*
X89937500Y-125100000D03*
D15*
X81400000Y-91180000D03*
D16*
X81400000Y-93720000D03*
X81400000Y-96260000D03*
X81400000Y-98800000D03*
X81400000Y-101340000D03*
X81400000Y-103880000D03*
D15*
X130325000Y-42250000D03*
D16*
X132865000Y-42250000D03*
D13*
X95062500Y-67850000D03*
X95062500Y-69750000D03*
X96937500Y-68800000D03*
D15*
X81525000Y-146600000D03*
D16*
X84065000Y-146600000D03*
D14*
X91462500Y-132500000D03*
X89637500Y-132500000D03*
D19*
X124100000Y-120800000D03*
X124100000Y-126400000D03*
D20*
X91125000Y-83900000D03*
X89400000Y-83900000D03*
D11*
X90300000Y-80810000D03*
D12*
X90300000Y-73190000D03*
M02*
