%FSLAX45Y45*%
G04 Gerber Fmt 4.5, Leading zero omitted, Abs format (unit mm)*
G04 Created by KiCad (PCBNEW (6.0.2)) date 2022-11-12 12:22:01*
%MOMM*%
%LPD*%
G01*
G04 APERTURE LIST*
%TA.AperFunction,Profile*%
%ADD10C,0.100000*%
%TD*%
%ADD11C,0.200000*%
G04 APERTURE END LIST*
D10*
X7910000Y-4000000D02*
X14730000Y-4000000D01*
X14730000Y-4000000D02*
X14730000Y-15300000D01*
X14730000Y-15300000D02*
X7910000Y-15300000D01*
X7910000Y-15300000D02*
X7910000Y-4000000D01*
D11*
X8162619Y-15615476D02*
X8162619Y-15415476D01*
X8210238Y-15415476D01*
X8238809Y-15425000D01*
X8257857Y-15444048D01*
X8267381Y-15463095D01*
X8276905Y-15501190D01*
X8276905Y-15529762D01*
X8267381Y-15567857D01*
X8257857Y-15586905D01*
X8238809Y-15605952D01*
X8210238Y-15615476D01*
X8162619Y-15615476D01*
X8362619Y-15615476D02*
X8362619Y-15482143D01*
X8362619Y-15520238D02*
X8372143Y-15501190D01*
X8381667Y-15491667D01*
X8400714Y-15482143D01*
X8419762Y-15482143D01*
X8486429Y-15615476D02*
X8486429Y-15482143D01*
X8486429Y-15415476D02*
X8476905Y-15425000D01*
X8486429Y-15434524D01*
X8495952Y-15425000D01*
X8486429Y-15415476D01*
X8486429Y-15434524D01*
X8610238Y-15615476D02*
X8591190Y-15605952D01*
X8581667Y-15586905D01*
X8581667Y-15415476D01*
X8715000Y-15615476D02*
X8695952Y-15605952D01*
X8686429Y-15586905D01*
X8686429Y-15415476D01*
X8943571Y-15615476D02*
X8943571Y-15415476D01*
X9010238Y-15558333D01*
X9076905Y-15415476D01*
X9076905Y-15615476D01*
X9257857Y-15615476D02*
X9257857Y-15510714D01*
X9248333Y-15491667D01*
X9229286Y-15482143D01*
X9191190Y-15482143D01*
X9172143Y-15491667D01*
X9257857Y-15605952D02*
X9238810Y-15615476D01*
X9191190Y-15615476D01*
X9172143Y-15605952D01*
X9162619Y-15586905D01*
X9162619Y-15567857D01*
X9172143Y-15548809D01*
X9191190Y-15539286D01*
X9238810Y-15539286D01*
X9257857Y-15529762D01*
X9353095Y-15482143D02*
X9353095Y-15682143D01*
X9353095Y-15491667D02*
X9372143Y-15482143D01*
X9410238Y-15482143D01*
X9429286Y-15491667D01*
X9438810Y-15501190D01*
X9448333Y-15520238D01*
X9448333Y-15577381D01*
X9438810Y-15596428D01*
X9429286Y-15605952D01*
X9410238Y-15615476D01*
X9372143Y-15615476D01*
X9353095Y-15605952D01*
X9534048Y-15596428D02*
X9543571Y-15605952D01*
X9534048Y-15615476D01*
X9524524Y-15605952D01*
X9534048Y-15596428D01*
X9534048Y-15615476D01*
X9534048Y-15491667D02*
X9543571Y-15501190D01*
X9534048Y-15510714D01*
X9524524Y-15501190D01*
X9534048Y-15491667D01*
X9534048Y-15510714D01*
M02*
