G04 #@! TF.GenerationSoftware,KiCad,Pcbnew,7.0.10*
G04 #@! TF.CreationDate,2024-03-26T16:12:50-07:00*
G04 #@! TF.ProjectId,optLowPass,6f70744c-6f77-4506-9173-732e6b696361,rev?*
G04 #@! TF.SameCoordinates,Original*
G04 #@! TF.FileFunction,Soldermask,Bot*
G04 #@! TF.FilePolarity,Negative*
%FSLAX46Y46*%
G04 Gerber Fmt 4.6, Leading zero omitted, Abs format (unit mm)*
G04 Created by KiCad (PCBNEW 7.0.10) date 2024-03-26 16:12:50*
%MOMM*%
%LPD*%
G01*
G04 APERTURE LIST*
%ADD10C,1.600000*%
%ADD11R,2.200000X2.200000*%
%ADD12O,2.200000X2.200000*%
%ADD13R,1.700000X1.700000*%
%ADD14O,1.700000X1.700000*%
%ADD15R,1.400000X1.400000*%
%ADD16C,1.400000*%
%ADD17C,2.600000*%
%ADD18R,1.350000X4.200000*%
G04 APERTURE END LIST*
D10*
X127350000Y-131250000D03*
X127350000Y-136250000D03*
X135350000Y-131750000D03*
X135350000Y-136750000D03*
X127350000Y-140000000D03*
X127350000Y-145000000D03*
X135600000Y-142250000D03*
X135600000Y-147250000D03*
X113850000Y-149500000D03*
X108850000Y-149500000D03*
X127350000Y-109500000D03*
X127350000Y-114500000D03*
X135600000Y-110500000D03*
X135600000Y-115500000D03*
X127100000Y-119000000D03*
X127100000Y-124000000D03*
X135600000Y-121000000D03*
X135600000Y-126000000D03*
X114350000Y-128500000D03*
X109350000Y-128500000D03*
X127100000Y-89500000D03*
X127100000Y-94500000D03*
X135600000Y-89500000D03*
X135600000Y-94500000D03*
X127350000Y-97500000D03*
X127350000Y-102500000D03*
X135600000Y-100000000D03*
X135600000Y-105000000D03*
X114350000Y-107500000D03*
X109350000Y-107500000D03*
X127100000Y-67750000D03*
X127100000Y-72750000D03*
X135350000Y-68250000D03*
X135350000Y-73250000D03*
X127100000Y-76750000D03*
X127100000Y-81750000D03*
X135350000Y-78750000D03*
X135350000Y-83750000D03*
X114100000Y-87250000D03*
X109100000Y-87250000D03*
X127100000Y-45250000D03*
X127100000Y-50250000D03*
X135350000Y-46500000D03*
X135350000Y-51500000D03*
X127100000Y-54500000D03*
X127100000Y-59500000D03*
X135350000Y-57250000D03*
X135350000Y-62250000D03*
X132795000Y-142250000D03*
X132795000Y-147250000D03*
X133045000Y-121000000D03*
X133045000Y-126000000D03*
X129905000Y-131250000D03*
X129905000Y-136250000D03*
X129905000Y-109500000D03*
X129905000Y-114500000D03*
X132795000Y-131750000D03*
X132795000Y-136750000D03*
X133045000Y-110500000D03*
X133045000Y-115500000D03*
X129905000Y-140000000D03*
X129905000Y-145000000D03*
X129850000Y-119000000D03*
X129850000Y-124000000D03*
X113900000Y-146800000D03*
X108900000Y-146800000D03*
X114350000Y-125750000D03*
X109350000Y-125750000D03*
X133045000Y-100000000D03*
X133045000Y-105000000D03*
X132795000Y-78750000D03*
X132795000Y-83750000D03*
X132795000Y-57250000D03*
X132795000Y-62250000D03*
X129905000Y-89500000D03*
X129905000Y-94500000D03*
X129905000Y-67750000D03*
X129905000Y-72750000D03*
X129600000Y-45250000D03*
X129600000Y-50250000D03*
X133045000Y-89500000D03*
X133045000Y-94500000D03*
X132795000Y-68250000D03*
X132795000Y-73250000D03*
X132795000Y-46500000D03*
X132795000Y-51500000D03*
X129850000Y-97500000D03*
X129850000Y-102500000D03*
X129850000Y-76750000D03*
X129850000Y-81750000D03*
X129655000Y-54500000D03*
X129655000Y-59500000D03*
X114350000Y-104750000D03*
X109350000Y-104750000D03*
X114100000Y-84500000D03*
X109100000Y-84500000D03*
X114350000Y-64250000D03*
X109350000Y-64250000D03*
X114350000Y-61700000D03*
X109350000Y-61700000D03*
D11*
X91037500Y-143410000D03*
D12*
X91037500Y-135790000D03*
D13*
X82700000Y-44025000D03*
D14*
X82700000Y-46565000D03*
D15*
X95942500Y-80762500D03*
D16*
X103562500Y-80762500D03*
X108642500Y-80762500D03*
X113722500Y-80762500D03*
X113722500Y-73142500D03*
X108642500Y-73142500D03*
X103562500Y-73142500D03*
X95942500Y-73142500D03*
D17*
X124062500Y-99600000D03*
X124062500Y-105200000D03*
D11*
X90400000Y-58410000D03*
D12*
X90400000Y-50790000D03*
D13*
X82100000Y-135400000D03*
D14*
X82100000Y-137940000D03*
D15*
X96142500Y-121962500D03*
D16*
X103762500Y-121962500D03*
X108842500Y-121962500D03*
X113922500Y-121962500D03*
X113922500Y-114342500D03*
X108842500Y-114342500D03*
X103762500Y-114342500D03*
X96142500Y-114342500D03*
D17*
X123850000Y-131450000D03*
X123850000Y-137050000D03*
D15*
X96062500Y-101020000D03*
D16*
X103682500Y-101020000D03*
X108762500Y-101020000D03*
X113842500Y-101020000D03*
X113842500Y-93400000D03*
X108762500Y-93400000D03*
X103682500Y-93400000D03*
X96062500Y-93400000D03*
D15*
X96142500Y-58262500D03*
D16*
X103762500Y-58262500D03*
X108842500Y-58262500D03*
X113922500Y-58262500D03*
X113922500Y-50642500D03*
X108842500Y-50642500D03*
X103762500Y-50642500D03*
X96142500Y-50642500D03*
D15*
X96080000Y-142962500D03*
D16*
X103700000Y-142962500D03*
X108780000Y-142962500D03*
X113860000Y-142962500D03*
X113860000Y-135342500D03*
X108780000Y-135342500D03*
X103700000Y-135342500D03*
X96080000Y-135342500D03*
D17*
X123850000Y-46200000D03*
X123850000Y-51800000D03*
D18*
X100275000Y-150500000D03*
X105925000Y-150500000D03*
D17*
X123937500Y-147400000D03*
X123937500Y-141800000D03*
D11*
X90900000Y-122110000D03*
D12*
X90900000Y-114490000D03*
D17*
X124000000Y-78600000D03*
X124000000Y-84200000D03*
D13*
X128825000Y-150750000D03*
D14*
X131365000Y-150750000D03*
D17*
X123800000Y-56700000D03*
X123800000Y-62300000D03*
X124100000Y-89200000D03*
X124100000Y-94800000D03*
X124100000Y-67950000D03*
X124100000Y-73550000D03*
D18*
X106425000Y-42500000D03*
X100775000Y-42500000D03*
D17*
X124100000Y-110450000D03*
X124100000Y-116050000D03*
D11*
X90362500Y-101010000D03*
D12*
X90362500Y-93390000D03*
D13*
X81400000Y-91180000D03*
D14*
X81400000Y-93720000D03*
X81400000Y-96260000D03*
X81400000Y-98800000D03*
X81400000Y-101340000D03*
X81400000Y-103880000D03*
D13*
X130325000Y-42250000D03*
D14*
X132865000Y-42250000D03*
D13*
X81525000Y-146600000D03*
D14*
X84065000Y-146600000D03*
D17*
X124100000Y-120800000D03*
X124100000Y-126400000D03*
D11*
X90300000Y-80810000D03*
D12*
X90300000Y-73190000D03*
M02*
