G04 #@! TF.GenerationSoftware,KiCad,Pcbnew,7.0.10*
G04 #@! TF.CreationDate,2024-04-06T16:04:27-07:00*
G04 #@! TF.ProjectId,optLowPass,6f70744c-6f77-4506-9173-732e6b696361,rev?*
G04 #@! TF.SameCoordinates,Original*
G04 #@! TF.FileFunction,Legend,Bot*
G04 #@! TF.FilePolarity,Positive*
%FSLAX46Y46*%
G04 Gerber Fmt 4.6, Leading zero omitted, Abs format (unit mm)*
G04 Created by KiCad (PCBNEW 7.0.10) date 2024-04-06 16:04:27*
%MOMM*%
%LPD*%
G01*
G04 APERTURE LIST*
G04 Aperture macros list*
%AMRoundRect*
0 Rectangle with rounded corners*
0 $1 Rounding radius*
0 $2 $3 $4 $5 $6 $7 $8 $9 X,Y pos of 4 corners*
0 Add a 4 corners polygon primitive as box body*
4,1,4,$2,$3,$4,$5,$6,$7,$8,$9,$2,$3,0*
0 Add four circle primitives for the rounded corners*
1,1,$1+$1,$2,$3*
1,1,$1+$1,$4,$5*
1,1,$1+$1,$6,$7*
1,1,$1+$1,$8,$9*
0 Add four rect primitives between the rounded corners*
20,1,$1+$1,$2,$3,$4,$5,0*
20,1,$1+$1,$4,$5,$6,$7,0*
20,1,$1+$1,$6,$7,$8,$9,0*
20,1,$1+$1,$8,$9,$2,$3,0*%
G04 Aperture macros list end*
%ADD10C,0.150000*%
%ADD11C,0.120000*%
%ADD12R,2.200000X2.200000*%
%ADD13O,2.200000X2.200000*%
%ADD14C,2.000000*%
%ADD15O,2.000000X2.000000*%
%ADD16R,1.700000X1.700000*%
%ADD17O,1.700000X1.700000*%
%ADD18C,2.600000*%
%ADD19C,2.400000*%
%ADD20O,2.400000X2.400000*%
%ADD21R,1.600000X1.600000*%
%ADD22O,1.600000X1.600000*%
%ADD23C,1.600000*%
%ADD24R,4.200000X1.350000*%
%ADD25R,1.350000X4.200000*%
%ADD26RoundRect,0.237500X0.250000X0.237500X-0.250000X0.237500X-0.250000X-0.237500X0.250000X-0.237500X0*%
%ADD27RoundRect,0.250000X-0.412500X-0.650000X0.412500X-0.650000X0.412500X0.650000X-0.412500X0.650000X0*%
%ADD28RoundRect,0.250000X0.412500X0.650000X-0.412500X0.650000X-0.412500X-0.650000X0.412500X-0.650000X0*%
G04 APERTURE END LIST*
D10*
X97866666Y-80324819D02*
X98199999Y-79848628D01*
X98438094Y-80324819D02*
X98438094Y-79324819D01*
X98438094Y-79324819D02*
X98057142Y-79324819D01*
X98057142Y-79324819D02*
X97961904Y-79372438D01*
X97961904Y-79372438D02*
X97914285Y-79420057D01*
X97914285Y-79420057D02*
X97866666Y-79515295D01*
X97866666Y-79515295D02*
X97866666Y-79658152D01*
X97866666Y-79658152D02*
X97914285Y-79753390D01*
X97914285Y-79753390D02*
X97961904Y-79801009D01*
X97961904Y-79801009D02*
X98057142Y-79848628D01*
X98057142Y-79848628D02*
X98438094Y-79848628D01*
X97485713Y-79420057D02*
X97438094Y-79372438D01*
X97438094Y-79372438D02*
X97342856Y-79324819D01*
X97342856Y-79324819D02*
X97104761Y-79324819D01*
X97104761Y-79324819D02*
X97009523Y-79372438D01*
X97009523Y-79372438D02*
X96961904Y-79420057D01*
X96961904Y-79420057D02*
X96914285Y-79515295D01*
X96914285Y-79515295D02*
X96914285Y-79610533D01*
X96914285Y-79610533D02*
X96961904Y-79753390D01*
X96961904Y-79753390D02*
X97533332Y-80324819D01*
X97533332Y-80324819D02*
X96914285Y-80324819D01*
X110242857Y-118929580D02*
X110290476Y-118977200D01*
X110290476Y-118977200D02*
X110433333Y-119024819D01*
X110433333Y-119024819D02*
X110528571Y-119024819D01*
X110528571Y-119024819D02*
X110671428Y-118977200D01*
X110671428Y-118977200D02*
X110766666Y-118881961D01*
X110766666Y-118881961D02*
X110814285Y-118786723D01*
X110814285Y-118786723D02*
X110861904Y-118596247D01*
X110861904Y-118596247D02*
X110861904Y-118453390D01*
X110861904Y-118453390D02*
X110814285Y-118262914D01*
X110814285Y-118262914D02*
X110766666Y-118167676D01*
X110766666Y-118167676D02*
X110671428Y-118072438D01*
X110671428Y-118072438D02*
X110528571Y-118024819D01*
X110528571Y-118024819D02*
X110433333Y-118024819D01*
X110433333Y-118024819D02*
X110290476Y-118072438D01*
X110290476Y-118072438D02*
X110242857Y-118120057D01*
X109338095Y-118024819D02*
X109814285Y-118024819D01*
X109814285Y-118024819D02*
X109861904Y-118501009D01*
X109861904Y-118501009D02*
X109814285Y-118453390D01*
X109814285Y-118453390D02*
X109719047Y-118405771D01*
X109719047Y-118405771D02*
X109480952Y-118405771D01*
X109480952Y-118405771D02*
X109385714Y-118453390D01*
X109385714Y-118453390D02*
X109338095Y-118501009D01*
X109338095Y-118501009D02*
X109290476Y-118596247D01*
X109290476Y-118596247D02*
X109290476Y-118834342D01*
X109290476Y-118834342D02*
X109338095Y-118929580D01*
X109338095Y-118929580D02*
X109385714Y-118977200D01*
X109385714Y-118977200D02*
X109480952Y-119024819D01*
X109480952Y-119024819D02*
X109719047Y-119024819D01*
X109719047Y-119024819D02*
X109814285Y-118977200D01*
X109814285Y-118977200D02*
X109861904Y-118929580D01*
X108671428Y-118024819D02*
X108576190Y-118024819D01*
X108576190Y-118024819D02*
X108480952Y-118072438D01*
X108480952Y-118072438D02*
X108433333Y-118120057D01*
X108433333Y-118120057D02*
X108385714Y-118215295D01*
X108385714Y-118215295D02*
X108338095Y-118405771D01*
X108338095Y-118405771D02*
X108338095Y-118643866D01*
X108338095Y-118643866D02*
X108385714Y-118834342D01*
X108385714Y-118834342D02*
X108433333Y-118929580D01*
X108433333Y-118929580D02*
X108480952Y-118977200D01*
X108480952Y-118977200D02*
X108576190Y-119024819D01*
X108576190Y-119024819D02*
X108671428Y-119024819D01*
X108671428Y-119024819D02*
X108766666Y-118977200D01*
X108766666Y-118977200D02*
X108814285Y-118929580D01*
X108814285Y-118929580D02*
X108861904Y-118834342D01*
X108861904Y-118834342D02*
X108909523Y-118643866D01*
X108909523Y-118643866D02*
X108909523Y-118405771D01*
X108909523Y-118405771D02*
X108861904Y-118215295D01*
X108861904Y-118215295D02*
X108814285Y-118120057D01*
X108814285Y-118120057D02*
X108766666Y-118072438D01*
X108766666Y-118072438D02*
X108671428Y-118024819D01*
X123592857Y-60179580D02*
X123640476Y-60227200D01*
X123640476Y-60227200D02*
X123783333Y-60274819D01*
X123783333Y-60274819D02*
X123878571Y-60274819D01*
X123878571Y-60274819D02*
X124021428Y-60227200D01*
X124021428Y-60227200D02*
X124116666Y-60131961D01*
X124116666Y-60131961D02*
X124164285Y-60036723D01*
X124164285Y-60036723D02*
X124211904Y-59846247D01*
X124211904Y-59846247D02*
X124211904Y-59703390D01*
X124211904Y-59703390D02*
X124164285Y-59512914D01*
X124164285Y-59512914D02*
X124116666Y-59417676D01*
X124116666Y-59417676D02*
X124021428Y-59322438D01*
X124021428Y-59322438D02*
X123878571Y-59274819D01*
X123878571Y-59274819D02*
X123783333Y-59274819D01*
X123783333Y-59274819D02*
X123640476Y-59322438D01*
X123640476Y-59322438D02*
X123592857Y-59370057D01*
X123259523Y-59274819D02*
X122640476Y-59274819D01*
X122640476Y-59274819D02*
X122973809Y-59655771D01*
X122973809Y-59655771D02*
X122830952Y-59655771D01*
X122830952Y-59655771D02*
X122735714Y-59703390D01*
X122735714Y-59703390D02*
X122688095Y-59751009D01*
X122688095Y-59751009D02*
X122640476Y-59846247D01*
X122640476Y-59846247D02*
X122640476Y-60084342D01*
X122640476Y-60084342D02*
X122688095Y-60179580D01*
X122688095Y-60179580D02*
X122735714Y-60227200D01*
X122735714Y-60227200D02*
X122830952Y-60274819D01*
X122830952Y-60274819D02*
X123116666Y-60274819D01*
X123116666Y-60274819D02*
X123211904Y-60227200D01*
X123211904Y-60227200D02*
X123259523Y-60179580D01*
X122259523Y-59370057D02*
X122211904Y-59322438D01*
X122211904Y-59322438D02*
X122116666Y-59274819D01*
X122116666Y-59274819D02*
X121878571Y-59274819D01*
X121878571Y-59274819D02*
X121783333Y-59322438D01*
X121783333Y-59322438D02*
X121735714Y-59370057D01*
X121735714Y-59370057D02*
X121688095Y-59465295D01*
X121688095Y-59465295D02*
X121688095Y-59560533D01*
X121688095Y-59560533D02*
X121735714Y-59703390D01*
X121735714Y-59703390D02*
X122307142Y-60274819D01*
X122307142Y-60274819D02*
X121688095Y-60274819D01*
X110592857Y-87629580D02*
X110640476Y-87677200D01*
X110640476Y-87677200D02*
X110783333Y-87724819D01*
X110783333Y-87724819D02*
X110878571Y-87724819D01*
X110878571Y-87724819D02*
X111021428Y-87677200D01*
X111021428Y-87677200D02*
X111116666Y-87581961D01*
X111116666Y-87581961D02*
X111164285Y-87486723D01*
X111164285Y-87486723D02*
X111211904Y-87296247D01*
X111211904Y-87296247D02*
X111211904Y-87153390D01*
X111211904Y-87153390D02*
X111164285Y-86962914D01*
X111164285Y-86962914D02*
X111116666Y-86867676D01*
X111116666Y-86867676D02*
X111021428Y-86772438D01*
X111021428Y-86772438D02*
X110878571Y-86724819D01*
X110878571Y-86724819D02*
X110783333Y-86724819D01*
X110783333Y-86724819D02*
X110640476Y-86772438D01*
X110640476Y-86772438D02*
X110592857Y-86820057D01*
X109735714Y-87058152D02*
X109735714Y-87724819D01*
X109973809Y-86677200D02*
X110211904Y-87391485D01*
X110211904Y-87391485D02*
X109592857Y-87391485D01*
X109021428Y-86724819D02*
X108926190Y-86724819D01*
X108926190Y-86724819D02*
X108830952Y-86772438D01*
X108830952Y-86772438D02*
X108783333Y-86820057D01*
X108783333Y-86820057D02*
X108735714Y-86915295D01*
X108735714Y-86915295D02*
X108688095Y-87105771D01*
X108688095Y-87105771D02*
X108688095Y-87343866D01*
X108688095Y-87343866D02*
X108735714Y-87534342D01*
X108735714Y-87534342D02*
X108783333Y-87629580D01*
X108783333Y-87629580D02*
X108830952Y-87677200D01*
X108830952Y-87677200D02*
X108926190Y-87724819D01*
X108926190Y-87724819D02*
X109021428Y-87724819D01*
X109021428Y-87724819D02*
X109116666Y-87677200D01*
X109116666Y-87677200D02*
X109164285Y-87629580D01*
X109164285Y-87629580D02*
X109211904Y-87534342D01*
X109211904Y-87534342D02*
X109259523Y-87343866D01*
X109259523Y-87343866D02*
X109259523Y-87105771D01*
X109259523Y-87105771D02*
X109211904Y-86915295D01*
X109211904Y-86915295D02*
X109164285Y-86820057D01*
X109164285Y-86820057D02*
X109116666Y-86772438D01*
X109116666Y-86772438D02*
X109021428Y-86724819D01*
X116592857Y-60179580D02*
X116640476Y-60227200D01*
X116640476Y-60227200D02*
X116783333Y-60274819D01*
X116783333Y-60274819D02*
X116878571Y-60274819D01*
X116878571Y-60274819D02*
X117021428Y-60227200D01*
X117021428Y-60227200D02*
X117116666Y-60131961D01*
X117116666Y-60131961D02*
X117164285Y-60036723D01*
X117164285Y-60036723D02*
X117211904Y-59846247D01*
X117211904Y-59846247D02*
X117211904Y-59703390D01*
X117211904Y-59703390D02*
X117164285Y-59512914D01*
X117164285Y-59512914D02*
X117116666Y-59417676D01*
X117116666Y-59417676D02*
X117021428Y-59322438D01*
X117021428Y-59322438D02*
X116878571Y-59274819D01*
X116878571Y-59274819D02*
X116783333Y-59274819D01*
X116783333Y-59274819D02*
X116640476Y-59322438D01*
X116640476Y-59322438D02*
X116592857Y-59370057D01*
X116259523Y-59274819D02*
X115640476Y-59274819D01*
X115640476Y-59274819D02*
X115973809Y-59655771D01*
X115973809Y-59655771D02*
X115830952Y-59655771D01*
X115830952Y-59655771D02*
X115735714Y-59703390D01*
X115735714Y-59703390D02*
X115688095Y-59751009D01*
X115688095Y-59751009D02*
X115640476Y-59846247D01*
X115640476Y-59846247D02*
X115640476Y-60084342D01*
X115640476Y-60084342D02*
X115688095Y-60179580D01*
X115688095Y-60179580D02*
X115735714Y-60227200D01*
X115735714Y-60227200D02*
X115830952Y-60274819D01*
X115830952Y-60274819D02*
X116116666Y-60274819D01*
X116116666Y-60274819D02*
X116211904Y-60227200D01*
X116211904Y-60227200D02*
X116259523Y-60179580D01*
X114783333Y-59608152D02*
X114783333Y-60274819D01*
X115021428Y-59227200D02*
X115259523Y-59941485D01*
X115259523Y-59941485D02*
X114640476Y-59941485D01*
X121842857Y-134329580D02*
X121890476Y-134377200D01*
X121890476Y-134377200D02*
X122033333Y-134424819D01*
X122033333Y-134424819D02*
X122128571Y-134424819D01*
X122128571Y-134424819D02*
X122271428Y-134377200D01*
X122271428Y-134377200D02*
X122366666Y-134281961D01*
X122366666Y-134281961D02*
X122414285Y-134186723D01*
X122414285Y-134186723D02*
X122461904Y-133996247D01*
X122461904Y-133996247D02*
X122461904Y-133853390D01*
X122461904Y-133853390D02*
X122414285Y-133662914D01*
X122414285Y-133662914D02*
X122366666Y-133567676D01*
X122366666Y-133567676D02*
X122271428Y-133472438D01*
X122271428Y-133472438D02*
X122128571Y-133424819D01*
X122128571Y-133424819D02*
X122033333Y-133424819D01*
X122033333Y-133424819D02*
X121890476Y-133472438D01*
X121890476Y-133472438D02*
X121842857Y-133520057D01*
X120938095Y-133424819D02*
X121414285Y-133424819D01*
X121414285Y-133424819D02*
X121461904Y-133901009D01*
X121461904Y-133901009D02*
X121414285Y-133853390D01*
X121414285Y-133853390D02*
X121319047Y-133805771D01*
X121319047Y-133805771D02*
X121080952Y-133805771D01*
X121080952Y-133805771D02*
X120985714Y-133853390D01*
X120985714Y-133853390D02*
X120938095Y-133901009D01*
X120938095Y-133901009D02*
X120890476Y-133996247D01*
X120890476Y-133996247D02*
X120890476Y-134234342D01*
X120890476Y-134234342D02*
X120938095Y-134329580D01*
X120938095Y-134329580D02*
X120985714Y-134377200D01*
X120985714Y-134377200D02*
X121080952Y-134424819D01*
X121080952Y-134424819D02*
X121319047Y-134424819D01*
X121319047Y-134424819D02*
X121414285Y-134377200D01*
X121414285Y-134377200D02*
X121461904Y-134329580D01*
X120557142Y-133424819D02*
X119938095Y-133424819D01*
X119938095Y-133424819D02*
X120271428Y-133805771D01*
X120271428Y-133805771D02*
X120128571Y-133805771D01*
X120128571Y-133805771D02*
X120033333Y-133853390D01*
X120033333Y-133853390D02*
X119985714Y-133901009D01*
X119985714Y-133901009D02*
X119938095Y-133996247D01*
X119938095Y-133996247D02*
X119938095Y-134234342D01*
X119938095Y-134234342D02*
X119985714Y-134329580D01*
X119985714Y-134329580D02*
X120033333Y-134377200D01*
X120033333Y-134377200D02*
X120128571Y-134424819D01*
X120128571Y-134424819D02*
X120414285Y-134424819D01*
X120414285Y-134424819D02*
X120509523Y-134377200D01*
X120509523Y-134377200D02*
X120557142Y-134329580D01*
X116842857Y-121529580D02*
X116890476Y-121577200D01*
X116890476Y-121577200D02*
X117033333Y-121624819D01*
X117033333Y-121624819D02*
X117128571Y-121624819D01*
X117128571Y-121624819D02*
X117271428Y-121577200D01*
X117271428Y-121577200D02*
X117366666Y-121481961D01*
X117366666Y-121481961D02*
X117414285Y-121386723D01*
X117414285Y-121386723D02*
X117461904Y-121196247D01*
X117461904Y-121196247D02*
X117461904Y-121053390D01*
X117461904Y-121053390D02*
X117414285Y-120862914D01*
X117414285Y-120862914D02*
X117366666Y-120767676D01*
X117366666Y-120767676D02*
X117271428Y-120672438D01*
X117271428Y-120672438D02*
X117128571Y-120624819D01*
X117128571Y-120624819D02*
X117033333Y-120624819D01*
X117033333Y-120624819D02*
X116890476Y-120672438D01*
X116890476Y-120672438D02*
X116842857Y-120720057D01*
X115938095Y-120624819D02*
X116414285Y-120624819D01*
X116414285Y-120624819D02*
X116461904Y-121101009D01*
X116461904Y-121101009D02*
X116414285Y-121053390D01*
X116414285Y-121053390D02*
X116319047Y-121005771D01*
X116319047Y-121005771D02*
X116080952Y-121005771D01*
X116080952Y-121005771D02*
X115985714Y-121053390D01*
X115985714Y-121053390D02*
X115938095Y-121101009D01*
X115938095Y-121101009D02*
X115890476Y-121196247D01*
X115890476Y-121196247D02*
X115890476Y-121434342D01*
X115890476Y-121434342D02*
X115938095Y-121529580D01*
X115938095Y-121529580D02*
X115985714Y-121577200D01*
X115985714Y-121577200D02*
X116080952Y-121624819D01*
X116080952Y-121624819D02*
X116319047Y-121624819D01*
X116319047Y-121624819D02*
X116414285Y-121577200D01*
X116414285Y-121577200D02*
X116461904Y-121529580D01*
X115033333Y-120958152D02*
X115033333Y-121624819D01*
X115271428Y-120577200D02*
X115509523Y-121291485D01*
X115509523Y-121291485D02*
X114890476Y-121291485D01*
X110592857Y-60279580D02*
X110640476Y-60327200D01*
X110640476Y-60327200D02*
X110783333Y-60374819D01*
X110783333Y-60374819D02*
X110878571Y-60374819D01*
X110878571Y-60374819D02*
X111021428Y-60327200D01*
X111021428Y-60327200D02*
X111116666Y-60231961D01*
X111116666Y-60231961D02*
X111164285Y-60136723D01*
X111164285Y-60136723D02*
X111211904Y-59946247D01*
X111211904Y-59946247D02*
X111211904Y-59803390D01*
X111211904Y-59803390D02*
X111164285Y-59612914D01*
X111164285Y-59612914D02*
X111116666Y-59517676D01*
X111116666Y-59517676D02*
X111021428Y-59422438D01*
X111021428Y-59422438D02*
X110878571Y-59374819D01*
X110878571Y-59374819D02*
X110783333Y-59374819D01*
X110783333Y-59374819D02*
X110640476Y-59422438D01*
X110640476Y-59422438D02*
X110592857Y-59470057D01*
X109640476Y-60374819D02*
X110211904Y-60374819D01*
X109926190Y-60374819D02*
X109926190Y-59374819D01*
X109926190Y-59374819D02*
X110021428Y-59517676D01*
X110021428Y-59517676D02*
X110116666Y-59612914D01*
X110116666Y-59612914D02*
X110211904Y-59660533D01*
X109307142Y-59374819D02*
X108688095Y-59374819D01*
X108688095Y-59374819D02*
X109021428Y-59755771D01*
X109021428Y-59755771D02*
X108878571Y-59755771D01*
X108878571Y-59755771D02*
X108783333Y-59803390D01*
X108783333Y-59803390D02*
X108735714Y-59851009D01*
X108735714Y-59851009D02*
X108688095Y-59946247D01*
X108688095Y-59946247D02*
X108688095Y-60184342D01*
X108688095Y-60184342D02*
X108735714Y-60279580D01*
X108735714Y-60279580D02*
X108783333Y-60327200D01*
X108783333Y-60327200D02*
X108878571Y-60374819D01*
X108878571Y-60374819D02*
X109164285Y-60374819D01*
X109164285Y-60374819D02*
X109259523Y-60327200D01*
X109259523Y-60327200D02*
X109307142Y-60279580D01*
X116642857Y-105929580D02*
X116690476Y-105977200D01*
X116690476Y-105977200D02*
X116833333Y-106024819D01*
X116833333Y-106024819D02*
X116928571Y-106024819D01*
X116928571Y-106024819D02*
X117071428Y-105977200D01*
X117071428Y-105977200D02*
X117166666Y-105881961D01*
X117166666Y-105881961D02*
X117214285Y-105786723D01*
X117214285Y-105786723D02*
X117261904Y-105596247D01*
X117261904Y-105596247D02*
X117261904Y-105453390D01*
X117261904Y-105453390D02*
X117214285Y-105262914D01*
X117214285Y-105262914D02*
X117166666Y-105167676D01*
X117166666Y-105167676D02*
X117071428Y-105072438D01*
X117071428Y-105072438D02*
X116928571Y-105024819D01*
X116928571Y-105024819D02*
X116833333Y-105024819D01*
X116833333Y-105024819D02*
X116690476Y-105072438D01*
X116690476Y-105072438D02*
X116642857Y-105120057D01*
X115785714Y-105358152D02*
X115785714Y-106024819D01*
X116023809Y-104977200D02*
X116261904Y-105691485D01*
X116261904Y-105691485D02*
X115642857Y-105691485D01*
X115214285Y-106024819D02*
X115023809Y-106024819D01*
X115023809Y-106024819D02*
X114928571Y-105977200D01*
X114928571Y-105977200D02*
X114880952Y-105929580D01*
X114880952Y-105929580D02*
X114785714Y-105786723D01*
X114785714Y-105786723D02*
X114738095Y-105596247D01*
X114738095Y-105596247D02*
X114738095Y-105215295D01*
X114738095Y-105215295D02*
X114785714Y-105120057D01*
X114785714Y-105120057D02*
X114833333Y-105072438D01*
X114833333Y-105072438D02*
X114928571Y-105024819D01*
X114928571Y-105024819D02*
X115119047Y-105024819D01*
X115119047Y-105024819D02*
X115214285Y-105072438D01*
X115214285Y-105072438D02*
X115261904Y-105120057D01*
X115261904Y-105120057D02*
X115309523Y-105215295D01*
X115309523Y-105215295D02*
X115309523Y-105453390D01*
X115309523Y-105453390D02*
X115261904Y-105548628D01*
X115261904Y-105548628D02*
X115214285Y-105596247D01*
X115214285Y-105596247D02*
X115119047Y-105643866D01*
X115119047Y-105643866D02*
X114928571Y-105643866D01*
X114928571Y-105643866D02*
X114833333Y-105596247D01*
X114833333Y-105596247D02*
X114785714Y-105548628D01*
X114785714Y-105548628D02*
X114738095Y-105453390D01*
X110842857Y-121479580D02*
X110890476Y-121527200D01*
X110890476Y-121527200D02*
X111033333Y-121574819D01*
X111033333Y-121574819D02*
X111128571Y-121574819D01*
X111128571Y-121574819D02*
X111271428Y-121527200D01*
X111271428Y-121527200D02*
X111366666Y-121431961D01*
X111366666Y-121431961D02*
X111414285Y-121336723D01*
X111414285Y-121336723D02*
X111461904Y-121146247D01*
X111461904Y-121146247D02*
X111461904Y-121003390D01*
X111461904Y-121003390D02*
X111414285Y-120812914D01*
X111414285Y-120812914D02*
X111366666Y-120717676D01*
X111366666Y-120717676D02*
X111271428Y-120622438D01*
X111271428Y-120622438D02*
X111128571Y-120574819D01*
X111128571Y-120574819D02*
X111033333Y-120574819D01*
X111033333Y-120574819D02*
X110890476Y-120622438D01*
X110890476Y-120622438D02*
X110842857Y-120670057D01*
X109938095Y-120574819D02*
X110414285Y-120574819D01*
X110414285Y-120574819D02*
X110461904Y-121051009D01*
X110461904Y-121051009D02*
X110414285Y-121003390D01*
X110414285Y-121003390D02*
X110319047Y-120955771D01*
X110319047Y-120955771D02*
X110080952Y-120955771D01*
X110080952Y-120955771D02*
X109985714Y-121003390D01*
X109985714Y-121003390D02*
X109938095Y-121051009D01*
X109938095Y-121051009D02*
X109890476Y-121146247D01*
X109890476Y-121146247D02*
X109890476Y-121384342D01*
X109890476Y-121384342D02*
X109938095Y-121479580D01*
X109938095Y-121479580D02*
X109985714Y-121527200D01*
X109985714Y-121527200D02*
X110080952Y-121574819D01*
X110080952Y-121574819D02*
X110319047Y-121574819D01*
X110319047Y-121574819D02*
X110414285Y-121527200D01*
X110414285Y-121527200D02*
X110461904Y-121479580D01*
X109033333Y-120574819D02*
X109223809Y-120574819D01*
X109223809Y-120574819D02*
X109319047Y-120622438D01*
X109319047Y-120622438D02*
X109366666Y-120670057D01*
X109366666Y-120670057D02*
X109461904Y-120812914D01*
X109461904Y-120812914D02*
X109509523Y-121003390D01*
X109509523Y-121003390D02*
X109509523Y-121384342D01*
X109509523Y-121384342D02*
X109461904Y-121479580D01*
X109461904Y-121479580D02*
X109414285Y-121527200D01*
X109414285Y-121527200D02*
X109319047Y-121574819D01*
X109319047Y-121574819D02*
X109128571Y-121574819D01*
X109128571Y-121574819D02*
X109033333Y-121527200D01*
X109033333Y-121527200D02*
X108985714Y-121479580D01*
X108985714Y-121479580D02*
X108938095Y-121384342D01*
X108938095Y-121384342D02*
X108938095Y-121146247D01*
X108938095Y-121146247D02*
X108985714Y-121051009D01*
X108985714Y-121051009D02*
X109033333Y-121003390D01*
X109033333Y-121003390D02*
X109128571Y-120955771D01*
X109128571Y-120955771D02*
X109319047Y-120955771D01*
X109319047Y-120955771D02*
X109414285Y-121003390D01*
X109414285Y-121003390D02*
X109461904Y-121051009D01*
X109461904Y-121051009D02*
X109509523Y-121146247D01*
X97766666Y-63924819D02*
X98099999Y-63448628D01*
X98338094Y-63924819D02*
X98338094Y-62924819D01*
X98338094Y-62924819D02*
X97957142Y-62924819D01*
X97957142Y-62924819D02*
X97861904Y-62972438D01*
X97861904Y-62972438D02*
X97814285Y-63020057D01*
X97814285Y-63020057D02*
X97766666Y-63115295D01*
X97766666Y-63115295D02*
X97766666Y-63258152D01*
X97766666Y-63258152D02*
X97814285Y-63353390D01*
X97814285Y-63353390D02*
X97861904Y-63401009D01*
X97861904Y-63401009D02*
X97957142Y-63448628D01*
X97957142Y-63448628D02*
X98338094Y-63448628D01*
X96814285Y-63924819D02*
X97385713Y-63924819D01*
X97099999Y-63924819D02*
X97099999Y-62924819D01*
X97099999Y-62924819D02*
X97195237Y-63067676D01*
X97195237Y-63067676D02*
X97290475Y-63162914D01*
X97290475Y-63162914D02*
X97385713Y-63210533D01*
X123116666Y-90179580D02*
X123164285Y-90227200D01*
X123164285Y-90227200D02*
X123307142Y-90274819D01*
X123307142Y-90274819D02*
X123402380Y-90274819D01*
X123402380Y-90274819D02*
X123545237Y-90227200D01*
X123545237Y-90227200D02*
X123640475Y-90131961D01*
X123640475Y-90131961D02*
X123688094Y-90036723D01*
X123688094Y-90036723D02*
X123735713Y-89846247D01*
X123735713Y-89846247D02*
X123735713Y-89703390D01*
X123735713Y-89703390D02*
X123688094Y-89512914D01*
X123688094Y-89512914D02*
X123640475Y-89417676D01*
X123640475Y-89417676D02*
X123545237Y-89322438D01*
X123545237Y-89322438D02*
X123402380Y-89274819D01*
X123402380Y-89274819D02*
X123307142Y-89274819D01*
X123307142Y-89274819D02*
X123164285Y-89322438D01*
X123164285Y-89322438D02*
X123116666Y-89370057D01*
X122259523Y-89274819D02*
X122449999Y-89274819D01*
X122449999Y-89274819D02*
X122545237Y-89322438D01*
X122545237Y-89322438D02*
X122592856Y-89370057D01*
X122592856Y-89370057D02*
X122688094Y-89512914D01*
X122688094Y-89512914D02*
X122735713Y-89703390D01*
X122735713Y-89703390D02*
X122735713Y-90084342D01*
X122735713Y-90084342D02*
X122688094Y-90179580D01*
X122688094Y-90179580D02*
X122640475Y-90227200D01*
X122640475Y-90227200D02*
X122545237Y-90274819D01*
X122545237Y-90274819D02*
X122354761Y-90274819D01*
X122354761Y-90274819D02*
X122259523Y-90227200D01*
X122259523Y-90227200D02*
X122211904Y-90179580D01*
X122211904Y-90179580D02*
X122164285Y-90084342D01*
X122164285Y-90084342D02*
X122164285Y-89846247D01*
X122164285Y-89846247D02*
X122211904Y-89751009D01*
X122211904Y-89751009D02*
X122259523Y-89703390D01*
X122259523Y-89703390D02*
X122354761Y-89655771D01*
X122354761Y-89655771D02*
X122545237Y-89655771D01*
X122545237Y-89655771D02*
X122640475Y-89703390D01*
X122640475Y-89703390D02*
X122688094Y-89751009D01*
X122688094Y-89751009D02*
X122735713Y-89846247D01*
X123642857Y-105929580D02*
X123690476Y-105977200D01*
X123690476Y-105977200D02*
X123833333Y-106024819D01*
X123833333Y-106024819D02*
X123928571Y-106024819D01*
X123928571Y-106024819D02*
X124071428Y-105977200D01*
X124071428Y-105977200D02*
X124166666Y-105881961D01*
X124166666Y-105881961D02*
X124214285Y-105786723D01*
X124214285Y-105786723D02*
X124261904Y-105596247D01*
X124261904Y-105596247D02*
X124261904Y-105453390D01*
X124261904Y-105453390D02*
X124214285Y-105262914D01*
X124214285Y-105262914D02*
X124166666Y-105167676D01*
X124166666Y-105167676D02*
X124071428Y-105072438D01*
X124071428Y-105072438D02*
X123928571Y-105024819D01*
X123928571Y-105024819D02*
X123833333Y-105024819D01*
X123833333Y-105024819D02*
X123690476Y-105072438D01*
X123690476Y-105072438D02*
X123642857Y-105120057D01*
X122785714Y-105358152D02*
X122785714Y-106024819D01*
X123023809Y-104977200D02*
X123261904Y-105691485D01*
X123261904Y-105691485D02*
X122642857Y-105691485D01*
X122357142Y-105024819D02*
X121690476Y-105024819D01*
X121690476Y-105024819D02*
X122119047Y-106024819D01*
X110342857Y-74779580D02*
X110390476Y-74827200D01*
X110390476Y-74827200D02*
X110533333Y-74874819D01*
X110533333Y-74874819D02*
X110628571Y-74874819D01*
X110628571Y-74874819D02*
X110771428Y-74827200D01*
X110771428Y-74827200D02*
X110866666Y-74731961D01*
X110866666Y-74731961D02*
X110914285Y-74636723D01*
X110914285Y-74636723D02*
X110961904Y-74446247D01*
X110961904Y-74446247D02*
X110961904Y-74303390D01*
X110961904Y-74303390D02*
X110914285Y-74112914D01*
X110914285Y-74112914D02*
X110866666Y-74017676D01*
X110866666Y-74017676D02*
X110771428Y-73922438D01*
X110771428Y-73922438D02*
X110628571Y-73874819D01*
X110628571Y-73874819D02*
X110533333Y-73874819D01*
X110533333Y-73874819D02*
X110390476Y-73922438D01*
X110390476Y-73922438D02*
X110342857Y-73970057D01*
X109485714Y-74208152D02*
X109485714Y-74874819D01*
X109723809Y-73827200D02*
X109961904Y-74541485D01*
X109961904Y-74541485D02*
X109342857Y-74541485D01*
X108438095Y-74874819D02*
X109009523Y-74874819D01*
X108723809Y-74874819D02*
X108723809Y-73874819D01*
X108723809Y-73874819D02*
X108819047Y-74017676D01*
X108819047Y-74017676D02*
X108914285Y-74112914D01*
X108914285Y-74112914D02*
X109009523Y-74160533D01*
X116592857Y-74929580D02*
X116640476Y-74977200D01*
X116640476Y-74977200D02*
X116783333Y-75024819D01*
X116783333Y-75024819D02*
X116878571Y-75024819D01*
X116878571Y-75024819D02*
X117021428Y-74977200D01*
X117021428Y-74977200D02*
X117116666Y-74881961D01*
X117116666Y-74881961D02*
X117164285Y-74786723D01*
X117164285Y-74786723D02*
X117211904Y-74596247D01*
X117211904Y-74596247D02*
X117211904Y-74453390D01*
X117211904Y-74453390D02*
X117164285Y-74262914D01*
X117164285Y-74262914D02*
X117116666Y-74167676D01*
X117116666Y-74167676D02*
X117021428Y-74072438D01*
X117021428Y-74072438D02*
X116878571Y-74024819D01*
X116878571Y-74024819D02*
X116783333Y-74024819D01*
X116783333Y-74024819D02*
X116640476Y-74072438D01*
X116640476Y-74072438D02*
X116592857Y-74120057D01*
X116259523Y-74024819D02*
X115640476Y-74024819D01*
X115640476Y-74024819D02*
X115973809Y-74405771D01*
X115973809Y-74405771D02*
X115830952Y-74405771D01*
X115830952Y-74405771D02*
X115735714Y-74453390D01*
X115735714Y-74453390D02*
X115688095Y-74501009D01*
X115688095Y-74501009D02*
X115640476Y-74596247D01*
X115640476Y-74596247D02*
X115640476Y-74834342D01*
X115640476Y-74834342D02*
X115688095Y-74929580D01*
X115688095Y-74929580D02*
X115735714Y-74977200D01*
X115735714Y-74977200D02*
X115830952Y-75024819D01*
X115830952Y-75024819D02*
X116116666Y-75024819D01*
X116116666Y-75024819D02*
X116211904Y-74977200D01*
X116211904Y-74977200D02*
X116259523Y-74929580D01*
X115164285Y-75024819D02*
X114973809Y-75024819D01*
X114973809Y-75024819D02*
X114878571Y-74977200D01*
X114878571Y-74977200D02*
X114830952Y-74929580D01*
X114830952Y-74929580D02*
X114735714Y-74786723D01*
X114735714Y-74786723D02*
X114688095Y-74596247D01*
X114688095Y-74596247D02*
X114688095Y-74215295D01*
X114688095Y-74215295D02*
X114735714Y-74120057D01*
X114735714Y-74120057D02*
X114783333Y-74072438D01*
X114783333Y-74072438D02*
X114878571Y-74024819D01*
X114878571Y-74024819D02*
X115069047Y-74024819D01*
X115069047Y-74024819D02*
X115164285Y-74072438D01*
X115164285Y-74072438D02*
X115211904Y-74120057D01*
X115211904Y-74120057D02*
X115259523Y-74215295D01*
X115259523Y-74215295D02*
X115259523Y-74453390D01*
X115259523Y-74453390D02*
X115211904Y-74548628D01*
X115211904Y-74548628D02*
X115164285Y-74596247D01*
X115164285Y-74596247D02*
X115069047Y-74643866D01*
X115069047Y-74643866D02*
X114878571Y-74643866D01*
X114878571Y-74643866D02*
X114783333Y-74596247D01*
X114783333Y-74596247D02*
X114735714Y-74548628D01*
X114735714Y-74548628D02*
X114688095Y-74453390D01*
X110342857Y-103129580D02*
X110390476Y-103177200D01*
X110390476Y-103177200D02*
X110533333Y-103224819D01*
X110533333Y-103224819D02*
X110628571Y-103224819D01*
X110628571Y-103224819D02*
X110771428Y-103177200D01*
X110771428Y-103177200D02*
X110866666Y-103081961D01*
X110866666Y-103081961D02*
X110914285Y-102986723D01*
X110914285Y-102986723D02*
X110961904Y-102796247D01*
X110961904Y-102796247D02*
X110961904Y-102653390D01*
X110961904Y-102653390D02*
X110914285Y-102462914D01*
X110914285Y-102462914D02*
X110866666Y-102367676D01*
X110866666Y-102367676D02*
X110771428Y-102272438D01*
X110771428Y-102272438D02*
X110628571Y-102224819D01*
X110628571Y-102224819D02*
X110533333Y-102224819D01*
X110533333Y-102224819D02*
X110390476Y-102272438D01*
X110390476Y-102272438D02*
X110342857Y-102320057D01*
X109390476Y-103224819D02*
X109961904Y-103224819D01*
X109676190Y-103224819D02*
X109676190Y-102224819D01*
X109676190Y-102224819D02*
X109771428Y-102367676D01*
X109771428Y-102367676D02*
X109866666Y-102462914D01*
X109866666Y-102462914D02*
X109961904Y-102510533D01*
X109009523Y-102320057D02*
X108961904Y-102272438D01*
X108961904Y-102272438D02*
X108866666Y-102224819D01*
X108866666Y-102224819D02*
X108628571Y-102224819D01*
X108628571Y-102224819D02*
X108533333Y-102272438D01*
X108533333Y-102272438D02*
X108485714Y-102320057D01*
X108485714Y-102320057D02*
X108438095Y-102415295D01*
X108438095Y-102415295D02*
X108438095Y-102510533D01*
X108438095Y-102510533D02*
X108485714Y-102653390D01*
X108485714Y-102653390D02*
X109057142Y-103224819D01*
X109057142Y-103224819D02*
X108438095Y-103224819D01*
X97566666Y-113524819D02*
X97899999Y-113048628D01*
X98138094Y-113524819D02*
X98138094Y-112524819D01*
X98138094Y-112524819D02*
X97757142Y-112524819D01*
X97757142Y-112524819D02*
X97661904Y-112572438D01*
X97661904Y-112572438D02*
X97614285Y-112620057D01*
X97614285Y-112620057D02*
X97566666Y-112715295D01*
X97566666Y-112715295D02*
X97566666Y-112858152D01*
X97566666Y-112858152D02*
X97614285Y-112953390D01*
X97614285Y-112953390D02*
X97661904Y-113001009D01*
X97661904Y-113001009D02*
X97757142Y-113048628D01*
X97757142Y-113048628D02*
X98138094Y-113048628D01*
X96709523Y-112858152D02*
X96709523Y-113524819D01*
X96947618Y-112477200D02*
X97185713Y-113191485D01*
X97185713Y-113191485D02*
X96566666Y-113191485D01*
X123742857Y-121529580D02*
X123790476Y-121577200D01*
X123790476Y-121577200D02*
X123933333Y-121624819D01*
X123933333Y-121624819D02*
X124028571Y-121624819D01*
X124028571Y-121624819D02*
X124171428Y-121577200D01*
X124171428Y-121577200D02*
X124266666Y-121481961D01*
X124266666Y-121481961D02*
X124314285Y-121386723D01*
X124314285Y-121386723D02*
X124361904Y-121196247D01*
X124361904Y-121196247D02*
X124361904Y-121053390D01*
X124361904Y-121053390D02*
X124314285Y-120862914D01*
X124314285Y-120862914D02*
X124266666Y-120767676D01*
X124266666Y-120767676D02*
X124171428Y-120672438D01*
X124171428Y-120672438D02*
X124028571Y-120624819D01*
X124028571Y-120624819D02*
X123933333Y-120624819D01*
X123933333Y-120624819D02*
X123790476Y-120672438D01*
X123790476Y-120672438D02*
X123742857Y-120720057D01*
X123361904Y-120720057D02*
X123314285Y-120672438D01*
X123314285Y-120672438D02*
X123219047Y-120624819D01*
X123219047Y-120624819D02*
X122980952Y-120624819D01*
X122980952Y-120624819D02*
X122885714Y-120672438D01*
X122885714Y-120672438D02*
X122838095Y-120720057D01*
X122838095Y-120720057D02*
X122790476Y-120815295D01*
X122790476Y-120815295D02*
X122790476Y-120910533D01*
X122790476Y-120910533D02*
X122838095Y-121053390D01*
X122838095Y-121053390D02*
X123409523Y-121624819D01*
X123409523Y-121624819D02*
X122790476Y-121624819D01*
X122457142Y-120624819D02*
X121838095Y-120624819D01*
X121838095Y-120624819D02*
X122171428Y-121005771D01*
X122171428Y-121005771D02*
X122028571Y-121005771D01*
X122028571Y-121005771D02*
X121933333Y-121053390D01*
X121933333Y-121053390D02*
X121885714Y-121101009D01*
X121885714Y-121101009D02*
X121838095Y-121196247D01*
X121838095Y-121196247D02*
X121838095Y-121434342D01*
X121838095Y-121434342D02*
X121885714Y-121529580D01*
X121885714Y-121529580D02*
X121933333Y-121577200D01*
X121933333Y-121577200D02*
X122028571Y-121624819D01*
X122028571Y-121624819D02*
X122314285Y-121624819D01*
X122314285Y-121624819D02*
X122409523Y-121577200D01*
X122409523Y-121577200D02*
X122457142Y-121529580D01*
X123592857Y-74929580D02*
X123640476Y-74977200D01*
X123640476Y-74977200D02*
X123783333Y-75024819D01*
X123783333Y-75024819D02*
X123878571Y-75024819D01*
X123878571Y-75024819D02*
X124021428Y-74977200D01*
X124021428Y-74977200D02*
X124116666Y-74881961D01*
X124116666Y-74881961D02*
X124164285Y-74786723D01*
X124164285Y-74786723D02*
X124211904Y-74596247D01*
X124211904Y-74596247D02*
X124211904Y-74453390D01*
X124211904Y-74453390D02*
X124164285Y-74262914D01*
X124164285Y-74262914D02*
X124116666Y-74167676D01*
X124116666Y-74167676D02*
X124021428Y-74072438D01*
X124021428Y-74072438D02*
X123878571Y-74024819D01*
X123878571Y-74024819D02*
X123783333Y-74024819D01*
X123783333Y-74024819D02*
X123640476Y-74072438D01*
X123640476Y-74072438D02*
X123592857Y-74120057D01*
X123259523Y-74024819D02*
X122640476Y-74024819D01*
X122640476Y-74024819D02*
X122973809Y-74405771D01*
X122973809Y-74405771D02*
X122830952Y-74405771D01*
X122830952Y-74405771D02*
X122735714Y-74453390D01*
X122735714Y-74453390D02*
X122688095Y-74501009D01*
X122688095Y-74501009D02*
X122640476Y-74596247D01*
X122640476Y-74596247D02*
X122640476Y-74834342D01*
X122640476Y-74834342D02*
X122688095Y-74929580D01*
X122688095Y-74929580D02*
X122735714Y-74977200D01*
X122735714Y-74977200D02*
X122830952Y-75024819D01*
X122830952Y-75024819D02*
X123116666Y-75024819D01*
X123116666Y-75024819D02*
X123211904Y-74977200D01*
X123211904Y-74977200D02*
X123259523Y-74929580D01*
X122307142Y-74024819D02*
X121640476Y-74024819D01*
X121640476Y-74024819D02*
X122069047Y-75024819D01*
X121742857Y-118729580D02*
X121790476Y-118777200D01*
X121790476Y-118777200D02*
X121933333Y-118824819D01*
X121933333Y-118824819D02*
X122028571Y-118824819D01*
X122028571Y-118824819D02*
X122171428Y-118777200D01*
X122171428Y-118777200D02*
X122266666Y-118681961D01*
X122266666Y-118681961D02*
X122314285Y-118586723D01*
X122314285Y-118586723D02*
X122361904Y-118396247D01*
X122361904Y-118396247D02*
X122361904Y-118253390D01*
X122361904Y-118253390D02*
X122314285Y-118062914D01*
X122314285Y-118062914D02*
X122266666Y-117967676D01*
X122266666Y-117967676D02*
X122171428Y-117872438D01*
X122171428Y-117872438D02*
X122028571Y-117824819D01*
X122028571Y-117824819D02*
X121933333Y-117824819D01*
X121933333Y-117824819D02*
X121790476Y-117872438D01*
X121790476Y-117872438D02*
X121742857Y-117920057D01*
X120885714Y-118158152D02*
X120885714Y-118824819D01*
X121123809Y-117777200D02*
X121361904Y-118491485D01*
X121361904Y-118491485D02*
X120742857Y-118491485D01*
X120219047Y-118253390D02*
X120314285Y-118205771D01*
X120314285Y-118205771D02*
X120361904Y-118158152D01*
X120361904Y-118158152D02*
X120409523Y-118062914D01*
X120409523Y-118062914D02*
X120409523Y-118015295D01*
X120409523Y-118015295D02*
X120361904Y-117920057D01*
X120361904Y-117920057D02*
X120314285Y-117872438D01*
X120314285Y-117872438D02*
X120219047Y-117824819D01*
X120219047Y-117824819D02*
X120028571Y-117824819D01*
X120028571Y-117824819D02*
X119933333Y-117872438D01*
X119933333Y-117872438D02*
X119885714Y-117920057D01*
X119885714Y-117920057D02*
X119838095Y-118015295D01*
X119838095Y-118015295D02*
X119838095Y-118062914D01*
X119838095Y-118062914D02*
X119885714Y-118158152D01*
X119885714Y-118158152D02*
X119933333Y-118205771D01*
X119933333Y-118205771D02*
X120028571Y-118253390D01*
X120028571Y-118253390D02*
X120219047Y-118253390D01*
X120219047Y-118253390D02*
X120314285Y-118301009D01*
X120314285Y-118301009D02*
X120361904Y-118348628D01*
X120361904Y-118348628D02*
X120409523Y-118443866D01*
X120409523Y-118443866D02*
X120409523Y-118634342D01*
X120409523Y-118634342D02*
X120361904Y-118729580D01*
X120361904Y-118729580D02*
X120314285Y-118777200D01*
X120314285Y-118777200D02*
X120219047Y-118824819D01*
X120219047Y-118824819D02*
X120028571Y-118824819D01*
X120028571Y-118824819D02*
X119933333Y-118777200D01*
X119933333Y-118777200D02*
X119885714Y-118729580D01*
X119885714Y-118729580D02*
X119838095Y-118634342D01*
X119838095Y-118634342D02*
X119838095Y-118443866D01*
X119838095Y-118443866D02*
X119885714Y-118348628D01*
X119885714Y-118348628D02*
X119933333Y-118301009D01*
X119933333Y-118301009D02*
X120028571Y-118253390D01*
X97666666Y-129524819D02*
X97999999Y-129048628D01*
X98238094Y-129524819D02*
X98238094Y-128524819D01*
X98238094Y-128524819D02*
X97857142Y-128524819D01*
X97857142Y-128524819D02*
X97761904Y-128572438D01*
X97761904Y-128572438D02*
X97714285Y-128620057D01*
X97714285Y-128620057D02*
X97666666Y-128715295D01*
X97666666Y-128715295D02*
X97666666Y-128858152D01*
X97666666Y-128858152D02*
X97714285Y-128953390D01*
X97714285Y-128953390D02*
X97761904Y-129001009D01*
X97761904Y-129001009D02*
X97857142Y-129048628D01*
X97857142Y-129048628D02*
X98238094Y-129048628D01*
X96761904Y-128524819D02*
X97238094Y-128524819D01*
X97238094Y-128524819D02*
X97285713Y-129001009D01*
X97285713Y-129001009D02*
X97238094Y-128953390D01*
X97238094Y-128953390D02*
X97142856Y-128905771D01*
X97142856Y-128905771D02*
X96904761Y-128905771D01*
X96904761Y-128905771D02*
X96809523Y-128953390D01*
X96809523Y-128953390D02*
X96761904Y-129001009D01*
X96761904Y-129001009D02*
X96714285Y-129096247D01*
X96714285Y-129096247D02*
X96714285Y-129334342D01*
X96714285Y-129334342D02*
X96761904Y-129429580D01*
X96761904Y-129429580D02*
X96809523Y-129477200D01*
X96809523Y-129477200D02*
X96904761Y-129524819D01*
X96904761Y-129524819D02*
X97142856Y-129524819D01*
X97142856Y-129524819D02*
X97238094Y-129477200D01*
X97238094Y-129477200D02*
X97285713Y-129429580D01*
X121842857Y-71629580D02*
X121890476Y-71677200D01*
X121890476Y-71677200D02*
X122033333Y-71724819D01*
X122033333Y-71724819D02*
X122128571Y-71724819D01*
X122128571Y-71724819D02*
X122271428Y-71677200D01*
X122271428Y-71677200D02*
X122366666Y-71581961D01*
X122366666Y-71581961D02*
X122414285Y-71486723D01*
X122414285Y-71486723D02*
X122461904Y-71296247D01*
X122461904Y-71296247D02*
X122461904Y-71153390D01*
X122461904Y-71153390D02*
X122414285Y-70962914D01*
X122414285Y-70962914D02*
X122366666Y-70867676D01*
X122366666Y-70867676D02*
X122271428Y-70772438D01*
X122271428Y-70772438D02*
X122128571Y-70724819D01*
X122128571Y-70724819D02*
X122033333Y-70724819D01*
X122033333Y-70724819D02*
X121890476Y-70772438D01*
X121890476Y-70772438D02*
X121842857Y-70820057D01*
X121509523Y-70724819D02*
X120890476Y-70724819D01*
X120890476Y-70724819D02*
X121223809Y-71105771D01*
X121223809Y-71105771D02*
X121080952Y-71105771D01*
X121080952Y-71105771D02*
X120985714Y-71153390D01*
X120985714Y-71153390D02*
X120938095Y-71201009D01*
X120938095Y-71201009D02*
X120890476Y-71296247D01*
X120890476Y-71296247D02*
X120890476Y-71534342D01*
X120890476Y-71534342D02*
X120938095Y-71629580D01*
X120938095Y-71629580D02*
X120985714Y-71677200D01*
X120985714Y-71677200D02*
X121080952Y-71724819D01*
X121080952Y-71724819D02*
X121366666Y-71724819D01*
X121366666Y-71724819D02*
X121461904Y-71677200D01*
X121461904Y-71677200D02*
X121509523Y-71629580D01*
X120557142Y-70724819D02*
X119938095Y-70724819D01*
X119938095Y-70724819D02*
X120271428Y-71105771D01*
X120271428Y-71105771D02*
X120128571Y-71105771D01*
X120128571Y-71105771D02*
X120033333Y-71153390D01*
X120033333Y-71153390D02*
X119985714Y-71201009D01*
X119985714Y-71201009D02*
X119938095Y-71296247D01*
X119938095Y-71296247D02*
X119938095Y-71534342D01*
X119938095Y-71534342D02*
X119985714Y-71629580D01*
X119985714Y-71629580D02*
X120033333Y-71677200D01*
X120033333Y-71677200D02*
X120128571Y-71724819D01*
X120128571Y-71724819D02*
X120414285Y-71724819D01*
X120414285Y-71724819D02*
X120509523Y-71677200D01*
X120509523Y-71677200D02*
X120557142Y-71629580D01*
X110442857Y-134429580D02*
X110490476Y-134477200D01*
X110490476Y-134477200D02*
X110633333Y-134524819D01*
X110633333Y-134524819D02*
X110728571Y-134524819D01*
X110728571Y-134524819D02*
X110871428Y-134477200D01*
X110871428Y-134477200D02*
X110966666Y-134381961D01*
X110966666Y-134381961D02*
X111014285Y-134286723D01*
X111014285Y-134286723D02*
X111061904Y-134096247D01*
X111061904Y-134096247D02*
X111061904Y-133953390D01*
X111061904Y-133953390D02*
X111014285Y-133762914D01*
X111014285Y-133762914D02*
X110966666Y-133667676D01*
X110966666Y-133667676D02*
X110871428Y-133572438D01*
X110871428Y-133572438D02*
X110728571Y-133524819D01*
X110728571Y-133524819D02*
X110633333Y-133524819D01*
X110633333Y-133524819D02*
X110490476Y-133572438D01*
X110490476Y-133572438D02*
X110442857Y-133620057D01*
X110061904Y-133620057D02*
X110014285Y-133572438D01*
X110014285Y-133572438D02*
X109919047Y-133524819D01*
X109919047Y-133524819D02*
X109680952Y-133524819D01*
X109680952Y-133524819D02*
X109585714Y-133572438D01*
X109585714Y-133572438D02*
X109538095Y-133620057D01*
X109538095Y-133620057D02*
X109490476Y-133715295D01*
X109490476Y-133715295D02*
X109490476Y-133810533D01*
X109490476Y-133810533D02*
X109538095Y-133953390D01*
X109538095Y-133953390D02*
X110109523Y-134524819D01*
X110109523Y-134524819D02*
X109490476Y-134524819D01*
X109157142Y-133524819D02*
X108490476Y-133524819D01*
X108490476Y-133524819D02*
X108919047Y-134524819D01*
X121842857Y-103129580D02*
X121890476Y-103177200D01*
X121890476Y-103177200D02*
X122033333Y-103224819D01*
X122033333Y-103224819D02*
X122128571Y-103224819D01*
X122128571Y-103224819D02*
X122271428Y-103177200D01*
X122271428Y-103177200D02*
X122366666Y-103081961D01*
X122366666Y-103081961D02*
X122414285Y-102986723D01*
X122414285Y-102986723D02*
X122461904Y-102796247D01*
X122461904Y-102796247D02*
X122461904Y-102653390D01*
X122461904Y-102653390D02*
X122414285Y-102462914D01*
X122414285Y-102462914D02*
X122366666Y-102367676D01*
X122366666Y-102367676D02*
X122271428Y-102272438D01*
X122271428Y-102272438D02*
X122128571Y-102224819D01*
X122128571Y-102224819D02*
X122033333Y-102224819D01*
X122033333Y-102224819D02*
X121890476Y-102272438D01*
X121890476Y-102272438D02*
X121842857Y-102320057D01*
X120890476Y-103224819D02*
X121461904Y-103224819D01*
X121176190Y-103224819D02*
X121176190Y-102224819D01*
X121176190Y-102224819D02*
X121271428Y-102367676D01*
X121271428Y-102367676D02*
X121366666Y-102462914D01*
X121366666Y-102462914D02*
X121461904Y-102510533D01*
X120319047Y-102653390D02*
X120414285Y-102605771D01*
X120414285Y-102605771D02*
X120461904Y-102558152D01*
X120461904Y-102558152D02*
X120509523Y-102462914D01*
X120509523Y-102462914D02*
X120509523Y-102415295D01*
X120509523Y-102415295D02*
X120461904Y-102320057D01*
X120461904Y-102320057D02*
X120414285Y-102272438D01*
X120414285Y-102272438D02*
X120319047Y-102224819D01*
X120319047Y-102224819D02*
X120128571Y-102224819D01*
X120128571Y-102224819D02*
X120033333Y-102272438D01*
X120033333Y-102272438D02*
X119985714Y-102320057D01*
X119985714Y-102320057D02*
X119938095Y-102415295D01*
X119938095Y-102415295D02*
X119938095Y-102462914D01*
X119938095Y-102462914D02*
X119985714Y-102558152D01*
X119985714Y-102558152D02*
X120033333Y-102605771D01*
X120033333Y-102605771D02*
X120128571Y-102653390D01*
X120128571Y-102653390D02*
X120319047Y-102653390D01*
X120319047Y-102653390D02*
X120414285Y-102701009D01*
X120414285Y-102701009D02*
X120461904Y-102748628D01*
X120461904Y-102748628D02*
X120509523Y-102843866D01*
X120509523Y-102843866D02*
X120509523Y-103034342D01*
X120509523Y-103034342D02*
X120461904Y-103129580D01*
X120461904Y-103129580D02*
X120414285Y-103177200D01*
X120414285Y-103177200D02*
X120319047Y-103224819D01*
X120319047Y-103224819D02*
X120128571Y-103224819D01*
X120128571Y-103224819D02*
X120033333Y-103177200D01*
X120033333Y-103177200D02*
X119985714Y-103129580D01*
X119985714Y-103129580D02*
X119938095Y-103034342D01*
X119938095Y-103034342D02*
X119938095Y-102843866D01*
X119938095Y-102843866D02*
X119985714Y-102748628D01*
X119985714Y-102748628D02*
X120033333Y-102701009D01*
X120033333Y-102701009D02*
X120128571Y-102653390D01*
X97566666Y-97124819D02*
X97899999Y-96648628D01*
X98138094Y-97124819D02*
X98138094Y-96124819D01*
X98138094Y-96124819D02*
X97757142Y-96124819D01*
X97757142Y-96124819D02*
X97661904Y-96172438D01*
X97661904Y-96172438D02*
X97614285Y-96220057D01*
X97614285Y-96220057D02*
X97566666Y-96315295D01*
X97566666Y-96315295D02*
X97566666Y-96458152D01*
X97566666Y-96458152D02*
X97614285Y-96553390D01*
X97614285Y-96553390D02*
X97661904Y-96601009D01*
X97661904Y-96601009D02*
X97757142Y-96648628D01*
X97757142Y-96648628D02*
X98138094Y-96648628D01*
X97233332Y-96124819D02*
X96614285Y-96124819D01*
X96614285Y-96124819D02*
X96947618Y-96505771D01*
X96947618Y-96505771D02*
X96804761Y-96505771D01*
X96804761Y-96505771D02*
X96709523Y-96553390D01*
X96709523Y-96553390D02*
X96661904Y-96601009D01*
X96661904Y-96601009D02*
X96614285Y-96696247D01*
X96614285Y-96696247D02*
X96614285Y-96934342D01*
X96614285Y-96934342D02*
X96661904Y-97029580D01*
X96661904Y-97029580D02*
X96709523Y-97077200D01*
X96709523Y-97077200D02*
X96804761Y-97124819D01*
X96804761Y-97124819D02*
X97090475Y-97124819D01*
X97090475Y-97124819D02*
X97185713Y-97077200D01*
X97185713Y-97077200D02*
X97233332Y-97029580D01*
X121842857Y-87629580D02*
X121890476Y-87677200D01*
X121890476Y-87677200D02*
X122033333Y-87724819D01*
X122033333Y-87724819D02*
X122128571Y-87724819D01*
X122128571Y-87724819D02*
X122271428Y-87677200D01*
X122271428Y-87677200D02*
X122366666Y-87581961D01*
X122366666Y-87581961D02*
X122414285Y-87486723D01*
X122414285Y-87486723D02*
X122461904Y-87296247D01*
X122461904Y-87296247D02*
X122461904Y-87153390D01*
X122461904Y-87153390D02*
X122414285Y-86962914D01*
X122414285Y-86962914D02*
X122366666Y-86867676D01*
X122366666Y-86867676D02*
X122271428Y-86772438D01*
X122271428Y-86772438D02*
X122128571Y-86724819D01*
X122128571Y-86724819D02*
X122033333Y-86724819D01*
X122033333Y-86724819D02*
X121890476Y-86772438D01*
X121890476Y-86772438D02*
X121842857Y-86820057D01*
X121509523Y-86724819D02*
X120890476Y-86724819D01*
X120890476Y-86724819D02*
X121223809Y-87105771D01*
X121223809Y-87105771D02*
X121080952Y-87105771D01*
X121080952Y-87105771D02*
X120985714Y-87153390D01*
X120985714Y-87153390D02*
X120938095Y-87201009D01*
X120938095Y-87201009D02*
X120890476Y-87296247D01*
X120890476Y-87296247D02*
X120890476Y-87534342D01*
X120890476Y-87534342D02*
X120938095Y-87629580D01*
X120938095Y-87629580D02*
X120985714Y-87677200D01*
X120985714Y-87677200D02*
X121080952Y-87724819D01*
X121080952Y-87724819D02*
X121366666Y-87724819D01*
X121366666Y-87724819D02*
X121461904Y-87677200D01*
X121461904Y-87677200D02*
X121509523Y-87629580D01*
X120319047Y-87153390D02*
X120414285Y-87105771D01*
X120414285Y-87105771D02*
X120461904Y-87058152D01*
X120461904Y-87058152D02*
X120509523Y-86962914D01*
X120509523Y-86962914D02*
X120509523Y-86915295D01*
X120509523Y-86915295D02*
X120461904Y-86820057D01*
X120461904Y-86820057D02*
X120414285Y-86772438D01*
X120414285Y-86772438D02*
X120319047Y-86724819D01*
X120319047Y-86724819D02*
X120128571Y-86724819D01*
X120128571Y-86724819D02*
X120033333Y-86772438D01*
X120033333Y-86772438D02*
X119985714Y-86820057D01*
X119985714Y-86820057D02*
X119938095Y-86915295D01*
X119938095Y-86915295D02*
X119938095Y-86962914D01*
X119938095Y-86962914D02*
X119985714Y-87058152D01*
X119985714Y-87058152D02*
X120033333Y-87105771D01*
X120033333Y-87105771D02*
X120128571Y-87153390D01*
X120128571Y-87153390D02*
X120319047Y-87153390D01*
X120319047Y-87153390D02*
X120414285Y-87201009D01*
X120414285Y-87201009D02*
X120461904Y-87248628D01*
X120461904Y-87248628D02*
X120509523Y-87343866D01*
X120509523Y-87343866D02*
X120509523Y-87534342D01*
X120509523Y-87534342D02*
X120461904Y-87629580D01*
X120461904Y-87629580D02*
X120414285Y-87677200D01*
X120414285Y-87677200D02*
X120319047Y-87724819D01*
X120319047Y-87724819D02*
X120128571Y-87724819D01*
X120128571Y-87724819D02*
X120033333Y-87677200D01*
X120033333Y-87677200D02*
X119985714Y-87629580D01*
X119985714Y-87629580D02*
X119938095Y-87534342D01*
X119938095Y-87534342D02*
X119938095Y-87343866D01*
X119938095Y-87343866D02*
X119985714Y-87248628D01*
X119985714Y-87248628D02*
X120033333Y-87201009D01*
X120033333Y-87201009D02*
X120128571Y-87153390D01*
X116342857Y-90179580D02*
X116390476Y-90227200D01*
X116390476Y-90227200D02*
X116533333Y-90274819D01*
X116533333Y-90274819D02*
X116628571Y-90274819D01*
X116628571Y-90274819D02*
X116771428Y-90227200D01*
X116771428Y-90227200D02*
X116866666Y-90131961D01*
X116866666Y-90131961D02*
X116914285Y-90036723D01*
X116914285Y-90036723D02*
X116961904Y-89846247D01*
X116961904Y-89846247D02*
X116961904Y-89703390D01*
X116961904Y-89703390D02*
X116914285Y-89512914D01*
X116914285Y-89512914D02*
X116866666Y-89417676D01*
X116866666Y-89417676D02*
X116771428Y-89322438D01*
X116771428Y-89322438D02*
X116628571Y-89274819D01*
X116628571Y-89274819D02*
X116533333Y-89274819D01*
X116533333Y-89274819D02*
X116390476Y-89322438D01*
X116390476Y-89322438D02*
X116342857Y-89370057D01*
X115485714Y-89608152D02*
X115485714Y-90274819D01*
X115723809Y-89227200D02*
X115961904Y-89941485D01*
X115961904Y-89941485D02*
X115342857Y-89941485D01*
X114533333Y-89608152D02*
X114533333Y-90274819D01*
X114771428Y-89227200D02*
X115009523Y-89941485D01*
X115009523Y-89941485D02*
X114390476Y-89941485D01*
X111092857Y-71629580D02*
X111140476Y-71677200D01*
X111140476Y-71677200D02*
X111283333Y-71724819D01*
X111283333Y-71724819D02*
X111378571Y-71724819D01*
X111378571Y-71724819D02*
X111521428Y-71677200D01*
X111521428Y-71677200D02*
X111616666Y-71581961D01*
X111616666Y-71581961D02*
X111664285Y-71486723D01*
X111664285Y-71486723D02*
X111711904Y-71296247D01*
X111711904Y-71296247D02*
X111711904Y-71153390D01*
X111711904Y-71153390D02*
X111664285Y-70962914D01*
X111664285Y-70962914D02*
X111616666Y-70867676D01*
X111616666Y-70867676D02*
X111521428Y-70772438D01*
X111521428Y-70772438D02*
X111378571Y-70724819D01*
X111378571Y-70724819D02*
X111283333Y-70724819D01*
X111283333Y-70724819D02*
X111140476Y-70772438D01*
X111140476Y-70772438D02*
X111092857Y-70820057D01*
X110140476Y-71724819D02*
X110711904Y-71724819D01*
X110426190Y-71724819D02*
X110426190Y-70724819D01*
X110426190Y-70724819D02*
X110521428Y-70867676D01*
X110521428Y-70867676D02*
X110616666Y-70962914D01*
X110616666Y-70962914D02*
X110711904Y-71010533D01*
X109521428Y-70724819D02*
X109426190Y-70724819D01*
X109426190Y-70724819D02*
X109330952Y-70772438D01*
X109330952Y-70772438D02*
X109283333Y-70820057D01*
X109283333Y-70820057D02*
X109235714Y-70915295D01*
X109235714Y-70915295D02*
X109188095Y-71105771D01*
X109188095Y-71105771D02*
X109188095Y-71343866D01*
X109188095Y-71343866D02*
X109235714Y-71534342D01*
X109235714Y-71534342D02*
X109283333Y-71629580D01*
X109283333Y-71629580D02*
X109330952Y-71677200D01*
X109330952Y-71677200D02*
X109426190Y-71724819D01*
X109426190Y-71724819D02*
X109521428Y-71724819D01*
X109521428Y-71724819D02*
X109616666Y-71677200D01*
X109616666Y-71677200D02*
X109664285Y-71629580D01*
X109664285Y-71629580D02*
X109711904Y-71534342D01*
X109711904Y-71534342D02*
X109759523Y-71343866D01*
X109759523Y-71343866D02*
X109759523Y-71105771D01*
X109759523Y-71105771D02*
X109711904Y-70915295D01*
X109711904Y-70915295D02*
X109664285Y-70820057D01*
X109664285Y-70820057D02*
X109616666Y-70772438D01*
X109616666Y-70772438D02*
X109521428Y-70724819D01*
X109742857Y-105779580D02*
X109790476Y-105827200D01*
X109790476Y-105827200D02*
X109933333Y-105874819D01*
X109933333Y-105874819D02*
X110028571Y-105874819D01*
X110028571Y-105874819D02*
X110171428Y-105827200D01*
X110171428Y-105827200D02*
X110266666Y-105731961D01*
X110266666Y-105731961D02*
X110314285Y-105636723D01*
X110314285Y-105636723D02*
X110361904Y-105446247D01*
X110361904Y-105446247D02*
X110361904Y-105303390D01*
X110361904Y-105303390D02*
X110314285Y-105112914D01*
X110314285Y-105112914D02*
X110266666Y-105017676D01*
X110266666Y-105017676D02*
X110171428Y-104922438D01*
X110171428Y-104922438D02*
X110028571Y-104874819D01*
X110028571Y-104874819D02*
X109933333Y-104874819D01*
X109933333Y-104874819D02*
X109790476Y-104922438D01*
X109790476Y-104922438D02*
X109742857Y-104970057D01*
X109361904Y-104970057D02*
X109314285Y-104922438D01*
X109314285Y-104922438D02*
X109219047Y-104874819D01*
X109219047Y-104874819D02*
X108980952Y-104874819D01*
X108980952Y-104874819D02*
X108885714Y-104922438D01*
X108885714Y-104922438D02*
X108838095Y-104970057D01*
X108838095Y-104970057D02*
X108790476Y-105065295D01*
X108790476Y-105065295D02*
X108790476Y-105160533D01*
X108790476Y-105160533D02*
X108838095Y-105303390D01*
X108838095Y-105303390D02*
X109409523Y-105874819D01*
X109409523Y-105874819D02*
X108790476Y-105874819D01*
X108219047Y-105303390D02*
X108314285Y-105255771D01*
X108314285Y-105255771D02*
X108361904Y-105208152D01*
X108361904Y-105208152D02*
X108409523Y-105112914D01*
X108409523Y-105112914D02*
X108409523Y-105065295D01*
X108409523Y-105065295D02*
X108361904Y-104970057D01*
X108361904Y-104970057D02*
X108314285Y-104922438D01*
X108314285Y-104922438D02*
X108219047Y-104874819D01*
X108219047Y-104874819D02*
X108028571Y-104874819D01*
X108028571Y-104874819D02*
X107933333Y-104922438D01*
X107933333Y-104922438D02*
X107885714Y-104970057D01*
X107885714Y-104970057D02*
X107838095Y-105065295D01*
X107838095Y-105065295D02*
X107838095Y-105112914D01*
X107838095Y-105112914D02*
X107885714Y-105208152D01*
X107885714Y-105208152D02*
X107933333Y-105255771D01*
X107933333Y-105255771D02*
X108028571Y-105303390D01*
X108028571Y-105303390D02*
X108219047Y-105303390D01*
X108219047Y-105303390D02*
X108314285Y-105351009D01*
X108314285Y-105351009D02*
X108361904Y-105398628D01*
X108361904Y-105398628D02*
X108409523Y-105493866D01*
X108409523Y-105493866D02*
X108409523Y-105684342D01*
X108409523Y-105684342D02*
X108361904Y-105779580D01*
X108361904Y-105779580D02*
X108314285Y-105827200D01*
X108314285Y-105827200D02*
X108219047Y-105874819D01*
X108219047Y-105874819D02*
X108028571Y-105874819D01*
X108028571Y-105874819D02*
X107933333Y-105827200D01*
X107933333Y-105827200D02*
X107885714Y-105779580D01*
X107885714Y-105779580D02*
X107838095Y-105684342D01*
X107838095Y-105684342D02*
X107838095Y-105493866D01*
X107838095Y-105493866D02*
X107885714Y-105398628D01*
X107885714Y-105398628D02*
X107933333Y-105351009D01*
X107933333Y-105351009D02*
X108028571Y-105303390D01*
X109342857Y-93879580D02*
X109390476Y-93927200D01*
X109390476Y-93927200D02*
X109533333Y-93974819D01*
X109533333Y-93974819D02*
X109628571Y-93974819D01*
X109628571Y-93974819D02*
X109771428Y-93927200D01*
X109771428Y-93927200D02*
X109866666Y-93831961D01*
X109866666Y-93831961D02*
X109914285Y-93736723D01*
X109914285Y-93736723D02*
X109961904Y-93546247D01*
X109961904Y-93546247D02*
X109961904Y-93403390D01*
X109961904Y-93403390D02*
X109914285Y-93212914D01*
X109914285Y-93212914D02*
X109866666Y-93117676D01*
X109866666Y-93117676D02*
X109771428Y-93022438D01*
X109771428Y-93022438D02*
X109628571Y-92974819D01*
X109628571Y-92974819D02*
X109533333Y-92974819D01*
X109533333Y-92974819D02*
X109390476Y-93022438D01*
X109390476Y-93022438D02*
X109342857Y-93070057D01*
X108390476Y-93974819D02*
X108961904Y-93974819D01*
X108676190Y-93974819D02*
X108676190Y-92974819D01*
X108676190Y-92974819D02*
X108771428Y-93117676D01*
X108771428Y-93117676D02*
X108866666Y-93212914D01*
X108866666Y-93212914D02*
X108961904Y-93260533D01*
X107485714Y-92974819D02*
X107961904Y-92974819D01*
X107961904Y-92974819D02*
X108009523Y-93451009D01*
X108009523Y-93451009D02*
X107961904Y-93403390D01*
X107961904Y-93403390D02*
X107866666Y-93355771D01*
X107866666Y-93355771D02*
X107628571Y-93355771D01*
X107628571Y-93355771D02*
X107533333Y-93403390D01*
X107533333Y-93403390D02*
X107485714Y-93451009D01*
X107485714Y-93451009D02*
X107438095Y-93546247D01*
X107438095Y-93546247D02*
X107438095Y-93784342D01*
X107438095Y-93784342D02*
X107485714Y-93879580D01*
X107485714Y-93879580D02*
X107533333Y-93927200D01*
X107533333Y-93927200D02*
X107628571Y-93974819D01*
X107628571Y-93974819D02*
X107866666Y-93974819D01*
X107866666Y-93974819D02*
X107961904Y-93927200D01*
X107961904Y-93927200D02*
X108009523Y-93879580D01*
D11*
X97954724Y-81822500D02*
X97445276Y-81822500D01*
X97954724Y-80777500D02*
X97445276Y-80777500D01*
X108888748Y-115810000D02*
X110311252Y-115810000D01*
X108888748Y-117630000D02*
X110311252Y-117630000D01*
X123661252Y-62580000D02*
X122238748Y-62580000D01*
X123661252Y-60760000D02*
X122238748Y-60760000D01*
X109238748Y-84510000D02*
X110661252Y-84510000D01*
X109238748Y-86330000D02*
X110661252Y-86330000D01*
X116661252Y-62580000D02*
X115238748Y-62580000D01*
X116661252Y-60760000D02*
X115238748Y-60760000D01*
X120488748Y-131210000D02*
X121911252Y-131210000D01*
X120488748Y-133030000D02*
X121911252Y-133030000D01*
X116911252Y-123930000D02*
X115488748Y-123930000D01*
X116911252Y-122110000D02*
X115488748Y-122110000D01*
X108738748Y-60760000D02*
X110161252Y-60760000D01*
X108738748Y-62580000D02*
X110161252Y-62580000D01*
X116711252Y-108330000D02*
X115288748Y-108330000D01*
X116711252Y-106510000D02*
X115288748Y-106510000D01*
X108388748Y-122110000D02*
X109811252Y-122110000D01*
X108388748Y-123930000D02*
X109811252Y-123930000D01*
X97854724Y-65422500D02*
X97345276Y-65422500D01*
X97854724Y-64377500D02*
X97345276Y-64377500D01*
X123661252Y-92580000D02*
X122238748Y-92580000D01*
X123661252Y-90760000D02*
X122238748Y-90760000D01*
X123711252Y-108330000D02*
X122288748Y-108330000D01*
X123711252Y-106510000D02*
X122288748Y-106510000D01*
X108488748Y-75510000D02*
X109911252Y-75510000D01*
X108488748Y-77330000D02*
X109911252Y-77330000D01*
X116661252Y-77330000D02*
X115238748Y-77330000D01*
X116661252Y-75510000D02*
X115238748Y-75510000D01*
X108988748Y-100010000D02*
X110411252Y-100010000D01*
X108988748Y-101830000D02*
X110411252Y-101830000D01*
X97654724Y-115022500D02*
X97145276Y-115022500D01*
X97654724Y-113977500D02*
X97145276Y-113977500D01*
X123811252Y-123930000D02*
X122388748Y-123930000D01*
X123811252Y-122110000D02*
X122388748Y-122110000D01*
X123661252Y-77330000D02*
X122238748Y-77330000D01*
X123661252Y-75510000D02*
X122238748Y-75510000D01*
X120388748Y-115610000D02*
X121811252Y-115610000D01*
X120388748Y-117430000D02*
X121811252Y-117430000D01*
X97754724Y-131022500D02*
X97245276Y-131022500D01*
X97754724Y-129977500D02*
X97245276Y-129977500D01*
X120488748Y-68510000D02*
X121911252Y-68510000D01*
X120488748Y-70330000D02*
X121911252Y-70330000D01*
X109088748Y-131310000D02*
X110511252Y-131310000D01*
X109088748Y-133130000D02*
X110511252Y-133130000D01*
X120488748Y-100010000D02*
X121911252Y-100010000D01*
X120488748Y-101830000D02*
X121911252Y-101830000D01*
X97654724Y-98622500D02*
X97145276Y-98622500D01*
X97654724Y-97577500D02*
X97145276Y-97577500D01*
X120488748Y-84510000D02*
X121911252Y-84510000D01*
X120488748Y-86330000D02*
X121911252Y-86330000D01*
X116411252Y-92580000D02*
X114988748Y-92580000D01*
X116411252Y-90760000D02*
X114988748Y-90760000D01*
X109738748Y-68510000D02*
X111161252Y-68510000D01*
X109738748Y-70330000D02*
X111161252Y-70330000D01*
X108188748Y-106510000D02*
X109611252Y-106510000D01*
X108188748Y-108330000D02*
X109611252Y-108330000D01*
X107988748Y-90760000D02*
X109411252Y-90760000D01*
X107988748Y-92580000D02*
X109411252Y-92580000D01*
%LPC*%
D12*
X128700000Y-70920000D03*
D13*
X128700000Y-60760000D03*
D12*
X128700000Y-101250000D03*
D13*
X128700000Y-91090000D03*
D12*
X102700000Y-101500000D03*
D13*
X102700000Y-91340000D03*
D14*
X97600000Y-126410000D03*
D15*
X97600000Y-134030000D03*
D16*
X86200000Y-53400000D03*
D17*
X88740000Y-53400000D03*
D18*
X118400000Y-96170000D03*
X124000000Y-96170000D03*
D19*
X127500000Y-139800000D03*
D20*
X107180000Y-139800000D03*
D16*
X86300000Y-138700000D03*
D17*
X86300000Y-141240000D03*
D19*
X91840000Y-148400000D03*
D20*
X112160000Y-148400000D03*
D18*
X107150000Y-127670000D03*
X112750000Y-127670000D03*
D14*
X97600000Y-76400000D03*
D15*
X97600000Y-84020000D03*
D14*
X97700000Y-60100000D03*
D15*
X97700000Y-67720000D03*
D12*
X102950000Y-86000000D03*
D13*
X102950000Y-75840000D03*
D21*
X81400000Y-126490000D03*
D22*
X81400000Y-134110000D03*
D23*
X113900000Y-55900000D03*
X118900000Y-55900000D03*
D18*
X107400000Y-65590000D03*
X113000000Y-65590000D03*
D24*
X81700000Y-113875000D03*
X81700000Y-119525000D03*
D18*
X118400000Y-127670000D03*
X124000000Y-127670000D03*
D12*
X128700000Y-86000000D03*
D13*
X128700000Y-75840000D03*
D18*
X118400000Y-80920000D03*
X124000000Y-80920000D03*
D14*
X97400000Y-93300000D03*
D15*
X97400000Y-100920000D03*
D16*
X129000000Y-149275000D03*
D17*
X129000000Y-146735000D03*
D12*
X128700000Y-117750000D03*
D13*
X128700000Y-107590000D03*
D18*
X118400000Y-65590000D03*
X124000000Y-65590000D03*
X106950000Y-96170000D03*
X112550000Y-96170000D03*
D12*
X102700000Y-117750000D03*
D13*
X102700000Y-107590000D03*
D23*
X88600000Y-130500000D03*
X88600000Y-125500000D03*
D14*
X117610000Y-148000000D03*
D15*
X125230000Y-148000000D03*
D18*
X107200000Y-80920000D03*
X112800000Y-80920000D03*
D25*
X107625000Y-53000000D03*
X101975000Y-53000000D03*
D18*
X106950000Y-112170000D03*
X112550000Y-112170000D03*
D12*
X102700000Y-133500000D03*
D13*
X102700000Y-123340000D03*
D14*
X101800000Y-139900000D03*
D15*
X94180000Y-139900000D03*
D23*
X80900000Y-123600000D03*
X85900000Y-123600000D03*
D16*
X83800000Y-80180000D03*
D17*
X83800000Y-82720000D03*
X83800000Y-85260000D03*
X83800000Y-87800000D03*
X83800000Y-90340000D03*
X83800000Y-92880000D03*
D12*
X103200000Y-70920000D03*
D13*
X103200000Y-60760000D03*
D21*
X85700000Y-134010000D03*
D22*
X85700000Y-126390000D03*
D16*
X124600000Y-53700000D03*
D17*
X127140000Y-53700000D03*
D16*
X84025000Y-149200000D03*
D17*
X86565000Y-149200000D03*
D14*
X97400000Y-109710000D03*
D15*
X97400000Y-117330000D03*
D18*
X118400000Y-111920000D03*
X124000000Y-111920000D03*
D12*
X128700000Y-133500000D03*
D13*
X128700000Y-123340000D03*
D26*
X98612500Y-81300000D03*
X96787500Y-81300000D03*
D27*
X108037500Y-116720000D03*
X111162500Y-116720000D03*
D28*
X124512500Y-61670000D03*
X121387500Y-61670000D03*
D27*
X108387500Y-85420000D03*
X111512500Y-85420000D03*
D28*
X117512500Y-61670000D03*
X114387500Y-61670000D03*
D27*
X119637500Y-132120000D03*
X122762500Y-132120000D03*
D28*
X117762500Y-123020000D03*
X114637500Y-123020000D03*
D27*
X107887500Y-61670000D03*
X111012500Y-61670000D03*
D28*
X117562500Y-107420000D03*
X114437500Y-107420000D03*
D27*
X107537500Y-123020000D03*
X110662500Y-123020000D03*
D26*
X98512500Y-64900000D03*
X96687500Y-64900000D03*
D28*
X124512500Y-91670000D03*
X121387500Y-91670000D03*
X124562500Y-107420000D03*
X121437500Y-107420000D03*
D27*
X107637500Y-76420000D03*
X110762500Y-76420000D03*
D28*
X117512500Y-76420000D03*
X114387500Y-76420000D03*
D27*
X108137500Y-100920000D03*
X111262500Y-100920000D03*
D26*
X98312500Y-114500000D03*
X96487500Y-114500000D03*
D28*
X124662500Y-123020000D03*
X121537500Y-123020000D03*
X124512500Y-76420000D03*
X121387500Y-76420000D03*
D27*
X119537500Y-116520000D03*
X122662500Y-116520000D03*
D26*
X98412500Y-130500000D03*
X96587500Y-130500000D03*
D27*
X119637500Y-69420000D03*
X122762500Y-69420000D03*
X108237500Y-132220000D03*
X111362500Y-132220000D03*
X119637500Y-100920000D03*
X122762500Y-100920000D03*
D26*
X98312500Y-98100000D03*
X96487500Y-98100000D03*
D27*
X119637500Y-85420000D03*
X122762500Y-85420000D03*
D28*
X117262500Y-91670000D03*
X114137500Y-91670000D03*
D27*
X108887500Y-69420000D03*
X112012500Y-69420000D03*
X107337500Y-107420000D03*
X110462500Y-107420000D03*
X107137500Y-91670000D03*
X110262500Y-91670000D03*
%LPD*%
M02*
