G04 #@! TF.GenerationSoftware,KiCad,Pcbnew,7.0.10*
G04 #@! TF.CreationDate,2024-04-06T16:04:27-07:00*
G04 #@! TF.ProjectId,optLowPass,6f70744c-6f77-4506-9173-732e6b696361,rev?*
G04 #@! TF.SameCoordinates,Original*
G04 #@! TF.FileFunction,Soldermask,Bot*
G04 #@! TF.FilePolarity,Negative*
%FSLAX46Y46*%
G04 Gerber Fmt 4.6, Leading zero omitted, Abs format (unit mm)*
G04 Created by KiCad (PCBNEW 7.0.10) date 2024-04-06 16:04:27*
%MOMM*%
%LPD*%
G01*
G04 APERTURE LIST*
G04 Aperture macros list*
%AMRoundRect*
0 Rectangle with rounded corners*
0 $1 Rounding radius*
0 $2 $3 $4 $5 $6 $7 $8 $9 X,Y pos of 4 corners*
0 Add a 4 corners polygon primitive as box body*
4,1,4,$2,$3,$4,$5,$6,$7,$8,$9,$2,$3,0*
0 Add four circle primitives for the rounded corners*
1,1,$1+$1,$2,$3*
1,1,$1+$1,$4,$5*
1,1,$1+$1,$6,$7*
1,1,$1+$1,$8,$9*
0 Add four rect primitives between the rounded corners*
20,1,$1+$1,$2,$3,$4,$5,0*
20,1,$1+$1,$4,$5,$6,$7,0*
20,1,$1+$1,$6,$7,$8,$9,0*
20,1,$1+$1,$8,$9,$2,$3,0*%
G04 Aperture macros list end*
%ADD10R,2.200000X2.200000*%
%ADD11O,2.200000X2.200000*%
%ADD12C,2.000000*%
%ADD13O,2.000000X2.000000*%
%ADD14R,1.700000X1.700000*%
%ADD15O,1.700000X1.700000*%
%ADD16C,2.600000*%
%ADD17C,2.400000*%
%ADD18O,2.400000X2.400000*%
%ADD19R,1.600000X1.600000*%
%ADD20O,1.600000X1.600000*%
%ADD21C,1.600000*%
%ADD22R,4.200000X1.350000*%
%ADD23R,1.350000X4.200000*%
%ADD24RoundRect,0.237500X0.250000X0.237500X-0.250000X0.237500X-0.250000X-0.237500X0.250000X-0.237500X0*%
%ADD25RoundRect,0.250000X-0.412500X-0.650000X0.412500X-0.650000X0.412500X0.650000X-0.412500X0.650000X0*%
%ADD26RoundRect,0.250000X0.412500X0.650000X-0.412500X0.650000X-0.412500X-0.650000X0.412500X-0.650000X0*%
G04 APERTURE END LIST*
D10*
X128700000Y-70920000D03*
D11*
X128700000Y-60760000D03*
D10*
X128700000Y-101250000D03*
D11*
X128700000Y-91090000D03*
D10*
X102700000Y-101500000D03*
D11*
X102700000Y-91340000D03*
D12*
X97600000Y-126410000D03*
D13*
X97600000Y-134030000D03*
D14*
X86200000Y-53400000D03*
D15*
X88740000Y-53400000D03*
D16*
X118400000Y-96170000D03*
X124000000Y-96170000D03*
D17*
X127500000Y-139800000D03*
D18*
X107180000Y-139800000D03*
D14*
X86300000Y-138700000D03*
D15*
X86300000Y-141240000D03*
D17*
X91840000Y-148400000D03*
D18*
X112160000Y-148400000D03*
D16*
X107150000Y-127670000D03*
X112750000Y-127670000D03*
D12*
X97600000Y-76400000D03*
D13*
X97600000Y-84020000D03*
D12*
X97700000Y-60100000D03*
D13*
X97700000Y-67720000D03*
D10*
X102950000Y-86000000D03*
D11*
X102950000Y-75840000D03*
D19*
X81400000Y-126490000D03*
D20*
X81400000Y-134110000D03*
D21*
X113900000Y-55900000D03*
X118900000Y-55900000D03*
D16*
X107400000Y-65590000D03*
X113000000Y-65590000D03*
D22*
X81700000Y-113875000D03*
X81700000Y-119525000D03*
D16*
X118400000Y-127670000D03*
X124000000Y-127670000D03*
D10*
X128700000Y-86000000D03*
D11*
X128700000Y-75840000D03*
D16*
X118400000Y-80920000D03*
X124000000Y-80920000D03*
D12*
X97400000Y-93300000D03*
D13*
X97400000Y-100920000D03*
D14*
X129000000Y-149275000D03*
D15*
X129000000Y-146735000D03*
D10*
X128700000Y-117750000D03*
D11*
X128700000Y-107590000D03*
D16*
X118400000Y-65590000D03*
X124000000Y-65590000D03*
X106950000Y-96170000D03*
X112550000Y-96170000D03*
D10*
X102700000Y-117750000D03*
D11*
X102700000Y-107590000D03*
D21*
X88600000Y-130500000D03*
X88600000Y-125500000D03*
D12*
X117610000Y-148000000D03*
D13*
X125230000Y-148000000D03*
D16*
X107200000Y-80920000D03*
X112800000Y-80920000D03*
D23*
X107625000Y-53000000D03*
X101975000Y-53000000D03*
D16*
X106950000Y-112170000D03*
X112550000Y-112170000D03*
D10*
X102700000Y-133500000D03*
D11*
X102700000Y-123340000D03*
D12*
X101800000Y-139900000D03*
D13*
X94180000Y-139900000D03*
D21*
X80900000Y-123600000D03*
X85900000Y-123600000D03*
D14*
X83800000Y-80180000D03*
D15*
X83800000Y-82720000D03*
X83800000Y-85260000D03*
X83800000Y-87800000D03*
X83800000Y-90340000D03*
X83800000Y-92880000D03*
D10*
X103200000Y-70920000D03*
D11*
X103200000Y-60760000D03*
D19*
X85700000Y-134010000D03*
D20*
X85700000Y-126390000D03*
D14*
X124600000Y-53700000D03*
D15*
X127140000Y-53700000D03*
D14*
X84025000Y-149200000D03*
D15*
X86565000Y-149200000D03*
D12*
X97400000Y-109710000D03*
D13*
X97400000Y-117330000D03*
D16*
X118400000Y-111920000D03*
X124000000Y-111920000D03*
D10*
X128700000Y-133500000D03*
D11*
X128700000Y-123340000D03*
D24*
X98612500Y-81300000D03*
X96787500Y-81300000D03*
D25*
X108037500Y-116720000D03*
X111162500Y-116720000D03*
D26*
X124512500Y-61670000D03*
X121387500Y-61670000D03*
D25*
X108387500Y-85420000D03*
X111512500Y-85420000D03*
D26*
X117512500Y-61670000D03*
X114387500Y-61670000D03*
D25*
X119637500Y-132120000D03*
X122762500Y-132120000D03*
D26*
X117762500Y-123020000D03*
X114637500Y-123020000D03*
D25*
X107887500Y-61670000D03*
X111012500Y-61670000D03*
D26*
X117562500Y-107420000D03*
X114437500Y-107420000D03*
D25*
X107537500Y-123020000D03*
X110662500Y-123020000D03*
D24*
X98512500Y-64900000D03*
X96687500Y-64900000D03*
D26*
X124512500Y-91670000D03*
X121387500Y-91670000D03*
X124562500Y-107420000D03*
X121437500Y-107420000D03*
D25*
X107637500Y-76420000D03*
X110762500Y-76420000D03*
D26*
X117512500Y-76420000D03*
X114387500Y-76420000D03*
D25*
X108137500Y-100920000D03*
X111262500Y-100920000D03*
D24*
X98312500Y-114500000D03*
X96487500Y-114500000D03*
D26*
X124662500Y-123020000D03*
X121537500Y-123020000D03*
X124512500Y-76420000D03*
X121387500Y-76420000D03*
D25*
X119537500Y-116520000D03*
X122662500Y-116520000D03*
D24*
X98412500Y-130500000D03*
X96587500Y-130500000D03*
D25*
X119637500Y-69420000D03*
X122762500Y-69420000D03*
X108237500Y-132220000D03*
X111362500Y-132220000D03*
X119637500Y-100920000D03*
X122762500Y-100920000D03*
D24*
X98312500Y-98100000D03*
X96487500Y-98100000D03*
D25*
X119637500Y-85420000D03*
X122762500Y-85420000D03*
D26*
X117262500Y-91670000D03*
X114137500Y-91670000D03*
D25*
X108887500Y-69420000D03*
X112012500Y-69420000D03*
X107337500Y-107420000D03*
X110462500Y-107420000D03*
X107137500Y-91670000D03*
X110262500Y-91670000D03*
M02*
