M48
; DRILL file {KiCad 7.0.10} date Sat Apr  6 16:05:02 2024
; FORMAT={-:-/ absolute / metric / decimal}
; #@! TF.CreationDate,2024-04-06T16:05:02-07:00
; #@! TF.GenerationSoftware,Kicad,Pcbnew,7.0.10
; #@! TF.FileFunction,Plated,1,2,PTH
FMAT,2
METRIC
; #@! TA.AperFunction,Plated,PTH,ViaDrill
T1C0.400
; #@! TA.AperFunction,Plated,PTH,ComponentDrill
T2C0.800
; #@! TA.AperFunction,Plated,PTH,ComponentDrill
T3C1.000
; #@! TA.AperFunction,Plated,PTH,ComponentDrill
T4C1.100
; #@! TA.AperFunction,Plated,PTH,ComponentDrill
T5C1.200
; #@! TA.AperFunction,Plated,PTH,ComponentDrill
T6C1.300
%
G90
G05
T1
X83.5Y-139.0
X84.1Y-146.4
X84.3Y-63.4
X84.7Y-71.8
X85.3Y-105.3
X90.7Y-77.3
X91.1Y-133.8
X91.1Y-139.9
X91.4Y-125.4
X91.6Y-120.5
X92.4Y-107.2
X92.5Y-63.5
X93.1Y-53.3
X98.8Y-73.2
X98.8Y-88.9
X99.2Y-105.7
X99.2Y-122.1
X99.7Y-53.0
X99.8Y-146.6
X108.5Y-150.4
X109.8Y-53.9
X112.0Y-90.8
X112.0Y-92.4
X112.4Y-121.5
X112.5Y-75.6
X112.5Y-77.2
X112.5Y-106.5
X112.5Y-108.3
X112.5Y-123.0
X112.7Y-60.7
X112.7Y-62.5
X115.6Y-135.5
X119.3Y-91.8
X119.4Y-76.3
X119.5Y-61.6
X119.5Y-107.4
X119.5Y-123.0
X120.8Y-141.9
X130.5Y-137.7
T2
X80.9Y-123.6
X81.4Y-126.49
X81.4Y-134.11
X85.7Y-126.39
X85.7Y-134.01
X85.9Y-123.6
X88.6Y-125.5
X88.6Y-130.5
X113.9Y-55.9
X118.9Y-55.9
T3
X83.8Y-80.18
X83.8Y-82.72
X83.8Y-85.26
X83.8Y-87.8
X83.8Y-90.34
X83.8Y-92.88
X84.025Y-149.2
X86.2Y-53.4
X86.3Y-138.7
X86.3Y-141.24
X86.565Y-149.2
X88.74Y-53.4
X94.18Y-139.9
X97.4Y-93.3
X97.4Y-100.92
X97.4Y-109.71
X97.4Y-117.33
X97.6Y-76.4
X97.6Y-84.02
X97.6Y-126.41
X97.6Y-134.03
X97.7Y-60.1
X97.7Y-67.72
X101.8Y-139.9
X117.61Y-148.0
X124.6Y-53.7
X125.23Y-148.0
X127.14Y-53.7
X129.0Y-146.735
X129.0Y-149.275
T4
X102.7Y-91.34
X102.7Y-101.5
X102.7Y-107.59
X102.7Y-117.75
X102.7Y-123.34
X102.7Y-133.5
X102.95Y-75.84
X102.95Y-86.0
X103.2Y-60.76
X103.2Y-70.92
X128.7Y-60.76
X128.7Y-70.92
X128.7Y-75.84
X128.7Y-86.0
X128.7Y-91.09
X128.7Y-101.25
X128.7Y-107.59
X128.7Y-117.75
X128.7Y-123.34
X128.7Y-133.5
T5
X91.84Y-148.4
X107.18Y-139.8
X112.16Y-148.4
X127.5Y-139.8
T6
X106.95Y-96.17
X106.95Y-112.17
X107.15Y-127.67
X107.2Y-80.92
X107.4Y-65.59
X112.55Y-96.17
X112.55Y-112.17
X112.75Y-127.67
X112.8Y-80.92
X113.0Y-65.59
X118.4Y-65.59
X118.4Y-80.92
X118.4Y-96.17
X118.4Y-111.92
X118.4Y-127.67
X124.0Y-65.59
X124.0Y-80.92
X124.0Y-96.17
X124.0Y-111.92
X124.0Y-127.67
M30
