%TF.GenerationSoftware,KiCad,Pcbnew,(6.0.2)*%
%TF.CreationDate,2022-10-25T13:23:13-07:00*%
%TF.ProjectId,powerAmp_RevB,706f7765-7241-46d7-905f-526576422e6b,rev?*%
%TF.SameCoordinates,Original*%
%TF.FileFunction,Legend,Top*%
%TF.FilePolarity,Positive*%
%FSLAX46Y46*%
G04 Gerber Fmt 4.6, Leading zero omitted, Abs format (unit mm)*
G04 Created by KiCad (PCBNEW (6.0.2)) date 2022-10-25 13:23:13*
%MOMM*%
%LPD*%
G01*
G04 APERTURE LIST*
%ADD10C,0.304800*%
%ADD11C,0.065024*%
%ADD12C,0.029911*%
%ADD13C,0.114300*%
%ADD14C,0.093472*%
%ADD15C,0.097536*%
%ADD16C,0.032512*%
%ADD17C,0.036576*%
%ADD18C,0.150000*%
%ADD19C,0.558800*%
%ADD20C,0.203200*%
%ADD21C,0.200000*%
%ADD22C,0.120000*%
%ADD23C,0.127000*%
G04 APERTURE END LIST*
D10*
X131715309Y-98653600D02*
G75*
G03*
X131715309Y-98653600I-359209J0D01*
G01*
D11*
X120661999Y-101802224D02*
X120590782Y-101766615D01*
X120483957Y-101766615D01*
X120377132Y-101802224D01*
X120305915Y-101873440D01*
X120270307Y-101944657D01*
X120234699Y-102087091D01*
X120234699Y-102193916D01*
X120270307Y-102336349D01*
X120305915Y-102407566D01*
X120377132Y-102478783D01*
X120483957Y-102514391D01*
X120555174Y-102514391D01*
X120661999Y-102478783D01*
X120697608Y-102443174D01*
X120697608Y-102193916D01*
X120555174Y-102193916D01*
X121018083Y-102514391D02*
X121018083Y-101766615D01*
X121445384Y-102514391D01*
X121445384Y-101766615D01*
X121801467Y-102514391D02*
X121801467Y-101766615D01*
X121979509Y-101766615D01*
X122086334Y-101802224D01*
X122157551Y-101873440D01*
X122193160Y-101944657D01*
X122228768Y-102087091D01*
X122228768Y-102193916D01*
X122193160Y-102336349D01*
X122157551Y-102407566D01*
X122086334Y-102478783D01*
X121979509Y-102514391D01*
X121801467Y-102514391D01*
X156881999Y-123762224D02*
X156810782Y-123726615D01*
X156703957Y-123726615D01*
X156597132Y-123762224D01*
X156525915Y-123833440D01*
X156490307Y-123904657D01*
X156454699Y-124047091D01*
X156454699Y-124153916D01*
X156490307Y-124296349D01*
X156525915Y-124367566D01*
X156597132Y-124438783D01*
X156703957Y-124474391D01*
X156775174Y-124474391D01*
X156881999Y-124438783D01*
X156917608Y-124403174D01*
X156917608Y-124153916D01*
X156775174Y-124153916D01*
X137130307Y-117054391D02*
X137130307Y-116306615D01*
X137308349Y-116306615D01*
X137415174Y-116342224D01*
X137486391Y-116413440D01*
X137521999Y-116484657D01*
X137557608Y-116627091D01*
X137557608Y-116733916D01*
X137521999Y-116876349D01*
X137486391Y-116947566D01*
X137415174Y-117018783D01*
X137308349Y-117054391D01*
X137130307Y-117054391D01*
X132571999Y-119502224D02*
X132500782Y-119466615D01*
X132393957Y-119466615D01*
X132287132Y-119502224D01*
X132215915Y-119573440D01*
X132180307Y-119644657D01*
X132144699Y-119787091D01*
X132144699Y-119893916D01*
X132180307Y-120036349D01*
X132215915Y-120107566D01*
X132287132Y-120178783D01*
X132393957Y-120214391D01*
X132465174Y-120214391D01*
X132571999Y-120178783D01*
X132607608Y-120143174D01*
X132607608Y-119893916D01*
X132465174Y-119893916D01*
X124736999Y-125477224D02*
X124665782Y-125441615D01*
X124558957Y-125441615D01*
X124452132Y-125477224D01*
X124380915Y-125548440D01*
X124345307Y-125619657D01*
X124309699Y-125762091D01*
X124309699Y-125868916D01*
X124345307Y-126011349D01*
X124380915Y-126082566D01*
X124452132Y-126153783D01*
X124558957Y-126189391D01*
X124630174Y-126189391D01*
X124736999Y-126153783D01*
X124772608Y-126118174D01*
X124772608Y-125868916D01*
X124630174Y-125868916D01*
X125093083Y-126189391D02*
X125093083Y-125441615D01*
X125520384Y-126189391D01*
X125520384Y-125441615D01*
X125876467Y-126189391D02*
X125876467Y-125441615D01*
X126054509Y-125441615D01*
X126161334Y-125477224D01*
X126232551Y-125548440D01*
X126268160Y-125619657D01*
X126303768Y-125762091D01*
X126303768Y-125868916D01*
X126268160Y-126011349D01*
X126232551Y-126082566D01*
X126161334Y-126153783D01*
X126054509Y-126189391D01*
X125876467Y-126189391D01*
X130444699Y-117208783D02*
X130551524Y-117244391D01*
X130729566Y-117244391D01*
X130800782Y-117208783D01*
X130836391Y-117173174D01*
X130871999Y-117101958D01*
X130871999Y-117030741D01*
X130836391Y-116959524D01*
X130800782Y-116923916D01*
X130729566Y-116888307D01*
X130587132Y-116852699D01*
X130515915Y-116817091D01*
X130480307Y-116781482D01*
X130444699Y-116710265D01*
X130444699Y-116639049D01*
X130480307Y-116567832D01*
X130515915Y-116532224D01*
X130587132Y-116496615D01*
X130765174Y-116496615D01*
X130871999Y-116532224D01*
X135070307Y-126989391D02*
X135070307Y-126241615D01*
X135497608Y-126989391D01*
X135497608Y-126241615D01*
X135782475Y-126241615D02*
X136280992Y-126241615D01*
X135960517Y-126989391D01*
X136494642Y-126241615D02*
X136672684Y-126989391D01*
X136815118Y-126455265D01*
X136957551Y-126989391D01*
X137135593Y-126241615D01*
X137420460Y-126989391D02*
X137420460Y-126241615D01*
X137669719Y-126775741D01*
X137918977Y-126241615D01*
X137918977Y-126989391D01*
X138275061Y-126989391D02*
X138275061Y-126241615D01*
X138702362Y-126989391D01*
X138702362Y-126241615D01*
X139628180Y-126989391D02*
X139628180Y-126241615D01*
X139913047Y-126241615D01*
X139984264Y-126277224D01*
X140019872Y-126312832D01*
X140055480Y-126384049D01*
X140055480Y-126490874D01*
X140019872Y-126562091D01*
X139984264Y-126597699D01*
X139913047Y-126633307D01*
X139628180Y-126633307D01*
X140482781Y-126989391D02*
X140411564Y-126953783D01*
X140375956Y-126918174D01*
X140340347Y-126846958D01*
X140340347Y-126633307D01*
X140375956Y-126562091D01*
X140411564Y-126526482D01*
X140482781Y-126490874D01*
X140589606Y-126490874D01*
X140660823Y-126526482D01*
X140696431Y-126562091D01*
X140732040Y-126633307D01*
X140732040Y-126846958D01*
X140696431Y-126918174D01*
X140660823Y-126953783D01*
X140589606Y-126989391D01*
X140482781Y-126989391D01*
X140981298Y-126490874D02*
X141123732Y-126989391D01*
X141266165Y-126633307D01*
X141408599Y-126989391D01*
X141551032Y-126490874D01*
X142120766Y-126953783D02*
X142049550Y-126989391D01*
X141907116Y-126989391D01*
X141835899Y-126953783D01*
X141800291Y-126882566D01*
X141800291Y-126597699D01*
X141835899Y-126526482D01*
X141907116Y-126490874D01*
X142049550Y-126490874D01*
X142120766Y-126526482D01*
X142156375Y-126597699D01*
X142156375Y-126668916D01*
X141800291Y-126740132D01*
X142476850Y-126989391D02*
X142476850Y-126490874D01*
X142476850Y-126633307D02*
X142512459Y-126562091D01*
X142548067Y-126526482D01*
X142619284Y-126490874D01*
X142690501Y-126490874D01*
X143473885Y-126775741D02*
X143829969Y-126775741D01*
X143402668Y-126989391D02*
X143651927Y-126241615D01*
X143901185Y-126989391D01*
X144150444Y-126989391D02*
X144150444Y-126490874D01*
X144150444Y-126562091D02*
X144186053Y-126526482D01*
X144257269Y-126490874D01*
X144364094Y-126490874D01*
X144435311Y-126526482D01*
X144470920Y-126597699D01*
X144470920Y-126989391D01*
X144470920Y-126597699D02*
X144506528Y-126526482D01*
X144577745Y-126490874D01*
X144684570Y-126490874D01*
X144755787Y-126526482D01*
X144791395Y-126597699D01*
X144791395Y-126989391D01*
X145147479Y-126490874D02*
X145147479Y-127238650D01*
X145147479Y-126526482D02*
X145218696Y-126490874D01*
X145361129Y-126490874D01*
X145432346Y-126526482D01*
X145467954Y-126562091D01*
X145503563Y-126633307D01*
X145503563Y-126846958D01*
X145467954Y-126918174D01*
X145432346Y-126953783D01*
X145361129Y-126989391D01*
X145218696Y-126989391D01*
X145147479Y-126953783D01*
X146821073Y-126989391D02*
X146571814Y-126633307D01*
X146393772Y-126989391D02*
X146393772Y-126241615D01*
X146678639Y-126241615D01*
X146749856Y-126277224D01*
X146785464Y-126312832D01*
X146821073Y-126384049D01*
X146821073Y-126490874D01*
X146785464Y-126562091D01*
X146749856Y-126597699D01*
X146678639Y-126633307D01*
X146393772Y-126633307D01*
X147426415Y-126953783D02*
X147355198Y-126989391D01*
X147212765Y-126989391D01*
X147141548Y-126953783D01*
X147105940Y-126882566D01*
X147105940Y-126597699D01*
X147141548Y-126526482D01*
X147212765Y-126490874D01*
X147355198Y-126490874D01*
X147426415Y-126526482D01*
X147462024Y-126597699D01*
X147462024Y-126668916D01*
X147105940Y-126740132D01*
X147711282Y-126490874D02*
X147889324Y-126989391D01*
X148067366Y-126490874D01*
X148352233Y-126918174D02*
X148387841Y-126953783D01*
X148352233Y-126989391D01*
X148316625Y-126953783D01*
X148352233Y-126918174D01*
X148352233Y-126989391D01*
X149527310Y-126597699D02*
X149634135Y-126633307D01*
X149669743Y-126668916D01*
X149705352Y-126740132D01*
X149705352Y-126846958D01*
X149669743Y-126918174D01*
X149634135Y-126953783D01*
X149562918Y-126989391D01*
X149278051Y-126989391D01*
X149278051Y-126241615D01*
X149527310Y-126241615D01*
X149598526Y-126277224D01*
X149634135Y-126312832D01*
X149669743Y-126384049D01*
X149669743Y-126455265D01*
X149634135Y-126526482D01*
X149598526Y-126562091D01*
X149527310Y-126597699D01*
X149278051Y-126597699D01*
X151038482Y-88291615D02*
X151287741Y-89039391D01*
X151536999Y-88291615D01*
X152213558Y-88968174D02*
X152177950Y-89003783D01*
X152071125Y-89039391D01*
X151999908Y-89039391D01*
X151893083Y-89003783D01*
X151821866Y-88932566D01*
X151786258Y-88861349D01*
X151750649Y-88718916D01*
X151750649Y-88612091D01*
X151786258Y-88469657D01*
X151821866Y-88398440D01*
X151893083Y-88327224D01*
X151999908Y-88291615D01*
X152071125Y-88291615D01*
X152177950Y-88327224D01*
X152213558Y-88362832D01*
X152961334Y-88968174D02*
X152925726Y-89003783D01*
X152818901Y-89039391D01*
X152747684Y-89039391D01*
X152640859Y-89003783D01*
X152569642Y-88932566D01*
X152534034Y-88861349D01*
X152498425Y-88718916D01*
X152498425Y-88612091D01*
X152534034Y-88469657D01*
X152569642Y-88398440D01*
X152640859Y-88327224D01*
X152747684Y-88291615D01*
X152818901Y-88291615D01*
X152925726Y-88327224D01*
X152961334Y-88362832D01*
X153673502Y-89039391D02*
X153246201Y-89039391D01*
X153459852Y-89039391D02*
X153459852Y-88291615D01*
X153388635Y-88398440D01*
X153317418Y-88469657D01*
X153246201Y-88505265D01*
X153958369Y-88362832D02*
X153993977Y-88327224D01*
X154065194Y-88291615D01*
X154243236Y-88291615D01*
X154314453Y-88327224D01*
X154350061Y-88362832D01*
X154385670Y-88434049D01*
X154385670Y-88505265D01*
X154350061Y-88612091D01*
X153922761Y-89039391D01*
X154385670Y-89039391D01*
X124472608Y-122014391D02*
X124223349Y-121658307D01*
X124045307Y-122014391D02*
X124045307Y-121266615D01*
X124330174Y-121266615D01*
X124401391Y-121302224D01*
X124436999Y-121337832D01*
X124472608Y-121409049D01*
X124472608Y-121515874D01*
X124436999Y-121587091D01*
X124401391Y-121622699D01*
X124330174Y-121658307D01*
X124045307Y-121658307D01*
X125042342Y-121622699D02*
X124793083Y-121622699D01*
X124793083Y-122014391D02*
X124793083Y-121266615D01*
X125149167Y-121266615D01*
X126003768Y-122014391D02*
X126003768Y-121266615D01*
X126359852Y-121515874D02*
X126359852Y-122014391D01*
X126359852Y-121587091D02*
X126395460Y-121551482D01*
X126466677Y-121515874D01*
X126573502Y-121515874D01*
X126644719Y-121551482D01*
X126680327Y-121622699D01*
X126680327Y-122014391D01*
X127036411Y-121515874D02*
X127036411Y-122263650D01*
X127036411Y-121551482D02*
X127107628Y-121515874D01*
X127250061Y-121515874D01*
X127321278Y-121551482D01*
X127356886Y-121587091D01*
X127392495Y-121658307D01*
X127392495Y-121871958D01*
X127356886Y-121943174D01*
X127321278Y-121978783D01*
X127250061Y-122014391D01*
X127107628Y-122014391D01*
X127036411Y-121978783D01*
X128033446Y-121515874D02*
X128033446Y-122014391D01*
X127712970Y-121515874D02*
X127712970Y-121907566D01*
X127748579Y-121978783D01*
X127819795Y-122014391D01*
X127926621Y-122014391D01*
X127997837Y-121978783D01*
X128033446Y-121943174D01*
X128282704Y-121515874D02*
X128567571Y-121515874D01*
X128389529Y-121266615D02*
X128389529Y-121907566D01*
X128425138Y-121978783D01*
X128496355Y-122014391D01*
X128567571Y-122014391D01*
X143336999Y-88302224D02*
X143265782Y-88266615D01*
X143158957Y-88266615D01*
X143052132Y-88302224D01*
X142980915Y-88373440D01*
X142945307Y-88444657D01*
X142909699Y-88587091D01*
X142909699Y-88693916D01*
X142945307Y-88836349D01*
X142980915Y-88907566D01*
X143052132Y-88978783D01*
X143158957Y-89014391D01*
X143230174Y-89014391D01*
X143336999Y-88978783D01*
X143372608Y-88943174D01*
X143372608Y-88693916D01*
X143230174Y-88693916D01*
X143693083Y-89014391D02*
X143693083Y-88266615D01*
X144120384Y-89014391D01*
X144120384Y-88266615D01*
X144476467Y-89014391D02*
X144476467Y-88266615D01*
X144654509Y-88266615D01*
X144761334Y-88302224D01*
X144832551Y-88373440D01*
X144868160Y-88444657D01*
X144903768Y-88587091D01*
X144903768Y-88693916D01*
X144868160Y-88836349D01*
X144832551Y-88907566D01*
X144761334Y-88978783D01*
X144654509Y-89014391D01*
X144476467Y-89014391D01*
X123661999Y-89302224D02*
X123590782Y-89266615D01*
X123483957Y-89266615D01*
X123377132Y-89302224D01*
X123305915Y-89373440D01*
X123270307Y-89444657D01*
X123234699Y-89587091D01*
X123234699Y-89693916D01*
X123270307Y-89836349D01*
X123305915Y-89907566D01*
X123377132Y-89978783D01*
X123483957Y-90014391D01*
X123555174Y-90014391D01*
X123661999Y-89978783D01*
X123697608Y-89943174D01*
X123697608Y-89693916D01*
X123555174Y-89693916D01*
X124018083Y-90014391D02*
X124018083Y-89266615D01*
X124445384Y-90014391D01*
X124445384Y-89266615D01*
X124801467Y-90014391D02*
X124801467Y-89266615D01*
X124979509Y-89266615D01*
X125086334Y-89302224D01*
X125157551Y-89373440D01*
X125193160Y-89444657D01*
X125228768Y-89587091D01*
X125228768Y-89693916D01*
X125193160Y-89836349D01*
X125157551Y-89907566D01*
X125086334Y-89978783D01*
X124979509Y-90014391D01*
X124801467Y-90014391D01*
X132761999Y-125502224D02*
X132690782Y-125466615D01*
X132583957Y-125466615D01*
X132477132Y-125502224D01*
X132405915Y-125573440D01*
X132370307Y-125644657D01*
X132334699Y-125787091D01*
X132334699Y-125893916D01*
X132370307Y-126036349D01*
X132405915Y-126107566D01*
X132477132Y-126178783D01*
X132583957Y-126214391D01*
X132655174Y-126214391D01*
X132761999Y-126178783D01*
X132797608Y-126143174D01*
X132797608Y-125893916D01*
X132655174Y-125893916D01*
X133118083Y-126214391D02*
X133118083Y-125466615D01*
X133545384Y-126214391D01*
X133545384Y-125466615D01*
X133901467Y-126214391D02*
X133901467Y-125466615D01*
X134079509Y-125466615D01*
X134186334Y-125502224D01*
X134257551Y-125573440D01*
X134293160Y-125644657D01*
X134328768Y-125787091D01*
X134328768Y-125893916D01*
X134293160Y-126036349D01*
X134257551Y-126107566D01*
X134186334Y-126178783D01*
X134079509Y-126214391D01*
X133901467Y-126214391D01*
X120047608Y-117564391D02*
X119798349Y-117208307D01*
X119620307Y-117564391D02*
X119620307Y-116816615D01*
X119905174Y-116816615D01*
X119976391Y-116852224D01*
X120011999Y-116887832D01*
X120047608Y-116959049D01*
X120047608Y-117065874D01*
X120011999Y-117137091D01*
X119976391Y-117172699D01*
X119905174Y-117208307D01*
X119620307Y-117208307D01*
X120617342Y-117172699D02*
X120368083Y-117172699D01*
X120368083Y-117564391D02*
X120368083Y-116816615D01*
X120724167Y-116816615D01*
X121578768Y-117564391D02*
X121578768Y-116816615D01*
X121934852Y-117065874D02*
X121934852Y-117564391D01*
X121934852Y-117137091D02*
X121970460Y-117101482D01*
X122041677Y-117065874D01*
X122148502Y-117065874D01*
X122219719Y-117101482D01*
X122255327Y-117172699D01*
X122255327Y-117564391D01*
X122611411Y-117065874D02*
X122611411Y-117813650D01*
X122611411Y-117101482D02*
X122682628Y-117065874D01*
X122825061Y-117065874D01*
X122896278Y-117101482D01*
X122931886Y-117137091D01*
X122967495Y-117208307D01*
X122967495Y-117421958D01*
X122931886Y-117493174D01*
X122896278Y-117528783D01*
X122825061Y-117564391D01*
X122682628Y-117564391D01*
X122611411Y-117528783D01*
X123608446Y-117065874D02*
X123608446Y-117564391D01*
X123287970Y-117065874D02*
X123287970Y-117457566D01*
X123323579Y-117528783D01*
X123394795Y-117564391D01*
X123501621Y-117564391D01*
X123572837Y-117528783D01*
X123608446Y-117493174D01*
X123857704Y-117065874D02*
X124142571Y-117065874D01*
X123964529Y-116816615D02*
X123964529Y-117457566D01*
X124000138Y-117528783D01*
X124071355Y-117564391D01*
X124142571Y-117564391D01*
X168112224Y-102898000D02*
X168076615Y-102969217D01*
X168076615Y-103076042D01*
X168112224Y-103182867D01*
X168183440Y-103254084D01*
X168254657Y-103289692D01*
X168397091Y-103325300D01*
X168503916Y-103325300D01*
X168646349Y-103289692D01*
X168717566Y-103254084D01*
X168788783Y-103182867D01*
X168824391Y-103076042D01*
X168824391Y-103004825D01*
X168788783Y-102898000D01*
X168753174Y-102862391D01*
X168503916Y-102862391D01*
X168503916Y-103004825D01*
X168824391Y-102541916D02*
X168076615Y-102541916D01*
X168824391Y-102114615D01*
X168076615Y-102114615D01*
X168824391Y-101758532D02*
X168076615Y-101758532D01*
X168076615Y-101580490D01*
X168112224Y-101473665D01*
X168183440Y-101402448D01*
X168254657Y-101366839D01*
X168397091Y-101331231D01*
X168503916Y-101331231D01*
X168646349Y-101366839D01*
X168717566Y-101402448D01*
X168788783Y-101473665D01*
X168824391Y-101580490D01*
X168824391Y-101758532D01*
X156454699Y-121738783D02*
X156561524Y-121774391D01*
X156739566Y-121774391D01*
X156810782Y-121738783D01*
X156846391Y-121703174D01*
X156881999Y-121631958D01*
X156881999Y-121560741D01*
X156846391Y-121489524D01*
X156810782Y-121453916D01*
X156739566Y-121418307D01*
X156597132Y-121382699D01*
X156525915Y-121347091D01*
X156490307Y-121311482D01*
X156454699Y-121240265D01*
X156454699Y-121169049D01*
X156490307Y-121097832D01*
X156525915Y-121062224D01*
X156597132Y-121026615D01*
X156775174Y-121026615D01*
X156881999Y-121062224D01*
X120495307Y-95614391D02*
X120495307Y-94866615D01*
X120922608Y-95614391D02*
X120602132Y-95187091D01*
X120922608Y-94866615D02*
X120495307Y-95293916D01*
X121527950Y-95578783D02*
X121456733Y-95614391D01*
X121314300Y-95614391D01*
X121243083Y-95578783D01*
X121207475Y-95507566D01*
X121207475Y-95222699D01*
X121243083Y-95151482D01*
X121314300Y-95115874D01*
X121456733Y-95115874D01*
X121527950Y-95151482D01*
X121563558Y-95222699D01*
X121563558Y-95293916D01*
X121207475Y-95365132D01*
X121812817Y-95115874D02*
X121990859Y-95614391D01*
X122168901Y-95115874D02*
X121990859Y-95614391D01*
X121919642Y-95792433D01*
X121884034Y-95828041D01*
X121812817Y-95863650D01*
X122738635Y-95578783D02*
X122667418Y-95614391D01*
X122524985Y-95614391D01*
X122453768Y-95578783D01*
X122418160Y-95507566D01*
X122418160Y-95222699D01*
X122453768Y-95151482D01*
X122524985Y-95115874D01*
X122667418Y-95115874D01*
X122738635Y-95151482D01*
X122774243Y-95222699D01*
X122774243Y-95293916D01*
X122418160Y-95365132D01*
X123094719Y-95614391D02*
X123094719Y-95115874D01*
X123094719Y-95258307D02*
X123130327Y-95187091D01*
X123165936Y-95151482D01*
X123237152Y-95115874D01*
X123308369Y-95115874D01*
X124127362Y-95614391D02*
X124127362Y-94866615D01*
X124483446Y-95115874D02*
X124483446Y-95614391D01*
X124483446Y-95187091D02*
X124519054Y-95151482D01*
X124590271Y-95115874D01*
X124697096Y-95115874D01*
X124768313Y-95151482D01*
X124803921Y-95222699D01*
X124803921Y-95614391D01*
X125160005Y-95115874D02*
X125160005Y-95863650D01*
X125160005Y-95151482D02*
X125231222Y-95115874D01*
X125373655Y-95115874D01*
X125444872Y-95151482D01*
X125480480Y-95187091D01*
X125516089Y-95258307D01*
X125516089Y-95471958D01*
X125480480Y-95543174D01*
X125444872Y-95578783D01*
X125373655Y-95614391D01*
X125231222Y-95614391D01*
X125160005Y-95578783D01*
X126157040Y-95115874D02*
X126157040Y-95614391D01*
X125836564Y-95115874D02*
X125836564Y-95507566D01*
X125872173Y-95578783D01*
X125943389Y-95614391D01*
X126050214Y-95614391D01*
X126121431Y-95578783D01*
X126157040Y-95543174D01*
X126406298Y-95115874D02*
X126691165Y-95115874D01*
X126513123Y-94866615D02*
X126513123Y-95507566D01*
X126548732Y-95578783D01*
X126619949Y-95614391D01*
X126691165Y-95614391D01*
X120686999Y-110302224D02*
X120615782Y-110266615D01*
X120508957Y-110266615D01*
X120402132Y-110302224D01*
X120330915Y-110373440D01*
X120295307Y-110444657D01*
X120259699Y-110587091D01*
X120259699Y-110693916D01*
X120295307Y-110836349D01*
X120330915Y-110907566D01*
X120402132Y-110978783D01*
X120508957Y-111014391D01*
X120580174Y-111014391D01*
X120686999Y-110978783D01*
X120722608Y-110943174D01*
X120722608Y-110693916D01*
X120580174Y-110693916D01*
X121043083Y-111014391D02*
X121043083Y-110266615D01*
X121470384Y-111014391D01*
X121470384Y-110266615D01*
X121826467Y-111014391D02*
X121826467Y-110266615D01*
X122004509Y-110266615D01*
X122111334Y-110302224D01*
X122182551Y-110373440D01*
X122218160Y-110444657D01*
X122253768Y-110587091D01*
X122253768Y-110693916D01*
X122218160Y-110836349D01*
X122182551Y-110907566D01*
X122111334Y-110978783D01*
X122004509Y-111014391D01*
X121826467Y-111014391D01*
X123461999Y-92127224D02*
X123390782Y-92091615D01*
X123283957Y-92091615D01*
X123177132Y-92127224D01*
X123105915Y-92198440D01*
X123070307Y-92269657D01*
X123034699Y-92412091D01*
X123034699Y-92518916D01*
X123070307Y-92661349D01*
X123105915Y-92732566D01*
X123177132Y-92803783D01*
X123283957Y-92839391D01*
X123355174Y-92839391D01*
X123461999Y-92803783D01*
X123497608Y-92768174D01*
X123497608Y-92518916D01*
X123355174Y-92518916D01*
X123818083Y-92839391D02*
X123818083Y-92091615D01*
X124245384Y-92839391D01*
X124245384Y-92091615D01*
X124601467Y-92839391D02*
X124601467Y-92091615D01*
X124779509Y-92091615D01*
X124886334Y-92127224D01*
X124957551Y-92198440D01*
X124993160Y-92269657D01*
X125028768Y-92412091D01*
X125028768Y-92518916D01*
X124993160Y-92661349D01*
X124957551Y-92732566D01*
X124886334Y-92803783D01*
X124779509Y-92839391D01*
X124601467Y-92839391D01*
X168824391Y-98652391D02*
X168468307Y-98901650D01*
X168824391Y-99079692D02*
X168076615Y-99079692D01*
X168076615Y-98794825D01*
X168112224Y-98723608D01*
X168147832Y-98688000D01*
X168219049Y-98652391D01*
X168325874Y-98652391D01*
X168397091Y-98688000D01*
X168432699Y-98723608D01*
X168468307Y-98794825D01*
X168468307Y-99079692D01*
X168432699Y-98082657D02*
X168432699Y-98331916D01*
X168824391Y-98331916D02*
X168076615Y-98331916D01*
X168076615Y-97975832D01*
X168076615Y-96978798D02*
X168076615Y-96836364D01*
X168112224Y-96765147D01*
X168183440Y-96693930D01*
X168325874Y-96658322D01*
X168575132Y-96658322D01*
X168717566Y-96693930D01*
X168788783Y-96765147D01*
X168824391Y-96836364D01*
X168824391Y-96978798D01*
X168788783Y-97050014D01*
X168717566Y-97121231D01*
X168575132Y-97156839D01*
X168325874Y-97156839D01*
X168183440Y-97121231D01*
X168112224Y-97050014D01*
X168076615Y-96978798D01*
X168325874Y-96017371D02*
X168824391Y-96017371D01*
X168325874Y-96337847D02*
X168717566Y-96337847D01*
X168788783Y-96302238D01*
X168824391Y-96231022D01*
X168824391Y-96124196D01*
X168788783Y-96052980D01*
X168753174Y-96017371D01*
X168325874Y-95768113D02*
X168325874Y-95483246D01*
X168076615Y-95661287D02*
X168717566Y-95661287D01*
X168788783Y-95625679D01*
X168824391Y-95554462D01*
X168824391Y-95483246D01*
X156490307Y-119284391D02*
X156490307Y-118536615D01*
X156668349Y-118536615D01*
X156775174Y-118572224D01*
X156846391Y-118643440D01*
X156881999Y-118714657D01*
X156917608Y-118857091D01*
X156917608Y-118963916D01*
X156881999Y-119106349D01*
X156846391Y-119177566D01*
X156775174Y-119248783D01*
X156668349Y-119284391D01*
X156490307Y-119284391D01*
X168112224Y-93298000D02*
X168076615Y-93369217D01*
X168076615Y-93476042D01*
X168112224Y-93582867D01*
X168183440Y-93654084D01*
X168254657Y-93689692D01*
X168397091Y-93725300D01*
X168503916Y-93725300D01*
X168646349Y-93689692D01*
X168717566Y-93654084D01*
X168788783Y-93582867D01*
X168824391Y-93476042D01*
X168824391Y-93404825D01*
X168788783Y-93298000D01*
X168753174Y-93262391D01*
X168503916Y-93262391D01*
X168503916Y-93404825D01*
X168824391Y-92941916D02*
X168076615Y-92941916D01*
X168824391Y-92514615D01*
X168076615Y-92514615D01*
X168824391Y-92158532D02*
X168076615Y-92158532D01*
X168076615Y-91980490D01*
X168112224Y-91873665D01*
X168183440Y-91802448D01*
X168254657Y-91766839D01*
X168397091Y-91731231D01*
X168503916Y-91731231D01*
X168646349Y-91766839D01*
X168717566Y-91802448D01*
X168788783Y-91873665D01*
X168824391Y-91980490D01*
X168824391Y-92158532D01*
D12*
%TO.C,R4*%
X132153209Y-122029164D02*
X131892246Y-121656359D01*
X131705844Y-122029164D02*
X131705844Y-121246275D01*
X132004087Y-121246275D01*
X132078648Y-121283555D01*
X132115929Y-121320835D01*
X132153209Y-121395396D01*
X132153209Y-121507238D01*
X132115929Y-121581798D01*
X132078648Y-121619079D01*
X132004087Y-121656359D01*
X131705844Y-121656359D01*
X132824257Y-121507238D02*
X132824257Y-122029164D01*
X132637855Y-121208994D02*
X132451452Y-121768201D01*
X132936098Y-121768201D01*
%TO.C,R11*%
X150354164Y-121226790D02*
X149981359Y-121487753D01*
X150354164Y-121674155D02*
X149571275Y-121674155D01*
X149571275Y-121375912D01*
X149608555Y-121301351D01*
X149645835Y-121264070D01*
X149720396Y-121226790D01*
X149832238Y-121226790D01*
X149906798Y-121264070D01*
X149944079Y-121301351D01*
X149981359Y-121375912D01*
X149981359Y-121674155D01*
X150354164Y-120481181D02*
X150354164Y-120928547D01*
X150354164Y-120704864D02*
X149571275Y-120704864D01*
X149683116Y-120779425D01*
X149757677Y-120853986D01*
X149794957Y-120928547D01*
X150354164Y-119735573D02*
X150354164Y-120182938D01*
X150354164Y-119959255D02*
X149571275Y-119959255D01*
X149683116Y-120033816D01*
X149757677Y-120108377D01*
X149794957Y-120182938D01*
%TO.C,C17*%
X133043209Y-105929603D02*
X133005929Y-105966883D01*
X132894087Y-106004164D01*
X132819526Y-106004164D01*
X132707685Y-105966883D01*
X132633124Y-105892322D01*
X132595844Y-105817761D01*
X132558563Y-105668640D01*
X132558563Y-105556798D01*
X132595844Y-105407677D01*
X132633124Y-105333116D01*
X132707685Y-105258555D01*
X132819526Y-105221275D01*
X132894087Y-105221275D01*
X133005929Y-105258555D01*
X133043209Y-105295835D01*
X133788818Y-106004164D02*
X133341452Y-106004164D01*
X133565135Y-106004164D02*
X133565135Y-105221275D01*
X133490574Y-105333116D01*
X133416013Y-105407677D01*
X133341452Y-105444957D01*
X134049781Y-105221275D02*
X134571707Y-105221275D01*
X134236183Y-106004164D01*
%TO.C,C14*%
X127613209Y-100989603D02*
X127575929Y-101026883D01*
X127464087Y-101064164D01*
X127389526Y-101064164D01*
X127277685Y-101026883D01*
X127203124Y-100952322D01*
X127165844Y-100877761D01*
X127128563Y-100728640D01*
X127128563Y-100616798D01*
X127165844Y-100467677D01*
X127203124Y-100393116D01*
X127277685Y-100318555D01*
X127389526Y-100281275D01*
X127464087Y-100281275D01*
X127575929Y-100318555D01*
X127613209Y-100355835D01*
X128358818Y-101064164D02*
X127911452Y-101064164D01*
X128135135Y-101064164D02*
X128135135Y-100281275D01*
X128060574Y-100393116D01*
X127986013Y-100467677D01*
X127911452Y-100504957D01*
X129029865Y-100542238D02*
X129029865Y-101064164D01*
X128843463Y-100243994D02*
X128657061Y-100803201D01*
X129141707Y-100803201D01*
%TO.C,R12*%
X150234164Y-125016790D02*
X149861359Y-125277753D01*
X150234164Y-125464155D02*
X149451275Y-125464155D01*
X149451275Y-125165912D01*
X149488555Y-125091351D01*
X149525835Y-125054070D01*
X149600396Y-125016790D01*
X149712238Y-125016790D01*
X149786798Y-125054070D01*
X149824079Y-125091351D01*
X149861359Y-125165912D01*
X149861359Y-125464155D01*
X150234164Y-124271181D02*
X150234164Y-124718547D01*
X150234164Y-124494864D02*
X149451275Y-124494864D01*
X149563116Y-124569425D01*
X149637677Y-124643986D01*
X149674957Y-124718547D01*
X149525835Y-123972938D02*
X149488555Y-123935658D01*
X149451275Y-123861097D01*
X149451275Y-123674695D01*
X149488555Y-123600134D01*
X149525835Y-123562853D01*
X149600396Y-123525573D01*
X149674957Y-123525573D01*
X149786798Y-123562853D01*
X150234164Y-124010218D01*
X150234164Y-123525573D01*
%TO.C,C15*%
X136043209Y-105959603D02*
X136005929Y-105996883D01*
X135894087Y-106034164D01*
X135819526Y-106034164D01*
X135707685Y-105996883D01*
X135633124Y-105922322D01*
X135595844Y-105847761D01*
X135558563Y-105698640D01*
X135558563Y-105586798D01*
X135595844Y-105437677D01*
X135633124Y-105363116D01*
X135707685Y-105288555D01*
X135819526Y-105251275D01*
X135894087Y-105251275D01*
X136005929Y-105288555D01*
X136043209Y-105325835D01*
X136788818Y-106034164D02*
X136341452Y-106034164D01*
X136565135Y-106034164D02*
X136565135Y-105251275D01*
X136490574Y-105363116D01*
X136416013Y-105437677D01*
X136341452Y-105474957D01*
X137497146Y-105251275D02*
X137124341Y-105251275D01*
X137087061Y-105624079D01*
X137124341Y-105586798D01*
X137198902Y-105549518D01*
X137385304Y-105549518D01*
X137459865Y-105586798D01*
X137497146Y-105624079D01*
X137534426Y-105698640D01*
X137534426Y-105885042D01*
X137497146Y-105959603D01*
X137459865Y-105996883D01*
X137385304Y-106034164D01*
X137198902Y-106034164D01*
X137124341Y-105996883D01*
X137087061Y-105959603D01*
%TO.C,R6*%
X148789209Y-112897164D02*
X148528246Y-112524359D01*
X148341844Y-112897164D02*
X148341844Y-112114275D01*
X148640087Y-112114275D01*
X148714648Y-112151555D01*
X148751929Y-112188835D01*
X148789209Y-112263396D01*
X148789209Y-112375238D01*
X148751929Y-112449798D01*
X148714648Y-112487079D01*
X148640087Y-112524359D01*
X148341844Y-112524359D01*
X149460257Y-112114275D02*
X149311135Y-112114275D01*
X149236574Y-112151555D01*
X149199294Y-112188835D01*
X149124733Y-112300677D01*
X149087452Y-112449798D01*
X149087452Y-112748042D01*
X149124733Y-112822603D01*
X149162013Y-112859883D01*
X149236574Y-112897164D01*
X149385696Y-112897164D01*
X149460257Y-112859883D01*
X149497537Y-112822603D01*
X149534818Y-112748042D01*
X149534818Y-112561640D01*
X149497537Y-112487079D01*
X149460257Y-112449798D01*
X149385696Y-112412518D01*
X149236574Y-112412518D01*
X149162013Y-112449798D01*
X149124733Y-112487079D01*
X149087452Y-112561640D01*
D13*
%TO.C,JP2*%
X164558975Y-88703688D02*
X164558975Y-89202616D01*
X164525714Y-89302402D01*
X164459190Y-89368926D01*
X164359404Y-89402188D01*
X164292880Y-89402188D01*
X164891595Y-89402188D02*
X164891595Y-88703688D01*
X165157690Y-88703688D01*
X165224214Y-88736950D01*
X165257475Y-88770211D01*
X165290737Y-88836735D01*
X165290737Y-88936521D01*
X165257475Y-89003045D01*
X165224214Y-89036307D01*
X165157690Y-89069569D01*
X164891595Y-89069569D01*
X165556833Y-88770211D02*
X165590095Y-88736950D01*
X165656618Y-88703688D01*
X165822928Y-88703688D01*
X165889452Y-88736950D01*
X165922714Y-88770211D01*
X165955975Y-88836735D01*
X165955975Y-88903259D01*
X165922714Y-89003045D01*
X165523571Y-89402188D01*
X165955975Y-89402188D01*
%TO.C,JP9*%
X124090175Y-112517488D02*
X124090175Y-113016416D01*
X124056914Y-113116202D01*
X123990390Y-113182726D01*
X123890604Y-113215988D01*
X123824080Y-113215988D01*
X124422795Y-113215988D02*
X124422795Y-112517488D01*
X124688890Y-112517488D01*
X124755414Y-112550750D01*
X124788675Y-112584011D01*
X124821937Y-112650535D01*
X124821937Y-112750321D01*
X124788675Y-112816845D01*
X124755414Y-112850107D01*
X124688890Y-112883369D01*
X124422795Y-112883369D01*
X125154556Y-113215988D02*
X125287604Y-113215988D01*
X125354128Y-113182726D01*
X125387390Y-113149464D01*
X125453914Y-113049678D01*
X125487175Y-112916630D01*
X125487175Y-112650535D01*
X125453914Y-112584011D01*
X125420652Y-112550750D01*
X125354128Y-112517488D01*
X125221080Y-112517488D01*
X125154556Y-112550750D01*
X125121295Y-112584011D01*
X125088033Y-112650535D01*
X125088033Y-112816845D01*
X125121295Y-112883369D01*
X125154556Y-112916630D01*
X125221080Y-112949892D01*
X125354128Y-112949892D01*
X125420652Y-112916630D01*
X125453914Y-112883369D01*
X125487175Y-112816845D01*
%TO.C,JP7*%
X166040175Y-97242488D02*
X166040175Y-97741416D01*
X166006914Y-97841202D01*
X165940390Y-97907726D01*
X165840604Y-97940988D01*
X165774080Y-97940988D01*
X166372795Y-97940988D02*
X166372795Y-97242488D01*
X166638890Y-97242488D01*
X166705414Y-97275750D01*
X166738675Y-97309011D01*
X166771937Y-97375535D01*
X166771937Y-97475321D01*
X166738675Y-97541845D01*
X166705414Y-97575107D01*
X166638890Y-97608369D01*
X166372795Y-97608369D01*
X167004771Y-97242488D02*
X167470437Y-97242488D01*
X167171080Y-97940988D01*
D14*
%TO.C,VR3*%
X140578504Y-125556214D02*
X140818280Y-126275542D01*
X141058056Y-125556214D01*
X141708876Y-126275542D02*
X141469100Y-125933005D01*
X141297832Y-126275542D02*
X141297832Y-125556214D01*
X141571861Y-125556214D01*
X141640369Y-125590468D01*
X141674623Y-125624721D01*
X141708876Y-125693229D01*
X141708876Y-125795990D01*
X141674623Y-125864497D01*
X141640369Y-125898751D01*
X141571861Y-125933005D01*
X141297832Y-125933005D01*
X141948652Y-125556214D02*
X142393951Y-125556214D01*
X142154175Y-125830244D01*
X142256936Y-125830244D01*
X142325443Y-125864497D01*
X142359697Y-125898751D01*
X142393951Y-125967258D01*
X142393951Y-126138527D01*
X142359697Y-126207034D01*
X142325443Y-126241288D01*
X142256936Y-126275542D01*
X142051413Y-126275542D01*
X141982906Y-126241288D01*
X141948652Y-126207034D01*
D12*
%TO.C,C19*%
X143615218Y-105604603D02*
X143577938Y-105641883D01*
X143466097Y-105679164D01*
X143391536Y-105679164D01*
X143279695Y-105641883D01*
X143205134Y-105567322D01*
X143167853Y-105492761D01*
X143130573Y-105343640D01*
X143130573Y-105231798D01*
X143167853Y-105082677D01*
X143205134Y-105008116D01*
X143279695Y-104933555D01*
X143391536Y-104896275D01*
X143466097Y-104896275D01*
X143577938Y-104933555D01*
X143615218Y-104970835D01*
X144360827Y-105679164D02*
X143913462Y-105679164D01*
X144137144Y-105679164D02*
X144137144Y-104896275D01*
X144062584Y-105008116D01*
X143988023Y-105082677D01*
X143913462Y-105119957D01*
X144733631Y-105679164D02*
X144882753Y-105679164D01*
X144957314Y-105641883D01*
X144994594Y-105604603D01*
X145069155Y-105492761D01*
X145106436Y-105343640D01*
X145106436Y-105045396D01*
X145069155Y-104970835D01*
X145031875Y-104933555D01*
X144957314Y-104896275D01*
X144808192Y-104896275D01*
X144733631Y-104933555D01*
X144696351Y-104970835D01*
X144659070Y-105045396D01*
X144659070Y-105231798D01*
X144696351Y-105306359D01*
X144733631Y-105343640D01*
X144808192Y-105380920D01*
X144957314Y-105380920D01*
X145031875Y-105343640D01*
X145069155Y-105306359D01*
X145106436Y-105231798D01*
%TO.C,C18*%
X141065218Y-105654603D02*
X141027938Y-105691883D01*
X140916097Y-105729164D01*
X140841536Y-105729164D01*
X140729695Y-105691883D01*
X140655134Y-105617322D01*
X140617853Y-105542761D01*
X140580573Y-105393640D01*
X140580573Y-105281798D01*
X140617853Y-105132677D01*
X140655134Y-105058116D01*
X140729695Y-104983555D01*
X140841536Y-104946275D01*
X140916097Y-104946275D01*
X141027938Y-104983555D01*
X141065218Y-105020835D01*
X141810827Y-105729164D02*
X141363462Y-105729164D01*
X141587144Y-105729164D02*
X141587144Y-104946275D01*
X141512584Y-105058116D01*
X141438023Y-105132677D01*
X141363462Y-105169957D01*
X142258192Y-105281798D02*
X142183631Y-105244518D01*
X142146351Y-105207238D01*
X142109070Y-105132677D01*
X142109070Y-105095396D01*
X142146351Y-105020835D01*
X142183631Y-104983555D01*
X142258192Y-104946275D01*
X142407314Y-104946275D01*
X142481875Y-104983555D01*
X142519155Y-105020835D01*
X142556436Y-105095396D01*
X142556436Y-105132677D01*
X142519155Y-105207238D01*
X142481875Y-105244518D01*
X142407314Y-105281798D01*
X142258192Y-105281798D01*
X142183631Y-105319079D01*
X142146351Y-105356359D01*
X142109070Y-105430920D01*
X142109070Y-105580042D01*
X142146351Y-105654603D01*
X142183631Y-105691883D01*
X142258192Y-105729164D01*
X142407314Y-105729164D01*
X142481875Y-105691883D01*
X142519155Y-105654603D01*
X142556436Y-105580042D01*
X142556436Y-105430920D01*
X142519155Y-105356359D01*
X142481875Y-105319079D01*
X142407314Y-105281798D01*
%TO.C,R8*%
X124726927Y-100912764D02*
X124465964Y-100539959D01*
X124279562Y-100912764D02*
X124279562Y-100129875D01*
X124577805Y-100129875D01*
X124652366Y-100167155D01*
X124689647Y-100204435D01*
X124726927Y-100278996D01*
X124726927Y-100390838D01*
X124689647Y-100465398D01*
X124652366Y-100502679D01*
X124577805Y-100539959D01*
X124279562Y-100539959D01*
X125174292Y-100465398D02*
X125099731Y-100428118D01*
X125062451Y-100390838D01*
X125025170Y-100316277D01*
X125025170Y-100278996D01*
X125062451Y-100204435D01*
X125099731Y-100167155D01*
X125174292Y-100129875D01*
X125323414Y-100129875D01*
X125397975Y-100167155D01*
X125435255Y-100204435D01*
X125472536Y-100278996D01*
X125472536Y-100316277D01*
X125435255Y-100390838D01*
X125397975Y-100428118D01*
X125323414Y-100465398D01*
X125174292Y-100465398D01*
X125099731Y-100502679D01*
X125062451Y-100539959D01*
X125025170Y-100614520D01*
X125025170Y-100763642D01*
X125062451Y-100838203D01*
X125099731Y-100875483D01*
X125174292Y-100912764D01*
X125323414Y-100912764D01*
X125397975Y-100875483D01*
X125435255Y-100838203D01*
X125472536Y-100763642D01*
X125472536Y-100614520D01*
X125435255Y-100539959D01*
X125397975Y-100502679D01*
X125323414Y-100465398D01*
D14*
%TO.C,T2*%
X144319264Y-92015282D02*
X144730308Y-92015282D01*
X144524786Y-92734610D02*
X144524786Y-92015282D01*
X144935831Y-92083789D02*
X144970084Y-92049536D01*
X145038592Y-92015282D01*
X145209860Y-92015282D01*
X145278368Y-92049536D01*
X145312621Y-92083789D01*
X145346875Y-92152297D01*
X145346875Y-92220804D01*
X145312621Y-92323565D01*
X144901577Y-92734610D01*
X145346875Y-92734610D01*
D15*
X145155761Y-99283939D02*
X144747039Y-99283939D01*
X144951400Y-99283939D02*
X144951400Y-98568675D01*
X144883279Y-98670856D01*
X144815159Y-98738976D01*
X144747039Y-98773036D01*
X149186378Y-98568675D02*
X149629161Y-98568675D01*
X149390740Y-98841157D01*
X149492920Y-98841157D01*
X149561041Y-98875217D01*
X149595101Y-98909277D01*
X149629161Y-98977398D01*
X149629161Y-99147699D01*
X149595101Y-99215819D01*
X149561041Y-99249879D01*
X149492920Y-99283939D01*
X149288559Y-99283939D01*
X149220439Y-99249879D01*
X149186378Y-99215819D01*
X146909039Y-98646196D02*
X146943099Y-98612136D01*
X147011219Y-98578075D01*
X147181520Y-98578075D01*
X147249641Y-98612136D01*
X147283701Y-98646196D01*
X147317761Y-98714316D01*
X147317761Y-98782436D01*
X147283701Y-98884617D01*
X146874978Y-99293339D01*
X147317761Y-99293339D01*
X150445241Y-91949097D02*
X150445241Y-92425939D01*
X150274940Y-91676615D02*
X150104639Y-92187518D01*
X150547421Y-92187518D01*
D12*
%TO.C,R3*%
X141010827Y-107379164D02*
X140749864Y-107006359D01*
X140563462Y-107379164D02*
X140563462Y-106596275D01*
X140861705Y-106596275D01*
X140936266Y-106633555D01*
X140973547Y-106670835D01*
X141010827Y-106745396D01*
X141010827Y-106857238D01*
X140973547Y-106931798D01*
X140936266Y-106969079D01*
X140861705Y-107006359D01*
X140563462Y-107006359D01*
X141271790Y-106596275D02*
X141756436Y-106596275D01*
X141495473Y-106894518D01*
X141607314Y-106894518D01*
X141681875Y-106931798D01*
X141719155Y-106969079D01*
X141756436Y-107043640D01*
X141756436Y-107230042D01*
X141719155Y-107304603D01*
X141681875Y-107341883D01*
X141607314Y-107379164D01*
X141383631Y-107379164D01*
X141309070Y-107341883D01*
X141271790Y-107304603D01*
D13*
%TO.C,JP1*%
X123095657Y-98242488D02*
X123095657Y-98741416D01*
X123062395Y-98841202D01*
X122995871Y-98907726D01*
X122896085Y-98940988D01*
X122829562Y-98940988D01*
X123428276Y-98940988D02*
X123428276Y-98242488D01*
X123694371Y-98242488D01*
X123760895Y-98275750D01*
X123794157Y-98309011D01*
X123827419Y-98375535D01*
X123827419Y-98475321D01*
X123794157Y-98541845D01*
X123760895Y-98575107D01*
X123694371Y-98608369D01*
X123428276Y-98608369D01*
X124492657Y-98940988D02*
X124093514Y-98940988D01*
X124293085Y-98940988D02*
X124293085Y-98242488D01*
X124226562Y-98342273D01*
X124160038Y-98408797D01*
X124093514Y-98442059D01*
D12*
%TO.C,R9*%
X131330927Y-105484764D02*
X131069964Y-105111959D01*
X130883562Y-105484764D02*
X130883562Y-104701875D01*
X131181805Y-104701875D01*
X131256366Y-104739155D01*
X131293647Y-104776435D01*
X131330927Y-104850996D01*
X131330927Y-104962838D01*
X131293647Y-105037398D01*
X131256366Y-105074679D01*
X131181805Y-105111959D01*
X130883562Y-105111959D01*
X131703731Y-105484764D02*
X131852853Y-105484764D01*
X131927414Y-105447483D01*
X131964694Y-105410203D01*
X132039255Y-105298361D01*
X132076536Y-105149240D01*
X132076536Y-104850996D01*
X132039255Y-104776435D01*
X132001975Y-104739155D01*
X131927414Y-104701875D01*
X131778292Y-104701875D01*
X131703731Y-104739155D01*
X131666451Y-104776435D01*
X131629170Y-104850996D01*
X131629170Y-105037398D01*
X131666451Y-105111959D01*
X131703731Y-105149240D01*
X131778292Y-105186520D01*
X131927414Y-105186520D01*
X132001975Y-105149240D01*
X132039255Y-105111959D01*
X132076536Y-105037398D01*
%TO.C,R13*%
X138740309Y-105679164D02*
X138479346Y-105306359D01*
X138292944Y-105679164D02*
X138292944Y-104896275D01*
X138591187Y-104896275D01*
X138665748Y-104933555D01*
X138703029Y-104970835D01*
X138740309Y-105045396D01*
X138740309Y-105157238D01*
X138703029Y-105231798D01*
X138665748Y-105269079D01*
X138591187Y-105306359D01*
X138292944Y-105306359D01*
X139485918Y-105679164D02*
X139038552Y-105679164D01*
X139262235Y-105679164D02*
X139262235Y-104896275D01*
X139187674Y-105008116D01*
X139113113Y-105082677D01*
X139038552Y-105119957D01*
X139746881Y-104896275D02*
X140231526Y-104896275D01*
X139970563Y-105194518D01*
X140082404Y-105194518D01*
X140156965Y-105231798D01*
X140194246Y-105269079D01*
X140231526Y-105343640D01*
X140231526Y-105530042D01*
X140194246Y-105604603D01*
X140156965Y-105641883D01*
X140082404Y-105679164D01*
X139858722Y-105679164D01*
X139784161Y-105641883D01*
X139746881Y-105604603D01*
%TO.C,C7*%
X158010827Y-99254603D02*
X157973547Y-99291883D01*
X157861705Y-99329164D01*
X157787144Y-99329164D01*
X157675303Y-99291883D01*
X157600742Y-99217322D01*
X157563462Y-99142761D01*
X157526181Y-98993640D01*
X157526181Y-98881798D01*
X157563462Y-98732677D01*
X157600742Y-98658116D01*
X157675303Y-98583555D01*
X157787144Y-98546275D01*
X157861705Y-98546275D01*
X157973547Y-98583555D01*
X158010827Y-98620835D01*
X158271790Y-98546275D02*
X158793716Y-98546275D01*
X158458192Y-99329164D01*
D16*
%TO.C,C4*%
X143258010Y-112291142D02*
X143221724Y-112327428D01*
X143112867Y-112363714D01*
X143040295Y-112363714D01*
X142931438Y-112327428D01*
X142858867Y-112254857D01*
X142822581Y-112182285D01*
X142786295Y-112037142D01*
X142786295Y-111928285D01*
X142822581Y-111783142D01*
X142858867Y-111710571D01*
X142931438Y-111638000D01*
X143040295Y-111601714D01*
X143112867Y-111601714D01*
X143221724Y-111638000D01*
X143258010Y-111674285D01*
X143911152Y-111855714D02*
X143911152Y-112363714D01*
X143729724Y-111565428D02*
X143548295Y-112109714D01*
X144020010Y-112109714D01*
D12*
%TO.C,R15*%
X133300218Y-88264164D02*
X133039255Y-87891359D01*
X132852853Y-88264164D02*
X132852853Y-87481275D01*
X133151097Y-87481275D01*
X133225658Y-87518555D01*
X133262938Y-87555835D01*
X133300218Y-87630396D01*
X133300218Y-87742238D01*
X133262938Y-87816798D01*
X133225658Y-87854079D01*
X133151097Y-87891359D01*
X132852853Y-87891359D01*
X134045827Y-88264164D02*
X133598462Y-88264164D01*
X133822144Y-88264164D02*
X133822144Y-87481275D01*
X133747584Y-87593116D01*
X133673023Y-87667677D01*
X133598462Y-87704957D01*
X134754155Y-87481275D02*
X134381351Y-87481275D01*
X134344070Y-87854079D01*
X134381351Y-87816798D01*
X134455912Y-87779518D01*
X134642314Y-87779518D01*
X134716875Y-87816798D01*
X134754155Y-87854079D01*
X134791436Y-87928640D01*
X134791436Y-88115042D01*
X134754155Y-88189603D01*
X134716875Y-88226883D01*
X134642314Y-88264164D01*
X134455912Y-88264164D01*
X134381351Y-88226883D01*
X134344070Y-88189603D01*
D13*
%TO.C,JP12*%
X165455419Y-90092488D02*
X165455419Y-90591416D01*
X165422157Y-90691202D01*
X165355633Y-90757726D01*
X165255847Y-90790988D01*
X165189324Y-90790988D01*
X165788038Y-90790988D02*
X165788038Y-90092488D01*
X166054133Y-90092488D01*
X166120657Y-90125750D01*
X166153919Y-90159011D01*
X166187181Y-90225535D01*
X166187181Y-90325321D01*
X166153919Y-90391845D01*
X166120657Y-90425107D01*
X166054133Y-90458369D01*
X165788038Y-90458369D01*
X166852419Y-90790988D02*
X166453276Y-90790988D01*
X166652847Y-90790988D02*
X166652847Y-90092488D01*
X166586324Y-90192273D01*
X166519800Y-90258797D01*
X166453276Y-90292059D01*
X167118514Y-90159011D02*
X167151776Y-90125750D01*
X167218300Y-90092488D01*
X167384609Y-90092488D01*
X167451133Y-90125750D01*
X167484395Y-90159011D01*
X167517657Y-90225535D01*
X167517657Y-90292059D01*
X167484395Y-90391845D01*
X167085252Y-90790988D01*
X167517657Y-90790988D01*
%TO.C,JP5*%
X128665175Y-123217488D02*
X128665175Y-123716416D01*
X128631914Y-123816202D01*
X128565390Y-123882726D01*
X128465604Y-123915988D01*
X128399080Y-123915988D01*
X128997795Y-123915988D02*
X128997795Y-123217488D01*
X129263890Y-123217488D01*
X129330414Y-123250750D01*
X129363675Y-123284011D01*
X129396937Y-123350535D01*
X129396937Y-123450321D01*
X129363675Y-123516845D01*
X129330414Y-123550107D01*
X129263890Y-123583369D01*
X128997795Y-123583369D01*
X130028914Y-123217488D02*
X129696295Y-123217488D01*
X129663033Y-123550107D01*
X129696295Y-123516845D01*
X129762818Y-123483583D01*
X129929128Y-123483583D01*
X129995652Y-123516845D01*
X130028914Y-123550107D01*
X130062175Y-123616630D01*
X130062175Y-123782940D01*
X130028914Y-123849464D01*
X129995652Y-123882726D01*
X129929128Y-123915988D01*
X129762818Y-123915988D01*
X129696295Y-123882726D01*
X129663033Y-123849464D01*
D12*
%TO.C,R1*%
X142574827Y-98386164D02*
X142313864Y-98013359D01*
X142127462Y-98386164D02*
X142127462Y-97603275D01*
X142425705Y-97603275D01*
X142500266Y-97640555D01*
X142537547Y-97677835D01*
X142574827Y-97752396D01*
X142574827Y-97864238D01*
X142537547Y-97938798D01*
X142500266Y-97976079D01*
X142425705Y-98013359D01*
X142127462Y-98013359D01*
X143320436Y-98386164D02*
X142873070Y-98386164D01*
X143096753Y-98386164D02*
X143096753Y-97603275D01*
X143022192Y-97715116D01*
X142947631Y-97789677D01*
X142873070Y-97826957D01*
D17*
%TO.C,Q6*%
X130126075Y-116225075D02*
X130052149Y-116188112D01*
X129978223Y-116114185D01*
X129867334Y-116003296D01*
X129793408Y-115966333D01*
X129719481Y-115966333D01*
X129756445Y-116151148D02*
X129682518Y-116114185D01*
X129608592Y-116040259D01*
X129571629Y-115892407D01*
X129571629Y-115633666D01*
X129608592Y-115485814D01*
X129682518Y-115411888D01*
X129756445Y-115374924D01*
X129904297Y-115374924D01*
X129978223Y-115411888D01*
X130052149Y-115485814D01*
X130089112Y-115633666D01*
X130089112Y-115892407D01*
X130052149Y-116040259D01*
X129978223Y-116114185D01*
X129904297Y-116151148D01*
X129756445Y-116151148D01*
X130754447Y-115374924D02*
X130606595Y-115374924D01*
X130532669Y-115411888D01*
X130495705Y-115448851D01*
X130421779Y-115559740D01*
X130384816Y-115707592D01*
X130384816Y-116003296D01*
X130421779Y-116077222D01*
X130458742Y-116114185D01*
X130532669Y-116151148D01*
X130680521Y-116151148D01*
X130754447Y-116114185D01*
X130791410Y-116077222D01*
X130828373Y-116003296D01*
X130828373Y-115818481D01*
X130791410Y-115744555D01*
X130754447Y-115707592D01*
X130680521Y-115670629D01*
X130532669Y-115670629D01*
X130458742Y-115707592D01*
X130421779Y-115744555D01*
X130384816Y-115818481D01*
D12*
%TO.C,C8*%
X158010827Y-101954603D02*
X157973547Y-101991883D01*
X157861705Y-102029164D01*
X157787144Y-102029164D01*
X157675303Y-101991883D01*
X157600742Y-101917322D01*
X157563462Y-101842761D01*
X157526181Y-101693640D01*
X157526181Y-101581798D01*
X157563462Y-101432677D01*
X157600742Y-101358116D01*
X157675303Y-101283555D01*
X157787144Y-101246275D01*
X157861705Y-101246275D01*
X157973547Y-101283555D01*
X158010827Y-101320835D01*
X158458192Y-101581798D02*
X158383631Y-101544518D01*
X158346351Y-101507238D01*
X158309070Y-101432677D01*
X158309070Y-101395396D01*
X158346351Y-101320835D01*
X158383631Y-101283555D01*
X158458192Y-101246275D01*
X158607314Y-101246275D01*
X158681875Y-101283555D01*
X158719155Y-101320835D01*
X158756436Y-101395396D01*
X158756436Y-101432677D01*
X158719155Y-101507238D01*
X158681875Y-101544518D01*
X158607314Y-101581798D01*
X158458192Y-101581798D01*
X158383631Y-101619079D01*
X158346351Y-101656359D01*
X158309070Y-101730920D01*
X158309070Y-101880042D01*
X158346351Y-101954603D01*
X158383631Y-101991883D01*
X158458192Y-102029164D01*
X158607314Y-102029164D01*
X158681875Y-101991883D01*
X158719155Y-101954603D01*
X158756436Y-101880042D01*
X158756436Y-101730920D01*
X158719155Y-101656359D01*
X158681875Y-101619079D01*
X158607314Y-101581798D01*
%TO.C,R14*%
X139590218Y-88579164D02*
X139329255Y-88206359D01*
X139142853Y-88579164D02*
X139142853Y-87796275D01*
X139441097Y-87796275D01*
X139515658Y-87833555D01*
X139552938Y-87870835D01*
X139590218Y-87945396D01*
X139590218Y-88057238D01*
X139552938Y-88131798D01*
X139515658Y-88169079D01*
X139441097Y-88206359D01*
X139142853Y-88206359D01*
X140335827Y-88579164D02*
X139888462Y-88579164D01*
X140112144Y-88579164D02*
X140112144Y-87796275D01*
X140037584Y-87908116D01*
X139963023Y-87982677D01*
X139888462Y-88019957D01*
X141006875Y-88057238D02*
X141006875Y-88579164D01*
X140820473Y-87758994D02*
X140634070Y-88318201D01*
X141118716Y-88318201D01*
%TO.C,R21*%
X127915218Y-89579164D02*
X127654255Y-89206359D01*
X127467853Y-89579164D02*
X127467853Y-88796275D01*
X127766097Y-88796275D01*
X127840658Y-88833555D01*
X127877938Y-88870835D01*
X127915218Y-88945396D01*
X127915218Y-89057238D01*
X127877938Y-89131798D01*
X127840658Y-89169079D01*
X127766097Y-89206359D01*
X127467853Y-89206359D01*
X128213462Y-88870835D02*
X128250742Y-88833555D01*
X128325303Y-88796275D01*
X128511705Y-88796275D01*
X128586266Y-88833555D01*
X128623547Y-88870835D01*
X128660827Y-88945396D01*
X128660827Y-89019957D01*
X128623547Y-89131798D01*
X128176181Y-89579164D01*
X128660827Y-89579164D01*
X129406436Y-89579164D02*
X128959070Y-89579164D01*
X129182753Y-89579164D02*
X129182753Y-88796275D01*
X129108192Y-88908116D01*
X129033631Y-88982677D01*
X128959070Y-89019957D01*
D18*
%TO.C,Q1*%
X156854761Y-117577619D02*
X156759523Y-117530000D01*
X156664285Y-117434761D01*
X156521428Y-117291904D01*
X156426190Y-117244285D01*
X156330952Y-117244285D01*
X156378571Y-117482380D02*
X156283333Y-117434761D01*
X156188095Y-117339523D01*
X156140476Y-117149047D01*
X156140476Y-116815714D01*
X156188095Y-116625238D01*
X156283333Y-116530000D01*
X156378571Y-116482380D01*
X156569047Y-116482380D01*
X156664285Y-116530000D01*
X156759523Y-116625238D01*
X156807142Y-116815714D01*
X156807142Y-117149047D01*
X156759523Y-117339523D01*
X156664285Y-117434761D01*
X156569047Y-117482380D01*
X156378571Y-117482380D01*
X157759523Y-117482380D02*
X157188095Y-117482380D01*
X157473809Y-117482380D02*
X157473809Y-116482380D01*
X157378571Y-116625238D01*
X157283333Y-116720476D01*
X157188095Y-116768095D01*
D14*
%TO.C,U$2*%
X141407881Y-91909682D02*
X141407881Y-92491995D01*
X141442135Y-92560502D01*
X141476388Y-92594756D01*
X141544896Y-92629010D01*
X141681911Y-92629010D01*
X141750418Y-92594756D01*
X141784672Y-92560502D01*
X141818926Y-92491995D01*
X141818926Y-91909682D01*
X142127209Y-92594756D02*
X142229970Y-92629010D01*
X142401239Y-92629010D01*
X142469746Y-92594756D01*
X142504000Y-92560502D01*
X142538254Y-92491995D01*
X142538254Y-92423488D01*
X142504000Y-92354980D01*
X142469746Y-92320726D01*
X142401239Y-92286473D01*
X142264224Y-92252219D01*
X142195716Y-92217965D01*
X142161463Y-92183712D01*
X142127209Y-92115204D01*
X142127209Y-92046697D01*
X142161463Y-91978189D01*
X142195716Y-91943936D01*
X142264224Y-91909682D01*
X142435492Y-91909682D01*
X142538254Y-91943936D01*
X142332731Y-91806921D02*
X142332731Y-92731771D01*
X142812283Y-91978189D02*
X142846537Y-91943936D01*
X142915044Y-91909682D01*
X143086313Y-91909682D01*
X143154820Y-91943936D01*
X143189074Y-91978189D01*
X143223328Y-92046697D01*
X143223328Y-92115204D01*
X143189074Y-92217965D01*
X142778030Y-92629010D01*
X143223328Y-92629010D01*
D13*
%TO.C,JP4*%
X158183975Y-125203688D02*
X158183975Y-125702616D01*
X158150714Y-125802402D01*
X158084190Y-125868926D01*
X157984404Y-125902188D01*
X157917880Y-125902188D01*
X158516595Y-125902188D02*
X158516595Y-125203688D01*
X158782690Y-125203688D01*
X158849214Y-125236950D01*
X158882475Y-125270211D01*
X158915737Y-125336735D01*
X158915737Y-125436521D01*
X158882475Y-125503045D01*
X158849214Y-125536307D01*
X158782690Y-125569569D01*
X158516595Y-125569569D01*
X159514452Y-125436521D02*
X159514452Y-125902188D01*
X159348142Y-125170426D02*
X159181833Y-125669354D01*
X159614237Y-125669354D01*
D14*
%TO.C,VR5*%
X151879264Y-104956082D02*
X152119040Y-105675410D01*
X152358816Y-104956082D01*
X153009636Y-105675410D02*
X152769860Y-105332873D01*
X152598592Y-105675410D02*
X152598592Y-104956082D01*
X152872621Y-104956082D01*
X152941129Y-104990336D01*
X152975383Y-105024589D01*
X153009636Y-105093097D01*
X153009636Y-105195858D01*
X152975383Y-105264365D01*
X152941129Y-105298619D01*
X152872621Y-105332873D01*
X152598592Y-105332873D01*
X153660457Y-104956082D02*
X153317920Y-104956082D01*
X153283666Y-105298619D01*
X153317920Y-105264365D01*
X153386427Y-105230112D01*
X153557696Y-105230112D01*
X153626203Y-105264365D01*
X153660457Y-105298619D01*
X153694711Y-105367126D01*
X153694711Y-105538395D01*
X153660457Y-105606902D01*
X153626203Y-105641156D01*
X153557696Y-105675410D01*
X153386427Y-105675410D01*
X153317920Y-105641156D01*
X153283666Y-105606902D01*
D12*
%TO.C,R5*%
X149524827Y-105511164D02*
X149263864Y-105138359D01*
X149077462Y-105511164D02*
X149077462Y-104728275D01*
X149375705Y-104728275D01*
X149450266Y-104765555D01*
X149487547Y-104802835D01*
X149524827Y-104877396D01*
X149524827Y-104989238D01*
X149487547Y-105063798D01*
X149450266Y-105101079D01*
X149375705Y-105138359D01*
X149077462Y-105138359D01*
X150233155Y-104728275D02*
X149860351Y-104728275D01*
X149823070Y-105101079D01*
X149860351Y-105063798D01*
X149934912Y-105026518D01*
X150121314Y-105026518D01*
X150195875Y-105063798D01*
X150233155Y-105101079D01*
X150270436Y-105175640D01*
X150270436Y-105362042D01*
X150233155Y-105436603D01*
X150195875Y-105473883D01*
X150121314Y-105511164D01*
X149934912Y-105511164D01*
X149860351Y-105473883D01*
X149823070Y-105436603D01*
%TO.C,R18*%
X130440218Y-92729164D02*
X130179255Y-92356359D01*
X129992853Y-92729164D02*
X129992853Y-91946275D01*
X130291097Y-91946275D01*
X130365658Y-91983555D01*
X130402938Y-92020835D01*
X130440218Y-92095396D01*
X130440218Y-92207238D01*
X130402938Y-92281798D01*
X130365658Y-92319079D01*
X130291097Y-92356359D01*
X129992853Y-92356359D01*
X131185827Y-92729164D02*
X130738462Y-92729164D01*
X130962144Y-92729164D02*
X130962144Y-91946275D01*
X130887584Y-92058116D01*
X130813023Y-92132677D01*
X130738462Y-92169957D01*
X131633192Y-92281798D02*
X131558631Y-92244518D01*
X131521351Y-92207238D01*
X131484070Y-92132677D01*
X131484070Y-92095396D01*
X131521351Y-92020835D01*
X131558631Y-91983555D01*
X131633192Y-91946275D01*
X131782314Y-91946275D01*
X131856875Y-91983555D01*
X131894155Y-92020835D01*
X131931436Y-92095396D01*
X131931436Y-92132677D01*
X131894155Y-92207238D01*
X131856875Y-92244518D01*
X131782314Y-92281798D01*
X131633192Y-92281798D01*
X131558631Y-92319079D01*
X131521351Y-92356359D01*
X131484070Y-92430920D01*
X131484070Y-92580042D01*
X131521351Y-92654603D01*
X131558631Y-92691883D01*
X131633192Y-92729164D01*
X131782314Y-92729164D01*
X131856875Y-92691883D01*
X131894155Y-92654603D01*
X131931436Y-92580042D01*
X131931436Y-92430920D01*
X131894155Y-92356359D01*
X131856875Y-92319079D01*
X131782314Y-92281798D01*
D13*
%TO.C,JP8*%
X143570657Y-90077488D02*
X143570657Y-90576416D01*
X143537395Y-90676202D01*
X143470871Y-90742726D01*
X143371085Y-90775988D01*
X143304562Y-90775988D01*
X143903276Y-90775988D02*
X143903276Y-90077488D01*
X144169371Y-90077488D01*
X144235895Y-90110750D01*
X144269157Y-90144011D01*
X144302419Y-90210535D01*
X144302419Y-90310321D01*
X144269157Y-90376845D01*
X144235895Y-90410107D01*
X144169371Y-90443369D01*
X143903276Y-90443369D01*
X144701562Y-90376845D02*
X144635038Y-90343583D01*
X144601776Y-90310321D01*
X144568514Y-90243797D01*
X144568514Y-90210535D01*
X144601776Y-90144011D01*
X144635038Y-90110750D01*
X144701562Y-90077488D01*
X144834609Y-90077488D01*
X144901133Y-90110750D01*
X144934395Y-90144011D01*
X144967657Y-90210535D01*
X144967657Y-90243797D01*
X144934395Y-90310321D01*
X144901133Y-90343583D01*
X144834609Y-90376845D01*
X144701562Y-90376845D01*
X144635038Y-90410107D01*
X144601776Y-90443369D01*
X144568514Y-90509892D01*
X144568514Y-90642940D01*
X144601776Y-90709464D01*
X144635038Y-90742726D01*
X144701562Y-90775988D01*
X144834609Y-90775988D01*
X144901133Y-90742726D01*
X144934395Y-90709464D01*
X144967657Y-90642940D01*
X144967657Y-90509892D01*
X144934395Y-90443369D01*
X144901133Y-90410107D01*
X144834609Y-90376845D01*
D12*
%TO.C,R7*%
X128790927Y-95959764D02*
X128529964Y-95586959D01*
X128343562Y-95959764D02*
X128343562Y-95176875D01*
X128641805Y-95176875D01*
X128716366Y-95214155D01*
X128753647Y-95251435D01*
X128790927Y-95325996D01*
X128790927Y-95437838D01*
X128753647Y-95512398D01*
X128716366Y-95549679D01*
X128641805Y-95586959D01*
X128343562Y-95586959D01*
X129051890Y-95176875D02*
X129573816Y-95176875D01*
X129238292Y-95959764D01*
%TO.C,C3*%
X132203209Y-124029603D02*
X132165929Y-124066883D01*
X132054087Y-124104164D01*
X131979526Y-124104164D01*
X131867685Y-124066883D01*
X131793124Y-123992322D01*
X131755844Y-123917761D01*
X131718563Y-123768640D01*
X131718563Y-123656798D01*
X131755844Y-123507677D01*
X131793124Y-123433116D01*
X131867685Y-123358555D01*
X131979526Y-123321275D01*
X132054087Y-123321275D01*
X132165929Y-123358555D01*
X132203209Y-123395835D01*
X132464172Y-123321275D02*
X132948818Y-123321275D01*
X132687855Y-123619518D01*
X132799696Y-123619518D01*
X132874257Y-123656798D01*
X132911537Y-123694079D01*
X132948818Y-123768640D01*
X132948818Y-123955042D01*
X132911537Y-124029603D01*
X132874257Y-124066883D01*
X132799696Y-124104164D01*
X132576013Y-124104164D01*
X132501452Y-124066883D01*
X132464172Y-124029603D01*
D14*
%TO.C,U$1*%
X159732025Y-104006082D02*
X159732025Y-104588395D01*
X159766279Y-104656902D01*
X159800532Y-104691156D01*
X159869040Y-104725410D01*
X160006055Y-104725410D01*
X160074562Y-104691156D01*
X160108816Y-104656902D01*
X160143069Y-104588395D01*
X160143069Y-104006082D01*
X160451353Y-104691156D02*
X160554114Y-104725410D01*
X160725383Y-104725410D01*
X160793890Y-104691156D01*
X160828144Y-104656902D01*
X160862397Y-104588395D01*
X160862397Y-104519888D01*
X160828144Y-104451380D01*
X160793890Y-104417126D01*
X160725383Y-104382873D01*
X160588368Y-104348619D01*
X160519860Y-104314365D01*
X160485607Y-104280112D01*
X160451353Y-104211604D01*
X160451353Y-104143097D01*
X160485607Y-104074589D01*
X160519860Y-104040336D01*
X160588368Y-104006082D01*
X160759636Y-104006082D01*
X160862397Y-104040336D01*
X160656875Y-103903321D02*
X160656875Y-104828171D01*
X161547472Y-104725410D02*
X161136427Y-104725410D01*
X161341949Y-104725410D02*
X161341949Y-104006082D01*
X161273442Y-104108843D01*
X161204935Y-104177350D01*
X161136427Y-104211604D01*
D12*
%TO.C,C2*%
X126685827Y-120979603D02*
X126648547Y-121016883D01*
X126536705Y-121054164D01*
X126462144Y-121054164D01*
X126350303Y-121016883D01*
X126275742Y-120942322D01*
X126238462Y-120867761D01*
X126201181Y-120718640D01*
X126201181Y-120606798D01*
X126238462Y-120457677D01*
X126275742Y-120383116D01*
X126350303Y-120308555D01*
X126462144Y-120271275D01*
X126536705Y-120271275D01*
X126648547Y-120308555D01*
X126685827Y-120345835D01*
X126984070Y-120345835D02*
X127021351Y-120308555D01*
X127095912Y-120271275D01*
X127282314Y-120271275D01*
X127356875Y-120308555D01*
X127394155Y-120345835D01*
X127431436Y-120420396D01*
X127431436Y-120494957D01*
X127394155Y-120606798D01*
X126946790Y-121054164D01*
X127431436Y-121054164D01*
%TO.C,C5*%
X143310827Y-107304603D02*
X143273547Y-107341883D01*
X143161705Y-107379164D01*
X143087144Y-107379164D01*
X142975303Y-107341883D01*
X142900742Y-107267322D01*
X142863462Y-107192761D01*
X142826181Y-107043640D01*
X142826181Y-106931798D01*
X142863462Y-106782677D01*
X142900742Y-106708116D01*
X142975303Y-106633555D01*
X143087144Y-106596275D01*
X143161705Y-106596275D01*
X143273547Y-106633555D01*
X143310827Y-106670835D01*
X144019155Y-106596275D02*
X143646351Y-106596275D01*
X143609070Y-106969079D01*
X143646351Y-106931798D01*
X143720912Y-106894518D01*
X143907314Y-106894518D01*
X143981875Y-106931798D01*
X144019155Y-106969079D01*
X144056436Y-107043640D01*
X144056436Y-107230042D01*
X144019155Y-107304603D01*
X143981875Y-107341883D01*
X143907314Y-107379164D01*
X143720912Y-107379164D01*
X143646351Y-107341883D01*
X143609070Y-107304603D01*
D13*
%TO.C,JP6*%
X120470657Y-87292488D02*
X120470657Y-87791416D01*
X120437395Y-87891202D01*
X120370871Y-87957726D01*
X120271085Y-87990988D01*
X120204562Y-87990988D01*
X120803276Y-87990988D02*
X120803276Y-87292488D01*
X121069371Y-87292488D01*
X121135895Y-87325750D01*
X121169157Y-87359011D01*
X121202419Y-87425535D01*
X121202419Y-87525321D01*
X121169157Y-87591845D01*
X121135895Y-87625107D01*
X121069371Y-87658369D01*
X120803276Y-87658369D01*
X121801133Y-87292488D02*
X121668085Y-87292488D01*
X121601562Y-87325750D01*
X121568300Y-87359011D01*
X121501776Y-87458797D01*
X121468514Y-87591845D01*
X121468514Y-87857940D01*
X121501776Y-87924464D01*
X121535038Y-87957726D01*
X121601562Y-87990988D01*
X121734609Y-87990988D01*
X121801133Y-87957726D01*
X121834395Y-87924464D01*
X121867657Y-87857940D01*
X121867657Y-87691630D01*
X121834395Y-87625107D01*
X121801133Y-87591845D01*
X121734609Y-87558583D01*
X121601562Y-87558583D01*
X121535038Y-87591845D01*
X121501776Y-87625107D01*
X121468514Y-87691630D01*
D14*
%TO.C,U$6*%
X127340925Y-110747482D02*
X127340925Y-111329795D01*
X127375179Y-111398302D01*
X127409432Y-111432556D01*
X127477940Y-111466810D01*
X127614955Y-111466810D01*
X127683462Y-111432556D01*
X127717716Y-111398302D01*
X127751969Y-111329795D01*
X127751969Y-110747482D01*
X128060253Y-111432556D02*
X128163014Y-111466810D01*
X128334283Y-111466810D01*
X128402790Y-111432556D01*
X128437044Y-111398302D01*
X128471297Y-111329795D01*
X128471297Y-111261288D01*
X128437044Y-111192780D01*
X128402790Y-111158526D01*
X128334283Y-111124273D01*
X128197268Y-111090019D01*
X128128760Y-111055765D01*
X128094507Y-111021512D01*
X128060253Y-110953004D01*
X128060253Y-110884497D01*
X128094507Y-110815989D01*
X128128760Y-110781736D01*
X128197268Y-110747482D01*
X128368536Y-110747482D01*
X128471297Y-110781736D01*
X128265775Y-110644721D02*
X128265775Y-111569571D01*
X129087864Y-110747482D02*
X128950849Y-110747482D01*
X128882342Y-110781736D01*
X128848088Y-110815989D01*
X128779581Y-110918750D01*
X128745327Y-111055765D01*
X128745327Y-111329795D01*
X128779581Y-111398302D01*
X128813835Y-111432556D01*
X128882342Y-111466810D01*
X129019357Y-111466810D01*
X129087864Y-111432556D01*
X129122118Y-111398302D01*
X129156372Y-111329795D01*
X129156372Y-111158526D01*
X129122118Y-111090019D01*
X129087864Y-111055765D01*
X129019357Y-111021512D01*
X128882342Y-111021512D01*
X128813835Y-111055765D01*
X128779581Y-111090019D01*
X128745327Y-111158526D01*
D12*
%TO.C,C13*%
X153640218Y-113529603D02*
X153602938Y-113566883D01*
X153491097Y-113604164D01*
X153416536Y-113604164D01*
X153304695Y-113566883D01*
X153230134Y-113492322D01*
X153192853Y-113417761D01*
X153155573Y-113268640D01*
X153155573Y-113156798D01*
X153192853Y-113007677D01*
X153230134Y-112933116D01*
X153304695Y-112858555D01*
X153416536Y-112821275D01*
X153491097Y-112821275D01*
X153602938Y-112858555D01*
X153640218Y-112895835D01*
X154385827Y-113604164D02*
X153938462Y-113604164D01*
X154162144Y-113604164D02*
X154162144Y-112821275D01*
X154087584Y-112933116D01*
X154013023Y-113007677D01*
X153938462Y-113044957D01*
X154646790Y-112821275D02*
X155131436Y-112821275D01*
X154870473Y-113119518D01*
X154982314Y-113119518D01*
X155056875Y-113156798D01*
X155094155Y-113194079D01*
X155131436Y-113268640D01*
X155131436Y-113455042D01*
X155094155Y-113529603D01*
X155056875Y-113566883D01*
X154982314Y-113604164D01*
X154758631Y-113604164D01*
X154684070Y-113566883D01*
X154646790Y-113529603D01*
%TO.C,C1*%
X160460827Y-98804603D02*
X160423547Y-98841883D01*
X160311705Y-98879164D01*
X160237144Y-98879164D01*
X160125303Y-98841883D01*
X160050742Y-98767322D01*
X160013462Y-98692761D01*
X159976181Y-98543640D01*
X159976181Y-98431798D01*
X160013462Y-98282677D01*
X160050742Y-98208116D01*
X160125303Y-98133555D01*
X160237144Y-98096275D01*
X160311705Y-98096275D01*
X160423547Y-98133555D01*
X160460827Y-98170835D01*
X161206436Y-98879164D02*
X160759070Y-98879164D01*
X160982753Y-98879164D02*
X160982753Y-98096275D01*
X160908192Y-98208116D01*
X160833631Y-98282677D01*
X160759070Y-98319957D01*
%TO.C,R2*%
X152378209Y-101229164D02*
X152117246Y-100856359D01*
X151930844Y-101229164D02*
X151930844Y-100446275D01*
X152229087Y-100446275D01*
X152303648Y-100483555D01*
X152340929Y-100520835D01*
X152378209Y-100595396D01*
X152378209Y-100707238D01*
X152340929Y-100781798D01*
X152303648Y-100819079D01*
X152229087Y-100856359D01*
X151930844Y-100856359D01*
X152676452Y-100520835D02*
X152713733Y-100483555D01*
X152788294Y-100446275D01*
X152974696Y-100446275D01*
X153049257Y-100483555D01*
X153086537Y-100520835D01*
X153123818Y-100595396D01*
X153123818Y-100669957D01*
X153086537Y-100781798D01*
X152639172Y-101229164D01*
X153123818Y-101229164D01*
%TO.C,C9*%
X159685827Y-94104603D02*
X159648547Y-94141883D01*
X159536705Y-94179164D01*
X159462144Y-94179164D01*
X159350303Y-94141883D01*
X159275742Y-94067322D01*
X159238462Y-93992761D01*
X159201181Y-93843640D01*
X159201181Y-93731798D01*
X159238462Y-93582677D01*
X159275742Y-93508116D01*
X159350303Y-93433555D01*
X159462144Y-93396275D01*
X159536705Y-93396275D01*
X159648547Y-93433555D01*
X159685827Y-93470835D01*
X160058631Y-94179164D02*
X160207753Y-94179164D01*
X160282314Y-94141883D01*
X160319594Y-94104603D01*
X160394155Y-93992761D01*
X160431436Y-93843640D01*
X160431436Y-93545396D01*
X160394155Y-93470835D01*
X160356875Y-93433555D01*
X160282314Y-93396275D01*
X160133192Y-93396275D01*
X160058631Y-93433555D01*
X160021351Y-93470835D01*
X159984070Y-93545396D01*
X159984070Y-93731798D01*
X160021351Y-93806359D01*
X160058631Y-93843640D01*
X160133192Y-93880920D01*
X160282314Y-93880920D01*
X160356875Y-93843640D01*
X160394155Y-93806359D01*
X160431436Y-93731798D01*
%TO.C,R4*%
G36*
X135028600Y-122081000D02*
G01*
X134571400Y-122081000D01*
X134571400Y-121319000D01*
X135028600Y-121319000D01*
X135028600Y-122081000D01*
G37*
D19*
%TO.C,C17*%
X133926600Y-103098600D02*
X133865600Y-103098600D01*
%TO.C,C14*%
X128211600Y-103098600D02*
X128150600Y-103098600D01*
%TO.C,C15*%
X136466600Y-103098600D02*
X136405600Y-103098600D01*
%TO.C,R6*%
G36*
X149406000Y-114803600D02*
G01*
X148644000Y-114803600D01*
X148644000Y-114346400D01*
X149406000Y-114346400D01*
X149406000Y-114803600D01*
G37*
D20*
%TO.C,JP2*%
X160385000Y-87740000D02*
X161020000Y-88375000D01*
X161020000Y-89645000D02*
X160385000Y-90280000D01*
X160385000Y-90280000D02*
X159115000Y-90280000D01*
X163560000Y-89645000D02*
X162925000Y-90280000D01*
X161655000Y-90280000D02*
X161020000Y-89645000D01*
X158480000Y-89645000D02*
X159115000Y-90280000D01*
X159115000Y-87740000D02*
X158480000Y-88375000D01*
X163560000Y-88375000D02*
X163560000Y-89645000D01*
X162925000Y-90280000D02*
X161655000Y-90280000D01*
X161655000Y-87740000D02*
X162925000Y-87740000D01*
X161020000Y-88375000D02*
X161655000Y-87740000D01*
X158480000Y-88375000D02*
X158480000Y-89645000D01*
X162925000Y-87740000D02*
X163560000Y-88375000D01*
X159115000Y-87740000D02*
X160385000Y-87740000D01*
%TO.C,JP9*%
X121831100Y-113893600D02*
X122466100Y-114528600D01*
X119926100Y-115798600D02*
X119926100Y-114528600D01*
X120561100Y-116433600D02*
X119926100Y-115798600D01*
X121831100Y-111353600D02*
X120561100Y-111353600D01*
X122466100Y-111988600D02*
X122466100Y-113258600D01*
X121831100Y-116433600D02*
X120561100Y-116433600D01*
X119926100Y-113258600D02*
X119926100Y-111988600D01*
X122466100Y-113258600D02*
X121831100Y-113893600D01*
X119926100Y-114528600D02*
X120561100Y-113893600D01*
X122466100Y-114528600D02*
X122466100Y-115798600D01*
X120561100Y-113893600D02*
X119926100Y-113258600D01*
X120561100Y-111353600D02*
X119926100Y-111988600D01*
X122466100Y-115798600D02*
X121831100Y-116433600D01*
X122466100Y-111988600D02*
X121831100Y-111353600D01*
%TO.C,JP7*%
X165330000Y-102830000D02*
X165330000Y-101560000D01*
X167870000Y-100290000D02*
X167235000Y-100925000D01*
X165965000Y-98385000D02*
X165330000Y-99020000D01*
X165965000Y-100925000D02*
X165330000Y-100290000D01*
X167870000Y-99020000D02*
X167870000Y-100290000D01*
X167870000Y-101560000D02*
X167870000Y-102830000D01*
X165965000Y-103465000D02*
X165330000Y-102830000D01*
X165330000Y-100290000D02*
X165330000Y-99020000D01*
X167235000Y-98385000D02*
X165965000Y-98385000D01*
X167870000Y-99020000D02*
X167235000Y-98385000D01*
X167235000Y-100925000D02*
X167870000Y-101560000D01*
X167870000Y-102830000D02*
X167235000Y-103465000D01*
X165330000Y-101560000D02*
X165965000Y-100925000D01*
X167235000Y-103465000D02*
X165965000Y-103465000D01*
D21*
%TO.C,VR3*%
X137836100Y-115478600D02*
X142656100Y-115478600D01*
X142656100Y-125008600D02*
X137836100Y-125008600D01*
X137836100Y-125008600D02*
X137836100Y-115478600D01*
X142656100Y-115478600D02*
X142656100Y-125008600D01*
X140606118Y-114707600D02*
G75*
G03*
X140606118Y-114707600I-100018J0D01*
G01*
D19*
%TO.C,C19*%
X144025600Y-103098600D02*
X144086600Y-103098600D01*
%TO.C,C18*%
X141485600Y-103098600D02*
X141546600Y-103098600D01*
%TO.C,R8*%
G36*
X125387100Y-103327200D02*
G01*
X124625100Y-103327200D01*
X124625100Y-102870000D01*
X125387100Y-102870000D01*
X125387100Y-103327200D01*
G37*
D20*
%TO.C,T2*%
X144723400Y-93222000D02*
X151276600Y-93222000D01*
X144723400Y-96778000D02*
X144723400Y-93222000D01*
X151276600Y-93222000D02*
X151276600Y-96778000D01*
X151276600Y-96778000D02*
X144723400Y-96778000D01*
%TO.C,R3*%
G36*
X141681000Y-109403600D02*
G01*
X140919000Y-109403600D01*
X140919000Y-108946400D01*
X141681000Y-108946400D01*
X141681000Y-109403600D01*
G37*
%TO.C,JP1*%
X120561100Y-96113600D02*
X121831100Y-96113600D01*
X119926100Y-100558600D02*
X119926100Y-99288600D01*
X121831100Y-101193600D02*
X122466100Y-100558600D01*
X122466100Y-98018600D02*
X121831100Y-98653600D01*
X121831100Y-96113600D02*
X122466100Y-96748600D01*
X122466100Y-99288600D02*
X122466100Y-100558600D01*
X119926100Y-99288600D02*
X120561100Y-98653600D01*
X120561100Y-98653600D02*
X119926100Y-98018600D01*
X119926100Y-98018600D02*
X119926100Y-96748600D01*
X119926100Y-100558600D02*
X120561100Y-101193600D01*
X119926100Y-96748600D02*
X120561100Y-96113600D01*
X122466100Y-96748600D02*
X122466100Y-98018600D01*
X121831100Y-98653600D02*
X122466100Y-99288600D01*
X120561100Y-101193600D02*
X121831100Y-101193600D01*
%TO.C,R9*%
G36*
X131737100Y-103327200D02*
G01*
X130975100Y-103327200D01*
X130975100Y-102870000D01*
X131737100Y-102870000D01*
X131737100Y-103327200D01*
G37*
%TO.C,R13*%
G36*
X139357100Y-103327200D02*
G01*
X138595100Y-103327200D01*
X138595100Y-102870000D01*
X139357100Y-102870000D01*
X139357100Y-103327200D01*
G37*
D19*
%TO.C,C7*%
X155825000Y-98794500D02*
X155825000Y-98855500D01*
D20*
%TO.C,C4*%
X146035000Y-115200000D02*
X144765000Y-115200000D01*
%TO.C,R15*%
G36*
X136664700Y-89509600D02*
G01*
X136207500Y-89509600D01*
X136207500Y-88747600D01*
X136664700Y-88747600D01*
X136664700Y-89509600D01*
G37*
%TO.C,JP12*%
X165330000Y-95880000D02*
X165330000Y-94610000D01*
X167870000Y-93340000D02*
X167235000Y-93975000D01*
X165965000Y-91435000D02*
X167235000Y-91435000D01*
X167870000Y-94610000D02*
X167870000Y-95880000D01*
X165330000Y-95880000D02*
X165965000Y-96515000D01*
X167870000Y-92070000D02*
X167870000Y-93340000D01*
X167235000Y-96515000D02*
X167870000Y-95880000D01*
X165330000Y-93340000D02*
X165330000Y-92070000D01*
X167235000Y-93975000D02*
X167870000Y-94610000D01*
X167235000Y-91435000D02*
X167870000Y-92070000D01*
X165965000Y-96515000D02*
X167235000Y-96515000D01*
X165330000Y-92070000D02*
X165965000Y-91435000D01*
X165330000Y-94610000D02*
X165965000Y-93975000D01*
X165965000Y-93975000D02*
X165330000Y-93340000D01*
%TO.C,JP5*%
X131770000Y-125065000D02*
X131770000Y-126335000D01*
X131770000Y-126335000D02*
X131135000Y-126970000D01*
X128595000Y-126970000D02*
X127325000Y-126970000D01*
X127325000Y-124430000D02*
X128595000Y-124430000D01*
X129230000Y-125065000D02*
X129865000Y-124430000D01*
X128595000Y-124430000D02*
X129230000Y-125065000D01*
X126690000Y-125065000D02*
X126690000Y-126335000D01*
X129865000Y-126970000D02*
X129230000Y-126335000D01*
X127325000Y-124430000D02*
X126690000Y-125065000D01*
X129865000Y-124430000D02*
X131135000Y-124430000D01*
X131135000Y-126970000D02*
X129865000Y-126970000D01*
X131135000Y-124430000D02*
X131770000Y-125065000D01*
X126690000Y-126335000D02*
X127325000Y-126970000D01*
X129230000Y-126335000D02*
X128595000Y-126970000D01*
%TO.C,R1*%
G36*
X142981000Y-96228600D02*
G01*
X142219000Y-96228600D01*
X142219000Y-95771400D01*
X142981000Y-95771400D01*
X142981000Y-96228600D01*
G37*
%TO.C,Q6*%
X134286300Y-116746000D02*
X133713700Y-116746000D01*
X131746300Y-116746000D02*
X131345100Y-116746000D01*
X136094500Y-115349000D02*
X131905500Y-115349000D01*
X136654900Y-116746000D02*
X136253700Y-116746000D01*
X134786300Y-119548500D02*
G75*
G03*
X136094599Y-115349001I-786300J2548503D01*
G01*
X131905500Y-115349000D02*
G75*
G03*
X133213700Y-119548397I2094500J-1650984D01*
G01*
D19*
%TO.C,C8*%
X155825000Y-101644500D02*
X155825000Y-101705500D01*
%TO.C,R14*%
G36*
X140474700Y-90144600D02*
G01*
X140017500Y-90144600D01*
X140017500Y-89382600D01*
X140474700Y-89382600D01*
X140474700Y-90144600D01*
G37*
%TO.C,R21*%
G36*
X131584700Y-89509600D02*
G01*
X131127500Y-89509600D01*
X131127500Y-88747600D01*
X131584700Y-88747600D01*
X131584700Y-89509600D01*
G37*
D22*
%TO.C,Q1*%
X150810000Y-116390000D02*
X155451000Y-116390000D01*
X152320000Y-126630000D02*
X152320000Y-116390000D01*
X150810000Y-123360000D02*
X152320000Y-123360000D01*
X150810000Y-126630000D02*
X150810000Y-116390000D01*
X155451000Y-126630000D02*
X155451000Y-116390000D01*
X150810000Y-119659000D02*
X152320000Y-119659000D01*
X150810000Y-126630000D02*
X155451000Y-126630000D01*
D20*
%TO.C,U$2*%
X140741100Y-97513600D02*
X140741100Y-98013600D01*
X132131100Y-97513600D02*
X132131100Y-94213600D01*
X140741100Y-94213600D02*
X140741100Y-97513600D01*
X132131100Y-98013600D02*
X132131100Y-97513600D01*
%TO.C,JP4*%
X160360000Y-126145000D02*
X160995000Y-126780000D01*
X165440000Y-124875000D02*
X165440000Y-126145000D01*
X162265000Y-126780000D02*
X160995000Y-126780000D01*
X164805000Y-124240000D02*
X165440000Y-124875000D01*
X163535000Y-124240000D02*
X164805000Y-124240000D01*
X160995000Y-124240000D02*
X162265000Y-124240000D01*
X162265000Y-124240000D02*
X162900000Y-124875000D01*
X160995000Y-124240000D02*
X160360000Y-124875000D01*
X162900000Y-126145000D02*
X162265000Y-126780000D01*
X165440000Y-126145000D02*
X164805000Y-126780000D01*
X160360000Y-124875000D02*
X160360000Y-126145000D01*
X162900000Y-124875000D02*
X163535000Y-124240000D01*
X164805000Y-126780000D02*
X163535000Y-126780000D01*
X163535000Y-126780000D02*
X162900000Y-126145000D01*
D21*
%TO.C,VR5*%
X146395509Y-110885000D02*
X146395509Y-106065000D01*
X155925509Y-110885000D02*
X146395509Y-110885000D01*
X146395509Y-106065000D02*
X155925509Y-106065000D01*
X155925509Y-106065000D02*
X155925509Y-110885000D01*
X145724527Y-108215000D02*
G75*
G03*
X145724527Y-108215000I-100018J0D01*
G01*
%TO.C,R5*%
G36*
X149931000Y-103353600D02*
G01*
X149169000Y-103353600D01*
X149169000Y-102896400D01*
X149931000Y-102896400D01*
X149931000Y-103353600D01*
G37*
%TO.C,R18*%
G36*
X129197100Y-92532200D02*
G01*
X128435100Y-92532200D01*
X128435100Y-92075000D01*
X129197100Y-92075000D01*
X129197100Y-92532200D01*
G37*
D20*
%TO.C,JP8*%
X147140000Y-89980000D02*
X145870000Y-89980000D01*
X145870000Y-87440000D02*
X147140000Y-87440000D01*
X148410000Y-87440000D02*
X149680000Y-87440000D01*
X148410000Y-89980000D02*
X147775000Y-89345000D01*
X150315000Y-88075000D02*
X149680000Y-87440000D01*
X145870000Y-89980000D02*
X145235000Y-89345000D01*
X147775000Y-89345000D02*
X147140000Y-89980000D01*
X147140000Y-87440000D02*
X147775000Y-88075000D01*
X145235000Y-89345000D02*
X145235000Y-88075000D01*
X149680000Y-89980000D02*
X148410000Y-89980000D01*
X147775000Y-88075000D02*
X148410000Y-87440000D01*
X149680000Y-89980000D02*
X150315000Y-89345000D01*
X150315000Y-89345000D02*
X150315000Y-88075000D01*
X145235000Y-88075000D02*
X145870000Y-87440000D01*
%TO.C,R7*%
G36*
X129044700Y-97764600D02*
G01*
X128587500Y-97764600D01*
X128587500Y-97002600D01*
X129044700Y-97002600D01*
X129044700Y-97764600D01*
G37*
D19*
%TO.C,C3*%
X134800000Y-124269500D02*
X134800000Y-124330500D01*
D23*
%TO.C,U$1*%
X167880000Y-105187500D02*
X167880000Y-114712500D01*
X167880000Y-114712500D02*
X157720000Y-114712500D01*
X157720000Y-114712500D02*
X157720000Y-105187500D01*
X157720000Y-105187500D02*
X167880000Y-105187500D01*
D19*
%TO.C,C2*%
X126276100Y-119004100D02*
X126276100Y-118943100D01*
%TO.C,C5*%
X143730500Y-109175000D02*
X143669500Y-109175000D01*
D20*
%TO.C,JP6*%
X122520000Y-91710000D02*
X122520000Y-92980000D01*
X121885000Y-91075000D02*
X122520000Y-91710000D01*
X119980000Y-92980000D02*
X119980000Y-91710000D01*
X119980000Y-91710000D02*
X120615000Y-91075000D01*
X119980000Y-92980000D02*
X120615000Y-93615000D01*
X121885000Y-93615000D02*
X122520000Y-92980000D01*
X120615000Y-91075000D02*
X119980000Y-90440000D01*
X119980000Y-89170000D02*
X120615000Y-88535000D01*
X119980000Y-90440000D02*
X119980000Y-89170000D01*
X120615000Y-88535000D02*
X121885000Y-88535000D01*
X122520000Y-89170000D02*
X122520000Y-90440000D01*
X122520000Y-90440000D02*
X121885000Y-91075000D01*
X120615000Y-93615000D02*
X121885000Y-93615000D01*
X121885000Y-88535000D02*
X122520000Y-89170000D01*
D23*
%TO.C,U$6*%
X139387500Y-113465000D02*
X137165000Y-113465000D01*
X137165000Y-113465000D02*
X137165000Y-114735000D01*
X132085000Y-113465000D02*
X129862500Y-113465000D01*
X129862500Y-113465000D02*
X129862500Y-108385000D01*
X137165000Y-108385000D02*
X139387500Y-108385000D01*
X129862500Y-108385000D02*
X132085000Y-108385000D01*
X132085000Y-107115000D02*
X137165000Y-107115000D01*
X139387500Y-108385000D02*
X139387500Y-113465000D01*
X132085000Y-114735000D02*
X132085000Y-113465000D01*
X132085000Y-108385000D02*
X132085000Y-107115000D01*
X137165000Y-114735000D02*
X132085000Y-114735000D01*
X137165000Y-107115000D02*
X137165000Y-108385000D01*
D19*
%TO.C,C13*%
X151894500Y-113900000D02*
X151955500Y-113900000D01*
D20*
%TO.C,C1*%
X162140000Y-100175000D02*
X163410000Y-100175000D01*
%TO.C,R2*%
G36*
X152881000Y-98928600D02*
G01*
X152119000Y-98928600D01*
X152119000Y-98471400D01*
X152881000Y-98471400D01*
X152881000Y-98928600D01*
G37*
%TO.C,C9*%
X156720000Y-93190000D02*
X156720000Y-91920000D01*
X158700000Y-93825000D02*
G75*
G03*
X158700000Y-93825000I-3250000J0D01*
G01*
%TD*%
M02*
