%TF.GenerationSoftware,KiCad,Pcbnew,(6.0.2)*%
%TF.CreationDate,2022-10-25T13:23:13-07:00*%
%TF.ProjectId,powerAmp_RevB,706f7765-7241-46d7-905f-526576422e6b,rev?*%
%TF.SameCoordinates,Original*%
%TF.FileFunction,Paste,Top*%
%TF.FilePolarity,Positive*%
%FSLAX46Y46*%
G04 Gerber Fmt 4.6, Leading zero omitted, Abs format (unit mm)*
G04 Created by KiCad (PCBNEW (6.0.2)) date 2022-10-25 13:23:13*
%MOMM*%
%LPD*%
G01*
G04 APERTURE LIST*
%ADD10R,1.100000X1.000000*%
%ADD11R,1.600000X1.800000*%
%ADD12R,1.000000X1.100000*%
%ADD13R,1.219200X2.235200*%
%ADD14R,3.600000X2.200000*%
%ADD15R,0.600000X2.200000*%
G04 APERTURE END LIST*
D10*
%TO.C,R4*%
X133950000Y-121700000D03*
X135650000Y-121700000D03*
%TD*%
D11*
%TO.C,R11*%
X145300000Y-120690000D03*
X148100000Y-120690000D03*
%TD*%
D12*
%TO.C,C17*%
X133896100Y-102248600D03*
X133896100Y-103948600D03*
%TD*%
%TO.C,C14*%
X128181100Y-102248600D03*
X128181100Y-103948600D03*
%TD*%
D11*
%TO.C,R12*%
X145300000Y-124500000D03*
X148100000Y-124500000D03*
%TD*%
D12*
%TO.C,C15*%
X136436100Y-102248600D03*
X136436100Y-103948600D03*
%TD*%
%TO.C,R6*%
X149025000Y-113725000D03*
X149025000Y-115425000D03*
%TD*%
%TO.C,C19*%
X144056100Y-103948600D03*
X144056100Y-102248600D03*
%TD*%
%TO.C,C18*%
X141516100Y-103948600D03*
X141516100Y-102248600D03*
%TD*%
%TO.C,R8*%
X125006100Y-103948600D03*
X125006100Y-102248600D03*
%TD*%
D13*
%TO.C,T2*%
X145688600Y-98098800D03*
X148000000Y-98098800D03*
X150311400Y-98098800D03*
D14*
X148000000Y-91901000D03*
%TD*%
D12*
%TO.C,R3*%
X141300000Y-110025000D03*
X141300000Y-108325000D03*
%TD*%
%TO.C,R9*%
X131356100Y-103948600D03*
X131356100Y-102248600D03*
%TD*%
%TO.C,R13*%
X138976100Y-102248600D03*
X138976100Y-103948600D03*
%TD*%
D10*
%TO.C,C7*%
X154975000Y-98825000D03*
X156675000Y-98825000D03*
%TD*%
%TO.C,R15*%
X137286100Y-89128600D03*
X135586100Y-89128600D03*
%TD*%
D12*
%TO.C,R1*%
X142600000Y-96850000D03*
X142600000Y-95150000D03*
%TD*%
D10*
%TO.C,C8*%
X154975000Y-101675000D03*
X156675000Y-101675000D03*
%TD*%
%TO.C,R14*%
X141096100Y-89763600D03*
X139396100Y-89763600D03*
%TD*%
%TO.C,R21*%
X132206100Y-89128600D03*
X130506100Y-89128600D03*
%TD*%
D15*
%TO.C,U$2*%
X132626100Y-98713600D03*
X133896100Y-98713600D03*
X135166100Y-98713600D03*
X136436100Y-98713600D03*
X137706100Y-98713600D03*
X138976100Y-98713600D03*
X140246100Y-98713600D03*
X140246100Y-93513600D03*
X138976100Y-93513600D03*
X137706100Y-93513600D03*
X136436100Y-93513600D03*
X135166100Y-93513600D03*
X133896100Y-93513600D03*
X132626100Y-93513600D03*
%TD*%
D12*
%TO.C,R5*%
X149550000Y-103975000D03*
X149550000Y-102275000D03*
%TD*%
%TO.C,R18*%
X128816100Y-93153600D03*
X128816100Y-91453600D03*
%TD*%
D10*
%TO.C,R7*%
X129666100Y-97383600D03*
X127966100Y-97383600D03*
%TD*%
%TO.C,C3*%
X133950000Y-124300000D03*
X135650000Y-124300000D03*
%TD*%
%TO.C,C2*%
X127126100Y-118973600D03*
X125426100Y-118973600D03*
%TD*%
D12*
%TO.C,C5*%
X143700000Y-108325000D03*
X143700000Y-110025000D03*
%TD*%
%TO.C,C13*%
X151925000Y-114750000D03*
X151925000Y-113050000D03*
%TD*%
%TO.C,R2*%
X152500000Y-97850000D03*
X152500000Y-99550000D03*
%TD*%
M02*
