%TF.GenerationSoftware,KiCad,Pcbnew,(6.0.2)*%
%TF.CreationDate,2022-10-25T13:23:13-07:00*%
%TF.ProjectId,powerAmp_RevB,706f7765-7241-46d7-905f-526576422e6b,rev?*%
%TF.SameCoordinates,Original*%
%TF.FileFunction,Soldermask,Top*%
%TF.FilePolarity,Negative*%
%FSLAX46Y46*%
G04 Gerber Fmt 4.6, Leading zero omitted, Abs format (unit mm)*
G04 Created by KiCad (PCBNEW (6.0.2)) date 2022-10-25 13:23:13*
%MOMM*%
%LPD*%
G01*
G04 APERTURE LIST*
G04 Aperture macros list*
%AMRoundRect*
0 Rectangle with rounded corners*
0 $1 Rounding radius*
0 $2 $3 $4 $5 $6 $7 $8 $9 X,Y pos of 4 corners*
0 Add a 4 corners polygon primitive as box body*
4,1,4,$2,$3,$4,$5,$6,$7,$8,$9,$2,$3,0*
0 Add four circle primitives for the rounded corners*
1,1,$1+$1,$2,$3*
1,1,$1+$1,$4,$5*
1,1,$1+$1,$6,$7*
1,1,$1+$1,$8,$9*
0 Add four rect primitives between the rounded corners*
20,1,$1+$1,$2,$3,$4,$5,0*
20,1,$1+$1,$4,$5,$6,$7,0*
20,1,$1+$1,$6,$7,$8,$9,0*
20,1,$1+$1,$8,$9,$2,$3,0*%
G04 Aperture macros list end*
%ADD10RoundRect,0.063500X-0.550000X-0.500000X0.550000X-0.500000X0.550000X0.500000X-0.550000X0.500000X0*%
%ADD11RoundRect,0.063500X-0.800000X-0.900000X0.800000X-0.900000X0.800000X0.900000X-0.800000X0.900000X0*%
%ADD12RoundRect,0.063500X-0.500000X0.550000X-0.500000X-0.550000X0.500000X-0.550000X0.500000X0.550000X0*%
%ADD13C,2.006600*%
%ADD14C,1.367000*%
%ADD15RoundRect,0.063500X0.500000X-0.550000X0.500000X0.550000X-0.500000X0.550000X-0.500000X-0.550000X0*%
%ADD16RoundRect,0.063500X-0.609600X-1.117600X0.609600X-1.117600X0.609600X1.117600X-0.609600X1.117600X0*%
%ADD17RoundRect,0.063500X-1.800000X-1.100000X1.800000X-1.100000X1.800000X1.100000X-1.800000X1.100000X0*%
%ADD18C,1.778000*%
%ADD19RoundRect,0.063500X0.550000X0.500000X-0.550000X0.500000X-0.550000X-0.500000X0.550000X-0.500000X0*%
%ADD20R,2.000000X1.905000*%
%ADD21O,2.000000X1.905000*%
%ADD22RoundRect,0.063500X-0.300000X-1.100000X0.300000X-1.100000X0.300000X1.100000X-0.300000X1.100000X0*%
%ADD23RoundRect,0.063500X0.300000X1.100000X-0.300000X1.100000X-0.300000X-1.100000X0.300000X-1.100000X0*%
%ADD24RoundRect,0.063500X2.032000X-0.762000X2.032000X0.762000X-2.032000X0.762000X-2.032000X-0.762000X0*%
%ADD25C,1.627000*%
%ADD26RoundRect,0.063500X-0.825500X0.825500X-0.825500X-0.825500X0.825500X-0.825500X0.825500X0.825500X0*%
G04 APERTURE END LIST*
D10*
%TO.C,R4*%
X133950000Y-121700000D03*
X135650000Y-121700000D03*
%TD*%
D11*
%TO.C,R11*%
X145300000Y-120690000D03*
X148100000Y-120690000D03*
%TD*%
D12*
%TO.C,C17*%
X133896100Y-102248600D03*
X133896100Y-103948600D03*
%TD*%
%TO.C,C14*%
X128181100Y-102248600D03*
X128181100Y-103948600D03*
%TD*%
D11*
%TO.C,R12*%
X145300000Y-124500000D03*
X148100000Y-124500000D03*
%TD*%
D12*
%TO.C,C15*%
X136436100Y-102248600D03*
X136436100Y-103948600D03*
%TD*%
%TO.C,R6*%
X149025000Y-113725000D03*
X149025000Y-115425000D03*
%TD*%
D13*
%TO.C,JP2*%
X159750000Y-89010000D03*
X162290000Y-89010000D03*
%TD*%
%TO.C,JP9*%
X121196100Y-112623600D03*
X121196100Y-115163600D03*
%TD*%
%TO.C,JP7*%
X166600000Y-99655000D03*
X166600000Y-102195000D03*
%TD*%
D14*
%TO.C,VR3*%
X140246100Y-117703600D03*
X140246100Y-120243600D03*
X140246100Y-122783600D03*
%TD*%
D15*
%TO.C,C19*%
X144056100Y-103948600D03*
X144056100Y-102248600D03*
%TD*%
%TO.C,C18*%
X141516100Y-103948600D03*
X141516100Y-102248600D03*
%TD*%
%TO.C,R8*%
X125006100Y-103948600D03*
X125006100Y-102248600D03*
%TD*%
D16*
%TO.C,T2*%
X145688600Y-98098800D03*
X148000000Y-98098800D03*
X150311400Y-98098800D03*
D17*
X148000000Y-91901000D03*
%TD*%
D15*
%TO.C,R3*%
X141300000Y-110025000D03*
X141300000Y-108325000D03*
%TD*%
D13*
%TO.C,JP1*%
X121196100Y-99923600D03*
X121196100Y-97383600D03*
%TD*%
D15*
%TO.C,R9*%
X131356100Y-103948600D03*
X131356100Y-102248600D03*
%TD*%
D12*
%TO.C,R13*%
X138976100Y-102248600D03*
X138976100Y-103948600D03*
%TD*%
D10*
%TO.C,C7*%
X154975000Y-98825000D03*
X156675000Y-98825000D03*
%TD*%
D18*
%TO.C,C4*%
X145400000Y-112700000D03*
X145400000Y-117700000D03*
%TD*%
D19*
%TO.C,R15*%
X137286100Y-89128600D03*
X135586100Y-89128600D03*
%TD*%
D13*
%TO.C,JP12*%
X166600000Y-95245000D03*
X166600000Y-92705000D03*
%TD*%
%TO.C,JP5*%
X127960000Y-125700000D03*
X130500000Y-125700000D03*
%TD*%
D15*
%TO.C,R1*%
X142600000Y-96850000D03*
X142600000Y-95150000D03*
%TD*%
D13*
%TO.C,Q6*%
X135270000Y-117000000D03*
X134000000Y-118905000D03*
X132730000Y-117000000D03*
%TD*%
D10*
%TO.C,C8*%
X154975000Y-101675000D03*
X156675000Y-101675000D03*
%TD*%
D19*
%TO.C,R14*%
X141096100Y-89763600D03*
X139396100Y-89763600D03*
%TD*%
%TO.C,R21*%
X132206100Y-89128600D03*
X130506100Y-89128600D03*
%TD*%
D20*
%TO.C,Q1*%
X154080000Y-124050000D03*
D21*
X154080000Y-121510000D03*
X154080000Y-118970000D03*
%TD*%
D22*
%TO.C,U$2*%
X132626100Y-98713600D03*
X133896100Y-98713600D03*
X135166100Y-98713600D03*
X136436100Y-98713600D03*
D23*
X137706100Y-98713600D03*
X138976100Y-98713600D03*
X140246100Y-98713600D03*
D22*
X140246100Y-93513600D03*
X138976100Y-93513600D03*
X137706100Y-93513600D03*
X136436100Y-93513600D03*
X135166100Y-93513600D03*
X133896100Y-93513600D03*
X132626100Y-93513600D03*
%TD*%
D13*
%TO.C,JP4*%
X161630000Y-125510000D03*
X164170000Y-125510000D03*
%TD*%
D14*
%TO.C,VR5*%
X148620509Y-108475000D03*
X151160509Y-108475000D03*
X153700509Y-108475000D03*
%TD*%
D24*
%TO.C,J$1*%
X121196100Y-124053600D03*
X121196100Y-118973600D03*
X121196100Y-121513600D03*
%TD*%
D15*
%TO.C,R5*%
X149550000Y-103975000D03*
X149550000Y-102275000D03*
%TD*%
%TO.C,R18*%
X128816100Y-93153600D03*
X128816100Y-91453600D03*
%TD*%
D13*
%TO.C,JP8*%
X149045000Y-88710000D03*
X146505000Y-88710000D03*
%TD*%
D19*
%TO.C,R7*%
X129666100Y-97383600D03*
X127966100Y-97383600D03*
%TD*%
D10*
%TO.C,C3*%
X133950000Y-124300000D03*
X135650000Y-124300000D03*
%TD*%
D25*
%TO.C,U$1*%
X166610000Y-106140000D03*
X162800000Y-106140000D03*
X158990000Y-106140000D03*
%TD*%
D19*
%TO.C,C2*%
X127126100Y-118973600D03*
X125426100Y-118973600D03*
%TD*%
D12*
%TO.C,C5*%
X143700000Y-108325000D03*
X143700000Y-110025000D03*
%TD*%
D13*
%TO.C,JP6*%
X121250000Y-92345000D03*
X121250000Y-89805000D03*
%TD*%
D25*
%TO.C,U$6*%
X134625000Y-108385000D03*
X134625000Y-113465000D03*
%TD*%
D15*
%TO.C,C13*%
X151925000Y-114750000D03*
X151925000Y-113050000D03*
%TD*%
D18*
%TO.C,C1*%
X162775000Y-102675000D03*
X162775000Y-97675000D03*
%TD*%
D12*
%TO.C,R2*%
X152500000Y-97850000D03*
X152500000Y-99550000D03*
%TD*%
D26*
%TO.C,C9*%
X155450000Y-95095000D03*
D18*
X155450000Y-92555000D03*
%TD*%
M02*
