G04 #@! TF.GenerationSoftware,KiCad,Pcbnew,7.0.10*
G04 #@! TF.CreationDate,2025-01-18T09:55:55-08:00*
G04 #@! TF.ProjectId,fieldRadio_1.1,6669656c-6452-4616-9469-6f5f312e312e,rev?*
G04 #@! TF.SameCoordinates,Original*
G04 #@! TF.FileFunction,Paste,Top*
G04 #@! TF.FilePolarity,Positive*
%FSLAX46Y46*%
G04 Gerber Fmt 4.6, Leading zero omitted, Abs format (unit mm)*
G04 Created by KiCad (PCBNEW 7.0.10) date 2025-01-18 09:55:55*
%MOMM*%
%LPD*%
G01*
G04 APERTURE LIST*
G04 Aperture macros list*
%AMRoundRect*
0 Rectangle with rounded corners*
0 $1 Rounding radius*
0 $2 $3 $4 $5 $6 $7 $8 $9 X,Y pos of 4 corners*
0 Add a 4 corners polygon primitive as box body*
4,1,4,$2,$3,$4,$5,$6,$7,$8,$9,$2,$3,0*
0 Add four circle primitives for the rounded corners*
1,1,$1+$1,$2,$3*
1,1,$1+$1,$4,$5*
1,1,$1+$1,$6,$7*
1,1,$1+$1,$8,$9*
0 Add four rect primitives between the rounded corners*
20,1,$1+$1,$2,$3,$4,$5,0*
20,1,$1+$1,$4,$5,$6,$7,0*
20,1,$1+$1,$6,$7,$8,$9,0*
20,1,$1+$1,$8,$9,$2,$3,0*%
G04 Aperture macros list end*
%ADD10RoundRect,0.237500X-0.237500X0.300000X-0.237500X-0.300000X0.237500X-0.300000X0.237500X0.300000X0*%
%ADD11RoundRect,0.237500X0.250000X0.237500X-0.250000X0.237500X-0.250000X-0.237500X0.250000X-0.237500X0*%
%ADD12RoundRect,0.237500X0.237500X-0.250000X0.237500X0.250000X-0.237500X0.250000X-0.237500X-0.250000X0*%
%ADD13RoundRect,0.237500X-0.250000X-0.237500X0.250000X-0.237500X0.250000X0.237500X-0.250000X0.237500X0*%
%ADD14RoundRect,0.250000X0.350000X-0.850000X0.350000X0.850000X-0.350000X0.850000X-0.350000X-0.850000X0*%
%ADD15RoundRect,0.250000X1.125000X-1.275000X1.125000X1.275000X-1.125000X1.275000X-1.125000X-1.275000X0*%
%ADD16R,1.270000X0.610000*%
%ADD17R,0.710000X0.610000*%
%ADD18R,3.810000X1.650000*%
%ADD19RoundRect,0.150000X0.150000X-0.825000X0.150000X0.825000X-0.150000X0.825000X-0.150000X-0.825000X0*%
%ADD20RoundRect,0.237500X-0.237500X0.250000X-0.237500X-0.250000X0.237500X-0.250000X0.237500X0.250000X0*%
%ADD21RoundRect,0.237500X-0.300000X-0.237500X0.300000X-0.237500X0.300000X0.237500X-0.300000X0.237500X0*%
%ADD22R,1.400000X1.200000*%
%ADD23RoundRect,0.150000X-0.587500X-0.150000X0.587500X-0.150000X0.587500X0.150000X-0.587500X0.150000X0*%
%ADD24RoundRect,0.075000X0.650000X0.075000X-0.650000X0.075000X-0.650000X-0.075000X0.650000X-0.075000X0*%
%ADD25R,0.600000X1.200000*%
%ADD26RoundRect,0.237500X0.237500X-0.300000X0.237500X0.300000X-0.237500X0.300000X-0.237500X-0.300000X0*%
%ADD27RoundRect,0.075000X0.075000X-0.662500X0.075000X0.662500X-0.075000X0.662500X-0.075000X-0.662500X0*%
%ADD28RoundRect,0.075000X0.662500X-0.075000X0.662500X0.075000X-0.662500X0.075000X-0.662500X-0.075000X0*%
%ADD29RoundRect,0.150000X0.825000X0.150000X-0.825000X0.150000X-0.825000X-0.150000X0.825000X-0.150000X0*%
%ADD30RoundRect,0.237500X0.300000X0.237500X-0.300000X0.237500X-0.300000X-0.237500X0.300000X-0.237500X0*%
%ADD31R,1.560000X0.650000*%
%ADD32RoundRect,0.150000X-0.512500X-0.150000X0.512500X-0.150000X0.512500X0.150000X-0.512500X0.150000X0*%
%ADD33R,1.528000X0.650000*%
%ADD34RoundRect,0.250000X-0.350000X-0.450000X0.350000X-0.450000X0.350000X0.450000X-0.350000X0.450000X0*%
%ADD35RoundRect,0.250001X-0.799999X-2.474999X0.799999X-2.474999X0.799999X2.474999X-0.799999X2.474999X0*%
%ADD36RoundRect,0.150000X0.150000X-0.587500X0.150000X0.587500X-0.150000X0.587500X-0.150000X-0.587500X0*%
%ADD37RoundRect,0.075000X-0.075000X0.650000X-0.075000X-0.650000X0.075000X-0.650000X0.075000X0.650000X0*%
%ADD38R,1.400000X0.300000*%
%ADD39RoundRect,0.100000X-0.100000X0.637500X-0.100000X-0.637500X0.100000X-0.637500X0.100000X0.637500X0*%
%ADD40R,1.500000X2.000000*%
%ADD41R,3.800000X2.000000*%
%ADD42R,1.100000X0.600000*%
%ADD43R,0.800000X0.300000*%
%ADD44RoundRect,0.150000X-0.825000X-0.150000X0.825000X-0.150000X0.825000X0.150000X-0.825000X0.150000X0*%
%ADD45RoundRect,0.150000X0.150000X-0.512500X0.150000X0.512500X-0.150000X0.512500X-0.150000X-0.512500X0*%
G04 APERTURE END LIST*
D10*
X163110000Y-218937500D03*
X163110000Y-220662500D03*
D11*
X208047500Y-120045000D03*
X206222500Y-120045000D03*
D10*
X164000000Y-181257500D03*
X164000000Y-182982500D03*
D12*
X219570000Y-173740000D03*
X219570000Y-171915000D03*
D10*
X121595000Y-108622500D03*
X121595000Y-110347500D03*
D13*
X112107500Y-159540000D03*
X113932500Y-159540000D03*
X171257500Y-211550000D03*
X173082500Y-211550000D03*
D14*
X110890000Y-108775000D03*
X113170000Y-108775000D03*
X115450000Y-108775000D03*
D15*
X111645000Y-104150000D03*
X114695000Y-104150000D03*
X111645000Y-100800000D03*
X114695000Y-100800000D03*
D16*
X91380000Y-123300000D03*
X91380000Y-124570000D03*
X91380000Y-125840000D03*
X91380000Y-127110000D03*
D17*
X97000000Y-125840000D03*
D18*
X94740000Y-126335000D03*
D17*
X97000000Y-127110000D03*
X97000000Y-123300000D03*
D18*
X94740000Y-124075000D03*
D17*
X97000000Y-124570000D03*
D19*
X202615000Y-164777500D03*
X203885000Y-164777500D03*
X205155000Y-164777500D03*
X206425000Y-164777500D03*
X206425000Y-159827500D03*
X205155000Y-159827500D03*
X203885000Y-159827500D03*
X202615000Y-159827500D03*
D10*
X173870000Y-127487500D03*
X173870000Y-129212500D03*
X219440000Y-206127500D03*
X219440000Y-207852500D03*
D20*
X90880000Y-173737500D03*
X90880000Y-175562500D03*
D12*
X208565000Y-218177500D03*
X208565000Y-216352500D03*
D21*
X202747500Y-118270000D03*
X204472500Y-118270000D03*
D12*
X210645000Y-169215000D03*
X210645000Y-167390000D03*
D21*
X209577500Y-187405000D03*
X211302500Y-187405000D03*
D11*
X216297500Y-110945000D03*
X214472500Y-110945000D03*
D21*
X214797500Y-128670000D03*
X216522500Y-128670000D03*
X209132500Y-198525000D03*
X210857500Y-198525000D03*
X202772500Y-132295000D03*
X204497500Y-132295000D03*
D12*
X181710000Y-220682500D03*
X181710000Y-218857500D03*
D11*
X204547500Y-116645000D03*
X202722500Y-116645000D03*
D22*
X199820000Y-180820000D03*
X197620000Y-180820000D03*
X197620000Y-182520000D03*
X199820000Y-182520000D03*
D21*
X90867500Y-109010000D03*
X92592500Y-109010000D03*
D20*
X208970000Y-167440000D03*
X208970000Y-169265000D03*
D13*
X96427500Y-177240000D03*
X98252500Y-177240000D03*
D23*
X145187500Y-224080000D03*
X145187500Y-225980000D03*
X147062500Y-225030000D03*
D11*
X216372500Y-119345000D03*
X214547500Y-119345000D03*
D12*
X203545000Y-169140000D03*
X203545000Y-167315000D03*
D20*
X221710000Y-206117500D03*
X221710000Y-207942500D03*
D12*
X180070000Y-220692500D03*
X180070000Y-218867500D03*
D13*
X209427500Y-189180000D03*
X211252500Y-189180000D03*
D12*
X169960000Y-220712500D03*
X169960000Y-218887500D03*
D24*
X184810000Y-171450000D03*
X184810000Y-170950000D03*
X184810000Y-170450000D03*
X184810000Y-169950000D03*
X184810000Y-169450000D03*
X180410000Y-169450000D03*
X180410000Y-169950000D03*
X180410000Y-170450000D03*
X180410000Y-170950000D03*
X180410000Y-171450000D03*
D25*
X85593762Y-119180000D03*
X84643762Y-119180000D03*
X83693762Y-119180000D03*
X83693762Y-121680000D03*
X85593762Y-121680000D03*
D26*
X188750000Y-158952500D03*
X188750000Y-157227500D03*
D11*
X108332500Y-108780000D03*
X106507500Y-108780000D03*
X204647500Y-130620000D03*
X202822500Y-130620000D03*
D26*
X199810000Y-157112500D03*
X199810000Y-155387500D03*
D20*
X175700000Y-127427500D03*
X175700000Y-129252500D03*
D11*
X216222500Y-142870000D03*
X214397500Y-142870000D03*
D10*
X173340000Y-218937500D03*
X173340000Y-220662500D03*
D23*
X162287500Y-177680000D03*
X162287500Y-179580000D03*
X164162500Y-178630000D03*
D21*
X172537500Y-176110000D03*
X174262500Y-176110000D03*
D27*
X189285000Y-205027500D03*
X189785000Y-205027500D03*
X190285000Y-205027500D03*
X190785000Y-205027500D03*
X191285000Y-205027500D03*
X191785000Y-205027500D03*
X192285000Y-205027500D03*
X192785000Y-205027500D03*
X193285000Y-205027500D03*
X193785000Y-205027500D03*
X194285000Y-205027500D03*
X194785000Y-205027500D03*
D28*
X196197500Y-203615000D03*
X196197500Y-203115000D03*
X196197500Y-202615000D03*
X196197500Y-202115000D03*
X196197500Y-201615000D03*
X196197500Y-201115000D03*
X196197500Y-200615000D03*
X196197500Y-200115000D03*
X196197500Y-199615000D03*
X196197500Y-199115000D03*
X196197500Y-198615000D03*
X196197500Y-198115000D03*
D27*
X194785000Y-196702500D03*
X194285000Y-196702500D03*
X193785000Y-196702500D03*
X193285000Y-196702500D03*
X192785000Y-196702500D03*
X192285000Y-196702500D03*
X191785000Y-196702500D03*
X191285000Y-196702500D03*
X190785000Y-196702500D03*
X190285000Y-196702500D03*
X189785000Y-196702500D03*
X189285000Y-196702500D03*
D28*
X187872500Y-198115000D03*
X187872500Y-198615000D03*
X187872500Y-199115000D03*
X187872500Y-199615000D03*
X187872500Y-200115000D03*
X187872500Y-200615000D03*
X187872500Y-201115000D03*
X187872500Y-201615000D03*
X187872500Y-202115000D03*
X187872500Y-202615000D03*
X187872500Y-203115000D03*
X187872500Y-203615000D03*
D10*
X213995000Y-167390000D03*
X213995000Y-169115000D03*
D11*
X87332500Y-182020000D03*
X85507500Y-182020000D03*
D10*
X160030000Y-181337500D03*
X160030000Y-183062500D03*
D20*
X186680000Y-218857500D03*
X186680000Y-220682500D03*
D29*
X212035000Y-118130000D03*
X212035000Y-116860000D03*
X212035000Y-115590000D03*
X212035000Y-114320000D03*
X212035000Y-113050000D03*
X212035000Y-111780000D03*
X212035000Y-110510000D03*
X207085000Y-110510000D03*
X207085000Y-111780000D03*
X207085000Y-113050000D03*
X207085000Y-114320000D03*
X207085000Y-115590000D03*
X207085000Y-116860000D03*
X207085000Y-118130000D03*
D13*
X196547500Y-170867500D03*
X198372500Y-170867500D03*
D30*
X204622500Y-129020000D03*
X202897500Y-129020000D03*
D31*
X182670000Y-179360000D03*
X182670000Y-178410000D03*
X182670000Y-177460000D03*
X179970000Y-177460000D03*
X179970000Y-179360000D03*
D10*
X188770000Y-163217500D03*
X188770000Y-164942500D03*
D13*
X217252500Y-193220000D03*
X219077500Y-193220000D03*
D11*
X208522500Y-133720000D03*
X206697500Y-133720000D03*
D10*
X178410000Y-218927500D03*
X178410000Y-220652500D03*
D32*
X172392500Y-177940000D03*
X172392500Y-178890000D03*
X172392500Y-179840000D03*
X174667500Y-179840000D03*
X174667500Y-177940000D03*
D33*
X181179000Y-160675000D03*
X181179000Y-161945000D03*
X181179000Y-163215000D03*
X181179000Y-164485000D03*
X186601000Y-164485000D03*
X186601000Y-163215000D03*
X186601000Y-161945000D03*
X186601000Y-160675000D03*
D30*
X208732500Y-147990000D03*
X207007500Y-147990000D03*
X216197500Y-109245000D03*
X214472500Y-109245000D03*
D12*
X175030000Y-220712500D03*
X175030000Y-218887500D03*
X171680000Y-220722500D03*
X171680000Y-218897500D03*
D21*
X214522500Y-114220000D03*
X216247500Y-114220000D03*
D34*
X85563762Y-124540000D03*
X87563762Y-124540000D03*
D11*
X188377500Y-183120000D03*
X186552500Y-183120000D03*
D21*
X92537500Y-145910000D03*
X94262500Y-145910000D03*
D23*
X96212500Y-173520000D03*
X96212500Y-175420000D03*
X98087500Y-174470000D03*
D12*
X223285000Y-207892500D03*
X223285000Y-206067500D03*
D10*
X202440000Y-213682500D03*
X202440000Y-215407500D03*
D21*
X217277500Y-191345000D03*
X219002500Y-191345000D03*
D30*
X216547500Y-123495000D03*
X214822500Y-123495000D03*
X94332500Y-153490000D03*
X92607500Y-153490000D03*
D20*
X213470000Y-155285000D03*
X213470000Y-157110000D03*
D21*
X91917500Y-167850000D03*
X93642500Y-167850000D03*
D30*
X185702500Y-107910000D03*
X183977500Y-107910000D03*
D11*
X216272500Y-146245000D03*
X214447500Y-146245000D03*
D13*
X81267500Y-148700000D03*
X83092500Y-148700000D03*
D30*
X204547500Y-113195000D03*
X202822500Y-113195000D03*
D13*
X202747500Y-111520000D03*
X204572500Y-111520000D03*
D21*
X214522500Y-112620000D03*
X216247500Y-112620000D03*
D11*
X216272500Y-115970000D03*
X214447500Y-115970000D03*
D26*
X207170000Y-157040000D03*
X207170000Y-155315000D03*
D13*
X173387500Y-155400000D03*
X175212500Y-155400000D03*
D12*
X214125000Y-218227500D03*
X214125000Y-216402500D03*
D10*
X183350000Y-218907500D03*
X183350000Y-220632500D03*
D13*
X183887500Y-109600000D03*
X185712500Y-109600000D03*
D10*
X225010000Y-206117500D03*
X225010000Y-207842500D03*
D30*
X204522500Y-114920000D03*
X202797500Y-114920000D03*
D10*
X169500000Y-113837500D03*
X169500000Y-115562500D03*
X206790000Y-216427500D03*
X206790000Y-218152500D03*
X168210000Y-218937500D03*
X168210000Y-220662500D03*
X89278762Y-118972500D03*
X89278762Y-120697500D03*
D29*
X90225000Y-151195000D03*
X90225000Y-149925000D03*
X90225000Y-148655000D03*
X90225000Y-147385000D03*
X90225000Y-146115000D03*
X90225000Y-144845000D03*
X90225000Y-143575000D03*
X85275000Y-143575000D03*
X85275000Y-144845000D03*
X85275000Y-146115000D03*
X85275000Y-147385000D03*
X85275000Y-148655000D03*
X85275000Y-149925000D03*
X85275000Y-151195000D03*
D20*
X148985000Y-224117500D03*
X148985000Y-225942500D03*
D11*
X211352500Y-190980000D03*
X209527500Y-190980000D03*
D26*
X81320000Y-175722500D03*
X81320000Y-173997500D03*
D10*
X158020000Y-218937500D03*
X158020000Y-220662500D03*
D11*
X80592500Y-140060000D03*
X78767500Y-140060000D03*
D13*
X203122500Y-146020000D03*
X204947500Y-146020000D03*
X208847500Y-122845000D03*
X210672500Y-122845000D03*
D19*
X217015000Y-169612442D03*
X218285000Y-169612442D03*
X219555000Y-169612442D03*
X220825000Y-169612442D03*
X220825000Y-164662442D03*
X219555000Y-164662442D03*
X218285000Y-164662442D03*
X217015000Y-164662442D03*
D12*
X200140000Y-220692500D03*
X200140000Y-218867500D03*
D10*
X212500000Y-216427500D03*
X212500000Y-218152500D03*
D35*
X80015000Y-91520000D03*
X86965000Y-91520000D03*
D10*
X190470000Y-177037500D03*
X190470000Y-178762500D03*
D13*
X203072500Y-137995000D03*
X204897500Y-137995000D03*
D20*
X192250000Y-176967500D03*
X192250000Y-178792500D03*
D12*
X158510000Y-171642500D03*
X158510000Y-169817500D03*
D20*
X185310000Y-129307500D03*
X185310000Y-131132500D03*
X211860000Y-155305000D03*
X211860000Y-157130000D03*
D11*
X216222500Y-141270000D03*
X214397500Y-141270000D03*
D30*
X216272500Y-144670000D03*
X214547500Y-144670000D03*
D21*
X203122500Y-147620000D03*
X204847500Y-147620000D03*
D30*
X181982500Y-181020000D03*
X180257500Y-181020000D03*
D20*
X194745000Y-155190000D03*
X194745000Y-157015000D03*
D10*
X205810000Y-209427500D03*
X205810000Y-211152500D03*
D13*
X85497500Y-180110000D03*
X87322500Y-180110000D03*
D20*
X215965000Y-206127500D03*
X215965000Y-207952500D03*
X201920000Y-167265000D03*
X201920000Y-169090000D03*
D12*
X208810000Y-157070000D03*
X208810000Y-155245000D03*
D11*
X180692500Y-119250000D03*
X178867500Y-119250000D03*
D30*
X179052500Y-110690000D03*
X177327500Y-110690000D03*
D20*
X178450000Y-155367500D03*
X178450000Y-157192500D03*
D29*
X212160000Y-132130000D03*
X212160000Y-130860000D03*
X212160000Y-129590000D03*
X212160000Y-128320000D03*
X212160000Y-127050000D03*
X212160000Y-125780000D03*
X212160000Y-124510000D03*
X207210000Y-124510000D03*
X207210000Y-125780000D03*
X207210000Y-127050000D03*
X207210000Y-128320000D03*
X207210000Y-129590000D03*
X207210000Y-130860000D03*
X207210000Y-132130000D03*
D20*
X83430000Y-173837500D03*
X83430000Y-175662500D03*
D26*
X77850000Y-112052500D03*
X77850000Y-110327500D03*
D12*
X215800000Y-218227500D03*
X215800000Y-216402500D03*
D20*
X205370000Y-155315000D03*
X205370000Y-157140000D03*
D10*
X176860000Y-155407500D03*
X176860000Y-157132500D03*
D12*
X91920000Y-165932500D03*
X91920000Y-164107500D03*
D34*
X85653762Y-127110000D03*
X87653762Y-127110000D03*
D30*
X174192500Y-181650000D03*
X172467500Y-181650000D03*
D10*
X200020000Y-167515000D03*
X200020000Y-169240000D03*
X181530000Y-129317500D03*
X181530000Y-131042500D03*
X206895000Y-167315000D03*
X206895000Y-169040000D03*
D12*
X172110000Y-129252500D03*
X172110000Y-127427500D03*
D11*
X87312500Y-178370000D03*
X85487500Y-178370000D03*
D13*
X209480358Y-184065000D03*
X211305358Y-184065000D03*
X209032500Y-195300000D03*
X210857500Y-195300000D03*
D11*
X216622500Y-125270000D03*
X214797500Y-125270000D03*
D23*
X91152500Y-177660000D03*
X91152500Y-179560000D03*
X93027500Y-178610000D03*
D12*
X212370000Y-169215000D03*
X212370000Y-167390000D03*
D30*
X204847500Y-144445000D03*
X203122500Y-144445000D03*
D21*
X180157500Y-205860000D03*
X181882500Y-205860000D03*
D36*
X95460000Y-181117500D03*
X97360000Y-181117500D03*
X96410000Y-179242500D03*
D21*
X202797500Y-109795000D03*
X204522500Y-109795000D03*
D10*
X90953762Y-118947500D03*
X90953762Y-120672500D03*
D11*
X219152500Y-194820000D03*
X217327500Y-194820000D03*
D21*
X90842500Y-110785000D03*
X92567500Y-110785000D03*
D12*
X92360000Y-175582500D03*
X92360000Y-173757500D03*
D25*
X85643762Y-132370000D03*
X86593762Y-132370000D03*
X87543762Y-132370000D03*
X87543762Y-129870000D03*
X85643762Y-129870000D03*
D20*
X166440000Y-218877500D03*
X166440000Y-220702500D03*
D21*
X82707500Y-112880000D03*
X84432500Y-112880000D03*
D37*
X185420000Y-111900000D03*
X184920000Y-111900000D03*
X184420000Y-111900000D03*
X183920000Y-111900000D03*
X183420000Y-111900000D03*
X183420000Y-116300000D03*
X183920000Y-116300000D03*
X184420000Y-116300000D03*
X184920000Y-116300000D03*
X185420000Y-116300000D03*
D30*
X216622500Y-131920000D03*
X214897500Y-131920000D03*
X216272500Y-117620000D03*
X214547500Y-117620000D03*
D11*
X180672500Y-117610000D03*
X178847500Y-117610000D03*
D26*
X87618762Y-120697500D03*
X87618762Y-118972500D03*
D20*
X124910000Y-219797500D03*
X124910000Y-221622500D03*
D13*
X186867500Y-193590000D03*
X188692500Y-193590000D03*
X92537500Y-150510000D03*
X94362500Y-150510000D03*
D12*
X179260000Y-115042500D03*
X179260000Y-113217500D03*
D26*
X176890000Y-162992500D03*
X176890000Y-161267500D03*
D12*
X89180000Y-175582500D03*
X89180000Y-173757500D03*
D20*
X203595000Y-155265000D03*
X203595000Y-157090000D03*
D12*
X179360000Y-129142500D03*
X179360000Y-127317500D03*
D21*
X171367500Y-203690000D03*
X173092500Y-203690000D03*
D13*
X202947500Y-125720000D03*
X204772500Y-125720000D03*
D30*
X216147500Y-139620000D03*
X214422500Y-139620000D03*
D38*
X194840000Y-182595000D03*
X194840000Y-182095000D03*
X194840000Y-181595000D03*
X194840000Y-181095000D03*
X194840000Y-180595000D03*
X190440000Y-180595000D03*
X190440000Y-181095000D03*
X190440000Y-181595000D03*
X190440000Y-182095000D03*
X190440000Y-182595000D03*
D23*
X94032500Y-163970000D03*
X94032500Y-165870000D03*
X95907500Y-164920000D03*
D10*
X92813762Y-129777500D03*
X92813762Y-131502500D03*
D39*
X176120000Y-167702500D03*
X175470000Y-167702500D03*
X174820000Y-167702500D03*
X174170000Y-167702500D03*
X173520000Y-167702500D03*
X172870000Y-167702500D03*
X172220000Y-167702500D03*
X171570000Y-167702500D03*
X171570000Y-173427500D03*
X172220000Y-173427500D03*
X172870000Y-173427500D03*
X173520000Y-173427500D03*
X174170000Y-173427500D03*
X174820000Y-173427500D03*
X175470000Y-173427500D03*
X176120000Y-173427500D03*
D12*
X198430000Y-220682500D03*
X198430000Y-218857500D03*
D21*
X90567500Y-216910000D03*
X92292500Y-216910000D03*
D19*
X195515000Y-164602500D03*
X196785000Y-164602500D03*
X198055000Y-164602500D03*
X199325000Y-164602500D03*
X199325000Y-159652500D03*
X198055000Y-159652500D03*
X196785000Y-159652500D03*
X195515000Y-159652500D03*
D20*
X195040000Y-218847500D03*
X195040000Y-220672500D03*
D12*
X205145000Y-169140000D03*
X205145000Y-167315000D03*
X217640000Y-207852500D03*
X217640000Y-206027500D03*
D11*
X188427500Y-179945000D03*
X186602500Y-179945000D03*
D12*
X196570000Y-169215000D03*
X196570000Y-167390000D03*
D10*
X204040000Y-213682500D03*
X204040000Y-215407500D03*
D21*
X180147500Y-204170000D03*
X181872500Y-204170000D03*
D12*
X162250000Y-183042500D03*
X162250000Y-181217500D03*
D30*
X195812500Y-184970000D03*
X194087500Y-184970000D03*
D20*
X159750000Y-218877500D03*
X159750000Y-220702500D03*
D36*
X85410000Y-175637500D03*
X87310000Y-175637500D03*
X86360000Y-173762500D03*
D21*
X202972500Y-124070000D03*
X204697500Y-124070000D03*
D20*
X156790000Y-169787500D03*
X156790000Y-171612500D03*
D12*
X190020000Y-220682500D03*
X190020000Y-218857500D03*
D21*
X92577500Y-151980000D03*
X94302500Y-151980000D03*
D13*
X92487500Y-144385000D03*
X94312500Y-144385000D03*
D20*
X161360000Y-218897500D03*
X161360000Y-220722500D03*
D40*
X81530000Y-105450000D03*
X83830000Y-105450000D03*
X86130000Y-105450000D03*
D41*
X83830000Y-99150000D03*
D10*
X187535000Y-205577500D03*
X187535000Y-207302500D03*
D42*
X183690000Y-205610000D03*
X183690000Y-204210000D03*
D12*
X210265000Y-218227500D03*
X210265000Y-216402500D03*
D10*
X191690000Y-218897500D03*
X191690000Y-220622500D03*
D30*
X94362500Y-142885000D03*
X92637500Y-142885000D03*
D13*
X203047500Y-142820000D03*
X204872500Y-142820000D03*
D26*
X170560000Y-129172500D03*
X170560000Y-127447500D03*
D20*
X196520000Y-155215000D03*
X196520000Y-157040000D03*
D43*
X182830000Y-176110000D03*
X182830000Y-175610000D03*
X182830000Y-175110000D03*
X182830000Y-174610000D03*
X179730000Y-174610000D03*
X179730000Y-175110000D03*
X179730000Y-175610000D03*
X179730000Y-176110000D03*
D26*
X222845000Y-171340000D03*
X222845000Y-169615000D03*
D12*
X176750000Y-220692500D03*
X176750000Y-218867500D03*
D20*
X194870000Y-167465000D03*
X194870000Y-169290000D03*
D12*
X142985000Y-225872500D03*
X142985000Y-224047500D03*
X221170000Y-173740000D03*
X221170000Y-171915000D03*
D21*
X214597500Y-147870000D03*
X216322500Y-147870000D03*
D10*
X119795000Y-108647500D03*
X119795000Y-110372500D03*
D13*
X173407500Y-157150000D03*
X175232500Y-157150000D03*
D11*
X188402500Y-181595000D03*
X186577500Y-181595000D03*
X95352500Y-148930000D03*
X93527500Y-148930000D03*
D30*
X204722500Y-127345000D03*
X202997500Y-127345000D03*
D12*
X183450000Y-131112500D03*
X183450000Y-129287500D03*
D21*
X214797500Y-126970000D03*
X216522500Y-126970000D03*
D11*
X211355358Y-185840000D03*
X209530358Y-185840000D03*
X216147500Y-137970000D03*
X214322500Y-137970000D03*
D13*
X208822500Y-108920000D03*
X210647500Y-108920000D03*
D20*
X178600000Y-161427500D03*
X178600000Y-163252500D03*
D26*
X89423762Y-131532500D03*
X89423762Y-129807500D03*
D29*
X212160000Y-146330000D03*
X212160000Y-145060000D03*
X212160000Y-143790000D03*
X212160000Y-142520000D03*
X212160000Y-141250000D03*
X212160000Y-139980000D03*
X212160000Y-138710000D03*
X207210000Y-138710000D03*
X207210000Y-139980000D03*
X207210000Y-141250000D03*
X207210000Y-142520000D03*
X207210000Y-143790000D03*
X207210000Y-145060000D03*
X207210000Y-146330000D03*
D11*
X82537500Y-144785000D03*
X80712500Y-144785000D03*
D36*
X81650000Y-180177500D03*
X83550000Y-180177500D03*
X82600000Y-178302500D03*
D13*
X173407500Y-163060000D03*
X175232500Y-163060000D03*
X202772500Y-133970000D03*
X204597500Y-133970000D03*
D33*
X181179000Y-154255000D03*
X181179000Y-155525000D03*
X181179000Y-156795000D03*
X181179000Y-158065000D03*
X186601000Y-158065000D03*
X186601000Y-156795000D03*
X186601000Y-155525000D03*
X186601000Y-154255000D03*
D11*
X216572500Y-130295000D03*
X214747500Y-130295000D03*
D12*
X193360000Y-220662500D03*
X193360000Y-218837500D03*
D32*
X188242500Y-189710000D03*
X188242500Y-191610000D03*
X190517500Y-190660000D03*
D11*
X83062500Y-151510000D03*
X81237500Y-151510000D03*
D10*
X196740000Y-218907500D03*
X196740000Y-220632500D03*
D21*
X203122500Y-139595000D03*
X204847500Y-139595000D03*
D11*
X95232500Y-141090000D03*
X93407500Y-141090000D03*
D12*
X93960000Y-175412500D03*
X93960000Y-173587500D03*
D13*
X173397500Y-161270000D03*
X175222500Y-161270000D03*
D12*
X198320000Y-169215000D03*
X198320000Y-167390000D03*
D21*
X209530358Y-182240000D03*
X211255358Y-182240000D03*
D44*
X171855000Y-112555000D03*
X171855000Y-113825000D03*
X171855000Y-115095000D03*
X171855000Y-116365000D03*
X176805000Y-116365000D03*
X176805000Y-115095000D03*
X176805000Y-113825000D03*
X176805000Y-112555000D03*
D26*
X177480000Y-129162500D03*
X177480000Y-127437500D03*
D21*
X141307500Y-175410000D03*
X143032500Y-175410000D03*
D20*
X198295000Y-155265000D03*
X198295000Y-157090000D03*
X164750000Y-218887500D03*
X164750000Y-220712500D03*
D26*
X91083762Y-131512500D03*
X91083762Y-129787500D03*
D10*
X200470000Y-210507500D03*
X200470000Y-212232500D03*
D11*
X210832500Y-196850000D03*
X209007500Y-196850000D03*
D10*
X201850000Y-218917500D03*
X201850000Y-220642500D03*
D26*
X215370000Y-165615000D03*
X215370000Y-163890000D03*
D21*
X208872500Y-137170000D03*
X210597500Y-137170000D03*
D26*
X215190000Y-156960000D03*
X215190000Y-155235000D03*
D19*
X209915000Y-164877500D03*
X211185000Y-164877500D03*
X212455000Y-164877500D03*
X213725000Y-164877500D03*
X213725000Y-159927500D03*
X212455000Y-159927500D03*
X211185000Y-159927500D03*
X209915000Y-159927500D03*
D13*
X202997500Y-141220000D03*
X204822500Y-141220000D03*
D20*
X193810000Y-176917500D03*
X193810000Y-178742500D03*
D45*
X202330000Y-211867500D03*
X203280000Y-211867500D03*
X204230000Y-211867500D03*
X204230000Y-209592500D03*
X202330000Y-209592500D03*
D13*
X92537500Y-147410000D03*
X94362500Y-147410000D03*
D12*
X90120000Y-165832500D03*
X90120000Y-164007500D03*
X188350000Y-220682500D03*
X188350000Y-218857500D03*
D13*
X202697500Y-120045000D03*
X204522500Y-120045000D03*
D11*
X216647500Y-133520000D03*
X214822500Y-133520000D03*
D20*
X210380000Y-155245000D03*
X210380000Y-157070000D03*
X185010000Y-218857500D03*
X185010000Y-220682500D03*
X202000000Y-155227500D03*
X202000000Y-157052500D03*
M02*
