G04 #@! TF.GenerationSoftware,KiCad,Pcbnew,7.0.10*
G04 #@! TF.CreationDate,2025-01-18T09:55:55-08:00*
G04 #@! TF.ProjectId,fieldRadio_1.1,6669656c-6452-4616-9469-6f5f312e312e,rev?*
G04 #@! TF.SameCoordinates,Original*
G04 #@! TF.FileFunction,Paste,Bot*
G04 #@! TF.FilePolarity,Positive*
%FSLAX46Y46*%
G04 Gerber Fmt 4.6, Leading zero omitted, Abs format (unit mm)*
G04 Created by KiCad (PCBNEW 7.0.10) date 2025-01-18 09:55:55*
%MOMM*%
%LPD*%
G01*
G04 APERTURE LIST*
G04 Aperture macros list*
%AMRoundRect*
0 Rectangle with rounded corners*
0 $1 Rounding radius*
0 $2 $3 $4 $5 $6 $7 $8 $9 X,Y pos of 4 corners*
0 Add a 4 corners polygon primitive as box body*
4,1,4,$2,$3,$4,$5,$6,$7,$8,$9,$2,$3,0*
0 Add four circle primitives for the rounded corners*
1,1,$1+$1,$2,$3*
1,1,$1+$1,$4,$5*
1,1,$1+$1,$6,$7*
1,1,$1+$1,$8,$9*
0 Add four rect primitives between the rounded corners*
20,1,$1+$1,$2,$3,$4,$5,0*
20,1,$1+$1,$4,$5,$6,$7,0*
20,1,$1+$1,$6,$7,$8,$9,0*
20,1,$1+$1,$8,$9,$2,$3,0*%
G04 Aperture macros list end*
%ADD10RoundRect,0.250000X0.650000X-0.412500X0.650000X0.412500X-0.650000X0.412500X-0.650000X-0.412500X0*%
%ADD11RoundRect,0.237500X0.237500X-0.250000X0.237500X0.250000X-0.237500X0.250000X-0.237500X-0.250000X0*%
%ADD12RoundRect,0.250000X-0.412500X-0.650000X0.412500X-0.650000X0.412500X0.650000X-0.412500X0.650000X0*%
%ADD13RoundRect,0.237500X-0.300000X-0.237500X0.300000X-0.237500X0.300000X0.237500X-0.300000X0.237500X0*%
%ADD14RoundRect,0.250000X0.475000X-0.337500X0.475000X0.337500X-0.475000X0.337500X-0.475000X-0.337500X0*%
%ADD15RoundRect,0.237500X0.300000X0.237500X-0.300000X0.237500X-0.300000X-0.237500X0.300000X-0.237500X0*%
%ADD16RoundRect,0.237500X0.250000X0.237500X-0.250000X0.237500X-0.250000X-0.237500X0.250000X-0.237500X0*%
%ADD17RoundRect,0.237500X-0.237500X0.250000X-0.237500X-0.250000X0.237500X-0.250000X0.237500X0.250000X0*%
%ADD18RoundRect,0.237500X0.237500X-0.300000X0.237500X0.300000X-0.237500X0.300000X-0.237500X-0.300000X0*%
%ADD19RoundRect,0.150000X-0.512500X-0.150000X0.512500X-0.150000X0.512500X0.150000X-0.512500X0.150000X0*%
%ADD20RoundRect,0.237500X-0.237500X0.300000X-0.237500X-0.300000X0.237500X-0.300000X0.237500X0.300000X0*%
%ADD21RoundRect,0.150000X0.512500X0.150000X-0.512500X0.150000X-0.512500X-0.150000X0.512500X-0.150000X0*%
G04 APERTURE END LIST*
D10*
X143000000Y-157182500D03*
X143000000Y-154057500D03*
D11*
X152400000Y-138372500D03*
X152400000Y-136547500D03*
D12*
X146597500Y-163100000D03*
X149722500Y-163100000D03*
D13*
X218057500Y-167137442D03*
X219782500Y-167137442D03*
D14*
X157550000Y-204145135D03*
X157550000Y-202070135D03*
D15*
X174132500Y-99180000D03*
X172407500Y-99180000D03*
D13*
X208822500Y-128320000D03*
X210547500Y-128320000D03*
D16*
X153332500Y-92710000D03*
X151507500Y-92710000D03*
D11*
X214125000Y-218227500D03*
X214125000Y-216402500D03*
D17*
X176120000Y-99167500D03*
X176120000Y-100992500D03*
D14*
X119425000Y-195345135D03*
X119425000Y-193270135D03*
D12*
X137247500Y-99000000D03*
X140372500Y-99000000D03*
D18*
X173870000Y-142372500D03*
X173870000Y-140647500D03*
D11*
X165350000Y-199695135D03*
X165350000Y-197870135D03*
X147415000Y-210647500D03*
X147415000Y-208822500D03*
X208970000Y-169265000D03*
X208970000Y-167440000D03*
D18*
X176190000Y-171592500D03*
X176190000Y-169867500D03*
D19*
X151952500Y-134950000D03*
X151952500Y-133050000D03*
X154227500Y-134000000D03*
D12*
X136407500Y-163110000D03*
X139532500Y-163110000D03*
D11*
X152420000Y-100062500D03*
X152420000Y-98237500D03*
X152140000Y-81002500D03*
X152140000Y-79177500D03*
D16*
X152932500Y-74125000D03*
X151107500Y-74125000D03*
D18*
X183890000Y-157022500D03*
X183890000Y-155297500D03*
D11*
X164445000Y-172092500D03*
X164445000Y-170267500D03*
D12*
X136917500Y-80750000D03*
X140042500Y-80750000D03*
D10*
X148070000Y-157932500D03*
X148070000Y-154807500D03*
D15*
X181002500Y-173610000D03*
X179277500Y-173610000D03*
D14*
X98775000Y-195395135D03*
X98775000Y-193320135D03*
D18*
X182480000Y-122542500D03*
X182480000Y-120817500D03*
X183850000Y-163292500D03*
X183850000Y-161567500D03*
X166145000Y-172017500D03*
X166145000Y-170292500D03*
D12*
X136557500Y-117940000D03*
X139682500Y-117940000D03*
D14*
X143425000Y-199695135D03*
X143425000Y-197620135D03*
D12*
X136747500Y-144620000D03*
X139872500Y-144620000D03*
D11*
X215800000Y-218252500D03*
X215800000Y-216427500D03*
D16*
X91337500Y-198632635D03*
X89512500Y-198632635D03*
D10*
X148370000Y-81542500D03*
X148370000Y-78417500D03*
D14*
X136700000Y-204395135D03*
X136700000Y-202320135D03*
D15*
X173632500Y-104130000D03*
X171907500Y-104130000D03*
D12*
X146027500Y-86840000D03*
X149152500Y-86840000D03*
D19*
X89362500Y-195332635D03*
X89362500Y-193432635D03*
X91637500Y-194382635D03*
D13*
X210932500Y-162402500D03*
X212657500Y-162402500D03*
D16*
X152402500Y-149775000D03*
X150577500Y-149775000D03*
D12*
X136967500Y-137510000D03*
X140092500Y-137510000D03*
D14*
X157475000Y-195245135D03*
X157475000Y-193170135D03*
D18*
X168930000Y-123592500D03*
X168930000Y-121867500D03*
D13*
X86887500Y-147385000D03*
X88612500Y-147385000D03*
D14*
X113075000Y-199695135D03*
X113075000Y-197620135D03*
D10*
X143230000Y-138432500D03*
X143230000Y-135307500D03*
D16*
X175757500Y-106430000D03*
X173932500Y-106430000D03*
D13*
X196557500Y-162127500D03*
X198282500Y-162127500D03*
D12*
X136827500Y-86960000D03*
X139952500Y-86960000D03*
D19*
X152192500Y-77650000D03*
X152192500Y-75750000D03*
X154467500Y-76700000D03*
D20*
X212510000Y-216447500D03*
X212510000Y-218172500D03*
D12*
X146387500Y-124820000D03*
X149512500Y-124820000D03*
D14*
X151200000Y-199895135D03*
X151200000Y-197820135D03*
D17*
X87575000Y-193570135D03*
X87575000Y-195395135D03*
X162820000Y-170317500D03*
X162820000Y-172142500D03*
D10*
X148170000Y-100687500D03*
X148170000Y-97562500D03*
D15*
X164242500Y-113030000D03*
X162517500Y-113030000D03*
D12*
X136857500Y-124930000D03*
X139982500Y-124930000D03*
D19*
X89262500Y-203632635D03*
X89262500Y-201732635D03*
X91537500Y-202682635D03*
D12*
X146607500Y-105990000D03*
X149732500Y-105990000D03*
D17*
X157250000Y-197820135D03*
X157250000Y-199645135D03*
X87225000Y-201820135D03*
X87225000Y-203645135D03*
D11*
X136350000Y-199745135D03*
X136350000Y-197920135D03*
D19*
X159137500Y-199657635D03*
X159137500Y-197757635D03*
X161412500Y-198707635D03*
D10*
X143060000Y-81512500D03*
X143060000Y-78387500D03*
D11*
X151800000Y-157252500D03*
X151800000Y-155427500D03*
D17*
X119775000Y-197920135D03*
X119775000Y-199745135D03*
D21*
X134437500Y-197932635D03*
X134437500Y-199832635D03*
X132162500Y-198882635D03*
D14*
X98775000Y-199545135D03*
X98775000Y-197470135D03*
D13*
X208822500Y-142520000D03*
X210547500Y-142520000D03*
D14*
X98825000Y-203795135D03*
X98825000Y-201720135D03*
D17*
X145790000Y-208797500D03*
X145790000Y-210622500D03*
D19*
X151832500Y-153610000D03*
X151832500Y-151710000D03*
X154107500Y-152660000D03*
D10*
X148200000Y-119302500D03*
X148200000Y-116177500D03*
D14*
X135925000Y-194995135D03*
X135925000Y-192920135D03*
D11*
X128675000Y-199920135D03*
X128675000Y-198095135D03*
D19*
X151462500Y-115140000D03*
X151462500Y-113240000D03*
X153737500Y-114190000D03*
X121812500Y-199732635D03*
X121812500Y-197832635D03*
X124087500Y-198782635D03*
D12*
X136407500Y-156220000D03*
X139532500Y-156220000D03*
D20*
X177320000Y-173397500D03*
X177320000Y-175122500D03*
D14*
X119375000Y-204245135D03*
X119375000Y-202170135D03*
D11*
X127100000Y-199845135D03*
X127100000Y-198020135D03*
D10*
X148220000Y-139337500D03*
X148220000Y-136212500D03*
D13*
X208672500Y-114320000D03*
X210397500Y-114320000D03*
X171317500Y-101810000D03*
X173042500Y-101810000D03*
D10*
X143000000Y-118792500D03*
X143000000Y-115667500D03*
D16*
X153312500Y-130730000D03*
X151487500Y-130730000D03*
D19*
X152602500Y-96600000D03*
X152602500Y-94700000D03*
X154877500Y-95650000D03*
D20*
X173870000Y-144922500D03*
X173870000Y-146647500D03*
D17*
X167330000Y-121877500D03*
X167330000Y-123702500D03*
D11*
X152060000Y-118852500D03*
X152060000Y-117027500D03*
D12*
X146647500Y-144630000D03*
X149772500Y-144630000D03*
D13*
X203657500Y-162277500D03*
X205382500Y-162277500D03*
D12*
X137327500Y-106110000D03*
X140452500Y-106110000D03*
D16*
X152872500Y-111440000D03*
X151047500Y-111440000D03*
D20*
X149090000Y-208847500D03*
X149090000Y-210572500D03*
D10*
X143420000Y-99982500D03*
X143420000Y-96857500D03*
M02*
