G04 #@! TF.GenerationSoftware,KiCad,Pcbnew,7.0.10*
G04 #@! TF.CreationDate,2025-01-18T09:55:55-08:00*
G04 #@! TF.ProjectId,fieldRadio_1.1,6669656c-6452-4616-9469-6f5f312e312e,rev?*
G04 #@! TF.SameCoordinates,Original*
G04 #@! TF.FileFunction,Soldermask,Top*
G04 #@! TF.FilePolarity,Negative*
%FSLAX46Y46*%
G04 Gerber Fmt 4.6, Leading zero omitted, Abs format (unit mm)*
G04 Created by KiCad (PCBNEW 7.0.10) date 2025-01-18 09:55:55*
%MOMM*%
%LPD*%
G01*
G04 APERTURE LIST*
G04 Aperture macros list*
%AMRoundRect*
0 Rectangle with rounded corners*
0 $1 Rounding radius*
0 $2 $3 $4 $5 $6 $7 $8 $9 X,Y pos of 4 corners*
0 Add a 4 corners polygon primitive as box body*
4,1,4,$2,$3,$4,$5,$6,$7,$8,$9,$2,$3,0*
0 Add four circle primitives for the rounded corners*
1,1,$1+$1,$2,$3*
1,1,$1+$1,$4,$5*
1,1,$1+$1,$6,$7*
1,1,$1+$1,$8,$9*
0 Add four rect primitives between the rounded corners*
20,1,$1+$1,$2,$3,$4,$5,0*
20,1,$1+$1,$4,$5,$6,$7,0*
20,1,$1+$1,$6,$7,$8,$9,0*
20,1,$1+$1,$8,$9,$2,$3,0*%
G04 Aperture macros list end*
%ADD10RoundRect,0.237500X-0.237500X0.300000X-0.237500X-0.300000X0.237500X-0.300000X0.237500X0.300000X0*%
%ADD11RoundRect,0.237500X0.250000X0.237500X-0.250000X0.237500X-0.250000X-0.237500X0.250000X-0.237500X0*%
%ADD12RoundRect,0.237500X0.237500X-0.250000X0.237500X0.250000X-0.237500X0.250000X-0.237500X-0.250000X0*%
%ADD13R,2.200000X2.200000*%
%ADD14O,2.200000X2.200000*%
%ADD15RoundRect,0.237500X-0.250000X-0.237500X0.250000X-0.237500X0.250000X0.237500X-0.250000X0.237500X0*%
%ADD16C,1.600000*%
%ADD17RoundRect,0.250000X0.350000X-0.850000X0.350000X0.850000X-0.350000X0.850000X-0.350000X-0.850000X0*%
%ADD18RoundRect,0.249997X2.650003X-2.950003X2.650003X2.950003X-2.650003X2.950003X-2.650003X-2.950003X0*%
%ADD19R,1.270000X0.610000*%
%ADD20R,0.710000X0.610000*%
%ADD21R,3.810000X1.650000*%
%ADD22RoundRect,0.150000X0.150000X-0.825000X0.150000X0.825000X-0.150000X0.825000X-0.150000X-0.825000X0*%
%ADD23C,1.550000*%
%ADD24RoundRect,0.237500X-0.237500X0.250000X-0.237500X-0.250000X0.237500X-0.250000X0.237500X0.250000X0*%
%ADD25R,2.000000X1.905000*%
%ADD26O,2.000000X1.905000*%
%ADD27RoundRect,0.237500X-0.300000X-0.237500X0.300000X-0.237500X0.300000X0.237500X-0.300000X0.237500X0*%
%ADD28R,1.600000X1.600000*%
%ADD29R,1.400000X1.200000*%
%ADD30RoundRect,0.150000X-0.587500X-0.150000X0.587500X-0.150000X0.587500X0.150000X-0.587500X0.150000X0*%
%ADD31RoundRect,0.075000X0.650000X0.075000X-0.650000X0.075000X-0.650000X-0.075000X0.650000X-0.075000X0*%
%ADD32R,0.600000X1.200000*%
%ADD33RoundRect,0.237500X0.237500X-0.300000X0.237500X0.300000X-0.237500X0.300000X-0.237500X-0.300000X0*%
%ADD34C,2.600000*%
%ADD35R,1.700000X1.700000*%
%ADD36O,1.700000X1.700000*%
%ADD37RoundRect,0.075000X0.075000X-0.662500X0.075000X0.662500X-0.075000X0.662500X-0.075000X-0.662500X0*%
%ADD38RoundRect,0.075000X0.662500X-0.075000X0.662500X0.075000X-0.662500X0.075000X-0.662500X-0.075000X0*%
%ADD39RoundRect,0.150000X0.825000X0.150000X-0.825000X0.150000X-0.825000X-0.150000X0.825000X-0.150000X0*%
%ADD40RoundRect,0.237500X0.300000X0.237500X-0.300000X0.237500X-0.300000X-0.237500X0.300000X-0.237500X0*%
%ADD41R,1.560000X0.650000*%
%ADD42C,3.000000*%
%ADD43RoundRect,0.150000X-0.512500X-0.150000X0.512500X-0.150000X0.512500X0.150000X-0.512500X0.150000X0*%
%ADD44R,1.528000X0.650000*%
%ADD45RoundRect,0.250000X-0.350000X-0.450000X0.350000X-0.450000X0.350000X0.450000X-0.350000X0.450000X0*%
%ADD46O,1.600000X1.600000*%
%ADD47RoundRect,0.250001X-0.799999X-2.474999X0.799999X-2.474999X0.799999X2.474999X-0.799999X2.474999X0*%
%ADD48C,1.440000*%
%ADD49R,2.400000X1.600000*%
%ADD50O,2.400000X1.600000*%
%ADD51RoundRect,0.249999X-1.025001X1.025001X-1.025001X-1.025001X1.025001X-1.025001X1.025001X1.025001X0*%
%ADD52C,2.550000*%
%ADD53RoundRect,0.150000X0.150000X-0.587500X0.150000X0.587500X-0.150000X0.587500X-0.150000X-0.587500X0*%
%ADD54RoundRect,0.075000X-0.075000X0.650000X-0.075000X-0.650000X0.075000X-0.650000X0.075000X0.650000X0*%
%ADD55R,1.400000X0.300000*%
%ADD56RoundRect,0.100000X-0.100000X0.637500X-0.100000X-0.637500X0.100000X-0.637500X0.100000X0.637500X0*%
%ADD57R,1.500000X2.000000*%
%ADD58R,3.800000X2.000000*%
%ADD59R,1.100000X0.600000*%
%ADD60R,0.800000X0.300000*%
%ADD61C,1.627000*%
%ADD62RoundRect,0.150000X-0.825000X-0.150000X0.825000X-0.150000X0.825000X0.150000X-0.825000X0.150000X0*%
%ADD63RoundRect,0.150000X0.150000X-0.512500X0.150000X0.512500X-0.150000X0.512500X-0.150000X-0.512500X0*%
G04 APERTURE END LIST*
D10*
X163110000Y-218937500D03*
X163110000Y-220662500D03*
D11*
X208047500Y-120045000D03*
X206222500Y-120045000D03*
D10*
X164000000Y-181257500D03*
X164000000Y-182982500D03*
D12*
X219570000Y-173740000D03*
X219570000Y-171915000D03*
D13*
X162830000Y-209557635D03*
D14*
X152670000Y-209557635D03*
D10*
X121595000Y-108622500D03*
X121595000Y-110347500D03*
D15*
X112107500Y-159540000D03*
X113932500Y-159540000D03*
X171257500Y-211550000D03*
X173082500Y-211550000D03*
D16*
X104640000Y-170420000D03*
X109640000Y-170420000D03*
D17*
X110890000Y-108775000D03*
X113170000Y-108775000D03*
X115450000Y-108775000D03*
D18*
X113170000Y-102475000D03*
D19*
X91380000Y-123300000D03*
X91380000Y-124570000D03*
X91380000Y-125840000D03*
X91380000Y-127110000D03*
D20*
X97000000Y-125840000D03*
D21*
X94740000Y-126335000D03*
D20*
X97000000Y-127110000D03*
X97000000Y-123300000D03*
D21*
X94740000Y-124075000D03*
D20*
X97000000Y-124570000D03*
D22*
X202615000Y-164777500D03*
X203885000Y-164777500D03*
X205155000Y-164777500D03*
X206425000Y-164777500D03*
X206425000Y-159827500D03*
X205155000Y-159827500D03*
X203885000Y-159827500D03*
X202615000Y-159827500D03*
D23*
X92875000Y-196807635D03*
X92875000Y-191807635D03*
D10*
X173870000Y-127487500D03*
X173870000Y-129212500D03*
X219440000Y-206127500D03*
X219440000Y-207852500D03*
D24*
X90880000Y-173737500D03*
X90880000Y-175562500D03*
D23*
X125575000Y-200600000D03*
X125575000Y-205600000D03*
D25*
X94185000Y-87870000D03*
D26*
X94185000Y-90410000D03*
X94185000Y-92950000D03*
D12*
X208565000Y-218177500D03*
X208565000Y-216352500D03*
D27*
X202747500Y-118270000D03*
X204472500Y-118270000D03*
D12*
X210645000Y-169215000D03*
X210645000Y-167390000D03*
D27*
X209577500Y-187405000D03*
X211302500Y-187405000D03*
D11*
X216297500Y-110945000D03*
X214472500Y-110945000D03*
D27*
X214797500Y-128670000D03*
X216522500Y-128670000D03*
D28*
X185065112Y-209240000D03*
D16*
X183065112Y-209240000D03*
D27*
X209132500Y-198525000D03*
X210857500Y-198525000D03*
X202772500Y-132295000D03*
X204497500Y-132295000D03*
D12*
X181710000Y-220682500D03*
X181710000Y-218857500D03*
D11*
X204547500Y-116645000D03*
X202722500Y-116645000D03*
D29*
X199820000Y-180820000D03*
X197620000Y-180820000D03*
X197620000Y-182520000D03*
X199820000Y-182520000D03*
D27*
X90867500Y-109010000D03*
X92592500Y-109010000D03*
D24*
X208970000Y-167440000D03*
X208970000Y-169265000D03*
D15*
X96427500Y-177240000D03*
X98252500Y-177240000D03*
D30*
X145187500Y-224080000D03*
X145187500Y-225980000D03*
X147062500Y-225030000D03*
D11*
X216372500Y-119345000D03*
X214547500Y-119345000D03*
D12*
X203545000Y-169140000D03*
X203545000Y-167315000D03*
D24*
X221710000Y-206117500D03*
X221710000Y-207942500D03*
D12*
X180070000Y-220692500D03*
X180070000Y-218867500D03*
D15*
X209427500Y-189180000D03*
X211252500Y-189180000D03*
D28*
X220820000Y-178404888D03*
D16*
X220820000Y-180904888D03*
D12*
X169960000Y-220712500D03*
X169960000Y-218887500D03*
D31*
X184810000Y-171450000D03*
X184810000Y-170950000D03*
X184810000Y-170450000D03*
X184810000Y-169950000D03*
X184810000Y-169450000D03*
X180410000Y-169450000D03*
X180410000Y-169950000D03*
X180410000Y-170450000D03*
X180410000Y-170950000D03*
X180410000Y-171450000D03*
D32*
X85593762Y-119180000D03*
X84643762Y-119180000D03*
X83693762Y-119180000D03*
X83693762Y-121680000D03*
X85593762Y-121680000D03*
D33*
X188750000Y-158952500D03*
X188750000Y-157227500D03*
D11*
X108332500Y-108780000D03*
X106507500Y-108780000D03*
X204647500Y-130620000D03*
X202822500Y-130620000D03*
D33*
X199810000Y-157112500D03*
X199810000Y-155387500D03*
D24*
X175700000Y-127427500D03*
X175700000Y-129252500D03*
D11*
X216222500Y-142870000D03*
X214397500Y-142870000D03*
D28*
X168902380Y-119780000D03*
D16*
X166402380Y-119780000D03*
D10*
X173340000Y-218937500D03*
X173340000Y-220662500D03*
D13*
X124555000Y-209357635D03*
D14*
X114395000Y-209357635D03*
D30*
X162287500Y-177680000D03*
X162287500Y-179580000D03*
X164162500Y-178630000D03*
D34*
X139850000Y-196982635D03*
X139850000Y-191382635D03*
D35*
X223480000Y-215055000D03*
D36*
X223480000Y-217595000D03*
D27*
X172537500Y-176110000D03*
X174262500Y-176110000D03*
D16*
X112770000Y-146890000D03*
X117770000Y-146890000D03*
D37*
X189285000Y-205027500D03*
X189785000Y-205027500D03*
X190285000Y-205027500D03*
X190785000Y-205027500D03*
X191285000Y-205027500D03*
X191785000Y-205027500D03*
X192285000Y-205027500D03*
X192785000Y-205027500D03*
X193285000Y-205027500D03*
X193785000Y-205027500D03*
X194285000Y-205027500D03*
X194785000Y-205027500D03*
D38*
X196197500Y-203615000D03*
X196197500Y-203115000D03*
X196197500Y-202615000D03*
X196197500Y-202115000D03*
X196197500Y-201615000D03*
X196197500Y-201115000D03*
X196197500Y-200615000D03*
X196197500Y-200115000D03*
X196197500Y-199615000D03*
X196197500Y-199115000D03*
X196197500Y-198615000D03*
X196197500Y-198115000D03*
D37*
X194785000Y-196702500D03*
X194285000Y-196702500D03*
X193785000Y-196702500D03*
X193285000Y-196702500D03*
X192785000Y-196702500D03*
X192285000Y-196702500D03*
X191785000Y-196702500D03*
X191285000Y-196702500D03*
X190785000Y-196702500D03*
X190285000Y-196702500D03*
X189785000Y-196702500D03*
X189285000Y-196702500D03*
D38*
X187872500Y-198115000D03*
X187872500Y-198615000D03*
X187872500Y-199115000D03*
X187872500Y-199615000D03*
X187872500Y-200115000D03*
X187872500Y-200615000D03*
X187872500Y-201115000D03*
X187872500Y-201615000D03*
X187872500Y-202115000D03*
X187872500Y-202615000D03*
X187872500Y-203115000D03*
X187872500Y-203615000D03*
D35*
X86295000Y-139760000D03*
D36*
X83755000Y-139760000D03*
D10*
X213995000Y-167390000D03*
X213995000Y-169115000D03*
D11*
X87332500Y-182020000D03*
X85507500Y-182020000D03*
D23*
X125425000Y-197057635D03*
X125425000Y-192057635D03*
D10*
X160030000Y-181337500D03*
X160030000Y-183062500D03*
D16*
X123940000Y-88890000D03*
X128940000Y-88890000D03*
D24*
X186680000Y-218857500D03*
X186680000Y-220682500D03*
D39*
X212035000Y-118130000D03*
X212035000Y-116860000D03*
X212035000Y-115590000D03*
X212035000Y-114320000D03*
X212035000Y-113050000D03*
X212035000Y-111780000D03*
X212035000Y-110510000D03*
X207085000Y-110510000D03*
X207085000Y-111780000D03*
X207085000Y-113050000D03*
X207085000Y-114320000D03*
X207085000Y-115590000D03*
X207085000Y-116860000D03*
X207085000Y-118130000D03*
D15*
X196547500Y-170867500D03*
X198372500Y-170867500D03*
D40*
X204622500Y-129020000D03*
X202897500Y-129020000D03*
D34*
X154225000Y-200432635D03*
X154225000Y-206032635D03*
D41*
X182670000Y-179360000D03*
X182670000Y-178410000D03*
X182670000Y-177460000D03*
X179970000Y-177460000D03*
X179970000Y-179360000D03*
D42*
X162250000Y-75475000D03*
X178480000Y-75475000D03*
X162250000Y-88175000D03*
X178480000Y-88175000D03*
D10*
X188770000Y-163217500D03*
X188770000Y-164942500D03*
D42*
X120545000Y-114510000D03*
X104545000Y-114510000D03*
X120545000Y-124510000D03*
X104545000Y-124510000D03*
D15*
X217252500Y-193220000D03*
X219077500Y-193220000D03*
D34*
X139850000Y-200432635D03*
X139850000Y-206032635D03*
D11*
X208522500Y-133720000D03*
X206697500Y-133720000D03*
D10*
X178410000Y-218927500D03*
X178410000Y-220652500D03*
D43*
X172392500Y-177940000D03*
X172392500Y-178890000D03*
X172392500Y-179840000D03*
X174667500Y-179840000D03*
X174667500Y-177940000D03*
D44*
X181179000Y-160675000D03*
X181179000Y-161945000D03*
X181179000Y-163215000D03*
X181179000Y-164485000D03*
X186601000Y-164485000D03*
X186601000Y-163215000D03*
X186601000Y-161945000D03*
X186601000Y-160675000D03*
D35*
X195690000Y-191790000D03*
D36*
X195690000Y-189250000D03*
D40*
X208732500Y-147990000D03*
X207007500Y-147990000D03*
D23*
X163450000Y-200632635D03*
X163450000Y-205632635D03*
D40*
X216197500Y-109245000D03*
X214472500Y-109245000D03*
D12*
X175030000Y-220712500D03*
X175030000Y-218887500D03*
X171680000Y-220722500D03*
X171680000Y-218897500D03*
D23*
X116390000Y-173880000D03*
X116390000Y-168880000D03*
D27*
X214522500Y-114220000D03*
X216247500Y-114220000D03*
D16*
X127520000Y-147375000D03*
X132520000Y-147375000D03*
D28*
X191050000Y-102942379D03*
D16*
X191050000Y-100442379D03*
D45*
X85563762Y-124540000D03*
X87563762Y-124540000D03*
D28*
X188967621Y-108840000D03*
D16*
X191467621Y-108840000D03*
D11*
X188377500Y-183120000D03*
X186552500Y-183120000D03*
D27*
X92537500Y-145910000D03*
X94262500Y-145910000D03*
D30*
X96212500Y-173520000D03*
X96212500Y-175420000D03*
X98087500Y-174470000D03*
D12*
X223285000Y-207892500D03*
X223285000Y-206067500D03*
D10*
X202440000Y-213682500D03*
X202440000Y-215407500D03*
D34*
X135050000Y-159770000D03*
X140650000Y-159770000D03*
D16*
X157220000Y-142625000D03*
X157220000Y-147625000D03*
D27*
X217277500Y-191345000D03*
X219002500Y-191345000D03*
D34*
X101975000Y-197007635D03*
X101975000Y-191407635D03*
D40*
X216547500Y-123495000D03*
X214822500Y-123495000D03*
D13*
X145890000Y-93325000D03*
D14*
X156050000Y-93325000D03*
D40*
X94332500Y-153490000D03*
X92607500Y-153490000D03*
D23*
X130270000Y-176775000D03*
X130270000Y-171775000D03*
D24*
X213470000Y-155285000D03*
X213470000Y-157110000D03*
D27*
X91917500Y-167850000D03*
X93642500Y-167850000D03*
D40*
X185702500Y-107910000D03*
X183977500Y-107910000D03*
D11*
X216272500Y-146245000D03*
X214447500Y-146245000D03*
D15*
X81267500Y-148700000D03*
X83092500Y-148700000D03*
D35*
X89270000Y-224670000D03*
D36*
X91810000Y-224670000D03*
X94350000Y-224670000D03*
X96890000Y-224670000D03*
X99430000Y-224670000D03*
X101970000Y-224670000D03*
X104510000Y-224670000D03*
X107050000Y-224670000D03*
X109590000Y-224670000D03*
X112130000Y-224670000D03*
X114670000Y-224670000D03*
X117210000Y-224670000D03*
X119750000Y-224670000D03*
X122290000Y-224670000D03*
X124830000Y-224670000D03*
X127370000Y-224670000D03*
D34*
X102125000Y-200407635D03*
X102125000Y-206007635D03*
D40*
X204547500Y-113195000D03*
X202822500Y-113195000D03*
D15*
X202747500Y-111520000D03*
X204572500Y-111520000D03*
D35*
X206235000Y-102930000D03*
D36*
X208775000Y-102930000D03*
D27*
X214522500Y-112620000D03*
X216247500Y-112620000D03*
D11*
X216272500Y-115970000D03*
X214447500Y-115970000D03*
D33*
X207170000Y-157040000D03*
X207170000Y-155315000D03*
D15*
X173387500Y-155400000D03*
X175212500Y-155400000D03*
D12*
X214125000Y-218227500D03*
X214125000Y-216402500D03*
D10*
X183350000Y-218907500D03*
X183350000Y-220632500D03*
D15*
X183887500Y-109600000D03*
X185712500Y-109600000D03*
D10*
X225010000Y-206117500D03*
X225010000Y-207842500D03*
D13*
X141200000Y-131675000D03*
D14*
X131040000Y-131675000D03*
D40*
X204522500Y-114920000D03*
X202797500Y-114920000D03*
D10*
X169500000Y-113837500D03*
X169500000Y-115562500D03*
X206790000Y-216427500D03*
X206790000Y-218152500D03*
D34*
X135310000Y-121420000D03*
X140910000Y-121420000D03*
D10*
X168210000Y-218937500D03*
X168210000Y-220662500D03*
X89278762Y-118972500D03*
X89278762Y-120697500D03*
D39*
X90225000Y-151195000D03*
X90225000Y-149925000D03*
X90225000Y-148655000D03*
X90225000Y-147385000D03*
X90225000Y-146115000D03*
X90225000Y-144845000D03*
X90225000Y-143575000D03*
X85275000Y-143575000D03*
X85275000Y-144845000D03*
X85275000Y-146115000D03*
X85275000Y-147385000D03*
X85275000Y-148655000D03*
X85275000Y-149925000D03*
X85275000Y-151195000D03*
D24*
X148985000Y-224117500D03*
X148985000Y-225942500D03*
D28*
X103780000Y-95771395D03*
D16*
X103780000Y-93271395D03*
D11*
X211352500Y-190980000D03*
X209527500Y-190980000D03*
D28*
X154420000Y-144025000D03*
D46*
X154420000Y-136405000D03*
D33*
X81320000Y-175722500D03*
X81320000Y-173997500D03*
D42*
X207755000Y-75465000D03*
X223985000Y-75465000D03*
X207755000Y-88165000D03*
X223985000Y-88165000D03*
D28*
X162320000Y-109260000D03*
D16*
X162320000Y-106760000D03*
D10*
X158020000Y-218937500D03*
X158020000Y-220662500D03*
D11*
X80592500Y-140060000D03*
X78767500Y-140060000D03*
D15*
X203122500Y-146020000D03*
X204947500Y-146020000D03*
D34*
X144890000Y-83840000D03*
X150490000Y-83840000D03*
D15*
X208847500Y-122845000D03*
X210672500Y-122845000D03*
D23*
X100830000Y-174400000D03*
X100830000Y-169400000D03*
D22*
X217015000Y-169612442D03*
X218285000Y-169612442D03*
X219555000Y-169612442D03*
X220825000Y-169612442D03*
X220825000Y-164662442D03*
X219555000Y-164662442D03*
X218285000Y-164662442D03*
X217015000Y-164662442D03*
D12*
X200140000Y-220692500D03*
X200140000Y-218867500D03*
D10*
X212500000Y-216427500D03*
X212500000Y-218152500D03*
D47*
X80015000Y-91520000D03*
X86965000Y-91520000D03*
D10*
X190470000Y-177037500D03*
X190470000Y-178762500D03*
D23*
X155180000Y-121640000D03*
X155180000Y-116640000D03*
D15*
X203072500Y-137995000D03*
X204897500Y-137995000D03*
D13*
X141770000Y-74725000D03*
D14*
X131610000Y-74725000D03*
D34*
X145440000Y-102640000D03*
X151040000Y-102640000D03*
D24*
X192250000Y-176967500D03*
X192250000Y-178792500D03*
D12*
X158510000Y-171642500D03*
X158510000Y-169817500D03*
D24*
X185310000Y-129307500D03*
X185310000Y-131132500D03*
X211860000Y-155305000D03*
X211860000Y-157130000D03*
D11*
X216222500Y-141270000D03*
X214397500Y-141270000D03*
D28*
X104860000Y-173450000D03*
D46*
X112480000Y-173450000D03*
D23*
X155640000Y-103740000D03*
X155640000Y-98740000D03*
X130300000Y-197007635D03*
X130300000Y-192007635D03*
D40*
X216272500Y-144670000D03*
X214547500Y-144670000D03*
D25*
X171050000Y-139870000D03*
D26*
X171050000Y-142410000D03*
X171050000Y-144950000D03*
D48*
X79070000Y-216270000D03*
X79070000Y-218810000D03*
X79070000Y-221350000D03*
D27*
X203122500Y-147620000D03*
X204847500Y-147620000D03*
D13*
X162980000Y-187732635D03*
D14*
X152820000Y-187732635D03*
D40*
X181982500Y-181020000D03*
X180257500Y-181020000D03*
D24*
X194745000Y-155190000D03*
X194745000Y-157015000D03*
D34*
X154200000Y-196982635D03*
X154200000Y-191382635D03*
X145270000Y-159820000D03*
X150870000Y-159820000D03*
D10*
X205810000Y-209427500D03*
X205810000Y-211152500D03*
D15*
X85497500Y-180110000D03*
X87322500Y-180110000D03*
D24*
X215965000Y-206127500D03*
X215965000Y-207952500D03*
D35*
X181395000Y-185960000D03*
D36*
X178855000Y-185960000D03*
D24*
X201920000Y-167265000D03*
X201920000Y-169090000D03*
D49*
X178920000Y-106680000D03*
D50*
X178920000Y-104140000D03*
X178920000Y-101600000D03*
X178920000Y-99060000D03*
X168760000Y-99060000D03*
X168760000Y-101600000D03*
X168760000Y-104140000D03*
X168760000Y-106680000D03*
D12*
X208810000Y-157070000D03*
X208810000Y-155245000D03*
D11*
X180692500Y-119250000D03*
X178867500Y-119250000D03*
D40*
X179052500Y-110690000D03*
X177327500Y-110690000D03*
D24*
X178450000Y-155367500D03*
X178450000Y-157192500D03*
D39*
X212160000Y-132130000D03*
X212160000Y-130860000D03*
X212160000Y-129590000D03*
X212160000Y-128320000D03*
X212160000Y-127050000D03*
X212160000Y-125780000D03*
X212160000Y-124510000D03*
X207210000Y-124510000D03*
X207210000Y-125780000D03*
X207210000Y-127050000D03*
X207210000Y-128320000D03*
X207210000Y-129590000D03*
X207210000Y-130860000D03*
X207210000Y-132130000D03*
D13*
X92845000Y-187957635D03*
D14*
X103005000Y-187957635D03*
D24*
X83430000Y-173837500D03*
X83430000Y-175662500D03*
D33*
X77850000Y-112052500D03*
X77850000Y-110327500D03*
D12*
X215800000Y-218227500D03*
X215800000Y-216402500D03*
D51*
X97250000Y-99975000D03*
D52*
X97250000Y-104775000D03*
X97250000Y-109575000D03*
D34*
X145290000Y-141040000D03*
X150890000Y-141040000D03*
D24*
X205370000Y-155315000D03*
X205370000Y-157140000D03*
D28*
X189340000Y-151550000D03*
D16*
X189340000Y-149050000D03*
D34*
X135620000Y-83920000D03*
X141220000Y-83920000D03*
D10*
X176860000Y-155407500D03*
X176860000Y-157132500D03*
D16*
X121050000Y-168930000D03*
X121050000Y-173930000D03*
D28*
X89690000Y-105920000D03*
D46*
X89690000Y-98300000D03*
D13*
X131445000Y-209357635D03*
D14*
X141605000Y-209357635D03*
D12*
X91920000Y-165932500D03*
X91920000Y-164107500D03*
D45*
X85653762Y-127110000D03*
X87653762Y-127110000D03*
D40*
X174192500Y-181650000D03*
X172467500Y-181650000D03*
D10*
X200020000Y-167515000D03*
X200020000Y-169240000D03*
X181530000Y-129317500D03*
X181530000Y-131042500D03*
X206895000Y-167315000D03*
X206895000Y-169040000D03*
D12*
X172110000Y-129252500D03*
X172110000Y-127427500D03*
D28*
X162830000Y-102410000D03*
D16*
X162830000Y-99910000D03*
D23*
X131370000Y-166175000D03*
X131370000Y-161175000D03*
D11*
X87312500Y-178370000D03*
X85487500Y-178370000D03*
D13*
X106850000Y-155360000D03*
D14*
X117010000Y-155360000D03*
D15*
X209480358Y-184065000D03*
X211305358Y-184065000D03*
X209032500Y-195300000D03*
X210857500Y-195300000D03*
D11*
X216622500Y-125270000D03*
X214797500Y-125270000D03*
D30*
X91152500Y-177660000D03*
X91152500Y-179560000D03*
X93027500Y-178610000D03*
D13*
X141500000Y-111925000D03*
D14*
X131340000Y-111925000D03*
D12*
X212370000Y-169215000D03*
X212370000Y-167390000D03*
D40*
X204847500Y-144445000D03*
X203122500Y-144445000D03*
D23*
X108900000Y-213107635D03*
X108900000Y-208107635D03*
D27*
X180157500Y-205860000D03*
X181882500Y-205860000D03*
D23*
X116380000Y-158812365D03*
X116380000Y-163812365D03*
D53*
X95460000Y-181117500D03*
X97360000Y-181117500D03*
X96410000Y-179242500D03*
D27*
X202797500Y-109795000D03*
X204522500Y-109795000D03*
D10*
X90953762Y-118947500D03*
X90953762Y-120672500D03*
D28*
X85500000Y-216544887D03*
D16*
X85500000Y-218544887D03*
D13*
X141450000Y-93325000D03*
D14*
X131290000Y-93325000D03*
D11*
X219152500Y-194820000D03*
X217327500Y-194820000D03*
D27*
X90842500Y-110785000D03*
X92567500Y-110785000D03*
D12*
X92360000Y-175582500D03*
X92360000Y-173757500D03*
D32*
X85643762Y-132370000D03*
X86593762Y-132370000D03*
X87543762Y-132370000D03*
X87543762Y-129870000D03*
X85643762Y-129870000D03*
D28*
X129400000Y-136720000D03*
D46*
X129400000Y-144340000D03*
D24*
X166440000Y-218877500D03*
X166440000Y-220702500D03*
D27*
X82707500Y-112880000D03*
X84432500Y-112880000D03*
D35*
X167440000Y-179670000D03*
D36*
X167440000Y-182210000D03*
D54*
X185420000Y-111900000D03*
X184920000Y-111900000D03*
X184420000Y-111900000D03*
X183920000Y-111900000D03*
X183420000Y-111900000D03*
X183420000Y-116300000D03*
X183920000Y-116300000D03*
X184420000Y-116300000D03*
X184920000Y-116300000D03*
X185420000Y-116300000D03*
D40*
X216622500Y-131920000D03*
X214897500Y-131920000D03*
D35*
X215920000Y-224390000D03*
D36*
X213380000Y-224390000D03*
X210840000Y-224390000D03*
X208300000Y-224390000D03*
D40*
X216272500Y-117620000D03*
X214547500Y-117620000D03*
D11*
X180672500Y-117610000D03*
X178847500Y-117610000D03*
D33*
X87618762Y-120697500D03*
X87618762Y-118972500D03*
D24*
X124910000Y-219797500D03*
X124910000Y-221622500D03*
D15*
X186867500Y-193590000D03*
X188692500Y-193590000D03*
D13*
X146070000Y-74775000D03*
D14*
X156230000Y-74775000D03*
D15*
X92537500Y-150510000D03*
X94362500Y-150510000D03*
D23*
X130400000Y-200500000D03*
X130400000Y-205500000D03*
D12*
X179260000Y-115042500D03*
X179260000Y-113217500D03*
D28*
X215995000Y-174297387D03*
D16*
X215995000Y-176797387D03*
D35*
X190895000Y-224470000D03*
D36*
X188355000Y-224470000D03*
X185815000Y-224470000D03*
X183275000Y-224470000D03*
X180735000Y-224470000D03*
X178195000Y-224470000D03*
X175655000Y-224470000D03*
X173115000Y-224470000D03*
X170575000Y-224470000D03*
X168035000Y-224470000D03*
X165495000Y-224470000D03*
X162955000Y-224470000D03*
D35*
X184180000Y-98980000D03*
D36*
X184180000Y-101520000D03*
X184180000Y-104060000D03*
D33*
X176890000Y-162992500D03*
X176890000Y-161267500D03*
D12*
X89180000Y-175582500D03*
X89180000Y-173757500D03*
D24*
X203595000Y-155265000D03*
X203595000Y-157090000D03*
D16*
X121550000Y-178960000D03*
D46*
X111390000Y-178960000D03*
D12*
X179360000Y-129142500D03*
X179360000Y-127317500D03*
D27*
X171367500Y-203690000D03*
X173092500Y-203690000D03*
D28*
X164595000Y-142310000D03*
D16*
X164595000Y-139810000D03*
D15*
X202947500Y-125720000D03*
X204772500Y-125720000D03*
D13*
X145560000Y-150425000D03*
D14*
X155720000Y-150425000D03*
D35*
X175850000Y-211320000D03*
D36*
X175850000Y-208780000D03*
X175850000Y-206240000D03*
X175850000Y-203700000D03*
D40*
X216147500Y-139620000D03*
X214422500Y-139620000D03*
D55*
X194840000Y-182595000D03*
X194840000Y-182095000D03*
X194840000Y-181595000D03*
X194840000Y-181095000D03*
X194840000Y-180595000D03*
X190440000Y-180595000D03*
X190440000Y-181095000D03*
X190440000Y-181595000D03*
X190440000Y-182095000D03*
X190440000Y-182595000D03*
D30*
X94032500Y-163970000D03*
X94032500Y-165870000D03*
X95907500Y-164920000D03*
D23*
X109200000Y-183657635D03*
X109200000Y-188657635D03*
D10*
X92813762Y-129777500D03*
X92813762Y-131502500D03*
D23*
X105130000Y-163550000D03*
X105130000Y-158550000D03*
D56*
X176120000Y-167702500D03*
X175470000Y-167702500D03*
X174820000Y-167702500D03*
X174170000Y-167702500D03*
X173520000Y-167702500D03*
X172870000Y-167702500D03*
X172220000Y-167702500D03*
X171570000Y-167702500D03*
X171570000Y-173427500D03*
X172220000Y-173427500D03*
X172870000Y-173427500D03*
X173520000Y-173427500D03*
X174170000Y-173427500D03*
X174820000Y-173427500D03*
X175470000Y-173427500D03*
X176120000Y-173427500D03*
D12*
X198430000Y-220682500D03*
X198430000Y-218857500D03*
D34*
X145160000Y-121425000D03*
X150760000Y-121425000D03*
D27*
X90567500Y-216910000D03*
X92292500Y-216910000D03*
D22*
X195515000Y-164602500D03*
X196785000Y-164602500D03*
X198055000Y-164602500D03*
X199325000Y-164602500D03*
X199325000Y-159652500D03*
X198055000Y-159652500D03*
X196785000Y-159652500D03*
X195515000Y-159652500D03*
D24*
X195040000Y-218847500D03*
X195040000Y-220672500D03*
D12*
X205145000Y-169140000D03*
X205145000Y-167315000D03*
X217640000Y-207852500D03*
X217640000Y-206027500D03*
D11*
X188427500Y-179945000D03*
X186602500Y-179945000D03*
D12*
X196570000Y-169215000D03*
X196570000Y-167390000D03*
D10*
X204040000Y-213682500D03*
X204040000Y-215407500D03*
D27*
X180147500Y-204170000D03*
X181872500Y-204170000D03*
D12*
X162250000Y-183042500D03*
X162250000Y-181217500D03*
D40*
X195812500Y-184970000D03*
X194087500Y-184970000D03*
D28*
X174960000Y-120057620D03*
D16*
X174960000Y-122557620D03*
D24*
X159750000Y-218877500D03*
X159750000Y-220702500D03*
D53*
X85410000Y-175637500D03*
X87310000Y-175637500D03*
X86360000Y-173762500D03*
D34*
X135630000Y-141140000D03*
X141230000Y-141140000D03*
D27*
X202972500Y-124070000D03*
X204697500Y-124070000D03*
D24*
X156790000Y-169787500D03*
X156790000Y-171612500D03*
D12*
X190020000Y-220682500D03*
X190020000Y-218857500D03*
D27*
X92577500Y-151980000D03*
X94302500Y-151980000D03*
D15*
X92487500Y-144385000D03*
X94312500Y-144385000D03*
D24*
X161360000Y-218897500D03*
X161360000Y-220722500D03*
D57*
X81530000Y-105450000D03*
X83830000Y-105450000D03*
X86130000Y-105450000D03*
D58*
X83830000Y-99150000D03*
D10*
X187535000Y-205577500D03*
X187535000Y-207302500D03*
D59*
X183690000Y-205610000D03*
X183690000Y-204210000D03*
D12*
X210265000Y-218227500D03*
X210265000Y-216402500D03*
D10*
X191690000Y-218897500D03*
X191690000Y-220622500D03*
D35*
X159790000Y-123785000D03*
D36*
X159790000Y-121245000D03*
D13*
X125325000Y-187957635D03*
D14*
X115165000Y-187957635D03*
D40*
X94362500Y-142885000D03*
X92637500Y-142885000D03*
D15*
X203047500Y-142820000D03*
X204872500Y-142820000D03*
D16*
X77870000Y-97190000D03*
D46*
X77870000Y-107350000D03*
D33*
X170560000Y-129172500D03*
X170560000Y-127447500D03*
D34*
X135860000Y-102640000D03*
X141460000Y-102640000D03*
D48*
X219150000Y-160607500D03*
X219150000Y-158067500D03*
X219150000Y-155527500D03*
D23*
X159430000Y-139660000D03*
X159430000Y-134660000D03*
D24*
X196520000Y-155215000D03*
X196520000Y-157040000D03*
D13*
X92945000Y-209457635D03*
D14*
X103105000Y-209457635D03*
D60*
X182830000Y-176110000D03*
X182830000Y-175610000D03*
X182830000Y-175110000D03*
X182830000Y-174610000D03*
X179730000Y-174610000D03*
X179730000Y-175110000D03*
X179730000Y-175610000D03*
X179730000Y-176110000D03*
D35*
X82040000Y-85320000D03*
D36*
X84580000Y-85320000D03*
D33*
X222845000Y-171340000D03*
X222845000Y-169615000D03*
D12*
X176750000Y-220692500D03*
X176750000Y-218867500D03*
D24*
X194870000Y-167465000D03*
X194870000Y-169290000D03*
D12*
X142985000Y-225872500D03*
X142985000Y-224047500D03*
D34*
X116175000Y-197007635D03*
X116175000Y-191407635D03*
D16*
X120720000Y-145590000D03*
X120720000Y-150590000D03*
D12*
X221170000Y-173740000D03*
X221170000Y-171915000D03*
D27*
X214597500Y-147870000D03*
X216322500Y-147870000D03*
D10*
X119795000Y-108647500D03*
X119795000Y-110372500D03*
D28*
X160640000Y-162032380D03*
D16*
X160640000Y-159532380D03*
D15*
X173407500Y-157150000D03*
X175232500Y-157150000D03*
D13*
X145720000Y-111975000D03*
D14*
X155880000Y-111975000D03*
D11*
X188402500Y-181595000D03*
X186577500Y-181595000D03*
X95352500Y-148930000D03*
X93527500Y-148930000D03*
D13*
X130645000Y-187757635D03*
D14*
X140805000Y-187757635D03*
D40*
X204722500Y-127345000D03*
X202997500Y-127345000D03*
D13*
X120930000Y-165570000D03*
D14*
X120930000Y-155410000D03*
D12*
X183450000Y-131112500D03*
X183450000Y-129287500D03*
D35*
X199790000Y-191720000D03*
D36*
X199790000Y-189180000D03*
D28*
X162630000Y-115080000D03*
D16*
X160130000Y-115080000D03*
D23*
X93000000Y-200275000D03*
X93000000Y-205275000D03*
D27*
X214797500Y-126970000D03*
X216522500Y-126970000D03*
D11*
X211355358Y-185840000D03*
X209530358Y-185840000D03*
X216147500Y-137970000D03*
X214322500Y-137970000D03*
D15*
X208822500Y-108920000D03*
X210647500Y-108920000D03*
D16*
X80020000Y-197210000D03*
D46*
X80020000Y-187050000D03*
D16*
X109180000Y-167530000D03*
X109180000Y-162530000D03*
X98330000Y-159220000D03*
D46*
X88170000Y-159220000D03*
D24*
X178600000Y-161427500D03*
X178600000Y-163252500D03*
D33*
X89423762Y-131532500D03*
X89423762Y-129807500D03*
D13*
X145640000Y-131775000D03*
D14*
X155800000Y-131775000D03*
D42*
X184015000Y-83255000D03*
X200245000Y-83255000D03*
X184015000Y-76905000D03*
X200245000Y-76905000D03*
X184015000Y-89605000D03*
X200245000Y-89605000D03*
D23*
X154740000Y-159475000D03*
X154740000Y-154475000D03*
D39*
X212160000Y-146330000D03*
X212160000Y-145060000D03*
X212160000Y-143790000D03*
X212160000Y-142520000D03*
X212160000Y-141250000D03*
X212160000Y-139980000D03*
X212160000Y-138710000D03*
X207210000Y-138710000D03*
X207210000Y-139980000D03*
X207210000Y-141250000D03*
X207210000Y-142520000D03*
X207210000Y-143790000D03*
X207210000Y-145060000D03*
X207210000Y-146330000D03*
D11*
X82537500Y-144785000D03*
X80712500Y-144785000D03*
D35*
X219425000Y-198240000D03*
D36*
X221965000Y-198240000D03*
D53*
X81650000Y-180177500D03*
X83550000Y-180177500D03*
X82600000Y-178302500D03*
D15*
X173407500Y-163060000D03*
X175232500Y-163060000D03*
X202772500Y-133970000D03*
X204597500Y-133970000D03*
D44*
X181179000Y-154255000D03*
X181179000Y-155525000D03*
X181179000Y-156795000D03*
X181179000Y-158065000D03*
X186601000Y-158065000D03*
X186601000Y-156795000D03*
X186601000Y-155525000D03*
X186601000Y-154255000D03*
D16*
X143210000Y-178180000D03*
D46*
X133050000Y-178180000D03*
D11*
X216572500Y-130295000D03*
X214747500Y-130295000D03*
D12*
X193360000Y-220662500D03*
X193360000Y-218837500D03*
D43*
X188242500Y-189710000D03*
X188242500Y-191610000D03*
X190517500Y-190660000D03*
D28*
X126100000Y-144050000D03*
D46*
X126100000Y-136430000D03*
D11*
X83062500Y-151510000D03*
X81237500Y-151510000D03*
D10*
X196740000Y-218907500D03*
X196740000Y-220632500D03*
D16*
X143240000Y-170630000D03*
D46*
X133080000Y-170630000D03*
D27*
X203122500Y-139595000D03*
X204847500Y-139595000D03*
D11*
X95232500Y-141090000D03*
X93407500Y-141090000D03*
D42*
X120470000Y-131610000D03*
X104470000Y-131610000D03*
X120470000Y-141610000D03*
X104470000Y-141610000D03*
D12*
X93960000Y-175412500D03*
X93960000Y-173587500D03*
D15*
X173397500Y-161270000D03*
X175222500Y-161270000D03*
D16*
X79950000Y-200380000D03*
D46*
X79950000Y-210540000D03*
D12*
X198320000Y-169215000D03*
X198320000Y-167390000D03*
D27*
X209530358Y-182240000D03*
X211255358Y-182240000D03*
D61*
X160610000Y-168000000D03*
X160610000Y-173080000D03*
X168230000Y-166730000D03*
X168230000Y-170540000D03*
X168230000Y-174350000D03*
D62*
X171855000Y-112555000D03*
X171855000Y-113825000D03*
X171855000Y-115095000D03*
X171855000Y-116365000D03*
X176805000Y-116365000D03*
X176805000Y-115095000D03*
X176805000Y-113825000D03*
X176805000Y-112555000D03*
D33*
X177480000Y-129162500D03*
X177480000Y-127437500D03*
D28*
X93520000Y-105850000D03*
D46*
X93520000Y-98230000D03*
D27*
X141307500Y-175410000D03*
X143032500Y-175410000D03*
D24*
X198295000Y-155265000D03*
X198295000Y-157090000D03*
D34*
X116125000Y-200457635D03*
X116125000Y-206057635D03*
D24*
X164750000Y-218887500D03*
X164750000Y-220712500D03*
D33*
X91083762Y-131512500D03*
X91083762Y-129787500D03*
D10*
X200470000Y-210507500D03*
X200470000Y-212232500D03*
D23*
X155170000Y-84375000D03*
X155170000Y-79375000D03*
D11*
X210832500Y-196850000D03*
X209007500Y-196850000D03*
D28*
X112350000Y-169660000D03*
D46*
X112350000Y-162040000D03*
D23*
X163250000Y-197057635D03*
X163250000Y-192057635D03*
D13*
X141120000Y-150475000D03*
D14*
X130960000Y-150475000D03*
D10*
X201850000Y-218917500D03*
X201850000Y-220642500D03*
D35*
X219425000Y-202900000D03*
D36*
X221965000Y-202900000D03*
D33*
X215370000Y-165615000D03*
X215370000Y-163890000D03*
D27*
X208872500Y-137170000D03*
X210597500Y-137170000D03*
D33*
X215190000Y-156960000D03*
X215190000Y-155235000D03*
D22*
X209915000Y-164877500D03*
X211185000Y-164877500D03*
X212455000Y-164877500D03*
X213725000Y-164877500D03*
X213725000Y-159927500D03*
X212455000Y-159927500D03*
X211185000Y-159927500D03*
X209915000Y-159927500D03*
D35*
X116865000Y-88830000D03*
D36*
X119405000Y-88830000D03*
D15*
X202997500Y-141220000D03*
X204822500Y-141220000D03*
D24*
X193810000Y-176917500D03*
X193810000Y-178742500D03*
D13*
X106840000Y-150750000D03*
D14*
X117000000Y-150750000D03*
D63*
X202330000Y-211867500D03*
X203280000Y-211867500D03*
X204230000Y-211867500D03*
X204230000Y-209592500D03*
X202330000Y-209592500D03*
D15*
X92537500Y-147410000D03*
X94362500Y-147410000D03*
D12*
X90120000Y-165832500D03*
X90120000Y-164007500D03*
D28*
X184380000Y-120600000D03*
D16*
X184380000Y-123100000D03*
D12*
X188350000Y-220682500D03*
X188350000Y-218857500D03*
D15*
X202697500Y-120045000D03*
X204522500Y-120045000D03*
D11*
X216647500Y-133520000D03*
X214822500Y-133520000D03*
D24*
X210380000Y-155245000D03*
X210380000Y-157070000D03*
X185010000Y-218857500D03*
X185010000Y-220682500D03*
X202000000Y-155227500D03*
X202000000Y-157052500D03*
G36*
X231193039Y-72019685D02*
G01*
X231238794Y-72072489D01*
X231250000Y-72124000D01*
X231250000Y-230866412D01*
X231230315Y-230933451D01*
X231177511Y-230979206D01*
X231126413Y-230990411D01*
X228374413Y-230999585D01*
X228307309Y-230980124D01*
X228261378Y-230927473D01*
X228250000Y-230875586D01*
X228250000Y-72124000D01*
X228269685Y-72056961D01*
X228322489Y-72011206D01*
X228374000Y-72000000D01*
X231126000Y-72000000D01*
X231193039Y-72019685D01*
G37*
G36*
X75193039Y-72019685D02*
G01*
X75238794Y-72072489D01*
X75250000Y-72124000D01*
X75250000Y-230876000D01*
X75230315Y-230943039D01*
X75177511Y-230988794D01*
X75126000Y-231000000D01*
X72374000Y-231000000D01*
X72306961Y-230980315D01*
X72261206Y-230927511D01*
X72250000Y-230876000D01*
X72250000Y-72124000D01*
X72269685Y-72056961D01*
X72322489Y-72011206D01*
X72374000Y-72000000D01*
X75126000Y-72000000D01*
X75193039Y-72019685D01*
G37*
M02*
