M48
; DRILL file {KiCad 7.0.10} date Sat Nov 23 11:02:47 2024
; FORMAT={-:-/ absolute / metric / decimal}
; #@! TF.CreationDate,2024-11-23T11:02:47-08:00
; #@! TF.GenerationSoftware,Kicad,Pcbnew,7.0.10
; #@! TF.FileFunction,Plated,1,4,PTH
FMAT,2
METRIC
; #@! TA.AperFunction,Plated,PTH,ViaDrill
T1C0.200
; #@! TA.AperFunction,Plated,PTH,ViaDrill
T2C0.250
; #@! TA.AperFunction,Plated,PTH,ViaDrill
T3C0.300
; #@! TA.AperFunction,Plated,PTH,ComponentDrill
T4C0.800
; #@! TA.AperFunction,Plated,PTH,ComponentDrill
T5C0.970
; #@! TA.AperFunction,Plated,PTH,ComponentDrill
T6C1.000
; #@! TA.AperFunction,Plated,PTH,ComponentDrill
T7C1.100
; #@! TA.AperFunction,Plated,PTH,ComponentDrill
T8C1.200
; #@! TA.AperFunction,Plated,PTH,ComponentDrill
T9C1.300
; #@! TA.AperFunction,Plated,PTH,ComponentDrill
T10C1.400
; #@! TA.AperFunction,Plated,PTH,ComponentDrill
T11C1.550
; #@! TA.AperFunction,Plated,PTH,ComponentDrill
T12C1.600
%
G90
G05
T1
X85.05Y-195.01
X86.23Y-192.72
X91.46Y-155.34
X92.11Y-149.06
X96.96Y-218.18
X102.18Y-217.07
X110.98Y-187.32
X110.98Y-190.09
X115.4Y-216.22
X117.62Y-215.35
X122.41Y-198.7
X137.91Y-198.89
X147.21Y-211.94
X149.41Y-207.72
X152.83Y-183.01
X153.25Y-155.44
X154.29Y-98.17
X155.17Y-194.0
X155.21Y-224.19
X156.26Y-81.91
X156.26Y-128.75
X156.71Y-137.62
X157.03Y-224.16
X157.29Y-200.91
X157.84Y-187.99
X157.99Y-132.33
X158.09Y-173.6
X159.64Y-81.91
X160.28Y-96.93
X160.69Y-174.91
X162.05Y-175.63
X166.26Y-200.54
X167.51Y-198.24
X167.55Y-185.59
X168.26Y-186.285
X168.61Y-198.7
X168.82Y-200.04
X169.53Y-199.28
X169.59Y-189.33
X171.35Y-196.9
X171.86Y-217.56
X175.9Y-138.26
X177.14Y-196.0
X178.57Y-209.56
X182.16Y-113.33
X183.39Y-217.62
X185.14Y-199.04
X186.34Y-133.07
X187.43Y-173.96
X187.63Y-197.04
X187.84Y-130.57
X188.02Y-195.35
X188.6Y-154.53
X189.61Y-194.6
X189.69Y-200.78
X189.76Y-113.26
X189.79Y-208.23
X190.11Y-193.74
X190.58Y-175.31
X190.77Y-214.84
X191.14Y-206.89
X191.45Y-203.42
X191.62Y-214.09
X191.7Y-157.29
X191.73Y-207.7
X191.79Y-163.26
X191.83Y-171.99
X192.64Y-207.745
X192.66Y-213.48
X192.7Y-179.93
X193.22Y-155.42
X193.42Y-149.24
X193.507Y-170.867
X193.59Y-207.72
X193.63Y-212.81
X194.11Y-217.68
X194.32Y-203.44
X195.09Y-210.48
X195.41Y-217.65
X195.71Y-205.028
X196.29Y-178.985
X196.56Y-181.35
X197.36Y-215.39
X197.44Y-196.75
X197.5Y-216.26
X197.78Y-216.96
X197.87Y-197.92
X198.32Y-196.18
X199.34Y-124.42
X199.47Y-196.06
X199.88Y-130.0
X200.22Y-217.51
X201.31Y-195.51
X201.33Y-194.58
X201.38Y-184.63
X201.55Y-130.46
X201.72Y-124.43
X202.13Y-200.54
X202.15Y-173.21
X202.87Y-204.19
X204.54Y-202.69
X204.57Y-178.76
X204.94Y-207.53
X205.26Y-177.59
X205.36Y-203.47
X205.89Y-226.6
X206.51Y-227.56
X206.52Y-194.58
X206.6Y-189.78
X206.74Y-215.31
X206.78Y-201.04
X207.49Y-199.39
X207.79Y-198.41
X208.75Y-219.47
X212.44Y-202.41
X212.61Y-215.13
X213.36Y-202.34
T2
X76.29Y-174.61
X76.5Y-180.63
X77.27Y-123.64
X77.34Y-118.6
X77.41Y-127.83
X77.48Y-205.1
X77.55Y-132.17
X77.62Y-155.94
X79.2Y-113.84
X79.3Y-109.26
X79.79Y-95.81
X79.79Y-100.35
X79.79Y-166.71
X80.0Y-105.32
X80.0Y-183.92
X80.17Y-174.0
X80.17Y-175.72
X80.63Y-145.99
X80.76Y-109.04
X81.11Y-149.99
X81.77Y-109.02
X82.39Y-176.57
X82.82Y-109.04
X83.27Y-147.31
X83.63Y-153.99
X84.05Y-159.3
X84.19Y-164.06
X84.43Y-109.57
X84.53Y-181.04
X84.644Y-120.43
X84.68Y-208.18
X84.684Y-117.93
X85.73Y-188.88
X86.594Y-131.12
X86.78Y-169.44
X87.574Y-128.57
X87.6Y-184.26
X88.22Y-200.65
X88.37Y-192.36
X88.53Y-148.78
X88.53Y-210.28
X88.614Y-122.64
X88.62Y-197.29
X89.044Y-125.44
X89.12Y-176.85
X89.424Y-123.43
X89.434Y-128.51
X89.784Y-122.12
X89.814Y-126.09
X90.45Y-167.08
X90.45Y-188.08
X90.81Y-107.7
X90.84Y-112.26
X91.094Y-128.49
X91.96Y-169.25
X92.064Y-121.99
X92.774Y-128.53
X93.78Y-169.15
X94.4Y-116.99
X94.61Y-133.92
X95.22Y-174.55
X95.55Y-151.69
X95.58Y-145.8
X95.62Y-147.36
X96.23Y-166.23
X97.69Y-138.46
X98.89Y-181.19
X100.48Y-166.64
X100.53Y-141.98
X100.83Y-134.2
X100.9Y-155.66
X101.09Y-119.79
X101.13Y-128.23
X102.86Y-145.73
X103.0Y-150.91
X103.7Y-111.19
X104.05Y-176.22
X104.33Y-180.91
X106.08Y-192.17
X106.08Y-203.57
X106.15Y-196.43
X107.24Y-137.6
X107.46Y-215.48
X107.49Y-220.11
X107.65Y-228.0
X108.59Y-122.78
X109.25Y-127.58
X112.28Y-142.08
X112.54Y-182.86
X113.0Y-203.36
X113.37Y-212.03
X116.19Y-116.81
X116.52Y-133.03
X117.26Y-120.96
X117.41Y-166.43
X117.68Y-138.77
X119.79Y-107.05
X120.19Y-214.69
X120.63Y-196.71
X121.18Y-191.68
X121.53Y-182.59
X121.59Y-107.06
X121.82Y-213.09
X123.27Y-213.16
X123.56Y-176.5
X124.12Y-153.57
X124.26Y-165.87
X125.07Y-75.1
X125.33Y-217.93
X125.38Y-81.92
X125.99Y-198.8
X127.69Y-190.98
X127.83Y-207.34
X129.93Y-198.86
X135.3Y-201.01
X135.53Y-217.93
X136.71Y-191.75
X140.61Y-154.31
X140.83Y-135.51
X140.99Y-115.83
X141.43Y-174.11
X141.44Y-96.86
X141.5Y-86.99
X142.01Y-163.14
X142.03Y-125.03
X142.39Y-144.99
X142.52Y-106.19
X143.85Y-218.11
X144.05Y-204.19
X144.19Y-208.04
X144.26Y-192.45
X145.02Y-78.41
X145.59Y-196.36
X145.71Y-211.58
X146.43Y-136.25
X146.61Y-115.47
X147.69Y-83.84
X149.14Y-211.63
X149.99Y-154.05
X150.08Y-96.78
X150.13Y-203.91
X150.15Y-78.24
X150.24Y-174.54
X150.34Y-168.88
X150.45Y-179.58
X150.76Y-192.1
X150.79Y-117.79
X151.72Y-114.22
X152.03Y-134.02
X152.27Y-76.73
X152.88Y-218.2
X152.95Y-95.7
X153.17Y-139.65
X153.75Y-81.88
X153.77Y-156.79
X154.24Y-100.93
X156.82Y-225.75
X159.39Y-196.5
X159.68Y-123.25
X159.93Y-221.8
X160.53Y-227.14
X162.69Y-223.81
X162.86Y-173.57
X164.38Y-173.51
X164.52Y-179.88
X165.37Y-113.75
X165.37Y-221.82
X165.44Y-196.51
X165.76Y-126.4
X166.08Y-173.47
X166.26Y-222.7
X168.05Y-124.78
X169.29Y-129.22
X170.17Y-91.68
X170.37Y-80.15
X170.51Y-221.75
X170.72Y-167.7
X171.08Y-179.82
X171.1Y-177.91
X171.12Y-178.97
X171.19Y-181.66
X171.33Y-171.31
X171.42Y-176.18
X171.66Y-169.51
X171.67Y-207.55
X171.92Y-117.26
X172.02Y-155.43
X172.07Y-157.16
X172.12Y-163.06
X172.13Y-161.32
X172.845Y-170.44
X172.86Y-158.53
X172.86Y-165.64
X172.94Y-125.66
X173.8Y-116.87
X174.1Y-118.51
X174.145Y-171.38
X174.18Y-159.97
X174.18Y-165.52
X174.2Y-174.8
X174.23Y-182.71
X174.42Y-100.84
X174.49Y-105.04
X174.55Y-188.44
X174.63Y-126.38
X174.83Y-164.7
X174.88Y-112.59
X174.93Y-170.38
X175.06Y-169.49
X175.26Y-154.21
X175.7Y-221.69
X175.96Y-118.47
X176.32Y-109.66
X177.1Y-167.71
X177.26Y-172.22
X177.41Y-208.74
X177.43Y-177.43
X178.24Y-194.96
X178.26Y-227.46
X178.49Y-130.09
X178.56Y-170.47
X179.65Y-209.59
X179.96Y-111.61
X180.34Y-136.26
X180.6Y-221.64
X180.77Y-176.08
X180.84Y-178.39
X181.41Y-176.72
X181.6Y-145.8
X181.77Y-172.04
X181.772Y-175.218
X181.81Y-141.5
X182.02Y-169.95
X182.09Y-183.67
X182.18Y-173.76
X182.58Y-195.03
X182.64Y-107.96
X182.75Y-109.25
X183.28Y-170.84
X183.3Y-181.1
X183.82Y-158.21
X183.91Y-164.59
X184.36Y-131.95
X184.48Y-113.52
X184.66Y-160.08
X185.07Y-221.85
X185.11Y-154.31
X186.34Y-170.48
X186.59Y-194.35
X187.19Y-165.6
X188.47Y-160.63
X188.74Y-116.75
X188.74Y-127.24
X189.15Y-168.98
X189.2Y-144.97
X189.26Y-178.53
X189.36Y-203.59
X189.52Y-221.76
X190.95Y-186.61
X191.08Y-229.5
X191.61Y-192.07
X192.02Y-182.37
X192.13Y-80.13
X192.3Y-88.74
X192.66Y-192.77
X192.92Y-199.08
X193.8Y-221.75
X194.82Y-137.2
X194.92Y-143.6
X195.49Y-162.077
X195.62Y-166.33
X195.76Y-125.77
X195.88Y-207.025
X196.04Y-211.29
X196.73Y-212.15
X196.95Y-207.56
X198.09Y-190.84
X198.16Y-223.96
X198.94Y-176.5
X199.01Y-150.52
X199.41Y-162.68
X199.98Y-154.09
X200.2Y-221.83
X200.25Y-213.26
X200.37Y-164.697
X200.55Y-196.78
X200.69Y-101.54
X200.99Y-170.117
X201.21Y-143.77
X201.46Y-205.66
X201.68Y-113.28
X201.69Y-114.96
X201.69Y-127.4
X201.76Y-129.05
X201.76Y-158.308
X202.045Y-142.04
X202.35Y-216.88
X202.59Y-162.287
X202.88Y-174.24
X203.25Y-218.19
X203.29Y-210.52
X203.35Y-170.48
X203.46Y-227.33
X203.7Y-175.45
X203.7Y-206.41
X204.19Y-221.68
X204.54Y-187.47
X205.165Y-215.835
X205.36Y-188.35
X205.62Y-212.33
X205.68Y-218.06
X206.42Y-162.287
X206.85Y-196.92
X207.13Y-174.68
X207.28Y-164.957
X207.7Y-170.028
X207.92Y-154.11
X208.71Y-227.22
X208.73Y-178.25
X208.83Y-113.05
X208.96Y-127.1
X208.97Y-141.39
X209.79Y-170.968
X209.84Y-204.83
X209.94Y-162.417
X210.15Y-113.07
X210.3Y-141.34
X210.34Y-127.12
X211.11Y-154.037
X211.138Y-180.895
X211.89Y-198.56
X212.13Y-101.12
X212.44Y-219.46
X212.475Y-187.352
X212.99Y-137.17
X213.54Y-149.26
X213.85Y-161.947
X214.11Y-194.24
X214.24Y-154.017
X214.49Y-201.41
X214.92Y-170.088
X215.27Y-88.01
X215.87Y-80.14
X216.01Y-180.14
X216.03Y-162.688
X216.553Y-136.623
X216.9Y-166.507
X217.09Y-155.35
X217.27Y-214.4
X217.29Y-218.24
X217.62Y-112.66
X217.66Y-114.2
X217.73Y-208.865
X217.93Y-126.93
X217.97Y-128.55
X218.59Y-186.36
X218.91Y-190.045
X219.43Y-208.82
X220.52Y-219.45
X221.01Y-167.147
X221.32Y-222.38
X221.89Y-168.558
X222.2Y-121.15
X222.45Y-172.487
X222.62Y-104.26
X222.62Y-136.78
X223.14Y-144.02
X223.45Y-129.54
X223.56Y-113.7
X223.56Y-162.69
X223.66Y-151.05
X223.66Y-157.86
X223.7Y-186.36
X224.89Y-191.19
X225.03Y-209.13
X225.04Y-225.9
X226.32Y-196.45
X226.98Y-213.67
T3
X76.8Y-140.92
X82.81Y-114.88
X83.85Y-142.13
X83.97Y-133.61
X85.94Y-114.9
X87.56Y-133.61
X88.14Y-151.17
X91.15Y-141.94
X93.26Y-135.88
X94.01Y-110.88
X94.05Y-108.91
X98.59Y-107.59
X99.26Y-108.31
X100.36Y-105.76
X101.05Y-106.48
X101.92Y-104.29
X102.61Y-105.0
X103.44Y-102.6
X104.13Y-103.28
X113.16Y-111.04
X158.18Y-221.9
X163.24Y-127.91
X163.83Y-221.8
X164.06Y-128.74
X164.97Y-129.64
X166.15Y-130.8
X168.92Y-221.41
X174.22Y-221.68
X179.1Y-221.61
X182.01Y-117.0
X183.27Y-221.8
X186.99Y-110.87
X188.12Y-177.14
X190.81Y-221.66
X195.46Y-221.85
X196.93Y-121.22
X197.08Y-184.33
X197.89Y-122.17
X198.39Y-107.07
X199.68Y-122.56
X201.07Y-213.855
X201.7Y-221.89
X206.43Y-185.86
X209.95Y-111.76
X210.15Y-125.15
X210.3Y-219.51
X210.76Y-206.81
X211.93Y-195.26
X212.36Y-190.97
X212.47Y-185.85
X215.07Y-208.73
X215.86Y-219.44
X220.22Y-194.83
X221.42Y-209.0
T4
X79.07Y-216.27
X79.07Y-218.81
X79.07Y-221.35
X79.95Y-200.38
X79.95Y-210.54
X80.02Y-187.05
X80.02Y-197.21
X80.47Y-138.725
X83.01Y-138.725
X85.5Y-216.545
X85.5Y-218.545
X85.55Y-138.725
X88.17Y-159.22
X97.175Y-90.886
X97.175Y-93.386
X98.33Y-159.22
X104.64Y-170.42
X104.86Y-173.45
X109.18Y-162.53
X109.18Y-167.53
X109.64Y-170.42
X111.39Y-178.96
X112.35Y-162.04
X112.35Y-169.66
X112.48Y-173.45
X112.77Y-146.89
X117.77Y-146.89
X120.72Y-145.59
X120.72Y-150.59
X121.05Y-168.93
X121.05Y-173.93
X121.55Y-178.96
X123.94Y-88.89
X126.1Y-136.43
X126.1Y-144.05
X127.52Y-147.375
X128.94Y-88.89
X129.4Y-136.72
X129.4Y-144.34
X132.52Y-147.375
X133.05Y-178.18
X133.08Y-170.63
X143.21Y-178.18
X143.24Y-170.63
X154.42Y-136.405
X154.42Y-144.025
X157.22Y-142.625
X157.22Y-147.625
X160.13Y-115.08
X160.64Y-159.532
X160.64Y-162.032
X162.63Y-115.08
X162.83Y-99.91
X162.83Y-102.41
X163.18Y-106.782
X163.18Y-109.282
X164.595Y-139.81
X164.595Y-142.31
X166.402Y-119.78
X168.76Y-99.06
X168.76Y-101.6
X168.76Y-104.14
X168.76Y-106.68
X168.902Y-119.78
X174.96Y-120.058
X174.96Y-122.558
X178.92Y-99.06
X178.92Y-101.6
X178.92Y-104.14
X178.92Y-106.68
X183.065Y-209.24
X184.38Y-120.6
X184.38Y-123.1
X185.065Y-209.24
X188.968Y-108.84
X189.34Y-149.05
X189.34Y-151.55
X191.05Y-100.442
X191.05Y-102.942
X191.468Y-108.84
X196.5Y-189.72
X196.5Y-191.72
X199.79Y-189.72
X199.79Y-191.72
X215.995Y-174.297
X215.995Y-176.797
X219.15Y-155.528
X219.15Y-158.067
X219.15Y-160.607
X220.82Y-178.405
X220.82Y-180.905
T5
X108.71Y-84.5
X111.25Y-84.5
T6
X89.25Y-224.38
X90.77Y-136.94
X90.77Y-139.48
X91.79Y-224.38
X92.875Y-191.808
X92.875Y-196.808
X93.0Y-200.275
X93.0Y-205.275
X94.33Y-224.38
X96.87Y-224.38
X99.41Y-224.38
X100.83Y-169.4
X100.83Y-174.4
X101.95Y-224.38
X104.49Y-224.38
X105.13Y-158.55
X105.13Y-163.55
X107.03Y-224.38
X108.9Y-208.108
X108.9Y-213.108
X109.2Y-183.658
X109.2Y-188.658
X109.57Y-224.38
X112.11Y-224.38
X114.65Y-224.38
X116.38Y-158.812
X116.38Y-163.812
X116.39Y-168.88
X116.39Y-173.88
X117.19Y-224.38
X119.73Y-224.38
X122.27Y-224.38
X124.81Y-224.38
X125.425Y-192.058
X125.425Y-197.058
X125.575Y-200.6
X125.575Y-205.6
X127.35Y-224.38
X129.89Y-224.38
X130.27Y-171.775
X130.27Y-176.775
X130.3Y-192.008
X130.3Y-197.008
X130.4Y-200.5
X130.4Y-205.5
X131.37Y-161.175
X131.37Y-166.175
X132.43Y-224.38
X154.74Y-154.475
X154.74Y-159.475
X155.17Y-79.375
X155.17Y-84.375
X155.18Y-116.64
X155.18Y-121.64
X155.64Y-98.74
X155.64Y-103.74
X159.43Y-134.66
X159.43Y-139.66
X160.61Y-168.0
X160.61Y-173.08
X163.25Y-192.058
X163.25Y-197.058
X163.45Y-200.633
X163.45Y-205.633
X167.32Y-224.98
X167.44Y-179.67
X167.44Y-182.21
X168.23Y-166.73
X168.23Y-170.54
X168.23Y-174.35
X169.86Y-224.98
X171.21Y-186.04
X172.4Y-224.98
X173.75Y-186.04
X174.94Y-224.98
X175.85Y-203.7
X175.85Y-206.24
X175.85Y-208.78
X175.85Y-211.32
X176.29Y-186.04
X177.48Y-224.98
X178.83Y-186.04
X180.02Y-224.98
X181.37Y-186.04
X182.56Y-224.98
X183.91Y-186.04
X184.18Y-98.98
X184.18Y-101.52
X184.18Y-104.06
X185.1Y-224.98
X187.64Y-224.98
X190.18Y-224.98
X192.72Y-224.98
X208.3Y-224.39
X210.84Y-224.39
X213.38Y-224.39
X215.92Y-224.39
X219.425Y-198.24
X219.425Y-202.9
X221.965Y-198.24
X221.965Y-202.9
X223.48Y-215.055
X223.48Y-217.595
T7
X82.725Y-91.75
X85.265Y-91.75
X87.805Y-91.75
X92.845Y-187.958
X92.945Y-209.458
X103.005Y-187.958
X103.105Y-209.458
X106.84Y-150.75
X106.85Y-155.36
X114.395Y-209.358
X115.165Y-187.958
X117.0Y-150.75
X117.01Y-155.36
X120.93Y-155.41
X120.93Y-165.57
X124.555Y-209.358
X125.325Y-187.958
X130.645Y-187.758
X130.96Y-150.475
X131.04Y-131.675
X131.29Y-93.325
X131.34Y-111.925
X131.445Y-209.358
X131.61Y-74.725
X140.805Y-187.758
X141.12Y-150.475
X141.2Y-131.675
X141.45Y-93.325
X141.5Y-111.925
X141.605Y-209.358
X141.77Y-74.725
X145.56Y-150.425
X145.64Y-131.775
X145.72Y-111.975
X145.89Y-93.325
X146.07Y-74.775
X152.67Y-209.558
X152.82Y-187.733
X155.72Y-150.425
X155.8Y-131.775
X155.88Y-111.975
X156.05Y-93.325
X156.23Y-74.775
X162.83Y-209.558
X162.98Y-187.733
X171.05Y-139.87
X171.05Y-142.41
X171.05Y-144.95
T8
X104.47Y-131.61
X104.47Y-141.61
X104.545Y-114.51
X104.545Y-124.51
X120.47Y-131.61
X120.47Y-141.61
X120.545Y-114.51
X120.545Y-124.51
T9
X101.975Y-191.408
X101.975Y-197.008
X102.125Y-200.408
X102.125Y-206.008
X116.125Y-200.458
X116.125Y-206.058
X116.175Y-191.408
X116.175Y-197.008
X135.05Y-159.77
X135.31Y-121.42
X135.62Y-83.92
X135.63Y-141.14
X135.86Y-102.64
X139.85Y-191.383
X139.85Y-196.983
X139.85Y-200.433
X139.85Y-206.033
X140.65Y-159.77
X140.91Y-121.42
X141.22Y-83.92
X141.23Y-141.14
X141.46Y-102.64
X144.89Y-83.84
X145.16Y-121.425
X145.27Y-159.82
X145.29Y-141.04
X145.44Y-102.64
X150.49Y-83.84
X150.76Y-121.425
X150.87Y-159.82
X150.89Y-141.04
X151.04Y-102.64
X154.2Y-191.383
X154.2Y-196.983
X154.225Y-200.433
X154.225Y-206.033
T10
X162.25Y-75.475
X162.25Y-88.175
X178.48Y-75.475
X178.48Y-88.175
X184.015Y-76.905
X184.015Y-83.255
X184.015Y-89.605
X200.245Y-76.905
X200.245Y-83.255
X200.245Y-89.605
X207.755Y-75.465
X207.755Y-88.165
X223.985Y-75.465
X223.985Y-88.165
T11
X97.25Y-99.975
X97.25Y-104.775
X97.25Y-109.575
T12
X82.55Y-83.28
X87.25Y-80.28
X87.25Y-86.28
M30
